<?xml version="1.0" encoding="utf-8"?>
<!-- Generator: Adobe Illustrator 18.0.0, SVG Export Plug-In . SVG Version: 6.00 Build 0)  -->
<!DOCTYPE svg PUBLIC "-//W3C//DTD SVG 1.1//EN" "http://www.w3.org/Graphics/SVG/1.1/DTD/svg11.dtd">
<svg version="1.1" id="Layer_1" xmlns="http://www.w3.org/2000/svg" xmlns:xlink="http://www.w3.org/1999/xlink" x="0px" y="0px"
	 viewBox="0 0 32 32" enable-background="new 0 0 32 32" xml:space="preserve">
<g>
	<path fill="#FFFFFF" d="M28.8,18.6C28.8,18.7,28.8,18.7,28.8,18.6c0,0.2-0.1,0.3-0.2,0.5C28.7,19,28.8,18.8,28.8,18.6"/>
</g>
<g>
	<path fill="#733737" d="M26.4,17L26.4,17C26.4,17,26.5,17,26.4,17C26.5,17,26.4,17,26.4,17z"/>
	<path fill="#FFFFFF" d="M26.5,17C26.5,17,26.4,17,26.5,17C26.4,17,26.5,17,26.5,17"/>
</g>
<g>
	<path fill="#375273" d="M27.6,25.8c0,0.5-0.2,0.9-0.5,1.3c-0.4,0.4-0.8,0.5-1.3,0.5c-0.5,0-0.9-0.2-1.3-0.5l-4.8-4.8
		c-1.7,1.2-3.5,1.7-5.6,1.7c-1.3,0-2.6-0.3-3.8-0.8S8.1,22,7.3,21.2S5.7,19.2,5.2,18s-0.8-2.5-0.8-3.8s0.3-2.6,0.8-3.8
		c0.5-1.2,1.2-2.3,2.1-3.1s1.9-1.6,3.1-2.1s2.5-0.8,3.8-0.8s2.6,0.3,3.8,0.8c1.2,0.5,2.3,1.2,3.1,2.1s1.6,1.9,2.1,3.1
		c0.5,1.2,0.8,2.5,0.8,3.8c0,2-0.6,3.9-1.7,5.6l4.8,4.8C27.4,24.9,27.6,25.3,27.6,25.8z M18.6,18.6c1.2-1.2,1.8-2.7,1.8-4.4
		s-0.6-3.2-1.8-4.4S15.9,8,14.2,8S11,8.6,9.8,9.8C8.6,11,8,12.5,8,14.2s0.6,3.2,1.8,4.4c1.2,1.2,2.7,1.8,4.4,1.8
		S17.4,19.9,18.6,18.6z"/>
</g>
</svg>
