<?xml version="1.0" encoding="utf-8"?>
<!-- Generator: Adobe Illustrator 18.0.0, SVG Export Plug-In . SVG Version: 6.00 Build 0)  -->
<!DOCTYPE svg PUBLIC "-//W3C//DTD SVG 1.1//EN" "http://www.w3.org/Graphics/SVG/1.1/DTD/svg11.dtd">
<svg version="1.1" id="Layer_1" xmlns="http://www.w3.org/2000/svg" xmlns:xlink="http://www.w3.org/1999/xlink" x="0px" y="0px"
	 viewBox="0 0 32 32" enable-background="new 0 0 32 32" xml:space="preserve">
<g>
	<path fill="#FFFFFF" d="M28.8,18.6C28.8,18.7,28.8,18.7,28.8,18.6c0,0.2-0.1,0.3-0.2,0.5C28.7,19,28.8,18.8,28.8,18.6"/>
</g>
<g>
	<path fill="#733737" d="M26.4,17L26.4,17C26.4,17,26.5,17,26.4,17C26.5,17,26.4,17,26.4,17z"/>
	<path fill="#FFFFFF" d="M26.5,17C26.5,17,26.4,17,26.5,17C26.4,17,26.5,17,26.5,17"/>
</g>
<g>
	<path fill="#375273" d="M28.5,17.8v9.4c0,0.4-0.1,0.7-0.4,0.9s-0.6,0.4-0.9,0.4H13.8c-0.4,0-0.7-0.1-0.9-0.4
		c-0.3-0.3-0.4-0.6-0.4-0.9v-2.2H4.8c-0.4,0-0.7-0.1-0.9-0.4S3.5,24,3.5,23.6V4.8c0-0.4,0.1-0.7,0.4-0.9c0.3-0.3,0.6-0.4,0.9-0.4H20
		c0.4,0,0.7,0.1,0.9,0.4c0.3,0.3,0.4,0.6,0.4,0.9v4.6c0.2,0.1,0.4,0.3,0.5,0.4l5.7,5.7c0.3,0.3,0.5,0.6,0.7,1.1
		C28.4,17,28.5,17.4,28.5,17.8z M17.8,6.6V5.7c0-0.1,0-0.2-0.1-0.3c-0.1-0.1-0.2-0.1-0.3-0.1H7.5c-0.1,0-0.2,0-0.3,0.1
		C7.1,5.5,7.1,5.6,7.1,5.7v0.9c0,0.1,0,0.2,0.1,0.3C7.3,7,7.4,7.1,7.5,7.1h9.8c0.1,0,0.2,0,0.3-0.1C17.7,6.9,17.8,6.7,17.8,6.6z
		 M14.2,26.7h12.5v-8.9h-5.8c-0.4,0-0.7-0.1-0.9-0.4c-0.3-0.3-0.4-0.6-0.4-0.9v-5.8h-5.4V26.7z M21.4,16h4.2l-4.2-4.2V16z"/>
</g>
</svg>
