<?xml version="1.0" encoding="utf-8"?>
<!-- Generator: Adobe Illustrator 18.0.0, SVG Export Plug-In . SVG Version: 6.00 Build 0)  -->
<!DOCTYPE svg PUBLIC "-//W3C//DTD SVG 1.1//EN" "http://www.w3.org/Graphics/SVG/1.1/DTD/svg11.dtd">
<svg version="1.1" id="Layer_1" xmlns="http://www.w3.org/2000/svg" xmlns:xlink="http://www.w3.org/1999/xlink" x="0px" y="0px"
	 viewBox="0 0 32 32" enable-background="new 0 0 32 32" xml:space="preserve">
<g>
	<path fill="#FFFFFF" d="M28.8,18.6C28.8,18.7,28.8,18.7,28.8,18.6c0,0.2-0.1,0.3-0.2,0.5C28.7,19,28.8,18.8,28.8,18.6"/>
</g>
<g>
	<path fill="#733737" d="M26.4,17L26.4,17C26.4,17,26.5,17,26.4,17C26.5,17,26.4,17,26.4,17z"/>
	<path fill="#FFFFFF" d="M26.5,17C26.5,17,26.4,17,26.5,17C26.4,17,26.5,17,26.5,17"/>
</g>
<path fill="#375273" d="M26.4,22.9c0.2-0.2,0.3-0.4,0.3-0.6v-1.8c0-0.2-0.1-0.5-0.3-0.6c-0.2-0.2-0.4-0.3-0.6-0.3h-9.5
	c0.1,0,0.2-0.1,0.3-0.2l9.9-9.9c0.2-0.2,0.2-0.3,0.2-0.4c-0.1-0.1-0.2-0.2-0.4-0.2h-9.9h-0.7H5.7C5.5,8.9,5.3,8.9,5.3,9
	c-0.1,0.1,0,0.3,0.2,0.4l9.9,9.9c0.1,0.1,0.2,0.1,0.3,0.2H6.2c-0.2,0-0.5,0.1-0.6,0.3c-0.2,0.2-0.3,0.4-0.3,0.6v1.8
	c0,0.2,0.1,0.5,0.3,0.6s0.4,0.3,0.6,0.3h19.6C26.1,23.1,26.3,23.1,26.4,22.9z"/>
</svg>
