<?xml version="1.0" encoding="utf-8"?>
<!-- Generator: Adobe Illustrator 18.0.0, SVG Export Plug-In . SVG Version: 6.00 Build 0)  -->
<!DOCTYPE svg PUBLIC "-//W3C//DTD SVG 1.1//EN" "http://www.w3.org/Graphics/SVG/1.1/DTD/svg11.dtd">
<svg version="1.1" id="Layer_1" xmlns="http://www.w3.org/2000/svg" xmlns:xlink="http://www.w3.org/1999/xlink" x="0px" y="0px"
	 viewBox="0 0 2000 2000" enable-background="new 0 0 2000 2000" xml:space="preserve">
<g>
	<path fill="#FFFFFF" d="M1800,1162.5C1800,1168.8,1800,1168.8,1800,1162.5c0,12.5-6.3,18.8-12.5,31.3
		C1793.8,1187.5,1800,1175,1800,1162.5"/>
</g>
<g>
	<path fill="#733737" d="M1650,1062.5L1650,1062.5C1650,1062.5,1656.3,1062.5,1650,1062.5C1656.3,1062.5,1650,1062.5,1650,1062.5z"
		/>
	<path fill="#FFFFFF" d="M1656.3,1062.5C1656.3,1062.5,1650,1062.5,1656.3,1062.5C1650,1062.5,1656.3,1062.5,1656.3,1062.5"/>
</g>
<path fill="#375273" d="M348.9,1347.9c-23.1,0-28.6-13.4-12.3-29.7l634.9-636.3c16.3-16.4,43-16.3,59.3,0.1l632.7,636.2
	c16.3,16.4,10.7,29.8-12.4,29.8H348.9z"/>
</svg>
