<?xml version="1.0" encoding="utf-8"?>
<!-- Generator: Adobe Illustrator 18.0.0, SVG Export Plug-In . SVG Version: 6.00 Build 0)  -->
<!DOCTYPE svg PUBLIC "-//W3C//DTD SVG 1.1//EN" "http://www.w3.org/Graphics/SVG/1.1/DTD/svg11.dtd">
<svg version="1.1" id="Layer_1" xmlns="http://www.w3.org/2000/svg" xmlns:xlink="http://www.w3.org/1999/xlink" x="0px" y="0px"
	 viewBox="0 0 32 32" enable-background="new 0 0 32 32" xml:space="preserve">
<g>
	<g>
		<path fill="#427337" d="M31,19.3c0,0.3-0.1,0.5-0.3,0.6l-6.8,6.8L22.7,28c-0.2,0.2-0.4,0.3-0.6,0.3c-0.3,0-0.5-0.1-0.6-0.3
			l-1.3-1.3l-3.4-3.4c-0.2-0.2-0.3-0.4-0.3-0.7c0-0.3,0.1-0.5,0.3-0.6l1.3-1.3c0.2-0.2,0.4-0.3,0.6-0.3c0.3,0,0.5,0.1,0.6,0.3
			l2.8,2.8l6.1-6.1c0.2-0.2,0.4-0.3,0.6-0.3c0.3,0,0.5,0.1,0.6,0.3l1.3,1.3C30.9,18.8,31,19,31,19.3z"/>
	</g>
</g>
<path fill="#375273" d="M16.1,24c-0.3-0.3-0.5-0.6-0.6-1H5.7c-0.1,0-0.2,0-0.3-0.1c-0.1-0.1-0.1-0.2-0.1-0.3V11.9
	c0.3,0.3,0.6,0.6,1,0.9c2.5,1.9,4.5,3.5,5.9,4.7c0.5,0.4,0.9,0.7,1.2,0.9c0.3,0.2,0.7,0.4,1.2,0.7c0.5,0.2,1,0.3,1.4,0.3h0h0
	c0.4,0,0.9-0.1,1.4-0.3s0.9-0.5,1.2-0.7c0.3-0.2,0.7-0.5,1.2-0.9c1.5-1.2,3.5-2.8,5.9-4.7c0.3-0.3,0.7-0.6,1-0.9v5.5l0.7-0.7
	c0.3-0.3,0.7-0.5,1.1-0.5V7.4c0-0.6-0.2-1.1-0.7-1.6c-0.4-0.4-1-0.7-1.6-0.7H5.7c-0.6,0-1.1,0.2-1.6,0.7c-0.4,0.4-0.7,1-0.7,1.6
	v15.2c0,0.6,0.2,1.1,0.7,1.6c0.4,0.4,1,0.7,1.6,0.7h11.1L16.1,24z M5.4,7.1C5.5,7,5.6,7,5.7,7h20.5c0.1,0,0.1,0,0.2,0
	c0.1,0,0.1,0.1,0.1,0.1c0,0,0.1,0.1,0.1,0.1c0,0,0,0.1,0,0.2c0,0.1,0,0.1,0,0.2s0,0.1,0,0.2c0,0.1,0,0.1,0,0.2
	c0,0.5-0.2,1.2-0.6,1.8c-0.4,0.7-0.9,1.2-1.4,1.6c-1.8,1.4-3.7,2.9-5.6,4.4c-0.1,0-0.2,0.2-0.5,0.4c-0.3,0.2-0.5,0.4-0.6,0.5
	c-0.2,0.1-0.4,0.3-0.6,0.4c-0.3,0.2-0.5,0.3-0.7,0.4c-0.2,0.1-0.4,0.1-0.6,0.1h0h0c-0.2,0-0.4,0-0.6-0.1c-0.2-0.1-0.4-0.2-0.7-0.4
	c-0.3-0.2-0.5-0.3-0.6-0.4c-0.2-0.1-0.4-0.3-0.6-0.5c-0.3-0.2-0.4-0.4-0.5-0.4c-1.9-1.5-3.8-3-5.6-4.4C6,10.3,5.3,9,5.3,7.4
	C5.3,7.3,5.3,7.2,5.4,7.1z"/>
</svg>
