<svg xmlns="http://www.w3.org/2000/svg" viewBox="0 0 32 32">
  <path fill="#000000" d="m 13.730493,25.968961 c 0,0.2 0,0.4 -0.2,0.6 -0.2,0.2 -0.4,0.2 -0.6,0.2 l -6.8,0 c -0.2,0 -0.4,0 -0.6,-0.2 -0.2,-0.2 -0.2,-0.4 -0.2,-0.6 l 0,-19.0000003 c 0,-0.2 0,-0.4 0.2,-0.6 0.2,-0.2 0.4,-0.2 0.6,-0.2 l 6.8,0 c 0.2,0 0.4,0 0.6,0.2 0.2,0.2 0.2,0.4 0.2,0.6 l 0,19.0000003 z m 12.5,0 c 0,0.2 0,0.4 -0.2,0.6 -0.2,0.2 -0.4,0.2 -0.6,0.2 l -6.8,0 c -0.2,0 -0.4,0 -0.6,-0.2 -0.2,-0.2 -0.2,-0.4 -0.2,-0.6 l 0,-19.0000003 c 0,-0.2 0,-0.4 0.2,-0.6 0.2,-0.2 0.4,-0.2 0.6,-0.2 l 6.8,0 c 0.2,0 0.4,0 0.6,0.2 0.2,0.2 0.2,0.4 0.2,0.6 l 0,19.0000003 z"/>
</svg>
