<?xml version="1.0" encoding="UTF-8" standalone="no"?>
<svg
   xmlns:dc="http://purl.org/dc/elements/1.1/"
   xmlns:cc="http://creativecommons.org/ns#"
   xmlns:rdf="http://www.w3.org/1999/02/22-rdf-syntax-ns#"
   xmlns:svg="http://www.w3.org/2000/svg"
   xmlns="http://www.w3.org/2000/svg"
   xmlns:sodipodi="http://sodipodi.sourceforge.net/DTD/sodipodi-0.dtd"
   xmlns:inkscape="http://www.inkscape.org/namespaces/inkscape"
   viewBox="0 0 32 32"
   version="1.1"
   id="svg14"
   sodipodi:docname="edit-clear-history.svg"
   inkscape:version="0.92.4 5da689c313, 2019-01-14">
  <metadata
     id="metadata20">
    <rdf:RDF>
      <cc:Work
         rdf:about="">
        <dc:format>image/svg+xml</dc:format>
        <dc:type
           rdf:resource="http://purl.org/dc/dcmitype/StillImage" />
      </cc:Work>
    </rdf:RDF>
  </metadata>
  <defs
     id="defs18" />
  <sodipodi:namedview
     pagecolor="#ffffff"
     bordercolor="#666666"
     borderopacity="1"
     objecttolerance="10"
     gridtolerance="10"
     guidetolerance="10"
     inkscape:pageopacity="0"
     inkscape:pageshadow="2"
     inkscape:window-width="1366"
     inkscape:window-height="703"
     id="namedview16"
     showgrid="false"
     inkscape:zoom="7.375"
     inkscape:cx="17.355932"
     inkscape:cy="16"
     inkscape:window-x="0"
     inkscape:window-y="0"
     inkscape:window-maximized="1"
     inkscape:current-layer="svg14" />
  <g
     id="g846">
    <path
       style="fill:#4285f4;fill-opacity:1;stroke-width:1.19448876"
       id="path2"
       d="M 9.859649,17.452282 C 9.3684209,17.80083 8.9999998,18.033195 8.6315788,18.26556 8.2631577,18.497925 8.0175437,18.846473 7.5263156,19.195021 7.0350875,19.543568 6.6666665,20.008299 6.4210524,20.240664 6.1754384,20.589212 5.8070173,20.937759 5.5614033,21.40249 5.1929822,21.86722 4.9473682,22.33195 4.8245612,22.79668 4.5789471,23.261411 4.4561401,23.726141 4.3333331,24.307054 4.2105261,24.887967 4.087719,25.468879 4.087719,25.93361 h 16.08772 l -0.736842,-0.697096 c -0.122807,0 -0.245615,-0.348547 -0.245615,-0.697095 0,-0.232365 0.122808,-0.348548 0.245615,-0.580913 0,0 0,-0.116183 0.122807,-0.116183 l 2.333333,-2.207468 -2.333333,-2.207469 c -0.368422,-0.232365 -0.368422,-0.580913 -0.368422,-0.813278 0,-0.232365 0.122808,-0.348548 0.245615,-0.580913 0,0 0,-0.116183 0.122807,-0.116183 l 0.245614,-0.232365 c -0.122807,0 -0.122807,-0.116182 -0.245614,-0.116182 -0.491229,-0.348548 -0.85965,-0.580913 -1.105264,-0.697096 -0.245614,-0.116182 -0.614035,-0.348547 -1.105263,-0.697095 0.491228,-0.348548 0.859649,-0.46473 1.105263,-0.697096 0.245614,-0.116182 0.614035,-0.348547 1.105264,-0.697095 0.491228,-0.348548 0.859649,-0.580913 1.22807,-0.813278 0.245614,-0.232365 0.614035,-0.580913 1.105263,-0.929461 0.491228,-0.348547 0.859649,-0.813278 1.105263,-1.045643 0.245614,-0.348547 0.614035,-0.697095 0.859649,-1.161825 0.368421,-0.464731 0.614035,-0.9294609 0.736842,-1.3941912 0.122807,-0.4647303 0.368421,-0.9294606 0.491228,-1.5103734 0.122807,-0.5809129 0.245614,-1.1618257 0.245614,-1.626556 H 4.087719 c 0,0.5809129 0.1228071,1.1618257 0.2456141,1.626556 0.122807,0.5809128 0.368421,1.0456431 0.4912281,1.5103734 0.122807,0.4647303 0.491228,0.9294602 0.7368421,1.3941912 0.245614,0.46473 0.6140351,0.813278 0.8596491,1.161825 0.2456141,0.348548 0.6140351,0.697096 1.1052632,1.045643 0.4912281,0.348548 0.8596491,0.697096 1.1052632,0.929461 0.245614,0.232365 0.7368421,0.580913 1.2280702,0.813278 0.491228,0.348548 0.859649,0.580913 1.105263,0.697095 0.245614,0.116183 0.614035,0.348548 1.105263,0.697096 -0.491228,0.348548 -0.859649,0.46473 -1.105263,0.697095 -0.245614,0.232365 -0.614035,0.232365 -1.105263,0.580913 z m 13.017544,8.59751 h 2.45614 c 0,-0.46473 -0.122807,-0.92946 -0.245614,-1.394191 l -0.368421,-0.348547 z m 4.052632,1.045643 H 2.4912278 c -0.122807,0 -0.2456141,0 -0.3684211,0.116183 -0.122807,0.116183 -0.122807,0.232365 -0.122807,0.348548 v 1.975103 c 0,0.116183 0,0.232366 0.122807,0.348548 C 2.2456137,30 2.3684208,30 2.4912278,30 H 26.929825 c 0.122807,0 0.245614,0 0.368421,-0.116183 0.122807,-0.116182 0.122807,-0.232365 0.122807,-0.348548 v -1.975103 c 0,-0.116183 0,-0.232365 -0.122807,-0.348548 -0.122807,-0.116183 -0.245614,-0.116183 -0.368421,-0.116183 z M 2.4912278,4.9045646 H 26.929825 c 0.122807,0 0.245614,0 0.368421,-0.1161826 0.122807,-0.1161826 0.122807,-0.2323651 0.122807,-0.3485477 V 2.4647306 c 0,-0.1161826 0,-0.2323651 -0.122807,-0.3485477 C 27.175439,2.0000003 27.052632,2.0000003 26.929825,2.0000003 H 2.4912278 c -0.122807,0 -0.2456141,0 -0.3684211,0.1161826 -0.122807,0.1161826 -0.122807,0.1161826 -0.122807,0.3485477 v 1.9751037 c 0,0.1161826 0,0.2323651 0.122807,0.3485477 0.122807,0.1161826 0.2456141,0.1161826 0.3684211,0.1161826 z"
       inkscape:connector-curvature="0" />
    <path
       id="path4"
       d="M 29.754386,19.311203 C 29.877193,19.078838 30,18.962656 30,18.73029 c 0,0.116183 -0.122807,0.348548 -0.245614,0.580913 z"
       inkscape:connector-curvature="0"
       style="fill:none;stroke-width:1.19448876" />
    <path
       style="fill:#db3236;fill-opacity:1;stroke-width:1.19448876"
       id="path6"
       d="m 27.052632,16.755187 c 0,0 0.122807,0 0,0 0.122807,0 0,0 0,0 z m 0,4.99585 2.701754,-2.439834 C 29.877193,19.078838 30,18.846473 30,18.73029 30,18.497925 29.877193,18.26556 29.754386,18.26556 l -1.22807,-1.161826 c -0.245614,-0.116182 -0.368421,-0.232365 -0.614035,-0.232365 -0.245614,0 -0.491228,0 -0.614035,0.232365 l -2.578948,2.439834 -2.701754,-2.439834 c -0.245614,-0.116182 -0.368421,-0.232365 -0.614035,-0.232365 -0.245614,0 -0.491228,0.116183 -0.614035,0.232365 l -1.22807,1.045644 c -0.122807,0.232365 -0.245614,0.348547 -0.245614,0.580912 0,0.232366 0,0.464731 0.245614,0.580913 l 2.578947,2.439834 -2.578947,2.439834 c -0.122807,0.232365 -0.245614,0.348548 -0.245614,0.580913 0,0.232365 0.122807,0.46473 0.245614,0.580913 l 1.22807,1.161826 c 0.245614,0.116182 0.368421,0.232365 0.614035,0.232365 0.245614,0 0.491228,-0.116183 0.614035,-0.232365 l 2.701754,-2.439834 2.456141,2.556016 c 0.245614,0.116183 0.368421,0.232365 0.614035,0.232365 0.245614,0 0.491228,-0.116182 0.614035,-0.232365 l 1.22807,-1.161826 c 0.122807,-0.232365 0.245614,-0.348547 0.245614,-0.580912 0,-0.232366 -0.122807,-0.464731 -0.245614,-0.580913 z"
       inkscape:connector-curvature="0" />
    <path
       id="path8"
       d="m 30,18.614108 c 0,0.116182 0,0.116182 0,0 0,0.232365 -0.122807,0.348548 -0.245614,0.580913 C 29.877193,19.078838 30,18.846473 30,18.614108"
       inkscape:connector-curvature="0"
       style="fill:#ffffff;stroke-width:1.19448876" />
    <path
       id="path10"
       d="m 27.052632,16.755187 c 0,0 0.122807,0 0,0 0.122807,0 0,0 0,0 z"
       inkscape:connector-curvature="0"
       style="fill:#733737;stroke-width:1.19448876" />
    <path
       id="path12"
       d="m 27.175439,16.755187 c 0,0 -0.122807,0 0,0 -0.122807,0 0,0 0,0"
       inkscape:connector-curvature="0"
       style="fill:#ffffff;stroke-width:1.19448876" />
  </g>
</svg>
