<?xml version="1.0" encoding="UTF-8" standalone="no"?>
<svg
   xmlns:dc="http://purl.org/dc/elements/1.1/"
   xmlns:cc="http://creativecommons.org/ns#"
   xmlns:rdf="http://www.w3.org/1999/02/22-rdf-syntax-ns#"
   xmlns:svg="http://www.w3.org/2000/svg"
   xmlns="http://www.w3.org/2000/svg"
   xmlns:sodipodi="http://sodipodi.sourceforge.net/DTD/sodipodi-0.dtd"
   xmlns:inkscape="http://www.inkscape.org/namespaces/inkscape"
   viewBox="0 0 32 32"
   version="1.1"
   id="svg6"
   sodipodi:docname="folder-download.svg"
   inkscape:version="0.92.4 5da689c313, 2019-01-14"
   width="32"
   height="32">
  <metadata
     id="metadata10">
    <rdf:RDF>
      <cc:Work
         rdf:about="">
        <dc:format>image/svg+xml</dc:format>
        <dc:type
           rdf:resource="http://purl.org/dc/dcmitype/StillImage" />
        <dc:title />
      </cc:Work>
    </rdf:RDF>
  </metadata>
  <sodipodi:namedview
     pagecolor="#ffffff"
     bordercolor="#666666"
     borderopacity="1"
     objecttolerance="10"
     gridtolerance="10"
     guidetolerance="10"
     inkscape:pageopacity="0"
     inkscape:pageshadow="2"
     inkscape:window-width="1366"
     inkscape:window-height="703"
     id="namedview8"
     showgrid="false"
     inkscape:zoom="7.375"
     inkscape:cx="-6.5084738"
     inkscape:cy="8"
     inkscape:window-x="0"
     inkscape:window-y="0"
     inkscape:window-maximized="1"
     inkscape:current-layer="svg6" />
  <defs
     id="defs3051">
    <style
       type="text/css"
       id="current-color-scheme">
      .ColorScheme-Text {
        color:#f2f2f2;
      }
      </style>
  </defs>
  <g
     id="g819">
    <path
       inkscape:connector-curvature="0"
       id="path4-3"
       class="ColorScheme-Text"
       d="M 2.777778,1.9999999 C 2.346889,1.9999999 2,2.4459998 2,2.9999998 V 6.9217999 9 29.078199 C 2,29.589599 2.319271,30 2.717014,30 H 29.282985 C 29.680728,30 30,29.5896 30,29.078199 V 6.9217999 C 30,6.4104 29.680728,6.0000001 29.282985,6.0000001 H 16.556739 c -0.886457,0.034 -1.31646,-0.2642001 -1.707424,-0.7362002 l -1.848624,-2.42 c -0.261411,-0.4404 -0.458691,-0.8438 -0.88958,-0.8438 z"
       style="color:#f2f2f2;fill:#4285f4;fill-opacity:1;stroke:none;stroke-width:1.76383412" />
    <path
       style="fill:#ffffff;fill-opacity:1;stroke-width:0.03703514"
       id="path2-3"
       d="m 15.336147,18.00898 -5.310845,-4.776857 c -0.3670695,-0.330164 -0.3670695,-0.864044 0,-1.190696 l 0.882548,-0.793808 c 0.367069,-0.330166 0.960635,-0.330166 1.323799,0 l 3.764445,3.385949 3.764456,-3.385949 c 0.367064,-0.330166 0.960638,-0.330166 1.323795,0 l 0.890349,0.790287 c 0.367075,0.330173 0.367075,0.864053 0,1.190705 l -5.310845,4.776867 c -0.367067,0.333674 -0.960624,0.333674 -1.327702,0.0037 z m 1.327702,6.743813 5.310845,-4.776867 c 0.367075,-0.330164 0.367075,-0.864044 0,-1.190696 l -0.882538,-0.793806 c -0.367078,-0.330164 -0.960633,-0.330164 -1.323808,0 l -3.76835,3.382444 -3.764443,-3.385955 c -0.36707,-0.330164 -0.960636,-0.330164 -1.32381,0 l -0.886443,0.793796 c -0.3670695,0.330173 -0.3670695,0.864053 0,1.190706 l 5.310845,4.776858 c 0.367078,0.333684 0.960635,0.333684 1.327702,0.0037 z"
       inkscape:connector-curvature="0" />
  </g>
</svg>
