<?xml version="1.0" encoding="UTF-8" standalone="no"?>
<svg
   xmlns:dc="http://purl.org/dc/elements/1.1/"
   xmlns:cc="http://creativecommons.org/ns#"
   xmlns:rdf="http://www.w3.org/1999/02/22-rdf-syntax-ns#"
   xmlns:svg="http://www.w3.org/2000/svg"
   xmlns="http://www.w3.org/2000/svg"
   xmlns:sodipodi="http://sodipodi.sourceforge.net/DTD/sodipodi-0.dtd"
   xmlns:inkscape="http://www.inkscape.org/namespaces/inkscape"
   viewBox="0 0 32 32"
   version="1.1"
   id="svg6"
   sodipodi:docname="folder-remote.svg"
   inkscape:version="0.92.4 5da689c313, 2019-01-14"
   width="32"
   height="32">
  <metadata
     id="metadata10">
    <rdf:RDF>
      <cc:Work
         rdf:about="">
        <dc:format>image/svg+xml</dc:format>
        <dc:type
           rdf:resource="http://purl.org/dc/dcmitype/StillImage" />
        <dc:title />
      </cc:Work>
    </rdf:RDF>
  </metadata>
  <sodipodi:namedview
     pagecolor="#ffffff"
     bordercolor="#666666"
     borderopacity="1"
     objecttolerance="10"
     gridtolerance="10"
     guidetolerance="10"
     inkscape:pageopacity="0"
     inkscape:pageshadow="2"
     inkscape:window-width="1366"
     inkscape:window-height="703"
     id="namedview8"
     showgrid="false"
     inkscape:zoom="7.375"
     inkscape:cx="9.5593229"
     inkscape:cy="8"
     inkscape:window-x="0"
     inkscape:window-y="0"
     inkscape:window-maximized="1"
     inkscape:current-layer="svg6" />
  <defs
     id="defs3051">
    <style
       type="text/css"
       id="current-color-scheme">
      .ColorScheme-Text {
        color:#f2f2f2;
      }
      </style>
  </defs>
  <g
     id="g819">
    <path
       inkscape:connector-curvature="0"
       id="path4-3"
       class="ColorScheme-Text"
       d="m 2.7777782,1.9999998 c -0.430889,0 -0.777778,0.4460001 -0.777778,1.0000001 V 6.9217998 8.9999999 29.078199 C 2.0000002,29.589599 2.3192712,30 2.7170141,30 H 29.282985 C 29.680728,30 30,29.5896 30,29.078199 V 6.9217998 c 0,-0.5114 -0.319272,-0.9218 -0.717015,-0.9218 H 16.556739 c -0.886457,0.034 -1.31646,-0.2642 -1.707424,-0.7362 l -1.848624,-2.42 c -0.261411,-0.4404 -0.458691,-0.8438 -0.88958,-0.8438 z"
       style="color:#f2f2f2;fill:#4285f4;fill-opacity:1;stroke:none;stroke-width:1.76383412" />
    <path
       id="path2"
       d="m 15.999185,11.414651 c -0.06874,0 -0.136501,0.0017 -0.204731,0.0033 -0.670249,0.02034 -1.315912,0.139766 -1.921836,0.344394 -0.1027,0.03469 -0.205062,0.07256 -0.305446,0.112049 -0.03107,0.01223 -0.06164,0.02527 -0.09246,0.0379 -0.06891,0.02829 -0.137053,0.05683 -0.204732,0.08733 -0.09795,0.04428 -0.193629,0.0913 -0.288936,0.140063 -0.09533,0.04871 -0.18976,0.09847 -0.282331,0.1516 -0.372433,0.213763 -0.722695,0.463834 -1.045122,0.743163 -0.03824,0.03313 -0.07479,0.06649 -0.112272,0.100518 -0.07855,0.07118 -0.156191,0.144326 -0.231148,0.219159 -0.07492,0.07487 -0.148245,0.150671 -0.219591,0.229046 -0.107036,0.117508 -0.21031,0.23911 -0.308749,0.364164 -0.196895,0.250019 -0.375222,0.515427 -0.534944,0.792598 -0.05325,0.09237 -0.104762,0.185007 -0.153548,0.280129 -0.0244,0.04756 -0.04767,0.09515 -0.071,0.143358 -0.0699,0.144696 -0.1353971,0.29299 -0.1948255,0.443263 -0.01978,0.0501 -0.03916,0.100912 -0.05779,0.151603 -0.07443,0.202735 -0.138609,0.409769 -0.193174,0.621226 -0.02695,0.105544 -0.05221,0.212017 -0.0743,0.319676 v 0.0016 c -0.02209,0.107722 -0.04106,0.215114 -0.05779,0.324619 -0.01673,0.109586 -0.0299,0.219924 -0.04128,0.33121 -0.02267,0.222473 -0.03467,0.448743 -0.03467,0.677251 0,0.228475 0.01201,0.454737 0.03467,0.677252 0.0113,0.111234 0.02446,0.221654 0.04128,0.331209 0.01673,0.109507 0.03578,0.218607 0.05779,0.326268 0.02209,0.107663 0.0471,0.213983 0.0743,0.319676 0.05456,0.211457 0.118771,0.418493 0.193174,0.621225 0.03717,0.101343 0.07695,0.200958 0.1188773,0.299901 0.04187,0.09893 0.08722,0.196853 0.1337362,0.293312 0.02324,0.04822 0.0466,0.09742 0.071,0.145009 0.0488,0.0951 0.100277,0.187733 0.153547,0.280128 0.159714,0.277172 0.338066,0.542514 0.534945,0.792597 0.09845,0.125011 0.201712,0.246608 0.308748,0.364166 0.07138,0.0784 0.144545,0.154213 0.219591,0.229047 0.07501,0.07487 0.152639,0.147934 0.231149,0.219159 0.353278,0.320472 0.74079,0.602937 1.157394,0.842032 0.09258,0.05305 0.187001,0.104543 0.282331,0.153252 0.190639,0.09746 0.385334,0.186222 0.586127,0.265297 0.10036,0.03953 0.202746,0.07738 0.305447,0.112059 0.667626,0.225497 1.38264,0.347686 2.126567,0.347686 0.507179,0 1.001475,-0.05723 1.476048,-0.164771 0.221506,-0.05028 0.438021,-0.111156 0.650518,-0.182905 0.102726,-0.03462 0.204996,-0.07259 0.305447,-0.112059 0.200768,-0.07897 0.397139,-0.167794 0.587777,-0.265297 0.09533,-0.04871 0.188151,-0.0985 0.28068,-0.151603 0.416629,-0.239055 0.805768,-0.523248 1.159045,-0.84368 0.07856,-0.07128 0.154509,-0.144322 0.229499,-0.21916 0.075,-0.07479 0.148223,-0.1507 0.219589,-0.229045 0.107009,-0.117515 0.210336,-0.239112 0.308751,-0.364166 0.155785,-0.197814 0.299841,-0.404609 0.432577,-0.619578 0.03512,-0.05683 0.07063,-0.115002 0.104011,-0.173014 0.05324,-0.09234 0.103103,-0.184985 0.151898,-0.280129 0.02439,-0.04757 0.04932,-0.09679 0.07264,-0.145009 0.04665,-0.09642 0.09016,-0.194327 0.132094,-0.293312 0.04195,-0.09899 0.08173,-0.198507 0.118884,-0.299901 0.07442,-0.202735 0.138612,-0.4098 0.19317,-0.621226 0.02729,-0.105759 0.0522,-0.212015 0.0743,-0.319676 0.02201,-0.107741 0.04263,-0.216736 0.05943,-0.326267 0.01663,-0.109547 0.0299,-0.219942 0.04127,-0.331212 0.02267,-0.222463 0.03468,-0.448741 0.03468,-0.677251 0,-0.228475 -0.01199,-0.454786 -0.03468,-0.67725 -0.01141,-0.111293 -0.02446,-0.221629 -0.04127,-0.331207 -0.01683,-0.109508 -0.03735,-0.216958 -0.05943,-0.324619 -0.02209,-0.107663 -0.04702,-0.215656 -0.0743,-0.321323 -0.05456,-0.211434 -0.118787,-0.418493 -0.19317,-0.621226 -0.01857,-0.05067 -0.03808,-0.101461 -0.05779,-0.151603 -0.05934,-0.150292 -0.123314,-0.296938 -0.19317,-0.441633 -0.02325,-0.04822 -0.04825,-0.09578 -0.07264,-0.143361 -0.0488,-0.09509 -0.09864,-0.189372 -0.151898,-0.281747 -0.159737,-0.277195 -0.339732,-0.542512 -0.536608,-0.792597 -0.09846,-0.125005 -0.20169,-0.246607 -0.308751,-0.364166 -0.0713,-0.07832 -0.144568,-0.154213 -0.219591,-0.229046 -0.07492,-0.07487 -0.150987,-0.147951 -0.229497,-0.219159 -0.152072,-0.137963 -0.311028,-0.268675 -0.475505,-0.392179 -0.217617,-0.163427 -0.44629,-0.313679 -0.683539,-0.449853 -0.09257,-0.05306 -0.185391,-0.104559 -0.280681,-0.153247 -0.04335,-0.02214 -0.08658,-0.04311 -0.130435,-0.06427 -0.05266,-0.02542 -0.10675,-0.05177 -0.160152,-0.0758 -0.02233,-0.01009 -0.04528,-0.01817 -0.0677,-0.02801 -0.07608,-0.03338 -0.151945,-0.06671 -0.229498,-0.09722 -8.05e-4,-4.43e-4 -0.0025,-7.94e-4 -0.0033,-0.0016 -0.08261,-0.03239 -0.166757,-0.06303 -0.25096,-0.09228 -0.01698,-0.0057 -0.03404,-0.01238 -0.05119,-0.01813 -0.196374,-0.06634 -0.396879,-0.123462 -0.601011,-0.171373 -0.0638,-0.01501 -0.12706,-0.02799 -0.191523,-0.0412 -0.04648,-0.0095 -0.09355,-0.01957 -0.14034,-0.02801 -0.348811,-0.06331 -0.705996,-0.09893 -1.071539,-0.105461 -0.04031,-7.35e-4 -0.08167,-0.0016 -0.122178,-0.0016 z m 0,0.355927 c 0.428861,0 0.848189,0.04303 1.253156,0.125233 -0.01698,0.04461 -0.07211,0.02457 -0.118877,0.04614 -0.04385,0.02034 -0.0607,0.06208 -0.107319,0.07086 -0.12957,0.02436 -0.236236,-0.03211 -0.348375,-0.02801 -0.005,0.04838 0.05412,0.07671 0.08421,0.09228 0.101637,0.05314 0.185275,0.04604 0.328561,0.04284 0.07344,-0.0016 0.158147,0.02188 0.221242,-0.02142 0.03997,-0.02722 0.03753,-0.08861 0.07099,-0.121938 0.01425,-0.01411 0.03421,-0.02749 0.05779,-0.03955 0.07039,0.01656 0.14015,0.03379 0.209684,0.05273 -0.0117,0.04789 -0.08816,0.03641 -0.08916,0.100518 0.04954,0.02969 0.165134,-0.01531 0.209685,-0.06591 0.01723,0.0049 0.03404,0.0097 0.05118,0.01484 0.10078,0.03059 0.200238,0.06347 0.298842,0.09887 0.140551,0.05052 0.278688,0.106398 0.414417,0.166429 -0.02605,0.01533 -0.05469,0.03469 -0.0776,0.0346 -0.05893,-3.69e-4 -0.08291,-0.07846 -0.148595,-0.04944 -0.0058,0.07602 0.08072,0.106595 0.135387,0.141712 0.05918,0.03805 0.120948,0.07558 0.141992,0.141712 -0.05795,0.122604 -0.150944,-0.0058 -0.242706,-0.0066 -0.101127,-7.22e-4 -0.247331,0.190946 -0.333514,0.03461 0.02143,-0.08284 0.113018,-0.09618 0.135387,-0.177963 -0.0197,0.0033 -0.03883,0.0105 -0.05778,0.01813 -0.03387,0.01337 -0.06781,0.0309 -0.102366,0.04944 -0.04534,0.02436 -0.09294,0.04891 -0.146945,0.06097 -0.04971,0.01091 -0.09759,0.0085 -0.141992,0.02142 -0.08525,0.02493 -0.145914,0.08709 -0.236103,0.120288 -0.03519,0.01287 -0.07728,0.0092 -0.113923,0.02142 -0.08602,0.02862 -0.188651,0.08058 -0.277379,0.128531 -0.09071,0.04888 -0.19298,0.09954 -0.24931,0.148302 -0.03041,0.02616 -0.110056,0.118714 -0.107319,0.148302 0.0033,0.04223 0.08386,0.05733 0.08586,0.100518 -0.0016,0.02616 -0.04692,0.08229 -0.01485,0.120289 0.02918,0.03461 0.08831,0.0072 0.150246,0.01484 0.108866,0.01344 0.180657,0.10232 0.26417,0.148302 0.06314,0.03477 0.156549,0.0767 0.227846,0.08569 0.09788,0.01223 0.207899,-0.02872 0.221243,0.04943 0.01294,0.07512 -0.09316,0.101165 -0.100716,0.148302 0.05275,0.06938 -0.03492,0.102317 -0.03467,0.163133 2.32e-4,0.04921 0.06085,0.124068 0.113922,0.12853 0.0718,0.0057 0.176555,-0.07024 0.206383,-0.141712 0.03544,-0.08516 0.02073,-0.201635 0.08586,-0.26365 0.332005,0.0091 0.612478,-0.149927 0.59108,-0.4894 -0.0024,-0.03354 -0.02195,-0.07685 -0.01485,-0.1137 0.01039,-0.05486 0.105037,-0.100344 0.09246,-0.169725 0.03577,-0.01099 0.05765,-0.04003 0.07595,-0.0725 0.02728,-0.04839 0.04829,-0.103691 0.09906,-0.121938 0.0033,-0.0016 0.0061,-0.0025 0.0099,-0.0033 0.02901,-0.0066 0.06054,-0.0011 0.09246,0.0082 0.05687,0.01672 0.1187,0.04579 0.186569,0.0412 0.03453,-0.0025 0.07921,-0.03293 0.113923,-0.02801 0.06965,0.0097 0.111125,0.09382 0.163456,0.133472 0.04624,0.03526 0.09552,0.02387 0.107319,0.07086 -0.01369,0.07881 -0.06884,0.08255 -0.06439,0.154894 v 0.0016 c 0.005,0.06503 0.07347,0.115501 0.107318,0.121938 0.05193,0.0097 0.12647,-0.01823 0.178315,-0.04284 0.05596,-0.02641 0.106315,-0.08394 0.1552,-0.123587 0.06982,0.05347 0.138843,0.108589 0.206383,0.164782 0.0074,0.03157 0.0124,0.05982 0.01485,0.07909 0.01,0.07676 -0.0096,0.135327 -0.0067,0.205977 0.0091,0.119683 0.159972,0.107013 0.23445,0.169725 0.02242,0.01902 0.0309,0.06756 0.04953,0.09228 0.03619,0.04806 0.08025,0.04926 0.08586,0.100517 0.01334,0.122603 -0.110729,0.13177 -0.09906,0.268593 -0.02571,0.05306 -0.0911,0.05118 -0.08586,0.121938 0.0082,0.112057 0.169113,0.02625 0.212988,0.1137 0.02375,0.04699 -0.0041,0.0813 -0.02147,0.148304 0.05531,0.0656 0.05624,0.169586 -0.04128,0.169725 -0.05926,0 -0.07547,-0.06268 -0.135385,-0.07745 -0.0333,-0.0083 -0.07975,-0.0072 -0.12218,-0.01484 -0.03626,-0.0066 -0.07956,-0.01733 -0.113922,-0.02142 -0.08795,-0.01042 -0.18244,0.01592 -0.234451,-0.0346 0.08478,-0.112194 0.196441,-0.223054 0.305447,-0.319676 0.03239,-0.02887 0.102356,-0.04928 0.08585,-0.107107 -0.06067,-0.05306 -0.134296,0.0041 -0.191522,0.03625 -0.06008,0.03371 -0.131976,0.08224 -0.199779,0.09228 -0.117833,0.01739 -0.275208,-0.03464 -0.371488,0.02801 -0.01327,0.05355 0.109587,0.03287 0.09246,0.113699 -0.04715,0.0074 -0.09084,0.01146 -0.12713,-0.02142 -0.03313,-0.02969 -0.01489,-0.07437 -0.03632,-0.09228 -0.03652,-0.03018 -0.17312,-0.0381 -0.234451,-0.02801 -0.07484,0.01213 -0.141601,0.05651 -0.150246,0.12029 0.08991,0.04199 0.238159,-0.04292 0.270773,0.06427 -0.04929,0.08834 -0.164173,0.136966 -0.148594,0.255411 0.0058,0.04576 0.05985,0.106901 0.09906,0.113698 0.0394,0.0066 0.06099,-0.03162 0.09906,-0.02801 0.04031,0.0041 0.03193,0.04817 0.07925,0.04119 0.06858,-0.0292 0.106344,-0.124751 0.18492,-0.12029 0.09428,0.114041 -0.08493,0.169804 -0.18492,0.205976 -0.114041,0.04117 -0.26315,0.06407 -0.350025,0.100518 -0.04558,0.01894 -0.216691,0.184328 -0.241055,0.05603 -0.01739,-0.09253 0.08409,-0.06556 0.105669,-0.141712 -0.110284,-0.0214 -0.211691,0.04764 -0.312051,0.08569 -0.143195,0.05396 -0.38646,0.08691 -0.42102,0.247172 -0.0067,0.03207 0.01317,0.09232 -0.0082,0.113699 -0.01706,0.01723 -0.118813,0.02116 -0.163456,0.03625 -0.06874,0.02354 -0.129245,0.07261 -0.17171,0.08404 -0.03207,0.0088 -0.07874,0.0071 -0.09906,0.01484 -0.05663,0.0219 -0.07702,0.09755 -0.14199,0.148302 -0.02663,0.02074 -0.08614,0.03676 -0.107319,0.05768 -0.03693,0.03658 -0.04224,0.127995 -0.107319,0.141713 -0.04137,0.0033 -0.07497,-0.0302 -0.113922,-0.0067 -0.005,0.09053 0.03288,0.213308 -0.0066,0.304845 -0.0844,0.06857 -0.177674,0.115866 -0.285633,0.176311 -0.05967,0.03354 -0.112806,0.0431 -0.18492,0.07909 -0.05116,0.02543 -0.09798,0.08568 -0.156833,0.120302 -0.136032,0.0798 -0.299889,0.173661 -0.298842,0.375699 2.31e-4,0.0437 0.02246,0.09226 0.02807,0.143361 0.0033,0.0301 -0.0033,0.05944 0,0.09228 0.0085,0.07422 0.0624,0.167912 0,0.219159 -0.0959,-0.03919 -0.218545,-0.05224 -0.285622,-0.120282 -0.01837,-0.07004 0.03821,-0.127347 0.02972,-0.191148 -0.0066,-0.05126 -0.0801,-0.14338 -0.122178,-0.149954 -0.04336,-0.0065 -0.08238,0.03986 -0.127131,0.03625 -0.05324,-0.0041 -0.103331,-0.07779 -0.171711,-0.08568 -0.100219,-0.01158 -0.174632,0.02202 -0.285633,0.0067 -0.107456,0.05717 -0.137426,0.160022 -0.269123,0.149955 -0.04641,-0.0033 -0.09004,-0.03845 -0.143642,-0.04944 -0.0581,-0.01197 -0.145883,-0.03383 -0.206383,-0.02965 -0.121286,0.0082 -0.209517,0.09602 -0.313701,0.149954 -0.09193,0.04773 -0.222012,0.107114 -0.249311,0.205977 -0.01501,0.05322 -0.0025,0.127072 -0.02146,0.176311 -0.01261,0.0324 -0.03924,0.06145 -0.05614,0.09228 -0.07987,0.145382 -0.146487,0.337952 -0.08586,0.547072 0.009,0.03101 0.08782,0.206883 0.120528,0.24223 0.03676,0.03929 0.144688,0.09779 0.206383,0.09887 0.05217,8.08e-4 0.11453,-0.02722 0.165105,-0.03625 0.0586,-0.0104 0.131657,-0.01099 0.18492,-0.028 0.154043,-0.04912 0.123172,-0.256331 0.277378,-0.326268 0.06734,-0.03034 0.145801,-0.03678 0.26417,-0.04284 0.03759,0.0315 0.05472,0.08712 0.04953,0.135119 -0.0041,0.03625 -0.03924,0.06861 -0.05778,0.120281 -0.01615,0.04528 -0.01868,0.09858 -0.03467,0.135119 -0.02119,0.04781 -0.06887,0.08354 -0.08585,0.128524 -0.01114,0.02928 -0.0039,0.06586 -0.01321,0.09228 -0.0164,0.04675 -0.08028,0.07879 -0.05119,0.126875 0.152558,0.06044 0.337421,-0.01629 0.470552,0.0082 0.05621,0.0102 0.172757,0.07685 0.17171,0.163143 -6.92e-4,0.06455 -0.05078,0.105641 -0.05778,0.176311 -0.0087,0.08884 -0.04558,0.19832 -0.04953,0.270242 -0.0066,0.117789 0.173032,0.321291 0.298843,0.319676 0.135447,-0.0016 0.214901,-0.134706 0.378093,-0.06427 0.05415,0.0233 0.111912,0.111431 0.17171,0.107113 0.04929,-0.0033 0.122248,-0.09041 0.155199,-0.149955 0.04014,-0.07257 0.04305,-0.133116 0.113924,-0.169717 0.07649,-0.03945 0.13824,-0.02135 0.236102,-0.05768 0.04369,-0.01609 0.08115,-0.0437 0.120528,-0.07085 0.03453,-0.02361 0.07085,-0.0858 0.113924,-0.04284 0.05687,0.05658 -0.06968,0.08935 -0.02146,0.149954 0.09883,0.05216 0.149674,-0.09659 0.221242,-0.09887 0.02283,-7.15e-4 0.101364,0.04412 0.141992,0.07085 0.05555,0.03633 0.07458,0.08702 0.135387,0.09887 0.03907,0.0075 0.101941,-0.01413 0.156851,-0.0067 0.07269,0.0104 0.116618,0.07249 0.171711,0.07085 0.06709,-0.0016 0.09939,-0.07507 0.156851,-0.08568 0.125763,-0.02296 0.172474,0.01393 0.227847,0.09228 0.06207,0.01079 0.06372,-0.07189 0.120528,-0.04284 -0.03116,0.06184 0.01135,0.0901 0.03632,0.141712 0.01615,0.03313 0.013,0.0565 0.02807,0.07085 0.03396,0.0323 0.100412,0.03285 0.150246,0.06427 0.05258,0.03297 0.08167,0.09408 0.14199,0.163142 0.06207,0.07061 0.166425,0.144794 0.249311,0.149955 0.07831,0.0049 0.141646,-0.02278 0.206382,-0.01491 0.14739,0.01806 0.238649,0.09065 0.341769,0.169717 0.05761,0.04414 0.110288,0.07567 0.128783,0.128524 0.01302,0.03689 0.0067,0.08551 0.02146,0.126876 0.03148,0.08841 0.160715,0.132292 0.113923,0.285073 0.02143,0.04486 0.06887,0.06092 0.120527,0.09228 0.04129,0.02508 0.07744,0.07685 0.122178,0.08403 0.02893,0.0049 0.0608,-0.008 0.08585,-0.0065 0.08102,0.0057 0.136174,0.03721 0.206382,0.06427 0.04351,0.01668 0.09815,0.02324 0.127123,0.04284 0.03619,0.02435 0.04125,0.105328 0.08585,0.126876 0.02917,0.01413 0.0951,-0.0057 0.14364,0 0.07649,0.0088 0.180232,0.05636 0.249311,0.05768 0.04195,8.1e-4 0.07672,-0.01766 0.113914,-0.01492 0.08651,0.0065 0.154141,0.06105 0.221242,0.12193 -0.858307,1.380989 -2.239262,2.406305 -3.865134,2.797985 -0.0058,-0.06225 -0.0237,-0.125835 -0.02642,-0.18785 -0.0058,-0.134903 0.01582,-0.229621 -0.0066,-0.354281 -0.01656,-0.0943 -0.03852,-0.23893 -0.07264,-0.298263 -0.03816,-0.06602 -0.187002,-0.177214 -0.262518,-0.219158 -0.04987,-0.02755 -0.109147,-0.03762 -0.163456,-0.06427 -0.11603,-0.05672 -0.342023,-0.177096 -0.392953,-0.291628 -0.01476,-0.03297 -0.01224,-0.07689 -0.02807,-0.113707 -0.03091,-0.07273 -0.09577,-0.135825 -0.14199,-0.205976 -0.088,-0.133863 -0.15899,-0.301733 -0.24931,-0.439968 -0.04566,-0.0702 -0.08532,-0.150072 -0.135388,-0.205976 -0.02934,-0.03297 -0.123336,-0.06408 -0.135387,-0.113707 -0.01607,-0.06569 -0.06553,-0.155725 -0.05778,-0.205979 0.01031,-0.06773 0.142197,-0.121086 0.141992,-0.182905 -2.3e-4,-0.05248 -0.06944,-0.08396 -0.0842,-0.128524 -0.03594,-0.108467 0.01979,-0.17168 0.06274,-0.262002 0.01418,-0.02969 0.02817,-0.07864 0.04293,-0.100519 0.02613,-0.03903 0.07913,-0.05 0.113924,-0.09228 0.01945,-0.02371 0.0324,-0.07194 0.05778,-0.105465 0.05415,-0.07167 0.141176,-0.09844 0.163456,-0.163142 0.01812,-0.05273 0.02961,-0.317182 0.0083,-0.405365 -0.01238,-0.05112 -0.06105,-0.0934 -0.07926,-0.141751 -0.03223,-0.08566 -0.0386,-0.179805 -0.127131,-0.17796 -0.05465,8.11e-4 -0.09367,0.06247 -0.128782,0.10052 -0.0084,0.05059 -0.0049,0.104836 -0.05778,0.120281 -0.08102,0.02386 -0.111885,-0.08515 -0.206384,-0.113707 -0.03759,-0.01138 -0.097,-0.01099 -0.120528,-0.02143 -0.06899,-0.03083 -0.09075,-0.130663 -0.163454,-0.169717 -0.06083,-0.0324 -0.113396,-0.02108 -0.150247,-0.07087 -0.01534,-0.03429 -0.0041,-0.09744 -0.0083,-0.14336 -0.07806,-0.04551 -0.14352,-0.215352 -0.234451,-0.255412 -0.06025,-0.02673 -0.152445,-0.02394 -0.227847,-0.04944 -0.03544,-0.01197 -0.06367,-0.02665 -0.100714,-0.0346 -0.04566,-0.0102 -0.09176,-0.01197 -0.127131,-0.02965 -0.141081,-0.06971 -0.216615,-0.294846 -0.391313,-0.290014 -0.07451,0.0016 -0.147116,0.07126 -0.214638,0.07085 -0.06709,-3.69e-4 -0.179982,-0.05336 -0.26417,-0.09228 -0.08745,-0.04051 -0.183786,-0.06213 -0.255915,-0.09887 -0.05827,-0.02969 -0.09933,-0.08458 -0.150246,-0.107113 -0.03899,-0.01727 -0.09514,-0.01943 -0.127131,-0.0346 -0.0455,-0.02149 -0.09361,-0.06784 -0.150246,-0.107113 -0.05374,-0.03707 -0.111814,-0.09369 -0.113924,-0.141712 -0.0025,-0.0556 0.05202,-0.10311 0.05779,-0.156549 0.01837,-0.16903 -0.107905,-0.29067 -0.18657,-0.390532 -0.05827,-0.07422 -0.126463,-0.137297 -0.184919,-0.205976 0.0033,-0.04559 0.0033,-0.05336 0,-0.09887 -0.04426,-0.0428 -0.08201,-0.107251 -0.128783,-0.171366 -0.04228,-0.05781 -0.123102,-0.119693 -0.133735,-0.184553 -0.01311,-0.0798 0.03041,-0.148326 0,-0.225751 -0.05069,-0.128485 -0.231072,-0.07102 -0.208034,0.09887 0.0066,0.04682 0.07245,0.110116 0.09246,0.156549 0.02052,0.04732 0.01719,0.106132 0.03632,0.163123 0.01837,0.05462 0.07335,0.101598 0.09246,0.163142 0.03025,0.09718 0.03001,0.201259 0.05779,0.262002 0.02448,0.05397 0.113306,0.106054 0.06274,0.171366 -0.06742,0.01393 -0.09181,-0.0532 -0.133735,-0.09228 -0.02341,-0.02172 -0.109288,-0.06313 -0.122178,-0.113707 -0.01079,-0.04174 0.02731,-0.09885 0.01485,-0.149955 -0.02448,-0.100166 -0.227129,-0.102894 -0.227847,-0.205978 -3.7e-4,-0.0647 0.08344,-0.07255 0.0842,-0.135118 5.52e-4,-0.06847 -0.09364,-0.126484 -0.113924,-0.184554 -0.01855,-0.05322 -0.02114,-0.137689 -0.02807,-0.212566 -0.0066,-0.07028 0.0012,-0.151761 -0.01485,-0.205977 -0.01458,-0.04881 -0.08822,-0.115532 -0.135388,-0.141712 -0.06239,-0.03462 -0.111444,-0.02018 -0.141992,-0.07087 -0.02654,-0.04427 -0.04376,-0.136826 -0.04953,-0.184554 -0.01031,-0.08535 -0.0033,-0.179156 -0.0083,-0.270242 -0.005,-0.09124 -0.014,-0.178784 0,-0.276832 0.03528,-0.06864 0.101093,-0.101715 0.137039,-0.169725 0.02506,-0.04732 0.02787,-0.106205 0.05614,-0.156543 0.05217,-0.09271 0.166266,-0.177204 0.242706,-0.268594 0.08242,-0.09845 0.158146,-0.193954 0.206382,-0.306493 0.01731,-0.03994 0.06281,-0.127341 0.05614,-0.176315 -0.0094,-0.06823 -0.137327,-0.124715 -0.127131,-0.205977 0.0066,-0.05035 0.07766,-0.05083 0.09906,-0.100517 0.01097,-0.02567 0.02089,-0.09625 0.02146,-0.126882 8.24e-4,-0.06848 -0.03531,-0.139449 -0.02146,-0.212567 0.0117,-0.06241 0.10566,-0.08805 0.05779,-0.156543 -0.04748,-0.06782 -0.134024,0.03572 -0.186569,-0.0082 -0.04822,-0.04035 0.01041,-0.0889 0.01485,-0.163133 0.0016,-0.02952 -0.01799,-0.06217 -0.01485,-0.08404 0.0041,-0.03174 0.06767,-0.0858 0.05118,-0.107107 -0.0257,-0.03224 -0.05379,-0.09735 -0.09409,-0.149718 0.794692,-0.634433 1.747321,-1.081812 2.788642,-1.270464 h 0.0017 c 0.01294,0.02198 0.02275,0.04808 0.05449,0.05767 0.06207,-0.03207 0.124795,0.0025 0.193174,0 0.0666,-0.0025 0.126373,-0.0329 0.199778,-0.02142 0.129727,0.02026 0.310552,0.147761 0.412766,0.07909 0.02572,-0.01739 0.01968,-0.04894 0.04293,-0.09392 0.01847,-0.036 0.04667,-0.07429 0.06439,-0.118643 0.05168,-0.0016 0.103281,-0.0016 0.1552,-0.0016 z"
       style="fill:#ffffff;stroke-width:0.73387367"
       inkscape:connector-curvature="0" />
  </g>
</svg>
