<?xml version="1.0" encoding="UTF-8" standalone="no"?>
<svg
   xmlns:dc="http://purl.org/dc/elements/1.1/"
   xmlns:cc="http://creativecommons.org/ns#"
   xmlns:rdf="http://www.w3.org/1999/02/22-rdf-syntax-ns#"
   xmlns:svg="http://www.w3.org/2000/svg"
   xmlns="http://www.w3.org/2000/svg"
   xmlns:sodipodi="http://sodipodi.sourceforge.net/DTD/sodipodi-0.dtd"
   xmlns:inkscape="http://www.inkscape.org/namespaces/inkscape"
   viewBox="0 0 32 32"
   version="1.1"
   id="svg6"
   sodipodi:docname="folder-new.svg"
   inkscape:version="0.92.4 5da689c313, 2019-01-14"
   width="32"
   height="32">
  <metadata
     id="metadata10">
    <rdf:RDF>
      <cc:Work
         rdf:about="">
        <dc:format>image/svg+xml</dc:format>
        <dc:type
           rdf:resource="http://purl.org/dc/dcmitype/StillImage" />
        <dc:title />
      </cc:Work>
    </rdf:RDF>
  </metadata>
  <sodipodi:namedview
     pagecolor="#ffffff"
     bordercolor="#666666"
     borderopacity="1"
     objecttolerance="10"
     gridtolerance="10"
     guidetolerance="10"
     inkscape:pageopacity="0"
     inkscape:pageshadow="2"
     inkscape:window-width="1366"
     inkscape:window-height="703"
     id="namedview8"
     showgrid="false"
     inkscape:zoom="10.727273"
     inkscape:cx="29.591411"
     inkscape:cy="18.457627"
     inkscape:window-x="0"
     inkscape:window-y="0"
     inkscape:window-maximized="1"
     inkscape:current-layer="svg6" />
  <defs
     id="defs3051">
    <style
       type="text/css"
       id="current-color-scheme">
     .ColorScheme-Text {
       color:#f2f2f2;
     }
     </style>
  </defs>
  <g
     id="g819">
    <path
       inkscape:connector-curvature="0"
       id="path4-3"
       class="ColorScheme-Text"
       d="M 2.777778,1.9999997 C 2.346889,1.9999997 2,2.4459998 2,2.9999997 V 6.9217993 8.9999994 29.078199 C 2,29.589599 2.319271,30 2.717014,30 H 29.282985 C 29.680728,30 30,29.5896 30,29.078199 V 6.9217993 C 30,6.4103994 29.680728,5.9999995 29.282985,5.9999995 H 16.556739 c -0.886457,0.034 -1.31646,-0.2642001 -1.707424,-0.7362002 L 13.000691,2.8437998 c -0.261411,-0.4404 -0.458691,-0.8438 -0.88958,-0.8438 z"
       style="color:#f2f2f2;fill:#4285f4;fill-opacity:1;stroke:none;stroke-width:1.76383412" />
    <path
       id="path4"
       class="ColorScheme-Text"
       d="m 14.666665,9.9999993 c -0.246248,0 -0.444444,0.1981997 -0.444444,0.4444437 v 5.777778 H 8.4444438 c -0.246221,0 -0.444444,0.19822 -0.444444,0.444447 v 2.666665 c 0,0.246223 0.198224,0.444444 0.444444,0.444444 h 5.7777772 v 5.777779 c 0,0.246248 0.1982,0.444444 0.444444,0.444444 h 2.666667 c 0.246249,0 0.444445,-0.1982 0.444445,-0.444444 v -5.777779 h 5.777779 C 23.801777,19.777777 24,19.579557 24,19.333333 v -2.666665 c 0,-0.246224 -0.19822,-0.444447 -0.444444,-0.444447 h -5.777779 v -5.777778 c 0,-0.246248 -0.1982,-0.4444438 -0.444445,-0.4444438 z"
       style="color:#f2f2f2;fill:#ffffff;fill-opacity:1;stroke:none;stroke-width:1"
       inkscape:connector-curvature="0" />
  </g>
</svg>
