<?xml version="1.0" encoding="UTF-8" standalone="no"?>
<svg
   xmlns:dc="http://purl.org/dc/elements/1.1/"
   xmlns:cc="http://creativecommons.org/ns#"
   xmlns:rdf="http://www.w3.org/1999/02/22-rdf-syntax-ns#"
   xmlns:svg="http://www.w3.org/2000/svg"
   xmlns="http://www.w3.org/2000/svg"
   xmlns:sodipodi="http://sodipodi.sourceforge.net/DTD/sodipodi-0.dtd"
   xmlns:inkscape="http://www.inkscape.org/namespaces/inkscape"
   viewBox="0 0 32 32"
   version="1.1"
   id="svg6"
   sodipodi:docname="inode-directory.svg"
   inkscape:version="0.92.4 5da689c313, 2019-01-14"
   width="32"
   height="32">
  <metadata
     id="metadata10">
    <rdf:RDF>
      <cc:Work
         rdf:about="">
        <dc:format>image/svg+xml</dc:format>
        <dc:type
           rdf:resource="http://purl.org/dc/dcmitype/StillImage" />
        <dc:title />
      </cc:Work>
    </rdf:RDF>
  </metadata>
  <sodipodi:namedview
     pagecolor="#ffffff"
     bordercolor="#666666"
     borderopacity="1"
     objecttolerance="10"
     gridtolerance="10"
     guidetolerance="10"
     inkscape:pageopacity="0"
     inkscape:pageshadow="2"
     inkscape:window-width="1366"
     inkscape:window-height="703"
     id="namedview8"
     showgrid="false"
     inkscape:zoom="7.375"
     inkscape:cx="9.7627125"
     inkscape:cy="8"
     inkscape:window-x="0"
     inkscape:window-y="0"
     inkscape:window-maximized="1"
     inkscape:current-layer="svg6" />
  <defs
     id="defs3051">
    <style
       type="text/css"
       id="current-color-scheme">
      .ColorScheme-Text {
        color:#f2f2f2;
      }
      </style>
  </defs>
  <g
     id="g819">
    <path
       inkscape:connector-curvature="0"
       id="path4-3"
       class="ColorScheme-Text"
       d="M 2.777778,1.9999999 C 2.346889,1.9999999 2,2.4459998 2,2.9999998 V 6.9217999 9 29.078199 C 2,29.589599 2.319271,30 2.717014,30 H 29.282985 C 29.680728,30 30,29.5896 30,29.078199 V 6.9217999 C 30,6.4104 29.680728,6.0000001 29.282985,6.0000001 H 16.556739 c -0.886457,0.034 -1.31646,-0.2642001 -1.707424,-0.7362002 l -1.848624,-2.42 c -0.261411,-0.4404 -0.458691,-0.8438 -0.88958,-0.8438 z"
       style="color:#f2f2f2;fill:#4285f4;fill-opacity:1;stroke:none;stroke-width:1.76383412" />
    <path
       id="path2"
       d="m 11.5,10.898305 v 2.333333 h 7.875 c 1.889212,0 3.375,1.540817 3.375,3.5 0,1.959184 -1.485788,3.5 -3.375,3.5 H 18.25 v -2.333333 l -5.625,3.499999 5.625,3.500001 v -2.333333 h 1.125 C 22.469707,22.682727 25,19.943122 25,16.731638 25,13.520155 22.471787,10.898305 19.375,10.898305 Z m -2.2500001,8.166666 a 2.25,2.3333333 0 0 0 -2.25,2.333333 2.25,2.3333333 0 0 0 2.25,2.333334 A 2.25,2.3333333 0 0 0 11.5,21.398304 2.25,2.3333333 0 0 0 9.2499999,19.064971 Z"
       style="fill:#ffffff;stroke-width:1.52752531"
       inkscape:connector-curvature="0" />
  </g>
</svg>
