<?xml version="1.0" encoding="UTF-8" standalone="no"?>
<svg
   xmlns:dc="http://purl.org/dc/elements/1.1/"
   xmlns:cc="http://creativecommons.org/ns#"
   xmlns:rdf="http://www.w3.org/1999/02/22-rdf-syntax-ns#"
   xmlns:svg="http://www.w3.org/2000/svg"
   xmlns="http://www.w3.org/2000/svg"
   xmlns:sodipodi="http://sodipodi.sourceforge.net/DTD/sodipodi-0.dtd"
   xmlns:inkscape="http://www.inkscape.org/namespaces/inkscape"
   viewBox="0 0 32 32"
   version="1.1"
   id="svg6"
   sodipodi:docname="mail-folder-inbox.svg"
   inkscape:version="0.92.4 5da689c313, 2019-01-14"
   width="32"
   height="32">
  <metadata
     id="metadata10">
    <rdf:RDF>
      <cc:Work
         rdf:about="">
        <dc:format>image/svg+xml</dc:format>
        <dc:type
           rdf:resource="http://purl.org/dc/dcmitype/StillImage" />
        <dc:title />
      </cc:Work>
    </rdf:RDF>
  </metadata>
  <sodipodi:namedview
     pagecolor="#ffffff"
     bordercolor="#666666"
     borderopacity="1"
     objecttolerance="10"
     gridtolerance="10"
     guidetolerance="10"
     inkscape:pageopacity="0"
     inkscape:pageshadow="2"
     inkscape:window-width="1366"
     inkscape:window-height="703"
     id="namedview8"
     showgrid="false"
     inkscape:zoom="7.375"
     inkscape:cx="-4.1355929"
     inkscape:cy="8"
     inkscape:window-x="0"
     inkscape:window-y="0"
     inkscape:window-maximized="1"
     inkscape:current-layer="svg6"
     showguides="false" />
  <defs
     id="defs3051">
    <style
       type="text/css"
       id="current-color-scheme">
      .ColorScheme-Text {
        color:#f2f2f2;
      }
      </style>
  </defs>
  <g
     id="g819">
    <path
       inkscape:connector-curvature="0"
       id="path4-3-3"
       class="ColorScheme-Text"
       d="m 2.7777779,2.0000002 c -0.430889,0 -0.777778,0.4459999 -0.777778,0.9999999 V 6.9218 9 29.078199 c 0,0.5114 0.319271,0.921801 0.717014,0.921801 H 29.282985 C 29.680728,30 30,29.5896 30,29.078199 V 6.9218 C 30,6.4104 29.680728,6 29.282985,6 H 16.556739 C 15.670282,6.034 15.240279,5.7358 14.849315,5.2638 L 13.000691,2.8438002 c -0.261411,-0.4404 -0.458691,-0.8438 -0.88958,-0.8438 z"
       style="color:#f2f2f2;fill:#4285f4;fill-opacity:1;stroke:none;stroke-width:1.76383412" />
    <path
       id="path4-3"
       d="m 16.030768,11.491525 c -1.692354,0 -3.122356,0.586159 -4.291613,1.75717 -1.159004,1.171011 -1.739153,2.585523 -1.739153,4.243588 0,1.668431 0.580149,3.087738 1.739153,4.258749 1.159005,1.160652 2.589006,1.740493 4.291613,1.740493 0.871814,0 1.667931,-0.165665 2.385898,-0.497284 l -0.432162,-1.056727 c -0.574375,0.290158 -1.225515,0.435123 -1.953736,0.435123 -1.353881,0 -2.501677,-0.471504 -3.445295,-1.41453 -0.94361,-0.943025 -1.416533,-2.097917 -1.416533,-3.465824 0,-1.367901 0.472923,-2.524315 1.416533,-3.46734 0.943616,-0.943026 2.091413,-1.41453 3.445295,-1.41453 1.353876,0 2.503181,0.471504 3.446796,1.41453 0.943615,0.943025 1.415033,2.099439 1.415033,3.46734 0,1.4819 -0.364186,2.222616 -1.092411,2.222616 -0.3077,0 -0.537913,-0.108348 -0.691762,-0.325964 -0.143594,-0.21762 -0.21608,-0.46133 -0.21608,-0.730764 v -4.057108 h -1.107417 v 0.698927 h -0.06154 c -0.523089,-0.611412 -1.178969,-0.917246 -1.968736,-0.917246 -0.80002,0 -1.487402,0.301037 -2.061776,0.902085 -0.574372,0.601053 -0.861325,1.357678 -0.861325,2.269614 0,0.922302 0.286953,1.683728 0.861325,2.284776 0.574374,0.590688 1.282248,0.885408 2.123299,0.885408 0.933355,0 1.65073,-0.377554 2.153309,-1.13405 0.379497,0.756496 0.953398,1.13405 1.722646,1.13405 0.748738,0 1.319395,-0.305834 1.709143,-0.917246 0.400014,-0.611413 0.598726,-1.382431 0.598726,-2.315098 0,-1.658065 -0.573901,-3.072577 -1.722646,-4.243588 -1.148755,-1.171011 -2.564508,-1.75717 -4.246599,-1.75717 z m -0.106536,4.072268 c 0.512837,0 0.948007,0.181581 1.306991,0.544283 0.369236,0.362703 0.553709,0.84532 0.553709,1.446367 0,0.601048 -0.184473,1.08215 -0.553709,1.444852 -0.358984,0.362702 -0.794154,0.544283 -1.306991,0.544283 -0.512831,0 -0.954255,-0.181581 -1.323498,-0.544283 -0.358984,-0.362702 -0.538702,-0.843804 -0.538702,-1.444852 0,-0.601047 0.179718,-1.083664 0.538702,-1.446367 0.369243,-0.362702 0.810667,-0.544283 1.323498,-0.544283 z"
       class="ColorScheme-Text"
       style="color:#f2f2f2;fill:#ffffff;fill-opacity:1;stroke:none;stroke-width:0.77225792"
       inkscape:connector-curvature="0" />
  </g>
</svg>
