<?xml version="1.0" encoding="UTF-8" standalone="no"?>
<svg
   xmlns:dc="http://purl.org/dc/elements/1.1/"
   xmlns:cc="http://creativecommons.org/ns#"
   xmlns:rdf="http://www.w3.org/1999/02/22-rdf-syntax-ns#"
   xmlns:svg="http://www.w3.org/2000/svg"
   xmlns="http://www.w3.org/2000/svg"
   xmlns:sodipodi="http://sodipodi.sourceforge.net/DTD/sodipodi-0.dtd"
   xmlns:inkscape="http://www.inkscape.org/namespaces/inkscape"
   height="32"
   viewBox="0 0 32 32"
   width="32"
   version="1.1"
   id="svg4"
   sodipodi:docname="queued.svg"
   inkscape:version="0.92.4 5da689c313, 2019-01-14">
  <metadata
     id="metadata10">
    <rdf:RDF>
      <cc:Work
         rdf:about="">
        <dc:format>image/svg+xml</dc:format>
        <dc:type
           rdf:resource="http://purl.org/dc/dcmitype/StillImage" />
        <dc:title />
      </cc:Work>
    </rdf:RDF>
  </metadata>
  <defs
     id="defs8" />
  <sodipodi:namedview
     pagecolor="#ffffff"
     bordercolor="#666666"
     borderopacity="1"
     objecttolerance="10"
     gridtolerance="10"
     guidetolerance="10"
     inkscape:pageopacity="0"
     inkscape:pageshadow="2"
     inkscape:window-width="1366"
     inkscape:window-height="703"
     id="namedview6"
     showgrid="false"
     inkscape:zoom="9.8333333"
     inkscape:cx="1.677966"
     inkscape:cy="23.830509"
     inkscape:window-x="0"
     inkscape:window-y="0"
     inkscape:window-maximized="1"
     inkscape:current-layer="svg4" />
  <path
     d="M 22.300267,20.365728 16.441453,15.927877 17.265698,8.6490682 15.259082,8.4463136 14.33652,16.967844 21.032311,22.039678 Z M 16,1.9999998 A 14,14 0 0 0 1.9999998,16.000001 C 1.9999998,23.7 8.2579984,30 16,30 A 14,14 0 0 0 30,16.000001 14,14 0 0 0 16,1.9999998 Z m 0,2.8000001 A 11.2,11.2 0 0 1 27.2,16.000001 11.2,11.2 0 0 1 16,27.2 11.2,11.2 0 0 1 4.7999999,16.000001 11.2,11.2 0 0 1 16,4.7999999 Z"
     id="path2"
     style="fill:#f25022;fill-opacity:1;stroke-width:1.39997196"
     inkscape:connector-curvature="0" />
</svg>
