<?xml version="1.0" encoding="UTF-8" standalone="no"?>
<svg
   xmlns:dc="http://purl.org/dc/elements/1.1/"
   xmlns:cc="http://creativecommons.org/ns#"
   xmlns:rdf="http://www.w3.org/1999/02/22-rdf-syntax-ns#"
   xmlns:svg="http://www.w3.org/2000/svg"
   xmlns="http://www.w3.org/2000/svg"
   xmlns:sodipodi="http://sodipodi.sourceforge.net/DTD/sodipodi-0.dtd"
   xmlns:inkscape="http://www.inkscape.org/namespaces/inkscape"
   height="32"
   viewBox="0 0 32 32"
   width="32"
   version="1.1"
   id="svg4"
   sodipodi:docname="rss-config.svg"
   inkscape:version="0.92.4 5da689c313, 2019-01-14">
  <metadata
     id="metadata10">
    <rdf:RDF>
      <cc:Work
         rdf:about="">
        <dc:format>image/svg+xml</dc:format>
        <dc:type
           rdf:resource="http://purl.org/dc/dcmitype/StillImage" />
        <dc:title />
      </cc:Work>
    </rdf:RDF>
  </metadata>
  <defs
     id="defs8" />
  <sodipodi:namedview
     pagecolor="#ffffff"
     bordercolor="#666666"
     borderopacity="1"
     objecttolerance="10"
     gridtolerance="10"
     guidetolerance="10"
     inkscape:pageopacity="0"
     inkscape:pageshadow="2"
     inkscape:window-width="1366"
     inkscape:window-height="703"
     id="namedview6"
     showgrid="false"
     inkscape:zoom="7.375"
     inkscape:cx="3.9322038"
     inkscape:cy="13.423729"
     inkscape:window-x="0"
     inkscape:window-y="0"
     inkscape:window-maximized="1"
     inkscape:current-layer="svg4" />
  <path
     d="m 4.6651885,1.9999997 c 2.3282105,0 4.5696239,0.3012395 6.7242405,0.9037186 2.154616,0.6024812 4.171378,1.4551418 6.050235,2.5579882 1.878957,1.1028443 3.589374,2.4252349 5.131453,3.9671762 1.54188,1.5419413 2.864262,3.2523713 3.96715,5.1312913 1.102687,1.87907 1.955343,3.895797 2.557967,6.05048 C 29.698761,22.765235 30,25.006514 30,27.334942 30,28.07017 29.739659,28.69798 29.218872,29.218918 28.698089,29.739854 28.070134,30 27.334911,30 26.599636,30 25.971682,29.739754 25.450746,29.218918 24.930064,28.69813 24.669671,28.07017 24.669671,27.334942 c 0,-1.838227 -0.240018,-3.609825 -0.719958,-5.3153 C 23.469778,20.314519 22.79567,18.721369 21.927697,17.240699 21.059724,15.759978 20.018305,14.412056 18.802992,13.196885 17.58778,11.981715 16.239968,10.940139 14.759258,10.07216 13.278597,9.2041777 11.685611,8.5302181 9.9802988,8.0502756 8.2749862,7.5703353 6.5032999,7.330364 4.6652388,7.330364 3.9300143,7.330364 3.3020099,7.0699701 2.7812259,6.5491821 2.2604417,6.0283941 2.0000498,5.400386 2.0000498,4.6651558 c 0,-0.7352281 0.2603919,-1.3632383 0.7811761,-1.8840263 C 3.3019597,2.2603937 3.929964,1.9999997 4.6651885,1.9999997 Z m 0,10.0787733 c 2.103559,0 4.0794745,0.403355 5.9277465,1.210066 1.848273,0.806711 3.461682,1.899343 4.840228,3.2779 1.378596,1.378605 2.471222,2.991926 3.277876,4.840111 0.806755,1.848487 1.210057,3.824217 1.210057,5.92799 0,0.735232 -0.260341,1.363038 -0.781075,1.883978 -0.520785,0.520788 -1.148739,0.781082 -1.884164,0.781082 -0.735224,0 -1.363178,-0.260244 -1.883962,-0.781082 -0.520784,-0.520788 -0.781176,-1.148746 -0.781176,-1.883978 0,-1.368443 -0.260392,-2.655046 -0.781176,-3.860004 -0.520784,-1.204961 -1.23048,-2.256749 -2.129088,-3.155313 C 10.781847,19.42086 9.730068,18.711159 8.5251168,18.190371 7.3201654,17.669683 6.0335231,17.409289 4.6651885,17.409289 c -0.7352245,0 -1.3632288,-0.260344 -1.8840125,-0.781132 -0.5207842,-0.520836 -0.7811763,-1.148846 -0.7811763,-1.884076 0,-0.73523 0.2603921,-1.363238 0.7811763,-1.884026 0.5207837,-0.520889 1.148788,-0.781282 1.8840125,-0.781282 z m 4.9014962,13.99995 c 0,0.531051 -0.097009,1.021154 -0.2910264,1.470511 -0.1940156,0.449455 -0.4595153,0.84245 -0.7964933,1.179479 -0.3369778,0.336831 -0.7352245,0.602431 -1.1947396,0.796499 -0.4595147,0.193965 -0.9445589,0.290881 -1.4551313,0.290881 -0.5309955,0 -1.0211454,-0.09699 -1.4704491,-0.290881 C 3.909541,29.331247 3.5164002,29.065496 3.1794224,28.728713 2.8424446,28.391734 2.5769466,27.998589 2.3829291,27.549234 2.1889116,27.099877 2.0919027,26.609774 2.0919027,26.078723 c 0,-0.510425 0.097009,-0.995572 0.2910264,-1.454941 0.1940157,-0.45972 0.4595155,-0.857919 0.7964933,-1.194798 0.3369778,-0.336981 0.7301186,-0.602429 1.1794226,-0.796498 0.4493037,-0.193966 0.9394536,-0.291032 1.4704491,-0.291032 0.5105724,0 0.9956166,0.09708 1.4551313,0.291032 0.4595151,0.194069 0.8577618,0.459517 1.1947396,0.796498 0.336978,0.336879 0.6024758,0.735228 0.7964933,1.194798 0.1940157,0.459417 0.2910264,0.944416 0.2910264,1.454941 z"
     id="path2"
     style="fill:#4285f4;fill-opacity:1;stroke-width:0.05005631"
     inkscape:connector-curvature="0" />
</svg>
