<?xml version="1.0" encoding="UTF-8" standalone="no"?>
<svg
   xmlns:dc="http://purl.org/dc/elements/1.1/"
   xmlns:cc="http://creativecommons.org/ns#"
   xmlns:rdf="http://www.w3.org/1999/02/22-rdf-syntax-ns#"
   xmlns:svg="http://www.w3.org/2000/svg"
   xmlns="http://www.w3.org/2000/svg"
   xmlns:sodipodi="http://sodipodi.sourceforge.net/DTD/sodipodi-0.dtd"
   xmlns:inkscape="http://www.inkscape.org/namespaces/inkscape"
   viewBox="0 0 32 32"
   version="1.1"
   id="svg6"
   sodipodi:docname="system-log-out.svg"
   inkscape:version="0.92.4 5da689c313, 2019-01-14"
   width="32"
   height="32">
  <metadata
     id="metadata10">
    <rdf:RDF>
      <cc:Work
         rdf:about="">
        <dc:format>image/svg+xml</dc:format>
        <dc:type
           rdf:resource="http://purl.org/dc/dcmitype/StillImage" />
        <dc:title />
      </cc:Work>
    </rdf:RDF>
  </metadata>
  <sodipodi:namedview
     pagecolor="#ffffff"
     bordercolor="#666666"
     borderopacity="1"
     objecttolerance="10"
     gridtolerance="10"
     guidetolerance="10"
     inkscape:pageopacity="0"
     inkscape:pageshadow="2"
     inkscape:window-width="1366"
     inkscape:window-height="703"
     id="namedview8"
     showgrid="false"
     inkscape:zoom="10.727273"
     inkscape:cx="0.55932232"
     inkscape:cy="11"
     inkscape:window-x="0"
     inkscape:window-y="0"
     inkscape:window-maximized="1"
     inkscape:current-layer="svg6" />
  <defs
     id="defs3051">
    <style
       type="text/css"
       id="current-color-scheme">
     .ColorScheme-Text {
       color:#f2f2f2;
     }
     </style>
  </defs>
  <path
     style="color:#f2f2f2;fill:#db3236;fill-opacity:1;stroke:none;stroke-width:1.75"
     d="m 17.144832,16.007 -4.330374,-4.330497 c -0.21994,-0.219818 -0.329735,-0.488635 -0.329735,-0.806471 0,-0.317817 0.109724,-0.58653 0.329735,-0.806347 l 0.668237,-0.6683426 c 0.219713,-0.21973 0.48853,-0.32963 0.806243,-0.32963 0.317817,0 0.586547,0.1099 0.806469,0.32963 L 20.90497,15.19605 c 0.219835,0.219817 0.329752,0.488635 0.329752,0.80647 0,0.317817 -0.1099,0.58653 -0.329752,0.806347 l -5.809563,5.800708 c -0.219922,0.219835 -0.488652,0.329752 -0.806469,0.329752 -0.317713,0 -0.58653,-0.1099 -0.806243,-0.329752 l -0.668237,-0.66822 c -0.21994,-0.21973 -0.329735,-0.48713 -0.329735,-0.80199 0,-0.314755 0.109724,-0.585113 0.329735,-0.810845 z M 1.9999998,16 A 14.000001,14.000001 0 0 0 16,30 14.000001,14.000001 0 0 0 30,16 14.000001,14.000001 0 0 0 16,1.9999999 14.000001,14.000001 0 0 0 1.9999998,16 Z"
     class="ColorScheme-Text"
     id="path4"
     inkscape:connector-curvature="0" />
</svg>
