<?xml version="1.0" encoding="UTF-8" standalone="no"?>
<svg
   xmlns:dc="http://purl.org/dc/elements/1.1/"
   xmlns:cc="http://creativecommons.org/ns#"
   xmlns:rdf="http://www.w3.org/1999/02/22-rdf-syntax-ns#"
   xmlns:svg="http://www.w3.org/2000/svg"
   xmlns="http://www.w3.org/2000/svg"
   xmlns:sodipodi="http://sodipodi.sourceforge.net/DTD/sodipodi-0.dtd"
   xmlns:inkscape="http://www.inkscape.org/namespaces/inkscape"
   viewBox="0 0 32 32"
   version="1.1"
   id="svg6"
   sodipodi:docname="tab-close.svg"
   inkscape:version="0.92.4 5da689c313, 2019-01-14">
  <metadata
     id="metadata12">
    <rdf:RDF>
      <cc:Work
         rdf:about="">
        <dc:format>image/svg+xml</dc:format>
        <dc:type
           rdf:resource="http://purl.org/dc/dcmitype/StillImage" />
        <dc:title />
      </cc:Work>
    </rdf:RDF>
  </metadata>
  <defs
     id="defs10" />
  <sodipodi:namedview
     pagecolor="#ffffff"
     bordercolor="#666666"
     borderopacity="1"
     objecttolerance="10"
     gridtolerance="10"
     guidetolerance="10"
     inkscape:pageopacity="0"
     inkscape:pageshadow="2"
     inkscape:window-width="1366"
     inkscape:window-height="703"
     id="namedview8"
     showgrid="false"
     inkscape:zoom="7.375"
     inkscape:cx="-0.61016954"
     inkscape:cy="16"
     inkscape:window-x="0"
     inkscape:window-y="0"
     inkscape:window-maximized="1"
     inkscape:current-layer="svg6" />
  <g
     id="g836">
    <path
       id="path4"
       class="ColorScheme-Text"
       d="M 2.0639199,4.5 C 1.47373,4.5 0.99999998,4.9841499 0.99999998,5.5837456 V 26.416254 C 0.99999998,27.01585 1.47373,27.5 2.0639199,27.5 H 29.93608 C 30.52627,27.5 31,27.01585 31,26.416254 V 5.5837456 C 31,4.98415 30.52627,4.5 29.93608,4.5 Z M 19.614595,6.4372613 h 8.98674 c 0.35832,0 0.646635,0.2929337 0.646635,0.6569806 V 24.905758 c 0,0.364061 -0.288315,0.656981 -0.646635,0.656981 h -8.98674 c -0.35832,0 -0.64665,-0.29292 -0.64665,-0.656981 V 7.0942419 c 0,-0.3640469 0.28833,-0.6569806 0.64665,-0.6569806 z M 7.1818296,11.207404 c 0.211875,0 0.39342,0.07676 0.541635,0.227412 l 2.3351104,2.372437 2.332365,-2.372437 c 0.1482,-0.150592 0.329865,-0.227412 0.541635,-0.227412 0.21168,0 0.390645,0.07676 0.538875,0.227412 l 1.080495,1.097776 c 0.1482,0.150506 0.221085,0.332336 0.221085,0.547486 0,0.215151 -0.0729,0.396895 -0.221085,0.547486 L 12.216835,16 l 2.33511,2.372436 c 0.1482,0.150592 0.221085,0.332335 0.221085,0.547486 0,0.21515 -0.0729,0.396894 -0.221085,0.547486 l -1.080495,1.097776 c -0.1482,0.150592 -0.327195,0.227412 -0.538875,0.227412 -0.21177,0 -0.39342,-0.07691 -0.541635,-0.227412 l -2.332365,-2.369633 -2.3351104,2.369633 c -0.1482,0.150592 -0.32967,0.227412 -0.541635,0.227412 -0.211665,0 -0.390735,-0.07691 -0.538875,-0.227412 L 5.5624595,19.467408 c -0.1482,-0.150492 -0.221085,-0.332336 -0.221085,-0.547486 0,-0.215151 0.0729,-0.396894 0.221085,-0.547486 L 7.8975696,16 5.5624595,13.627564 c -0.1482,-0.150506 -0.221085,-0.332335 -0.221085,-0.547486 0,-0.215151 0.07305,-0.396895 0.221085,-0.547486 l 1.0804951,-1.097776 c 0.1482,-0.150592 0.32721,-0.227412 0.538875,-0.227412 z"
       style="fill:#f25022;fill-opacity:1;stroke:none;stroke-width:1.46841753"
       inkscape:connector-curvature="0" />
    <path
       inkscape:connector-curvature="0"
       id="path812"
       d="M 6.1679084,20.002393 C 5.1627915,18.922387 5.185017,18.807629 6.6924718,17.29388 L 7.9340961,16.047071 6.6924718,14.701498 C 5.8359559,13.773275 5.4508474,13.253555 5.4508474,13.025873 c 0,-0.443883 1.3083337,-1.744517 1.7548445,-1.744517 0.2310754,0 0.6818351,0.375038 1.5889566,1.322034 l 1.2663685,1.322034 1.266368,-1.322034 c 0.925767,-0.96646 1.355525,-1.322034 1.597853,-1.322034 0.444249,0 1.745948,1.307264 1.745948,1.753413 0,0.216468 -0.404735,0.759776 -1.241624,1.666729 l -1.241624,1.345573 1.241624,1.246809 c 0.926294,0.930162 1.241624,1.336237 1.241624,1.598937 0,0.413347 -1.327955,1.880064 -1.702196,1.880064 -0.128753,0 -0.835718,-0.591082 -1.571034,-1.313516 l -1.336939,-1.313517 -1.3369388,1.313517 c -0.7353164,0.722434 -1.4499271,1.313516 -1.5880237,1.313516 -0.1380969,0 -0.5737625,-0.346719 -0.9681461,-0.770488 z"
       style="opacity:1;vector-effect:none;fill:#ffffff;fill-opacity:1;stroke:none;stroke-width:0.20138828;stroke-linecap:butt;stroke-linejoin:miter;stroke-miterlimit:4;stroke-dasharray:none;stroke-dashoffset:0;stroke-opacity:1" />
    <path
       inkscape:connector-curvature="0"
       id="path814"
       d="m 19.223245,25.305569 c -0.189479,-0.189478 -0.213076,-1.22257 -0.213076,-9.328814 0,-6.9092274 0.03939,-9.1551233 0.162712,-9.2784499 0.233223,-0.2332228 9.610845,-0.2332228 9.844068,0 0.235302,0.2353023 0.235302,18.4223259 0,18.6576269 -0.120307,0.120307 -1.389938,0.162712 -4.871671,0.162712 -4.10008,0 -4.736509,-0.02755 -4.922033,-0.213075 z"
       style="opacity:1;vector-effect:none;fill:#ffffff;fill-opacity:1;stroke:none;stroke-width:0.20138828;stroke-linecap:butt;stroke-linejoin:miter;stroke-miterlimit:4;stroke-dasharray:none;stroke-dashoffset:0;stroke-opacity:1" />
    <path
       inkscape:connector-curvature="0"
       id="path816"
       d="M 6.1759764,20.047752 C 5.1255608,18.997337 5.1555914,18.837177 6.6923071,17.294045 L 7.9337667,16.047402 6.6923071,14.724636 C 5.181493,13.114875 5.1567915,12.986224 6.1669756,11.988588 7.1847324,10.983474 7.2971133,11.009303 8.8035233,12.594546 l 1.2509807,1.316447 1.257494,-1.316588 c 1.522128,-1.593659 1.641143,-1.620448 2.651956,-0.596921 0.992067,1.004546 0.968214,1.126312 -0.534227,2.727152 l -1.24146,1.322766 1.24146,1.246643 c 1.515019,1.521345 1.539363,1.647607 0.524569,2.720736 -0.39429,0.416955 -0.829955,0.7581 -0.968146,0.7581 -0.13819,0 -0.852878,-0.591082 -1.588194,-1.313516 l -1.336939,-1.313517 -1.3369388,1.313517 c -0.7353164,0.722434 -1.4462966,1.313516 -1.5799558,1.313516 -0.1336594,0 -0.5693252,-0.326308 -0.968146,-0.725129 z"
       style="opacity:1;vector-effect:none;fill:#ffffff;fill-opacity:1;stroke:none;stroke-width:0.20138828;stroke-linecap:butt;stroke-linejoin:miter;stroke-miterlimit:4;stroke-dasharray:none;stroke-dashoffset:0;stroke-opacity:1" />
    <path
       inkscape:connector-curvature="0"
       id="path818"
       d="m 19.223245,25.305569 c -0.189479,-0.189478 -0.213076,-1.22257 -0.213076,-9.328814 0,-6.9092274 0.03939,-9.1551233 0.162712,-9.2784499 0.233223,-0.2332228 9.610845,-0.2332228 9.844068,0 0.235302,0.2353023 0.235302,18.4223259 0,18.6576269 -0.120307,0.120307 -1.389938,0.162712 -4.871671,0.162712 -4.10008,0 -4.736509,-0.02755 -4.922033,-0.213075 z"
       style="opacity:1;vector-effect:none;fill:#ffffff;fill-opacity:1;stroke:none;stroke-width:0.20138828;stroke-linecap:butt;stroke-linejoin:miter;stroke-miterlimit:4;stroke-dasharray:none;stroke-dashoffset:0;stroke-opacity:1" />
    <path
       inkscape:connector-curvature="0"
       id="path820"
       d="M 6.1759764,20.047752 C 5.1254607,18.997237 5.1554967,18.837272 6.6932006,17.293148 L 7.9355538,16.045608 6.6932006,14.73289 C 5.1756746,13.129414 5.1495828,12.993343 6.1669756,11.988588 7.179897,10.988249 7.2954988,11.013753 8.8019686,12.56991 l 1.2494264,1.290635 1.259048,-1.289762 c 1.526762,-1.564006 1.649023,-1.590421 2.653511,-0.573299 0.999367,1.011938 0.974197,1.140603 -0.535121,2.735406 l -1.242353,1.312718 1.242353,1.24754 c 1.525925,1.532296 1.552875,1.673373 0.522815,2.736851 -0.395746,0.408585 -0.831412,0.742882 -0.968146,0.742882 -0.136734,0 -0.85023,-0.591082 -1.585546,-1.313516 l -1.336939,-1.313517 -1.3369388,1.313517 c -0.7353164,0.722434 -1.4462966,1.313516 -1.5799558,1.313516 -0.1336594,0 -0.5693252,-0.326308 -0.968146,-0.725129 z"
       style="opacity:1;vector-effect:none;fill:#ffffff;fill-opacity:1;stroke:none;stroke-width:0.20138828;stroke-linecap:butt;stroke-linejoin:miter;stroke-miterlimit:4;stroke-dasharray:none;stroke-dashoffset:0;stroke-opacity:1" />
    <path
       inkscape:connector-curvature="0"
       id="path822"
       d="m 19.223245,25.305569 c -0.189479,-0.189478 -0.213076,-1.22257 -0.213076,-9.328814 0,-6.9092274 0.03939,-9.1551233 0.162712,-9.2784499 0.233223,-0.2332228 9.610845,-0.2332228 9.844068,0 0.235302,0.2353023 0.235302,18.4223259 0,18.6576269 -0.120307,0.120307 -1.389938,0.162712 -4.871671,0.162712 -4.10008,0 -4.736509,-0.02755 -4.922033,-0.213075 z"
       style="opacity:1;vector-effect:none;fill:#ffffff;fill-opacity:1;stroke:none;stroke-width:0.20138828;stroke-linecap:butt;stroke-linejoin:miter;stroke-miterlimit:4;stroke-dasharray:none;stroke-dashoffset:0;stroke-opacity:1" />
    <path
       inkscape:connector-curvature="0"
       id="path824"
       d="M 6.1759764,20.047752 C 5.1252976,18.997074 5.1553424,18.837427 6.6946578,17.291685 L 7.9384683,16.042681 6.6946578,14.741633 c -1.5253311,-1.595525 -1.553094,-1.74037 -0.5276822,-2.753045 0.4550017,-0.449349 0.8324785,-0.707232 1.0352138,-0.707232 0.2197124,0 0.7145631,0.387831 1.5889566,1.245318 l 1.269871,1.245318 1.269871,-1.245318 c 0.8941,-0.876813 1.366925,-1.245318 1.597852,-1.245318 0.470541,0 1.742446,1.310808 1.742446,1.795742 0,0.27328 -0.308674,0.686365 -1.24381,1.664535 l -1.24381,1.301048 1.24381,1.249004 c 1.539315,1.545742 1.56936,1.705389 0.518681,2.756067 -0.39882,0.398821 -0.834486,0.725129 -0.968146,0.725129 -0.133659,0 -0.844639,-0.591082 -1.579955,-1.313516 l -1.336939,-1.313517 -1.3369388,1.313517 c -0.7353164,0.722434 -1.4462966,1.313516 -1.5799558,1.313516 -0.1336594,0 -0.5693252,-0.326308 -0.968146,-0.725129 z"
       style="opacity:1;vector-effect:none;fill:#ffffff;fill-opacity:1;stroke:none;stroke-width:0.20138828;stroke-linecap:butt;stroke-linejoin:miter;stroke-miterlimit:4;stroke-dasharray:none;stroke-dashoffset:0;stroke-opacity:1" />
  </g>
</svg>
