<?xml version="1.0" encoding="utf-8"?>
<!-- Generator: Adobe Illustrator 18.0.0, SVG Export Plug-In . SVG Version: 6.00 Build 0)  -->
<!DOCTYPE svg PUBLIC "-//W3C//DTD SVG 1.1//EN" "http://www.w3.org/Graphics/SVG/1.1/DTD/svg11.dtd">
<svg version="1.1" id="Layer_1" xmlns="http://www.w3.org/2000/svg" xmlns:xlink="http://www.w3.org/1999/xlink" x="0px" y="0px"
	 viewBox="0 0 32 32" enable-background="new 0 0 32 32" xml:space="preserve">
<g>
	<path fill="#FFFFFF" d="M28.8,18.6C28.8,18.7,28.8,18.7,28.8,18.6c0,0.2-0.1,0.3-0.2,0.5C28.7,19,28.8,18.8,28.8,18.6"/>
</g>
<g>
	<path fill="#733737" d="M26.4,17L26.4,17C26.4,17,26.5,17,26.4,17C26.5,17,26.4,17,26.4,17z"/>
	<path fill="#FFFFFF" d="M26.5,17C26.5,17,26.4,17,26.5,17C26.4,17,26.5,17,26.5,17"/>
</g>
<g>
	<path fill="#494949" d="M16,12.5c-1,0-1.8,0.3-2.5,1s-1,1.5-1,2.5s0.3,1.8,1,2.5s1.5,1,2.5,1s1.8-0.3,2.5-1s1-1.5,1-2.5
		s-0.3-1.8-1-2.5S17,12.5,16,12.5z"/>
	<path fill="#494949" d="M0,0v32h32V0H0z M26.7,14.5v3.1c0,0.1,0,0.2-0.1,0.3c-0.1,0.1-0.2,0.2-0.3,0.2l-2.6,0.4
		c-0.2,0.5-0.4,0.9-0.5,1.3c0.3,0.5,0.8,1.1,1.5,1.9c0.1,0.1,0.1,0.2,0.1,0.3s0,0.2-0.1,0.3c-0.3,0.3-0.7,0.8-1.4,1.5s-1.1,1-1.3,1
		c-0.1,0-0.2,0-0.4-0.1l-1.9-1.5c-0.4,0.2-0.8,0.4-1.3,0.5c-0.1,1.3-0.3,2.1-0.4,2.6c-0.1,0.3-0.2,0.4-0.5,0.4h-3.1
		c-0.1,0-0.2,0-0.3-0.1c-0.1-0.1-0.2-0.2-0.2-0.3l-0.4-2.6c-0.5-0.1-0.9-0.3-1.3-0.5l-2,1.5c-0.1,0.1-0.2,0.1-0.3,0.1
		c-0.1,0-0.2-0.1-0.3-0.2c-1.2-1.1-1.9-1.8-2.3-2.3c-0.1-0.1-0.1-0.2-0.1-0.3s0-0.2,0.1-0.3c0.1-0.2,0.4-0.5,0.7-0.9
		c0.3-0.4,0.6-0.8,0.8-1c-0.3-0.5-0.4-0.9-0.6-1.4L5.7,18c-0.1,0-0.2-0.1-0.3-0.2c-0.1-0.1-0.1-0.2-0.1-0.3v-3.1
		c0-0.1,0-0.2,0.1-0.3c0.1-0.1,0.2-0.2,0.3-0.2l2.6-0.4c0.1-0.4,0.3-0.9,0.5-1.3c-0.4-0.5-0.9-1.2-1.5-1.9c-0.1-0.1-0.1-0.2-0.1-0.3
		s0-0.2,0.1-0.3C7.5,9.3,8,8.8,8.7,8.2c0.7-0.7,1.1-1,1.3-1c0.1,0,0.2,0,0.4,0.1l1.9,1.5c0.4-0.2,0.8-0.4,1.3-0.5
		C13.7,7,13.9,6.2,14,5.7c0.1-0.3,0.2-0.4,0.5-0.4h3.1c0.1,0,0.2,0,0.3,0.1C18,5.5,18,5.6,18.1,5.7l0.4,2.6c0.5,0.1,0.9,0.3,1.3,0.5
		l2-1.5c0.1-0.1,0.2-0.1,0.3-0.1c0.1,0,0.2,0,0.3,0.1c1.2,1.1,2,1.9,2.3,2.4c0.1,0.1,0.1,0.2,0.1,0.3s0,0.2-0.1,0.3
		c-0.1,0.2-0.4,0.5-0.7,0.9c-0.3,0.4-0.6,0.8-0.8,1c0.2,0.5,0.4,0.9,0.6,1.4l2.6,0.4c0.1,0,0.2,0.1,0.3,0.2
		C26.7,14.2,26.7,14.4,26.7,14.5z"/>
</g>
</svg>
