<?xml version="1.0" encoding="utf-8"?>
<!-- Generator: Adobe Illustrator 18.0.0, SVG Export Plug-In . SVG Version: 6.00 Build 0)  -->
<!DOCTYPE svg PUBLIC "-//W3C//DTD SVG 1.1//EN" "http://www.w3.org/Graphics/SVG/1.1/DTD/svg11.dtd">
<svg version="1.1" id="Layer_1" xmlns="http://www.w3.org/2000/svg" xmlns:xlink="http://www.w3.org/1999/xlink" x="0px" y="0px"
	 viewBox="0 0 32 32" enable-background="new 0 0 32 32" xml:space="preserve">
<g>
	<path fill="#733737" d="M26.4,17L26.4,17C26.4,17,26.5,17,26.4,17C26.5,17,26.4,17,26.4,17z"/>
	<path fill="#FFFFFF" d="M26.5,17C26.5,17,26.4,17,26.5,17C26.4,17,26.5,17,26.5,17"/>
</g>
<path fill="#375273" d="M0,0v32h32V0H0z M27.1,11.6L16.3,22.4l-2,2c-0.2,0.2-0.7,0.4-1,0.4c-0.4,0-0.7-0.2-1-0.4l-2-2L4.9,17
	c-0.3-0.3-0.5-0.7-0.5-1.1s0.2-0.7,0.4-1l2-2c0.2-0.2,0.7-0.4,1-0.4c0.4,0,0.7,0.2,1,0.4l4.4,4.4L23,7.6c0.2-0.2,0.7-0.4,1-0.4
	c0.4,0,0.7,0.2,1,0.4l2,2c0.4,0.2,0.6,0.6,0.6,1C27.5,11,27.4,11.3,27.1,11.6z"/>
</svg>
