<svg viewBox="0 0 22 22" xmlns="http://www.w3.org/2000/svg"><path d="m9.3339844 3c-.2778284 0-.5145173.0965485-.7089844.2910156-.1944671.1943393-.2910156.431156-.2910156.7089844v3.3339844c0 .2778284.0965485.5125641.2910156.7070312.1943392.1944671.431156.2929688.7089844.2929688h.9999996v1.9999996h-5.333984c-.3611897 0-.6736078.130639-.9375.394532-.2638922.263764-.3964844.576438-.3964844.9375v2h-1c-.2777005 0-.5125641.098629-.7070312.292968-.1944671.19434-.2929688.429203-.2929688.707032v3.333984c0 .277828.0985017.514645.2929688.708984.1944671.194467.4293307.291016.7070312.291016h3.3339844c.2777005 0 .5145173-.096676.7089844-.291016.1944671-.194339.2910156-.431156.2910156-.708984v-3.333984c0-.277829-.0965485-.512565-.2910156-.707032s-.4312839-.292968-.7089844-.292968h-1v-2h5.333984v2h-.9999996c-.2778284 0-.5145173.098629-.7089844.292968-.1944671.19434-.2910156.429203-.2910156.707032v3.333984c0 .277828.0965485.514645.2910156.708984.1943392.194467.431156.291016.7089844.291016h3.3320316c.277956 0 .514517-.096676.708984-.291016.194339-.194467.291016-.431156.291016-.708984v-3.333984c0-.277829-.096549-.512565-.291016-.707032s-.431028-.292968-.708984-.292968h-1v-2h5.333984v2h-1c-.277701 0-.514517.098629-.708984.292968-.19434.194467-.291016.429203-.291016.707032v3.333984c0 .277828.096676.514645.291016.708984.194467.194467.431283.291016.708984.291016h3.333984c.277701 0 .512565-.096676.707032-.291016.194467-.194339.292968-.431156.292968-.708984v-3.333984c0-.277829-.096804-.512692-.291015-.707032-.194467-.194467-.431028-.292968-.708985-.292968h-1v-2c0-.361062-.13272-.673736-.396484-.9375-.263892-.26402-.576438-.394532-.9375-.394532h-5.333984v-1.9999996h1c.277956 0 .514645-.0985017.708984-.2929688.194467-.1943392.291016-.4292028.291016-.7070312v-3.3339844c0-.2778284-.096677-.5146451-.291016-.7089844-.194467-.1944671-.431028-.2910156-.708984-.2910156z" fill="#2ecc71"/></svg>