<?xml version="1.0" encoding="utf-8"?>
<!-- Generator: Adobe Illustrator 18.0.0, SVG Export Plug-In . SVG Version: 6.00 Build 0)  -->
<!DOCTYPE svg PUBLIC "-//W3C//DTD SVG 1.1//EN" "http://www.w3.org/Graphics/SVG/1.1/DTD/svg11.dtd">
<svg version="1.1" id="Layer_1" xmlns="http://www.w3.org/2000/svg" xmlns:xlink="http://www.w3.org/1999/xlink" x="0px" y="0px"
	 viewBox="0 0 32 32" enable-background="new 0 0 32 32" xml:space="preserve">
<path fill="#427337" d="M29,16.1c0.3,0.7,0.2,1.4-0.3,1.9L17.2,29.4c-0.3,0.3-0.7,0.5-1.2,0.5c-0.5,0-0.8-0.2-1.2-0.5L3.3,17.9
	c-0.5-0.5-0.7-1-0.3-1.9c0.3-0.7,0.8-1,1.5-1h6.6V3.8c0-0.5,0.2-0.8,0.5-1.2c0.3-0.3,0.7-0.5,1.2-0.5h6.6c0.5,0,0.8,0.2,1.2,0.5
	c0.3,0.3,0.5,0.7,0.5,1.2v11.5h6.6C28.3,15.1,28.8,15.4,29,16.1z"/>
</svg>
