<?xml version="1.0" encoding="utf-8"?>
<!-- Generator: Adobe Illustrator 18.0.0, SVG Export Plug-In . SVG Version: 6.00 Build 0)  -->
<!DOCTYPE svg PUBLIC "-//W3C//DTD SVG 1.1//EN" "http://www.w3.org/Graphics/SVG/1.1/DTD/svg11.dtd">
<svg version="1.1" id="Layer_1" xmlns="http://www.w3.org/2000/svg" xmlns:xlink="http://www.w3.org/1999/xlink" x="0px" y="0px"
	 viewBox="0 0 32 32" enable-background="new 0 0 32 32" xml:space="preserve">
<path fill="#D1954E" d="M0,0v32h32V0H0z M26.6,6.9L19,14.4v11.4c0,0.5-0.2,0.7-0.6,0.9c-0.1,0.1-0.3,0.1-0.4,0.1
	c-0.3,0-0.6-0.1-0.7-0.3l-4-4C13.1,22.3,13,22,13,21.8v-7.5L5.5,6.9C5.1,6.5,5,6.1,5.2,5.8c0.2-0.4,0.5-0.6,0.9-0.6h19.7
	c0.5,0,0.7,0.3,0.9,0.6C27,6.2,26.9,6.5,26.6,6.9z"/>
</svg>
