<?xml version="1.0" encoding="utf-8"?>
<!-- Generator: Adobe Illustrator 18.0.0, SVG Export Plug-In . SVG Version: 6.00 Build 0)  -->
<!DOCTYPE svg PUBLIC "-//W3C//DTD SVG 1.1//EN" "http://www.w3.org/Graphics/SVG/1.1/DTD/svg11.dtd">
<svg version="1.1" id="Layer_1" xmlns="http://www.w3.org/2000/svg" xmlns:xlink="http://www.w3.org/1999/xlink" x="0px" y="0px"
	 viewBox="0 0 32 32" enable-background="new 0 0 32 32" xml:space="preserve">
<g>
	<path fill="#D1954E" d="M25.8,27.2v0.9c0,0.1,0,0.2-0.1,0.3c-0.1,0.1-0.2,0.1-0.3,0.1H6.6c-0.1,0-0.2,0-0.3-0.1
		c-0.1-0.1-0.1-0.2-0.1-0.3v-0.9c0-0.1,0-0.2,0.1-0.3s0.2-0.1,0.3-0.1h18.8c0.1,0,0.2,0,0.3,0.1C25.8,26.9,25.8,27,25.8,27.2z
		 M22.3,12.4c0,0.7-0.1,1.4-0.3,2S21.4,15.6,21,16c-0.4,0.4-0.8,0.8-1.2,1.2c-0.4,0.4-0.9,0.7-1.3,1.1c-0.4,0.3-0.9,0.7-1.2,1
		c-0.4,0.3-0.7,0.7-0.9,1.1c-0.2,0.4-0.3,0.9-0.3,1.3c0,0.9,0.3,1.9,0.9,3.1l-0.1,0l0,0c-0.8-0.4-1.6-0.8-2.2-1.2s-1.3-0.9-1.9-1.4
		s-1.2-1.1-1.6-1.7c-0.4-0.6-0.8-1.3-1-2.1c-0.3-0.8-0.4-1.7-0.4-2.6c0-0.7,0.1-1.4,0.3-2s0.5-1.1,0.9-1.6c0.4-0.4,0.8-0.8,1.2-1.2
		c0.4-0.4,0.9-0.7,1.3-1.1c0.4-0.3,0.9-0.7,1.2-1c0.4-0.3,0.7-0.7,0.9-1.1C15.9,7.5,16,7.1,16,6.6c0-0.9-0.3-1.9-0.9-3.1l0,0l0,0
		c0.8,0.4,1.6,0.8,2.2,1.2C18,5,18.6,5.5,19.3,6.1s1.2,1.1,1.6,1.7c0.4,0.6,0.8,1.3,1,2.1S22.3,11.5,22.3,12.4z"/>
</g>
</svg>
