<?xml version="1.0" encoding="utf-8"?>
<!-- Generator: Adobe Illustrator 18.0.0, SVG Export Plug-In . SVG Version: 6.00 Build 0)  -->
<!DOCTYPE svg PUBLIC "-//W3C//DTD SVG 1.1//EN" "http://www.w3.org/Graphics/SVG/1.1/DTD/svg11.dtd">
<svg version="1.1" id="Layer_1" xmlns="http://www.w3.org/2000/svg" xmlns:xlink="http://www.w3.org/1999/xlink" x="0px" y="0px"
	 viewBox="0 0 256 256" enable-background="new 0 0 256 256" xml:space="preserve">
<path fill="#733737" d="M0,0v256h256V0H0z M111.6,206.4c0,1.6,0,3.2-1.6,4.8s-3.2,1.6-4.8,1.6H50.8c-1.6,0-3.2,0-4.8-1.6
	s-1.6-3.2-1.6-4.8v-152c0-1.6,0-3.2,1.6-4.8c1.6-1.6,3.2-1.6,4.8-1.6h54.4c1.6,0,3.2,0,4.8,1.6s1.6,3.2,1.6,4.8V206.4z M211.6,206.4
	c0,1.6,0,3.2-1.6,4.8s-3.2,1.6-4.8,1.6h-54.4c-1.6,0-3.2,0-4.8-1.6s-1.6-3.2-1.6-4.8v-152c0-1.6,0-3.2,1.6-4.8
	c1.6-1.6,3.2-1.6,4.8-1.6h54.4c1.6,0,3.2,0,4.8,1.6s1.6,3.2,1.6,4.8L211.6,206.4L211.6,206.4z"/>
</svg>
