<?xml version="1.0" encoding="utf-8"?>
<!-- Generator: Adobe Illustrator 18.0.0, SVG Export Plug-In . SVG Version: 6.00 Build 0)  -->
<!DOCTYPE svg PUBLIC "-//W3C//DTD SVG 1.1//EN" "http://www.w3.org/Graphics/SVG/1.1/DTD/svg11.dtd">
<svg version="1.1" id="Layer_1" xmlns="http://www.w3.org/2000/svg" xmlns:xlink="http://www.w3.org/1999/xlink" x="0px" y="0px"
	 viewBox="0 0 32 32" enable-background="new 0 0 32 32" xml:space="preserve">
<g>
	<path fill="#494949" d="M19.8,9.4c-1.2-0.7-2.5-1-3.8-1c-1.4,0-2.7,0.3-3.8,1c-1.2,0.7-2.1,1.6-2.8,2.8c-0.7,1.2-1,2.5-1,3.8
		c0,1.4,0.3,2.7,1,3.8c0.7,1.2,1.6,2.1,2.8,2.8c1.2,0.7,2.5,1,3.8,1c1.4,0,2.7-0.3,3.8-1c1.2-0.7,2.1-1.6,2.8-2.8
		c0.7-1.2,1-2.5,1-3.8c0-1.4-0.3-2.7-1-3.8C21.9,11,21,10.1,19.8,9.4z M17.8,17.4c0,0.1,0,0.2-0.1,0.3c-0.1,0.1-0.2,0.1-0.3,0.1
		h-4.5c-0.1,0-0.2,0-0.3-0.1c-0.1-0.1-0.1-0.2-0.1-0.3v-0.9c0-0.1,0-0.2,0.1-0.3c0.1-0.1,0.2-0.1,0.3-0.1H16v-5c0-0.1,0-0.2,0.1-0.3
		s0.2-0.1,0.3-0.1h0.9c0.1,0,0.2,0,0.3,0.1c0.1,0.1,0.1,0.2,0.1,0.3V17.4z"/>
	<path fill="#494949" d="M0,0v32h32V0H0z M25.4,21.4c-1,1.7-2.3,3-3.9,3.9c-1.7,1-3.5,1.4-5.4,1.4c-2,0-3.8-0.5-5.4-1.4
		c-1.7-1-3-2.3-3.9-3.9c-1-1.7-1.5-3.5-1.5-5.4c0-2,0.5-3.8,1.5-5.4c1-1.7,2.3-3,3.9-3.9c1.7-1,3.5-1.5,5.4-1.5c2,0,3.8,0.5,5.4,1.5
		s3,2.3,3.9,3.9s1.4,3.5,1.4,5.4C26.8,18,26.3,19.8,25.4,21.4z"/>
</g>
</svg>
