<?xml version="1.0" encoding="utf-8"?>
<!-- Generator: Adobe Illustrator 18.0.0, SVG Export Plug-In . SVG Version: 6.00 Build 0)  -->
<!DOCTYPE svg PUBLIC "-//W3C//DTD SVG 1.1//EN" "http://www.w3.org/Graphics/SVG/1.1/DTD/svg11.dtd">
<svg version="1.1" id="Layer_1" xmlns="http://www.w3.org/2000/svg" xmlns:xlink="http://www.w3.org/1999/xlink" x="0px" y="0px"
	 viewBox="0 0 32 32" enable-background="new 0 0 32 32" xml:space="preserve">
<path fill="#D1954E" d="M27.7,16.7h-6.6v11.5c0,0.5-0.2,0.9-0.5,1.2c-0.4,0.3-0.7,0.5-1.2,0.5h-6.6c-0.5,0-0.9-0.2-1.2-0.5
	c-0.3-0.4-0.5-0.7-0.5-1.2V17H4.5c-0.7,0-1.2-0.3-1.5-1c-0.4-0.9-0.2-1.4,0.3-1.9L14.8,2.6c0.4-0.3,0.7-0.5,1.2-0.5s0.9,0.2,1.2,0.5
	L28.7,14c0.5,0.5,0.6,1.2,0.3,1.9C28.8,16.6,28.3,16.9,27.7,16.7z"/>
<g>
	<path fill="#D1954E" d="M27.6,3.6H4.4c-0.8,0-1.5-0.7-1.5-1.5s0.7-1.5,1.5-1.5h23.3c0.8,0,1.5,0.7,1.5,1.5S28.5,3.6,27.6,3.6z"/>
</g>
</svg>
