<?xml version="1.0" encoding="utf-8"?>
<!-- Generator: Adobe Illustrator 18.0.0, SVG Export Plug-In . SVG Version: 6.00 Build 0)  -->
<!DOCTYPE svg PUBLIC "-//W3C//DTD SVG 1.1//EN" "http://www.w3.org/Graphics/SVG/1.1/DTD/svg11.dtd">
<svg version="1.1" id="Layer_1" xmlns="http://www.w3.org/2000/svg" xmlns:xlink="http://www.w3.org/1999/xlink" x="0px" y="0px"
	 viewBox="0 0 32 32" enable-background="new 0 0 32 32" xml:space="preserve">
<path fill="#494949" d="M0,0v32h32V0H0z M25.9,17.5l-9,9c-0.3,0.3-0.5,0.4-0.9,0.4s-0.7-0.1-0.9-0.4l-9-9c-0.4-0.4-0.5-0.8-0.3-1.5
	c0.3-0.5,0.7-0.8,1.2-0.8h5.2V6.4c0-0.4,0.1-0.7,0.4-0.9c0.3-0.3,0.5-0.4,0.9-0.4h5.2c0.4,0,0.7,0.1,0.9,0.4C19.8,5.7,20,6,20,6.4v9
	h5.2c0.5-0.1,0.9,0.1,1.1,0.7C26.5,16.6,26.3,17.1,25.9,17.5z"/>
</svg>
