<?xml version="1.0" encoding="utf-8"?>
<!-- Generator: Adobe Illustrator 18.0.0, SVG Export Plug-In . SVG Version: 6.00 Build 0)  -->
<!DOCTYPE svg PUBLIC "-//W3C//DTD SVG 1.1//EN" "http://www.w3.org/Graphics/SVG/1.1/DTD/svg11.dtd">
<svg version="1.1" id="Layer_1" xmlns="http://www.w3.org/2000/svg" xmlns:xlink="http://www.w3.org/1999/xlink" x="0px" y="0px"
	 viewBox="0 0 32 32" enable-background="new 0 0 32 32" xml:space="preserve">
<path fill="#D1954E" d="M32,32V0H0v32H32z M26.3,15.9c-0.2,0.6-0.6,0.8-1.1,0.7H20v9c0,0.4-0.2,0.7-0.4,0.9
	c-0.2,0.3-0.5,0.4-0.9,0.4h-5.2c-0.4,0-0.6-0.1-0.9-0.4c-0.3-0.2-0.4-0.5-0.4-0.9v-8.8H7c-0.5,0-0.9-0.3-1.2-0.8
	c-0.2-0.7-0.1-1.1,0.3-1.5l9-9c0.2-0.3,0.5-0.4,0.9-0.4s0.6,0.1,0.9,0.4l9,9C26.3,14.9,26.5,15.4,26.3,15.9z"/>
</svg>
