<svg viewBox="0 0 22 22" xmlns="http://www.w3.org/2000/svg"><path d="m16.998179 10.587099c-.43656.4381-1.144838.4381-1.58192 0l-4.416054-4.8801002-4.4160765 4.8801002c-.437072.4381-1.144827.4381-1.5818987 0-.4370824-.4381-.4370824-1.1478002 0-1.5859002l5.1369702-5.6773c.236459-.2367.551361-.3411.861004-.3216.309101-.019.624544.085.860983.3216l5.136992 5.6773c.436537.4381.436537 1.1478002 0 1.5859002zm-6.00456 4.7222c1.017909 0 1.843089.8262 1.843089 1.8454 0 1.0191-.82518 1.8453-1.84309 1.8453-1.0179105 0-1.8431005-.8262-1.8431005-1.8453 0-1.0192.82519-1.8454 1.8431005-1.8454zm0-5.2723c1.017909 0 1.843089.8262 1.843089 1.8453 0 1.0192-.82518 1.8453-1.84309 1.8453-1.0179105 0-1.8431005-.8261-1.8431005-1.8453 0-1.0191.82519-1.8453 1.8431005-1.8453z" fill="#1d99f3"/></svg>