<?xml version="1.0" encoding="UTF-8" standalone="no"?>
<svg
   xmlns:dc="http://purl.org/dc/elements/1.1/"
   xmlns:cc="http://creativecommons.org/ns#"
   xmlns:rdf="http://www.w3.org/1999/02/22-rdf-syntax-ns#"
   xmlns:svg="http://www.w3.org/2000/svg"
   xmlns="http://www.w3.org/2000/svg"
   xmlns:sodipodi="http://sodipodi.sourceforge.net/DTD/sodipodi-0.dtd"
   xmlns:inkscape="http://www.inkscape.org/namespaces/inkscape"
   viewBox="0 0 32 32"
   version="1.1"
   id="svg4"
   sodipodi:docname="application-x-mswinurl.svg"
   inkscape:version="0.92.4 5da689c313, 2019-01-14">
  <metadata
     id="metadata10">
    <rdf:RDF>
      <cc:Work
         rdf:about="">
        <dc:format>image/svg+xml</dc:format>
        <dc:type
           rdf:resource="http://purl.org/dc/dcmitype/StillImage" />
      </cc:Work>
    </rdf:RDF>
  </metadata>
  <defs
     id="defs8" />
  <sodipodi:namedview
     pagecolor="#ffffff"
     bordercolor="#666666"
     borderopacity="1"
     objecttolerance="10"
     gridtolerance="10"
     guidetolerance="10"
     inkscape:pageopacity="0"
     inkscape:pageshadow="2"
     inkscape:window-width="1366"
     inkscape:window-height="703"
     id="namedview6"
     showgrid="false"
     inkscape:zoom="7.375"
     inkscape:cx="-6.3050855"
     inkscape:cy="16"
     inkscape:window-x="0"
     inkscape:window-y="0"
     inkscape:window-maximized="1"
     inkscape:current-layer="svg4" />
  <path
     inkscape:connector-curvature="0"
     style="fill:#4285f4;fill-opacity:1;stroke-width:1.55074167"
     d="m 15.998247,2.0000148 c -0.145117,0 -0.288172,0.00349 -0.432217,0.00697 -1.414987,0.043016 -2.778074,0.2956105 -4.057264,0.728406 -0.216816,0.073369 -0.432914,0.1534591 -0.64484,0.2369932 -0.0656,0.025844 -0.130137,0.053448 -0.195195,0.08016 C 10.523258,3.112385 10.379393,3.1727356 10.236514,3.237259 10.029723,3.3309215 9.8277366,3.4303654 9.6265302,3.5334995 9.425272,3.6365304 9.2259184,3.7417585 9.0304884,3.8541375 8.2442294,4.3062554 7.5047771,4.8351685 6.8240905,5.4259605 6.7433459,5.4960353 6.6661896,5.5665939 6.5870683,5.6385585 6.4212369,5.7891148 6.257324,5.9438153 6.0990816,6.1020895 5.9409072,6.2604504 5.7861154,6.4207644 5.6354928,6.5865315 5.4095259,6.8350697 5.1915004,7.0922642 4.9836828,7.3567589 4.5680105,7.8855606 4.1915354,8.4469077 3.8543411,9.0331378 3.741936,9.2284967 3.6331744,9.4244347 3.5301777,9.6256215 3.4786667,9.726217 3.4295375,9.8268613 3.3802988,9.9288324 3.2327388,10.234869 3.0944561,10.548518 2.9689953,10.86635 c -0.041756,0.105974 -0.082677,0.213446 -0.1219901,0.320638 -0.1571294,0.428789 -0.2926234,0.866674 -0.4078174,1.313919 -0.056907,0.223249 -0.1102262,0.448423 -0.1568527,0.676128 v 0.0034 C 2.2356931,13.40828 2.1956701,13.63541 2.160345,13.86702 2.125021,14.098786 2.097224,14.332169 2.073201,14.567544 2.025353,15.038082 2,15.516653 2,15.999959 c 0,0.483235 0.025338,0.96179 0.073201,1.432415 0.023839,0.235287 0.051651,0.468811 0.087144,0.700524 0.035324,0.231627 0.075535,0.462361 0.1219901,0.690069 0.046641,0.227707 0.099435,0.452583 0.1568527,0.676128 0.1151879,0.447244 0.2507406,0.885129 0.4078174,1.313918 0.078472,0.214333 0.1624643,0.425035 0.2509648,0.634307 0.088397,0.209249 0.1841431,0.41635 0.282335,0.620365 0.049069,0.101987 0.098368,0.206057 0.1498789,0.306695 0.1030056,0.201135 0.2117009,0.397073 0.3241634,0.592483 0.3371773,0.58623 0.7137034,1.147439 1.1293417,1.676379 0.2078532,0.26441 0.425843,0.521585 0.6518115,0.770228 0.1506984,0.165824 0.3051516,0.326167 0.4635873,0.484443 0.1583475,0.158366 0.3222435,0.31287 0.4879868,0.46353 0.7458186,0.677813 1.56391,1.275239 2.44342,1.780935 0.1954469,0.112213 0.3947836,0.221128 0.5960418,0.32412 0.4024656,0.20613 0.8134936,0.393876 1.2373956,0.561117 0.211875,0.0836 0.428026,0.16365 0.644841,0.236996 1.409454,0.476938 2.918946,0.735374 4.489481,0.735374 1.070727,0 2.114254,-0.121037 3.116145,-0.348516 0.46763,-0.106341 0.924722,-0.235087 1.373334,-0.386858 0.216868,-0.07321 0.432776,-0.153518 0.644842,-0.236996 0.423848,-0.167039 0.838416,-0.354897 1.240879,-0.561117 0.201258,-0.103027 0.397213,-0.208309 0.592556,-0.320635 0.879561,-0.50561 1.701087,-1.106696 2.446906,-1.784421 0.165829,-0.150733 0.326205,-0.305255 0.484501,-0.463532 0.158346,-0.158189 0.312932,-0.318725 0.463587,-0.48444 0.225915,-0.24854 0.444046,-0.505735 0.651813,-0.770229 0.328877,-0.418383 0.633008,-0.855765 0.913233,-1.310433 0.07413,-0.120199 0.149122,-0.243229 0.219593,-0.365946 0.112419,-0.195306 0.21768,-0.391244 0.320677,-0.592483 0.0515,-0.100595 0.104116,-0.204724 0.153358,-0.306694 0.09848,-0.203928 0.190331,-0.411012 0.278849,-0.620365 0.08857,-0.20936 0.172551,-0.419852 0.250964,-0.634307 0.157123,-0.42879 0.292643,-0.866743 0.407819,-1.31392 0.0576,-0.223701 0.110212,-0.448421 0.156856,-0.676128 0.04647,-0.227896 0.08999,-0.458407 0.125484,-0.690068 0.03532,-0.231714 0.06314,-0.465185 0.08714,-0.700525 C 29.97464,16.961852 30,16.483263 30,15.999958 c 0,-0.483236 -0.02534,-0.961895 -0.07321,-1.432416 -0.02402,-0.235385 -0.05165,-0.468753 -0.08714,-0.700518 -0.03532,-0.231627 -0.07885,-0.458877 -0.125484,-0.686585 -0.04664,-0.227706 -0.09925,-0.45612 -0.156854,-0.679611 -0.115188,-0.447192 -0.250793,-0.885131 -0.40782,-1.31392 -0.03915,-0.107197 -0.08041,-0.214607 -0.121989,-0.320638 C 28.90222,10.548433 28.767176,10.23827 28.619687,9.9322342 28.570612,9.8302859 28.517822,9.7296872 28.466314,9.6290512 28.363308,9.4279216 28.258088,9.2285138 28.145643,9.0331378 27.808442,8.4468552 27.428446,7.8856989 27.012812,7.3567589 26.804959,7.0923685 26.58702,6.8351738 26.360997,6.5865315 26.210481,6.4208857 26.055794,6.2603638 25.897412,6.1020895 25.739238,5.9437286 25.578654,5.7891662 25.41291,5.6385585 25.091864,5.3467617 24.756285,5.0702997 24.409052,4.8090822 23.949632,4.4634283 23.466871,4.1456396 22.966004,3.8576238 22.770573,3.745401 22.57462,3.6364787 22.373447,3.5335007 22.281932,3.4866688 22.190659,3.4423298 22.098083,3.3975776 21.986904,3.3438075 21.872719,3.2880804 21.759978,3.2372588 21.712828,3.2159238 21.664388,3.1988238 21.617056,3.1780108 21.45644,3.1074168 21.29628,3.0369076 21.132555,2.9723842 c -0.0017,-9.366e-4 -0.0053,-0.00168 -0.0069,-0.00348 -0.174392,-0.068514 -0.352043,-0.133301 -0.529809,-0.1951716 -0.03584,-0.012149 -0.07185,-0.026195 -0.108063,-0.038337 -0.414575,-0.1403222 -0.837868,-0.2611301 -1.26882,-0.3624604 -0.134681,-0.031741 -0.268238,-0.059205 -0.40433,-0.08713 -0.09813,-0.02012 -0.197492,-0.041382 -0.296279,-0.059249 -0.736388,-0.133904 -1.490456,-0.2092457 -2.262167,-0.2230523 -0.08509,-0.00156 -0.172412,-0.00348 -0.257935,-0.00348 z m 0,0.7528021 c 0.905385,0 1.790646,0.091008 2.645587,0.2648749 -0.03585,0.094357 -0.152245,0.051968 -0.250966,0.097584 -0.09257,0.043016 -0.128143,0.1313048 -0.226565,0.149864 -0.273541,0.051514 -0.498728,-0.06792 -0.735467,-0.059249 -0.01047,0.1023348 0.114245,0.1622501 0.177768,0.1951708 0.21457,0.1123967 0.391141,0.097379 0.693639,0.090615 0.155041,-0.00347 0.333869,0.046275 0.467073,-0.045308 0.0844,-0.057584 0.07923,-0.1874139 0.149878,-0.2579044 0.03011,-0.029835 0.07222,-0.058147 0.122006,-0.083645 0.148595,0.035037 0.295879,0.071459 0.442674,0.1115262 -0.0247,0.1012957 -0.186119,0.077009 -0.188225,0.2125967 0.104583,0.06279 0.348624,-0.03239 0.442676,-0.1394076 0.03636,0.010408 0.07185,0.020439 0.10804,0.031366 0.21276,0.064698 0.422732,0.1342322 0.630898,0.2091116 0.296722,0.1068455 0.58835,0.2250385 0.874894,0.3520046 -0.05499,0.032434 -0.115451,0.073364 -0.163827,0.073191 -0.124417,-7.806e-4 -0.175033,-0.1659581 -0.313706,-0.1045572 -0.01221,0.1607888 0.170407,0.2254548 0.285821,0.2997267 0.124928,0.080482 0.255339,0.1598554 0.299764,0.2997269 -0.122329,0.2593095 -0.318662,-0.01221 -0.512387,-0.013938 -0.213491,-0.00153 -0.522151,0.4038566 -0.704096,0.073191 0.04523,-0.1752032 0.238597,-0.2034354 0.285822,-0.3764011 -0.04159,0.00693 -0.08196,0.022207 -0.121991,0.038337 -0.07151,0.028272 -0.143154,0.065357 -0.216108,0.1045572 -0.09572,0.051513 -0.19621,0.1034558 -0.31022,0.1289526 -0.104936,0.023069 -0.206026,0.018076 -0.299765,0.045308 -0.179978,0.052724 -0.308045,0.184201 -0.498447,0.2544139 -0.0743,0.027232 -0.163158,0.019464 -0.240506,0.045306 -0.181597,0.060535 -0.398265,0.1704283 -0.585585,0.2718454 -0.191514,0.1033758 -0.407411,0.2105333 -0.526329,0.3136673 -0.0642,0.055331 -0.232343,0.2510866 -0.226565,0.3136677 0.0069,0.089328 0.177042,0.1212574 0.181252,0.212597 -0.0034,0.055332 -0.09906,0.1740416 -0.03136,0.2544191 0.0616,0.073196 0.186444,0.015245 0.317193,0.031366 0.229831,0.028445 0.381393,0.2164133 0.5577,0.3136674 0.133292,0.073544 0.330498,0.1622199 0.481015,0.1812301 0.206637,0.025844 0.438904,-0.060743 0.467074,0.1045572 0.02733,0.1588811 -0.196666,0.2139678 -0.212623,0.3136677 0.111372,0.1467403 -0.07372,0.2164031 -0.07321,0.3450339 4.88e-4,0.1040669 0.128467,0.2624096 0.240506,0.2718463 0.15158,0.012133 0.372732,-0.1485716 0.435704,-0.2997282 0.07482,-0.1801118 0.04376,-0.4264668 0.181252,-0.5576305 0.700909,0.019252 1.293025,-0.3171018 1.247853,-1.035103 -0.0051,-0.070941 -0.04635,-0.1625464 -0.03136,-0.2404787 0.02192,-0.1160384 0.221749,-0.2122351 0.195195,-0.358975 0.07552,-0.023241 0.121712,-0.084662 0.160333,-0.153347 0.05761,-0.1023369 0.101956,-0.2193116 0.209136,-0.2579046 0.0069,-0.00347 0.01283,-0.00523 0.02091,-0.00698 0.06126,-0.013876 0.127803,-0.0024 0.195195,0.017433 0.120057,0.035383 0.250595,0.096845 0.393874,0.08713 0.07291,-0.00521 0.167229,-0.069655 0.240507,-0.059248 0.147035,0.020468 0.2346,0.1984372 0.345077,0.2823008 0.09762,0.074582 0.201645,0.050476 0.226565,0.1498623 -0.0289,0.1666863 -0.145333,0.1745895 -0.135935,0.3276083 v 0.00348 c 0.01047,0.1375471 0.155118,0.2442886 0.226567,0.2579044 0.109644,0.020468 0.266996,-0.03858 0.376447,-0.090615 0.118141,-0.05585 0.224444,-0.1775266 0.327649,-0.2613895 0.147389,0.1130891 0.293119,0.2296707 0.435702,0.3485196 0.0156,0.066778 0.02616,0.1265275 0.03136,0.1672894 0.02105,0.16235 -0.02021,0.286221 -0.01407,0.4356492 0.01931,0.2531348 0.337726,0.2263371 0.494958,0.3589751 0.04733,0.040241 0.06523,0.142892 0.104572,0.1951712 0.0764,0.1016417 0.16941,0.1041892 0.181253,0.2125966 0.02818,0.2593104 -0.233759,0.2787004 -0.209139,0.5680863 -0.05428,0.1122128 -0.19232,0.1082484 -0.18125,0.2579043 0.01738,0.2370051 0.35702,0.055535 0.449644,0.2404783 0.05012,0.099383 -0.0086,0.171959 -0.04531,0.313669 0.116766,0.1387556 0.118714,0.3586809 -0.08714,0.3589745 -0.125112,0 -0.159322,-0.1325793 -0.285818,-0.1638041 -0.0703,-0.017514 -0.168366,-0.01524 -0.25794,-0.031361 -0.07656,-0.013847 -0.167956,-0.036628 -0.240507,-0.04531 -0.185682,-0.022027 -0.385156,0.033669 -0.494958,-0.073186 0.178986,-0.2372976 0.414715,-0.4717688 0.644841,-0.6761281 0.06837,-0.061053 0.216088,-0.1042383 0.181252,-0.2265379 -0.128081,-0.1122128 -0.283519,0.00869 -0.404331,0.07667 -0.126846,0.07129 -0.27862,0.173939 -0.421762,0.1951706 -0.248762,0.036776 -0.581003,-0.073266 -0.784263,0.059249 -0.02801,0.1132638 0.231353,0.069519 0.195194,0.2404794 -0.09955,0.015617 -0.191778,0.024254 -0.268393,-0.04531 -0.06994,-0.062778 -0.03144,-0.1572909 -0.07668,-0.1951715 -0.07709,-0.06383 -0.365478,-0.080578 -0.494956,-0.059249 -0.158009,0.025671 -0.298938,0.1195291 -0.317192,0.2544197 0.189807,0.088804 0.502788,-0.09078 0.57164,0.1359246 -0.104059,0.1868419 -0.346591,0.2896899 -0.313704,0.5402058 0.01221,0.09679 0.126349,0.2260992 0.209138,0.2404772 0.08317,0.013847 0.128761,-0.066869 0.209136,-0.059249 0.08509,0.00869 0.06742,0.1018734 0.1673,0.087124 0.144779,-0.061751 0.224509,-0.2638531 0.390392,-0.2544176 0.199045,0.2412004 -0.179303,0.3591391 -0.390392,0.4356473 -0.240757,0.087068 -0.555546,0.1355057 -0.738951,0.2125991 -0.09621,0.040064 -0.457464,0.38986 -0.508902,0.1185015 -0.03671,-0.195704 0.177528,-0.1386621 0.223082,-0.2997261 -0.232826,-0.045269 -0.44691,0.1007617 -0.658784,0.1812308 -0.302304,0.1141326 -0.81587,0.1838211 -0.888832,0.5227777 -0.01407,0.06781 0.0278,0.195262 -0.01738,0.24048 -0.03602,0.03644 -0.250832,0.04475 -0.345077,0.07667 -0.145117,0.04978 -0.272854,0.15358 -0.362503,0.177745 -0.0677,0.01856 -0.166236,0.01493 -0.209139,0.03136 -0.119548,0.04632 -0.162601,0.20632 -0.299761,0.313669 -0.05622,0.04388 -0.181846,0.07775 -0.226564,0.121986 -0.07796,0.07735 -0.08917,0.270709 -0.226568,0.299726 -0.08734,0.007 -0.15827,-0.06389 -0.240507,-0.01399 -0.01047,0.191491 0.06942,0.451155 -0.01391,0.644762 -0.178167,0.14501 -0.375095,0.245064 -0.603011,0.372916 -0.125979,0.07095 -0.238149,0.09113 -0.390391,0.167289 -0.108017,0.05378 -0.206854,0.181241 -0.331097,0.254421 -0.287183,0.168769 -0.633108,0.367311 -0.630896,0.794624 4.86e-4,0.09245 0.04743,0.195136 0.05925,0.303213 0.0069,0.06366 -0.0069,0.125704 0,0.19517 0.01792,0.156974 0.131729,0.355124 0,0.463531 -0.202453,-0.08291 -0.461381,-0.11051 -0.602989,-0.254416 -0.0388,-0.14812 0.08066,-0.269337 0.06276,-0.404283 -0.01391,-0.108407 -0.169104,-0.303258 -0.257935,-0.317152 -0.09154,-0.01385 -0.173906,0.08432 -0.268392,0.07667 -0.112408,-0.0087 -0.218147,-0.164527 -0.362507,-0.18123 -0.211577,-0.02462 -0.368673,0.04656 -0.603011,0.01399 -0.226856,0.120898 -0.290127,0.338435 -0.568157,0.317153 -0.09797,-0.007 -0.190073,-0.08131 -0.303249,-0.104569 -0.122671,-0.02533 -0.307981,-0.07158 -0.435702,-0.06273 -0.256056,0.01734 -0.442321,0.203107 -0.662269,0.317151 -0.194072,0.100959 -0.468698,0.226537 -0.52633,0.43565 -0.03167,0.112578 -0.0053,0.268742 -0.04531,0.372916 -0.02663,0.0685 -0.08282,0.129967 -0.118511,0.195171 -0.168614,0.307494 -0.309254,0.714784 -0.181253,1.157085 0.01897,0.06557 0.185403,0.437566 0.254451,0.512323 0.07761,0.08308 0.305456,0.206822 0.435701,0.209112 0.110145,0.0017 0.241791,-0.05759 0.348563,-0.07667 0.123722,-0.02203 0.277946,-0.02336 0.390391,-0.05924 0.325205,-0.103899 0.260031,-0.542148 0.585584,-0.690068 0.142165,-0.06419 0.307804,-0.07778 0.557699,-0.09061 0.07935,0.06661 0.115528,0.184265 0.104572,0.285785 -0.0086,0.07666 -0.08285,0.145102 -0.121991,0.25442 -0.0341,0.09575 -0.03944,0.208496 -0.07321,0.285787 -0.04471,0.101136 -0.145395,0.176689 -0.181252,0.271845 -0.02349,0.06192 -0.0083,0.139284 -0.02788,0.195171 -0.03463,0.09887 -0.16948,0.16663 -0.108062,0.268359 0.322071,0.127836 0.712342,-0.03461 0.993401,0.01743 0.118665,0.02151 0.364714,0.162531 0.362503,0.345036 -0.0015,0.1365 -0.10721,0.223453 -0.121989,0.372916 -0.01828,0.187881 -0.09621,0.419455 -0.104572,0.571571 -0.01391,0.249129 0.365292,0.679546 0.630898,0.676128 0.285947,-0.0034 0.453687,-0.284898 0.798207,-0.135925 0.114323,0.04926 0.236261,0.235697 0.362505,0.22654 0.10406,-0.007 0.258081,-0.191211 0.327647,-0.317154 0.08475,-0.153503 0.09089,-0.281564 0.240509,-0.358974 0.161481,-0.08342 0.291843,-0.04513 0.498444,-0.121987 0.09224,-0.03417 0.171327,-0.09245 0.25445,-0.149863 0.07291,-0.04995 0.149586,-0.181487 0.240508,-0.09061 0.120058,0.119685 -0.147111,0.189006 -0.04531,0.317152 0.208655,0.110315 0.315983,-0.204307 0.467073,-0.209112 0.0482,-0.0015 0.213995,0.09331 0.299765,0.149862 0.117274,0.07684 0.157455,0.184066 0.285819,0.209113 0.08248,0.01562 0.215211,-0.02973 0.331135,-0.014 0.153467,0.02186 0.246196,0.153331 0.362505,0.149863 0.141639,-0.0034 0.209833,-0.158751 0.331132,-0.18123 0.265503,-0.04856 0.364118,0.02961 0.481019,0.19517 0.131034,0.02272 0.134511,-0.152025 0.25445,-0.09061 -0.06578,0.130776 0.02396,0.190575 0.07668,0.299727 0.0341,0.07008 0.02742,0.119514 0.05925,0.149862 0.07171,0.06833 0.211985,0.06949 0.317191,0.135925 0.111009,0.06974 0.172408,0.198991 0.299762,0.345035 0.131034,0.149334 0.351348,0.306243 0.526331,0.317152 0.165316,0.0104 0.299036,-0.04819 0.435702,-0.03137 0.311162,0.03817 0.50382,0.191732 0.721522,0.358976 0.121635,0.09332 0.232833,0.160062 0.271878,0.271846 0.02749,0.07804 0.01407,0.180833 0.04531,0.268359 0.06646,0.186998 0.339293,0.279784 0.240507,0.602939 0.04523,0.09487 0.145397,0.128831 0.25445,0.195171 0.08717,0.05305 0.163488,0.162542 0.257936,0.177746 0.06108,0.0104 0.128359,-0.01696 0.181253,-0.01385 0.171045,0.01214 0.287483,0.07868 0.435705,0.135924 0.09188,0.0354 0.207227,0.04917 0.26839,0.09061 0.07639,0.05152 0.0871,0.22276 0.181253,0.26836 0.06159,0.02984 0.20074,-0.01214 0.30325,0 0.161484,0.01856 0.380474,0.119202 0.526327,0.121986 0.08858,0.0017 0.161964,-0.03743 0.240508,-0.03137 0.182622,0.01385 0.325415,0.129142 0.467074,0.257904 -1.812006,2.920849 -4.727396,5.089439 -8.159839,5.91786 -0.01221,-0.131647 -0.05003,-0.266148 -0.05578,-0.39731 -0.01221,-0.285347 0.03339,-0.485656 -0.01391,-0.749318 -0.03497,-0.199455 -0.08131,-0.505349 -0.153357,-0.63084 -0.08056,-0.139626 -0.394786,-0.374829 -0.554213,-0.46353 -0.105277,-0.05829 -0.230422,-0.07954 -0.345077,-0.135924 -0.244954,-0.11995 -0.722059,-0.374565 -0.82958,-0.616807 -0.03115,-0.06973 -0.02585,-0.162635 -0.05925,-0.240478 -0.06525,-0.153845 -0.202178,-0.287258 -0.299762,-0.43565 -0.18579,-0.283141 -0.335649,-0.638177 -0.526329,-0.930547 -0.09641,-0.148479 -0.180128,-0.317388 -0.285822,-0.435649 -0.06195,-0.06974 -0.26038,-0.135536 -0.28582,-0.240477 -0.03394,-0.138927 -0.138347,-0.329376 -0.121991,-0.435651 0.02176,-0.143267 0.300199,-0.256109 0.299764,-0.386858 -4.87e-4,-0.111002 -0.146601,-0.177548 -0.177767,-0.271843 -0.07588,-0.229408 0.04178,-0.36309 0.132456,-0.554146 0.02993,-0.0628 0.05946,-0.166309 0.09061,-0.212599 0.05516,-0.08257 0.167059,-0.105757 0.240508,-0.19517 0.04105,-0.05012 0.06841,-0.152149 0.121991,-0.223052 0.114321,-0.151605 0.298043,-0.208199 0.345076,-0.345033 0.03828,-0.111539 0.06251,-0.670848 0.01744,-0.857361 -0.02612,-0.108146 -0.128885,-0.197549 -0.167337,-0.2998 -0.06804,-0.181168 -0.0815,-0.380303 -0.268392,-0.3764 -0.115373,0.0017 -0.197752,0.132115 -0.27188,0.212598 -0.01774,0.107025 -0.01035,0.22174 -0.12199,0.254418 -0.171053,0.05048 -0.236205,-0.1801 -0.435707,-0.240478 -0.07934,-0.0241 -0.204787,-0.0231 -0.25445,-0.04531 -0.145643,-0.06523 -0.191582,-0.276343 -0.345076,-0.358975 -0.12842,-0.06852 -0.239393,-0.04458 -0.31719,-0.149862 -0.03237,-0.0725 -0.0086,-0.206096 -0.01743,-0.303212 -0.164785,-0.09625 -0.302992,-0.455475 -0.494958,-0.540205 -0.127201,-0.05654 -0.321832,-0.05062 -0.481017,-0.104547 -0.07482,-0.02533 -0.134419,-0.05635 -0.212622,-0.07319 -0.09641,-0.02151 -0.193727,-0.02526 -0.268392,-0.06273 -0.297842,-0.147436 -0.457305,-0.623612 -0.826117,-0.613397 -0.157305,0.0034 -0.310584,0.150735 -0.453133,0.149863 -0.141639,-7.8e-4 -0.379965,-0.112875 -0.557697,-0.19517 -0.184624,-0.08569 -0.387997,-0.131414 -0.540273,-0.209113 -0.123025,-0.06278 -0.209687,-0.17889 -0.31719,-0.226538 -0.08231,-0.03643 -0.200862,-0.04127 -0.268394,-0.07319 C 9.931326,16.822434 9.8297636,16.724373 9.7101836,16.641336 9.5967278,16.562946 9.4741311,16.443185 9.4696758,16.341612 9.4644258,16.224011 9.5794993,16.123538 9.5916659,16.010518 9.6304689,15.653017 9.3638655,15.395739 9.1977914,15.184526 9.0747654,15.027555 8.9308091,14.894143 8.8074012,14.748877 c 0.00696,-0.09645 0.00696,-0.112853 0,-0.209113 -0.093444,-0.09052 -0.1731354,-0.226826 -0.2718853,-0.362448 -0.089263,-0.122282 -0.259888,-0.253159 -0.282335,-0.390342 -0.027672,-0.168769 0.064203,-0.313716 0,-0.477471 -0.10701,-0.271746 -0.4878245,-0.150205 -0.4391892,0.209111 0.013913,0.09904 0.1529398,0.232902 0.195195,0.331094 0.043332,0.100076 0.036314,0.224468 0.076679,0.345034 0.038804,0.115516 0.1548599,0.214893 0.195195,0.345036 0.063863,0.205538 0.063352,0.425669 0.1219902,0.554144 0.051681,0.114131 0.2392079,0.224289 0.1324562,0.362459 C 8.3931723,15.485881 8.3416895,15.343872 8.253172,15.261211 8.203749,15.215231 8.0224513,15.127681 7.995235,15.020733 7.972447,14.932443 8.052883,14.811658 8.026602,14.703581 7.974921,14.491727 7.547101,14.485942 7.5455875,14.26793 7.5448018,14.131073 7.7217331,14.114475 7.7233517,13.982145 7.7245117,13.837307 7.5256676,13.714606 7.4828437,13.591802 7.4436847,13.479224 7.4382127,13.30059 7.4235877,13.142212 7.4096747,12.993563 7.4262177,12.821248 7.3922207,12.706564 7.3614254,12.603353 7.205967,12.46222 7.1063992,12.406837 6.9746697,12.333628 6.8711241,12.364166 6.8066368,12.256974 c -0.056025,-0.09366 -0.092386,-0.289392 -0.1045671,-0.390341 -0.021751,-0.180528 -0.00696,-0.378902 -0.017423,-0.571572 -0.010509,-0.192964 -0.029574,-0.378151 0,-0.585512 0.074483,-0.14518 0.21342,-0.215132 0.2893056,-0.358976 C 7.0268543,10.250497 7.0327753,10.125945 7.092464,10.01948 7.2026118,9.8233942 7.4434744,9.6446881 7.6048505,9.4513935 7.7788713,9.2431351 7.9387355,9.0411442 8.040565,8.8031176 8.0771111,8.7186553 8.1731756,8.5337864 8.1590768,8.4302027 8.1392428,8.2858936 7.8691604,8.166425 7.8906845,7.9945528 7.9045978,7.8880638 8.054633,7.887047 8.0998225,7.7819564 8.1229647,7.7276665 8.1439131,7.5783797 8.1451334,7.5135951 8.1468322,7.3687507 8.0705863,7.2186471 8.0998201,7.0639985 8.1245244,6.9320016 8.3228806,6.8777716 8.2218104,6.7329052 8.121587,6.5894609 7.9388662,6.8084493 7.8279357,6.7154783 7.7261356,6.6301403 7.8499035,6.527452 7.8593028,6.3704441 7.862704,6.3080025 7.8213191,6.2389418 7.8279357,6.1926998 7.836593,6.1255727 7.970796,6.0112249 7.9359969,5.9661621 7.8817034,5.8974748 7.8223858,5.7597746 7.7373173,5.6490086 9.4150224,4.3071554 11.426157,3.3609305 13.624532,2.9619232 h 0.0036 c 0.02732,0.046485 0.04803,0.1016885 0.115034,0.1219822 0.131034,-0.067819 0.263461,0.0052 0.407819,0 0.140603,-0.0052 0.266789,-0.069591 0.42176,-0.045306 0.273873,0.042843 0.655618,0.31252 0.871406,0.1672894 0.0543,-0.036771 0.04156,-0.1035171 0.09063,-0.1986561 0.03897,-0.076144 0.09853,-0.1571316 0.135935,-0.250934 0.109098,-0.00347 0.218039,-0.00348 0.327648,-0.00348 z"
     id="path2-3" />
</svg>
