<?xml version="1.0" encoding="UTF-8" standalone="no"?>
<svg
   xmlns:dc="http://purl.org/dc/elements/1.1/"
   xmlns:cc="http://creativecommons.org/ns#"
   xmlns:rdf="http://www.w3.org/1999/02/22-rdf-syntax-ns#"
   xmlns:svg="http://www.w3.org/2000/svg"
   xmlns="http://www.w3.org/2000/svg"
   xmlns:sodipodi="http://sodipodi.sourceforge.net/DTD/sodipodi-0.dtd"
   xmlns:inkscape="http://www.inkscape.org/namespaces/inkscape"
   viewBox="0 0 32 32"
   version="1.1"
   id="svg4"
   sodipodi:docname="application-exit.svg"
   inkscape:version="0.92.4 5da689c313, 2019-01-14"
   width="32"
   height="32">
  <metadata
     id="metadata10">
    <rdf:RDF>
      <cc:Work
         rdf:about="">
        <dc:format>image/svg+xml</dc:format>
        <dc:type
           rdf:resource="http://purl.org/dc/dcmitype/StillImage" />
        <dc:title />
      </cc:Work>
    </rdf:RDF>
  </metadata>
  <defs
     id="defs8" />
  <sodipodi:namedview
     pagecolor="#ffffff"
     bordercolor="#666666"
     borderopacity="1"
     objecttolerance="10"
     gridtolerance="10"
     guidetolerance="10"
     inkscape:pageopacity="0"
     inkscape:pageshadow="2"
     inkscape:window-width="1366"
     inkscape:window-height="703"
     id="namedview6"
     showgrid="false"
     inkscape:zoom="7.375"
     inkscape:cx="-12.338983"
     inkscape:cy="16.135593"
     inkscape:window-x="0"
     inkscape:window-y="0"
     inkscape:window-maximized="1"
     inkscape:current-layer="svg4" />
  <g
     id="g10"
     transform="matrix(2.3333333,0,0,2.3333333,-2.6666664,-39.999999)"
     style="fill:#f25022;fill-opacity:1">
    <path
       inkscape:connector-curvature="0"
       style="fill:#f25022;fill-opacity:1"
       id="path2"
       d="M 13.195474,20.988256 C 12.658963,20.06904 11.93115,19.341232 11.011938,18.80472 10.092535,18.268208 9.088843,18 8.0001918,18 6.9116364,18 5.9076569,18.268208 4.9884451,18.80472 4.0691374,19.341136 3.3413242,20.068944 2.8048138,20.988256 2.2682073,21.90756 2,22.911544 2,24 c 0,1.088552 0.2683032,2.092344 0.8047178,3.011744 0.5365106,0.91912 1.2643238,1.647024 2.1836314,2.183536 C 5.9076569,29.731792 6.9115405,30 8.0000959,30 9.0886513,30 10.09263,29.731792 11.011842,29.19528 11.931054,28.658864 12.658867,27.93096 13.195378,27.011744 13.731793,26.09244 14,25.088456 14,24 14,22.911448 13.731793,21.907464 13.195474,20.988256 Z m -2.367263,4.425752 c 0.09896,0.09886 0.148535,0.21624 0.148535,0.351632 0,0.140576 -0.04958,0.26044 -0.148535,0.359304 l -0.703073,0.703168 c -0.09896,0.09896 -0.2187276,0.14844 -0.3593996,0.14844 -0.1353984,0 -0.2527691,-0.04952 -0.351537,-0.14844 L 8.0000959,25.414008 6.5859903,26.828112 c -0.09896,0.09896 -0.2161385,0.14844 -0.3515366,0.14844 -0.1406723,0 -0.2604402,-0.04952 -0.3593998,-0.14844 L 5.1718847,26.124944 c -0.09896,-0.09886 -0.1484393,-0.218728 -0.1484393,-0.359304 0,-0.135392 0.04948,-0.252768 0.1484393,-0.351632 L 6.5859903,24 5.1718847,22.585896 c -0.09896,-0.09886 -0.1484393,-0.216144 -0.1484393,-0.351536 0,-0.140672 0.04948,-0.26044 0.1484393,-0.3594 l 0.7031692,-0.703072 c 0.09896,-0.09896 0.2187275,-0.14844 0.3593998,-0.14844 0.1353981,0 0.252577,0.04952 0.3515366,0.14844 l 1.4141056,1.414008 1.4141055,-1.414008 c 0.098768,-0.09896 0.2161386,-0.14844 0.351537,-0.14844 0.140672,0 0.2604396,0.04952 0.3593996,0.14844 l 0.703073,0.703072 c 0.09896,0.09896 0.148535,0.218728 0.148535,0.3594 0,0.135392 -0.04958,0.252672 -0.148535,0.351536 L 9.4142014,24 Z" />
    <path
       inkscape:connector-curvature="0"
       d="M 13.195474,20.988256 C 12.658963,20.06904 11.93115,19.341232 11.011938,18.80472 10.092535,18.268208 9.088843,18 8.0001918,18 6.9116364,18 5.9076569,18.268208 4.9884451,18.80472 4.0691374,19.341136 3.3413242,20.068944 2.8048138,20.988256 2.2682073,21.90756 2,22.911544 2,24 c 0,1.088552 0.2683032,2.092344 0.8047178,3.011744 0.5365106,0.91912 1.2643238,1.647024 2.1836314,2.183536 C 5.9076569,29.731792 6.9115405,30 8.0000959,30 9.0886513,30 10.09263,29.731792 11.011842,29.19528 11.931054,28.658864 12.658867,27.93096 13.195378,27.011744 13.731793,26.09244 14,25.088456 14,24 14,22.911448 13.731793,21.907464 13.195474,20.988256 Z m -2.367263,4.425752 c 0.09896,0.09886 0.148535,0.21624 0.148535,0.351632 0,0.140576 -0.04958,0.26044 -0.148535,0.359304 l -0.703073,0.703168 c -0.09896,0.09896 -0.2187276,0.14844 -0.3593996,0.14844 -0.1353984,0 -0.2527691,-0.04952 -0.351537,-0.14844 L 8.0000959,25.414008 6.5859903,26.828112 c -0.09896,0.09896 -0.2161385,0.14844 -0.3515366,0.14844 -0.1406723,0 -0.2604402,-0.04952 -0.3593998,-0.14844 L 5.1718847,26.124944 c -0.09896,-0.09886 -0.1484393,-0.218728 -0.1484393,-0.359304 0,-0.135392 0.04948,-0.252768 0.1484393,-0.351632 L 6.5859903,24 5.1718847,22.585896 c -0.09896,-0.09886 -0.1484393,-0.216144 -0.1484393,-0.351536 0,-0.140672 0.04948,-0.26044 0.1484393,-0.3594 l 0.7031692,-0.703072 c 0.09896,-0.09896 0.2187275,-0.14844 0.3593998,-0.14844 0.1353981,0 0.252577,0.04952 0.3515366,0.14844 l 1.4141056,1.414008 1.4141055,-1.414008 c 0.098768,-0.09896 0.2161386,-0.14844 0.351537,-0.14844 0.140672,0 0.2604396,0.04952 0.3593996,0.14844 l 0.703073,0.703072 c 0.09896,0.09896 0.148535,0.218728 0.148535,0.3594 0,0.135392 -0.04958,0.252672 -0.148535,0.351536 L 9.4142014,24 Z"
       id="path817"
       style="fill:#f25022;fill-opacity:1" />
  </g>
</svg>
