<svg height="32" viewBox="0 0 32 32" width="32" xmlns="http://www.w3.org/2000/svg"><path d="m15.998247 2.0000148c-.145117 0-.288172.00349-.432217.00697-1.414987.043016-2.778074.2956105-4.057264.728406-.216816.073369-.432914.1534591-.64484.2369932-.0656.025844-.130137.053448-.195195.08016-.145473.059841-.289338.1201916-.432217.184715-.206791.0936625-.4087774.1931064-.6099838.2962405-.2012582.1030309-.4006118.208259-.5960418.320638-.786259.4521179-1.5257113.981031-2.2063979 1.571823-.0807446.0700748-.1579009.1406334-.2370222.212598-.1658314.1505563-.3297443.3052568-.4879867.463531-.1581744.1583609-.3129662.3186749-.4635888.484442-.2259669.2485382-.4439924.5057327-.65181.7702274-.4156723.5288017-.7921474 1.0901488-1.1293417 1.6763789-.1124051.1953589-.2211667.3912969-.3241634.5924837-.051511.1005955-.1006402.2012398-.1498789.3032109-.14756.3060366-.2858427.6196856-.4113035.9375176-.041756.105974-.082677.213446-.1219901.320638-.1571294.428789-.2926234.866674-.4078174 1.313919-.056907.223249-.1102262.448423-.1568527.676128v.0034c-.046642.227845-.086665.454975-.1219901.686585-.035324.231766-.063121.465149-.087144.700524-.047848.470538-.073201.949109-.073201 1.432415 0 .483235.025338.96179.073201 1.432415.023839.235287.051651.468811.087144.700524.035324.231627.075535.462361.1219901.690069.046641.227707.099435.452583.1568527.676128.1151879.447244.2507406.885129.4078174 1.313918.078472.214333.1624643.425035.2509648.634307.088397.209249.1841431.41635.282335.620365.049069.101987.098368.206057.1498789.306695.1030056.201135.2117009.397073.3241634.592483.3371773.58623.7137034 1.147439 1.1293417 1.676379.2078532.26441.425843.521585.6518115.770228.1506984.165824.3051516.326167.4635873.484443.1583475.158366.3222435.31287.4879868.46353.7458186.677813 1.56391 1.275239 2.44342 1.780935.1954469.112213.3947836.221128.5960418.32412.4024656.20613.8134936.393876 1.2373956.561117.211875.0836.428026.16365.644841.236996 1.409454.476938 2.918946.735374 4.489481.735374 1.070727 0 2.114254-.121037 3.116145-.348516.46763-.106341.924722-.235087 1.373334-.386858.216868-.07321.432776-.153518.644842-.236996.423848-.167039.838416-.354897 1.240879-.561117.201258-.103027.397213-.208309.592556-.320635.879561-.50561 1.701087-1.106696 2.446906-1.784421.165829-.150733.326205-.305255.484501-.463532.158346-.158189.312932-.318725.463587-.48444.225915-.24854.444046-.505735.651813-.770229.328877-.418383.633008-.855765.913233-1.310433.07413-.120199.149122-.243229.219593-.365946.112419-.195306.21768-.391244.320677-.592483.0515-.100595.104116-.204724.153358-.306694.09848-.203928.190331-.411012.278849-.620365.08857-.20936.172551-.419852.250964-.634307.157123-.42879.292643-.866743.407819-1.31392.0576-.223701.110212-.448421.156856-.676128.04647-.227896.08999-.458407.125484-.690068.03532-.231714.06314-.465185.08714-.700525.04785-.47052.07321-.949109.07321-1.432414 0-.483236-.02534-.961895-.07321-1.432416-.02402-.235385-.05165-.468753-.08714-.700518-.03532-.231627-.07885-.458877-.125484-.686585-.04664-.227706-.09925-.45612-.156854-.679611-.115188-.447192-.250793-.885131-.40782-1.31392-.03915-.107197-.08041-.214607-.121989-.320638-.125283-.317837-.260327-.628-.407816-.9340358-.049075-.1019483-.101865-.202547-.153373-.303183-.103006-.2011296-.208226-.4005374-.320671-.5959134-.337201-.5862826-.717197-1.1474389-1.132831-1.6763789-.207853-.2643904-.425792-.5215851-.651815-.7702274-.150516-.1656458-.305203-.3261677-.463585-.484442-.158174-.1583609-.318758-.3129233-.484502-.463531-.321046-.2917968-.656625-.5682588-1.003858-.8294763-.45942-.3456539-.942181-.6634426-1.443048-.9514584-.195431-.1122228-.391384-.2211451-.592557-.3241231-.091515-.0468319-.182788-.0911709-.275364-.1359231-.111179-.0537701-.225364-.1094972-.338105-.1603188-.04715-.021335-.09559-.038435-.142922-.059248-.160616-.070594-.320776-.1411032-.484501-.2056266-.0017-.0009366-.0053-.00168-.0069-.00348-.174392-.068514-.352043-.133301-.529809-.1951716-.03584-.012149-.07185-.026195-.108063-.038337-.414575-.1403222-.837868-.2611301-1.26882-.3624604-.134681-.031741-.268238-.059205-.40433-.08713-.09813-.02012-.197492-.041382-.296279-.059249-.736388-.133904-1.490456-.2092457-2.262167-.2230523-.08509-.00156-.172412-.00348-.257935-.00348zm0 .7528021c.905385 0 1.790646.091008 2.645587.2648749-.03585.094357-.152245.051968-.250966.097584-.09257.043016-.128143.1313048-.226565.149864-.273541.051514-.498728-.06792-.735467-.059249-.01047.1023348.114245.1622501.177768.1951708.21457.1123967.391141.097379.693639.090615.155041-.00347.333869.046275.467073-.045308.0844-.057584.07923-.1874139.149878-.2579044.03011-.029835.07222-.058147.122006-.083645.148595.035037.295879.071459.442674.1115262-.0247.1012957-.186119.077009-.188225.2125967.104583.06279.348624-.03239.442676-.1394076.03636.010408.07185.020439.10804.031366.21276.064698.422732.1342322.630898.2091116.296722.1068455.58835.2250385.874894.3520046-.05499.032434-.115451.073364-.163827.073191-.124417-.0007806-.175033-.1659581-.313706-.1045572-.01221.1607888.170407.2254548.285821.2997267.124928.080482.255339.1598554.299764.2997269-.122329.2593095-.318662-.01221-.512387-.013938-.213491-.00153-.522151.4038566-.704096.073191.04523-.1752032.238597-.2034354.285822-.3764011-.04159.00693-.08196.022207-.121991.038337-.07151.028272-.143154.065357-.216108.1045572-.09572.051513-.19621.1034558-.31022.1289526-.104936.023069-.206026.018076-.299765.045308-.179978.052724-.308045.184201-.498447.2544139-.0743.027232-.163158.019464-.240506.045306-.181597.060535-.398265.1704283-.585585.2718454-.191514.1033758-.407411.2105333-.526329.3136673-.0642.055331-.232343.2510866-.226565.3136677.0069.089328.177042.1212574.181252.212597-.0034.055332-.09906.1740416-.03136.2544191.0616.073196.186444.015245.317193.031366.229831.028445.381393.2164133.5577.3136674.133292.073544.330498.1622199.481015.1812301.206637.025844.438904-.060743.467074.1045572.02733.1588811-.196666.2139678-.212623.3136677.111372.1467403-.07372.2164031-.07321.3450339.000488.1040669.128467.2624096.240506.2718463.15158.012133.372732-.1485716.435704-.2997282.07482-.1801118.04376-.4264668.181252-.5576305.700909.019252 1.293025-.3171018 1.247853-1.035103-.0051-.070941-.04635-.1625464-.03136-.2404787.02192-.1160384.221749-.2122351.195195-.358975.07552-.023241.121712-.084662.160333-.153347.05761-.1023369.101956-.2193116.209136-.2579046.0069-.00347.01283-.00523.02091-.00698.06126-.013876.127803-.0024.195195.017433.120057.035383.250595.096845.393874.08713.07291-.00521.167229-.069655.240507-.059248.147035.020468.2346.1984372.345077.2823008.09762.074582.201645.050476.226565.1498623-.0289.1666863-.145333.1745895-.135935.3276083v.00348c.01047.1375471.155118.2442886.226567.2579044.109644.020468.266996-.03858.376447-.090615.118141-.05585.224444-.1775266.327649-.2613895.147389.1130891.293119.2296707.435702.3485196.0156.066778.02616.1265275.03136.1672894.02105.16235-.02021.286221-.01407.4356492.01931.2531348.337726.2263371.494958.3589751.04733.040241.06523.142892.104572.1951712.0764.1016417.16941.1041892.181253.2125966.02818.2593104-.233759.2787004-.209139.5680863-.05428.1122128-.19232.1082484-.18125.2579043.01738.2370051.35702.055535.449644.2404783.05012.099383-.0086.171959-.04531.313669.116766.1387556.118714.3586809-.08714.3589745-.125112 0-.159322-.1325793-.285818-.1638041-.0703-.017514-.168366-.01524-.25794-.031361-.07656-.013847-.167956-.036628-.240507-.04531-.185682-.022027-.385156.033669-.494958-.073186.178986-.2372976.414715-.4717688.644841-.6761281.06837-.061053.216088-.1042383.181252-.2265379-.128081-.1122128-.283519.00869-.404331.07667-.126846.07129-.27862.173939-.421762.1951706-.248762.036776-.581003-.073266-.784263.059249-.02801.1132638.231353.069519.195194.2404794-.09955.015617-.191778.024254-.268393-.04531-.06994-.062778-.03144-.1572909-.07668-.1951715-.07709-.06383-.365478-.080578-.494956-.059249-.158009.025671-.298938.1195291-.317192.2544197.189807.088804.502788-.09078.57164.1359246-.104059.1868419-.346591.2896899-.313704.5402058.01221.09679.126349.2260992.209138.2404772.08317.013847.128761-.066869.209136-.059249.08509.00869.06742.1018734.1673.087124.144779-.061751.224509-.2638531.390392-.2544176.199045.2412004-.179303.3591391-.390392.4356473-.240757.087068-.555546.1355057-.738951.2125991-.09621.040064-.457464.38986-.508902.1185015-.03671-.195704.177528-.1386621.223082-.2997261-.232826-.045269-.44691.1007617-.658784.1812308-.302304.1141326-.81587.1838211-.888832.5227777-.01407.06781.0278.195262-.01738.24048-.03602.03644-.250832.04475-.345077.07667-.145117.04978-.272854.15358-.362503.177745-.0677.01856-.166236.01493-.209139.03136-.119548.04632-.162601.20632-.299761.313669-.05622.04388-.181846.07775-.226564.121986-.07796.07735-.08917.270709-.226568.299726-.08734.007-.15827-.06389-.240507-.01399-.01047.191491.06942.451155-.01391.644762-.178167.14501-.375095.245064-.603011.372916-.125979.07095-.238149.09113-.390391.167289-.108017.05378-.206854.181241-.331097.254421-.287183.168769-.633108.367311-.630896.794624.000486.09245.04743.195136.05925.303213.0069.06366-.0069.125704 0 .19517.01792.156974.131729.355124 0 .463531-.202453-.08291-.461381-.11051-.602989-.254416-.0388-.14812.08066-.269337.06276-.404283-.01391-.108407-.169104-.303258-.257935-.317152-.09154-.01385-.173906.08432-.268392.07667-.112408-.0087-.218147-.164527-.362507-.18123-.211577-.02462-.368673.04656-.603011.01399-.226856.120898-.290127.338435-.568157.317153-.09797-.007-.190073-.08131-.303249-.104569-.122671-.02533-.307981-.07158-.435702-.06273-.256056.01734-.442321.203107-.662269.317151-.194072.100959-.468698.226537-.52633.43565-.03167.112578-.0053.268742-.04531.372916-.02663.0685-.08282.129967-.118511.195171-.168614.307494-.309254.714784-.181253 1.157085.01897.06557.185403.437566.254451.512323.07761.08308.305456.206822.435701.209112.110145.0017.241791-.05759.348563-.07667.123722-.02203.277946-.02336.390391-.05924.325205-.103899.260031-.542148.585584-.690068.142165-.06419.307804-.07778.557699-.09061.07935.06661.115528.184265.104572.285785-.0086.07666-.08285.145102-.121991.25442-.0341.09575-.03944.208496-.07321.285787-.04471.101136-.145395.176689-.181252.271845-.02349.06192-.0083.139284-.02788.195171-.03463.09887-.16948.16663-.108062.268359.322071.127836.712342-.03461.993401.01743.118665.02151.364714.162531.362503.345036-.0015.1365-.10721.223453-.121989.372916-.01828.187881-.09621.419455-.104572.571571-.01391.249129.365292.679546.630898.676128.285947-.0034.453687-.284898.798207-.135925.114323.04926.236261.235697.362505.22654.10406-.007.258081-.191211.327647-.317154.08475-.153503.09089-.281564.240509-.358974.161481-.08342.291843-.04513.498444-.121987.09224-.03417.171327-.09245.25445-.149863.07291-.04995.149586-.181487.240508-.09061.120058.119685-.147111.189006-.04531.317152.208655.110315.315983-.204307.467073-.209112.0482-.0015.213995.09331.299765.149862.117274.07684.157455.184066.285819.209113.08248.01562.215211-.02973.331135-.014.153467.02186.246196.153331.362505.149863.141639-.0034.209833-.158751.331132-.18123.265503-.04856.364118.02961.481019.19517.131034.02272.134511-.152025.25445-.09061-.06578.130776.02396.190575.07668.299727.0341.07008.02742.119514.05925.149862.07171.06833.211985.06949.317191.135925.111009.06974.172408.198991.299762.345035.131034.149334.351348.306243.526331.317152.165316.0104.299036-.04819.435702-.03137.311162.03817.50382.191732.721522.358976.121635.09332.232833.160062.271878.271846.02749.07804.01407.180833.04531.268359.06646.186998.339293.279784.240507.602939.04523.09487.145397.128831.25445.195171.08717.05305.163488.162542.257936.177746.06108.0104.128359-.01696.181253-.01385.171045.01214.287483.07868.435705.135924.09188.0354.207227.04917.26839.09061.07639.05152.0871.22276.181253.26836.06159.02984.20074-.01214.30325 0 .161484.01856.380474.119202.526327.121986.08858.0017.161964-.03743.240508-.03137.182622.01385.325415.129142.467074.257904-1.812006 2.920849-4.727396 5.089439-8.159839 5.91786-.01221-.131647-.05003-.266148-.05578-.39731-.01221-.285347.03339-.485656-.01391-.749318-.03497-.199455-.08131-.505349-.153357-.63084-.08056-.139626-.394786-.374829-.554213-.46353-.105277-.05829-.230422-.07954-.345077-.135924-.244954-.11995-.722059-.374565-.82958-.616807-.03115-.06973-.02585-.162635-.05925-.240478-.06525-.153845-.202178-.287258-.299762-.43565-.18579-.283141-.335649-.638177-.526329-.930547-.09641-.148479-.180128-.317388-.285822-.435649-.06195-.06974-.26038-.135536-.28582-.240477-.03394-.138927-.138347-.329376-.121991-.435651.02176-.143267.300199-.256109.299764-.386858-.000487-.111002-.146601-.177548-.177767-.271843-.07588-.229408.04178-.36309.132456-.554146.02993-.0628.05946-.166309.09061-.212599.05516-.08257.167059-.105757.240508-.19517.04105-.05012.06841-.152149.121991-.223052.114321-.151605.298043-.208199.345076-.345033.03828-.111539.06251-.670848.01744-.857361-.02612-.108146-.128885-.197549-.167337-.2998-.06804-.181168-.0815-.380303-.268392-.3764-.115373.0017-.197752.132115-.27188.212598-.01774.107025-.01035.22174-.12199.254418-.171053.05048-.236205-.1801-.435707-.240478-.07934-.0241-.204787-.0231-.25445-.04531-.145643-.06523-.191582-.276343-.345076-.358975-.12842-.06852-.239393-.04458-.31719-.149862-.03237-.0725-.0086-.206096-.01743-.303212-.164785-.09625-.302992-.455475-.494958-.540205-.127201-.05654-.321832-.05062-.481017-.104547-.07482-.02533-.134419-.05635-.212622-.07319-.09641-.02151-.193727-.02526-.268392-.06273-.297842-.147436-.457305-.623612-.826117-.613397-.157305.0034-.310584.150735-.453133.149863-.141639-.00078-.379965-.112875-.557697-.19517-.184624-.08569-.387997-.131414-.540273-.209113-.123025-.06278-.209687-.17889-.31719-.226538-.08231-.03643-.200862-.04127-.268394-.07319-.09605-.04544-.1976124-.143501-.3171924-.226538-.1134558-.07839-.2360525-.198151-.2405078-.299724-.00525-.117601.1098235-.218074.1219901-.331094.038803-.357501-.2278004-.614779-.3938745-.825992-.123026-.156971-.2669823-.290383-.3903902-.435649.00696-.09645.00696-.112853 0-.209113-.093444-.09052-.1731354-.226826-.2718853-.362448-.089263-.122282-.259888-.253159-.282335-.390342-.027672-.168769.064203-.313716 0-.477471-.10701-.271746-.4878245-.150205-.4391892.209111.013913.09904.1529398.232902.195195.331094.043332.100076.036314.224468.076679.345034.038804.115516.1548599.214893.195195.345036.063863.205538.063352.425669.1219902.554144.051681.114131.2392079.224289.1324562.362459-.1423348.0295-.1938176-.112509-.2823351-.19517-.049423-.04598-.2307207-.13353-.257937-.240478-.022788-.08829.057648-.209075.031367-.317152-.051681-.211854-.479501-.217639-.4810145-.435651-.0007857-.136857.1761456-.153455.1777642-.285785.00116-.144838-.1976841-.267539-.240508-.390343-.039159-.112578-.044631-.291212-.059256-.44959-.013913-.148649.00263-.320964-.031367-.435648-.0307953-.103211-.1862537-.244344-.2858215-.299727-.1317295-.073209-.2352751-.042671-.2997624-.149863-.056025-.09366-.092386-.289392-.1045671-.390341-.021751-.180528-.00696-.378902-.017423-.571572-.010509-.192964-.029574-.378151 0-.585512.074483-.14518.21342-.215132.2893056-.358976.052902-.100076.058823-.224628.1185117-.331093.1101478-.1960858.3510104-.3747919.5123865-.5680865.1740208-.2082584.333885-.4102493.4357145-.6482759.0365461-.0844623.1326106-.2693312.1185118-.3729149-.019834-.1443091-.2899164-.2637777-.2683923-.4356499.0139133-.106489.1639485-.1075058.209138-.2125964.0231422-.0542899.0440906-.2035767.0453109-.2683613.0016988-.1448444-.0745471-.294948-.0453133-.4495966.0247043-.1319969.2230605-.1862269.1219903-.3310933-.1002234-.1434443-.2829442.0755441-.3938747-.0174269-.1018001-.085338.0219678-.1880263.0313671-.3450342.0034012-.0624416-.0379837-.1315023-.0313671-.1777443.0086573-.0671271.1428603-.1814749.1080612-.2265377-.0542935-.0686873-.1136111-.2063875-.1986796-.3171535 1.6777051-1.3418532 3.6888397-2.2880781 5.8872147-2.6870854h.0036c.02732.046485.04803.1016885.115034.1219822.131034-.067819.263461.0052.407819 0 .140603-.0052.266789-.069591.42176-.045306.273873.042843.655618.31252.871406.1672894.0543-.036771.04156-.1035171.09063-.1986561.03897-.076144.09853-.1571316.135935-.250934.109098-.00347.218039-.00348.327648-.00348z" fill="#1e90ff" stroke-width="1.550742"/></svg>