<svg height="32" viewBox="0 0 32 32" width="32" xmlns="http://www.w3.org/2000/svg"><g fill="#1e90ff"><path d="m16 2c-7.7227501.0017-13.99825 6.2772505-14 14 .0017 7.72275 6.2772499 13.99825 14 14 7.72275-.0018 13.99825-6.27725 14-14 0-.89075-.09338-1.755094-.25-2.589844-.07088-.37625-.376109-.661531-.755859-.707031-.380625-.0455-.742891.160641-.900391.509766-.277375.6125-.887625 1.037984-1.59375 1.037109-.783125.0017-1.443563-.526578-1.664062-1.251953-.133-.44275-.58736-.704611-1.03711-.599609-.2765.064738-.538953.101562-.798828.101562-1.927625-.0035-3.4965-1.572375-3.5-3.5 0-.259875.03681-.52125.101562-.796875.105876-.44975-.156859-.9060625-.599609-1.0390625-.725375-.219625-1.253703-.8809375-1.251953-1.6640625-.000875-.707.424609-1.3144219 1.037109-1.5917969.349125-.1575.555266-.5225937.509766-.9023437-.0455-.3806253-.330781-.6849844-.707031-.7558594-.83475-.156625-1.699094-.25-2.589844-.25zm-3.5 5.25a1.75 1.75 0 0 1 1.75 1.75 1.75 1.75 0 0 1 -1.75 1.75 1.75 1.75 0 0 1 -1.75-1.75 1.75 1.75 0 0 1 1.75-1.75zm-3.5 7a1.75 1.75 0 0 1 1.75 1.75 1.75 1.75 0 0 1 -1.75 1.75 1.75 1.75 0 0 1 -1.75-1.75 1.75 1.75 0 0 1 1.75-1.75zm7.875 1.75a.875.875 0 0 1 .875.875.875.875 0 0 1 -.875.875.875.875 0 0 1 -.875-.875.875.875 0 0 1 .875-.875zm7 3.5a.875.875 0 0 1 .875.875.875.875 0 0 1 -.875.875.875.875 0 0 1 -.875-.875.875.875 0 0 1 .875-.875zm-12.25 1.75a.875.875 0 0 1 .875.875.875.875 0 0 1 -.875.875.875.875 0 0 1 -.875-.875.875.875 0 0 1 .875-.875zm6.125 0a1.75 1.75 0 0 1 1.75 1.75 1.75 1.75 0 0 1 -1.75 1.75 1.75 1.75 0 0 1 -1.75-1.75 1.75 1.75 0 0 1 1.75-1.75z" stroke-width=".055"/><path d="m16 1.9726562c-7.7376369.0017033-14.0255904 6.2897078-14.0273438 14.0273438.0017033 7.737637 6.2897072 14.02559 14.0273438 14.027344 7.737636-.001804 14.02559-6.289707 14.027344-14.027344 0-.892671-.09311-1.75952-.25-2.595703-.07307-.387879-.387794-.681608-.779297-.728516-.392387-.04691-.767356.165557-.929688.525391-.273096.603051-.873301 1.022346-1.568359 1.021484-.770724.0017-1.421537-.518112-1.638672-1.232422-.137105-.456415-.604759-.727376-1.068359-.61914-.274993.064385-.535692.101562-.792969.101562-1.912729-.003473-3.469183-1.559927-3.472656-3.472656 0-.2572779.03717-.5169001.101562-.7910156.109152-.4636657-.162663-.933189-.61914-1.0703125-.714266-.2162612-1.234145-.8679506-1.232422-1.6386719-.000862-.6959465.418369-1.2932811 1.021484-1.5664062.359947-.162382.572306-.5400825.525391-.9316407-.046903-.3923609-.340677-.7062388-.728516-.7792968-.836184-.1568941-1.703032-.2500001-2.595703-.2500001zm0 .054688c.888827 0 1.75067.093644 2.583984.25.36466.068692.64145.3635329.685547.7324218.04408.3679411-.155838.7204292-.49414.8730469-.621884.2816239-1.053623.8991351-1.052735 1.6171871-.0018.7955271.535001 1.4664648 1.271485 1.6894531.429022.1288762.682678.5719791.580078 1.0078125-.065107.277134-.101563.5402628-.101563.8027344.0035 1.942517 1.584827 3.523817 3.527344 3.527344.262473 0 .526681-.03647.804687-.101563.435899-.101768.876965.150995 1.00586.580078.223862.73644.893928 1.273212 1.689453 1.271485.717191.000888 1.337487-.430787 1.619141-1.052735.152668-.338415.502231-.538234.871093-.49414.367997.04409.663733.320926.732422.685547.156351.833314.25 1.695157.25 2.583984-.001746 7.707848-6.264808 13.97086-13.972656 13.972656-7.7078481-.001746-13.9709595-6.264808-13.9726562-13.972656.0017466-7.7078475 6.2648083-13.9709595 13.9726562-13.9726562zm-3.5 5.1953124c-.981359 0-1.777344.7959844-1.777344 1.7773438s.795985 1.777344 1.777344 1.777344 1.777344-.7959846 1.777344-1.777344-.795985-1.7773437-1.777344-1.7773438zm0 .054687c.951635 0 1.722656.771021 1.722656 1.7226563s-.771021 1.722656-1.722656 1.722656-1.722656-.7710207-1.722656-1.722656.771021-1.7226562 1.722656-1.7226563zm-3.5 6.9453124c-.9813594 0-1.7773437.795985-1.7773438 1.777344 0 .981359.7959844 1.777344 1.7773438 1.777344s1.777344-.795985 1.777344-1.777344-.7959846-1.777344-1.777344-1.777344zm0 .05469c.9516353 0 1.722656.771021 1.722656 1.722656s-.7710207 1.722656-1.722656 1.722656-1.7226562-.771021-1.7226563-1.722656c0-.951635.771021-1.722656 1.7226563-1.722656zm7.875 1.695312c-.498111 0-.902344.404233-.902344.902344s.404233.902344.902344.902344.902344-.404233.902344-.902344-.404233-.902344-.902344-.902344zm0 .05469c.468387 0 .847656.379269.847656.847656s-.379269.847656-.847656.847656-.847656-.379269-.847656-.847656.379269-.847656.847656-.847656zm7 3.445312c-.498111 0-.902344.404233-.902344.902344s.404233.902344.902344.902344.902344-.404233.902344-.902344-.404233-.902344-.902344-.902344zm0 .05469c.468387 0 .847656.379269.847656.847656s-.379269.847656-.847656.847656-.847656-.379269-.847656-.847656.379269-.847656.847656-.847656zm-12.25 1.695312c-.498111 0-.902344.404233-.902344.902344s.404233.902344.902344.902344.902344-.404233.902344-.902344-.404233-.902344-.902344-.902344zm6.125 0c-.981359 0-1.777344.795985-1.777344 1.777344s.795985 1.777344 1.777344 1.777344 1.777344-.795985 1.777344-1.777344-.795985-1.777344-1.777344-1.777344zm-6.125.05469c.468387 0 .847656.379269.847656.847656s-.379269.847656-.847656.847656-.847656-.379269-.847656-.847656.379269-.847656.847656-.847656zm6.125 0c.951635 0 1.722656.771021 1.722656 1.722656s-.771021 1.722656-1.722656 1.722656-1.722656-.771021-1.722656-1.722656.771021-1.722656 1.722656-1.722656z"/></g></svg>