<?xml version="1.0" encoding="UTF-8" standalone="no"?>
<svg
   xmlns:dc="http://purl.org/dc/elements/1.1/"
   xmlns:cc="http://creativecommons.org/ns#"
   xmlns:rdf="http://www.w3.org/1999/02/22-rdf-syntax-ns#"
   xmlns:svg="http://www.w3.org/2000/svg"
   xmlns="http://www.w3.org/2000/svg"
   xmlns:sodipodi="http://sodipodi.sourceforge.net/DTD/sodipodi-0.dtd"
   xmlns:inkscape="http://www.inkscape.org/namespaces/inkscape"
   viewBox="0 0 32 32"
   version="1.1"
   id="svg4"
   sodipodi:docname="checked.svg"
   width="32"
   height="32"
   inkscape:version="0.92.4 5da689c313, 2019-01-14">
  <metadata
     id="metadata10">
    <rdf:RDF>
      <cc:Work
         rdf:about="">
        <dc:format>image/svg+xml</dc:format>
        <dc:type
           rdf:resource="http://purl.org/dc/dcmitype/StillImage" />
        <dc:title />
      </cc:Work>
    </rdf:RDF>
  </metadata>
  <defs
     id="defs8" />
  <sodipodi:namedview
     pagecolor="#ffffff"
     bordercolor="#666666"
     borderopacity="1"
     objecttolerance="10"
     gridtolerance="10"
     guidetolerance="10"
     inkscape:pageopacity="0"
     inkscape:pageshadow="2"
     inkscape:window-width="1366"
     inkscape:window-height="703"
     id="namedview6"
     showgrid="false"
     inkscape:zoom="10.727273"
     inkscape:cx="-17.618643"
     inkscape:cy="22.186441"
     inkscape:window-x="0"
     inkscape:window-y="0"
     inkscape:window-maximized="1"
     inkscape:current-layer="svg4" />
  <path
     d="m 26.510257,4.5 c -0.516225,0 -0.957263,0.18055 -1.31837,0.5422058 L 12.495363,17.762184 6.8081123,12.050651 C 6.4467811,11.689168 6.0057248,11.508444 5.4897436,11.508444 c -0.516225,0 -0.9533625,0.180743 -1.3146937,0.542207 l -2.6330626,2.634133 c -0.3613312,0.361464 -0.54198754,0.79879 -0.54198754,1.315215 0,0.516198 0.18056254,0.953984 0.54198754,1.315218 l 7.0056189,7.012105 2.6330638,2.630472 C 11.541757,27.319277 11.979138,27.5 12.495363,27.5 c 0.515981,0 0.957018,-0.180933 1.31835,-0.542206 l 2.633061,-2.630472 14.011239,-14.02055 C 30.819101,9.9453072 31,9.5079823 31,8.9915557 31.000244,8.4753587 30.819063,8.0341413 30.458013,7.6726776 L 27.82495,5.0422058 C 27.463862,4.6807225 27.026238,4.5 26.510257,4.5 Z"
     id="path2"
     inkscape:connector-curvature="0"
     style="fill:#4285f4;fill-opacity:1;stroke-width:1.89571893" />
</svg>
