<svg height="32" viewBox="0 0 32 32" width="32" xmlns="http://www.w3.org/2000/svg"><path d="m29.854504 13.584765c-.09765-.12775-.224875-.20384-.38283-.22799l-3.335852-.510369c-.182368-.58331-.43162-1.178712-.747548-1.786399.218593-.303853.546613-.732112.984043-1.2852168.43743-.5531046.74732-.9569694.929671-1.2122592.0973-.1338749.1456-.2734198.1456-.4192997 0-.1700999-.04235-.3036248-.127575-.4009598-.437431-.6200071-1.440041-1.6528215-3.00785-3.0991256-.145425-.1214499-.297587-.1821223-.455332-.1821223-.182351 0-.328231.0546-.437641.1637999l-2.588321 1.9506187c-.498506-.2552898-1.045346-.4801647-1.640731-.6745895l-.510371-3.3539779c-.01225-.1580249-.08207-.2886274-.20965-.3919998-.12775-.1034249-.276342-.1548749-.446827-.1548749h-4.046703c-.352398 0-.571235.1700999-.65625.5103697-.158025.6074771-.334285 1.7376264-.528728 3.3904479-.571218.1825773-1.124096.4134897-1.658861.692947l-2.5155911-1.9506363c-.158025-.1214499-.3159276-.1821223-.4739002-.1821223-.2673827 0-.841523.4342797-1.7226311 1.3033291-.8811255.869032-1.4794158 1.5221491-1.795571 1.9595788-.1093751.1580249-.1639751.2977973-.1639751.4192998 0 .1459499.06055.2917598.1821226.4374297.814223.9844794 1.4644359 1.8228685 1.9506386 2.5158155-.3038526.558915-.5408028 1.118057-.7108504 1.676989l-3.3906795.510352c-.1335251.02432-.2490252.103425-.3463602.237178-.0973.133525-.1459501.27342-.1459501.41909v4.046907c0 .1582.048475.30072.1459501.42826.0973.12775.2248751.20405.3828477.228217l3.3360795.492257c.1701001.595385.4190728 1.196825.747303 1.804284-.2185927.303852-.5468404.732112-.9842531 1.285217-.4374303.553105-.747548.956969-.9296706 1.212259-.0973.13405-.1459501.27342-.1459501.4193 0 .158025.042525.297587.1275751.41909.4739003.656459 1.4765109 1.677426 3.0078493 3.062655.1338751.133875.2857227.200463.4557703.200463.1823501 0 .3342677-.0546.4557702-.1638l2.5704181-1.950847c.498506.25529 1.045346.480165 1.640731.674817l.510371 3.353978c.01225.158025.08207.288628.20965.392.127575.1036.276553.154875.4466.154875h4.04693c.352853 0 .571463-.1701.656705-.51037.157676-.607704.333831-1.737626.528273-3.390448.571218-.182349 1.124323-.413472 1.658861-.692947l2.515819 1.968977c.1701.1092.32823.1638.473901.1638.267155 0 .838373-.431148 1.713233-1.294142.875298-.862785 1.476738-1.519244 1.804531-1.968976.109375-.12145.16415-.261118.16415-.41909 0-.158025-.06073-.310327-.18235-.45577-.87486-1.069512-1.525073-1.907901-1.950639-2.515588.242988-.449733.480166-1.00261.711078-1.658877l3.372322-.510142c.1456-.02433.267611-.1036.364718-.237387.09713-.133875.145425-.273648.145425-.4193v-4.046698c.000228-.158024-.04812-.300492-.1456-.428259zm-10.554414 5.714744c-.911313.91154-2.011258 1.367309-3.299609 1.367309-1.288333 0-2.388052-.455769-3.29961-1.367309-.911313-.911329-1.367083-2.011046-1.367083-3.299395 0-1.288332.455543-2.388049 1.367083-3.299606.911558-.911312 2.011504-1.367081 3.29961-1.367081 1.288351 0 2.388296.455769 3.299609 1.367081.911331.911557 1.367101 2.011274 1.367101 3.299606 0 1.288349-.45577 2.388066-1.367101 3.299395z" fill="#4285f4" stroke-width="1.75"/></svg>