<svg height="32" viewBox="0 0 32 32" width="32" xmlns="http://www.w3.org/2000/svg"><g fill="#4285f4" transform="matrix(.06013395 0 0 .06013395 .605709 .344789)"><path d="m256 493.15254c128.61072 0 232.81356-104.20284 232.81356-232.81356s-104.20284-232.813557-232.81356-232.813557-232.81356 104.202837-232.81356 232.813557 104.20284 232.81356 232.81356 232.81356zm0-420.566428c103.73346 0 187.75287 84.019408 187.75287 187.752868s-84.01941 187.75287-187.75287 187.75287-187.752871-84.01941-187.752871-187.75287 84.019411-187.752868 187.752871-187.752868z" stroke-width=".938764"/><path d="m154.91509 218.70191h197.79999c10.7 0 16.1 13 8.5 20.5l-98.9 98.3c-4.7 4.7-12.2 4.7-16.9 0l-98.89999-98.3c-7.7-7.5-2.3-20.5 8.4-20.5z"/></g></svg>