<svg height="32" viewBox="0 0 32 32" width="32" xmlns="http://www.w3.org/2000/svg"><path d="m26.510256 4.4999998c-.516225 0-.957263.18055-1.318369.5422058l-12.696525 12.7199774-5.68725-5.711532c-.3613312-.361484-.8023875-.542206-1.3183687-.542206-.516225 0-.9533625.180742-1.3146937.542206l-2.6330625 2.634132c-.3613313.361465-.5419875.79879-.5419875 1.315217 0 .516197.1805625.953983.5419875 1.315217l7.0056186 7.012105 2.6330633 2.630472c.361087.361483.798468.542206 1.314693.542206.515981 0 .957019-.180933 1.31835-.542206l2.633063-2.630472 14.011237-14.020551c.361088-.3614637.541988-.7987895.541988-1.3152162.000243-.5161967-.180938-.9574133-.541988-1.3188775l-2.633062-2.6304717c-.361088-.3614833-.798713-.5422058-1.314694-.5422058z" fill="#4285f4" stroke-width="1.895719"/></svg>