<svg height="32" viewBox="0 0 32 32" width="32" xmlns="http://www.w3.org/2000/svg"><path d="m16.853857 12.44854a4.1377799 4.0210006 0 1 0 3.711072 3.606336 4.1461848 4.0291682 0 0 0 -3.711072-3.606336zm9.962997 4.001524a9.9785147 9.6968942 0 0 1 -.0989 1.306197l2.922953 2.227885a.69889689.67917212 0 0 1 .1584.863888l-2.7652 4.649282a.69889689.67917212 0 0 1 -.849538.28838l-2.902917-1.135932a1.0415568 1.0121612 0 0 0 -.980782.109949 10.634093 10.333972 0 0 1 -1.392622.787865 1.0305658 1.0014805 0 0 0 -.570238.762733l-.435113 3.008839a.71635313.69613573 0 0 1 -.690492.576133h-5.5304a.71829272.69802057 0 0 1 -.691145-.557284l-.434467-3.004442a1.0389707 1.0096481 0 0 0 -.581874-.767759 10.040581 9.7572093 0 0 1 -1.38745-.78975 1.0344449 1.0052501 0 0 0 -.9769034-.107436l-2.9022697 1.135305a.69889689.67917212 0 0 1 -.8495372-.287753l-2.7652006-4.649282a.69825036.67854385 0 0 1 .1583984-.863887l2.4703849-1.884845a1.0376776 1.0083915 0 0 0 .3879174-.88462c-.023274-.261993-.037508-.523357-.037508-.785351s.013584-.519588.037508-.775927a1.0344449 1.0052501 0 0 0 -.392443-.875826l-2.4690915-1.884842a.69889689.67917212 0 0 1 -.1532273-.859489l2.7652006-4.6492827a.69889689.67917212 0 0 1 .8495382-.2883809l2.9029122 1.135932a1.0415568 1.0121612 0 0 0 .980782-.1099479 10.634093 10.333972 0 0 1 1.392622-.7878662 1.0305658 1.0014805 0 0 0 .570237-.7627331l.435114-3.0088389a.71635313.69613573 0 0 1 .690493-.5761337h5.530401a.71829272.69802057 0 0 1 .691139.5572857l.434466 3.0044405a1.0389707 1.0096481 0 0 0 .581875.7677597 10.040581 9.7572093 0 0 1 1.387449.7897507 1.0344449 1.0052501 0 0 0 .976904.1074352l2.902267-1.1353048a.69889689.67917212 0 0 1 .849536.2877537l2.765201 4.6492817a.69825036.67854385 0 0 1 -.158399.863886l-2.470384 1.884845a1.0376776 1.0083915 0 0 0 -.39115.88462c.02135.260109.03556.521473.03556.783467z" fill="#1e90ff" stroke="#1e90ff" stroke-linecap="round" stroke-linejoin="round" stroke-width="1.10956" transform="translate(-.447196 -.450063)"/></svg>