<svg height="32" viewBox="0 0 32 32" width="32" xmlns="http://www.w3.org/2000/svg"><path d="m16.006291 30c1.277876 0 2.283777-1.196679 2.283777-2.604492v-14.324707c0-1.407812-1.004406-2.60791-2.283777-2.60791-1.27937 0-2.286918 1.200098-2.286918 2.60791v14.324707c0 1.407813 1.009044 2.604492 2.286918 2.604492zm-.0063-21.4750969c.802259 0 1.557265-.337509 2.123567-.953613.565275-.61505.876442-1.431978.876442-2.30713 0-.8751823-.310197-1.6943843-.876442-2.3105463-.566309-.616191-1.321342-.953614-2.123549-.953614-.802257 0-1.557267.337509-2.123566.9536141-.566328.61619-.876443 1.435421-.876443 2.3105462 0 .87521.31127 1.69211.876443 2.30713.566326.61619 1.321337.953617 2.123566.953613z" fill="#f25022" stroke-width="1.677697"/></svg>