<svg height="32" viewBox="0 0 32 32" width="32" xmlns="http://www.w3.org/2000/svg"><path d="m15.999886 2c7.719803 0 14.000114 6.280313 14.000114 14s-6.28024 14-14.000045 14c-7.7197313 0-13.999955-6.280313-13.999955-14s6.2802237-14 13.999886-14zm0 4.7323852c-1.698231 0-3.290918.4595677-4.661163 1.26021l12.668651 12.6685298c.80072-1.370179 1.260292-2.962924 1.260292-4.661125 0-5.110227-4.15758-9.2676148-9.26778-9.2676148zm0 18.5352468c1.698267 0 3.290902-.459567 4.661164-1.26021l-12.6686512-12.66853c-.8006491 1.370216-1.2602202 2.962909-1.2602202 4.661108 0 5.110227 4.1575954 9.267632 9.2677074 9.267632z" fill="#db3236"/></svg>