<svg height="32" width="32" xmlns="http://www.w3.org/2000/svg"><g fill="#323232" fill-opacity="1" transform="matrix(.02451023 0 0 .02451023 -4.656907 16.634091)"><g fill="#db3236" transform="matrix(1.9999997 0 0 2.1514882 1756.18825807197 -1125.11403216676)"><path d="m-456.70043 534.13427c-49.553 0-96.331 21.852-128.335 59.948-9.93 11.811-8.402 29.434 3.428 39.363 5.234 4.396 11.605 6.557 17.958 6.557 7.973 0 15.891-3.39 21.405-9.966 21.368-25.429 52.552-40.016 85.544-40.016s64.177 14.587 85.544 40.016c5.533 6.595 13.45 9.966 21.405 9.966 6.353 0 12.724-2.142 17.958-6.557 11.83-9.93 13.357-27.553 3.428-39.363-32.005-38.096-78.783-59.948-128.335-59.948z"/><path d="m-456.71026 411.20563c-82.545 0-160.489 36.419-213.879 99.926-9.929 11.811-8.402 29.434 3.428 39.363 5.234 4.396 11.605 6.558 17.958 6.558 7.973 0 15.891-3.391 21.405-9.967 42.716-50.838 105.086-79.993 171.089-79.993s128.372 29.155 171.107 79.993c5.533 6.595 13.45 9.967 21.404 9.967 6.353 0 12.724-2.14299 17.959-6.558 11.829-9.929 13.356-27.57 3.428-39.363-53.41-63.506-131.354-99.926-213.899-99.926z"/><path d="m-157.25874 432.76761c-74.739-88.935-183.887-139.923-299.442-139.923s-224.68501 50.988-299.44301 139.923c-9.93 11.811-8.402 29.434 3.428 39.363 5.234 4.396 11.587 6.558 17.939 6.558 7.973 0 15.891-3.391 21.423-9.967 64.08401-76.248 157.63901-119.989 256.65201-119.989s192.568 43.741 256.651 119.971c5.533 6.576 13.45 9.967 21.424 9.967 6.353 0 12.724-2.14299 17.958-6.558 11.81099-9.912 13.33999-27.553 3.41-39.345z"/><path d="m-502.72533 682.97548c0 25.40596 20.61957 46.02476 46.02469 46.02476 25.40511 0 46.02469-20.6188 46.02469-46.02476-7.77548-65.32599-90.56863-48.66693-92.04938 0z"/></g><path d="m848.11643-365.11285c-41.32849 0-73.86092 34.491-73.86092 75.06734v412.87024c0 40.57631 32.48405 75.16581 73.86092 75.16581 41.37684 0 73.96253-34.5895 73.96253-75.16581v-412.87024c0-40.57634-32.63405-75.06734-73.96253-75.06734zm.20338 618.96056c-25.94633 0-50.36443 9.72776-68.67947 27.48529-18.28211 17.72714-28.34575 41.27281-28.34575 66.49667 0 25.22473 10.03228 48.83598 28.34553 66.59514 18.3159 17.76002 42.73488 27.48528 68.67953 27.48528 25.94624 0 50.36446-9.72772 68.67943-27.48528 18.31592-17.75998 28.34556-41.37207 28.34556-66.59514 0-25.22549-10.06698-48.77039-28.34556-66.49667-18.31585-17.75996-42.73405-27.4854-68.67943-27.48529z" fill="#f25022" stroke-width="51.222187"/></g></svg>