<svg height="32" viewBox="0 0 32 32" width="32" xmlns="http://www.w3.org/2000/svg"><path d="m2.777778 1.9999997c-.430889 0-.777778.4460001-.777778 1v3.9217996 2.0782001 20.0781996c0 .5114.319271.921801.717014.921801h26.565971c.397743 0 .717015-.4104.717015-.921801v-22.1563997c0-.5113999-.319272-.9217998-.717015-.9217998h-12.726246c-.886457.034-1.31646-.2642001-1.707424-.7362002l-1.848624-2.4199995c-.261411-.4404-.458691-.8438-.88958-.8438z" fill="#4285f4"/><path d="m15.858479 11.458523-5.9944952 7.587487c-1.1239721 1.422653-.8093207 3.956812.6292812 5.068317 1.438625 1.111493 4.0012.800343 5.125173-.62231l5.994496-7.587499.749296-.948436c.749319-.948435.539558-2.63787-.41951-3.378869-.959079-.740999-2.667466-.533574-3.416774.414873l-.749319.948435-4.495869 5.690616-.749307.948436c-.374666.474218-.269774 1.31894.20976 1.689446.479534.370483 1.333734.266781 1.708387-.207437l5.245176-6.639062.95908.740999-5.245176 6.639051c-.74932.948447-2.457706 1.155884-3.416775.414873-.959079-.740999-1.168851-2.430434-.419543-3.37887l.749319-.948436 5.245188-6.639051c1.123961-1.4226649 3.686536-1.7338019 5.12516-.622309 1.438614 1.111493 1.753267 3.645651.629294 5.068305l-.749308.948447-5.994495 7.587476c-1.498639 1.896883-4.915413 2.311756-6.8335602.829758-1.9181476-1.482011-2.33768-4.860869-.8390533-6.757753l5.9944955-7.587487z" fill="#fff" stroke-width="1.134997"/></svg>