<?xml version="1.0" encoding="UTF-8" standalone="no"?>
<svg
   xmlns:dc="http://purl.org/dc/elements/1.1/"
   xmlns:cc="http://creativecommons.org/ns#"
   xmlns:rdf="http://www.w3.org/1999/02/22-rdf-syntax-ns#"
   xmlns:svg="http://www.w3.org/2000/svg"
   xmlns="http://www.w3.org/2000/svg"
   xmlns:sodipodi="http://sodipodi.sourceforge.net/DTD/sodipodi-0.dtd"
   xmlns:inkscape="http://www.inkscape.org/namespaces/inkscape"
   viewBox="984 984 32 32"
   version="1.1"
   id="svg8"
   sodipodi:docname="document-properties.svg"
   inkscape:version="1.0.1 (3bc2e813f5, 2020-09-07)">
  <metadata
     id="metadata14">
    <rdf:RDF>
      <cc:Work
         rdf:about="">
        <dc:format>image/svg+xml</dc:format>
        <dc:type
           rdf:resource="http://purl.org/dc/dcmitype/StillImage" />
        <dc:title />
      </cc:Work>
    </rdf:RDF>
  </metadata>
  <defs
     id="defs12" />
  <sodipodi:namedview
     pagecolor="#ffffff"
     bordercolor="#666666"
     borderopacity="1"
     objecttolerance="10"
     gridtolerance="10"
     guidetolerance="10"
     inkscape:pageopacity="0"
     inkscape:pageshadow="2"
     inkscape:window-width="1366"
     inkscape:window-height="702"
     id="namedview10"
     showgrid="false"
     inkscape:zoom="7.375"
     inkscape:cx="22.579444"
     inkscape:cy="14.923461"
     inkscape:window-x="0"
     inkscape:window-y="0"
     inkscape:window-maximized="1"
     inkscape:current-layer="svg8"
     inkscape:document-rotation="0" />
  <g
     id="g18">
    <path
       id="path4-3"
       style="color:#f2f2f2;fill:#4285f4;fill-opacity:1;stroke:none;stroke-width:1.76383"
       d="M 16.136719 15.232422 C 15.400769 15.232422 14.77089 15.492902 14.25 16.013672 C 13.72912 16.534572 13.46875 17.162237 13.46875 17.898438 C 13.46875 18.634638 13.72925 19.262503 14.25 19.783203 C 14.77089 20.304103 15.400569 20.564453 16.136719 20.564453 C 16.872919 20.564453 17.500784 20.304103 18.021484 19.783203 C 18.542284 19.262503 18.802734 18.634638 18.802734 17.898438 C 18.802734 17.162238 18.542284 16.534572 18.021484 16.013672 C 17.500784 15.492902 16.872919 15.232422 16.136719 15.232422 z "
       transform="translate(984,984)" />
    <path
       id="path11"
       style="color:#f2f2f2;fill:#4285f4;fill-opacity:1;stroke:none;stroke-width:1.76383"
       d="M 2.7773438 2 C 2.3464538 2 2 2.446 2 3 L 2 6.921875 L 2 9 L 2 29.078125 C 2 29.589525 2.3190569 30 2.7167969 30 L 29.283203 30 C 29.680903 30 30 29.589525 30 29.078125 L 30 6.921875 C 30 6.410475 29.680903 6 29.283203 6 L 16.556641 6 C 15.670251 6.034 15.240609 5.7356719 14.849609 5.2636719 L 13 2.84375 C 12.7386 2.40335 12.542228 2 12.111328 2 L 2.7773438 2 z M 14.978516 9.8984375 L 17.291016 9.8984375 C 17.388416 9.8984375 17.473875 9.9272281 17.546875 9.9863281 C 17.619675 10.045398 17.656016 10.120638 17.666016 10.210938 L 17.958984 12.126953 C 18.299184 12.238053 18.611684 12.367792 18.896484 12.513672 L 20.375 11.398438 C 20.4375 11.336037 20.5208 11.304688 20.625 11.304688 C 20.7151 11.304688 20.801766 11.338803 20.884766 11.408203 C 21.780566 12.234663 22.353616 12.825398 22.603516 13.179688 C 22.652516 13.235307 22.677734 13.311003 22.677734 13.408203 C 22.677734 13.491563 22.64975 13.571937 22.59375 13.648438 C 22.48955 13.794318 22.3124 14.025737 22.0625 14.341797 C 21.8125 14.657857 21.6249 14.902542 21.5 15.076172 C 21.6805 15.423422 21.823534 15.762423 21.927734 16.095703 L 23.833984 16.388672 C 23.924284 16.402472 23.996734 16.444578 24.052734 16.517578 L 24.052734 16.519531 C 24.107734 16.592531 24.134966 16.673672 24.134766 16.763672 L 24.134766 19.076172 C 24.134766 19.159372 24.107734 19.237453 24.052734 19.314453 C 23.997334 19.391053 23.92675 19.437172 23.84375 19.451172 L 21.916016 19.742188 C 21.784016 20.117188 21.648566 20.434406 21.509766 20.691406 C 21.752866 21.038606 22.1251 21.517706 22.625 22.128906 C 22.6942 22.212006 22.728516 22.298672 22.728516 22.388672 C 22.728516 22.478972 22.696766 22.557953 22.634766 22.626953 C 22.447466 22.883953 22.103616 23.260906 21.603516 23.753906 C 21.103516 24.247106 20.7776 24.492188 20.625 24.492188 C 20.5417 24.492188 20.452469 24.460438 20.355469 24.398438 L 18.916016 23.273438 C 18.610516 23.433137 18.29515 23.565722 17.96875 23.669922 C 17.85765 24.614322 17.757969 25.260122 17.667969 25.607422 C 17.619269 25.802022 17.492616 25.898438 17.291016 25.898438 L 14.978516 25.898438 C 14.881346 25.898438 14.797509 25.867594 14.724609 25.808594 C 14.651709 25.749494 14.610516 25.675938 14.603516 25.585938 L 14.3125 23.667969 C 13.97228 23.556769 13.65986 23.429103 13.375 23.283203 L 11.90625 24.398438 C 11.83682 24.461438 11.750684 24.492188 11.646484 24.492188 C 11.549314 24.492188 11.461266 24.452953 11.384766 24.376953 C 10.509716 23.585453 9.9368156 23.002053 9.6660156 22.626953 C 9.6174156 22.557453 9.59375 22.478672 9.59375 22.388672 C 9.59375 22.305272 9.6221344 22.225437 9.6777344 22.148438 C 9.7818044 22.002538 9.9590244 21.771078 10.208984 21.455078 C 10.458934 21.138978 10.646574 20.894403 10.771484 20.720703 C 10.583924 20.373603 10.44095 20.029653 10.34375 19.689453 L 8.4375 19.408203 C 8.34723 19.394403 8.27435 19.352297 8.21875 19.279297 C 8.16305 19.206397 8.1347656 19.123203 8.1347656 19.033203 L 8.1347656 16.720703 C 8.1347656 16.637403 8.16315 16.558422 8.21875 16.482422 C 8.27437 16.405922 8.3397156 16.359703 8.4160156 16.345703 L 10.353516 16.054688 C 10.450686 15.735408 10.586136 15.415083 10.759766 15.095703 C 10.481936 14.699733 10.111754 14.220763 9.6464844 13.658203 C 9.5770144 13.574963 9.5410156 13.491603 9.5410156 13.408203 C 9.5410156 13.338773 9.5722656 13.260222 9.6347656 13.169922 C 9.8154256 12.919962 10.158609 12.545418 10.662109 12.048828 C 11.165599 11.552228 11.493694 11.304688 11.646484 11.304688 C 11.736754 11.304688 11.825716 11.338803 11.916016 11.408203 L 13.353516 12.523438 C 13.659096 12.363747 13.976324 12.231283 14.302734 12.126953 C 14.413844 11.182483 14.513216 10.536583 14.603516 10.189453 C 14.652096 9.9950131 14.777146 9.8984375 14.978516 9.8984375 z M 16.136719 15.232422 C 16.872919 15.232422 17.500784 15.492902 18.021484 16.013672 C 18.542284 16.534572 18.802734 17.162238 18.802734 17.898438 C 18.802734 18.634638 18.542284 19.262503 18.021484 19.783203 C 17.500784 20.304103 16.872919 20.564453 16.136719 20.564453 C 15.400569 20.564453 14.77089 20.304103 14.25 19.783203 C 13.72925 19.262503 13.46875 18.634638 13.46875 17.898438 C 13.46875 17.162237 13.72912 16.534572 14.25 16.013672 C 14.77089 15.492902 15.400769 15.232422 16.136719 15.232422 z "
       transform="translate(984,984)" />
  </g>
</svg>
