<?xml version="1.0" encoding="UTF-8" standalone="no"?>
<svg
   xmlns:dc="http://purl.org/dc/elements/1.1/"
   xmlns:cc="http://creativecommons.org/ns#"
   xmlns:rdf="http://www.w3.org/1999/02/22-rdf-syntax-ns#"
   xmlns:svg="http://www.w3.org/2000/svg"
   xmlns="http://www.w3.org/2000/svg"
   xmlns:sodipodi="http://sodipodi.sourceforge.net/DTD/sodipodi-0.dtd"
   xmlns:inkscape="http://www.inkscape.org/namespaces/inkscape"
   viewBox="0 0 32 32"
   version="1.1"
   id="svg6"
   sodipodi:docname="document-import.svg"
   inkscape:version="1.0.1 (3bc2e813f5, 2020-09-07)"
   width="32"
   height="32">
  <metadata
     id="metadata10">
    <rdf:RDF>
      <cc:Work
         rdf:about="">
        <dc:format>image/svg+xml</dc:format>
        <dc:type
           rdf:resource="http://purl.org/dc/dcmitype/StillImage" />
        <dc:title />
      </cc:Work>
    </rdf:RDF>
  </metadata>
  <sodipodi:namedview
     pagecolor="#ffffff"
     bordercolor="#666666"
     borderopacity="1"
     objecttolerance="10"
     gridtolerance="10"
     guidetolerance="10"
     inkscape:pageopacity="0"
     inkscape:pageshadow="2"
     inkscape:window-width="1366"
     inkscape:window-height="702"
     id="namedview8"
     showgrid="false"
     inkscape:zoom="7.375"
     inkscape:cx="8.14565"
     inkscape:cy="18.847458"
     inkscape:window-x="0"
     inkscape:window-y="0"
     inkscape:window-maximized="1"
     inkscape:current-layer="svg6"
     inkscape:snap-midpoints="false"
     inkscape:document-rotation="0" />
  <defs
     id="defs3051">
    <style
       type="text/css"
       id="current-color-scheme">
      .ColorScheme-Text {
        color:#f2f2f2;
      }
      </style>
  </defs>
  <g
     id="g19">
    <path
       id="path15"
       style="color:#f2f2f2;fill:#4285f4;fill-opacity:1;stroke:none;stroke-width:1.76383"
       inkscape:transform-center-x="19.118644"
       inkscape:transform-center-y="-5.0169492"
       d="M 2.7773438 2 C 2.3464547 2 2 2.446 2 3 L 2 6.921875 L 2 9 L 2 29.078125 C 2 29.589525 2.3190539 30 2.7167969 30 L 29.283203 30 C 29.680946 30 30 29.589526 30 29.078125 L 30 6.921875 C 30 6.4104751 29.680946 6 29.283203 6 L 16.556641 6 C 15.670184 6.034 15.240573 5.735672 14.849609 5.2636719 L 13 2.84375 C 12.738589 2.40335 12.542217 2 12.111328 2 L 2.7773438 2 z M 15.375 12.126953 C 16.141917 12.126953 16.886968 12.221901 17.599609 12.402344 C 18.312251 12.582786 18.992864 12.848647 19.630859 13.1875 C 20.906849 13.865206 22.012003 14.838423 22.867188 16.017578 L 26 12.773438 L 26 23.126953 L 16 23.126953 L 19.402344 19.605469 C 19.176336 18.895794 18.84413 18.234061 18.427734 17.642578 C 18.011339 17.051095 17.510442 16.529509 16.941406 16.095703 C 16.37237 15.661897 15.736665 15.316723 15.052734 15.080078 C 14.368804 14.843433 13.636078 14.714844 12.875 14.714844 C 11.925245 14.714844 11.021854 14.915165 10.199219 15.275391 C 9.3765832 15.635616 8.6356419 16.156707 8.0136719 16.800781 C 7.3923245 17.44421 6.8887366 18.210023 6.5410156 19.060547 C 6.5410156 19.060547 6.5390625 19.0625 6.5390625 19.0625 C 6.5390625 19.0625 6.5390625 19.0625 6.5390625 19.0625 C 6.5390625 19.0625 6.5410156 19.060547 6.5410156 19.060547 C 6.6362723 18.736137 6.6100878 18.363715 6.7363281 18.054688 C 7.2107072 16.89344 7.8978325 15.846938 8.7460938 14.96875 C 9.594355 14.090562 10.604926 13.38173 11.726562 12.890625 C 12.848199 12.39952 14.080495 12.126953 15.375 12.126953 z " />
  </g>
</svg>
