<?xml version="1.0" encoding="UTF-8" standalone="no"?>
<svg
   xmlns:dc="http://purl.org/dc/elements/1.1/"
   xmlns:cc="http://creativecommons.org/ns#"
   xmlns:rdf="http://www.w3.org/1999/02/22-rdf-syntax-ns#"
   xmlns:svg="http://www.w3.org/2000/svg"
   xmlns="http://www.w3.org/2000/svg"
   xmlns:sodipodi="http://sodipodi.sourceforge.net/DTD/sodipodi-0.dtd"
   xmlns:inkscape="http://www.inkscape.org/namespaces/inkscape"
   viewBox="0 0 32 32"
   version="1.1"
   id="svg6"
   sodipodi:docname="document-new.svg"
   inkscape:version="1.0.1 (3bc2e813f5, 2020-09-07)"
   width="32"
   height="32">
  <metadata
     id="metadata10">
    <rdf:RDF>
      <cc:Work
         rdf:about="">
        <dc:format>image/svg+xml</dc:format>
        <dc:type
           rdf:resource="http://purl.org/dc/dcmitype/StillImage" />
        <dc:title />
      </cc:Work>
    </rdf:RDF>
  </metadata>
  <sodipodi:namedview
     pagecolor="#ffffff"
     bordercolor="#666666"
     borderopacity="1"
     objecttolerance="10"
     gridtolerance="10"
     guidetolerance="10"
     inkscape:pageopacity="0"
     inkscape:pageshadow="2"
     inkscape:window-width="1366"
     inkscape:window-height="702"
     id="namedview8"
     showgrid="false"
     inkscape:zoom="10.727273"
     inkscape:cx="3.5336773"
     inkscape:cy="18.457627"
     inkscape:window-x="0"
     inkscape:window-y="0"
     inkscape:window-maximized="1"
     inkscape:current-layer="svg6"
     inkscape:document-rotation="0" />
  <defs
     id="defs3051">
    <style
       type="text/css"
       id="current-color-scheme">
     .ColorScheme-Text {
       color:#f2f2f2;
     }
     </style>
  </defs>
  <g
     id="g16">
    <path
       id="path12"
       style="color:#f2f2f2;fill:#4285f4;fill-opacity:1;stroke:none;stroke-width:1.76383"
       d="m 2.7773432,2.0000002 c -0.430889,0 -0.777343,0.4460001 -0.777343,1 v 3.9218746 2.078125 20.0781252 c 0,0.5114 0.319053,0.921875 0.716796,0.921875 H 29.283203 C 29.680946,30 30,29.589526 30,29.078125 V 6.9218748 c 0,-0.511399 -0.319054,-0.921875 -0.716797,-0.921875 H 16.556641 c -0.886457,0.034 -1.316068,-0.264328 -1.707032,-0.736328 L 13,2.8437502 c -0.261411,-0.4404 -0.457783,-0.84375 -0.888672,-0.84375 z M 20.011719,9.9902348 c 0.480483,-0.05834 0.969577,-0.0385 1.429687,0.06641 0.46011,0.104905 0.890344,0.294392 1.25,0.572265 0.359654,0.277873 0.64904,0.644437 0.863282,1.060547 0.214241,0.41611 0.353112,0.882268 0.412109,1.357422 0.059,0.475154 0.03967,0.959057 -0.06641,1.414063 -0.106082,0.455005 -0.297132,0.880664 -0.578125,1.236328 l -0.75,0.949218 -5.994141,7.585938 c -0.37466,0.474221 -0.870601,0.856184 -1.431641,1.138672 -0.561039,0.282487 -1.187479,0.465179 -1.828125,0.542968 -0.640646,0.07779 -1.294725,0.05003 -1.908203,-0.08984 -0.613478,-0.139873 -1.186479,-0.391219 -1.6660158,-0.761719 -0.479537,-0.370503 -0.864736,-0.859248 -1.15039,-1.414062 -0.285655,-0.554815 -0.47212,-1.175056 -0.550782,-1.808594 -0.07866,-0.633538 -0.04964,-1.280045 0.0918,-1.886719 0.141442,-0.606674 0.394875,-1.174216 0.769531,-1.648437 l 5.9941418,-7.587891 0.960937,0.742187 -5.9960938,7.587891 c -0.280993,0.355663 -0.472043,0.77937 -0.578125,1.234375 -0.106082,0.455005 -0.127355,0.940861 -0.06836,1.416016 0.059,0.475154 0.199823,0.939357 0.414063,1.355468 0.21424,0.416112 0.5036308,0.784624 0.8632818,1.0625 0.359656,0.277874 0.787936,0.465408 1.248047,0.570313 0.46011,0.104904 0.951156,0.126701 1.43164,0.06836 0.480484,-0.05834 0.950315,-0.196339 1.371094,-0.408203 0.420779,-0.211864 0.793225,-0.497852 1.074219,-0.853515 l 5.99414,-7.587891 0.748047,-0.947266 c 0.37466,-0.474217 0.5103,-1.13404 0.431641,-1.767578 -0.07866,-0.633538 -0.370076,-1.240829 -0.84961,-1.611328 -0.479539,-0.3705 -1.146464,-0.505522 -1.787109,-0.427734 -0.640645,0.07779 -1.256205,0.367573 -1.630859,0.841797 l -0.748047,0.949218 -4.496094,5.689453 -0.75,0.949219 c -0.187333,0.237109 -0.254175,0.566042 -0.214844,0.882813 0.03933,0.316771 0.186014,0.621387 0.425782,0.80664 0.239767,0.185242 0.572254,0.251783 0.892578,0.212891 0.320323,-0.03889 0.627126,-0.182813 0.814453,-0.419922 l 5.246093,-6.640625 0.958985,0.742187 -5.246094,6.638672 c -0.37466,0.474224 -0.988261,0.762055 -1.628906,0.839844 -0.640645,0.07779 -1.307575,-0.05528 -1.787109,-0.425781 -0.47954,-0.3705 -0.772899,-0.97779 -0.851563,-1.611328 -0.07866,-0.633538 0.05699,-1.29336 0.431641,-1.767578 l 0.75,-0.947266 5.24414,-6.638672 c 0.280991,-0.355666 0.651489,-0.643604 1.072266,-0.855469 0.420777,-0.211864 0.892563,-0.347909 1.373047,-0.4062492 z" />
  </g>
</svg>
