<?xml version="1.0" encoding="UTF-8" standalone="no"?>
<svg
   xmlns:dc="http://purl.org/dc/elements/1.1/"
   xmlns:cc="http://creativecommons.org/ns#"
   xmlns:rdf="http://www.w3.org/1999/02/22-rdf-syntax-ns#"
   xmlns:svg="http://www.w3.org/2000/svg"
   xmlns="http://www.w3.org/2000/svg"
   xmlns:sodipodi="http://sodipodi.sourceforge.net/DTD/sodipodi-0.dtd"
   xmlns:inkscape="http://www.inkscape.org/namespaces/inkscape"
   viewBox="0 0 32 32"
   version="1.1"
   id="svg4"
   sodipodi:docname="document-encrypt.svg"
   inkscape:version="1.0.1 (3bc2e813f5, 2020-09-07)"
   width="32"
   height="32">
  <metadata
     id="metadata10">
    <rdf:RDF>
      <cc:Work
         rdf:about="">
        <dc:format>image/svg+xml</dc:format>
        <dc:type
           rdf:resource="http://purl.org/dc/dcmitype/StillImage" />
        <dc:title />
      </cc:Work>
    </rdf:RDF>
  </metadata>
  <defs
     id="defs8" />
  <sodipodi:namedview
     pagecolor="#ffffff"
     bordercolor="#666666"
     borderopacity="1"
     objecttolerance="10"
     gridtolerance="10"
     guidetolerance="10"
     inkscape:pageopacity="0"
     inkscape:pageshadow="2"
     inkscape:window-width="1366"
     inkscape:window-height="702"
     id="namedview6"
     showgrid="false"
     inkscape:zoom="10.727273"
     inkscape:cx="11.932203"
     inkscape:cy="11"
     inkscape:window-x="0"
     inkscape:window-y="0"
     inkscape:window-maximized="1"
     inkscape:current-layer="svg4"
     inkscape:document-rotation="0" />
  <path
     d="M 22.588889,13.8568 H 9.4112039 v -3.690062 c 0,-3.2959184 2.9557041,-5.9772283 6.5888431,-5.9772283 3.633137,0 6.588842,2.6814975 6.588842,5.9772283 z m 3.515031,0.03354 V 10.166361 C 26.10392,5.112162 21.571373,1 16.000047,1 10.428719,1 5.8961706,5.112162 5.8961706,10.166361 V 13.89034 C 5.0999287,14.041296 4.4999997,14.684037 4.4999997,15.450711 V 29.405712 C 4.4999997,30.284758 5.2884213,31 6.2575161,31 H 25.742488 C 26.711581,31 27.5,30.284758 27.5,29.405712 V 15.450714 c 0,-0.766674 -0.599832,-1.408676 -1.39608,-1.560371 z"
     id="path2"
     style="fill:#ff9642;fill-opacity:1;stroke-width:1.98001361"
     inkscape:connector-curvature="0" />
</svg>
