<svg height="32" viewBox="0 0 32 32" width="32" xmlns="http://www.w3.org/2000/svg"><path d="m2.777778 1.9999996c-.430889 0-.777778.4459999-.777778.9999999v3.9218001 2.0782 20.0781994c0 .5114.319271.921801.717014.921801h26.565971c.397743 0 .717015-.4104.717015-.921801v-22.1563994c0-.5113999-.319272-.9217998-.717015-.9217998h-12.726246c-.886457.034-1.31646-.2642001-1.707424-.7362002l-1.848624-2.42c-.261411-.4404-.458691-.8438-.88958-.8438z" fill="#4285f4"/><path d="m15.510673 12.262713c3.06767 0 5.78261 1.53167 7.49298 3.88998l3.13194-3.24304v10.35306h-10.00062l3.40235-3.522c-.90403-2.8387-3.48215-4.8898-6.52646-4.8898-3.7990198 0-6.8752698 3.18731-6.8752698 7.11787-.00004-5.36114 4.1970598-9.70607 9.3750798-9.70607z" fill="#fff" transform="translate(-.135593 -.135594)"/></svg>