<svg height="32" viewBox="0 0 32 32" width="32" xmlns="http://www.w3.org/2000/svg"><path d="m2.5041551 2.0023615c-.2795093 0-.5041551.2973298-.5041551.667277v27.2510335l28 .07933v-23.3873633c0-.3699456-.224647-.6672789-.504155-.6672789h-15.177537c-.514248.0602122-.581442-.0316765-.835558-.4806248-.360362-.6383146-.903859-2.3590957-1.258626-2.9817471-.284754-.545149-.331571-.4806264-.803827-.4806264z" fill="#4285f4"/><g fill="#fff" transform="matrix(.03436213213 -.00454696714 .0047162179 .03312897943 6.70819487826 10.67849908979)"><path d="m306.668 92.094 90.873 90.87 13.057-13.046-90.868-90.872z"/><path d="m294.878 103.885-256.004 256.017c-1.824 1.826-3.211 4.043-4.038 6.482l-33.957 101.262c-2.002 6.01-.457 12.619 4.025 17.1 3.173 3.18 7.44 4.887 11.79 4.887 1.774 0 3.567-.277 5.309-.863l101.246-33.973c2.456-.83 4.673-2.196 6.494-4.021l256.003-256.018z"/><path d="m331.52 67.257 90.868 90.874 13.03-13.045-90.873-90.871z"/><path d="m484.732 72.193-67.274-67.306c-3.129-3.127-7.382-4.887-11.795-4.887-4.414 0-8.663 1.76-11.79 4.887l-37.533 37.537 90.868 90.872 37.524-37.522c6.512-6.514 6.512-17.067 0-23.581z"/></g></svg>