<?xml version="1.0" encoding="UTF-8" standalone="no"?>
<svg
   xmlns:dc="http://purl.org/dc/elements/1.1/"
   xmlns:cc="http://creativecommons.org/ns#"
   xmlns:rdf="http://www.w3.org/1999/02/22-rdf-syntax-ns#"
   xmlns:svg="http://www.w3.org/2000/svg"
   xmlns="http://www.w3.org/2000/svg"
   xmlns:sodipodi="http://sodipodi.sourceforge.net/DTD/sodipodi-0.dtd"
   xmlns:inkscape="http://www.inkscape.org/namespaces/inkscape"
   viewBox="0 0 32 32"
   version="1.1"
   id="svg6"
   sodipodi:docname="document-import.svg"
   inkscape:version="0.92.4 5da689c313, 2019-01-14"
   width="32"
   height="32">
  <metadata
     id="metadata10">
    <rdf:RDF>
      <cc:Work
         rdf:about="">
        <dc:format>image/svg+xml</dc:format>
        <dc:type
           rdf:resource="http://purl.org/dc/dcmitype/StillImage" />
        <dc:title />
      </cc:Work>
    </rdf:RDF>
  </metadata>
  <sodipodi:namedview
     pagecolor="#ffffff"
     bordercolor="#666666"
     borderopacity="1"
     objecttolerance="10"
     gridtolerance="10"
     guidetolerance="10"
     inkscape:pageopacity="0"
     inkscape:pageshadow="2"
     inkscape:window-width="1366"
     inkscape:window-height="703"
     id="namedview8"
     showgrid="false"
     inkscape:zoom="7.375"
     inkscape:cx="-1.2881352"
     inkscape:cy="18.847458"
     inkscape:window-x="0"
     inkscape:window-y="0"
     inkscape:window-maximized="1"
     inkscape:current-layer="svg6"
     inkscape:snap-midpoints="false" />
  <defs
     id="defs3051">
    <style
       type="text/css"
       id="current-color-scheme">
      .ColorScheme-Text {
        color:#f2f2f2;
      }
      </style>
  </defs>
  <g
     id="g825">
    <path
       inkscape:transform-center-y="-5.0169492"
       inkscape:transform-center-x="19.118644"
       inkscape:connector-curvature="0"
       id="path4-3-3"
       class="ColorScheme-Text"
       d="M 2.777778,1.9999996 C 2.346889,1.9999996 2,2.4459995 2,2.9999995 v 3.9218001 2.0782 20.0781994 C 2,29.589599 2.319271,30 2.717014,30 H 29.282985 C 29.680728,30 30,29.5896 30,29.078199 V 6.9217996 C 30,6.4103997 29.680728,5.9999998 29.282985,5.9999998 H 16.556739 c -0.886457,0.034 -1.31646,-0.2642001 -1.707424,-0.7362002 l -1.848624,-2.42 c -0.261411,-0.4404 -0.458691,-0.8438 -0.88958,-0.8438 z"
       style="color:#f2f2f2;fill:#4285f4;fill-opacity:1;stroke:none;stroke-width:1.76383412" />
    <g
       transform="translate(-0.135593,-0.1355936)"
       id="g13">
      <path
         inkscape:connector-curvature="0"
         style="color:#f2f2f2;fill:#ffffff;fill-opacity:1;stroke:none"
         d="m 15.510673,12.262713 c 3.06767,0 5.78261,1.53167 7.49298,3.88998 l 3.13194,-3.24304 v 10.35306 h -10.00062 l 3.40235,-3.522 c -0.90403,-2.8387 -3.48215,-4.8898 -6.52646,-4.8898 -3.7990198,0 -6.8752698,3.18731 -6.8752698,7.11787 -4e-5,-5.36114 4.1970598,-9.70607 9.3750798,-9.70607 z"
         class="ColorScheme-Text"
         id="path4-3" />
    </g>
  </g>
</svg>
