<svg height="32" viewBox="0 0 32 32" width="32" xmlns="http://www.w3.org/2000/svg"><path d="m22.588889 13.8568h-13.1776851v-3.690062c0-3.2959184 2.9557041-5.9772283 6.5888431-5.9772283 3.633137 0 6.588842 2.6814975 6.588842 5.9772283zm3.515031.03354v-3.723979c0-5.054199-4.532547-9.166361-10.103873-9.166361-5.571328 0-10.1038764 4.112162-10.1038764 9.166361v3.723979c-.7962419.150956-1.3961709.793697-1.3961709 1.560371v13.955001c0 .879046.7884216 1.594288 1.7575164 1.594288h19.4849719c.969093 0 1.757512-.715242 1.757512-1.594288v-13.954998c0-.766674-.599832-1.408676-1.39608-1.560371z" fill="#f25022" stroke-width="1.980014"/></svg>