<svg height="32" viewBox="0 0 32 32" width="32" xmlns="http://www.w3.org/2000/svg"><g fill="#4285f4"><path d="m10.638672 11.392578v4.900391h9.177734v-4.900391zm5.570312.472656h1.582032c.115074 0 .208984.107395.208984.240235v3.519531c0 .13288-.09391.240234-.208984.240234h-1.582032c-.115074 0-.208984-.107354-.208984-.240234v-3.519531c0-.13284.09391-.240235.208984-.240235z"/><path d="m2.7773438 2c-.4308891 0-.7773438.446-.7773438 1v3.921875 2.078125 20.078125c0 .5114.3190539.921875.7167969.921875h26.5664061c.397743 0 .716797-.410474.716797-.921875v-22.15625c0-.5114-.319054-.921875-.716797-.921875h-12.726562c-.886457.034-1.316068-.2643281-1.707032-.7363281l-1.849609-2.4199219c-.261411-.4404-.457783-.84375-.888672-.84375zm5.890625 7.8652344h11.5585932c.177306 0 .347317.0699782.472657.1953126l3.105469 3.105469c.125372.125341.195312.295442.195312.472656v11.558594c0 .369134-.298835.667968-.667969.667968h-14.6640622c-.369134 0-.6679688-.298834-.6679688-.667968v-14.664063c0-.369094.2988347-.6679686.6679688-.6679686z"/></g></svg>