<svg height="32" viewBox="0 0 32 32" width="32" xmlns="http://www.w3.org/2000/svg"><path d="m2.7773432 2.0000002c-.430889 0-.777343.4460001-.777343 1v3.9218746 2.078125 20.0781252c0 .5114.319053.921875.716796.921875h26.5664068c.397743 0 .716797-.410474.716797-.921875v-22.1562502c0-.511399-.319054-.921875-.716797-.921875h-12.726562c-.886457.034-1.316068-.264328-1.707032-.736328l-1.849609-2.4199216c-.261411-.4404-.457783-.84375-.888672-.84375zm17.2343758 7.9902346c.480483-.05834.969577-.0385 1.429687.06641.46011.104905.890344.294392 1.25.572265.359654.277873.64904.644437.863282 1.060547.214241.41611.353112.882268.412109 1.357422.059.475154.03967.959057-.06641 1.414063-.106082.455005-.297132.880664-.578125 1.236328l-.75.949218-5.994141 7.585938c-.37466.474221-.870601.856184-1.431641 1.138672-.561039.282487-1.187479.465179-1.828125.542968-.640646.07779-1.294725.05003-1.908203-.08984-.613478-.139873-1.186479-.391219-1.6660158-.761719-.479537-.370503-.864736-.859248-1.15039-1.414062-.285655-.554815-.47212-1.175056-.550782-1.808594-.07866-.633538-.04964-1.280045.0918-1.886719.141442-.606674.394875-1.174216.769531-1.648437l5.9941418-7.587891.960937.742187-5.9960938 7.587891c-.280993.355663-.472043.77937-.578125 1.234375s-.127355.940861-.06836 1.416016c.059.475154.199823.939357.414063 1.355468.21424.416112.5036308.784624.8632818 1.0625.359656.277874.787936.465408 1.248047.570313.46011.104904.951156.126701 1.43164.06836.480484-.05834.950315-.196339 1.371094-.408203s.793225-.497852 1.074219-.853515l5.99414-7.587891.748047-.947266c.37466-.474217.5103-1.13404.431641-1.767578-.07866-.633538-.370076-1.240829-.84961-1.611328-.479539-.3705-1.146464-.505522-1.787109-.427734-.640645.07779-1.256205.367573-1.630859.841797l-.748047.949218-4.496094 5.689453-.75.949219c-.187333.237109-.254175.566042-.214844.882813.03933.316771.186014.621387.425782.80664.239767.185242.572254.251783.892578.212891.320323-.03889.627126-.182813.814453-.419922l5.246093-6.640625.958985.742187-5.246094 6.638672c-.37466.474224-.988261.762055-1.628906.839844-.640645.07779-1.307575-.05528-1.787109-.425781-.47954-.3705-.772899-.97779-.851563-1.611328-.07866-.633538.05699-1.29336.431641-1.767578l.75-.947266 5.24414-6.638672c.280991-.355666.651489-.643604 1.072266-.855469.420777-.211864.892563-.347909 1.373047-.4062492z" fill="#4285f4"/></svg>