<svg xmlns="http://www.w3.org/2000/svg" viewBox="984 984 32 32">
  <path fill="none" d="M-43.8-437.5H2700v2625H-43.8z"/>
  <path fill="#375273" d="M986.1 995l2.2-2.2c.2-.2.5-.4.9-.4.3 0 .6.1.8.4l1.6 1.6-3.9 3.9-1.6-1.6c-.2-.2-.3-.5-.3-.8 0-.4.1-.7.3-.9zm13.9 7.8v3.9h-3.9l-7.8-7.8 3.9-3.9 7.8 7.8zm-8.3-5.9l5.1 5.1s.1.1.2.1.2-.1.2-.2 0-.1-.1-.2l-5.1-5.1s-.1-.1-.2-.1-.2.1-.2.2c.1.1.1.2.1.2zm5.9 8.6v-1.2h1.2v-1l-.9-.9-2.2 2.2.9.9h1z"/>
  <path fill="#375273" d="M1013.2 994.1c-.2-.4-.4-.8-.6-1l-4.2-4.2c-.3-.3-.6-.5-1-.6-.4-.2-.8-.3-1.2-.3h-12c-.4 0-.7.1-.9.4-.2.3-.4.6-.4.9v6.4l1.7 1.7v-7.7h10.3v5.6c0 .4.1.7.4.9.3.3.6.4.9.4h5.6v13.7h-17.2v-5.1l-1.7-1.7v7.2c0 .4.1.7.4.9.3.2.6.4.9.4h18c.4 0 .7-.1.9-.4.2-.3.4-.6.4-.9v-15.4c0-.4-.1-.8-.3-1.2zm-6.6.8v-5c.3.1.4.2.5.3l4.2 4.2c.1.1.2.3.3.5h-5z"/>
</svg>
