<svg viewBox="984 984 32 32" xmlns="http://www.w3.org/2000/svg"><g fill="#4285f4"><path d="m1000.1367 999.23242c-.73593 0-1.36581.26048-1.8867.78128-.52088.5209-.78125 1.1485-.78125 1.8847s.2605 1.3641.78125 1.8848c.52089.5209 1.15057.7813 1.8867.7813.7362 0 1.3641-.2604 1.8848-.7813.5208-.5207.7812-1.1486.7812-1.8848s-.2604-1.3638-.7812-1.8847c-.5207-.5208-1.1486-.78128-1.8848-.78128z"/><path d="m986.77734 986c-.43089 0-.77734.446-.77734 1v3.92187 2.07813 20.0781c0 .5114.31906.9219.7168.9219h26.5664c.3977 0 .7168-.4105.7168-.9219v-22.15623c0-.51139-.3191-.92187-.7168-.92187h-12.7266c-.88635.034-1.31599-.26433-1.70699-.73633l-1.84961-2.41992c-.2614-.4404-.45777-.84375-.88867-.84375zm12.20118 7.89844h2.31248c.097 0 .1829.0288.2559.0879s.1091.13431.1191.22461l.293 1.91601c.3402.1111.6527.24084.9375.38672l1.4785-1.11523c.062-.0624.1458-.0937.25-.0937.09 0 .1768.0341.2598.10351.8958.82646 1.4688 1.4172 1.7187 1.77149.049.0556.074.13131.074.22851 0 .0834-.028.16374-.084.24024-.1042.14588-.2814.3773-.5313.69336-.25.31606-.4376.56074-.5625.73437.1805.34725.3235.68625.4277 1.01953l1.9063.293c.09.014.1627.056.2187.1289.055.073.082.1541.082.2441v2.3125c0 .083-.027.1613-.082.2383s-.1259.1227-.2089.1367l-1.9278.291c-.132.375-.2674.6923-.4062.9493.2431.3472.6153.8263 1.1152 1.4375.069.083.1035.1697.1035.2597s-.032.1693-.094.2383c-.1873.257-.5312.634-1.0313 1.127-.5.4932-.8259.7382-.9785.7382-.083 0-.1725-.032-.2695-.094l-1.4395-1.125c-.3055.1597-.6208.2923-.9472.3965-.1111.9444-.2108 1.5902-.3008 1.9375-.049.1946-.1754.291-.377.291h-2.31248c-.0972 0-.18101-.031-.25391-.09s-.11409-.1326-.12109-.2226l-.29102-1.918c-.34022-.1112-.65264-.2389-.9375-.3848l-1.46875 1.1152c-.0694.063-.15557.094-.25977.094-.0972 0-.18521-.039-.26171-.1152-.87505-.7915-1.44795-1.3749-1.71875-1.75-.0486-.069-.0723-.1483-.0723-.2383 0-.083.0284-.1633.084-.2403.10407-.1459.28129-.3773.53125-.6933.24995-.3161.43759-.5607.5625-.7344-.18756-.3471-.33053-.691-.42773-1.0312l-1.90625-.2813c-.0903-.014-.16315-.056-.21875-.1289-.0557-.073-.084-.1561-.084-.2461v-2.3125c0-.083.0284-.1623.084-.2383.0556-.077.12097-.1227.19727-.1367l1.9375-.291c.0972-.31929.23262-.63962.40625-.959-.27783-.39597-.64802-.87494-1.11329-1.4375-.0695-.0832-.10546-.1666-.10546-.25 0-.0694.0312-.14798.0937-.23828.18066-.24996.52384-.6245 1.02734-1.12109.50349-.4966.83158-.74414.98437-.74414.0903 0 .17924.0341.26954.10351l1.4375 1.11524c.30558-.15969.6228-.29216.94921-.39649.11111-.94447.21049-1.59037.30079-1.9375.0486-.19444.17363-.29101.375-.29101zm1.15818 5.33398c.7362 0 1.3641.26048 1.8848.78128.5208.5209.7812 1.1485.7812 1.8847s-.2604 1.3641-.7812 1.8848c-.5207.5209-1.1486.7813-1.8848.7813-.73613 0-1.36581-.2604-1.8867-.7813-.52075-.5207-.78125-1.1486-.78125-1.8848s.26037-1.3638.78125-1.8847c.52089-.5208 1.15077-.78128 1.8867-.78128z"/></g></svg>