<svg height="32" viewBox="0 0 32 32" width="32" xmlns="http://www.w3.org/2000/svg"><path d="m2.7773438 2c-.4308891 0-.7773438.446-.7773438 1v3.921875 2.078125 20.078125c0 .5114.3190539.921875.7167969.921875h26.5664061c.397743 0 .716797-.410474.716797-.921875v-22.15625c0-.5113999-.319054-.921875-.716797-.921875h-12.726562c-.886457.034-1.316068-.264328-1.707032-.7363281l-1.849609-2.4199219c-.261411-.4404-.457783-.84375-.888672-.84375zm12.5976562 10.126953c.766917 0 1.511968.094948 2.224609.275391.712642.180442 1.393255.446303 2.03125.785156 1.27599.677706 2.381144 1.650923 3.236329 2.830078l3.132812-3.24414v10.353515h-10l3.402344-3.521484c-.226008-.709675-.558214-1.371408-.97461-1.962891-.416395-.591483-.917292-1.113069-1.486328-1.546875s-1.204741-.77898-1.888672-1.015625c-.68393-.236645-1.416656-.365234-2.177734-.365234-.949755 0-1.853146.200321-2.675781.560547-.8226358.360225-1.5635771.881316-2.1855471 1.52539-.6213474.643429-1.1249353 1.409242-1.4726563 2.259766 0 0-.0019531.001953-.0019531.001953s.0019531-.001953.0019531-.001953c.0952567-.32441.0690722-.696832.1953125-1.005859.4743791-1.161248 1.1615044-2.20775 2.0097657-3.085938.8482612-.878188 1.8588322-1.58702 2.9804682-2.078125 1.121637-.491105 2.353933-.763672 3.648438-.763672z" fill="#4285f4"/></svg>