<?xml version="1.0" encoding="UTF-8" standalone="no"?>
<svg
   xmlns:dc="http://purl.org/dc/elements/1.1/"
   xmlns:cc="http://creativecommons.org/ns#"
   xmlns:rdf="http://www.w3.org/1999/02/22-rdf-syntax-ns#"
   xmlns:svg="http://www.w3.org/2000/svg"
   xmlns="http://www.w3.org/2000/svg"
   xmlns:sodipodi="http://sodipodi.sourceforge.net/DTD/sodipodi-0.dtd"
   xmlns:inkscape="http://www.inkscape.org/namespaces/inkscape"
   viewBox="0 0 32 32"
   version="1.1"
   id="svg6"
   sodipodi:docname="document-edit.svg"
   inkscape:version="0.92.4 5da689c313, 2019-01-14"
   width="32"
   height="32">
  <metadata
     id="metadata10">
    <rdf:RDF>
      <cc:Work
         rdf:about="">
        <dc:format>image/svg+xml</dc:format>
        <dc:type
           rdf:resource="http://purl.org/dc/dcmitype/StillImage" />
        <dc:title />
      </cc:Work>
    </rdf:RDF>
  </metadata>
  <sodipodi:namedview
     pagecolor="#ffffff"
     bordercolor="#666666"
     borderopacity="1"
     objecttolerance="10"
     gridtolerance="10"
     guidetolerance="10"
     inkscape:pageopacity="0"
     inkscape:pageshadow="2"
     inkscape:window-width="1366"
     inkscape:window-height="703"
     id="namedview8"
     showgrid="false"
     inkscape:zoom="7.375"
     inkscape:cx="9.3559326"
     inkscape:cy="8"
     inkscape:window-x="0"
     inkscape:window-y="0"
     inkscape:window-maximized="1"
     inkscape:current-layer="svg6" />
  <defs
     id="defs3051">
    <style
       type="text/css"
       id="current-color-scheme">
      .ColorScheme-Text {
        color:#f2f2f2;
      }
      </style>
  </defs>
  <g
     id="g834">
    <path
       inkscape:connector-curvature="0"
       id="path4"
       d="M 2.5041551,2.0023615 C 2.2246458,2.0023615 2,2.2996913 2,2.6696385 V 29.920672 l 28,0.07933 V 6.6126387 C 30,6.2426931 29.775353,5.9453598 29.495845,5.9453598 H 14.318308 C 13.80406,6.005572 13.736866,5.9136833 13.48275,5.464735 13.122388,4.8264204 12.578891,3.1056393 12.224124,2.4829879 11.93937,1.9378389 11.892553,2.0023615 11.420297,2.0023615 Z"
       class="ColorScheme-Text"
       style="color:#f2f2f2;fill:#4285f4;fill-opacity:1;stroke:none;stroke-width:2.07667756" />
    <g
       style="fill:#ffffff"
       id="g31"
       transform="matrix(1.0614104,0,0,1.0233196,4.7584189,6.5722891)">
      <path
         style="color:#f2f2f2;fill:#ffffff;fill-opacity:1;stroke:none"
         d="m 306.668,92.094 90.873,90.87 13.057,-13.046 -90.868,-90.872 z"
         class="ColorScheme-Text"
         transform="matrix(0.03237403,-0.00444335,0.00444335,0.03237403,1.8369665,4.0126373)"
         id="path4-3"
         inkscape:connector-curvature="0" />
      <path
         style="color:#f2f2f2;fill:#ffffff;fill-opacity:1;stroke:none"
         d="M 294.878,103.885 38.874,359.902 c -1.824,1.826 -3.211,4.043 -4.038,6.482 L 0.879,467.646 c -2.002,6.01 -0.457,12.619 4.025,17.1 3.173,3.18 7.44,4.887 11.79,4.887 1.774,0 3.567,-0.277 5.309,-0.863 l 101.246,-33.973 c 2.456,-0.83 4.673,-2.196 6.494,-4.021 L 385.746,194.758 Z"
         class="ColorScheme-Text"
         transform="matrix(0.03237403,-0.00444335,0.00444335,0.03237403,1.8369665,4.0126373)"
         id="path6"
         inkscape:connector-curvature="0" />
      <path
         style="color:#f2f2f2;fill:#ffffff;fill-opacity:1;stroke:none"
         d="m 331.52,67.257 90.868,90.874 13.03,-13.045 -90.873,-90.871 z"
         class="ColorScheme-Text"
         transform="matrix(0.03237403,-0.00444335,0.00444335,0.03237403,1.8369665,4.0126373)"
         id="path8"
         inkscape:connector-curvature="0" />
      <path
         style="color:#f2f2f2;fill:#ffffff;fill-opacity:1;stroke:none"
         d="M 484.732,72.193 417.458,4.887 C 414.329,1.76 410.076,0 405.663,0 401.249,0 397,1.76 393.873,4.887 l -37.533,37.537 90.868,90.872 37.524,-37.522 c 6.512,-6.514 6.512,-17.067 0,-23.581 z"
         class="ColorScheme-Text"
         transform="matrix(0.03237403,-0.00444335,0.00444335,0.03237403,1.8369665,4.0126373)"
         id="path10"
         inkscape:connector-curvature="0" />
    </g>
  </g>
</svg>
