<svg viewBox="984 984 32 32" xmlns="http://www.w3.org/2000/svg"><g fill="#4285f4" transform="translate(984 984)"><path d="m16.136719 15.232422c-.73595 0-1.365829.26048-1.886719.78125-.52088.5209-.78125 1.148565-.78125 1.884766 0 .7362.2605 1.364065.78125 1.884765.52089.5209 1.150569.78125 1.886719.78125.7362 0 1.364065-.26035 1.884765-.78125.5208-.5207.78125-1.148565.78125-1.884765s-.26045-1.363866-.78125-1.884766c-.5207-.52077-1.148565-.78125-1.884765-.78125z"/><path d="m2.7773438 2c-.43089 0-.7773438.446-.7773438 1v3.921875 2.078125 20.078125c0 .5114.3190569.921875.7167969.921875h26.5664061c.3977 0 .716797-.410475.716797-.921875v-22.15625c0-.5114-.319097-.921875-.716797-.921875h-12.726562c-.88639.034-1.316032-.2643281-1.707032-.7363281l-1.849609-2.4199219c-.2614-.4404-.457772-.84375-.888672-.84375zm12.2011722 7.8984375h2.3125c.0974 0 .182859.0287906.255859.0878906.0728.0590699.109141.1343099.119141.2246099l.292968 1.916015c.3402.1111.6527.240839.9375.386719l1.478516-1.115234c.0625-.062401.1458-.09375.25-.09375.0901 0 .176766.034115.259766.103515.8958.82646 1.46885 1.417195 1.71875 1.771485.049.055619.074218.131315.074218.228515 0 .08336-.027984.163734-.083984.240235-.1042.14588-.28135.377299-.53125.693359-.25.31606-.4376.560745-.5625.734375.1805.34725.323534.686251.427734 1.019531l1.90625.292969c.0903.0138.16275.055906.21875.128906v.001953c.055.073.082232.154141.082032.244141v2.3125c0 .0832-.027032.161281-.082032.238281-.0554.0766-.125984.122719-.208984.136719l-1.927734.291016c-.132.375-.26745.692218-.40625.949218.2431.3472.615334.8263 1.115234 1.4375.0692.0831.103516.169766.103516.259766 0 .0903-.03175.169281-.09375.238281-.1873.257-.53115.633953-1.03125 1.126953-.5.4932-.825916.738282-.978516.738282-.0833 0-.172531-.03175-.269531-.09375l-1.439453-1.125c-.3055.159699-.620866.292284-.947266.396484-.1111.9444-.210781 1.5902-.300781 1.9375-.0487.1946-.175353.291016-.376953.291016h-2.3125c-.09717 0-.181007-.030844-.253907-.089844-.0729-.0591-.114093-.132656-.121093-.222656l-.291016-1.917969c-.34022-.1112-.65264-.238866-.9375-.384766l-1.46875 1.115235c-.06943.063-.155566.09375-.259766.09375-.09717 0-.185218-.039235-.261718-.115235-.87505-.7915-1.4479504-1.3749-1.7187504-1.75-.0486-.0695-.0722656-.148281-.0722656-.238281 0-.0834.0283844-.163235.0839844-.240234.10407-.1459.28129-.37736.5312496-.69336.24995-.3161.43759-.560675.5625-.734375-.18756-.3471-.330534-.69105-.427734-1.03125l-1.90625-.28125c-.09027-.0138-.16315-.055906-.21875-.128906-.0557-.0729-.0839844-.156094-.0839844-.246094v-2.3125c0-.0833.0283844-.162281.0839844-.238281.05562-.0765.1209656-.122719.1972656-.136719l1.9375004-.291015c.09717-.31928.23262-.639605.40625-.958985-.27783-.39597-.648012-.87494-1.1132816-1.4375-.06947-.08324-.1054688-.1666-.1054688-.25 0-.06943.03125-.147981.09375-.238281.18066-.24996.5238434-.624504 1.0273434-1.121094.50349-.4966.831585-.74414.984375-.74414.09027 0 .179232.034115.269532.103515l1.4375 1.115235c.30558-.159691.622808-.292155.949218-.396485.11111-.94447.210482-1.59037.300782-1.9375.04858-.1944399.17363-.2910155.375-.2910155zm1.158203 5.3339845c.7362 0 1.364065.26048 1.884765.78125.5208.5209.78125 1.148566.78125 1.884766s-.26045 1.364065-.78125 1.884765c-.5207.5209-1.148565.78125-1.884765.78125-.73615 0-1.365829-.26035-1.886719-.78125-.52075-.5207-.78125-1.148565-.78125-1.884765 0-.736201.26037-1.363866.78125-1.884766.52089-.52077 1.150769-.78125 1.886719-.78125z"/></g></svg>