<?xml version="1.0" encoding="UTF-8" standalone="no"?>
<svg
   xmlns:dc="http://purl.org/dc/elements/1.1/"
   xmlns:cc="http://creativecommons.org/ns#"
   xmlns:rdf="http://www.w3.org/1999/02/22-rdf-syntax-ns#"
   xmlns:svg="http://www.w3.org/2000/svg"
   xmlns="http://www.w3.org/2000/svg"
   xmlns:sodipodi="http://sodipodi.sourceforge.net/DTD/sodipodi-0.dtd"
   xmlns:inkscape="http://www.inkscape.org/namespaces/inkscape"
   viewBox="984 984 32 32"
   version="1.1"
   id="svg8"
   sodipodi:docname="document-properties.svg"
   inkscape:version="0.92.4 5da689c313, 2019-01-14">
  <metadata
     id="metadata14">
    <rdf:RDF>
      <cc:Work
         rdf:about="">
        <dc:format>image/svg+xml</dc:format>
        <dc:type
           rdf:resource="http://purl.org/dc/dcmitype/StillImage" />
        <dc:title />
      </cc:Work>
    </rdf:RDF>
  </metadata>
  <defs
     id="defs12" />
  <sodipodi:namedview
     pagecolor="#ffffff"
     bordercolor="#666666"
     borderopacity="1"
     objecttolerance="10"
     gridtolerance="10"
     guidetolerance="10"
     inkscape:pageopacity="0"
     inkscape:pageshadow="2"
     inkscape:window-width="1366"
     inkscape:window-height="703"
     id="namedview10"
     showgrid="false"
     inkscape:zoom="7.375"
     inkscape:cx="-4.338983"
     inkscape:cy="15.87661"
     inkscape:window-x="0"
     inkscape:window-y="0"
     inkscape:window-maximized="1"
     inkscape:current-layer="svg8" />
  <g
     id="g818">
    <path
       inkscape:connector-curvature="0"
       id="path4-3"
       class="ColorScheme-Text"
       d="M 986.77778,986 C 986.34689,986 986,986.446 986,987 v 3.9218 2.0782 20.0782 c 0,0.5114 0.31927,0.9218 0.71701,0.9218 h 26.56599 c 0.3977,0 0.717,-0.4104 0.717,-0.9218 v -22.1564 c 0,-0.5114 -0.3193,-0.9218 -0.717,-0.9218 h -12.7263 c -0.88639,0.034 -1.31639,-0.2642 -1.70739,-0.7362 l -1.8486,-2.42 C 996.73931,986.4034 996.54201,986 996.11111,986 Z"
       style="color:#f2f2f2;fill:#4285f4;fill-opacity:1;stroke:none;stroke-width:1.76383412" />
    <path
       id="path4"
       class="ColorScheme-Text"
       d="m 1008.0524,1000.5182 c -0.056,-0.073 -0.1285,-0.1165 -0.2188,-0.1303 l -1.9062,-0.2917 c -0.1042,-0.33328 -0.2466,-0.6735 -0.4271,-1.02075 0.1249,-0.17363 0.3123,-0.41835 0.5623,-0.73441 0.2499,-0.31606 0.427,-0.54684 0.5312,-0.69272 0.056,-0.0765 0.083,-0.15624 0.083,-0.2396 0,-0.0972 -0.024,-0.1735 -0.073,-0.22912 -0.2499,-0.35429 -0.8229,-0.94447 -1.7187,-1.77093 -0.083,-0.0694 -0.1701,-0.10407 -0.2602,-0.10407 -0.1042,0 -0.1876,0.0312 -0.2501,0.0936 l -1.4791,1.11464 c -0.2848,-0.14588 -0.5973,-0.27438 -0.9375,-0.38548 l -0.2917,-1.91656 c -0.01,-0.0903 -0.047,-0.16493 -0.1198,-0.224 -0.073,-0.0591 -0.1579,-0.0885 -0.2553,-0.0885 h -2.31234 c -0.20137,0 -0.32642,0.0972 -0.375,0.29164 -0.0903,0.34713 -0.19102,0.99293 -0.30213,1.9374 -0.32641,0.10433 -0.64234,0.23628 -0.94792,0.39597 l -1.43748,-1.11465 c -0.0903,-0.0694 -0.18053,-0.10407 -0.2708,-0.10407 -0.15279,0 -0.48087,0.24816 -0.98436,0.74476 -0.5035,0.49659 -0.84538,0.8698 -1.02604,1.11976 -0.0625,0.0903 -0.0937,0.17017 -0.0937,0.2396 0,0.0834 0.0346,0.16672 0.10407,0.24996 0.46527,0.56256 0.83682,1.04164 1.11465,1.43761 -0.17363,0.31938 -0.30903,0.63894 -0.4062,0.95822 l -1.93753,0.2917 c -0.0763,0.014 -0.1423,0.059 -0.19792,0.1355 -0.0556,0.076 -0.0834,0.1562 -0.0834,0.2395 v 2.3125 c 0,0.09 0.0277,0.1718 0.0834,0.2447 0.0556,0.073 0.1285,0.1166 0.21877,0.1304 l 1.90633,0.2813 c 0.0972,0.3402 0.23947,0.6839 0.42703,1.031 -0.12491,0.1737 -0.31248,0.4184 -0.56243,0.7345 -0.24996,0.316 -0.42717,0.5468 -0.53124,0.6927 -0.0556,0.077 -0.0834,0.1562 -0.0834,0.2396 0,0.09 0.0243,0.17 0.0729,0.2395 0.2708,0.3751 0.84372,0.9585 1.71877,1.75 0.0765,0.076 0.16327,0.1146 0.26044,0.1146 0.1042,0 0.19101,-0.031 0.26044,-0.094 l 1.46881,-1.1148 c 0.28486,0.1459 0.59734,0.2744 0.93756,0.3856 l 0.29164,1.9166 c 0.007,0.09 0.0469,0.1649 0.1198,0.224 0.0729,0.059 0.15803,0.089 0.2552,0.089 h 2.31248 c 0.2016,0 0.3266,-0.097 0.3753,-0.2916 0.09,-0.3473 0.1907,-0.993 0.3018,-1.9374 0.3264,-0.1042 0.6425,-0.2363 0.948,-0.396 l 1.4376,1.1251 c 0.097,0.062 0.1875,0.094 0.2708,0.094 0.1526,0 0.479,-0.2463 0.979,-0.7395 0.5001,-0.493 0.8438,-0.8681 1.0311,-1.1251 0.062,-0.069 0.094,-0.1492 0.094,-0.2395 0,-0.09 -0.035,-0.1773 -0.1042,-0.2604 -0.4999,-0.6112 -0.8715,-1.0903 -1.1146,-1.4375 0.1388,-0.257 0.2743,-0.5729 0.4063,-0.9479 l 1.927,-0.2916 c 0.083,-0.014 0.153,-0.059 0.2084,-0.1356 0.055,-0.077 0.083,-0.1564 0.083,-0.2396 v -2.3124 c 2e-4,-0.09 -0.028,-0.1717 -0.083,-0.2447 z m -6.0311,3.2655 c -0.5207,0.5209 -1.1493,0.7813 -1.8855,0.7813 -0.73615,0 -1.36453,-0.2604 -1.88542,-0.7813 -0.52075,-0.5207 -0.78119,-1.1491 -0.78119,-1.8853 0,-0.7362 0.26031,-1.3646 0.78119,-1.8855 0.52089,-0.52077 1.14947,-0.78121 1.88542,-0.78121 0.7362,0 1.3648,0.26044 1.8855,0.78121 0.5208,0.5209 0.7812,1.1493 0.7812,1.8855 0,0.7362 -0.2604,1.3646 -0.7812,1.8853 z"
       style="fill:#ffffff;fill-opacity:1;stroke:none"
       inkscape:connector-curvature="0" />
  </g>
</svg>
