<?xml version="1.0" encoding="UTF-8" standalone="no"?>
<svg
   xmlns:dc="http://purl.org/dc/elements/1.1/"
   xmlns:cc="http://creativecommons.org/ns#"
   xmlns:rdf="http://www.w3.org/1999/02/22-rdf-syntax-ns#"
   xmlns:svg="http://www.w3.org/2000/svg"
   xmlns="http://www.w3.org/2000/svg"
   xmlns:sodipodi="http://sodipodi.sourceforge.net/DTD/sodipodi-0.dtd"
   xmlns:inkscape="http://www.inkscape.org/namespaces/inkscape"
   viewBox="0 0 32 32"
   version="1.1"
   id="svg6"
   sodipodi:docname="document-new.svg"
   inkscape:version="0.92.4 5da689c313, 2019-01-14"
   width="32"
   height="32">
  <metadata
     id="metadata10">
    <rdf:RDF>
      <cc:Work
         rdf:about="">
        <dc:format>image/svg+xml</dc:format>
        <dc:type
           rdf:resource="http://purl.org/dc/dcmitype/StillImage" />
        <dc:title />
      </cc:Work>
    </rdf:RDF>
  </metadata>
  <sodipodi:namedview
     pagecolor="#ffffff"
     bordercolor="#666666"
     borderopacity="1"
     objecttolerance="10"
     gridtolerance="10"
     guidetolerance="10"
     inkscape:pageopacity="0"
     inkscape:pageshadow="2"
     inkscape:window-width="1366"
     inkscape:window-height="703"
     id="namedview8"
     showgrid="false"
     inkscape:zoom="10.727273"
     inkscape:cx="7.3583605"
     inkscape:cy="18.457627"
     inkscape:window-x="0"
     inkscape:window-y="0"
     inkscape:window-maximized="1"
     inkscape:current-layer="svg6" />
  <defs
     id="defs3051">
    <style
       type="text/css"
       id="current-color-scheme">
     .ColorScheme-Text {
       color:#f2f2f2;
     }
     </style>
  </defs>
  <g
     id="g819">
    <path
       inkscape:connector-curvature="0"
       id="path4-3"
       class="ColorScheme-Text"
       d="M 2.777778,1.9999997 C 2.346889,1.9999997 2,2.4459998 2,2.9999997 V 6.9217993 8.9999994 29.078199 C 2,29.589599 2.319271,30 2.717014,30 H 29.282985 C 29.680728,30 30,29.5896 30,29.078199 V 6.9217993 C 30,6.4103994 29.680728,5.9999995 29.282985,5.9999995 H 16.556739 c -0.886457,0.034 -1.31646,-0.2642001 -1.707424,-0.7362002 L 13.000691,2.8437998 c -0.261411,-0.4404 -0.458691,-0.8438 -0.88958,-0.8438 z"
       style="color:#f2f2f2;fill:#4285f4;fill-opacity:1;stroke:none;stroke-width:1.76383412" />
    <path
       d="M 15.858479,11.458523 9.8639838,19.04601 c -1.1239721,1.422653 -0.8093207,3.956812 0.6292812,5.068317 1.438625,1.111493 4.0012,0.800343 5.125173,-0.62231 l 5.994496,-7.587499 0.749296,-0.948436 c 0.749319,-0.948435 0.539558,-2.63787 -0.41951,-3.378869 -0.959079,-0.740999 -2.667466,-0.533574 -3.416774,0.414873 l -0.749319,0.948435 -4.495869,5.690616 -0.749307,0.948436 c -0.374666,0.474218 -0.269774,1.31894 0.20976,1.689446 0.479534,0.370483 1.333734,0.266781 1.708387,-0.207437 l 5.245176,-6.639062 0.95908,0.740999 -5.245176,6.639051 c -0.74932,0.948447 -2.457706,1.155884 -3.416775,0.414873 -0.959079,-0.740999 -1.168851,-2.430434 -0.419543,-3.37887 l 0.749319,-0.948436 5.245188,-6.639051 c 1.123961,-1.4226649 3.686536,-1.7338019 5.12516,-0.622309 1.438614,1.111493 1.753267,3.645651 0.629294,5.068305 l -0.749308,0.948447 -5.994495,7.587476 C 15.078879,26.129888 11.662105,26.544761 9.7439578,25.062763 7.8258102,23.580752 7.4062778,20.201894 8.9049045,18.30501 L 14.8994,10.717523 Z"
       id="path13"
       inkscape:connector-curvature="0"
       style="fill:#ffffff;stroke-width:1.13499737" />
  </g>
</svg>
