<?xml version="1.0" encoding="UTF-8" standalone="no"?>
<svg
   xmlns:dc="http://purl.org/dc/elements/1.1/"
   xmlns:cc="http://creativecommons.org/ns#"
   xmlns:rdf="http://www.w3.org/1999/02/22-rdf-syntax-ns#"
   xmlns:svg="http://www.w3.org/2000/svg"
   xmlns="http://www.w3.org/2000/svg"
   xmlns:sodipodi="http://sodipodi.sourceforge.net/DTD/sodipodi-0.dtd"
   xmlns:inkscape="http://www.inkscape.org/namespaces/inkscape"
   viewBox="0 0 32 32"
   version="1.1"
   id="svg4"
   sodipodi:docname="download.svg"
   inkscape:version="1.0.1 (3bc2e813f5, 2020-09-07)"
   width="32"
   height="32">
  <metadata
     id="metadata10">
    <rdf:RDF>
      <cc:Work
         rdf:about="">
        <dc:format>image/svg+xml</dc:format>
        <dc:type
           rdf:resource="http://purl.org/dc/dcmitype/StillImage" />
        <dc:title />
      </cc:Work>
    </rdf:RDF>
  </metadata>
  <defs
     id="defs8" />
  <sodipodi:namedview
     pagecolor="#ffffff"
     bordercolor="#666666"
     borderopacity="1"
     objecttolerance="10"
     gridtolerance="10"
     guidetolerance="10"
     inkscape:pageopacity="0"
     inkscape:pageshadow="2"
     inkscape:window-width="1366"
     inkscape:window-height="702"
     id="namedview6"
     showgrid="false"
     inkscape:zoom="10.727273"
     inkscape:cx="2.5169493"
     inkscape:cy="11"
     inkscape:window-x="0"
     inkscape:window-y="0"
     inkscape:window-maximized="1"
     inkscape:current-layer="svg4"
     inkscape:document-rotation="0" />
  <path
     inkscape:connector-curvature="0"
     d="M 14.672297,16.017962 4.0506028,6.4642494 c -0.734137,-0.6603266 -0.734137,-1.728087 0,-2.381391 L 5.8157014,2.4952443 c 0.734137,-0.6603267 1.9212713,-0.6603267 2.6475966,0 l 7.52889,6.7718945 7.528913,-6.7718945 c 0.734137,-0.6603267 1.92127,-0.6603267 2.647595,0 l 1.780702,1.5805724 c 0.734136,0.6603457 0.734136,1.7281061 0,2.3814101 L 17.327703,16.010959 c -0.734137,0.667347 -1.92125,0.667347 -2.655406,0.0074 z m 2.655406,13.487623 10.621695,-9.553733 c 0.734136,-0.660327 0.734136,-1.728087 0,-2.381391 l -1.765077,-1.587612 c -0.734158,-0.660328 -1.921272,-0.660328 -2.64762,0 L 16,22.747737 8.4711096,15.975826 c -0.7341369,-0.660327 -1.9212712,-0.660327 -2.647617,0 L 4.0506028,17.56342 c -0.734137,0.660345 -0.734137,1.728105 0,2.38141 l 10.6216942,9.553715 c 0.734156,0.667369 1.921269,0.667369 2.655406,0.0074 z"
     id="path2-3"
     style="fill:#6cc24a;fill-opacity:1;stroke-width:0.0740703" />
</svg>
