<svg height="32" viewBox="0 0 32 32" width="32" xmlns="http://www.w3.org/2000/svg"><path d="m14.672297 16.017964-10.6216942-9.553712c-.734137-.6603282-.734137-1.7280867 0-2.3813922l1.7650985-1.5876122c.7341369-.6603282 1.9212712-.6603282 2.6475964 0l7.5288903 6.7718929 7.528913-6.7718929c.734138-.6603282 1.92127-.6603282 2.647595 0l1.780702 1.5805705c.734136.6603472.734136 1.7281073 0 2.3814112l-10.621694 9.5537307c-.734138.667348-1.92125.667348-2.655407.0074zm2.655407 13.48762 10.621694-9.553731c.734136-.660326.734136-1.728087 0-2.381391l-1.765078-1.587612c-.734157-.660326-1.921272-.660326-2.647618 0l-7.536702 6.764886-7.5288907-6.771908c-.7341368-.660327-1.9212711-.660327-2.647617 0l-1.7728895 1.587593c-.734137.660345-.734137 1.728106 0 2.381409l10.6216942 9.553714c.734157.667368 1.921269.667368 2.655407.0074z" fill="#6cc24a" stroke-width=".07407"/></svg>