<svg height="32" viewBox="0 0 32 32" width="32" xmlns="http://www.w3.org/2000/svg"><path d="m14.672297 16.017962-10.6216942-9.5537126c-.734137-.6603266-.734137-1.728087 0-2.381391l1.7650986-1.5876141c.734137-.6603267 1.9212713-.6603267 2.6475966 0l7.52889 6.7718945 7.528913-6.7718945c.734137-.6603267 1.92127-.6603267 2.647595 0l1.780702 1.5805724c.734136.6603457.734136 1.7281061 0 2.3814101l-10.621695 9.5537322c-.734137.667347-1.92125.667347-2.655406.0074zm2.655406 13.487623 10.621695-9.553733c.734136-.660327.734136-1.728087 0-2.381391l-1.765077-1.587612c-.734158-.660328-1.921272-.660328-2.64762 0l-7.536701 6.764888-7.5288904-6.771911c-.7341369-.660327-1.9212712-.660327-2.647617 0l-1.7728898 1.587594c-.734137.660345-.734137 1.728105 0 2.38141l10.6216942 9.553715c.734156.667369 1.921269.667369 2.655406.0074z" fill="#008000" stroke-width=".07407"/></svg>