<svg height="32" viewBox="0 0 32 32" width="32" xmlns="http://www.w3.org/2000/svg"><path d="m2.503906 2.0021653c-.279509 0-.503906.2980216-.503906.6679688v27.2499999l28 .08008v-23.3867206c0-.3699455-.224398-.6679687-.503906-.6679687h-15.177735c-.514248.060212-.581821-.03152-.835937-.4804687-.360362-.6383147-.903046-2.3597705-1.257813-2.9824219-.284754-.545149-.332431-.4804688-.804687-.4804688zm18.144532 6.8320313c.15164-.020066.305468.018055.427734.1074218l2.628906 1.9238276c.254488.186192.304373.535838.111328.78125l-1.113281 1.414063-3.550781-2.597656 1.113281-1.4140627c.0927-.1178131.231139-.1947737.382813-.2148437zm-1.845704 2.0742184 3.550782 2.597656-.384766.490235-3.550781-2.597656zm-.734375.935547 3.550782 2.597656-.386719.490235-3.552734-2.595703zm-.738281.935547 3.550781 2.597656-7.58789 9.644531c-.05397.06874-.124598.125403-.205078.164063l-3.31836 1.585937c-.0571.02733-.116776.04464-.177734.05274-.149475.01978-.305659-.01845-.429688-.109375-.175144-.128071-.259198-.338667-.21875-.546875l.689454-3.509766c.01691-.08456.05531-.163632.109375-.232422z" fill="#4285f4"/></svg>