<svg viewBox="0 0 32 32" xmlns="http://www.w3.org/2000/svg"><path d="m11.914188 4.5c-2.8942942 0-5.3706442 1.9552587-5.3706442 5.685427 0 2.435312 1.1336848 4.907755 2.6346 6.435055.58506 1.529113-.460365 2.09691-.6790803 2.175901-2.0392947.657095-7.58578424 3.932684-7.4980342 8.703617h13.5590227 8.357444 8.081295c.0735-3.418203-3.21822-5.63753-5.81865-6.527717-.1086-.03536-.795525-.345186-.366315-1.645261h-.006c1.11885-1.148189 1.97523-2.996052 1.97523-4.815065 0-2.796943-1.868475-4.261957-4.037834-4.261957-2.170726 0-4.02657 1.464338-4.02657 4.261957 0 1.826502.849554 3.683638 1.975244 4.829109.438796 1.146837-.345974 1.571979-.51 1.631217-.16983.05477-.38049.142313-.60582.244275-1.375498-1.101498-2.970058-1.924438-4.418234-2.420175-.1449-.04715-1.059764-.459325-.48747-2.192748h-.009c1.491856-1.530923 2.631826-3.992872 2.63184-6.418208 0-3.7292626-2.489444-5.685427-5.381894-5.685427z" fill="#4285f4"/></svg>