<?xml version="1.0" encoding="UTF-8" standalone="no"?>
<svg
   xmlns:dc="http://purl.org/dc/elements/1.1/"
   xmlns:cc="http://creativecommons.org/ns#"
   xmlns:rdf="http://www.w3.org/1999/02/22-rdf-syntax-ns#"
   xmlns:svg="http://www.w3.org/2000/svg"
   xmlns="http://www.w3.org/2000/svg"
   xmlns:sodipodi="http://sodipodi.sourceforge.net/DTD/sodipodi-0.dtd"
   xmlns:inkscape="http://www.inkscape.org/namespaces/inkscape"
   viewBox="0 0 32 32"
   version="1.1"
   id="svg6"
   sodipodi:docname="edit-find.svg"
   inkscape:version="0.92.4 5da689c313, 2019-01-14"
   width="32"
   height="32">
  <metadata
     id="metadata10">
    <rdf:RDF>
      <cc:Work
         rdf:about="">
        <dc:format>image/svg+xml</dc:format>
        <dc:type
           rdf:resource="http://purl.org/dc/dcmitype/StillImage" />
        <dc:title />
      </cc:Work>
    </rdf:RDF>
  </metadata>
  <sodipodi:namedview
     pagecolor="#ffffff"
     bordercolor="#666666"
     borderopacity="1"
     objecttolerance="10"
     gridtolerance="10"
     guidetolerance="10"
     inkscape:pageopacity="0"
     inkscape:pageshadow="2"
     inkscape:window-width="1366"
     inkscape:window-height="703"
     id="namedview8"
     showgrid="false"
     inkscape:zoom="10.727273"
     inkscape:cx="30.716101"
     inkscape:cy="11"
     inkscape:window-x="0"
     inkscape:window-y="0"
     inkscape:window-maximized="1"
     inkscape:current-layer="svg6" />
  <defs
     id="defs3051">
    <style
       type="text/css"
       id="current-color-scheme">
     .ColorScheme-Text {
       color:#f2f2f2;
     }
     </style>
  </defs>
  <path
     style="color:#f2f2f2;fill:#4285f4;fill-opacity:1;stroke:none;stroke-width:1.80794227"
     d="M 13.821754,2.0070454 C 12.598703,2.0457182 11.404306,2.2568261 10.23916,2.6393368 8.6854328,3.1491354 7.3264541,3.8817487 6.160393,4.8403791 4.9943321,5.7990095 4.0415116,6.9667707 3.300157,8.3435923 2.5585784,9.7206063 2.1349366,11.187111 2.0269154,12.738852 c -0.1079651,1.55176 0.1087123,3.052265 0.6530398,4.508059 0.5441967,1.455357 1.3298579,2.728671 2.353136,3.821065 1.0232594,1.092585 2.2698086,1.988237 3.7394608,2.682947 1.469877,0.694728 3.031618,1.091605 4.688024,1.192802 2.548669,0.155741 4.906979,-0.37719 7.073959,-1.596102 l 5.570908,5.933266 c 0.388207,0.437825 0.895401,0.676073 1.521318,0.714308 0.602252,0.03675 1.136792,-0.137366 1.605226,-0.522922 0.468863,-0.385258 0.723216,-0.861005 0.762499,-1.425206 0.04016,-0.574773 -0.138972,-1.076241 -0.539938,-1.503813 L 23.88364,20.596325 c 1.571528,-1.854596 2.438686,-3.976631 2.604855,-6.363898 C 26.596461,12.680668 26.379783,11.176349 25.835474,9.7209564 25.291296,8.2653892 24.509258,6.9922842 23.48598,5.8998913 22.462702,4.8074985 21.216191,3.9148742 19.74652,3.2203563 18.276437,2.5256108 16.711261,2.1253386 15.054855,2.0241419 14.640759,1.9987683 14.229426,1.9942185 13.821754,2.0066428 Z m 0.944883,4.1867766 c 2.142847,0.1308926 3.924158,0.9545008 5.348364,2.4744642 1.423983,1.5199638 2.066021,3.2832508 1.926282,5.2907188 -0.139719,2.007661 -1.018888,3.679848 -2.641354,5.013868 -1.622671,1.334019 -3.508083,1.935529 -5.651154,1.804585 C 11.605928,20.646565 9.8244278,19.819526 8.4004271,18.299581 6.9764452,16.779424 6.3343888,15.016541 6.4741458,13.008863 6.6138654,11.001394 7.4966953,9.3322334 9.1191426,7.9984069 10.741591,6.6643703 12.623789,6.0628945 14.766637,6.193822 Z"
     class="ColorScheme-Text"
     id="path4"
     inkscape:connector-curvature="0"
     sodipodi:nodetypes="ccscccccccccccccccsccccccccccccc" />
</svg>
