<svg height="32" viewBox="0 0 32 32" width="32" xmlns="http://www.w3.org/2000/svg"><path d="m22.999984 7.2500022h-19.249975c-.9660083 0-1.7500087.7840013-1.7500087 1.7499857v19.2500031c0 .966007.7840004 1.750009 1.7500087 1.750009h19.249975c.966009 0 1.750011-.784002 1.750011-1.750009v-19.2500031c0-.9659844-.784002-1.7499857-1.750011-1.7499857zm5.250005-5.2500022h-17.499992c-.9660081 0-1.7500089.7840013-1.7500089 1.7500083v1.7499857h1.7500089v-.8750056c0-.4829921.392011-.8749801.875003-.8749801h15.749986c.483018 0 .875003.391988.875003.8749801v15.7500096c0 .482993-.391985.875006-.875003.875006h-.874979v1.749983h1.749982c.96601 0 1.750011-.784002 1.750011-1.749983v-17.4999957c0-.966007-.784001-1.7500083-1.750011-1.7500083z" fill="#1e90ff" stroke-width="2.333333"/></svg>