<svg height="32" viewBox="0 0 32 32" width="32" xmlns="http://www.w3.org/2000/svg"><path d="m3.6822033 1.8813557c-.969535 0-1.7499999.7804658-1.7499999 1.7499998v24.5000005c0 .969536.7804649 1.75 1.7499999 1.75h24.4999997c.969534 0 1.750001-.780464 1.750001-1.75v-24.5000005c0-.969534-.780467-1.7499998-1.750001-1.7499998z" fill="#4285f4" transform="translate(.067796 .118644)"/><g fill="#fff" transform="matrix(.03436213213 -.00454696714 .0047162179 .03312897943 6.27426487826 8.84969408979)"><path d="m306.668 92.094 90.873 90.87 13.057-13.046-90.868-90.872z"/><path d="m294.878 103.885-256.004 256.017c-1.824 1.826-3.211 4.043-4.038 6.482l-33.957 101.262c-2.002 6.01-.457 12.619 4.025 17.1 3.173 3.18 7.44 4.887 11.79 4.887 1.774 0 3.567-.277 5.309-.863l101.246-33.973c2.456-.83 4.673-2.196 6.494-4.021l256.003-256.018z"/><path d="m331.52 67.257 90.868 90.874 13.03-13.045-90.873-90.871z"/><path d="m484.732 72.193-67.274-67.306c-3.129-3.127-7.382-4.887-11.795-4.887-4.414 0-8.663 1.76-11.79 4.887l-37.533 37.537 90.868 90.872 37.524-37.522c6.512-6.514 6.512-17.067 0-23.581z"/></g></svg>