<?xml version="1.0" encoding="UTF-8" standalone="no"?>
<svg
   xmlns:dc="http://purl.org/dc/elements/1.1/"
   xmlns:cc="http://creativecommons.org/ns#"
   xmlns:rdf="http://www.w3.org/1999/02/22-rdf-syntax-ns#"
   xmlns:svg="http://www.w3.org/2000/svg"
   xmlns="http://www.w3.org/2000/svg"
   xmlns:sodipodi="http://sodipodi.sourceforge.net/DTD/sodipodi-0.dtd"
   xmlns:inkscape="http://www.inkscape.org/namespaces/inkscape"
   viewBox="0 0 32 32"
   version="1.1"
   id="svg6"
   sodipodi:docname="edit-clear.svg"
   inkscape:version="0.92.4 5da689c313, 2019-01-14"
   width="32"
   height="32">
  <metadata
     id="metadata10">
    <rdf:RDF>
      <cc:Work
         rdf:about="">
        <dc:format>image/svg+xml</dc:format>
        <dc:type
           rdf:resource="http://purl.org/dc/dcmitype/StillImage" />
        <dc:title />
      </cc:Work>
    </rdf:RDF>
  </metadata>
  <sodipodi:namedview
     pagecolor="#ffffff"
     bordercolor="#666666"
     borderopacity="1"
     objecttolerance="10"
     gridtolerance="10"
     guidetolerance="10"
     inkscape:pageopacity="0"
     inkscape:pageshadow="2"
     inkscape:window-width="1366"
     inkscape:window-height="703"
     id="namedview8"
     showgrid="false"
     inkscape:zoom="10.727273"
     inkscape:cx="-25.355931"
     inkscape:cy="11"
     inkscape:window-x="0"
     inkscape:window-y="0"
     inkscape:window-maximized="1"
     inkscape:current-layer="svg6" />
  <defs
     id="defs3051">
    <style
       type="text/css"
       id="current-color-scheme">
      .ColorScheme-Text {
        color:#eff0f1;
      }
      </style>
  </defs>
  <path
     style="color:#eff0f1;fill:#f25022;fill-opacity:1;stroke:none;stroke-width:1.76827025"
     d="M 28.41984,1.9999999 22.496014,12.029098 18.113374,9.5546473 16.260407,12.517255 26.510187,18.307804 28.363153,15.341831 24.054916,12.907779 30,2.8416508 Z M 9.255979,7.5919205 A 1.8139947,1.7236985 0 0 0 7.4419841,9.315619 1.8139947,1.7236985 0 0 0 9.255979,11.039318 1.8139947,1.7236985 0 0 0 11.069974,9.315619 1.8139947,1.7236985 0 0 0 9.255979,7.5919205 Z M 2.9069974,9.315619 A 0.90699735,0.86184921 0 0 0 2,10.177469 0.90699735,0.86184921 0 0 0 2.9069974,11.039318 0.90699735,0.86184921 0 0 0 3.8139947,10.177469 0.90699735,0.86184921 0 0 0 2.9069974,9.315619 Z m 2.720992,3.447396 a 1.8139947,1.7236985 0 0 0 -1.8139947,1.723699 1.8139947,1.7236985 0 0 0 1.8139947,1.723699 1.8139947,1.7236985 0 0 0 1.8139947,-1.723699 1.8139947,1.7236985 0 0 0 -1.8139947,-1.723699 z m 9.0699736,1.723699 C 12.669033,17.18304 8.957587,19.331848 2,19.657809 v 1.723699 C 5.8342651,27.193288 11.069974,30 18.325952,30 h 1.813995 c 2.378598,-2.735846 4.276516,-5.22691 5.441984,-8.618492 v -1.723699 l -9.069974,-5.171095 z m 0.960142,1.898761 7.851196,4.477577 c -1.039107,2.665943 -2.670233,5.004956 -4.687334,7.359384 -5.938,0.05386 -11.284262,-2.461807 -14.4162982,-7.133822 5.6564282,-0.535412 9.1054262,-2.214559 11.2524362,-4.703139 z"
     class="ColorScheme-Text"
     id="path4"
     inkscape:connector-curvature="0" />
</svg>
