<svg height="32" viewBox="0 0 32 32" width="32" xmlns="http://www.w3.org/2000/svg"><g fill="none" stroke="#f25022" stroke-width="32" transform="matrix(0 -.06681045 -.06534121 0 32.72735 33.138146)"><circle cx="104" cy="152" r="56" stroke-linecap="round" stroke-linejoin="round"/><circle cx="104" cy="360" r="56" stroke-linecap="round" stroke-linejoin="round"/><g stroke-miterlimit="10"><path d="m157 175-11 15 37 15s3.46-6.42 7-10z" stroke-linecap="square"/><path d="m154.17 334.43 305.83-172.43c-2.5-6.7-28-12-64-4-29.12 6.47-121.16 29.05-159.16 56.05-30.99 22.01-9.84 57.95-44.84 83.95-25.61 19-44.43 22.82-44.43 22.82zm190.3-56.19-49.47 28.43c14.23 6.74 65.54 33.27 117 36.33 14.92.89 30 .39 39-6z" stroke-linecap="round"/><circle cx="256" cy="240" r="32"/></g></g></svg>