<?xml version="1.0" encoding="UTF-8" standalone="no"?>
<svg
   xmlns:dc="http://purl.org/dc/elements/1.1/"
   xmlns:cc="http://creativecommons.org/ns#"
   xmlns:rdf="http://www.w3.org/1999/02/22-rdf-syntax-ns#"
   xmlns:svg="http://www.w3.org/2000/svg"
   xmlns="http://www.w3.org/2000/svg"
   xmlns:sodipodi="http://sodipodi.sourceforge.net/DTD/sodipodi-0.dtd"
   xmlns:inkscape="http://www.inkscape.org/namespaces/inkscape"
   viewBox="0 0 32 32"
   version="1.1"
   id="svg6"
   sodipodi:docname="edit-cut.svg"
   inkscape:version="1.0.1 (3bc2e813f5, 2020-09-07)"
   width="32"
   height="32">
  <metadata
     id="metadata10">
    <rdf:RDF>
      <cc:Work
         rdf:about="">
        <dc:format>image/svg+xml</dc:format>
        <dc:type
           rdf:resource="http://purl.org/dc/dcmitype/StillImage" />
        <dc:title />
      </cc:Work>
    </rdf:RDF>
  </metadata>
  <sodipodi:namedview
     pagecolor="#ffffff"
     bordercolor="#666666"
     borderopacity="1"
     objecttolerance="10"
     gridtolerance="10"
     guidetolerance="10"
     inkscape:pageopacity="0"
     inkscape:pageshadow="2"
     inkscape:window-width="1366"
     inkscape:window-height="702"
     id="namedview8"
     showgrid="false"
     inkscape:zoom="10.727273"
     inkscape:cx="-25.355931"
     inkscape:cy="11"
     inkscape:window-x="0"
     inkscape:window-y="0"
     inkscape:window-maximized="1"
     inkscape:current-layer="svg6"
     inkscape:document-rotation="0" />
  <defs
     id="defs3051">
    <style
       type="text/css"
       id="current-color-scheme">
     .ColorScheme-Text {
       color:#f2f2f2;
     }
     </style>
  </defs>
  <path
     style="color:#f2f2f2;fill:#ff9642;fill-opacity:1;stroke:none;stroke-width:1.5986104"
     d="M 9.8876238,0.99999838 9.219785,2.2923167 c -0.4138821,0.80211 -0.7725996,1.1813149 -0.9643228,1.89453 -0.095861,0.3566083 -0.093929,0.7832056 0.00299,1.1686195 0.096933,0.3854165 0.264697,0.7546643 0.5001302,1.2109382 L 13.96353,16.670572 11.334103,21.709634 C 10.64662,21.247199 9.9676416,20.723306 9.1029881,20.723306 c -2.5427058,0 -4.6029946,2.314958 -4.6029946,5.139974 0,2.825014 2.0602883,5.136719 4.6029946,5.136719 2.5427069,0 4.6029959,-2.311705 4.6029939,-5.136719 0,-0.223257 -0.03217,-0.432271 -0.05689,-0.644531 0.708781,-1.672615 1.377762,-2.981046 2.773176,-3.746745 0.0047,-0.0057 0.0044,-0.0073 0.0091,-0.01304 l 1.922657,3.730467 c -0.0264,0.223391 -0.05989,0.443004 -0.05989,0.673829 -1.16e-4,2.825037 2.060169,5.136742 4.602877,5.136742 2.542707,0 4.602995,-2.311705 4.602995,-5.136719 0,-2.825016 -2.060289,-5.139974 -4.602995,-5.139974 -0.861365,0 -1.540098,0.514238 -2.22513,0.973308 L 18.051425,16.670572 23.262363,6.5664044 v -0.00313 c 0.234497,-0.4547009 0.400444,-0.8232365 0.497135,-1.2076865 0.09692,-0.3854152 0.101706,-0.8120116 0.006,-1.1686183 C 23.573608,3.4738158 23.215046,3.0945425 22.801164,2.2924325 L 22.133325,0.99999838 16.008977,12.748045 Z M 9.1029881,24.141276 c 0.8531588,0 1.5273449,0.747334 1.5273449,1.722004 0,0.974672 -0.6741861,1.718751 -1.5273449,1.718751 -0.8531586,0 -1.5243489,-0.744079 -1.5243489,-1.718751 0,-0.974671 0.6711903,-1.722004 1.5243489,-1.722004 z m 13.7940109,0 c 0.853156,0 1.524347,0.747334 1.524349,1.722004 0,0.974672 -0.671193,1.718751 -1.524349,1.718751 -0.853161,0 -1.527344,-0.744079 -1.527344,-1.718751 0,-0.974671 0.674183,-1.722004 1.527344,-1.722004 z"
     class="ColorScheme-Text"
     id="path4"
     inkscape:connector-curvature="0" />
</svg>
