<svg height="32" viewBox="0 0 32 32" width="32" xmlns="http://www.w3.org/2000/svg"><path d="m9.8876238.99999838-.6678388 1.29231832c-.4138821.80211-.7725996 1.1813149-.9643228 1.89453-.095861.3566083-.093929.7832056.00299 1.1686195.096933.3854165.264697.7546643.5001302 1.2109382l5.2049476 10.1041676-2.629427 5.039062c-.687483-.462435-1.3664614-.986328-2.2311149-.986328-2.5427058 0-4.6029946 2.314958-4.6029946 5.139974 0 2.825014 2.0602883 5.136719 4.6029946 5.136719 2.5427069 0 4.6029959-2.311705 4.6029939-5.136719 0-.223257-.03217-.432271-.05689-.644531.708781-1.672615 1.377762-2.981046 2.773176-3.746745.0047-.0057.0044-.0073.0091-.01304l1.922657 3.730467c-.0264.223391-.05989.443004-.05989.673829-.000116 2.825037 2.060169 5.136742 4.602877 5.136742 2.542707 0 4.602995-2.311705 4.602995-5.136719 0-2.825016-2.060289-5.139974-4.602995-5.139974-.861365 0-1.540098.514238-2.22513.973308l-2.620457-5.026045 5.210938-10.1041676v-.00313c.234497-.4547009.400444-.8232365.497135-1.2076865.09692-.3854152.101706-.8120116.006-1.1686183-.19189-.7131538-.550452-1.0924271-.964334-1.8945371l-.667839-1.29243412-6.124348 11.74804662zm-.7846357 23.14127762c.8531588 0 1.5273449.747334 1.5273449 1.722004 0 .974672-.6741861 1.718751-1.5273449 1.718751-.8531586 0-1.5243489-.744079-1.5243489-1.718751 0-.974671.6711903-1.722004 1.5243489-1.722004zm13.7940109 0c.853156 0 1.524347.747334 1.524349 1.722004 0 .974672-.671193 1.718751-1.524349 1.718751-.853161 0-1.527344-.744079-1.527344-1.718751 0-.974671.674183-1.722004 1.527344-1.722004z" fill="#f25022"/></svg>