<svg height="32" viewBox="0 0 32 32" width="32" xmlns="http://www.w3.org/2000/svg"><path d="m8.0653163 29.928552h15.8687697c1.423144 0 2.55519-1.090847 2.402094-2.347765-.988294-8.098649-6.886434-7.964721-6.886434-11.580787s5.97361-3.415174 6.885716-11.580787c.143751-1.2575875-.978232-2.3477645-2.401376-2.3477645h-15.8687697c-1.4231436 0-2.542252 1.090177-2.4013751 2.3477645.9121056 8.165613 6.8857148 7.897757 6.8857148 11.580787s-5.8981394 3.482138-6.8857148 11.580787c-.1538145 1.256918.9782315 2.347765 2.4013751 2.347765z" fill="none" stroke="#4285f4" stroke-linecap="round" stroke-linejoin="round" stroke-width="2.22005"/><path d="m22.274471 27.785697h-12.5186326c-1.1212646 0-1.4375188-1.205355-.651196-1.952675 1.9032746-1.797319 5.7450436-3.084371 5.7450436-5.145529v-6.830347c0-1.329239-2.731285-2.343747-4.421089-4.4999936-.278878-.3555799-.250847-.8571416.45785-.8571416h10.258853c.604477 0 .735291.4975439.460006.8537934-1.665366 2.1595948-4.45559 3.1674058-4.45559 4.5033418v6.830347c0 2.044417 4.004209 3.147317 5.778826 5.147538.715166.806248.465037 1.950666-.654071 1.950666z" fill="#db3236" stroke="#db3236" stroke-width=".069377"/></svg>