<svg height="32" viewBox="0 0 32 32" width="32" xmlns="http://www.w3.org/2000/svg"><path d="m15.993709 2c-1.277876 0-2.283777 1.1966797-2.283777 2.6044918v14.3247072c0 1.407812 1.004406 2.60791 2.283777 2.60791 1.27937 0 2.286918-1.200098 2.286918-2.60791v-14.3247072c0-1.4078121-1.009044-2.6044918-2.286918-2.6044918zm.0063 21.475097c-.802259 0-1.557265.337509-2.123567.953613-.565275.61505-.876442 1.431978-.876442 2.30713 0 .875182.310197 1.694384.876442 2.310546.566309.616191 1.321342.953614 2.123549.953614.802257 0 1.557267-.337509 2.123566-.953614.566328-.61619.876443-1.435421.876443-2.310546 0-.87521-.31127-1.69211-.876443-2.30713-.566326-.61619-1.321337-.953617-2.123566-.953613z" fill="#db3236" stroke-width="1.677697"/></svg>