<?xml version="1.0" encoding="UTF-8" standalone="no"?>
<svg
   height="110.001"
   width="93"
   version="1"
   id="svg97"
   sodipodi:docname="fileicon.svg"
   inkscape:version="1.1 (c4e8f9ed74, 2021-05-24)"
   xmlns:inkscape="http://www.inkscape.org/namespaces/inkscape"
   xmlns:sodipodi="http://sodipodi.sourceforge.net/DTD/sodipodi-0.dtd"
   xmlns="http://www.w3.org/2000/svg"
   xmlns:svg="http://www.w3.org/2000/svg">
  <sodipodi:namedview
     id="namedview99"
     pagecolor="#ffffff"
     bordercolor="#666666"
     borderopacity="1.0"
     inkscape:pageshadow="2"
     inkscape:pageopacity="0.0"
     inkscape:pagecheckerboard="0"
     showgrid="false"
     inkscape:zoom="4.9181371"
     inkscape:cx="45.647365"
     inkscape:cy="9.963122"
     inkscape:window-width="1366"
     inkscape:window-height="705"
     inkscape:window-x="0"
     inkscape:window-y="0"
     inkscape:window-maximized="1"
     inkscape:current-layer="svg97" />
  <defs
     id="defs67">
    <linearGradient
       id="a"
       y2="102.34"
       gradientUnits="userSpaceOnUse"
       x2="95.46"
       gradientTransform="translate(-.896 -.987) scale(1.012)"
       y1="93.621"
       x1="86.738">
      <stop
         stop-color="#fcfcfc"
         offset="0"
         id="stop2" />
      <stop
         stop-color="#f8f8f8"
         offset=".523"
         id="stop4" />
      <stop
         stop-color="#f0efef"
         offset=".775"
         id="stop6" />
      <stop
         stop-color="#e3e1e1"
         offset=".901"
         id="stop8" />
      <stop
         stop-color="#cecbcb"
         offset="1"
         id="stop10" />
    </linearGradient>
    <radialGradient
       id="k"
       gradientUnits="userSpaceOnUse"
       cy="110.25"
       cx="90.75"
       gradientTransform="matrix(1.3067,0,0,1.3067,-27.836,-33.818)"
       r="18.75">
      <stop
         stop-color="#fff"
         offset="0"
         id="stop13" />
      <stop
         stop-color="#fff"
         stop-opacity="0"
         offset="1"
         id="stop15" />
    </radialGradient>
    <clipPath
       id="j">
      <path
         d="M112 82.503c0 4.465-2.797 6.41-5.28 8.094-5.108 3.465-14.939 3.325-20.72 3.406-.08 5.781.166 15.505-3.299 20.613-1.684 2.482-5.29 5.387-8.2 5.387 2.317 0 4.742-1.335 7.583-4.085 9.142-8.849 17.367-16.135 25.673-25.298 1.92-2.116 4.24-3.64 4.24-8.117z"
         fill="url(#a)"
         id="path18" />
    </clipPath>
    <filter
       id="l"
       color-interpolation-filters="sRGB"
       x="-0.032471585"
       y="-0.033615713"
       width="1.0649432"
       height="1.0672314">
      <feGaussianBlur
         stdDeviation=".43"
         id="feGaussianBlur21" />
    </filter>
    <linearGradient
       id="i"
       y2="102.07"
       gradientUnits="userSpaceOnUse"
       x2="95.182"
       gradientTransform="matrix(1.012,0,0,1.012,-18.896,-9.987)"
       y1="93.621"
       x1="86.738">
      <stop
         stop-color="#fcfcfc"
         offset="0"
         id="stop24" />
      <stop
         stop-color="#f8f8f8"
         offset=".523"
         id="stop26" />
      <stop
         stop-color="#f0efef"
         offset=".723"
         id="stop28" />
      <stop
         stop-color="#e3e1e1"
         offset=".89"
         id="stop30" />
      <stop
         stop-color="#cecbcb"
         offset="1"
         id="stop32" />
    </linearGradient>
    <clipPath
       id="e">
      <path
         d="M17 8v112h57.5c1.675 0 3.914-.565 7-3.6 8.87-8.725 20.24-19.852 27.499-27.176 2.44-2.463 3-4.471 3-6.724V8z"
         fill="#fff"
         id="path35" />
    </clipPath>
    <filter
       id="h"
       width="1.1860395"
       y="-0.1153204"
       x="-0.093019752"
       height="1.2306408"
       color-interpolation-filters="sRGB">
      <feGaussianBlur
         stdDeviation="2.386"
         id="feGaussianBlur38" />
    </filter>
    <radialGradient
       id="g"
       fx="63.793"
       fy="47.275"
       gradientUnits="userSpaceOnUse"
       cy="64.004"
       cx="64"
       gradientTransform="matrix(1.6842,-0.0843,0.06886,1.3759,-66.197,-27.663)"
       r="47.5">
      <stop
         stop-color="#fff"
         offset="0"
         id="stop41" />
      <stop
         stop-color="#fff"
         stop-opacity="0"
         offset="1"
         id="stop43" />
    </radialGradient>
    <filter
       id="f"
       width="1.956178"
       y="-0.51080987"
       x="-0.47808899"
       height="2.0216197"
       color-interpolation-filters="sRGB">
      <feGaussianBlur
         stdDeviation="10.141"
         id="feGaussianBlur46" />
    </filter>
    <linearGradient
       id="d"
       y2="116.4"
       gradientUnits="userSpaceOnUse"
       x2="72"
       x1="72"
       gradientTransform="translate(-18,-9)">
      <stop
         stop-color="#eeecec"
         offset="0"
         id="stop49" />
      <stop
         stop-color="#f4f4f4"
         offset=".4"
         id="stop51" />
      <stop
         stop-color="#f6f5f5"
         offset="1"
         id="stop53" />
    </linearGradient>
    <filter
       id="c"
       color-interpolation-filters="sRGB"
       x="-0.026172632"
       y="-0.022160428"
       width="1.0523453"
       height="1.0443209">
      <feGaussianBlur
         stdDeviation="1.036"
         id="feGaussianBlur56" />
    </filter>
    <filter
       id="b"
       color-interpolation-filters="sRGB"
       x="-0.037918804"
       y="-0.032164287"
       width="1.0758376"
       height="1.0643286">
      <feGaussianBlur
         stdDeviation="1.501"
         id="feGaussianBlur59" />
    </filter>
    <linearGradient
       id="m"
       y2="786.48"
       gradientUnits="userSpaceOnUse"
       x2="782.06"
       x1="348.28">
      <stop
         stop-color="#72B4F5"
         offset="0"
         id="stop62" />
      <stop
         stop-color="#356EBF"
         offset="1"
         id="stop64" />
    </linearGradient>
  </defs>
  <g
     id="g115"
     transform="translate(-0.00150035,-0.49949902)">
    <path
       d="m -1,-0.5 v 112 h 58.188 c 2.116,0 4.529,-1.772 7,-4.25 0.712,-0.714 1.44,-1.394 2.156,-2.094 0.416,-0.406 0.832,-0.814 1.25,-1.219 7.774,-7.41 14.983,-14.023 22.22,-22 0.42,-0.42 0.811,-0.81 1.155,-1.187 1.465,-1.498 2.762,-2.838 2.994,-5.863 l 0.04,-0.732 V -0.5 Z"
       opacity="0.262"
       filter="url(#b)"
       id="path69" />
    <path
       d="m -1,-1 v 112.2 h 57.746 c 4.168,0 7.729,-4.856 20.854,-17.1 C 85.086,87.116 88.04,83.211 90.75,80.5 92.49,78.757 94,77.463 94,73.3 V -1 Z"
       fill-opacity="0.701"
       filter="url(#c)"
       id="path71" />
    <path
       d="m -1,-1 v 112 h 57.5 c 1.675,0 3.914,-0.565 7,-3.6 8.87,-8.725 20.24,-19.852 27.499,-27.176 2.44,-2.463 3,-4.471 3,-6.724 V -1 Z"
       fill="#ffffff"
       id="path73" />
    <path
       d="M 0.5,0 C 0.16,0 0,0.235 0,0.5 v 107.97 c 0,0.822 0.68,1.5 1.5,1.5 h 53.688 c 0.053,0 0.81,0.023 1.5,0.031 1.778,-0.04 3.132,-0.753 4.356,-1.593 1.052,-0.291 20.65,-19.62 29.771,-28.809 1.362,-1.373 2.186,-3.948 2.186,-4.896 V 0.5 c 0,-0.322 -0.16,-0.5 -0.5,-0.5 z"
       fill="url(#d)"
       id="path75"
       style="fill:url(#d)" />
    <path
       d="m 114.4,82.503 c 0,4.465 -4.997,6.61 -7.48,8.294 -5.108,3.465 -14.739,3.525 -20.52,3.606 -0.08,5.781 -0.034,15.305 -3.499,20.413 -1.684,2.482 -5.79,8.687 -8.7,8.687 -2.092,1.534 3.488,8.21 6.734,5.32 9.502,-8.461 35.132,-30.023 43.351,-39.263 2.04,-2.294 -4.905,-9.845 -9.885,-7.057 z"
       clip-path="url(#e)"
       transform="translate(-18,-9)"
       opacity="0.277"
       filter="url(#f)"
       id="path77" />
    <path
       d="M 0.5,0 C 0.16,0 0,0.235 0,0.5 v 107.97 c 0,0.822 0.68,1.5 1.5,1.5 l 54.5,0.031 c 0.053,0 3.274,-0.008 3.963,0 6.542,-4.503 22.638,-21.953 31.584,-30.955 1.476,-1.656 0.457,-0.37 1.453,-1.607 V 0.5 C 93,0.177 92.84,0 92.5,0 Z"
       opacity="0.847"
       fill="url(#g)"
       id="path79"
       style="fill:url(#g)" />
    <path
       d="m 113.9,82.503 c 0,4.465 -4.497,6.61 -6.98,8.294 -5.108,3.465 -14.739,3.525 -20.52,3.606 -0.08,5.781 0.766,15.305 -2.699,20.413 -1.684,2.482 -5.79,7.987 -8.7,7.987 -2.092,1.534 3.488,11.21 6.734,8.32 9.502,-8.461 46,-30.201 54.218,-39.442 2.04,-2.294 -17.072,-11.966 -22.053,-9.179 z"
       clip-path="url(#e)"
       transform="translate(-18,-9)"
       opacity="0.401"
       filter="url(#h)"
       id="path81" />
    <path
       d="m 94,73.503 c 0,4.465 -2.797,6.41 -5.28,8.094 -5.108,3.465 -14.939,3.325 -20.72,3.406 -0.08,5.781 0.166,15.505 -3.299,20.613 -1.684,2.482 -5.29,5.387 -8.2,5.387 2.317,0 4.742,-1.335 7.583,-4.085 9.142,-8.849 17.367,-16.135 25.673,-25.298 1.92,-2.116 4.24,-3.64 4.24,-8.117 z"
       fill="url(#i)"
       id="path83"
       style="fill:url(#i)" />
    <path
       d="m 94.02,74.212 c -0.316,3.9 -3.523,5.903 -5.85,7.481 -5.11,3.466 -15.339,2.326 -21.12,2.407 -0.081,5.781 0.853,16.316 -2.612,21.425 -1.474,2.172 -4.1,4.66 -6.763,5.25 1.98,-0.362 3.885,-1.661 6.269,-3.969 0.339,-0.388 0.574,-0.679 1.106,-1.5 3.465,-5.108 2.924,-14.466 3.005,-20.247 5.78,-0.08 15.718,0.212 20.827,-3.253 0.465,-0.315 1.594,-1.187 2.006,-1.6 1.536,-1.536 2.902,-2.613 3.131,-5.994 z M 57.675,110.78 c -0.158,0.035 -0.313,0.041 -0.469,0.063 0.157,-0.017 0.31,-0.034 0.469,-0.063 z"
       fill="#ffffff"
       id="path85" />
    <path
       d="M 117.31,81.861 72.639,125.35"
       clip-path="url(#j)"
       transform="translate(-18,-9)"
       fill="none"
       stroke="url(#k)"
       stroke-width="1.2"
       filter="url(#l)"
       id="path87"
       style="stroke:url(#k)" />
    <g
       transform="matrix(0.06368,0,0,0.06368,13.396,22.396)"
       id="g95">
      <path
         id="circle89"
         style="fill:url(#m);stroke:#daefff;stroke-width:32"
         d="M 1008,512 A 496,496 0 0 1 512,1008 496,496 0 0 1 16,512 496,496 0 0 1 512,16 496,496 0 0 1 1008,512 Z" />
      <path
         d="m 712.9,332.4 q 66.657,0 103.38,45.671 37.03,45.364 37.03,128.68 0,83.32 -37.34,129.61 -37.03,45.98 -103.07,45.98 -33.02,0 -60.484,-12.035 -27.156,-12.344 -45.672,-37.649 h -3.703 l -10.8,43.512 h -36.72 v -480.16 h 51.227 v 116.65 q 0,39.191 -2.469,70.359 h 2.47 q 35.796,-50.61 106.16,-50.61 z m -7.406,42.894 q -52.46,0 -75.605,30.242 -23.145,29.934 -23.145,101.22 0,71.285 23.762,102.14 23.761,30.55 76.222,30.55 47.215,0 70.36,-34.254 23.144,-34.562 23.144,-99.058 0,-66.04 -23.144,-98.442 -23.145,-32.402 -71.594,-32.402 z"
         fill="#ffffff"
         id="path91" />
      <path
         d="m 317.27,639.45 q 51.227,0 74.68,-27.466 23.453,-27.464 24.996,-92.578 v -11.418 q 0,-70.976 -24.07,-102.14 -24.07,-31.168 -76.223,-31.168 -45.055,0 -69.125,35.18 -23.762,34.87 -23.762,98.75 0,63.879 23.454,97.515 23.761,33.328 70.05,33.328 z m -7.715,42.894 q -65.421,0 -102.14,-45.98 -36.723,-45.981 -36.723,-128.38 0,-83.011 37.032,-129.61 37.03,-46.598 103.07,-46.598 69.433,0 106.77,52.461 h 2.778 l 7.406,-46.289 h 40.426 v 490.06 h -51.24 v -144.73 q 0,-30.86 3.395,-52.461 h -4.012 q -35.488,51.535 -106.77,51.535 z"
         fill="#c8e8ff"
         id="path93" />
    </g>
  </g>
</svg>
