<svg height="32" viewBox="0 0 32 32" width="32" xmlns="http://www.w3.org/2000/svg"><g fill="none" stroke-linecap="round" stroke-linejoin="round" stroke-width="5.00656"><path d="m10.005859 2.0019531a2.5032799 2.5032799 0 0 0 -2.5039059 2.5039063v16.5156246l-1.1484375-1.261718a2.5032799 2.5032799 0 0 0 -3.5371093-.166016 2.5032799 2.5032799 0 0 0 -.1660157 3.535156l5.5039063 6.050781a2.5035303 2.5035303 0 0 0 3.7031251 0l5.505859-6.050781a2.5032799 2.5032799 0 0 0 -.167969-3.535156 2.5032799 2.5032799 0 0 0 -3.535156.166016l-1.15039 1.263671v-16.5175776a2.5032799 2.5032799 0 0 0 -2.503907-2.5039063z" fill="#3cb371"/><path d="m21.994141 2.0019531a2.5035303 2.5035303 0 0 0 -1.851563.8183594l-5.505859 6.0507813a2.5032799 2.5032799 0 0 0 .167969 3.5351562 2.5032799 2.5032799 0 0 0 3.535156-.166016l1.15039-1.263671v16.517578a2.5032799 2.5032799 0 0 0 2.503907 2.503906 2.5032799 2.5032799 0 0 0 2.503906-2.503906v-16.515625l1.148437 1.261718a2.5032799 2.5032799 0 0 0 3.53711.166016 2.5032799 2.5032799 0 0 0 .166015-3.5351562l-5.503906-6.0507813a2.5035303 2.5035303 0 0 0 -1.851562-.8183594z" fill="#1e90ff"/></g></svg>