<svg height="32" viewBox="0 0 32.000204 32" width="32" xmlns="http://www.w3.org/2000/svg"><path d="m2.361423 4.2036281 9.769983 9.7222839v14.777872c0 .648153.257105.907414.771315 1.166675.128552.12963.385657.12963.514209.12963.385658 0 .771315-.12963.899867-.388891l5.142097-5.185219c.257104-.259261.385657-.648152.385657-.907413v-9.722284l9.641431-9.5926539c.514209-.518521.642762-1.037043.385657-1.425934-.257105-.518522-.642762-.777783-1.156972-.777783h-25.324824c-.642763 0-.899867.388891-1.156972.777783-.385657.518522-.257105.907413.128552 1.425934z" fill="#686868" stroke-width="1.290903"/></svg>