<?xml version="1.0" encoding="UTF-8" standalone="no"?>
<svg
   height="32"
   viewBox="0 0 32 32"
   width="32"
   version="1.1"
   id="svg4"
   sodipodi:docname="firewalled.svg"
   inkscape:version="1.1 (c4e8f9ed74, 2021-05-24)"
   xmlns:inkscape="http://www.inkscape.org/namespaces/inkscape"
   xmlns:sodipodi="http://sodipodi.sourceforge.net/DTD/sodipodi-0.dtd"
   xmlns="http://www.w3.org/2000/svg"
   xmlns:svg="http://www.w3.org/2000/svg">
  <defs
     id="defs8" />
  <sodipodi:namedview
     id="namedview6"
     pagecolor="#ffffff"
     bordercolor="#666666"
     borderopacity="1.0"
     inkscape:pageshadow="2"
     inkscape:pageopacity="0.0"
     inkscape:pagecheckerboard="0"
     showgrid="false"
     inkscape:zoom="16.90625"
     inkscape:cx="18.839187"
     inkscape:cy="15.970425"
     inkscape:window-width="1366"
     inkscape:window-height="705"
     inkscape:window-x="0"
     inkscape:window-y="0"
     inkscape:window-maximized="1"
     inkscape:current-layer="svg4" />
  <path
     id="path2"
     style="color:#000000;fill:#f25022;stroke-width:1.39196;-inkscape-stroke:none"
     d="M 13.214844 1 C 13.834873 1.231247 15.068554 1.8552704 15.580078 4.5527344 C 15.955196 6.5352074 15.605558 9.8211071 13.570312 10.871094 C 11.332007 12.026078 11.586984 6.1721524 11.132812 9.4121094 C 10.503483 13.903298 6.00155 17.285293 6 21.677734 C 6 27.365157 9.6029679 30.956251 15.527344 31 C 26.258498 31.07875 28.419806 19.623296 23.484375 14.912109 C 22.833345 14.292118 24.194926 18.590854 21.564453 18.162109 C 19.033185 17.747115 22.096753 13.636502 21.837891 9.1328125 C 21.724736 7.1403395 21.015936 5.3160787 19.251953 4.1523438 C 20.969433 5.3685778 20.559658 7.7791326 19.376953 7.1503906 C 16.624024 5.6854106 18.605998 2.929974 13.214844 1 z M 17.666016 14.087891 C 16.693786 17.94652 21 20.54271 21 23.896484 A 5.0000003 5.192928 0 0 1 11 23.896484 C 11 17.549567 15.374346 14.087891 17.666016 14.087891 z M 17.109375 20.640625 C 15.651045 20.640625 13.777344 23.17473 13.777344 25.255859 C 13.777344 27.337002 14.88889 28.140625 16 28.140625 C 17.11111 28.140625 18.220703 27.337002 18.220703 25.255859 C 18.220703 23.17473 16.831595 22.155234 17.109375 20.640625 z " />
</svg>
