<?xml version="1.0" encoding="UTF-8" standalone="no"?>
<svg
   xmlns:dc="http://purl.org/dc/elements/1.1/"
   xmlns:cc="http://creativecommons.org/ns#"
   xmlns:rdf="http://www.w3.org/1999/02/22-rdf-syntax-ns#"
   xmlns:svg="http://www.w3.org/2000/svg"
   xmlns="http://www.w3.org/2000/svg"
   xmlns:sodipodi="http://sodipodi.sourceforge.net/DTD/sodipodi-0.dtd"
   xmlns:inkscape="http://www.inkscape.org/namespaces/inkscape"
   viewBox="0 0 32 32"
   version="1.1"
   id="svg4"
   sodipodi:docname="firewalled.svg"
   inkscape:version="1.0.1 (3bc2e813f5, 2020-09-07)"
   width="32"
   height="32">
  <metadata
     id="metadata10">
    <rdf:RDF>
      <cc:Work
         rdf:about="">
        <dc:format>image/svg+xml</dc:format>
        <dc:type
           rdf:resource="http://purl.org/dc/dcmitype/StillImage" />
        <dc:title />
      </cc:Work>
    </rdf:RDF>
  </metadata>
  <defs
     id="defs8" />
  <sodipodi:namedview
     pagecolor="#ffffff"
     bordercolor="#666666"
     borderopacity="1"
     objecttolerance="10"
     gridtolerance="10"
     guidetolerance="10"
     inkscape:pageopacity="0"
     inkscape:pageshadow="2"
     inkscape:window-width="1366"
     inkscape:window-height="702"
     id="namedview6"
     showgrid="false"
     inkscape:zoom="7.5853275"
     inkscape:cx="3.8382114"
     inkscape:cy="12.864407"
     inkscape:window-x="0"
     inkscape:window-y="0"
     inkscape:window-maximized="1"
     inkscape:current-layer="svg4"
     inkscape:document-rotation="0" />
  <g
     id="g17"
     style="fill:#ff9642;fill-opacity:1">
    <path
       id="path11"
       style="fill:#ff9642;fill-opacity:1;stroke-width:1.39196"
       d="m 13.214929,0.99979791 c 0.620029,0.23124699 1.85371,0.85527039 2.365234,3.55273439 0.375118,1.982473 0.02548,5.2683733 -2.009766,6.3183597 -2.238305,1.154984 -1.983328,-4.6989417 -2.4375,-1.4589847 -0.629329,4.4911887 -5.1312618,7.8731837 -5.1328118,12.2656247 0,5.687423 3.602968,9.278517 9.5273438,9.322266 10.731154,0.07875 12.892462,-11.376704 7.957031,-16.087891 -0.65103,-0.619991 0.710551,3.678745 -1.919922,3.25 -2.531268,-0.414994 0.5323,-4.525607 0.273438,-9.0292966 -0.113155,-1.992473 -0.821955,-3.8167338 -2.585938,-4.9804687 1.71748,1.216234 1.307705,3.6267888 0.125,2.9980468 -2.752929,-1.46498 -0.770955,-4.2204166 -6.162109,-6.15039059 z m 2.78125,13.25000009 c 0.298171,0 0.565548,0.124154 0.757812,0.322266 0.192265,0.198111 0.310547,0.470179 0.310547,0.763672 v 5.972656 c 0,0.293492 -0.118369,0.565204 -0.310547,0.763672 -0.192177,0.198467 -0.459293,0.324218 -0.757812,0.324218 -0.29852,0 -0.564049,-0.125751 -0.75586,-0.324218 -0.19181,-0.198468 -0.308593,-0.47018 -0.308593,-0.763672 v -5.972656 c 0,-0.293493 0.116695,-0.565561 0.308593,-0.763672 0.191898,-0.198112 0.457689,-0.322266 0.75586,-0.322266 z m 0.0039,8.953125 c 0.374373,-10e-7 0.725948,0.141519 0.990234,0.398437 0.263746,0.256433 0.410157,0.596022 0.410157,0.960938 0,0.364881 -0.145847,0.707925 -0.410157,0.964844 -0.264274,0.256885 -0.615848,0.396484 -0.990234,0.396484 -0.374364,0 -0.725956,-0.139564 -0.990234,-0.396484 -0.264248,-0.256907 -0.410157,-0.599937 -0.410157,-0.964844 0,-0.364892 0.146324,-0.704494 0.410157,-0.960938 0.264274,-0.256883 0.615848,-0.398437 0.990234,-0.398437 z" />
  </g>
</svg>
