<?xml version="1.0" encoding="UTF-8" standalone="no"?>
<svg
   height="32"
   viewBox="0 0 32 32"
   width="32"
   version="1.1"
   id="svg4"
   sodipodi:docname="firewalled.svg"
   inkscape:version="1.1 (c4e8f9ed74, 2021-05-24)"
   xmlns:inkscape="http://www.inkscape.org/namespaces/inkscape"
   xmlns:sodipodi="http://sodipodi.sourceforge.net/DTD/sodipodi-0.dtd"
   xmlns="http://www.w3.org/2000/svg"
   xmlns:svg="http://www.w3.org/2000/svg">
  <defs
     id="defs8" />
  <sodipodi:namedview
     id="namedview6"
     pagecolor="#ffffff"
     bordercolor="#666666"
     borderopacity="1.0"
     inkscape:pageshadow="2"
     inkscape:pageopacity="0.0"
     inkscape:pagecheckerboard="0"
     showgrid="false"
     inkscape:zoom="11.954524"
     inkscape:cx="18.863152"
     inkscape:cy="14.889761"
     inkscape:window-width="1366"
     inkscape:window-height="705"
     inkscape:window-x="0"
     inkscape:window-y="0"
     inkscape:window-maximized="1"
     inkscape:current-layer="svg4" />
  <g
     id="g634">
    <path
       style="color:#000000;fill:#f25022;stroke-width:1.39196;-inkscape-stroke:none"
       d="m 13.214929,0.99979791 c 0.620029,0.23124699 1.85371,0.85527039 2.365234,3.55273439 0.375118,1.982473 0.02548,5.2683733 -2.009766,6.3183597 -2.238305,1.154984 -1.983328,-4.6989417 -2.4375,-1.4589847 -0.629329,4.4911887 -5.1312618,7.8731837 -5.1328118,12.2656247 0,5.687423 3.602968,9.278517 9.5273438,9.322266 10.731154,0.07875 12.892462,-11.376704 7.957031,-16.087891 -0.65103,-0.619991 0.710551,3.678745 -1.919922,3.25 -2.531268,-0.414994 0.5323,-4.525607 0.273438,-9.0292966 -0.113155,-1.992473 -0.821955,-3.8167338 -2.585938,-4.9804687 1.71748,1.216234 1.307705,3.6267888 0.125,2.9980468 -2.752929,-1.46498 -0.770955,-4.2204166 -6.162109,-6.15039059 z m 2.78125,13.25000009 c 0.298171,0 0.565548,0.124154 0.757812,0.322266 0.192265,0.198111 0.310547,0.470179 0.310547,0.763672 v 5.972656 c 0,0.293492 -0.118369,0.565204 -0.310547,0.763672 -0.192177,0.198467 -0.459293,0.324218 -0.757812,0.324218 -0.29852,0 -0.564049,-0.125751 -0.75586,-0.324218 -0.19181,-0.198468 -0.308593,-0.47018 -0.308593,-0.763672 v -5.972656 c 0,-0.293493 0.116695,-0.565561 0.308593,-0.763672 0.191898,-0.198112 0.457689,-0.322266 0.75586,-0.322266 z m 0.0039,8.953125 c 0.374373,-10e-7 0.725948,0.141519 0.990234,0.398437 0.263746,0.256433 0.410157,0.596022 0.410157,0.960938 0,0.364881 -0.145847,0.707925 -0.410157,0.964844 -0.264274,0.256885 -0.615848,0.396484 -0.990234,0.396484 -0.374364,0 -0.725956,-0.139564 -0.990234,-0.396484 -0.264248,-0.256907 -0.410157,-0.599937 -0.410157,-0.964844 0,-0.364892 0.146324,-0.704494 0.410157,-0.960938 0.264274,-0.256883 0.615848,-0.398437 0.990234,-0.398437 z"
       id="path2" />
    <path
       style="color:#000000;fill:#f25022;stroke-width:0.0591497;-inkscape-stroke:none"
       d="m 14.590808,30.927494 c -0.8271,-0.05929 -1.988589,-0.284098 -2.731289,-0.528645 C 9.250136,29.539666 7.3049734,27.570926 6.5152951,24.989846 6.1529122,23.805391 5.9995246,22.629357 6.0525278,21.441774 6.1273622,19.765046 6.6205567,18.48777 8.2046354,15.868242 9.7896901,13.247101 10.081647,12.72376 10.457484,11.829945 c 0.350922,-0.834562 0.53155,-1.459564 0.699474,-2.4202941 0.08292,-0.4743838 0.16179,-0.8736065 0.175273,-0.8871619 0.05089,-0.05116 0.09685,0.059465 0.263364,0.6339792 0.320346,1.1052478 0.592374,1.5729898 1.041166,1.7902458 0.425656,0.206057 0.853395,0.08749 1.484728,-0.411548 C 15.546066,9.4091037 16.138368,6.3628995 15.43345,3.7877668 15.240623,3.0833522 14.78235,2.194534 14.397849,1.7792277 14.214723,1.5814288 14.095261,1.4195933 14.132379,1.4195933 c 0.110509,0 0.652212,0.2892226 1.157824,0.618178 0.964839,0.6277313 1.474705,1.2223982 1.987369,2.3179057 0.80057,1.7107319 0.801709,1.7127594 1.199163,2.1340816 0.420954,0.446234 0.968859,0.7856573 1.268226,0.7856573 0.23301,0 0.515428,-0.2388089 0.605624,-0.5121075 0.04132,-0.1251921 0.05973,-0.4105001 0.04483,-0.694474 -0.02058,-0.3920841 -0.06053,-0.5524942 -0.21419,-0.8599933 -0.103891,-0.2079036 -0.17931,-0.3875894 -0.167597,-0.3993017 0.02951,-0.029507 0.507952,0.5422943 0.743151,0.888158 0.307988,0.4529007 0.651539,1.2398081 0.80445,1.8425981 0.43391,1.7105248 0.321079,3.5237305 -0.390238,6.2711645 -0.628083,2.425944 -0.730786,3.051322 -0.587689,3.578558 0.191437,0.705343 1.181094,1.055326 1.926341,0.681232 0.575575,-0.288923 0.736116,-0.722005 0.787959,-2.125629 0.02456,-0.664959 0.05952,-1.008241 0.104187,-1.023024 0.08327,-0.02756 0.76923,0.765543 1.113069,1.286926 1.319862,2.001382 1.768977,4.693914 1.208194,7.243342 -0.64842,2.94784 -2.618995,5.385432 -5.30962,6.567978 -1.148635,0.504832 -2.415652,0.807029 -3.821935,0.911571 -0.911596,0.06777 -0.989365,0.06757 -2.000689,-0.0049 z m 1.842913,-5.05203 c 0.602897,-0.17904 0.977048,-0.677151 0.975548,-1.298754 -10e-4,-0.423822 -0.109726,-0.702448 -0.379174,-0.971896 C 16.746178,23.320897 16.41992,23.189289 16,23.189289 c -0.816021,0 -1.419147,0.592382 -1.412585,1.387421 0.005,0.610596 0.341793,1.077601 0.921409,1.277797 0.387126,0.133711 0.534008,0.137039 0.924897,0.02096 z m 0.176625,-3.650624 c 0.137874,-0.09124 0.284214,-0.259996 0.358458,-0.413364 0.123125,-0.254341 0.125466,-0.319015 0.125466,-3.466062 0,-2.760706 -0.01274,-3.237369 -0.09155,-3.425989 C 16.816072,14.472707 16.470875,14.238184 16,14.238184 c -0.494524,0 -0.899222,0.302044 -1.036685,0.773724 -0.04328,0.148514 -0.05809,1.25956 -0.04594,3.447179 l 0.01793,3.228034 0.166574,0.251656 c 0.323362,0.488528 1.006702,0.618116 1.508467,0.286063 z"
       id="path6911" />
    <path
       style="color:#000000;fill:#f25022;stroke-width:0.0591497;-inkscape-stroke:none"
       d="M 14.650965,30.931519 C 10.502537,30.634197 7.560892,28.461742 6.4866514,24.902033 6.1772924,23.876911 6.0677899,23.093255 6.0651279,21.885397 c -0.00254,-1.152631 0.051948,-1.526169 0.3623864,-2.484288 0.2961797,-0.914112 0.8882454,-2.069904 2.023789,-3.950707 1.5628697,-2.588585 1.9384457,-3.314526 2.3479317,-4.538256 0.154014,-0.460265 0.498362,-2.0831408 0.498362,-2.3487289 0,-0.025222 0.02587,-0.045857 0.0575,-0.045857 0.03162,0 0.09979,0.1530499 0.151473,0.3401109 0.351248,1.271227 0.67062,1.866567 1.117328,2.082816 0.346365,0.167671 0.642787,0.133442 1.09855,-0.126855 C 14.61567,10.30349 15.300289,9.1522384 15.586857,7.6784467 15.719578,6.99588 15.765161,5.7086323 15.679678,5.0573013 15.499531,3.6847115 15.027886,2.4770273 14.403393,1.7892791 14.218766,1.5859519 14.097444,1.4195933 14.133787,1.4195933 c 0.109219,0 0.653294,0.2908424 1.156416,0.618178 0.965558,0.6281993 1.47608,1.2239142 1.986423,2.3179057 0.718759,1.540764 0.829018,1.7386472 1.174376,2.1076827 0.398143,0.4254382 1.007974,0.8120562 1.280895,0.8120562 0.230423,0 0.485697,-0.1943618 0.593201,-0.4516544 0.179677,-0.4300301 0.05325,-1.364 -0.246579,-1.8215997 -0.183754,-0.2804442 -0.0492,-0.220538 0.220258,0.09806 1.37636,1.6273876 1.813828,3.8277703 1.326207,6.6705732 -0.08091,0.471719 -0.348002,1.648831 -0.593532,2.615806 -0.470914,1.854615 -0.574869,2.537023 -0.454095,2.980908 0.136289,0.500905 0.535596,0.785806 1.173079,0.836977 0.47342,0.038 0.82204,-0.08844 1.103833,-0.400351 0.314707,-0.348343 0.399554,-0.706997 0.433805,-1.83371 0.01632,-0.536784 0.0558,-1.002588 0.08773,-1.03512 0.128191,-0.130595 1.126469,1.152384 1.570557,2.018469 0.63568,1.239736 0.950926,2.483843 1.002327,3.955653 0.137059,3.924491 -1.932904,7.423757 -5.340816,9.028629 -1.122079,0.528416 -2.569706,0.886814 -4.016375,0.994358 -0.901396,0.06701 -0.993682,0.06697 -1.940532,-8.93e-4 z m 1.79671,-5.061769 c 0.46518,-0.140419 0.277702,-0.161333 -0.242708,-0.02708 -0.300716,0.07758 -0.383671,0.115534 -0.260065,0.118986 0.09983,0.0028 0.326073,-0.03857 0.502773,-0.09191 z m -1.183718,-0.262308 c -0.390094,-0.282583 -0.565251,-0.602079 -0.565251,-1.031051 0,-0.301484 0.03058,-0.41331 0.178363,-0.652351 0.35505,-0.574281 1.122813,-0.786078 1.731182,-0.477568 0.3366,0.170693 0.442375,0.28154 0.599767,0.628529 0.227891,0.50241 0.101301,1.04001 -0.335124,1.423196 -0.181941,0.159746 -0.192231,0.180863 -0.06992,0.143477 0.52332,-0.159954 0.787706,-1.068938 0.482971,-1.660496 -0.546256,-1.060405 -2.027604,-1.060405 -2.571314,0 -0.17425,0.339839 -0.166769,0.820569 0.01858,1.193947 0.144946,0.29199 0.605323,0.705251 0.712125,0.639244 0.03095,-0.01913 -0.05067,-0.112245 -0.181379,-0.206927 z m 1.224044,-3.315163 c 0.156125,-0.07558 0.322301,-0.220851 0.417935,-0.365365 0.153062,-0.231291 0.159226,-0.272425 0.17178,-1.146254 0.0072,-0.498494 -0.01,-0.906353 -0.03804,-0.906353 -0.02808,0 -0.06056,0.41062 -0.07217,0.912488 -0.01873,0.80993 -0.03481,0.930847 -0.143062,1.075828 -0.208055,0.27866 -0.415886,0.395518 -0.753163,0.423487 -0.385081,0.03194 -0.615282,-0.07104 -0.851954,-0.38109 l -0.16572,-0.2171 -0.03746,-1.513091 c -0.0206,-0.8322 -0.02306,-2.300791 -0.0055,-3.263535 0.024,-1.312664 0.01452,-1.761254 -0.03793,-1.793664 -0.05356,-0.0331 -0.06613,0.730657 -0.0537,3.263133 l 0.01623,3.306353 0.157827,0.238442 c 0.301878,0.456069 0.89058,0.610843 1.394868,0.366721 z m 0.598214,-5.59727 c -0.0089,-0.636978 -0.03602,-0.587207 -0.06448,0.1183 -0.01017,0.252125 0.002,0.45841 0.02702,0.45841 0.02503,0 0.04189,-0.259519 0.03746,-0.57671 z m -0.04843,-1.683101 c -0.0792,-0.267164 -0.310778,-0.552145 -0.548626,-0.675141 -0.215529,-0.111454 -0.740934,-0.124253 -0.937095,-0.02283 -0.3132,0.16194 -0.638462,0.579267 -0.555765,0.713074 0.01994,0.03226 0.09563,-0.05362 0.168199,-0.190854 0.14666,-0.277338 0.529588,-0.521925 0.817131,-0.521925 0.259098,0 0.532789,0.137301 0.736753,0.369603 0.170693,0.194408 0.275204,0.54027 0.327681,1.08441 0.006,0.0624 0.02123,-0.03294 0.03381,-0.211869 0.01258,-0.178928 -0.0064,-0.423939 -0.04209,-0.544469 z"
       id="path7028" />
    <path
       style="color:#000000;fill:#f25022;stroke-width:0.0591497;-inkscape-stroke:none"
       d="M 14.613337,30.930302 C 10.017373,30.578273 6.9675906,27.967878 6.2005399,23.72955 6.0487733,22.890966 6.0140005,21.01754 6.1394123,20.436229 c 0.3005456,-1.393092 0.8322552,-2.530505 2.4040581,-5.14267 1.9303016,-3.20795 2.3471786,-4.189555 2.6955706,-6.3471634 0.03808,-0.2358596 0.09233,-0.4288355 0.120545,-0.4288355 0.02822,0 0.106658,0.1929759 0.174317,0.4288355 0.451827,1.5750674 0.955909,2.2148114 1.643509,2.0858164 0.665933,-0.12493 1.406896,-0.808615 1.859904,-1.7161307 C 15.465633,8.4580306 15.656054,7.6478178 15.71155,6.4473198 15.80115,4.5091651 15.253283,2.660316 14.296195,1.6709797 14.162439,1.5327172 14.086047,1.4195933 14.126435,1.4195933 c 0.115963,0 0.647963,0.2825913 1.163768,0.618178 0.98059,0.6379794 1.477132,1.2239577 2.01601,2.3791365 0.721919,1.5475549 0.803223,1.6870851 1.23622,2.1215465 0.430098,0.431554 0.935953,0.7369616 1.22065,0.7369616 0.214934,0 0.500759,-0.249272 0.587623,-0.5124747 0.122812,-0.3721232 0.04516,-1.0641935 -0.171301,-1.5267653 -0.103867,-0.2219602 -0.178233,-0.4141804 -0.165258,-0.427156 0.01298,-0.012976 0.142234,0.1174315 0.28724,0.2897938 1.375373,1.6348457 1.810711,3.8272314 1.324842,6.6719813 -0.08057,0.471719 -0.319678,1.536414 -0.531359,2.365989 -0.211681,0.829575 -0.429553,1.747874 -0.484162,2.040665 -0.238354,1.277972 0.104207,1.917192 1.081725,2.018502 0.490341,0.05082 0.823082,-0.05561 1.111525,-0.355514 0.362402,-0.376807 0.448027,-0.709354 0.485712,-1.886392 0.01891,-0.590609 0.05676,-1.007796 0.0935,-1.030501 0.07388,-0.04566 0.466564,0.375461 0.927904,0.99511 1.976763,2.655093 2.1953,6.873721 0.517454,9.988925 -1.616889,3.002027 -4.474268,4.745114 -8.237031,5.024835 -0.909275,0.06759 -1.070335,0.06742 -1.97816,-0.0021 z m 1.923741,-5.083672 c 0.223851,-0.08511 0.131695,-0.144702 -0.09926,-0.06419 -0.104113,0.03629 -0.250296,0.06599 -0.324852,0.06599 -0.07456,0 -0.154513,0.03067 -0.177681,0.06816 -0.04795,0.07759 0.328957,0.03378 0.601795,-0.06996 z m -1.351483,-0.308737 c -0.544766,-0.507704 -0.646955,-0.948748 -0.353802,-1.526999 0.516237,-1.018292 2.108188,-0.902576 2.43156,0.176745 0.143091,0.477595 0.05278,0.829694 -0.318093,1.240209 -0.231925,0.256714 -0.20644,0.324071 0.04714,0.124602 0.239411,-0.188321 0.409445,-0.602519 0.409445,-0.997396 0,-1.174535 -1.416622,-1.801436 -2.321157,-1.027187 -0.673863,0.576802 -0.647775,1.592 0.05468,2.127779 0.390976,0.298207 0.421006,0.227802 0.05023,-0.117753 z m 1.215566,-3.20182 c 0.246388,-0.105723 0.54094,-0.426288 0.626027,-0.681313 0.07898,-0.236723 0.09134,-1.780453 0.01425,-1.780453 -0.02906,0 -0.06233,0.41062 -0.07394,0.912488 -0.01873,0.80993 -0.03481,0.930847 -0.143062,1.075828 -0.208055,0.27866 -0.415886,0.395518 -0.753163,0.423487 -0.385107,0.03194 -0.615305,-0.07105 -0.851954,-0.381138 l -0.16572,-0.217148 -0.04152,-1.453894 c -0.02284,-0.799641 -0.02651,-2.29234 -0.0082,-3.317109 0.03263,-1.822484 0.03643,-1.868588 0.173773,-2.108922 0.150833,-0.26394 0.526627,-0.493666 0.807555,-0.493666 0.546309,0 0.987575,0.500269 0.991298,1.123845 6.8e-4,0.113863 0.02704,0.24695 0.05857,0.295748 0.0797,0.123319 0.07769,-0.433644 -0.0026,-0.722747 -0.07831,-0.281965 -0.323254,-0.572449 -0.569445,-0.675314 -0.253651,-0.105982 -0.751267,-0.10292 -0.961737,0.0059 -0.236091,0.122088 -0.46344,0.411187 -0.53638,0.682069 -0.04088,0.151805 -0.05661,1.333036 -0.04592,3.447156 l 0.01627,3.216213 0.157827,0.23844 c 0.278634,0.420949 0.859127,0.603131 1.308028,0.410512 z m 0.685808,-5.581914 -0.0073,-0.51756 -0.05476,0.383655 c -0.04989,0.349593 -0.03094,0.651465 0.04091,0.651465 0.01565,0 0.02516,-0.232902 0.02115,-0.51756 z"
       id="path7067" />
    <path
       style="color:#000000;fill:#f25022;stroke-width:0.0591497;-inkscape-stroke:none"
       d="M 14.876155,30.958581 C 13.258151,30.839621 12.016101,30.540063 10.832274,29.983275 8.3439993,28.812966 6.7439844,26.655571 6.2017957,23.739723 6.0234664,22.780682 6.0090406,21.036145 6.1732559,20.288355 c 0.2780975,-1.266377 0.81541,-2.408296 2.2822225,-4.850277 2.0149436,-3.354523 2.4352946,-4.334843 2.7835626,-6.4916824 0.03808,-0.2358596 0.09185,-0.4288355 0.119471,-0.4288355 0.02762,0 0.119644,0.232902 0.204489,0.51756 0.286769,0.9621212 0.528104,1.4542279 0.860391,1.7544289 0.298194,0.269401 0.588188,0.314692 1.007281,0.157316 1.559009,-0.585432 2.562809,-3.22724 2.237841,-5.8895637 C 15.494273,3.6298312 15.018812,2.4585018 14.293952,1.6709797 14.16669,1.5327172 14.09346,1.4195933 14.131217,1.4195933 c 0.112678,0 0.652816,0.2889103 1.180653,0.6315111 0.971998,0.6308904 1.450476,1.203941 2.02452,2.4246759 0.737434,1.5681934 0.772082,1.6272507 1.208754,2.0602641 0.398139,0.3948042 0.943525,0.7393715 1.170287,0.7393715 0.170092,0 0.428249,-0.1584074 0.549353,-0.3370876 0.09088,-0.1340942 0.112213,-0.2728258 0.111862,-0.7276074 -4.14e-4,-0.5109521 -0.01793,-0.5989393 -0.193262,-0.9700157 -0.106056,-0.2244513 -0.181408,-0.4195144 -0.167448,-0.4334736 0.01396,-0.013959 0.187676,0.1696828 0.386038,0.4080933 0.905295,1.0880683 1.42462,2.7242424 1.423622,4.4852296 -6.69e-4,1.1777275 -0.170335,2.2014455 -0.745045,4.4953785 -0.517973,2.067467 -0.60851,2.627719 -0.50174,3.104815 0.137917,0.616279 0.728129,0.975305 1.476375,0.898079 0.890835,-0.09194 1.243153,-0.816077 1.247978,-2.565022 0.0012,-0.443871 0.02487,-0.676186 0.07178,-0.705177 0.155966,-0.09639 1.121851,1.14838 1.571416,2.025146 0.63568,1.239736 0.950926,2.483843 1.002327,3.955653 0.100077,2.865585 -0.943899,5.484742 -2.944336,7.386826 -1.44724,1.376085 -3.292742,2.230267 -5.496034,2.543813 -0.638875,0.09092 -2.107893,0.157061 -2.632163,0.118515 z m 1.679183,-5.119215 c 0.211629,-0.07998 0.101556,-0.133297 -0.117522,-0.05693 -0.104113,0.03629 -0.250296,0.06599 -0.324852,0.06599 -0.07456,0 -0.153805,0.02953 -0.176109,0.06561 -0.04439,0.07183 0.360047,0.02299 0.618483,-0.07468 z M 15.186,25.55273 c -0.548548,-0.482851 -0.656446,-1.066598 -0.302858,-1.638514 0.571329,-0.924103 2.07311,-0.751588 2.380211,0.273423 0.143091,0.477595 0.05278,0.829694 -0.318093,1.240209 -0.231925,0.256714 -0.20644,0.324071 0.04714,0.124602 0.361276,-0.28418 0.51135,-1.032591 0.305753,-1.524775 -0.294306,-0.704547 -1.178942,-1.033066 -1.890084,-0.701904 -0.568539,0.264755 -0.828899,0.71736 -0.787416,1.368829 0.02717,0.426669 0.223561,0.771823 0.575084,1.010689 0.305259,0.207428 0.299663,0.11979 -0.0097,-0.152559 z m 1.149409,-3.204145 c 0.283009,-0.08479 0.61018,-0.432906 0.695445,-0.739962 0.07723,-0.278128 0.08597,-1.781655 0.0099,-1.701784 -0.02944,0.03091 -0.06304,0.447284 -0.07466,0.925285 -0.01859,0.76411 -0.03578,0.888706 -0.142367,1.031466 -0.214981,0.287943 -0.416168,0.397114 -0.778559,0.422471 -0.284584,0.01991 -0.374209,0.001 -0.542491,-0.114468 -0.429044,-0.294396 -0.444653,-0.346527 -0.489899,-1.636122 -0.02246,-0.640165 -0.04003,-2.090933 -0.03904,-3.223928 9.88e-4,-1.132995 -0.01391,-2.075694 -0.0331,-2.094886 -0.06259,-0.06259 -0.03799,6.211597 0.02525,6.439273 0.104845,0.377451 0.588058,0.744243 0.997687,0.757315 0.07756,0.0025 0.244887,-0.02662 0.371846,-0.06466 z m 0.742934,-5.862384 c -0.01241,-0.137282 -0.02241,-0.01005 -0.02223,0.282745 1.77e-4,0.292792 0.01033,0.405112 0.02255,0.249602 0.01223,-0.15551 0.01208,-0.395067 -3.55e-4,-0.532347 z m 0.0091,-1.062911 -0.0068,-0.310536 -0.04525,0.235458 c -0.04097,0.213169 -0.02504,0.385614 0.03561,0.385614 0.01279,0 0.02019,-0.139741 0.01645,-0.310536 z m -2.082182,-0.410351 c -0.01888,-0.04719 -0.0329,-0.03317 -0.03574,0.03574 -0.0026,0.06235 0.01141,0.09729 0.03107,0.07764 0.01965,-0.01966 0.02176,-0.07067 0.0047,-0.113371 z m 1.970684,-0.14244 c 0,-0.138428 -0.497549,-0.610781 -0.56856,-0.539769 -0.01427,0.01427 0.08785,0.145819 0.226943,0.292328 0.239877,0.252668 0.341617,0.326362 0.341617,0.247441 z"
       id="path7182" />
    <path
       style="color:#000000;fill:#f25022;stroke-width:0.0591497;-inkscape-stroke:none"
       d="M 14.84658,30.959204 C 12.070238,30.723009 10.203254,29.97632 8.6418733,28.47767 7.1880729,27.082277 6.3258195,25.213212 6.095773,22.958613 5.9053402,21.092252 6.1511753,19.752731 7.006344,17.997041 7.208578,17.581848 7.8762236,16.403697 8.4900012,15.378928 10.327165,12.311581 10.828293,11.18853 11.146524,9.4255367 c 0.08309,-0.4603167 0.151073,-0.852923 0.151073,-0.8724584 0,-0.019535 0.02415,-0.035518 0.05366,-0.035518 0.02951,0 0.152078,0.312482 0.272364,0.6944047 0.355296,1.128109 0.641651,1.579569 1.117058,1.761129 0.21207,0.08099 0.298029,0.08574 0.514804,0.02842 0.646521,-0.170938 1.364662,-0.865863 1.793121,-1.7351553 1.146194,-2.3254939 0.794824,-5.9147571 -0.742269,-7.5823064 -0.134074,-0.1454529 -0.213004,-0.2644598 -0.175401,-0.2644598 0.117433,0 0.78466,0.3581414 1.247991,0.6698728 0.971496,0.653628 1.410324,1.2090407 2.08783,2.6425117 0.56172,1.1884885 0.582831,1.22713 0.86646,1.5859478 0.281167,0.3557021 0.998595,0.87998 1.275179,0.9318676 0.236069,0.044287 0.500226,-0.08106 0.656387,-0.3114649 0.0899,-0.1326415 0.112132,-0.2718544 0.111476,-0.6980326 C 20.375565,5.7899203 20.350007,5.6487448 20.210252,5.3234742 20.119402,5.112014 20.028749,4.899075 20.008806,4.8502765 c -0.06527,-0.1596991 0.222,0.1290848 0.529555,0.5323475 0.818076,1.0726528 1.287221,2.6459067 1.287717,4.3182923 3.55e-4,1.1829377 -0.183632,2.2777327 -0.790188,4.7020397 -0.559686,2.23698 -0.609975,2.719076 -0.334722,3.208823 0.256338,0.456092 0.891827,0.694147 1.486558,0.556866 0.816986,-0.188583 1.117262,-0.885327 1.117262,-2.592439 0,-0.400882 0.02352,-0.618882 0.06986,-0.647524 0.04265,-0.02636 0.17747,0.07385 0.346162,0.257307 1.018268,1.107413 1.75125,2.597801 2.080939,4.231222 0.114105,0.565328 0.13366,0.844495 0.131456,1.876688 -0.0023,1.082833 -0.0195,1.29232 -0.16065,1.957948 -0.808588,3.813118 -3.473403,6.531917 -7.261636,7.408743 -0.951965,0.220341 -2.807392,0.371535 -3.664546,0.298613 z m 1.774492,-5.169925 c 0.07887,-0.05097 0.07887,-0.05734 0,-0.05734 -0.0488,0 -0.128651,0.0258 -0.177449,0.05734 -0.07887,0.05097 -0.07887,0.05734 0,0.05734 0.0488,0 0.128651,-0.0258 0.177449,-0.05734 z m 0.548021,-0.432945 c 0.117848,-0.183033 0.224101,-0.51345 0.165111,-0.51345 -0.02731,0 -0.06487,0.0606 -0.08346,0.134673 -0.01859,0.07407 -0.127946,0.24466 -0.243012,0.379088 -0.115065,0.134428 -0.20921,0.260761 -0.20921,0.280739 0,0.06683 0.286477,-0.150439 0.370572,-0.28105 z m -2.309365,-0.09558 c -0.05481,-0.0955 -0.11041,-0.162871 -0.123561,-0.14972 -0.02593,0.02593 0.155963,0.323351 0.19775,0.323351 0.014,0 -0.01938,-0.07813 -0.07419,-0.173631 z m -0.19274,-0.68404 -0.03839,-0.414048 -0.0093,0.335273 c -0.0078,0.280529 0.0355,0.573908 0.07528,0.510161 0.006,-0.0095 -0.0065,-0.20366 -0.02758,-0.431386 z m 2.705624,-0.162662 c -0.0141,-0.0732 -0.02563,-0.01331 -0.02563,0.133087 0,0.146395 0.01153,0.206285 0.02563,0.133087 0.0141,-0.0732 0.0141,-0.192976 0,-0.266174 z m -0.04174,-0.271911 c 0,-0.06009 -0.05682,-0.17321 -0.126263,-0.251386 -0.06944,-0.07818 -0.114293,-0.11552 -0.09966,-0.08299 0.01463,0.03253 0.06074,0.145657 0.102474,0.251387 0.08577,0.217318 0.123452,0.242645 0.123452,0.08299 z m -0.653061,-1.997612 c 0.332959,-0.280166 0.37939,-0.439867 0.402085,-1.382972 0.01455,-0.604593 0.0025,-0.831491 -0.04074,-0.768947 -0.03376,0.0488 -0.06193,0.394825 -0.06261,0.768947 -0.0016,0.861883 -0.05693,1.061599 -0.368096,1.327949 -0.1349,0.115469 -0.215905,0.209943 -0.180013,0.209943 0.03589,0 0.148109,-0.06971 0.24937,-0.15492 z m -1.598823,-0.482333 c -0.04007,-0.114936 -0.0811,-1.336663 -0.110076,-3.277614 l -0.0462,-3.094375 0.0063,3.199838 c 0.0052,2.640723 0.02069,3.217168 0.08866,3.299026 0.114032,0.137322 0.13691,0.08998 0.06131,-0.126875 z m 1.999003,-5.054848 c -0.01317,-0.106313 -0.02421,-0.03359 -0.02454,0.161602 -3.55e-4,0.195194 0.01044,0.282178 0.02393,0.193296 0.0135,-0.08888 0.01377,-0.248585 6.04e-4,-0.354898 z m 0.01253,-1.154479 c -0.0033,-0.246222 -0.01098,-0.262849 -0.0622,-0.134477 -0.05389,0.135044 -0.02858,0.415438 0.0375,0.415438 0.01565,0 0.02676,-0.126432 0.0247,-0.280961 z m -2.085234,-0.439926 c -0.01888,-0.04719 -0.0329,-0.03317 -0.03574,0.03574 -0.0026,0.06235 0.01141,0.09729 0.03107,0.07764 0.01965,-0.01966 0.02176,-0.07067 0.0047,-0.113371 z M 16.97597,14.84658 c 0,-0.08177 -0.457652,-0.532347 -0.540707,-0.532347 -0.03713,0 0.04938,0.130378 0.192237,0.28973 0.261119,0.291262 0.34847,0.352079 0.34847,0.242617 z"
       id="path7258" />
    <path
       style="color:#000000;fill:#f25022;stroke-width:0.0209126;-inkscape-stroke:none"
       d="M 6.4547964,24.891204 C 6.4316969,24.853702 6.2907186,24.28426 6.2334632,23.997191 6.0867264,23.261479 6.0194726,22.568985 6.0181778,21.780457 c -0.001,-0.609754 0.028253,-0.927638 0.1327494,-1.442466 0.1616943,-0.796632 0.4449161,-1.575886 0.9122703,-2.510012 0.3460691,-0.691708 0.6477348,-1.21338 1.5660495,-2.70818 0.6910386,-1.124848 1.0391599,-1.736389 1.429888,-2.511871 0.632318,-1.254967 0.917046,-2.118202 1.109765,-3.3645654 0.03468,-0.2242875 0.07789,-0.4736701 0.09602,-0.5541835 0.03156,-0.140144 0.07924,-0.2614073 0.102779,-0.2614073 0.02619,0 0.09837,0.2082942 0.224904,0.6490217 0.202862,0.7065847 0.367353,1.1090795 0.585137,1.4317805 0.254977,0.377812 0.61653,0.568157 0.971483,0.511453 0.524395,-0.08377 1.148379,-0.563556 1.593043,-1.2248965 0.421172,-0.6264003 0.721841,-1.4321582 0.857674,-2.2984615 0.02521,-0.1607559 0.05,-0.3134574 0.0551,-0.3393368 l 0.0093,-0.047053 h 1.806192 1.806192 l 0.14314,0.066983 c 0.23274,0.1089124 0.431832,0.1034824 0.619189,-0.016888 l 0.07797,-0.050095 h 0.675607 0.675607 l 0.07795,0.2770918 c 0.09484,0.3371553 0.167719,0.7037641 0.229051,1.1522959 0.04103,0.3000956 0.0462,0.4286007 0.04635,1.1533166 1.89e-4,0.8701615 -0.01408,1.0744215 -0.12636,1.8089385 -0.113614,0.743268 -0.267487,1.43206 -0.61901,2.770917 -0.411047,1.565566 -0.520922,2.116195 -0.522248,2.617198 -8.7e-4,0.328516 0.02446,0.468758 0.121519,0.672821 0.193815,0.407488 0.629041,0.631091 1.22837,0.631091 0.664654,0 1.082754,-0.361286 1.266392,-1.094307 0.07994,-0.319083 0.106103,-0.620133 0.118454,-1.362922 0.0065,-0.391065 0.02072,-0.746318 0.03159,-0.78945 0.0322,-0.127725 0.08294,-0.106689 0.313041,0.129768 1.110275,1.140962 1.852306,2.610938 2.180389,4.319385 0.121052,0.63036 0.167284,1.141849 0.167284,1.850763 0,0.927621 -0.09588,1.690654 -0.323024,2.570764 -0.07928,0.307199 -0.28822,0.963744 -0.333799,1.04891 -0.02099,0.03921 -0.102245,0.04003 -3.994078,0.04003 -3.517308,0 -3.972655,-0.0036 -3.972655,-0.03137 0,-0.01725 -0.0094,-0.03137 -0.02091,-0.03137 -0.0115,0 -0.02091,0.01419 -0.02091,0.03153 0,0.02782 -0.154367,0.03089 -1.311409,0.02614 l -1.311409,-0.0054 -0.01637,-0.07319 c -0.009,-0.04026 -0.01663,-0.180764 -0.01694,-0.31224 -4.14e-4,-0.171022 -0.007,-0.232625 -0.02314,-0.216483 -0.01473,0.01473 -0.02004,0.124917 -0.01528,0.317482 l 0.0073,0.294919 -4.081948,-1.3e-5 c -2.2450711,-8e-6 -4.0862952,-0.0071 -4.0916086,-0.0157 z M 17.389792,24.477412 c -0.02219,-0.147951 -0.04427,-0.108609 -0.03858,0.06874 0.0065,0.2011 0.0061,0.199874 0.03157,0.103794 0.01156,-0.04355 0.01471,-0.121193 0.007,-0.172529 z m -0.05326,-0.299124 c 0,-0.108594 -0.180418,-0.415445 -0.220627,-0.375236 -0.0062,0.0062 0.02149,0.06558 0.06149,0.131985 0.04,0.06641 0.08482,0.16167 0.09959,0.211695 0.03065,0.103805 0.05955,0.119119 0.05955,0.03156 z m -0.594275,-2.102831 c 0.172263,-0.172832 0.268513,-0.350893 0.300764,-0.556407 0.02826,-0.180094 0.02891,-1.547531 7.34e-4,-1.547531 -0.01273,0 -0.02105,0.09609 -0.02127,0.245723 -6.55e-4,0.450895 -0.04076,1.188862 -0.07418,1.365039 -0.05524,0.291202 -0.1419,0.415663 -0.41625,0.597821 -0.06363,0.04225 -0.115684,0.08978 -0.115684,0.105643 0,0.05487 0.172603,-0.05651 0.325879,-0.210288 z M 15.124882,21.86251 c 0.0066,-0.0066 -0.01073,-0.06181 -0.03857,-0.122629 -0.09889,-0.216012 -0.106699,-0.441634 -0.125558,-3.629582 -0.0071,-1.201951 -0.01658,-2.189287 -0.02105,-2.194079 -0.01633,-0.01753 -0.0055,5.162008 0.01135,5.438702 0.01455,0.23854 0.02623,0.304746 0.07101,0.402567 0.05026,0.109779 0.07391,0.133934 0.102821,0.105021 z m 1.934292,-5.200408 c -0.0042,-0.06039 -0.0077,-0.01098 -0.0077,0.109791 0,0.12077 0.0035,0.170176 0.0077,0.109791 0.0042,-0.06039 0.0042,-0.159197 0,-0.219582 z m 0.0042,-1.171105 c -0.001,-0.199299 -0.0062,-0.244571 -0.02332,-0.203897 -0.03826,0.09093 -0.02655,0.460077 0.01459,0.460077 0.0055,0 0.0095,-0.115281 0.0087,-0.25618 z m -2.048108,-0.475761 c 0,-0.0115 -0.01,-0.02091 -0.02215,-0.02091 -0.01218,0 -0.01633,0.0094 -0.0092,0.02091 0.0071,0.0115 0.01708,0.02091 0.02215,0.02091 0.0051,0 0.0092,-0.0094 0.0092,-0.02091 z m 1.923312,-0.210391 c -0.06174,-0.121024 -0.294403,-0.358369 -0.416368,-0.424751 -0.165772,-0.09022 -0.131364,-0.01646 0.05568,0.119372 0.120784,0.08771 0.250962,0.226953 0.298796,0.319598 0.03524,0.06825 0.06339,0.09355 0.08752,0.07864 0.0091,-0.0056 -0.0024,-0.0474 -0.02563,-0.09285 z"
       id="path7297" />
    <path
       style="color:#000000;fill:#f25022;stroke-width:0.0209126;-inkscape-stroke:none"
       d="M 6.4536334,24.889376 C 6.3999408,24.802499 6.1974328,23.868141 6.1288238,23.390726 6.0157864,22.604158 5.9821792,21.528808 6.0523564,20.943954 6.1708921,19.956081 6.4844451,18.98574 7.0524852,17.848891 c 0.3465483,-0.693565 0.599842,-1.135353 1.396833,-2.436316 0.8802063,-1.436799 1.2397259,-2.063354 1.6213508,-2.825618 0.614326,-1.227064 0.89738,-2.08138 1.086332,-3.278774 0.04058,-0.2571358 0.08888,-0.5345408 0.107334,-0.6164558 0.03207,-0.1423381 0.0797,-0.2639554 0.103368,-0.2639554 0.02623,0 0.09847,0.2086599 0.225893,0.6524651 0.331856,1.1558781 0.642422,1.6828791 1.110799,1.8849201 0.387381,0.167103 0.903145,-0.0097 1.467873,-0.503224 0.68879,-0.601926 1.230074,-1.7311253 1.428878,-2.9808524 0.02421,-0.1521823 0.04833,-0.297869 0.0536,-0.3237484 l 0.0096,-0.047053 h 1.806192 1.806192 l 0.138312,0.064724 c 0.234915,0.10993 0.432285,0.1049795 0.62405,-0.015653 0.07768,-0.048868 0.0808,-0.049071 0.754802,-0.049071 h 0.676795 l 0.07613,0.2770918 c 0.206382,0.7511306 0.285433,1.3921546 0.285618,2.3160688 2.55e-4,1.2761692 -0.176157,2.3741822 -0.700542,4.3602732 -0.337259,1.277357 -0.496717,1.973364 -0.555407,2.424253 -0.03698,0.284143 -0.01526,0.785353 0.04078,0.941003 0.130274,0.361801 0.407978,0.607377 0.807692,0.714249 0.197382,0.05278 0.599846,0.06338 0.791029,0.02085 0.521613,-0.116048 0.846763,-0.513705 0.984434,-1.203959 0.0566,-0.283791 0.07651,-0.566253 0.08842,-1.254755 0.0065,-0.373812 0.02064,-0.714949 0.0315,-0.758081 0.0236,-0.09377 0.05959,-0.09961 0.156821,-0.02545 0.09083,0.06928 0.476663,0.49233 0.666993,0.731331 1.68294,2.113299 2.267695,5.217503 1.52756,8.109137 -0.09419,0.367972 -0.253957,0.883266 -0.325914,1.051134 l -0.04007,0.09347 H 21.33158 c -3.518622,0 -3.974134,-0.0036 -3.974134,-0.03137 0,-0.01725 -0.0094,-0.03137 -0.02091,-0.03137 -0.0115,0 -0.02091,0.01419 -0.02091,0.03153 0,0.02782 -0.154297,0.03089 -1.310762,0.02614 l -1.310762,-0.0054 -0.0175,-0.06274 c -0.0096,-0.03451 -0.01763,-0.168608 -0.0178,-0.298005 -1.88e-4,-0.15461 -0.0081,-0.235266 -0.02293,-0.235266 -0.01555,0 -0.02018,0.09486 -0.01479,0.303232 l 0.0078,0.303233 h -4.082236 c -2.2452289,0 -4.0871055,-0.0079 -4.0930586,-0.01751 z M 17.382701,24.452481 c -0.01847,-0.0696 -0.0209,-0.05799 -0.02062,0.09889 2.97e-4,0.170102 0.0012,0.173498 0.02093,0.07886 0.01365,-0.06544 0.01354,-0.125571 -3.12e-4,-0.177757 z m -0.106759,-0.4541 c -0.06156,-0.125048 -0.137294,-0.218071 -0.159477,-0.195888 -0.0059,0.0059 0.02241,0.06565 0.06287,0.132831 0.04045,0.06718 0.07355,0.128607 0.07355,0.136505 0,0.0079 0.01615,0.0508 0.03589,0.09534 l 0.03589,0.08098 0.0076,-0.06003 c 0.0047,-0.03727 -0.01665,-0.10921 -0.05629,-0.189735 z m -0.599544,-1.854965 c 0.149018,-0.131366 0.276408,-0.314937 0.329454,-0.474747 0.04365,-0.131513 0.04663,-0.182104 0.05409,-0.920369 0.0048,-0.474199 3.09e-4,-0.776518 -0.01141,-0.769276 -0.01062,0.0066 -0.02599,0.268702 -0.03416,0.582536 -0.03159,1.212871 -0.07112,1.345527 -0.482307,1.618542 -0.06363,0.04225 -0.115684,0.08978 -0.115684,0.105643 0,0.0425 0.132829,-0.0302 0.260019,-0.142329 z m -1.563311,-0.315905 c -0.0064,-0.02588 -0.03163,-0.102693 -0.05612,-0.170696 -0.06294,-0.174755 -0.08067,-0.708227 -0.08803,-2.647275 -0.0033,-0.868395 -0.01088,-1.908274 -0.01685,-2.310841 -0.006,-0.402567 -0.01252,0.411455 -0.01454,1.808939 -0.0041,2.82595 0.0022,3.070143 0.08428,3.249348 0.05336,0.116545 0.114162,0.163538 0.09126,0.07052 z m 1.945798,-5.123584 c -0.0046,-0.03738 -0.0084,-0.0068 -0.0084,0.06797 0,0.07476 0.0038,0.105347 0.0084,0.06797 0.0046,-0.03738 0.0046,-0.09855 0,-0.135932 z m 0.0023,-1.113565 c -0.0028,-0.242216 -0.02928,-0.327773 -0.03235,-0.104593 -0.0024,0.175193 0.0061,0.261408 0.02594,0.261408 0.0045,0 0.0074,-0.07057 0.0064,-0.156815 z m -0.04544,-0.14119 c -0.0058,-0.01438 -0.01055,-0.0026 -0.01055,0.02614 0,0.02876 0.0047,0.04052 0.01055,0.02614 0.0058,-0.01438 0.0058,-0.0379 0,-0.05228 z m -2.000546,-0.433936 c 0,-0.0115 -0.01,-0.02091 -0.02215,-0.02091 -0.01218,0 -0.01633,0.0094 -0.0092,0.02091 0.0071,0.0115 0.01708,0.02091 0.02215,0.02091 0.0051,0 0.0092,-0.0094 0.0092,-0.02091 z m 1.954223,-0.148174 c -0.0067,-0.0109 -0.02116,-0.0143 -0.03205,-0.0076 -0.0109,0.0067 -0.0143,0.02116 -0.0076,0.03205 0.0067,0.0109 0.02116,0.0143 0.03205,0.0076 0.01089,-0.0067 0.0143,-0.02116 0.0076,-0.03205 z m -0.07209,-0.09356 c 0,-0.01793 -0.0089,-0.02708 -0.01986,-0.02033 -0.02322,0.01435 -0.06091,-0.04988 -0.05207,-0.08875 0.0036,-0.01563 0.0014,-0.017 -0.0052,-0.0033 -0.0067,0.01388 -0.04588,-0.0092 -0.09664,-0.05699 -0.06784,-0.06384 -0.06306,-0.0553 0.0233,0.04159 0.05977,0.06706 0.108667,0.130585 0.108667,0.14116 0,0.01058 0.0094,0.01923 0.02091,0.01923 0.0115,0 0.02091,-0.01467 0.02091,-0.0326 z m -0.104563,-0.161964 c 0,-0.0035 -0.03529,-0.03878 -0.07842,-0.07842 l -0.07842,-0.07207 0.07207,0.07842 c 0.06708,0.07299 0.08478,0.08804 0.08478,0.07207 z m -0.219582,-0.140034 c -0.0071,-0.0115 -0.02413,-0.02077 -0.03783,-0.02059 -0.01497,1.89e-4 -0.01239,0.0084 0.0065,0.02059 0.04017,0.02596 0.04741,0.02596 0.03137,0 z m 0.02091,-0.04182 c -0.04099,-0.04529 -0.0841,-0.05403 -0.104415,-0.02115 -0.007,0.01137 -2.55e-4,0.01587 0.01505,0.01 0.0153,-0.0059 0.04638,0.0033 0.06905,0.02049 0.05739,0.04339 0.0649,0.03994 0.02031,-0.0093 z"
       id="path7336" />
    <path
       style="color:#000000;fill:#f25022;stroke-width:0.0209126;-inkscape-stroke:none"
       d="M 6.4409787,24.854351 C 6.4021247,24.752157 6.2534221,24.118721 6.2004812,23.829891 6.1342374,23.468484 6.0746335,23.00607 6.04279,22.606504 6.0113746,22.212311 6.0102117,21.318198 6.04075,21.038061 c 0.148732,-1.364367 0.6392296,-2.643307 1.7243797,-4.496206 0.1044095,-0.17828 0.3917965,-0.653519 0.6386376,-1.056086 0.9559669,-1.559064 1.3174684,-2.191636 1.7290087,-3.025499 0.571963,-1.158915 0.843116,-2.003036 1.035131,-3.222448 0.07195,-0.4569299 0.11756,-0.6707103 0.161403,-0.7565233 0.0303,-0.059307 0.03247,-0.06005 0.06109,-0.020915 0.03075,0.042047 0.08407,0.206902 0.247699,0.7657386 0.288171,0.9841957 0.594274,1.5004607 1.012085,1.7069537 0.265054,0.130997 0.535353,0.119507 0.872289,-0.03708 1.025913,-0.476779 1.813418,-1.7696423 2.076656,-3.4092908 0.02493,-0.1552759 0.0498,-0.3034938 0.05526,-0.3293732 l 0.0099,-0.047053 h 1.805648 1.805647 l 0.144053,0.065452 c 0.09206,0.041829 0.191424,0.069296 0.275308,0.076101 0.119821,0.00972 0.14467,0.00402 0.285237,-0.065452 l 0.15398,-0.076102 h 0.668118 0.668118 l 0.06928,0.2457229 c 0.127856,0.45349 0.228166,1.023107 0.271602,1.5423031 0.03175,0.3794428 0.02589,1.305636 -0.0109,1.725288 -0.08239,0.939748 -0.272766,1.936773 -0.626925,3.283276 -0.502183,1.909284 -0.616809,2.466816 -0.616056,2.996447 7.72e-4,0.542294 0.143957,0.848751 0.505847,1.082652 0.378074,0.244361 1.023257,0.279608 1.434203,0.07835 0.38664,-0.189353 0.645559,-0.649035 0.735272,-1.305397 0.03411,-0.249529 0.063,-0.847196 0.06358,-1.314978 2.84e-4,-0.230038 0.01032,-0.453542 0.02229,-0.496674 0.03579,-0.12889 0.08565,-0.107865 0.323045,0.136237 1.300918,1.337658 2.093467,3.134982 2.302967,5.222613 0.04221,0.420669 0.04829,1.394038 0.01115,1.788026 -0.05727,0.607615 -0.144952,1.127897 -0.278431,1.652094 -0.08779,0.344771 -0.261409,0.903461 -0.331767,1.067599 l -0.03989,0.09305 H 21.33158 c -3.518622,0 -3.974134,-0.0036 -3.974134,-0.03137 0,-0.01725 -0.0094,-0.03137 -0.02091,-0.03137 -0.0115,0 -0.02091,0.01419 -0.02091,0.03153 0,0.02782 -0.154297,0.03089 -1.310762,0.02614 l -1.310762,-0.0054 -0.0175,-0.06274 c -0.0096,-0.03451 -0.01763,-0.170218 -0.01779,-0.301583 -2.11e-4,-0.172286 -0.0066,-0.232496 -0.02307,-0.216064 -0.01505,0.01505 -0.01996,0.119152 -0.01448,0.306811 l 0.0083,0.28403 H 10.545253 6.4609536 Z M 17.382088,24.453047 c -0.01774,-0.04863 -0.0212,-0.03202 -0.02052,0.09833 8.17e-4,0.156194 9.05e-4,0.156437 0.02134,0.05852 0.01369,-0.06559 0.01341,-0.117812 -8.22e-4,-0.156844 z m -0.08473,-0.41292 c -0.04585,-0.103649 -0.143815,-0.241605 -0.17157,-0.241605 -0.0097,0 0.02284,0.07764 0.07224,0.172529 0.0494,0.09489 0.09739,0.196055 0.106656,0.22481 l 0.01685,0.05228 0.0088,-0.05675 c 0.0049,-0.03121 -0.01,-0.09928 -0.03299,-0.151268 z m -0.700231,-1.837569 c 0.198755,-0.146315 0.349284,-0.347799 0.416905,-0.558032 0.03188,-0.0991 0.03819,-0.221729 0.04561,-0.885898 0.0062,-0.551121 0.0021,-0.766878 -0.01409,-0.756847 -0.01428,0.0088 -0.02287,0.10865 -0.02316,0.268976 -6.48e-4,0.359027 -0.03733,1.10343 -0.06189,1.255926 -0.0502,0.311739 -0.126484,0.438895 -0.365679,0.609582 -0.154938,0.110561 -0.19957,0.156551 -0.15193,0.156551 0.0174,0 0.0868,-0.04062 0.154235,-0.09026 z m -1.484035,-0.375047 c -0.0064,-0.02588 -0.03165,-0.102771 -0.05617,-0.170869 -0.06252,-0.173614 -0.08104,-0.705707 -0.08559,-2.458889 -0.002,-0.77638 -0.01,-1.679803 -0.01775,-2.007608 -0.0091,-0.385456 -0.01513,0.172323 -0.01704,1.5789 -0.0016,1.1962 0.005,2.331749 0.01463,2.523442 0.01551,0.307525 0.02387,0.362272 0.07104,0.465305 0.05307,0.11591 0.113722,0.162439 0.09089,0.06972 z m 1.94546,-5.081515 c -0.005,-0.02601 -0.0093,-0.0097 -0.0095,0.03635 -2.33e-4,0.04601 0.0039,0.06729 0.0091,0.0473 0.0052,-0.02 0.0054,-0.05764 4.23e-4,-0.08365 z m -0.0035,-1.39182 c -0.02733,-0.02733 -0.03838,0.02697 -0.03557,0.174848 0.0043,0.22678 0.03357,0.242616 0.0408,0.02208 0.0033,-0.10209 9.91e-4,-0.190707 -0.0052,-0.196926 z m -2.03983,-0.33894 c 0,-0.0115 -0.01,-0.02091 -0.02215,-0.02091 -0.01218,0 -0.01633,0.0094 -0.0092,0.02091 0.0071,0.0115 0.01708,0.02091 0.02215,0.02091 0.0051,0 0.0092,-0.0094 0.0092,-0.02091 z m 1.931174,-0.136834 c -0.0068,-0.01775 -0.01687,-0.02778 -0.02235,-0.0223 -0.0055,0.0055 -0.0038,0.02 0.0038,0.03227 0.02062,0.03336 0.03267,0.02688 0.01853,-0.01 z m -0.06165,-0.110631 c 0.0059,-0.0096 -0.0025,-0.01743 -0.01876,-0.01743 -0.01624,0 -0.02468,0.0078 -0.01876,0.01743 0.0059,0.0096 0.01437,0.01743 0.01876,0.01743 0.0044,0 0.01283,-0.0078 0.01876,-0.01743 z m -0.0571,-0.0732 c 0,-0.01534 -0.0124,-0.02788 -0.02755,-0.02788 -0.02059,0 -0.0217,0.007 -0.0044,0.02788 0.01273,0.01534 0.02513,0.02788 0.02755,0.02788 0.0024,0 0.0044,-0.01255 0.0044,-0.02788 z m -0.202155,-0.230963 c 0,-0.0043 -0.01647,-0.02081 -0.0366,-0.0366 -0.03317,-0.02601 -0.03391,-0.02527 -0.0079,0.0079 0.02732,0.03483 0.04449,0.04591 0.04449,0.0287 z"
       id="path7375" />
    <path
       style="color:#000000;fill:#f25022;stroke-width:0.0209126;-inkscape-stroke:none"
       d="m 6.4416655,24.856157 c -0.03969,-0.104392 -0.1902579,-0.743974 -0.2415998,-1.026266 -0.066052,-0.363174 -0.1255755,-0.825939 -0.157358,-1.223387 -0.031589,-0.395023 -0.032655,-1.312381 -0.00184,-1.5789 0.1324857,-1.145693 0.4835288,-2.185351 1.1970504,-3.545217 0.2463065,-0.469423 0.581061,-1.043053 1.1895786,-2.038443 0.8914363,-1.458178 1.1684459,-1.93735 1.5595558,-2.697723 0.6733895,-1.309168 0.9896945,-2.25103 1.1812945,-3.5175468 0.07252,-0.479384 0.151909,-0.8009024 0.19775,-0.8009024 0.02741,0 0.09946,0.1978725 0.197988,0.5437272 0.281628,0.988601 0.503064,1.465302 0.823665,1.773159 0.410585,0.394264 0.895545,0.368123 1.527768,-0.08235 0.839587,-0.598224 1.445891,-1.7449719 1.684521,-3.1860588 0.02476,-0.149525 0.04938,-0.2931395 0.05471,-0.3191434 l 0.0097,-0.04728 1.824167,0.00545 1.824167,0.00545 0.135932,0.061994 c 0.108373,0.049425 0.16561,0.062145 0.28232,0.062738 0.127374,6.474e-4 0.161966,-0.00808 0.266319,-0.067222 l 0.11993,-0.067966 h 0.677594 0.677595 l 0.06706,0.2421363 c 0.09473,0.3420035 0.182461,0.7769457 0.235662,1.1682793 0.04026,0.2961202 0.04573,0.4321281 0.04637,1.1513761 7.53e-4,0.8505705 -0.0075,0.9817855 -0.106597,1.6939165 -0.106585,0.765971 -0.251833,1.430134 -0.635708,2.906852 -0.262237,1.00879 -0.383827,1.523188 -0.46251,1.956687 -0.03806,0.209703 -0.04728,0.336971 -0.04759,0.657386 -3.57e-4,0.36174 0.0039,0.409518 0.04767,0.533271 0.129736,0.366919 0.424816,0.624328 0.831132,0.725026 0.186108,0.04612 0.662836,0.05128 0.813491,0.0088 0.520434,-0.146752 0.827406,-0.562002 0.951333,-1.286903 0.04735,-0.277001 0.08284,-0.898953 0.08358,-1.464986 2.7e-4,-0.207035 0.01029,-0.411717 0.02227,-0.454849 0.03634,-0.130855 0.08506,-0.108787 0.339609,0.153821 1.306258,1.347623 2.098422,3.175075 2.297068,5.299136 0.03293,0.352084 0.03317,1.345276 4.1e-4,1.693919 -0.05697,0.606357 -0.144788,1.127564 -0.278352,1.652094 -0.08779,0.344771 -0.261409,0.903461 -0.331767,1.067599 l -0.03989,0.09305 H 21.33158 c -3.518622,0 -3.974134,-0.0036 -3.974134,-0.03137 0,-0.01725 -0.0094,-0.03137 -0.02091,-0.03137 -0.0115,0 -0.02091,0.01419 -0.02091,0.03153 0,0.02782 -0.154297,0.03089 -1.310762,0.02614 l -1.310762,-0.0054 -0.01747,-0.06274 c -0.0096,-0.03451 -0.01767,-0.163903 -0.01792,-0.287548 -2.91e-4,-0.146566 -0.0083,-0.224811 -0.023,-0.224811 -0.01544,0 -0.02002,0.09236 -0.01451,0.292777 l 0.008,0.292776 H 10.545092 6.4609536 Z M 17.380477,24.469128 c -0.0158,-0.04299 -0.01964,-0.0266 -0.01928,0.08225 4.27e-4,0.128893 0.0014,0.131673 0.01973,0.05369 0.01191,-0.05082 0.01174,-0.102759 -4.5e-4,-0.135932 z m -0.07465,-0.403181 c -0.04176,-0.10437 -0.162639,-0.283401 -0.172128,-0.254935 -0.0038,0.01142 0.02926,0.09092 0.07347,0.176664 0.04422,0.08575 0.0879,0.17943 0.09708,0.208185 l 0.01668,0.05228 0.0095,-0.04859 c 0.0052,-0.02672 -0.0059,-0.08685 -0.02456,-0.133605 z m -0.704781,-1.866278 c 0.25794,-0.189885 0.4113,-0.451749 0.443431,-0.757164 0.02431,-0.231048 0.02651,-1.456444 0.0026,-1.441661 -0.0097,0.006 -0.02417,0.262068 -0.0322,0.569074 -0.03108,1.188304 -0.06628,1.311437 -0.455801,1.594014 -0.130444,0.09463 -0.160966,0.128884 -0.114847,0.128884 0.01667,0 0.08724,-0.04192 0.156834,-0.09315 z m -1.481248,-0.339217 c 0,-0.0078 -0.02406,-0.08382 -0.05346,-0.169012 -0.04768,-0.138133 -0.05554,-0.205078 -0.07261,-0.618493 -0.01053,-0.254977 -0.02155,-1.098814 -0.02449,-1.875194 -0.0029,-0.77638 -0.01106,-1.576286 -0.01806,-1.77757 -0.007,-0.201283 -0.01038,0.626855 -0.0075,1.840308 0.0054,2.3053 0.0081,2.375868 0.09726,2.534441 0.04008,0.07131 0.07888,0.103538 0.07888,0.06552 z m 1.938243,-5.09248 c -0.0067,-0.01668 -0.01163,-0.01173 -0.01263,0.01263 -9.08e-4,0.02204 0.004,0.0344 0.01098,0.02745 0.0069,-0.0069 0.0077,-0.02499 0.0017,-0.04008 z m -0.01992,-1.340343 c -0.0044,-0.04854 -0.0079,-0.0036 -0.0079,0.09997 6.3e-5,0.103518 0.0037,0.143229 0.008,0.08825 0.0043,-0.05498 0.0043,-0.139677 -1.26e-4,-0.188213 z m -2.02289,-0.412393 c 0,-0.0115 -0.01,-0.02091 -0.02215,-0.02091 -0.01218,0 -0.01633,0.0094 -0.0092,0.02091 0.0071,0.0115 0.01708,0.02091 0.02215,0.02091 0.0051,0 0.0092,-0.0094 0.0092,-0.02091 z m 1.931174,-0.136834 c -0.0068,-0.01775 -0.01687,-0.02778 -0.02235,-0.0223 -0.0055,0.0055 -0.0038,0.02 0.0038,0.03227 0.02062,0.03336 0.03267,0.02688 0.01853,-0.01 z m -0.11875,-0.183826 c 0,-0.01534 -0.0124,-0.02788 -0.02755,-0.02788 -0.02059,0 -0.0217,0.007 -0.0044,0.02788 0.01273,0.01534 0.02513,0.02788 0.02755,0.02788 0.0024,0 0.0044,-0.01255 0.0044,-0.02788 z"
       id="path7414" />
    <path
       style="color:#000000;fill:#f25022;stroke-width:0.00739372;-inkscape-stroke:none"
       d="M 8.8798521,16.924623 V 14.699524 L 9.0177006,14.471758 C 9.3459408,13.92941 9.6230444,13.441902 9.8773732,12.959335 l 0.05358,-0.101664 h 5.7559088 c 5.478345,0 5.755724,6.24e-4 5.752087,0.01294 -0.0021,0.0071 -0.01426,0.05786 -0.02701,0.112754 -0.07853,0.338089 -0.158552,0.651664 -0.355309,1.392285 -0.274055,1.031582 -0.39837,1.570852 -0.462234,2.005127 -0.03462,0.235436 -0.03703,0.769637 -0.0042,0.924693 0.05984,0.282314 0.203206,0.495237 0.444886,0.660717 0.193594,0.132554 0.412595,0.198446 0.717191,0.215784 0.155296,0.0088 0.318298,0.0038 0.421441,-0.01294 0.142963,-0.02325 0.319892,-0.09338 0.439926,-0.17438 0.193478,-0.130556 0.356165,-0.345113 0.458462,-0.604632 0.01523,-0.03863 0.02893,-0.07163 0.03045,-0.07332 0.0015,-0.0017 0.0028,0.410044 0.0028,0.914973 v 0.918053 h -4.07024 -4.07024 l -3e-5,-0.515712 c -2.9e-5,-0.640239 -0.0073,-1.221911 -0.01552,-1.236599 -0.0034,-0.0061 -0.0063,0.385675 -0.0064,0.87061 L 14.9427,19.149725 H 11.911275 8.8798521 Z m 8.1847299,-0.13578 c -7.4e-5,-0.0089 -0.0033,-0.02119 -0.0073,-0.02729 -0.0052,-0.0081 -0.0072,-0.0025 -0.0073,0.02077 -7.4e-5,0.01938 0.0028,0.03007 0.0073,0.02729 0.0041,-0.0025 0.0073,-0.01186 0.0073,-0.02077 z m -0.02207,-1.266174 c 0,-0.07118 -0.0028,-0.114166 -0.0074,-0.114166 -0.0046,0 -0.0074,0.04451 -0.0074,0.118736 0,0.07727 0.0026,0.11714 0.0074,0.114166 0.0044,-0.0027 0.0074,-0.0506 0.0074,-0.118736 z M 14.99211,15.000462 c -0.0024,-0.0059 -0.0041,-0.0041 -0.0045,0.0045 -3.21e-4,0.0078 0.0014,0.01216 0.0039,0.0097 0.0025,-0.0025 0.0027,-0.0088 5.83e-4,-0.01417 z m 1.958772,-0.113821 c -0.0025,-0.0064 -0.0045,-0.01475 -0.0045,-0.01848 0,-0.0037 -0.005,-0.0068 -0.01109,-0.0068 -0.01109,0 -0.01546,0.02274 -0.0062,0.03204 0.01003,0.01003 0.02625,0.005 0.02174,-0.0068 z m -0.122788,-0.187675 c 0,-0.02511 -0.02508,-0.04468 -0.03919,-0.03057 -0.0058,0.0058 -0.0021,0.01426 0.01327,0.03026 0.01171,0.01223 0.02234,0.02223 0.02361,0.02223 0.0013,0 0.0023,-0.0099 0.0023,-0.02192 z"
       id="path7453" />
    <path
       style="color:#000000;fill:#f25022;stroke-width:0.00739372;-inkscape-stroke:none"
       d="m 8.8798521,16.923278 v -2.226445 l 0.073151,-0.119211 C 9.2457688,14.100513 9.5751746,13.526249 9.826141,13.055453 l 0.1054312,-0.197782 h 5.7555998 c 5.478032,0 5.755417,6.24e-4 5.751824,0.01294 -0.0021,0.0071 -0.02249,0.09279 -0.04536,0.190388 -0.05407,0.23072 -0.153301,0.621893 -0.259778,1.02403 -0.04684,0.176894 -0.115073,0.43475 -0.151632,0.573013 -0.234158,0.88555 -0.376814,1.548198 -0.405892,1.885397 -0.01255,0.14552 -0.0052,0.669256 0.01051,0.748563 0.04056,0.204833 0.135314,0.386521 0.27572,0.528703 0.238872,0.241892 0.518058,0.347879 0.959985,0.364437 0.295113,0.01106 0.513182,-0.03259 0.709275,-0.141948 0.236761,-0.132045 0.423248,-0.357525 0.540212,-0.653174 0.01528,-0.03863 0.02903,-0.07163 0.03056,-0.07332 0.0015,-0.0017 0.0028,0.410044 0.0028,0.914973 v 0.918053 h -4.07024 -4.07024 l -4.4e-5,-0.497228 c -6e-5,-0.633004 -0.0075,-1.23337 -0.0155,-1.247689 -0.0034,-0.0061 -0.0063,0.384011 -0.0064,0.866913 l -2.24e-4,0.878004 H 11.911275 8.8798521 Z m 8.1848429,-0.135411 c 0,-0.0099 -0.0033,-0.0201 -0.0074,-0.02262 -0.0043,-0.0027 -0.0074,0.0049 -0.0074,0.01805 0,0.01244 0.0033,0.02262 0.0074,0.02262 0.0041,0 0.0074,-0.0081 0.0074,-0.01805 z m -0.02218,-1.264762 c 0,-0.07147 -0.0028,-0.114602 -0.0074,-0.114602 -0.0046,0 -0.0074,0.04313 -0.0074,0.114602 0,0.07147 0.0028,0.114603 0.0074,0.114603 0.0046,0 0.0074,-0.04313 0.0074,-0.114603 z m -2.050402,-0.522643 c -0.0024,-0.0059 -0.0041,-0.0041 -0.0045,0.0045 -3.21e-4,0.0078 0.0014,0.01216 0.0039,0.0097 0.0025,-0.0025 0.0027,-0.0088 5.83e-4,-0.01417 z m 1.958772,-0.113821 c -0.0025,-0.0064 -0.0045,-0.01475 -0.0045,-0.01848 0,-0.0037 -0.005,-0.0068 -0.01109,-0.0068 -0.01109,0 -0.01546,0.02274 -0.0062,0.03204 0.01003,0.01003 0.02625,0.005 0.02174,-0.0068 z m -0.122788,-0.187675 c 0,-0.01473 -0.0051,-0.02466 -0.01558,-0.03026 -0.02619,-0.01402 -0.03204,0.0028 -0.01006,0.02894 0.01076,0.01278 0.02093,0.02324 0.0226,0.02324 0.0017,0 0.003,-0.0099 0.003,-0.02192 z"
       id="path7492" />
    <path
       style="color:#000000;fill:#f25022;stroke-width:0.00739372;-inkscape-stroke:none"
       d="m 8.8798521,16.924148 v -2.225574 l 0.1613868,-0.267956 c 0.3242508,-0.538365 0.5241967,-0.888635 0.7712739,-1.351136 l 0.1165213,-0.218114 5.7568699,-0.0019 c 5.480529,-0.0018 5.75669,-0.0012 5.753133,0.01109 -0.0021,0.0071 -0.01919,0.07949 -0.03807,0.160818 -0.05497,0.23674 -0.185283,0.747372 -0.317938,1.245841 -0.29765,1.11847 -0.435963,1.720149 -0.495901,2.157235 -0.01561,0.113836 -0.02294,0.608499 -0.01111,0.749726 0.02217,0.26458 0.123325,0.478639 0.312227,0.660694 0.224034,0.215913 0.481523,0.314422 0.881339,0.337179 0.243092,0.01384 0.43817,-0.0071 0.596404,-0.06391 0.08522,-0.03061 0.219474,-0.102563 0.289635,-0.15522 0.170229,-0.127758 0.334297,-0.355412 0.420227,-0.583089 0.01324,-0.03509 0.0253,-0.0638 0.02679,-0.0638 0.0015,0 0.0027,0.41257 0.0027,0.916821 v 0.916821 H 19.0351 14.96486 l -4.4e-5,-0.475046 c -5.2e-5,-0.603114 -0.0078,-1.232197 -0.01536,-1.251387 -0.0032,-0.0081 -0.0061,0.376987 -0.0063,0.855823 l -4.67e-4,0.87061 H 11.911275 8.8798521 Z m 8.1848429,-0.136717 c 0,-0.01017 -0.0033,-0.01849 -0.0074,-0.01849 -0.0041,0 -0.0074,0.0083 -0.0074,0.01849 0,0.01017 0.0033,0.01848 0.0074,0.01848 0.0041,0 0.0074,-0.0083 0.0074,-0.01848 z m -0.02218,-1.264326 c 0,-0.06654 -0.0028,-0.107208 -0.0074,-0.107208 -0.0046,0 -0.0074,0.04067 -0.0074,0.107208 0,0.06654 0.0028,0.107209 0.0074,0.107209 0.0046,0 0.0074,-0.04067 0.0074,-0.107209 z m -0.08873,-0.628951 c 0,-0.0096 -0.01585,-0.03279 -0.02244,-0.03279 -0.0081,0 -0.0097,0.02449 -0.0022,0.03204 0.006,0.006 0.02464,0.0066 0.02464,7.47e-4 z m -0.128604,-0.20604 c -0.0048,-0.01902 -0.02531,-0.03068 -0.03571,-0.02029 -0.0038,0.0038 0.0019,0.01668 0.01384,0.03083 0.02093,0.02488 0.0297,0.02065 0.02187,-0.01054 z"
       id="path7531" />
    <path
       style="color:#000000;fill:#f25022;stroke-width:0.00739372;-inkscape-stroke:none"
       d="m 8.8798521,16.924223 v -2.225499 l 0.2007253,-0.334423 c 0.296112,-0.493345 0.5405302,-0.924242 0.7812124,-1.37724 l 0.066782,-0.125693 5.7567432,-0.0019 5.756743,-0.0019 -0.0038,0.01664 c -0.07386,0.322162 -0.197133,0.81033 -0.344858,1.365604 -0.284306,1.068671 -0.407549,1.589483 -0.479563,2.02661 -0.03841,0.233169 -0.04082,0.269674 -0.04066,0.617033 1.62e-4,0.362243 0.0039,0.401426 0.0517,0.547761 0.116542,0.356543 0.431063,0.62472 0.835745,0.7126 0.217125,0.04715 0.547696,0.05531 0.742654,0.01832 0.149056,-0.02828 0.328262,-0.1074 0.44866,-0.198097 0.167598,-0.126252 0.306911,-0.310803 0.399903,-0.529757 0.02159,-0.05083 0.04224,-0.09908 0.0459,-0.107209 0.004,-0.0089 0.0068,0.354083 0.0071,0.903882 l 5e-4,0.918669 h -4.069032 -4.069033 l -0.0048,-0.833642 c -0.0027,-0.474884 -0.0078,-0.843187 -0.01166,-0.855822 -0.0043,-0.01391 -0.0071,0.296818 -0.0075,0.833641 l -6.35e-4,0.855823 H 11.911275 8.8798521 Z m 8.1848429,-0.140489 c 0,-0.0081 -0.0033,-0.01479 -0.0074,-0.01479 -0.0041,0 -0.0074,0.0067 -0.0074,0.01479 0,0.0081 0.0033,0.01479 0.0074,0.01479 0.0041,0 0.0074,-0.0067 0.0074,-0.01479 z m -0.02218,-1.264762 c 0,-0.06379 -0.0028,-0.103075 -0.0074,-0.103075 -0.0046,0 -0.0074,0.04081 -0.0074,0.107645 0,0.06988 0.0026,0.106042 0.0074,0.103075 0.0044,-0.0027 0.0074,-0.0469 0.0074,-0.107645 z"
       id="path7570" />
    <path
       style="color:#000000;fill:#f25022;stroke-width:0.00739372;-inkscape-stroke:none"
       d="M 8.8798521,16.924056 V 14.69839 L 9.0451129,14.423132 C 9.3802836,13.864873 9.6041769,13.471 9.8656358,12.979667 l 0.062952,-0.118299 5.7565932,-0.0019 c 3.166126,-10e-4 5.756594,-5.52e-4 5.756594,10e-4 0,0.02688 -0.196347,0.806295 -0.3364,1.335379 -0.159653,0.603123 -0.17093,0.646432 -0.236344,0.907728 -0.153537,0.613291 -0.242767,1.037972 -0.281541,1.339962 -0.01596,0.12427 -0.02302,0.56197 -0.01158,0.717636 0.02098,0.285559 0.122447,0.504496 0.319993,0.690457 0.223543,0.210434 0.483346,0.308047 0.877123,0.329552 0.296758,0.01621 0.494233,-0.01455 0.69593,-0.108385 0.161302,-0.07504 0.320973,-0.210329 0.431042,-0.365215 0.05358,-0.0754 0.138025,-0.233276 0.175832,-0.32874 0.01289,-0.03253 0.0248,-0.06054 0.02648,-0.06223 0.0017,-0.0017 0.0031,0.410044 0.0031,0.914973 v 0.918053 h -4.069018 -4.06902 l -0.0049,-0.825835 c -0.0034,-0.574213 -0.0073,-0.828214 -0.01284,-0.833642 -0.0049,-0.0048 -0.0074,-0.005 -0.0066,-4.12e-4 7.72e-4,0.0041 10e-4,0.379205 5.28e-4,0.833641 l -8.75e-4,0.826248 h -3.03141 -3.0314229 z m 8.1848429,-0.136189 c 0,-0.0059 -0.0033,-0.01271 -0.0074,-0.01522 -0.0041,-0.0025 -0.0074,0.0023 -0.0074,0.01065 0,0.0084 0.0033,0.01522 0.0074,0.01522 0.0041,0 0.0074,-0.0048 0.0074,-0.01065 z m -0.03156,-1.299882 c -0.0016,-0.01728 -0.0028,-0.0031 -0.0028,0.03142 0,0.03457 0.0013,0.04871 0.0028,0.03142 0.0016,-0.01728 0.0016,-0.04556 0,-0.06285 z"
       id="path7609" />
    <path
       style="color:#000000;fill:#f25022;stroke-width:0.00739372;-inkscape-stroke:none"
       d="m 8.8798521,16.923771 v -2.225952 l 0.2045922,-0.341516 c 0.3013042,-0.502952 0.5343499,-0.913995 0.7846924,-1.384029 l 0.059069,-0.110906 5.7567843,-0.0019 c 3.166231,-10e-4 5.756785,-3.28e-4 5.756785,0.0015 0,0.02947 -0.204205,0.836935 -0.369372,1.460577 -0.338799,1.279242 -0.474268,1.89922 -0.495726,2.268704 -0.01516,0.261009 -0.0064,0.606185 0.01853,0.72688 0.06368,0.308828 0.273278,0.574123 0.571558,0.723448 0.217143,0.108705 0.522345,0.158221 0.862811,0.13998 0.482665,-0.02586 0.837717,-0.296348 1.042646,-0.794317 0.01506,-0.0366 0.02868,-0.06793 0.03026,-0.06962 0.0016,-0.0017 0.0029,0.410044 0.0029,0.914973 v 0.918053 h -4.07024 -4.07024 l -1.5e-5,-0.386322 c -2.2e-5,-0.564624 -0.0084,-1.242296 -0.01554,-1.255083 -0.0034,-0.0061 -0.0063,0.360721 -0.0064,0.815157 l -2.23e-4,0.826248 H 11.911275 8.8798521 Z m 8.1819169,-0.145428 c -0.0075,-0.0075 -0.01372,0.0038 -0.0076,0.01378 0.0047,0.0075 0.0064,0.0075 0.0089,2.9e-5 0.0017,-0.0051 0.0011,-0.01135 -0.0014,-0.01381 z m -0.02875,-1.279267 c -0.0017,-0.01118 -0.0031,-0.002 -0.0031,0.02033 0,0.02237 0.0014,0.03152 0.0031,0.02033 0.0017,-0.01118 0.0017,-0.02948 0,-0.04066 z"
       id="path7648" />
    <path
       style="color:#000000;fill:#f25022;stroke-width:0.00739372;-inkscape-stroke:none"
       d="M 8.8798521,16.923287 V 14.696852 L 9.071025,14.378001 c 0.2970058,-0.495366 0.5070989,-0.863396 0.7180575,-1.257853 0.050021,-0.09353 0.1022991,-0.19085 0.1161739,-0.216266 l 0.025227,-0.04621 h 5.7556456 c 3.165605,0 5.755646,0.0018 5.755646,0.0039 0,0.02845 -0.206913,0.847476 -0.36232,1.434174 -0.257722,0.972962 -0.38429,1.505486 -0.454263,1.911275 -0.04038,0.234163 -0.04856,0.322786 -0.05326,0.57671 -0.0046,0.248607 0.0037,0.438988 0.02311,0.532347 0.06388,0.306678 0.265541,0.565424 0.558381,0.71643 0.204209,0.105303 0.422745,0.148763 0.74672,0.1485 0.236987,-1.93e-4 0.338795,-0.01664 0.506826,-0.08187 0.137308,-0.0533 0.25723,-0.133524 0.369374,-0.247091 0.109238,-0.110623 0.201948,-0.252432 0.276958,-0.42363 0.01905,-0.04349 0.03834,-0.08739 0.04285,-0.09755 0.0061,-0.01368 0.0083,0.220355 0.0087,0.900185 l 5e-4,0.918669 h -4.07024 -4.07024 l -7e-6,-0.360444 c -10e-6,-0.541856 -0.009,-1.236599 -0.01599,-1.236599 -0.0034,0 -0.0062,0.359335 -0.0062,0.798522 v 0.798521 H 11.911275 8.8798521 Z m 8.1819169,-0.144944 c -0.0075,-0.0075 -0.01372,0.0038 -0.0076,0.01378 0.0047,0.0075 0.0064,0.0075 0.0089,2.9e-5 0.0017,-0.0051 0.0011,-0.01135 -0.0014,-0.01381 z m -0.02895,-1.271873 c -0.0019,-0.0071 -0.0034,-0.0013 -0.0034,0.01294 0,0.01423 0.0015,0.02006 0.0034,0.01294 0.0019,-0.0071 0.0019,-0.01876 0,-0.02588 z"
       id="path7687" />
    <path
       style="color:#000000;fill:#f25022;stroke-width:0.0418252;-inkscape-stroke:none"
       d="M 14.868848,30.966513 C 13.83606,30.89963 12.758295,30.698566 11.874588,30.407915 8.6818488,29.357821 6.6701752,26.897895 6.127536,23.38027 6.0331587,22.768475 5.9976735,21.407976 6.0625066,20.887045 c 0.1813873,-1.45744 0.7312982,-2.729958 2.3296105,-5.390819 2.0473099,-3.40835 2.4469599,-4.309268 2.7740779,-6.2535106 0.09406,-0.5590604 0.155398,-0.794031 0.207273,-0.794031 0.0178,0 0.103629,0.2399719 0.190737,0.5332709 0.359688,1.2110947 0.640751,1.7135027 1.087499,1.9439327 0.411023,0.212005 0.982758,0.01897 1.559429,-0.52651 0.845016,-0.7993109 1.365124,-2.1205613 1.496435,-3.8014574 l 0.02859,-0.3659703 h 1.252132 1.252131 l 0.271925,0.2719244 c 0.642869,0.642869 1.182608,0.8689895 1.522336,0.6377731 0.229323,-0.1560759 0.303859,-0.2924081 0.3307,-0.604877 l 0.02439,-0.2839079 0.346984,-0.012179 0.346983,-0.012179 0.139562,0.3049551 c 0.456613,0.9977393 0.638066,2.0584453 0.595945,3.483668 -0.03653,1.236016 -0.200867,2.186077 -0.7572,4.37749 -0.422127,1.662766 -0.497549,2.073524 -0.476783,2.59659 0.02827,0.711988 0.33185,1.05414 1.031649,1.162718 0.757365,0.117509 1.282992,-0.216096 1.514541,-0.961249 0.09724,-0.31292 0.163564,-1.018518 0.164507,-1.750045 8.53e-4,-0.662514 0.03045,-0.682266 0.416134,-0.277715 1.112545,1.166963 1.849282,2.724083 2.16536,4.576563 0.05909,0.346321 0.07472,0.669064 0.07393,1.526619 -8.75e-4,0.947128 -0.01338,1.156717 -0.09695,1.624202 -0.188977,1.057234 -0.475335,1.930865 -0.929631,2.836157 -1.471516,2.932337 -4.186964,4.746064 -7.725336,5.159979 -0.526858,0.06163 -1.883011,0.107063 -2.330618,0.07808 z m -0.02219,-5.747734 c -0.126196,-0.177225 -0.155789,-0.121933 -0.03733,0.06974 0.05302,0.0858 0.103703,0.134115 0.112616,0.107373 0.0089,-0.02674 -0.02497,-0.106442 -0.07529,-0.177114 z m -0.164941,-0.374912 -0.03434,-0.146104 -0.0043,0.128961 c -0.0024,0.07093 0.0083,0.141508 0.0236,0.156844 0.04709,0.04709 0.0508,0.01252 0.01502,-0.139701 z M 16.72297,22.07891 c 0.290485,-0.286095 0.316247,-0.386715 0.325396,-1.270888 l 0.0082,-0.794678 -0.03399,0.64829 c -0.05811,1.108279 -0.07633,1.173851 -0.406452,1.463434 -0.109868,0.09638 -0.162118,0.156282 -0.11611,0.133126 0.04601,-0.02315 0.146329,-0.103833 0.222937,-0.179284 z m -1.648931,-0.340278 c -0.01677,-0.05176 -0.04369,-0.207034 -0.05983,-0.345058 l -0.02935,-0.250951 -0.0057,0.237772 c -0.0054,0.223784 0.04546,0.452344 0.100624,0.452344 0.01362,0 0.01105,-0.04235 -0.0057,-0.09411 z m -0.111188,-2.08886 c -0.0072,-0.283116 -0.0132,-0.06304 -0.01322,0.489047 -2.7e-5,0.552093 0.0059,0.783733 0.01318,0.514757 0.0073,-0.268976 0.0073,-0.720687 4e-5,-1.003804 z"
       id="path7765" />
    <path
       style="color:#000000;fill:#f25022;stroke-width:0.0418252;-inkscape-stroke:none"
       d="M 14.847935,30.963544 C 12.910001,30.850382 11.081545,30.281476 9.7214312,29.368484 8.2170391,28.358644 7.2014718,27.018126 6.5660866,25.203528 6.2180765,24.209645 6.0695147,23.323071 6.036292,22.041865 6.015786,21.25105 6.023521,21.080995 6.100448,20.631507 c 0.2412366,-1.409556 0.7618202,-2.593061 2.1668472,-4.926156 2.0727748,-3.44191 2.5082808,-4.38562 2.8373378,-6.1482996 0.06012,-0.3220539 0.127552,-0.6796591 0.149846,-0.7946783 0.04031,-0.207944 0.101623,-0.3501115 0.134772,-0.3124775 0.0095,0.010836 0.115617,0.3302532 0.235716,0.7098166 0.25921,0.819212 0.436363,1.2075858 0.673948,1.4774968 0.23375,0.265555 0.432989,0.362811 0.743253,0.362811 0.387441,0 0.768512,-0.211007 1.241128,-0.687237 C 15.101818,9.4880015 15.5745,8.2528384 15.70493,6.5979206 l 0.02884,-0.3659703 h 1.262766 1.262766 l 0.249642,0.2545786 c 0.286289,0.2919499 0.677899,0.5843436 0.913496,0.6820565 0.324879,0.1347423 0.598347,0.063438 0.807284,-0.2104913 0.09487,-0.1243836 0.119113,-0.2048258 0.132357,-0.4392083 l 0.01621,-0.2869355 h 0.353516 0.353516 l 0.138766,0.3032325 c 0.456068,0.9966027 0.636835,2.0468916 0.595684,3.4610328 -0.03623,1.2449154 -0.205222,2.2340964 -0.739569,4.3289054 -0.434999,1.705329 -0.516208,2.141602 -0.493849,2.653028 0.01962,0.448796 0.09346,0.640833 0.333015,0.86606 0.198088,0.186243 0.364768,0.259769 0.695074,0.306615 0.320692,0.04548 0.678824,0.0046 0.882385,-0.100623 0.192963,-0.09978 0.41147,-0.345865 0.530469,-0.597408 0.16135,-0.341067 0.228014,-0.782228 0.256745,-1.699051 0.02065,-0.658918 0.03819,-0.834613 0.08513,-0.852625 0.113461,-0.04354 0.714636,0.623167 1.162868,1.289624 0.294027,0.437176 0.768064,1.399733 0.93504,1.898645 0.333189,0.995548 0.464245,1.750495 0.494317,2.847512 0.04959,1.80912 -0.262946,3.255381 -1.036052,4.794322 -1.127218,2.243834 -3.019339,3.861279 -5.462108,4.669184 -1.344199,0.444571 -3.060187,0.653949 -4.615307,0.56314 z m 0.05626,-5.598382 c -0.01362,-0.0355 -0.03374,-0.05557 -0.0447,-0.04461 -0.01096,0.01096 -0.0075,0.04001 0.0076,0.06454 0.04124,0.06673 0.06535,0.05377 0.03707,-0.01993 z M 14.666509,24.79187 c -0.0116,-0.02876 -0.0211,-0.0052 -0.0211,0.05228 0,0.05751 0.0095,0.08104 0.0211,0.05228 0.0116,-0.02875 0.0116,-0.07581 0,-0.104562 z m 2.050303,-2.718636 c 0.303541,-0.314688 0.320152,-0.376121 0.330797,-1.223387 l 0.0095,-0.752853 -0.03253,0.611985 c -0.05446,1.024429 -0.08504,1.135055 -0.384547,1.391425 -0.09676,0.08282 -0.157635,0.150586 -0.135281,0.150586 0.02235,0 0.117803,-0.07999 0.212107,-0.177756 z m -1.639149,-0.313689 c -0.01659,-0.04026 -0.04437,-0.176712 -0.06173,-0.303233 l -0.03156,-0.230038 -0.0055,0.195947 c -0.0053,0.191004 0.04947,0.410518 0.102519,0.410518 0.01453,0 0.01284,-0.03294 -0.0038,-0.07319 z m -0.114954,-1.922046 c -0.0079,-0.179332 -0.01434,-0.04374 -0.0144,0.30132 -4.2e-5,0.345058 0.0064,0.491784 0.01429,0.326057 0.0079,-0.165727 0.008,-0.448046 1.26e-4,-0.627377 z"
       id="path7804" />
    <path
       style="color:#000000;fill:#f25022;stroke-width:0.0418252;-inkscape-stroke:none"
       d="M 14.596984,30.948528 C 10.939456,30.627139 8.3185901,28.994301 6.9806964,26.203469 6.3579358,24.904397 6.082831,23.708284 6.0356262,22.094451 c -0.031687,-1.083312 0.032445,-1.606469 0.3087793,-2.51885 0.3121456,-1.030622 0.7984792,-1.994391 2.1323903,-4.225764 2.0251772,-3.387725 2.2923412,-4.008878 2.7420972,-6.3753206 0.05215,-0.2743865 0.114459,-0.5052219 0.138468,-0.5129673 0.02401,-0.00775 0.143465,0.3014485 0.265458,0.6870978 0.458606,1.4497591 0.828942,1.9020171 1.507131,1.8405211 0.76466,-0.06934 1.694721,-1.0506566 2.130298,-2.2477075 0.223113,-0.6131574 0.385919,-1.397943 0.444682,-2.1435399 l 0.02884,-0.3659703 h 1.255996 1.255996 l 0.364081,0.346471 c 0.420399,0.4000645 0.859182,0.6573331 1.121109,0.6573331 0.350377,0 0.637903,-0.3527588 0.637903,-0.782628 V 6.2319503 h 0.358235 0.358236 l 0.138766,0.3032325 c 0.463201,1.0121906 0.637335,2.0310853 0.595082,3.4819452 -0.03632,1.247181 -0.195077,2.166483 -0.758398,4.391643 -0.417298,1.648356 -0.501509,2.112932 -0.473152,2.610279 0.02314,0.405787 0.08708,0.568798 0.317405,0.809198 0.216374,0.225836 0.517591,0.327138 0.974898,0.327865 0.453586,7.19e-4 0.651691,-0.07672 0.906361,-0.354294 0.189336,-0.206366 0.297228,-0.419263 0.37839,-0.746659 0.06616,-0.266873 0.130467,-1.077292 0.131277,-1.654354 8.07e-4,-0.576069 0.0373,-0.614544 0.321475,-0.338953 0.870517,0.844221 1.639583,2.209764 2.023088,3.592173 0.212754,0.766904 0.297217,1.365802 0.321476,2.279472 0.04299,1.619287 -0.194437,2.910899 -0.783461,4.262 -1.420596,3.258557 -4.213977,5.249797 -7.988391,5.694465 -0.663142,0.07813 -2.021449,0.108802 -2.593161,0.05856 z m 0.300444,-5.611537 c -0.03001,-0.03001 -0.04949,-0.03248 -0.04949,-0.0063 0,0.05583 0.04946,0.10529 0.07738,0.07738 0.01188,-0.01188 -6.61e-4,-0.04388 -0.02788,-0.0711 z m -0.230047,-0.500682 c -0.01335,-0.03336 -0.02326,-0.02345 -0.02527,0.02527 -0.0018,0.04409 0.0081,0.06879 0.02197,0.0549 0.0139,-0.0139 0.01538,-0.04997 0.0033,-0.08017 z m 2.051999,-2.763075 c 0.278223,-0.284183 0.312893,-0.411799 0.326688,-1.202474 l 0.01204,-0.690115 -0.03418,0.57769 c -0.05835,0.986161 -0.08761,1.088425 -0.383937,1.342069 -0.09676,0.08282 -0.157635,0.150586 -0.135281,0.150586 0.02235,0 0.118959,-0.07999 0.214675,-0.177756 z m -1.641298,-0.313689 c -0.01637,-0.04026 -0.04426,-0.167301 -0.06199,-0.28232 l -0.03224,-0.209126 -0.0052,0.175034 c -0.0052,0.173401 0.05187,0.389606 0.102785,0.389606 0.01453,0 0.01303,-0.03294 -0.0033,-0.07319 z m -0.115933,-1.820657 c -0.0088,-0.09707 -0.01585,-0.0071 -0.01572,0.199931 1.25e-4,0.207035 0.0073,0.286458 0.01595,0.176495 0.0086,-0.109962 0.0085,-0.279354 -2.51e-4,-0.376426 z"
       id="path7843" />
    <path
       style="color:#000000;fill:#f25022;stroke-width:0.0418252;-inkscape-stroke:none"
       d="M 14.596984,30.949866 C 12.192808,30.723536 10.333703,29.999537 8.8575547,28.714736 7.5468315,27.573917 6.6116191,25.873836 6.2115744,23.904727 6.0256672,22.98965 5.9680201,21.480622 6.0880815,20.672051 6.2915388,19.301835 6.8080538,18.143515 8.418518,15.445884 c 2.021336,-3.385866 2.382277,-4.196624 2.728526,-6.1289022 0.113033,-0.6307892 0.174495,-0.8682974 0.224696,-0.8682974 0.01685,0 0.120428,0.2870252 0.230179,0.6378338 0.452491,1.4463328 0.846393,1.9519108 1.484782,1.9057348 0.652929,-0.04723 1.424782,-0.727885 1.917062,-1.6905542 0.359245,-0.7025159 0.595695,-1.5823572 0.679396,-2.5280662 0.02331,-0.2634195 0.04255,-0.4930605 0.04275,-0.5103134 1.97e-4,-0.017253 0.570411,-0.031369 1.267142,-0.031369 h 1.266783 l 0.207554,0.2129672 c 0.452694,0.4645013 0.978503,0.7896151 1.278366,0.7904283 0.334652,9.076e-4 0.623107,-0.3612057 0.623107,-0.7822194 v -0.221176 h 0.358235 0.358236 l 0.139384,0.3032325 c 0.216425,0.4708327 0.395604,1.0500827 0.494795,1.5995724 0.07754,0.4295737 0.09061,0.6562771 0.09038,1.5686843 -3.76e-4,1.4810195 -0.115445,2.2042695 -0.748671,4.7053315 -0.192198,0.759127 -0.382027,1.575527 -0.421842,1.814223 -0.09212,0.552239 -0.06948,1.081779 0.05684,1.329371 0.118452,0.232185 0.397297,0.462668 0.650845,0.537963 0.239516,0.07113 0.770002,0.0811 0.994667,0.0187 0.341892,-0.09496 0.703503,-0.558495 0.824777,-1.057252 0.06325,-0.260135 0.127961,-1.097679 0.12917,-1.671884 0.0012,-0.561268 0.03845,-0.59361 0.342484,-0.297175 0.992576,0.967782 1.830006,2.595397 2.1448,4.1686 0.143345,0.716373 0.190476,1.2154 0.190476,2.01678 0,1.127384 -0.13779,2.034969 -0.463739,3.054536 -1.074439,3.360835 -3.786635,5.731854 -7.341349,6.417853 -1.024722,0.197754 -2.670136,0.29422 -3.571359,0.209378 z m 0.334602,-5.580432 c 0,-0.01014 -0.01882,-0.03008 -0.04182,-0.04429 -0.023,-0.01422 -0.04183,-0.0059 -0.04183,0.01844 0,0.02436 0.01882,0.04429 0.04183,0.04429 0.023,0 0.04182,-0.0083 0.04182,-0.01844 z m -0.264205,-0.533125 c -0.01335,-0.03336 -0.02326,-0.02345 -0.02527,0.02527 -0.0018,0.04409 0.0081,0.06879 0.02197,0.0549 0.0139,-0.0139 0.01538,-0.04997 0.0033,-0.08017 z m 2.278235,-3.074943 c 0.06328,-0.13999 0.08248,-0.298075 0.09398,-0.773765 0.0079,-0.328807 0.0075,-0.484903 -9.41e-4,-0.34688 -0.03218,0.524628 -0.101548,1.076088 -0.146385,1.163682 -0.02564,0.05009 -0.114974,0.166334 -0.198518,0.258319 l -0.1519,0.167245 0.162115,-0.146332 c 0.08916,-0.08048 0.197904,-0.225504 0.241646,-0.322269 z m -1.872466,-0.02273 c -0.01726,-0.05176 -0.04598,-0.169392 -0.06382,-0.261407 -0.02873,-0.148146 -0.03047,-0.142046 -0.01512,0.05328 0.01661,0.211494 0.04335,0.302236 0.08906,0.302236 0.01169,0 0.0071,-0.04235 -0.01011,-0.09411 z m -0.112047,-1.673007 c -0.01,-0.05176 -0.01813,-0.0094 -0.01813,0.09411 0,0.103517 0.0082,0.145865 0.01813,0.09411 0.01,-0.05176 0.01,-0.136455 0,-0.188214 z"
       id="path7882" />
    <path
       style="color:#000000;fill:#f25022;stroke-width:0.0418252;-inkscape-stroke:none"
       d="m 14.764285,30.967259 c -0.103517,-0.0093 -0.43289,-0.04645 -0.73194,-0.08258 -3.301331,-0.39878 -5.7833074,-2.041081 -7.0430198,-4.6603 C 6.3183868,24.82935 6.023855,23.477385 6.0234737,21.790911 c -4.136e-4,-1.829219 0.4714901,-3.124815 2.1785004,-5.981 2.1450719,-3.589154 2.5673789,-4.493094 2.8821579,-6.1692123 0.188622,-1.004364 0.215954,-1.1307075 0.252738,-1.1683164 0.021,-0.02147 0.04525,-0.030881 0.05388,-0.020913 0.0086,0.00997 0.122383,0.3457108 0.252776,0.7460943 0.348329,1.0695754 0.616443,1.5289684 1.000993,1.7151264 0.345673,0.167337 0.759321,0.08561 1.226212,-0.242278 0.812498,-0.570594 1.394937,-1.6011789 1.666879,-2.9494241 0.07963,-0.3948043 0.188372,-1.2351535 0.18862,-1.4576721 1.9e-5,-0.017253 0.569969,-0.031369 1.266555,-0.031369 h 1.266521 l 0.249642,0.2538154 c 0.289935,0.2947824 0.788781,0.6428093 1.021173,0.7124356 0.456378,0.136734 0.837761,-0.221903 0.838504,-0.788494 l 2.34e-4,-0.177757 h 0.370835 0.370836 l 0.211872,0.533271 c 0.405184,1.0198311 0.485277,1.4999648 0.486649,2.9173056 0.0015,1.5095636 -0.09606,2.1276266 -0.748708,4.7452646 -0.497461,1.99521 -0.563824,2.470229 -0.415533,2.974344 0.08941,0.30393 0.380794,0.592731 0.690989,0.684848 0.259486,0.07706 0.77567,0.08524 1.006922,0.01595 0.241226,-0.07227 0.5127,-0.333098 0.661685,-0.635729 0.173462,-0.352353 0.24247,-0.787022 0.276813,-1.743605 0.0227,-0.632241 0.04114,-0.804517 0.08802,-0.822507 0.07234,-0.02776 0.383299,0.269207 0.732646,0.699692 0.969525,1.194705 1.635777,2.84866 1.828026,4.538031 0.05579,0.490254 0.05547,1.712669 -5.81e-4,2.228839 -0.106711,0.982655 -0.399187,2.060996 -0.799863,2.94904 -1.434093,3.178468 -4.219711,5.13857 -7.918406,5.571792 -0.533193,0.06245 -2.0755,0.112104 -2.446772,0.07877 z m 0.167301,-5.597825 c 0,-0.01014 -0.01882,-0.03008 -0.04182,-0.04429 -0.023,-0.01422 -0.04183,-0.0059 -0.04183,0.01844 0,0.02436 0.01882,0.04429 0.04183,0.04429 0.023,0 0.04182,-0.0083 0.04182,-0.01844 z m 0.141959,-3.630802 c -0.01704,-0.05176 -0.04437,-0.159981 -0.06075,-0.240495 -0.02449,-0.120439 -0.03062,-0.127105 -0.03458,-0.03761 -0.0049,0.109815 0.07034,0.372212 0.106663,0.372212 0.0108,0 0.0057,-0.04235 -0.01134,-0.09411 z m 1.89422,-0.122861 c -0.01335,-0.03336 -0.02326,-0.02345 -0.02527,0.02527 -0.0018,0.04409 0.0081,0.06879 0.02197,0.0549 0.0139,-0.0139 0.01538,-0.04997 0.0033,-0.08017 z m 0.04277,-0.379041 c -0.01,-0.05176 -0.01812,-0.0094 -0.01812,0.09411 0,0.103517 0.0082,0.145865 0.01812,0.09411 0.01,-0.05176 0.01,-0.136454 0,-0.188213 z m 0.04227,-0.480989 c -0.0096,-0.06326 -0.01742,-0.0115 -0.01742,0.115019 0,0.126521 0.0078,0.17828 0.01742,0.115019 0.0096,-0.06326 0.0096,-0.166778 0,-0.230038 z"
       id="path7921" />
    <path
       style="color:#000000;fill:#f25022;stroke-width:0.0418252;-inkscape-stroke:none"
       d="M 14.743372,30.96426 C 13.670658,30.873663 12.736765,30.691582 11.848656,30.399877 9.6196498,29.667745 7.940461,28.215798 6.9706883,26.182037 6.3365761,24.852207 6.0817241,23.745088 6.0356676,22.120153 6.0079928,21.14375 6.049218,20.690133 6.2309377,19.971519 6.5340898,18.772698 6.9941805,17.823535 8.4610835,15.37075 10.356068,12.202177 10.781718,11.259296 11.104481,9.5152262 11.254025,8.7071569 11.309129,8.4780945 11.357886,8.461842 c 0.02303,-0.00768 0.141295,0.2920674 0.262804,0.6661004 0.480352,1.4786326 0.856821,1.9362726 1.527684,1.8570746 0.565294,-0.06673 1.283895,-0.674988 1.740721,-1.4734166 0.45144,-0.7890147 0.694321,-1.6795865 0.817448,-2.9973302 l 0.02638,-0.2823199 h 1.257024 1.257023 l 0.311491,0.2958853 c 0.348132,0.3306917 0.741965,0.6015474 0.977105,0.6719971 0.450855,0.1350795 0.83232,-0.2267259 0.833059,-0.7901254 l 2.34e-4,-0.177757 h 0.367119 0.36712 l 0.113417,0.2614074 c 0.450193,1.0376152 0.616225,1.9017577 0.616225,3.2072492 0,1.3210921 -0.143956,2.2021271 -0.772605,4.7284881 -0.415463,1.669628 -0.501831,2.1464 -0.470811,2.598979 0.05131,0.74854 0.478087,1.12405 1.277523,1.12405 0.171436,0 0.385579,-0.02213 0.475874,-0.04919 0.350932,-0.105142 0.678273,-0.519948 0.806309,-1.021754 0.06921,-0.271255 0.146649,-1.210114 0.147223,-1.78494 5.15e-4,-0.515055 0.04579,-0.521342 0.478478,-0.06644 0.491048,0.516256 0.858776,1.055851 1.236194,1.813957 0.679606,1.365103 0.962507,2.600579 0.962507,4.203429 0,1.153823 -0.140591,2.087115 -0.464276,3.082044 -1.161949,3.571546 -4.043437,5.940663 -7.921671,6.51308 -0.804496,0.118742 -2.18249,0.177827 -2.844113,0.12195 z m 0.317239,-9.261381 c -0.02204,-0.0551 -0.04127,-0.07819 -0.04272,-0.05132 -0.0035,0.06527 0.04518,0.189113 0.06615,0.168141 0.0092,-0.0092 -0.0014,-0.06172 -0.02343,-0.116823 z m 1.907154,-0.08711 c -0.01335,-0.03336 -0.02326,-0.02345 -0.02527,0.02527 -0.0018,0.04409 0.0081,0.06879 0.02197,0.0549 0.0139,-0.0139 0.01538,-0.04997 0.0033,-0.08017 z m -1.966654,-0.169915 c -0.0116,-0.02876 -0.0211,-0.0052 -0.0211,0.05228 0,0.05751 0.0095,0.08104 0.0211,0.05228 0.0116,-0.02876 0.0116,-0.07581 0,-0.104563 z m 2.008739,-0.188213 c -0.01052,-0.04026 -0.01913,-0.0073 -0.01913,0.07319 0,0.08051 0.0086,0.113451 0.01913,0.07319 0.01052,-0.04026 0.01052,-0.106132 0,-0.146388 z m 0.04069,-0.48099 c -0.0116,-0.02876 -0.0211,-0.0052 -0.0211,0.05228 0,0.05751 0.0095,0.08104 0.0211,0.05228 0.0116,-0.02875 0.0116,-0.07581 0,-0.104563 z"
       id="path7960" />
    <path
       style="color:#000000;fill:#f25022;stroke-width:0.0418252;-inkscape-stroke:none"
       d="M 14.72246,30.963862 C 11.858246,30.75119 9.4693583,29.638707 8.0139496,27.83977 7.0170637,26.607583 6.3747213,25.097086 6.1185754,23.382712 6.0648077,23.022847 6.0462338,22.62667 6.0459083,21.832739 6.0455166,20.877395 6.05539,20.720934 6.1406073,20.332068 6.4429835,18.952256 6.9353197,17.899079 8.4696846,15.349837 10.142277,12.570941 10.71696,11.348994 11.017008,9.9334779 c 0.05851,-0.2760461 0.145699,-0.7089366 0.193745,-0.9619789 0.07844,-0.4131233 0.133812,-0.5729184 0.180192,-0.5200263 0.0087,0.00997 0.114884,0.3192655 0.235874,0.687327 0.393419,1.1968143 0.706577,1.6954833 1.140912,1.8167783 0.722286,0.201708 1.707803,-0.560847 2.287836,-1.7702391 0.364926,-0.7608846 0.515744,-1.3884437 0.651979,-2.7128938 l 0.02474,-0.2404948 h 1.25617 1.256169 l 0.31113,0.2905611 c 0.499921,0.4668709 0.918358,0.7138891 1.206641,0.7123217 0.153177,-8.327e-4 0.408053,-0.1818653 0.496133,-0.3523916 0.0469,-0.090805 0.09318,-0.2743127 0.102831,-0.4077954 l 0.01755,-0.2426958 h 0.36622 0.366219 l 0.178646,0.428708 c 0.206148,0.4947096 0.337261,0.9444414 0.444481,1.5246187 0.06104,0.3303018 0.07559,0.6248005 0.07499,1.5181625 -0.001,1.5303195 -0.07952,2.0264405 -0.745142,4.7095505 -0.409118,1.649148 -0.508097,2.204 -0.471179,2.641307 0.04212,0.498958 0.20523,0.766025 0.586291,0.959979 0.173265,0.08819 0.291015,0.112766 0.616938,0.128771 0.364281,0.01789 0.424562,0.0098 0.630318,-0.08438 0.358426,-0.164093 0.60852,-0.512438 0.723332,-1.007497 0.06833,-0.294615 0.14565,-1.233685 0.146224,-1.775839 5.23e-4,-0.491693 0.04966,-0.496369 0.478478,-0.04553 0.48302,0.507816 0.856923,1.052699 1.216053,1.772132 0.462123,0.92576 0.712512,1.68166 0.879946,2.656481 0.09218,0.536694 0.128233,2.026416 0.0639,2.64078 -0.268004,2.559585 -1.458941,4.822221 -3.390867,6.442234 -1.01549,0.851537 -2.619481,1.615771 -4.057042,1.933007 -1.158982,0.255761 -2.66165,0.371298 -3.764265,0.289428 z m 0.321347,-9.306266 c -0.01335,-0.03336 -0.02326,-0.02346 -0.02527,0.02527 -0.0018,0.04409 0.0081,0.06879 0.02197,0.0549 0.0139,-0.0139 0.01538,-0.04997 0.0033,-0.08016 z m 1.923958,-0.04183 c -0.01335,-0.03336 -0.02326,-0.02345 -0.02527,0.02527 -0.0018,0.04409 0.0081,0.06879 0.02197,0.0549 0.0139,-0.0139 0.01538,-0.04997 0.0033,-0.08017 z M 15.001982,21.49029 c -0.01335,-0.03336 -0.02326,-0.02345 -0.02527,0.02527 -0.0018,0.04409 0.0081,0.06879 0.02197,0.0549 0.0139,-0.0139 0.01538,-0.04997 0.0033,-0.08017 z m 2.006737,-0.21174 c -0.0116,-0.02876 -0.0211,-0.0052 -0.0211,0.05228 0,0.05751 0.0095,0.08104 0.0211,0.05228 0.0116,-0.02876 0.0116,-0.07581 0,-0.104563 z"
       id="path7999" />
    <path
       style="color:#000000;fill:#f25022;stroke-width:0.0418252;-inkscape-stroke:none"
       d="M 14.283296,30.927234 C 10.762565,30.525101 8.2778331,28.913025 6.9694104,26.182037 6.2891388,24.762149 6.0440658,23.604228 6.0444595,21.811826 c 2.297e-4,-1.046156 0.0047,-1.106274 0.1177978,-1.583011 0.1744917,-0.735548 0.4118918,-1.388569 0.78388,-2.156231 0.3877846,-0.800262 0.5103438,-1.019195 1.5241966,-2.722747 1.9170261,-3.221131 2.3069831,-4.096375 2.6554571,-5.9600863 0.146311,-0.7825001 0.17831,-0.9099805 0.232995,-0.9282088 0.02228,-0.00743 0.131485,0.2642547 0.242669,0.6037396 0.22884,0.6987358 0.505592,1.3189825 0.695535,1.5588035 0.07212,0.09106 0.22953,0.211757 0.358394,0.274804 0.191461,0.09367 0.264956,0.10826 0.440632,0.08745 0.964377,-0.114216 1.960437,-1.3408798 2.354372,-2.8994463 0.09456,-0.3741035 0.190594,-0.977717 0.256865,-1.6144506 l 0.02503,-0.2404948 h 1.257116 1.257116 l 0.288865,0.2725006 c 0.575957,0.5433286 1.094051,0.805189 1.368312,0.6915864 0.273765,-0.1133972 0.464393,-0.4443766 0.464932,-0.8072426 l 2.34e-4,-0.1568444 h 0.371247 0.371246 l 0.178646,0.428708 c 0.206385,0.4952781 0.337529,0.9453559 0.444243,1.5246187 0.06021,0.326808 0.07561,0.6300153 0.07605,1.4972499 7.53e-4,1.4788811 -0.09668,2.1228831 -0.667583,4.4125551 -0.555419,2.227561 -0.63316,2.722631 -0.505723,3.220538 0.08744,0.341638 0.236998,0.529785 0.548571,0.690116 0.225996,0.116294 0.276426,0.125475 0.689182,0.125475 0.421851,0 0.456059,-0.0066 0.648465,-0.125515 0.111717,-0.06903 0.266665,-0.213981 0.344329,-0.322103 0.28006,-0.389893 0.362527,-0.797305 0.412985,-2.040277 0.02385,-0.587466 0.04089,-0.723869 0.09297,-0.743851 0.08613,-0.03305 0.654868,0.568139 1.021816,1.080114 0.318975,0.445042 0.880734,1.54525 1.07421,2.103845 0.160523,0.463457 0.312573,1.059659 0.401669,1.574989 0.105497,0.610195 0.128907,2.182667 0.04233,2.843528 -0.374916,2.861874 -1.844462,5.281473 -4.122596,6.787835 -1.278073,0.845095 -2.829171,1.38973 -4.558944,1.600776 -0.770605,0.09402 -2.282049,0.112822 -2.948674,0.03668 z m 2.726294,-9.604239 c -0.01335,-0.03337 -0.02326,-0.02345 -0.02527,0.02527 -0.0018,0.04409 0.0081,0.06879 0.02197,0.0549 0.0139,-0.0139 0.01538,-0.04997 0.0033,-0.08017 z"
       id="path8038" />
    <path
       style="color:#000000;fill:#ffffff;stroke-width:0.0353858;-inkscape-stroke:none"
       d="m 14.428419,14.589621 c 0.97223,3.858629 -3.33333,6.455097 -3.33333,9.808871 a 5.0000003,5.192928 0 0 0 10,0 c 0,-6.346917 -4.375,-9.808871 -6.66667,-9.808871 z m 0.55644,6.553002 c 1.45833,0 3.33333,2.534804 3.33333,4.615933 0,2.081143 -1.11111,2.884963 -2.22222,2.884963 -1.11111,0 -2.22222,-0.80382 -2.22222,-2.884963 0,-2.081129 1.38889,-3.101324 1.11111,-4.615933 z"
       id="path4" />
  </g>
</svg>
