<svg xmlns="http://www.w3.org/2000/svg" viewBox="0 0 32 32">
  <path fill="#D1954E" d="M25.8 27.2v.9c0 .1 0 .2-.1.3-.1.1-.2.1-.3.1H6.6c-.1 0-.2 0-.3-.1-.1-.1-.1-.2-.1-.3v-.9c0-.1 0-.2.1-.3s.2-.1.3-.1h18.8c.1 0 .2 0 .3.1.1 0 .1.1.1.3zm-3.5-14.8c0 .7-.1 1.4-.3 2s-.6 1.2-1 1.6l-1.2 1.2c-.4.4-.9.7-1.3 1.1-.4.3-.9.7-1.2 1-.4.3-.7.7-.9 1.1-.2.4-.3.9-.3 1.3 0 .9.3 1.9.9 3.1h-.1c-.8-.4-1.6-.8-2.2-1.2s-1.3-.9-1.9-1.4-1.2-1.1-1.6-1.7c-.4-.6-.8-1.3-1-2.1-.3-.8-.4-1.7-.4-2.6 0-.7.1-1.4.3-2s.5-1.1.9-1.6l1.2-1.2c.4-.4.9-.7 1.3-1.1.4-.3.9-.7 1.2-1 .4-.3.7-.7.9-1.1.3-.3.4-.7.4-1.2 0-.9-.3-1.9-.9-3.1.8.4 1.6.8 2.2 1.2.7.3 1.3.8 2 1.4s1.2 1.1 1.6 1.7c.4.6.8 1.3 1 2.1s.4 1.6.4 2.5z"/>
</svg>
