<svg height="32" viewBox="0 0 32 32" width="32" xmlns="http://www.w3.org/2000/svg"><path d="m13.214929.99979791c.620029.23124699 1.85371.85527039 2.365234 3.55273439.375118 1.982473.02548 5.2683733-2.009766 6.3183597-2.238305 1.154984-1.983328-4.6989417-2.4375-1.4589847-.629329 4.4911887-5.1312618 7.8731837-5.1328118 12.2656247 0 5.687423 3.602968 9.278517 9.5273438 9.322266 10.731154.07875 12.892462-11.376704 7.957031-16.087891-.65103-.619991.710551 3.678745-1.919922 3.25-2.531268-.414994.5323-4.525607.273438-9.0292966-.113155-1.992473-.821955-3.8167338-2.585938-4.9804687 1.71748 1.216234 1.307705 3.6267888.125 2.9980468-2.752929-1.46498-.770955-4.2204166-6.162109-6.15039059zm2.78125 13.25000009c.298171 0 .565548.124154.757812.322266.192265.198111.310547.470179.310547.763672v5.972656c0 .293492-.118369.565204-.310547.763672-.192177.198467-.459293.324218-.757812.324218-.29852 0-.564049-.125751-.75586-.324218-.19181-.198468-.308593-.47018-.308593-.763672v-5.972656c0-.293493.116695-.565561.308593-.763672.191898-.198112.457689-.322266.75586-.322266zm.0039 8.953125c.374373-.000001.725948.141519.990234.398437.263746.256433.410157.596022.410157.960938 0 .364881-.145847.707925-.410157.964844-.264274.256885-.615848.396484-.990234.396484-.374364 0-.725956-.139564-.990234-.396484-.264248-.256907-.410157-.599937-.410157-.964844 0-.364892.146324-.704494.410157-.960938.264274-.256883.615848-.398437.990234-.398437z" fill="#f25022" stroke-width="1.39196"/></svg>