<?xml version="1.0" encoding="UTF-8" standalone="no"?>
<svg
   xmlns:dc="http://purl.org/dc/elements/1.1/"
   xmlns:cc="http://creativecommons.org/ns#"
   xmlns:rdf="http://www.w3.org/1999/02/22-rdf-syntax-ns#"
   xmlns:svg="http://www.w3.org/2000/svg"
   xmlns="http://www.w3.org/2000/svg"
   xmlns:sodipodi="http://sodipodi.sourceforge.net/DTD/sodipodi-0.dtd"
   xmlns:inkscape="http://www.inkscape.org/namespaces/inkscape"
   viewBox="0 0 32 32"
   version="1.1"
   id="svg6"
   sodipodi:docname="folder-documents.svg"
   inkscape:version="0.92.4 5da689c313, 2019-01-14"
   width="32"
   height="32">
  <metadata
     id="metadata10">
    <rdf:RDF>
      <cc:Work
         rdf:about="">
        <dc:format>image/svg+xml</dc:format>
        <dc:type
           rdf:resource="http://purl.org/dc/dcmitype/StillImage" />
        <dc:title />
      </cc:Work>
    </rdf:RDF>
  </metadata>
  <sodipodi:namedview
     pagecolor="#ffffff"
     bordercolor="#666666"
     borderopacity="1"
     objecttolerance="10"
     gridtolerance="10"
     guidetolerance="10"
     inkscape:pageopacity="0"
     inkscape:pageshadow="2"
     inkscape:window-width="1366"
     inkscape:window-height="703"
     id="namedview8"
     showgrid="false"
     inkscape:zoom="7.375"
     inkscape:cx="-6.711864"
     inkscape:cy="18.847458"
     inkscape:window-x="0"
     inkscape:window-y="0"
     inkscape:window-maximized="1"
     inkscape:current-layer="svg6" />
  <defs
     id="defs3051">
    <style
       type="text/css"
       id="current-color-scheme">
      .ColorScheme-Text {
        color:#f2f2f2;
      }
      </style>
  </defs>
  <g
     id="g825">
    <path
       inkscape:connector-curvature="0"
       id="path4-3"
       class="ColorScheme-Text"
       d="M 2.777778,1.9999999 C 2.346889,1.9999999 2,2.446 2,3 v 3.9218002 2.0782 20.0781988 C 2,29.589599 2.319271,30 2.717014,30 H 29.282985 C 29.680728,30 30,29.5896 30,29.078199 V 6.9218002 C 30,6.4104003 29.680728,6.0000004 29.282985,6.0000004 H 16.556739 c -0.886457,0.034 -1.31646,-0.2642001 -1.707424,-0.7362002 L 13.000691,2.8438 C 12.73928,2.4034 12.542,2 12.111111,2 Z"
       style="color:#f2f2f2;fill:#4285f4;fill-opacity:1;stroke:none;stroke-width:1.76383412" />
    <g
       transform="translate(0,-0.13559295)"
       id="g32">
      <path
         inkscape:connector-curvature="0"
         style="color:#f2f2f2;fill:#ffffff;fill-opacity:1;stroke:none"
         d="m 16,10.169491 c -4.41828,0 -7.9999998,3.581721 -7.9999998,8.000001 0,2.0276 0.75669,3.87132 1.9999997,5.28125 0.2080311,0.267242 0.4988121,0.505096 0.7187501,0.71875 1.40993,1.24331 3.25365,2 5.28125,2 4.41828,0 8,-3.58172 8,-8 0,-2.0276 -0.75669,-3.87132 -2,-5.28125 -0.11136,-0.12621 -0.22478,-0.25603 -0.34375,-0.375 l -0.375,-0.34375 C 19.87132,10.926182 18.0276,10.169491 16,10.169491 Z m 4.949219,3.050783 c 0.697363,0.700308 1.238529,1.540347 1.58789,2.464843 9.7e-4,0.002 0.0029,0.0029 0.0039,0.0059 0.0066,0.0195 0.01311,0.03903 0.01953,0.05859 0.283874,0.68484 0.357738,1.383087 0.423828,2.095703 0.005,0.10821 0.01367,0.214619 0.01367,0.324219 v 0.04297 c -0.06847,3.545269 -2.592827,6.180701 -5.953125,6.871093 -0.12834,0.0192 -0.256209,0.04053 -0.386719,0.05273 -0.135849,0.01048 -0.271974,0.017 -0.408203,0.01953 -0.08368,0.003 -0.16556,0.01368 -0.24999,0.01368 -0.0149,0 -0.03002,-0.0039 -0.04492,-0.0039 -0.82235,0.01319 -1.596767,-0.192715 -2.357422,-0.431641 -0.0456,-0.017 -0.0916,-0.03278 -0.136719,-0.05078 -0.170797,-0.06694 -0.338894,-0.140561 -0.503906,-0.220703 -0.706089,-0.338166 -1.350448,-0.792386 -1.90625,-1.34375 z"
         class="ColorScheme-Text"
         id="path4" />
    </g>
  </g>
</svg>
