<svg height="8px" width="8px" id="Camada_1" data-name="Camada 1" xmlns="http://www.w3.org/2000/svg" xmlns:xlink="http://www.w3.org/1999/xlink" viewBox="0 0 8 8"><defs><style>.cls-1{fill:#edb51f;}.cls-2{fill:#e6a928;}.cls-3{fill:url(#Gradiente_sem_nome_5);}</style><linearGradient id="Gradiente_sem_nome_5" x1="1.8115" y1="2.3769" x2="6.3731" y2="6.9385" gradientUnits="userSpaceOnUse"><stop offset="0" stop-color="#ffe599"/><stop offset="1" stop-color="#ffc938"/></linearGradient></defs><path class="cls-1" d="M6.2941,2H4l-.7618-.7618A.8134.8134,0,0,0,2.6631,1H1.3765A.3765.3765,0,0,0,1,1.3765V3.918A.082.082,0,0,0,1.082,4H6.918A.082.082,0,0,0,7,3.918V2.7059A.7058.7058,0,0,0,6.2941,2Z"/><path class="cls-2" d="M1,6H7A0,0,0,0,1,7,6v.68A.32.32,0,0,1,6.68,7H1.32A.32.32,0,0,1,1,6.68V6A0,0,0,0,1,1,6Z"/><path class="cls-3" d="M6.455,2.5H4.7038a.864.864,0,0,0-.3861.0911l-.7126.3564A.4983.4983,0,0,1,3.3825,3H1.3215A.3216.3216,0,0,0,1,3.3215V6.1784A.3216.3216,0,0,0,1.3216,6.5H6.6785A.3216.3216,0,0,0,7,6.1785V3.045A.545.545,0,0,0,6.455,2.5Z"/></svg>