<svg height="32" viewBox="0 0 32 32" width="32" xmlns="http://www.w3.org/2000/svg"><path d="m2.7777782 1.9999998c-.430889 0-.777778.4460001-.777778 1.0000001v3.9217999 2.0782001 20.0781991c0 .5114.319271.921801.7170139.921801h26.5659709c.397743 0 .717015-.4104.717015-.921801v-22.1563992c0-.5114-.319272-.9218-.717015-.9218h-12.726246c-.886457.034-1.31646-.2642-1.707424-.7362l-1.848624-2.42c-.261411-.4404-.458691-.8438-.88958-.8438z" fill="#4285f4"/><path d="m15.999185 11.414651c-.06874 0-.136501.0017-.204731.0033-.670249.02034-1.315912.139766-1.921836.344394-.1027.03469-.205062.07256-.305446.112049-.03107.01223-.06164.02527-.09246.0379-.06891.02829-.137053.05683-.204732.08733-.09795.04428-.193629.0913-.288936.140063-.09533.04871-.18976.09847-.282331.1516-.372433.213763-.722695.463834-1.045122.743163-.03824.03313-.07479.06649-.112272.100518-.07855.07118-.156191.144326-.231148.219159-.07492.07487-.148245.150671-.219591.229046-.107036.117508-.21031.23911-.308749.364164-.196895.250019-.375222.515427-.534944.792598-.05325.09237-.104762.185007-.153548.280129-.0244.04756-.04767.09515-.071.143358-.0699.144696-.1353971.29299-.1948255.443263-.01978.0501-.03916.100912-.05779.151603-.07443.202735-.138609.409769-.193174.621226-.02695.105544-.05221.212017-.0743.319676v.0016c-.02209.107722-.04106.215114-.05779.324619-.01673.109586-.0299.219924-.04128.33121-.02267.222473-.03467.448743-.03467.677251 0 .228475.01201.454737.03467.677252.0113.111234.02446.221654.04128.331209.01673.109507.03578.218607.05779.326268.02209.107663.0471.213983.0743.319676.05456.211457.118771.418493.193174.621225.03717.101343.07695.200958.1188773.299901.04187.09893.08722.196853.1337362.293312.02324.04822.0466.09742.071.145009.0488.0951.100277.187733.153547.280128.159714.277172.338066.542514.534945.792597.09845.125011.201712.246608.308748.364166.07138.0784.144545.154213.219591.229047.07501.07487.152639.147934.231149.219159.353278.320472.74079.602937 1.157394.842032.09258.05305.187001.104543.282331.153252.190639.09746.385334.186222.586127.265297.10036.03953.202746.07738.305447.112059.667626.225497 1.38264.347686 2.126567.347686.507179 0 1.001475-.05723 1.476048-.164771.221506-.05028.438021-.111156.650518-.182905.102726-.03462.204996-.07259.305447-.112059.200768-.07897.397139-.167794.587777-.265297.09533-.04871.188151-.0985.28068-.151603.416629-.239055.805768-.523248 1.159045-.84368.07856-.07128.154509-.144322.229499-.21916.075-.07479.148223-.1507.219589-.229045.107009-.117515.210336-.239112.308751-.364166.155785-.197814.299841-.404609.432577-.619578.03512-.05683.07063-.115002.104011-.173014.05324-.09234.103103-.184985.151898-.280129.02439-.04757.04932-.09679.07264-.145009.04665-.09642.09016-.194327.132094-.293312.04195-.09899.08173-.198507.118884-.299901.07442-.202735.138612-.4098.19317-.621226.02729-.105759.0522-.212015.0743-.319676.02201-.107741.04263-.216736.05943-.326267.01663-.109547.0299-.219942.04127-.331212.02267-.222463.03468-.448741.03468-.677251 0-.228475-.01199-.454786-.03468-.67725-.01141-.111293-.02446-.221629-.04127-.331207-.01683-.109508-.03735-.216958-.05943-.324619-.02209-.107663-.04702-.215656-.0743-.321323-.05456-.211434-.118787-.418493-.19317-.621226-.01857-.05067-.03808-.101461-.05779-.151603-.05934-.150292-.123314-.296938-.19317-.441633-.02325-.04822-.04825-.09578-.07264-.143361-.0488-.09509-.09864-.189372-.151898-.281747-.159737-.277195-.339732-.542512-.536608-.792597-.09846-.125005-.20169-.246607-.308751-.364166-.0713-.07832-.144568-.154213-.219591-.229046-.07492-.07487-.150987-.147951-.229497-.219159-.152072-.137963-.311028-.268675-.475505-.392179-.217617-.163427-.44629-.313679-.683539-.449853-.09257-.05306-.185391-.104559-.280681-.153247-.04335-.02214-.08658-.04311-.130435-.06427-.05266-.02542-.10675-.05177-.160152-.0758-.02233-.01009-.04528-.01817-.0677-.02801-.07608-.03338-.151945-.06671-.229498-.09722-.000805-.000443-.0025-.000794-.0033-.0016-.08261-.03239-.166757-.06303-.25096-.09228-.01698-.0057-.03404-.01238-.05119-.01813-.196374-.06634-.396879-.123462-.601011-.171373-.0638-.01501-.12706-.02799-.191523-.0412-.04648-.0095-.09355-.01957-.14034-.02801-.348811-.06331-.705996-.09893-1.071539-.105461-.04031-.000735-.08167-.0016-.122178-.0016zm0 .355927c.428861 0 .848189.04303 1.253156.125233-.01698.04461-.07211.02457-.118877.04614-.04385.02034-.0607.06208-.107319.07086-.12957.02436-.236236-.03211-.348375-.02801-.005.04838.05412.07671.08421.09228.101637.05314.185275.04604.328561.04284.07344-.0016.158147.02188.221242-.02142.03997-.02722.03753-.08861.07099-.121938.01425-.01411.03421-.02749.05779-.03955.07039.01656.14015.03379.209684.05273-.0117.04789-.08816.03641-.08916.100518.04954.02969.165134-.01531.209685-.06591.01723.0049.03404.0097.05118.01484.10078.03059.200238.06347.298842.09887.140551.05052.278688.106398.414417.166429-.02605.01533-.05469.03469-.0776.0346-.05893-.000369-.08291-.07846-.148595-.04944-.0058.07602.08072.106595.135387.141712.05918.03805.120948.07558.141992.141712-.05795.122604-.150944-.0058-.242706-.0066-.101127-.000722-.247331.190946-.333514.03461.02143-.08284.113018-.09618.135387-.177963-.0197.0033-.03883.0105-.05778.01813-.03387.01337-.06781.0309-.102366.04944-.04534.02436-.09294.04891-.146945.06097-.04971.01091-.09759.0085-.141992.02142-.08525.02493-.145914.08709-.236103.120288-.03519.01287-.07728.0092-.113923.02142-.08602.02862-.188651.08058-.277379.128531-.09071.04888-.19298.09954-.24931.148302-.03041.02616-.110056.118714-.107319.148302.0033.04223.08386.05733.08586.100518-.0016.02616-.04692.08229-.01485.120289.02918.03461.08831.0072.150246.01484.108866.01344.180657.10232.26417.148302.06314.03477.156549.0767.227846.08569.09788.01223.207899-.02872.221243.04943.01294.07512-.09316.101165-.100716.148302.05275.06938-.03492.102317-.03467.163133.000232.04921.06085.124068.113922.12853.0718.0057.176555-.07024.206383-.141712.03544-.08516.02073-.201635.08586-.26365.332005.0091.612478-.149927.59108-.4894-.0024-.03354-.02195-.07685-.01485-.1137.01039-.05486.105037-.100344.09246-.169725.03577-.01099.05765-.04003.07595-.0725.02728-.04839.04829-.103691.09906-.121938.0033-.0016.0061-.0025.0099-.0033.02901-.0066.06054-.0011.09246.0082.05687.01672.1187.04579.186569.0412.03453-.0025.07921-.03293.113923-.02801.06965.0097.111125.09382.163456.133472.04624.03526.09552.02387.107319.07086-.01369.07881-.06884.08255-.06439.154894v.0016c.005.06503.07347.115501.107318.121938.05193.0097.12647-.01823.178315-.04284.05596-.02641.106315-.08394.1552-.123587.06982.05347.138843.108589.206383.164782.0074.03157.0124.05982.01485.07909.01.07676-.0096.135327-.0067.205977.0091.119683.159972.107013.23445.169725.02242.01902.0309.06756.04953.09228.03619.04806.08025.04926.08586.100517.01334.122603-.110729.13177-.09906.268593-.02571.05306-.0911.05118-.08586.121938.0082.112057.169113.02625.212988.1137.02375.04699-.0041.0813-.02147.148304.05531.0656.05624.169586-.04128.169725-.05926 0-.07547-.06268-.135385-.07745-.0333-.0083-.07975-.0072-.12218-.01484-.03626-.0066-.07956-.01733-.113922-.02142-.08795-.01042-.18244.01592-.234451-.0346.08478-.112194.196441-.223054.305447-.319676.03239-.02887.102356-.04928.08585-.107107-.06067-.05306-.134296.0041-.191522.03625-.06008.03371-.131976.08224-.199779.09228-.117833.01739-.275208-.03464-.371488.02801-.01327.05355.109587.03287.09246.113699-.04715.0074-.09084.01146-.12713-.02142-.03313-.02969-.01489-.07437-.03632-.09228-.03652-.03018-.17312-.0381-.234451-.02801-.07484.01213-.141601.05651-.150246.12029.08991.04199.238159-.04292.270773.06427-.04929.08834-.164173.136966-.148594.255411.0058.04576.05985.106901.09906.113698.0394.0066.06099-.03162.09906-.02801.04031.0041.03193.04817.07925.04119.06858-.0292.106344-.124751.18492-.12029.09428.114041-.08493.169804-.18492.205976-.114041.04117-.26315.06407-.350025.100518-.04558.01894-.216691.184328-.241055.05603-.01739-.09253.08409-.06556.105669-.141712-.110284-.0214-.211691.04764-.312051.08569-.143195.05396-.38646.08691-.42102.247172-.0067.03207.01317.09232-.0082.113699-.01706.01723-.118813.02116-.163456.03625-.06874.02354-.129245.07261-.17171.08404-.03207.0088-.07874.0071-.09906.01484-.05663.0219-.07702.09755-.14199.148302-.02663.02074-.08614.03676-.107319.05768-.03693.03658-.04224.127995-.107319.141713-.04137.0033-.07497-.0302-.113922-.0067-.005.09053.03288.213308-.0066.304845-.0844.06857-.177674.115866-.285633.176311-.05967.03354-.112806.0431-.18492.07909-.05116.02543-.09798.08568-.156833.120302-.136032.0798-.299889.173661-.298842.375699.000231.0437.02246.09226.02807.143361.0033.0301-.0033.05944 0 .09228.0085.07422.0624.167912 0 .219159-.0959-.03919-.218545-.05224-.285622-.120282-.01837-.07004.03821-.127347.02972-.191148-.0066-.05126-.0801-.14338-.122178-.149954-.04336-.0065-.08238.03986-.127131.03625-.05324-.0041-.103331-.07779-.171711-.08568-.100219-.01158-.174632.02202-.285633.0067-.107456.05717-.137426.160022-.269123.149955-.04641-.0033-.09004-.03845-.143642-.04944-.0581-.01197-.145883-.03383-.206383-.02965-.121286.0082-.209517.09602-.313701.149954-.09193.04773-.222012.107114-.249311.205977-.01501.05322-.0025.127072-.02146.176311-.01261.0324-.03924.06145-.05614.09228-.07987.145382-.146487.337952-.08586.547072.009.03101.08782.206883.120528.24223.03676.03929.144688.09779.206383.09887.05217.000808.11453-.02722.165105-.03625.0586-.0104.131657-.01099.18492-.028.154043-.04912.123172-.256331.277378-.326268.06734-.03034.145801-.03678.26417-.04284.03759.0315.05472.08712.04953.135119-.0041.03625-.03924.06861-.05778.120281-.01615.04528-.01868.09858-.03467.135119-.02119.04781-.06887.08354-.08585.128524-.01114.02928-.0039.06586-.01321.09228-.0164.04675-.08028.07879-.05119.126875.152558.06044.337421-.01629.470552.0082.05621.0102.172757.07685.17171.163143-.000692.06455-.05078.105641-.05778.176311-.0087.08884-.04558.19832-.04953.270242-.0066.117789.173032.321291.298843.319676.135447-.0016.214901-.134706.378093-.06427.05415.0233.111912.111431.17171.107113.04929-.0033.122248-.09041.155199-.149955.04014-.07257.04305-.133116.113924-.169717.07649-.03945.13824-.02135.236102-.05768.04369-.01609.08115-.0437.120528-.07085.03453-.02361.07085-.0858.113924-.04284.05687.05658-.06968.08935-.02146.149954.09883.05216.149674-.09659.221242-.09887.02283-.000715.101364.04412.141992.07085.05555.03633.07458.08702.135387.09887.03907.0075.101941-.01413.156851-.0067.07269.0104.116618.07249.171711.07085.06709-.0016.09939-.07507.156851-.08568.125763-.02296.172474.01393.227847.09228.06207.01079.06372-.07189.120528-.04284-.03116.06184.01135.0901.03632.141712.01615.03313.013.0565.02807.07085.03396.0323.100412.03285.150246.06427.05258.03297.08167.09408.14199.163142.06207.07061.166425.144794.249311.149955.07831.0049.141646-.02278.206382-.01491.14739.01806.238649.09065.341769.169717.05761.04414.110288.07567.128783.128524.01302.03689.0067.08551.02146.126876.03148.08841.160715.132292.113923.285073.02143.04486.06887.06092.120527.09228.04129.02508.07744.07685.122178.08403.02893.0049.0608-.008.08585-.0065.08102.0057.136174.03721.206382.06427.04351.01668.09815.02324.127123.04284.03619.02435.04125.105328.08585.126876.02917.01413.0951-.0057.14364 0 .07649.0088.180232.05636.249311.05768.04195.00081.07672-.01766.113914-.01492.08651.0065.154141.06105.221242.12193-.858307 1.380989-2.239262 2.406305-3.865134 2.797985-.0058-.06225-.0237-.125835-.02642-.18785-.0058-.134903.01582-.229621-.0066-.354281-.01656-.0943-.03852-.23893-.07264-.298263-.03816-.06602-.187002-.177214-.262518-.219158-.04987-.02755-.109147-.03762-.163456-.06427-.11603-.05672-.342023-.177096-.392953-.291628-.01476-.03297-.01224-.07689-.02807-.113707-.03091-.07273-.09577-.135825-.14199-.205976-.088-.133863-.15899-.301733-.24931-.439968-.04566-.0702-.08532-.150072-.135388-.205976-.02934-.03297-.123336-.06408-.135387-.113707-.01607-.06569-.06553-.155725-.05778-.205979.01031-.06773.142197-.121086.141992-.182905-.00023-.05248-.06944-.08396-.0842-.128524-.03594-.108467.01979-.17168.06274-.262002.01418-.02969.02817-.07864.04293-.100519.02613-.03903.07913-.05.113924-.09228.01945-.02371.0324-.07194.05778-.105465.05415-.07167.141176-.09844.163456-.163142.01812-.05273.02961-.317182.0083-.405365-.01238-.05112-.06105-.0934-.07926-.141751-.03223-.08566-.0386-.179805-.127131-.17796-.05465.000811-.09367.06247-.128782.10052-.0084.05059-.0049.104836-.05778.120281-.08102.02386-.111885-.08515-.206384-.113707-.03759-.01138-.097-.01099-.120528-.02143-.06899-.03083-.09075-.130663-.163454-.169717-.06083-.0324-.113396-.02108-.150247-.07087-.01534-.03429-.0041-.09744-.0083-.14336-.07806-.04551-.14352-.215352-.234451-.255412-.06025-.02673-.152445-.02394-.227847-.04944-.03544-.01197-.06367-.02665-.100714-.0346-.04566-.0102-.09176-.01197-.127131-.02965-.141081-.06971-.216615-.294846-.391313-.290014-.07451.0016-.147116.07126-.214638.07085-.06709-.000369-.179982-.05336-.26417-.09228-.08745-.04051-.183786-.06213-.255915-.09887-.05827-.02969-.09933-.08458-.150246-.107113-.03899-.01727-.09514-.01943-.127131-.0346-.0455-.02149-.09361-.06784-.150246-.107113-.05374-.03707-.111814-.09369-.113924-.141712-.0025-.0556.05202-.10311.05779-.156549.01837-.16903-.107905-.29067-.18657-.390532-.05827-.07422-.126463-.137297-.184919-.205976.0033-.04559.0033-.05336 0-.09887-.04426-.0428-.08201-.107251-.128783-.171366-.04228-.05781-.123102-.119693-.133735-.184553-.01311-.0798.03041-.148326 0-.225751-.05069-.128485-.231072-.07102-.208034.09887.0066.04682.07245.110116.09246.156549.02052.04732.01719.106132.03632.163123.01837.05462.07335.101598.09246.163142.03025.09718.03001.201259.05779.262002.02448.05397.113306.106054.06274.171366-.06742.01393-.09181-.0532-.133735-.09228-.02341-.02172-.109288-.06313-.122178-.113707-.01079-.04174.02731-.09885.01485-.149955-.02448-.100166-.227129-.102894-.227847-.205978-.00037-.0647.08344-.07255.0842-.135118.000552-.06847-.09364-.126484-.113924-.184554-.01855-.05322-.02114-.137689-.02807-.212566-.0066-.07028.0012-.151761-.01485-.205977-.01458-.04881-.08822-.115532-.135388-.141712-.06239-.03462-.111444-.02018-.141992-.07087-.02654-.04427-.04376-.136826-.04953-.184554-.01031-.08535-.0033-.179156-.0083-.270242-.005-.09124-.014-.178784 0-.276832.03528-.06864.101093-.101715.137039-.169725.02506-.04732.02787-.106205.05614-.156543.05217-.09271.166266-.177204.242706-.268594.08242-.09845.158146-.193954.206382-.306493.01731-.03994.06281-.127341.05614-.176315-.0094-.06823-.137327-.124715-.127131-.205977.0066-.05035.07766-.05083.09906-.100517.01097-.02567.02089-.09625.02146-.126882.000824-.06848-.03531-.139449-.02146-.212567.0117-.06241.10566-.08805.05779-.156543-.04748-.06782-.134024.03572-.186569-.0082-.04822-.04035.01041-.0889.01485-.163133.0016-.02952-.01799-.06217-.01485-.08404.0041-.03174.06767-.0858.05118-.107107-.0257-.03224-.05379-.09735-.09409-.149718.794692-.634433 1.747321-1.081812 2.788642-1.270464h.0017c.01294.02198.02275.04808.05449.05767.06207-.03207.124795.0025.193174 0 .0666-.0025.126373-.0329.199778-.02142.129727.02026.310552.147761.412766.07909.02572-.01739.01968-.04894.04293-.09392.01847-.036.04667-.07429.06439-.118643.05168-.0016.103281-.0016.1552-.0016z" fill="#fff" stroke-width=".733874"/></svg>