<svg height="32" viewBox="0 0 32 32" width="32" xmlns="http://www.w3.org/2000/svg"><path d="m2.777344 1.9999999c-.430889 0-.777344.446-.777344 1v3.921875 2.0781251 20.078125c0 .5114.319054.921875.716797.921875h26.566406c.397743 0 .716797-.410474.716797-.921875v-22.1562501c0-.5113999-.319054-.9218749-.716797-.9218749h-12.726562c-.886457.034-1.316068-.264328-1.707032-.7363281l-1.849609-2.419922c-.261411-.4404-.457783-.84375-.888672-.84375zm8.130859 9.2480471c.367069-.330166.961055-.330166 1.324219 0l3.763672 3.384765 3.763672-3.384765c.367064-.330166.961061-.330166 1.324218 0l.890625.789062c.183538.165087.275391.382084.275391.597657s-.09185.430424-.275391.59375l-5.310547 4.777343c-.367066.333674-.961047.333881-1.328124.0039l-5.310547-4.777337c-.183535-.165082-.275391-.382084-.275391-.597656s.09186-.430424.275391-.59375zm.0039 6.740234c.363174-.330164.957149-.330164 1.324219 0l3.763672 3.384766 3.767578-3.380859c.363175-.330165.957141-.330164 1.324219 0l.882812.792968c.183538.163326.275391.378178.275391.59375s-.09185.432575-.275391.597656l-5.310547 4.775391v.002c-.367066.329984-.961047.329778-1.328124-.0039l-5.310547-4.777344c-.183535-.163326-.275391-.378176-.275391-.59375 0-.215573.09186-.43257.275391-.597656z" fill="#4285f4"/></svg>