<?xml version="1.0" encoding="UTF-8" standalone="no"?>
<svg
   xmlns:dc="http://purl.org/dc/elements/1.1/"
   xmlns:cc="http://creativecommons.org/ns#"
   xmlns:rdf="http://www.w3.org/1999/02/22-rdf-syntax-ns#"
   xmlns:svg="http://www.w3.org/2000/svg"
   xmlns="http://www.w3.org/2000/svg"
   xmlns:sodipodi="http://sodipodi.sourceforge.net/DTD/sodipodi-0.dtd"
   xmlns:inkscape="http://www.inkscape.org/namespaces/inkscape"
   viewBox="0 0 32 32"
   version="1.1"
   id="svg6"
   sodipodi:docname="folder-documents.svg"
   inkscape:version="1.0.1 (3bc2e813f5, 2020-09-07)"
   width="32"
   height="32">
  <metadata
     id="metadata10">
    <rdf:RDF>
      <cc:Work
         rdf:about="">
        <dc:format>image/svg+xml</dc:format>
        <dc:type
           rdf:resource="http://purl.org/dc/dcmitype/StillImage" />
        <dc:title />
      </cc:Work>
    </rdf:RDF>
  </metadata>
  <sodipodi:namedview
     pagecolor="#ffffff"
     bordercolor="#666666"
     borderopacity="1"
     objecttolerance="10"
     gridtolerance="10"
     guidetolerance="10"
     inkscape:pageopacity="0"
     inkscape:pageshadow="2"
     inkscape:window-width="1366"
     inkscape:window-height="702"
     id="namedview8"
     showgrid="false"
     inkscape:zoom="7.375"
     inkscape:cx="-6.711864"
     inkscape:cy="18.847458"
     inkscape:window-x="0"
     inkscape:window-y="0"
     inkscape:window-maximized="1"
     inkscape:current-layer="svg6"
     inkscape:document-rotation="0" />
  <defs
     id="defs3051">
    <style
       type="text/css"
       id="current-color-scheme">
      .ColorScheme-Text {
        color:#f2f2f2;
      }
      </style>
  </defs>
  <g
     id="g28">
    <path
       id="path4-3"
       style="color:#f2f2f2;fill:#4285f4;fill-opacity:1;stroke:none;stroke-width:1.76383"
       d="M 20.949219 13.083984 L 11.050781 22.982422 C 11.606583 23.533786 12.250942 23.988006 12.957031 24.326172 C 13.122043 24.406314 13.29014 24.479935 13.460938 24.546875 C 13.506056 24.564875 13.552056 24.580656 13.597656 24.597656 C 14.358311 24.836582 15.132728 25.042487 15.955078 25.029297 C 15.969978 25.029297 15.9851 25.033203 16 25.033203 C 16.08443 25.033203 16.16632 25.022531 16.25 25.019531 C 16.386229 25.017001 16.522354 25.01048 16.658203 25 C 16.788713 24.9878 16.916582 24.966466 17.044922 24.947266 C 17.884996 24.774668 18.672542 24.481584 19.382812 24.082031 C 20.093083 23.682478 20.726017 23.178142 21.255859 22.583984 C 21.785702 21.989827 22.212927 21.305241 22.511719 20.548828 C 22.81051 19.792416 22.980929 18.962489 22.998047 18.076172 L 22.998047 18.033203 C 22.998047 17.923603 22.989375 17.817194 22.984375 17.708984 C 22.918285 16.996368 22.844421 16.298121 22.560547 15.613281 C 22.554127 15.593721 22.547616 15.574188 22.541016 15.554688 C 22.540016 15.551688 22.538079 15.550828 22.537109 15.548828 C 22.187748 14.624332 21.646582 13.784292 20.949219 13.083984 z " />
    <path
       id="path21"
       style="color:#f2f2f2;fill:#4285f4;fill-opacity:1;stroke:none;stroke-width:1.76383"
       d="M 2.7773438 2 C 2.3464547 2 2 2.446 2 3 L 2 6.921875 L 2 9 L 2 29.078125 C 2 29.589525 2.3190539 30 2.7167969 30 L 29.283203 30 C 29.680946 30 30 29.589526 30 29.078125 L 30 6.921875 C 30 6.4104751 29.680946 6 29.283203 6 L 16.556641 6 C 15.670184 6.034 15.240573 5.735672 14.849609 5.2636719 L 13 2.84375 C 12.738589 2.40335 12.542217 2 12.111328 2 L 2.7773438 2 z M 16 10.033203 C 17.0138 10.033203 17.982426 10.223773 18.873047 10.568359 C 19.763668 10.912946 20.576285 11.411548 21.28125 12.033203 L 21.65625 12.376953 C 21.77522 12.495923 21.88864 12.625743 22 12.751953 C 22.621655 13.456918 23.122211 14.271488 23.466797 15.162109 C 23.811383 16.052731 24 17.019403 24 18.033203 C 24 19.137773 23.775916 20.191331 23.371094 21.148438 C 22.966272 22.105544 22.380108 22.967549 21.65625 23.691406 C 20.932392 24.415264 20.070388 24.999475 19.113281 25.404297 C 18.156174 25.809119 17.10457 26.033203 16 26.033203 C 14.9862 26.033203 14.017574 25.844586 13.126953 25.5 C 12.236332 25.155414 11.423715 24.654858 10.71875 24.033203 C 10.498812 23.819549 10.208031 23.581695 10 23.314453 C 9.3783451 22.609488 8.8777893 21.796871 8.5332031 20.90625 C 8.1886169 20.015629 8 19.047003 8 18.033203 C 8 16.928633 8.2240844 15.877029 8.6289062 14.919922 C 9.0337281 13.962815 9.6198925 13.100811 10.34375 12.376953 C 11.067607 11.653096 11.929612 11.066931 12.886719 10.662109 C 13.843826 10.257287 14.89543 10.033203 16 10.033203 z " />
  </g>
</svg>
