<?xml version="1.0" encoding="UTF-8" standalone="no"?>
<svg
   xmlns:dc="http://purl.org/dc/elements/1.1/"
   xmlns:cc="http://creativecommons.org/ns#"
   xmlns:rdf="http://www.w3.org/1999/02/22-rdf-syntax-ns#"
   xmlns:svg="http://www.w3.org/2000/svg"
   xmlns="http://www.w3.org/2000/svg"
   xmlns:sodipodi="http://sodipodi.sourceforge.net/DTD/sodipodi-0.dtd"
   xmlns:inkscape="http://www.inkscape.org/namespaces/inkscape"
   viewBox="0 0 32 32"
   version="1.1"
   id="svg6"
   sodipodi:docname="folder-remote.svg"
   inkscape:version="1.0.1 (3bc2e813f5, 2020-09-07)"
   width="32"
   height="32">
  <metadata
     id="metadata10">
    <rdf:RDF>
      <cc:Work
         rdf:about="">
        <dc:format>image/svg+xml</dc:format>
        <dc:type
           rdf:resource="http://purl.org/dc/dcmitype/StillImage" />
        <dc:title />
      </cc:Work>
    </rdf:RDF>
  </metadata>
  <sodipodi:namedview
     pagecolor="#ffffff"
     bordercolor="#666666"
     borderopacity="1"
     objecttolerance="10"
     gridtolerance="10"
     guidetolerance="10"
     inkscape:pageopacity="0"
     inkscape:pageshadow="2"
     inkscape:window-width="1366"
     inkscape:window-height="702"
     id="namedview8"
     showgrid="false"
     inkscape:zoom="7.375"
     inkscape:cx="9.5593229"
     inkscape:cy="8"
     inkscape:window-x="0"
     inkscape:window-y="0"
     inkscape:window-maximized="1"
     inkscape:current-layer="svg6"
     inkscape:document-rotation="0" />
  <defs
     id="defs3051">
    <style
       type="text/css"
       id="current-color-scheme">
      .ColorScheme-Text {
        color:#f2f2f2;
      }
      </style>
  </defs>
  <g
     id="g23">
    <path
       id="path4-3"
       style="color:#f2f2f2;fill:#4285f4;fill-opacity:1;stroke:none;stroke-width:1.76383"
       d="M 15.84375 11.771484 C 15.82603 11.815837 15.797767 11.854625 15.779297 11.890625 C 15.756047 11.935605 15.762048 11.966985 15.736328 11.984375 C 15.634114 12.053046 15.453946 11.92651 15.324219 11.90625 C 15.250814 11.89477 15.1916 11.925234 15.125 11.927734 C 15.056621 11.930234 14.993711 11.895664 14.931641 11.927734 C 14.899901 11.918144 14.889893 11.891121 14.876953 11.869141 L 14.875 11.869141 C 13.833679 12.057793 12.880629 12.506192 12.085938 13.140625 C 12.126237 13.192993 12.153987 13.256823 12.179688 13.289062 C 12.196177 13.310369 12.133006 13.364744 12.128906 13.396484 C 12.125766 13.418354 12.146131 13.450949 12.144531 13.480469 C 12.140091 13.554702 12.080686 13.604181 12.128906 13.644531 C 12.181451 13.688451 12.268926 13.584524 12.316406 13.652344 C 12.364276 13.720837 12.269512 13.746184 12.257812 13.808594 C 12.243962 13.881712 12.280121 13.953004 12.279297 14.021484 C 12.278727 14.052116 12.268783 14.122768 12.257812 14.148438 C 12.236413 14.198125 12.164803 14.197697 12.158203 14.248047 C 12.148007 14.329309 12.275756 14.386848 12.285156 14.455078 C 12.291826 14.504052 12.247779 14.590919 12.230469 14.630859 C 12.182233 14.743398 12.105858 14.83905 12.023438 14.9375 C 11.946997 15.02889 11.83342 15.112368 11.78125 15.205078 C 11.75298 15.255416 11.749669 15.315961 11.724609 15.363281 C 11.688663 15.431291 11.623171 15.46261 11.587891 15.53125 C 11.573891 15.629298 11.582891 15.717354 11.587891 15.808594 C 11.592891 15.89968 11.585393 15.994728 11.595703 16.080078 C 11.601473 16.127806 11.617991 16.219402 11.644531 16.263672 C 11.675079 16.314362 11.724719 16.299364 11.787109 16.333984 C 11.834277 16.360164 11.907295 16.427753 11.921875 16.476562 C 11.937925 16.530779 11.9309 16.611361 11.9375 16.681641 C 11.94443 16.756518 11.946294 16.841311 11.964844 16.894531 C 11.985128 16.952601 12.08063 17.011608 12.080078 17.080078 C 12.079318 17.142646 11.995724 17.150144 11.996094 17.214844 C 11.996812 17.317928 12.198176 17.319756 12.222656 17.419922 C 12.235116 17.471027 12.198194 17.528572 12.208984 17.570312 C 12.221874 17.62089 12.306668 17.661874 12.330078 17.683594 C 12.372003 17.722674 12.397424 17.791274 12.464844 17.777344 C 12.51541 17.712032 12.426824 17.659439 12.402344 17.605469 C 12.374564 17.544726 12.374 17.44093 12.34375 17.34375 C 12.32464 17.282206 12.270323 17.234307 12.251953 17.179688 C 12.232823 17.122696 12.235364 17.064898 12.214844 17.017578 C 12.194834 16.971145 12.129647 16.906195 12.123047 16.859375 C 12.100009 16.689485 12.279388 16.633234 12.330078 16.761719 C 12.360488 16.839144 12.316968 16.906528 12.330078 16.986328 C 12.340711 17.051188 12.422564 17.114065 12.464844 17.171875 C 12.511617 17.23599 12.54949 17.30095 12.59375 17.34375 C 12.59705 17.38926 12.59705 17.395816 12.59375 17.441406 C 12.652206 17.510085 12.719074 17.574217 12.777344 17.648438 C 12.856009 17.7483 12.983214 17.870033 12.964844 18.039062 C 12.959074 18.092501 12.90375 18.139713 12.90625 18.195312 C 12.90836 18.243335 12.967744 18.298868 13.021484 18.335938 C 13.07812 18.37521 13.126375 18.421869 13.171875 18.443359 C 13.203866 18.458529 13.259838 18.461246 13.298828 18.478516 C 13.349744 18.501049 13.390949 18.556248 13.449219 18.585938 C 13.521348 18.622678 13.617628 18.643084 13.705078 18.683594 C 13.789266 18.722514 13.90166 18.776975 13.96875 18.777344 C 14.036272 18.777754 14.109084 18.706678 14.183594 18.705078 C 14.358292 18.700246 14.433138 18.926384 14.574219 18.996094 C 14.60959 19.013774 14.655512 19.015191 14.701172 19.025391 C 14.738216 19.033341 14.767294 19.048577 14.802734 19.060547 C 14.878136 19.086047 14.969047 19.082645 15.029297 19.109375 C 15.120228 19.149435 15.185612 19.319724 15.263672 19.365234 C 15.267872 19.411154 15.258097 19.473523 15.273438 19.507812 C 15.310288 19.557603 15.362998 19.547678 15.423828 19.580078 C 15.496532 19.619132 15.516948 19.717217 15.585938 19.748047 C 15.609466 19.758487 15.669441 19.758151 15.707031 19.769531 C 15.80153 19.798088 15.833042 19.908626 15.914062 19.884766 C 15.966942 19.869321 15.962303 19.814262 15.970703 19.763672 C 16.005815 19.725622 16.044959 19.664873 16.099609 19.664062 C 16.18814 19.662217 16.194333 19.756137 16.226562 19.841797 C 16.244772 19.890148 16.294261 19.931302 16.306641 19.982422 C 16.327951 20.070605 16.316948 20.335942 16.298828 20.388672 C 16.276548 20.453374 16.188916 20.479111 16.134766 20.550781 C 16.109386 20.584306 16.095622 20.63254 16.076172 20.65625 C 16.041378 20.69853 15.989021 20.71097 15.962891 20.75 C 15.948131 20.771879 15.934102 20.819919 15.919922 20.849609 C 15.876972 20.939931 15.821482 21.002861 15.857422 21.111328 C 15.872182 21.155892 15.941176 21.187754 15.941406 21.240234 C 15.941611 21.302053 15.809138 21.356098 15.798828 21.423828 C 15.791078 21.474082 15.841352 21.563216 15.857422 21.628906 C 15.869473 21.678533 15.962848 21.709218 15.992188 21.742188 C 16.042256 21.798092 16.083246 21.879019 16.128906 21.949219 C 16.219226 22.087454 16.288953 22.254809 16.376953 22.388672 C 16.423173 22.458823 16.488621 22.522973 16.519531 22.595703 C 16.535361 22.63252 16.532115 22.676014 16.546875 22.708984 C 16.597805 22.823516 16.823423 22.94328 16.939453 23 C 16.993762 23.02665 17.053646 23.036903 17.103516 23.064453 C 17.179032 23.106397 17.329027 23.217183 17.367188 23.283203 C 17.401308 23.342536 17.422893 23.487731 17.439453 23.582031 C 17.461873 23.706691 17.439512 23.800644 17.445312 23.935547 C 17.448032 23.997562 17.466856 24.060797 17.472656 24.123047 C 18.285592 23.927207 19.035645 23.573616 19.691406 23.095703 C 20.347167 22.61779 20.908737 22.016666 21.337891 21.326172 C 21.27079 21.265292 21.201744 21.209625 21.115234 21.203125 C 21.07804 21.200385 21.043903 21.21956 21.001953 21.21875 C 20.932874 21.21743 20.828443 21.170909 20.751953 21.162109 C 20.703413 21.156409 20.638545 21.176239 20.609375 21.162109 C 20.564775 21.140561 20.559628 21.059506 20.523438 21.035156 C 20.494464 21.015556 20.439994 21.008868 20.396484 20.992188 C 20.326276 20.965128 20.270473 20.933434 20.189453 20.927734 C 20.164403 20.926234 20.132446 20.938494 20.103516 20.933594 C 20.058778 20.926414 20.023712 20.874689 19.982422 20.849609 C 19.930765 20.818249 19.882758 20.802672 19.861328 20.757812 C 19.90812 20.605032 19.779527 20.561066 19.748047 20.472656 C 19.733287 20.43129 19.739583 20.382593 19.726562 20.345703 C 19.708067 20.292849 19.655266 20.260937 19.597656 20.216797 C 19.494536 20.13773 19.403249 20.064935 19.255859 20.046875 C 19.191123 20.039005 19.127138 20.0674 19.048828 20.0625 C 18.965942 20.057339 18.860898 19.982719 18.798828 19.912109 C 18.738508 19.843047 18.710783 19.78297 18.658203 19.75 C 18.608369 19.71858 18.541773 19.717847 18.507812 19.685547 C 18.492743 19.671197 18.494666 19.646411 18.478516 19.613281 C 18.453546 19.561669 18.412199 19.534496 18.443359 19.472656 C 18.386551 19.443606 18.384336 19.526415 18.322266 19.515625 C 18.266893 19.437275 18.219513 19.400868 18.09375 19.423828 C 18.036289 19.434438 18.00459 19.506213 17.9375 19.507812 C 17.882407 19.509452 17.838315 19.4479 17.765625 19.4375 C 17.710715 19.43007 17.648445 19.452813 17.609375 19.445312 C 17.548568 19.433463 17.528206 19.382033 17.472656 19.345703 C 17.432028 19.318973 17.354861 19.274676 17.332031 19.275391 C 17.260463 19.277671 17.210158 19.425207 17.111328 19.373047 C 17.063108 19.312443 17.187729 19.279236 17.130859 19.222656 C 17.087785 19.179696 17.052108 19.242015 17.017578 19.265625 C 16.9782 19.292775 16.940174 19.321801 16.896484 19.337891 C 16.798622 19.374221 16.738599 19.355081 16.662109 19.394531 C 16.591235 19.431132 16.587015 19.491883 16.546875 19.564453 C 16.513924 19.623998 16.441868 19.711544 16.392578 19.714844 C 16.33278 19.719162 16.274853 19.630722 16.220703 19.607422 C 16.057511 19.536986 15.977244 19.670275 15.841797 19.671875 C 15.715986 19.67349 15.536369 19.469351 15.542969 19.351562 C 15.546919 19.27964 15.58505 19.170871 15.59375 19.082031 C 15.60075 19.011361 15.649699 18.9708 15.650391 18.90625 C 15.651438 18.819957 15.534726 18.752388 15.478516 18.742188 C 15.345385 18.717698 15.160371 18.794815 15.007812 18.734375 C 14.978722 18.68629 15.044147 18.654172 15.060547 18.607422 C 15.069857 18.581002 15.061126 18.544905 15.072266 18.515625 C 15.089246 18.470641 15.137013 18.434529 15.158203 18.386719 C 15.174193 18.35018 15.177209 18.297233 15.193359 18.251953 C 15.211899 18.200282 15.247853 18.167109 15.251953 18.130859 C 15.257143 18.08286 15.238762 18.027594 15.201172 17.996094 C 15.082803 18.002154 15.00484 18.008723 14.9375 18.039062 C 14.783294 18.108999 14.814199 18.316114 14.660156 18.365234 C 14.606893 18.382244 14.533209 18.382178 14.474609 18.392578 C 14.424034 18.401608 14.362717 18.430495 14.310547 18.429688 C 14.248852 18.428607 14.140276 18.369368 14.103516 18.330078 C 14.070808 18.294731 13.991422 18.118901 13.982422 18.087891 C 13.921795 17.878771 13.988489 17.686398 14.068359 17.541016 C 14.085259 17.510186 14.11239 17.481619 14.125 17.449219 C 14.14396 17.39998 14.131474 17.326657 14.146484 17.273438 C 14.173783 17.174574 14.304554 17.114136 14.396484 17.066406 C 14.500668 17.012472 14.587698 16.924216 14.708984 16.916016 C 14.769484 16.911836 14.857916 16.935296 14.916016 16.947266 C 14.969618 16.958256 15.014137 16.992794 15.060547 16.996094 C 15.192244 17.006161 15.220669 16.902873 15.328125 16.845703 C 15.439126 16.861023 15.515015 16.828264 15.615234 16.839844 C 15.683614 16.847734 15.733869 16.919728 15.787109 16.923828 C 15.83186 16.927438 15.870703 16.882172 15.914062 16.888672 C 15.95614 16.895246 16.028556 16.987803 16.035156 17.039062 C 16.043646 17.102863 15.987489 17.160429 16.005859 17.230469 C 16.072936 17.298511 16.195116 17.310419 16.291016 17.349609 C 16.353416 17.298362 16.299516 17.205079 16.291016 17.130859 C 16.287716 17.098019 16.294316 17.069163 16.291016 17.039062 C 16.285406 16.987961 16.263903 16.938231 16.263672 16.894531 C 16.262625 16.692493 16.426468 16.599331 16.5625 16.519531 C 16.621353 16.484909 16.66759 16.423868 16.71875 16.398438 C 16.790864 16.362447 16.844627 16.353852 16.904297 16.320312 C 17.012256 16.259867 17.105053 16.213101 17.189453 16.144531 C 17.228933 16.052994 17.190313 15.930374 17.195312 15.839844 C 17.234264 15.816344 17.269177 15.849003 17.310547 15.845703 C 17.375626 15.831985 17.381039 15.739705 17.417969 15.703125 C 17.439148 15.682205 17.498761 15.667224 17.525391 15.646484 C 17.590361 15.595732 17.609386 15.519947 17.666016 15.498047 C 17.686336 15.490307 17.733555 15.491222 17.765625 15.482422 C 17.80809 15.470992 17.86876 15.421978 17.9375 15.398438 C 17.982143 15.383347 18.084502 15.380511 18.101562 15.363281 C 18.122933 15.341902 18.102675 15.28207 18.109375 15.25 C 18.143935 15.089738 18.386102 15.055913 18.529297 15.001953 C 18.629657 14.963903 18.731513 14.894616 18.841797 14.916016 C 18.820218 14.992168 18.718938 14.966064 18.736328 15.058594 C 18.760692 15.186892 18.932936 15.020893 18.978516 15.001953 C 19.065391 14.965505 19.214084 14.941561 19.328125 14.900391 C 19.428115 14.864219 19.605999 14.809354 19.511719 14.695312 C 19.433143 14.690851 19.396705 14.787206 19.328125 14.816406 C 19.280805 14.823386 19.288357 14.779491 19.248047 14.775391 C 19.209977 14.771781 19.187838 14.809334 19.148438 14.802734 C 19.109227 14.795937 19.056581 14.735213 19.050781 14.689453 C 19.035202 14.571008 19.149929 14.521934 19.199219 14.433594 C 19.166605 14.326404 19.017644 14.411131 18.927734 14.369141 C 18.936379 14.305361 19.003285 14.260177 19.078125 14.248047 C 19.139456 14.237957 19.27598 14.247164 19.3125 14.277344 C 19.33393 14.295254 19.316479 14.339451 19.349609 14.369141 C 19.385899 14.402021 19.429413 14.398025 19.476562 14.390625 C 19.49369 14.309796 19.369543 14.330894 19.382812 14.277344 C 19.479093 14.214694 19.638026 14.265437 19.755859 14.248047 C 19.823662 14.238007 19.894998 14.18996 19.955078 14.15625 C 20.012304 14.1241 20.085814 14.068034 20.146484 14.121094 C 20.16299 14.178921 20.092937 14.197693 20.060547 14.226562 C 19.951541 14.323185 19.840639 14.434681 19.755859 14.546875 C 19.80787 14.597395 19.902284 14.571611 19.990234 14.582031 C 20.024596 14.586121 20.067256 14.596916 20.103516 14.603516 C 20.145946 14.611156 20.193262 14.608887 20.226562 14.617188 C 20.286478 14.631957 20.302068 14.695312 20.361328 14.695312 C 20.458848 14.695174 20.457654 14.590991 20.402344 14.525391 C 20.419714 14.458387 20.447578 14.423943 20.423828 14.376953 C 20.379953 14.289503 20.219137 14.375729 20.210938 14.263672 C 20.205697 14.192914 20.271165 14.195638 20.296875 14.142578 C 20.285206 14.005755 20.409824 13.99565 20.396484 13.873047 C 20.390874 13.82179 20.346737 13.821497 20.310547 13.773438 C 20.291917 13.748717 20.282186 13.698707 20.259766 13.679688 C 20.185288 13.616976 20.034491 13.629449 20.025391 13.509766 C 20.022491 13.439116 20.043203 13.381448 20.033203 13.304688 C 20.030753 13.285417 20.024978 13.256179 20.017578 13.224609 C 19.950038 13.168416 19.880367 13.114017 19.810547 13.060547 C 19.761662 13.100194 19.71221 13.157184 19.65625 13.183594 C 19.604405 13.208204 19.530446 13.236263 19.478516 13.226562 C 19.444668 13.220126 19.376094 13.170499 19.371094 13.105469 L 19.371094 13.103516 C 19.366644 13.031172 19.421857 13.028029 19.435547 12.949219 C 19.423748 12.902229 19.374365 12.912213 19.328125 12.876953 C 19.275794 12.837301 19.233712 12.753841 19.164062 12.744141 C 19.129349 12.739221 19.085311 12.768984 19.050781 12.771484 C 18.982912 12.776074 18.920151 12.747189 18.863281 12.730469 C 18.831361 12.721169 18.800494 12.716056 18.771484 12.722656 C 18.767684 12.723456 18.765019 12.724963 18.761719 12.726562 C 18.710949 12.74481 18.689389 12.799266 18.662109 12.847656 C 18.643809 12.880126 18.621707 12.908932 18.585938 12.919922 C 18.598514 12.989303 18.504531 13.034984 18.494141 13.089844 C 18.487041 13.126694 18.507366 13.171538 18.509766 13.205078 C 18.531164 13.544551 18.249974 13.702459 17.917969 13.693359 C 17.852839 13.755374 17.867471 13.871871 17.832031 13.957031 C 17.802203 14.028503 17.6968 14.105309 17.625 14.099609 C 17.571928 14.095147 17.511951 14.019913 17.511719 13.970703 C 17.511469 13.909887 17.599625 13.876021 17.546875 13.806641 C 17.554431 13.759504 17.659424 13.733323 17.646484 13.658203 C 17.63314 13.580053 17.523661 13.621605 17.425781 13.609375 C 17.354484 13.600385 17.260406 13.558207 17.197266 13.523438 C 17.113753 13.477455 17.04246 13.38844 16.933594 13.375 C 16.871658 13.36736 16.812383 13.395938 16.783203 13.361328 C 16.751133 13.323329 16.797228 13.266394 16.798828 13.240234 C 16.796828 13.197046 16.716191 13.182855 16.712891 13.140625 C 16.710154 13.111037 16.789903 13.018348 16.820312 12.992188 C 16.876643 12.943425 16.977649 12.89263 17.068359 12.84375 C 17.157087 12.795799 17.259683 12.743464 17.345703 12.714844 C 17.382346 12.702624 17.425747 12.706229 17.460938 12.693359 C 17.551126 12.660161 17.612016 12.597196 17.697266 12.572266 C 17.741668 12.559346 17.788181 12.561691 17.837891 12.550781 C 17.891896 12.538721 17.940988 12.514594 17.986328 12.490234 C 18.020884 12.471694 18.054021 12.454776 18.087891 12.441406 C 18.106841 12.433776 18.126784 12.427128 18.146484 12.423828 C 18.124115 12.505611 18.031196 12.518723 18.009766 12.601562 C 18.095949 12.757898 18.242623 12.565684 18.34375 12.566406 C 18.435512 12.567206 18.527987 12.69487 18.585938 12.572266 C 18.564894 12.506134 18.504493 12.469691 18.445312 12.431641 C 18.390645 12.396524 18.302794 12.365082 18.308594 12.289062 C 18.374279 12.260042 18.398101 12.339475 18.457031 12.339844 C 18.479941 12.339934 18.509106 12.320018 18.535156 12.304688 C 18.399427 12.244656 18.261645 12.189192 18.121094 12.138672 C 18.02249 12.103272 17.923046 12.069653 17.822266 12.039062 C 17.805126 12.033923 17.788714 12.028337 17.771484 12.023438 C 17.726933 12.074038 17.610087 12.119534 17.560547 12.089844 C 17.561547 12.025736 17.638691 12.038124 17.650391 11.990234 C 17.580857 11.971294 17.511796 11.95406 17.441406 11.9375 C 17.417826 11.94956 17.397063 11.962452 17.382812 11.976562 C 17.349353 12.009891 17.35247 12.070436 17.3125 12.097656 C 17.249405 12.140956 17.163284 12.117541 17.089844 12.119141 C 16.946558 12.122341 16.863356 12.129312 16.761719 12.076172 C 16.731629 12.060602 16.672734 12.032755 16.677734 11.984375 C 16.789873 11.980275 16.895821 12.038032 17.025391 12.013672 C 17.07201 12.004892 17.088963 11.961746 17.132812 11.941406 C 17.17958 11.919836 17.234973 11.941094 17.251953 11.896484 C 16.846986 11.814281 16.428861 11.771484 16 11.771484 C 15.948081 11.771484 15.89543 11.769884 15.84375 11.771484 z " />
    <path
       id="path12"
       style="color:#f2f2f2;fill:#4285f4;fill-opacity:1;stroke:none;stroke-width:1.76383"
       d="M 2.7773438 2 C 2.3464547 2 2 2.446 2 3 L 2 6.921875 L 2 9 L 2 29.078125 C 2 29.589525 2.319054 30 2.7167969 30 L 29.283203 30 C 29.680946 30 30 29.589526 30 29.078125 L 30 6.921875 C 30 6.410475 29.680946 6 29.283203 6 L 16.556641 6 C 15.670184 6.034 15.240573 5.7356719 14.849609 5.2636719 L 13 2.84375 C 12.738589 2.40335 12.542217 2 12.111328 2 L 2.7773438 2 z M 16 11.414062 C 16.040508 11.414062 16.080784 11.415281 16.121094 11.416016 C 16.486637 11.422547 16.844548 11.458174 17.193359 11.521484 C 17.240149 11.529924 17.287504 11.539328 17.333984 11.548828 C 17.398447 11.562038 17.461591 11.576787 17.525391 11.591797 C 17.729523 11.639708 17.928626 11.695379 18.125 11.761719 C 18.14215 11.767469 18.160754 11.77555 18.177734 11.78125 C 18.261937 11.8105 18.345124 11.840657 18.427734 11.873047 C 18.428534 11.873853 18.430836 11.874557 18.431641 11.875 C 18.509194 11.90551 18.584076 11.937323 18.660156 11.970703 C 18.682576 11.980543 18.706186 11.98991 18.728516 12 C 18.781918 12.02403 18.836012 12.050752 18.888672 12.076172 C 18.932527 12.097332 18.976181 12.118485 19.019531 12.140625 C 19.114821 12.189313 19.206258 12.239909 19.298828 12.292969 C 19.536077 12.429143 19.764805 12.57876 19.982422 12.742188 C 20.146899 12.865691 20.306912 12.996803 20.458984 13.134766 C 20.537494 13.205974 20.61258 13.278646 20.6875 13.353516 C 20.762523 13.428349 20.836903 13.505664 20.908203 13.583984 C 21.015264 13.701543 21.118337 13.822261 21.216797 13.947266 C 21.413673 14.197351 21.594169 14.463039 21.753906 14.740234 C 21.807164 14.832609 21.855497 14.926394 21.904297 15.021484 C 21.928687 15.069065 21.955266 15.115842 21.978516 15.164062 C 22.048372 15.308758 22.110582 15.45713 22.169922 15.607422 C 22.189632 15.657564 22.209946 15.707142 22.228516 15.757812 C 22.302899 15.960546 22.367315 16.167472 22.421875 16.378906 C 22.449155 16.484573 22.474004 16.593509 22.496094 16.701172 C 22.518174 16.808833 22.537858 16.915883 22.554688 17.025391 C 22.571498 17.134969 22.586246 17.246129 22.597656 17.357422 C 22.620346 17.579886 22.630859 17.804728 22.630859 18.033203 C 22.630859 18.261713 22.620326 18.488474 22.597656 18.710938 C 22.586286 18.822207 22.571317 18.933422 22.554688 19.042969 C 22.537888 19.1525 22.518104 19.2614 22.496094 19.369141 C 22.473994 19.476802 22.449165 19.581741 22.421875 19.6875 C 22.367317 19.898926 22.302936 20.105859 22.228516 20.308594 C 22.191362 20.409988 22.151325 20.510385 22.109375 20.609375 C 22.067441 20.70836 22.025166 20.805924 21.978516 20.902344 C 21.955196 20.950563 21.928687 20.999305 21.904297 21.046875 C 21.855502 21.142019 21.807146 21.235785 21.753906 21.328125 C 21.720525 21.386137 21.683557 21.44317 21.648438 21.5 C 21.515702 21.714969 21.372582 21.92328 21.216797 22.121094 C 21.118382 22.246148 21.015212 22.36686 20.908203 22.484375 C 20.836837 22.56272 20.7625 22.638101 20.6875 22.712891 C 20.61251 22.787729 20.537544 22.862314 20.458984 22.933594 C 20.105707 23.254026 19.715457 23.538289 19.298828 23.777344 C 19.206299 23.830447 19.114861 23.879024 19.019531 23.927734 C 18.828893 24.025237 18.632409 24.114389 18.431641 24.193359 C 18.33119 24.232828 18.227726 24.270067 18.125 24.304688 C 17.912503 24.376436 17.696115 24.438001 17.474609 24.488281 C 17.000036 24.595822 16.507179 24.652344 16 24.652344 C 15.256073 24.652344 14.540673 24.530185 13.873047 24.304688 C 13.770346 24.270009 13.666766 24.232889 13.566406 24.193359 C 13.365613 24.114284 13.171108 24.025194 12.980469 23.927734 C 12.885139 23.879025 12.791799 23.828441 12.699219 23.775391 C 12.282615 23.536296 11.894294 23.254066 11.541016 22.933594 C 11.462506 22.862369 11.385557 22.787761 11.310547 22.712891 C 11.235501 22.638057 11.161224 22.562775 11.089844 22.484375 C 10.982808 22.366817 10.8797 22.246105 10.78125 22.121094 C 10.584371 21.871011 10.405808 21.605297 10.246094 21.328125 C 10.192824 21.23573 10.14255 21.141975 10.09375 21.046875 C 10.06935 20.999286 10.044724 20.950564 10.021484 20.902344 C 9.9749682 20.805885 9.9305419 20.708305 9.8886719 20.609375 C 9.8467446 20.510432 9.8067012 20.409937 9.7695312 20.308594 C 9.6951282 20.105862 9.6307319 19.898957 9.5761719 19.6875 C 9.5489719 19.581807 9.5240431 19.476804 9.5019531 19.369141 C 9.4799431 19.26148 9.4620425 19.152476 9.4453125 19.042969 C 9.4284925 18.933414 9.4136438 18.822171 9.4023438 18.710938 C 9.3796838 18.488422 9.3691406 18.261678 9.3691406 18.033203 C 9.3691406 17.804695 9.3796738 17.579895 9.4023438 17.357422 C 9.4137237 17.246136 9.4285825 17.134977 9.4453125 17.025391 C 9.4620425 16.915886 9.4798631 16.808894 9.5019531 16.701172 L 9.5019531 16.699219 C 9.5240431 16.59156 9.5492219 16.48445 9.5761719 16.378906 C 9.6307369 16.167449 9.6951013 15.960548 9.7695312 15.757812 C 9.7881612 15.707122 9.808345 15.657522 9.828125 15.607422 C 9.8875534 15.457149 9.9515844 15.308758 10.021484 15.164062 C 10.044814 15.115855 10.06935 15.067091 10.09375 15.019531 C 10.142536 14.924409 10.192844 14.832604 10.246094 14.740234 C 10.405816 14.463063 10.584355 14.197285 10.78125 13.947266 C 10.879689 13.822212 10.982808 13.701492 11.089844 13.583984 C 11.16119 13.505609 11.235627 13.428386 11.310547 13.353516 C 11.385504 13.278683 11.462466 13.205946 11.541016 13.134766 C 11.578498 13.100738 11.616057 13.068286 11.654297 13.035156 C 11.976724 12.755827 12.326786 12.504779 12.699219 12.291016 C 12.79179 12.237886 12.885139 12.189335 12.980469 12.140625 C 13.075776 12.091862 13.171581 12.04428 13.269531 12 C 13.33721 11.9695 13.405699 11.940399 13.474609 11.912109 C 13.505429 11.899479 13.535336 11.88723 13.566406 11.875 C 13.66679 11.835511 13.770347 11.796409 13.873047 11.761719 C 14.478971 11.557091 15.124673 11.438309 15.794922 11.417969 C 15.863152 11.416369 15.93126 11.414062 16 11.414062 z " />
  </g>
</svg>
