<svg height="32" viewBox="0 0 32 32" width="32" xmlns="http://www.w3.org/2000/svg"><path d="m2.777778 1.9999997c-.430889 0-.777778.4460001-.777778 1v3.9217996 2.0782001 20.0781996c0 .5114.319271.921801.717014.921801h26.565971c.397743 0 .717015-.4104.717015-.921801v-22.1563997c0-.5113999-.319272-.9217998-.717015-.9217998h-12.726246c-.886457.034-1.31646-.2642001-1.707424-.7362002l-1.848624-2.4199995c-.261411-.4404-.458691-.8438-.88958-.8438z" fill="#4285f4"/><path d="m14.666665 9.9999993c-.246248 0-.444444.1981997-.444444.4444437v5.777778h-5.7777772c-.246221 0-.444444.19822-.444444.444447v2.666665c0 .246223.198224.444444.444444.444444h5.7777772v5.777779c0 .246248.1982.444444.444444.444444h2.666667c.246249 0 .444445-.1982.444445-.444444v-5.777779h5.777779c.246221 0 .444444-.19822.444444-.444444v-2.666665c0-.246224-.19822-.444447-.444444-.444447h-5.777779v-5.777778c0-.246248-.1982-.4444438-.444445-.4444438z" fill="#fff"/></svg>