<svg height="32" viewBox="0 0 32 32" width="32" xmlns="http://www.w3.org/2000/svg"><path d="m2.777778 1.9999999c-.430889 0-.777778.4460001-.777778 1.0000001v3.9218002 2.0782 20.0781988c0 .5114.319271.921801.717014.921801h26.565971c.397743 0 .717015-.4104.717015-.921801v-22.1563988c0-.5113999-.319272-.9217998-.717015-.9217998h-12.726246c-.886457.034-1.31646-.2642001-1.707424-.7362002l-1.848624-2.4200002c-.261411-.4404-.458691-.8438-.88958-.8438z" fill="#4285f4"/><path d="m16 10.169491c-4.41828 0-7.9999998 3.581721-7.9999998 8.000001 0 2.0276.75669 3.87132 1.9999997 5.28125.2080311.267242.4988121.505096.7187501.71875 1.40993 1.24331 3.25365 2 5.28125 2 4.41828 0 8-3.58172 8-8 0-2.0276-.75669-3.87132-2-5.28125-.11136-.12621-.22478-.25603-.34375-.375l-.375-.34375c-1.40993-1.24331-3.25365-2.000001-5.28125-2.000001zm4.949219 3.050783c.697363.700308 1.238529 1.540347 1.58789 2.464843.00097.002.0029.0029.0039.0059.0066.0195.01311.03903.01953.05859.283874.68484.357738 1.383087.423828 2.095703.005.10821.01367.214619.01367.324219v.04297c-.06847 3.545269-2.592827 6.180701-5.953125 6.871093-.12834.0192-.256209.04053-.386719.05273-.135849.01048-.271974.017-.408203.01953-.08368.003-.16556.01368-.24999.01368-.0149 0-.03002-.0039-.04492-.0039-.82235.01319-1.596767-.192715-2.357422-.431641-.0456-.017-.0916-.03278-.136719-.05078-.170797-.06694-.338894-.140561-.503906-.220703-.706089-.338166-1.350448-.792386-1.90625-1.34375z" fill="#fff" transform="translate(0 -.135593)"/></svg>