<?xml version="1.0" encoding="UTF-8" standalone="no"?>
<svg
   xmlns:dc="http://purl.org/dc/elements/1.1/"
   xmlns:cc="http://creativecommons.org/ns#"
   xmlns:rdf="http://www.w3.org/1999/02/22-rdf-syntax-ns#"
   xmlns:svg="http://www.w3.org/2000/svg"
   xmlns="http://www.w3.org/2000/svg"
   xmlns:sodipodi="http://sodipodi.sourceforge.net/DTD/sodipodi-0.dtd"
   xmlns:inkscape="http://www.inkscape.org/namespaces/inkscape"
   viewBox="0 0 32 32"
   version="1.1"
   id="svg6"
   sodipodi:docname="folder-new.svg"
   inkscape:version="1.0.1 (3bc2e813f5, 2020-09-07)"
   width="32"
   height="32">
  <metadata
     id="metadata10">
    <rdf:RDF>
      <cc:Work
         rdf:about="">
        <dc:format>image/svg+xml</dc:format>
        <dc:type
           rdf:resource="http://purl.org/dc/dcmitype/StillImage" />
        <dc:title />
      </cc:Work>
    </rdf:RDF>
  </metadata>
  <sodipodi:namedview
     pagecolor="#ffffff"
     bordercolor="#666666"
     borderopacity="1"
     objecttolerance="10"
     gridtolerance="10"
     guidetolerance="10"
     inkscape:pageopacity="0"
     inkscape:pageshadow="2"
     inkscape:window-width="1366"
     inkscape:window-height="702"
     id="namedview8"
     showgrid="false"
     inkscape:zoom="10.727273"
     inkscape:cx="8.1852742"
     inkscape:cy="18.457627"
     inkscape:window-x="0"
     inkscape:window-y="0"
     inkscape:window-maximized="1"
     inkscape:current-layer="svg6"
     inkscape:document-rotation="0" />
  <defs
     id="defs3051">
    <style
       type="text/css"
       id="current-color-scheme">
     .ColorScheme-Text {
       color:#f2f2f2;
     }
     </style>
  </defs>
  <g
     id="g16">
    <path
       id="path12"
       style="color:#f2f2f2;fill:#4285f4;fill-opacity:1;stroke:none;stroke-width:1.76383"
       d="M 2.7773438 2 C 2.3464547 2 2 2.4460001 2 3 L 2 6.921875 L 2 9 L 2 29.078125 C 2 29.589525 2.3190539 30 2.7167969 30 L 29.283203 30 C 29.680946 30 30 29.589526 30 29.078125 L 30 6.921875 C 30 6.4104751 29.680946 6 29.283203 6 L 16.556641 6 C 15.670184 6.034 15.240573 5.735672 14.849609 5.2636719 L 13 2.84375 C 12.738589 2.40335 12.542217 2 12.111328 2 L 2.7773438 2 z M 14.666016 10 L 17.333984 10 C 17.580229 10 17.777344 10.199065 17.777344 10.445312 L 17.777344 16.222656 L 23.554688 16.222656 C 23.800911 16.222656 24 16.419792 24 16.666016 L 24 19.333984 C 24 19.580208 23.800909 19.777344 23.554688 19.777344 L 17.777344 19.777344 L 17.777344 25.554688 C 17.777344 25.800931 17.580233 26 17.333984 26 L 14.666016 26 C 14.419772 26 14.222656 25.800936 14.222656 25.554688 L 14.222656 19.777344 L 8.4453125 19.777344 C 8.1990925 19.777344 8 19.580207 8 19.333984 L 8 16.666016 C 8 16.419789 8.1990915 16.222656 8.4453125 16.222656 L 14.222656 16.222656 L 14.222656 10.445312 C 14.222656 10.199068 14.419768 10 14.666016 10 z " />
  </g>
</svg>
