<?xml version="1.0" encoding="UTF-8" standalone="no"?>
<svg
   viewBox="0 0 32 32"
   version="1.1"
   id="svg8"
   sodipodi:docname="folder-remote.svg"
   width="32"
   height="32"
   inkscape:version="1.1.1 (3bf5ae0d25, 2021-09-20, custom)"
   xmlns:inkscape="http://www.inkscape.org/namespaces/inkscape"
   xmlns:sodipodi="http://sodipodi.sourceforge.net/DTD/sodipodi-0.dtd"
   xmlns="http://www.w3.org/2000/svg"
   xmlns:svg="http://www.w3.org/2000/svg">
  <defs
     id="defs12" />
  <sodipodi:namedview
     id="namedview10"
     pagecolor="#ffffff"
     bordercolor="#666666"
     borderopacity="1.0"
     inkscape:pageshadow="2"
     inkscape:pageopacity="0.0"
     inkscape:pagecheckerboard="0"
     showgrid="false"
     width="21px"
     inkscape:zoom="7.6706211"
     inkscape:cx="-1.3688592"
     inkscape:cy="0.39110262"
     inkscape:window-width="1366"
     inkscape:window-height="705"
     inkscape:window-x="0"
     inkscape:window-y="0"
     inkscape:window-maximized="1"
     inkscape:current-layer="svg8" />
  <g
     fill="none"
     stroke="#000000"
     stroke-linecap="round"
     stroke-linejoin="round"
     stroke-width="32"
     id="g6"
     transform="matrix(0.07116521,0,0,0.07064762,-2.2182661,-2.0857907)"
     style="stroke:#4285f4;stroke-width:37.558;stroke-miterlimit:4;stroke-dasharray:none;stroke-opacity:1">
    <path
       d="m 400,304 48,48 -48,48 m 0,-288 48,48 -48,48 M 64,352 h 85.19 a 80,80 0 0 0 66.56,-35.62 L 256,256"
       id="path2"
       style="stroke:#4285f4;stroke-width:37.558;stroke-miterlimit:4;stroke-dasharray:none;stroke-opacity:1" />
    <path
       d="m 64,160 h 85.19 a 80,80 0 0 1 66.56,35.62 l 80.5,120.76 A 80,80 0 0 0 362.81,352 H 416 m 0,-192 h -53.19 a 80,80 0 0 0 -66.56,35.62 L 288,208"
       id="path4"
       style="stroke:#4285f4;stroke-width:37.558;stroke-miterlimit:4;stroke-dasharray:none;stroke-opacity:1" />
  </g>
</svg>
