<svg height="32" viewBox="0 0 32 32" width="32" xmlns="http://www.w3.org/2000/svg"><g fill="#1e90ff"><path d="m20.949219 13.083984-9.898438 9.898438c.555802.551364 1.200161 1.005584 1.90625 1.34375.165012.080142.333109.153763.503907.220703.045118.018.091118.033781.136718.050781.760655.238926 1.535072.444831 2.357422.431641.0149 0 .030022.003906.044922.003906.08443 0 .16632-.010672.25-.013672.136229-.00253.272354-.009051.408203-.019531.13051-.0122.258379-.033534.386719-.052734.840074-.172598 1.62762-.465682 2.33789-.865235.710271-.399553 1.343205-.903889 1.873047-1.498047.529843-.594157.957068-1.278743 1.25586-2.035156.298791-.756412.46921-1.586339.486328-2.472656v-.042969c0-.1096-.008672-.216009-.013672-.324219-.06609-.712616-.139954-1.410863-.423828-2.095703-.00642-.01956-.012931-.039093-.019531-.058593-.001-.003-.002937-.00386-.003907-.00586-.349361-.924496-.890527-1.764536-1.58789-2.464844z"/><path d="m2.7773438 2c-.4308891 0-.7773438.446-.7773438 1v3.921875 2.078125 20.078125c0 .5114.3190539.921875.7167969.921875h26.5664061c.397743 0 .716797-.410474.716797-.921875v-22.15625c0-.5113999-.319054-.921875-.716797-.921875h-12.726562c-.886457.034-1.316068-.264328-1.707032-.7363281l-1.849609-2.4199219c-.261411-.4404-.457783-.84375-.888672-.84375zm13.2226562 8.033203c1.0138 0 1.982426.19057 2.873047.535156.890621.344587 1.703238.843189 2.408203 1.464844l.375.34375c.11897.11897.23239.24879.34375.375.621655.704965 1.122211 1.519535 1.466797 2.410156.344586.890622.533203 1.857294.533203 2.871094 0 1.10457-.224084 2.158128-.628906 3.115235-.404822.957106-.990986 1.819111-1.714844 2.542968-.723858.723858-1.585862 1.308069-2.542969 1.712891s-2.008711.628906-3.113281.628906c-1.0138 0-1.982426-.188617-2.873047-.533203s-1.703238-.845142-2.408203-1.466797c-.219938-.213654-.510719-.451508-.71875-.71875-.6216549-.704965-1.1222107-1.517582-1.4667969-2.408203s-.5332031-1.859247-.5332031-2.873047c0-1.10457.2240844-2.156174.6289062-3.113281.4048219-.957107.9909863-1.819111 1.7148438-2.542969.723857-.723857 1.585862-1.310022 2.542969-1.714844s2.008711-.628906 3.113281-.628906z"/></g></svg>