<svg height="32" viewBox="0 0 32 32" width="32" xmlns="http://www.w3.org/2000/svg"><g fill="#4285f4"><path d="m15.84375 11.771484c-.01772.044353-.045983.083141-.064453.119141-.02325.04498-.017249.07636-.042969.09375-.102214.068671-.282382-.057865-.412109-.078125-.073405-.01148-.132619.018984-.199219.021484-.068379.0025-.131289-.03207-.193359 0-.03174-.00959-.041748-.036613-.054688-.058593h-.001953c-1.041321.188652-1.994371.637051-2.789062 1.271484.040299.052368.068049.116198.09375.148437.016489.021307-.046682.075682-.050782.107422-.00314.02187.017225.054465.015625.083985-.00444.074233-.063845.123712-.015625.164062.052545.04392.14002-.060007.1875.007813.04787.068493-.046894.09384-.058594.15625-.01385.073118.022309.14441.021485.21289-.00057.030632-.010514.101284-.021485.126954-.021399.049687-.093009.049259-.099609.099609-.010196.081262.117553.138801.126953.207031.00667.048974-.037377.135841-.054687.175781-.048236.112539-.124611.208191-.207031.306641-.076441.09139-.190018.174868-.242188.267578-.02827.050338-.031581.110883-.056641.158203-.035946.06801-.101438.099329-.136718.167969-.014.098048-.005.186104 0 .277344.005.091086-.002498.186134.007812.271484.00577.047728.022288.139324.048828.183594.030548.05069.080188.035692.142578.070312.047168.02618.120186.093769.134766.142578.01605.054217.009025.134799.015625.205079.00693.074877.008794.15967.027344.21289.020284.05807.115786.117077.115234.185547-.00076.062568-.084354.070066-.083984.134766.000718.103084.202082.104912.226562.205078.01246.051105-.024462.10865-.013672.15039.01289.050578.097684.091562.121094.113282.041925.03908.067346.10768.134766.09375.050566-.065312-.03802-.117905-.0625-.171875-.02778-.060743-.028344-.164539-.058594-.261719-.01911-.061544-.073427-.109443-.091797-.164062-.01913-.056992-.016589-.11479-.037109-.16211-.02001-.046433-.085197-.111383-.091797-.158203-.023038-.16989.156341-.226141.207031-.097656.03041.077425-.01311.144809 0 .224609.010633.06486.092486.127737.134766.185547.046773.064115.084646.129075.128906.171875.0033.04551.0033.052066 0 .097656.058456.068679.125324.132811.183594.207032.078665.099862.20587.221595.1875.390624-.00577.053439-.061094.100651-.058594.15625.00211.048023.061494.103556.115234.140626.056636.039272.104891.085931.150391.107421.031991.01517.087963.017887.126953.035157.050916.022533.092121.077732.150391.107422.072129.03674.168409.057146.255859.097656.084188.03892.196582.093381.263672.09375.067522.00041.140334-.070666.214844-.072266.174698-.004832.249544.221306.390625.291016.035371.01768.081293.019097.126953.029297.037044.00795.066122.023186.101562.035156.075402.0255.166313.022098.226563.048828.090931.04006.156315.210349.234375.255859.0042.04592-.005575.108289.009766.142578.03685.049791.08956.039866.15039.072266.072704.039054.09312.137139.16211.167969.023528.01044.083503.010104.121093.021484.094499.028557.126011.139095.207031.115235.05288-.015445.048241-.070504.056641-.121094.035112-.03805.074256-.098799.128906-.09961.088531-.001845.094724.092075.126953.177735.01821.048351.067699.089505.080079.140625.02131.088183.010307.35352-.007813.40625-.02228.064702-.109912.090439-.164062.162109-.02538.033525-.039144.081759-.058594.105469-.034794.04228-.087151.05472-.113281.09375-.01476.021879-.028789.069919-.042969.099609-.04295.090322-.09844.153252-.0625.261719.01476.044564.083754.076426.083984.128906.000205.061819-.132268.115864-.142578.183594-.00775.050254.042524.139388.058594.205078.012051.049627.105426.080312.134766.113282.050068.055904.091058.136831.136718.207031.09032.138235.160047.30559.248047.439453.04622.070151.111668.134301.142578.207031.01583.036817.012584.080311.027344.113281.05093.114532.276548.234296.392578.291016.054309.02665.114193.036903.164063.064453.075516.041944.225511.15273.263672.21875.03412.059333.055705.204528.072265.298828.02242.12466.000059.218613.005859.353516.00272.062015.021544.12525.027344.1875.812936-.19584 1.562989-.549431 2.21875-1.027344s1.217331-1.079037 1.646485-1.769531c-.067101-.06088-.136147-.116547-.222657-.123047-.037194-.00274-.071331.016435-.113281.015625-.069079-.00132-.17351-.047841-.25-.056641-.04854-.0057-.113408.01413-.142578 0-.0446-.021548-.049747-.102603-.085937-.126953-.028974-.0196-.083444-.026288-.126954-.042968-.070208-.02706-.126011-.058754-.207031-.064454-.02505-.0015-.057007.01076-.085937.00586-.044738-.00718-.079804-.058905-.121094-.083985-.051657-.03136-.099664-.046937-.121094-.091797.046792-.15278-.081801-.196746-.113281-.285156-.01476-.041366-.008464-.090063-.021485-.126953-.018495-.052854-.071296-.084766-.128906-.128906-.10312-.079067-.194407-.151862-.341797-.169922-.064736-.00787-.128721.020525-.207031.015625-.082886-.005161-.18793-.079781-.25-.150391-.06032-.069062-.088045-.129139-.140625-.162109-.049834-.03142-.11643-.032153-.150391-.064453-.015069-.01435-.013146-.039136-.029296-.072266-.02497-.051612-.066317-.078785-.035157-.140625-.056808-.02905-.059023.053759-.121093.042969-.055373-.07835-.102753-.114757-.228516-.091797-.057461.01061-.08916.082385-.15625.083984-.055093.00164-.099185-.059912-.171875-.070312-.05491-.00743-.11718.015313-.15625.007812-.060807-.011849-.081169-.063279-.136719-.099609-.040628-.02673-.117795-.071027-.140625-.070312-.071568.00228-.121873.149816-.220703.097656-.04822-.060604.076401-.093811.019531-.150391-.043074-.04296-.078751.019359-.113281.042969-.039378.02715-.077404.056176-.121094.072266-.097862.03633-.157885.01719-.234375.05664-.070874.036601-.075094.097352-.115234.169922-.032951.059545-.105007.147091-.154297.150391-.059798.004318-.117725-.084122-.171875-.107422-.163192-.070436-.243459.062853-.378906.064453-.125811.001615-.305428-.202524-.298828-.320313.00395-.071922.042081-.180691.050781-.269531.007-.07067.055949-.111231.056641-.175781.001047-.086293-.115665-.153862-.171875-.164062-.133131-.02449-.318145.052627-.470704-.007813-.02909-.048085.036335-.080203.052735-.126953.00931-.02642.000579-.062517.011719-.091797.01698-.044984.064747-.081096.085937-.128906.01599-.036539.019006-.089486.035156-.134766.01854-.051671.054494-.084844.058594-.121094.00519-.047999-.013191-.103265-.050781-.134765-.118369.00606-.196332.012629-.263672.042968-.154206.069937-.123301.277052-.277344.326172-.053263.01701-.126947.016944-.185547.027344-.050575.00903-.111892.037917-.164062.03711-.061695-.001081-.170271-.06032-.207031-.09961-.032708-.035347-.112094-.211177-.121094-.242187-.060627-.20912.006067-.401493.085937-.546875.0169-.03083.044031-.059397.056641-.091797.01896-.049239.006474-.122562.021484-.175781.027299-.098864.15807-.159302.25-.207032.104184-.053934.191214-.14219.3125-.15039.0605-.00418.148932.01928.207032.03125.053602.01099.098121.045528.144531.048828.131697.010067.160122-.093221.267578-.150391.111001.01532.18689-.017439.287109-.005859.06838.00789.118635.079884.171875.083984.044751.00361.083594-.041656.126953-.035156.042078.006574.114494.099131.121094.15039.00849.063801-.047667.121367-.029297.191407.067077.068042.189257.07995.285157.11914.0624-.051247.0085-.14453 0-.21875-.0033-.03284.0033-.061696 0-.091797-.00561-.051101-.027113-.100831-.027344-.144531-.001047-.202038.162796-.2952.298828-.375.058853-.034622.10509-.095663.15625-.121093.072114-.035991.125877-.044586.185547-.078126.107959-.060445.200756-.107211.285156-.175781.03948-.091537.00086-.214157.005859-.304687.038952-.0235.073865.009159.115235.005859.065079-.013718.070492-.105998.107422-.142578.021179-.02092.080792-.035901.107422-.056641.06497-.050752.083995-.126537.140625-.148437.02032-.00774.067539-.006825.099609-.015625.042465-.01143.103135-.060444.171875-.083984.044643-.015091.147002-.017927.164062-.035157.021371-.021379.001113-.081211.007813-.113281.03456-.160262.276727-.194087.419922-.248047.10036-.03805.202216-.107337.3125-.085937-.021579.076152-.122859.050048-.105469.142578.024364.128298.196608-.037701.242188-.056641.086875-.036448.235568-.060392.349609-.101562.09999-.036172.277874-.091037.183594-.205079-.078576-.004461-.115014.091894-.183594.121094-.04732.00698-.039768-.036915-.080078-.041015-.03807-.00361-.060209.033943-.099609.027343-.039211-.006797-.091857-.067521-.097657-.113281-.015579-.118445.099148-.167519.148438-.255859-.032614-.10719-.181575-.022463-.271485-.064453.008645-.06378.075551-.108964.150391-.121094.061331-.01009.197855-.000883.234375.029297.02143.01791.003979.062107.037109.091797.03629.03288.079804.028884.126953.021484.017128-.080829-.107019-.059731-.09375-.113281.096281-.06265.255214-.011907.373047-.029297.067803-.01004.139139-.058087.199219-.091797.057226-.03215.130736-.088216.191406-.035156.016506.057827-.053547.076599-.085937.105468-.109006.096623-.219908.208119-.304688.320313.052011.05052.146425.024736.234375.035156.034362.00409.077022.014885.113282.021485.04243.00764.089746.005371.123046.013672.059916.014769.075506.078124.134766.078124.09752-.000138.096326-.104321.041016-.169921.01737-.067004.045234-.101448.021484-.148438-.043875-.08745-.204691-.001224-.21289-.113281-.005241-.070758.060227-.068034.085937-.121094-.011669-.136823.112949-.146928.099609-.269531-.00561-.051257-.049747-.05155-.085937-.099609-.01863-.024721-.028361-.074731-.050781-.09375-.074478-.062712-.225275-.050239-.234375-.169922-.0029-.07065.017812-.128318.007812-.205078-.00245-.019271-.008225-.048509-.015625-.080079-.06754-.056193-.137211-.110592-.207031-.164062-.048885.039647-.098337.096637-.154297.123047-.051845.02461-.125804.052669-.177734.042968-.033848-.006436-.102422-.056063-.107422-.121093v-.001953c-.00445-.072344.050763-.075487.064453-.154297-.011799-.04699-.061182-.037006-.107422-.072266-.052331-.039652-.094413-.123112-.164063-.132812-.034713-.00492-.078751.024843-.113281.027343-.067869.00459-.13063-.024295-.1875-.041015-.03192-.0093-.062787-.014413-.091797-.007813-.0038.0008-.006465.002307-.009765.003906-.05077.018248-.07233.072704-.09961.121094-.0183.03247-.040402.061276-.076171.072266.012576.069381-.081407.115062-.091797.169922-.0071.03685.013225.081694.015625.115234.021398.339473-.259792.497381-.591797.488281-.06513.062015-.050498.178512-.085938.263672-.029828.071472-.135231.148278-.207031.142578-.053072-.004462-.113049-.079696-.113281-.128906-.00025-.060816.087906-.094682.035156-.164062.007556-.047137.112549-.073318.099609-.148438-.013344-.07815-.122823-.036598-.220703-.048828-.071297-.00899-.165375-.051168-.228515-.085937-.083513-.045983-.154806-.134998-.263672-.148438-.061936-.00764-.121211.020938-.150391-.013672-.03207-.037999.014025-.094934.015625-.121094-.002-.043188-.082637-.057379-.085937-.099609-.002737-.029588.077012-.122277.107421-.148437.056331-.048763.157337-.099558.248047-.148438.088728-.047951.191324-.100286.277344-.128906.036643-.01222.080044-.008615.115235-.021485.090188-.033198.151078-.096163.236328-.121093.044402-.01292.090915-.010575.140625-.021485.054005-.01206.103097-.036187.148437-.060547.034556-.01854.067693-.035458.101563-.048828.01895-.00763.038893-.014278.058593-.017578-.022369.081783-.115288.094895-.136718.177734.086183.156336.232857-.035878.333984-.035156.091762.0008.184237.128464.242188.00586-.021044-.066132-.081445-.102575-.140626-.140625-.054667-.035117-.142518-.066559-.136718-.142579.065685-.02902.089507.050413.148437.050782.02291.00009.052075-.019826.078125-.035156-.135729-.060032-.273511-.115496-.414062-.166016-.098604-.0354-.198048-.069019-.298828-.09961-.01714-.005139-.033552-.010725-.050782-.015624-.044551.0506-.161397.096096-.210937.066406.001-.064108.078144-.05172.089844-.09961-.069534-.01894-.138595-.036174-.208985-.052734-.02358.01206-.044343.024952-.058594.039062-.033459.033329-.030342.093874-.070312.121094-.063095.0433-.149216.019885-.222656.021485-.143286.0032-.226488.010171-.328125-.042969-.03009-.01557-.088985-.043417-.083985-.091797.112139-.0041.218087.053657.347657.029297.046619-.00878.063572-.051926.107421-.072266.046768-.02157.102161-.000312.119141-.044922-.404967-.082203-.823092-.125-1.251953-.125-.051919 0-.10457-.0016-.15625 0z"/><path d="m2.7773438 2c-.4308891 0-.7773438.446-.7773438 1v3.921875 2.078125 20.078125c0 .5114.319054.921875.7167969.921875h26.5664061c.397743 0 .716797-.410474.716797-.921875v-22.15625c0-.5114-.319054-.921875-.716797-.921875h-12.726562c-.886457.034-1.316068-.2643281-1.707032-.7363281l-1.849609-2.4199219c-.261411-.4404-.457783-.84375-.888672-.84375zm13.2226562 9.414062c.040508 0 .080784.001219.121094.001954.365543.006531.723454.042158 1.072265.105468.04679.00844.094145.017844.140625.027344.064463.01321.127607.027959.191407.042969.204132.047911.403235.103582.599609.169922.01715.00575.035754.013831.052734.019531.084203.02925.16739.059407.25.091797.0008.000806.003102.00151.003907.001953.077553.03051.152435.062323.228515.095703.02242.00984.04603.019207.06836.029297.053402.02403.107496.050752.160156.076172.043855.02116.087509.042313.130859.064453.09529.048688.186727.099284.279297.152344.237249.136174.465977.285791.683594.449219.164477.123503.32449.254615.476562.392578.07851.071208.153596.14388.228516.21875.075023.074833.149403.152148.220703.230468.107061.117559.210134.238277.308594.363282.196876.250085.377372.515773.537109.792968.053258.092375.101591.18616.150391.28125.02439.047581.050969.094358.074219.142578.069856.144696.132066.293068.191406.44336.01971.050142.040024.09972.058594.15039.074383.202734.138799.40966.193359.621094.02728.105667.052129.214603.074219.322266.02208.107661.041764.214711.058594.324219.01681.109578.031558.220738.042968.332031.02269.222464.033203.447306.033203.675781 0 .22851-.010533.455271-.033203.677735-.01137.111269-.026339.222484-.042968.332031-.0168.109531-.036584.218431-.058594.326172-.0221.107661-.046929.2126-.074219.318359-.054558.211426-.118939.418359-.193359.621094-.037154.101394-.077191.201791-.119141.300781-.041934.098985-.084209.196549-.130859.292969-.02332.048219-.049829.096961-.074219.144531-.048795.095144-.097151.18891-.150391.28125-.033381.058012-.070349.115045-.105468.171875-.132736.214969-.275856.42328-.431641.621094-.098415.125054-.201585.245766-.308594.363281-.071366.078345-.145703.153726-.220703.228516-.07499.074838-.149956.149423-.228516.220703-.353277.320432-.743527.604695-1.160156.84375-.092529.053103-.183967.10168-.279297.15039-.190638.097503-.387122.186655-.58789.265625-.100451.039469-.203915.076708-.306641.111329-.212497.071748-.428885.133313-.650391.183593-.474573.107541-.96743.164063-1.474609.164063-.743927 0-1.459327-.122159-2.126953-.347656-.102701-.034679-.206281-.071799-.306641-.111329-.200793-.079075-.395298-.168165-.585937-.265625-.09533-.048709-.18867-.099293-.28125-.152343-.416604-.239095-.804925-.521325-1.158203-.841797-.07851-.071225-.155459-.145833-.230469-.220703-.075046-.074834-.149323-.150116-.220703-.228516-.107036-.117558-.210144-.23827-.308594-.363281-.196879-.250083-.375442-.515797-.535156-.792969-.05327-.092395-.103544-.18615-.152344-.28125-.0244-.047589-.049026-.096311-.072266-.144531-.0465158-.096459-.0909421-.194039-.1328121-.292969-.0419273-.098943-.0819707-.199438-.1191407-.300781-.074403-.202732-.1387993-.409637-.1933593-.621094-.0272-.105693-.0521288-.210696-.0742188-.318359-.02201-.107661-.0399106-.216665-.0566406-.326172-.01682-.109555-.0316687-.220798-.0429687-.332031-.02266-.222516-.0332032-.44926-.0332032-.677735 0-.228508.0105332-.453308.0332032-.675781.0113799-.111286.0262387-.222445.0429687-.332031.01673-.109505.0345506-.216497.0566406-.324219v-.001953c.02209-.107659.0472688-.214769.0742188-.320313.054565-.211457.1189294-.418358.1933593-.621094.01863-.05069.0388138-.10029.0585938-.15039.0594284-.150273.1234594-.298664.193359-.44336.02333-.048207.047866-.096971.072266-.144531.048786-.095122.099094-.186927.152344-.279297.159722-.277171.338261-.542949.535156-.792968.098439-.125054.201558-.245774.308594-.363282.071346-.078375.145783-.155598.220703-.230468.074957-.074833.151919-.14757.230469-.21875.037482-.034028.075041-.06648.113281-.09961.322427-.279329.672489-.530377 1.044922-.74414.092571-.05313.18592-.101681.28125-.150391.095307-.048763.191112-.096345.289062-.140625.067679-.0305.136168-.059601.205078-.087891.03082-.01263.060727-.024879.091797-.037109.100384-.039489.203941-.078591.306641-.113281.605924-.204628 1.251626-.32341 1.921875-.34375.06823-.0016.136338-.003907.205078-.003907z"/></g></svg>