<svg height="32" viewBox="0 0 32 32" width="32" xmlns="http://www.w3.org/2000/svg"><path d="m2.777778 1.9999999c-.430889 0-.777778.4459999-.777778.9999999v3.9218001 2.0782001 20.078199c0 .5114.319271.921801.717014.921801h26.565971c.397743 0 .717015-.4104.717015-.921801v-22.1563991c0-.5113999-.319272-.9217998-.717015-.9217998h-12.726246c-.886457.034-1.31646-.2642001-1.707424-.7362002l-1.848624-2.42c-.261411-.4404-.458691-.8438-.88958-.8438z" fill="#4285f4"/><path d="m15.336147 18.00898-5.310845-4.776857c-.3670695-.330164-.3670695-.864044 0-1.190696l.882548-.793808c.367069-.330166.960635-.330166 1.323799 0l3.764445 3.385949 3.764456-3.385949c.367064-.330166.960638-.330166 1.323795 0l.890349.790287c.367075.330173.367075.864053 0 1.190705l-5.310845 4.776867c-.367067.333674-.960624.333674-1.327702.0037zm1.327702 6.743813 5.310845-4.776867c.367075-.330164.367075-.864044 0-1.190696l-.882538-.793806c-.367078-.330164-.960633-.330164-1.323808 0l-3.76835 3.382444-3.764443-3.385955c-.36707-.330164-.960636-.330164-1.32381 0l-.886443.793796c-.3670695.330173-.3670695.864053 0 1.190706l5.310845 4.776858c.367078.333684.960635.333684 1.327702.0037z" fill="#fff" stroke-width=".037035"/></svg>