<svg height="8px" width="8px" id="Camada_1" data-name="Camada 1" xmlns="http://www.w3.org/2000/svg" xmlns:xlink="http://www.w3.org/1999/xlink" viewBox="0 0 8 8"><defs><style>.cls-1{fill:url(#Gradiente_sem_nome_299);}.cls-2{fill:#fff;}</style><linearGradient id="Gradiente_sem_nome_299" x1="1.8062" y1="1.8054" x2="6.1952" y2="6.1944" gradientUnits="userSpaceOnUse"><stop offset="0.1453" stop-color="#9da5ad"/><stop offset="0.8939" stop-color="#5a6670"/></linearGradient></defs><path class="cls-1" d="M6.2922,4.291A2.275,2.275,0,0,0,6.3138,4a2.504,2.504,0,0,0-.0216-.3l.6508-.489a.1486.1486,0,0,0,.037-.192L6.3631,1.981a.1536.1536,0,0,0-.1881-.066l-.7679.3a2.2525,2.2525,0,0,0-.5213-.294l-.1141-.795A.1547.1547,0,0,0,4.6175,1H3.3838a.1548.1548,0,0,0-.1542.126l-.1141.795a2.2518,2.2518,0,0,0-.5212.294l-.768-.3a.1536.1536,0,0,0-.1881.066L1.0214,3.019a.1452.1452,0,0,0,.037.192l.6508.489a2.4835,2.4835,0,0,0-.0216.3,2.257,2.257,0,0,0,.0216.291l-.6508.498a.1452.1452,0,0,0-.037.192l.6168,1.038a.1571.1571,0,0,0,.1881.066l.768-.303a2.1569,2.1569,0,0,0,.5212.297l.1141.795A.1548.1548,0,0,0,3.3838,7H4.6175a.1547.1547,0,0,0,.1542-.126l.1141-.795a2.262,2.262,0,0,0,.5213-.297l.7679.303a.157.157,0,0,0,.1881-.066L6.98,4.981a.1486.1486,0,0,0-.037-.192Z"/><circle class="cls-2" cx="4" cy="4" r="1"/></svg>