<svg height="32" viewBox="0 0 32 32" width="32" xmlns="http://www.w3.org/2000/svg"><g fill="#1e90ff" transform="matrix(1.75 0 0 2.0000011 -3.25 -26.000023)"><path d="m3 17.598877c-.00007-.41113.14791-.82218.44404-1.1329.59211-.621459 1.56655-.621239 2.15899.0003h.00007l5.39752 5.66523 5.39588-5.66351c.59206-.62147 1.56645-.62132 2.1588.00023.00002.00002.00003.00003.00006.00007.00003.00002.00004.00003.00007.00006.59268.62159.59274 1.64478.0003 2.26628l-6.47509 6.7963c-.29601.31063-.68934.46913-1.07939.46906-.38975-.00007-.78312-.15854-1.07928-.46923h-.00007l-6.4775-6.79864c-.29621-.3109-.44434-.7221-.4444-1.13325z"/><path d="m3 17.598877c-.00007-.41113.14791-.82218.44404-1.1329.59211-.621459 1.56655-.621239 2.15899.0003h.00007l5.39752 5.66523 5.39588-5.66351c.59206-.62147 1.56645-.62132 2.1588.00023.00002.00002.00003.00003.00006.00007.00003.00002.00004.00003.00007.00006.59268.62159.59274 1.64478.0003 2.26628l-6.47509 6.7963c-.29601.31063-.68934.46913-1.07939.46906-.38975-.00007-.78312-.15854-1.07928-.46923h-.00007l-6.4775-6.79864c-.29621-.3109-.44434-.7221-.4444-1.13325z"/></g></svg>