<svg height="32" viewBox="0 0 32 32" width="32" xmlns="http://www.w3.org/2000/svg"><path d="m8.5 4.5000003c-2.6590916 0-5.5227273.5411762-7.5 2.0294112v19.8211145c0 .338235.340909.67647.6818182.67647.1363631 0 .2045455-.0687.3409089-.0687 1.8409092-.879414 4.4999989-1.487707 6.4772729-1.487707 2.659092 0 5.522726.541177 7.5 2.029411 1.840908-1.15 5.181818-2.029411 7.5-2.029411 2.25 0 4.568182.406939 6.477271 1.421643.13637.06764.204547.06606.340911.06606.34091 0 .681818-.338236.681818-.676471v-19.7524095c-.818182-.6088238-1.704545-1.0147064-2.727273-1.3529414-1.513635-.4735286-3.177272-.6764698-4.772727-.6764698-2.659092 0-5.522729.5411762-7.5 2.0294112-1.977274-1.488235-4.840908-2.0294112-7.5-2.0294112zm15 2.705881c1.636363 0 3.272727.2029413 4.772727.6764699v15.5588238c-1.5-.473531-3.136364-.676472-4.772727-.676472-2.318182 0-5.659092.879413-7.5 2.029413v-15.5588236c1.840908-1.1499999 5.181818-2.0294112 7.5-2.0294111z" fill="#4285f4"/></svg>