<svg height="32" viewBox="0 0 32 32" width="32" xmlns="http://www.w3.org/2000/svg"><path d="m3.5000001 4.5h24.9999999c1.3125 0 2.5 1.213889 2.5 2.555556v17.888888c0 1.341667-1.1875 2.555556-2.5 2.555556h-24.9999999c-1.3125 0-2.5000002-1.213889-2.5000002-2.555556v-17.888888c0-1.341667 1.1875002-2.555556 2.5000002-2.555556m14.9999999 3.833333v1.277778h10v-1.277778zm0 2.555556v1.277778h9.375.625v-1.277778zm0 2.555555v1.277778h8.75v-1.277778zm-7.5 4.996112c-2.4999999 0-7.4999999 1.392777-7.4999999 3.948333v1.277778h14.9999999v-1.277778c0-2.555556-5-3.948333-7.5-3.948333m0-10.107223a3.7499999 3.8333333 0 0 0 -3.7499999 3.833334 3.7499999 3.8333333 0 0 0 3.7499999 3.833333 3.7499999 3.8333333 0 0 0 3.75-3.833333 3.7499999 3.8333333 0 0 0 -3.75-3.833334z" fill="#4285f4" stroke-width="1.26381"/></svg>