<?xml version="1.0" encoding="UTF-8" standalone="no"?>
<svg
   xmlns:dc="http://purl.org/dc/elements/1.1/"
   xmlns:cc="http://creativecommons.org/ns#"
   xmlns:rdf="http://www.w3.org/1999/02/22-rdf-syntax-ns#"
   xmlns:svg="http://www.w3.org/2000/svg"
   xmlns="http://www.w3.org/2000/svg"
   xmlns:sodipodi="http://sodipodi.sourceforge.net/DTD/sodipodi-0.dtd"
   xmlns:inkscape="http://www.inkscape.org/namespaces/inkscape"
   viewBox="0 0 32 32"
   version="1.1"
   id="svg6"
   sodipodi:docname="inode-directory.svg"
   inkscape:version="1.0.1 (3bc2e813f5, 2020-09-07)"
   width="32"
   height="32">
  <metadata
     id="metadata10">
    <rdf:RDF>
      <cc:Work
         rdf:about="">
        <dc:format>image/svg+xml</dc:format>
        <dc:type
           rdf:resource="http://purl.org/dc/dcmitype/StillImage" />
        <dc:title />
      </cc:Work>
    </rdf:RDF>
  </metadata>
  <sodipodi:namedview
     pagecolor="#ffffff"
     bordercolor="#666666"
     borderopacity="1"
     objecttolerance="10"
     gridtolerance="10"
     guidetolerance="10"
     inkscape:pageopacity="0"
     inkscape:pageshadow="2"
     inkscape:window-width="1366"
     inkscape:window-height="702"
     id="namedview8"
     showgrid="false"
     inkscape:zoom="7.375"
     inkscape:cx="9.7627125"
     inkscape:cy="8"
     inkscape:window-x="0"
     inkscape:window-y="0"
     inkscape:window-maximized="1"
     inkscape:current-layer="svg6"
     inkscape:document-rotation="0" />
  <defs
     id="defs3051">
    <style
       type="text/css"
       id="current-color-scheme">
      .ColorScheme-Text {
        color:#f2f2f2;
      }
      </style>
  </defs>
  <g
     id="g18">
    <path
       id="path12"
       style="color:#f2f2f2;fill:#4285f4;fill-opacity:1;stroke:none;stroke-width:1.76383"
       d="m 2.777344,2.0000002 c -0.430889,0 -0.777344,0.446 -0.777344,1 v 3.921875 2.078125 20.0781248 C 2,29.589525 2.319054,30 2.716797,30 H 29.283203 C 29.680946,30 30,29.589526 30,29.078125 V 6.9218752 C 30,6.4104753 29.680946,6.0000002 29.283203,6.0000002 H 16.556641 c -0.886457,0.034 -1.316068,-0.264328 -1.707032,-0.7363281 L 13,2.8437502 c -0.261411,-0.4404 -0.457783,-0.84375 -0.888672,-0.84375 z M 11.5,10.898438 h 7.875 c 0.774197,-1e-6 1.513041,0.163006 2.185547,0.458984 0.672506,0.295978 1.279487,0.725457 1.789062,1.253906 0.509576,0.528449 0.921624,1.156103 1.207032,1.853516 C 24.842048,15.162257 25,15.929551 25,16.732422 c 0,0.802871 -0.15779,1.574637 -0.443359,2.28125 -0.28557,0.706613 -0.699279,1.347004 -1.208985,1.882812 -0.509706,0.535809 -1.116654,0.967355 -1.789062,1.257813 -0.672408,0.290458 -1.409917,0.439595 -2.183594,0.410156 H 18.25 v 2.333985 l -5.625,-3.5 5.625,-3.5 v 2.333984 h 1.125 c 0.472303,0 0.919256,-0.09642 1.324219,-0.271484 0.404963,-0.175064 0.768466,-0.42909 1.072265,-0.744141 0.3038,-0.315051 0.547986,-0.691367 0.716797,-1.111328 C 22.657093,17.685507 22.75,17.222218 22.75,16.732422 c 0,-0.489796 -0.09291,-0.955038 -0.261719,-1.375 C 22.31947,14.93746 22.075284,14.561145 21.771484,14.246094 21.467685,13.931043 21.104182,13.67897 20.699219,13.503906 20.294256,13.328842 19.847303,13.232422 19.375,13.232422 H 11.5 Z m -2.25,8.166015 a 2.25,2.3333333 0 0 1 0.03516,0 2.25,2.3333333 0 0 1 0.125,0.0059 2.25,2.3333333 0 0 1 0.125,0.01367 2.25,2.3333333 0 0 1 0.123046,0.01953 2.25,2.3333333 0 0 1 0.121094,0.02734 2.25,2.3333333 0 0 1 0.121094,0.0332 2.25,2.3333333 0 0 1 0.11914,0.04102 2.25,2.3333333 0 0 1 0.115235,0.04883 2.25,2.3333333 0 0 1 0.113281,0.05274 2.25,2.3333333 0 0 1 0.111328,0.0625 2.25,2.3333333 0 0 1 0.107422,0.06641 2.25,2.3333333 0 0 1 0.101562,0.07226 2.25,2.3333333 0 0 1 0.09961,0.08008 2.25,2.3333333 0 0 1 0.0957,0.08398 2.25,2.3333333 0 0 1 0.08984,0.08984 2.25,2.3333333 0 0 1 0.08594,0.09375 2.25,2.3333333 0 0 1 0.07813,0.09961 2.25,2.3333333 0 0 1 0.07617,0.105469 2.25,2.3333333 0 0 1 0.06836,0.107422 2.25,2.3333333 0 0 1 0.0625,0.111328 2.25,2.3333333 0 0 1 0.05664,0.115234 2.25,2.3333333 0 0 1 0.05078,0.119141 2.25,2.3333333 0 0 1 0.04492,0.121094 2.25,2.3333333 0 0 1 0.03711,0.123046 2.25,2.3333333 0 0 1 0.03125,0.126954 2.25,2.3333333 0 0 1 0.02344,0.126953 2.25,2.3333333 0 0 1 0.01758,0.126953 2.25,2.3333333 0 0 1 0.0098,0.130859 2.25,2.3333333 0 0 1 0.0039,0.128907 2.25,2.3333333 0 0 1 0,0.03711 2.25,2.3333333 0 0 1 -0.0059,0.128906 2.25,2.3333333 0 0 1 -0.01172,0.128906 2.25,2.3333333 0 0 1 -0.01953,0.126953 2.25,2.3333333 0 0 1 -0.02539,0.126954 2.25,2.3333333 0 0 1 -0.0332,0.125 2.25,2.3333333 0 0 1 -0.03906,0.123046 2.25,2.3333333 0 0 1 -0.04687,0.121094 2.25,2.3333333 0 0 1 -0.05273,0.117188 2.25,2.3333333 0 0 1 -0.05859,0.115234 2.25,2.3333333 0 0 1 -0.06445,0.111328 2.25,2.3333333 0 0 1 -0.07031,0.105469 2.25,2.3333333 0 0 1 -0.07617,0.103516 2.25,2.3333333 0 0 1 -0.08008,0.09766 2.25,2.3333333 0 0 1 -0.08789,0.09375 2.25,2.3333333 0 0 1 -0.0918,0.08789 2.25,2.3333333 0 0 1 -0.0957,0.08398 2.25,2.3333333 0 0 1 -0.09961,0.07617 2.25,2.3333333 0 0 1 -0.105469,0.07226 2.25,2.3333333 0 0 1 -0.107422,0.06445 2.25,2.3333333 0 0 1 -0.111328,0.06055 2.25,2.3333333 0 0 1 -0.113281,0.05078 2.25,2.3333333 0 0 1 -0.117188,0.04687 2.25,2.3333333 0 0 1 -0.11914,0.03906 2.25,2.3333333 0 0 1 -0.121094,0.03125 2.25,2.3333333 0 0 1 -0.123047,0.02539 2.25,2.3333333 0 0 1 -0.123047,0.01758 2.25,2.3333333 0 0 1 -0.125,0.01172 2.25,2.3333333 0 0 1 -0.125,0.0039 2.25,2.3333333 0 0 1 -0.03516,-0.002 2.25,2.3333333 0 0 1 -0.125,-0.0039 2.25,2.3333333 0 0 1 -0.125,-0.01367 2.25,2.3333333 0 0 1 -0.123047,-0.01953 2.25,2.3333333 0 0 1 -0.121094,-0.02734 2.25,2.3333333 0 0 1 -0.121093,-0.0332 2.25,2.3333333 0 0 1 -0.119141,-0.04101 2.25,2.3333333 0 0 1 -0.115234,-0.04883 2.25,2.3333333 0 0 1 -0.113282,-0.05469 2.25,2.3333333 0 0 1 -0.111328,-0.06055 2.25,2.3333333 0 0 1 -0.107422,-0.06641 2.25,2.3333333 0 0 1 -0.101562,-0.07227 2.25,2.3333333 0 0 1 -0.09961,-0.08008 2.25,2.3333333 0 0 1 -0.0957,-0.08398 2.25,2.3333333 0 0 1 -0.08984,-0.08984 2.25,2.3333333 0 0 1 -0.08594,-0.09375 2.25,2.3333333 0 0 1 -0.07813,-0.09961 2.25,2.3333333 0 0 1 -0.07617,-0.105469 2.25,2.3333333 0 0 1 -0.06836,-0.107422 2.25,2.3333333 0 0 1 -0.0625,-0.111328 2.25,2.3333333 0 0 1 -0.05664,-0.117187 2.25,2.3333333 0 0 1 -0.05078,-0.117188 2.25,2.3333333 0 0 1 -0.04492,-0.121094 2.25,2.3333333 0 0 1 -0.03711,-0.125 2.25,2.3333333 0 0 1 -0.03125,-0.125 2.25,2.3333333 0 0 1 -0.02344,-0.126953 2.25,2.3333333 0 0 1 -0.01758,-0.128906 2.25,2.3333333 0 0 1 -0.0098,-0.128906 2.25,2.3333333 0 0 1 -0.0039,-0.128906 2.25,2.3333333 0 0 1 0,-0.03711 2.25,2.3333333 0 0 1 0.0059,-0.128906 2.25,2.3333333 0 0 1 0.01172,-0.128906 2.25,2.3333333 0 0 1 0.01953,-0.128907 2.25,2.3333333 0 0 1 0.02539,-0.125 2.25,2.3333333 0 0 1 0.0332,-0.125 2.25,2.3333333 0 0 1 0.03906,-0.123047 2.25,2.3333333 0 0 1 0.04687,-0.121093 2.25,2.3333333 0 0 1 0.05273,-0.117188 2.25,2.3333333 0 0 1 0.05859,-0.115234 2.25,2.3333333 0 0 1 0.06445,-0.111328 2.25,2.3333333 0 0 1 0.07031,-0.107422 2.25,2.3333333 0 0 1 0.07617,-0.101563 2.25,2.3333333 0 0 1 0.08008,-0.09961 2.25,2.3333333 0 0 1 0.08789,-0.0918 2.25,2.3333333 0 0 1 0.0918,-0.08984 2.25,2.3333333 0 0 1 0.0957,-0.08203 2.25,2.3333333 0 0 1 0.09961,-0.07813 2.25,2.3333333 0 0 1 0.105468,-0.07031 2.25,2.3333333 0 0 1 0.107422,-0.06641 2.25,2.3333333 0 0 1 0.111328,-0.05859 2.25,2.3333333 0 0 1 0.113282,-0.05274 2.25,2.3333333 0 0 1 0.117187,-0.04492 2.25,2.3333333 0 0 1 0.119141,-0.03906 2.25,2.3333333 0 0 1 0.121094,-0.03125 2.25,2.3333333 0 0 1 0.123046,-0.02539 2.25,2.3333333 0 0 1 0.123047,-0.01758 2.25,2.3333333 0 0 1 0.125,-0.01172 2.25,2.3333333 0 0 1 0.125,-0.0039 z" />
  </g>
</svg>
