<svg height="32" viewBox="0 0 32 32" width="32" xmlns="http://www.w3.org/2000/svg"><path d="m2.777344 2.0000002c-.430889 0-.777344.446-.777344 1v3.921875 2.078125 20.0781248c0 .5114.319054.921875.716797.921875h26.566406c.397743 0 .716797-.410474.716797-.921875v-22.1562498c0-.5113999-.319054-.921875-.716797-.921875h-12.726562c-.886457.034-1.316068-.264328-1.707032-.7363281l-1.849609-2.4199219c-.261411-.4404-.457783-.84375-.888672-.84375zm8.722656 8.8984378h7.875c.774197-.000001 1.513041.163006 2.185547.458984s1.279487.725457 1.789062 1.253906c.509576.528449.921624 1.156103 1.207032 1.853516.285407.697413.443359 1.464707.443359 2.267578s-.15779 1.574637-.443359 2.28125c-.28557.706613-.699279 1.347004-1.208985 1.882812-.509706.535809-1.116654.967355-1.789062 1.257813s-1.409917.439595-2.183594.410156h-1.125v2.333985l-5.625-3.5 5.625-3.5v2.333984h1.125c.472303 0 .919256-.09642 1.324219-.271484s.768466-.42909 1.072265-.744141c.3038-.315051.547986-.691367.716797-1.111328.168812-.419962.261719-.883251.261719-1.373047s-.09291-.955038-.261719-1.375c-.168811-.419962-.412997-.796277-.716797-1.111328-.303799-.315051-.667302-.567124-1.072265-.742188s-.851916-.271484-1.324219-.271484h-7.875zm-2.25 8.166015a2.25 2.3333333 0 0 1 .03516 0 2.25 2.3333333 0 0 1 .125.0059 2.25 2.3333333 0 0 1 .125.01367 2.25 2.3333333 0 0 1 .123046.01953 2.25 2.3333333 0 0 1 .121094.02734 2.25 2.3333333 0 0 1 .121094.0332 2.25 2.3333333 0 0 1 .11914.04102 2.25 2.3333333 0 0 1 .115235.04883 2.25 2.3333333 0 0 1 .113281.05274 2.25 2.3333333 0 0 1 .111328.0625 2.25 2.3333333 0 0 1 .107422.06641 2.25 2.3333333 0 0 1 .101562.07226 2.25 2.3333333 0 0 1 .09961.08008 2.25 2.3333333 0 0 1 .0957.08398 2.25 2.3333333 0 0 1 .08984.08984 2.25 2.3333333 0 0 1 .08594.09375 2.25 2.3333333 0 0 1 .07813.09961 2.25 2.3333333 0 0 1 .07617.105469 2.25 2.3333333 0 0 1 .06836.107422 2.25 2.3333333 0 0 1 .0625.111328 2.25 2.3333333 0 0 1 .05664.115234 2.25 2.3333333 0 0 1 .05078.119141 2.25 2.3333333 0 0 1 .04492.121094 2.25 2.3333333 0 0 1 .03711.123046 2.25 2.3333333 0 0 1 .03125.126954 2.25 2.3333333 0 0 1 .02344.126953 2.25 2.3333333 0 0 1 .01758.126953 2.25 2.3333333 0 0 1 .0098.130859 2.25 2.3333333 0 0 1 .0039.128907 2.25 2.3333333 0 0 1 0 .03711 2.25 2.3333333 0 0 1 -.0059.128906 2.25 2.3333333 0 0 1 -.01172.128906 2.25 2.3333333 0 0 1 -.01953.126953 2.25 2.3333333 0 0 1 -.02539.126954 2.25 2.3333333 0 0 1 -.0332.125 2.25 2.3333333 0 0 1 -.03906.123046 2.25 2.3333333 0 0 1 -.04687.121094 2.25 2.3333333 0 0 1 -.05273.117188 2.25 2.3333333 0 0 1 -.05859.115234 2.25 2.3333333 0 0 1 -.06445.111328 2.25 2.3333333 0 0 1 -.07031.105469 2.25 2.3333333 0 0 1 -.07617.103516 2.25 2.3333333 0 0 1 -.08008.09766 2.25 2.3333333 0 0 1 -.08789.09375 2.25 2.3333333 0 0 1 -.0918.08789 2.25 2.3333333 0 0 1 -.0957.08398 2.25 2.3333333 0 0 1 -.09961.07617 2.25 2.3333333 0 0 1 -.105469.07226 2.25 2.3333333 0 0 1 -.107422.06445 2.25 2.3333333 0 0 1 -.111328.06055 2.25 2.3333333 0 0 1 -.113281.05078 2.25 2.3333333 0 0 1 -.117188.04687 2.25 2.3333333 0 0 1 -.11914.03906 2.25 2.3333333 0 0 1 -.121094.03125 2.25 2.3333333 0 0 1 -.123047.02539 2.25 2.3333333 0 0 1 -.123047.01758 2.25 2.3333333 0 0 1 -.125.01172 2.25 2.3333333 0 0 1 -.125.0039 2.25 2.3333333 0 0 1 -.03516-.002 2.25 2.3333333 0 0 1 -.125-.0039 2.25 2.3333333 0 0 1 -.125-.01367 2.25 2.3333333 0 0 1 -.123047-.01953 2.25 2.3333333 0 0 1 -.121094-.02734 2.25 2.3333333 0 0 1 -.121093-.0332 2.25 2.3333333 0 0 1 -.119141-.04101 2.25 2.3333333 0 0 1 -.115234-.04883 2.25 2.3333333 0 0 1 -.113282-.05469 2.25 2.3333333 0 0 1 -.111328-.06055 2.25 2.3333333 0 0 1 -.107422-.06641 2.25 2.3333333 0 0 1 -.101562-.07227 2.25 2.3333333 0 0 1 -.09961-.08008 2.25 2.3333333 0 0 1 -.0957-.08398 2.25 2.3333333 0 0 1 -.08984-.08984 2.25 2.3333333 0 0 1 -.08594-.09375 2.25 2.3333333 0 0 1 -.07813-.09961 2.25 2.3333333 0 0 1 -.07617-.105469 2.25 2.3333333 0 0 1 -.06836-.107422 2.25 2.3333333 0 0 1 -.0625-.111328 2.25 2.3333333 0 0 1 -.05664-.117187 2.25 2.3333333 0 0 1 -.05078-.117188 2.25 2.3333333 0 0 1 -.04492-.121094 2.25 2.3333333 0 0 1 -.03711-.125 2.25 2.3333333 0 0 1 -.03125-.125 2.25 2.3333333 0 0 1 -.02344-.126953 2.25 2.3333333 0 0 1 -.01758-.128906 2.25 2.3333333 0 0 1 -.0098-.128906 2.25 2.3333333 0 0 1 -.0039-.128906 2.25 2.3333333 0 0 1 0-.03711 2.25 2.3333333 0 0 1 .0059-.128906 2.25 2.3333333 0 0 1 .01172-.128906 2.25 2.3333333 0 0 1 .01953-.128907 2.25 2.3333333 0 0 1 .02539-.125 2.25 2.3333333 0 0 1 .0332-.125 2.25 2.3333333 0 0 1 .03906-.123047 2.25 2.3333333 0 0 1 .04687-.121093 2.25 2.3333333 0 0 1 .05273-.117188 2.25 2.3333333 0 0 1 .05859-.115234 2.25 2.3333333 0 0 1 .06445-.111328 2.25 2.3333333 0 0 1 .07031-.107422 2.25 2.3333333 0 0 1 .07617-.101563 2.25 2.3333333 0 0 1 .08008-.09961 2.25 2.3333333 0 0 1 .08789-.0918 2.25 2.3333333 0 0 1 .0918-.08984 2.25 2.3333333 0 0 1 .0957-.08203 2.25 2.3333333 0 0 1 .09961-.07813 2.25 2.3333333 0 0 1 .105468-.07031 2.25 2.3333333 0 0 1 .107422-.06641 2.25 2.3333333 0 0 1 .111328-.05859 2.25 2.3333333 0 0 1 .113282-.05274 2.25 2.3333333 0 0 1 .117187-.04492 2.25 2.3333333 0 0 1 .119141-.03906 2.25 2.3333333 0 0 1 .121094-.03125 2.25 2.3333333 0 0 1 .123046-.02539 2.25 2.3333333 0 0 1 .123047-.01758 2.25 2.3333333 0 0 1 .125-.01172 2.25 2.3333333 0 0 1 .125-.0039z" fill="#1e90ff"/></svg>