<svg height="32" viewBox="0 0 32 32" width="32" xmlns="http://www.w3.org/2000/svg"><path d="m10.750001 6c-4.847501 0-8.750001 4.46-8.750001 10 0 5.539999 3.9025 10 8.750001 10h3.5v-4h-3.5c-2.9085011 0-5.2500011-2.676-5.2500011-6 0-3.324001 2.3415001-6 5.2500011-6h3.5v-4zm7 0v4h3.499999c2.9085 0 5.250002 2.675999 5.250002 6 0 3.324-2.341502 6-5.250002 6h-3.499999v4h3.499999c4.8475 0 8.75-4.460001 8.75-10 0-5.54-3.9025-10-8.75-10zm-7 8v4h10.499999v-4z" fill="#4285f4" stroke-width="2.495199"/></svg>