<?xml version="1.0" encoding="UTF-8" standalone="no"?>
<svg
   xmlns:dc="http://purl.org/dc/elements/1.1/"
   xmlns:cc="http://creativecommons.org/ns#"
   xmlns:rdf="http://www.w3.org/1999/02/22-rdf-syntax-ns#"
   xmlns:svg="http://www.w3.org/2000/svg"
   xmlns="http://www.w3.org/2000/svg"
   xmlns:sodipodi="http://sodipodi.sourceforge.net/DTD/sodipodi-0.dtd"
   xmlns:inkscape="http://www.inkscape.org/namespaces/inkscape"
   viewBox="0 0 32 32"
   version="1.1"
   id="svg4"
   sodipodi:docname="insert-link.svg"
   inkscape:version="0.92.4 5da689c313, 2019-01-14"
   width="32"
   height="32">
  <metadata
     id="metadata10">
    <rdf:RDF>
      <cc:Work
         rdf:about="">
        <dc:format>image/svg+xml</dc:format>
        <dc:type
           rdf:resource="http://purl.org/dc/dcmitype/StillImage" />
        <dc:title />
      </cc:Work>
    </rdf:RDF>
  </metadata>
  <defs
     id="defs8" />
  <sodipodi:namedview
     pagecolor="#ffffff"
     bordercolor="#666666"
     borderopacity="1"
     objecttolerance="10"
     gridtolerance="10"
     guidetolerance="10"
     inkscape:pageopacity="0"
     inkscape:pageshadow="2"
     inkscape:window-width="1366"
     inkscape:window-height="703"
     id="namedview6"
     showgrid="false"
     inkscape:zoom="7.375"
     inkscape:cx="-9.1186436"
     inkscape:cy="13.423729"
     inkscape:window-x="0"
     inkscape:window-y="0"
     inkscape:window-maximized="1"
     inkscape:current-layer="svg4" />
  <path
     d="M 10.750001,6 C 5.9025,6 2,10.46 2,16 c 0,5.539999 3.9025,10 8.750001,10 h 3.5 v -4 h -3.5 c -2.9085011,0 -5.2500011,-2.676 -5.2500011,-6 0,-3.324001 2.3415001,-6 5.2500011,-6 h 3.5 V 6 Z m 7,0 v 4 H 21.25 c 2.9085,0 5.250002,2.675999 5.250002,6 0,3.324 -2.341502,6 -5.250002,6 h -3.499999 v 4 H 21.25 C 26.0975,26 30,21.539999 30,16 30,10.46 26.0975,6 21.25,6 Z m -7,8 v 4 H 21.25 v -4 z"
     id="path2"
     inkscape:connector-curvature="0"
     style="fill:#4285f4;fill-opacity:1;stroke-width:2.49519944"
     sodipodi:nodetypes="sssccsssccsccsssccssscccccc" />
</svg>
