<svg height="32" viewBox="0 0 32 32" width="32" xmlns="http://www.w3.org/2000/svg"><path d="m10.375001 4.5c-5.193751 0-9.375001 5.129-9.375001 11.5 0 6.370999 4.18125 11.5 9.375001 11.5h3.75v-4.6h-3.75c-3.1162511 0-5.6250011-3.0774-5.6250011-6.9 0-3.822601 2.5087501-6.9 5.6250011-6.9h3.75v-4.6zm7.5 0v4.6h3.749999c3.11625 0 5.625002 3.077399 5.625002 6.9 0 3.8226-2.508752 6.9-5.625002 6.9h-3.749999v4.6h3.749999c5.19375 0 9.375-5.129001 9.375-11.5 0-6.371-4.18125-11.5-9.375-11.5zm-7.5 9.2v4.6h11.249999v-4.6z" fill="#1e90ff" stroke-width="2.76972"/></svg>