<svg height="32" viewBox="0 0 32 32" width="32" xmlns="http://www.w3.org/2000/svg"><path d="m19.695319 28.503539c-.04883.491585.370145.92845.93117.972039l6.804001.520865c.561023.04391 1.060243-.32391 1.109756-.815182l.530974-5.22835-8.843902-.678363zm-16.7661969-4.550628.5316585 5.22835c.048829.491272.5487316.859091 1.1097561.815182l6.8040003-.520865c.559658-.04359.978975-.480454.93117-.972039l-.531658-5.228991zm-.8765366-8.616984.5483901 5.393489 8.8445854-.678043-.548049-5.387763c-.01264-.1295-.01946-.263772-.01946-.396135 0-2.474495 2.297707-4.4879452 5.12195-4.4879452 2.824244 0 5.121953 2.0137682 5.121953 4.4879452 0 .13237-.0068.266635-.01946.396453l-.54805 5.387445 8.844586.678043.548049-5.393489c.03482-.356363.05292-.713999.05292-1.068452 0-6.7648509-6.280537-12.2674754-14-12.2674754-7.7194633 0-14.0000002 5.5026245-14.0000002 12.2674754 0 .354453.018104.712089.052586 1.068452z" fill="#f25022"/></svg>