<svg height="32" viewBox="0 0 32 32" width="32" xmlns="http://www.w3.org/2000/svg"><path d="m14.77851 16.017963-9.7719546-9.5537119c-.675407-.6603266-.675407-1.7280868 0-2.3813907l1.6238893-1.5876139c.6754059-.6603266 1.7675688-.6603266 2.4357883 0l6.926579 6.7718933 6.9266-6.7718933c.675397-.6603266 1.767574-.6603266 2.435781 0l1.638243 1.5805722c.675418.6603456.675418 1.7281058 0 2.3814097l-9.771955 9.5537306c-.675404.667348-1.767549.667348-2.442971.0074zm2.442971 13.487621 9.771955-9.553731c.675418-.660327.675418-1.728087 0-2.381391l-1.623869-1.587612c-.675423-.660327-1.767566-.660327-2.435808 0l-6.933762 6.764886-6.9265762-6.771909c-.6754073-.660327-1.7675702-.660327-2.4358093 0l-1.6310561 1.587593c-.675407.660346-.675407 1.728106 0 2.38141l9.7719546 9.553714c.675422.667368 1.767567.667368 2.442971.0074z" fill="#4285f4" stroke-width=".071046"/></svg>