<svg height="32" viewBox="0 0 32 32" width="32" xmlns="http://www.w3.org/2000/svg"><path d="m14.778512 15.982037-9.7719573 9.553713c-.6754065.660327-.6754065 1.728087 0 2.381391l1.6238899 1.587614c.6754065.660326 1.7675699.660326 2.4357892 0l6.9265792-6.771893 6.926599 6.771893c.675407.660326 1.767568.660326 2.435788 0l1.638246-1.580573c.675405-.660345.675405-1.728105 0-2.381409l-9.771959-9.553732c-.675407-.667348-1.76755-.667348-2.442975-.0074zm2.442975-13.4876194 9.771959 9.5537304c.675405.660326.675405 1.728086 0 2.38139l-1.623872 1.587612c-.675424.660327-1.76757.660327-2.435809 0l-6.933766-6.764885-6.9265781 6.771908c-.6754064.660327-1.7675698.660327-2.4358089 0l-1.6310573-1.587593c-.6754065-.660346-.6754065-1.728106 0-2.38141l9.7719573-9.5537124c.675425-.6673682 1.767568-.6673682 2.442975-.00742z" fill="#4285f4" stroke-width=".071046"/></svg>