<svg height="32" viewBox="0 0 32 32" width="32" xmlns="http://www.w3.org/2000/svg"><path d="m14.672294 16.017963-10.6216909-9.5537123c-.7341381-.6603266-.7341381-1.7280868 0-2.3813907l1.7650971-1.5876139c.7341369-.6603266 1.9212705-.6603266 2.6475961 0l7.5288907 6.7718933 7.528914-6.7718933c.734127-.6603266 1.921276-.6603266 2.647588 0l1.780699 1.5805722c.73415.6603456.73415 1.7281058 0 2.3814097l-10.621691 9.553731c-.734135.667348-1.921249.667348-2.655403.0074zm2.655403 13.487621 10.621691-9.553731c.73415-.660327.73415-1.728087 0-2.381391l-1.765075-1.587612c-.734156-.660327-1.921268-.660327-2.647618 0l-7.536698 6.764886-7.5288879-6.771909c-.7341384-.660327-1.921272-.660327-2.6476189 0l-1.7728871 1.587593c-.7341381.660346-.7341381 1.728106 0 2.38141l10.6216909 9.553714c.734154.667368 1.921268.667368 2.655403.0074z" fill="#1e90ff" stroke-width=".07407"/></svg>