<?xml version="1.0" encoding="UTF-8" standalone="no"?>
<svg
   xmlns:dc="http://purl.org/dc/elements/1.1/"
   xmlns:cc="http://creativecommons.org/ns#"
   xmlns:rdf="http://www.w3.org/1999/02/22-rdf-syntax-ns#"
   xmlns:svg="http://www.w3.org/2000/svg"
   xmlns="http://www.w3.org/2000/svg"
   xmlns:sodipodi="http://sodipodi.sourceforge.net/DTD/sodipodi-0.dtd"
   xmlns:inkscape="http://www.inkscape.org/namespaces/inkscape"
   viewBox="0 0 32 32"
   version="1.1"
   id="svg6"
   sodipodi:docname="list-add.svg"
   inkscape:version="1.0.1 (3bc2e813f5, 2020-09-07)"
   width="32"
   height="32">
  <metadata
     id="metadata10">
    <rdf:RDF>
      <cc:Work
         rdf:about="">
        <dc:format>image/svg+xml</dc:format>
        <dc:type
           rdf:resource="http://purl.org/dc/dcmitype/StillImage" />
        <dc:title />
      </cc:Work>
    </rdf:RDF>
  </metadata>
  <sodipodi:namedview
     pagecolor="#ffffff"
     bordercolor="#666666"
     borderopacity="1"
     objecttolerance="10"
     gridtolerance="10"
     guidetolerance="10"
     inkscape:pageopacity="0"
     inkscape:pageshadow="2"
     inkscape:window-width="1366"
     inkscape:window-height="702"
     id="namedview8"
     showgrid="false"
     inkscape:zoom="10.727273"
     inkscape:cx="-12.258474"
     inkscape:cy="23.423433"
     inkscape:window-x="0"
     inkscape:window-y="0"
     inkscape:window-maximized="1"
     inkscape:current-layer="svg6"
     inkscape:document-rotation="0" />
  <defs
     id="defs3051">
    <style
       type="text/css"
       id="current-color-scheme">
     .ColorScheme-Text {
       color:#f2f2f2;
     }
     </style>
  </defs>
  <path
     inkscape:connector-curvature="0"
     style="color:#f2f2f2;fill:#b767ff;fill-opacity:1;stroke:none;stroke-width:1.56249988"
     d="m 13.916664,3.5 c -0.384762,0 -0.694443,0.3096875 -0.694443,0.6944437 V 13.222221 H 4.1944437 C 3.8097234,13.222221 3.5,13.53194 3.5,13.91667 v 4.166664 c 0,0.384723 0.309725,0.694443 0.6944437,0.694443 h 9.0277773 v 9.027779 c 0,0.384763 0.309687,0.694444 0.694443,0.694444 h 4.166667 c 0.384765,0 0.694446,-0.309688 0.694446,-0.694444 v -9.027779 h 9.027779 c 0.38472,0 0.694444,-0.309718 0.694444,-0.694443 V 13.91667 c 0,-0.384725 -0.309719,-0.694449 -0.694444,-0.694449 H 18.777777 V 4.1944437 C 18.777777,3.8096812 18.468089,3.5 18.083331,3.5 Z"
     class="ColorScheme-Text"
     id="path4" />
</svg>
