<svg height="24px" width="24px" id="Camada_1" data-name="Camada 1" xmlns="http://www.w3.org/2000/svg" viewBox="0 0 24 24"><defs><style>.cls-1{fill:#b5b5b5;}.cls-2{fill:#fff;}.cls-3{fill:#53c23d;}</style></defs><rect class="cls-1" x="4" y="2" width="16" height="20" rx="1.1098"/><rect class="cls-2" x="5" y="3" width="14" height="18" rx="0.9848"/><path class="cls-3" d="M22.397,6H20V3.603A.6029.6029,0,0,0,19.397,3H17.603A.6029.6029,0,0,0,17,3.603V6H14.603A.6029.6029,0,0,0,14,6.603V8.397A.603.603,0,0,0,14.603,9H17v2.397a.603.603,0,0,0,.603.603h1.794A.603.603,0,0,0,20,11.397V9h2.397A.603.603,0,0,0,23,8.397V6.603A.6029.6029,0,0,0,22.397,6Z"/></svg>