<svg height="32" viewBox="0 0 32 32" width="32" xmlns="http://www.w3.org/2000/svg"><path d="m13.916664 3.5c-.384762 0-.694443.3096875-.694443.6944437v9.0277773h-9.0277773c-.3847203 0-.6944437.309719-.6944437.694449v4.166664c0 .384723.309725.694443.6944437.694443h9.0277773v9.027779c0 .384763.309687.694444.694443.694444h4.166667c.384765 0 .694446-.309688.694446-.694444v-9.027779h9.027779c.38472 0 .694444-.309718.694444-.694443v-4.166664c0-.384725-.309719-.694449-.694444-.694449h-9.027779v-9.0277773c0-.3847625-.309688-.6944437-.694446-.6944437z" fill="#4285f4"/></svg>