<?xml version="1.0" encoding="UTF-8" standalone="no"?>
<svg
   xmlns:dc="http://purl.org/dc/elements/1.1/"
   xmlns:cc="http://creativecommons.org/ns#"
   xmlns:rdf="http://www.w3.org/1999/02/22-rdf-syntax-ns#"
   xmlns:svg="http://www.w3.org/2000/svg"
   xmlns="http://www.w3.org/2000/svg"
   xmlns:sodipodi="http://sodipodi.sourceforge.net/DTD/sodipodi-0.dtd"
   xmlns:inkscape="http://www.inkscape.org/namespaces/inkscape"
   viewBox="0 0 32 32"
   version="1.1"
   id="svg6"
   sodipodi:docname="mail-folder-inbox.svg"
   inkscape:version="1.0.1 (3bc2e813f5, 2020-09-07)"
   width="32"
   height="32">
  <metadata
     id="metadata10">
    <rdf:RDF>
      <cc:Work
         rdf:about="">
        <dc:format>image/svg+xml</dc:format>
        <dc:type
           rdf:resource="http://purl.org/dc/dcmitype/StillImage" />
        <dc:title />
      </cc:Work>
    </rdf:RDF>
  </metadata>
  <sodipodi:namedview
     pagecolor="#ffffff"
     bordercolor="#666666"
     borderopacity="1"
     objecttolerance="10"
     gridtolerance="10"
     guidetolerance="10"
     inkscape:pageopacity="0"
     inkscape:pageshadow="2"
     inkscape:window-width="1366"
     inkscape:window-height="702"
     id="namedview8"
     showgrid="false"
     inkscape:zoom="7.375"
     inkscape:cx="-4.1355929"
     inkscape:cy="8"
     inkscape:window-x="0"
     inkscape:window-y="0"
     inkscape:window-maximized="1"
     inkscape:current-layer="svg6"
     showguides="false"
     inkscape:document-rotation="0" />
  <defs
     id="defs3051">
    <style
       type="text/css"
       id="current-color-scheme">
      .ColorScheme-Text {
        color:#f2f2f2;
      }
      </style>
  </defs>
  <g
     id="g19">
    <path
       id="path4-3-3"
       style="color:#f2f2f2;fill:#4285f4;fill-opacity:1;stroke:none;stroke-width:1.76383"
       d="m 15.855511,15.565069 c -0.651286,0 -1.212709,0.230781 -1.681641,0.691406 -0.455904,0.460626 -0.683594,1.072619 -0.683594,1.835938 1e-6,0.76332 0.22769,1.375312 0.683594,1.835937 0.468932,0.460625 1.030355,0.689455 1.681641,0.689455 0.651294,-2e-6 1.204253,-0.22883 1.660156,-0.689455 0.468923,-0.460625 0.703125,-1.072617 0.703125,-1.835937 0,-0.763319 -0.234202,-1.375312 -0.703125,-1.835938 -0.455903,-0.460625 -1.008862,-0.691406 -1.660156,-0.691406 z" />
    <path
       id="path12"
       style="color:#f2f2f2;fill:#4285f4;fill-opacity:1;stroke:none;stroke-width:1.76383"
       d="m 2.777344,1.9999998 c -0.430889,0 -0.777344,0.446 -0.777344,1 v 3.921875 2.078125 20.0781252 C 2,29.589525 2.319054,30 2.716797,30 H 29.283203 C 29.680946,30 30,29.589526 30,29.078125 V 6.9218748 c 0,-0.5114 -0.319054,-0.921875 -0.716797,-0.921875 H 16.556641 c -0.886457,0.034 -1.316068,-0.264328 -1.707032,-0.736328 L 13,2.8437498 c -0.261411,-0.4404 -0.457783,-0.84375 -0.888672,-0.84375 z m 13.261718,8.3613282 c 1.068113,0 2.052286,0.186596 2.951172,0.558594 0.898887,0.371998 1.711956,0.928293 2.441407,1.671875 0.729442,0.743581 1.276053,1.56468 1.640625,2.462891 0.364571,0.89821 0.546875,1.874877 0.546875,2.927734 0,1.18447 -0.251755,2.162969 -0.759766,2.939453 -0.247487,0.388241 -0.552149,0.678886 -0.914063,0.873047 -0.361913,0.194161 -0.780417,0.291016 -1.255859,0.291016 -0.488465,0 -0.914725,-0.119412 -1.279297,-0.359376 -0.364571,-0.239963 -0.667226,-0.599709 -0.908203,-1.080078 -0.319133,0.480369 -0.706395,0.840115 -1.162109,1.080078 -0.455715,0.239964 -0.981547,0.359376 -1.574219,0.359376 -0.534059,0 -1.025167,-0.09196 -1.474609,-0.279297 -0.449443,-0.187343 -0.855981,-0.468669 -1.220704,-0.84375 C 12.705591,20.581231 12.432287,20.14764 12.25,19.664062 12.067713,19.180485 11.976562,18.6462 11.976562,18.060547 c 0,-0.579071 0.09115,-1.109435 0.273438,-1.589844 0.182287,-0.480408 0.455592,-0.911305 0.820312,-1.292969 0.364723,-0.38166 0.76475,-0.668382 1.201172,-0.859375 0.436423,-0.190992 0.908011,-0.285156 1.416016,-0.285156 0.501495,0 0.962254,0.09685 1.378906,0.291016 0.416652,0.194161 0.79089,0.484806 1.123047,0.873047 h 0.07813 v -0.886719 h 1.40625 v 5.152344 c 0,0.342176 0.09108,0.65136 0.273438,0.927734 0.195386,0.276368 0.488132,0.414063 0.878906,0.414063 0.462416,0 0.809784,-0.234656 1.041016,-0.705079 0.231231,-0.470422 0.345703,-1.176194 0.345703,-2.117187 0,-0.868605 -0.149749,-1.670287 -0.449219,-2.404297 -0.29947,-0.73401 -0.748469,-1.401188 -1.347656,-2 -0.599187,-0.598813 -1.262567,-1.048253 -1.992188,-1.347656 -0.729621,-0.299404 -1.525067,-0.449219 -2.384766,-0.449219 -0.859702,0 -1.653669,0.149815 -2.382812,0.449219 -0.729143,0.299403 -1.393,0.748843 -1.992188,1.347656 -0.599183,0.598813 -1.049662,1.26599 -1.349609,2 -0.299947,0.73401 -0.449219,1.535692 -0.449219,2.404297 0,0.868608 0.149272,1.668815 0.449219,2.402344 0.299947,0.733528 0.750426,1.399234 1.349609,1.998046 0.599189,0.598814 1.263045,1.048253 1.992188,1.347657 0.729143,0.299403 1.52311,0.449219 2.382812,0.449219 0.924828,0 1.751023,-0.184239 2.480469,-0.552735 l 0.548828,1.341797 c -0.911805,0.42115 -1.922108,0.632812 -3.029297,0.632812 -1.081139,0 -2.076081,-0.184386 -2.984374,-0.552734 C 12.146399,24.68048 11.323853,24.127629 10.587896,23.390625 9.851939,22.647044 9.29983,21.825207 8.931646,20.923828 8.563462,20.02245 8.380864,19.04186 8.380864,17.982422 c 0,-1.052857 0.182598,-2.029524 0.550782,-2.927734 0.368184,-0.898211 0.920293,-1.71931 1.65625,-2.462891 0.742467,-0.743582 1.568269,-1.299877 2.476562,-1.671875 0.908294,-0.371998 1.89998,-0.558594 2.974609,-0.558594 z" />
  </g>
</svg>
