<svg height="32" viewBox="0 0 32 32" width="32" xmlns="http://www.w3.org/2000/svg"><g fill="#4285f4"><path d="m15.855511 15.565069c-.651286 0-1.212709.230781-1.681641.691406-.455904.460626-.683594 1.072619-.683594 1.835938.000001.76332.22769 1.375312.683594 1.835937.468932.460625 1.030355.689455 1.681641.689455.651294-.000002 1.204253-.22883 1.660156-.689455.468923-.460625.703125-1.072617.703125-1.835937 0-.763319-.234202-1.375312-.703125-1.835938-.455903-.460625-1.008862-.691406-1.660156-.691406z"/><path d="m2.777344 1.9999998c-.430889 0-.777344.446-.777344 1v3.921875 2.078125 20.0781252c0 .5114.319054.921875.716797.921875h26.566406c.397743 0 .716797-.410474.716797-.921875v-22.1562502c0-.5114-.319054-.921875-.716797-.921875h-12.726562c-.886457.034-1.316068-.264328-1.707032-.736328l-1.849609-2.419922c-.261411-.4404-.457783-.84375-.888672-.84375zm13.261718 8.3613282c1.068113 0 2.052286.186596 2.951172.558594.898887.371998 1.711956.928293 2.441407 1.671875.729442.743581 1.276053 1.56468 1.640625 2.462891.364571.89821.546875 1.874877.546875 2.927734 0 1.18447-.251755 2.162969-.759766 2.939453-.247487.388241-.552149.678886-.914063.873047-.361913.194161-.780417.291016-1.255859.291016-.488465 0-.914725-.119412-1.279297-.359376-.364571-.239963-.667226-.599709-.908203-1.080078-.319133.480369-.706395.840115-1.162109 1.080078-.455715.239964-.981547.359376-1.574219.359376-.534059 0-1.025167-.09196-1.474609-.279297-.449443-.187343-.855981-.468669-1.220704-.84375-.364721-.38166-.638025-.815251-.820312-1.298829-.182287-.483577-.273438-1.017862-.273438-1.603515 0-.579071.09115-1.109435.273438-1.589844.182287-.480408.455592-.911305.820312-1.292969.364723-.38166.76475-.668382 1.201172-.859375.436423-.190992.908011-.285156 1.416016-.285156.501495 0 .962254.09685 1.378906.291016.416652.194161.79089.484806 1.123047.873047h.07813v-.886719h1.40625v5.152344c0 .342176.09108.65136.273438.927734.195386.276368.488132.414063.878906.414063.462416 0 .809784-.234656 1.041016-.705079.231231-.470422.345703-1.176194.345703-2.117187 0-.868605-.149749-1.670287-.449219-2.404297s-.748469-1.401188-1.347656-2c-.599187-.598813-1.262567-1.048253-1.992188-1.347656-.729621-.299404-1.525067-.449219-2.384766-.449219-.859702 0-1.653669.149815-2.382812.449219-.729143.299403-1.393.748843-1.992188 1.347656-.599183.598813-1.049662 1.26599-1.349609 2s-.449219 1.535692-.449219 2.404297c0 .868608.149272 1.668815.449219 2.402344.299947.733528.750426 1.399234 1.349609 1.998046.599189.598814 1.263045 1.048253 1.992188 1.347657.729143.299403 1.52311.449219 2.382812.449219.924828 0 1.751023-.184239 2.480469-.552735l.548828 1.341797c-.911805.42115-1.922108.632812-3.029297.632812-1.081139 0-2.076081-.184386-2.984374-.552734-.908294-.368348-1.73084-.921199-2.466797-1.658203-.735957-.743581-1.288066-1.565418-1.65625-2.466797-.368184-.901378-.550782-1.881968-.550782-2.941406 0-1.052857.182598-2.029524.550782-2.927734.368184-.898211.920293-1.71931 1.65625-2.462891.742467-.743582 1.568269-1.299877 2.476562-1.671875.908294-.371998 1.89998-.558594 2.974609-.558594z"/></g></svg>