<svg viewBox="0 0 32 32" xmlns="http://www.w3.org/2000/svg"><path d="m2.777778 2.0000001c-.430889 0-.777778.446-.777778 1v3.9218 2.0782 20.0781989c0 .5114.319271.921801.717014.921801h26.565971c.397743 0 .717015-.4104.717015-.921801v-22.156399c0-.5114-.319272-.9218-.717015-.9218h-12.726246c-.886457.034-1.31646-.2642-1.707424-.7362001l-1.848624-2.4199998c-.261411-.4404-.458691-.8438001-.88958-.8438001z" fill="#4285f4"/><path d="m22.306156 11.762712c-.309736 0-.57436.0942-.791022.28289l-7.617915 6.636511-3.41235-2.979931c-.216799-.1886-.481433-.28289-.7910225-.28289-.3097345 0-.5720172.0943-.7888164.28289l-1.5798375 1.374331c-.2167987.188589-.3251924.41676-.3251924.686199 0 .26932.1083372.49773.3251924.6862l4.2033724 3.65849 1.579837 1.37242c.216654.188599.479081.28289.788817.28289.309588 0 .574211-.0944.791009-.28289l1.579837-1.37242 8.406744-7.31507c.216653-.18859.325191-.416759.325191-.6862.000146-.26932-.108564-.49952-.325191-.68811l-1.579838-1.37242c-.216653-.1886-.479228-.28289-.788815-.28289z" fill="#fff" stroke-width="1.06066"/></svg>