<svg height="32" viewBox="0 0 32 32" width="32" xmlns="http://www.w3.org/2000/svg"><path d="m2.7777779 2.0000002c-.430889 0-.777778.4459999-.777778.9999999v3.9217999 2.0782 20.078199c0 .5114.319271.921801.717014.921801h26.5659711c.397743 0 .717015-.4104.717015-.921801v-22.156399c0-.5114-.319272-.9218-.717015-.9218h-12.726246c-.886457.034-1.31646-.2642-1.707424-.7362l-1.848624-2.4199998c-.261411-.4404-.458691-.8438-.88958-.8438z" fill="#4285f4"/><path d="m16.030768 11.491525c-1.692354 0-3.122356.586159-4.291613 1.75717-1.159004 1.171011-1.739153 2.585523-1.739153 4.243588 0 1.668431.580149 3.087738 1.739153 4.258749 1.159005 1.160652 2.589006 1.740493 4.291613 1.740493.871814 0 1.667931-.165665 2.385898-.497284l-.432162-1.056727c-.574375.290158-1.225515.435123-1.953736.435123-1.353881 0-2.501677-.471504-3.445295-1.41453-.94361-.943025-1.416533-2.097917-1.416533-3.465824 0-1.367901.472923-2.524315 1.416533-3.46734.943616-.943026 2.091413-1.41453 3.445295-1.41453 1.353876 0 2.503181.471504 3.446796 1.41453.943615.943025 1.415033 2.099439 1.415033 3.46734 0 1.4819-.364186 2.222616-1.092411 2.222616-.3077 0-.537913-.108348-.691762-.325964-.143594-.21762-.21608-.46133-.21608-.730764v-4.057108h-1.107417v.698927h-.06154c-.523089-.611412-1.178969-.917246-1.968736-.917246-.80002 0-1.487402.301037-2.061776.902085-.574372.601053-.861325 1.357678-.861325 2.269614 0 .922302.286953 1.683728.861325 2.284776.574374.590688 1.282248.885408 2.123299.885408.933355 0 1.65073-.377554 2.153309-1.13405.379497.756496.953398 1.13405 1.722646 1.13405.748738 0 1.319395-.305834 1.709143-.917246.400014-.611413.598726-1.382431.598726-2.315098 0-1.658065-.573901-3.072577-1.722646-4.243588-1.148755-1.171011-2.564508-1.75717-4.246599-1.75717zm-.106536 4.072268c.512837 0 .948007.181581 1.306991.544283.369236.362703.553709.84532.553709 1.446367 0 .601048-.184473 1.08215-.553709 1.444852-.358984.362702-.794154.544283-1.306991.544283-.512831 0-.954255-.181581-1.323498-.544283-.358984-.362702-.538702-.843804-.538702-1.444852 0-.601047.179718-1.083664.538702-1.446367.369243-.362702.810667-.544283 1.323498-.544283z" fill="#fff"/></svg>