<svg xmlns="http://www.w3.org/2000/svg" viewBox="0 0 32 32">
  <path fill="#427337" d="M31 19.3c0 .3-.1.5-.3.6l-6.8 6.8-1.2 1.3c-.2.2-.4.3-.6.3-.3 0-.5-.1-.6-.3l-1.3-1.3-3.4-3.4c-.2-.2-.3-.4-.3-.7 0-.3.1-.5.3-.6l1.3-1.3c.2-.2.4-.3.6-.3.3 0 .5.1.6.3l2.8 2.8 6.1-6.1c.2-.2.4-.3.6-.3.3 0 .5.1.6.3l1.3 1.3c.2.1.3.3.3.6z"/>
  <path fill="#375273" d="M16.1 24c-.3-.3-.5-.6-.6-1H5.7c-.1 0-.2 0-.3-.1-.1-.1-.1-.2-.1-.3V11.9c.3.3.6.6 1 .9 2.5 1.9 4.5 3.5 5.9 4.7.5.4.9.7 1.2.9.3.2.7.4 1.2.7.5.2 1 .3 1.4.3.4 0 .9-.1 1.4-.3s.9-.5 1.2-.7c.3-.2.7-.5 1.2-.9 1.5-1.2 3.5-2.8 5.9-4.7.3-.3.7-.6 1-.9v5.5l.7-.7c.3-.3.7-.5 1.1-.5V7.4c0-.6-.2-1.1-.7-1.6-.4-.4-1-.7-1.6-.7H5.7c-.6 0-1.1.2-1.6.7-.4.4-.7 1-.7 1.6v15.2c0 .6.2 1.1.7 1.6.4.4 1 .7 1.6.7h11.1l-.7-.9zM5.4 7.1c.1-.1.2-.1.3-.1h20.7c.1 0 .1.1.1.1l.1.1V8c0 .5-.2 1.2-.6 1.8-.4.7-.9 1.2-1.4 1.6-1.8 1.4-3.7 2.9-5.6 4.4-.1 0-.2.2-.5.4s-.5.4-.6.5c-.2.1-.4.3-.6.4-.3.2-.5.3-.7.4-.2.1-.4.1-.6.1-.2 0-.4 0-.6-.1-.2-.1-.4-.2-.7-.4-.3-.2-.5-.3-.6-.4-.2-.1-.4-.3-.6-.5-.3-.2-.4-.4-.5-.4-1.9-1.5-3.8-3-5.6-4.4C6 10.3 5.3 9 5.3 7.4c0-.1 0-.2.1-.3z"/>
</svg>
