<svg viewBox="0 0 32 32" xmlns="http://www.w3.org/2000/svg"><path d="m2.7773441 1.9999998c-.4308891 0-.777344.4460001-.777344 1.0000001v3.9218749 2.0781251 20.0781251c0 .5114.319054.921875.716797.921875h26.5664059c.397743 0 .716797-.410474.716797-.921875v-22.1562502c0-.5114-.319054-.921875-.716797-.921875h-12.726562c-.886457.034-1.316068-.264328-1.707032-.736328l-1.849609-2.4199219c-.261411-.4404-.457783-.8437501-.888672-.8437501zm19.5292969 9.7636722c.309587 0 .572409.09265.789062.28125l1.580078 1.373047c.216627.18859.324365.41818.324219.6875 0 .269441-.107566.49891-.324219.6875l-8.408203 7.314453-1.580078 1.373047c-.216798.18849-.481428.283203-.791016.283203-.309736 0-.570455-.0946-.787109-.283203l-1.580078-1.373047-4.205078-3.658203c-.216855-.18847-.324219-.416227-.324219-.685547 0-.269439.10742-.498911.324219-.6875l1.580078-1.373047c.216799-.18859.479328-.283203.789062-.283203.30959 0 .574217.0946.791016.283203l3.412109 2.978516 7.619141-6.636719c.216662-.18869.48128-.28125.791016-.28125z" fill="#4285f4"/></svg>