<svg height="32" viewBox="0 0 32 32" width="32" xmlns="http://www.w3.org/2000/svg"><path d="m13.322662 4.5c-.44648 0-.826845.1387885-1.139361.4183349-.312514.2793628-.467671.6197868-.467671 1.0191651v4.792603c0 .399378.155156.736811.467671 1.016357.31231.279547.692881.421143 1.139361.421143h1.60703v2.874999h-8.5718767c-.580443 0-1.0825085.187793-1.5065914.56714-.4240829.37916-.6371626.828629-.6371626 1.347656v2.875h-1.6070307c-.4462733 0-.8237063.14178-1.1362209.421141-.3125147.279364-.4708099.61698-.4708099 1.016359v4.792602c0 .399378.1582957.739802.4708099 1.019164.3125146.279547.6899476.418336 1.1362209.418336h5.3578155c.4462732 0 .8268451-.138972 1.1393597-.418336.3125144-.279362.4676714-.619786.4676714-1.019164v-4.792602c0-.399379-.155157-.736812-.4676714-1.016359-.3125146-.279546-.6930865-.421141-1.1393597-.421141h-1.6070308v-2.875h8.5718767v2.875h-1.60703c-.44648 0-.826845.141781-1.139361.421141-.312514.279364-.467671.61698-.467671 1.016359v4.792602c0 .399378.155156.739802.467671 1.019164.31231.279547.692881.418336 1.139361.418336h5.354677c.446684 0 .826844-.138978 1.139358-.418336.31231-.279546.467672-.619786.467672-1.019164v-4.792602c0-.399379-.155159-.736812-.467672-1.016359-.312514-.279546-.692674-.421141-1.139358-.421141h-1.607031v-2.875h8.571876v2.875h-1.60703c-.446275 0-.826845.14178-1.13936.421141-.31231.279547-.467671.61698-.467671 1.016359v4.792602c0 .399378.155367.739802.467671 1.019164.312515.279547.693085.418336 1.13936.418336h5.357814c.446275 0 .823708-.138978 1.136222-.418336.312515-.279362.47081-.619786.47081-1.019164v-4.792602c0-.399379-.155561-.736995-.46767-1.016359-.312516-.279546-.692676-.421141-1.139362-.421141h-1.60703v-2.875c0-.519027-.213285-.968495-.637163-1.347656-.424082-.379529-.926352-.56714-1.506591-.56714h-8.571876v-2.874999h1.607031c.446684 0 .82705-.141597 1.139358-.421143.312516-.279362.467672-.616979.467672-1.016357v-4.792603c0-.3993783-.155367-.7398023-.467672-1.0191651-.312514-.2795464-.692674-.4183349-1.139358-.4183349z" fill="#1e90ff"/></svg>