<svg height="32" viewBox="0 0 32 32" width="32" xmlns="http://www.w3.org/2000/svg"><g fill="#4285f4" transform="matrix(.99999998 0 0 2.5 1.409092 -44)"><path d="m3.6363631 18a.54545455.54545455 0 0 0 -.5454545.545454v2.181819a.54545455.54545455 0 0 0 .5454545.545454h8.7272729a.54545455.54545455 0 0 0 .545455-.545454v-2.181819a.54545455.54545455 0 0 0 -.545455-.545454zm.5454546 1.090909h1.0909091v1.090909h-1.0909091zm2.1818182 0h.5454545v1.090909h-.5454545zm-2.7272728 3.272727a.54545455.54545455 0 0 0 -.5454545.545455v2.181818a.54545455.54545455 0 0 0 .5454545.545455h8.7272729a.54545455.54545455 0 0 0 .545455-.545455v-2.181818a.54545455.54545455 0 0 0 -.545455-.545455zm.5454546 1.090909h1.0909091v1.09091h-1.0909091zm2.1818182 0h.5454545v1.09091h-.5454545zm-2.7272728 3.272728a.54545455.54545455 0 0 0 -.5454545.545454v2.181818a.54545455.54545455 0 0 0 .5454545.545455h8.7272729a.54545455.54545455 0 0 0 .545455-.545455v-2.181818a.54545455.54545455 0 0 0 -.545455-.545454zm.5454546 1.090909h1.0909091v1.090909h-1.0909091zm2.1818182 0h.5454545v1.090909h-.5454545z"/><path d="m4.3686862 18a1.2777777.54545455 0 0 0 -1.2777776.545454v2.181819a1.2777777.54545455 0 0 0 1.2777776.545454h20.4444438a1.2777777.54545455 0 0 0 1.277779-.545454v-2.181819a1.2777777.54545455 0 0 0 -1.277779-.545454zm1.2777778 1.090909h2.5555555v1.090909h-2.5555555zm5.111111 0h1.277777v1.090909h-1.277777zm-6.3888888 3.272727a1.2777777.54545455 0 0 0 -1.2777776.545455v2.181818a1.2777777.54545455 0 0 0 1.2777776.545455h20.4444438a1.2777777.54545455 0 0 0 1.277779-.545455v-2.181818a1.2777777.54545455 0 0 0 -1.277779-.545455zm1.2777778 1.090909h2.5555555v1.09091h-2.5555555zm5.111111 0h1.277777v1.09091h-1.277777zm-6.3888888 3.272728a1.2777777.54545455 0 0 0 -1.2777776.545454v2.181818a1.2777777.54545455 0 0 0 1.2777776.545455h20.4444438a1.2777777.54545455 0 0 0 1.277779-.545455v-2.181818a1.2777777.54545455 0 0 0 -1.277779-.545454zm1.2777778 1.090909h2.5555555v1.090909h-2.5555555zm5.111111 0h1.277777v1.090909h-1.277777z"/></g></svg>