<svg width="16px" height="16px" id="Camada_3" data-name="Camada 3" xmlns="http://www.w3.org/2000/svg" xmlns:xlink="http://www.w3.org/1999/xlink" viewBox="0 0 16 16"><defs><style>.cls-1{fill:url(#Gradiente_sem_nome_52);}.cls-2{fill:url(#Gradiente_sem_nome_24);}.cls-3{fill:url(#Gradiente_sem_nome_6);}.cls-4{fill:url(#Gradiente_sem_nome_18);}.cls-5{fill:url(#Gradiente_sem_nome_7);}.cls-6{fill:url(#Gradiente_sem_nome_58);}</style><linearGradient id="Gradiente_sem_nome_52" x1="5.4688" y1="2.1159" x2="10.5312" y2="10.8841" gradientUnits="userSpaceOnUse"><stop offset="0" stop-color="#e6e6e6"/><stop offset="1" stop-color="#adadad"/></linearGradient><linearGradient id="Gradiente_sem_nome_24" x1="8" y1="11" x2="8" y2="13" gradientUnits="userSpaceOnUse"><stop offset="0" stop-color="#f3f3f3"/><stop offset="1" stop-color="#bfbfbf"/></linearGradient><linearGradient id="Gradiente_sem_nome_6" x1="6.0725" y1="3.1614" x2="9.9275" y2="9.8386" gradientUnits="userSpaceOnUse"><stop offset="0" stop-color="#333"/><stop offset="1" stop-color="#2e2e2e"/></linearGradient><linearGradient id="Gradiente_sem_nome_18" x1="6.1825" y1="8.852" x2="9.8175" y2="15.148" gradientUnits="userSpaceOnUse"><stop offset="0" stop-color="#66ec6e"/><stop offset="1" stop-color="#0e8845"/></linearGradient><linearGradient id="Gradiente_sem_nome_7" x1="8.25" y1="4.0669" x2="8.75" y2="4.9331" gradientUnits="userSpaceOnUse"><stop offset="0" stop-color="#8dff8d"/><stop offset="1" stop-color="#12ff12"/></linearGradient><linearGradient id="Gradiente_sem_nome_58" x1="7.1178" y1="7.3546" x2="8.9252" y2="10.4851" gradientUnits="userSpaceOnUse"><stop offset="0" stop-color="#242424"/><stop offset="1" stop-color="#1f1f1f"/></linearGradient></defs><rect class="cls-1" x="5" y="2" width="6" height="9" rx="0.9151"/><rect class="cls-2" x="1" y="11" width="14" height="2" rx="0.8113"/><rect class="cls-3" x="6" y="3" width="4" height="7" rx="0.4811"/><rect class="cls-4" x="3" y="10" width="10" height="4" rx="1.6321"/><rect class="cls-5" x="8" y="4" width="1" height="1" rx="0.5"/><path class="cls-6" d="M6,8h4a0,0,0,0,1,0,0V9.6792A.3208.3208,0,0,1,9.6792,10H6.3208A.3208.3208,0,0,1,6,9.6792V8A0,0,0,0,1,6,8Z"/></svg>