<svg height="32" viewBox="0 0 32 32" width="32" xmlns="http://www.w3.org/2000/svg"><g transform="matrix(.98221576 0 0 .9822174 .284548 .284522)"><g stroke-linecap="round" stroke-linejoin="round" stroke-width="1.79"><path d="m18.094698 24.110443 5.074946-4.801113m-11.533969 1.309395 3.69087 3.491718m-12.4566869 2.182324 5.9976637-5.674042" fill="none" stroke="#4285f4"/><path d="m25.937797 17.999936a1.3840764 1.3093944 0 0 1 -1.384076 1.309394 1.3840764 1.3093944 0 0 1 -1.384077-1.309394 1.3840764 1.3093944 0 0 1 1.384077-1.309395 1.3840764 1.3093944 0 0 1 1.384076 1.309395z" fill="#0fbb58" stroke="#0fbb58"/><path d="m18.094698 25.419837a1.3840764 1.3093944 0 0 1 -1.384076 1.309395 1.3840764 1.3093944 0 0 1 -1.384077-1.309395 1.3840764 1.3093944 0 0 1 1.384077-1.309394 1.3840764 1.3093944 0 0 1 1.384076 1.309394z" fill="#f25022" stroke="#f25022"/><path d="m11.635675 19.30933a1.3840764 1.3093944 0 0 1 -1.384077 1.309395 1.3840764 1.3093944 0 0 1 -1.3840762-1.309395 1.3840764 1.3093944 0 0 1 1.3840762-1.309394 1.3840764 1.3093944 0 0 1 1.384077 1.309394z" fill="#0fbb58" stroke="#0fbb58"/><path d="m18.195472 11.993752 5.074946-4.8011131m-11.533969 1.3093945 3.69087 3.4917186m-12.4566871 2.182324 5.9976637-5.6740426" fill="none" stroke="#4285f4"/><path d="m26.038571 5.8832445a1.3840764 1.3093944 0 0 1 -1.384076 1.3093944 1.3840764 1.3093944 0 0 1 -1.384077-1.3093944 1.3840764 1.3093944 0 0 1 1.384077-1.3093945 1.3840764 1.3093944 0 0 1 1.384076 1.3093945z" fill="#0fbb58" stroke="#0fbb58"/><path d="m18.195472 13.303146a1.3840764 1.3093944 0 0 1 -1.384076 1.309395 1.3840764 1.3093944 0 0 1 -1.384077-1.309395 1.3840764 1.3093944 0 0 1 1.384077-1.309394 1.3840764 1.3093944 0 0 1 1.384076 1.309394z" fill="#f25022" stroke="#f25022"/><path d="m11.736449 7.1926389a1.3840764 1.3093944 0 0 1 -1.384077 1.3093945 1.3840764 1.3093944 0 0 1 -1.3840764-1.3093945 1.3840764 1.3093944 0 0 1 1.3840764-1.3093944 1.3840764 1.3093944 0 0 1 1.384077 1.3093944z" fill="#0fbb58" stroke="#0fbb58"/></g><g fill-opacity=".686275" stroke="#4285f4" stroke-opacity=".929412" stroke-width="1.451"><path d="m2.472076 2.471846h.198727v27.056307h-.198727z"/><path d="m-29.528152-29.527924h.198731v27.055847h-.198731z" transform="matrix(0 -1 -1 0 0 0)"/></g></g></svg>