<?xml version="1.0" encoding="UTF-8" standalone="no"?>
<svg
   height="32"
   viewBox="0 0 32 32"
   width="32"
   version="1.1"
   id="svg28"
   sodipodi:docname="office-chart-line.svg"
   inkscape:version="1.1.1 (3bf5ae0d25, 2021-09-20, custom)"
   xmlns:inkscape="http://www.inkscape.org/namespaces/inkscape"
   xmlns:sodipodi="http://sodipodi.sourceforge.net/DTD/sodipodi-0.dtd"
   xmlns="http://www.w3.org/2000/svg"
   xmlns:svg="http://www.w3.org/2000/svg">
  <defs
     id="defs32" />
  <sodipodi:namedview
     id="namedview30"
     pagecolor="#ffffff"
     bordercolor="#666666"
     borderopacity="1.0"
     inkscape:pageshadow="2"
     inkscape:pageopacity="0.0"
     inkscape:pagecheckerboard="0"
     showgrid="false"
     inkscape:zoom="16.90625"
     inkscape:cx="16"
     inkscape:cy="16.029575"
     inkscape:window-width="1366"
     inkscape:window-height="705"
     inkscape:window-x="0"
     inkscape:window-y="0"
     inkscape:window-maximized="1"
     inkscape:current-layer="svg28" />
  <g
     transform="matrix(0.98221576,0,0,0.9822174,0.28454784,0.28452209)"
     id="g26">
    <g
       stroke-linecap="round"
       stroke-linejoin="round"
       stroke-width="1.79"
       id="g18">
      <path
         d="m 18.094698,24.110443 5.074946,-4.801113 m -11.533969,1.309395 3.69087,3.491718 M 2.8698581,26.292767 8.8675218,20.618725"
         fill="none"
         stroke="#4285f4"
         id="path2" />
      <path
         d="m 25.937797,17.999936 a 1.3840764,1.3093944 0 0 1 -1.384076,1.309394 1.3840764,1.3093944 0 0 1 -1.384077,-1.309394 1.3840764,1.3093944 0 0 1 1.384077,-1.309395 1.3840764,1.3093944 0 0 1 1.384076,1.309395 z"
         fill="#0fbb58"
         stroke="#0fbb58"
         id="path4" />
      <path
         d="m 18.094698,25.419837 a 1.3840764,1.3093944 0 0 1 -1.384076,1.309395 1.3840764,1.3093944 0 0 1 -1.384077,-1.309395 1.3840764,1.3093944 0 0 1 1.384077,-1.309394 1.3840764,1.3093944 0 0 1 1.384076,1.309394 z"
         fill="#f25022"
         stroke="#f25022"
         id="path6" />
      <path
         d="M 11.635675,19.30933 A 1.3840764,1.3093944 0 0 1 10.251598,20.618725 1.3840764,1.3093944 0 0 1 8.8675218,19.30933 1.3840764,1.3093944 0 0 1 10.251598,17.999936 1.3840764,1.3093944 0 0 1 11.635675,19.30933 Z"
         fill="#0fbb58"
         stroke="#0fbb58"
         id="path8" />
      <path
         d="m 18.195472,11.993752 5.074946,-4.8011131 m -11.533969,1.3093945 3.69087,3.4917186 M 2.9706319,14.176076 8.9682956,8.5020334"
         fill="none"
         stroke="#4285f4"
         id="path10" />
      <path
         d="M 26.038571,5.8832445 A 1.3840764,1.3093944 0 0 1 24.654495,7.1926389 1.3840764,1.3093944 0 0 1 23.270418,5.8832445 1.3840764,1.3093944 0 0 1 24.654495,4.57385 1.3840764,1.3093944 0 0 1 26.038571,5.8832445 Z"
         fill="#0fbb58"
         stroke="#0fbb58"
         id="path12" />
      <path
         d="m 18.195472,13.303146 a 1.3840764,1.3093944 0 0 1 -1.384076,1.309395 1.3840764,1.3093944 0 0 1 -1.384077,-1.309395 1.3840764,1.3093944 0 0 1 1.384077,-1.309394 1.3840764,1.3093944 0 0 1 1.384076,1.309394 z"
         fill="#f25022"
         stroke="#f25022"
         id="path14" />
      <path
         d="M 11.736449,7.1926389 A 1.3840764,1.3093944 0 0 1 10.352372,8.5020334 1.3840764,1.3093944 0 0 1 8.9682956,7.1926389 1.3840764,1.3093944 0 0 1 10.352372,5.8832445 1.3840764,1.3093944 0 0 1 11.736449,7.1926389 Z"
         fill="#0fbb58"
         stroke="#0fbb58"
         id="path16" />
    </g>
    <g
       fill-opacity="0.686275"
       stroke="#4285f4"
       stroke-opacity="0.929412"
       stroke-width="1.451"
       id="g24">
      <path
         d="M 2.472076,2.471846 H 2.670803 V 29.528153 H 2.472076 Z"
         id="path20" />
      <path
         d="m -29.528152,-29.527924 h 0.198731 v 27.055847 h -0.198731 z"
         transform="matrix(0,-1,-1,0,0,0)"
         id="path22" />
    </g>
  </g>
</svg>
