<svg height="32" viewBox="0 0 32 32" width="32" xmlns="http://www.w3.org/2000/svg"><path d="m5.845144 30h-2.1972251c-.9101202 0-1.6479193-.626801-1.6479193-1.4v-8.4c0-.773199.7377991-1.4 1.6479193-1.4h2.1972251c.9101203 0 1.6479184.626802 1.6479184 1.4v8.4c0 .773198-.7377981 1.4-1.6479184 1.4z" fill="#1e90ff" stroke-width="1.01002"/><path d="m20.84977 30h-2.197226c-.91012 0-1.647919-.626801-1.647919-1.4v-14c0-.773199.737799-1.4 1.647919-1.4h2.197226c.91012 0 1.647918.626802 1.647918 1.4v14c0 .773198-.737798 1.4-1.647918 1.4z" fill="#1e90ff" stroke-width="1.01002"/><g fill="#32cd32" transform="matrix(1.0201403 0 0 1 -.040281 -2)"><path d="m27.83182 32h-2.153846c-.892152 0-1.615384-.626802-1.615384-1.4v-20.533333c0-.7731972.723232-1.3999989 1.615384-1.3999989h2.153846c.892152 0 1.615385.6268007 1.615385 1.3999989v20.533333c0 .773199-.723233 1.4-1.615385 1.4z"/><path d="m13.123428 32h-2.153846c-.892152 0-1.6153844-.626802-1.6153844-1.4v-25.2c0-.773198.7232324-1.4 1.6153844-1.4h2.153846c.892152 0 1.615385.626801 1.615385 1.4v25.2c0 .773199-.723233 1.4-1.615385 1.4z"/></g></svg>