<?xml version="1.0" encoding="UTF-8" standalone="no"?>
<svg
   xmlns:dc="http://purl.org/dc/elements/1.1/"
   xmlns:cc="http://creativecommons.org/ns#"
   xmlns:rdf="http://www.w3.org/1999/02/22-rdf-syntax-ns#"
   xmlns:svg="http://www.w3.org/2000/svg"
   xmlns="http://www.w3.org/2000/svg"
   xmlns:sodipodi="http://sodipodi.sourceforge.net/DTD/sodipodi-0.dtd"
   xmlns:inkscape="http://www.inkscape.org/namespaces/inkscape"
   viewBox="0 0 32 32"
   version="1.1"
   id="svg6"
   sodipodi:docname="office-chart-line.svg"
   inkscape:version="0.92.4 5da689c313, 2019-01-14"
   width="32"
   height="32">
  <metadata
     id="metadata10">
    <rdf:RDF>
      <cc:Work
         rdf:about="">
        <dc:format>image/svg+xml</dc:format>
        <dc:type
           rdf:resource="http://purl.org/dc/dcmitype/StillImage" />
        <dc:title />
      </cc:Work>
    </rdf:RDF>
  </metadata>
  <sodipodi:namedview
     pagecolor="#ffffff"
     bordercolor="#666666"
     borderopacity="1"
     objecttolerance="10"
     gridtolerance="10"
     guidetolerance="10"
     inkscape:pageopacity="0"
     inkscape:pageshadow="2"
     inkscape:window-width="1366"
     inkscape:window-height="703"
     id="namedview8"
     showgrid="false"
     inkscape:zoom="10.727273"
     inkscape:cx="4.4745764"
     inkscape:cy="11"
     inkscape:window-x="0"
     inkscape:window-y="0"
     inkscape:window-maximized="1"
     inkscape:current-layer="svg6" />
  <defs
     id="defs3051">
    <style
       type="text/css"
       id="current-color-scheme">
     .ColorScheme-Text {
       color:#f2f2f2;
     }
     </style>
  </defs>
  <g
     id="g11"
     transform="matrix(1.75,0,0,1.75,-3.25,-3.25)"
     style="fill:#4285f4;fill-opacity:1">
    <path
       inkscape:connector-curvature="0"
       id="path4"
       class="ColorScheme-Text"
       d="m 4,3 v 6 1 5 1 1 H 3 v 1 h 1 v 1 H 5 V 18 H 18.292969 19 V 17.292969 17 h -0.292969 l -0.748047,-0.748047 -0.828125,-0.828125 -2,-2 -0.0039,0.0039 -0.0059,-0.0039 -2.123047,2.123047 -1.294922,-1.294922 -0.828125,-0.828125 -2,-2 H 8.8730469 7 6 5 V 11 10 H 6 7 8.8730469 8.875 l 2,-2 L 11.703125,7.171875 12.998047,5.8769531 15.121094,8 15.126994,7.99609 15.130894,8 l 2,-2 0.82809,-0.828125 L 19,4.1308594 18.292969,3.4238281 17.251953,4.4648438 16.423828,5.2929688 15.126953,6.5898438 13,4.4648438 l -0.002,0.00195 -0.002,-0.00195 -1.527344,1.5273437 H 5 V 5 3 Z m 1,3 h 6.460938 L 10.996094,6.4648438 10.167969,7.2929688 8.4609375,9 H 7 6 5 Z m 0,6.423828 h 1 1 1.4609375 l 1.7070315,1.707031 0.828125,0.828125 0.464844,0.464844 H 5 V 15 Z m 10.126953,2.410156 1.296875,1.296875 0.828125,0.828125 L 17.292969,17 H 5 v -1 -0.568359 h 6.46875 l 1.527344,1.527343 0.002,-0.002 0.002,0.002 z"
       style="color:#f2f2f2;fill:#4285f4;fill-opacity:1;stroke:none" />
    <path
       inkscape:connector-curvature="0"
       style="color:#f2f2f2;fill:#4285f4;fill-opacity:1;stroke:none"
       d="m 4,3 v 6 1 5 1 1 H 3 v 1 h 1 v 1 H 5 V 18 H 18.292969 19 V 17.292969 17 h -0.292969 l -0.748047,-0.748047 -0.828125,-0.828125 -2,-2 -0.0039,0.0039 -0.0059,-0.0039 -2.123047,2.123047 -1.294922,-1.294922 -0.828125,-0.828125 -2,-2 H 8.8730469 7 6 5 V 11 10 H 6 7 8.8730469 8.875 l 2,-2 L 11.703125,7.171875 12.998047,5.8769531 15.121094,8 15.126994,7.99609 15.130894,8 l 2,-2 0.82809,-0.828125 L 19,4.1308594 18.292969,3.4238281 17.251953,4.4648438 16.423828,5.2929688 15.126953,6.5898438 13,4.4648438 l -0.002,0.00195 -0.002,-0.00195 -1.527344,1.5273437 H 5 V 5 3 Z m 1,3 h 6.460938 L 10.996094,6.4648438 10.167969,7.2929688 8.4609375,9 H 7 6 5 Z m 0,6.423828 h 1 1 1.4609375 l 1.7070315,1.707031 0.828125,0.828125 0.464844,0.464844 H 5 V 15 Z m 10.126953,2.410156 1.296875,1.296875 0.828125,0.828125 L 17.292969,17 H 5 v -1 -0.568359 h 6.46875 l 1.527344,1.527343 0.002,-0.002 0.002,0.002 z"
       class="ColorScheme-Text"
       id="path817" />
  </g>
</svg>
