<svg height="32" viewBox="0 0 32 32" width="32" xmlns="http://www.w3.org/2000/svg"><path d="m36.000962 91.499987c-1.284993 0-2.527487-.599829-3.499982-1.688407-.94562-1.061789-1.523117-2.477725-1.624991-3.985791-.10875-1.608691.360623-3.088008 1.321243-4.166132s2.303738-1.659657 3.80373-1.659657c1.489367 0 2.836235.591988 3.79373 1.667498.96687 1.085965 1.437493 2.562668 1.328743 4.157637-.104374 1.510027-.681246 2.92531-1.624991 3.985791-.969995 1.089232-2.211864 1.689061-3.497482 1.689061zm8.239332 11.499983h-16.478039a1.7318659 1.8105945 0 0 1 -1.374993-.69718 1.8887401 1.9746 0 0 1 -.328748-1.68514c.526247-2.209176 1.829991-4.041333 3.76998-5.297838 1.721866-1.114714 3.91373-1.728918 6.172468-1.728918 2.303113 0 4.437477.588067 6.169343 1.702129 1.944365 1.24997 3.249983 3.092581 3.77373 5.328547a1.8918651 1.9778671 0 0 1 -.332498 1.68448 1.7299909 1.8086343 0 0 1 -1.371243.69392zm-20.05177-11.23862c-2.199364 0-4.133103-2.137952-4.312478-4.765307-.08875-1.346021.312499-2.590764 1.124995-3.503575.803745-.903664 1.937489-1.401561 3.187483-1.401561 1.249993 0 2.374987.500511 3.183108 1.409402.818746.919999 1.218744 2.162128 1.124994 3.497041-.179374 2.626702-2.112489 4.764-4.308102 4.764zm4.103728 2.05497c-1.099369-.561932-2.526236-.842897-4.103103-.842897-1.84124 0-3.629356.501817-5.035599 1.412669-1.594366 1.034345-2.666861 2.540451-3.099984 4.358887a1.711866 1.7896855 0 0 0 .299374 1.526361 1.5824917 1.65443 0 0 0 1.255618.63773h6.937464a.49999738.52272668 0 0 0 .491872-.42929c.0069-.0412.01563-.0823.02562-.12284.529998-2.225512 1.771866-4.106021 3.606856-5.476872a.49999738.52272668 0 0 0 -.03937-.874913c-.09812-.060114-.210624-.123495-.338749-.188835z" fill="#1e90ff" stroke-width=".063904" transform="translate(-15.001137 -75.499998)"/></svg>