<svg xmlns="http://www.w3.org/2000/svg" viewBox="0 0 32 32">
    <path fill="#375273"
          d="M10.2,5.1v4.4c0,0.7-0.6,1.3-1.3,1.3H3.3C2.6,10.8,2,10.2,2,9.4V5.1c0-0.7,0.6-1.3,1.3-1.3h5.5
            C9.6,3.8,10.2,4.3,10.2,5.1L10.2,5.1z M20.1,18.2v-4.4c0-0.7-0.6-1.3-1.3-1.3h-5.5c-0.7,0-1.3,0.6-1.3,1.3v4.4
            c0,0.7,0.6,1.3,1.3,1.3h5.5C19.5,19.5,20.1,18.9,20.1,18.2z M21.8,5.1v4.4c0,0.7,0.6,1.3,1.3,1.3h5.5c0.7,0,1.3-0.6,1.3-1.3V5.1
            c0-0.7-0.6-1.3-1.3-1.3h-5.5C22.4,3.8,21.8,4.3,21.8,5.1z M20.1,9.4V5.1c0-0.7-0.6-1.3-1.3-1.3h-5.5c-0.7,0-1.3,0.6-1.3,1.3v4.4
            c0,0.7,0.6,1.3,1.3,1.3h5.5C19.5,10.8,20.1,10.2,20.1,9.4z M8.9,12.5H3.3c-0.7,0-1.3,0.6-1.3,1.3v4.4c0,0.7,0.6,1.3,1.3,1.3h5.5
            c0.7,0,1.3-0.6,1.3-1.3v-4.4C10.2,13.1,9.6,12.5,8.9,12.5L8.9,12.5z M2,22.6v4.4c0,0.7,0.6,1.3,1.3,1.3h5.5c0.7,0,1.3-0.6,1.3-1.3
            v-4.4c0-0.7-0.6-1.3-1.3-1.3H3.3C2.6,21.3,2,21.8,2,22.6z M23.1,19.5h5.5c0.7,0,1.3-0.6,1.3-1.3v-4.4c0-0.7-0.6-1.3-1.3-1.3h-5.5
            c-0.7,0-1.3,0.6-1.3,1.3v4.4C21.8,18.9,22.4,19.5,23.1,19.5z M23.1,28.3h5.5c0.7,0,1.3-0.6,1.3-1.3v-4.4c0-0.7-0.6-1.3-1.3-1.3h-5.5
            c-0.7,0-1.3,0.6-1.3,1.3v4.4C21.8,27.7,22.4,28.3,23.1,28.3z M11.9,22.6v4.4c0,0.7,0.6,1.3,1.3,1.3h5.5c0.7,0,1.3-0.6,1.3-1.3v-4.4
            c0-0.7-0.6-1.3-1.3-1.3h-5.5C12.5,21.3,11.9,21.8,11.9,22.6z"/>
</svg>