<svg viewBox="0 0 32 32" xmlns="http://www.w3.org/2000/svg"><path d="m30 16a14 14 0 0 1 -14 14 14 14 0 0 1 -14-14 14 14 0 0 1 14-14 14 14 0 0 1 14 14z" fill="#f25022" opacity=".97" stroke-width="1.395525"/><g fill="#a02c2c"><path d="m9.6358288 14.623484a1.4983832 1.4138406 0 0 1 -1.4983833 1.413841 1.4983832 1.4138406 0 0 1 -1.4983832-1.413841 1.4983832 1.4138406 0 0 1 1.4983832-1.413841 1.4983832 1.4138406 0 0 1 1.4983833 1.413841z" opacity=".97" stroke-width=".835664"/><path d="m18.262114 14.711351a2.4973054 2.356401 0 0 1 -2.497305 2.356401 2.4973054 2.356401 0 0 1 -2.497306-2.356401 2.4973054 2.356401 0 0 1 2.497306-2.356402 2.4973054 2.356401 0 0 1 2.497305 2.356402z" opacity=".97" stroke-width="1.392774"/><path d="m17.289096 23.777996a1.9978443 1.8851208 0 0 1 -1.997844 1.88512 1.9978443 1.8851208 0 0 1 -1.997845-1.88512 1.9978443 1.8851208 0 0 1 1.997845-1.885121 1.9978443 1.8851208 0 0 1 1.997844 1.885121z" opacity=".97" stroke-width="1.114219"/><path d="m25.735779 17.483783a.99892216 1.4138406 0 0 1 -.998922 1.413841.99892216 1.4138406 0 0 1 -.998922-1.413841.99892216 1.4138406 0 0 1 .998922-1.41384.99892216 1.4138406 0 0 1 .998922 1.41384z" opacity=".97" stroke-width=".682317"/><path d="m24.139958 12.393876a1.2486527 1.1782005 0 0 1 -1.248653 1.178201 1.2486527 1.1782005 0 0 1 -1.248652-1.178201 1.2486527 1.1782005 0 0 1 1.248652-1.1782 1.2486527 1.1782005 0 0 1 1.248653 1.1782z" opacity=".97" stroke-width=".696387"/><path d="m12.824301 19.904742a2.2475749 1.8851208 0 0 1 -2.247575 1.88512 2.2475749 1.8851208 0 0 1 -2.2475747-1.88512 2.2475749 1.8851208 0 0 1 2.2475747-1.885121 2.2475749 1.8851208 0 0 1 2.247575 1.885121z" opacity=".97" stroke-width="1.181808"/><path d="m13.150683 9.6519335a.99892216 1.4138406 0 0 1 -.998922 1.4138405.99892216 1.4138406 0 0 1 -.998922-1.4138405.99892216 1.4138406 0 0 1 .998922-1.41384.99892216 1.4138406 0 0 1 .998922 1.41384z" opacity=".97" stroke-width=".682317"/><path d="m20.854025 8.3948557a1.9978443 1.8851208 0 0 1 -1.997844 1.8851203 1.9978443 1.8851208 0 0 1 -1.997845-1.8851203 1.9978443 1.8851208 0 0 1 1.997845-1.885121 1.9978443 1.8851208 0 0 1 1.997844 1.885121z" opacity=".97" stroke-width="1.114219"/><path d="m23.287748 23.479799a1.4983832 1.4138406 0 0 1 -1.498384 1.413841 1.4983832 1.4138406 0 0 1 -1.498383-1.413841 1.4983832 1.4138406 0 0 1 1.498383-1.413841 1.4983832 1.4138406 0 0 1 1.498384 1.413841z" opacity=".97" stroke-width=".835664"/></g></svg>