<svg viewBox="0 0 32 32" xmlns="http://www.w3.org/2000/svg"><g stroke-width="1.087397"><path d="m24.27027 9.328125v2.40625c0 .109375 0 .109375-.108108.21875s-.108108.109375-.216216.109375l-2.054054.328125c-.108109.4375-.324325.65625-.432433.984375.216216.4375.648649.875 1.189189 1.53125.108108.109375.108108.109375.108108.21875s0 .109375-.108108.21875c-.216216.21875-.54054.65625-1.081081 1.203125-.54054.546875-.864865.765625-.972973.765625s-.108108 0-.324324-.109375l-1.513514-1.203125c-.324324.109375-.648648.328125-.972973.4375-.108108.984375-.216216 1.640625-.324324 2.078125-.108108.21875-.108108.328125-.432432.328125h-2.378379c-.108108 0-.108108 0-.216216-.109375s-.108108-.109375-.108108-.21875l-.324324-2.078125c-.432433-.109375-.648649-.21875-.972973-.4375l-1.513514 1.203125c-.108108.109375-.108108.109375-.216216.109375s-.108108-.109375-.216216-.109375c-.972973-.875-1.5135137-1.421875-1.8378379-1.859375-.1081081-.109375-.1081081-.109375-.1081081-.21875s0-.109375.1081081-.21875.3243243-.4375.5405405-.65625c.2162158-.21875.4324324-.65625.6486484-.765625-.216216-.4375-.324324-.65625-.4324326-1.09375l-1.9459455-.328125c-.1081082 0-.1081082-.109375-.2162164-.109375-.1081081-.109375-.1081081-.109375-.1081081-.21875v-2.515625c0-.109375 0-.109375.1081081-.21875.1081082-.109375.1081082-.109375.2162164-.109375l2.0540541-.328125c.108108-.328125.216216-.65625.432432-.984375-.324324-.4375-.6486483-.984375-1.1891888-1.53125-.3243243-.109375-.3243243-.21875-.3243243-.328125s0-.109375.1081081-.21875c.1081081-.328125.5405405-.65625 1.081081-1.203125.54054-.546875.864865-.765625.972973-.765625s.108108 0 .324324.109375l1.513514 1.203125c.324324-.109375.648648-.328125.972973-.4375.108108-.984375.216216-1.640625.324324-2.078125.108108-.21875.108108-.328125.432432-.328125h2.378379c.108108 0 .108108 0 .216216.109375s.108108.109375.108108.21875l.324324 2.078125c.432433.109375.648649.21875.972973.4375l1.72973-1.203125c.108108-.109375.108108-.109375.216216-.109375s.108108 0 .216217.109375c.972973.875 1.513513 1.53125 1.837837 1.859375.108109.109375.108109.109375.108109.21875s0 .109375-.108109.21875c-.108108.109375-.324324.4375-.54054.65625-.216216.328125-.432433.65625-.648649.765625.108108.4375.324325.65625.432433 1.09375l2.054054.328125c.108108 0 .108108.109375.216216.109375zm-6.378379 3.171875c.540541-.546875.756757-1.203125.756757-1.96875s-.216216-1.421875-.756757-1.96875c-.54054-.546875-1.189189-.875-1.945945-.875-.756757 0-1.405406.328125-1.945946.875-.540541.546875-.756757 1.203125-.756757 1.96875s.216216 1.421875.756757 1.96875c.54054.546875 1.189189.765625 1.945946.765625.756756 0 1.405405-.21875 1.945945-.765625z" fill="#f25022"/><path d="m29.135135 6.375c-.432433-.4375-.972973-.65625-1.621622-.65625h-4.216216v.109375c0 .109375 0 .328125-.216216.546875-.108108.109375-.216216.21875-.324325.4375-.108108.109375-.216216.21875-.216216.328125-.108108.21875-.216216.328125-.324324.546875h5.297297c.108108 0 .216216 0 .324325.109375.108108.109375.108108.21875.108108.328125v12.140625c0 .109375 0 .21875-.108108.328125-.108109.109375-.216217.109375-.324325.109375h-23.135135c-.108108 0-.2162161 0-.3243242-.109375-.1081082-.109375-.1081082-.21875-.1081082-.328125v-12.25c0-.109375 0-.21875.1081081-.328125s.2162162-.109375.3243243-.109375h5.2972975l-.1081081-.109375c-.2162162-.4375-.5405405-.765625-.7567568-1.09375-.3243243-.21875-.3243243-.546875-.3243243-.65625v-.109375h-4.1081083c-.6486485 0-1.1891891.21875-1.6216215.65625-.4324325.546875-.7567568 1.09375-.7567568 1.75v15.96875c0 .65625.2162162 1.203125.6486487 1.640625.4324324.4375.972973.65625 1.6216216.65625h7.891892c0 .328125-.108108.765625-.216217 1.09375-.108108.4375-.324324.765625-.432432.984375-.108108.328125-.216216.546875-.216216.65625 0 .21875.108108.4375.324324.65625s.432433.328125.648649.328125h7.459459c.216217 0 .432433-.109375.648649-.328125s.324324-.4375.324324-.65625c0-.109375-.108108-.328125-.216216-.65625s-.324324-.65625-.432432-1.09375-.216217-.765625-.216217-1.09375h7.891892c.648649 0 1.18919-.21875 1.621622-.65625.432433-.4375.648649-.984375.648649-1.640625v-15.859375c-.108108-.65625-.432433-1.203125-.864865-1.640625z" fill="#4285f4"/></g></svg>