<?xml version="1.0" encoding="UTF-8" standalone="no"?>
<svg
   xmlns:dc="http://purl.org/dc/elements/1.1/"
   xmlns:cc="http://creativecommons.org/ns#"
   xmlns:rdf="http://www.w3.org/1999/02/22-rdf-syntax-ns#"
   xmlns:svg="http://www.w3.org/2000/svg"
   xmlns="http://www.w3.org/2000/svg"
   xmlns:sodipodi="http://sodipodi.sourceforge.net/DTD/sodipodi-0.dtd"
   xmlns:inkscape="http://www.inkscape.org/namespaces/inkscape"
   viewBox="0 0 32 32"
   version="1.1"
   id="svg4"
   sodipodi:docname="preferences-other.svg"
   inkscape:version="0.92.4 5da689c313, 2019-01-14">
  <metadata
     id="metadata10">
    <rdf:RDF>
      <cc:Work
         rdf:about="">
        <dc:format>image/svg+xml</dc:format>
        <dc:type
           rdf:resource="http://purl.org/dc/dcmitype/StillImage" />
        <dc:title />
      </cc:Work>
    </rdf:RDF>
  </metadata>
  <defs
     id="defs8" />
  <sodipodi:namedview
     pagecolor="#ffffff"
     bordercolor="#666666"
     borderopacity="1"
     objecttolerance="10"
     gridtolerance="10"
     guidetolerance="10"
     inkscape:pageopacity="0"
     inkscape:pageshadow="2"
     inkscape:window-width="1366"
     inkscape:window-height="703"
     id="namedview6"
     showgrid="false"
     inkscape:zoom="7.375"
     inkscape:cx="-9.7627118"
     inkscape:cy="16"
     inkscape:window-x="0"
     inkscape:window-y="0"
     inkscape:window-maximized="1"
     inkscape:current-layer="svg4" />
  <path
     d="m 20.63035,14.57627 v 2.966102 c 0,0.118645 0,0.237289 -0.108952,0.355933 -0.108953,0.118643 -0.108953,0.118643 -0.2179,0.118643 l -2.287937,0.355933 c -0.108953,0.355932 -0.217899,0.830509 -0.435798,1.18644 0.326848,0.474577 0.762646,1.067797 1.307393,1.779662 0.108953,0.118644 0.108953,0.237287 0.108953,0.355932 0,0.118644 0,0.237288 -0.108953,0.355932 -0.217899,0.355932 -0.653697,0.830509 -1.198444,1.423729 -0.544747,0.59322 -0.980544,0.949152 -1.198444,0.949152 -0.108952,0 -0.217898,0 -0.326847,-0.118643 L 14.52918,22.881356 c -0.326849,0.237287 -0.762647,0.355932 -1.089495,0.474576 -0.108952,1.18644 -0.217899,2.016949 -0.326848,2.491525 -0.108953,0.237288 -0.217899,0.355932 -0.435798,0.355932 H 9.9533032 c -0.108952,0 -0.217898,0 -0.326847,-0.118644 -0.108953,-0.118644 -0.108953,-0.118644 -0.108953,-0.237288 L 9.1906612,23.474576 C 8.8638132,23.355932 8.5369652,23.237288 8.1011671,22.999999 l -1.7431905,1.305086 c -0.1089492,0 -0.2178989,0.118643 -0.3268483,0.118643 -0.1089492,0 -0.2178988,0 -0.3268482,-0.118643 -1.4163424,-1.423729 -2.0700389,-2.254238 -2.0700389,-2.491526 0,-0.118644 0,-0.237289 0.1089491,-0.355932 C 3.8521395,21.338983 4.0700386,20.98305 4.2879374,20.627118 4.5058363,20.271186 4.8326845,19.79661 5.0505833,19.559321 4.8326845,19.084745 4.6147857,18.61017 4.5058363,18.254237 L 2.3268479,17.898305 c -0.1089492,0 -0.2178988,-0.118644 -0.2178988,-0.118644 C 1.9999999,17.661017 1.9999999,17.542372 1.9999999,17.423728 v -2.966102 c 0,-0.118643 0,-0.237287 0.1089492,-0.355931 C 2.2178983,13.98305 2.2178983,13.98305 2.3268479,13.98305 L 4.5058365,13.627119 C 4.6147859,13.271186 4.7237353,12.79661 4.9416342,12.440677 4.6147859,11.966101 4.1789882,11.372881 3.6342412,10.661016 3.5252917,10.542372 3.5252917,10.423728 3.5252917,10.305084 c 0,-0.118645 0,-0.237288 0.1089492,-0.3559318 C 3.8521398,9.5932194 4.2879374,9.1186435 4.8326845,8.5254235 5.3774316,7.9322031 5.8132293,7.5762709 6.0311281,7.5762709 c 0.1089492,0 0.2178988,0.1186441 0.3268482,0.1186441 L 7.9922175,9.1186435 C 8.3190657,8.8813553 8.6459142,8.7627111 9.0817122,8.644068 9.1906652,7.4576269 9.2996112,6.6271184 9.4085602,6.1525421 9.5175122,5.915254 9.6264592,5.7966099 9.8443582,5.7966099 h 2.8326838 c 0.108953,0 0.2179,0 0.326849,0.1186441 0.108952,0.1186441 0.108952,0.1186441 0.108952,0.2372881 l 0.326849,2.3728814 c 0.326848,0.1186445 0.653696,0.2372876 1.089494,0.4745761 L 16.272377,7.694915 c 0.108952,-0.1186441 0.217898,-0.1186441 0.326847,-0.1186441 0.108953,0 0.2179,0 0.326849,0.1186441 1.416343,1.4237285 2.070039,2.2542372 2.070039,2.491524 0,0.118645 0,0.237289 -0.108952,0.355933 -0.108953,0.118644 -0.326849,0.474576 -0.653698,0.830509 -0.326847,0.355932 -0.544747,0.711865 -0.653696,0.949152 0.217899,0.474577 0.435798,0.949153 0.544747,1.305086 l 2.178988,0.355931 c 0.108953,0 0.2179,0.118645 0.2179,0.118645 0.108952,0.237288 0.108952,0.355931 0.108952,0.474575 z m -6.754864,4.271187 c 0.762646,-0.830509 1.089494,-1.779661 1.089494,-2.847458 0,-1.067796 -0.326848,-2.135593 -1.089494,-2.847457 -0.762646,-0.830509 -1.634242,-1.186441 -2.614786,-1.186441 -0.980545,0 -1.9610888,0.355932 -2.6147858,1.186441 C 7.8832683,13.98305 7.55642,14.932203 7.55642,15.999999 c 0,1.067797 0.3268483,2.135593 1.0894942,2.847458 0.762646,0.830509 1.6342408,1.186441 2.6147858,1.186441 0.980544,0 1.961089,-0.355932 2.614786,-1.186441 z M 30,6.7457625 v 2.2542371 c 0,0.1186439 -0.762646,0.3559324 -2.178989,0.4745755 -0.108952,0.2372886 -0.217898,0.5932209 -0.435798,0.8305089 0.544748,1.186441 0.762647,1.898306 0.762647,2.135593 0,0 0,0.118644 -0.108952,0.118644 -1.198444,0.711865 -1.743191,1.186441 -1.85214,1.186441 -0.108953,0 -0.326849,-0.237288 -0.653696,-0.711865 -0.326849,-0.474576 -0.653697,-0.830507 -0.762647,-1.067796 H 23.89883 c -0.108952,0.237289 -0.435798,0.59322 -0.762646,1.067796 -0.326848,0.474577 -0.544747,0.711865 -0.653696,0.711865 0,0 -0.653697,-0.355932 -1.85214,-1.186441 l -0.108953,-0.118644 c 0,-0.237287 0.217899,-0.949152 0.762646,-2.135593 C 21.066148,10.067796 20.957198,9.7118637 20.848248,9.4745751 19.431907,9.355932 18.66926,9.1186435 18.66926,8.9999996 V 6.7457625 c 0,-0.1186441 0.762647,-0.3559322 2.178988,-0.4745763 0.108953,-0.3559322 0.2179,-0.5932203 0.435798,-0.8305084 -0.544747,-1.1864408 -0.762645,-1.8983052 -0.762645,-2.1355932 0,0 0,-0.1186442 0.108952,-0.1186442 0,0 0.217899,-0.118644 0.544747,-0.3559322 0.326848,-0.237288 0.544748,-0.3559321 0.871595,-0.5932202 L 22.48249,1.9999998 c 0.108952,0 0.326848,0.2372882 0.653696,0.7118644 0.326849,0.4745762 0.653697,0.8305084 0.762647,1.0677966 h 0.871594 c 0.544747,-0.7118644 0.980545,-1.3050847 1.307394,-1.779661 h 0.108952 c 0,0 0.653697,0.3559322 1.85214,1.0677966 l 0.108953,0.118644 c 0,0.2372882 -0.2179,0.9491526 -0.762647,2.1355933 0.2179,0.2372881 0.326849,0.4745762 0.435798,0.8305084 C 29.237354,6.3898303 30,6.6271184 30,6.7457625 Z m 0,16.2542365 v 2.254238 c 0,0.118644 -0.762646,0.355932 -2.178989,0.474577 -0.108952,0.237287 -0.217898,0.59322 -0.435798,0.830507 0.544748,1.186442 0.762647,1.898306 0.762647,2.135593 0,0 0,0.118645 -0.108952,0.118645 C 26.840464,29.525423 26.295717,30 26.186768,30 26.077815,30 25.859919,29.762711 25.533072,29.288136 25.206223,28.813559 24.879375,28.457627 24.770425,28.220338 H 23.89883 c -0.108952,0.237289 -0.435798,0.593221 -0.762646,1.067798 C 22.809336,29.762711 22.591437,30 22.482488,30 c 0,0 -0.653697,-0.355933 -1.85214,-1.186441 l -0.108953,-0.118645 c 0,-0.237287 0.217899,-0.949151 0.762646,-2.135593 -0.217899,-0.237287 -0.326849,-0.59322 -0.435798,-0.830507 -1.416342,-0.118645 -2.178988,-0.355933 -2.178988,-0.474577 v -2.254238 c 0,-0.118643 0.762646,-0.355932 2.178988,-0.474576 0.108952,-0.355931 0.217899,-0.59322 0.435798,-0.830508 -0.544747,-1.186441 -0.762646,-1.898305 -0.762646,-2.135594 0,0 0,-0.118644 0.108953,-0.118644 0,0 0.217898,-0.118643 0.544747,-0.355932 0.326848,-0.237288 0.544747,-0.355932 0.871595,-0.59322 l 0.435798,-0.237288 c 0.108952,0 0.326848,0.237288 0.653696,0.711864 0.326848,0.474576 0.653697,0.830509 0.762646,1.067797 h 0.871595 c 0.544747,-0.711864 0.980545,-1.305085 1.307394,-1.779661 h 0.108952 c 0,0 0.653696,0.355933 1.85214,1.067797 l 0.108952,0.118643 c 0,0.237289 -0.217899,0.949153 -0.762646,2.135593 0.217899,0.237289 0.326848,0.474577 0.435798,0.830509 C 29.237354,22.644067 30,22.881356 30,22.999999 Z M 26.18677,7.8135591 c 0,-0.5932204 -0.217898,-1.0677966 -0.544747,-1.4237288 -0.326849,-0.3559322 -0.762645,-0.5932204 -1.307393,-0.5932204 -0.544747,0 -0.980545,0.2372882 -1.307393,0.5932204 -0.326848,0.4745762 -0.544747,0.9491525 -0.544747,1.4237288 0,0.5932204 0.217899,1.0677962 0.544747,1.4237287 0.326848,0.3559316 0.762646,0.5932201 1.307393,0.5932201 0.544748,0 0.980544,-0.2372885 1.307393,-0.5932201 0.435798,-0.3559325 0.544747,-0.8305083 0.544747,-1.4237287 z m 0,16.3728809 c 0,-0.59322 -0.217898,-1.067797 -0.544747,-1.423728 -0.326849,-0.355933 -0.762645,-0.59322 -1.307393,-0.59322 -0.544747,0 -0.980545,0.237287 -1.307393,0.59322 -0.326848,0.355931 -0.544747,0.830508 -0.544747,1.423728 0,0.593221 0.217899,1.067797 0.544747,1.423729 0.326848,0.355932 0.762646,0.59322 1.307393,0.59322 0.544748,0 0.980544,-0.237288 1.307393,-0.59322 0.435798,-0.474577 0.544747,-0.949153 0.544747,-1.423729 z"
     id="path2"
     style="fill:#4285f4;fill-opacity:1;stroke-width:1.13693464"
     inkscape:connector-curvature="0" />
</svg>
