<svg height="32" viewBox="0 0 32 32" width="32" xmlns="http://www.w3.org/2000/svg"><path d="m16 2c-7.7227501.0017-13.99825 6.2772505-14 14 .0017 7.72275 6.2772499 13.99825 14 14 7.72275-.0018 13.99825-6.27725 14-14 0-.89075-.09338-1.755094-.25-2.589844-.07088-.37625-.376109-.661531-.755859-.707031-.380625-.0455-.742891.160641-.900391.509766-.277375.6125-.887625 1.037984-1.59375 1.037109-.783125.0017-1.443563-.526578-1.664062-1.251953-.133-.44275-.58736-.704611-1.03711-.599609-.2765.064738-.538953.101562-.798828.101562-1.927625-.0035-3.4965-1.572375-3.5-3.5 0-.259875.03681-.52125.101562-.796875.105876-.44975-.156859-.9060625-.599609-1.0390625-.725375-.219625-1.253703-.8809375-1.251953-1.6640625-.000875-.707.424609-1.3144219 1.037109-1.5917969.349125-.1575.555266-.5225937.509766-.9023437-.0455-.3806253-.330781-.6849844-.707031-.7558594-.83475-.156625-1.699094-.25-2.589844-.25zm-3.5 5.25a1.75 1.75 0 0 1 1.75 1.75 1.75 1.75 0 0 1 -1.75 1.75 1.75 1.75 0 0 1 -1.75-1.75 1.75 1.75 0 0 1 1.75-1.75zm-3.5 7a1.75 1.75 0 0 1 1.75 1.75 1.75 1.75 0 0 1 -1.75 1.75 1.75 1.75 0 0 1 -1.75-1.75 1.75 1.75 0 0 1 1.75-1.75zm7.875 1.75a.875.875 0 0 1 .875.875.875.875 0 0 1 -.875.875.875.875 0 0 1 -.875-.875.875.875 0 0 1 .875-.875zm7 3.5a.875.875 0 0 1 .875.875.875.875 0 0 1 -.875.875.875.875 0 0 1 -.875-.875.875.875 0 0 1 .875-.875zm-12.25 1.75a.875.875 0 0 1 .875.875.875.875 0 0 1 -.875.875.875.875 0 0 1 -.875-.875.875.875 0 0 1 .875-.875zm6.125 0a1.75 1.75 0 0 1 1.75 1.75 1.75 1.75 0 0 1 -1.75 1.75 1.75 1.75 0 0 1 -1.75-1.75 1.75 1.75 0 0 1 1.75-1.75z" fill="#4285f4" stroke="#4285f4" stroke-width=".055"/></svg>