<?xml version="1.0" encoding="UTF-8" standalone="no"?>
<svg
   xmlns:dc="http://purl.org/dc/elements/1.1/"
   xmlns:cc="http://creativecommons.org/ns#"
   xmlns:rdf="http://www.w3.org/1999/02/22-rdf-syntax-ns#"
   xmlns:svg="http://www.w3.org/2000/svg"
   xmlns="http://www.w3.org/2000/svg"
   xmlns:sodipodi="http://sodipodi.sourceforge.net/DTD/sodipodi-0.dtd"
   xmlns:inkscape="http://www.inkscape.org/namespaces/inkscape"
   viewBox="0 0 32 32"
   version="1.1"
   id="svg6"
   sodipodi:docname="preferences-desktop.svg"
   inkscape:version="0.92.4 5da689c313, 2019-01-14">
  <metadata
     id="metadata12">
    <rdf:RDF>
      <cc:Work
         rdf:about="">
        <dc:format>image/svg+xml</dc:format>
        <dc:type
           rdf:resource="http://purl.org/dc/dcmitype/StillImage" />
        <dc:title />
      </cc:Work>
    </rdf:RDF>
  </metadata>
  <defs
     id="defs10" />
  <sodipodi:namedview
     pagecolor="#ffffff"
     bordercolor="#666666"
     borderopacity="1"
     objecttolerance="10"
     gridtolerance="10"
     guidetolerance="10"
     inkscape:pageopacity="0"
     inkscape:pageshadow="2"
     inkscape:window-width="1366"
     inkscape:window-height="703"
     id="namedview8"
     showgrid="false"
     inkscape:zoom="7.375"
     inkscape:cx="7.661017"
     inkscape:cy="14.182847"
     inkscape:window-x="0"
     inkscape:window-y="0"
     inkscape:window-maximized="1"
     inkscape:current-layer="svg6" />
  <g
     id="g818">
    <path
       style="fill:#f25022;fill-opacity:1;stroke-width:1.0873971"
       id="path2"
       d="m 24.27027,9.328125 v 2.40625 c 0,0.109375 0,0.109375 -0.108108,0.21875 C 24.054054,12.0625 24.054054,12.0625 23.945946,12.0625 l -2.054054,0.328125 c -0.108109,0.4375 -0.324325,0.65625 -0.432433,0.984375 0.216216,0.4375 0.648649,0.875 1.189189,1.53125 0.108108,0.109375 0.108108,0.109375 0.108108,0.21875 0,0.109375 0,0.109375 -0.108108,0.21875 -0.216216,0.21875 -0.54054,0.65625 -1.081081,1.203125 -0.54054,0.546875 -0.864865,0.765625 -0.972973,0.765625 -0.108108,0 -0.108108,0 -0.324324,-0.109375 L 18.756756,16 c -0.324324,0.109375 -0.648648,0.328125 -0.972973,0.4375 -0.108108,0.984375 -0.216216,1.640625 -0.324324,2.078125 -0.108108,0.21875 -0.108108,0.328125 -0.432432,0.328125 h -2.378379 c -0.108108,0 -0.108108,0 -0.216216,-0.109375 C 14.324324,18.625 14.324324,18.625 14.324324,18.515625 L 14,16.4375 C 13.567567,16.328125 13.351351,16.21875 13.027027,16 l -1.513514,1.203125 C 11.405405,17.3125 11.405405,17.3125 11.297297,17.3125 c -0.108108,0 -0.108108,-0.109375 -0.216216,-0.109375 C 10.108108,16.328125 9.5675673,15.78125 9.2432431,15.34375 9.135135,15.234375 9.135135,15.234375 9.135135,15.125 c 0,-0.109375 0,-0.109375 0.1081081,-0.21875 0.1081081,-0.109375 0.3243243,-0.4375 0.5405405,-0.65625 0.2162158,-0.21875 0.4324324,-0.65625 0.6486484,-0.765625 -0.216216,-0.4375 -0.324324,-0.65625 -0.4324326,-1.09375 L 8.0540539,12.0625 c -0.1081082,0 -0.1081082,-0.109375 -0.2162164,-0.109375 C 7.7297294,11.84375 7.7297294,11.84375 7.7297294,11.734375 V 9.21875 c 0,-0.109375 0,-0.109375 0.1081081,-0.21875 C 7.9459457,8.890625 7.9459457,8.890625 8.0540539,8.890625 L 10.108108,8.5625 C 10.216216,8.234375 10.324324,7.90625 10.54054,7.578125 10.216216,7.140625 9.8918917,6.59375 9.3513512,6.046875 9.0270269,5.9375 9.0270269,5.828125 9.0270269,5.71875 c 0,-0.109375 0,-0.109375 0.1081081,-0.21875 C 9.2432431,5.171875 9.6756755,4.84375 10.216216,4.296875 10.756756,3.75 11.081081,3.53125 11.189189,3.53125 c 0.108108,0 0.108108,0 0.324324,0.109375 L 13.027027,4.84375 C 13.351351,4.734375 13.675675,4.515625 14,4.40625 14.108108,3.421875 14.216216,2.765625 14.324324,2.328125 14.432432,2.109375 14.432432,2 14.756756,2 h 2.378379 c 0.108108,0 0.108108,0 0.216216,0.109375 0.108108,0.109375 0.108108,0.109375 0.108108,0.21875 l 0.324324,2.078125 c 0.432433,0.109375 0.648649,0.21875 0.972973,0.4375 l 1.72973,-1.203125 C 20.594594,3.53125 20.594594,3.53125 20.702702,3.53125 c 0.108108,0 0.108108,0 0.216217,0.109375 0.972973,0.875 1.513513,1.53125 1.837837,1.859375 0.108109,0.109375 0.108109,0.109375 0.108109,0.21875 0,0.109375 0,0.109375 -0.108109,0.21875 C 22.648648,6.046875 22.432432,6.375 22.216216,6.59375 22,6.921875 21.783783,7.25 21.567567,7.359375 21.675675,7.796875 21.891892,8.015625 22,8.453125 l 2.054054,0.328125 c 0.108108,0 0.108108,0.109375 0.216216,0.109375 z M 17.891891,12.5 c 0.540541,-0.546875 0.756757,-1.203125 0.756757,-1.96875 0,-0.765625 -0.216216,-1.421875 -0.756757,-1.96875 -0.54054,-0.546875 -1.189189,-0.875 -1.945945,-0.875 -0.756757,0 -1.405406,0.328125 -1.945946,0.875 -0.540541,0.546875 -0.756757,1.203125 -0.756757,1.96875 0,0.765625 0.216216,1.421875 0.756757,1.96875 0.54054,0.546875 1.189189,0.765625 1.945946,0.765625 0.756756,0 1.405405,-0.21875 1.945945,-0.765625 z"
       inkscape:connector-curvature="0" />
    <path
       style="fill:#4285f4;fill-opacity:1;stroke-width:1.0873971"
       id="path4"
       d="M 29.135135,6.375 C 28.702702,5.9375 28.162162,5.71875 27.513513,5.71875 h -4.216216 v 0.109375 c 0,0.109375 0,0.328125 -0.216216,0.546875 C 22.972973,6.484375 22.864865,6.59375 22.756756,6.8125 22.648648,6.921875 22.54054,7.03125 22.54054,7.140625 22.432432,7.359375 22.324324,7.46875 22.216216,7.6875 h 5.297297 c 0.108108,0 0.216216,0 0.324325,0.109375 0.108108,0.109375 0.108108,0.21875 0.108108,0.328125 v 12.140625 c 0,0.109375 0,0.21875 -0.108108,0.328125 -0.108109,0.109375 -0.216217,0.109375 -0.324325,0.109375 H 4.378378 c -0.108108,0 -0.2162161,0 -0.3243242,-0.109375 C 3.9459456,20.484375 3.9459456,20.375 3.9459456,20.265625 v -12.25 c 0,-0.109375 0,-0.21875 0.1081081,-0.328125 C 4.1621618,7.578125 4.2702699,7.578125 4.378378,7.578125 H 9.6756755 L 9.5675674,7.46875 C 9.3513512,7.03125 9.0270269,6.703125 8.8108106,6.375 8.4864863,6.15625 8.4864863,5.828125 8.4864863,5.71875 V 5.609375 H 4.378378 c -0.6486485,0 -1.1891891,0.21875 -1.6216215,0.65625 -0.4324325,0.546875 -0.7567568,1.09375 -0.7567568,1.75 v 15.96875 c 0,0.65625 0.2162162,1.203125 0.6486487,1.640625 0.4324324,0.4375 0.972973,0.65625 1.6216216,0.65625 h 7.891892 c 0,0.328125 -0.108108,0.765625 -0.216217,1.09375 -0.108108,0.4375 -0.324324,0.765625 -0.432432,0.984375 -0.108108,0.328125 -0.216216,0.546875 -0.216216,0.65625 0,0.21875 0.108108,0.4375 0.324324,0.65625 C 11.837837,29.890625 12.054054,30 12.27027,30 h 7.459459 c 0.216217,0 0.432433,-0.109375 0.648649,-0.328125 0.216216,-0.21875 0.324324,-0.4375 0.324324,-0.65625 0,-0.109375 -0.108108,-0.328125 -0.216216,-0.65625 -0.108108,-0.328125 -0.324324,-0.65625 -0.432432,-1.09375 -0.108108,-0.4375 -0.216217,-0.765625 -0.216217,-1.09375 h 7.891892 c 0.648649,0 1.18919,-0.21875 1.621622,-0.65625 C 29.783784,25.078125 30,24.53125 30,23.875 V 8.015625 C 29.891892,7.359375 29.567567,6.8125 29.135135,6.375 Z"
       inkscape:connector-curvature="0" />
  </g>
</svg>
