<svg height="32" viewBox="0 0 32 32" width="32" xmlns="http://www.w3.org/2000/svg"><g fill="#1e90ff" stroke="#1e90ff" stroke-linecap="round" stroke-width="1.8213" transform="matrix(1.002153 0 0 .9952124 -.039681 .049768)"><path d="m14.120835 17.554412c-1.024266-.939813-1.493624-1.377103-1.81649-1.674526a1.0687994 1.0083645 0 0 1 -.195127-1.180295 1.2164625 1.147678 0 0 1 .205088-.255408l.918793-.845279a1.0934099 1.0315834 0 0 1 .329898-.213946 1.0611819 1.0011777 0 0 1 1.171929.200125c.319351.292448.904143.829247 1.957708 1.797808m2.881773 2.575088c2.399525 2.106288 5.310012 4.603427 6.445611 5.495697a.78870835.74411106 0 0 1 .05508 1.10124l-1.95595 1.844799a.82035044.77396396 0 0 1 -1.188921-.042015c-.9686-1.060331-3.579658-3.710052-5.816871-5.915296" stroke-linejoin="round"/><path d="m26.582544 12.03218a1.5920658 1.5020429 0 0 1 -2.244244 0l-1.317249-1.243318a1.5908939 1.5009373 0 0 1 0-2.1167916l2.981974-2.813359a.04980699.04699067 0 0 0 -.015235-.0762908c-1.924308-.7772809-4.419931-.3820065-6.004379 1.1023458-1.516477 1.4202239-1.602613 3.5530476-1.047119 5.4177476a1.5821044 1.4926448 0 0 1 -.449435 1.500385l-10.1371874 8.887317a2.3883917 2.2533408 0 1 0 3.3733984 3.180992l9.501416-9.580568a1.5821044 1.4926448 0 0 1 1.568627-.42568c1.960638.494231 4.189061.401355 5.687958-.99178 1.610817-1.497067 1.958294-4.142918 1.177789-5.6571235a.04980699.04699067 0 0 0 -.07969-.012162z" stroke-miterlimit="10"/><path d="m2.0112905 12.551288 1.7233219-1.588837a.27598933.26038359 0 0 1 .1998139-.07463.28419283.26812323 0 0 1 .1998139.07463.5777611.54509176 0 0 0 .479905.153134c.2244245-.02322.464084-.08845.6193646-.227766.3515788-.320643-.055081-.9525289.2543086-1.3566486a12.129467 11.44361 0 0 1 1.159038-1.249399c.3515788-.3250649 1.7485184-1.5656185 4.0958926-2.4573356a6.2879861 5.9324338 0 0 1 2.362609-.4323141c1.323694 0 2.343859.5528314 2.710672.8662868a5.246727 4.9500524 0 0 1 .602372.6434957 4.6244326 4.3629454 0 0 0 -.539673-.1531343 4.0326084 3.8045857 0 0 0 -1.171929-.0696567c-.781091.060259-1.723322.4013556-2.226666.7739639-.814491.6081146-1.164312 1.4218824-1.219392 2.4717092-.03985.7805977.159382 1.2217577 2.115332 3.0676617a.38673664.36486872 0 0 1 -.01992.506393l-1.067627.995097a.40314364.380348 0 0 1 -.559011.005c-1.285609-1.212937-2.1475629-1.829344-2.6368433-2.109629-.4892805-.280286-.8830487-.359341-1.0723153-.37869a1.8077008 1.7054849 0 0 0 -1.0705573.213946.66741368.62967496 0 0 0 -.1546946.110566.82855394.7817036 0 0 0 .02461 1.110086l.1001999.08845a.27130161.25596094 0 0 1 0 .36708l-1.721564 1.586073a.27598933.26038359 0 0 1 -.1998139.0774.2847788.26867606 0 0 1 -.1998139-.07463l-2.7874331-2.566799a.28595072.26978172 0 0 1 0-.371503z" stroke-linejoin="round"/></g></svg>