<svg viewBox="0 0 32 32" xmlns="http://www.w3.org/2000/svg"><path d="m20.63035 14.57627v2.966102c0 .118645 0 .237289-.108952.355933-.108953.118643-.108953.118643-.2179.118643l-2.287937.355933c-.108953.355932-.217899.830509-.435798 1.18644.326848.474577.762646 1.067797 1.307393 1.779662.108953.118644.108953.237287.108953.355932 0 .118644 0 .237288-.108953.355932-.217899.355932-.653697.830509-1.198444 1.423729s-.980544.949152-1.198444.949152c-.108952 0-.217898 0-.326847-.118643l-1.634241-1.423729c-.326849.237287-.762647.355932-1.089495.474576-.108952 1.18644-.217899 2.016949-.326848 2.491525-.108953.237288-.217899.355932-.435798.355932h-2.7237358c-.108952 0-.217898 0-.326847-.118644-.108953-.118644-.108953-.118644-.108953-.237288l-.326842-2.372881c-.326848-.118644-.653696-.237288-1.0894941-.474577l-1.7431905 1.305086c-.1089492 0-.2178989.118643-.3268483.118643-.1089492 0-.2178988 0-.3268482-.118643-1.4163424-1.423729-2.0700389-2.254238-2.0700389-2.491526 0-.118644 0-.237289.1089491-.355932.1089492-.118644.3268483-.474577.5447471-.830509.2178989-.355932.5447471-.830508.7626459-1.067797-.2178988-.474576-.4357976-.949151-.544747-1.305084l-2.1789884-.355932c-.1089492 0-.2178988-.118644-.2178988-.118644-.1089492-.118644-.1089492-.237289-.1089492-.355933v-2.966102c0-.118643 0-.237287.1089492-.355931.1089492-.118645.1089492-.118645.2178988-.118645l2.1789886-.355931c.1089494-.355933.2178988-.830509.4357977-1.186442-.3268483-.474576-.762646-1.067796-1.307393-1.779661-.1089495-.118644-.1089495-.237288-.1089495-.355932 0-.118645 0-.237288.1089492-.3559318.2178989-.3559328.6536965-.8305087 1.1984436-1.4237287.5447471-.5932204.9805448-.9491526 1.1984436-.9491526.1089492 0 .2178988.1186441.3268482.1186441l1.6342412 1.4237285c.3268482-.2372882.6536967-.3559324 1.0894947-.4745755.108953-1.1864411.217899-2.0169496.326848-2.4915259.108952-.2372881.217899-.3559322.435798-.3559322h2.8326838c.108953 0 .2179 0 .326849.1186441.108952.1186441.108952.1186441.108952.2372881l.326849 2.3728814c.326848.1186445.653696.2372876 1.089494.4745761l1.743191-1.3050846c.108952-.1186441.217898-.1186441.326847-.1186441.108953 0 .2179 0 .326849.1186441 1.416343 1.4237285 2.070039 2.2542372 2.070039 2.491524 0 .118645 0 .237289-.108952.355933-.108953.118644-.326849.474576-.653698.830509-.326847.355932-.544747.711865-.653696.949152.217899.474577.435798.949153.544747 1.305086l2.178988.355931c.108953 0 .2179.118645.2179.118645.108952.237288.108952.355931.108952.474575zm-6.754864 4.271187c.762646-.830509 1.089494-1.779661 1.089494-2.847458 0-1.067796-.326848-2.135593-1.089494-2.847457-.762646-.830509-1.634242-1.186441-2.614786-1.186441-.980545 0-1.9610888.355932-2.6147858 1.186441-.7626459.830508-1.0894942 1.779661-1.0894942 2.847457 0 1.067797.3268483 2.135593 1.0894942 2.847458.762646.830509 1.6342408 1.186441 2.6147858 1.186441.980544 0 1.961089-.355932 2.614786-1.186441zm16.124514-12.1016945v2.2542371c0 .1186439-.762646.3559324-2.178989.4745755-.108952.2372886-.217898.5932209-.435798.8305089.544748 1.186441.762647 1.898306.762647 2.135593 0 0 0 .118644-.108952.118644-1.198444.711865-1.743191 1.186441-1.85214 1.186441-.108953 0-.326849-.237288-.653696-.711865-.326849-.474576-.653697-.830507-.762647-1.067796h-.871595c-.108952.237289-.435798.59322-.762646 1.067796-.326848.474577-.544747.711865-.653696.711865 0 0-.653697-.355932-1.85214-1.186441l-.108953-.118644c0-.237287.217899-.949152.762646-2.135593-.217893-.237288-.326843-.5932203-.435793-.8305089-1.416341-.1186431-2.178988-.3559316-2.178988-.4745755v-2.2542371c0-.1186441.762647-.3559322 2.178988-.4745763.108953-.3559322.2179-.5932203.435798-.8305084-.544747-1.1864408-.762645-1.8983052-.762645-2.1355932 0 0 0-.1186442.108952-.1186442 0 0 .217899-.118644.544747-.3559322.326848-.237288.544748-.3559321.871595-.5932202l.435795-.2372882c.108952 0 .326848.2372882.653696.7118644.326849.4745762.653697.8305084.762647 1.0677966h.871594c.544747-.7118644.980545-1.3050847 1.307394-1.779661h.108952s.653697.3559322 1.85214 1.0677966l.108953.118644c0 .2372882-.2179.9491526-.762647 2.1355933.2179.2372881.326849.4745762.435798.8305084 1.416337.2372882 2.178983.4745763 2.178983.5932204zm0 16.2542365v2.254238c0 .118644-.762646.355932-2.178989.474577-.108952.237287-.217898.59322-.435798.830507.544748 1.186442.762647 1.898306.762647 2.135593 0 0 0 .118645-.108952.118645-1.198444.711864-1.743191 1.186441-1.85214 1.186441-.108953 0-.326849-.237289-.653696-.711864-.326849-.474577-.653697-.830509-.762647-1.067798h-.871595c-.108952.237289-.435798.593221-.762646 1.067798-.326848.474575-.544747.711864-.653696.711864 0 0-.653697-.355933-1.85214-1.186441l-.108953-.118645c0-.237287.217899-.949151.762646-2.135593-.217899-.237287-.326849-.59322-.435798-.830507-1.416342-.118645-2.178988-.355933-2.178988-.474577v-2.254238c0-.118643.762646-.355932 2.178988-.474576.108952-.355931.217899-.59322.435798-.830508-.544747-1.186441-.762646-1.898305-.762646-2.135594 0 0 0-.118644.108953-.118644 0 0 .217898-.118643.544747-.355932.326848-.237288.544747-.355932.871595-.59322l.435798-.237288c.108952 0 .326848.237288.653696.711864s.653697.830509.762646 1.067797h.871595c.544747-.711864.980545-1.305085 1.307394-1.779661h.108952s.653696.355933 1.85214 1.067797l.108952.118643c0 .237289-.217899.949153-.762646 2.135593.217899.237289.326848.474577.435798.830509 1.416339.237288 2.178985.474577 2.178985.59322zm-3.81323-15.1864399c0-.5932204-.217898-1.0677966-.544747-1.4237288s-.762645-.5932204-1.307393-.5932204c-.544747 0-.980545.2372882-1.307393.5932204-.326848.4745762-.544747.9491525-.544747 1.4237288 0 .5932204.217899 1.0677962.544747 1.4237287.326848.3559316.762646.5932201 1.307393.5932201.544748 0 .980544-.2372885 1.307393-.5932201.435798-.3559325.544747-.8305083.544747-1.4237287zm0 16.3728809c0-.59322-.217898-1.067797-.544747-1.423728-.326849-.355933-.762645-.59322-1.307393-.59322-.544747 0-.980545.237287-1.307393.59322-.326848.355931-.544747.830508-.544747 1.423728 0 .593221.217899 1.067797.544747 1.423729s.762646.59322 1.307393.59322c.544748 0 .980544-.237288 1.307393-.59322.435798-.474577.544747-.949153.544747-1.423729z" fill="#4285f4" stroke-width="1.136935"/></svg>