<svg xmlns="http://www.w3.org/2000/svg" viewBox="0 0 32 32">
  <path fill="#375273" d="M30.5 22v2.2c0 .1 0 .1-.1.2s-.1.1-.2.1l-1.8.3c-.1.4-.3.6-.4.9.2.4.6.8 1.1 1.3.1.1.1.1.1.2s0 .1-.1.2c-.2.2-.5.6-1 1.1-.5.5-.8.7-.9.7-.1 0-.1 0-.3-.1L25.6 28c-.3.1-.6.3-.9.4-.1.9-.2 1.5-.3 1.8-.1.2-.1.3-.4.3h-2.2c-.1 0-.1 0-.2-.1s-.1-.1-.1-.2l-.3-1.8c-.4-.1-.6-.2-.9-.4l-1.4 1.1c-.1.1-.1.1-.2.1s-.1-.1-.2-.1l-1.6-1.6c-.1-.1-.1-.1-.1-.2s0-.1.1-.2.3-.4.5-.6c.2-.3.4-.6.6-.7-.2-.4-.3-.6-.4-1l-1.8-.3c-.1 0-.1-.1-.2-.1-.1-.1-.1-.1-.1-.2V22c0-.1 0-.1.1-.2s.1-.1.2-.1l1.8-.3c.1-.3.2-.6.4-.9-.3-.4-.6-.8-1.1-1.3-.1-.1-.1-.1-.1-.2s0-.1.1-.2c.1-.3.5-.6 1-1.1.5-.5.8-.7.9-.7.1 0 .1 0 .3.1l1.3 1.1c.3-.1.6-.3.9-.4.1-.9.2-1.5.3-1.8.1-.2.1-.3.4-.3h2.2c.1 0 .1 0 .2.1s.1.1.1.2l.3 1.8c.4.1.6.2.9.4l1.4-1.1c.1-.1.1-.1.2-.1s.1 0 .2.1c.8.8 1.4 1.3 1.6 1.7.1.1.1.1.1.2s0 .1-.1.2-.3.4-.5.6c-.2.3-.4.6-.6.7.1.4.3.6.4 1l1.8.3c.1 0 .1.1.2.1.1-.1.1 0 .1.1zm-5.7 2.8c.5-.5.7-1.1.7-1.8s-.2-1.3-.7-1.8-1.1-.7-1.8-.7-1.3.2-1.8.7-.7 1.1-.7 1.8.2 1.3.7 1.8c.5.5 1.1.7 1.8.7s1.3-.2 1.8-.7z"/>
  <path d="M16.5 26.7l.3-.3c.1-.1.2-.2.2-.3.1-.2.2-.3.4-.5-.1-.2-.1-.3-.2-.5l-1.5-.2c-.2 0-.4-.2-.5-.3-.2-.2-.2-.4-.2-.5v-2.2c0-.1 0-.3.2-.6.1-.1.3-.3.6-.3h.1s-.1-.1-.2-.1l-.3-.3c0-.1-.1-.1-.1-.2-.1-.1-.1-.2-.2-.3 0-.1-.1-.2-.1-.3v-.1c-.2.1-.5 0-.9-.2l-.4-.4c-.1-.2-.3-.3-.5-.3 0 0-.1.1-.2.1h-.3c-.1 0-.2-.1-.3-.1s-.2-.1-.4-.2c-.1-.1-.2-.2-.3-.2 0 0-.1 0-.2-.1-.1 0-.2-.1-.3-.1 0-.1-.1-.2-.2-.2s-.2-.1-.2-.2c0 0-.1-.2-.1-.4 0-.3 0-.4.1-.5-.1-.2-.2-.3-.3-.4-.2-.1-.3-.2-.4-.2.1 0 .1 0 0-.2l-.3-.3-.2-.2.2.2c-.1-.1-.1-.2-.2-.3v-.4c0-.1 0-.1-.1-.1h-.2c0 .1.1.2.1.3 0 .1.1.2.1.3 0 0 .1.2.3.5.3.5.4.8.4 1 0 .1-.1 0-.1 0-.1-.1-.1-.1-.1-.2v-.2c-.1 0-.2-.1-.3-.2-.2-.1-.3-.2-.3-.3s-.1-.2-.2-.4c-.2-.2-.2-.3-.2-.4-.1-.1-.2-.2-.3-.4-.1-.2-.2-.3-.2-.4l-.2-.2c0-.1-.1-.1-.3-.4-.1 0-.2-.1-.2-.1 0-.1 0-.1-.1-.2-.4-.5-.5-.7-.4-.7-.2.1-.3 0-.4-.3.1-.1.1-.3.1-.4v-.9c.1-.2.1-.3.2-.3-.1 0-.2 0-.2-.2v-.3c.1 0 .1 0 .2.1.1.2.2.3.2.3.2-.1.2-.2.2-.3 0-.1-.2-.2-.4-.4-.5-.3-.7-.4-.7-.4.1-.1.1-.2-.1-.4-.1.1-.2.1-.2.1v-.2c0-.1-.1-.2-.1-.2s-.1.1-.2 0c1-1.5 2.3-2.7 3.8-3.6h.4c.1.1.2.1.3 0 .1.1.2.1.3.2l.2.2s0-.2-.1-.3c0-.1.2-.1.4-.2s.4 0 .5 0l-.4-.4-.1.1c-.1-.1-.4-.1-.7.1 0 0-.1 0-.2.1-.1 0-.1.1-.2.1h-.2c.5-.3 1.1-.5 1.5-.6l.2.2.2.2c-.1-.1-.1 0-.1 0v.4s.1.1.2.1h.9c.4 0 .5 0 .4.1 0 .1.1.2.1.3.1.1.1.2.2.3v-.6c0-.1 0-.1.1-.1s.1-.1.2-.1c.1-.1.2-.1.2-.1.1-.1.1-.2 0-.2-.1-.1-.1-.1-.2-.1-.1-.1-.1-.1-.2-.1s-.1-.1-.2-.1-.1 0-.1-.1c0 0 0-.1.1-.2 0-.1.1-.1.3-.1s.3.1.4.1c.3.1.3.3.3.5.1 0 .2 0 .4.1s.2.2.2.3c.1-.2.2-.3.3-.3-.3-.1-.3 0-.3.1.1.1.1.2.1.2.1.1.2.2.3.1l.3-.3.2-.2c-.1 0-.1-.1 0-.1.2-.1.4-.1.5-.1 0 .1 0 .1.1.2.1.2 0 .3-.1.3.1.1.1.3.1.4 0 .1-.1.2-.3.2-.1 0-.2 0-.3-.1-.2-.1-.2-.1-.3-.1-.1 0-.2 0-.3.1-.1.1-.1.2-.2.3-.1 0-.1.1-.1.1-.2.2-.5.2-.8.2v.1c-.1 0-.1.1-.2.2 0 .1-.1.2-.1.2-.1.1-.2.2-.2.4v.2c0 .1-.1.2-.1.3.1-.1.2 0 .3.2.1.2.1.3 0 .3.4 0 .6 0 .9.1.4.2.5.3.6.5.1-.1.2-.1.5 0 .1-.2.1 0 .2.2 0 .2.1.4.2.5.1.1.3.2.4.1h.1c0-.1.1-.1.1-.1l.1-.1v-.2c-.1-.1-.2-.2-.2-.3-.1-.1-.1-.2 0-.3 0 0 .1-.1.3-.2.2-.1.3-.2.3-.3.1-.2 0-.3-.2-.3-.2-.1-.3-.2-.3-.3 0 0 0-.1.1-.2s.1-.1.1-.2c0 0-.1-.1-.1-.2-.1-.2-.1-.2-.1-.3 0-.1 0-.1.1-.2s.3-.1.5 0c.3.1.5.1.5.2 0 0 .1.1.2.1.1.1.2.1.3.2l.2.2h-.1c.1.1.2.2.2.3.1.1 0 .2-.1.2.1 0 .2.1.3.1.2.1.2.1 0 .2h.2c.1-.1.2-.1.2-.1l.1-.1.1-.1h.2s.1 0 .1-.1.1-.1.1-.2.1-.1.1-.1h.1c.1 0 .1.1.1.1.1 0 .1.1.1.1v.1l.2.2c.1.1.2.1.2.2s.1.2.1.3c0 .1 0 .2.1.3.1 0 .2.1.3.1h.4c.1 0 .1 0 .1.1.1 0 .1-.1.1-.1 0 .2 0 .3.1.4.1.1.2.1.3.1v.4c-.1 0-.2.1-.3.1-.2 0-.3.1-.3.1-.1 0-.2.1-.3.2-.4 0-.4.1-.4.1-.2-.2-.5-.3-.8-.2-.4.1-.6.1-.8.2-.2.1-.3.2-.4.3 0 0-.1 0-.1.1s-.1.1-.1.2l.1-.1.2-.2c.3-.2.5-.3.7-.3.2.1.3.2.1.3h-.4c.1 0 .2.1.3.1.1.1.1.1.1.2.2.1.2.3.1.4-.2.2-.4.2-.5.2v.1l-.3.2s-.1.1-.2.1c-.2.1-.3.1-.3.2-.1 0-.1.1-.1.2v.2h-.1c0 .1-.1.2-.3.2-.2.1-.3.1-.4.2.1.1.1.2 0 .3-.2.2-.3.1-.4 0 0 0-.1.1-.1.2s0 .2-.1.2c.1.1.1.2 0 .3h.1l.1.1.1.1c-.1.1-.1.2-.2.2 0 .2 0 .4-.3.5 0 0-.1.1-.2.1s-.2.1-.3.1c0 .1-.1.1-.1.1-.2.1-.2.2-.3.3v.3c0 .1.1.2.3.2v.4-.4.5c0 .1-.1.2-.1.2h-.2c-.1-.1-.2-.3-.3-.7 0-.1-.1-.2-.2-.4-.1 0-.2.1-.2.1h-.1l-.1-.1-.1-.1s-.2-.1-.3-.1c-.2 0-.3-.1-.3-.1-.3.2-.4.1-.5-.2v.4c-.1.1-.2.1-.4 0-.1 0-.2-.1-.5 0h-.5l.1.1.1.1c-.1 0-.1.1-.1.1h-.3c-.1 0-.1.1-.2.2l-.2.2c.1.2.1.3.1.4-.1.1-.1.2-.1.4v.5c0 .2.1.4.2.6.1.2.2.4.4.5.1.1.2.1.4.1h.4c.1 0 .2-.1.2-.1s0-.1.1-.2.1-.2.1-.2c.1-.3.3-.4.5-.4.1-.1.2 0 .3 0 .1.1.1.1.1.2 0 0-.1.1-.1.2s0 .2-.1.3c-.1.1-.1.2-.1.2-.1.1-.1.2-.1.4v.3h.3v-.2c.1.1.2.2.3.2.1.1.2 0 .3-.1 0 .1.1.2.2.3.1.2.2.3.2.4 0 0 .1.1.1.2v.2c0 .1-.1.1-.2.1s-.1.1-.1.1v.3c0 .1.1.1.1.2v.1c.1.1.1.2.2.3l1.2-.2c0-.1.1-.3.2-.4 0-.1-.1-.1-.1-.2-.2-.3-.4-.6-.7-.9-.2-.2-.2-.4-.2-.5 0-.1 0-.3.2-.5.2-.3.5-.7 1.1-1.1.6-.6.9-.8 1.2-.8.1 0 .3 0 .5.1l.1.1 1.1.9c.1-.1.2-.1.4-.2.1-.6.2-1 .2-1.4v-.2c.1-.3.3-.7.8-.7h2.2c.1 0 .3 0 .6.2.1.1.1.2.2.2l.1.1v.1l.2 1.5c.1 0 .3.1.4.2l1.2-.9c.1-.1.1-.1.2-.1.1-.6.1-1.1.1-1.7 0-2.3-.5-4.3-1.6-6.2s-2.5-3.9-4.4-5-4-1.6-6.2-1.6-4.3.5-6.2 1.6S5 6.5 3.9 8.4s-1.6 4-1.6 6.2.5 4.3 1.6 6.2 2.6 3.4 4.5 4.5 4 1.6 6.2 1.6c.6 0 1.1 0 1.7-.1.1.1.1 0 .2-.1zM18.8 11s0 .1 0 0c0 .1 0 .1 0 0z" fill="#375273"/>
</svg>
