<?xml version="1.0" encoding="UTF-8" standalone="no"?>
<svg
   width="32"
   height="32"
   version="1.1"
   id="svg8"
   sodipodi:docname="qbittorrent-tray-dark.svg"
   inkscape:version="1.1 (c4e8f9ed74, 2021-05-24)"
   xmlns:inkscape="http://www.inkscape.org/namespaces/inkscape"
   xmlns:sodipodi="http://sodipodi.sourceforge.net/DTD/sodipodi-0.dtd"
   xmlns="http://www.w3.org/2000/svg"
   xmlns:svg="http://www.w3.org/2000/svg">
  <defs
     id="defs12" />
  <sodipodi:namedview
     id="namedview10"
     pagecolor="#ffffff"
     bordercolor="#666666"
     borderopacity="1.0"
     inkscape:pageshadow="2"
     inkscape:pageopacity="0.0"
     inkscape:pagecheckerboard="0"
     showgrid="false"
     inkscape:zoom="16.90625"
     inkscape:cx="26.173752"
     inkscape:cy="13.426987"
     inkscape:window-width="1366"
     inkscape:window-height="705"
     inkscape:window-x="0"
     inkscape:window-y="0"
     inkscape:window-maximized="1"
     inkscape:current-layer="svg8" />
  <g
     id="g23"
     transform="matrix(0.99887426,0,0,1.0011484,-0.37992214,-0.01850315)">
    <g
       id="g17"
       transform="matrix(1.0001941,0,0,0.99783503,0.40598571,0.04350232)">
      <path
         d="M 29.946,15.942 C 30.3,25.147 20.072,32.456 11.477,29.139 2.972,26.57 -0.808,15.209 4.474,8.062 9.374,0.261 21.943,-0.006 27.169,7.582 a 13.97,13.97 0 0 1 2.777,8.36 z"
         opacity="0.95"
         fill="none"
         stroke="#f5f5f5"
         stroke-width="2.093"
         id="path2" />
      <g
         style="line-height:125%"
         id="g6">
        <path
           d="m 12.758,26.311 v -5.725 c -0.282,0.433 -0.679,0.792 -1.19,1.079 a 3.216,3.216 0 0 1 -1.613,0.43 c -1.27,0 -2.366,-0.555 -3.287,-1.663 -0.914,-1.109 -1.371,-2.628 -1.371,-4.559 0,-1.174 0.185,-2.227 0.555,-3.16 0.376,-0.932 0.917,-1.636 1.623,-2.114 a 4.074,4.074 0 0 1 2.34,-0.726 c 1.323,0 2.365,0.609 3.125,1.827 v -1.563 h 1.633 V 26.311 H 12.758 M 7.162,15.951 c 0,1.504 0.29,2.635 0.867,3.39 0.579,0.75 1.27,1.124 2.078,1.124 0.773,0 1.438,-0.356 1.996,-1.068 0.558,-0.72 0.837,-1.81 0.837,-3.27 0,-1.557 -0.296,-2.727 -0.887,-3.513 -0.585,-0.785 -1.274,-1.178 -2.067,-1.178 -0.787,0 -1.456,0.367 -2.007,1.101 -0.544,0.727 -0.817,1.865 -0.817,3.413 M 19.1,21.83 H 17.417 V 5.689 h 1.815 v 5.758 c 0.766,-1.05 1.744,-1.574 2.934,-1.574 0.658,0 1.28,0.147 1.865,0.44 a 3.768,3.768 0 0 1 1.452,1.222 c 0.383,0.521 0.682,1.153 0.897,1.894 0.215,0.741 0.323,1.534 0.323,2.378 0,2.004 -0.454,3.553 -1.361,4.647 -0.908,1.093 -1.997,1.64 -3.267,1.64 -1.264,0 -2.255,-0.576 -2.974,-1.728 v 1.464 m -0.02,-5.935 c 0,1.402 0.174,2.415 0.524,3.04 0.571,1.02 1.344,1.53 2.319,1.53 0.793,0 1.479,-0.375 2.057,-1.123 0.578,-0.756 0.867,-1.88 0.867,-3.37 0,-1.526 -0.28,-2.653 -0.837,-3.38 -0.551,-0.726 -1.22,-1.09 -2.007,-1.09 -0.793,0 -1.478,0.378 -2.057,1.134 -0.578,0.75 -0.867,1.835 -0.867,3.26"
           style="-inkscape-font-specification:Arial;text-align:center"
           font-size="21.579px"
           font-weight="400"
           letter-spacing="0"
           word-spacing="0"
           fill="#fafafa"
           font-family="Arial"
           text-anchor="middle"
           id="path4" />
      </g>
    </g>
  </g>
</svg>
