<svg height="1024" viewBox="0 0 1024 1024" width="1024" xmlns="http://www.w3.org/2000/svg" xmlns:xlink="http://www.w3.org/1999/xlink"><defs><path id="a" d="m824 256.627066c0-9.781965 0-19.564929-.056099-29.347893-.048999-8.24097-.143999-16.47994-.367997-24.71691-.483996-17.952935-1.542989-36.059869-4.735965-53.812805-3.237976-18.008934-8.525937-34.769873-16.858875-51.1328134-8.19194-16.0829414-18.89286-30.7998879-31.660766-43.5588414-12.764905-12.7589536-27.485796-23.4529146-43.574677-31.6398848-16.379879-8.3349697-33.158755-13.62095043-51.187621-16.85793864-17.754869-3.1879884-35.866735-4.24498455-53.819602-4.72998278-8.242939-.22299919-16.485878-.31699885-24.730817-.36799866-9.787928-.05999978-19.575855-.0549998-29.363783-.0549998l-113.647158-.40699852h-84.999371l-111.636174.40699852c-9.806927 0-19.613855-.00499998-29.420782.0549998-8.261939.05099981-16.519878.14499947-24.778817.36799866-17.994867.48499823-36.147732 1.54299438-53.9446 4.73498276-18.052867 3.23598822-34.856742 8.51996896-51.2586211 16.84893866-16.1228806 8.1879702-30.8757714 18.8829312-43.6676768 31.6438848-12.7899053 12.7579535-23.5108259 27.4719-31.7177652 43.5518414-8.3559381 16.3709404-13.65389892 33.1418794-16.89987489 51.1608134-3.19597634 17.745936-4.25496851 35.84687-4.7419649 53.791805-.22199836 8.23797-.31799765 16.47694-.36799728 24.71691-.05999955 9.783964-.56299583 21.93692-.56299583 31.719884v110.089599 85.909687l.50799624 112.428591c0 9.795964-.00399997 19.591929.05499959 29.387893.04999963 8.25197.14599892 16.50194.36899727 24.75091.4859964 17.975935 1.54698855 36.108869 4.74596487 53.885804 3.24497598 18.032934 8.54193673 34.817873 16.89087493 51.201813 8.2079393 16.105942 18.9308599 30.841888 31.7217652 43.618842 12.7909054 12.776953 27.5397962 23.484914 43.6596769 31.683884 16.411878 8.34597 33.223754 13.638951 51.28762 16.879939 17.788869 3.192988 35.935734 4.251984 53.923601 4.736983 8.258939.222999 16.517878.317998 24.779817.367998 9.806927.059 19.612855.059 29.419782.059h112.645166 85.21037 112.427167c9.787928 0 19.575855 0 29.363783-.059 8.244939-.05 16.487878-.144999 24.730817-.367998 17.959867-.485999 36.077733-1.545995 53.840601-4.740983 18.017867-3.240988 34.788743-8.531969 51.159622-16.872939 16.091881-8.19797 30.815772-18.907931 43.581677-31.686884 12.765906-12.774954 23.465826-27.5089 31.657766-43.611842 8.337938-16.39194 13.625899-33.184879 16.865875-51.229813 3.189976-17.769935 4.247969-35.895869 4.732965-53.864804.222998-8.24997.317998-16.49994.366997-24.75091.056099-9.795964.056099-19.591929.056099-29.387893 0 0 0-110.443598 0-112.428591v-85.999686c0-1.465995 0-112.371591 0-112.371591"/><filter id="b" height="104.9%" width="104.9%" x="-2.4%" y="-1.2%"><feOffset dx="0" dy="10" in="SourceAlpha" result="shadowOffsetOuter1"/><feGaussianBlur in="shadowOffsetOuter1" result="shadowBlurOuter1" stdDeviation="5"/><feColorMatrix in="shadowBlurOuter1" type="matrix" values="0 0 0 0 0   0 0 0 0 0   0 0 0 0 0  0 0 0 0.3 0"/></filter><linearGradient id="c" x1="50%" x2="50%" y1="0%" y2="100%"><stop offset="0" stop-color="#fff"/><stop offset="1" stop-color="#fff"/></linearGradient><linearGradient id="d" x1="25.126082%" x2="67.48708%" y1="4.900938%" y2="81.705936%"><stop offset="0" stop-color="#72b3f4"/><stop offset="1" stop-color="#346ebf"/></linearGradient><path id="e" d="m824 256.627066c0-9.781965 0-19.564929-.056099-29.347893-.048999-8.24097-.143999-16.47994-.367997-24.71691-.483996-17.952935-1.542989-36.059869-4.735965-53.812805-3.237976-18.008934-8.525937-34.769873-16.858875-51.1328134-8.19194-16.0829414-18.89286-30.7998879-31.660766-43.5588414-12.764905-12.7589536-27.485796-23.4529146-43.574677-31.6398848-16.379879-8.3349697-33.158755-13.62095043-51.187621-16.85793864-17.754869-3.1879884-35.866735-4.24498455-53.819602-4.72998278-8.242939-.22299919-16.485878-.31699885-24.730817-.36799866-9.787928-.05999978-19.575855-.0549998-29.363783-.0549998l-113.647158-.40699852h-84.999371l-111.636174.40699852c-9.806927 0-19.613855-.00499998-29.420782.0549998-8.261939.05099981-16.519878.14499947-24.778817.36799866-17.994867.48499823-36.147732 1.54299438-53.9446 4.73498276-18.052867 3.23598822-34.856742 8.51996896-51.2586211 16.84893866-16.1228806 8.1879702-30.8757714 18.8829312-43.6676768 31.6438848-12.7899053 12.7579535-23.5108259 27.4719-31.7177652 43.5518414-8.3559381 16.3709404-13.65389892 33.1418794-16.89987489 51.1608134-3.19597634 17.745936-4.25496851 35.84687-4.7419649 53.791805-.22199836 8.23797-.31799765 16.47694-.36799728 24.71691-.05999955 9.783964-.56299583 21.93692-.56299583 31.719884v110.089599 85.909687l.50799624 112.428591c0 9.795964-.00399997 19.591929.05499959 29.387893.04999963 8.25197.14599892 16.50194.36899727 24.75091.4859964 17.975935 1.54698855 36.108869 4.74596487 53.885804 3.24497598 18.032934 8.54193673 34.817873 16.89087493 51.201813 8.2079393 16.105942 18.9308599 30.841888 31.7217652 43.618842 12.7909054 12.776953 27.5397962 23.484914 43.6596769 31.683884 16.411878 8.34597 33.223754 13.638951 51.28762 16.879939 17.788869 3.192988 35.935734 4.251984 53.923601 4.736983 8.258939.222999 16.517878.317998 24.779817.367998 9.806927.059 19.612855.059 29.419782.059h112.645166 85.21037 112.427167c9.787928 0 19.575855 0 29.363783-.059 8.244939-.05 16.487878-.144999 24.730817-.367998 17.959867-.485999 36.077733-1.545995 53.840601-4.740983 18.017867-3.240988 34.788743-8.531969 51.159622-16.872939 16.091881-8.19797 30.815772-18.907931 43.581677-31.686884 12.765906-12.774954 23.465826-27.5089 31.657766-43.611842 8.337938-16.39194 13.625899-33.184879 16.865875-51.229813 3.189976-17.769935 4.247969-35.895869 4.732965-53.864804.222998-8.24997.317998-16.49994.366997-24.75091.056099-9.795964.056099-19.591929.056099-29.387893 0 0 0-110.443598 0-112.428591v-85.999686c0-1.465995 0-112.371591 0-112.371591"/><mask id="f" fill="#fff"><use fill="#fff" fill-rule="evenodd" xlink:href="#a"/></mask></defs><g fill="none" fill-rule="evenodd" transform="translate(100 100)"><use fill="#000" filter="url(#b)" xlink:href="#a"/><use fill="#fff" fill-rule="evenodd" xlink:href="#a"/><g mask="url(#f)"><use fill="url(#c)" xlink:href="#e"/><use fill="url(#d)" stroke="#daefff" stroke-width="64" xlink:href="#e"/></g><g mask="url(#f)"><g transform="translate(154 172)"><path d="m404.594413 136.280703c-26.40678 0-45.434551 7.611561-57.084823 22.833929-11.650273 15.067585-17.475409 40.542645-17.475409 76.424426 0 35.881782 5.980675 61.59015 17.941268 77.123594 11.960594 15.377906 31.143904 23.066482 57.549929 23.066482 23.767159 0 41.47512-8.62105 53.125392-25.863151 11.649517-17.397639 17.474653-42.327561 17.474653-74.792784 0-33.242161-5.825136-58.018054-17.474653-74.32768-11.650272-16.309626-29.66931-24.464816-54.056357-24.464816m5.591829-32.3867c33.552482 0 59.571171 11.494734 78.056068 34.483447 18.639681 22.834684 27.958388 55.221384 27.958388 97.161608 0 41.940225-9.397231 74.560232-28.19245 97.860777-18.639681 23.145006-44.579846 34.716754-77.822006 34.716754-16.620703 0-31.843826-3.029222-45.667859-9.086911-13.670005-6.213226-25.163984-15.688982-34.484202-28.426513h-2.795914l-8.154436 32.853315h-27.728855v-362.54922193h38.679205v88.07545363c0 19.7269383-.621398 37.4348993-1.864194 53.1238823h1.864949c18.018283-25.475061 44.735384-38.212591 80.151306-38.212591" fill="#fff"/><path d="m105.648203 368.116438c-32.9303291 0-58.637942-11.571748-77.1228392-34.715999-18.4848972-23.145761-27.72734576-55.455447-27.72734576-96.929812 0-41.783931 9.32021776-74.403938 27.96065326-97.860021 18.6396804-23.455328 44.5798457-35.182614 77.8220057-35.182614 34.949307 0 61.822702 13.202635 80.617921 39.609415h2.097502l5.591828-34.950061h30.52326v370.005245h-38.67845v-109.276986c0-15.533445.85395-28.736835 2.563362-39.61017h-3.029222c-17.863499 25.94092-44.736139 38.911003-80.618675 38.911003zm5.825136-32.3867c25.785382 0 44.581355-6.912394 56.386411-20.737182 11.805055-13.824789 18.096051-37.124578 18.872988-69.900123v-8.621806c0-35.726243-6.057689-61.433856-18.173821-77.122838-12.116132-15.688228-31.299441-23.533097-57.551438-23.533097-22.6791464 0-40.0760305 8.854358-52.1921626 26.562318-11.9613488 17.552423-17.9412681 42.406085-17.9412681 74.560232 0 32.154902 5.9029052 56.697488 17.7087157 73.627757 11.9598387 16.776241 29.5900303 25.164739 52.890575 25.164739z" fill="#c8e8ff"/></g></g></g></svg>