<svg height="1024" viewBox="0 0 1024 1024" width="1024" xmlns="http://www.w3.org/2000/svg" xmlns:xlink="http://www.w3.org/1999/xlink"><linearGradient id="a" gradientUnits="userSpaceOnUse" x1="348.2829" x2="782.05951" y1="0" y2="786.48322"><stop offset="0" stop-color="#72b4f5"/><stop offset="1" stop-color="#356ebf"/></linearGradient><g fill="none" fill-rule="evenodd" transform="matrix(.99609381 0 0 .99609372 1.999969 2.000015)"><path d="m1008 512a496 496 0 0 1 -496 496 496 496 0 0 1 -496-496 496 496 0 0 1 496-496 496 496 0 0 1 496 496z" fill="url(#a)" stroke="#daefff" stroke-width="32"/><path d="m808.87097 503.66809q0-62.64453-25.92187-98.13281-25.61328-35.79688-70.66797-35.79688-45.05469 0-70.97656 35.79688-25.61329 35.48828-25.61329 98.13281 0 62.64453 25.61329 98.44141 25.92187 35.48828 70.97656 35.48828 45.05469 0 70.66797-35.48828 25.92187-35.79688 25.92187-98.44141zm-193.17969-120.66016q17.89844-30.85937 45.05469-45.67187 27.46485-15.12109 65.42188-15.12109 62.95312 0 102.14453 49.99218 39.5 49.99219 39.5 131.46094 0 81.46875-39.5 131.46094-39.19141 49.99219-102.14453 49.99219-37.95703 0-65.42188-14.8125-27.15625-15.1211-45.05469-45.98047v51.84375h-57.08984v-480.17188h57.08984z" fill="#fff"/><path d="m228.70691 503.66809q0 62.64453 25.61328 98.44141 25.92188 35.48828 70.97656 35.48828 45.05469 0 70.97657-35.48828 25.92187-35.79688 25.92187-98.44141 0-62.64453-25.92187-98.13281-25.92188-35.79688-70.97657-35.79688-45.05468 0-70.97656 35.79688-25.61328 35.48828-25.61328 98.13281zm193.48828 120.66016q-17.89844 30.85937-45.36328 45.98047-27.15625 14.8125-65.42188 14.8125-62.64453 0-102.14453-49.99219-39.1914-49.99219-39.1914-131.46094 0-81.46875 39.1914-131.46094 39.5-49.99218 102.14453-49.99218 38.26563 0 65.42188 15.12109 27.46484 14.8125 45.36328 45.67187v-52.46093h56.78125v477.08593h-56.78125z" fill="#c8e8ff"/></g></svg>