<svg height="1024" viewBox="0 0 1024 1024" width="1024" xmlns="http://www.w3.org/2000/svg" xmlns:xlink="http://www.w3.org/1999/xlink"><defs><path id="a" d="m824 256.627066c0-9.781965 0-19.564929-.056099-29.347893-.048999-8.24097-.143999-16.47994-.367997-24.71691-.483996-17.952935-1.542989-36.059869-4.735965-53.812805-3.237976-18.008934-8.525937-34.769873-16.858875-51.1328134-8.19194-16.0829414-18.89286-30.7998879-31.660766-43.5588414-12.764905-12.7589536-27.485796-23.4529146-43.574677-31.6398848-16.379879-8.3349697-33.158755-13.62095043-51.187621-16.85793864-17.754869-3.1879884-35.866735-4.24498455-53.819602-4.72998278-8.242939-.22299919-16.485878-.31699885-24.730817-.36799866-9.787928-.05999978-19.575855-.0549998-29.363783-.0549998l-113.647158-.40699852h-84.999371l-111.636174.40699852c-9.806927 0-19.613855-.00499998-29.420782.0549998-8.261939.05099981-16.519878.14499947-24.778817.36799866-17.994867.48499823-36.147732 1.54299438-53.9446 4.73498276-18.052867 3.23598822-34.856742 8.51996896-51.2586211 16.84893866-16.1228806 8.1879702-30.8757714 18.8829312-43.6676768 31.6438848-12.7899053 12.7579535-23.5108259 27.4719-31.7177652 43.5518414-8.3559381 16.3709404-13.65389892 33.1418794-16.89987489 51.1608134-3.19597634 17.745936-4.25496851 35.84687-4.7419649 53.791805-.22199836 8.23797-.31799765 16.47694-.36799728 24.71691-.05999955 9.783964-.56299583 21.93692-.56299583 31.719884v110.089599 85.909687l.50799624 112.428591c0 9.795964-.00399997 19.591929.05499959 29.387893.04999963 8.25197.14599892 16.50194.36899727 24.75091.4859964 17.975935 1.54698855 36.108869 4.74596487 53.885804 3.24497598 18.032934 8.54193673 34.817873 16.89087493 51.201813 8.2079393 16.105942 18.9308599 30.841888 31.7217652 43.618842 12.7909054 12.776953 27.5397962 23.484914 43.6596769 31.683884 16.411878 8.34597 33.223754 13.638951 51.28762 16.879939 17.788869 3.192988 35.935734 4.251984 53.923601 4.736983 8.258939.222999 16.517878.317998 24.779817.367998 9.806927.059 19.612855.059 29.419782.059h112.645166 85.21037 112.427167c9.787928 0 19.575855 0 29.363783-.059 8.244939-.05 16.487878-.144999 24.730817-.367998 17.959867-.485999 36.077733-1.545995 53.840601-4.740983 18.017867-3.240988 34.788743-8.531969 51.159622-16.872939 16.091881-8.19797 30.815772-18.907931 43.581677-31.686884 12.765906-12.774954 23.465826-27.5089 31.657766-43.611842 8.337938-16.39194 13.625899-33.184879 16.865875-51.229813 3.189976-17.769935 4.247969-35.895869 4.732965-53.864804.222998-8.24997.317998-16.49994.366997-24.75091.056099-9.795964.056099-19.591929.056099-29.387893 0 0 0-110.443598 0-112.428591v-85.999686c0-1.465995 0-112.371591 0-112.371591"/><filter id="b" height="1.041262" width="1.029126" x="-.014563" y="-.014563"><feOffset dx="0" dy="10" in="SourceAlpha" result="shadowOffsetOuter1"/><feGaussianBlur in="shadowOffsetOuter1" result="shadowBlurOuter1" stdDeviation="5"/><feColorMatrix in="shadowBlurOuter1" type="matrix" values="0 0 0 0 0   0 0 0 0 0   0 0 0 0 0  0 0 0 0.3 0"/></filter><linearGradient id="c" gradientUnits="userSpaceOnUse" x1="412" x2="412" y1="0" y2="824"><stop offset="0" stop-color="#fff"/><stop offset="1" stop-color="#fff"/></linearGradient><linearGradient id="d" gradientUnits="userSpaceOnUse" x1="191.11961" x2="567.28531" y1="11.520329" y2="693.54869"><stop offset="0" stop-color="#72b3f4"/><stop offset="1" stop-color="#346ebf"/></linearGradient><path id="e" d="m824 256.627066c0-9.781965 0-19.564929-.056099-29.347893-.048999-8.24097-.143999-16.47994-.367997-24.71691-.483996-17.952935-1.542989-36.059869-4.735965-53.812805-3.237976-18.008934-8.525937-34.769873-16.858875-51.1328134-8.19194-16.0829414-18.89286-30.7998879-31.660766-43.5588414-12.764905-12.7589536-27.485796-23.4529146-43.574677-31.6398848-16.379879-8.3349697-33.158755-13.62095043-51.187621-16.85793864-17.754869-3.1879884-35.866735-4.24498455-53.819602-4.72998278-8.242939-.22299919-16.485878-.31699885-24.730817-.36799866-9.787928-.05999978-19.575855-.0549998-29.363783-.0549998l-113.647158-.40699852h-84.999371l-111.636174.40699852c-9.806927 0-19.613855-.00499998-29.420782.0549998-8.261939.05099981-16.519878.14499947-24.778817.36799866-17.994867.48499823-36.147732 1.54299438-53.9446 4.73498276-18.052867 3.23598822-34.856742 8.51996896-51.2586211 16.84893866-16.1228806 8.1879702-30.8757714 18.8829312-43.6676768 31.6438848-12.7899053 12.7579535-23.5108259 27.4719-31.7177652 43.5518414-8.3559381 16.3709404-13.65389892 33.1418794-16.89987489 51.1608134-3.19597634 17.745936-4.25496851 35.84687-4.7419649 53.791805-.22199836 8.23797-.31799765 16.47694-.36799728 24.71691-.05999955 9.783964-.56299583 21.93692-.56299583 31.719884v110.089599 85.909687l.50799624 112.428591c0 9.795964-.00399997 19.591929.05499959 29.387893.04999963 8.25197.14599892 16.50194.36899727 24.75091.4859964 17.975935 1.54698855 36.108869 4.74596487 53.885804 3.24497598 18.032934 8.54193673 34.817873 16.89087493 51.201813 8.2079393 16.105942 18.9308599 30.841888 31.7217652 43.618842 12.7909054 12.776953 27.5397962 23.484914 43.6596769 31.683884 16.411878 8.34597 33.223754 13.638951 51.28762 16.879939 17.788869 3.192988 35.935734 4.251984 53.923601 4.736983 8.258939.222999 16.517878.317998 24.779817.367998 9.806927.059 19.612855.059 29.419782.059h112.645166 85.21037 112.427167c9.787928 0 19.575855 0 29.363783-.059 8.244939-.05 16.487878-.144999 24.730817-.367998 17.959867-.485999 36.077733-1.545995 53.840601-4.740983 18.017867-3.240988 34.788743-8.531969 51.159622-16.872939 16.091881-8.19797 30.815772-18.907931 43.581677-31.686884 12.765906-12.774954 23.465826-27.5089 31.657766-43.611842 8.337938-16.39194 13.625899-33.184879 16.865875-51.229813 3.189976-17.769935 4.247969-35.895869 4.732965-53.864804.222998-8.24997.317998-16.49994.366997-24.75091.056099-9.795964.056099-19.591929.056099-29.387893 0 0 0-110.443598 0-112.428591v-85.999686c0-1.465995 0-112.371591 0-112.371591"/><mask id="f" fill="#fff"><use fill="#fff" fill-rule="evenodd" xlink:href="#a"/></mask></defs><g fill="none" fill-rule="evenodd" transform="matrix(1.1792453 0 0 1.1655011 26.150959 25.986035)"><use fill="#000" filter="url(#b)" height="100%" width="100%" xlink:href="#a"/><use fill="#fff" fill-rule="evenodd" height="100%" width="100%" xlink:href="#a"/><g mask="url(#f)"><use fill="url(#c)" height="100%" width="100%" xlink:href="#e"/><use fill="url(#d)" height="100%" stroke="#daefff" stroke-width="64" width="100%" xlink:href="#e"/></g><g mask="url(#f)"><g transform="translate(154 172)"><path d="m404.59441 136.2807c-26.40678 0-45.43455 7.61156-57.08482 22.83393-11.65027 15.06759-17.47541 40.54265-17.47541 76.42443s5.98068 61.59015 17.94127 77.12359c11.96059 15.37791 31.1439 23.06648 57.54993 23.06648 23.76716 0 41.47512-8.62105 53.12539-25.86315 11.64952-17.39764 17.47465-42.32756 17.47465-74.79278 0-33.24216-5.82513-58.01806-17.47465-74.32768-11.65027-16.30963-29.66931-24.46482-54.05636-24.46482m5.59183-32.3867c33.55248 0 59.57117 11.49474 78.05607 34.48345 18.63968 22.83468 27.95839 55.22138 27.95839 97.16161 0 41.94022-9.39723 74.56023-28.19245 97.86077-18.63968 23.14501-44.57985 34.71676-77.82201 34.71676-16.6207 0-31.84382-3.02922-45.66786-9.08691-13.67-6.21323-25.16398-15.68898-34.4842-28.42652h-2.79591l-8.15444 32.85332h-27.72885v-362.54922193h38.6792v88.07545393c0 19.726938-.6214 37.434898-1.86419 53.123878h1.86495c18.01828-25.47506 44.73538-38.21259 80.1513-38.21259" fill="#fff"/><path d="m105.6482 368.11644c-32.930326 0-58.637939-11.57175-77.122836-34.716-18.484897-23.14576-27.72734596-55.45545-27.72734596-96.92981 0-41.78393 9.32021796-74.40394 27.96065296-97.86002 18.639681-23.45533 44.579846-35.18262 77.822009-35.18262 34.9493 0 61.8227 13.20264 80.61792 39.60942h2.0975l5.59183-34.95006h30.52326v370.00524h-38.67845v-109.27699c0-15.53344.85395-28.73683 2.56336-39.61016h-3.02922c-17.8635 25.94092-44.73614 38.911-80.61868 38.911zm5.82514-32.3867c25.78538 0 44.58135-6.9124 56.38641-20.73718 11.80505-13.82479 18.09605-37.12458 18.87299-69.90013v-8.6218c0-35.72625-6.05769-61.43386-18.17382-77.12284-12.11614-15.68823-31.29944-23.5331-57.55144-23.5331-22.679147 0-40.076032 8.85436-52.192164 26.56232-11.961348 17.55242-17.941268 42.40608-17.941268 74.56023 0 32.1549 5.902905 56.69749 17.708716 73.62776 11.959839 16.77624 29.59003 25.16474 52.890576 25.16474z" fill="#c8e8ff"/></g></g></g></svg>