<svg height="32" viewBox="0 0 32 32" width="32" xmlns="http://www.w3.org/2000/svg"><path d="m9.3691406 3c-.2532478 0-.4609375.2035431-.4609375.4609375v.3808594c0 .2570276.2076897.4648437.4609375.4648437h.1601563v.2675782c.0002538.3861056.2448511.4183646.3671875.4101562.020789-.00307.04169-.00683.064453-.00977h.00391c.4343126-.059462 1.1534156-.1167075 1.9785156-.011719 0 0 .528783.097402.527344-.3886718v-.2695267h.162109c.253502 0 .458985-.2054963.458985-.4628906v-.3808594c-.000032-.2571687-.20744-.4609375-.460942-.4609375zm5.2402344 1.7011719c-.04267.00861-.07539.035597-.09766.060547l-.03711.052734-.314453.4511719c-.0015.00172-.178842.2804343.103516.4277344.403228.1984404 1.142677.6175095 1.851562 1.2929687v-.00195s.254476.2568088.433594.00195l.341797-.4902343c.119177-.172151-.03484-.2909719-.05078-.3027344l-2.07031-1.4472654h-.002c-.06375-.044357-.115535-.053532-.158203-.044922zm-3.609375.8613281c-3.7104277 0-6.71875 3.0079838-6.71875 6.71875 0 3.709835 3.0082941 6.71875 6.71875 6.71875 3.710399 0 6.71875-3.008943 6.71875-6.71875 0-3.7107662-3.008351-6.71875-6.71875-6.71875zm.5625 1.3300781c.0093.00133.01954.00281.0293.00391.02987.00513.05802.010026.08008.011719 1.362878.1914732 4.352925 1.0764868 4.726563 5.0957029-.01052.111843-.07358.275849-.353516.277344-2.405742-.0066-3.929338-.0044-4.615234-.002-.394658.000551-.427747-.274407-.429693-.353473v-4.644531c.01151-.1616013.09465-.4673711.5625-.3886719z" fill="#f25022" transform="matrix(1.7116279 0 0 1.75 -2.827907 -3.25)"/></svg>