<svg height="32" viewBox="0 0 32 32" width="32" xmlns="http://www.w3.org/2000/svg"><path d="m22.300267 20.365728-5.858814-4.437851.824245-7.2788088-2.006616-.2027546-.922562 8.5215304 6.695791 5.071834zm-6.300267-18.3657282a14 14 0 0 0 -14.0000002 14.0000012c0 7.699999 6.2579986 13.999999 14.0000002 13.999999a14 14 0 0 0 14-13.999999 14 14 0 0 0 -14-14.0000012zm0 2.8000001a11.2 11.2 0 0 1 11.2 11.2000011 11.2 11.2 0 0 1 -11.2 11.199999 11.2 11.2 0 0 1 -11.2000001-11.199999 11.2 11.2 0 0 1 11.2000001-11.2000011z" fill="#f25022" stroke-width="1.399972"/></svg>