<svg height="32" viewBox="0 0 32 32" width="32" xmlns="http://www.w3.org/2000/svg"><path d="m15.976074 2.0000001c-1.898047 0-3.702044.3774399-5.43457 1.1210939-3.4414923 1.4768262-5.9621632 3.981944-7.4409176 7.430664-.7410025 1.727793-1.1005864 3.532173-1.1005864 5.431152 0 1.899345.3595839 3.723503 1.1005864 5.451661 1.4787544 3.448721 3.9997447 5.967146 7.4409176 7.444335 1.732845.743658 3.536475 1.121094 5.43457 1.121094 1.898092 0 3.71749-.381376 5.45166-1.121094 3.470223-1.480806 5.978124-4.001473 7.45459-7.444335.743244-1.733697 1.117676-3.552316 1.117676-5.451661 0-1.898979-.374066-3.6975-1.117676-5.431152-1.476148-3.4431816-3.984367-5.9499014-7.454591-7.430664-1.734444-.7400839-3.553292-1.1210939-5.451659-1.1210939zm-.864745 5.1372072c.713853 0 1.295409.5846206 1.295409 1.2988283v8.8935554l5.041504 3.940917c.584062.432879.671923 1.255625.239258 1.818359-.237977.324639-.629181.495605-1.018554.495605-.281192 0-.558411-.107117-.796387-.280273l-5.561036-4.327148c-.302874-.238094-.499023-.607371-.499023-1.018554v-9.5224614c0-.7142077.584971-1.2988283 1.298829-1.2988283z" fill="#cd853f"/></svg>