<svg height="32" viewBox="0 0 32 32" width="32" xmlns="http://www.w3.org/2000/svg"><path d="m16 2.0000002c-7.7559998 0-13.9999998 6.244-13.9999998 13.9999998 0 7.756 6.244 14 13.9999998 14 7.756 0 14-6.244 14-14 0-7.7559998-6.244-13.9999998-14-13.9999998zm-5.46875 5.25a3.28125 3.28125 0 0 1 3.28125 3.2812498 3.28125 3.28125 0 0 1 -3.28125 3.28125 3.28125 3.28125 0 0 1 -3.2812499-3.28125 3.28125 3.28125 0 0 1 3.2812499-3.2812498zm12.677247 0 1.541503 1.5415033-15.9584958 15.9584965-1.5415041-1.541503zm-1.739747 10.9374998a3.28125 3.28125 0 0 1 3.28125 3.28125 3.28125 3.28125 0 0 1 -3.28125 3.28125 3.28125 3.28125 0 0 1 -3.28125-3.28125 3.28125 3.28125 0 0 1 3.28125-3.28125z" fill="#ff8c00" stroke-width="1.75"/></svg>