<?xml version="1.0" encoding="UTF-8" standalone="no"?>
<svg
   xmlns:dc="http://purl.org/dc/elements/1.1/"
   xmlns:cc="http://creativecommons.org/ns#"
   xmlns:rdf="http://www.w3.org/1999/02/22-rdf-syntax-ns#"
   xmlns:svg="http://www.w3.org/2000/svg"
   xmlns="http://www.w3.org/2000/svg"
   xmlns:sodipodi="http://sodipodi.sourceforge.net/DTD/sodipodi-0.dtd"
   xmlns:inkscape="http://www.inkscape.org/namespaces/inkscape"
   viewBox="0 0 32 32"
   version="1.1"
   id="svg6"
   sodipodi:docname="reannounce.svg"
   width="32"
   height="32"
   inkscape:version="0.92.4 5da689c313, 2019-01-14">
  <metadata
     id="metadata10">
    <rdf:RDF>
      <cc:Work
         rdf:about="">
        <dc:format>image/svg+xml</dc:format>
        <dc:type
           rdf:resource="http://purl.org/dc/dcmitype/StillImage" />
        <dc:title />
      </cc:Work>
    </rdf:RDF>
  </metadata>
  <sodipodi:namedview
     pagecolor="#ffffff"
     bordercolor="#666666"
     borderopacity="1"
     objecttolerance="10"
     gridtolerance="10"
     guidetolerance="10"
     inkscape:pageopacity="0"
     inkscape:pageshadow="2"
     inkscape:window-width="1366"
     inkscape:window-height="703"
     id="namedview8"
     showgrid="false"
     inkscape:zoom="10.727273"
     inkscape:cx="-10.580508"
     inkscape:cy="14.728814"
     inkscape:window-x="0"
     inkscape:window-y="0"
     inkscape:window-maximized="1"
     inkscape:current-layer="svg6" />
  <defs
     id="defs3051">
    <style
       type="text/css"
       id="current-color-scheme">
     .ColorScheme-Text {
       color:#f2f2f2;
     }
     </style>
  </defs>
  <path
     style="color:#f2f2f2;fill:#f25022;fill-opacity:1;stroke:none;stroke-width:1.5818584"
     d="M 20.989822,4.7573384 V 15.007047 25.256815 c 0,0.74574 -0.878967,1.04424 -1.240745,0.416551 C 17.678784,22.084885 15.63405,20.203061 8.4530194,19.804346 L 10.720007,28 H 7.3319062 L 5.0390354,19.711332 C 2.7927976,19.596878 1,17.533451 1,15.007047 c 0,-2.60004 1.8971867,-4.715939 4.2350859,-4.715939 9.8476581,0 12.1626151,-1.8749253 14.5136701,-5.9507538 0.362099,-0.6272705 1.241066,-0.3287707 1.241066,0.4169842 z m 5.83226,11.2429786 c 0,1.964265 -0.594194,3.768405 -1.488401,5.133328 0,0 -0.358143,0.545565 -0.952764,0.545565 -0.611951,0 -1.152399,-0.571425 -1.152399,-1.288514 0,-0.42339 0.22803,-0.767564 0.22803,-0.767564 0.425526,-0.691981 1.048759,-1.754791 1.048759,-3.622815 0,-1.868024 -0.623233,-2.931239 -1.048759,-3.62322 0,0 -0.22803,-0.344175 -0.22803,-0.767565 0,-0.717089 0.540396,-1.288514 1.152399,-1.288514 0.594621,0 0.952764,0.545565 0.952764,0.545565 0.89458,1.365345 1.4884,3.169484 1.488401,5.133734 z M 25.961995,8.5646227 c 0,0 -0.522855,-0.4157848 -0.522855,-1.067249 0,-0.7332602 0.541465,-1.2933896 1.158548,-1.2933896 0.396808,0 0.762277,0.3109945 0.762277,0.3109945 C 28.760339,7.6797129 31,10.664427 31,16.000317 c 0,5.335904 -2.240035,8.320619 -3.640464,9.485353 0,0 -0.365469,0.310996 -0.76217,0.310996 -0.616761,0 -1.158655,-0.560129 -1.158655,-1.293329 0,-0.651541 0.522963,-1.067268 0.522963,-1.067268 1.62985,-1.337384 2.720802,-4.010697 2.720802,-7.435692 0,-3.424995 -1.090952,-6.098355 -2.720481,-7.4357543 z"
     class="ColorScheme-Text"
     id="path4"
     inkscape:connector-curvature="0" />
</svg>
