<svg height="32" viewBox="0 0 32 32" width="32" xmlns="http://www.w3.org/2000/svg"><path d="m4.6651885 1.9999997c2.3282105 0 4.5696239.3012395 6.7242405.9037186 2.154616.6024812 4.171378 1.4551418 6.050235 2.5579882 1.878957 1.1028443 3.589374 2.4252349 5.131453 3.9671762 1.54188 1.5419413 2.864262 3.2523713 3.96715 5.1312913 1.102687 1.87907 1.955343 3.895797 2.557967 6.05048.602527 2.154581.903766 4.39586.903766 6.724288 0 .735228-.260341 1.363038-.781128 1.883976-.520783.520936-1.148738.781082-1.883961.781082-.735275 0-1.363229-.260246-1.884165-.781082-.520682-.520788-.781075-1.148748-.781075-1.883976 0-1.838227-.240018-3.609825-.719958-5.3153-.479935-1.705123-1.154043-3.298273-2.022016-4.778943-.867973-1.480721-1.909392-2.828643-3.124705-4.043814-1.215212-1.21517-2.563024-2.256746-4.043734-3.124725-1.480661-.8679823-3.073647-1.5419419-4.7789592-2.0218844-1.7053126-.4799403-3.4769989-.7199116-5.31506-.7199116-.7352245 0-1.3632289-.2603939-1.8840129-.7811819-.5207842-.520788-.7811761-1.1487961-.7811761-1.8840263 0-.7352281.2603919-1.3632383.7811761-1.8840263.5207338-.5207358 1.1487381-.7811298 1.8839626-.7811298zm0 10.0787733c2.103559 0 4.0794745.403355 5.9277465 1.210066 1.848273.806711 3.461682 1.899343 4.840228 3.2779 1.378596 1.378605 2.471222 2.991926 3.277876 4.840111.806755 1.848487 1.210057 3.824217 1.210057 5.92799 0 .735232-.260341 1.363038-.781075 1.883978-.520785.520788-1.148739.781082-1.884164.781082-.735224 0-1.363178-.260244-1.883962-.781082-.520784-.520788-.781176-1.148746-.781176-1.883978 0-1.368443-.260392-2.655046-.781176-3.860004-.520784-1.204961-1.23048-2.256749-2.129088-3.155313-.898608-.898663-1.950387-1.608364-3.1553382-2.129152-1.2049514-.520688-2.4915937-.781082-3.8599283-.781082-.7352245 0-1.3632288-.260344-1.8840125-.781132-.5207842-.520836-.7811763-1.148846-.7811763-1.884076s.2603921-1.363238.7811763-1.884026c.5207837-.520889 1.148788-.781282 1.8840125-.781282zm4.9014962 13.99995c0 .531051-.097009 1.021154-.2910264 1.470511-.1940156.449455-.4595153.84245-.7964933 1.179479-.3369778.336831-.7352245.602431-1.1947396.796499-.4595147.193965-.9445589.290881-1.4551313.290881-.5309955 0-1.0211454-.09699-1.4704491-.290881-.449304-.193965-.8424448-.459716-1.1794226-.796499-.3369778-.336979-.6024758-.730124-.7964933-1.179479-.1940175-.449357-.2910264-.93946-.2910264-1.470511 0-.510425.097009-.995572.2910264-1.454941.1940157-.45972.4595155-.857919.7964933-1.194798.3369778-.336981.7301186-.602429 1.1794226-.796498.4493037-.193966.9394536-.291032 1.4704491-.291032.5105724 0 .9956166.09708 1.4551313.291032.4595151.194069.8577618.459517 1.1947396.796498.336978.336879.6024758.735228.7964933 1.194798.1940157.459417.2910264.944416.2910264 1.454941z" fill="#4285f4" stroke-width=".050056"/></svg>