<svg height="32" viewBox="0 0 32 32" width="32" xmlns="http://www.w3.org/2000/svg"><path d="m15.992188 2c-.193834.0003906-.384994.0460121-.617188.1347656-4.855751 2.187595-7.1190788 2.9373018-12.4960938 3.9023438a1.0000259 1.0000432 0 0 0 -.8203124.921875c-.240632 3.8189156.2702023 7.3752526 1.5214843 10.5722656a21.804316 21.804692 0 0 0 4.4648438 7.025391c2.7919471 2.964503 5.8880841 4.696533 7.4843751 5.351562a1.2500324 1.250054 0 0 0 .943359 0c1.687543-.68253 4.668599-2.363933 7.482422-5.351562a21.804316 21.804692 0 0 0 4.464844-7.025391c1.251282-3.196388 1.762115-6.75335 1.521484-10.5722656a1.0000259 1.0000432 0 0 0 -.820312-.921875c-5.377015-.963792-7.640343-1.7172488-12.496094-3.9023438-.242506-.090316-.438979-.1351562-.632812-.1347656zm.003906 6c.794509 0 1.421875.6838168 1.421875 1.4882812v8.1855468c0 .804464-.626436 1.490234-1.421875 1.490234-.79544 0-1.419922-.68577-1.419922-1.490234v-8.1855468c0-.8044644.625412-1.4882812 1.419922-1.4882812zm.003906 12.271484c.498781-.000002.968204.192813 1.320312.544922.351393.35144.544922.818241.544922 1.31836 0 .500072-.192812.968203-.544922 1.320312-.352092.35206-.821514.544922-1.320312.544922-.498766 0-.968203-.192813-1.320312-.544922-.352061-.352092-.544922-.820208-.544922-1.320312 0-.500087.193465-.966902.544922-1.31836.352092-.35206.821513-.544922 1.320312-.544922z" fill="#ff8c00" stroke-width=".062502"/></svg>