<?xml version="1.0" encoding="UTF-8" standalone="no"?>
<svg
   xmlns:dc="http://purl.org/dc/elements/1.1/"
   xmlns:cc="http://creativecommons.org/ns#"
   xmlns:rdf="http://www.w3.org/1999/02/22-rdf-syntax-ns#"
   xmlns:svg="http://www.w3.org/2000/svg"
   xmlns="http://www.w3.org/2000/svg"
   xmlns:sodipodi="http://sodipodi.sourceforge.net/DTD/sodipodi-0.dtd"
   xmlns:inkscape="http://www.inkscape.org/namespaces/inkscape"
   viewBox="0 0 32 32"
   version="1.1"
   id="svg6"
   sodipodi:docname="security-low.svg"
   inkscape:version="0.92.4 5da689c313, 2019-01-14">
  <metadata
     id="metadata12">
    <rdf:RDF>
      <cc:Work
         rdf:about="">
        <dc:format>image/svg+xml</dc:format>
        <dc:type
           rdf:resource="http://purl.org/dc/dcmitype/StillImage" />
        <dc:title />
      </cc:Work>
    </rdf:RDF>
  </metadata>
  <defs
     id="defs10">
    <linearGradient
       id="c"
       gradientTransform="matrix(0,-0.01781461,0.01728217,0,39.257996,1.9453023)"
       gradientUnits="userSpaceOnUse"
       x1="487.74164"
       x2="493.5094"
       y1="985.34576"
       y2="11.610633">
      <stop
         offset="0"
         stop-color="#d3d3d3"
         id="stop12" />
      <stop
         offset="1"
         stop-color="#ddd"
         id="stop14" />
    </linearGradient>
    <linearGradient
       id="a"
       gradientUnits="userSpaceOnUse"
       x1="399.57144"
       x2="399.57144"
       y1="545.79797"
       y2="517.79797">
      <stop
         offset="0"
         stop-color="#3889e9"
         id="stop2" />
      <stop
         offset="1"
         stop-color="#5ea5fb"
         id="stop4" />
    </linearGradient>
    <linearGradient
       id="b"
       gradientUnits="userSpaceOnUse"
       x1="400.55615"
       x2="400.55615"
       y1="546.92657"
       y2="516.4751"
       gradientTransform="matrix(0.86384581,0,0,0.89104038,-298.84546,-465.10766)">
      <stop
         offset="0"
         stop-color="#2e3e46"
         id="stop7" />
      <stop
         offset="1"
         stop-color="#435a64"
         id="stop9" />
    </linearGradient>
  </defs>
  <sodipodi:namedview
     pagecolor="#ffffff"
     bordercolor="#666666"
     borderopacity="1"
     objecttolerance="10"
     gridtolerance="10"
     guidetolerance="10"
     inkscape:pageopacity="0"
     inkscape:pageshadow="2"
     inkscape:window-width="1366"
     inkscape:window-height="703"
     id="namedview8"
     showgrid="false"
     inkscape:zoom="7.375"
     inkscape:cx="5.4063873"
     inkscape:cy="16"
     inkscape:window-x="0"
     inkscape:window-y="0"
     inkscape:window-maximized="1"
     inkscape:current-layer="svg6" />
  <g
     id="g836">
    <path
       style="fill:#f25022;fill-opacity:1;stroke-width:1.14142251"
       id="path2"
       d="m 22.812796,19.406375 c 0,0.358566 -0.109004,0.597609 -0.327014,0.836653 l -1.526066,1.673307 c -0.21801,0.239044 -0.436019,0.358566 -0.763033,0.358566 -0.327015,0 -0.545024,-0.119522 -0.763034,-0.358566 l -3.488151,-3.585657 -3.379147,3.585657 c -0.21801,0.239044 -0.436019,0.358566 -0.763033,0.358566 -0.327015,0 -0.545024,-0.119522 -0.763034,-0.358566 L 9.4052133,20.243028 C 9.1872038,20.003984 9.0781991,19.764941 9.0781991,19.406375 c 0,-0.358566 0.1090047,-0.59761 0.3270142,-0.836653 L 12.78436,14.864542 9.514218,11.278885 c -0.2180094,-0.239044 -0.3270142,-0.59761 -0.3270142,-0.836653 0,-0.358566 0.1090048,-0.5976099 0.3270142,-0.8366537 l 1.635071,-1.6733068 c 0.21801,-0.2390438 0.436019,-0.3585657 0.763033,-0.3585657 0.327015,0 0.545024,0.1195219 0.763034,0.3585657 l 3.270142,3.7051795 3.379147,-3.7051795 c 0.218009,-0.2390438 0.436019,-0.3585657 0.763033,-0.3585657 0.327014,0 0.545024,0.1195219 0.763033,0.3585657 l 1.526066,1.6733068 c 0.21801,0.2390438 0.327015,0.4780877 0.327015,0.8366537 0,0.358565 -0.109005,0.597609 -0.327015,0.836653 l -3.379147,3.705179 3.379147,3.705179 c 0.327015,0.119522 0.436019,0.358566 0.436019,0.717132 z"
       inkscape:connector-curvature="0" />
    <path
       id="path4"
       d="M 27.063981,1.3585665 C 26.845972,1.1195227 26.518957,1.0000008 26.300948,1.0000008 H 5.6990521 c -0.3270142,0 -0.5450237,0.1195219 -0.7630331,0.3585657 C 4.6090047,1.5976103 4.5,1.8366541 4.5,2.1952199 V 17.135459 c 0,1.075697 0.2180095,2.270916 0.5450237,3.346613 0.436019,1.075697 0.8720379,2.031873 1.5260664,2.988048 0.6540284,0.836653 1.3080568,1.673307 2.1800948,2.50996 0.7630331,0.836653 1.5260661,1.434263 2.2890991,2.031872 0.654029,0.478088 1.417062,1.075698 2.180095,1.553785 0.763033,0.478088 1.308057,0.836654 1.635071,0.956176 0.327015,0.119521 0.545024,0.358565 0.763033,0.358565 C 15.727488,31 15.945498,31 16.054502,31 c 0.109005,0 0.327015,0 0.436019,-0.119522 0.21801,-0.119522 0.436019,-0.239044 0.763034,-0.358565 0.327014,-0.119522 0.872037,-0.478088 1.635071,-0.956176 0.763033,-0.478087 1.417061,-0.956175 2.180094,-1.553785 0.654029,-0.478087 1.417062,-1.195219 2.2891,-2.031872 0.763033,-0.836653 1.526066,-1.673307 2.07109,-2.50996 0.545024,-0.836654 1.090047,-1.792829 1.526066,-2.988048 C 27.390995,19.406375 27.5,18.211156 27.5,17.135459 V 2.1952199 C 27.390995,1.8366541 27.281991,1.5976103 27.063981,1.3585665 Z M 23.248815,17.733068 c 0.436019,0.478088 0.654029,1.075697 0.654029,1.673307 0,0.597609 -0.21801,1.075697 -0.545024,1.673307 l -1.526066,1.673306 c -0.436019,0.478088 -0.981043,0.717132 -1.526067,0.717132 -0.545023,0 -0.981042,-0.239044 -1.526066,-0.59761 l -2.834123,-2.868526 -2.616114,2.868526 c -0.436019,0.478088 -0.981043,0.717132 -1.526066,0.717132 -0.545024,0 -0.981043,-0.239044 -1.526067,-0.59761 L 8.7511849,21.318725 c -0.436019,-0.478087 -0.6540285,-1.075697 -0.6540285,-1.673306 0,-0.836654 0.3270142,-1.314741 0.5450237,-1.673307 L 11.258294,15.103586 8.7511849,12.354582 c -0.436019,-0.478087 -0.6540285,-1.075697 -0.6540285,-1.792828 0,-0.59761 0.2180095,-1.0756976 0.5450237,-1.6733072 V 8.7689249 H 8.7511849 L 10.277251,7.0956182 c 0.436019,-0.4780877 0.981043,-0.7171315 1.526067,-0.7171315 0.545023,0 0.981042,0.2390438 1.526066,0.5976096 l 2.507109,2.8685258 2.616114,-2.8685258 c 0.436019,-0.4780877 0.981042,-0.7171315 1.526066,-0.7171315 0.545024,0 0.981043,0.2390438 1.526066,0.5976095 l 1.526067,1.6733068 c 0.436019,0.4780876 0.654028,1.0756972 0.654028,1.6733069 0,0.597609 -0.218009,1.075697 -0.545023,1.673307 l -2.616114,2.868525 z"
       inkscape:connector-curvature="0"
       style="fill:#db3236;fill-opacity:1;stroke-width:1.14142251" />
    <circle
       style="fill:#1d99f3;fill-opacity:1;stroke-width:0.95295495"
       cx="50.221436"
       cy="7.3284249"
       r="0"
       id="circle17" />
    <circle
       id="circle21"
       r="0"
       cy="38.499962"
       cx="10.593037"
       style="fill:#1d99f3;fill-opacity:1;stroke-width:1.56043184" />
  </g>
</svg>
