<svg xmlns="http://www.w3.org/2000/svg" viewBox="0 0 32 32">
  <path fill="#427337" d="M24.2 11.2c0 .3-.1.5-.3.7l-7.6 7.6-1.5 1.5c-.2.2-.4.3-.7.3-.3 0-.5-.1-.7-.3L12 19.6l-3.8-3.8c-.2-.2-.3-.4-.3-.7 0-.3.1-.5.3-.7L9.6 13c.2-.2.4-.3.7-.3.3 0 .5.1.7.3l3.1 3.1L21 9c.2-.2.4-.3.7-.3.3 0 .5.1.7.3l1.4 1.4c.3.3.4.5.4.8z"/>
  <path fill="#427337" d="M26.2 3.8c-.2-.2-.5-.3-.7-.3H6.6c-.3 0-.5.1-.7.3-.3.2-.4.4-.4.7V17c0 .9.2 1.9.5 2.8.4.9.8 1.7 1.4 2.5.6.7 1.2 1.4 2 2.1.7.7 1.4 1.2 2.1 1.7.6.4 1.3.9 2 1.3s1.2.7 1.5.8c.3.1.5.3.7.3.1.1.3.1.4.1.2 0 .3 0 .4-.1.2-.1.4-.2.7-.3.3-.1.8-.4 1.5-.8s1.3-.8 2-1.3c.6-.4 1.3-1 2.1-1.7.7-.7 1.4-1.4 1.9-2.1.5-.7 1-1.5 1.4-2.5.4-.9.5-1.9.5-2.8V4.5c-.1-.3-.2-.5-.4-.7zm-1.6 8.8L17 20.2l-1.4 1.4c-.4.4-.9.6-1.4.6-.5 0-1-.2-1.4-.6l-1.4-1.4-3.8-3.8c-.6-.4-.8-.9-.8-1.4 0-.5.2-1 .6-1.4l1.4-1.4c.4-.4.9-.6 1.4-.6.5 0 1 .2 1.4.6l2.4 2.4 6.2-6.2c.4-.4.9-.6 1.4-.6.5 0 1 .2 1.4.6l1.4 1.4c.4.4.6.9.6 1.4.2.5 0 1-.4 1.4z"/>
</svg>
