<svg viewBox="0 0 32 32" xmlns="http://www.w3.org/2000/svg"><g stroke-width="1.141423"><path d="m24.883887 10.203188c0 .358566-.109005.597609-.327014.836653l-8.28436 9.083665-1.635072 1.792829c-.218009.239044-.436019.358566-.763033.358566s-.545023-.119522-.763033-.358566l-1.526066-1.673307-4.1421804-4.541832c-.2180095-.239044-.3270142-.478088-.3270142-.836654 0-.358565.1090047-.597609.3270142-.836653l1.5260663-1.673307c.2180095-.239044.436019-.358566.7630332-.358566.3270139 0 .5450239.119522.7630329.358566l3.379147 3.705179 7.521327-8.4860552c.21801-.2390438.436019-.3585657.763033-.3585657.327015 0 .545024.1195219.763034.3585657l1.526066 1.6733067c.327014.3585658.436019.5976096.436019.9561755z" fill="#6cc24a"/><path d="m27.063982 1.3585665c-.21801-.2390438-.545024-.3585657-.763033-.3585657h-20.6018963c-.3270142 0-.5450237.1195219-.7630331.3585657-.3270143.2390438-.436019.4780876-.436019.8366534v14.9402391c0 1.075697.2180095 2.270916.5450237 3.346613.436019 1.075697.8720379 2.031873 1.5260664 2.988048.6540284.836653 1.3080568 1.673307 2.1800948 2.50996.7630331.836653 1.5260665 1.434263 2.2890995 2.031872.654028.478088 1.417062 1.075698 2.180095 1.553785.763033.478088 1.308057.836654 1.635071.956176.327014.119521.545024.358565.763033.358565.109005.119522.327014.119522.436019.119522.21801 0 .327014 0 .436019-.119522.218009-.119522.436019-.239044.763033-.358565.327014-.119522.872038-.478088 1.635071-.956176.763033-.478087 1.417062-.956175 2.180095-1.553785.654029-.478087 1.417062-1.195219 2.2891-2.031872.763033-.836653 1.526066-1.673307 2.07109-2.50996.545023-.836654 1.090047-1.792829 1.526066-2.988048.436019-1.075697.545024-2.270916.545024-3.346613v-14.9402391c-.109005-.3585658-.21801-.5976096-.436019-.8366534zm-1.744076 10.5179285-8.28436 9.083665-1.526067 1.673306c-.436019.478088-.981042.717132-1.526066.717132s-1.090047-.239044-1.526066-.717132l-1.526067-1.673306-4.1421799-4.541833c-.6540284-.478087-.8720379-1.075697-.8720379-1.673307 0-.597609.2180095-1.195219.6540285-1.673306l1.5260663-1.673307c.436019-.478088.9810427-.717132 1.5260664-.717132.5450236 0 1.0900476.239044 1.5260666.717132l2.616114 2.868526 6.758293-7.4103587c.436019-.4780876.981043-.7171314 1.526067-.7171314.545023 0 1.090047.2390438 1.526066.7171314l1.526066 1.6733068c.436019.4780876.654029 1.0756972.654029 1.6733069.218009.597609 0 1.195219-.436019 1.673307z" fill="#0fbb58"/></g></svg>