<?xml version="1.0" encoding="UTF-8" standalone="no"?>
<svg
   xmlns:dc="http://purl.org/dc/elements/1.1/"
   xmlns:cc="http://creativecommons.org/ns#"
   xmlns:rdf="http://www.w3.org/1999/02/22-rdf-syntax-ns#"
   xmlns:svg="http://www.w3.org/2000/svg"
   xmlns="http://www.w3.org/2000/svg"
   xmlns:sodipodi="http://sodipodi.sourceforge.net/DTD/sodipodi-0.dtd"
   xmlns:inkscape="http://www.inkscape.org/namespaces/inkscape"
   viewBox="0 0 32 32"
   version="1.1"
   id="svg6"
   sodipodi:docname="security-high.svg"
   inkscape:version="0.92.4 5da689c313, 2019-01-14">
  <metadata
     id="metadata12">
    <rdf:RDF>
      <cc:Work
         rdf:about="">
        <dc:format>image/svg+xml</dc:format>
        <dc:type
           rdf:resource="http://purl.org/dc/dcmitype/StillImage" />
        <dc:title />
      </cc:Work>
    </rdf:RDF>
  </metadata>
  <defs
     id="defs10" />
  <sodipodi:namedview
     pagecolor="#ffffff"
     bordercolor="#666666"
     borderopacity="1"
     objecttolerance="10"
     gridtolerance="10"
     guidetolerance="10"
     inkscape:pageopacity="0"
     inkscape:pageshadow="2"
     inkscape:window-width="1366"
     inkscape:window-height="703"
     id="namedview8"
     showgrid="false"
     inkscape:zoom="7.375"
     inkscape:cx="-9.7627118"
     inkscape:cy="16"
     inkscape:window-x="0"
     inkscape:window-y="0"
     inkscape:window-maximized="1"
     inkscape:current-layer="svg6" />
  <g
     id="g822">
    <path
       style="fill:#6cc24a;fill-opacity:1;stroke-width:1.14142251"
       id="path2"
       d="m 24.883887,10.203188 c 0,0.358566 -0.109005,0.597609 -0.327014,0.836653 l -8.28436,9.083665 -1.635072,1.792829 c -0.218009,0.239044 -0.436019,0.358566 -0.763033,0.358566 -0.327014,0 -0.545023,-0.119522 -0.763033,-0.358566 L 11.585309,20.243028 7.4431286,15.701196 C 7.2251191,15.462152 7.1161144,15.223108 7.1161144,14.864542 c 0,-0.358565 0.1090047,-0.597609 0.3270142,-0.836653 l 1.5260663,-1.673307 c 0.2180095,-0.239044 0.436019,-0.358566 0.7630332,-0.358566 0.3270139,0 0.5450239,0.119522 0.7630329,0.358566 l 3.379147,3.705179 7.521327,-8.4860552 c 0.21801,-0.2390438 0.436019,-0.3585657 0.763033,-0.3585657 0.327015,0 0.545024,0.1195219 0.763034,0.3585657 l 1.526066,1.6733067 c 0.327014,0.3585658 0.436019,0.5976096 0.436019,0.9561755 z"
       inkscape:connector-curvature="0" />
    <path
       style="fill:#0fbb58;fill-opacity:1;stroke-width:1.14142251"
       id="path4"
       d="M 27.063982,1.3585665 C 26.845972,1.1195227 26.518958,1.0000008 26.300949,1.0000008 H 5.6990527 c -0.3270142,0 -0.5450237,0.1195219 -0.7630331,0.3585657 -0.3270143,0.2390438 -0.436019,0.4780876 -0.436019,0.8366534 V 17.135459 c 0,1.075697 0.2180095,2.270916 0.5450237,3.346613 0.436019,1.075697 0.8720379,2.031873 1.5260664,2.988048 0.6540284,0.836653 1.3080568,1.673307 2.1800948,2.50996 0.7630331,0.836653 1.5260665,1.434263 2.2890995,2.031872 0.654028,0.478088 1.417062,1.075698 2.180095,1.553785 0.763033,0.478088 1.308057,0.836654 1.635071,0.956176 0.327014,0.119521 0.545024,0.358565 0.763033,0.358565 C 15.727489,31 15.945498,31 16.054503,31 c 0.21801,0 0.327014,0 0.436019,-0.119522 0.218009,-0.119522 0.436019,-0.239044 0.763033,-0.358565 0.327014,-0.119522 0.872038,-0.478088 1.635071,-0.956176 0.763033,-0.478087 1.417062,-0.956175 2.180095,-1.553785 0.654029,-0.478087 1.417062,-1.195219 2.2891,-2.031872 0.763033,-0.836653 1.526066,-1.673307 2.07109,-2.50996 0.545023,-0.836654 1.090047,-1.792829 1.526066,-2.988048 0.436019,-1.075697 0.545024,-2.270916 0.545024,-3.346613 V 2.1952199 C 27.390996,1.8366541 27.281991,1.5976103 27.063982,1.3585665 Z m -1.744076,10.5179285 -8.28436,9.083665 -1.526067,1.673306 c -0.436019,0.478088 -0.981042,0.717132 -1.526066,0.717132 -0.545024,0 -1.090047,-0.239044 -1.526066,-0.717132 L 10.93128,20.96016 6.7891001,16.418327 C 6.1350717,15.94024 5.9170622,15.34263 5.9170622,14.74502 c 0,-0.597609 0.2180095,-1.195219 0.6540285,-1.673306 L 8.097157,11.398407 c 0.436019,-0.478088 0.9810427,-0.717132 1.5260664,-0.717132 0.5450236,0 1.0900476,0.239044 1.5260666,0.717132 l 2.616114,2.868526 6.758293,-7.4103587 c 0.436019,-0.4780876 0.981043,-0.7171314 1.526067,-0.7171314 0.545023,0 1.090047,0.2390438 1.526066,0.7171314 l 1.526066,1.6733068 c 0.436019,0.4780876 0.654029,1.0756972 0.654029,1.6733069 0.218009,0.597609 0,1.195219 -0.436019,1.673307 z"
       inkscape:connector-curvature="0" />
  </g>
</svg>
