<svg height="32" viewBox="0 0 32 32" width="32" xmlns="http://www.w3.org/2000/svg"><path d="m15.992188 2c-.193834.0003906-.384994.0460121-.617188.1347656-4.855751 2.187595-7.1190787 2.9373018-12.4960938 3.9023438a1.0000259 1.0000432 0 0 0 -.8203124.921875c-.240632 3.8189156.2702023 7.3752526 1.5214843 10.5722656a21.804316 21.804692 0 0 0 4.4648438 7.025391c2.7919471 2.964503 5.8880841 4.696533 7.4843751 5.351562a1.2500324 1.250054 0 0 0 .943359 0c1.687543-.68253 4.668599-2.363933 7.482422-5.351562a21.804316 21.804692 0 0 0 4.464844-7.025391c1.251282-3.196388 1.762115-6.75335 1.521484-10.5722656a1.0000259 1.0000432 0 0 0 -.820312-.921875c-5.377015-.963792-7.640343-1.7172488-12.496094-3.9023438-.242506-.090316-.438979-.1351562-.632812-.1347656zm5.263671 9c.257988 0 .475706.079161.65625.236328l1.316407 1.142578c.180514.157159.271605.349785.271484.574219 0 .224533-.09094.415107-.271484.572266l-7.00586 6.095703-1.316406 1.142578c-.180665.157082-.400213.236328-.658203.236328-.258113 0-.477661-.079163-.658203-.236328l-1.316406-1.142578-3.5019536-3.048828c-.1807131-.157059-.2714844-.347834-.2714844-.572266 0-.224532.0908194-.415107.2714844-.572266l1.3164066-1.144531c.180666-.157153.398139-.236328.65625-.236328.257991 0 .47949.079162.660156.236328l2.84375 2.482422 6.347656-5.529297c.180551-.15724.402043-.236328.660156-.236328z" fill="#008000" stroke-width=".062502"/></svg>