<svg viewBox="0 0 32 32" xmlns="http://www.w3.org/2000/svg"><path d="m22.812796 19.406375c0 .358566-.109004.597609-.327014.836653l-1.526066 1.673307c-.21801.239044-.436019.358566-.763033.358566-.327015 0-.545024-.119522-.763034-.358566l-3.488151-3.585657-3.379147 3.585657c-.21801.239044-.436019.358566-.763033.358566-.327015 0-.545024-.119522-.763034-.358566l-1.6350707-1.673307c-.2180095-.239044-.3270142-.478087-.3270142-.836653s.1090047-.59761.3270142-.836653l3.3791467-3.70518-3.270142-3.585657c-.2180094-.239044-.3270142-.59761-.3270142-.836653 0-.358566.1090048-.5976099.3270142-.8366537l1.635071-1.6733068c.21801-.2390438.436019-.3585657.763033-.3585657.327015 0 .545024.1195219.763034.3585657l3.270142 3.7051795 3.379147-3.7051795c.218009-.2390438.436019-.3585657.763033-.3585657s.545024.1195219.763033.3585657l1.526066 1.6733068c.21801.2390438.327015.4780877.327015.8366537 0 .358565-.109005.597609-.327015.836653l-3.379147 3.705179 3.379147 3.705179c.327015.119522.436019.358566.436019.717132z" fill="#f25022" stroke-width="1.141423"/><path d="m27.063981 1.3585665c-.218009-.2390438-.545024-.3585657-.763033-.3585657h-20.6018959c-.3270142 0-.5450237.1195219-.7630331.3585657-.3270143.2390438-.436019.4780876-.436019.8366534v14.9402391c0 1.075697.2180095 2.270916.5450237 3.346613.436019 1.075697.8720379 2.031873 1.5260664 2.988048.6540284.836653 1.3080568 1.673307 2.1800948 2.50996.7630331.836653 1.5260661 1.434263 2.2890991 2.031872.654029.478088 1.417062 1.075698 2.180095 1.553785.763033.478088 1.308057.836654 1.635071.956176.327015.119521.545024.358565.763033.358565.109005.119522.327015.119522.436019.119522.109005 0 .327015 0 .436019-.119522.21801-.119522.436019-.239044.763034-.358565.327014-.119522.872037-.478088 1.635071-.956176.763033-.478087 1.417061-.956175 2.180094-1.553785.654029-.478087 1.417062-1.195219 2.2891-2.031872.763033-.836653 1.526066-1.673307 2.07109-2.50996.545024-.836654 1.090047-1.792829 1.526066-2.988048.436019-1.075697.545024-2.270916.545024-3.346613v-14.9402391c-.109005-.3585658-.218009-.5976096-.436019-.8366534zm-3.815166 16.3745015c.436019.478088.654029 1.075697.654029 1.673307 0 .597609-.21801 1.075697-.545024 1.673307l-1.526066 1.673306c-.436019.478088-.981043.717132-1.526067.717132-.545023 0-.981042-.239044-1.526066-.59761l-2.834123-2.868526-2.616114 2.868526c-.436019.478088-.981043.717132-1.526066.717132-.545024 0-.981043-.239044-1.526067-.59761l-1.5260661-1.673307c-.436019-.478087-.6540285-1.075697-.6540285-1.673306 0-.836654.3270142-1.314741.5450237-1.673307l2.6161139-2.868526-2.5071091-2.749004c-.436019-.478087-.6540285-1.075697-.6540285-1.792828 0-.59761.2180095-1.0756976.5450237-1.6733072v-.1195219h.1090048l1.5260661-1.6733067c.436019-.4780877.981043-.7171315 1.526067-.7171315.545023 0 .981042.2390438 1.526066.5976096l2.507109 2.8685258 2.616114-2.8685258c.436019-.4780877.981042-.7171315 1.526066-.7171315s.981043.2390438 1.526066.5976095l1.526067 1.6733068c.436019.4780876.654028 1.0756972.654028 1.6733069 0 .597609-.218009 1.075697-.545023 1.673307l-2.616114 2.868525z" fill="#db3236" stroke-width="1.141423"/><g fill="#1d99f3"><circle cx="50.221436" cy="7.328425" r="0" stroke-width=".952955"/><circle cx="10.593037" cy="38.499962" r="0" stroke-width="1.56043"/></g></svg>