<svg height="32" viewBox="0 0 32 32" width="32" xmlns="http://www.w3.org/2000/svg"><path d="m14.672296 15.982037-10.621693 9.553713c-.7341375.660327-.7341375 1.728087 0 2.381391l1.7650977 1.587614c.7341375.660326 1.9212717.660326 2.6475971 0l7.5288902-6.771893 7.528912 6.771893c.734138.660326 1.921271.660326 2.647596 0l1.780703-1.580573c.734135-.660345.734135-1.728105 0-2.381409l-10.621695-9.553732c-.734137-.667348-1.921251-.667348-2.655408-.0074zm2.655408-13.4876191 10.621695 9.5537301c.734135.660328.734135 1.728086 0 2.38139l-1.765079 1.587612c-.734157.660327-1.921271.660327-2.647618 0l-7.536702-6.7648847-7.5288902 6.7719077c-.7341374.660327-1.9212716.660327-2.6476184 0l-1.7728884-1.587593c-.7341375-.660346-.7341375-1.728104 0-2.38141l10.621693-9.5537121c.734157-.6673682 1.921271-.6673682 2.655408-.00742z" fill="#f25022" stroke-width=".07407"/></svg>