<?xml version="1.0" encoding="UTF-8" standalone="no"?>
<svg
   xmlns:dc="http://purl.org/dc/elements/1.1/"
   xmlns:cc="http://creativecommons.org/ns#"
   xmlns:rdf="http://www.w3.org/1999/02/22-rdf-syntax-ns#"
   xmlns:svg="http://www.w3.org/2000/svg"
   xmlns="http://www.w3.org/2000/svg"
   xmlns:sodipodi="http://sodipodi.sourceforge.net/DTD/sodipodi-0.dtd"
   xmlns:inkscape="http://www.inkscape.org/namespaces/inkscape"
   viewBox="0 0 32 32"
   version="1.1"
   id="svg6"
   sodipodi:docname="slow_off.svg"
   inkscape:version="1.0.1 (3bc2e813f5, 2020-09-07)"
   width="32"
   height="32">
  <metadata
     id="metadata10">
    <rdf:RDF>
      <cc:Work
         rdf:about="">
        <dc:format>image/svg+xml</dc:format>
        <dc:type
           rdf:resource="http://purl.org/dc/dcmitype/StillImage" />
        <dc:title />
      </cc:Work>
    </rdf:RDF>
  </metadata>
  <sodipodi:namedview
     pagecolor="#ffffff"
     bordercolor="#666666"
     borderopacity="1"
     objecttolerance="10"
     gridtolerance="10"
     guidetolerance="10"
     inkscape:pageopacity="0"
     inkscape:pageshadow="2"
     inkscape:window-width="1366"
     inkscape:window-height="702"
     id="namedview8"
     showgrid="false"
     inkscape:zoom="10.727273"
     inkscape:cx="2.5169494"
     inkscape:cy="11"
     inkscape:window-x="0"
     inkscape:window-y="0"
     inkscape:window-maximized="1"
     inkscape:current-layer="svg6"
     inkscape:document-rotation="0" />
  <defs
     id="defs3051">
    <style
       type="text/css"
       id="current-color-scheme">
     .ColorScheme-Text {
       color:#f2f2f2;
     }
     </style>
  </defs>
  <path
     style="color:#f2f2f2;fill:#4285f4;fill-opacity:1;stroke:none;stroke-width:1.87869"
     d="m 16,22.975277 a 4.2,4.8404493 0 0 1 -4.2,-4.840449 c 0,-1.8071 0.854,-3.388314 2.1,-4.21119 L 27.494,4.855865 19.752,20.313031 c -0.7,1.581213 -2.114,2.662246 -3.752,2.662246 M 16,2 c 2.534,0 4.9,0.8067415 6.958,2.1297977 l -2.94,1.9523145 C 18.8,5.5335279 17.4,5.2269662 16,5.2269662 A 11.2,12.907865 0 0 0 4.8,18.134828 c 0,3.565798 1.246,6.792765 3.276,9.11618 H 8.09 c 0.5459999,0.629258 0.5459999,1.645753 0,2.275011 -0.5460001,0.629258 -1.4420001,0.629258 -1.9880001,0.01614 C 3.568,26.62175 2,22.588042 2,18.134828 A 14,16.134831 0 0 1 16,2 m 14,16.134828 c 0,4.453214 -1.568,8.486922 -4.102,11.407326 -0.546,0.613123 -1.428,0.613123 -1.974,-0.01614 -0.546,-0.629258 -0.546,-1.645752 0,-2.275011 2.03,-2.339549 3.276,-5.550381 3.276,-9.116179 0,-1.613483 -0.266,-3.226966 -0.756,-4.679101 l 1.694,-3.388304 C 29.3,12.48764 30,15.198288 30,18.134828 Z"
     class="ColorScheme-Text"
     id="path4"
     inkscape:connector-curvature="0" />
</svg>
