<?xml version="1.0" encoding="utf-8"?>
<!-- Generator: Adobe Illustrator 22.1.0, SVG Export Plug-In . SVG Version: 6.00 Build 0)  -->
<svg version="1.1" id="Layer_1" xmlns="http://www.w3.org/2000/svg" xmlns:xlink="http://www.w3.org/1999/xlink" x="0px" y="0px"
	 viewBox="0 0 37 17.8" style="enable-background:new 0 0 37 17.8;" xml:space="preserve">
<style type="text/css">
	.st0{fill:#375273;}
	.st1{fill:#FFFFFF;}
</style>
<g>
	<path class="st0" d="M36.7,14.9C35,7.1,28.3,1.1,20.1,0.3c0,0-0.1,0-0.1,0c-0.5,0-1-0.1-1.5-0.1c-0.5,0-1,0-1.5,0.1
		c0,0-0.1,0-0.1,0C8.6,1.1,2,7.1,0.2,14.9c-0.1,0.3,0,0.4,0.1,0.6s0.5,0.3,0.5,0.3h35.3c0,0,0.4-0.1,0.5-0.3
		C36.7,15.3,36.8,15.2,36.7,14.9z"/>
	<g>
		<path class="st1" d="M17.1,17c-0.1,0-0.3,0-0.3-0.1L3.4,4C3.2,3.8,3.2,3.5,3.3,3.3c0.1-0.1,0.2-0.2,0.4-0.2c0.1,0,0.2,0,0.2,0.1
			l16.2,9.1c0.1,0.1,0.2,0.2,0.2,0.3c0,0.1,0,0.3-0.1,0.4l-2.8,3.8C17.4,16.9,17.3,17,17.1,17C17.1,17,17.1,17,17.1,17z"/>
		<path class="st0" d="M3.7,3.6l16.2,9.1l-2.8,3.8L3.7,3.6 M3.7,2.6C3.4,2.6,3.1,2.8,2.9,3C2.6,3.4,2.7,4,3,4.3l13.4,12.8
			c0.2,0.2,0.4,0.3,0.7,0.3c0,0,0.1,0,0.1,0c0.3,0,0.5-0.2,0.7-0.4l2.8-3.8c0.2-0.2,0.2-0.5,0.2-0.8c-0.1-0.3-0.2-0.5-0.5-0.7
			L4.2,2.8C4.1,2.7,3.9,2.6,3.7,2.6L3.7,2.6z"/>
	</g>
</g>
</svg>
