<?xml version="1.0" encoding="utf-8"?>
<!-- Generator: Adobe Illustrator 22.1.0, SVG Export Plug-In . SVG Version: 6.00 Build 0)  -->
<svg version="1.1" id="Layer_1" xmlns="http://www.w3.org/2000/svg" xmlns:xlink="http://www.w3.org/1999/xlink" x="0px" y="0px"
	 viewBox="0 0 39.68504 22.67717" style="enable-background:new 0 0 39.68504 22.67717;" xml:space="preserve">
<style type="text/css">
	.st0{fill:#375273;}
	.st1{fill:#FFFFFF;}
</style>
<g>
	<path class="st0" d="M1.61875,17.91006c1.72995-7.86385,8.39319-13.87651,16.58753-14.59815
		c0.03653-0.00307,0.07413-0.00207,0.11066-0.00499c0.50338-0.04138,1.01153-0.06614,1.52554-0.06678
		c0.51401,0.00064,1.02223,0.0254,1.52561,0.06678c0.03653,0.00293,0.07413,0.00193,0.11066,0.00499
		c8.19434,0.72163,14.85758,6.7343,16.58753,14.59815c0.05951,0.27063,0.0142,0.38729-0.09953,0.56723
		c-0.11374,0.17994-0.4951,0.25101-0.4951,0.25101H2.21338c0,0-0.38137-0.07106-0.4951-0.25101S1.55925,18.1807,1.61875,17.91006z"
		/>
	<g>
		<path class="st1" d="M21.16967,19.93538c-0.14258-0.01172-0.27441-0.08496-0.35938-0.2002l-2.78613-3.75586
			c-0.08594-0.11523-0.11768-0.26172-0.0874-0.40234c0.02979-0.14063,0.11865-0.26074,0.24365-0.33105L34.3474,6.16389
			c0.07715-0.04297,0.16113-0.06396,0.24512-0.06396c0.15332,0,0.30469,0.0708,0.40137,0.20215
			c0.15039,0.20215,0.12598,0.48438-0.05566,0.65869L21.55736,19.79768c-0.09277,0.08984-0.2168,0.13965-0.3457,0.13965
			C21.19799,19.93733,21.18334,19.93635,21.16967,19.93538z"/>
		<path class="st0" d="M34.59211,6.59994L21.21148,19.43702l-2.78593-3.75551L34.59211,6.59994 M34.59149,5.59986
			c-0.16657,0-0.33494,0.0416-0.48914,0.12823l-16.16656,9.08157c-0.25039,0.14065-0.42822,0.38217-0.48819,0.66303
			c-0.05998,0.28087,0.0037,0.57395,0.17481,0.80461l2.78593,3.75551c0.1711,0.23065,0.43312,0.37661,0.7193,0.40069
			c0.02802,0.00236,0.05602,0.00352,0.0839,0.00352c0.25693,0,0.50529-0.09904,0.69224-0.27839L35.2844,7.32155
			c0.36335-0.34859,0.41084-0.91299,0.11084-1.3174C35.20062,5.7418,34.89913,5.59986,34.59149,5.59986L34.59149,5.59986z"/>
	</g>
</g>
</svg>
