<svg viewBox="0 0 36.9 17.8" xmlns="http://www.w3.org/2000/svg"><path d="m.2 15c1.8-7.9 8.4-13.9 16.6-14.6h.1c.5 0 1-.1 1.5-.1s1 0 1.5.1h.1c8.3.7 15 6.7 16.7 14.6.1.3 0 .4-.1.6s-.5.3-.5.3h-35.3s-.4-.1-.5-.3-.1-.4-.1-.6z" fill="#375273"/><path d="m19.8 17c-.1 0-.3-.1-.4-.2l-2.8-3.8c-.1-.1-.1-.3-.1-.4s.1-.3.2-.3l16.3-9.1c.1 0 .2-.1.2-.1.2 0 .3.1.4.2.2.2.1.5-.1.7l-13.3 12.9c-.1.1-.2.1-.4.1z" fill="#fff"/><path d="m33.2 3.7-13.4 12.8-2.8-3.8zm0-1c-.2 0-.3 0-.5.1l-16.2 9.1c-.3.1-.4.4-.5.7s0 .6.2.8l2.8 3.8c.2.2.4.4.7.4h.1c.3 0 .5-.1.7-.3l13.4-12.9c.4-.4.4-.9.1-1.3-.2-.3-.5-.4-.8-.4z" fill="#375273"/></svg>