<svg version="1.1" id="Layer_1" xmlns="http://www.w3.org/2000/svg" x="0" y="0" viewBox="0 0 39.685 22.677" xml:space="preserve">
  <style>
    .st0{fill:#375273}
  </style>
  <path class="st0" d="M1.619 17.91c1.73-7.864 8.393-13.876 16.587-14.598.037-.003.074-.002.11-.005a18.888 18.888 0 0 1 1.526-.067c.514 0 1.023.026 1.526.067.037.003.074.002.11.005 8.195.722 14.858 6.734 16.588 14.598.06.27.014.387-.1.567-.113.18-.494.251-.494.251H2.213s-.381-.07-.495-.25-.159-.297-.1-.568z"/>
  <path d="M21.17 19.935a.498.498 0 0 1-.36-.2l-2.786-3.756a.497.497 0 0 1 .156-.733l16.167-9.082a.502.502 0 0 1 .647.138.5.5 0 0 1-.056.659l-13.38 12.837a.497.497 0 0 1-.388.137z" fill="#fff"/>
  <path class="st0" d="M34.592 6.6l-13.38 12.837-2.786-3.755L34.592 6.6m0-1a.997.997 0 0 0-.49.128L17.936 14.81a1 1 0 0 0-.314 1.467l2.786 3.756a1 1 0 0 0 1.496.126l13.38-12.837a1 1 0 0 0-.693-1.722z"/>
</svg>
