<?xml version="1.0" encoding="UTF-8" standalone="no"?>
<svg
   xmlns:dc="http://purl.org/dc/elements/1.1/"
   xmlns:cc="http://creativecommons.org/ns#"
   xmlns:rdf="http://www.w3.org/1999/02/22-rdf-syntax-ns#"
   xmlns:svg="http://www.w3.org/2000/svg"
   xmlns="http://www.w3.org/2000/svg"
   xmlns:sodipodi="http://sodipodi.sourceforge.net/DTD/sodipodi-0.dtd"
   xmlns:inkscape="http://www.inkscape.org/namespaces/inkscape"
   viewBox="0 0 32 32"
   version="1.1"
   id="svg6"
   sodipodi:docname="slow.svg"
   inkscape:version="1.0.1 (3bc2e813f5, 2020-09-07)"
   width="32"
   height="32">
  <metadata
     id="metadata10">
    <rdf:RDF>
      <cc:Work
         rdf:about="">
        <dc:format>image/svg+xml</dc:format>
        <dc:type
           rdf:resource="http://purl.org/dc/dcmitype/StillImage" />
        <dc:title />
      </cc:Work>
    </rdf:RDF>
  </metadata>
  <sodipodi:namedview
     pagecolor="#ffffff"
     bordercolor="#666666"
     borderopacity="1"
     objecttolerance="10"
     gridtolerance="10"
     guidetolerance="10"
     inkscape:pageopacity="0"
     inkscape:pageshadow="2"
     inkscape:window-width="1366"
     inkscape:window-height="702"
     id="namedview8"
     showgrid="false"
     inkscape:zoom="10.727273"
     inkscape:cx="-3.1694917"
     inkscape:cy="11"
     inkscape:window-x="0"
     inkscape:window-y="0"
     inkscape:window-maximized="1"
     inkscape:current-layer="svg6"
     inkscape:document-rotation="0" />
  <defs
     id="defs3051">
    <style
       type="text/css"
       id="current-color-scheme">
     .ColorScheme-Text {
       color:#f2f2f2;
     }
     </style>
  </defs>
  <path
     style="color:#f2f2f2;fill:#4285f4;fill-opacity:1;stroke:none;stroke-width:1.87869"
     d="m 16,22.975278 a 4.2,4.8404492 0 0 0 4.2,-4.840447 c 0,-1.807101 -0.854,-3.388317 -2.1,-4.211193 L 4.5059993,4.855865 12.248,20.313033 c 0.7,1.581212 2.114,2.662245 3.752,2.662245 M 16,2 C 13.466,2 11.1,2.8067415 9.0419999,4.1297976 L 11.982,6.0821122 C 13.2,5.5335279 14.6,5.2269661 16,5.2269661 A 11.2,12.907865 0 0 1 27.2,18.134831 c 0,3.565795 -1.246,6.792763 -3.276,9.116178 H 23.91 c -0.546,0.629257 -0.546,1.645752 0,2.275013 0.546,0.629256 1.442,0.629256 1.988,0.01613 C 28.432,26.621752 30,22.588042 30,18.134831 A 14,16.134831 0 0 0 16,2 M 2,18.134831 c 0,4.453211 1.568,8.486921 4.1019998,11.407324 0.5459997,0.613123 1.4279999,0.613123 1.9739998,-0.01614 0.5460001,-0.629258 0.5460001,-1.645753 0,-2.275013 -2.0300001,-2.339549 -3.276,-5.550382 -3.276,-9.116177 0,-1.613485 0.2659999,-3.226966 0.7560001,-4.679102 L 3.862,10.067415 C 2.7,12.48764 2,15.198292 2,18.134831 Z"
     class="ColorScheme-Text"
     id="path4"
     inkscape:connector-curvature="0" />
</svg>
