<svg height="32" viewBox="0 0 32 32" width="32" xmlns="http://www.w3.org/2000/svg"><path d="m16 1.9999999c2.534 0 4.9.8067415 6.958 2.1297977l-2.94 1.9523146c-1.218-.5485843-2.618-.8551461-4.018-.8551461-6.1855884.0000001-11.1999988 5.7790469-11.1999998 12.9078629 0 3.565797 1.246 6.792764 3.276 9.116179h.014c.5459999.629259.5459999 1.645753 0 2.275011-.5460001.629259-1.4420001.629259-1.9880001.01614-2.5339999-2.920409-4.1019999-6.954117-4.1019999-11.40733.0000009-8.9110203 6.268014-16.134829 13.9999998-16.1348291m14 16.1348291c0 4.453213-1.568 8.486921-4.102 11.407325-.546.613124-1.428.613124-1.974-.01614-.546-.629258-.546-1.645752 0-2.275011 2.03-2.33955 3.276-5.550382 3.276-9.116179 0-1.613483-.266-3.226966-.756-4.679101l1.694-3.388307c1.162 2.420224 1.862 5.130873 1.862 8.067413z" fill="#4285f4"/><path d="m17.086082 21.835699c-2.319596 0-4.2-2.167143-4.2-4.840449 0-1.807101.854-3.388315 2.1-4.211191l13.594-9.0677733-7.742 15.4571663c-.7 1.581213-2.114 2.662247-3.752 2.662247" fill="#0fbb58"/></svg>