<svg version="1.1" id="Layer_1" xmlns="http://www.w3.org/2000/svg" x="0" y="0" viewBox="0 0 39.685 22.677" xml:space="preserve">
  <style>
    .st0{fill:#375273}
  </style>
  <path class="st0" d="M38.066 17.91c-1.73-7.864-8.393-13.876-16.587-14.598-.037-.003-.074-.002-.11-.005a18.888 18.888 0 0 0-1.526-.067c-.514 0-1.023.026-1.526.067-.037.003-.074.002-.11.005-8.195.722-14.858 6.734-16.588 14.598-.06.27-.014.387.1.567s.494.251.494.251h35.259s.381-.07.495-.25c.113-.18.159-.297.1-.568z"/>
  <path d="M18.473 19.937a.5.5 0 0 1-.346-.14L4.747 6.962a.5.5 0 0 1 .591-.797l16.167 9.082a.5.5 0 0 1 .156.733l-2.786 3.756a.498.498 0 0 1-.36.2l-.042.002z" fill="#fff"/>
  <path class="st0" d="M5.093 6.6l16.166 9.082-2.785 3.755L5.093 6.6m0-1a1 1 0 0 0-.692 1.722l13.38 12.837a1 1 0 0 0 1.496-.126l2.786-3.756a1 1 0 0 0-.314-1.467L5.583 5.728a.997.997 0 0 0-.49-.128z"/>
</svg>
