<svg height="32" viewBox="0 0 32 32" width="32" xmlns="http://www.w3.org/2000/svg"><g transform="matrix(.99995477 0 0 1.0000541 .000724 -.000727)"><path d="m16 2.9344379c2.365081 0 4.573361.7538161 6.494173 1.9900746l-2.744017 1.8242351c-1.136807-.512595-2.443481-.7990452-3.750156-.7990452-5.773252.0000001-10.4533971 5.3999186-10.453398 12.0610566 0 3.331866 1.1629405 6.347132 3.0576189 8.518121h.013067c.509603.587978.509603 1.537786 0 2.125762-.5096033.587977-1.3458751.587977-1.8554783.01508-2.3650814-2.728818-3.8285571-6.497899-3.8285571-10.658963.0000008-8.3264226 5.8501826-15.076321 13.0667475-15.0763211m13.066747 15.0763211c0 4.161064-1.463475 7.930145-3.828557 10.658959-.509603.572901-1.332808.572901-1.842411-.01508-.509603-.587976-.509603-1.537784 0-2.125761 1.894678-2.186067 3.057619-5.186255 3.057619-8.518122 0-1.507632-.248268-3.015264-.705604-4.372134l1.581076-3.166021c1.08454 2.261448 1.737877 4.794267 1.737877 7.538159z" fill="#1e90ff" stroke="#1e90ff" stroke-width="1.86773"/><path d="m17.013683 21.468837c-2.16497 0-3.920025-2.02497-3.920025-4.522896 0-1.688549.797072-3.166029 1.960013-3.934921l12.687811-8.4728914-7.225911 14.4431154c-.653337 1.477479-1.973079 2.487593-3.501888 2.487593" fill="#32cd32" stroke-width=".933867"/></g></svg>