<?xml version="1.0" encoding="utf-8"?>
<!-- Generator: Adobe Illustrator 22.1.0, SVG Export Plug-In . SVG Version: 6.00 Build 0)  -->
<svg version="1.1" id="Layer_1" xmlns="http://www.w3.org/2000/svg" xmlns:xlink="http://www.w3.org/1999/xlink" x="0px" y="0px"
	 viewBox="0 0 39.68504 22.67717" style="enable-background:new 0 0 39.68504 22.67717;" xml:space="preserve">
<style type="text/css">
	.st0{fill:#375273;}
	.st1{fill:#FFFFFF;}
</style>
<g>
	<path class="st0" d="M38.06629,17.91006c-1.72995-7.86385-8.39319-13.87651-16.58753-14.59815
		c-0.03653-0.00307-0.07413-0.00207-0.11066-0.00499c-0.50338-0.04138-1.01153-0.06614-1.52554-0.06678
		c-0.51401,0.00064-1.02223,0.0254-1.52561,0.06678c-0.03653,0.00293-0.07413,0.00193-0.11066,0.00499
		c-8.19434,0.72163-14.85758,6.7343-16.58753,14.59815c-0.05951,0.27063-0.0142,0.38729,0.09953,0.56723
		s0.4951,0.25101,0.4951,0.25101h35.25827c0,0,0.38136-0.07106,0.4951-0.25101
		C38.08049,18.29735,38.12579,18.1807,38.06629,17.91006z"/>
	<g>
		<path class="st1" d="M18.47338,19.93733c-0.12842,0-0.25244-0.0498-0.34619-0.13965L4.74682,6.96077
			C4.56518,6.78645,4.54125,6.50423,4.69164,6.30208C4.78881,6.17073,4.93969,6.09993,5.0935,6.09993
			c0.08301,0,0.16748,0.021,0.24463,0.06396l16.1665,9.08203c0.125,0.07031,0.21387,0.19043,0.24414,0.33105
			c0.0293,0.14063-0.00195,0.28711-0.08789,0.40234l-2.78613,3.75586c-0.08545,0.11523-0.21631,0.18848-0.35938,0.2002
			C18.50121,19.93635,18.48754,19.93733,18.47338,19.93733z"/>
		<path class="st0" d="M5.09293,6.59994l16.16656,9.08157l-2.78593,3.75551L5.09293,6.59994 M5.09355,5.59986
			c-0.30767,0-0.60912,0.14191-0.80376,0.40429c-0.3,0.40441-0.25251,0.96881,0.11084,1.3174l13.38063,12.83708
			c0.18694,0.17934,0.43533,0.27839,0.69224,0.27839c0.0279,0,0.05586-0.00117,0.0839-0.00352
			c0.28618-0.02408,0.5482-0.17004,0.7193-0.40069l2.78593-3.75551c0.17111-0.23066,0.23479-0.52374,0.17481-0.80461
			c-0.05997-0.28086-0.2378-0.52238-0.48819-0.66303L5.58269,5.72809C5.42852,5.64148,5.26009,5.59986,5.09355,5.59986
			L5.09355,5.59986z"/>
	</g>
</g>
</svg>
