<?xml version="1.0" encoding="utf-8"?>
<!-- Generator: Adobe Illustrator 22.1.0, SVG Export Plug-In . SVG Version: 6.00 Build 0)  -->
<svg version="1.1" id="Layer_1" xmlns="http://www.w3.org/2000/svg" xmlns:xlink="http://www.w3.org/1999/xlink" x="0px" y="0px"
	 viewBox="0 0 36.9 17.8" style="enable-background:new 0 0 36.9 17.8;" xml:space="preserve">
<style type="text/css">
	.st0{fill:#375273;}
	.st1{fill:#FFFFFF;}
</style>
<g>
	<path class="st0" d="M0.2,15C2,7.1,8.6,1.1,16.8,0.4c0,0,0.1,0,0.1,0c0.5,0,1-0.1,1.5-0.1c0.5,0,1,0,1.5,0.1c0,0,0.1,0,0.1,0
		C28.3,1.1,35,7.1,36.7,15c0.1,0.3,0,0.4-0.1,0.6c-0.1,0.2-0.5,0.3-0.5,0.3H0.8c0,0-0.4-0.1-0.5-0.3S0.2,15.2,0.2,15z"/>
	<g>
		<path class="st1" d="M19.8,17c-0.1,0-0.3-0.1-0.4-0.2L16.6,13c-0.1-0.1-0.1-0.3-0.1-0.4c0-0.1,0.1-0.3,0.2-0.3L33,3.2
			c0.1,0,0.2-0.1,0.2-0.1c0.2,0,0.3,0.1,0.4,0.2c0.2,0.2,0.1,0.5-0.1,0.7L20.2,16.9C20.1,17,20,17,19.8,17C19.8,17,19.8,17,19.8,17z
			"/>
		<path class="st0" d="M33.2,3.7L19.8,16.5l-2.8-3.8L33.2,3.7 M33.2,2.7c-0.2,0-0.3,0-0.5,0.1l-16.2,9.1c-0.3,0.1-0.4,0.4-0.5,0.7
			c-0.1,0.3,0,0.6,0.2,0.8l2.8,3.8c0.2,0.2,0.4,0.4,0.7,0.4c0,0,0.1,0,0.1,0c0.3,0,0.5-0.1,0.7-0.3L33.9,4.4C34.3,4,34.3,3.5,34,3.1
			C33.8,2.8,33.5,2.7,33.2,2.7L33.2,2.7z"/>
	</g>
</g>
</svg>
