<svg height="32" viewBox="0 0 32 32" width="32" xmlns="http://www.w3.org/2000/svg"><path d="m16 22.975278a4.2 4.8404492 0 0 0 4.2-4.840447c0-1.807101-.854-3.388317-2.1-4.211193l-13.5940009-9.0677729 7.7420009 15.4571679c.7 1.581211 2.114 2.662245 3.752 2.662245m0-20.9752779c-2.534 0-4.9.8067415-6.9580002 2.1297976l2.9400002 1.9523146c1.218-.5485843 2.618-.8551461 4.018-.8551461a11.2 12.907865 0 0 1 11.2 12.9078648c0 3.565795-1.246 6.792763-3.276 9.116177h-.014c-.546.629258-.546 1.645753 0 2.275013.546.629257 1.442.629257 1.988.01613 2.534-2.920399 4.102-6.954109 4.102-11.40732a14 16.134831 0 0 0 -14-16.1348309m-14.0000002 16.1348309c0 4.453211 1.568 8.486921 4.1019998 11.407323.5459998.613124 1.428.613124 1.9739999-.01614.5460001-.629258.5460001-1.645753 0-2.275013-2.0300001-2.339548-3.2760001-5.550382-3.2760001-9.116177 0-1.613485.266-3.226966.7560001-4.679101l-1.6939997-3.388308c-1.162 2.420225-1.862 5.130877-1.862 8.067416z" fill="#4285f4"/></svg>