<svg viewBox="0 0 37 17.8" xmlns="http://www.w3.org/2000/svg"><path d="m36.7 14.9c-1.7-7.8-8.4-13.8-16.6-14.6h-.1c-.5 0-1-.1-1.5-.1s-1 0-1.5.1h-.1c-8.3.8-14.9 6.8-16.7 14.6-.1.3 0 .4.1.6s.5.3.5.3h35.3s.4-.1.5-.3.2-.3.1-.6z" fill="#375273"/><path d="m17.1 17c-.1 0-.3 0-.3-.1l-13.4-12.9c-.2-.2-.2-.5-.1-.7.1-.1.2-.2.4-.2.1 0 .2 0 .2.1l16.2 9.1c.1.1.2.2.2.3s0 .3-.1.4l-2.8 3.8c0 .1-.1.2-.3.2z" fill="#fff"/><path d="m3.7 3.6 16.2 9.1-2.8 3.8zm0-1c-.3 0-.6.2-.8.4-.3.4-.2 1 .1 1.3l13.4 12.8c.2.2.4.3.7.3h.1c.3 0 .5-.2.7-.4l2.8-3.8c.2-.2.2-.5.2-.8-.1-.3-.2-.5-.5-.7l-16.2-8.9c-.1-.1-.3-.2-.5-.2z" fill="#375273"/></svg>