<?xml version="1.0" encoding="UTF-8" standalone="no"?>
<svg
   xmlns:dc="http://purl.org/dc/elements/1.1/"
   xmlns:cc="http://creativecommons.org/ns#"
   xmlns:rdf="http://www.w3.org/1999/02/22-rdf-syntax-ns#"
   xmlns:svg="http://www.w3.org/2000/svg"
   xmlns="http://www.w3.org/2000/svg"
   xmlns:sodipodi="http://sodipodi.sourceforge.net/DTD/sodipodi-0.dtd"
   xmlns:inkscape="http://www.inkscape.org/namespaces/inkscape"
   viewBox="0 0 22 22"
   version="1.1"
   id="svg6"
   sodipodi:docname="speed-high.svg"
   inkscape:version="0.92.4 5da689c313, 2019-01-14">
  <metadata
     id="metadata10">
    <rdf:RDF>
      <cc:Work
         rdf:about="">
        <dc:format>image/svg+xml</dc:format>
        <dc:type
           rdf:resource="http://purl.org/dc/dcmitype/StillImage" />
      </cc:Work>
    </rdf:RDF>
  </metadata>
  <sodipodi:namedview
     pagecolor="#ffffff"
     bordercolor="#666666"
     borderopacity="1"
     objecttolerance="10"
     gridtolerance="10"
     guidetolerance="10"
     inkscape:pageopacity="0"
     inkscape:pageshadow="2"
     inkscape:window-width="1366"
     inkscape:window-height="703"
     id="namedview8"
     showgrid="false"
     inkscape:zoom="10.727273"
     inkscape:cx="11"
     inkscape:cy="11"
     inkscape:window-x="0"
     inkscape:window-y="0"
     inkscape:window-maximized="1"
     inkscape:current-layer="svg6" />
  <defs
     id="defs3051">
    <style
       type="text/css"
       id="current-color-scheme">
     .ColorScheme-Text {
       color:#f2f2f2;
     }
     </style>
  </defs>
  <path
     style="fill:#1d8dff;fill-opacity:1;stroke:none"
     d="m11 14.45849a2.4 2.4 0 0 1 -2.4-2.4c0-.896.488-1.68 1.2-2.0879997l7.768-4.4959996-4.424 7.6639993c-.4.784-1.208 1.32-2.144 1.32m0-10.3999993c1.448 0 2.8.4 3.976 1.056l-1.68.968c-.696-.272-1.496-.424-2.296-.424a6.4 6.4 0 0 0 -6.4 6.3999993c0 1.768.712 3.368 1.872 4.52h.008c.312.312.312.816 0 1.128s-.824.312-1.136.008c-1.448-1.448-2.344-3.448-2.344-5.656a8 8 0 0 1 8-7.9999993m8 7.9999993c0 2.208-.896 4.208-2.344 5.656-.312.304-.816.304-1.128-.008s-.312-.816 0-1.128c1.16-1.16 1.872-2.752 1.872-4.52 0-.8-.152-1.6-.432-2.3199997l.968-1.6799996c.664 1.2 1.064 2.5439993 1.064 3.9999993z"
     class="ColorScheme-Text"
     id="path4" />
</svg>
