<svg height="32" viewBox="0 0 32 32" width="32" xmlns="http://www.w3.org/2000/svg"><g fill="#1e90ff"><path d="m16 3.515625c-3.716108 0-7.4330744 1.4096369-10.2539062 4.2304688-5.64166374 5.6416632-5.64166365 14.8661492 0 20.5078122a2.5 2.5 0 0 0 3.5371093 0 2.5 2.5 0 0 0 0-3.537109c-3.7309193-3.730919-3.7309193-9.702675 0-13.433594 2.1092649-2.1092652 4.9340069-3.0241217 7.6660159-2.7480468l.005859-.0039062 5.341797-3.5878906c-1.982235-.9514361-4.13933-1.4277344-6.296875-1.4277344zm12.230469 6.701172-2.9375 5.724609-.00586.009766c.678256 3.055196-.176335 6.371648-2.570312 8.765625a2.5 2.5 0 0 0 0 3.537109 2.5 2.5 0 0 0 3.537109 0c4.878265-4.878264 5.534628-12.433881 1.976563-18.037109z"/><path d="m26.630281 6.0418607-7.071236 13.7839783-.0059-.0053a4 4 0 0 1 -.563666.836956 4 4 0 0 1 -5.647106.331963 4 4 0 0 1 -.331963-5.647105 4 4 0 0 1 .759274-.663037 4 4 0 0 1 .0081-.0061z"/></g></svg>
