<svg height="32" viewBox="0 0 32 32" width="32" xmlns="http://www.w3.org/2000/svg"><g fill="#1e90ff"><path d="m16 2.9338694c2.364974 0 4.573154.7538569 6.49388 1.9901822l-2.743893 1.8243338c-1.136756-.5126227-2.443371-.7990884-3.749987-.7990884-5.772991.0000001-10.452924 5.400211-10.4529249 12.061709 0 3.332046 1.1628879 6.347475 3.0574806 8.518582h.013066c.5095799.58801.5095799 1.537869 0 2.125877-.5095803.588009-1.3458143.588009-1.8553944.01508-2.364974-2.728965-3.8283835-6.49825-3.8283835-10.659539.0000008-8.326873 5.849918-15.0771365 13.0661562-15.0771366m13.066156 15.0771366c0 4.161289-1.463409 7.930574-3.828384 10.659536-.50958.572932-1.332747.572932-1.842327-.01508-.50958-.588008-.50958-1.537867 0-2.125876 1.894592-2.186185 3.05748-5.186536 3.05748-8.518583 0-1.507713-.248256-3.015427-.705572-4.37237l1.581005-3.166193c1.084491 2.261571 1.737798 4.794527 1.737798 7.538566z" stroke="#1e90ff" stroke-width="1.86774"/><path d="m17.013637 21.469271c-2.164872 0-3.919847-2.025079-3.919847-4.523141 0-1.68864.797036-3.1662 1.959924-3.935133l12.687237-8.4733502-7.225584 14.4438972c-.653307 1.477559-1.97299 2.487727-3.50173 2.487727" stroke-width=".933871"/></g></svg>