<?xml version="1.0" encoding="UTF-8" standalone="no"?>
<svg
   xmlns:dc="http://purl.org/dc/elements/1.1/"
   xmlns:cc="http://creativecommons.org/ns#"
   xmlns:rdf="http://www.w3.org/1999/02/22-rdf-syntax-ns#"
   xmlns:svg="http://www.w3.org/2000/svg"
   xmlns="http://www.w3.org/2000/svg"
   xmlns:sodipodi="http://sodipodi.sourceforge.net/DTD/sodipodi-0.dtd"
   xmlns:inkscape="http://www.inkscape.org/namespaces/inkscape"
   viewBox="0 0 32 32"
   version="1.1"
   id="svg4"
   sodipodi:docname="stalledUP.svg"
   inkscape:version="1.0.1 (3bc2e813f5, 2020-09-07)"
   width="32"
   height="32">
  <metadata
     id="metadata10">
    <rdf:RDF>
      <cc:Work
         rdf:about="">
        <dc:format>image/svg+xml</dc:format>
        <dc:type
           rdf:resource="http://purl.org/dc/dcmitype/StillImage" />
        <dc:title />
      </cc:Work>
    </rdf:RDF>
  </metadata>
  <defs
     id="defs8" />
  <sodipodi:namedview
     pagecolor="#ffffff"
     bordercolor="#666666"
     borderopacity="1"
     objecttolerance="10"
     gridtolerance="10"
     guidetolerance="10"
     inkscape:pageopacity="0"
     inkscape:pageshadow="2"
     inkscape:window-width="1366"
     inkscape:window-height="702"
     id="namedview6"
     showgrid="false"
     inkscape:zoom="10.727273"
     inkscape:cx="5.5320871"
     inkscape:cy="11"
     inkscape:window-x="0"
     inkscape:window-y="0"
     inkscape:window-maximized="1"
     inkscape:current-layer="svg4"
     inkscape:document-rotation="0" />
  <path
     inkscape:connector-curvature="0"
     d="M 14.672297,15.982037 4.0506032,25.53575 c -0.7341375,0.660327 -0.7341375,1.728087 0,2.381391 l 1.7650977,1.587614 c 0.7341375,0.660326 1.9212717,0.660326 2.647597,0 l 7.5288911,-6.771893 7.528912,6.771893 c 0.734138,0.660326 1.92127,0.660326 2.647596,0 l 1.780702,-1.580573 c 0.734135,-0.660345 0.734135,-1.728105 0,-2.381409 L 17.327704,15.989041 c -0.734138,-0.667348 -1.92125,-0.667348 -2.655407,-0.0074 z M 17.327704,2.4944177 27.949399,12.048148 c 0.734135,0.660326 0.734135,1.728086 0,2.38139 l -1.765078,1.587612 c -0.734157,0.660327 -1.921272,0.660327 -2.647619,0 L 16,9.2522651 8.47111,16.024173 c -0.7341374,0.660327 -1.9212716,0.660327 -2.6476183,0 L 4.0506032,14.43658 c -0.7341375,-0.660346 -0.7341375,-1.728106 0,-2.38141 L 14.672297,2.5014577 c 0.734157,-0.6673682 1.921269,-0.6673682 2.655407,-0.00742 z"
     id="path2-3"
     style="fill:#737373;fill-opacity:1;stroke-width:0.07407028" />
</svg>
