<?xml version="1.0" encoding="UTF-8" standalone="no"?>
<svg
   xmlns:dc="http://purl.org/dc/elements/1.1/"
   xmlns:cc="http://creativecommons.org/ns#"
   xmlns:rdf="http://www.w3.org/1999/02/22-rdf-syntax-ns#"
   xmlns:svg="http://www.w3.org/2000/svg"
   xmlns="http://www.w3.org/2000/svg"
   xmlns:sodipodi="http://sodipodi.sourceforge.net/DTD/sodipodi-0.dtd"
   xmlns:inkscape="http://www.inkscape.org/namespaces/inkscape"
   viewBox="0 0 32 32"
   version="1.1"
   id="svg4"
   sodipodi:docname="stalledDL.svg"
   inkscape:version="1.0.1 (3bc2e813f5, 2020-09-07)"
   width="32"
   height="32">
  <metadata
     id="metadata10">
    <rdf:RDF>
      <cc:Work
         rdf:about="">
        <dc:format>image/svg+xml</dc:format>
        <dc:type
           rdf:resource="http://purl.org/dc/dcmitype/StillImage" />
        <dc:title />
      </cc:Work>
    </rdf:RDF>
  </metadata>
  <defs
     id="defs8" />
  <sodipodi:namedview
     pagecolor="#ffffff"
     bordercolor="#666666"
     borderopacity="1"
     objecttolerance="10"
     gridtolerance="10"
     guidetolerance="10"
     inkscape:pageopacity="0"
     inkscape:pageshadow="2"
     inkscape:window-width="1366"
     inkscape:window-height="702"
     id="namedview6"
     showgrid="false"
     inkscape:zoom="6.6829523"
     inkscape:cx="6.0670787"
     inkscape:cy="18.260364"
     inkscape:window-x="0"
     inkscape:window-y="0"
     inkscape:window-maximized="1"
     inkscape:current-layer="svg4"
     inkscape:document-rotation="0" />
  <path
     inkscape:connector-curvature="0"
     d="M 17.327704,16.017964 27.949398,6.4642509 c 0.734137,-0.660327 0.734137,-1.728087 0,-2.381391 L 26.1843,2.4952459 c -0.734137,-0.660326 -1.921271,-0.660326 -2.647597,0 l -7.528891,6.771893 -7.5289133,-6.771893 c -0.7341381,-0.660326 -1.9212701,-0.660326 -2.6475961,0 l -1.780702,1.580573 c -0.734135,0.660345 -0.734135,1.728105 0,2.381409 L 14.672297,16.01096 c 0.734138,0.667348 1.92125,0.667348 2.655407,0.0074 z M 14.672297,29.505583 4.0506006,19.951853 c -0.734135,-0.660326 -0.734135,-1.728086 0,-2.38139 l 1.7650779,-1.587612 c 0.734157,-0.660327 1.921272,-0.660327 2.647619,0 l 7.5367035,6.764885 7.52889,-6.771908 c 0.734138,-0.660327 1.921272,-0.660327 2.647618,0 l 1.772889,1.587593 c 0.734137,0.660346 0.734137,1.728106 0,2.38141 l -10.621694,9.553712 c -0.734157,0.667369 -1.921269,0.667369 -2.655407,0.0074 z"
     id="path2-3"
     style="fill:#455d7a;fill-opacity:1;stroke-width:0.0740703" />
</svg>
