<svg viewBox="0 0 32 32" xmlns="http://www.w3.org/2000/svg"><path d="m2.0639199 4.5c-.5901899 0-1.06391992.4841499-1.06391992 1.0837456v20.8325084c0 .599596.47373002 1.083746 1.06391992 1.083746h27.8721601c.59019 0 1.06392-.48415 1.06392-1.083746v-20.8325084c0-.5995956-.47373-1.0837456-1.06392-1.0837456zm17.5506751 1.9372613h8.98674c.35832 0 .646635.2929337.646635.6569806v17.8115161c0 .364061-.288315.656981-.646635.656981h-8.98674c-.35832 0-.64665-.29292-.64665-.656981v-17.8115161c0-.3640469.28833-.6569806.64665-.6569806zm-12.4327654 4.7701427c.211875 0 .39342.07676.541635.227412l2.3351104 2.372437 2.332365-2.372437c.1482-.150592.329865-.227412.541635-.227412.21168 0 .390645.07676.538875.227412l1.080495 1.097776c.1482.150506.221085.332336.221085.547486 0 .215151-.0729.396895-.221085.547486l-2.33511 2.372436 2.33511 2.372436c.1482.150592.221085.332335.221085.547486 0 .21515-.0729.396894-.221085.547486l-1.080495 1.097776c-.1482.150592-.327195.227412-.538875.227412-.21177 0-.39342-.07691-.541635-.227412l-2.332365-2.369633-2.3351104 2.369633c-.1482.150592-.32967.227412-.541635.227412-.211665 0-.390735-.07691-.538875-.227412l-1.0804951-1.097776c-.1482-.150492-.221085-.332336-.221085-.547486 0-.215151.0729-.396894.221085-.547486l2.3351101-2.372436-2.3351101-2.372436c-.1482-.150506-.221085-.332335-.221085-.547486s.07305-.396895.221085-.547486l1.0804951-1.097776c.1482-.150592.32721-.227412.538875-.227412z" fill="#f25022"/></svg>