<svg viewBox="0 0 32 32" xmlns="http://www.w3.org/2000/svg"><path d="m2.0639199 4.5c-.5901899 0-1.06391992.4841499-1.06391992 1.0837456v20.8325084c0 .599596.47373002 1.083746 1.06391992 1.083746h27.8721601c.59019 0 1.06392-.48415 1.06392-1.083746v-20.8325084c0-.5995956-.47373-1.0837456-1.06392-1.0837456zm17.5506751 1.9372613h8.98674c.35832 0 .646635.2929337.646635.6569806v17.8115161c0 .364061-.288315.656981-.646635.656981h-8.98674c-.35832 0-.64665-.29292-.64665-.656981v-17.8115161c0-.3640469.28833-.6569806.64665-.6569806zm-12.4327654 4.7701427c.211875 0 .39342.07676.541635.227412l2.3351104 2.372437 2.332365-2.372437c.1482-.150592.329865-.227412.541635-.227412.21168 0 .390645.07676.538875.227412l1.080495 1.097776c.1482.150506.221085.332336.221085.547486 0 .215151-.0729.396895-.221085.547486l-2.33511 2.372436 2.33511 2.372436c.1482.150592.221085.332335.221085.547486 0 .21515-.0729.396894-.221085.547486l-1.080495 1.097776c-.1482.150592-.327195.227412-.538875.227412-.21177 0-.39342-.07691-.541635-.227412l-2.332365-2.369633-2.3351104 2.369633c-.1482.150592-.32967.227412-.541635.227412-.211665 0-.390735-.07691-.538875-.227412l-1.0804951-1.097776c-.1482-.150492-.221085-.332336-.221085-.547486 0-.215151.0729-.396894.221085-.547486l2.3351101-2.372436-2.3351101-2.372436c-.1482-.150506-.221085-.332335-.221085-.547486s.07305-.396895.221085-.547486l1.0804951-1.097776c.1482-.150592.32721-.227412.538875-.227412z" fill="#f25022"/><g fill="#fff"><path d="m6.1679084 20.002393c-1.0051169-1.080006-.9828914-1.194764.5245634-2.708513l1.2416243-1.246809-1.2416243-1.345573c-.8565159-.928223-1.2416244-1.447943-1.2416244-1.675625 0-.443883 1.3083337-1.744517 1.7548445-1.744517.2310754 0 .6818351.375038 1.5889566 1.322034l1.2663685 1.322034 1.266368-1.322034c.925767-.96646 1.355525-1.322034 1.597853-1.322034.444249 0 1.745948 1.307264 1.745948 1.753413 0 .216468-.404735.759776-1.241624 1.666729l-1.241624 1.345573 1.241624 1.246809c.926294.930162 1.241624 1.336237 1.241624 1.598937 0 .413347-1.327955 1.880064-1.702196 1.880064-.128753 0-.835718-.591082-1.571034-1.313516l-1.336939-1.313517-1.3369388 1.313517c-.7353164.722434-1.4499271 1.313516-1.5880237 1.313516-.1380969 0-.5737625-.346719-.9681461-.770488z"/><path d="m19.223245 25.305569c-.189479-.189478-.213076-1.22257-.213076-9.328814 0-6.9092274.03939-9.1551233.162712-9.2784499.233223-.2332228 9.610845-.2332228 9.844068 0 .235302.2353023.235302 18.4223259 0 18.6576269-.120307.120307-1.389938.162712-4.871671.162712-4.10008 0-4.736509-.02755-4.922033-.213075z"/><path d="m6.1759764 20.047752c-1.0504156-1.050415-1.020385-1.210575.5163307-2.753707l1.2414596-1.246643-1.2414596-1.322766c-1.5108141-1.609761-1.5355156-1.738412-.5253315-2.736048 1.0177568-1.005114 1.1301377-.979285 2.6365477.605958l1.2509807 1.316447 1.257494-1.316588c1.522128-1.593659 1.641143-1.620448 2.651956-.596921.992067 1.004546.968214 1.126312-.534227 2.727152l-1.24146 1.322766 1.24146 1.246643c1.515019 1.521345 1.539363 1.647607.524569 2.720736-.39429.416955-.829955.7581-.968146.7581-.13819 0-.852878-.591082-1.588194-1.313516l-1.336939-1.313517-1.3369388 1.313517c-.7353164.722434-1.4462966 1.313516-1.5799558 1.313516-.1336594 0-.5693252-.326308-.968146-.725129z"/><path d="m19.223245 25.305569c-.189479-.189478-.213076-1.22257-.213076-9.328814 0-6.9092274.03939-9.1551233.162712-9.2784499.233223-.2332228 9.610845-.2332228 9.844068 0 .235302.2353023.235302 18.4223259 0 18.6576269-.120307.120307-1.389938.162712-4.871671.162712-4.10008 0-4.736509-.02755-4.922033-.213075z"/><path d="m6.1759764 20.047752c-1.0505157-1.050515-1.0204797-1.21048.5172242-2.754604l1.2423532-1.24754-1.2423532-1.312718c-1.517526-1.603476-1.5436178-1.739547-.526225-2.744302 1.0129214-1.000339 1.1285232-.974835 2.634993.581322l1.2494264 1.290635 1.259048-1.289762c1.526762-1.564006 1.649023-1.590421 2.653511-.573299.999367 1.011938.974197 1.140603-.535121 2.735406l-1.242353 1.312718 1.242353 1.24754c1.525925 1.532296 1.552875 1.673373.522815 2.736851-.395746.408585-.831412.742882-.968146.742882s-.85023-.591082-1.585546-1.313516l-1.336939-1.313517-1.3369388 1.313517c-.7353164.722434-1.4462966 1.313516-1.5799558 1.313516-.1336594 0-.5693252-.326308-.968146-.725129z"/><path d="m19.223245 25.305569c-.189479-.189478-.213076-1.22257-.213076-9.328814 0-6.9092274.03939-9.1551233.162712-9.2784499.233223-.2332228 9.610845-.2332228 9.844068 0 .235302.2353023.235302 18.4223259 0 18.6576269-.120307.120307-1.389938.162712-4.871671.162712-4.10008 0-4.736509-.02755-4.922033-.213075z"/><path d="m6.1759764 20.047752c-1.0506788-1.050678-1.020634-1.210325.5186814-2.756067l1.2438105-1.249004-1.2438105-1.301048c-1.5253311-1.595525-1.553094-1.74037-.5276822-2.753045.4550017-.449349.8324785-.707232 1.0352138-.707232.2197124 0 .7145631.387831 1.5889566 1.245318l1.269871 1.245318 1.269871-1.245318c.8941-.876813 1.366925-1.245318 1.597852-1.245318.470541 0 1.742446 1.310808 1.742446 1.795742 0 .27328-.308674.686365-1.24381 1.664535l-1.24381 1.301048 1.24381 1.249004c1.539315 1.545742 1.56936 1.705389.518681 2.756067-.39882.398821-.834486.725129-.968146.725129-.133659 0-.844639-.591082-1.579955-1.313516l-1.336939-1.313517-1.3369388 1.313517c-.7353164.722434-1.4462966 1.313516-1.5799558 1.313516-.1336594 0-.5693252-.326308-.968146-.725129z"/></g></svg>