<svg enable-background="new" height="32" width="32" xmlns="http://www.w3.org/2000/svg" xmlns:xlink="http://www.w3.org/1999/xlink"><filter id="a" color-interpolation-filters="sRGB"><feBlend in2="BackgroundImage" mode="darken"/></filter><path d="m7.9115011 1.8547628c-1.244456.0239133-2.4932213.4011348-3.5917663 1.1492955-2.9294569 1.9951648-3.63753046 5.9022176-1.5863084 8.7516117 2.0512436 2.849404 6.0662316 3.538127 8.9956986 1.542952 2.106661-1.434787 3.063722-3.8529232 2.673951-6.1665438-.090817-.5405765-.263639-1.0436889-.487817-1.5306389l-5.8754825 6.5303087-.6359691.731065-.7226819-.674837-2.775132-2.6992858c-.3481762-.3386141-.3481439-.9547692 0-1.2934044.3481546-.3386351.9816244-.3386561 1.3297575 0l2.0813436 2.0244692 5.5719394-6.2017001c-.996093-1.1168657-2.321142-1.826828-3.7399286-2.0701666-.4079993-.0699569-.8227857-.1011071-1.2376043-.093136z" fill="#4285f4" stroke-width="1.062974" transform="matrix(2.1658858 0 0 2.2247078 -1.379965 -2.123571)"/><g fill="#f47750" filter="url(#a)" transform="translate(-485.00137 250.99797)"/></svg>