<?xml version="1.0" encoding="UTF-8" standalone="no"?>
<svg
   xmlns:dc="http://purl.org/dc/elements/1.1/"
   xmlns:cc="http://creativecommons.org/ns#"
   xmlns:rdf="http://www.w3.org/1999/02/22-rdf-syntax-ns#"
   xmlns:svg="http://www.w3.org/2000/svg"
   xmlns="http://www.w3.org/2000/svg"
   xmlns:sodipodi="http://sodipodi.sourceforge.net/DTD/sodipodi-0.dtd"
   xmlns:inkscape="http://www.inkscape.org/namespaces/inkscape"
   viewBox="0 0 32 32"
   version="1.1"
   id="svg4"
   sodipodi:docname="task-reject.svg"
   width="32"
   height="32"
   inkscape:version="1.0.1 (3bc2e813f5, 2020-09-07)">
  <metadata
     id="metadata10">
    <rdf:RDF>
      <cc:Work
         rdf:about="">
        <dc:format>image/svg+xml</dc:format>
        <dc:type
           rdf:resource="http://purl.org/dc/dcmitype/StillImage" />
        <dc:title />
      </cc:Work>
    </rdf:RDF>
  </metadata>
  <defs
     id="defs8" />
  <sodipodi:namedview
     pagecolor="#ffffff"
     bordercolor="#666666"
     borderopacity="1"
     objecttolerance="10"
     gridtolerance="10"
     guidetolerance="10"
     inkscape:pageopacity="0"
     inkscape:pageshadow="2"
     inkscape:window-width="1366"
     inkscape:window-height="702"
     id="namedview6"
     showgrid="false"
     inkscape:zoom="7.375"
     inkscape:cx="-26.237288"
     inkscape:cy="8"
     inkscape:window-x="0"
     inkscape:window-y="0"
     inkscape:window-maximized="1"
     inkscape:current-layer="svg4"
     inkscape:document-rotation="0" />
  <path
     d="M 28.122773,8.9725973 C 26.870914,6.82776 25.172683,5.1295413 23.027855,3.87768 20.882582,2.6258187 18.540634,2 16.000448,2 13.460485,2 11.117866,2.6258187 8.9730386,3.87768 6.8279873,5.1293173 5.1297565,6.827536 3.8778989,8.9725973 2.625817,11.11764 2,13.460269 2,16 c 0,2.539955 0.6260408,4.882136 1.8776749,7.027403 1.251858,2.144613 2.9500888,3.843056 5.0951399,5.094917 C 11.117866,29.374181 13.460261,30 16.000224,30 c 2.539962,0 4.882579,-0.625819 7.027407,-1.87768 2.144828,-1.251637 3.843059,-2.95008 5.094918,-5.094917 C 29.374184,20.88236 30,18.539731 30,16 30,13.460045 29.374184,11.117416 28.122773,8.9725973 Z M 22.599159,19.299352 c 0.230907,0.230673 0.346582,0.50456 0.346582,0.820475 0,0.32801 -0.115687,0.607693 -0.346582,0.838376 l -1.640504,1.640725 c -0.230906,0.230907 -0.510364,0.34636 -0.838599,0.34636 -0.315929,0 -0.589794,-0.115547 -0.820253,-0.34636 l -3.299579,-3.299576 -3.29958,3.299576 c -0.230907,0.230907 -0.504323,0.34636 -0.820252,0.34636 -0.328235,0 -0.607694,-0.115547 -0.8386,-0.34636 L 9.4010643,20.958203 C 9.1701576,20.727529 9.0547059,20.447837 9.0547059,20.119827 c 0,-0.315915 0.1154534,-0.589792 0.3463584,-0.820475 L 12.700644,16 9.4010643,12.700424 C 9.1701576,12.469751 9.0547059,12.196088 9.0547059,11.880173 c 0,-0.328234 0.1154534,-0.607693 0.3463584,-0.8386 L 11.041792,9.401072 c 0.230907,-0.2309067 0.510365,-0.34636 0.8386,-0.34636 0.315929,0 0.589346,0.1155467 0.820252,0.34636 l 3.29958,3.299352 3.299579,-3.299352 c 0.230459,-0.2309067 0.504324,-0.34636 0.820253,-0.34636 0.328235,0 0.607693,0.1155467 0.838599,0.34636 l 1.640504,1.640501 c 0.230907,0.230907 0.346582,0.510366 0.346582,0.8386 0,0.315915 -0.115687,0.589568 -0.346582,0.820251 L 19.299803,16 Z"
     id="path2"
     inkscape:connector-curvature="0"
     style="fill:#ff0000;stroke-width:2.33333325;fill-opacity:1" />
</svg>
