<?xml version="1.0" encoding="UTF-8" standalone="no"?>
<svg
   xmlns:dc="http://purl.org/dc/elements/1.1/"
   xmlns:cc="http://creativecommons.org/ns#"
   xmlns:rdf="http://www.w3.org/1999/02/22-rdf-syntax-ns#"
   xmlns:svg="http://www.w3.org/2000/svg"
   xmlns="http://www.w3.org/2000/svg"
   xmlns:sodipodi="http://sodipodi.sourceforge.net/DTD/sodipodi-0.dtd"
   xmlns:inkscape="http://www.inkscape.org/namespaces/inkscape"
   viewBox="0 0 32 32"
   version="1.1"
   id="svg6"
   sodipodi:docname="tools-report-bug.svg"
   width="32"
   height="32"
   inkscape:version="1.0.1 (3bc2e813f5, 2020-09-07)">
  <metadata
     id="metadata10">
    <rdf:RDF>
      <cc:Work
         rdf:about="">
        <dc:format>image/svg+xml</dc:format>
        <dc:type
           rdf:resource="http://purl.org/dc/dcmitype/StillImage" />
        <dc:title />
      </cc:Work>
    </rdf:RDF>
  </metadata>
  <sodipodi:namedview
     pagecolor="#ffffff"
     bordercolor="#666666"
     borderopacity="1"
     objecttolerance="10"
     gridtolerance="10"
     guidetolerance="10"
     inkscape:pageopacity="0"
     inkscape:pageshadow="2"
     inkscape:window-width="1366"
     inkscape:window-height="702"
     id="namedview8"
     showgrid="false"
     inkscape:zoom="10.727273"
     inkscape:cx="-19.34322"
     inkscape:cy="11"
     inkscape:window-x="0"
     inkscape:window-y="0"
     inkscape:window-maximized="1"
     inkscape:current-layer="svg6"
     inkscape:document-rotation="0" />
  <defs
     id="defs3051">
    <style
       type="text/css"
       id="current-color-scheme">
     .ColorScheme-Text {
       color:#f2f2f2;
     }
     </style>
  </defs>
  <path
     style="color:#f2f2f2;fill:#ff0000;fill-opacity:1;stroke:none;stroke-width:1.82810509"
     d="M 16,2.0000001 A 13.998795,13.998795 0 0 0 1.9999999,16 13.998795,13.998795 0 0 0 16,30 13.998795,13.998795 0 0 0 30,16 13.998795,13.998795 0 0 0 16,2.0000001 Z m -4.870186,6.8910991 c 1.180031,0 2.13874,0.95815 2.13874,2.1387398 0,1.181139 -0.958709,2.138741 -2.13874,2.138741 -1.180375,0 -2.13874,-0.957602 -2.13874,-2.138741 0,-1.180407 0.958365,-2.1387398 2.13874,-2.1387398 z m 9.693956,0 c 1.180029,0 2.13517,0.95815 2.13517,2.1387398 0,1.181139 -0.954796,2.138741 -2.13517,2.138741 -1.180375,0 -2.138741,-0.957602 -2.138741,-2.138741 0,-1.180407 0.958366,-2.1387398 2.138741,-2.1387398 z M 15.99643,17.03902 c 3.476312,0 6.580308,1.981604 7.905126,5.045142 0.226835,0.524118 -0.01515,1.129565 -0.539148,1.356796 -0.523997,0.227053 -1.133531,-0.01481 -1.360368,-0.539146 -0.996975,-2.306155 -3.354595,-3.795461 -6.00561,-3.795461 -2.712383,0 -5.083985,1.490586 -6.041317,3.795461 -0.165129,0.398161 -0.547918,0.635551 -0.953328,0.635551 -0.132378,0 -0.266715,-0.02554 -0.3963273,-0.07855 C 8.0776618,23.23962 7.8256345,22.636197 8.0448864,22.109154 9.323856,19.029894 12.445307,17.039018 15.99643,17.039018 Z"
     class="ColorScheme-Text"
     id="path4"
     inkscape:connector-curvature="0" />
</svg>
