<svg height="32" viewBox="0 0 32 32" width="32" xmlns="http://www.w3.org/2000/svg"><path d="m16 2.0000001a13.998795 13.998795 0 0 0 -14.0000001 13.9999999 13.998795 13.998795 0 0 0 14.0000001 14 13.998795 13.998795 0 0 0 14-14 13.998795 13.998795 0 0 0 -14-13.9999999zm-4.870186 6.8910991c1.180031 0 2.13874.95815 2.13874 2.1387398 0 1.181139-.958709 2.138741-2.13874 2.138741-1.180375 0-2.13874-.957602-2.13874-2.138741 0-1.180407.958365-2.1387398 2.13874-2.1387398zm9.693956 0c1.180029 0 2.13517.95815 2.13517 2.1387398 0 1.181139-.954796 2.138741-2.13517 2.138741-1.180375 0-2.138741-.957602-2.138741-2.138741 0-1.180407.958366-2.1387398 2.138741-2.1387398zm-4.82734 8.1479208c3.476312 0 6.580308 1.981604 7.905126 5.045142.226835.524118-.01515 1.129565-.539148 1.356796-.523997.227053-1.133531-.01481-1.360368-.539146-.996975-2.306155-3.354595-3.795461-6.00561-3.795461-2.712383 0-5.083985 1.490586-6.041317 3.795461-.165129.398161-.547918.635551-.953328.635551-.132378 0-.266715-.02554-.3963273-.07855-.5277959-.219193-.7798232-.822616-.5605713-1.349659 1.2789696-3.07926 4.4004206-5.070136 7.9515436-5.070136z" fill="#db3236"/></svg>