<svg xmlns="http://www.w3.org/2000/svg" viewBox="0 0 32 32">
  <path fill="#733737" d="M26.5 16.9c.2.2.3.4.3.6 0 .2-.1.4-.3.6-.2.2-.4.3-.6.3h-3c0 1.5-.3 2.8-.9 3.9l2.8 2.8c.2.2.3.4.3.6 0 .2-.1.4-.3.6-.2.2-.4.3-.6.3s-.4-.1-.6-.3l-2.7-2.6-.2.2c-.1.1-.3.2-.6.4s-.6.3-.9.5c-.3.1-.7.3-1.1.4-.4.1-.9.2-1.3.2v-12h-1.7v12c-.5 0-.9-.1-1.4-.2s-.8-.3-1.2-.4c-.3-.2-.6-.3-.9-.5-.3-.2-.5-.3-.6-.4v-.5l-2.5 2.8c-.2.2-.4.3-.6.3-.2 0-.4-.1-.6-.2-.2-.2-.3-.4-.3-.6 0-.2.1-.4.2-.6l2.7-3c-.5-1-.8-2.2-.8-3.7h-3c-.2 0-.4-.1-.6-.3-.2-.2-.3-.4-.3-.6 0-.2.1-.4.3-.6.2-.2.4-.3.6-.3h3v-3.9l-2.3-2.3c-.1-.2-.2-.4-.2-.6 0-.2.1-.4.3-.6.1-.2.3-.3.5-.3.3 0 .5.1.6.3l2.3 2.3h11.3L24 9.2c.2-.2.4-.3.6-.3.2 0 .4.1.6.3.2.2.3.4.3.6 0 .2-.1.4-.3.6l-2.3 2.3v3.9h3c.2 0 .4.1.6.3zm-6.2-7.1h-8.6c0-1.2.4-2.2 1.3-3s1.8-1.3 3-1.3 2.2.4 3 1.3 1.3 1.8 1.3 3z"/>
</svg>
