<svg height="32" viewBox="0 0 32 32" width="32" xmlns="http://www.w3.org/2000/svg"><g stroke-width="1.82616"><path d="m2.0525823 15.531746.54839 5.472684 8.8445857-.687998-.548049-5.466875c-.01264-.131402-.01946-.267645-.01946-.401952 0-2.510829 2.297707-4.5538441 5.12195-4.5538441 2.824244 0 5.121953 2.0433381 5.121953 4.5538441 0 .134314-.0068.27055-.01946.402275l-.548049 5.466552 8.844585.687998.54805-5.472684c.034818-.361596.052922-.724483.052922-1.084141 0-6.8641828-6.280537-12.4476052-13.999999-12.4476052-7.7194637 0-14.0000004 5.5834224-14.0000004 12.4476052 0 .359658.018104.722545.052586 1.084141z" fill="#f00"/><path d="m19.695148 28.372285c-.04883.534703.370145 1.009885.93117 1.057296l6.804001.566548c.561023.04777 1.060243-.352317 1.109756-.886679l.530975-5.686919-8.843902-.737861zm-16.7661967-4.949754.5316585 5.686919c.048829.534362.5487317.93444 1.1097561.886679l6.8040001-.566548c.559658-.04741.978976-.522593.931171-1.057296l-.531659-5.687615z" fill="#808080"/></g></svg>