<svg xmlns="http://www.w3.org/2000/svg" viewBox="0 0 32 32">
  <path fill="#733737" d="M26.5 9.9c1.1 1.9 1.6 3.9 1.6 6.1s-.5 4.2-1.6 6.1c-1.1 1.9-2.6 3.3-4.4 4.4-1.9 1.1-3.9 1.6-6.1 1.6s-4.2-.5-6.1-1.6c-1.9-1.1-3.3-2.6-4.4-4.4-1.1-1.9-1.6-3.9-1.6-6.1s.5-4.2 1.6-6.1C6.6 8 8.1 6.6 9.9 5.5c1.9-1.1 3.9-1.6 6.1-1.6s4.2.5 6.1 1.6c1.8 1.1 3.3 2.6 4.4 4.4zM22 19.6c0-.3-.1-.5-.3-.7L18.9 16l2.9-2.9c.2-.2.3-.4.3-.7 0-.3-.1-.5-.3-.7l-1.4-1.4c-.2-.2-.4-.3-.7-.3-.3 0-.5.1-.7.3l-3 2.8-2.9-2.9c-.2-.2-.4-.3-.7-.3-.3 0-.5.1-.7.3l-1.4 1.4c-.2.2-.3.4-.3.7 0 .3.1.5.3.7l2.9 2.9-2.9 2.9c-.2.2-.3.4-.3.7 0 .3.1.5.3.7l1.4 1.4c.2.2.4.3.7.3.3 0 .5-.1.7-.3l2.9-2.9 2.9 2.9c.2.2.4.3.7.3.3 0 .5-.1.7-.3l1.4-1.4c.2-.1.3-.4.3-.6z"/>
</svg>
