<svg viewBox="0 0 32 32" xmlns="http://www.w3.org/2000/svg"><path d="m29.10265 18.000235c.193041.202556.386081.506389.386081.9115v2.633221c0 .303833-.09652.607666-.386081.911499-.193041.202556-.482602.405111-.868684.405111h-5.405145v5.570275c0 .303834-.09652.607667-.386082.9115-.193041.202555-.482602.405111-.868684.405111h-2.509531c-.289561 0-.579123-.101278-.868684-.405111s-.386082-.506389-.386082-.9115v-5.570275h-5.212104c-.386081 0-.675643-.101278-.868683-.405111-.193041-.202555-.386082-.506388-.386082-.911499l.09652-2.633221c0-.303833.09652-.607667.386082-.9115.193041-.202555.482602-.405111.868684-.405111h5.308624v-5.570275c0-.303833.09652-.607666.386082-.911499.193041-.202556.482602-.405111.868684-.405111h2.509531c.289562 0 .579123.101277.868684.405111.193041.202555.386082.506388.386082.911499v5.570275h5.308624c.289562.101278.482602.202556.772164.405111z" fill="#0fbb58" stroke="#fff" stroke-miterlimit="10" stroke-width=".494352"/><g fill="#4285f4" transform="matrix(.9652044 0 0 1.0127773 .436079 -.331034)"><path d="m18.4 7.8c.8 0 1.4-.3 1.9-.8s.8-1.2.8-1.9c0-.8-.3-1.4-.8-1.9s-1.2-.8-1.9-.8c-.8 0-1.4.3-1.9.8s-.8 1.2-.8 1.9c0 .8.3 1.4.8 1.9s1.1.8 1.9.8zm-9.1 4.3c.8.8 1.8 1.2 2.9 1.2s2.1-.4 2.9-1.2 1.2-1.8 1.2-2.9-.4-2.1-1.2-2.9-1.8-1.3-2.9-1.3-2.1.4-2.9 1.2-1.2 1.8-1.2 3c0 1.1.4 2.1 1.2 2.9zm10.4-3.6c-.4.2-.9.2-1.3.2-.5 0-1-.1-1.4-.2v.7c0 1-.3 1.9-.9 2.8.6 0 1.2.2 1.7.4v-.1c0-.4.2-.8.5-1.1s.6-.4 1.1-.5h2.6c.2 0 .4 0 .5.1-.1-2-.5-3-1.3-3 0 0-.2.1-.5.2-.2.2-.6.3-1 .5zm-11.4 3.4c-.6-.8-.9-1.8-.9-2.8 0-.2 0-.4.1-.7-.5.2-1 .3-1.5.3-.4 0-.8-.1-1.3-.2-.4-.2-.7-.3-1-.5-.3-.1-.4-.2-.5-.2-.9 0-1.3 1.3-1.3 3.8 0 .6.2 1 .6 1.3s.9.4 1.5.4h1.4c.8-.9 1.7-1.4 2.9-1.4z"/><path d="m11 19c0-.4.2-.7.5-1.1.3-.3.6-.4 1.1-.5h5.3v-4.4l-.6-.3c-.4-.1-.8-.2-1.2-.2-.1 0-.2.1-.5.2-.2.2-.5.3-.8.5s-.7.4-1.1.5c-.5.2-1 .2-1.5.2s-1-.1-1.4-.2c-.5-.2-.9-.3-1.1-.5-.3-.2-.5-.4-.8-.5-.2-.2-.4-.2-.5-.2-.4 0-.8.1-1.2.2s-.7.3-.9.6c-.3.2-.5.5-.7.9-.2.3-.3.7-.5 1-.1.5-.2.8-.3 1.3-.1.4-.1.8-.2 1.2v1.1c0 .9.3 1.5.8 2s1.2.7 2.1.7h3.5zm-5-11.2c.8 0 1.4-.3 2-.8.5-.6.8-1.2.8-2s-.3-1.4-.8-1.9c-.6-.5-1.2-.8-2-.8s-1.4.3-1.9.8c-.6.5-.8 1.2-.8 1.9 0 .8.3 1.4.8 1.9.5.6 1.2.9 1.9.9z"/></g></svg>