<?xml version="1.0" encoding="UTF-8" standalone="no"?>
<svg
   xmlns:dc="http://purl.org/dc/elements/1.1/"
   xmlns:cc="http://creativecommons.org/ns#"
   xmlns:rdf="http://www.w3.org/1999/02/22-rdf-syntax-ns#"
   xmlns:svg="http://www.w3.org/2000/svg"
   xmlns="http://www.w3.org/2000/svg"
   xmlns:sodipodi="http://sodipodi.sourceforge.net/DTD/sodipodi-0.dtd"
   xmlns:inkscape="http://www.inkscape.org/namespaces/inkscape"
   viewBox="0 0 32 32"
   version="1.1"
   id="svg10"
   sodipodi:docname="user-group-new.svg"
   inkscape:version="0.92.4 5da689c313, 2019-01-14">
  <metadata
     id="metadata16">
    <rdf:RDF>
      <cc:Work
         rdf:about="">
        <dc:format>image/svg+xml</dc:format>
        <dc:type
           rdf:resource="http://purl.org/dc/dcmitype/StillImage" />
        <dc:title />
      </cc:Work>
    </rdf:RDF>
  </metadata>
  <defs
     id="defs14" />
  <sodipodi:namedview
     pagecolor="#ffffff"
     bordercolor="#666666"
     borderopacity="1"
     objecttolerance="10"
     gridtolerance="10"
     guidetolerance="10"
     inkscape:pageopacity="0"
     inkscape:pageshadow="2"
     inkscape:window-width="1366"
     inkscape:window-height="703"
     id="namedview12"
     showgrid="false"
     inkscape:zoom="7.375"
     inkscape:cx="8.0677968"
     inkscape:cy="16"
     inkscape:window-x="0"
     inkscape:window-y="0"
     inkscape:window-maximized="1"
     inkscape:current-layer="svg10" />
  <g
     id="g819">
    <path
       style="fill:#0fbb58;fill-opacity:1;stroke:#ffffff;stroke-width:0.49435237;stroke-miterlimit:10"
       id="path2"
       d="m 29.10265,18.000235 c 0.193041,0.202556 0.386081,0.506389 0.386081,0.9115 v 2.633221 c 0,0.303833 -0.09652,0.607666 -0.386081,0.911499 -0.193041,0.202556 -0.482602,0.405111 -0.868684,0.405111 h -5.405145 v 5.570275 c 0,0.303834 -0.09652,0.607667 -0.386082,0.9115 -0.193041,0.202555 -0.482602,0.405111 -0.868684,0.405111 h -2.509531 c -0.289561,0 -0.579123,-0.101278 -0.868684,-0.405111 -0.289561,-0.303833 -0.386082,-0.506389 -0.386082,-0.9115 v -5.570275 h -5.212104 c -0.386081,0 -0.675643,-0.101278 -0.868683,-0.405111 C 11.53593,22.2539 11.342889,21.950067 11.342889,21.544956 l 0.09652,-2.633221 c 0,-0.303833 0.09652,-0.607667 0.386082,-0.9115 0.193041,-0.202555 0.482602,-0.405111 0.868684,-0.405111 h 5.308624 v -5.570275 c 0,-0.303833 0.09652,-0.607666 0.386082,-0.911499 0.193041,-0.202556 0.482602,-0.405111 0.868684,-0.405111 h 2.509531 c 0.289562,0 0.579123,0.101277 0.868684,0.405111 0.193041,0.202555 0.386082,0.506388 0.386082,0.911499 v 5.570275 h 5.308624 c 0.289562,0.101278 0.482602,0.202556 0.772164,0.405111 z"
       stroke-miterlimit="10"
       inkscape:connector-curvature="0" />
    <g
       transform="matrix(0.9652044,0,0,1.0127773,0.43607905,-0.33103396)"
       style="fill:#4285f4;fill-opacity:1"
       id="g8">
      <path
         style="fill:#4285f4;fill-opacity:1"
         id="path4"
         d="M 18.4,7.8 C 19.2,7.8 19.8,7.5 20.3,7 20.8,6.5 21.1,5.8 21.1,5.1 21.1,4.3 20.8,3.7 20.3,3.2 19.8,2.7 19.1,2.4 18.4,2.4 17.6,2.4 17,2.7 16.5,3.2 16,3.7 15.7,4.4 15.7,5.1 c 0,0.8 0.3,1.4 0.8,1.9 0.5,0.5 1.1,0.8 1.9,0.8 z m -9.1,4.3 c 0.8,0.8 1.8,1.2 2.9,1.2 1.1,0 2.1,-0.4 2.9,-1.2 0.8,-0.8 1.2,-1.8 1.2,-2.9 C 16.3,8.1 15.9,7.1 15.1,6.3 14.3,5.5 13.3,5 12.2,5 11.1,5 10.1,5.4 9.3,6.2 8.5,7 8.1,8 8.1,9.2 c 0,1.1 0.4,2.1 1.2,2.9 z M 19.7,8.5 c -0.4,0.2 -0.9,0.2 -1.3,0.2 -0.5,0 -1,-0.1 -1.4,-0.2 v 0.7 c 0,1 -0.3,1.9 -0.9,2.8 0.6,0 1.2,0.2 1.7,0.4 v -0.1 c 0,-0.4 0.2,-0.8 0.5,-1.1 0.3,-0.3 0.6,-0.4 1.1,-0.5 H 22 c 0.2,0 0.4,0 0.5,0.1 -0.1,-2 -0.5,-3 -1.3,-3 0,0 -0.2,0.1 -0.5,0.2 -0.2,0.2 -0.6,0.3 -1,0.5 z M 8.3,11.9 C 7.7,11.1 7.4,10.1 7.4,9.1 7.4,8.9 7.4,8.7 7.5,8.4 7,8.6 6.5,8.7 6,8.7 5.6,8.7 5.2,8.6 4.7,8.5 4.3,8.3 4,8.2 3.7,8 3.4,7.9 3.3,7.8 3.2,7.8 c -0.9,0 -1.3,1.3 -1.3,3.8 0,0.6 0.2,1 0.6,1.3 0.4,0.3 0.9,0.4 1.5,0.4 h 1.4 c 0.8,-0.9 1.7,-1.4 2.9,-1.4 z"
         inkscape:connector-curvature="0" />
      <path
         style="fill:#4285f4;fill-opacity:1"
         id="path6"
         d="m 11,19 c 0,-0.4 0.2,-0.7 0.5,-1.1 0.3,-0.3 0.6,-0.4 1.1,-0.5 h 5.3 V 13 l -0.6,-0.3 c -0.4,-0.1 -0.8,-0.2 -1.2,-0.2 -0.1,0 -0.2,0.1 -0.5,0.2 -0.2,0.2 -0.5,0.3 -0.8,0.5 -0.3,0.2 -0.7,0.4 -1.1,0.5 -0.5,0.2 -1,0.2 -1.5,0.2 -0.5,0 -1,-0.1 -1.4,-0.2 C 10.3,13.5 9.9,13.4 9.7,13.2 9.4,13 9.2,12.8 8.9,12.7 8.7,12.5 8.5,12.5 8.4,12.5 8,12.5 7.6,12.6 7.2,12.7 6.8,12.8 6.5,13 6.3,13.3 6,13.5 5.8,13.8 5.6,14.2 5.4,14.5 5.3,14.9 5.1,15.2 5,15.7 4.9,16 4.8,16.5 4.7,16.9 4.7,17.3 4.6,17.7 v 1.1 c 0,0.9 0.3,1.5 0.8,2 0.5,0.5 1.2,0.7 2.1,0.7 H 11 Z M 6,7.8 C 6.8,7.8 7.4,7.5 8,7 8.5,6.4 8.8,5.8 8.8,5 8.8,4.2 8.5,3.6 8,3.1 7.4,2.6 6.8,2.3 6,2.3 5.2,2.3 4.6,2.6 4.1,3.1 3.5,3.6 3.3,4.3 3.3,5 3.3,5.8 3.6,6.4 4.1,6.9 4.6,7.5 5.3,7.8 6,7.8 Z"
         inkscape:connector-curvature="0" />
    </g>
  </g>
</svg>
