<svg viewBox="0 0 32 32" xmlns="http://www.w3.org/2000/svg"><path d="m30 26.855073c0 .405797-.09964.608696-.398577.913043l-1.793594 1.826088c-.199288.202898-.49822.405797-.896797.405797-.398576 0-.597865-.10145-.896797-.405797l-3.886121-4.057972-3.886121 3.956522c-.199288.202899-.498221.405797-.896797.405797-.398577 0-.597865-.101449-.896797-.405797l-1.793595-1.826087c-.199288-.202898-.398576-.507246-.398576-.913043s.09964-.608696.398576-.913044l3.886121-3.956522-3.985765-3.855072c-.298932-.202899-.398576-.608696-.398576-.913044 0-.405797.09964-.608696.398576-.913043l1.893239-1.826087c.199288-.202899.49822-.405798.896797-.405798.398576 0 .597864.10145.896797.405798l3.886121 3.956521 3.886121-3.956521c.199288-.202899.498221-.405798.896797-.405798.398577 0 .597865.10145.896797.405798l1.793594 1.826087c.199289.202898.398577.507246.398577.913043s-.09964.608696-.398577.913044l-3.886121 4.057971 3.886121 3.956522c.298933.202898.398577.507246.398577.811594z" fill="#db3236" stroke-width="1.005427"/><g fill="#4285f4" transform="matrix(.99644128 0 0 1.0144928 .007117 -.231885)"><path d="m9.3 12c.8.8 1.8 1.2 2.9 1.2s2.1-.4 2.9-1.2 1.2-1.8 1.2-2.9-.4-2.1-1.2-2.9-1.8-1.2-2.9-1.2-2.1.4-2.9 1.2c-.8.7-1.2 1.7-1.2 2.8 0 1.2.4 2.2 1.2 3zm9.1-4.3c.8 0 1.4-.3 1.9-.8s.8-1.2.8-1.9c0-.8-.3-1.4-.8-1.9s-1.2-.8-1.9-.8c-.8 0-1.4.3-1.9.8s-.8 1.2-.8 1.9c0 .8.3 1.4.8 1.9s1.2.8 1.9.8zm1.3.7c-.4.2-.9.2-1.3.2-.5 0-1-.1-1.4-.2 0 .3.1.5.1.7 0 1-.3 1.9-.9 2.8 1.2 0 2.1.5 2.8 1.4h1.4c.6 0 1.1-.1 1.5-.4s.6-.7.6-1.3c0-2.5-.4-3.8-1.3-3.8 0 0-.2.1-.5.2-.2 0-.6.2-1 .4zm-13.6-.7c.8 0 1.4-.3 1.9-.8s.8-1.2.8-1.9c0-.8-.3-1.5-.8-2-.5-.6-1.2-.8-1.9-.8-.8 0-1.5.2-2 .8-.5.5-.8 1.2-.8 1.9 0 .8.3 1.4.8 1.9.5.6 1.2.9 2 .9z"/><path d="m17.6 21.4-3.2-3.2c-.3-.2-.5-.6-.5-1.1 0-.4.1-.7.4-1.1l1.9-1.8c.3-.3.6-.4 1.1-.4.4 0 .7.1 1.1.4l.8.8c-.1-.3-.2-.6-.4-.8-.2-.3-.4-.6-.7-.9l-.9-.6c-.4-.1-.8-.2-1.2-.2-.1 0-.2.1-.5.2-.2.2-.5.3-.8.5s-.7.4-1.1.5c-.5.2-1 .2-1.5.2s-1-.1-1.4-.2c-.5-.2-.9-.3-1.1-.5-.3-.2-.5-.4-.8-.5-.2-.2-.4-.2-.5-.2-.4 0-.8.1-1.2.2s-.7.3-.9.6c-.3.2-.5.5-.7.9-.2.3-.3.7-.5 1-.1.4-.2.7-.3 1.2-.1.4-.1.8-.2 1.2v1.1c0 .9.3 1.5.8 2s1.2.7 2.1.7zm-9.3-9.6c-.6-.8-.9-1.8-.9-2.8 0-.2 0-.4.1-.7-.5.2-1 .3-1.4.3s-.8-.1-1.3-.2c-.5-.2-.8-.4-1.1-.5-.2-.2-.4-.2-.4-.2-.9 0-1.3 1.3-1.3 3.8 0 .6.2 1 .6 1.3.3.2.8.4 1.4.4h1.4c.8-.9 1.7-1.4 2.9-1.4z"/></g></svg>