<svg height="32" viewBox="0 0 32 32" width="32" xmlns="http://www.w3.org/2000/svg"><g fill="#1e90ff" transform="matrix(1.4999999 0 0 1.7692308 -.499999 -21.153847)"><path d="m11 14.5c-4.4116446 0-8.2131073 2.586902-9.9597315 6.319331-.053692.113081-.053692.2461 0 .361338 1.7466243 3.732399 5.5481179 6.319331 9.9597315 6.319331 4.411615 0 8.213093-2.586917 9.959733-6.319331.05369-.113081.05369-.2461 0-.361338-1.74664-3.732429-5.548103-6.319331-9.959733-6.319331zm0 2.018376c2.491192 0 4.508153 2.008079 4.508153 4.483567 0 2.475474-2.0191 4.483567-4.508153 4.483567-2.4912046 0-4.5081517-2.008093-4.5081517-4.483567 0-2.477615 2.0191001-4.483567 4.5081517-4.483567zm0 1.610429a2.8860171 2.8702778 0 0 0 -2.8869426 2.869252 2.8860171 2.8702778 0 0 0 2.8869426 2.871195 2.8860171 2.8702778 0 0 0 2.886928-2.871195 2.8860171 2.8702778 0 0 0 -2.886928-2.869252z"/><path d="m11 10.5c-4.4116446 0-8.2131073 2.586902-9.9597315 6.319331-.053692.113081-.053692.2461 0 .361338 1.7466243 3.732399 5.5481179 6.319331 9.9597315 6.319331 4.411615 0 8.213093-2.586917 9.959733-6.319331.05369-.113081.05369-.2461 0-.361338-1.74664-3.732429-5.548103-6.319331-9.959733-6.319331zm0 2.018376c2.491192 0 4.508153 2.008079 4.508153 4.483567 0 2.475474-2.0191 4.483567-4.508153 4.483567-2.4912046 0-4.5081517-2.008093-4.5081517-4.483567 0-2.477615 2.0191001-4.483567 4.5081517-4.483567zm0 1.610429a2.8860171 2.8702778 0 0 0 -2.8869426 2.869252 2.8860171 2.8702778 0 0 0 2.8869426 2.871195 2.8860171 2.8702778 0 0 0 2.886928-2.871195 2.8860171 2.8702778 0 0 0 -2.886928-2.869252z" transform="translate(0 4)"/></g></svg>