<svg enable-background="new" height="32" width="32" xmlns="http://www.w3.org/2000/svg"><path d="m30.999908 16.000106h-3.749992c0-5.29471-3.497556-9.7437905-8.261691-11.0809193-.05925-.0173052-.116443-.0440947-.175693-.0598009-.478455-.1255389-.964005-.1790096-1.464834-.2395863-.437399-.052901-.89636-.1197995-1.347652-.1197995-1.155559.00122-2.304143.1822733-3.398427.5390717v.059801c-1.577976.5118741-3.0255274 1.3308025-4.218736 2.4557706l2.226555 3.0547397c.941247-.983721 2.17143-1.6222316 3.515613-1.9765916v-.0598c.712723-.1711681 1.480534-.2333016 2.226556-.1796007.340874.024536.654916.054803.996091.1197986 3.500745.6474817 6.152323 3.7218677 6.152323 7.4871077h-3.749987l5.624983 7.6668 5.624983-7.666797zm-7.382793 8.445457-2.226554-3.054739c-.941248.983727-2.17143 1.622236-3.515615 1.976596v.0598c-.712723.171145-1.480533.2333-2.226556.1796-.340874-.02454-.654916-.0548-.99609-.119777-3.500745-.647502-6.1523238-3.721888-6.1523238-7.487129h3.7499868l-5.6249807-7.6667966-5.62498238 7.6667966h3.74998818c0 5.294711 3.4975576 9.743791 8.2616929 11.08092.06038.01709.114936.04387.175686.0598.47846.125561.964009.179031 1.464839.239588.437399.0529.896359.119778 1.347652.119778 1.155559-.0013 2.304142-.182273 3.398426-.539072v-.0598c1.577974-.511863 3.025528-1.330791 4.218735-2.455759z" fill="#4285f4" stroke-width="1.895731"/></svg>