<?xml version="1.0" encoding="UTF-8" standalone="no"?>
<svg
   xmlns:dc="http://purl.org/dc/elements/1.1/"
   xmlns:cc="http://creativecommons.org/ns#"
   xmlns:rdf="http://www.w3.org/1999/02/22-rdf-syntax-ns#"
   xmlns:svg="http://www.w3.org/2000/svg"
   xmlns="http://www.w3.org/2000/svg"
   xmlns:sodipodi="http://sodipodi.sourceforge.net/DTD/sodipodi-0.dtd"
   xmlns:inkscape="http://www.inkscape.org/namespaces/inkscape"
   viewBox="0 0 32 32"
   version="1.1"
   id="svg6"
   sodipodi:docname="view-categories.svg"
   inkscape:version="0.92.4 5da689c313, 2019-01-14"
   width="32"
   height="32">
  <metadata
     id="metadata10">
    <rdf:RDF>
      <cc:Work
         rdf:about="">
        <dc:format>image/svg+xml</dc:format>
        <dc:type
           rdf:resource="http://purl.org/dc/dcmitype/StillImage" />
        <dc:title />
      </cc:Work>
    </rdf:RDF>
  </metadata>
  <sodipodi:namedview
     pagecolor="#ffffff"
     bordercolor="#666666"
     borderopacity="1"
     objecttolerance="10"
     gridtolerance="10"
     guidetolerance="10"
     inkscape:pageopacity="0"
     inkscape:pageshadow="2"
     inkscape:window-width="1366"
     inkscape:window-height="703"
     id="namedview8"
     showgrid="false"
     inkscape:zoom="7.375"
     inkscape:cx="-5.5593211"
     inkscape:cy="8"
     inkscape:window-x="0"
     inkscape:window-y="0"
     inkscape:window-maximized="1"
     inkscape:current-layer="svg6" />
  <defs
     id="defs3051">
    <style
       type="text/css"
       id="current-color-scheme">
      .ColorScheme-Text {
        color:#f2f2f2;
      }
      </style>
  </defs>
  <g
     id="g18"
     transform="matrix(1.7521394,0,0,1.75,32.155319,-25.525424)"
     style="fill:#4285f4;fill-opacity:1">
    <path
       id="path4"
       class="ColorScheme-Text"
       d="m -12.359008,16.299126 c -0.07728,0 -0.144689,0.02945 -0.201172,0.08594 -0.05648,0.05659 -0.08398,0.121937 -0.08398,0.199219 v 1.71289 c 0,0.07728 0.0275,0.144579 0.08398,0.201172 0.05648,0.05637 0.12389,0.08398 0.201172,0.08398 h 10.843749 c 0.07739,0 0.144579,-0.0275 0.201172,-0.08398 0.05648,-0.05659 0.08398,-0.12389 0.08398,-0.201172 v -1.71289 c 0,-0.07728 -0.02761,-0.142735 -0.08398,-0.199218 -0.0567,-0.05637 -0.123781,-0.08594 -0.201172,-0.08594 z m 0,6.269531 c -0.07728,0 -0.144689,0.02739 -0.201172,0.08398 -0.05648,0.05648 -0.08398,0.12389 -0.08398,0.201172 v 1.710938 c 0,0.07717 0.0275,0.144688 0.08398,0.201171 0.05648,0.05659 0.12389,0.08594 0.201172,0.08594 h 10.843749 c 0.07739,0 0.144579,-0.02934 0.201172,-0.08594 0.05648,-0.05648 0.08398,-0.123999 0.08398,-0.201171 V 22.85381 c 0,-0.07728 -0.02761,-0.144798 -0.08398,-0.201172 -0.0567,-0.05648 -0.123781,-0.08398 -0.201172,-0.08398 z m 0,6.306641 c -0.07728,0 -0.144689,0.0275 -0.201172,0.08398 -0.05648,0.05648 -0.08398,0.123999 -0.08398,0.201172 v 1.71289 c 0,0.07739 0.0275,0.142626 0.08398,0.199219 0.05648,0.05637 0.12389,0.08594 0.201172,0.08594 h 10.843749 c 0.07739,0 0.144579,-0.02956 0.201172,-0.08594 0.05648,-0.05659 0.08398,-0.121827 0.08398,-0.199219 v -1.71289 c 0,-0.07717 -0.02761,-0.144798 -0.08398,-0.201172 -0.0567,-0.05637 -0.123781,-0.08398 -0.201172,-0.08398 z"
       style="color:#f2f2f2;fill:#4285f4;fill-opacity:1;stroke:none"
       inkscape:connector-curvature="0" />
    <path
       id="path10"
       class="ColorScheme-Text"
       d="m -15.499633,15.728814 c -0.475733,0 -0.8799,0.167118 -1.212891,0.5 -0.332881,0.33299 -0.498047,0.737267 -0.498047,1.21289 0,0.475732 0.165056,0.8799 0.498047,1.212891 0.332991,0.332881 0.737268,0.498047 1.212891,0.498047 0.475622,0 0.8799,-0.165166 1.21289,-0.498047 0.332881,-0.332991 0.5,-0.737159 0.5,-1.212891 0,-0.475623 -0.167119,-0.8799 -0.5,-1.21289 -0.332881,-0.332882 -0.737158,-0.5 -1.21289,-0.5 z m 0,6.267578 c -0.475733,0 -0.8799,0.167009 -1.212891,0.5 -0.332881,0.332881 -0.498047,0.737158 -0.498047,1.212891 0,0.475623 0.165056,0.880009 0.498047,1.21289 0.332991,0.332882 0.737268,0.5 1.212891,0.5 0.475622,0 0.8799,-0.167118 1.21289,-0.5 0.332881,-0.332881 0.5,-0.737267 0.5,-1.21289 0,-0.475733 -0.167009,-0.88001 -0.5,-1.212891 -0.332881,-0.332882 -0.737158,-0.5 -1.21289,-0.5 z m 0,6.308594 c -0.475733,0 -0.88001,0.165056 -1.212891,0.498047 -0.332881,0.33299 -0.498047,0.737268 -0.498047,1.21289 0,0.475842 0.165056,0.8799 0.498047,1.212891 0.332991,0.332881 0.737268,0.5 1.212891,0.5 0.475622,0 0.8799,-0.167119 1.21289,-0.5 0.332881,-0.332991 0.5,-0.737049 0.5,-1.212891 0,-0.475622 -0.167119,-0.880009 -0.5,-1.21289 -0.332881,-0.332881 -0.737158,-0.498047 -1.21289,-0.498047 z"
       style="color:#f2f2f2;fill:#4285f4;fill-opacity:1;stroke:none"
       inkscape:connector-curvature="0" />
  </g>
</svg>
