<svg height="32" viewBox="0 0 32 32" width="32" xmlns="http://www.w3.org/2000/svg"><g stroke="#4285f4"><path d="m21.227282 3.9999021h2.090913a3.1363694 3.0000245 0 0 1 3.13637 3.0000245v20.0001634a3.1363694 3.0000245 0 0 1 -3.13637 3.000024h-14.6363904a3.1363694 3.0000245 0 0 1 -3.1363694-3.000024v-20.0001634a3.1363694 3.0000245 0 0 1 3.1363694-3.0000245h2.0909134" fill="none" stroke-linejoin="round" stroke-width="2.04496"/><rect fill="none" height="4.000032" rx="1.707361" ry="1.633138" stroke-linejoin="round" stroke-width="2.04496" width="10.454565" x="10.772717" y="1.999886"/><g transform="matrix(.06534103 0 0 .06250051 -.900795 .135351)"><path d="m290.65516 158.56764h64m-64 64h64m-192 64h192m-192 64h192m-192 64h192" fill="none" stroke-linecap="round" stroke-linejoin="round" stroke-width="32"/><path d="m226.65516 238.56764h-64a16 16 0 0 1 -16-16v-64a16 16 0 0 1 16-16h64a16 16 0 0 1 16 16v64a16 16 0 0 1 -16 16z"/></g><g fill="none" stroke-linejoin="round" stroke-width="2.04496"><path d="m21.227282 3.9999021h2.090913a3.1363694 3.0000245 0 0 1 3.13637 3.0000245v20.0001634a3.1363694 3.0000245 0 0 1 -3.13637 3.000024h-14.6363904a3.1363694 3.0000245 0 0 1 -3.1363694-3.000024v-20.0001634a3.1363694 3.0000245 0 0 1 3.1363694-3.0000245h2.0909134"/><rect height="4.000032" rx="1.707361" ry="1.633138" width="10.454565" x="10.772717" y="1.999886"/><path d="m18.090913 10.045909h4.181826m-4.181826 4.000033h4.181826m-12.5454779 4.000033h12.5454779m-12.5454779 4.000032h12.5454779m-12.5454779 4.000033h12.5454779" stroke-linecap="round"/></g></g><path d="m13.909087 15.04595h-4.1818259a1.0454565 1.0000082 0 0 1 -1.0454565-1.000008v-4.000033a1.0454565 1.0000082 0 0 1 1.0454565-1.0000077h4.1818259a1.0454565 1.0000082 0 0 1 1.045457 1.0000077v4.000033a1.0454565 1.0000082 0 0 1 -1.045457 1.000008z" fill="#f25022" stroke="#f25022" stroke-width=".064"/></svg>