<?xml version="1.0" encoding="UTF-8" standalone="no"?>
<svg
   xmlns:dc="http://purl.org/dc/elements/1.1/"
   xmlns:cc="http://creativecommons.org/ns#"
   xmlns:rdf="http://www.w3.org/1999/02/22-rdf-syntax-ns#"
   xmlns:svg="http://www.w3.org/2000/svg"
   xmlns="http://www.w3.org/2000/svg"
   xmlns:sodipodi="http://sodipodi.sourceforge.net/DTD/sodipodi-0.dtd"
   xmlns:inkscape="http://www.inkscape.org/namespaces/inkscape"
   viewBox="0 0 32 32"
   version="1.1"
   id="svg14"
   sodipodi:docname="webui.svg"
   inkscape:version="0.92.4 5da689c313, 2019-01-14">
  <metadata
     id="metadata20">
    <rdf:RDF>
      <cc:Work
         rdf:about="">
        <dc:format>image/svg+xml</dc:format>
        <dc:type
           rdf:resource="http://purl.org/dc/dcmitype/StillImage" />
        <dc:title />
      </cc:Work>
    </rdf:RDF>
  </metadata>
  <defs
     id="defs18" />
  <sodipodi:namedview
     pagecolor="#ffffff"
     bordercolor="#666666"
     borderopacity="1"
     objecttolerance="10"
     gridtolerance="10"
     guidetolerance="10"
     inkscape:pageopacity="0"
     inkscape:pageshadow="2"
     inkscape:window-width="1366"
     inkscape:window-height="703"
     id="namedview16"
     showgrid="false"
     inkscape:zoom="7.375"
     inkscape:cx="23.186441"
     inkscape:cy="10.576271"
     inkscape:window-x="0"
     inkscape:window-y="0"
     inkscape:window-maximized="1"
     inkscape:current-layer="svg14" />
  <g
     id="g830">
    <g
       transform="matrix(1.0108303,0,0,1.1290323,-0.22382632,-2.8548396)"
       style="fill:#4285f4;fill-opacity:1"
       id="g10">
      <path
         style="fill:#4285f4;fill-opacity:1"
         d="m 27.7,6.8000002 a 0.80000001,0.80000001 0 0 1 -0.8,0.8 0.80000001,0.80000001 0 0 1 -0.8,-0.8 0.80000001,0.80000001 0 0 1 0.8,-0.8 0.80000001,0.80000001 0 0 1 0.8,0.8 z"
         id="circle2"
         inkscape:connector-curvature="0" />
      <path
         style="fill:#4285f4;fill-opacity:1"
         d="m 25.7,6.8000002 a 0.80000001,0.80000001 0 0 1 -0.8,0.8 0.80000001,0.80000001 0 0 1 -0.8,-0.8 0.80000001,0.80000001 0 0 1 0.8,-0.8 0.80000001,0.80000001 0 0 1 0.8,0.8 z"
         id="circle4"
         inkscape:connector-curvature="0" />
      <path
         style="fill:#4285f4;fill-opacity:1"
         d="m 23.7,6.8000002 a 0.80000001,0.80000001 0 0 1 -0.8,0.8 0.80000001,0.80000001 0 0 1 -0.8,-0.8 0.80000001,0.80000001 0 0 1 0.8,-0.8 0.80000001,0.80000001 0 0 1 0.8,0.8 z"
         id="circle6"
         inkscape:connector-curvature="0" />
      <path
         style="fill:#4285f4;fill-opacity:1"
         id="path8"
         d="M 27.3,4.3 H 4.7 C 3.3,4.3 2.2,5.4 2.2,6.8 v 17.8 c 0,1.4 1.1,2.5 2.5,2.5 H 9.3 C 9,26.8 8.7,26.5 8.4,26.1 H 4.7 C 3.9,26.1 3.2,25.4 3.2,24.6 V 9.2 h 25.7 v 15.4 c 0,0.8 -0.7,1.5 -1.5,1.5 h -3.7 c -0.3,0.4 -0.6,0.7 -0.9,1 h 4.6 c 1.4,0 2.5,-1.1 2.5,-2.5 V 6.8 C 29.8,5.4 28.7,4.3 27.3,4.3 Z m 1.5,3.9 H 3.2 V 6.8 C 3.2,6 3.9,5.3 4.7,5.3 h 22.7 c 0.8,0 1.5,0.7 1.5,1.5 v 1.4 z"
         inkscape:connector-curvature="0" />
    </g>
    <path
       style="fill:#f25022;fill-opacity:1;stroke-width:1.06829774"
       id="path12"
       d="m 11.299639,10.806452 c 1.415162,-0.9032265 2.931408,-1.3548394 4.649819,-1.3548394 1.718412,0 3.234657,0.4516129 4.64982,1.3548394 1.415162,0.903225 2.527076,2.145161 3.33574,3.725806 0.808664,1.580645 1.212996,3.274194 1.212996,5.193549 0,1.919355 -0.404332,3.612903 -1.212996,5.193548 -0.808664,1.580646 -1.920578,2.822581 -3.33574,3.725807 -1.415163,0.903226 -2.931408,1.354839 -4.64982,1.354839 -1.718411,0 -3.234657,-0.451613 -4.649819,-1.354839 C 9.8844767,27.967743 8.6714804,26.612904 7.862816,25.032259 7.0541518,23.451613 6.6498197,21.758065 6.6498197,19.83871 c 0,-1.919355 0.4043321,-3.612903 1.2129963,-5.193549 0.8086644,-1.580645 2.0216607,-2.935484 3.436823,-3.838709 z m 7.985559,5.758064 -0.101083,0.112904 -0.101083,0.112903 c 0,0 0.101083,0 0.101083,-0.112903 0,-0.112904 0.101083,-0.112904 0.101083,-0.112904 -0.202166,0 -0.101083,0 0,0 0,-0.112903 0.101083,-0.112903 0.202166,-0.225806 0.101084,-0.112903 0.30325,-0.112903 0.606499,-0.112903 0.303249,-0.112904 0.505415,0 0.606498,0.112903 0,0 0,-0.112903 0.101083,-0.112903 0.101083,-0.112904 0.101083,-0.112904 0.202166,-0.112904 0,0 0.101083,-0.112903 0.202166,-0.112903 0.101083,0 0.101083,-0.112903 0.202166,-0.112903 v -0.33871 c -0.101083,0 -0.101083,0 -0.202166,-0.112903 -0.101083,-0.112903 -0.101083,-0.112903 -0.101083,-0.33871 0,0 0,0.112904 -0.101083,0.112904 0,-0.112904 0,-0.112904 -0.101083,-0.112904 h -0.202166 c -0.101083,0 -0.101083,-0.112903 -0.202166,-0.112903 -0.101083,-0.112903 -0.101083,-0.112903 -0.101083,-0.225806 0,-0.112904 -0.101083,-0.112904 -0.101083,-0.225807 0,-0.112903 -0.101083,-0.112903 -0.101083,-0.112903 l -0.101083,-0.112903 v -0.112903 c 0,0 0,-0.112904 -0.101083,-0.112904 0,0 0,-0.112903 -0.101083,-0.112903 h 0.101083 c 0,0 -0.101083,0 -0.101083,0.112903 0,0.112904 -0.101083,0.112904 -0.101083,0.112904 l -0.101083,0.112903 h -0.202167 l -0.101083,0.112903 -0.101083,0.112903 c 0,0 -0.101083,0 -0.101083,0.112903 h -0.101083 c 0.101083,-0.112903 0.101083,-0.112903 0,-0.112903 -0.101083,0 -0.101083,-0.112903 -0.202166,-0.112903 0.101083,0 0.101083,-0.112903 0.101083,-0.112903 0,-0.112903 -0.101083,-0.112903 -0.101083,-0.225807 h 0.101083 l -0.101083,-0.112903 c -0.101083,-0.112903 -0.101083,-0.112903 -0.202166,-0.112903 -0.101083,0 -0.101083,-0.112903 -0.101083,-0.112903 -0.101083,-0.112904 -0.202166,-0.112904 -0.404332,-0.112904 -0.202166,-0.112903 -0.303249,-0.112903 -0.404332,0 l -0.101083,0.112904 c 0,0 0,0.112903 0.101083,0.225806 0,0.112903 0.101083,0.112903 0.101083,0.112903 0,0.112904 0,0.112904 -0.101083,0.112904 l -0.101083,0.112903 c 0,0.112903 0.101083,0.112903 0.202166,0.225806 0.101083,0 0.202166,0.112903 0.101083,0.225807 0,0.112903 -0.101083,0.112903 -0.202166,0.225806 -0.101083,0.112903 -0.202166,0.112903 -0.202166,0.112903 -0.101083,0.112904 -0.101083,0.112904 0,0.225807 0,0.112903 0.101083,0.112903 0.101083,0.225806 v 0.112904 c 0,0 0,0.112903 -0.101083,0.112903 l -0.101083,0.112903 c 0,0 -0.101083,0 -0.101083,0.112903 h -0.101083 c -0.101083,0.112903 -0.202166,0 -0.303249,-0.112903 -0.101083,-0.112903 -0.101083,-0.225806 -0.101083,-0.33871 -0.101083,-0.225806 -0.101083,-0.338709 -0.202166,-0.338709 -0.202166,-0.112904 -0.303249,-0.112904 -0.303249,0 -0.101083,-0.112904 -0.202167,-0.225807 -0.505416,-0.33871 -0.202166,-0.112903 -0.404332,-0.112903 -0.707581,-0.112903 0.101083,0 0.101083,-0.112904 0,-0.225807 -0.101083,-0.112903 -0.101083,-0.225806 -0.202166,-0.112903 0,-0.112903 0.101083,-0.112903 0.101083,-0.225806 v -0.112904 c 0,-0.112903 0.101083,-0.225806 0.101083,-0.338709 l 0.101083,-0.112904 0.101083,-0.112903 v -0.112903 c 0.303249,0 0.505415,0 0.606498,-0.112903 0.101083,-0.112904 0.101083,-0.112904 0.101083,-0.225807 0.101083,-0.112903 0.101083,-0.112903 0.101083,-0.225806 0.101084,-0.112903 0.101084,-0.112903 0.202167,-0.112903 0.101083,0 0.101083,0 0.202166,0.112903 0.101083,0.112903 0.101083,0.112903 0.202166,0.112903 0.101083,0 0.202166,-0.112903 0.202166,-0.112903 0,-0.112903 0,-0.225807 -0.101083,-0.33871 0.101083,0 0.101083,-0.112903 0.101083,-0.225806 L 16.859206,12.16129 c -0.101083,0 -0.202166,0 -0.303249,0.112904 -0.101083,0 -0.101083,0.112903 0,0.112903 L 16.454874,12.5 16.252708,12.725807 c -0.101084,0.112903 -0.101084,0 -0.202167,-0.112904 0,0 0,-0.112903 -0.101083,-0.112903 l -0.101083,-0.112903 c -0.101083,0 -0.101083,0.112903 -0.202166,0.225806 0,-0.112903 0,-0.112903 -0.101083,-0.225806 -0.101083,-0.112903 -0.202166,-0.112903 -0.303249,-0.112903 0,-0.112904 0,-0.33871 -0.202166,-0.33871 -0.101083,0 -0.101083,-0.112903 -0.303249,-0.112903 -0.202166,0 -0.202166,0 -0.202166,0.112903 l -0.101083,0.112903 c 0,0.112903 0,0.112903 0.101083,0.112903 0.101083,0 0.303249,-0.338709 0.404332,-0.338709 0.101083,0 0.101083,0 0.101083,0.112903 0.101083,0 0.101083,0 0.101083,0.112903 0.101083,0 0.101083,0.112903 0,0.112903 0,0 -0.101083,0 -0.101083,0.112904 -0.101083,0 -0.101083,0.112903 -0.101083,0.112903 -0.101083,0 -0.101083,0 -0.101083,0.112903 v 0.451613 c -0.101083,-0.112903 -0.101083,-0.112903 -0.101083,-0.225806 0,-0.112904 -0.101083,-0.112904 -0.101083,-0.225807 0.101083,-0.112903 0,-0.112903 -0.303249,-0.112903 h -0.606498 c -0.101083,0 -0.101083,-0.112903 -0.101083,-0.112903 v -0.33871 c 0,0 0,-0.112903 0.101083,0 l -0.101083,-0.112903 -0.101083,-0.112904 c -0.303249,0.112904 -0.707581,0.33871 -1.111914,0.564517 h 0.101083 c 0.101083,0 0.101083,-0.112904 0.101083,-0.112904 l 0.101083,-0.112903 c 0.30325,-0.112903 0.505416,-0.112903 0.505416,-0.112903 l 0.101083,-0.112903 0.303249,0.338709 c -0.101083,0 -0.202166,-0.112903 -0.303249,0 -0.101083,0.112904 -0.303249,0.112904 -0.303249,0.112904 C 13.119134,12.387097 13.119134,12.5 13.119134,12.5 l -0.101083,-0.112903 c -0.101083,-0.112903 -0.101083,-0.112903 -0.202166,-0.112903 -0.101084,0.112903 -0.101084,0.112903 -0.202167,0 h -0.303249 c -1.111913,0.790322 -2.122743,1.693548 -2.8303244,3.048387 l 0.101083,0.112903 0.1010831,0.112903 v 0.112904 c 0,0 0.101083,0 0.101083,-0.112904 0.101083,0.112904 0.101083,0.225807 0.101083,0.33871 0,0 0.2021663,0.112903 0.5054153,0.33871 0.101083,0.112903 0.303249,0.225806 0.303249,0.338709 0,0.112904 0,0.112904 -0.101083,0.225807 L 10.490975,16.67742 10.389892,16.564516 v 0.225807 c 0,0.112903 0.101083,0.112903 0.101083,0.112903 -0.101083,0 -0.101083,0.112903 -0.101083,0.225807 v 0.790322 c 0,0.112903 0,0.225807 0.101083,0.451613 0.101083,0.225806 0.101083,0.33871 0.303249,0.225806 -0.101083,0 0,0.225807 0.303249,0.564517 l 0.101083,0.112903 0.101083,0.112903 c 0.101083,0.225807 0.202166,0.225807 0.202166,0.33871 l 0.101083,0.112903 c 0,0.112903 0.101083,0.112903 0.101083,0.33871 0.101083,0.112903 0.101083,0.225806 0.202166,0.338709 0,0.112904 0,0.112904 0.101083,0.33871 -0.101083,0 -0.101083,0.112903 -0.101083,0.225807 0,0.112903 0.101083,0.112903 0.202166,0.225806 0.101083,0.112903 0.101083,0.112903 0.202166,0.112903 v 0.112903 c 0,0.112904 0,0.112904 0.101083,0.112904 0,0 0.101083,0.112903 0.101083,0 0,-0.112904 -0.101083,-0.451613 -0.303249,-0.790323 -0.101083,-0.225806 -0.202166,-0.33871 -0.202166,-0.33871 0,-0.112903 -0.101083,-0.112903 -0.101083,-0.225806 v -0.225807 c 0,0 0.101083,0 0.101083,0.112904 0.101083,0 0.101083,0 0.101083,0.112903 v 0.33871 c 0.101083,0.112903 0.101083,0.112903 0.101083,0.225806 l 0.202166,0.225807 0.101083,0.112903 0.202166,0.225806 c 0.101083,0.112903 0.101083,0.112903 0,0.112903 0.101083,0 0.101083,0.112904 0.30325,0.112904 0.101083,0.112903 0.101083,0.112903 0.202166,0.338709 -0.101083,0.112904 -0.101083,0.225807 -0.101083,0.451613 0,0.112904 0.101083,0.33871 0.101083,0.33871 0,0.112903 0.101083,0.112903 0.101083,0.112903 0.101083,0 0.101083,0.112903 0.101083,0.112903 0.101083,0 0.101083,0.112904 0.202166,0.112904 l 0.101083,0.112903 c 0.101083,0 0.101083,0.112903 0.202166,0.112903 0.101083,0.112903 0.202166,0.112903 0.303249,0.112903 0.101083,0 0.101083,0.112904 0.202166,0.112904 h 0.202166 c 0.101083,0 0.101083,-0.112904 0.101083,-0.112904 0.101083,0 0.303249,0.112904 0.303249,0.225807 l 0.303249,0.33871 c 0.303249,0.112903 0.505415,0.225806 0.707581,0.112903 v 0.112903 c 0,0.112903 0.101083,0.112903 0.101083,0.225806 0.101084,0.112904 0.101084,0.112904 0.101084,0.225807 0,0.112903 0.101083,0.112903 0.101083,0.112903 l 0.202166,0.225807 c 0.101083,0.112903 0.202166,0.112903 0.202166,0.225806 0.101083,0 0.101083,-0.112903 0.101083,-0.112903 0,0.112903 0,0.112903 0.101083,0.33871 0.101083,0.112903 0.101083,0.112903 0.202166,0.112903 0.101083,0 0.202166,-0.112903 0.202166,-0.451613 -0.303249,0.112903 -0.505415,0.112903 -0.606498,-0.225807 v -0.112903 c 0,-0.112903 -0.101083,-0.112903 -0.101083,-0.112903 v -0.225807 c 0,0 0,-0.112903 0.101083,-0.112903 0.101083,0 0.101083,0 0.101083,-0.112903 v -0.112903 c 0,-0.112903 -0.101083,-0.112903 -0.101083,-0.112903 0,-0.112904 -0.101083,-0.112904 -0.101083,-0.33871 -0.101083,-0.112903 -0.101083,-0.112903 -0.101083,-0.225807 -0.101083,0.112904 -0.101083,0.112904 -0.202166,0.112904 -0.101083,0 -0.101083,-0.112904 -0.202167,-0.112904 v 0.225807 h -0.202166 v -0.225807 c 0,-0.112903 0,-0.225806 0.101083,-0.338709 0,0 0,-0.112904 0.101083,-0.112904 0.101084,-0.112903 0.101084,-0.112903 0.101084,-0.225806 0,-0.112903 0.101083,-0.112903 0.101083,-0.112903 0,-0.112903 0,-0.112903 -0.101083,-0.112903 -0.101084,0 -0.101084,-0.112904 -0.202167,0 -0.101083,0 -0.303249,0.112903 -0.303249,0.338709 0,0 0,0.112903 -0.101083,0.112903 l -0.101083,0.112904 -0.101083,0.112903 h -0.303249 c -0.202166,0 -0.202166,0 -0.303249,-0.112903 l -0.303249,-0.33871 c -0.101083,-0.225806 -0.101083,-0.33871 -0.101083,-0.564516 v -0.33871 c 0,-0.112903 0,-0.225806 0.101083,-0.33871 0,-0.112903 0,-0.112903 -0.101083,-0.338709 l 0.101083,-0.112903 0.101083,-0.112904 h 0.303249 c 0,0 0,-0.112903 0.101083,-0.112903 l -0.101083,-0.112903 -0.101083,-0.112903 h 0.303249 c 0.202166,-0.112904 0.303249,0 0.303249,0 0.101083,0.112903 0.202166,0.112903 0.303249,0 v -0.225807 c 0.101083,0.225807 0.101083,0.33871 0.303249,0.112903 0,0 0.101083,0.112904 0.202167,0.112904 0.101083,0 0.202166,0.112903 0.202166,0.112903 l 0.101083,0.112903 0.101083,0.112903 h 0.101083 l 0.101083,-0.112903 c 0.101083,0.112903 0.101083,0.225807 0.101083,0.33871 0.101083,0.338709 0.101083,0.564516 0.202166,0.564516 h 0.101083 l 0.101083,-0.112903 v -1.129033 c -0.101083,0 -0.202166,-0.112903 -0.202166,-0.112903 V 20.17742 l 0.202166,-0.225807 c 0,0 0.101083,0 0.101083,-0.112903 0.101083,0 0.101083,-0.112903 0.202166,-0.112903 0.101083,0 0.101083,-0.112903 0.101083,-0.112903 0.202166,-0.112904 0.202166,-0.33871 0.202166,-0.451613 0.101083,0 0.101083,-0.112904 0.101083,-0.112904 l -0.101083,-0.112903 -0.101083,-0.112903 h 0.101083 c 0.101083,-0.112903 0.101083,-0.112903 0,-0.225807 0.101083,0 0.101083,-0.112903 0.101083,-0.112903 l 0.101083,-0.112903 c 0.101083,0.112903 0.101083,0.112903 0.303249,0 0.101083,-0.112903 0.101083,-0.112903 0,-0.225806 0.101083,-0.112904 0.101083,-0.112904 0.303249,-0.112904 0.101083,0 0.202166,-0.112903 0.202166,-0.112903 h 0.101083 v -0.112903 c 0,-0.112903 0,-0.112903 0.101083,-0.112903 0,-0.112904 0.101083,-0.112904 0.202166,-0.112904 0.101083,0 0.101083,-0.112903 0.101083,-0.112903 l 0.202167,-0.112903 v -0.112903 c 0.101083,0 0.303249,0 0.404332,-0.112903 0.101083,-0.112904 0.101083,-0.225807 -0.101083,-0.33871 0,-0.112903 0,-0.112903 -0.101083,-0.112903 -0.101083,0 -0.101083,-0.112904 -0.202166,-0.112904 h 0.202166 c 0.101083,-0.112903 0.101083,-0.225806 -0.101083,-0.225806 -0.101083,0 -0.30325,0 -0.505416,0.225806 z m -2.02166,11.85484 c 1.718411,-0.33871 3.032491,-1.241936 4.245487,-2.596775 l -0.101083,-0.112903 c -0.101083,0 -0.101083,0 -0.101083,-0.112903 -0.101083,-0.112903 -0.303249,-0.112903 -0.303249,-0.112903 v -0.225807 c -0.101083,0 -0.101083,-0.112903 -0.101083,-0.112903 l -0.101083,-0.112903 -0.101083,-0.112904 c -0.101083,0 -0.101083,-0.112903 -0.101083,-0.112903 0,0 -0.101083,0 -0.101083,-0.112903 h -0.404332 c 0,0 -0.101083,0 -0.101083,0.112903 0,0.112903 -0.101083,0 -0.101083,0.112903 -0.202166,-0.112903 -0.303249,-0.225806 -0.404333,-0.338709 -0.101083,0 -0.101083,0 -0.101083,-0.112904 l -0.101083,-0.112903 h -0.101083 c -0.101083,0 -0.101083,0.112903 -0.101083,0.112903 -0.101083,0.112904 -0.101083,0.112904 -0.101083,0.225807 v 0.112903 c -0.101083,-0.112903 -0.101083,-0.112903 0,-0.225806 0.101083,-0.112904 0.101083,-0.225807 0,-0.225807 0,-0.112903 -0.101083,-0.112903 -0.101083,-0.112903 -0.101083,0 -0.101083,0 -0.101083,0.112903 -0.101083,0 -0.101083,0.112903 -0.101083,0.112903 l -0.101083,0.112904 c 0,0 -0.101083,0 -0.101083,0.112903 l -0.101083,0.112903 -0.101083,0.112903 c 0,0.112904 -0.101083,0.112904 -0.101083,0.112904 l -0.101083,-0.112904 c -0.101083,0 -0.101083,-0.112903 -0.101083,-0.112903 0,0.112903 0,0.225807 0.101083,0.451613 0,0.225807 0.101083,0.33871 0.101083,0.564516 0.101083,0.33871 0,0.564516 -0.101083,0.67742 -0.202166,0.225806 -0.303249,0.338709 -0.303249,0.564516 0,0.225806 0,0.338709 0.101083,0.338709 0,0.112904 0,0.112904 -0.101083,0.33871 -0.404332,0.451613 -0.404332,0.451613 -0.505415,0.67742 0,-0.225807 0,-0.112904 0,0 z"
       inkscape:connector-curvature="0" />
  </g>
</svg>
