<svg viewBox="0 0 32 32" xmlns="http://www.w3.org/2000/svg"><g fill="#4285f4" transform="matrix(1.0108303 0 0 1.1290323 -.223826 -2.85484)"><path d="m27.7 6.8000002a.80000001.80000001 0 0 1 -.8.8.80000001.80000001 0 0 1 -.8-.8.80000001.80000001 0 0 1 .8-.8.80000001.80000001 0 0 1 .8.8z"/><path d="m25.7 6.8000002a.80000001.80000001 0 0 1 -.8.8.80000001.80000001 0 0 1 -.8-.8.80000001.80000001 0 0 1 .8-.8.80000001.80000001 0 0 1 .8.8z"/><path d="m23.7 6.8000002a.80000001.80000001 0 0 1 -.8.8.80000001.80000001 0 0 1 -.8-.8.80000001.80000001 0 0 1 .8-.8.80000001.80000001 0 0 1 .8.8z"/><path d="m27.3 4.3h-22.6c-1.4 0-2.5 1.1-2.5 2.5v17.8c0 1.4 1.1 2.5 2.5 2.5h4.6c-.3-.3-.6-.6-.9-1h-3.7c-.8 0-1.5-.7-1.5-1.5v-15.4h25.7v15.4c0 .8-.7 1.5-1.5 1.5h-3.7c-.3.4-.6.7-.9 1h4.6c1.4 0 2.5-1.1 2.5-2.5v-17.8c-.1-1.4-1.2-2.5-2.6-2.5zm1.5 3.9h-25.6v-1.4c0-.8.7-1.5 1.5-1.5h22.7c.8 0 1.5.7 1.5 1.5v1.4z"/></g><path d="m11.299639 10.806452c1.415162-.9032265 2.931408-1.3548394 4.649819-1.3548394 1.718412 0 3.234657.4516129 4.64982 1.3548394 1.415162.903225 2.527076 2.145161 3.33574 3.725806s1.212996 3.274194 1.212996 5.193549-.404332 3.612903-1.212996 5.193548c-.808664 1.580646-1.920578 2.822581-3.33574 3.725807-1.415163.903226-2.931408 1.354839-4.64982 1.354839-1.718411 0-3.234657-.451613-4.649819-1.354839-1.4151623-.677419-2.6281586-2.032258-3.436823-3.612903-.8086642-1.580646-1.2129963-3.274194-1.2129963-5.193549s.4043321-3.612903 1.2129963-5.193549c.8086644-1.580645 2.0216607-2.935484 3.436823-3.838709zm7.985559 5.758064-.101083.112904-.101083.112903s.101083 0 .101083-.112903c0-.112904.101083-.112904.101083-.112904-.202166 0-.101083 0 0 0 0-.112903.101083-.112903.202166-.225806.101084-.112903.30325-.112903.606499-.112903.303249-.112904.505415 0 .606498.112903 0 0 0-.112903.101083-.112903.101083-.112904.101083-.112904.202166-.112904 0 0 .101083-.112903.202166-.112903s.101083-.112903.202166-.112903v-.33871c-.101083 0-.101083 0-.202166-.112903s-.101083-.112903-.101083-.33871c0 0 0 .112904-.101083.112904 0-.112904 0-.112904-.101083-.112904h-.202166c-.101083 0-.101083-.112903-.202166-.112903-.101083-.112903-.101083-.112903-.101083-.225806 0-.112904-.101083-.112904-.101083-.225807s-.101083-.112903-.101083-.112903l-.101083-.112903v-.112903s0-.112904-.101083-.112904c0 0 0-.112903-.101083-.112903h.101083s-.101083 0-.101083.112903c0 .112904-.101083.112904-.101083.112904l-.101083.112903h-.202167l-.101083.112903-.101083.112903s-.101083 0-.101083.112903h-.101083c.101083-.112903.101083-.112903 0-.112903s-.101083-.112903-.202166-.112903c.101083 0 .101083-.112903.101083-.112903 0-.112903-.101083-.112903-.101083-.225807h.101083l-.101083-.112903c-.101083-.112903-.101083-.112903-.202166-.112903s-.101083-.112903-.101083-.112903c-.101083-.112904-.202166-.112904-.404332-.112904-.202166-.112903-.303249-.112903-.404332 0l-.101083.112904s0 .112903.101083.225806c0 .112903.101083.112903.101083.112903 0 .112904 0 .112904-.101083.112904l-.101083.112903c0 .112903.101083.112903.202166.225806.101083 0 .202166.112903.101083.225807 0 .112903-.101083.112903-.202166.225806s-.202166.112903-.202166.112903c-.101083.112904-.101083.112904 0 .225807 0 .112903.101083.112903.101083.225806v.112904s0 .112903-.101083.112903l-.101083.112903s-.101083 0-.101083.112903h-.101083c-.101083.112903-.202166 0-.303249-.112903s-.101083-.225806-.101083-.33871c-.101083-.225806-.101083-.338709-.202166-.338709-.202166-.112904-.303249-.112904-.303249 0-.101083-.112904-.202167-.225807-.505416-.33871-.202166-.112903-.404332-.112903-.707581-.112903.101083 0 .101083-.112904 0-.225807s-.101083-.225806-.202166-.112903c0-.112903.101083-.112903.101083-.225806v-.112904c0-.112903.101083-.225806.101083-.338709l.101083-.112904.101083-.112903v-.112903c.303249 0 .505415 0 .606498-.112903.101083-.112904.101083-.112904.101083-.225807.101083-.112903.101083-.112903.101083-.225806.101084-.112903.101084-.112903.202167-.112903s.101083 0 .202166.112903.101083.112903.202166.112903.202166-.112903.202166-.112903c0-.112903 0-.225807-.101083-.33871.101083 0 .101083-.112903.101083-.225806l-.101083-.112904c-.101083 0-.202166 0-.303249.112904-.101083 0-.101083.112903 0 .112903l-.101083.112903-.202166.225807c-.101084.112903-.101084 0-.202167-.112904 0 0 0-.112903-.101083-.112903l-.101083-.112903c-.101083 0-.101083.112903-.202166.225806 0-.112903 0-.112903-.101083-.225806s-.202166-.112903-.303249-.112903c0-.112904 0-.33871-.202166-.33871-.101083 0-.101083-.112903-.303249-.112903s-.202166 0-.202166.112903l-.101083.112903c0 .112903 0 .112903.101083.112903s.303249-.338709.404332-.338709.101083 0 .101083.112903c.101083 0 .101083 0 .101083.112903.101083 0 .101083.112903 0 .112903 0 0-.101083 0-.101083.112904-.101083 0-.101083.112903-.101083.112903-.101083 0-.101083 0-.101083.112903v.451613c-.101083-.112903-.101083-.112903-.101083-.225806 0-.112904-.101083-.112904-.101083-.225807.101083-.112903 0-.112903-.303249-.112903h-.606498c-.101083 0-.101083-.112903-.101083-.112903v-.33871s0-.112903.101083 0l-.101083-.112903-.101083-.112904c-.303249.112904-.707581.33871-1.111914.564517h.101083c.101083 0 .101083-.112904.101083-.112904l.101083-.112903c.30325-.112903.505416-.112903.505416-.112903l.101083-.112903.303249.338709c-.101083 0-.202166-.112903-.303249 0-.101083.112904-.303249.112904-.303249.112904.101083.112903.101083.225806.101083.225806l-.101083-.112903c-.101083-.112903-.101083-.112903-.202166-.112903-.101084.112903-.101084.112903-.202167 0h-.303249c-1.111913.790322-2.122743 1.693548-2.8303244 3.048387l.101083.112903.1010831.112903v.112904s.101083 0 .101083-.112904c.101083.112904.101083.225807.101083.33871 0 0 .2021663.112903.5054153.33871.101083.112903.303249.225806.303249.338709 0 .112904 0 .112904-.101083.225807l-.101083-.112903-.101083-.112904v.225807c0 .112903.101083.112903.101083.112903-.101083 0-.101083.112903-.101083.225807v.790322c0 .112903 0 .225807.101083.451613s.101083.33871.303249.225806c-.101083 0 0 .225807.303249.564517l.101083.112903.101083.112903c.101083.225807.202166.225807.202166.33871l.101083.112903c0 .112903.101083.112903.101083.33871.101083.112903.101083.225806.202166.338709 0 .112904 0 .112904.101083.33871-.101083 0-.101083.112903-.101083.225807 0 .112903.101083.112903.202166.225806s.101083.112903.202166.112903v.112903c0 .112904 0 .112904.101083.112904 0 0 .101083.112903.101083 0 0-.112904-.101083-.451613-.303249-.790323-.101083-.225806-.202166-.33871-.202166-.33871 0-.112903-.101083-.112903-.101083-.225806v-.225807s.101083 0 .101083.112904c.101083 0 .101083 0 .101083.112903v.33871c.101083.112903.101083.112903.101083.225806l.202166.225807.101083.112903.202166.225806c.101083.112903.101083.112903 0 .112903.101083 0 .101083.112904.30325.112904.101083.112903.101083.112903.202166.338709-.101083.112904-.101083.225807-.101083.451613 0 .112904.101083.33871.101083.33871 0 .112903.101083.112903.101083.112903.101083 0 .101083.112903.101083.112903.101083 0 .101083.112904.202166.112904l.101083.112903c.101083 0 .101083.112903.202166.112903.101083.112903.202166.112903.303249.112903s.101083.112904.202166.112904h.202166c.101083 0 .101083-.112904.101083-.112904.101083 0 .303249.112904.303249.225807l.303249.33871c.303249.112903.505415.225806.707581.112903v.112903c0 .112903.101083.112903.101083.225806.101084.112904.101084.112904.101084.225807s.101083.112903.101083.112903l.202166.225807c.101083.112903.202166.112903.202166.225806.101083 0 .101083-.112903.101083-.112903 0 .112903 0 .112903.101083.33871.101083.112903.101083.112903.202166.112903s.202166-.112903.202166-.451613c-.303249.112903-.505415.112903-.606498-.225807v-.112903c0-.112903-.101083-.112903-.101083-.112903v-.225807s0-.112903.101083-.112903.101083 0 .101083-.112903v-.112903c0-.112903-.101083-.112903-.101083-.112903 0-.112904-.101083-.112904-.101083-.33871-.101083-.112903-.101083-.112903-.101083-.225807-.101083.112904-.101083.112904-.202166.112904s-.101083-.112904-.202167-.112904v.225807h-.202166v-.225807c0-.112903 0-.225806.101083-.338709 0 0 0-.112904.101083-.112904.101084-.112903.101084-.112903.101084-.225806s.101083-.112903.101083-.112903c0-.112903 0-.112903-.101083-.112903-.101084 0-.101084-.112904-.202167 0-.101083 0-.303249.112903-.303249.338709 0 0 0 .112903-.101083.112903l-.101083.112904-.101083.112903h-.303249c-.202166 0-.202166 0-.303249-.112903l-.303249-.33871c-.101083-.225806-.101083-.33871-.101083-.564516v-.33871c0-.112903 0-.225806.101083-.33871 0-.112903 0-.112903-.101083-.338709l.101083-.112903.101083-.112904h.303249s0-.112903.101083-.112903l-.101083-.112903-.101083-.112903h.303249c.202166-.112904.303249 0 .303249 0 .101083.112903.202166.112903.303249 0v-.225807c.101083.225807.101083.33871.303249.112903 0 0 .101083.112904.202167.112904.101083 0 .202166.112903.202166.112903l.101083.112903.101083.112903h.101083l.101083-.112903c.101083.112903.101083.225807.101083.33871.101083.338709.101083.564516.202166.564516h.101083l.101083-.112903v-1.129033c-.101083 0-.202166-.112903-.202166-.112903v-.225806l.202166-.225807s.101083 0 .101083-.112903c.101083 0 .101083-.112903.202166-.112903s.101083-.112903.101083-.112903c.202166-.112904.202166-.33871.202166-.451613.101083 0 .101083-.112904.101083-.112904l-.101083-.112903-.101083-.112903h.101083c.101083-.112903.101083-.112903 0-.225807.101083 0 .101083-.112903.101083-.112903l.101083-.112903c.101083.112903.101083.112903.303249 0 .101083-.112903.101083-.112903 0-.225806.101083-.112904.101083-.112904.303249-.112904.101083 0 .202166-.112903.202166-.112903h.101083v-.112903c0-.112903 0-.112903.101083-.112903 0-.112904.101083-.112904.202166-.112904s.101083-.112903.101083-.112903l.202167-.112903v-.112903c.101083 0 .303249 0 .404332-.112903.101083-.112904.101083-.225807-.101083-.33871 0-.112903 0-.112903-.101083-.112903s-.101083-.112904-.202166-.112904h.202166c.101083-.112903.101083-.225806-.101083-.225806-.101083 0-.30325 0-.505416.225806zm-2.02166 11.85484c1.718411-.33871 3.032491-1.241936 4.245487-2.596775l-.101083-.112903c-.101083 0-.101083 0-.101083-.112903-.101083-.112903-.303249-.112903-.303249-.112903v-.225807c-.101083 0-.101083-.112903-.101083-.112903l-.101083-.112903-.101083-.112904c-.101083 0-.101083-.112903-.101083-.112903s-.101083 0-.101083-.112903h-.404332s-.101083 0-.101083.112903-.101083 0-.101083.112903c-.202166-.112903-.303249-.225806-.404333-.338709-.101083 0-.101083 0-.101083-.112904l-.101083-.112903h-.101083c-.101083 0-.101083.112903-.101083.112903-.101083.112904-.101083.112904-.101083.225807v.112903c-.101083-.112903-.101083-.112903 0-.225806.101083-.112904.101083-.225807 0-.225807 0-.112903-.101083-.112903-.101083-.112903-.101083 0-.101083 0-.101083.112903-.101083 0-.101083.112903-.101083.112903l-.101083.112904s-.101083 0-.101083.112903l-.101083.112903-.101083.112903c0 .112904-.101083.112904-.101083.112904l-.101083-.112904c-.101083 0-.101083-.112903-.101083-.112903 0 .112903 0 .225807.101083.451613 0 .225807.101083.33871.101083.564516.101083.33871 0 .564516-.101083.67742-.202166.225806-.303249.338709-.303249.564516 0 .225806 0 .338709.101083.338709 0 .112904 0 .112904-.101083.33871-.404332.451613-.404332.451613-.505415.67742 0-.225807 0-.112904 0 0z" fill="#f25022" stroke-width="1.068298"/></svg>