<?xml version="1.0" encoding="utf-8"?>
<!-- Generator: Adobe Illustrator 18.0.0, SVG Export Plug-In . SVG Version: 6.00 Build 0)  -->
<!DOCTYPE svg PUBLIC "-//W3C//DTD SVG 1.1//EN" "http://www.w3.org/Graphics/SVG/1.1/DTD/svg11.dtd">
<svg version="1.1" id="Layer_1" xmlns="http://www.w3.org/2000/svg" xmlns:xlink="http://www.w3.org/1999/xlink" x="0px" y="0px"
	 viewBox="0 0 32 32" enable-background="new 0 0 32 32" xml:space="preserve">
<g>
	<path fill="#733737" d="M29.6,24.2c0,0.6-0.2,1.1-0.6,1.6l-3.1,3.1c-0.4,0.4-0.9,0.6-1.6,0.6c-0.6,0-1.1-0.2-1.6-0.6L16,22.1
		l-6.7,6.7c-0.4,0.4-0.9,0.6-1.6,0.6c-0.6,0-1.1-0.2-1.6-0.6l-3.1-3.1c-0.4-0.4-0.6-0.9-0.6-1.6s0.2-1.1,0.6-1.6l6.7-6.7L3.1,9.2
		C2.6,8.8,2.4,8.2,2.4,7.6c0-0.6,0.2-1.1,0.6-1.6L6.2,3c0.4-0.4,0.9-0.6,1.6-0.6c0.6,0,1.1,0.2,1.6,0.6L16,9.7L22.7,3
		c0.4-0.4,0.9-0.6,1.6-0.6c0.6,0,1.1,0.2,1.6,0.6L29,6.1c0.4,0.4,0.6,0.9,0.6,1.6c0,0.6-0.2,1.1-0.6,1.6l-6.7,6.7l6.7,6.7
		C29.4,23.1,29.6,23.6,29.6,24.2z"/>
</g>
</svg>
