<svg xmlns="http://www.w3.org/2000/svg" viewBox="0 0 32 32">
  <path fill="#375273" d="M9.1 4.1c2.1-1.2 4.4-1.8 6.9-1.8s4.8.6 6.9 1.8c2.1 1.2 3.8 2.9 5 5 1.2 2.1 1.8 4.4 1.8 6.9s-.6 4.8-1.8 6.9c-1.2 2.1-2.9 3.8-5 5-2.1 1.2-4.4 1.8-6.9 1.8s-4.8-.6-6.9-1.8c-2.1-1.2-3.8-2.9-5-5-1.2-2.1-1.8-4.4-1.8-6.9s.6-4.8 1.8-6.9c1.2-2.1 2.9-3.8 5-5zm11.8 7.5l-.2.2-.2.2s.1 0 .1-.1.1-.1.1-.2.1-.1.1-.1c.1-.1.2-.2.4-.3.2-.1.5-.1.9-.2s.7 0 .9.2c0 0 0-.1.2-.2.1-.1.2-.2.3-.2 0 0 .1-.1.3-.1.1 0 .2-.1.3-.1v-.4c-.1 0-.2 0-.3-.1-.1-.1-.1-.2-.1-.4 0 0 0 .1-.1.1 0-.1 0-.1-.1-.1h-.4c-.1 0-.2-.1-.3-.1-.1-.1-.1-.2-.1-.3 0-.1-.1-.2-.1-.3 0-.1-.1-.1-.2-.2l-.2-.2v-.1s0-.1-.1-.1c0 0 0-.1-.1-.1h-.1s-.1 0-.1.1-.1.1-.1.2-.1.1-.1.1h-.2l-.1.1-.1.1s-.1 0-.2.1h-.2c.2-.1.2-.1 0-.2-.1 0-.2-.1-.3-.1.1 0 .2-.1.1-.2 0-.1-.1-.2-.2-.3h.1l-.2-.2c-.1-.1-.2-.1-.3-.2-.1 0-.2-.1-.2-.1-.1-.1-.3-.1-.6-.2s-.5-.1-.6 0c-.1.1-.1.1-.1.2s0 .1.1.3c0 .1.1.2.1.2 0 .1 0 .1-.1.2s-.1.2-.1.2c0 .1.1.2.3.3.2 0 .3.1.2.3 0 .1-.1.2-.3.3-.2.1-.3.2-.3.2-.1.1-.1.2 0 .3 0 .1.1.2.2.3v.1s0 .1-.1.1l-.1.1s-.1 0-.1.1h-.1c-.1.1-.3 0-.4-.1-.1-.1-.2-.3-.2-.5-.1-.3-.2-.5-.3-.5-.3-.1-.4-.1-.5 0-.1-.2-.3-.3-.7-.5-.3-.1-.6-.1-1-.1.1 0 .1-.1 0-.3-.1-.2-.2-.3-.3-.2 0-.1.1-.2.1-.3v-.2c0-.2.1-.3.2-.4 0 0 .1-.1.1-.2.1-.1.1-.2.2-.2v-.1c.4 0 .7 0 .9-.2.1-.1.1-.2.2-.3.1-.1.1-.2.2-.3.1-.1.2-.1.3-.1.1 0 .1 0 .3.1.1.1.2.1.3.1.2 0 .3-.1.3-.2s0-.3-.1-.4c.1 0 .2-.1.1-.3-.1-.1-.1-.1-.1-.2-.1 0-.3 0-.5.1-.1 0-.1.1 0 .1l-.2.2-.3.3c-.1.1-.2 0-.3-.1 0 0 0-.1-.1-.2s-.1-.2-.2-.2-.2.1-.3.3c0-.1 0-.2-.2-.3-.2-.1-.3-.1-.4-.1 0-.2 0-.4-.3-.5-.1 0-.2-.1-.4-.1s-.3 0-.3.1c-.1.1-.1.2-.1.2 0 .1 0 .1.1.1s.1.1.2.1.1 0 .2.1c.1 0 .1 0 .2.1.1 0 .1.1 0 .2 0 0-.1 0-.2.1-.1 0-.1.1-.2.1s-.1 0-.1.1v.6c-.1-.1-.1-.2-.2-.3 0-.1-.1-.2-.1-.3.1-.1 0-.1-.4-.1h-.9c-.1 0-.2-.1-.2-.1v-.4s0-.1.1 0l-.2-.2-.2-.2c-.5.2-1.1.4-1.7.7h.2c.1 0 .1-.1.2-.1.1-.1.2-.1.2-.1.4-.2.7-.2.8-.1l.1-.1.4.4c-.1 0-.3-.1-.5 0s-.4.1-.4.2c.1.1.1.3.1.3l-.2-.2c-.1-.1-.2-.1-.3-.2-.1.1-.2.1-.3 0h-.4c-1.7 1-3.1 2.3-4.2 4 .1.1.2.1.2.1s.1.1.1.2v.2s.1 0 .2-.1c.2.2.2.3.1.4 0 0 .3.1.8.5.2.2.4.3.4.4 0 .1 0 .2-.2.3l-.2-.2c-.1-.1-.1-.1-.2-.1v.3c0 .2.1.2.2.2-.1 0-.1.1-.2.3v1c0 .1 0 .3.1.6s.2.4.4.3c-.2 0 0 .3.4.8.1.1.1.1.1.2 0 0 .1.1.2.1.2.3.3.3.3.4l.2.2c0 .1.1.2.2.4s.2.3.3.4c0 .1 0 .2.2.4.1.2.2.3.2.4 0 .1.1.2.3.3.1.1.2.2.3.2v.2c0 .1 0 .1.1.2 0 0 .1.1.1 0 0-.2-.1-.6-.4-1.1-.2-.3-.3-.5-.3-.5 0-.1-.1-.2-.1-.3 0-.1-.1-.2-.1-.3h.1s.1 0 .2.1c.1 0 .1 0 .1.1v.4c.1.1.1.2.2.3l.3.3.2.2.3.3c.1.2.1.2 0 .2.1 0 .2.1.4.2.1.1.2.2.3.4-.1.2-.1.3-.1.6 0 .2.1.4.1.4 0 .1.1.2.2.2s.2.1.2.2c.1 0 .2.1.3.1.1.1.2.1.2.1.1 0 .2.1.3.2.2.1.3.2.4.2.1 0 .2.1.3.1h.3c.1 0 .2-.1.2-.1.2 0 .4.1.5.3l.4.4c.4.2.8.3 1 .2v.1c0 .1.1.2.1.3.1.1.1.2.2.3 0 .1.1.1.1.2l.3.3c.2.1.3.2.3.3.1 0 .1-.1.1-.2 0 .1 0 .2.1.4.1.1.2.2.3.2.2 0 .3-.2.3-.6-.4.2-.7.1-.9-.3v-.1c0-.1-.1-.1-.1-.2v-.3s0-.1.1-.1.2 0 .2-.1v-.2c0-.1-.1-.2-.1-.2 0-.1-.1-.2-.2-.4-.1-.1-.2-.2-.2-.3-.1.1-.2.2-.3.1-.1 0-.2-.1-.3-.2v.2h-.3v-.3c0-.2 0-.3.1-.4 0 0 0-.1.1-.2s.1-.2.1-.3c0-.1.1-.2.1-.2 0-.1 0-.1-.1-.2-.1 0-.2-.1-.3 0-.2 0-.4.1-.5.4 0 0 0 .1-.1.2s-.1.2-.1.2-.1.1-.2.1h-.4c-.2 0-.3 0-.4-.1-.2-.1-.3-.3-.4-.5-.1-.3-.2-.5-.2-.7v-.5c0-.2 0-.3.1-.4 0-.1 0-.2-.1-.4l.2-.2c.1-.1.1-.2.2-.2h.3s0-.1.1-.1l-.1-.1-.1-.1h.5c.3-.1.4 0 .5 0 .2.1.3.1.4 0v-.4c.1.3.2.4.5.2 0 0 .1.1.3.1.1 0 .3.1.3.1l.1.1.1.1h.1s.1-.1.2-.1c.1.2.2.3.2.4.1.5.2.7.3.8h.2s.1-.1.1-.2v-1c-.2 0-.3-.1-.3-.2v-.3c.1-.1.1-.2.3-.3 0 0 .1 0 .1-.1.1 0 .2-.1.3-.1.1 0 .2-.1.2-.1.3-.2.3-.4.3-.6.1 0 .1-.1.2-.2l-.1-.1-.1-.1H19c.1-.1.1-.2 0-.3.1 0 .1-.1.1-.2s.1-.2.1-.2c.1.1.2.2.4 0 .1-.1.1-.2 0-.3.1-.1.2-.1.4-.2.2 0 .3-.1.3-.2h.1v-.2c0-.1 0-.2.1-.2 0-.1.1-.1.3-.2.1 0 .2-.1.2-.1l.3-.2v-.1c.2 0 .4 0 .6-.2.1-.1.1-.3-.1-.4 0-.1 0-.1-.1-.2-.1 0-.2-.1-.3-.1h.4c.2-.1.1-.2-.1-.3-.2 0-.5.1-.8.3zM18 27.3c2.5-.4 4.5-1.6 6.3-3.4 0 0-.1-.1-.2-.1s-.2 0-.2-.1c-.2-.1-.4-.1-.4-.1v-.2c0-.1-.1-.1-.1-.2-.1 0-.1-.1-.2-.1-.1-.1-.2-.1-.2-.1l-.1-.1c-.1 0-.1-.1-.1-.1s-.1 0-.1-.1h-.6s-.1 0-.1.1-.1 0-.1.1c-.3-.2-.5-.3-.6-.4-.1 0-.1 0-.2-.1s-.1-.1-.2-.1h-.2c-.1 0-.1.1-.2.1-.1.1-.1.1-.1.3v.2c-.1-.1-.1-.2 0-.3.1-.1.1-.3 0-.3 0-.1-.1-.1-.2-.1s-.2 0-.2.1c-.1 0-.1.1-.2.2s-.1.1-.2.1c0 0-.1 0-.2.1s-.1.1-.2.1c0 0-.1.1-.1.2s-.1.2-.1.2-.1-.1-.2-.1-.2-.1-.2-.1c0 .1 0 .3.1.6 0 .3.1.5.1.7.1.4 0 .7-.2.9-.3.3-.5.5-.5.7 0 .3 0 .4.2.5 0 .1 0 .2-.1.4s-.1.3-.1.4c-.2-.1-.1 0-.1.1z"/>
</svg>
