<?xml version="1.0" encoding="utf-8"?>
<!-- Generator: Adobe Illustrator 18.0.0, SVG Export Plug-In . SVG Version: 6.00 Build 0)  -->
<!DOCTYPE svg PUBLIC "-//W3C//DTD SVG 1.1//EN" "http://www.w3.org/Graphics/SVG/1.1/DTD/svg11.dtd">
<svg version="1.1" id="Layer_1" xmlns="http://www.w3.org/2000/svg" xmlns:xlink="http://www.w3.org/1999/xlink" x="0px" y="0px"
	 viewBox="0 0 32 32" enable-background="new 0 0 32 32" xml:space="preserve">
<g>
	<path fill="#D1954E" d="M17.7,4.6l11.5,21.1c0.3,0.6,0.3,1.3,0,1.9c-0.2,0.3-0.4,0.5-0.7,0.7c-0.3,0.2-0.6,0.3-0.9,0.3h-23
		c-0.3,0-0.7-0.1-0.9-0.3S3,27.8,2.9,27.5c-0.4-0.6-0.4-1.3,0-1.9L14.3,4.6C14.5,4.3,14.7,4,15,3.8c0.3-0.2,0.6-0.3,1-0.3
		c0.3,0,0.7,0.1,1,0.3C17.3,4,17.5,4.3,17.7,4.6z M17.9,18.5l0.3-6.9c0-0.1,0-0.2-0.1-0.3c-0.1-0.1-0.2-0.2-0.4-0.2h-3.3
		c-0.1,0-0.2,0.1-0.4,0.2c-0.1,0.1-0.1,0.2-0.1,0.3l0.3,6.8c0,0.1,0,0.2,0.1,0.2c0.1,0.1,0.2,0.1,0.4,0.1h2.8c0.1,0,0.3,0,0.4-0.1
		C17.8,18.7,17.9,18.6,17.9,18.5z M17.9,24.1v-2.8c0-0.1,0-0.3-0.1-0.4c-0.1-0.1-0.2-0.1-0.3-0.1h-2.9c-0.1,0-0.2,0-0.3,0.1
		c-0.1,0.1-0.1,0.2-0.1,0.4v2.8c0,0.1,0,0.3,0.1,0.4c0.1,0.1,0.2,0.1,0.3,0.1h2.9c0.1,0,0.2,0,0.3-0.1
		C17.9,24.4,17.9,24.3,17.9,24.1z"/>
</g>
</svg>
