<?xml version="1.0" encoding="utf-8"?>
<!-- Generator: Adobe Illustrator 18.0.0, SVG Export Plug-In . SVG Version: 6.00 Build 0)  -->
<!DOCTYPE svg PUBLIC "-//W3C//DTD SVG 1.1//EN" "http://www.w3.org/Graphics/SVG/1.1/DTD/svg11.dtd">
<svg version="1.1" id="Layer_1" xmlns="http://www.w3.org/2000/svg" xmlns:xlink="http://www.w3.org/1999/xlink" x="0px" y="0px"
	 viewBox="0 0 32 32" enable-background="new 0 0 32 32" xml:space="preserve">
<g>
	<path fill="#733737" d="M28.1,10.8c0.7,1.6,1,3.3,1,5.1s-0.3,3.5-1,5.2c-0.7,1.6-1.6,3-2.8,4.2c-1.2,1.2-2.6,2.1-4.2,2.8
		c-1.6,0.7-3.3,1-5.1,1c-1.8,0-3.5-0.3-5.1-1c-1.6-0.7-3-1.6-4.2-2.8c-1.2-1.2-2.1-2.6-2.8-4.2c-0.7-1.6-1-3.4-1-5.2s0.3-3.5,1-5.1
		c0.7-1.6,1.6-3,2.8-4.2s2.6-2.1,4.2-2.8c1.6-0.7,3.3-1,5.1-1c1.8,0,3.5,0.3,5.1,1c1.6,0.7,3,1.6,4.2,2.8S27.4,9.2,28.1,10.8z
		 M8.2,21.1l13-13c-1.5-1-3.3-1.6-5.2-1.6c-1.7,0-3.3,0.4-4.7,1.3c-1.4,0.8-2.6,2-3.4,3.4c-0.8,1.4-1.3,3-1.3,4.7
		C6.7,17.8,7.2,19.6,8.2,21.1z M25.3,16c0-1.8-0.5-3.5-1.5-5.1l-13,12.9c1.6,1,3.3,1.5,5.1,1.5c1.3,0,2.5-0.2,3.6-0.7
		c1.2-0.5,2.1-1.2,3-2s1.5-1.8,2-3C25.1,18.5,25.3,17.3,25.3,16z"/>
</g>
</svg>
