<?xml version="1.0" encoding="utf-8"?>
<!-- Generator: Adobe Illustrator 18.0.0, SVG Export Plug-In . SVG Version: 6.00 Build 0)  -->
<!DOCTYPE svg PUBLIC "-//W3C//DTD SVG 1.1//EN" "http://www.w3.org/Graphics/SVG/1.1/DTD/svg11.dtd">
<svg version="1.1" id="Layer_1" xmlns="http://www.w3.org/2000/svg" xmlns:xlink="http://www.w3.org/1999/xlink" x="0px" y="0px"
	 viewBox="984 984 32 32" enable-background="new 984 984 32 32" xml:space="preserve">
<path fill="#375273" d="M1013.2,994.1c-0.2-0.4-0.4-0.8-0.6-1l-4.2-4.2c-0.3-0.3-0.6-0.5-1-0.6c-0.4-0.2-0.8-0.3-1.2-0.3h-12
	c-0.4,0-0.7,0.1-0.9,0.4c-0.2,0.3-0.4,0.6-0.4,0.9v6.2c0.5-0.3,1.1-0.4,1.7-0.5v-5.3h10.3v5.6c0,0.4,0.1,0.7,0.4,0.9
	c0.3,0.3,0.6,0.4,0.9,0.4h5.6v13.7h-17.2v-5.5c-0.6-0.1-1.2-0.2-1.7-0.5v6.4c0,0.4,0.1,0.7,0.4,0.9c0.3,0.2,0.6,0.4,0.9,0.4h18
	c0.4,0,0.7-0.1,0.9-0.4c0.2-0.3,0.4-0.6,0.4-0.9v-15.4C1013.5,994.9,1013.4,994.5,1013.2,994.1z M1006.6,994.9v-5
	c0.3,0.1,0.4,0.2,0.5,0.3l4.2,4.2c0.1,0.1,0.2,0.3,0.3,0.5H1006.6z"/>
<rect x="-43.8" y="-437.5" fill="none" width="2743.8" height="2625"/>
<g>
	<path fill="#375273" d="M986.5,1006.6l3.2-3.2c-0.8-1.1-1.2-2.4-1.2-3.8c0-0.9,0.2-1.8,0.5-2.6c0.3-0.8,0.8-1.5,1.4-2.1
		s1.3-1.1,2.1-1.4c0.8-0.3,1.7-0.5,2.6-0.5s1.8,0.2,2.6,0.5c0.8,0.3,1.5,0.8,2.1,1.4c0.6,0.6,1.1,1.3,1.4,2.1
		c0.3,0.8,0.5,1.7,0.5,2.6s-0.2,1.8-0.5,2.6c-0.3,0.8-0.8,1.5-1.4,2.1c-0.6,0.6-1.3,1.1-2.1,1.4c-0.8,0.3-1.7,0.5-2.6,0.5
		c-1.4,0-2.6-0.4-3.8-1.2l-3.2,3.2c-0.2,0.2-0.5,0.4-0.8,0.4c-0.3,0-0.6-0.1-0.8-0.4s-0.4-0.5-0.4-0.8
		C986.1,1007.1,986.2,1006.8,986.5,1006.6z M995.1,1003.8c1.2,0,2.2-0.4,3-1.2c0.8-0.8,1.2-1.8,1.2-3c0-1.2-0.4-2.2-1.2-3
		c-0.8-0.8-1.8-1.2-3-1.2c-1.2,0-2.2,0.4-3,1.2s-1.2,1.8-1.2,3c0,1.2,0.4,2.2,1.2,3S994,1003.8,995.1,1003.8z"/>
</g>
</svg>
