<?xml version="1.0" encoding="utf-8"?>
<!-- Generator: Adobe Illustrator 18.0.0, SVG Export Plug-In . SVG Version: 6.00 Build 0)  -->
<!DOCTYPE svg PUBLIC "-//W3C//DTD SVG 1.1//EN" "http://www.w3.org/Graphics/SVG/1.1/DTD/svg11.dtd">
<svg version="1.1" id="Layer_1" xmlns="http://www.w3.org/2000/svg" xmlns:xlink="http://www.w3.org/1999/xlink" x="0px" y="0px"
	 viewBox="984 984 32 32" enable-background="new 984 984 32 32" xml:space="preserve">
<rect x="-43.8" y="-437.5" fill="none" width="2743.8" height="2625"/>
<g>
	<g>
		<path fill="#375273" d="M999.7,1005.7v2c0,0.1,0,0.1-0.1,0.2c0,0.1-0.1,0.1-0.2,0.1l-1.7,0.2c-0.1,0.3-0.2,0.6-0.3,0.8
			c0.2,0.3,0.5,0.7,1,1.2c0.1,0.1,0.1,0.1,0.1,0.2s0,0.1-0.1,0.2c-0.2,0.2-0.5,0.5-0.9,1c-0.4,0.4-0.7,0.6-0.8,0.6
			c-0.1,0-0.1,0-0.2-0.1l-1.2-1c-0.3,0.1-0.5,0.2-0.8,0.3c-0.1,0.8-0.2,1.4-0.3,1.7c0,0.2-0.1,0.3-0.3,0.3h-2c-0.1,0-0.2,0-0.2-0.1
			c-0.1-0.1-0.1-0.1-0.1-0.2l-0.3-1.6c-0.3-0.1-0.6-0.2-0.8-0.3l-1.3,1c-0.1,0.1-0.1,0.1-0.2,0.1c-0.1,0-0.2,0-0.2-0.1
			c-0.8-0.7-1.2-1.2-1.5-1.5c0-0.1-0.1-0.1-0.1-0.2c0-0.1,0-0.1,0.1-0.2c0.1-0.1,0.2-0.3,0.5-0.6c0.2-0.3,0.4-0.5,0.5-0.6
			c-0.2-0.3-0.3-0.6-0.4-0.9l-1.6-0.2c-0.1,0-0.1,0-0.2-0.1c0-0.1-0.1-0.1-0.1-0.2v-2c0-0.1,0-0.1,0.1-0.2c0-0.1,0.1-0.1,0.2-0.1
			l1.7-0.2c0.1-0.3,0.2-0.5,0.3-0.8c-0.2-0.3-0.6-0.8-1-1.2c-0.1-0.1-0.1-0.1-0.1-0.2c0-0.1,0-0.1,0.1-0.2c0.2-0.2,0.4-0.5,0.9-1
			c0.4-0.4,0.7-0.6,0.8-0.6c0.1,0,0.2,0,0.2,0.1l1.2,1c0.3-0.1,0.5-0.2,0.8-0.3c0.1-0.8,0.2-1.4,0.3-1.7c0-0.2,0.1-0.3,0.3-0.3h2
			c0.1,0,0.2,0,0.2,0.1c0.1,0.1,0.1,0.1,0.1,0.2l0.3,1.6c0.3,0.1,0.6,0.2,0.8,0.3l1.3-1c0.1-0.1,0.1-0.1,0.2-0.1
			c0.1,0,0.2,0,0.2,0.1c0.8,0.7,1.3,1.2,1.5,1.5c0,0,0.1,0.1,0.1,0.2c0,0.1,0,0.1-0.1,0.2c-0.1,0.1-0.2,0.3-0.5,0.6
			c-0.2,0.3-0.4,0.5-0.5,0.6c0.2,0.3,0.3,0.6,0.4,0.9l1.6,0.2c0.1,0,0.1,0,0.2,0.1C999.7,1005.5,999.7,1005.6,999.7,1005.7z
			 M994.5,1008.3c0.4-0.4,0.7-1,0.7-1.6c0-0.6-0.2-1.2-0.7-1.6c-0.4-0.4-1-0.7-1.6-0.7c-0.6,0-1.2,0.2-1.6,0.7
			c-0.4,0.4-0.7,1-0.7,1.6c0,0.6,0.2,1.2,0.7,1.6c0.4,0.4,1,0.7,1.6,0.7C993.5,1008.9,994,1008.7,994.5,1008.3z"/>
	</g>
	<path fill="#375273" d="M1013.7,992.6c-0.2-0.4-0.4-0.8-0.6-1l-4.2-4.2c-0.3-0.3-0.6-0.5-1-0.6c-0.4-0.2-0.8-0.3-1.2-0.3h-12
		c-0.4,0-0.7,0.1-0.9,0.4c-0.2,0.3-0.4,0.6-0.4,0.9v15.7h1.7v-15.2h10.3v5.6c0,0.4,0.1,0.7,0.4,0.9c0.3,0.3,0.6,0.4,0.9,0.4h5.6
		v13.7h-15.9v1.7h16.3c0.4,0,0.7-0.1,0.9-0.4c0.2-0.3,0.4-0.6,0.4-0.9v-15.4C1014,993.4,1013.9,993,1013.7,992.6z M1007.1,993.4v-5
		c0.3,0.1,0.4,0.2,0.5,0.3l4.2,4.2c0.1,0.1,0.2,0.3,0.3,0.5H1007.1z"/>
</g>
</svg>
