<svg xmlns="http://www.w3.org/2000/svg" viewBox="984 984 32 32">
  <path fill="none" d="M-43.8-437.5H2700v2625H-43.8z"/>
  <path fill="#375273" d="M1010 992.4c.2.3.5.6.6 1 .2.4.3.8.3 1.2v15.4c0 .4-.1.7-.4.9-.3.2-.6.4-.9.4h-18c-.4 0-.7-.1-.9-.4-.2-.3-.4-.6-.4-.9v-21.4c0-.4.1-.7.4-.9.3-.2.6-.4.9-.4h12c.4 0 .8.1 1.2.3.4.2.8.4 1 .6l4.2 4.2zm-.8 17.2v-13.7h-5.6c-.4 0-.7-.1-.9-.4-.3-.2-.4-.6-.4-.9V989H992v20.6h17.2zm-5.2-20.4v5h5c-.1-.3-.2-.4-.3-.5l-4.2-4.2c0-.1-.2-.2-.5-.3z"/>
  <path fill="#427337" d="M1000 1006.5v1.5c0 .2-.1.4-.2.5-.1.1-.3.2-.5.2H996v3.2c0 .2-.1.4-.2.5-.1.1-.3.2-.5.2h-1.5c-.2 0-.4-.1-.5-.2-.1-.1-.2-.3-.2-.5v-3.2h-3.2c-.2 0-.4-.1-.5-.2-.1-.1-.2-.3-.2-.5v-1.5c0-.2.1-.4.2-.5.1-.1.3-.2.5-.2h3.2v-3.2c0-.2.1-.4.2-.5.1-.1.3-.2.5-.2h1.5c.2 0 .4.1.5.2.1.1.2.3.2.5v3.2h3.2c.2 0 .4.1.5.2.2.1.3.3.3.5z"/>
</svg>
