<?xml version="1.0" encoding="utf-8"?>
<!-- Generator: Adobe Illustrator 18.0.0, SVG Export Plug-In . SVG Version: 6.00 Build 0)  -->
<!DOCTYPE svg PUBLIC "-//W3C//DTD SVG 1.1//EN" "http://www.w3.org/Graphics/SVG/1.1/DTD/svg11.dtd">
<svg version="1.1" id="Layer_1" xmlns="http://www.w3.org/2000/svg" xmlns:xlink="http://www.w3.org/1999/xlink" x="0px" y="0px"
	 viewBox="0 0 32 32" enable-background="new 0 0 32 32" xml:space="preserve">
<g>
	<path fill="#FFFFFF" d="M28.8,18.6C28.8,18.7,28.8,18.7,28.8,18.6c0,0.2-0.1,0.3-0.2,0.5C28.7,19,28.8,18.8,28.8,18.6"/>
</g>
<g>
	<path fill="#733737" d="M26.4,17L26.4,17C26.4,17,26.5,17,26.4,17C26.5,17,26.4,17,26.4,17z"/>
	<path fill="#FFFFFF" d="M26.5,17C26.5,17,26.4,17,26.5,17C26.4,17,26.5,17,26.5,17"/>
</g>
<g>
	<path fill="#375273" d="M27.2,8.9c0.4,0,0.7,0.1,0.9,0.4s0.4,0.6,0.4,0.9v17c0,0.4-0.1,0.7-0.4,0.9s-0.6,0.4-0.9,0.4H13.8
		c-0.4,0-0.7-0.1-0.9-0.4c-0.3-0.3-0.4-0.6-0.4-0.9v-4H4.8c-0.4,0-0.7-0.1-0.9-0.4s-0.4-0.6-0.4-0.9v-9.4c0-0.4,0.1-0.8,0.3-1.2
		c0.2-0.4,0.4-0.8,0.7-1.1l5.7-5.7c0.3-0.3,0.6-0.5,1.1-0.7c0.4-0.2,0.9-0.3,1.2-0.3h5.8c0.4,0,0.7,0.1,0.9,0.4
		c0.3,0.3,0.4,0.6,0.4,0.9v4.6c0.6-0.4,1.2-0.6,1.8-0.6H27.2z M13.4,15.5l4.4-4.4V5.3h-5.4v5.8c0,0.4-0.1,0.7-0.4,0.9
		c-0.3,0.3-0.6,0.4-0.9,0.4H5.3v8.9h7.1v-3.6c0-0.4,0.1-0.8,0.3-1.2S13.1,15.8,13.4,15.5z M10.6,6.5l-4.2,4.2h4.2V6.5z M26.7,26.7
		V10.6h-5.4v5.8c0,0.4-0.1,0.7-0.4,0.9c-0.3,0.3-0.6,0.4-0.9,0.4h-5.8v8.9H26.7z M19.6,11.8L15.4,16h4.2V11.8z"/>
</g>
</svg>
