<?xml version="1.0" encoding="utf-8"?>
<!-- Generator: Adobe Illustrator 18.0.0, SVG Export Plug-In . SVG Version: 6.00 Build 0)  -->
<!DOCTYPE svg PUBLIC "-//W3C//DTD SVG 1.1//EN" "http://www.w3.org/Graphics/SVG/1.1/DTD/svg11.dtd">
<svg version="1.1" id="Layer_1" xmlns="http://www.w3.org/2000/svg" xmlns:xlink="http://www.w3.org/1999/xlink" x="0px" y="0px"
	 viewBox="0 0 32 32" enable-background="new 0 0 32 32" xml:space="preserve">
<g>
	<g>
		<path fill="#FFFFFF" d="M28.4,18.7C28.4,18.7,28.4,18.7,28.4,18.7c0,0.2-0.1,0.3-0.2,0.5C28.3,19.1,28.4,18.9,28.4,18.7"/>
	</g>
	<g>
		<path fill="#733737" d="M26,17.1L26,17.1C26,17.1,26,17.1,26,17.1C26,17.1,26,17.1,26,17.1z"/>
		<path fill="#FFFFFF" d="M26.1,17.1C26,17.1,26,17.1,26.1,17.1C26,17.1,26,17.1,26.1,17.1"/>
	</g>
	<g>
		<g>
			<path fill="#427337" d="M29.4,21.1v2c0,0.3-0.1,0.5-0.3,0.7c-0.1,0.1-0.4,0.3-0.7,0.3h-4.3v4.2c0,0.3-0.1,0.5-0.3,0.7
				c-0.1,0.1-0.4,0.3-0.7,0.3h-2c-0.3,0-0.5-0.1-0.7-0.3c-0.1-0.1-0.3-0.4-0.3-0.7v-4.2h-4.2c-0.3,0-0.5-0.1-0.7-0.3
				c-0.1-0.1-0.3-0.4-0.3-0.7v-2c0-0.3,0.1-0.5,0.3-0.7c0.1-0.1,0.4-0.3,0.7-0.3h4.2v-4.2c0-0.3,0.1-0.5,0.3-0.7
				c0.1-0.1,0.4-0.3,0.7-0.3h2c0.3,0,0.5,0.1,0.7,0.3c0.1,0.1,0.3,0.4,0.3,0.7v4.2h4.2c0.3,0,0.5,0.1,0.7,0.3
				C29.3,20.5,29.4,20.8,29.4,21.1z"/>
		</g>
	</g>
	<path fill="#375273" d="M14.7,21.1c0-0.1,0-0.2,0-0.3h-9c-0.5,0-0.7-0.2-0.7-0.5c0-0.1,0.1-0.3,0.3-0.6l4.1-5.1
		c0.2-0.3,0.6-0.5,1-0.7c0.4-0.2,0.8-0.3,1.2-0.3h15.2c0.5,0,0.7,0.2,0.7,0.5c0,0.2-0.1,0.3-0.3,0.5l-2.5,3.1v1.8h0.8l3.1-3.8
		c0.4-0.5,0.6-1.1,0.6-1.7c0-0.3-0.1-0.7-0.2-0.9c-0.2-0.4-0.5-0.8-0.9-1c-0.4-0.2-0.9-0.3-1.4-0.3H24V9.6c0-0.9-0.3-1.6-0.9-2.2
		c-0.6-0.6-1.3-0.9-2.2-0.9h-7.6V6.1c0-0.9-0.3-1.6-0.9-2.2S11,2.9,10.2,2.9H5.7c-0.9,0-1.6,0.3-2.2,0.9S2.6,5.2,2.6,6.1v13.4
		c0,0.9,0.3,1.6,0.9,2.2s1.3,0.9,2.2,0.9h9V21.1z M4.4,6.1c0-0.4,0.1-0.7,0.4-0.9s0.6-0.4,0.9-0.4h4.5c0.4,0,0.7,0.1,0.9,0.4
		c0.3,0.3,0.4,0.6,0.4,0.9V7c0,0.4,0.1,0.7,0.4,0.9c0.3,0.3,0.6,0.4,0.9,0.4h8c0.4,0,0.7,0.1,0.9,0.4c0.3,0.3,0.4,0.6,0.4,0.9v2.2
		H11.5c-0.6,0-1.3,0.2-2,0.5c-0.7,0.3-1.2,0.7-1.6,1.2L4.4,18V6.1z"/>
</g>
</svg>
