<?xml version="1.0" encoding="utf-8"?>
<!-- Generator: Adobe Illustrator 18.0.0, SVG Export Plug-In . SVG Version: 6.00 Build 0)  -->
<!DOCTYPE svg PUBLIC "-//W3C//DTD SVG 1.1//EN" "http://www.w3.org/Graphics/SVG/1.1/DTD/svg11.dtd">
<svg version="1.1" id="Layer_1" xmlns="http://www.w3.org/2000/svg" xmlns:xlink="http://www.w3.org/1999/xlink" x="0px" y="0px"
	 viewBox="0 0 32 32" enable-background="new 0 0 32 32" xml:space="preserve">
<g>
	<g>
		<path fill="#FFFFFF" d="M28.3,18.3C28.3,18.3,28.3,18.3,28.3,18.3c0,0.2-0.1,0.3-0.2,0.5C28.2,18.7,28.3,18.5,28.3,18.3"/>
	</g>
	<g>
		<path fill="#733737" d="M26,16.7L26,16.7C26,16.7,26,16.6,26,16.7C26,16.6,26,16.7,26,16.7z"/>
		<path fill="#FFFFFF" d="M26,16.6C26,16.6,26,16.7,26,16.6C26,16.7,26,16.6,26,16.6 M25.8,16.4L25.8,16.4L25.8,16.4L25.8,16.4
			L25.8,16.4l0.3,0.4L25.8,16.4l0.3,0.4L25.8,16.4L25.8,16.4z"/>
	</g>
	<g>
		<g>
			<path fill="#375273" d="M20.9,29.7c-1.6,0-3.1-0.4-4.4-1.2c-1.4-0.8-2.4-1.9-3.2-3.2c-0.8-1.3-1.2-2.8-1.2-4.4s0.4-3.1,1.2-4.4
				c0.8-1.4,1.9-2.4,3.2-3.2c1.3-0.8,2.8-1.2,4.4-1.2s3.1,0.4,4.4,1.2c1.4,0.8,2.4,1.9,3.2,3.2c0.8,1.3,1.2,2.8,1.2,4.4
				s-0.4,3.1-1.2,4.4c-0.8,1.4-1.9,2.4-3.2,3.2C24,29.3,22.5,29.7,20.9,29.7z M22.8,25.7c0,0.1,0,0.1,0,0.2c0,0.1,0,0.1,0,0.2
				c0.1,0.3,0,0.5-0.2,0.7c-0.1,0.1-0.2,0.2-0.2,0.3c0,0,0,0.1,0,0.1l0.1,0.1l0,0.1c0,0.1,0,0.1,0,0.2c1.1-0.3,2.1-0.8,3.1-1.7
				c0,0-0.1,0-0.1,0l-0.2,0c0,0,0-0.3,0-0.3h0l-0.1-0.1h-0.1l0-0.1l0,0c0,0-0.1,0-0.1,0h-0.1l0-0.1h-0.1v0.3c0,0-0.7-0.4-0.7-0.5
				c-0.1,0-0.1-0.1-0.2-0.1h0c0,0,0,0,0,0v0.7l-0.3-0.3l-0.2,0.2l0-0.4c0,0,0,0,0-0.1c-0.1,0-0.1,0.1-0.2,0.1c0,0,0,0.1-0.1,0.1
				c0,0.1-0.1,0.2-0.1,0.2L22.8,25.7z M20.3,23.8c0.1,0.1,0.1,0.1,0.2,0.2l0.2,0.2c0,0,0,0,0,0v-0.4c0,0,0-0.1,0-0.1l0,0
				C20.7,23.7,20.5,23.8,20.3,23.8L20.3,23.8z M19.4,23.6C19.4,23.6,19.4,23.6,19.4,23.6l0.1,0l0.1,0.1l0.1,0c0,0-0.1,0-0.1-0.1
				c-0.1-0.1-0.2-0.2-0.3-0.4l-0.1-0.2c0-0.1-0.1-0.2-0.1-0.4v-0.3c0-0.1,0-0.2,0.1-0.3c0,0,0,0,0-0.1l-0.1-0.2l0.3-0.3
				c0,0,0-0.1,0.1-0.1l-0.1-0.1l0.5-0.1h0.3c0,0,0.1,0,0.2,0c0.1,0,0.1,0,0.2,0v-1.5l0.5,1.4l0.1-0.1l0.2,0.1c0,0,0,0,0,0
				c0.1,0,0.2,0,0.3,0.1l0,0l0,0c0,0,0.1,0,0.1,0h0.1v-0.2l0.1-0.1c0-0.1,0.1-0.1,0.2-0.2v-0.1h0.3c0,0,0.1-0.1,0.2-0.1
				c0.1-0.1,0.1-0.1,0.1-0.1h-0.4l0.3-0.4l-0.3-0.3l0.4,0c0-0.1,0.1-0.2,0.1-0.2l0.2-0.2l0,0l0,0c0.1-0.1,0.2-0.1,0.2-0.1
				c0,0,0.1-0.1,0.1-0.1v-0.1h0.1c0-0.1,0.1-0.2,0.1-0.2c0,0,0,0,0.1-0.1l0-0.2h-0.5l0.4-0.4l0.1-0.1c0-0.1,0.1-0.2,0.2-0.2
				c0.1-0.1,0.1-0.1,0.2-0.2l0,0v0c0,0,0,0,0,0c0.1-0.1,0.2-0.1,0.4-0.1c0.1,0,0.2,0,0.3-0.1c0.1,0,0.2,0,0.2,0c0.1,0,0.2,0,0.3,0.1
				c0,0,0,0,0,0c0,0,0.1-0.1,0.2-0.1c0,0,0.1,0,0.1,0c0,0-0.1-0.1-0.1-0.1h-0.1v-0.1h-0.1l-0.1-0.1H25L25,17.1
				c-0.1-0.1-0.1-0.3-0.1-0.4c0,0,0,0,0-0.1c0,0,0,0-0.1-0.1l-0.1-0.1c-0.1,0.1-0.1,0.1-0.2,0.1l-0.1,0.1l-0.2,0.1l-0.1,0.1l-0.1,0
				h-1c0,0.1-0.1,0.2-0.3,0.3c0,0,0,0-0.1,0l0,0.1l0.1,0.1l0.1,0.1c0,0.2-0.1,0.3-0.2,0.3l0,0v0.1h-0.2c0,0-0.1,0-0.1,0
				c-0.1,0-0.3-0.1-0.4-0.2c-0.1-0.1-0.2-0.3-0.2-0.5c0,0,0-0.1-0.1-0.1c-0.1,0-0.1,0-0.1,0l-0.2,0.2l-0.1-0.3
				c0-0.1-0.1-0.1-0.3-0.2c-0.1,0-0.3,0-0.5,0v-0.3l0,0l-0.1,0l-0.3,0.3v-0.7l0.1-0.1l0-0.1c0-0.2,0.1-0.3,0.1-0.3l-0.4-0.4
				c-0.1-0.1-0.1-0.1-0.1-0.2L19.5,15l0-0.1c0,0-0.6,0-0.6,0c-0.2,0-0.3-0.1-0.3-0.1l0,0c-0.1,0-0.1,0-0.1,0c0,0,0,0.7,0,0.7
				l-0.6-0.6c0,0,0,0,0,0c0,0-0.1,0-0.1,0c0,0-0.1,0-0.2,0h-0.1c-0.9,0.6-1.7,1.3-2.3,2.1l0.1,0.2c0.1,0.1,0.2,0.2,0.2,0.3
				c0.1,0.1,0.2,0.1,0.4,0.3c0.1,0.1,0.1,0.1,0.1,0.1c0.1,0.1,0.2,0.2,0.2,0.3c0,0.1,0,0.3-0.3,0.4l-0.1,0l0,0l0,0.1v0.6
				c0,0.1,0,0.1,0,0.3c0,0,0,0,0,0l0.5-0.2l-0.1,0.2h0.6L16.2,20c0,0.1,0.1,0.1,0.2,0.2c0,0,0.1,0.1,0.1,0.1h0.1l0,0.1
				c0,0.1,0.1,0.1,0.1,0.1l0.1,0.1l0,0l0.2,0.2l0,0.1v-0.1h0.3c0.1,0,0.2,0,0.3,0.1h0.2l0.1,0.3v0.2c0,0,0,0,0,0.1l0.1,0.1l0.4,0.4
				c0,0.1,0.1,0.1,0.1,0.1c0,0,0.1,0,0.1,0.1c0.1,0.1,0.2,0.2,0.3,0.4l0.1,0.1l-0.1,0.1c0,0.1,0,0.1,0,0.3c0,0,0,0.1,0,0.1
				c0.1,0,0.2,0.1,0.2,0.2l0,0H19l0.1,0.1c0,0,0,0,0,0C19.2,23.4,19.3,23.5,19.4,23.6C19.4,23.6,19.4,23.6,19.4,23.6z M22.8,16.3
				c0.1,0,0.2,0.1,0.2,0.2c0,0.1,0.1,0.2,0,0.3l0.7-0.3l0,0l-0.1-0.1c0,0.1,0,0.2,0,0.2l-0.1-0.1v-0.1l-0.2-0.2c0,0-0.1,0-0.1,0
				c-0.1,0-0.2-0.1-0.2-0.1c-0.1,0-0.2,0-0.3-0.1c0,0,0,0-0.1,0l0,0.1l0.1,0.1l0,0.1C22.8,16.2,22.8,16.2,22.8,16.3z M20.1,15.6
				C20.1,15.5,20.1,15.5,20.1,15.6l0-0.1l0.1,0c0,0,0,0,0.1-0.1v-0.1l0.3-0.1c0,0,0,0,0,0l0-0.6c-0.1,0-0.1,0-0.1,0
				c0,0,0,0.1-0.1,0.1l-0.1,0.1h-0.1l0,0l0,0c0,0,0,0-0.1,0V15.6z"/>
			<path fill="#FFFFFF" d="M20.9,12.3c1.6,0,3,0.4,4.3,1.1s2.4,1.8,3.1,3.1c0.8,1.3,1.1,2.8,1.1,4.3c0,1.6-0.4,3-1.1,4.3
				c-0.8,1.3-1.8,2.4-3.1,3.1c-1.3,0.8-2.8,1.1-4.3,1.1c-1.6,0-3-0.4-4.3-1.1c-1.3-0.8-2.4-1.8-3.1-3.1s-1.1-2.8-1.1-4.3
				c0-1.6,0.4-3,1.1-4.3s1.8-2.4,3.1-3.1S19.3,12.3,20.9,12.3 M19.9,15.1c-0.1-0.1-0.1-0.1-0.1-0.2c0-0.1-0.1-0.1-0.1-0.2
				c0.1-0.1,0-0.1-0.3-0.1h-0.1c0,0-0.1,0-0.2,0c-0.1,0-0.2,0-0.3,0c-0.1,0-0.1-0.1-0.1-0.1c0-0.1,0-0.1,0-0.3c0,0,0,0,0,0
				c0,0,0,0,0,0c0,0,0,0,0,0c0,0,0,0,0,0c0,0,0,0,0,0l0,0c0,0-0.1-0.1-0.1-0.1c-0.1-0.1-0.1-0.1-0.1-0.1c-0.3,0.1-0.7,0.3-1.1,0.4
				c0.1,0,0.1,0,0.1,0s0.1-0.1,0.1-0.1c0.1-0.1,0.1-0.1,0.1-0.1c0.1-0.1,0.3-0.1,0.4-0.1c0.1,0,0.1,0,0.1,0l0.1-0.1
				c0.1,0.1,0.2,0.2,0.3,0.3c0,0-0.1,0-0.2,0c0,0-0.1,0-0.1,0c-0.1,0.1-0.3,0.1-0.3,0.1c0.1,0.1,0.1,0.2,0.1,0.2s-0.1-0.1-0.1-0.1
				c-0.1-0.1-0.1-0.1-0.2-0.1c0,0-0.1,0-0.1,0c0,0-0.1,0-0.1,0c-0.1,0-0.2,0-0.3,0c-1.1,0.6-1.9,1.4-2.6,2.5
				c0.1,0.1,0.1,0.1,0.1,0.1s0.1,0.1,0.1,0.1s0,0.1,0,0.1s0.1,0,0.1-0.1c0.1,0.1,0.1,0.2,0.1,0.3c0,0,0.2,0.1,0.5,0.3
				c0.1,0.1,0.3,0.2,0.3,0.3c0,0.1,0,0.1-0.1,0.2c0,0-0.1-0.1-0.1-0.1c-0.1-0.1-0.1-0.1-0.1-0.1c0,0.1,0,0.1,0,0.2
				c0,0.1,0.1,0.1,0.1,0.1c-0.1,0-0.1,0.1-0.1,0.2c0,0.1,0,0.3,0,0.4c0,0.1,0,0.3,0,0.3c0,0.1,0,0.2,0.1,0.4c0,0.1,0.1,0.2,0.2,0.2
				c0,0,0,0,0,0c0,0.1,0.1,0.2,0.3,0.5c0.1,0.1,0.1,0.1,0.1,0.1c0,0,0.1,0.1,0.1,0.1c0.1,0.2,0.2,0.2,0.2,0.3
				c0.1,0.1,0.1,0.1,0.1,0.1c0,0.1,0.1,0.1,0.1,0.3c0.1,0.1,0.1,0.2,0.2,0.3c0,0.1,0,0.1,0.1,0.3c0.1,0.1,0.1,0.2,0.1,0.3
				c0,0.1,0.1,0.1,0.2,0.2c0.1,0.1,0.1,0.1,0.2,0.1c0,0,0,0.1,0,0.1s0,0.1,0.1,0.1c0,0,0,0,0,0c0,0,0,0,0,0c0-0.1-0.1-0.4-0.3-0.7
				c-0.1-0.2-0.2-0.3-0.2-0.3c0-0.1-0.1-0.1-0.1-0.2s-0.1-0.1-0.1-0.2h0.1c0,0,0.1,0,0.1,0.1c0.1,0,0.1,0,0.1,0.1c0,0,0,0,0,0.1
				c0,0.1,0,0.1,0,0.2c0.1,0.1,0.1,0.1,0.1,0.2s0.1,0.1,0.2,0.2c0.1,0.1,0.1,0.1,0.1,0.1c0.1,0.1,0.1,0.1,0.2,0.2
				c0.1,0.1,0.1,0.1,0,0.1c0.1,0,0.1,0.1,0.3,0.1c0.1,0.1,0.1,0.1,0.2,0.3c-0.1,0.1-0.1,0.2-0.1,0.4c0,0.1,0.1,0.3,0.1,0.3
				c0,0.1,0.1,0.1,0.1,0.1c0.1,0,0.1,0.1,0.1,0.1c0.1,0,0.1,0.1,0.2,0.1c0.1,0.1,0.1,0.1,0.1,0.1c0.1,0,0.1,0.1,0.2,0.1
				c0.1,0.1,0.2,0.1,0.3,0.1s0.1,0.1,0.2,0.1c0.1,0,0.1,0,0.2,0s0.1-0.1,0.1-0.1c0.1,0,0.3,0.1,0.3,0.2c0.1,0.1,0.2,0.2,0.3,0.3
				c0.2,0.1,0.4,0.1,0.5,0.1c0,0,0.1,0,0.1,0v0.1c0,0.1,0.1,0.1,0.1,0.2c0.1,0.1,0.1,0.1,0.1,0.2c0,0.1,0.1,0.1,0.1,0.1
				c0.1,0.1,0.1,0.1,0.2,0.2c0.1,0.1,0.2,0.1,0.2,0.2c0.1,0,0.1-0.1,0.1-0.1c0,0.1,0,0.1,0.1,0.3c0.1,0.1,0.1,0.1,0.2,0.1
				c0.1,0,0.2-0.1,0.2-0.4c-0.1,0-0.2,0.1-0.2,0.1c-0.1,0-0.3-0.1-0.3-0.3c0,0,0,0,0-0.1s-0.1-0.1-0.1-0.1c0,0,0-0.1,0-0.1
				s0-0.1,0-0.1s0-0.1,0.1-0.1s0.1,0,0.1-0.1c0,0,0-0.1,0-0.1c0-0.1-0.1-0.1-0.1-0.1c0-0.1-0.1-0.1-0.1-0.3
				c-0.1-0.1-0.1-0.1-0.1-0.2c0,0-0.1,0.1-0.1,0.1c0,0,0,0-0.1,0c-0.1,0-0.1-0.1-0.2-0.1c0,0,0,0,0,0.1s0,0.1,0,0.1
				C21,24,21,24,21,24c0,0,0-0.1,0-0.2c0-0.1,0-0.2,0.1-0.3c0,0,0-0.1,0.1-0.1c0.1-0.1,0.1-0.1,0.1-0.2c0-0.1,0.1-0.1,0.1-0.1
				c0-0.1,0-0.1-0.1-0.1c0,0-0.1,0-0.1,0c0,0,0,0-0.1,0c-0.1,0-0.3,0.1-0.3,0.3c0,0,0,0.1-0.1,0.1c-0.1,0.1-0.1,0.1-0.1,0.1
				s-0.1,0.1-0.1,0.1c-0.1,0-0.1,0-0.3,0s-0.2,0-0.3-0.1c-0.1-0.1-0.2-0.2-0.3-0.3c-0.1-0.2-0.1-0.3-0.1-0.4c0-0.1,0-0.2,0-0.3
				s0-0.2,0.1-0.3c0-0.1,0-0.1-0.1-0.3c0,0,0.1-0.1,0.1-0.1c0.1-0.1,0.1-0.1,0.1-0.1h0.1h0.1c0,0,0,0,0.1,0c0,0,0-0.1,0.1-0.1
				c0,0,0,0-0.1-0.1l-0.1-0.1c0.1,0,0.2,0,0.3,0c0.1,0,0.1,0,0.2,0c0.1,0,0.1,0,0.2,0c0.1,0,0.1,0,0.1,0c0,0,0.1,0,0.1,0
				c0,0,0-0.1,0-0.1s0-0.1,0-0.1c0,0.1,0.1,0.2,0.2,0.2c0,0,0.1,0,0.2-0.1c0,0,0.1,0.1,0.2,0.1c0.1,0,0.2,0.1,0.2,0.1l0.1,0.1
				l0.1,0.1c0,0,0,0,0.1,0c0,0,0.1-0.1,0.1-0.1c0.1,0.1,0.1,0.2,0.1,0.3c0.1,0.3,0.1,0.4,0.2,0.5c0.1,0,0.1,0,0.1,0
				c0,0,0.1-0.1,0.1-0.1s0-0.1,0-0.2c0-0.1,0-0.1,0-0.1v-0.1c0-0.1,0-0.1,0-0.2v-0.1c-0.1,0-0.2-0.1-0.2-0.1s0-0.1,0-0.2
				c0.1-0.1,0.1-0.1,0.2-0.2c0,0,0.1,0,0.1-0.1c0.1,0,0.1-0.1,0.2-0.1s0.1-0.1,0.1-0.1c0.2-0.1,0.2-0.3,0.2-0.4
				c0.1,0,0.1-0.1,0.1-0.1c0,0,0,0-0.1-0.1l-0.1-0.1h-0.1c0.1-0.1,0.1-0.1,0-0.2c0.1,0,0.1-0.1,0.1-0.1c0-0.1,0.1-0.1,0.1-0.1
				c0,0,0.1,0.1,0.1,0.1c0,0,0.1,0,0.1-0.1c0.1-0.1,0.1-0.1,0-0.2c0.1-0.1,0.1-0.1,0.3-0.1c0.1,0,0.2-0.1,0.2-0.1c0.1,0,0.1,0,0.1,0
				s0-0.1,0-0.1s0-0.1,0.1-0.1c0-0.1,0.1-0.1,0.2-0.1c0.1,0,0.1-0.1,0.1-0.1l0.2-0.1v-0.1c0.1,0,0.3,0,0.4-0.1
				c0.1-0.1,0.1-0.2-0.1-0.3c0-0.1,0-0.1-0.1-0.1c-0.1,0-0.1-0.1-0.2-0.1c0,0,0.1,0,0.1,0c0.1,0,0.1,0,0.1,0
				c0.1-0.1,0.1-0.1-0.1-0.2c-0.1,0-0.3,0.1-0.5,0.2c0,0-0.1,0.1-0.1,0.1c0,0,0,0-0.1,0.1c0-0.1,0.1-0.1,0.1-0.1
				c0-0.1,0.1-0.1,0.1-0.1C24,18.1,24,18,24.1,18c0.1-0.1,0.3-0.1,0.6-0.1c0.1,0,0.1,0,0.2,0c0.2,0,0.3,0.1,0.4,0.1
				c0,0,0-0.1,0.1-0.1c0.1-0.1,0.1-0.1,0.2-0.1c0,0,0.1-0.1,0.2-0.1c0.1,0,0.1-0.1,0.2-0.1v-0.3c-0.1,0-0.1,0-0.2-0.1
				s-0.1-0.1-0.1-0.3c0,0,0,0.1-0.1,0.1c0-0.1,0-0.1-0.1-0.1c-0.1,0-0.1,0-0.1,0c-0.1,0-0.1,0-0.1,0c-0.1,0-0.1-0.1-0.2-0.1
				c-0.1-0.1-0.1-0.1-0.1-0.2S25,16.7,25,16.6s-0.1-0.1-0.1-0.1c-0.1-0.1-0.1-0.1-0.1-0.1v-0.1c0,0,0-0.1-0.1-0.1c0,0,0-0.1-0.1-0.1
				h-0.1c0,0-0.1,0-0.1,0.1s-0.1,0.1-0.1,0.1c0,0.1-0.1,0.1-0.1,0.1h-0.1h-0.1c0,0,0,0-0.1,0.1l-0.1,0.1c0,0-0.1,0-0.1,0.1
				c-0.1,0-0.1,0-0.1,0c0.1-0.1,0.1-0.1,0-0.1c-0.1,0-0.1-0.1-0.2-0.1c0.1,0,0.1-0.1,0.1-0.1c0-0.1-0.1-0.1-0.1-0.2h0.1
				c0,0-0.1-0.1-0.1-0.1c-0.1-0.1-0.1-0.1-0.2-0.1c-0.1,0-0.1-0.1-0.1-0.1c-0.1-0.1-0.2-0.1-0.4-0.1c-0.1,0-0.2,0-0.2,0
				c-0.1,0-0.1,0-0.1,0c-0.1,0.1-0.1,0.1-0.1,0.1c0,0.1,0,0.1,0.1,0.2c0,0.1,0.1,0.1,0.1,0.1c0,0.1,0,0.1-0.1,0.1s-0.1,0.1-0.1,0.1
				c0,0.1,0.1,0.1,0.2,0.2c0.1,0,0.2,0.1,0.1,0.2c0,0.1-0.1,0.1-0.2,0.2C22.5,17,22.4,17,22.4,17c-0.1,0.1-0.1,0.1,0,0.2
				c0,0.1,0.1,0.1,0.1,0.2c0,0,0,0,0,0.1c0,0,0,0.1-0.1,0.1l-0.1,0.1c0,0-0.1,0-0.1,0.1h-0.1c0,0,0,0-0.1,0c-0.1,0-0.1,0-0.2-0.1
				c-0.1-0.1-0.1-0.2-0.1-0.3c-0.1-0.2-0.1-0.3-0.2-0.3c-0.1,0-0.2,0-0.2,0c0,0-0.1,0-0.1,0c-0.1-0.1-0.2-0.2-0.4-0.3
				c-0.2-0.1-0.4-0.1-0.6-0.1c0.1,0,0.1-0.1,0-0.2c0-0.1-0.1-0.1-0.1-0.1c0,0,0,0-0.1,0c0-0.1,0.1-0.1,0.1-0.2c0-0.1,0-0.1,0-0.1
				c0-0.1,0.1-0.2,0.1-0.3c0,0,0.1-0.1,0.1-0.1c0.1-0.1,0.1-0.1,0.1-0.1c0-0.1,0-0.1,0-0.1c0.3,0,0.4,0,0.6-0.1
				c0.1-0.1,0.1-0.1,0.1-0.2c0.1-0.1,0.1-0.1,0.1-0.2c0.1-0.1,0.1-0.1,0.2-0.1c0.1,0,0.1,0,0.2,0.1c0.1,0.1,0.1,0.1,0.2,0.1
				c0.1,0,0.2-0.1,0.2-0.1c0-0.1,0-0.2-0.1-0.3c0.1,0,0.1-0.1,0.1-0.2C22,14.3,22,14.3,22,14.3c-0.1,0-0.2,0-0.3,0.1
				c-0.1,0-0.1,0.1,0,0.1c0,0-0.1,0.1-0.1,0.1c-0.1,0.1-0.1,0.1-0.2,0.2c0,0,0,0-0.1,0c0,0-0.1,0-0.1-0.1c0,0,0-0.1-0.1-0.1
				c-0.1-0.1-0.1-0.1-0.1-0.1c-0.1,0-0.1,0.1-0.2,0.2c0-0.1,0-0.1-0.1-0.2c-0.1-0.1-0.2-0.1-0.3-0.1c0-0.1,0-0.3-0.2-0.3
				C20.2,14,20.1,14,20,14c-0.1,0-0.2,0-0.2,0.1c-0.1,0.1-0.1,0.1-0.1,0.1c0,0.1,0,0.1,0.1,0.1s0.1,0.1,0.1,0.1c0.1,0,0.1,0,0.1,0.1
				c0.1,0,0.1,0,0.1,0.1c0.1,0,0.1,0.1,0,0.1c0,0-0.1,0-0.1,0.1c-0.1,0-0.1,0.1-0.1,0.1c-0.1,0-0.1,0-0.1,0.1c0,0,0,0.1,0,0.2
				C19.9,15,19.9,15,19.9,15.1 M22.8,25.4c0,0-0.1-0.1-0.1-0.1s-0.1-0.1-0.1-0.1c0,0.1,0,0.2,0.1,0.4c0,0.2,0.1,0.3,0.1,0.4
				c0.1,0.3,0,0.4-0.1,0.6c-0.2,0.2-0.3,0.3-0.3,0.4c0,0.2,0,0.3,0.1,0.3c0,0.1,0,0.1-0.1,0.3s-0.1,0.2-0.1,0.3c0,0-0.1,0-0.1,0
				c0,0,0,0,0,0.1c1.6-0.3,2.8-1,3.9-2.1c0,0-0.1-0.1-0.1-0.1c-0.1,0-0.1,0-0.1-0.1c-0.1-0.1-0.3-0.1-0.3-0.1c0-0.1,0-0.1,0-0.1
				c0-0.1-0.1-0.1-0.1-0.1c-0.1,0-0.1-0.1-0.1-0.1c-0.1-0.1-0.1-0.1-0.1-0.1l-0.1-0.1c-0.1,0-0.1-0.1-0.1-0.1s-0.1,0-0.1-0.1
				c-0.1,0-0.1,0-0.1,0c0,0-0.1,0-0.1,0h-0.1h-0.1c0,0-0.1,0-0.1,0.1s-0.1,0-0.1,0.1c-0.2-0.1-0.3-0.2-0.4-0.3c-0.1,0-0.1,0-0.1-0.1
				C24,24.9,24,24.9,24,24.9s-0.1,0-0.1,0c-0.1,0-0.1,0.1-0.1,0.1c0,0,0,0,0,0c0,0,0-0.1,0-0.1c0-0.1-0.1-0.1-0.1-0.1
				c-0.1,0-0.1,0-0.1,0.1c-0.1,0-0.1,0.1-0.1,0.1C23.2,25,23.2,25,23.1,25c0,0-0.1,0-0.1,0.1c-0.1,0.1-0.1,0.1-0.1,0.1
				c0,0-0.1,0.1-0.1,0.1C22.8,25.4,22.8,25.4,22.8,25.4 M23.8,18.3C23.8,18.4,23.7,18.4,23.8,18.3C23.7,18.4,23.7,18.4,23.8,18.3
				 M15.9,19.8C15.9,19.9,15.9,19.9,15.9,19.8C15.9,19.9,15.9,19.8,15.9,19.8 M23.7,24.9c0,0,0,0.1,0,0.1C23.6,25,23.7,25,23.7,24.9
				 M23.6,25C23.6,25.1,23.6,25.1,23.6,25c0,0.1,0,0.2,0,0.2C23.6,25.2,23.6,25.1,23.6,25C23.6,25,23.6,25,23.6,25 M20.9,11.8
				c-1.6,0-3.2,0.4-4.6,1.2c-1.4,0.8-2.5,1.9-3.3,3.3c-0.8,1.4-1.2,2.9-1.2,4.6c0,1.6,0.4,3.2,1.2,4.6c0.8,1.4,1.9,2.5,3.3,3.3
				c1.4,0.8,2.9,1.2,4.6,1.2c1.6,0,3.2-0.4,4.6-1.2c1.4-0.8,2.5-1.9,3.3-3.3c0.8-1.4,1.2-2.9,1.2-4.6c0-1.6-0.4-3.2-1.2-4.6
				c-0.8-1.4-1.9-2.5-3.3-3.3C24.1,12.2,22.5,11.8,20.9,11.8L20.9,11.8z M15.5,17c0.6-0.8,1.2-1.4,2.1-1.9c0.1,0,0.1,0,0.2,0
				l0.1,0.1l0.9,0.9v-0.9c0.1,0,0.1,0,0.2,0h0.3h0.2l0.1,0.1c0,0.1,0.1,0.1,0.2,0.2l0.2,0.2c0,0.1-0.1,0.2-0.1,0.3v0
				c0,0.1-0.1,0.2-0.1,0.3v1.2l0.7-0.7v0.3c0.2,0,0.3,0,0.4,0c0.1,0,0.2,0.1,0.2,0.1l0.3,0.6l0.2-0.2c0,0.1,0.1,0.2,0.2,0.3
				c0.1,0.1,0.3,0.2,0.5,0.2c0.1,0,0.1,0,0.2,0h0.5v-0.3c0.1-0.1,0.2-0.3,0.2-0.4v-0.1v-0.2c0.1,0,0.1-0.1,0.1-0.1l0.8,0H24h0.2
				l0.1-0.1h0.1l0.1-0.1c0,0,0.1,0,0.1,0c0,0.1,0,0.3,0.2,0.4l0,0c-0.1,0-0.1,0-0.2,0c-0.1,0-0.2,0-0.2,0c0,0-0.1,0-0.1,0l0-0.3
				l-0.4,0.4c-0.1,0.1-0.2,0.1-0.2,0.2c-0.1,0.1-0.2,0.2-0.3,0.3c0,0,0,0,0,0l-0.8,0.8l0.6,0v0.2c0,0-0.1,0-0.2,0.1l0,0l-0.4,0.3
				c0,0-0.1,0.1-0.1,0.1h-0.9l0.6,0.6l-0.6,0.6h0.3v0c-0.1,0.1-0.1,0.1-0.1,0.1L21.6,21c-0.1,0-0.2-0.1-0.2-0.1l-0.2-0.2l0,0
				l-0.8-2.5l0,2.8c0,0-0.1,0-0.1,0h-0.2h-1.2l0.5,0.5l-0.1,0.1l-0.3,0.3l0.1,0.3c0,0.1,0,0.2,0,0.3v0.3c0,0.1,0,0.3,0.1,0.4H19
				c0,0-0.1-0.1-0.1-0.1c0,0,0-0.1,0-0.1l0.1-0.2l-0.1-0.2c-0.1-0.2-0.2-0.3-0.3-0.4L18.6,22l-0.1,0c0,0,0,0,0,0c0,0,0,0,0,0l0-0.1
				l-0.1-0.1l-0.2-0.2l-0.1-0.1l-0.2-0.2c0,0,0,0,0,0v0v-0.1c0-0.3-0.1-0.5-0.4-0.5c-0.1-0.1-0.2-0.1-0.3-0.1h-0.1H17l0,0l-0.1-0.1
				c0-0.1-0.1-0.1-0.1-0.1c0,0,0,0-0.1-0.1L16.6,20l1.4-0.7h-1.3l0.2-0.3l-0.9,0.2V19v-0.3c0.2-0.1,0.4-0.3,0.4-0.6
				c0-0.3-0.2-0.4-0.3-0.5c0,0-0.1-0.1-0.1-0.1l0,0l0,0c-0.1-0.1-0.2-0.2-0.3-0.2C15.7,17.2,15.6,17.1,15.5,17L15.5,17z M24.1,26.4
				v-0.9c0,0,0.1,0.1,0.2,0.1l0.7,0.5c-0.7,0.6-1.4,1-2.2,1.2v-0.2l0,0c0,0,0,0,0.1-0.1c0.2-0.2,0.3-0.5,0.3-0.8l0.4-0.4L24.1,26.4
				L24.1,26.4z"/>
		</g>
	</g>
	<path fill="#375273" d="M11.8,20.9c0-0.2,0-0.4,0-0.5H5.7c-0.5,0-0.7-0.2-0.7-0.5c0-0.1,0.1-0.3,0.3-0.6l4.1-5.1
		c0.2-0.3,0.6-0.5,1-0.7c0.4-0.2,0.8-0.3,1.2-0.3H16c0.1-0.1,0.2-0.1,0.3-0.2c1.4-0.8,2.9-1.2,4.6-1.2c1.6,0,3.2,0.4,4.6,1.2
		c0.1,0.1,0.2,0.1,0.3,0.2h0.9c0.5,0,0.7,0.2,0.7,0.5c0,0.2-0.1,0.3-0.3,0.5l0,0c0.4,0.4,0.8,0.9,1.2,1.4l0.2-0.3
		c0.4-0.5,0.6-1.1,0.6-1.7c0-0.3-0.1-0.7-0.2-0.9c-0.2-0.4-0.5-0.8-0.9-1c-0.4-0.2-0.9-0.3-1.4-0.3H24V9.2C24,8.4,23.7,7.6,23,7
		c-0.6-0.6-1.3-0.9-2.2-0.9h-7.6V5.6c0-0.9-0.3-1.6-0.9-2.2S11,2.5,10.1,2.5H5.7c-0.9,0-1.6,0.3-2.2,0.9S2.5,4.8,2.5,5.6V19
		c0,0.9,0.3,1.6,0.9,2.2s1.3,0.9,2.2,0.9h6.2C11.8,21.8,11.8,21.3,11.8,20.9z M4.3,5.6c0-0.4,0.1-0.7,0.4-0.9s0.6-0.4,0.9-0.4h4.5
		c0.4,0,0.7,0.1,0.9,0.4c0.3,0.3,0.4,0.6,0.4,0.9v0.9c0,0.4,0.1,0.7,0.4,0.9c0.3,0.3,0.6,0.4,0.9,0.4h8c0.4,0,0.7,0.1,0.9,0.4
		c0.3,0.3,0.4,0.6,0.4,0.9v2.2H11.5c-0.6,0-1.3,0.2-2,0.5c-0.7,0.3-1.2,0.7-1.6,1.2l-3.6,4.4V5.6z"/>
</g>
</svg>
