<?xml version="1.0" encoding="utf-8"?>
<!-- Generator: Adobe Illustrator 18.0.0, SVG Export Plug-In . SVG Version: 6.00 Build 0)  -->
<!DOCTYPE svg PUBLIC "-//W3C//DTD SVG 1.1//EN" "http://www.w3.org/Graphics/SVG/1.1/DTD/svg11.dtd">
<svg version="1.1" id="Layer_1" xmlns="http://www.w3.org/2000/svg" xmlns:xlink="http://www.w3.org/1999/xlink" x="0px" y="0px"
	 viewBox="0 0 32 32" enable-background="new 0 0 32 32" xml:space="preserve">
<g>
	<path fill="#FFFFFF" d="M28.8,18.6C28.8,18.7,28.8,18.7,28.8,18.6c0,0.2-0.1,0.3-0.2,0.5C28.7,19,28.8,18.8,28.8,18.6"/>
</g>
<g>
	<path fill="#733737" d="M26.4,17L26.4,17C26.4,17,26.5,17,26.4,17C26.5,17,26.4,17,26.4,17z"/>
	<path fill="#FFFFFF" d="M26.5,17C26.5,17,26.4,17,26.5,17C26.4,17,26.5,17,26.5,17"/>
</g>
<g>
	<path fill="#375273" d="M29.3,17.4c0,0.6-0.2,1.1-0.6,1.7l-4.1,5.1c-0.4,0.5-0.9,0.9-1.6,1.2c-0.7,0.3-1.3,0.5-2,0.5H5.8
		c-0.9,0-1.6-0.3-2.2-0.9s-0.9-1.3-0.9-2.2V9.3c0-0.9,0.3-1.6,0.9-2.2S5,6.2,5.8,6.2h4.5c0.9,0,1.6,0.3,2.2,0.9s0.9,1.3,0.9,2.2v0.4
		H21c0.9,0,1.6,0.3,2.2,0.9c0.6,0.6,0.9,1.3,0.9,2.2v2.2h2.7c0.5,0,1,0.1,1.4,0.3c0.4,0.2,0.7,0.6,0.9,1
		C29.2,16.7,29.3,17,29.3,17.4z M11.6,15.1h10.7v-2.2c0-0.4-0.1-0.7-0.4-0.9c-0.3-0.3-0.6-0.4-0.9-0.4h-8c-0.4,0-0.7-0.1-0.9-0.4
		c-0.3-0.3-0.4-0.6-0.4-0.9V9.3c0-0.4-0.1-0.7-0.4-0.9C11,8.1,10.6,8,10.3,8H5.8C5.4,8,5.1,8.1,4.9,8.4S4.5,8.9,4.5,9.3v11.9L8,16.8
		c0.4-0.5,0.9-0.9,1.6-1.2C10.3,15.3,11,15.1,11.6,15.1z M27.5,17.4c0-0.3-0.2-0.5-0.7-0.5H11.6c-0.4,0-0.8,0.1-1.2,0.3
		c-0.4,0.2-0.8,0.4-1,0.7L5.3,23c-0.2,0.2-0.3,0.4-0.3,0.6c0,0.3,0.2,0.5,0.7,0.5H21c0.4,0,0.8-0.1,1.2-0.3c0.4-0.2,0.8-0.5,1-0.7
		l4.1-5.1C27.4,17.7,27.5,17.5,27.5,17.4z"/>
</g>
</svg>
