<?xml version="1.0" encoding="utf-8"?>
<!-- Generator: Adobe Illustrator 18.0.0, SVG Export Plug-In . SVG Version: 6.00 Build 0)  -->
<!DOCTYPE svg PUBLIC "-//W3C//DTD SVG 1.1//EN" "http://www.w3.org/Graphics/SVG/1.1/DTD/svg11.dtd">
<svg version="1.1" id="Layer_1" xmlns="http://www.w3.org/2000/svg" xmlns:xlink="http://www.w3.org/1999/xlink" x="0px" y="0px"
	 viewBox="0 0 32 32" enable-background="new 0 0 32 32" xml:space="preserve">
<g>
	<g>
		<path fill="#375273" d="M28.5,20.1c0,1.1-0.4,2.1-1.2,2.8l-2.1,2c-0.8,0.8-1.7,1.2-2.8,1.2c-1.1,0-2.1-0.4-2.8-1.2L16.7,22
			c-0.8-0.8-1.2-1.7-1.2-2.8c0-1.1,0.4-2.1,1.2-2.9L15.5,15c-0.8,0.8-1.8,1.2-2.9,1.2c-1.1,0-2.1-0.4-2.8-1.2l-2.9-2.9
			c-0.8-0.8-1.2-1.7-1.2-2.8c0-1.1,0.4-2.1,1.2-2.8l2.1-2c0.8-0.8,1.7-1.2,2.8-1.2c1.1,0,2.1,0.4,2.8,1.2l2.9,2.9
			c0.8,0.8,1.2,1.7,1.2,2.8c0,1.1-0.4,2.1-1.2,2.9l1.2,1.2c0.8-0.8,1.8-1.2,2.9-1.2c1.1,0,2.1,0.4,2.8,1.2l2.9,2.9
			C28.1,18,28.5,19,28.5,20.1z M16,10.2c0-0.4-0.1-0.7-0.4-0.9l-2.9-2.9C12.5,6.1,12.1,6,11.8,6c-0.4,0-0.7,0.1-0.9,0.4l-2.1,2
			C8.5,8.7,8.4,9,8.4,9.4c0,0.4,0.1,0.7,0.4,0.9l2.9,2.9c0.3,0.3,0.6,0.4,0.9,0.4c0.4,0,0.7-0.1,1-0.4c0,0-0.1-0.1-0.3-0.3
			c-0.1-0.1-0.2-0.2-0.3-0.3c-0.1-0.1-0.1-0.1-0.2-0.3c-0.1-0.1-0.1-0.2-0.2-0.4c0-0.1,0-0.2,0-0.4c0-0.4,0.1-0.7,0.4-0.9
			c0.3-0.3,0.6-0.4,0.9-0.4c0.1,0,0.3,0,0.4,0s0.2,0.1,0.4,0.2c0.1,0.1,0.2,0.2,0.3,0.2c0.1,0.1,0.2,0.2,0.3,0.3
			c0.1,0.1,0.2,0.2,0.3,0.3C15.8,11,16,10.6,16,10.2z M25.8,20.1c0-0.4-0.1-0.7-0.4-0.9l-2.9-2.9c-0.3-0.3-0.6-0.4-0.9-0.4
			c-0.4,0-0.7,0.1-1,0.4c0,0,0.1,0.1,0.3,0.3c0.1,0.1,0.2,0.2,0.3,0.3c0.1,0.1,0.1,0.1,0.2,0.3c0.1,0.1,0.1,0.2,0.2,0.4s0,0.2,0,0.4
			c0,0.4-0.1,0.7-0.4,0.9s-0.6,0.4-0.9,0.4c-0.1,0-0.3,0-0.4,0c-0.1,0-0.2-0.1-0.4-0.2c-0.1-0.1-0.2-0.2-0.3-0.2
			c-0.1-0.1-0.2-0.2-0.3-0.3c-0.1-0.1-0.2-0.2-0.3-0.3c-0.3,0.3-0.5,0.6-0.5,1c0,0.4,0.1,0.7,0.4,0.9l2.9,2.9
			c0.3,0.3,0.6,0.4,0.9,0.4c0.4,0,0.7-0.1,0.9-0.4l2.1-2C25.7,20.7,25.8,20.4,25.8,20.1z"/>
	</g>
	<g>
		<g>
			<path fill="#427337" d="M9.2,29.2c-0.4,0-0.7-0.2-1-0.4c-0.2-0.2-0.4-0.6-0.4-1v-3.5H4.4c-0.4,0-0.7-0.2-1-0.4
				C3.2,23.7,3,23.3,3,23v-1.9c0-0.4,0.2-0.7,0.4-1c0.2-0.2,0.6-0.4,1-0.4h3.4v-3.5c0-0.4,0.2-0.7,0.4-1c0.2-0.2,0.6-0.4,1-0.4h1.9
				c0.4,0,0.7,0.2,1,0.4c0.2,0.2,0.4,0.6,0.4,1v3.5h3.4c0.3,0,0.7,0.1,0.9,0.3c0.4,0.2,0.6,0.6,0.6,1V23c0,0.4-0.2,0.7-0.4,1
				c-0.2,0.2-0.6,0.4-1,0.4h-3.6v3.5c0,0.4-0.2,0.7-0.4,1c-0.2,0.2-0.6,0.4-1,0.4H9.2z"/>
			<path fill="#FFFFFF" d="M11.1,15.5c0.2,0,0.5,0.1,0.6,0.2c0.1,0.1,0.2,0.4,0.2,0.6v4h4c0.2,0,0.5,0.1,0.6,0.2
				c0.2,0.1,0.4,0.4,0.4,0.6V23c0,0.2-0.1,0.5-0.2,0.6c-0.1,0.1-0.4,0.2-0.6,0.2h-4.1v4c0,0.2-0.1,0.5-0.2,0.6
				c-0.1,0.1-0.4,0.2-0.6,0.2H9.2c-0.2,0-0.5-0.1-0.6-0.2c-0.1-0.1-0.2-0.4-0.2-0.6v-4h-4c-0.2,0-0.5-0.1-0.6-0.2
				c-0.1-0.1-0.2-0.4-0.2-0.6v-1.9c0-0.2,0.1-0.5,0.2-0.6c0.1-0.1,0.4-0.2,0.6-0.2h4v-4c0-0.2,0.1-0.5,0.2-0.6
				c0.1-0.1,0.4-0.2,0.6-0.2H11.1 M11.1,14.5H9.2c-0.5,0-1,0.2-1.3,0.5c-0.3,0.3-0.5,0.8-0.5,1.3v3h-3c-0.5,0-1,0.2-1.3,0.5
				c-0.3,0.3-0.5,0.8-0.5,1.3V23c0,0.5,0.2,1,0.5,1.3c0.3,0.3,0.8,0.5,1.3,0.5h3v3c0,0.5,0.2,1,0.5,1.3c0.3,0.3,0.8,0.5,1.3,0.5h1.9
				c0.5,0,1-0.2,1.3-0.5c0.3-0.3,0.5-0.8,0.5-1.3v-3H16c0.5,0,1-0.2,1.3-0.5c0.3-0.3,0.5-0.8,0.5-1.3v-1.9c0-0.6-0.3-1.1-0.8-1.4
				c-0.3-0.3-0.8-0.4-1.2-0.4h-3v-3c0-0.5-0.2-1-0.5-1.3C12,14.7,11.5,14.5,11.1,14.5L11.1,14.5z"/>
		</g>
	</g>
</g>
</svg>
