<?xml version="1.0" encoding="utf-8"?>
<!-- Generator: Adobe Illustrator 18.0.0, SVG Export Plug-In . SVG Version: 6.00 Build 0)  -->
<!DOCTYPE svg PUBLIC "-//W3C//DTD SVG 1.1//EN" "http://www.w3.org/Graphics/SVG/1.1/DTD/svg11.dtd">
<svg version="1.1" id="Layer_1" xmlns="http://www.w3.org/2000/svg" xmlns:xlink="http://www.w3.org/1999/xlink" x="0px" y="0px"
	 viewBox="0 0 32 32" enable-background="new 0 0 32 32" xml:space="preserve">
<path fill="#375273" d="M16,26.2L16,26.2c-0.5,0-0.8-0.4-0.8-0.8v-4.1c0-0.5,0.4-0.8,0.8-0.8h0c0.5,0,0.8,0.4,0.8,0.8v4.1
	C16.8,25.9,16.5,26.2,16,26.2z"/>
<g>
	<path fill="#375273" d="M28.8,26.9H3.2c-0.5,0-0.9-0.4-0.9-0.9l0,0c0-0.5,0.4-0.9,0.9-0.9h25.5c0.5,0,0.9,0.4,0.9,0.9l0,0
		C29.7,26.5,29.3,26.9,28.8,26.9z"/>
	<path fill="#375273" d="M19.9,27.6h-7.8c-0.6,0-1-0.5-1-1v-1.3c0-0.5,0.4-1,1-1h7.8c0.5,0,1,0.5,1,1v1.3
		C20.9,27.2,20.4,27.6,19.9,27.6z"/>
</g>
<g>
	<path fill="#375273" d="M18.7,2.9h-0.4v19h0.4c1.1,0,2-0.9,2-2v-15C20.7,3.8,19.8,2.9,18.7,2.9z"/>
	<path fill="#375273" d="M13.3,2.9c-1.1,0-2,0.9-2,2v15c0,1.1,0.9,2,2,2h4v-19H13.3z M14.1,20.4c-0.8,0-1.5-0.7-1.5-1.5
		c0-0.8,0.7-1.5,1.5-1.5s1.5,0.7,1.5,1.5C15.6,19.7,14.9,20.4,14.1,20.4z"/>
</g>
</svg>
