<?xml version="1.0" encoding="utf-8"?>
<!-- Generator: Adobe Illustrator 18.0.0, SVG Export Plug-In . SVG Version: 6.00 Build 0)  -->
<!DOCTYPE svg PUBLIC "-//W3C//DTD SVG 1.1//EN" "http://www.w3.org/Graphics/SVG/1.1/DTD/svg11.dtd">
<svg version="1.1" id="Layer_1" xmlns="http://www.w3.org/2000/svg" xmlns:xlink="http://www.w3.org/1999/xlink" x="0px" y="0px"
	 viewBox="0 0 32 32" enable-background="new 0 0 32 32" xml:space="preserve">
<path fill="#375273" d="M27.7,10.6c-0.4,0.3-0.8,0.4-1.3,0.4c-0.6,0-1.2-0.3-1.6-0.7c-0.4,0.2-0.8,0.3-1.2,0.3
	c-1.1,0-2.1-0.7-2.4-1.8c-1.5-0.2-2.6-1.5-2.6-3c0,0,0,0,0,0c-1.2-0.2-2-1.3-2-2.5c0-0.1,0-0.3,0-0.4c-0.3,0-0.5,0-0.8,0
	C8.5,2.8,2.7,8.7,2.7,15.9S8.5,29,15.8,29c7.2,0,13.1-5.9,13.1-13.1C28.9,14,28.5,12.2,27.7,10.6z M9.5,19.7c-1.3,0-2.3-1-2.3-2.3
	s1-2.3,2.3-2.3s2.3,1,2.3,2.3S10.8,19.7,9.5,19.7z M11.1,10.7c-0.7,0-1.3-0.6-1.3-1.3c0-0.7,0.6-1.3,1.3-1.3s1.3,0.6,1.3,1.3
	C12.4,10.1,11.8,10.7,11.1,10.7z M14.5,24.3c-0.7,0-1.2-0.6-1.2-1.2c0-0.7,0.6-1.2,1.2-1.2c0.7,0,1.2,0.6,1.2,1.2
	C15.8,23.7,15.2,24.3,14.5,24.3z M15.3,13.4c-0.8,0-1.4-0.6-1.4-1.4c0-0.8,0.6-1.4,1.4-1.4c0.8,0,1.4,0.6,1.4,1.4
	C16.7,12.8,16.1,13.4,15.3,13.4z M21.4,20.9c-1.3,0-2.3-1-2.3-2.3c0-1.3,1-2.3,2.3-2.3c1.3,0,2.3,1,2.3,2.3
	C23.6,19.9,22.6,20.9,21.4,20.9z"/>
</svg>
