<?xml version="1.0" encoding="utf-8"?>
<!-- Generator: Adobe Illustrator 18.0.0, SVG Export Plug-In . SVG Version: 6.00 Build 0)  -->
<!DOCTYPE svg PUBLIC "-//W3C//DTD SVG 1.1//EN" "http://www.w3.org/Graphics/SVG/1.1/DTD/svg11.dtd">
<svg version="1.1" id="Layer_1" xmlns="http://www.w3.org/2000/svg" xmlns:xlink="http://www.w3.org/1999/xlink" x="0px" y="0px"
	 viewBox="0 0 32 32" enable-background="new 0 0 32 32" xml:space="preserve">
<g>
	<path fill="#375273" d="M20.3,14.8v2.5c0,0.1,0,0.2-0.1,0.3c-0.1,0.1-0.1,0.1-0.2,0.1L17.9,18c-0.1,0.3-0.2,0.7-0.4,1
		c0.3,0.4,0.7,0.9,1.2,1.5c0.1,0.1,0.1,0.2,0.1,0.3c0,0.1,0,0.2-0.1,0.3c-0.2,0.3-0.6,0.7-1.1,1.2s-0.9,0.8-1.1,0.8
		c-0.1,0-0.2,0-0.3-0.1l-1.5-1.2c-0.3,0.2-0.7,0.3-1,0.4c-0.1,1-0.2,1.7-0.3,2.1c-0.1,0.2-0.2,0.3-0.4,0.3h-2.5
		c-0.1,0-0.2,0-0.3-0.1c-0.1-0.1-0.1-0.1-0.1-0.2l-0.3-2c-0.3-0.1-0.6-0.2-1-0.4L7.2,23C7.1,23,7,23.1,6.9,23.1
		c-0.1,0-0.2,0-0.3-0.1c-1.3-1.2-1.9-1.9-1.9-2.1c0-0.1,0-0.2,0.1-0.3c0.1-0.1,0.3-0.4,0.5-0.7S5.8,19.2,6,19
		c-0.2-0.4-0.4-0.8-0.5-1.1l-2-0.3c-0.1,0-0.2-0.1-0.2-0.1c-0.1-0.1-0.1-0.2-0.1-0.3v-2.5c0-0.1,0-0.2,0.1-0.3s0.1-0.1,0.2-0.1
		L5.5,14c0.1-0.3,0.2-0.7,0.4-1c-0.3-0.4-0.7-0.9-1.2-1.5c-0.1-0.1-0.1-0.2-0.1-0.3c0-0.1,0-0.2,0.1-0.3c0.2-0.3,0.6-0.7,1.1-1.2
		c0.5-0.5,0.9-0.8,1.1-0.8C7,8.9,7.1,9,7.2,9l1.5,1.2c0.3-0.2,0.6-0.3,1-0.4c0.1-1,0.2-1.7,0.3-2.1c0.1-0.2,0.2-0.3,0.4-0.3H13
		c0.1,0,0.2,0,0.3,0.1c0.1,0.1,0.1,0.1,0.1,0.2l0.3,2c0.3,0.1,0.6,0.2,1,0.4L16.3,9c0.1-0.1,0.2-0.1,0.3-0.1c0.1,0,0.2,0,0.3,0.1
		c1.3,1.2,1.9,1.9,1.9,2.1c0,0.1,0,0.2-0.1,0.3c-0.1,0.1-0.3,0.4-0.6,0.7c-0.3,0.3-0.5,0.6-0.6,0.8c0.2,0.4,0.4,0.8,0.5,1.1l2,0.3
		c0.1,0,0.2,0.1,0.2,0.1C20.3,14.6,20.3,14.7,20.3,14.8z M14.1,18.4c0.7-0.7,1-1.5,1-2.4s-0.3-1.8-1-2.4c-0.7-0.7-1.5-1-2.4-1
		s-1.8,0.3-2.4,1c-0.7,0.7-1,1.5-1,2.4s0.3,1.8,1,2.4c0.7,0.7,1.5,1,2.4,1S13.5,19.1,14.1,18.4z M28.9,8.2v1.9c0,0.1-0.7,0.3-2,0.4
		c-0.1,0.2-0.2,0.5-0.4,0.7c0.5,1,0.7,1.6,0.7,1.8c0,0,0,0.1-0.1,0.1c-1.1,0.6-1.6,1-1.7,1c-0.1,0-0.3-0.2-0.6-0.6
		c-0.3-0.4-0.6-0.7-0.7-0.9c-0.2,0-0.3,0-0.4,0s-0.2,0-0.4,0c-0.1,0.2-0.4,0.5-0.7,0.9c-0.3,0.4-0.5,0.6-0.6,0.6c0,0-0.6-0.3-1.7-1
		c0,0-0.1-0.1-0.1-0.1c0-0.2,0.2-0.8,0.7-1.8c-0.2-0.2-0.3-0.5-0.4-0.7c-1.3-0.1-2-0.3-2-0.4V8.2c0-0.1,0.7-0.3,2-0.4
		c0.1-0.3,0.2-0.5,0.4-0.7c-0.5-1-0.7-1.6-0.7-1.8c0,0,0-0.1,0.1-0.1c0,0,0.2-0.1,0.5-0.3s0.5-0.3,0.8-0.5C21.8,4.3,22,4.2,22,4.2
		c0.1,0,0.3,0.2,0.6,0.6s0.6,0.7,0.7,0.9c0.2,0,0.3,0,0.4,0s0.2,0,0.4,0c0.5-0.6,0.9-1.1,1.2-1.5l0.1,0c0,0,0.6,0.3,1.7,0.9
		c0,0,0.1,0.1,0.1,0.1c0,0.2-0.2,0.8-0.7,1.8c0.2,0.2,0.3,0.4,0.4,0.7C28.2,7.9,28.9,8.1,28.9,8.2z M28.9,21.9v1.9
		c0,0.1-0.7,0.3-2,0.4c-0.1,0.2-0.2,0.5-0.4,0.7c0.5,1,0.7,1.6,0.7,1.8c0,0,0,0.1-0.1,0.1c-1.1,0.6-1.6,1-1.7,1
		c-0.1,0-0.3-0.2-0.6-0.6c-0.3-0.4-0.6-0.7-0.7-0.9c-0.2,0-0.3,0-0.4,0s-0.2,0-0.4,0c-0.1,0.2-0.4,0.5-0.7,0.9
		c-0.3,0.4-0.5,0.6-0.6,0.6c0,0-0.6-0.3-1.7-1c0,0-0.1-0.1-0.1-0.1c0-0.2,0.2-0.8,0.7-1.8c-0.2-0.2-0.3-0.5-0.4-0.7
		c-1.3-0.1-2-0.3-2-0.4v-1.9c0-0.1,0.7-0.3,2-0.4c0.1-0.3,0.2-0.5,0.4-0.7c-0.5-1-0.7-1.6-0.7-1.8c0,0,0-0.1,0.1-0.1
		c0,0,0.2-0.1,0.5-0.3s0.5-0.3,0.8-0.5c0.2-0.1,0.4-0.2,0.4-0.2c0.1,0,0.3,0.2,0.6,0.6s0.6,0.7,0.7,0.9c0.2,0,0.3,0,0.4,0
		s0.2,0,0.4,0c0.5-0.6,0.9-1.1,1.2-1.5l0.1,0c0,0,0.6,0.3,1.7,0.9c0,0,0.1,0.1,0.1,0.1c0,0.2-0.2,0.8-0.7,1.8
		c0.2,0.2,0.3,0.4,0.4,0.7C28.2,21.6,28.9,21.8,28.9,21.9z M25.4,9.1c0-0.5-0.2-0.9-0.5-1.2s-0.7-0.5-1.2-0.5s-0.9,0.2-1.2,0.5
		C22.2,8.3,22,8.7,22,9.1c0,0.5,0.2,0.9,0.5,1.2c0.3,0.3,0.7,0.5,1.2,0.5s0.9-0.2,1.2-0.5C25.3,10,25.4,9.6,25.4,9.1z M25.4,22.9
		c0-0.5-0.2-0.9-0.5-1.2s-0.7-0.5-1.2-0.5s-0.9,0.2-1.2,0.5C22.2,22,22,22.4,22,22.9c0,0.5,0.2,0.9,0.5,1.2c0.3,0.3,0.7,0.5,1.2,0.5
		s0.9-0.2,1.2-0.5C25.3,23.7,25.4,23.3,25.4,22.9z"/>
</g>
</svg>
