<?xml version="1.0" encoding="utf-8"?>
<!-- Generator: Adobe Illustrator 18.0.0, SVG Export Plug-In . SVG Version: 6.00 Build 0)  -->
<!DOCTYPE svg PUBLIC "-//W3C//DTD SVG 1.1//EN" "http://www.w3.org/Graphics/SVG/1.1/DTD/svg11.dtd">
<svg version="1.1" id="Layer_1" xmlns="http://www.w3.org/2000/svg" xmlns:xlink="http://www.w3.org/1999/xlink" x="0px" y="0px"
	 viewBox="0 0 32 32" enable-background="new 0 0 32 32" xml:space="preserve">
<g>
	<path fill="#375273" d="M30.5,22v2.2c0,0.1,0,0.1-0.1,0.2c-0.1,0.1-0.1,0.1-0.2,0.1l-1.8,0.3c-0.1,0.4-0.3,0.6-0.4,0.9
		c0.2,0.4,0.6,0.8,1.1,1.3c0.1,0.1,0.1,0.1,0.1,0.2c0,0.1,0,0.1-0.1,0.2c-0.2,0.2-0.5,0.6-1,1.1c-0.5,0.5-0.8,0.7-0.9,0.7
		c-0.1,0-0.1,0-0.3-0.1l-1.3-1.1c-0.3,0.1-0.6,0.3-0.9,0.4c-0.1,0.9-0.2,1.5-0.3,1.8c-0.1,0.2-0.1,0.3-0.4,0.3h-2.2
		c-0.1,0-0.1,0-0.2-0.1c-0.1-0.1-0.1-0.1-0.1-0.2l-0.3-1.8c-0.4-0.1-0.6-0.2-0.9-0.4l-1.4,1.1c-0.1,0.1-0.1,0.1-0.2,0.1
		c-0.1,0-0.1-0.1-0.2-0.1c-0.8-0.8-1.3-1.3-1.6-1.6c-0.1-0.1-0.1-0.1-0.1-0.2c0-0.1,0-0.1,0.1-0.2c0.1-0.1,0.3-0.4,0.5-0.6
		c0.2-0.3,0.4-0.6,0.6-0.7c-0.2-0.4-0.3-0.6-0.4-1l-1.8-0.3c-0.1,0-0.1-0.1-0.2-0.1c-0.1-0.1-0.1-0.1-0.1-0.2v-2.2
		c0-0.1,0-0.1,0.1-0.2c0.1-0.1,0.1-0.1,0.2-0.1l1.8-0.3c0.1-0.3,0.2-0.6,0.4-0.9c-0.3-0.4-0.6-0.8-1.1-1.3c-0.1-0.1-0.1-0.1-0.1-0.2
		s0-0.1,0.1-0.2c0.1-0.3,0.5-0.6,1-1.1c0.5-0.5,0.8-0.7,0.9-0.7c0.1,0,0.1,0,0.3,0.1l1.3,1.1c0.3-0.1,0.6-0.3,0.9-0.4
		c0.1-0.9,0.2-1.5,0.3-1.8c0.1-0.2,0.1-0.3,0.4-0.3h2.2c0.1,0,0.1,0,0.2,0.1c0.1,0.1,0.1,0.1,0.1,0.2l0.3,1.8
		c0.4,0.1,0.6,0.2,0.9,0.4l1.4-1.1c0.1-0.1,0.1-0.1,0.2-0.1c0.1,0,0.1,0,0.2,0.1c0.8,0.8,1.4,1.3,1.6,1.7c0.1,0.1,0.1,0.1,0.1,0.2
		c0,0.1,0,0.1-0.1,0.2c-0.1,0.1-0.3,0.4-0.5,0.6c-0.2,0.3-0.4,0.6-0.6,0.7c0.1,0.4,0.3,0.6,0.4,1l1.8,0.3c0.1,0,0.1,0.1,0.2,0.1
		C30.5,21.8,30.5,21.9,30.5,22z M24.8,24.8c0.5-0.5,0.7-1.1,0.7-1.8s-0.2-1.3-0.7-1.8s-1.1-0.7-1.8-0.7s-1.3,0.2-1.8,0.7
		s-0.7,1.1-0.7,1.8s0.2,1.3,0.7,1.8c0.5,0.5,1.1,0.7,1.8,0.7S24.3,25.3,24.8,24.8z"/>
</g>
<g>
	<path fill="#375273" d="M16.5,26.7c0.1-0.1,0.2-0.2,0.3-0.3c0.1-0.1,0.2-0.2,0.2-0.3c0.1-0.2,0.2-0.3,0.4-0.5
		c-0.1-0.2-0.1-0.3-0.2-0.5l0,0l-1.5-0.2c-0.2,0-0.4-0.2-0.5-0.3C15,24.4,15,24.2,15,24.1v-2.2c0-0.1,0-0.3,0.2-0.6
		c0.1-0.1,0.3-0.3,0.6-0.3l0.1,0c0,0-0.1-0.1-0.2-0.1c-0.1-0.1-0.2-0.2-0.3-0.3c0-0.1-0.1-0.1-0.1-0.2c-0.1-0.1-0.1-0.2-0.2-0.3
		c0-0.1-0.1-0.2-0.1-0.3v-0.1c-0.2,0.1-0.5,0-0.9-0.2c-0.1-0.1-0.2-0.2-0.4-0.4c-0.1-0.2-0.3-0.3-0.5-0.3c0,0-0.1,0.1-0.2,0.1
		c-0.1,0-0.2,0-0.3,0c-0.1,0-0.2-0.1-0.3-0.1s-0.2-0.1-0.4-0.2c-0.1-0.1-0.2-0.2-0.3-0.2c0,0-0.1,0-0.2-0.1c-0.1,0-0.2-0.1-0.3-0.1
		c0-0.1-0.1-0.2-0.2-0.2c-0.1,0-0.2-0.1-0.2-0.2c0,0-0.1-0.2-0.1-0.4c0-0.3,0-0.4,0.1-0.5c-0.1-0.2-0.2-0.3-0.3-0.4
		c-0.2-0.1-0.3-0.2-0.4-0.2c0.1,0,0.1,0,0-0.2c-0.1-0.1-0.2-0.2-0.3-0.3c0,0-0.1-0.1-0.2-0.2C10,16,9.9,15.9,9.8,15.8
		c-0.1-0.1-0.1-0.2-0.2-0.3c0-0.1,0-0.2,0-0.3c0-0.1,0-0.1,0-0.1c0-0.1,0-0.1-0.1-0.1C9.4,15,9.4,15,9.4,15H9.3
		c0,0.1,0.1,0.2,0.1,0.3c0,0.1,0.1,0.2,0.1,0.3c0,0,0.1,0.2,0.3,0.5c0.3,0.5,0.4,0.8,0.4,1c0,0.1-0.1,0-0.1,0
		c-0.1-0.1-0.1-0.1-0.1-0.2s0-0.2,0-0.2c-0.1,0-0.2-0.1-0.3-0.2c-0.2-0.1-0.3-0.2-0.3-0.3S9.3,16,9.2,15.8C9,15.6,9,15.5,9,15.4
		c-0.1-0.1-0.2-0.2-0.3-0.4c-0.1-0.2-0.2-0.3-0.2-0.4c-0.1-0.1-0.1-0.1-0.2-0.2c0-0.1-0.1-0.1-0.3-0.4c-0.1,0-0.2-0.1-0.2-0.1
		c0-0.1,0-0.1-0.1-0.2c-0.4-0.5-0.5-0.7-0.4-0.7c-0.2,0.1-0.3,0-0.4-0.3C7,12.6,7,12.4,7,12.3c0,0,0-0.2,0-0.4s0-0.4,0-0.5
		c0.1-0.2,0.1-0.3,0.2-0.3c-0.1,0-0.2,0-0.2-0.2c0-0.1,0-0.2,0-0.3c0.1,0,0.1,0,0.2,0.1C7.3,10.9,7.4,11,7.4,11
		c0.2-0.1,0.2-0.2,0.2-0.3c0-0.1-0.2-0.2-0.4-0.4C6.7,10,6.5,9.9,6.5,9.9c0.1-0.1,0.1-0.2-0.1-0.4C6.3,9.6,6.2,9.6,6.2,9.6
		s0-0.1,0-0.2c0-0.1-0.1-0.2-0.1-0.2S6,9.3,5.9,9.2c1-1.5,2.3-2.7,3.8-3.6c0.1,0,0.2,0,0.4,0c0.1,0.1,0.2,0.1,0.3,0
		c0.1,0.1,0.2,0.1,0.3,0.2c0.1,0.1,0.2,0.2,0.2,0.2s0-0.2-0.1-0.3c0-0.1,0.2-0.1,0.4-0.2c0.2-0.1,0.4,0,0.5,0
		c-0.1-0.1-0.2-0.2-0.4-0.4l-0.1,0.1c-0.1-0.1-0.4-0.1-0.7,0.1c0,0-0.1,0-0.2,0.1c-0.1,0-0.1,0.1-0.2,0.1c-0.1,0-0.1,0-0.2,0
		c0.5-0.3,1.1-0.5,1.5-0.6c0.1,0.1,0.1,0.1,0.2,0.2c0.1,0.1,0.2,0.2,0.2,0.2c-0.1-0.1-0.1,0-0.1,0c0,0.2,0,0.3,0,0.4
		c0,0,0.1,0.1,0.2,0.1s0.3,0,0.4,0c0.2,0,0.3,0,0.3,0h0.2c0.4,0,0.5,0,0.4,0.1c0,0.1,0.1,0.2,0.1,0.3c0.1,0.1,0.1,0.2,0.2,0.3
		c0-0.1,0-0.2,0-0.3c0-0.2,0-0.3,0-0.3c0-0.1,0-0.1,0.1-0.1c0.1,0,0.1-0.1,0.2-0.1c0.1-0.1,0.2-0.1,0.2-0.1c0.1-0.1,0.1-0.2,0-0.2
		c-0.1-0.1-0.1-0.1-0.2-0.1c-0.1-0.1-0.1-0.1-0.2-0.1c-0.1,0-0.1-0.1-0.2-0.1c-0.1,0-0.1,0-0.1-0.1c0,0,0-0.1,0.1-0.2
		c0-0.1,0.1-0.1,0.3-0.1s0.3,0.1,0.4,0.1c0.3,0.1,0.3,0.3,0.3,0.5c0.1,0,0.2,0,0.4,0.1c0.2,0.1,0.2,0.2,0.2,0.3
		c0.1-0.2,0.2-0.3,0.3-0.3C15,5.3,15,5.4,15,5.5c0.1,0.1,0.1,0.2,0.1,0.2c0.1,0.1,0.2,0.2,0.3,0.1c0.1-0.1,0.2-0.2,0.3-0.3
		c0.1-0.1,0.2-0.2,0.2-0.2c-0.1,0-0.1-0.1,0-0.1c0.2-0.1,0.4-0.1,0.5-0.1c0,0.1,0,0.1,0.1,0.2c0.1,0.2,0,0.3-0.1,0.3
		c0.1,0.1,0.1,0.3,0.1,0.4c0,0.1-0.1,0.2-0.3,0.2c-0.1,0-0.2,0-0.3-0.1c-0.2-0.1-0.2-0.1-0.3-0.1c-0.1,0-0.2,0-0.3,0.1
		c-0.1,0.1-0.1,0.2-0.2,0.3C15,6.4,15,6.5,15,6.5c-0.2,0.2-0.5,0.2-0.8,0.2c0,0,0,0,0,0.1c-0.1,0-0.1,0.1-0.2,0.2
		c0,0.1-0.1,0.2-0.1,0.2c-0.1,0.1-0.2,0.2-0.2,0.4c0,0,0,0.1,0,0.2c0,0.1-0.1,0.2-0.1,0.3c0.1-0.1,0.2,0,0.3,0.2
		c0.1,0.2,0.1,0.3,0,0.3c0.4,0,0.6,0,0.9,0.1c0.4,0.2,0.5,0.3,0.6,0.5c0.1-0.1,0.2-0.1,0.5,0C16,9,16,9.2,16.1,9.4
		c0,0.2,0.1,0.4,0.2,0.5c0.1,0.1,0.3,0.2,0.4,0.1h0.1c0-0.1,0.1-0.1,0.1-0.1l0.1-0.1C17,9.8,17,9.7,17,9.7c0-0.1,0-0.1,0-0.1
		c-0.1-0.1-0.2-0.2-0.2-0.3c-0.1-0.1-0.1-0.2,0-0.3c0,0,0.1-0.1,0.3-0.2c0.2-0.1,0.3-0.2,0.3-0.3c0.1-0.2,0-0.3-0.2-0.3
		c-0.2-0.1-0.3-0.2-0.3-0.3c0,0,0-0.1,0.1-0.2c0.1-0.1,0.1-0.1,0.1-0.2c0,0-0.1-0.1-0.1-0.2c-0.1-0.2-0.1-0.2-0.1-0.3
		c0-0.1,0-0.1,0.1-0.2c0.1-0.1,0.3-0.1,0.5,0c0.3,0.1,0.5,0.1,0.5,0.2c0,0,0.1,0.1,0.2,0.1c0.1,0.1,0.2,0.1,0.3,0.2
		c0.1,0.1,0.2,0.2,0.2,0.2h-0.1c0.1,0.1,0.2,0.2,0.2,0.3c0.1,0.1,0,0.2-0.1,0.2c0.1,0,0.2,0.1,0.3,0.1c0.2,0.1,0.2,0.1,0,0.2
		c0.1,0,0.1,0,0.2,0c0.1-0.1,0.2-0.1,0.2-0.1l0.1-0.1c0.1-0.1,0.1-0.1,0.1-0.1h0.1h0.1c0,0,0.1,0,0.1-0.1c0-0.1,0.1-0.1,0.1-0.2
		c0-0.1,0.1-0.1,0.1-0.1h0.1c0.1,0,0.1,0.1,0.1,0.1c0.1,0,0.1,0.1,0.1,0.1v0.1c0.1,0.1,0.1,0.1,0.2,0.2c0.1,0.1,0.2,0.1,0.2,0.2
		c0,0.1,0.1,0.2,0.1,0.3c0,0.1,0,0.2,0.1,0.3c0.1,0,0.2,0.1,0.3,0.1c0.1,0,0.1,0,0.2,0c0.1,0,0.1,0,0.2,0c0.1,0,0.1,0,0.1,0.1
		c0.1,0,0.1-0.1,0.1-0.1c0,0.2,0,0.3,0.1,0.4c0.1,0.1,0.2,0.1,0.3,0.1v0.4c-0.1,0-0.2,0.1-0.3,0.1c-0.2,0-0.3,0.1-0.3,0.1
		c-0.1,0-0.2,0.1-0.3,0.2C21,10.3,21,10.4,21,10.4c-0.2-0.2-0.5-0.3-0.8-0.2c-0.4,0.1-0.6,0.1-0.8,0.2c-0.2,0.1-0.3,0.2-0.4,0.3
		c0,0-0.1,0-0.1,0.1c0,0.1-0.1,0.1-0.1,0.2c0,0,0,0,0,0c0,0,0.1-0.1,0.1-0.1c0.1-0.1,0.2-0.2,0.2-0.2c0.3-0.2,0.5-0.3,0.7-0.3
		c0.2,0.1,0.3,0.2,0.1,0.3c0,0-0.1,0-0.2,0c-0.1,0-0.2,0-0.2,0c0.1,0,0.2,0.1,0.3,0.1c0.1,0.1,0.1,0.1,0.1,0.2
		c0.2,0.1,0.2,0.3,0.1,0.4c-0.2,0.2-0.4,0.2-0.5,0.2v0.1l-0.3,0.2c0,0-0.1,0.1-0.2,0.1c-0.2,0.1-0.3,0.1-0.3,0.2
		c-0.1,0-0.1,0.1-0.1,0.2c0,0.1,0,0.2,0,0.2s0,0-0.1,0c0,0.1-0.1,0.2-0.3,0.2c-0.2,0.1-0.3,0.1-0.4,0.2c0.1,0.1,0.1,0.2,0,0.3
		c-0.2,0.2-0.3,0.1-0.4,0c0,0-0.1,0.1-0.1,0.2c0,0.1,0,0.2-0.1,0.2c0.1,0.1,0.1,0.2,0,0.3h0.1l0.1,0.1c0.1,0.1,0.1,0.1,0.1,0.1
		c-0.1,0.1-0.1,0.2-0.2,0.2c0,0.2,0,0.4-0.3,0.5c0,0-0.1,0.1-0.2,0.1c-0.1,0-0.2,0.1-0.3,0.1c0,0.1-0.1,0.1-0.1,0.1
		c-0.2,0.1-0.2,0.2-0.3,0.3c0,0.1,0,0.2,0,0.3c0,0.1,0.1,0.2,0.3,0.2v0.1c0,0.1,0,0.2,0,0.3V16c0,0.1,0,0.1,0,0.2c0,0.1,0,0.2,0,0.3
		c0,0.1-0.1,0.2-0.1,0.2c-0.1,0-0.1,0-0.2,0c-0.1-0.1-0.2-0.3-0.3-0.7c0-0.1-0.1-0.2-0.2-0.4c-0.1,0-0.2,0.1-0.2,0.1
		c-0.1,0-0.1,0-0.1,0l-0.1-0.1l-0.1-0.1c0,0-0.2-0.1-0.3-0.1c-0.2,0-0.3-0.1-0.3-0.1c-0.3,0.2-0.4,0.1-0.5-0.2c0,0,0,0.1,0,0.2
		s0,0.2,0,0.2c-0.1,0.1-0.2,0.1-0.4,0c-0.1,0-0.2-0.1-0.5,0c-0.2,0-0.4,0-0.5,0l0.1,0.1c0.1,0.1,0.1,0.1,0.1,0.1
		c-0.1,0-0.1,0.1-0.1,0.1c-0.1,0-0.1,0-0.1,0h-0.1h-0.1c-0.1,0-0.1,0.1-0.2,0.2c-0.1,0.1-0.2,0.2-0.2,0.2c0.1,0.2,0.1,0.3,0.1,0.4
		c-0.1,0.1-0.1,0.2-0.1,0.4c0,0.2,0,0.4,0,0.5c0,0.2,0.1,0.4,0.2,0.6c0.1,0.2,0.2,0.4,0.4,0.5c0.1,0.1,0.2,0.1,0.4,0.1s0.3,0,0.4,0
		c0.1,0,0.2-0.1,0.2-0.1s0-0.1,0.1-0.2c0.1-0.1,0.1-0.2,0.1-0.2c0.1-0.3,0.3-0.4,0.5-0.4c0.1-0.1,0.2,0,0.3,0
		c0.1,0.1,0.1,0.1,0.1,0.2c0,0-0.1,0.1-0.1,0.2c0,0.1,0,0.2-0.1,0.3c-0.1,0.1-0.1,0.2-0.1,0.2c-0.1,0.1-0.1,0.2-0.1,0.4s0,0.3,0,0.3
		c0.1,0,0.1,0,0.3,0c0,0,0,0,0-0.1c0-0.1,0-0.1,0-0.1c0.1,0.1,0.2,0.2,0.3,0.2c0.1,0.1,0.2,0,0.3-0.1c0,0.1,0.1,0.2,0.2,0.3
		c0.1,0.2,0.2,0.3,0.2,0.4c0,0,0.1,0.1,0.1,0.2c0,0.1,0,0.2,0,0.2c0,0.1-0.1,0.1-0.2,0.1c-0.1,0-0.1,0.1-0.1,0.1s0,0,0,0.1
		s0,0.2,0,0.2c0,0.1,0.1,0.1,0.1,0.2c0,0.1,0,0.1,0,0.1c0.1,0.1,0.1,0.2,0.2,0.3l1.2-0.2c0-0.1,0.1-0.3,0.2-0.4
		c0-0.1-0.1-0.1-0.1-0.2c-0.2-0.3-0.4-0.6-0.7-0.9c-0.2-0.2-0.2-0.4-0.2-0.5c0-0.1,0-0.3,0.2-0.5c0.2-0.3,0.5-0.7,1.1-1.1
		c0.6-0.6,0.9-0.8,1.2-0.8c0.1,0,0.3,0,0.5,0.1l0.1,0.1l1.1,0.9c0.1-0.1,0.2-0.1,0.4-0.2c0.1-0.6,0.2-1,0.2-1.4l0-0.2
		c0.1-0.3,0.3-0.7,0.8-0.7h2.2c0.1,0,0.3,0,0.6,0.2c0.1,0.1,0.1,0.2,0.2,0.2l0.1,0.1l0,0.1l0.2,1.5c0.1,0,0.3,0.1,0.4,0.2l1.2-0.9
		c0.1-0.1,0.1-0.1,0.2-0.1c0.1-0.6,0.1-1.1,0.1-1.7c0-2.3-0.5-4.3-1.6-6.2S22.8,5,20.9,3.9s-4-1.6-6.2-1.6s-4.3,0.5-6.2,1.6
		S5,6.5,3.9,8.4s-1.6,4-1.6,6.2s0.5,4.3,1.6,6.2s2.6,3.4,4.5,4.5s4,1.6,6.2,1.6c0.6,0,1.1,0,1.7-0.1C16.4,26.9,16.4,26.8,16.5,26.7z
		"/>
	<path fill="#375273" d="M18.8,11C18.8,11,18.8,11.1,18.8,11C18.8,11.1,18.8,11.1,18.8,11z"/>
</g>
</svg>
