<?xml version="1.0" encoding="utf-8"?>
<!-- Generator: Adobe Illustrator 18.0.0, SVG Export Plug-In . SVG Version: 6.00 Build 0)  -->
<!DOCTYPE svg PUBLIC "-//W3C//DTD SVG 1.1//EN" "http://www.w3.org/Graphics/SVG/1.1/DTD/svg11.dtd">
<svg version="1.1" id="Layer_1" xmlns="http://www.w3.org/2000/svg" xmlns:xlink="http://www.w3.org/1999/xlink" x="0px" y="0px"
	 viewBox="0 0 32 32" enable-background="new 0 0 32 32" xml:space="preserve">
<g>
	<path fill="#375273" d="M7.9,7.4c0,0.6-0.3,1.1-0.9,1.5v17c0,0.1,0,0.2-0.1,0.3s-0.2,0.1-0.3,0.1H5.7c-0.1,0-0.2,0-0.3-0.1
		S5.3,26,5.3,25.9v-17C4.7,8.6,4.4,8.1,4.4,7.4c0-0.5,0.2-0.9,0.5-1.2s0.7-0.5,1.2-0.5S7,5.9,7.4,6.2C7.7,6.6,7.9,7,7.9,7.4z
		 M27.6,8.3v10.2c0,0.2-0.1,0.4-0.2,0.5s-0.3,0.2-0.5,0.4c-1.9,1-3.6,1.6-4.9,1.6c-0.5,0-1.1-0.1-1.7-0.3c-0.6-0.2-1-0.4-1.5-0.6
		c-0.4-0.2-0.9-0.4-1.5-0.6c-0.6-0.2-1.3-0.3-1.9-0.3c-1.7,0-3.8,0.7-6.2,2c-0.2,0.1-0.3,0.1-0.4,0.1c-0.2,0-0.4-0.1-0.6-0.3
		c-0.2-0.2-0.3-0.4-0.3-0.6v-9.9c0-0.3,0.1-0.5,0.4-0.7C8.5,9.5,8.8,9.3,9.3,9c2.1-1.1,4-1.6,5.6-1.6c1,0,1.8,0.1,2.7,0.4
		c0.8,0.3,1.8,0.7,2.9,1.2c0.3,0.2,0.7,0.3,1.2,0.3c0.5,0,1-0.1,1.6-0.3c0.6-0.2,1.1-0.4,1.5-0.6c0.4-0.2,0.8-0.4,1.2-0.6
		c0.4-0.2,0.6-0.3,0.7-0.3c0.2,0,0.4,0.1,0.6,0.3C27.5,7.9,27.6,8.1,27.6,8.3z"/>
</g>
</svg>
