<?xml version="1.0" encoding="utf-8"?>
<!-- Generator: Adobe Illustrator 18.0.0, SVG Export Plug-In . SVG Version: 6.00 Build 0)  -->
<!DOCTYPE svg PUBLIC "-//W3C//DTD SVG 1.1//EN" "http://www.w3.org/Graphics/SVG/1.1/DTD/svg11.dtd">
<svg version="1.1" id="Layer_1" xmlns="http://www.w3.org/2000/svg" xmlns:xlink="http://www.w3.org/1999/xlink" x="0px" y="0px"
	 viewBox="0 0 32 32" enable-background="new 0 0 32 32" xml:space="preserve">
<g>
	<path fill="#375273" d="M25.4,9.1c0.3,0.3,0.5,0.6,0.6,1c0.2,0.4,0.3,0.8,0.3,1.2v15.4c0,0.4-0.1,0.7-0.4,0.9
		C25.7,27.9,25.4,28,25,28H7c-0.4,0-0.7-0.1-0.9-0.4c-0.3-0.3-0.4-0.6-0.4-0.9V5.3c0-0.4,0.1-0.7,0.4-0.9S6.6,4,7,4h12
		c0.4,0,0.8,0.1,1.2,0.3c0.4,0.2,0.8,0.4,1,0.6L25.4,9.1z M24.6,26.3V12.6H19c-0.4,0-0.7-0.1-0.9-0.4s-0.4-0.6-0.4-0.9V5.7H7.4v20.6
		H24.6z M10.9,14.7c0-0.1,0-0.2,0.1-0.3c0.1-0.1,0.2-0.1,0.3-0.1h9.4c0.1,0,0.2,0,0.3,0.1c0.1,0.1,0.1,0.2,0.1,0.3v0.9
		c0,0.1,0,0.2-0.1,0.3C20.9,16,20.8,16,20.7,16h-9.4c-0.1,0-0.2,0-0.3-0.1c-0.1-0.1-0.1-0.2-0.1-0.3V14.7z M20.7,17.7
		c0.1,0,0.2,0,0.3,0.1c0.1,0.1,0.1,0.2,0.1,0.3V19c0,0.1,0,0.2-0.1,0.3c-0.1,0.1-0.2,0.1-0.3,0.1h-9.4c-0.1,0-0.2,0-0.3-0.1
		c-0.1-0.1-0.1-0.2-0.1-0.3v-0.9c0-0.1,0-0.2,0.1-0.3c0.1-0.1,0.2-0.1,0.3-0.1H20.7z M20.7,21.1c0.1,0,0.2,0,0.3,0.1
		c0.1,0.1,0.1,0.2,0.1,0.3v0.9c0,0.1,0,0.2-0.1,0.3c-0.1,0.1-0.2,0.1-0.3,0.1h-9.4c-0.1,0-0.2,0-0.3-0.1c-0.1-0.1-0.1-0.2-0.1-0.3
		v-0.9c0-0.1,0-0.2,0.1-0.3c0.1-0.1,0.2-0.1,0.3-0.1H20.7z M19.4,5.8v5h5c-0.1-0.3-0.2-0.4-0.3-0.5L20,6.1C19.9,6,19.7,5.9,19.4,5.8
		z"/>
</g>
</svg>
