<?xml version="1.0" encoding="utf-8"?>
<!-- Generator: Adobe Illustrator 18.0.0, SVG Export Plug-In . SVG Version: 6.00 Build 0)  -->
<!DOCTYPE svg PUBLIC "-//W3C//DTD SVG 1.1//EN" "http://www.w3.org/Graphics/SVG/1.1/DTD/svg11.dtd">
<svg version="1.1" id="Layer_1" xmlns="http://www.w3.org/2000/svg" xmlns:xlink="http://www.w3.org/1999/xlink" x="0px" y="0px"
	 viewBox="0 0 32 32" enable-background="new 0 0 32 32" xml:space="preserve">
<g>
	<path fill="#733737" d="M26.5,16.9c0.2,0.2,0.3,0.4,0.3,0.6c0,0.2-0.1,0.4-0.3,0.6c-0.2,0.2-0.4,0.3-0.6,0.3h-3
		c0,1.5-0.3,2.8-0.9,3.9l2.8,2.8c0.2,0.2,0.3,0.4,0.3,0.6c0,0.2-0.1,0.4-0.3,0.6c-0.2,0.2-0.4,0.3-0.6,0.3s-0.4-0.1-0.6-0.3
		l-2.7-2.6c0,0-0.1,0.1-0.2,0.2c-0.1,0.1-0.3,0.2-0.6,0.4c-0.3,0.2-0.6,0.3-0.9,0.5c-0.3,0.1-0.7,0.3-1.1,0.4
		c-0.4,0.1-0.9,0.2-1.3,0.2v-12h-1.7v12c-0.5,0-0.9-0.1-1.4-0.2s-0.8-0.3-1.2-0.4c-0.3-0.2-0.6-0.3-0.9-0.5
		c-0.3-0.2-0.5-0.3-0.6-0.4L11,23.4l-2.5,2.8c-0.2,0.2-0.4,0.3-0.6,0.3c-0.2,0-0.4-0.1-0.6-0.2C7.1,26.1,7,25.9,7,25.7
		c0-0.2,0.1-0.4,0.2-0.6l2.7-3c-0.5-1-0.8-2.2-0.8-3.7h-3c-0.2,0-0.4-0.1-0.6-0.3c-0.2-0.2-0.3-0.4-0.3-0.6c0-0.2,0.1-0.4,0.3-0.6
		c0.2-0.2,0.4-0.3,0.6-0.3h3v-3.9l-2.3-2.3C6.7,10.2,6.6,10,6.6,9.8c0-0.2,0.1-0.4,0.3-0.6C7,9,7.2,8.9,7.4,8.9C7.7,8.9,7.9,9,8,9.2
		l2.3,2.3h11.3L24,9.2c0.2-0.2,0.4-0.3,0.6-0.3c0.2,0,0.4,0.1,0.6,0.3c0.2,0.2,0.3,0.4,0.3,0.6c0,0.2-0.1,0.4-0.3,0.6l-2.3,2.3v3.9
		h3C26.1,16.6,26.3,16.7,26.5,16.9z M20.3,9.8h-8.6c0-1.2,0.4-2.2,1.3-3s1.8-1.3,3-1.3c1.2,0,2.2,0.4,3,1.3S20.3,8.6,20.3,9.8z"/>
</g>
</svg>
