<?xml version="1.0" encoding="utf-8"?>
<!-- Generator: Adobe Illustrator 18.0.0, SVG Export Plug-In . SVG Version: 6.00 Build 0)  -->
<!DOCTYPE svg PUBLIC "-//W3C//DTD SVG 1.1//EN" "http://www.w3.org/Graphics/SVG/1.1/DTD/svg11.dtd">
<svg version="1.1" id="Layer_1" xmlns="http://www.w3.org/2000/svg" xmlns:xlink="http://www.w3.org/1999/xlink" x="0px" y="0px"
	 viewBox="0 0 32 32" enable-background="new 0 0 32 32" xml:space="preserve">
<g>
	<g>
		<path fill="#427337" stroke="#FFFFFF" stroke-width="0.5" stroke-miterlimit="10" d="M29.7,18.1c0.2,0.2,0.4,0.5,0.4,0.9v2.6
			c0,0.3-0.1,0.6-0.4,0.9c-0.2,0.2-0.5,0.4-0.9,0.4l-5.6,0v5.5c0,0.3-0.1,0.6-0.4,0.9c-0.2,0.2-0.5,0.4-0.9,0.4h-2.6
			c-0.3,0-0.6-0.1-0.9-0.4s-0.4-0.5-0.4-0.9v-5.5l-5.4,0c-0.4,0-0.7-0.1-0.9-0.4c-0.2-0.2-0.4-0.5-0.4-0.9l0.1-2.6
			c0-0.3,0.1-0.6,0.4-0.9c0.2-0.2,0.5-0.4,0.9-0.4l5.5,0v-5.5c0-0.3,0.1-0.6,0.4-0.9c0.2-0.2,0.5-0.4,0.9-0.4l2.6,0
			c0.3,0,0.6,0.1,0.9,0.4c0.2,0.2,0.4,0.5,0.4,0.9v5.5h5.5C29.2,17.8,29.4,17.9,29.7,18.1z"/>
	</g>
	<g>
		<path fill="#375273" d="M18.4,7.8c0.8,0,1.4-0.3,1.9-0.8c0.5-0.5,0.8-1.2,0.8-1.9c0-0.8-0.3-1.4-0.8-1.9c-0.5-0.5-1.2-0.8-1.9-0.8
			c-0.8,0-1.4,0.3-1.9,0.8c-0.5,0.5-0.8,1.2-0.8,1.9c0,0.8,0.3,1.4,0.8,1.9C17,7.5,17.6,7.8,18.4,7.8z"/>
		<path fill="#375273" d="M9.3,12.1c0.8,0.8,1.8,1.2,2.9,1.2c1.1,0,2.1-0.4,2.9-1.2c0.8-0.8,1.2-1.8,1.2-2.9c0-1.1-0.4-2.1-1.2-2.9
			S13.3,5,12.2,5c-1.1,0-2.1,0.4-2.9,1.2C8.5,7,8.1,8,8.1,9.2C8.1,10.3,8.5,11.3,9.3,12.1z"/>
		<path fill="#375273" d="M19.7,8.5c-0.4,0.2-0.9,0.2-1.3,0.2c-0.5,0-1-0.1-1.4-0.2C17,8.7,17,9,17,9.2c0,1-0.3,1.9-0.9,2.8
			c0.6,0,1.2,0.2,1.7,0.4v-0.1c0-0.4,0.2-0.8,0.5-1.1c0.3-0.3,0.6-0.4,1.1-0.5l2.6,0c0.2,0,0.4,0,0.5,0.1c-0.1-2-0.5-3-1.3-3
			c0,0-0.2,0.1-0.5,0.2C20.5,8.2,20.1,8.3,19.7,8.5z"/>
		<path fill="#375273" d="M8.3,11.9c-0.6-0.8-0.9-1.8-0.9-2.8c0-0.2,0-0.4,0.1-0.7C7,8.6,6.5,8.7,6,8.7c-0.4,0-0.8-0.1-1.3-0.2
			C4.3,8.3,4,8.2,3.7,8C3.4,7.9,3.3,7.8,3.2,7.8c-0.9,0-1.3,1.3-1.3,3.8c0,0.6,0.2,1,0.6,1.3c0.4,0.3,0.9,0.4,1.5,0.4h1.4
			C6.2,12.4,7.1,11.9,8.3,11.9z"/>
		<path fill="#375273" d="M11,19c0-0.4,0.2-0.7,0.5-1.1c0.3-0.3,0.6-0.4,1.1-0.5l5.3,0v-4.4c-0.2-0.1-0.4-0.2-0.6-0.3
			c-0.4-0.1-0.8-0.2-1.2-0.2c-0.1,0-0.2,0.1-0.5,0.2c-0.2,0.2-0.5,0.3-0.8,0.5c-0.3,0.2-0.7,0.4-1.1,0.5c-0.5,0.2-1,0.2-1.5,0.2
			c-0.5,0-1-0.1-1.4-0.2c-0.5-0.2-0.9-0.3-1.1-0.5c-0.3-0.2-0.5-0.4-0.8-0.5c-0.2-0.2-0.4-0.2-0.5-0.2c-0.4,0-0.8,0.1-1.2,0.2
			c-0.4,0.1-0.7,0.3-0.9,0.6c-0.3,0.2-0.5,0.5-0.7,0.9c-0.2,0.3-0.3,0.7-0.5,1C5,15.7,4.9,16,4.8,16.5c-0.1,0.4-0.1,0.8-0.2,1.2
			c0,0.4,0,0.7,0,1.1c0,0.9,0.3,1.5,0.8,2c0.5,0.5,1.2,0.7,2.1,0.7H11L11,19z"/>
		<path fill="#375273" d="M6,7.8C6.8,7.8,7.4,7.5,8,7C8.5,6.4,8.8,5.8,8.8,5c0-0.8-0.3-1.4-0.8-1.9C7.4,2.6,6.8,2.3,6,2.3
			c-0.8,0-1.4,0.3-1.9,0.8C3.5,3.6,3.3,4.3,3.3,5c0,0.8,0.3,1.4,0.8,1.9C4.6,7.5,5.3,7.8,6,7.8z"/>
	</g>
</g>
</svg>
