<?xml version="1.0" encoding="utf-8"?>
<!-- Generator: Adobe Illustrator 18.0.0, SVG Export Plug-In . SVG Version: 6.00 Build 0)  -->
<!DOCTYPE svg PUBLIC "-//W3C//DTD SVG 1.1//EN" "http://www.w3.org/Graphics/SVG/1.1/DTD/svg11.dtd">
<svg version="1.1" id="Layer_1" xmlns="http://www.w3.org/2000/svg" xmlns:xlink="http://www.w3.org/1999/xlink" x="0px" y="0px"
	 viewBox="0 0 32 32" enable-background="new 0 0 32 32" xml:space="preserve">
<g>
	<path fill="#375273" d="M27.5,7.1c0.5,0,0.9,0.2,1.3,0.5C29.2,8,29.3,8.4,29.3,9v2.6H2.7V9c0-0.5,0.2-0.9,0.5-1.3
		C3.6,7.3,4,7.1,4.5,7.1H27.5z M2.7,23v-7h26.7v7c0,0.5-0.2,0.9-0.5,1.3c-0.4,0.4-0.8,0.5-1.3,0.5h-23c-0.5,0-0.9-0.2-1.3-0.5
		C2.8,24,2.7,23.6,2.7,23z M5.6,20.4v1.5h3v-1.5H5.6z M10.1,20.4v1.5h4.4v-1.5H10.1z"/>
</g>
</svg>
