<?xml version="1.0" encoding="utf-8"?>
<!-- Generator: Adobe Illustrator 18.0.0, SVG Export Plug-In . SVG Version: 6.00 Build 0)  -->
<!DOCTYPE svg PUBLIC "-//W3C//DTD SVG 1.1//EN" "http://www.w3.org/Graphics/SVG/1.1/DTD/svg11.dtd">
<svg version="1.1" id="Layer_1" xmlns="http://www.w3.org/2000/svg" xmlns:xlink="http://www.w3.org/1999/xlink" x="0px" y="0px"
	 viewBox="0 0 32 32" enable-background="new 0 0 32 32" xml:space="preserve">
<g>
	<circle fill="#375273" cx="26.9" cy="6.8" r="0.8"/>
	<circle fill="#375273" cx="24.9" cy="6.8" r="0.8"/>
	<circle fill="#375273" cx="22.9" cy="6.8" r="0.8"/>
	<path fill="#375273" d="M27.3,4.3H4.7c-1.4,0-2.5,1.1-2.5,2.5v17.8c0,1.4,1.1,2.5,2.5,2.5h4.6c-0.3-0.3-0.6-0.6-0.9-1H4.7
		c-0.8,0-1.5-0.7-1.5-1.5V9.2h25.7v15.4c0,0.8-0.7,1.5-1.5,1.5h-3.7c-0.3,0.4-0.6,0.7-0.9,1h4.6c1.4,0,2.5-1.1,2.5-2.5V6.8
		C29.8,5.4,28.7,4.3,27.3,4.3z M28.8,8.2H3.2V6.8c0-0.8,0.7-1.5,1.5-1.5h22.7c0.8,0,1.5,0.7,1.5,1.5V8.2z"/>
</g>
<g>
	<path fill="#375273" d="M11.4,12.1c1.4-0.8,2.9-1.2,4.6-1.2s3.2,0.4,4.6,1.2c1.4,0.8,2.5,1.9,3.3,3.3c0.8,1.4,1.2,2.9,1.2,4.6
		s-0.4,3.2-1.2,4.6c-0.8,1.4-1.9,2.5-3.3,3.3c-1.4,0.8-2.9,1.2-4.6,1.2s-3.2-0.4-4.6-1.2C10,27.3,8.8,26.1,8,24.7s-1.2-2.9-1.2-4.6
		s0.4-3.2,1.2-4.6S10,12.9,11.4,12.1z M19.3,17.2c0,0-0.1,0.1-0.1,0.1c-0.1,0.1-0.1,0.1-0.1,0.1s0.1,0,0.1-0.1
		c0-0.1,0.1-0.1,0.1-0.1C19.1,17.2,19.2,17.2,19.3,17.2c0-0.1,0.1-0.1,0.2-0.2c0.1-0.1,0.3-0.1,0.6-0.1c0.3-0.1,0.5,0,0.6,0.1
		c0,0,0-0.1,0.1-0.1c0.1-0.1,0.1-0.1,0.2-0.1c0,0,0.1-0.1,0.2-0.1c0.1,0,0.1-0.1,0.2-0.1v-0.3c-0.1,0-0.1,0-0.2-0.1
		c-0.1-0.1-0.1-0.1-0.1-0.3c0,0,0,0.1-0.1,0.1c0-0.1,0-0.1-0.1-0.1c-0.1,0-0.1,0-0.1,0c-0.1,0-0.1,0-0.1,0c-0.1,0-0.1-0.1-0.2-0.1
		c-0.1-0.1-0.1-0.1-0.1-0.2s-0.1-0.1-0.1-0.2s-0.1-0.1-0.1-0.1c-0.1-0.1-0.1-0.1-0.1-0.1v-0.1c0,0,0-0.1-0.1-0.1c0,0,0-0.1-0.1-0.1
		H20c0,0-0.1,0-0.1,0.1c0,0.1-0.1,0.1-0.1,0.1s-0.1,0.1-0.1,0.1h-0.1h-0.1c0,0,0,0-0.1,0.1l-0.1,0.1c0,0-0.1,0-0.1,0.1
		c-0.1,0-0.1,0-0.1,0c0.1-0.1,0.1-0.1,0-0.1c-0.1,0-0.1-0.1-0.2-0.1c0.1,0,0.1-0.1,0.1-0.1c0-0.1-0.1-0.1-0.1-0.2H19
		c0,0-0.1-0.1-0.1-0.1c-0.1-0.1-0.1-0.1-0.2-0.1c-0.1,0-0.1-0.1-0.1-0.1c-0.1-0.1-0.2-0.1-0.4-0.1c-0.2-0.1-0.3-0.1-0.4,0
		c-0.1,0.1-0.1,0.1-0.1,0.1s0,0.1,0.1,0.2c0,0.1,0.1,0.1,0.1,0.1c0,0.1,0,0.1-0.1,0.1c-0.1,0.1-0.1,0.1-0.1,0.1
		c0,0.1,0.1,0.1,0.2,0.2c0.1,0,0.2,0.1,0.1,0.2c0,0.1-0.1,0.1-0.2,0.2c-0.1,0.1-0.2,0.1-0.2,0.1c-0.1,0.1-0.1,0.1,0,0.2
		c0,0.1,0.1,0.1,0.1,0.2c0,0,0,0,0,0.1c0,0,0,0.1-0.1,0.1l-0.1,0.1c0,0-0.1,0-0.1,0.1h-0.1c-0.1,0.1-0.2,0-0.3-0.1
		c-0.1-0.1-0.1-0.2-0.1-0.3c-0.1-0.2-0.1-0.3-0.2-0.3c-0.2-0.1-0.3-0.1-0.3,0c-0.1-0.1-0.2-0.2-0.5-0.3c-0.2-0.1-0.4-0.1-0.7-0.1
		c0.1,0,0.1-0.1,0-0.2c-0.1-0.1-0.1-0.2-0.2-0.1c0-0.1,0.1-0.1,0.1-0.2s0-0.1,0-0.1c0-0.1,0.1-0.2,0.1-0.3c0,0,0.1-0.1,0.1-0.1
		c0.1-0.1,0.1-0.1,0.1-0.1c0-0.1,0-0.1,0-0.1c0.3,0,0.5,0,0.6-0.1c0.1-0.1,0.1-0.1,0.1-0.2c0.1-0.1,0.1-0.1,0.1-0.2
		c0.1-0.1,0.1-0.1,0.2-0.1c0.1,0,0.1,0,0.2,0.1c0.1,0.1,0.1,0.1,0.2,0.1c0.1,0,0.2-0.1,0.2-0.1c0-0.1,0-0.2-0.1-0.3
		c0.1,0,0.1-0.1,0.1-0.2c-0.1-0.1-0.1-0.1-0.1-0.1c-0.1,0-0.2,0-0.3,0.1c-0.1,0-0.1,0.1,0,0.1c0,0-0.1,0.1-0.1,0.1
		c-0.1,0.1-0.1,0.1-0.2,0.2c-0.1,0.1-0.1,0-0.2-0.1c0,0,0-0.1-0.1-0.1c-0.1-0.1-0.1-0.1-0.1-0.1c-0.1,0-0.1,0.1-0.2,0.2
		c0-0.1,0-0.1-0.1-0.2c-0.1-0.1-0.2-0.1-0.3-0.1c0-0.1,0-0.3-0.2-0.3c-0.1,0-0.1-0.1-0.3-0.1s-0.2,0-0.2,0.1
		c-0.1,0.1-0.1,0.1-0.1,0.1c0,0.1,0,0.1,0.1,0.1S14.9,13,15,13c0.1,0,0.1,0,0.1,0.1c0.1,0,0.1,0,0.1,0.1c0.1,0,0.1,0.1,0,0.1
		c0,0-0.1,0-0.1,0.1c-0.1,0-0.1,0.1-0.1,0.1c-0.1,0-0.1,0-0.1,0.1c0,0,0,0.1,0,0.2c0,0.1,0,0.1,0,0.2c-0.1-0.1-0.1-0.1-0.1-0.2
		c0-0.1-0.1-0.1-0.1-0.2c0.1-0.1,0-0.1-0.3-0.1h-0.1c0,0-0.1,0-0.2,0c-0.1,0-0.2,0-0.3,0c-0.1,0-0.1-0.1-0.1-0.1c0-0.1,0-0.1,0-0.3
		c0,0,0-0.1,0.1,0c0,0-0.1-0.1-0.1-0.1c-0.1-0.1-0.1-0.1-0.1-0.1c-0.3,0.1-0.7,0.3-1.1,0.5c0.1,0,0.1,0,0.1,0c0.1,0,0.1-0.1,0.1-0.1
		c0.1-0.1,0.1-0.1,0.1-0.1c0.3-0.1,0.5-0.1,0.5-0.1l0.1-0.1c0.1,0.1,0.2,0.2,0.3,0.3c-0.1,0-0.2-0.1-0.3,0c-0.1,0.1-0.3,0.1-0.3,0.1
		c0.1,0.1,0.1,0.2,0.1,0.2s-0.1-0.1-0.1-0.1c-0.1-0.1-0.1-0.1-0.2-0.1c-0.1,0.1-0.1,0.1-0.2,0c-0.1,0-0.2,0-0.3,0
		c-1.1,0.7-2.1,1.5-2.8,2.7c0.1,0.1,0.1,0.1,0.1,0.1s0.1,0.1,0.1,0.1c0,0.1,0,0.1,0,0.1s0.1,0,0.1-0.1c0.1,0.1,0.1,0.2,0.1,0.3
		c0,0,0.2,0.1,0.5,0.3c0.1,0.1,0.3,0.2,0.3,0.3c0,0.1,0,0.1-0.1,0.2c0,0-0.1-0.1-0.1-0.1c-0.1-0.1-0.1-0.1-0.1-0.1
		c0,0.1,0,0.1,0,0.2c0,0.1,0.1,0.1,0.1,0.1c-0.1,0-0.1,0.1-0.1,0.2c0,0.1,0,0.3,0,0.4s0,0.3,0,0.3l0,0c0,0.1,0,0.2,0.1,0.4
		c0.1,0.2,0.1,0.3,0.3,0.2c-0.1,0,0,0.2,0.3,0.5c0.1,0.1,0.1,0.1,0.1,0.1c0,0,0.1,0.1,0.1,0.1c0.1,0.2,0.2,0.2,0.2,0.3
		c0.1,0.1,0.1,0.1,0.1,0.1c0,0.1,0.1,0.1,0.1,0.3c0.1,0.1,0.1,0.2,0.2,0.3c0,0.1,0,0.1,0.1,0.3C12,21,12,21.1,12,21.2l0,0l0,0
		c0,0.1,0.1,0.1,0.2,0.2c0.1,0.1,0.1,0.1,0.2,0.1c0,0,0,0.1,0,0.1c0,0.1,0,0.1,0.1,0.1c0,0,0.1,0.1,0.1,0c0-0.1-0.1-0.4-0.3-0.7
		c-0.1-0.2-0.2-0.3-0.2-0.3c0-0.1-0.1-0.1-0.1-0.2S12,20.4,12,20.3H12c0,0,0.1,0,0.1,0.1c0.1,0,0.1,0,0.1,0.1c0,0,0,0,0,0.1
		c0,0.1,0,0.1,0,0.2c0.1,0.1,0.1,0.1,0.1,0.2c0.1,0.1,0.1,0.1,0.2,0.2s0.1,0.1,0.1,0.1c0.1,0.1,0.1,0.1,0.2,0.2
		c0.1,0.1,0.1,0.1,0,0.1c0.1,0,0.1,0.1,0.3,0.1c0.1,0.1,0.1,0.1,0.2,0.3c-0.1,0.1-0.1,0.2-0.1,0.4c0,0.1,0.1,0.3,0.1,0.3
		c0,0.1,0.1,0.1,0.1,0.1c0.1,0,0.1,0.1,0.1,0.1c0.1,0,0.1,0.1,0.2,0.1c0.1,0.1,0.1,0.1,0.1,0.1c0.1,0,0.1,0.1,0.2,0.1
		c0.1,0.1,0.2,0.1,0.3,0.1s0.1,0.1,0.2,0.1s0.1,0,0.2,0s0.1-0.1,0.1-0.1c0.1,0,0.3,0.1,0.3,0.2c0.1,0.1,0.2,0.2,0.3,0.3
		c0.3,0.1,0.5,0.2,0.7,0.1V24c0,0.1,0.1,0.1,0.1,0.2c0.1,0.1,0.1,0.1,0.1,0.2c0,0.1,0.1,0.1,0.1,0.1c0.1,0.1,0.1,0.1,0.2,0.2
		c0.1,0.1,0.2,0.1,0.2,0.2c0.1,0,0.1-0.1,0.1-0.1c0,0.1,0,0.1,0.1,0.3c0.1,0.1,0.1,0.1,0.2,0.1c0.1,0,0.2-0.1,0.2-0.4
		c-0.3,0.1-0.5,0.1-0.6-0.2c0,0,0,0,0-0.1c0-0.1-0.1-0.1-0.1-0.1c0,0,0-0.1,0-0.1c0-0.1,0-0.1,0-0.1s0-0.1,0.1-0.1
		c0.1,0,0.1,0,0.1-0.1c0,0,0-0.1,0-0.1c0-0.1-0.1-0.1-0.1-0.1c0-0.1-0.1-0.1-0.1-0.3c-0.1-0.1-0.1-0.1-0.1-0.2
		c-0.1,0.1-0.1,0.1-0.2,0.1c-0.1,0-0.1-0.1-0.2-0.1c0,0,0,0,0,0.1c0,0.1,0,0.1,0,0.1c-0.1,0-0.1,0-0.2,0c0,0,0-0.1,0-0.2
		c0-0.1,0-0.2,0.1-0.3c0,0,0-0.1,0.1-0.1c0.1-0.1,0.1-0.1,0.1-0.2c0-0.1,0.1-0.1,0.1-0.1c0-0.1,0-0.1-0.1-0.1c-0.1,0-0.1-0.1-0.2,0
		c-0.1,0-0.3,0.1-0.3,0.3c0,0,0,0.1-0.1,0.1c-0.1,0.1-0.1,0.1-0.1,0.1s-0.1,0.1-0.1,0.1c-0.1,0-0.1,0-0.3,0s-0.2,0-0.3-0.1
		c-0.1-0.1-0.2-0.2-0.3-0.3c-0.1-0.2-0.1-0.3-0.1-0.5c0-0.1,0-0.2,0-0.3s0-0.2,0.1-0.3c0-0.1,0-0.1-0.1-0.3c0,0,0.1-0.1,0.1-0.1
		c0.1-0.1,0.1-0.1,0.1-0.1h0.1h0.1c0,0,0,0,0.1,0c0,0,0-0.1,0.1-0.1c0,0,0,0-0.1-0.1l-0.1-0.1c0.1,0,0.2,0,0.3,0
		c0.2-0.1,0.3,0,0.3,0c0.1,0.1,0.2,0.1,0.3,0c0,0,0-0.1,0-0.1c0-0.1,0-0.1,0-0.1c0.1,0.2,0.1,0.3,0.3,0.1c0,0,0.1,0.1,0.2,0.1
		c0.1,0,0.2,0.1,0.2,0.1l0.1,0.1l0.1,0.1c0,0,0,0,0.1,0c0,0,0.1-0.1,0.1-0.1c0.1,0.1,0.1,0.2,0.1,0.3c0.1,0.3,0.1,0.5,0.2,0.5
		c0.1,0,0.1,0,0.1,0c0,0,0.1-0.1,0.1-0.1c0-0.1,0-0.1,0-0.2c0-0.1,0-0.1,0-0.1V21c0-0.1,0-0.1,0-0.2v-0.1c-0.1,0-0.2-0.1-0.2-0.1
		c0-0.1,0-0.1,0-0.2c0.1-0.1,0.1-0.1,0.2-0.2c0,0,0.1,0,0.1-0.1c0.1,0,0.1-0.1,0.2-0.1c0.1,0,0.1-0.1,0.1-0.1
		c0.2-0.1,0.2-0.3,0.2-0.4c0.1,0,0.1-0.1,0.1-0.1c0,0,0,0-0.1-0.1l-0.1-0.1H18c0.1-0.1,0.1-0.1,0-0.2c0.1,0,0.1-0.1,0.1-0.1
		s0.1-0.1,0.1-0.1c0.1,0.1,0.1,0.1,0.3,0c0.1-0.1,0.1-0.1,0-0.2c0.1-0.1,0.1-0.1,0.3-0.1c0.1,0,0.2-0.1,0.2-0.1c0.1,0,0.1,0,0.1,0
		s0-0.1,0-0.1c0-0.1,0-0.1,0.1-0.1c0-0.1,0.1-0.1,0.2-0.1c0.1,0,0.1-0.1,0.1-0.1l0.2-0.1v-0.1c0.1,0,0.3,0,0.4-0.1
		c0.1-0.1,0.1-0.2-0.1-0.3c0-0.1,0-0.1-0.1-0.1c-0.1,0-0.1-0.1-0.2-0.1c0,0,0.1,0,0.1,0c0.1,0,0.1,0,0.1,0C20,17.1,20,17,19.8,17
		C19.7,17,19.5,17,19.3,17.2z M17.3,27.7c1.7-0.3,3-1.1,4.2-2.3c0,0-0.1-0.1-0.1-0.1c-0.1,0-0.1,0-0.1-0.1c-0.1-0.1-0.3-0.1-0.3-0.1
		c0-0.1,0-0.1,0-0.1C21,25,21,25,21,24.9c-0.1,0-0.1-0.1-0.1-0.1c-0.1-0.1-0.1-0.1-0.1-0.1l-0.1-0.1c-0.1,0-0.1-0.1-0.1-0.1
		s-0.1,0-0.1-0.1c-0.1,0-0.1,0-0.1,0c0,0-0.1,0-0.1,0h-0.1h-0.1c0,0-0.1,0-0.1,0.1c0,0.1-0.1,0-0.1,0.1l0,0
		c-0.2-0.1-0.3-0.2-0.4-0.3c-0.1,0-0.1,0-0.1-0.1c-0.1-0.1-0.1-0.1-0.1-0.1s-0.1,0-0.1,0c-0.1,0-0.1,0.1-0.1,0.1
		c-0.1,0.1-0.1,0.1-0.1,0.2c0,0.1,0,0.1,0,0.1c-0.1-0.1-0.1-0.1,0-0.2c0.1-0.1,0.1-0.2,0-0.2c0-0.1-0.1-0.1-0.1-0.1
		c-0.1,0-0.1,0-0.1,0.1c-0.1,0-0.1,0.1-0.1,0.1c-0.1,0.1-0.1,0.1-0.1,0.1c0,0-0.1,0-0.1,0.1c-0.1,0.1-0.1,0.1-0.1,0.1
		c0,0-0.1,0.1-0.1,0.1c0,0.1-0.1,0.1-0.1,0.1s-0.1-0.1-0.1-0.1c-0.1,0-0.1-0.1-0.1-0.1c0,0.1,0,0.2,0.1,0.4c0,0.2,0.1,0.3,0.1,0.5
		c0.1,0.3,0,0.5-0.1,0.6c-0.2,0.2-0.3,0.3-0.3,0.5c0,0.2,0,0.3,0.1,0.3c0,0.1,0,0.1-0.1,0.3C17.4,27.5,17.4,27.5,17.3,27.7
		C17.3,27.5,17.3,27.6,17.3,27.7z"/>
</g>
</svg>
