<svg xmlns="http://www.w3.org/2000/svg" viewBox="0 0 32 32">
  <path fill="#375273" d="M23.7 9.2v2.2c0 .1 0 .1-.1.2s-.1.1-.2.1l-1.9.3c-.1.4-.3.6-.4.9.2.4.6.8 1.1 1.4.1.1.1.1.1.2s0 .1-.1.2c-.2.2-.5.6-1 1.1-.5.5-.8.7-.9.7-.1 0-.1 0-.3-.1l-1.4-1.1c-.3.1-.6.3-.9.4-.1.9-.2 1.5-.3 1.9-.1.2-.1.3-.4.3h-2.2c-.1 0-.1 0-.2-.1s-.1-.1-.1-.2l-.3-1.9c-.4-.1-.6-.2-.9-.4l-1.4 1.1c-.1.1-.1.1-.2.1s-.1-.1-.2-.1c-.9-.8-1.4-1.3-1.7-1.7-.1-.1-.1-.1-.1-.2s0-.1.1-.2.3-.4.5-.6.4-.6.6-.7c-.2-.4-.3-.6-.4-1l-1.8-.3c-.1 0-.1-.1-.2-.1-.1-.1-.1-.1-.1-.2V9.1c0-.1 0-.1.1-.2s.1-.1.2-.1l1.9-.3c.1-.3.2-.6.4-.9-.3-.4-.6-.9-1.1-1.4-.3-.1-.3-.2-.3-.3s0-.1.1-.2c.1-.3.5-.6 1-1.1.5-.5.8-.7.9-.7.1 0 .1 0 .3.1l1.4 1.1c.3-.1.6-.3.9-.4.1-.9.2-1.5.3-1.9.1-.2.1-.3.4-.3h2.2c.1 0 .1 0 .2.1s.1.1.1.2l.3 1.9c.4.1.6.2.9.4L20.2 4c.1-.1.1-.1.2-.1s.1 0 .2.1c.9.8 1.4 1.4 1.7 1.7.1.1.1.1.1.2s0 .1-.1.2-.3.4-.5.6c-.2.3-.4.6-.6.7.1.4.3.6.4 1l1.9.3c.1 0 .1.1.2.1v.4zm-5.9 2.9c.5-.5.7-1.1.7-1.8s-.2-1.3-.7-1.8c-.5-.5-1.1-.8-1.8-.8s-1.3.3-1.8.8-.7 1.1-.7 1.8.2 1.3.7 1.8 1.1.7 1.8.7 1.3-.2 1.8-.7z"/>
  <path fill="#375273" d="M28.2 6.5c-.4-.4-.9-.6-1.5-.6h-3.9V6c0 .1 0 .3-.2.5-.1.1-.2.2-.3.4-.1.1-.2.2-.2.3-.1.2-.2.3-.3.5h4.9c.1 0 .2 0 .3.1.1.1.1.2.1.3v11.1c0 .1 0 .2-.1.3s-.2.1-.3.1H5.3c-.1 0-.2 0-.3-.1s-.1-.2-.1-.3V8c0-.1 0-.2.1-.3.1-.1.2-.1.3-.1h4.9l-.1-.1c-.2-.4-.5-.7-.7-1-.3-.2-.3-.5-.3-.6v-.1H5.3c-.6 0-1.1.2-1.5.6-.4.5-.7 1-.7 1.6v14.6c0 .6.2 1.1.6 1.5.4.4.9.6 1.5.6h7.3c0 .3-.1.7-.2 1-.1.4-.3.7-.4.9-.1.3-.2.5-.2.6 0 .2.1.4.3.6.2.2.4.3.6.3h6.9c.2 0 .4-.1.6-.3.2-.2.3-.4.3-.6 0-.1-.1-.3-.2-.6s-.3-.6-.4-1c-.1-.4-.2-.7-.2-1h7.3c.6 0 1.1-.2 1.5-.6.4-.4.6-.9.6-1.5V8c-.1-.6-.4-1.1-.8-1.5z"/>
</svg>
