<svg xmlns="http://www.w3.org/2000/svg" viewBox="0 0 37 17.8">
  <path d="M36.7 14.9C35 7.1 28.3 1.1 20.1.3H20c-.5 0-1-.1-1.5-.1s-1 0-1.5.1h-.1C8.6 1.1 2 7.1.2 14.9c-.1.3 0 .4.1.6s.5.3.5.3h35.3s.4-.1.5-.3c.1-.2.2-.3.1-.6z" fill="#375273"/>
  <path d="M17.1 17c-.1 0-.3 0-.3-.1L3.4 4c-.2-.2-.2-.5-.1-.7.1-.1.2-.2.4-.2.1 0 .2 0 .2.1l16.2 9.1c.1.1.2.2.2.3 0 .1 0 .3-.1.4l-2.8 3.8c0 .1-.1.2-.3.2z" fill="#fff"/>
  <path d="M3.7 3.6l16.2 9.1-2.8 3.8L3.7 3.6m0-1c-.3 0-.6.2-.8.4-.3.4-.2 1 .1 1.3l13.4 12.8c.2.2.4.3.7.3h.1c.3 0 .5-.2.7-.4l2.8-3.8c.2-.2.2-.5.2-.8-.1-.3-.2-.5-.5-.7L4.2 2.8c-.1-.1-.3-.2-.5-.2z" fill="#375273"/>
</svg>
