<svg xmlns="http://www.w3.org/2000/svg" viewBox="0 0 32 32">
  <path fill="#375273" d="M28 8.7v14.6c0 .6-.2 1.1-.6 1.5-.4.4-.9.6-1.5.6H6.1c-.6 0-1.1-.2-1.5-.6-.4-.4-.6-.9-.6-1.5V8.7c0-.6.2-1.1.6-1.5.4-.4 1-.6 1.5-.6h19.7c.6 0 1.1.2 1.5.6.5.4.7.9.7 1.5zm-1.7 14.6V12.1c0-.1 0-.2-.1-.3-.1-.1-.2-.1-.3-.1H6.1c-.1 0-.2 0-.3.1s-.1.2-.1.3v11.1c0 .1 0 .2.1.3s.2.1.3.1h19.7c.1 0 .2 0 .3-.1.1 0 .2-.1.2-.2zM9.1 13.9v.9c0 .1 0 .2-.1.3-.1.1-.2.1-.3.1h-.8c-.1 0-.2 0-.3-.1-.1-.1-.1-.2-.1-.3v-.9c0-.1 0-.2.1-.3s.2-.1.3-.1h.9c.1 0 .2 0 .3.1s0 .1 0 .3zm0 3.4v.9c0 .1 0 .2-.1.3s-.2.1-.3.1h-.8c-.1 0-.2 0-.3-.1s-.1-.2-.1-.3v-.9c0-.1 0-.2.1-.3.1-.1.2-.1.3-.1h.9c.1 0 .2 0 .3.1v.3zm0 3.4v.9c0 .1 0 .2-.1.3s-.2.1-.3.1h-.8c-.1 0-.2 0-.3-.1s-.1-.2-.1-.3v-.9c0-.1 0-.2.1-.3s.2-.1.3-.1h.9c.1 0 .2 0 .3.1s0 .2 0 .3zm15.5-6.8v.9c0 .1 0 .2-.1.3-.1.1-.2.1-.3.1H11.3c-.1 0-.2 0-.3-.1-.1-.1-.1-.2-.1-.3v-.9c0-.1 0-.2.1-.3s.2-.1.3-.1h12.9c.1 0 .2 0 .3.1 0 0 .1.1.1.3zm0 3.4v.9c0 .1 0 .2-.1.3-.1.1-.2.1-.3.1H11.3c-.1 0-.2 0-.3-.1s-.1-.2-.1-.3v-.9c0-.1 0-.2.1-.3.1-.1.2-.1.3-.1h12.9c.1 0 .2 0 .3.1 0 .1.1.2.1.3zm0 3.4v.9c0 .1 0 .2-.1.3-.1.1-.2.1-.4.1H11.3c-.1 0-.2 0-.3-.1s-.1-.2-.1-.3v-.9c0-.1 0-.2.1-.3s.2-.1.3-.1h12.9c.1 0 .2 0 .3.1 0 .1.1.2.1.3z"/>
</svg>
