<?xml version="1.0" encoding="UTF-8" standalone="no"?>
<svg
   xmlns:dc="http://purl.org/dc/elements/1.1/"
   xmlns:cc="http://creativecommons.org/ns#"
   xmlns:rdf="http://www.w3.org/1999/02/22-rdf-syntax-ns#"
   xmlns:svg="http://www.w3.org/2000/svg"
   xmlns="http://www.w3.org/2000/svg"
   xmlns:sodipodi="http://sodipodi.sourceforge.net/DTD/sodipodi-0.dtd"
   xmlns:inkscape="http://www.inkscape.org/namespaces/inkscape"
   viewBox="0 0 32 32"
   version="1.1"
   id="svg4"
   sodipodi:docname="application-x-mswinurl.svg"
   inkscape:version="0.92.4 5da689c313, 2019-01-14">
  <metadata
     id="metadata10">
    <rdf:RDF>
      <cc:Work
         rdf:about="">
        <dc:format>image/svg+xml</dc:format>
        <dc:type
           rdf:resource="http://purl.org/dc/dcmitype/StillImage" />
      </cc:Work>
    </rdf:RDF>
  </metadata>
  <defs
     id="defs8" />
  <sodipodi:namedview
     pagecolor="#ffffff"
     bordercolor="#666666"
     borderopacity="1"
     objecttolerance="10"
     gridtolerance="10"
     guidetolerance="10"
     inkscape:pageopacity="0"
     inkscape:pageshadow="2"
     inkscape:window-width="1366"
     inkscape:window-height="703"
     id="namedview6"
     showgrid="false"
     inkscape:zoom="7.375"
     inkscape:cx="2.9830508"
     inkscape:cy="16"
     inkscape:window-x="0"
     inkscape:window-y="0"
     inkscape:window-maximized="1"
     inkscape:current-layer="svg4" />
  <path
     inkscape:connector-curvature="0"
     style="fill:#1d99f3;stroke-width:1.51055205;fill-opacity:1"
     d="m 16.133872,2.9322219 c -0.143062,0 -0.284091,0.00336 -0.426096,0.00671 -1.394949,0.041402 -2.738733,0.2845159 -3.999808,0.701068 -0.213746,0.070615 -0.426784,0.1476995 -0.635708,0.2280985 -0.06467,0.024874 -0.128295,0.051442 -0.192431,0.077151 C 10.736416,4.0028444 10.594588,4.06093 10.453732,4.1230318 10.24987,4.2131778 10.050744,4.3088895 9.8523872,4.4081528 9.6539791,4.5073168 9.4574486,4.6085955 9.2647861,4.7167568 8.4896616,5.1519061 7.7606808,5.6609683 7.0896336,6.2295871 7.0100325,6.2970319 6.9339688,6.3649423 6.855968,6.434206 6.692485,6.5791117 6.5308933,6.7280061 6.3748918,6.88034 6.2189573,7.0327574 6.0663576,7.1870546 5.917868,7.3466003 5.6951011,7.5858105 5.4801631,7.8333521 5.2752885,8.08792 4.8655026,8.596875 4.4943589,9.137154 4.1619397,9.701382 4.0511264,9.8894088 3.943905,10.077993 3.8423668,10.271629 c -0.050781,0.09682 -0.099215,0.193687 -0.1477564,0.291831 -0.1454703,0.294551 -0.2817948,0.596429 -0.4054789,0.902332 -0.041165,0.101997 -0.081506,0.205435 -0.1202626,0.308604 -0.1549042,0.412696 -0.2884794,0.834147 -0.4020422,1.264606 -0.056101,0.21487 -0.1086652,0.431593 -0.1546314,0.650752 v 0.0033 c -0.045981,0.219294 -0.085438,0.437899 -0.1202626,0.660817 -0.034824,0.223067 -0.062227,0.447691 -0.08591,0.674232 -0.04717,0.452878 -0.072164,0.913488 -0.072164,1.378654 0,0.465099 0.024979,0.925693 0.072164,1.378655 0.023501,0.226456 0.050919,0.451216 0.08591,0.674232 0.034824,0.222934 0.074465,0.445008 0.1202626,0.66417 0.04598,0.219161 0.098027,0.435597 0.1546314,0.650752 0.1135567,0.430458 0.2471898,0.851909 0.4020422,1.264605 0.077361,0.206289 0.1601636,0.409083 0.2474108,0.6105 0.087145,0.201396 0.1815354,0.400724 0.2783368,0.597082 0.048374,0.09816 0.096975,0.198324 0.1477564,0.295185 0.101547,0.193586 0.208703,0.38217 0.3195729,0.570246 0.3324024,0.564228 0.7035964,1.104374 1.1133488,1.613462 0.2049097,0.254486 0.4198125,0.502009 0.642581,0.74132 0.1485643,0.159601 0.3008302,0.313926 0.4570223,0.466261 0.1561051,0.152423 0.3176801,0.301128 0.4810763,0.446134 0.7352568,0.652373 1.541763,1.227377 2.408818,1.714094 0.1926792,0.108001 0.389193,0.212828 0.5876011,0.311955 0.3967657,0.198394 0.8019727,0.379093 1.2198717,0.540057 0.208875,0.08046 0.421965,0.157508 0.63571,0.228102 1.389494,0.459037 2.87761,0.707774 4.425904,0.707774 1.055564,0 2.084313,-0.116494 3.072016,-0.335436 0.461008,-0.10235 0.911627,-0.226264 1.353886,-0.372338 0.213797,-0.07046 0.426647,-0.147757 0.63571,-0.228102 0.417846,-0.160769 0.826543,-0.341577 1.223307,-0.540057 0.198408,-0.09916 0.391588,-0.200491 0.584165,-0.308601 0.867105,-0.486634 1.676997,-1.06516 2.412254,-1.717449 0.163481,-0.145076 0.321586,-0.293799 0.47764,-0.446135 0.156104,-0.152252 0.308501,-0.306763 0.457022,-0.466259 0.222716,-0.239212 0.437758,-0.486754 0.642583,-0.741321 0.324219,-0.40268 0.624043,-0.823647 0.9003,-1.261251 0.07308,-0.115687 0.14701,-0.2341 0.216483,-0.352211 0.110827,-0.187976 0.214598,-0.37656 0.316136,-0.570246 0.05077,-0.09682 0.102642,-0.197041 0.151186,-0.295184 0.09709,-0.196274 0.187636,-0.395586 0.274901,-0.597082 0.08732,-0.201502 0.170107,-0.404094 0.24741,-0.6105 0.154898,-0.412697 0.288498,-0.834213 0.402043,-1.264607 0.05679,-0.215305 0.108652,-0.431591 0.154635,-0.650752 0.04581,-0.219343 0.08872,-0.441202 0.123707,-0.664169 0.03482,-0.223017 0.06225,-0.447726 0.08591,-0.674233 0.04717,-0.452861 0.07217,-0.913488 0.07217,-1.378654 0,-0.465099 -0.02498,-0.925793 -0.07217,-1.378655 -0.02368,-0.226551 -0.05092,-0.45116 -0.08591,-0.674227 -0.03482,-0.222933 -0.07773,-0.441654 -0.123707,-0.660816 -0.04598,-0.21916 -0.09784,-0.439001 -0.154633,-0.654104 -0.113556,-0.430409 -0.247241,-0.851911 -0.402044,-1.264607 -0.0386,-0.103174 -0.07927,-0.206553 -0.120262,-0.308604 -0.123509,-0.305908 -0.25664,-0.60443 -0.402041,-0.898981 -0.04838,-0.09815 -0.100422,-0.194973 -0.151201,-0.291832 C 28.323828,10.081349 28.220098,9.8894253 28.109245,9.701382 27.77682,9.1371034 27.402205,8.5970081 26.992457,8.08792 26.787547,7.8334525 26.572694,7.5859107 26.349872,7.3466003 26.201488,7.1871714 26.048991,7.0326741 25.892852,6.88034 25.736918,6.7279226 25.578608,6.5791612 25.415211,6.434206 25.098712,6.1533607 24.767885,5.8872747 24.425569,5.6358611 23.972655,5.3031801 23.496731,4.9973184 23.002957,4.7201123 22.810293,4.6121013 22.617115,4.507267 22.418791,4.4081539 22.328572,4.3630797 22.238592,4.3204048 22.147327,4.2773322 22.037722,4.2255802 21.925154,4.1719446 21.81401,4.1230304 21.767527,4.1024967 21.719776,4.0860381 21.673111,4.0660059 21.51477,3.9980614 21.356878,3.9301985 21.195472,3.8680967 c -0.0017,-9.014e-4 -0.0052,-0.00162 -0.0068,-0.00335 -0.171925,-0.065942 -0.34706,-0.1282975 -0.522309,-0.187846 -0.03533,-0.011693 -0.07083,-0.025212 -0.106533,-0.036898 C 20.151126,3.504947 19.733828,3.3886732 19.308979,3.291146 19.176205,3.260596 19.044539,3.234163 18.910374,3.207286 18.813634,3.187921 18.715679,3.167457 18.618291,3.150261 17.892331,3.0213826 17.148942,2.9488686 16.388159,2.9355801 c -0.08389,-0.0015 -0.16997,-0.00335 -0.254282,-0.00335 z m 0,0.7245484 c 0.892564,0 1.765288,0.087592 2.608122,0.2549338 -0.03534,0.090816 -0.150089,0.050018 -0.247412,0.093922 -0.09126,0.041402 -0.126328,0.1263767 -0.223356,0.1442394 -0.269668,0.049581 -0.491666,-0.065371 -0.725052,-0.057025 -0.01032,0.098494 0.112627,0.1561606 0.17525,0.1878457 0.211532,0.1081783 0.385602,0.093724 0.683816,0.087214 0.152846,-0.00334 0.329141,0.044538 0.460459,-0.043608 0.0832,-0.055423 0.07811,-0.18038 0.147756,-0.2482249 0.02968,-0.028715 0.0712,-0.055965 0.120278,-0.080506 0.146491,0.033722 0.291689,0.068777 0.436405,0.1073404 -0.02435,0.097494 -0.183483,0.074119 -0.185559,0.2046177 0.103102,0.060433 0.343687,-0.031174 0.436407,-0.1341755 0.03585,0.010017 0.07083,0.019672 0.10651,0.030189 0.209747,0.06227 0.416745,0.1291943 0.621963,0.2012634 0.29252,0.1028354 0.580019,0.2165925 0.862505,0.3387934 -0.05421,0.031217 -0.113816,0.07061 -0.161507,0.070444 -0.122655,-7.513e-4 -0.172555,-0.1597295 -0.309264,-0.100633 -0.01204,0.1547541 0.167994,0.2169931 0.281774,0.2884775 0.123159,0.077461 0.251723,0.1538558 0.295519,0.2884777 -0.120597,0.2495773 -0.31415,-0.011752 -0.505131,-0.013415 -0.210468,-0.00147 -0.514757,0.3886993 -0.694125,0.070444 0.04459,-0.1686276 0.235218,-0.1958002 0.281774,-0.3622742 -0.041,0.00667 -0.0808,0.021373 -0.120263,0.036898 -0.0705,0.027211 -0.141127,0.062904 -0.213048,0.100633 -0.09436,0.04958 -0.193432,0.099573 -0.305827,0.1241129 -0.10345,0.022203 -0.203108,0.017398 -0.29552,0.043608 -0.177429,0.050745 -0.303683,0.1772877 -0.491388,0.2448654 -0.07325,0.02621 -0.160848,0.018733 -0.2371,0.043606 -0.179026,0.058263 -0.392625,0.1640319 -0.577293,0.2616426 -0.188802,0.099496 -0.401641,0.2026317 -0.518875,0.301895 -0.06329,0.053254 -0.229053,0.2416629 -0.223357,0.3018953 0.0068,0.085975 0.174535,0.1167064 0.178685,0.2046179 -0.0034,0.053255 -0.09766,0.1675096 -0.03092,0.2448704 0.06073,0.070449 0.183803,0.014673 0.312701,0.030189 0.226576,0.027377 0.375992,0.208291 0.549802,0.301895 0.131404,0.070784 0.325818,0.1561316 0.474203,0.1744283 0.203711,0.024874 0.432689,-0.058463 0.46046,0.100633 0.02694,0.1529181 -0.193881,0.2059373 -0.209612,0.3018953 0.109795,0.141233 -0.07268,0.2082812 -0.07217,0.3320843 4.81e-4,0.1001612 0.126647,0.252561 0.2371,0.2616436 0.149433,0.011678 0.367453,-0.1429955 0.429534,-0.288479 0.07376,-0.173352 0.04314,-0.4104609 0.178685,-0.5367019 0.690983,0.01853 1.274714,-0.3052005 1.230182,-0.9962541 -0.005,-0.068279 -0.04569,-0.1564458 -0.03092,-0.2314532 0.02161,-0.1116833 0.218608,-0.2042696 0.192431,-0.3455022 0.07445,-0.022369 0.119988,-0.081484 0.158062,-0.1475917 0.05679,-0.098496 0.100512,-0.2110805 0.206174,-0.248225 0.0068,-0.00334 0.01265,-0.00503 0.02061,-0.00672 0.06039,-0.013355 0.125993,-0.00231 0.192431,0.016779 0.118357,0.034055 0.247046,0.09321 0.388296,0.08386 0.07188,-0.00501 0.164861,-0.067041 0.237101,-0.057024 0.144953,0.0197 0.231278,0.1909896 0.340191,0.2717057 0.09624,0.071783 0.198789,0.048582 0.223356,0.1442378 -0.02849,0.1604303 -0.143275,0.1680369 -0.13401,0.3153127 v 0.00335 c 0.01032,0.1323848 0.152922,0.2351201 0.223359,0.2482249 0.108091,0.0197 0.263215,-0.037132 0.371116,-0.087214 0.116468,-0.053754 0.221265,-0.1708638 0.323009,-0.2515792 0.145302,0.1088447 0.288968,0.2210509 0.429532,0.3354392 0.01538,0.064272 0.02579,0.1217788 0.03092,0.1610108 0.02075,0.1562568 -0.01992,0.2754787 -0.01387,0.4192987 0.01904,0.2436343 0.332943,0.2178423 0.487949,0.3455023 0.04666,0.038731 0.06431,0.137529 0.103091,0.1878461 0.07532,0.097827 0.167011,0.1002788 0.178686,0.2046176 0.02778,0.2495781 -0.230449,0.2682403 -0.206177,0.5467652 -0.05351,0.1080013 -0.189597,0.1041857 -0.178684,0.2482248 0.01713,0.22811 0.351965,0.053451 0.443277,0.2314528 0.04941,0.095653 -0.0085,0.1655051 -0.04467,0.3018966 0.115112,0.1335479 0.117032,0.3452191 -0.08591,0.3455017 -0.123341,0 -0.157066,-0.1276035 -0.281771,-0.1576563 -0.0693,-0.016857 -0.165982,-0.014668 -0.254287,-0.030184 -0.07548,-0.013327 -0.165578,-0.035253 -0.237101,-0.04361 -0.183053,-0.0212 -0.379702,0.032405 -0.487949,-0.070439 0.176451,-0.2283915 0.408842,-0.4540627 0.635709,-0.6507521 0.0674,-0.058762 0.213028,-0.1003261 0.178686,-0.2180356 -0.126268,-0.1080013 -0.279504,0.00836 -0.398606,0.073793 -0.125049,0.068614 -0.274674,0.1674108 -0.415789,0.1878455 -0.245239,0.035396 -0.572775,-0.070516 -0.773157,0.057025 -0.02761,0.1090128 0.228077,0.06691 0.19243,0.2314538 -0.09814,0.015031 -0.189062,0.023344 -0.264592,-0.043609 -0.06895,-0.060422 -0.031,-0.1513876 -0.07559,-0.1878465 -0.076,-0.061434 -0.360303,-0.077554 -0.487947,-0.057025 -0.155772,0.024708 -0.294705,0.115043 -0.3127,0.244871 0.187119,0.085471 0.495668,-0.087373 0.563545,0.1308231 -0.102586,0.1798295 -0.341683,0.2788175 -0.309262,0.5199312 0.01204,0.093157 0.12456,0.2176134 0.206176,0.2314517 0.08199,0.013327 0.126938,-0.064359 0.206175,-0.057025 0.08389,0.00836 0.06646,0.09805 0.164931,0.083854 0.142728,-0.059433 0.221329,-0.2539503 0.384863,-0.2448689 0.196226,0.2321478 -0.176764,0.3456601 -0.384863,0.4192968 -0.237348,0.0838 -0.547679,0.13042 -0.728487,0.20462 -0.09485,0.03856 -0.450986,0.375228 -0.501695,0.114054 -0.03619,-0.188359 0.175014,-0.133458 0.219923,-0.288477 -0.229529,-0.04357 -0.440582,0.09698 -0.649455,0.174429 -0.298023,0.109849 -0.804316,0.176922 -0.876245,0.503158 -0.01387,0.06527 0.02741,0.187933 -0.01713,0.231454 -0.03551,0.03507 -0.24728,0.04307 -0.34019,0.07379 -0.143062,0.04791 -0.26899,0.147816 -0.35737,0.171074 -0.06674,0.01786 -0.163882,0.01437 -0.206177,0.03018 -0.117855,0.04458 -0.160299,0.198576 -0.295516,0.301896 -0.05542,0.04223 -0.179271,0.07483 -0.223356,0.117408 -0.07686,0.07445 -0.08791,0.260549 -0.223359,0.288477 -0.0861,0.0067 -0.156029,-0.06149 -0.237101,-0.01347 -0.01032,0.184304 0.06844,0.434223 -0.01371,0.620563 -0.175644,0.139568 -0.369784,0.235867 -0.594472,0.35892 -0.124195,0.06829 -0.234777,0.08771 -0.384863,0.161011 -0.106487,0.05176 -0.203924,0.174439 -0.326408,0.244872 -0.283116,0.162435 -0.624142,0.353525 -0.621962,0.764801 4.8e-4,0.08898 0.04676,0.187812 0.05841,0.291833 0.0068,0.06127 -0.0068,0.120986 0,0.187845 0.01767,0.151082 0.129864,0.341795 0,0.446134 -0.199586,-0.0798 -0.454847,-0.106363 -0.59445,-0.244868 -0.03825,-0.142561 0.07952,-0.259228 0.06187,-0.389109 -0.01371,-0.104339 -0.16671,-0.291877 -0.254283,-0.305249 -0.09024,-0.01333 -0.171443,0.08115 -0.264591,0.07379 -0.110816,-0.0084 -0.215058,-0.158352 -0.357373,-0.174428 -0.208581,-0.0237 -0.363452,0.04481 -0.594472,0.01347 -0.223643,0.11636 -0.286018,0.325733 -0.560111,0.30525 -0.09658,-0.0067 -0.187381,-0.07826 -0.298955,-0.100645 -0.120933,-0.02438 -0.303619,-0.06889 -0.429532,-0.06038 -0.252429,0.01669 -0.436057,0.195484 -0.65289,0.305248 -0.191324,0.09717 -0.462061,0.218034 -0.518876,0.419299 -0.03122,0.108353 -0.0052,0.258656 -0.04467,0.35892 -0.02625,0.06593 -0.08165,0.125089 -0.116833,0.187846 -0.166226,0.295953 -0.304874,0.687957 -0.178686,1.113658 0.0187,0.06311 0.182778,0.421144 0.250848,0.493095 0.07651,0.07996 0.30113,0.19906 0.429531,0.201264 0.108585,0.0016 0.238367,-0.05543 0.343627,-0.07379 0.12197,-0.0212 0.27401,-0.02248 0.384862,-0.05702 0.3206,-0.1 0.256349,-0.521801 0.577292,-0.664169 0.140151,-0.06178 0.303445,-0.07486 0.549801,-0.08721 0.07823,0.06411 0.113892,0.17735 0.103091,0.27506 -0.0085,0.07378 -0.08168,0.139656 -0.120263,0.244871 -0.03362,0.09216 -0.03888,0.200671 -0.07217,0.275061 -0.04408,0.09734 -0.143336,0.170057 -0.178685,0.261642 -0.02316,0.0596 -0.0082,0.134057 -0.02749,0.187846 -0.03414,0.09516 -0.16708,0.160376 -0.106532,0.258287 0.31751,0.123038 0.702255,-0.03331 0.979333,0.01678 0.116985,0.0207 0.35955,0.156431 0.35737,0.332086 -0.0015,0.131377 -0.105692,0.215067 -0.120262,0.35892 -0.01802,0.18083 -0.09485,0.403712 -0.103091,0.550119 -0.01371,0.239779 0.360119,0.654042 0.621964,0.650752 0.281898,-0.0033 0.447262,-0.274205 0.786903,-0.130823 0.112704,0.04741 0.232916,0.226851 0.357372,0.218037 0.102586,-0.0067 0.254426,-0.184034 0.323007,-0.30525 0.08355,-0.147742 0.0896,-0.270997 0.237103,-0.345502 0.159194,-0.08029 0.28771,-0.04344 0.491385,-0.117408 0.09093,-0.03289 0.168901,-0.08898 0.250847,-0.144239 0.07188,-0.04807 0.147468,-0.174675 0.237102,-0.08721 0.118358,0.115193 -0.145028,0.181912 -0.04467,0.305249 0.2057,0.106175 0.311508,-0.196639 0.460459,-0.201264 0.04752,-0.0014 0.210964,0.08981 0.295519,0.144238 0.115614,0.07396 0.155226,0.177157 0.281772,0.201264 0.08131,0.01503 0.212163,-0.02861 0.326446,-0.01347 0.151293,0.02104 0.242709,0.147576 0.357371,0.144238 0.139633,-0.0033 0.206862,-0.152793 0.326443,-0.174428 0.261743,-0.04674 0.358961,0.0285 0.474207,0.187845 0.129178,0.02187 0.132606,-0.146319 0.250847,-0.08721 -0.06485,0.125867 0.02362,0.183422 0.07559,0.288477 0.03362,0.06745 0.02703,0.115029 0.05841,0.144238 0.07069,0.06577 0.208983,0.06688 0.312699,0.130823 0.109437,0.06712 0.169966,0.191523 0.295517,0.332086 0.129178,0.143729 0.346372,0.294749 0.518877,0.305249 0.162975,0.01001 0.294802,-0.04638 0.429532,-0.03019 0.306756,0.03674 0.496686,0.184536 0.711305,0.345503 0.119912,0.08982 0.229535,0.154055 0.268028,0.261643 0.0271,0.07511 0.01387,0.174046 0.04467,0.258287 0.06552,0.17998 0.334488,0.269284 0.237101,0.58031 0.04459,0.09131 0.143338,0.123996 0.250847,0.187846 0.08594,0.05106 0.161172,0.156442 0.254283,0.171075 0.06022,0.01001 0.126541,-0.01632 0.178686,-0.01333 0.168623,0.01168 0.283412,0.07573 0.429535,0.130823 0.09058,0.03407 0.204292,0.04732 0.264589,0.08721 0.07531,0.04959 0.08587,0.214399 0.178686,0.258288 0.06072,0.02872 0.197898,-0.01168 0.298956,0 0.159197,0.01786 0.375086,0.114728 0.518874,0.117408 0.08733,0.0016 0.15967,-0.03603 0.237102,-0.03019 0.180036,0.01333 0.320806,0.124295 0.460459,0.248224 -1.786345,2.811226 -4.66045,4.898426 -8.044285,5.695755 -0.01204,-0.126706 -0.04932,-0.256159 -0.05499,-0.382399 -0.01204,-0.274637 0.03292,-0.467428 -0.01371,-0.721195 -0.03448,-0.191969 -0.08016,-0.486382 -0.151185,-0.607163 -0.07942,-0.134386 -0.389196,-0.360761 -0.546365,-0.446133 -0.103786,-0.0561 -0.227159,-0.07656 -0.34019,-0.130823 -0.241485,-0.115448 -0.711834,-0.360507 -0.817832,-0.593657 -0.03071,-0.06711 -0.02548,-0.156531 -0.05841,-0.231453 -0.06433,-0.148071 -0.199315,-0.276477 -0.295517,-0.419299 -0.183159,-0.272515 -0.330896,-0.614226 -0.518876,-0.895623 -0.09504,-0.142906 -0.177577,-0.305476 -0.281774,-0.419298 -0.06107,-0.06712 -0.256693,-0.130449 -0.281773,-0.231452 -0.03346,-0.133713 -0.136387,-0.317014 -0.120263,-0.4193 0.02145,-0.13789 0.295948,-0.246497 0.295519,-0.372339 -4.8e-4,-0.106836 -0.144525,-0.170884 -0.17525,-0.26164 -0.0748,-0.220798 0.04119,-0.349463 0.130581,-0.533348 0.02951,-0.06044 0.05862,-0.160067 0.08933,-0.20462 0.05438,-0.07947 0.164694,-0.101788 0.237102,-0.187845 0.04047,-0.04824 0.06744,-0.146439 0.120264,-0.214681 0.112702,-0.145915 0.293822,-0.200385 0.340189,-0.332083 0.03774,-0.107353 0.06162,-0.64567 0.01719,-0.825183 -0.02575,-0.104087 -0.12706,-0.190135 -0.164967,-0.288548 -0.06708,-0.174369 -0.08035,-0.36603 -0.264591,-0.362273 -0.113739,0.0016 -0.194952,0.127156 -0.26803,0.204618 -0.01749,0.103009 -0.0102,0.213418 -0.120263,0.24487 -0.16863,0.04858 -0.23286,-0.173341 -0.429536,-0.231453 -0.07822,-0.0232 -0.201887,-0.02223 -0.250847,-0.04361 -0.143581,-0.06278 -0.188869,-0.265972 -0.340189,-0.345502 -0.126602,-0.06595 -0.236003,-0.04291 -0.312699,-0.144238 -0.03191,-0.06978 -0.0085,-0.198361 -0.01718,-0.291832 -0.162451,-0.09264 -0.298701,-0.43838 -0.487949,-0.51993 -0.125399,-0.05442 -0.317274,-0.04872 -0.474205,-0.100623 -0.07376,-0.02438 -0.132515,-0.05424 -0.209611,-0.07044 -0.09504,-0.0207 -0.190983,-0.02431 -0.264591,-0.06038 -0.293624,-0.141903 -0.450829,-0.600207 -0.814418,-0.590375 -0.155077,0.0033 -0.306186,0.145077 -0.446716,0.144238 -0.139633,-7.51e-4 -0.374584,-0.108639 -0.549799,-0.187845 -0.18201,-0.08247 -0.382503,-0.126482 -0.532622,-0.201265 -0.121283,-0.06042 -0.206718,-0.172176 -0.312699,-0.218035 -0.08114,-0.03506 -0.198017,-0.03972 -0.264593,-0.07044 -0.09469,-0.04373 -0.194813,-0.138115 -0.3127002,-0.218035 C 9.8230049,16.948587 9.7021443,16.833321 9.6977521,16.73556 9.6925721,16.622373 9.8060204,16.52567 9.8180147,16.416892 9.8562687,16.072809 9.5934402,15.825187 9.4297179,15.621901 9.3084341,15.470821 9.1665164,15.342416 9.0448562,15.202602 c 0.00686,-0.09283 0.00686,-0.108617 0,-0.201264 C 8.9527357,14.914217 8.8741726,14.783025 8.7768211,14.652493 8.6888222,14.5348 8.5206134,14.408835 8.4984843,14.276801 c -0.02728,-0.162435 0.063294,-0.301942 0,-0.459551 -0.1054946,-0.261547 -0.4809163,-0.144568 -0.4329697,0.201263 0.013716,0.09532 0.150774,0.224161 0.1924308,0.318667 0.042718,0.09632 0.0358,0.216044 0.075593,0.332085 0.038254,0.11118 0.1526669,0.206828 0.1924308,0.332086 0.062959,0.197824 0.062455,0.409693 0.1202627,0.533346 0.050949,0.109848 0.2358204,0.215871 0.1305804,0.348856 -0.1403191,0.02839 -0.1910729,-0.108287 -0.2783369,-0.187845 -0.048723,-0.04425 -0.2274534,-0.128519 -0.2542842,-0.231453 -0.022465,-0.08498 0.056832,-0.201228 0.030923,-0.305249 -0.050949,-0.203902 -0.4727107,-0.20947 -0.4742028,-0.4193 C 7.8001387,14.607985 7.9745645,14.59201 7.9761601,14.464647 7.9773001,14.325245 7.7812755,14.207149 7.739058,14.088954 7.700454,13.980601 7.695059,13.808672 7.680641,13.656238 7.666925,13.513168 7.683231,13.34732 7.649718,13.23694 7.6193592,13.137603 7.4661023,13.001767 7.3679445,12.948462 7.2380804,12.878001 7.1360012,12.907393 7.0724271,12.804224 7.0171953,12.71408 6.9813495,12.525693 6.9693408,12.428533 c -0.021443,-0.173753 -0.00686,-0.364681 -0.017176,-0.55012 -0.01036,-0.185722 -0.029155,-0.363959 0,-0.563537 0.073428,-0.139731 0.2103977,-0.207058 0.2852087,-0.345503 0.052153,-0.09632 0.05799,-0.216198 0.1168334,-0.318667 C 7.4627946,10.461979 7.7002463,10.28998 7.8593371,10.10394 8.0308935,9.9034978 8.1884938,9.7090879 8.2888813,9.4799948 8.3249099,9.3987025 8.419614,9.220772 8.4057148,9.1210759 8.3861617,8.9821829 8.119904,8.8671982 8.1411233,8.7017766 8.1548396,8.5992842 8.3027501,8.5983056 8.3472996,8.4971592 8.3701141,8.4449069 8.3907659,8.301223 8.3919689,8.2388699 8.3936436,8.0994617 8.3184775,7.9549917 8.3472973,7.8061473 8.3716517,7.6791044 8.567199,7.6269097 8.46756,7.4874803 8.3687559,7.3494197 8.1886227,7.5601892 8.0792631,7.4707075 7.9789046,7.3885724 8.1009198,7.2897381 8.110186,7.1386229 8.113539,7.0785248 8.0727402,7.0120561 8.0792631,6.9675496 8.0877978,6.9029419 8.2201003,6.7928857 8.185794,6.7495142 8.1322694,6.6834048 8.0737918,6.5508727 7.989928,6.4442639 9.6438746,5.1527723 11.626529,4.2420605 13.793772,3.8580285 h 0.0035 c 0.02693,0.04474 0.04735,0.097872 0.113405,0.1174041 0.129178,-0.065274 0.25973,0.005 0.402043,0 0.138612,-0.005 0.263011,-0.066979 0.415788,-0.043606 0.269994,0.041235 0.646333,0.3007907 0.859065,0.1610108 0.05353,-0.035391 0.04097,-0.099632 0.08935,-0.1912003 0.03842,-0.073286 0.09713,-0.1512342 0.13401,-0.2415161 0.107553,-0.00334 0.214951,-0.00335 0.323008,-0.00335 z"
     id="path2-3" />
</svg>
