<?xml version="1.0" encoding="UTF-8" standalone="no"?>
<svg
   xmlns:dc="http://purl.org/dc/elements/1.1/"
   xmlns:cc="http://creativecommons.org/ns#"
   xmlns:rdf="http://www.w3.org/1999/02/22-rdf-syntax-ns#"
   xmlns:svg="http://www.w3.org/2000/svg"
   xmlns="http://www.w3.org/2000/svg"
   xmlns:sodipodi="http://sodipodi.sourceforge.net/DTD/sodipodi-0.dtd"
   xmlns:inkscape="http://www.inkscape.org/namespaces/inkscape"
   viewBox="0 0 32 32"
   version="1.1"
   id="svg4"
   sodipodi:docname="checked.svg"
   width="32"
   height="32"
   inkscape:version="0.92.4 5da689c313, 2019-01-14">
  <metadata
     id="metadata10">
    <rdf:RDF>
      <cc:Work
         rdf:about="">
        <dc:format>image/svg+xml</dc:format>
        <dc:type
           rdf:resource="http://purl.org/dc/dcmitype/StillImage" />
        <dc:title />
      </cc:Work>
    </rdf:RDF>
  </metadata>
  <defs
     id="defs8" />
  <sodipodi:namedview
     pagecolor="#ffffff"
     bordercolor="#666666"
     borderopacity="1"
     objecttolerance="10"
     gridtolerance="10"
     guidetolerance="10"
     inkscape:pageopacity="0"
     inkscape:pageshadow="2"
     inkscape:window-width="1366"
     inkscape:window-height="703"
     id="namedview6"
     showgrid="false"
     inkscape:zoom="10.727273"
     inkscape:cx="11"
     inkscape:cy="22.186441"
     inkscape:window-x="0"
     inkscape:window-y="0"
     inkscape:window-maximized="1"
     inkscape:current-layer="svg4" />
  <path
     d="m 26.55263,4.466102 c -0.516225,0 -0.957263,0.18055 -1.31837,0.5422058 L 12.537736,17.728286 6.8504853,12.016753 C 6.4891541,11.65527 6.0480978,11.474546 5.5321166,11.474546 c -0.516225,0 -0.9533625,0.180743 -1.3146937,0.542207 l -2.6330626,2.634133 c -0.3613312,0.361464 -0.5419875,0.79879 -0.5419875,1.315215 0,0.516198 0.1805625,0.953984 0.5419875,1.315218 l 7.0056189,7.012105 2.6330638,2.630472 c 0.361087,0.361483 0.798468,0.542206 1.314693,0.542206 0.515981,0 0.957018,-0.180933 1.31835,-0.542206 l 2.633061,-2.630472 14.011239,-14.02055 C 30.861474,9.9114092 31.042373,9.4740843 31.042373,8.9576577 31.042617,8.4414607 30.861436,8.0002433 30.500386,7.6387796 L 27.867323,5.0083078 C 27.506235,4.6468245 27.068611,4.466102 26.55263,4.466102 Z"
     id="path2"
     inkscape:connector-curvature="0"
     style="fill:#3daee9;stroke-width:1.89571893" />
</svg>
