<?xml version="1.0" encoding="utf-8"?>
<!-- Generator: Adobe Illustrator 22.1.0, SVG Export Plug-In . SVG Version: 6.00 Build 0)  -->
<svg version="1.1" id="Layer_1" xmlns="http://www.w3.org/2000/svg" xmlns:xlink="http://www.w3.org/1999/xlink" x="0px" y="0px"
	 viewBox="0 0 32 32" style="enable-background:new 0 0 32 32;" xml:space="preserve">
<style type="text/css">
	.st0{fill:#427337;}
</style>
<g>
	<g>
		<path class="st0" d="M11.6,9.3c0-1.9,0-3.7,0-5.6c0-1,0.7-1.7,1.7-1.6c1.8,0,3.6,0,5.4,0c0.9,0,1.6,0.7,1.6,1.6
			c0,3.8,0,7.6,0,11.4c0,0.5,0,0.5,0.5,0.5c1.9,0,3.7,0,5.6,0c0.7,0,1.2,0.3,1.5,0.9c0.3,0.6,0.1,1.2-0.3,1.7c0,0-0.1,0.1-0.1,0.1
			c-3.4,3.4-6.9,6.9-10.3,10.3c-0.4,0.4-0.8,0.6-1.3,0.6c-0.4,0-0.8-0.2-1.1-0.5c-1.8-1.8-3.6-3.6-5.5-5.5c-1.7-1.7-3.3-3.4-5-5.1
			c-0.8-0.8-0.5-2,0.5-2.4c0.2-0.1,0.4-0.1,0.6-0.1c1.9,0,3.8,0,5.7,0c0.5,0,0.5,0,0.5-0.5C11.6,13.2,11.6,11.2,11.6,9.3z"/>
	</g>
	<path class="st0" d="M5.4,30h21.1c0.8,0,1.5-0.7,1.5-1.5v0c0-0.8-0.7-1.5-1.5-1.5H5.4c-0.8,0-1.5,0.7-1.5,1.5v0
		C3.9,29.3,4.6,30,5.4,30z"/>
</g>
</svg>
