<svg height="32" viewBox="0 0 32 32" width="32" xmlns="http://www.w3.org/2000/svg"><path d="m13.976563 2.0000015c-.352402 0-.571225.1689567-.65625.5092773-.157965.6074747-.335349 1.7378008-.529785 3.3906253-.571227.182578-1.122959.414387-1.657715.6938463l-2.515625-1.9516588c-.1579658-.1215003-.317132-.1811532-.4750978-.1811532-.2673784 0-.8415382.433211-1.7226566 1.3022461-.8811182.8690351-1.4782785 1.5244879-1.794434 1.9619146-.109411.1579653-.1640625.2954967-.1640625.4169917 0 .145884.059658.2918404.1811523.4375003.8142179.984489 1.465457 1.8226789 1.9516607 2.5156249-.3038493.558922-.5408895 1.119302-.7109376 1.678222l-3.3906257.509278c-.1335778.0244-.2478848.105453-.3452149.239258-.097329.133578-.146972.271332-.146972.416991v4.046877c0 .158182.049642.303128.146972.430663.09733.127761.2248467.201421.3828125.225586l3.3359383.492188c.1700474.595392.4168794 1.197212.7451173 1.804688-.2186016.303849-.5469486.732052-.9843752 1.285156-.4374268.553104-.7475574.958082-.9296878 1.213379-.09733.134037-.1435543.274525-.1435543.420409 0 .157973.041441.295497.126466.416993.4738976.656475 1.4764843 1.677278 3.0078132 3.0625.133802.133808.2845417.201661.4545899.201661.1823544 0 .336513-.05487.458008-.164064l2.5703122-1.951658c.49851.255294 1.045233.482097 1.640625.676756l.509278 3.353027c.0123.157974.08096.289696.208496.393066.127536.10361.277706.153808.447754.153808h4.046876c.352852 0 .571002-.168962.65625-.509278.157745-.607698.33535-1.737801.529784-3.390626.571229-.182353 1.123185-.414385 1.657718-.693846l2.515624 1.96875c.170048.109178.329438.164063.475098.164063.267154 0 .83755-.432418 1.712403-1.29541.875301-.862771 1.476897-1.519018 1.804688-1.96875.10941-.1215.164062-.259027.164062-.416994 0-.157973-.05942-.312572-.181153-.458006-.874852-1.069515-1.526092-1.907927-1.95166-2.515626.24299-.449732.480031-1.001464.710938-1.657715l3.373534-.509279c.145653-.0244.265199-.105452.362307-.239256.0971-.133807.146965-.271334.146965-.416992v-4.046875c.000225-.157971-.04941-.302904-.146965-.430664-.09754-.127775-.224847-.201422-.382812-.225586l-3.33594-.512696c-.182354-.583309-.429184-1.176481-.745118-1.784179.218603-.30385.54695-.732051.984377-1.2851571.437424-.5531046.747333-.9580822.929687-1.2133788.09733-.1338078.143552-.2745264.143552-.4204104 0-.1700466-.04121-.3025725-.126469-.3999017-.437426-.6200048-1.440017-1.653793-3.007817-3.1000985-.145442-.1215004-.296848-.1811511-.454589-.1811511-.182355 0-.328087.05487-.437501.1640622l-2.59081 1.9516608c-.498512-.2552944-1.045234-.4823209-1.640625-.6767563l-.509279-3.353029c-.012064-.1579644-.080953-.2896947-.208497-.3930657-.12776-.1033753-.277257-.1538094-.447753-.1538094zm2.02344 9.3344725c1.288338 0 2.387016.455863 3.298342 1.367189.911321.911546 1.367187 2.009999 1.367187 3.298338 0 1.28834-.455866 2.387016-1.367187 3.298341-.911326.911547-2.010004 1.367187-3.298342 1.367187-1.288341 0-2.386794-.45564-3.298342-1.367187-.911324-.911325-1.367188-2.010001-1.367188-3.298341 0-1.288339.45564-2.386792 1.367188-3.298338.911548-.911326 2.010225-1.367189 3.298342-1.367189z" fill="#4285f4"/></svg>