<?xml version="1.0" encoding="UTF-8" standalone="no"?>
<svg
   xmlns:dc="http://purl.org/dc/elements/1.1/"
   xmlns:cc="http://creativecommons.org/ns#"
   xmlns:rdf="http://www.w3.org/1999/02/22-rdf-syntax-ns#"
   xmlns:svg="http://www.w3.org/2000/svg"
   xmlns="http://www.w3.org/2000/svg"
   xmlns:sodipodi="http://sodipodi.sourceforge.net/DTD/sodipodi-0.dtd"
   xmlns:inkscape="http://www.inkscape.org/namespaces/inkscape"
   viewBox="0 0 32 32"
   version="1.1"
   id="svg6"
   sodipodi:docname="configure.svg"
   inkscape:version="0.92.4 5da689c313, 2019-01-14"
   width="32"
   height="32">
  <metadata
     id="metadata10">
    <rdf:RDF>
      <cc:Work
         rdf:about="">
        <dc:format>image/svg+xml</dc:format>
        <dc:type
           rdf:resource="http://purl.org/dc/dcmitype/StillImage" />
        <dc:title />
      </cc:Work>
    </rdf:RDF>
  </metadata>
  <sodipodi:namedview
     pagecolor="#ffffff"
     bordercolor="#666666"
     borderopacity="1"
     objecttolerance="10"
     gridtolerance="10"
     guidetolerance="10"
     inkscape:pageopacity="0"
     inkscape:pageshadow="2"
     inkscape:window-width="1366"
     inkscape:window-height="703"
     id="namedview8"
     showgrid="false"
     inkscape:zoom="10.727273"
     inkscape:cx="11"
     inkscape:cy="14.728814"
     inkscape:window-x="0"
     inkscape:window-y="0"
     inkscape:window-maximized="1"
     inkscape:current-layer="svg6" />
  <defs
     id="defs3051">
    <style
       type="text/css"
       id="current-color-scheme">
     .ColorScheme-Text {
       color:#f2f2f2;
     }
     </style>
  </defs>
  <path
     style="color:#f2f2f2;fill:#1d99f3;fill-opacity:1;stroke:none;stroke-width:1.75000012"
     d="m 13.85792,1.8389835 c -0.352402,0 -0.571225,0.1689567 -0.65625,0.5092773 -0.157965,0.6074747 -0.335349,1.7378008 -0.529785,3.3906253 -0.571227,0.182578 -1.122959,0.414387 -1.657715,0.6938463 L 8.4985446,4.4810736 C 8.3405788,4.3595733 8.1814126,4.2999204 8.0234468,4.2999204 c -0.2673784,0 -0.8415382,0.433211 -1.7226566,1.3022461 C 5.419672,6.4712016 4.8225117,7.1266544 4.5063562,7.5640811 4.3969452,7.7220464 4.3422937,7.8595778 4.3422937,7.9810728 c 0,0.145884 0.059658,0.2918404 0.1811523,0.4375003 0.8142179,0.984489 1.465457,1.8226789 1.9516607,2.5156249 C 6.1712574,11.49312 5.9342172,12.0535 5.7641691,12.61242 l -3.3906257,0.509278 c -0.1335778,0.0244 -0.2478848,0.105453 -0.3452149,0.239258 -0.097329,0.133578 -0.146972,0.271332 -0.146972,0.416991 v 4.046877 c 0,0.158182 0.049642,0.303128 0.146972,0.430663 0.09733,0.127761 0.2248467,0.201421 0.3828125,0.225586 l 3.3359383,0.492188 c 0.1700474,0.595392 0.4168794,1.197212 0.7451173,1.804688 -0.2186016,0.303849 -0.5469486,0.732052 -0.9843752,1.285156 -0.4374268,0.553104 -0.7475574,0.958082 -0.9296878,1.213379 -0.09733,0.134037 -0.1435543,0.274525 -0.1435543,0.420409 0,0.157973 0.041441,0.295497 0.126466,0.416993 0.4738976,0.656475 1.4764843,1.677278 3.0078132,3.0625 0.133802,0.133808 0.2845417,0.201661 0.4545899,0.201661 0.1823544,0 0.336513,-0.05487 0.458008,-0.164064 l 2.5703126,-1.951658 c 0.49851,0.255294 1.045233,0.482097 1.640625,0.676756 l 0.509278,3.353027 c 0.0123,0.157974 0.08096,0.289696 0.208496,0.393066 0.127536,0.10361 0.277706,0.153808 0.447754,0.153808 h 4.046876 c 0.352852,0 0.571002,-0.168962 0.65625,-0.509278 0.157745,-0.607698 0.33535,-1.737801 0.529784,-3.390626 0.571229,-0.182353 1.123185,-0.414385 1.657718,-0.693846 l 2.515624,1.96875 c 0.170048,0.109178 0.329438,0.164063 0.475098,0.164063 0.267154,0 0.83755,-0.432418 1.712403,-1.29541 0.875301,-0.862771 1.476897,-1.519018 1.804688,-1.96875 0.10941,-0.1215 0.164062,-0.259027 0.164062,-0.416994 0,-0.157973 -0.05942,-0.312572 -0.181153,-0.458006 -0.874852,-1.069515 -1.526092,-1.907927 -1.95166,-2.515626 0.24299,-0.449732 0.480031,-1.001464 0.710938,-1.657715 l 3.373534,-0.509279 c 0.145653,-0.0244 0.265199,-0.105452 0.362307,-0.239256 0.0971,-0.133807 0.146965,-0.271334 0.146965,-0.416992 v -4.046875 c 2.25e-4,-0.157971 -0.04941,-0.302904 -0.146965,-0.430664 -0.09754,-0.127775 -0.224847,-0.201422 -0.382812,-0.225586 l -3.33594,-0.512696 c -0.182354,-0.583309 -0.429184,-1.176481 -0.745118,-1.784179 0.218603,-0.30385 0.54695,-0.732051 0.984377,-1.2851571 0.437424,-0.5531046 0.747333,-0.9580822 0.929687,-1.2133788 0.09733,-0.1338078 0.143552,-0.2745264 0.143552,-0.4204104 0,-0.1700466 -0.04121,-0.3025725 -0.126469,-0.3999017 C 26.764242,6.9611642 25.761651,5.927376 24.193851,4.4810705 24.048409,4.3595701 23.897003,4.2999194 23.739262,4.2999194 c -0.182355,0 -0.328087,0.05487 -0.437501,0.1640622 l -2.59081,1.9516608 C 20.212439,6.160348 19.665717,5.9333215 19.070326,5.7388861 L 18.561047,2.3858571 C 18.548983,2.2278927 18.480094,2.0961624 18.35255,1.9927914 18.22479,1.8894161 18.075293,1.838982 17.904797,1.838982 Z m 2.02344,9.3344725 c 1.288338,0 2.387016,0.455863 3.298342,1.367189 0.911321,0.911546 1.367187,2.009999 1.367187,3.298338 0,1.28834 -0.455866,2.387016 -1.367187,3.298341 -0.911326,0.911547 -2.010004,1.367187 -3.298342,1.367187 -1.288341,0 -2.386794,-0.45564 -3.298342,-1.367187 -0.911324,-0.911325 -1.367188,-2.010001 -1.367188,-3.298341 0,-1.288339 0.45564,-2.386792 1.367188,-3.298338 0.911548,-0.911326 2.010225,-1.367189 3.298342,-1.367189 z"
     class="ColorScheme-Text"
     id="path4"
     inkscape:connector-curvature="0" />
</svg>
