<svg xmlns="http://www.w3.org/2000/svg" viewBox="0 0 32 32">
  <path fill="#D1954E" d="M17.7 4.6l11.5 21.1c.3.6.3 1.3 0 1.9-.2.3-.4.5-.7.7-.3.2-.6.3-.9.3h-23c-.3 0-.7-.1-.9-.3s-.7-.5-.8-.8c-.4-.6-.4-1.3 0-1.9l11.4-21c.2-.3.4-.6.7-.8.3-.2.6-.3 1-.3.3 0 .7.1 1 .3.3.2.5.5.7.8zm.2 13.9l.3-6.9c0-.1 0-.2-.1-.3-.1-.1-.2-.2-.4-.2h-3.3c-.1 0-.2.1-.4.2-.1.1-.1.2-.1.3l.3 6.8c0 .1 0 .2.1.2.1.1.2.1.4.1h2.8c.1 0 .3 0 .4-.1-.1.1 0 0 0-.1zm0 5.6v-2.8c0-.1 0-.3-.1-.4-.1-.1-.2-.1-.3-.1h-2.9c-.1 0-.2 0-.3.1-.1.1-.1.2-.1.4v2.8c0 .1 0 .3.1.4.1.1.2.1.3.1h2.9c.1 0 .2 0 .3-.1.1-.1.1-.2.1-.4z"/>
</svg>
