<?xml version="1.0" encoding="UTF-8" standalone="no"?>
<svg
   xmlns:dc="http://purl.org/dc/elements/1.1/"
   xmlns:cc="http://creativecommons.org/ns#"
   xmlns:rdf="http://www.w3.org/1999/02/22-rdf-syntax-ns#"
   xmlns:svg="http://www.w3.org/2000/svg"
   xmlns="http://www.w3.org/2000/svg"
   xmlns:sodipodi="http://sodipodi.sourceforge.net/DTD/sodipodi-0.dtd"
   xmlns:inkscape="http://www.inkscape.org/namespaces/inkscape"
   viewBox="0 0 22 22"
   version="1.1"
   id="svg6"
   sodipodi:docname="dialog-cancel.svg"
   inkscape:version="0.92.4 5da689c313, 2019-01-14">
  <metadata
     id="metadata10">
    <rdf:RDF>
      <cc:Work
         rdf:about="">
        <dc:format>image/svg+xml</dc:format>
        <dc:type
           rdf:resource="http://purl.org/dc/dcmitype/StillImage" />
      </cc:Work>
    </rdf:RDF>
  </metadata>
  <sodipodi:namedview
     pagecolor="#ffffff"
     bordercolor="#666666"
     borderopacity="1"
     objecttolerance="10"
     gridtolerance="10"
     guidetolerance="10"
     inkscape:pageopacity="0"
     inkscape:pageshadow="2"
     inkscape:window-width="1366"
     inkscape:window-height="703"
     id="namedview8"
     showgrid="false"
     inkscape:zoom="10.727273"
     inkscape:cx="11"
     inkscape:cy="11"
     inkscape:window-x="0"
     inkscape:window-y="0"
     inkscape:window-maximized="1"
     inkscape:current-layer="svg6" />
  <defs
     id="defs3051">
    <style
       type="text/css"
       id="current-color-scheme">
     .ColorScheme-Text {
       color:#f2f2f2;
     }
     </style>
  </defs>
  <path
     style="color:#f2f2f2;fill:#da4453;fill-opacity:1;stroke:none;stroke-width:1.11651063"
     d="m 10.766877,2.2542373 c 4.899609,0 8.8856,4.0278396 8.8856,8.9788127 0,4.950974 -3.985947,8.978814 -8.885556,8.978814 -4.8995641,0 -8.8855001,-4.02784 -8.8855001,-8.978814 0,-4.9509731 3.985936,-8.9788127 8.8854561,-8.9788127 z m 0,3.0350859 c -1.0778341,0 -2.0886826,0.2947408 -2.9583497,0.8082279 l 8.0405467,8.1248829 c 0.508201,-0.878756 0.799882,-1.900253 0.799882,-2.989384 0,-3.277412 -2.638735,-5.9437268 -5.882079,-5.9437268 z m 0,11.8874658 c 1.077857,0 2.088671,-0.29474 2.95835,-0.808228 L 5.68468,8.2436783 C 5.1765236,9.1224573 4.8848427,10.143921 4.8848427,11.23305 c 0,3.277413 2.6387456,5.943739 5.8820343,5.943739 z"
     class="ColorScheme-Text"
     id="path4"
     inkscape:connector-curvature="0" />
</svg>
