<svg viewBox="0 0 32 32" xmlns="http://www.w3.org/2000/svg"><path d="m28.1 10.8c.7 1.6 1 3.3 1 5.1s-.3 3.5-1 5.2c-.7 1.6-1.6 3-2.8 4.2s-2.6 2.1-4.2 2.8-3.3 1-5.1 1-3.5-.3-5.1-1-3-1.6-4.2-2.8-2.1-2.6-2.8-4.2-1-3.4-1-5.2.3-3.5 1-5.1 1.6-3 2.8-4.2 2.6-2.1 4.2-2.8 3.3-1 5.1-1 3.5.3 5.1 1 3 1.6 4.2 2.8 2.1 2.6 2.8 4.2zm-19.9 10.3 13-13c-1.5-1-3.3-1.6-5.2-1.6-1.7 0-3.3.4-4.7 1.3-1.4.8-2.6 2-3.4 3.4s-1.3 3-1.3 4.7c.1 1.9.6 3.7 1.6 5.2zm17.1-5.1c0-1.8-.5-3.5-1.5-5.1l-13 12.9c1.6 1 3.3 1.5 5.1 1.5 1.3 0 2.5-.2 3.6-.7 1.2-.5 2.1-1.2 3-2s1.5-1.8 2-3c.6-1.1.8-2.3.8-3.6z" fill="#733737"/></svg>