<svg xmlns="http://www.w3.org/2000/svg" viewBox="984 984 32 32">
  <path fill="none" d="M-43.8-437.5H2700v2625H-43.8z"/>
  <path fill="#375273" d="M1012.3 993.2c1.3 2.2 1.9 4.6 1.9 7.2 0 2.6-.6 5-1.9 7.2-1.3 2.2-3 3.9-5.2 5.2-2.2 1.3-4.6 1.9-7.2 1.9s-5-.6-7.2-1.9c-2.2-1.3-3.9-3-5.2-5.2-1.3-2.2-1.9-4.6-1.9-7.2 0-2.6.6-5 1.9-7.2s3-3.9 5.2-5.2 4.6-1.9 7.2-1.9 5 .6 7.2 1.9 4 3 5.2 5.2zm-7.5 16.1v-3c0-.2-.1-.3-.2-.4s-.3-.2-.4-.2h-1.8v-9.5c0-.2-.1-.3-.2-.4-.1-.1-.3-.2-.4-.2h-5.9c-.2 0-.3.1-.4.2-.1.1-.2.3-.2.4v3c0 .2.1.3.2.4.1.1.3.2.4.2h1.8v5.9h-1.8c-.2 0-.3.1-.4.2-.1.1-.2.3-.2.4v3c0 .2.1.3.2.4.1.1.3.2.4.2h8.3c.2 0 .3-.1.4-.2s.2-.2.2-.4zm-2.4-16.6v-3c0-.2-.1-.3-.2-.4-.1-.1-.3-.2-.4-.2h-3.6c-.2 0-.3.1-.4.2-.1.1-.2.3-.2.4v3c0 .2.1.3.2.4.1.1.3.2.4.2h3.6c.2 0 .3-.1.4-.2.1-.1.2-.3.2-.4z"/>
</svg>
