<?xml version="1.0" encoding="UTF-8" standalone="no"?>
<svg
   xmlns:dc="http://purl.org/dc/elements/1.1/"
   xmlns:cc="http://creativecommons.org/ns#"
   xmlns:rdf="http://www.w3.org/1999/02/22-rdf-syntax-ns#"
   xmlns:svg="http://www.w3.org/2000/svg"
   xmlns="http://www.w3.org/2000/svg"
   xmlns:sodipodi="http://sodipodi.sourceforge.net/DTD/sodipodi-0.dtd"
   xmlns:inkscape="http://www.inkscape.org/namespaces/inkscape"
   viewBox="0 0 32 32"
   version="1.1"
   id="svg6"
   sodipodi:docname="dialog-cancel.svg"
   inkscape:version="0.92.4 5da689c313, 2019-01-14"
   width="32"
   height="32">
  <metadata
     id="metadata10">
    <rdf:RDF>
      <cc:Work
         rdf:about="">
        <dc:format>image/svg+xml</dc:format>
        <dc:type
           rdf:resource="http://purl.org/dc/dcmitype/StillImage" />
        <dc:title />
      </cc:Work>
    </rdf:RDF>
  </metadata>
  <sodipodi:namedview
     pagecolor="#ffffff"
     bordercolor="#666666"
     borderopacity="1"
     objecttolerance="10"
     gridtolerance="10"
     guidetolerance="10"
     inkscape:pageopacity="0"
     inkscape:pageshadow="2"
     inkscape:window-width="1366"
     inkscape:window-height="703"
     id="namedview8"
     showgrid="false"
     inkscape:zoom="10.727273"
     inkscape:cx="11"
     inkscape:cy="11"
     inkscape:window-x="0"
     inkscape:window-y="0"
     inkscape:window-maximized="1"
     inkscape:current-layer="svg6" />
  <defs
     id="defs3051">
    <style
       type="text/css"
       id="current-color-scheme">
     .ColorScheme-Text {
       color:#f2f2f2;
     }
     </style>
  </defs>
  <path
     style="color:#f2f2f2;fill:#da4453;fill-opacity:1;stroke:none;stroke-width:1.75000703"
     d="m 15.974527,2.118644 c 7.719803,0 14.000114,6.280313 14.000114,14 0,7.719687 -6.28024,14 -14.000045,14 -7.7197311,0 -13.9999548,-6.280313 -13.9999548,-14 0,-7.719687 6.2802237,-14 13.9998858,-14 z m 0,4.7323852 c -1.698231,0 -3.290918,0.4595677 -4.661163,1.26021 L 23.982015,20.779769 c 0.80072,-1.370179 1.260292,-2.962924 1.260292,-4.661125 0,-5.110227 -4.15758,-9.2676148 -9.26778,-9.2676148 z m 0,18.5352468 c 1.698267,0 3.290902,-0.459567 4.661164,-1.26021 L 7.96704,11.457536 c -0.8006491,1.370216 -1.2602202,2.962909 -1.2602202,4.661108 0,5.110227 4.1575952,9.267632 9.2677072,9.267632 z"
     class="ColorScheme-Text"
     id="path4"
     inkscape:connector-curvature="0" />
</svg>
