<svg viewBox="984 984 32 32" xmlns="http://www.w3.org/2000/svg"><path d="m-43.8-437.5h2743.8v2625h-2743.8z" fill="none"/><path d="m1012.3 993.2c1.3 2.2 1.9 4.6 1.9 7.2s-.6 5-1.9 7.2-3 3.9-5.2 5.2-4.6 1.9-7.2 1.9-5-.6-7.2-1.9-3.9-3-5.2-5.2-1.9-4.6-1.9-7.2.6-5 1.9-7.2 3-3.9 5.2-5.2 4.6-1.9 7.2-1.9 5 .6 7.2 1.9 4 3 5.2 5.2zm-7.5 16.1v-3c0-.2-.1-.3-.2-.4s-.3-.2-.4-.2h-1.8v-9.5c0-.2-.1-.3-.2-.4s-.3-.2-.4-.2h-5.9c-.2 0-.3.1-.4.2s-.2.3-.2.4v3c0 .2.1.3.2.4s.3.2.4.2h1.8v5.9h-1.8c-.2 0-.3.1-.4.2s-.2.3-.2.4v3c0 .2.1.3.2.4s.3.2.4.2h8.3c.2 0 .3-.1.4-.2s.2-.2.2-.4zm-2.4-16.6v-3c0-.2-.1-.3-.2-.4s-.3-.2-.4-.2h-3.6c-.2 0-.3.1-.4.2s-.2.3-.2.4v3c0 .2.1.3.2.4s.3.2.4.2h3.6c.2 0 .3-.1.4-.2s.2-.3.2-.4z" fill="#375273"/></svg>