<?xml version="1.0" encoding="UTF-8" standalone="no"?>
<svg
   xmlns:dc="http://purl.org/dc/elements/1.1/"
   xmlns:cc="http://creativecommons.org/ns#"
   xmlns:rdf="http://www.w3.org/1999/02/22-rdf-syntax-ns#"
   xmlns:svg="http://www.w3.org/2000/svg"
   xmlns="http://www.w3.org/2000/svg"
   xmlns:sodipodi="http://sodipodi.sourceforge.net/DTD/sodipodi-0.dtd"
   xmlns:inkscape="http://www.inkscape.org/namespaces/inkscape"
   viewBox="0 0 32 32"
   version="1.1"
   id="svg6"
   sodipodi:docname="dialog-information.svg"
   inkscape:version="0.92.4 5da689c313, 2019-01-14"
   width="32"
   height="32">
  <metadata
     id="metadata10">
    <rdf:RDF>
      <cc:Work
         rdf:about="">
        <dc:format>image/svg+xml</dc:format>
        <dc:type
           rdf:resource="http://purl.org/dc/dcmitype/StillImage" />
        <dc:title />
      </cc:Work>
    </rdf:RDF>
  </metadata>
  <sodipodi:namedview
     pagecolor="#ffffff"
     bordercolor="#666666"
     borderopacity="1"
     objecttolerance="10"
     gridtolerance="10"
     guidetolerance="10"
     inkscape:pageopacity="0"
     inkscape:pageshadow="2"
     inkscape:window-width="1366"
     inkscape:window-height="703"
     id="namedview8"
     showgrid="false"
     inkscape:zoom="10.727273"
     inkscape:cx="11"
     inkscape:cy="11"
     inkscape:window-x="0"
     inkscape:window-y="0"
     inkscape:window-maximized="1"
     inkscape:current-layer="svg6" />
  <defs
     id="defs3051">
    <style
       type="text/css"
       id="current-color-scheme">
     .ColorScheme-Text {
       color:#f2f2f2;
     }
     </style>
  </defs>
  <path
     style="color:#f2f2f2;fill:#1d99f3;fill-opacity:1;stroke:none;stroke-width:1.75"
     d="M 15.974577,1.9322033 A 14.000001,13.999999 0 0 0 1.9745763,15.932203 a 14.000001,13.999999 0 0 0 14.0000007,14 14.000001,13.999999 0 0 0 13.999999,-14 A 14.000001,13.999999 0 0 0 15.974577,1.9322033 Z m -0.01053,6.1250011 c 1.337141,0 2.423202,0.383565 3.260753,1.1518614 0.837536,0.7540624 1.257804,1.7209602 1.257804,2.9018502 0,0.512201 -0.141222,1.032172 -0.420407,1.558595 -0.279182,0.526425 -0.528127,0.903712 -0.748533,1.131351 -0.20572,0.213419 -0.499801,0.492521 -0.881838,0.833981 l -0.109316,0.105931 c -0.896327,0.782523 -1.346683,1.565625 -1.346683,2.348144 v 0.851071 h -2.071269 v -1.001455 c 0,-0.640243 0.141223,-1.188763 0.420408,-1.644042 0.279182,-0.469515 0.771259,-1.018033 1.476567,-1.644044 0.396726,-0.355695 0.675771,-0.618824 0.8374,-0.789555 0.176329,-0.184965 0.344225,-0.432113 0.505854,-0.745118 0.176331,-0.327236 0.266607,-0.663424 0.266607,-1.004883 0,-0.654477 -0.222273,-1.180726 -0.663087,-1.579107 -0.426113,-0.398369 -1.020099,-0.5981382 -1.784183,-0.5981382 -1.263663,0 -2.130869,0.6849252 -2.601072,2.0507792 l -1.896889,-0.769044 c 0.30856,-0.810985 0.839965,-1.537001 1.58935,-2.1772455 0.764078,-0.6544752 1.733194,-0.9809677 2.908704,-0.9809677 z m -0.02392,12.8481486 c 0.426124,0 0.780382,0.142694 1.059565,0.427245 0.293885,0.284551 0.440919,0.623595 0.440919,1.021977 0,0.39837 -0.14706,0.740833 -0.440919,1.025381 -0.279105,0.284564 -0.633375,0.427246 -1.059492,0.427246 -0.426123,0 -0.786203,-0.142678 -1.080075,-0.427246 -0.279184,-0.284548 -0.417001,-0.627011 -0.417001,-1.025381 0,-0.398382 0.137817,-0.737426 0.417001,-1.021977 0.293872,-0.28455 0.653952,-0.427245 1.080075,-0.427245 z"
     class="ColorScheme-Text"
     id="path4"
     inkscape:connector-curvature="0" />
</svg>
