<?xml version="1.0" encoding="UTF-8" standalone="no"?>
<svg
   xmlns:dc="http://purl.org/dc/elements/1.1/"
   xmlns:cc="http://creativecommons.org/ns#"
   xmlns:rdf="http://www.w3.org/1999/02/22-rdf-syntax-ns#"
   xmlns:svg="http://www.w3.org/2000/svg"
   xmlns="http://www.w3.org/2000/svg"
   xmlns:sodipodi="http://sodipodi.sourceforge.net/DTD/sodipodi-0.dtd"
   xmlns:inkscape="http://www.inkscape.org/namespaces/inkscape"
   viewBox="0 0 32 32"
   version="1.1"
   id="svg6"
   sodipodi:docname="document-new.svg"
   inkscape:version="0.92.4 5da689c313, 2019-01-14"
   width="32"
   height="32">
  <metadata
     id="metadata10">
    <rdf:RDF>
      <cc:Work
         rdf:about="">
        <dc:format>image/svg+xml</dc:format>
        <dc:type
           rdf:resource="http://purl.org/dc/dcmitype/StillImage" />
        <dc:title></dc:title>
      </cc:Work>
    </rdf:RDF>
  </metadata>
  <sodipodi:namedview
     pagecolor="#ffffff"
     bordercolor="#666666"
     borderopacity="1"
     objecttolerance="10"
     gridtolerance="10"
     guidetolerance="10"
     inkscape:pageopacity="0"
     inkscape:pageshadow="2"
     inkscape:window-width="1366"
     inkscape:window-height="703"
     id="namedview8"
     showgrid="false"
     inkscape:zoom="10.727273"
     inkscape:cx="11"
     inkscape:cy="18.457627"
     inkscape:window-x="0"
     inkscape:window-y="0"
     inkscape:window-maximized="1"
     inkscape:current-layer="svg6" />
  <defs
     id="defs3051">
    <style
       type="text/css"
       id="current-color-scheme">
     .ColorScheme-Text {
       color:#f2f2f2;
     }
     </style>
  </defs>
  <path
     style="color:#f2f2f2;fill:#1d99f3;fill-opacity:1;stroke:none;stroke-width:1.6797328"
     d="M 26.970047,4.818129 15.233049,5.62401 H 3.1204085 C 1.6235225,5.54274 1.0160286,5.64416 1.0160286,6.637678 v 19.099646 c -0.094021,1.090266 0.5261377,1.067019 1.9817203,1.067019 H 15.363375 l 11.706332,1.002437 c 0.903559,0 1.206138,-0.226582 1.303256,-0.657059 h 1.061775 c 0.24083,0 0.442798,0.0073 0.651628,-0.01685 0.208832,-0.02075 0.460153,-0.08072 0.636297,-0.227443 0.176141,-0.146724 0.236925,-0.325156 0.264485,-0.511046 0.02694,-0.181741 0.02281,-0.392486 0.0076,-0.662675 V 25.714857 6.62925 c 0,-0.503719 0.05158,-0.820134 -0.264485,-1.123178 -0.158029,-0.151479 -0.423194,-0.232138 -0.647804,-0.252715 -0.207666,-0.01902 -0.411674,-0.0084 -0.647797,0.01405 H 28.403615 C 28.269456,4.899422 27.930406,4.764373 26.970032,4.818131 Z m 3.001325,1.114754 c 0.01205,0.0073 0.05361,0.02209 0,0.01685 -0.01943,-0.01164 0.06516,0.20428 0.06516,0.682331 v 19.105262 0.0084 c 0.01535,0.265866 0.01337,0.459253 -0.004,0.575629 -0.01726,0.116385 -0.05018,0.139799 -0.03067,0.123552 0.01943,-0.01643 0.05297,-0.01447 -0.04215,-0.0084 -0.09512,0.0094 -0.279135,0.0084 -0.525136,0.0084 h -1.023443 c -0.0053,-0.07723 -6.11e-4,-0.134651 -0.0076,-0.219019 l 0.09971,-20.203169 c -3e-6,-0.02259 -0.0038,-0.03429 -0.004,-0.05616 h 0.962113 0.02301 c 0.238815,-0.01902 0.410859,-0.0229 0.482972,-0.01685 h 0.004 c 4.79e-4,2.87e-4 -6.1e-4,-0.01743 0,-0.01685 z m -16.317566,5.340713 h 2.744511 v 4.026594 h 5.496684 v 2.01049 h -5.496684 v 4.026593 H 13.653806 V 17.31068 H 8.1571204 v -2.01049 h 5.4966856 z"
     class="ColorScheme-Text"
     id="path4"
     inkscape:connector-curvature="0" />
</svg>
