<svg viewBox="984 984 32 32" xmlns="http://www.w3.org/2000/svg"><path d="m986.77778 986c-.43089 0-.77778.446-.77778 1v3.9218 2.0782 20.0782c0 .5114.31927.9218.71701.9218h26.56599c.3977 0 .717-.4104.717-.9218v-22.1564c0-.5114-.3193-.9218-.717-.9218h-12.7263c-.88639.034-1.31639-.2642-1.70739-.7362l-1.8486-2.42c-.2614-.4404-.4587-.8438-.8896-.8438z" fill="#4285f4"/><path d="m1008.0524 1000.5182c-.056-.073-.1285-.1165-.2188-.1303l-1.9062-.2917c-.1042-.33328-.2466-.6735-.4271-1.02075.1249-.17363.3123-.41835.5623-.73441.2499-.31606.427-.54684.5312-.69272.056-.0765.083-.15624.083-.2396 0-.0972-.024-.1735-.073-.22912-.2499-.35429-.8229-.94447-1.7187-1.77093-.083-.0694-.1701-.10407-.2602-.10407-.1042 0-.1876.0312-.2501.0936l-1.4791 1.11464c-.2848-.14588-.5973-.27438-.9375-.38548l-.2917-1.91656c-.01-.0903-.047-.16493-.1198-.224-.073-.0591-.1579-.0885-.2553-.0885h-2.31234c-.20137 0-.32642.0972-.375.29164-.0903.34713-.19102.99293-.30213 1.9374-.32641.10433-.64234.23628-.94792.39597l-1.43748-1.11465c-.0903-.0694-.18053-.10407-.2708-.10407-.15279 0-.48087.24816-.98436.74476-.5035.49659-.84538.8698-1.02604 1.11976-.0625.0903-.0937.17017-.0937.2396 0 .0834.0346.16672.10407.24996.46527.56256.83682 1.04164 1.11465 1.43761-.17363.31938-.30903.63894-.4062.95822l-1.93753.2917c-.0763.014-.1423.059-.19792.1355-.0556.076-.0834.1562-.0834.2395v2.3125c0 .09.0277.1718.0834.2447.0556.073.1285.1166.21877.1304l1.90633.2813c.0972.3402.23947.6839.42703 1.031-.12491.1737-.31248.4184-.56243.7345-.24996.316-.42717.5468-.53124.6927-.0556.077-.0834.1562-.0834.2396 0 .09.0243.17.0729.2395.2708.3751.84372.9585 1.71877 1.75.0765.076.16327.1146.26044.1146.1042 0 .19101-.031.26044-.094l1.46881-1.1148c.28486.1459.59734.2744.93756.3856l.29164 1.9166c.007.09.0469.1649.1198.224.0729.059.15803.089.2552.089h2.31248c.2016 0 .3266-.097.3753-.2916.09-.3473.1907-.993.3018-1.9374.3264-.1042.6425-.2363.948-.396l1.4376 1.1251c.097.062.1875.094.2708.094.1526 0 .479-.2463.979-.7395.5001-.493.8438-.8681 1.0311-1.1251.062-.069.094-.1492.094-.2395 0-.09-.035-.1773-.1042-.2604-.4999-.6112-.8715-1.0903-1.1146-1.4375.1388-.257.2743-.5729.4063-.9479l1.927-.2916c.083-.014.153-.059.2084-.1356.055-.077.083-.1564.083-.2396v-2.3124c.0002-.09-.028-.1717-.083-.2447zm-6.0311 3.2655c-.5207.5209-1.1493.7813-1.8855.7813-.73615 0-1.36453-.2604-1.88542-.7813-.52075-.5207-.78119-1.1491-.78119-1.8853s.26031-1.3646.78119-1.8855c.52089-.52077 1.14947-.78121 1.88542-.78121.7362 0 1.3648.26044 1.8855.78121.5208.5209.7812 1.1493.7812 1.8855s-.2604 1.3646-.7812 1.8853z" fill="#fff"/></svg>