<svg height="32" viewBox="0 0 32 32" width="32" xmlns="http://www.w3.org/2000/svg"><path d="m2.7777782 1.9999998c-.430889 0-.777778.445999-.777778.999999v3.921801 2.0782 20.0781992c0 .5114.319271.921801.717014.921801h26.5659708c.397743 0 .717015-.4104.717015-.921801v-22.1563992c0-.5114-.319272-.9218-.717015-.9218h-12.726246c-.886457.034-1.31646-.2642-1.707424-.7362l-1.848624-2.42c-.261411-.4404-.458691-.8438-.88958-.8438z" fill="#4285f4"/><path d="m8.6679689 9.8644067c-.369134 0-.6679689.2988753-.6679689.6679693v14.664062c0 .369134.298835.667969.6679689.667969h14.6640621c.369134 0 .667969-.298835.667969-.667969v-11.558593c0-.177214-.06994-.347316-.195312-.472657l-3.105469-3.105468c-.12534-.1253343-.295351-.1953133-.472657-.1953133zm1.9707031 1.5273443h9.177734v4.900391h-9.177734zm5.570312.472656c-.115073 0-.208984.107395-.208984.240235v3.519531c0 .13288.09391.240234.208984.240234h1.582032c.115073 0 .208984-.107354.208984-.240234v-3.519531c0-.13284-.09391-.240235-.208984-.240235z" fill="#fff"/></svg>