<?xml version="1.0" encoding="UTF-8" standalone="no"?>
<svg
   xmlns:dc="http://purl.org/dc/elements/1.1/"
   xmlns:cc="http://creativecommons.org/ns#"
   xmlns:rdf="http://www.w3.org/1999/02/22-rdf-syntax-ns#"
   xmlns:svg="http://www.w3.org/2000/svg"
   xmlns="http://www.w3.org/2000/svg"
   xmlns:sodipodi="http://sodipodi.sourceforge.net/DTD/sodipodi-0.dtd"
   xmlns:inkscape="http://www.inkscape.org/namespaces/inkscape"
   viewBox="984 984 32 32"
   version="1.1"
   id="svg8"
   sodipodi:docname="3.svg"
   inkscape:version="0.92.4 5da689c313, 2019-01-14">
  <metadata
     id="metadata14">
    <rdf:RDF>
      <cc:Work
         rdf:about="">
        <dc:format>image/svg+xml</dc:format>
        <dc:type
           rdf:resource="http://purl.org/dc/dcmitype/StillImage" />
      </cc:Work>
    </rdf:RDF>
  </metadata>
  <defs
     id="defs12" />
  <sodipodi:namedview
     pagecolor="#ffffff"
     bordercolor="#666666"
     borderopacity="1"
     objecttolerance="10"
     gridtolerance="10"
     guidetolerance="10"
     inkscape:pageopacity="0"
     inkscape:pageshadow="2"
     inkscape:window-width="1366"
     inkscape:window-height="703"
     id="namedview10"
     showgrid="false"
     inkscape:zoom="7.375"
     inkscape:cx="16"
     inkscape:cy="16"
     inkscape:window-x="0"
     inkscape:window-y="0"
     inkscape:window-maximized="1"
     inkscape:current-layer="svg8" />
  <g
     id="g17">
    <path
       id="path2"
       d="M-43.8-437.5H2700v2625H-43.8z"
       fill="none" />
    <path
       id="path4-3"
       d="m 985.73343,988.8281 c -0.29939,0 -0.54017,0.24423 -0.54017,0.54813 v 22.38477 l 30.00004,0.065 v -19.21115 c 0,-0.3038 -0.2408,-0.54813 -0.5402,-0.54813 h -16.26153 c -0.551,0.049 -0.62313,-0.0255 -0.89525,-0.39466 -0.38622,-0.52438 -0.96856,-1.93787 -1.34859,-2.44934 -0.30519,-0.44781 -0.35528,-0.3948 -0.86122,-0.3948 z"
       class="ColorScheme-Text"
       style="fill:#1d99f3;fill-opacity:1;stroke:none;stroke-width:1.94820786"
       inkscape:connector-curvature="0" />
    <path
       style="fill:#ececec;stroke-width:0.71154952"
       inkscape:connector-curvature="0"
       id="path6"
       d="m 1006.4847,1002.002 c 0,0.2071 -0.073,0.4143 -0.22,0.6215 l -4.4721,4.2125 c -0.1467,0.1381 -0.3666,0.2072 -0.6599,0.2072 -0.2199,0 -0.4399,-0.069 -0.5865,-0.2072 l -0.5132,-0.4834 c -0.14657,-0.1381 -0.29317,-0.3453 -0.29317,-0.6215 0,-0.2763 0.073,-0.4144 0.29317,-0.6216 l 2.0528,-1.9335 h -8.57767 c -0.21992,0 -0.43986,-0.069 -0.58649,-0.2763 -0.14663,-0.1381 -0.21994,-0.3453 -0.21994,-0.6215 v -0.8287 c 0,-0.2072 0.0733,-0.4144 0.21994,-0.6216 0.14663,-0.1381 0.36657,-0.2763 0.58649,-0.2763 h 8.50437 l -2.05277,-1.93365 c -0.1466,-0.1381 -0.2932,-0.3453 -0.2932,-0.5525 0,-0.2072 0.073,-0.4144 0.2932,-0.5525 l 0.51317,-0.4834 c 0.1466,-0.1381 0.3666,-0.2762 0.5865,-0.2762 0.22,0 0.4399,0.069 0.6598,0.2762 l 4.4722,4.21275 c 0.2199,0.3453 0.2933,0.5525 0.2933,0.7597 z" />
  </g>
</svg>
