<?xml version="1.0" encoding="UTF-8" standalone="no"?>
<svg
   xmlns:dc="http://purl.org/dc/elements/1.1/"
   xmlns:cc="http://creativecommons.org/ns#"
   xmlns:rdf="http://www.w3.org/1999/02/22-rdf-syntax-ns#"
   xmlns:svg="http://www.w3.org/2000/svg"
   xmlns="http://www.w3.org/2000/svg"
   xmlns:sodipodi="http://sodipodi.sourceforge.net/DTD/sodipodi-0.dtd"
   xmlns:inkscape="http://www.inkscape.org/namespaces/inkscape"
   viewBox="0 0 32 32"
   version="1.1"
   id="svg6"
   sodipodi:docname="document-save.svg"
   inkscape:version="0.92.4 5da689c313, 2019-01-14"
   width="32"
   height="32">
  <metadata
     id="metadata10">
    <rdf:RDF>
      <cc:Work
         rdf:about="">
        <dc:format>image/svg+xml</dc:format>
        <dc:type
           rdf:resource="http://purl.org/dc/dcmitype/StillImage" />
        <dc:title />
      </cc:Work>
    </rdf:RDF>
  </metadata>
  <sodipodi:namedview
     pagecolor="#ffffff"
     bordercolor="#666666"
     borderopacity="1"
     objecttolerance="10"
     gridtolerance="10"
     guidetolerance="10"
     inkscape:pageopacity="0"
     inkscape:pageshadow="2"
     inkscape:window-width="1366"
     inkscape:window-height="703"
     id="namedview8"
     showgrid="false"
     inkscape:zoom="10.727273"
     inkscape:cx="11"
     inkscape:cy="11"
     inkscape:window-x="0"
     inkscape:window-y="0"
     inkscape:window-maximized="1"
     inkscape:current-layer="svg6" />
  <defs
     id="defs">
    <style
       type="text/css"
       id="current-color-scheme">
        .ColorScheme-Text { color: #f2f2f2; }
    </style>
  </defs>
  <path
     style="color:#f2f2f2;fill:#1d99f3;fill-opacity:1;stroke:none;stroke-width:1.75"
     class="ColorScheme-Text"
     d="m 3.3299637,2.118646 c -0.6459843,0 -1.1689454,0.5230313 -1.1689454,1.168944 V 28.9497 c 0,0.645985 0.5229611,1.168946 1.1689454,1.168946 H 28.992072 c 0.645985,0 1.168947,-0.522961 1.168947,-1.168946 V 8.7221607 c 0,-0.3101227 -0.122396,-0.6078029 -0.341797,-0.827148 L 24.384652,2.460442 C 24.165306,2.2411093 23.867787,2.118646 23.557502,2.118646 Z M 6.7786942,4.7914962 H 22.839728 V 13.36718 H 6.7786942 Z M 16.52674,5.618646 c -0.201377,0 -0.365722,0.1879395 -0.365722,0.4204095 v 6.1591785 c 0,0.23254 0.164342,0.420412 0.365722,0.420412 h 2.768556 c 0.201378,0 0.365722,-0.187872 0.365722,-0.420412 V 6.0390555 c 0,-0.23247 -0.164342,-0.4204095 -0.365722,-0.4204095 z"
     id="path4"
     inkscape:connector-curvature="0" />
</svg>
