<?xml version="1.0" encoding="UTF-8" standalone="no"?>
<svg
   xmlns:dc="http://purl.org/dc/elements/1.1/"
   xmlns:cc="http://creativecommons.org/ns#"
   xmlns:rdf="http://www.w3.org/1999/02/22-rdf-syntax-ns#"
   xmlns:svg="http://www.w3.org/2000/svg"
   xmlns="http://www.w3.org/2000/svg"
   xmlns:sodipodi="http://sodipodi.sourceforge.net/DTD/sodipodi-0.dtd"
   xmlns:inkscape="http://www.inkscape.org/namespaces/inkscape"
   viewBox="0 0 32 32"
   version="1.1"
   id="svg6"
   sodipodi:docname="document-edit-verify.svg"
   inkscape:version="0.92.4 5da689c313, 2019-01-14"
   width="32"
   height="32">
  <metadata
     id="metadata10">
    <rdf:RDF>
      <cc:Work
         rdf:about="">
        <dc:format>image/svg+xml</dc:format>
        <dc:type
           rdf:resource="http://purl.org/dc/dcmitype/StillImage" />
        <dc:title />
      </cc:Work>
    </rdf:RDF>
  </metadata>
  <sodipodi:namedview
     pagecolor="#ffffff"
     bordercolor="#666666"
     borderopacity="1"
     objecttolerance="10"
     gridtolerance="10"
     guidetolerance="10"
     inkscape:pageopacity="0"
     inkscape:pageshadow="2"
     inkscape:window-width="1366"
     inkscape:window-height="703"
     id="namedview8"
     showgrid="false"
     inkscape:zoom="10.727273"
     inkscape:cx="11"
     inkscape:cy="11"
     inkscape:window-x="0"
     inkscape:window-y="0"
     inkscape:window-maximized="1"
     inkscape:current-layer="svg6" />
  <defs
     id="defs3051">
    <style
       type="text/css"
       id="current-color-scheme">
     .ColorScheme-Text {
       color:#f2f2f2;
     }
     </style>
  </defs>
  <path
     style="color:#f2f2f2;fill:#1d99f3;fill-opacity:1;stroke:none;stroke-width:1.87082875"
     d="m 3.3161518,1.932203 c -0.8618601,0 -1.55344,0.6257649 -1.55344,1.4013645 V 28.530838 c 0,0.7756 0.6915799,1.401365 1.55344,1.401365 H 28.209272 c 0.861859,0 1.553439,-0.625765 1.553439,-1.401365 V 3.3335675 c 0,-0.7755996 -0.69158,-1.4013645 -1.553439,-1.4013645 z m 1.75474,1.2885779 a 1.7711816,1.5938909 0 0 1 1.7737399,1.5927622 1.7711816,1.5938909 0 0 1 -1.7737399,1.5961923 1.7711816,1.5938909 0 0 1 -1.76992,-1.5961923 1.7711816,1.5938909 0 0 1 1.76992,-1.5927622 z m 4.30712,0 A 1.7711816,1.5938909 0 0 1 11.151731,4.8135431 1.7711816,1.5938909 0 0 1 9.3780118,6.4097354 1.7711816,1.5938909 0 0 1 7.6080717,4.8135431 1.7711816,1.5938909 0 0 1 9.3780118,3.2207809 Z m 4.3412992,0 a 1.7711816,1.5938909 0 0 1 1.773741,1.5927622 1.7711816,1.5938909 0 0 1 -1.773741,1.5961923 1.7711816,1.5938909 0 0 1 -1.769959,-1.5961923 1.7711816,1.5938909 0 0 1 1.769959,-1.5927622 z m 4.295702,0 a 1.7711816,1.5938909 0 0 1 1.773739,1.5927622 1.7711816,1.5938909 0 0 1 -1.773739,1.5961923 1.7711816,1.5938909 0 0 1 -1.769922,-1.5961923 1.7711816,1.5938909 0 0 1 1.769922,-1.5927622 z m 4.227338,0 a 1.7711816,1.5938909 0 0 1 1.76996,1.5927622 1.7711816,1.5938909 0 0 1 -1.76996,1.59278 1.7711816,1.5938909 0 0 1 -1.773739,-1.59278 1.7711816,1.5938909 0 0 1 1.773739,-1.5927622 z m 4.21218,0 a 1.7711816,1.5938909 0 0 1 1.769922,1.5927622 1.7711816,1.5938909 0 0 1 -1.769922,1.5961923 1.7711816,1.5938909 0 0 1 -1.77374,-1.5961923 1.7711816,1.5938909 0 0 1 1.77374,-1.5927622 z M 7.1788918,7.0318079 A 1.7711816,1.5938909 0 0 1 8.9488117,8.6280001 1.7711816,1.5938909 0 0 1 7.1788918,10.22078 1.7711816,1.5938909 0 0 1 5.4089318,8.6280001 1.7711816,1.5938909 0 0 1 7.1788918,7.0318079 Z m 4.3070992,0 a 1.7711816,1.5938909 0 0 1 1.769941,1.59278 1.7711816,1.5938909 0 0 1 -1.769941,1.5961921 1.7711816,1.5938909 0 0 1 -1.7737394,-1.5961921 1.7711816,1.5938909 0 0 1 1.7737394,-1.59278 z m 4.341281,0 a 1.7711816,1.5938909 0 0 1 1.769941,1.59278 1.7711816,1.5938909 0 0 1 -1.769941,1.5961921 1.7711816,1.5938909 0 0 1 -1.76992,-1.5961921 1.7711816,1.5938909 0 0 1 1.76992,-1.59278 z m 4.29572,0 a 1.7711816,1.5938909 0 0 1 1.76994,1.59278 1.7711816,1.5938909 0 0 1 -1.76994,1.5961921 1.7711816,1.5938909 0 0 1 -1.77374,-1.5961921 1.7711816,1.5938909 0 0 1 1.77374,-1.59278 z m 4.223541,0 a 1.7711816,1.5938909 0 0 1 1.769959,1.59278 1.7711816,1.5938909 0 0 1 -1.769959,1.5961921 1.7711816,1.5938909 0 0 1 -1.769941,-1.5961921 1.7711816,1.5938909 0 0 1 1.769941,-1.59278 z M 5.0708918,10.877031 a 1.7711816,1.5938909 0 0 1 1.7737399,1.596191 1.7711816,1.5938909 0 0 1 -1.7737399,1.592763 1.7711816,1.5938909 0 0 1 -1.76992,-1.592763 1.7711816,1.5938909 0 0 1 1.76992,-1.596191 z m 4.30712,0 a 1.7711816,1.5938909 0 0 1 1.7737192,1.592761 1.7711816,1.5938909 0 0 1 -1.7737192,1.596193 1.7711816,1.5938909 0 0 1 -1.7699401,-1.596193 1.7711816,1.5938909 0 0 1 1.7699401,-1.592761 z m 4.3412992,0 a 1.7711816,1.5938909 0 0 1 1.773741,1.592761 1.7711816,1.5938909 0 0 1 -1.773741,1.596193 1.7711816,1.5938909 0 0 1 -1.769959,-1.596193 1.7711816,1.5938909 0 0 1 1.769959,-1.592761 z m 4.295702,0 a 1.7711816,1.5938909 0 0 1 1.773739,1.592761 1.7711816,1.5938909 0 0 1 -1.773739,1.596193 1.7711816,1.5938909 0 0 1 -1.769922,-1.596193 1.7711816,1.5938909 0 0 1 1.769922,-1.592761 z m 4.227338,0 a 1.7711816,1.5938909 0 0 1 1.76996,1.592761 1.7711816,1.5938909 0 0 1 -1.76996,1.596193 1.7711816,1.5938909 0 0 1 -1.773739,-1.596193 1.7711816,1.5938909 0 0 1 1.773739,-1.592761 z m 4.21218,0 a 1.7711816,1.5938909 0 0 1 1.769922,1.592761 1.7711816,1.5938909 0 0 1 -1.769922,1.596193 1.7711816,1.5938909 0 0 1 -1.77374,-1.596193 1.7711816,1.5938909 0 0 1 1.77374,-1.592761 z m -11.10202,5.974605 c 0.71852,0.04217 1.398101,0.206114 2.03582,0.4956 0.63752,0.289397 1.177921,0.662496 1.621801,1.11769 0.44388,0.455174 0.78184,0.986246 1.017899,1.592762 0.236161,0.606445 0.331721,1.233277 0.284861,1.879884 -0.0722,0.994753 -0.450119,1.879554 -1.13184,2.652353 l 2.41942,2.478018 c 0.173799,0.178167 0.24914,0.38598 0.23168,0.625485 -0.018,0.235095 -0.127007,0.434192 -0.330441,0.594738 -0.203179,0.16065 -0.433799,0.230668 -0.695058,0.21532 -0.271501,-0.01575 -0.492481,-0.114981 -0.66088,-0.29736 l -2.415621,-2.471193 c -0.94002,0.507903 -1.96332,0.731394 -3.068919,0.666505 -0.718502,-0.04218 -1.398182,-0.209528 -2.035801,-0.499012 -0.637501,-0.289485 -1.177921,-0.658998 -1.62182,-1.114261 -0.44388,-0.455192 -0.781821,-0.986335 -1.0178803,-1.592779 -0.2361601,-0.606602 -0.33174,-1.233278 -0.2848801,-1.879886 0.0468,-0.64659 0.2328599,-1.258232 0.5545394,-1.832022 0.32158,-0.57372 0.73238,-1.060028 1.2382,-1.459483 0.505801,-0.399455 1.095941,-0.703587 1.769921,-0.916002 0.6739,-0.212521 1.370479,-0.298533 2.088999,-0.256357 z m -0.125203,1.736332 c -0.929542,-0.0546 -1.746001,0.19607 -2.449821,0.751957 -0.70378,0.555782 -1.08642,1.251881 -1.14704,2.08838 -0.0606,0.836571 0.217899,1.571149 0.8356,2.204581 0.6177,0.633342 1.39114,0.977671 2.32068,1.032219 0.92962,0.0546 1.7459,-0.19607 2.449801,-0.751939 0.7038,-0.555887 1.08642,-1.25181 1.147039,-2.088381 0.06059,-0.836499 -0.21788,-1.571238 -0.83558,-2.204597 -0.617799,-0.63336 -1.391159,-0.977674 -2.320679,-1.03222 z"
     class="ColorScheme-Text"
     id="path4"
     inkscape:connector-curvature="0" />
</svg>
