<svg viewBox="984 984 32 32" xmlns="http://www.w3.org/2000/svg"><path d="m1013.2 994.1c-.2-.4-.4-.8-.6-1l-4.2-4.2c-.3-.3-.6-.5-1-.6-.4-.2-.8-.3-1.2-.3h-12c-.4 0-.7.1-.9.4s-.4.6-.4.9v6.2c.5-.3 1.1-.4 1.7-.5v-5.3h10.3v5.6c0 .4.1.7.4.9.3.3.6.4.9.4h5.6v13.7h-17.2v-5.5c-.6-.1-1.2-.2-1.7-.5v6.4c0 .4.1.7.4.9s.6.4.9.4h18c.4 0 .7-.1.9-.4s.4-.6.4-.9v-15.4c0-.4-.1-.8-.3-1.2zm-6.6.8v-5c.3.1.4.2.5.3l4.2 4.2c.1.1.2.3.3.5z" fill="#375273"/><path d="m-43.8-437.5h2743.8v2625h-2743.8z" fill="none"/><path d="m986.5 1006.6 3.2-3.2c-.8-1.1-1.2-2.4-1.2-3.8 0-.9.2-1.8.5-2.6s.8-1.5 1.4-2.1 1.3-1.1 2.1-1.4 1.7-.5 2.6-.5 1.8.2 2.6.5 1.5.8 2.1 1.4 1.1 1.3 1.4 2.1.5 1.7.5 2.6-.2 1.8-.5 2.6-.8 1.5-1.4 2.1-1.3 1.1-2.1 1.4-1.7.5-2.6.5c-1.4 0-2.6-.4-3.8-1.2l-3.2 3.2c-.2.2-.5.4-.8.4s-.6-.1-.8-.4-.4-.5-.4-.8.1-.6.4-.8zm8.6-2.8c1.2 0 2.2-.4 3-1.2s1.2-1.8 1.2-3-.4-2.2-1.2-3-1.8-1.2-3-1.2-2.2.4-3 1.2-1.2 1.8-1.2 3 .4 2.2 1.2 3 1.9 1.2 3 1.2z" fill="#375273"/></svg>