<?xml version="1.0" encoding="UTF-8" standalone="no"?>
<svg
   xmlns:dc="http://purl.org/dc/elements/1.1/"
   xmlns:cc="http://creativecommons.org/ns#"
   xmlns:rdf="http://www.w3.org/1999/02/22-rdf-syntax-ns#"
   xmlns:svg="http://www.w3.org/2000/svg"
   xmlns="http://www.w3.org/2000/svg"
   xmlns:sodipodi="http://sodipodi.sourceforge.net/DTD/sodipodi-0.dtd"
   xmlns:inkscape="http://www.inkscape.org/namespaces/inkscape"
   viewBox="0 0 32 32"
   version="1.1"
   id="svg4"
   sodipodi:docname="document-encrypt.svg"
   inkscape:version="0.92.4 5da689c313, 2019-01-14"
   width="32"
   height="32">
  <metadata
     id="metadata10">
    <rdf:RDF>
      <cc:Work
         rdf:about="">
        <dc:format>image/svg+xml</dc:format>
        <dc:type
           rdf:resource="http://purl.org/dc/dcmitype/StillImage" />
        <dc:title />
      </cc:Work>
    </rdf:RDF>
  </metadata>
  <defs
     id="defs8" />
  <sodipodi:namedview
     pagecolor="#ffffff"
     bordercolor="#666666"
     borderopacity="1"
     objecttolerance="10"
     gridtolerance="10"
     guidetolerance="10"
     inkscape:pageopacity="0"
     inkscape:pageshadow="2"
     inkscape:window-width="1366"
     inkscape:window-height="703"
     id="namedview6"
     showgrid="false"
     inkscape:zoom="10.727273"
     inkscape:cx="11"
     inkscape:cy="11"
     inkscape:window-x="0"
     inkscape:window-y="0"
     inkscape:window-maximized="1"
     inkscape:current-layer="svg4" />
  <path
     d="M 22.563466,13.814424 H 9.3857806 v -3.690062 c 0,-3.2959184 2.9557044,-5.9772283 6.5888434,-5.9772283 3.633137,0 6.588842,2.6814975 6.588842,5.9772283 z m 3.515031,0.03354 v -3.723979 c 0,-5.054199 -4.532547,-9.16636094 -10.103873,-9.16636094 -5.571328,0 -10.1038767,4.11216194 -10.1038767,9.16636094 v 3.723979 C 5.0745054,13.99892 4.4745764,14.641661 4.4745764,15.408335 v 13.955001 c 0,0.879046 0.7884216,1.594288 1.7575164,1.594288 H 25.717065 c 0.969093,0 1.757512,-0.715242 1.757512,-1.594288 V 15.408338 c 0,-0.766674 -0.599832,-1.408676 -1.39608,-1.560371 z"
     id="path2"
     style="fill:#f47750;fill-opacity:1;stroke-width:1.98001361"
     inkscape:connector-curvature="0" />
</svg>
