<?xml version="1.0" encoding="UTF-8" standalone="no"?>
<svg
   xmlns:dc="http://purl.org/dc/elements/1.1/"
   xmlns:cc="http://creativecommons.org/ns#"
   xmlns:rdf="http://www.w3.org/1999/02/22-rdf-syntax-ns#"
   xmlns:svg="http://www.w3.org/2000/svg"
   xmlns="http://www.w3.org/2000/svg"
   xmlns:sodipodi="http://sodipodi.sourceforge.net/DTD/sodipodi-0.dtd"
   xmlns:inkscape="http://www.inkscape.org/namespaces/inkscape"
   viewBox="0 0 22 22"
   version="1.1"
   id="svg6"
   sodipodi:docname="document-edit-verify.svg"
   inkscape:version="0.92.4 5da689c313, 2019-01-14">
  <metadata
     id="metadata10">
    <rdf:RDF>
      <cc:Work
         rdf:about="">
        <dc:format>image/svg+xml</dc:format>
        <dc:type
           rdf:resource="http://purl.org/dc/dcmitype/StillImage" />
      </cc:Work>
    </rdf:RDF>
  </metadata>
  <sodipodi:namedview
     pagecolor="#ffffff"
     bordercolor="#666666"
     borderopacity="1"
     objecttolerance="10"
     gridtolerance="10"
     guidetolerance="10"
     inkscape:pageopacity="0"
     inkscape:pageshadow="2"
     inkscape:window-width="1366"
     inkscape:window-height="703"
     id="namedview8"
     showgrid="false"
     inkscape:zoom="10.727273"
     inkscape:cx="11"
     inkscape:cy="11"
     inkscape:window-x="0"
     inkscape:window-y="0"
     inkscape:window-maximized="1"
     inkscape:current-layer="svg6" />
  <defs
     id="defs3051">
    <style
       type="text/css"
       id="current-color-scheme">
     .ColorScheme-Text {
       color:#f2f2f2;
     }
     </style>
  </defs>
  <path
     style="color:#f2f2f2;fill:#1d99f3;fill-opacity:1;stroke:none;stroke-width:1.24818015"
     d="m 2.694461,1.6016949 c -0.5686607,0 -1.0249695,0.4221641 -1.0249695,0.9454124 V 19.546113 c 0,0.523248 0.4563088,0.945412 1.0249695,0.945412 h 16.424638 c 0.56866,0 1.024969,-0.422164 1.024969,-0.945412 V 2.5471073 c 0,-0.5232483 -0.456309,-0.9454124 -1.024969,-0.9454124 z M 3.8522495,2.4710167 A 1.1686368,1.0752974 0 0 1 5.0225743,3.5455529 1.1686368,1.0752974 0 0 1 3.8522495,4.6224031 1.1686368,1.0752974 0 0 1 2.6844451,3.5455529 1.1686368,1.0752974 0 0 1 3.8522495,2.4710167 Z m 2.8418649,0 A 1.1686368,1.0752974 0 0 1 7.864426,3.5455529 1.1686368,1.0752974 0 0 1 6.6941144,4.6224031 1.1686368,1.0752974 0 0 1 5.5262968,3.5455529 1.1686368,1.0752974 0 0 1 6.6941144,2.4710167 Z m 2.864417,0 A 1.1686368,1.0752974 0 0 1 10.728857,3.5455529 1.1686368,1.0752974 0 0 1 9.5585314,4.6224031 1.1686368,1.0752974 0 0 1 8.3907007,3.5455529 1.1686368,1.0752974 0 0 1 9.5585314,2.4710167 Z m 2.8343306,0 a 1.1686368,1.0752974 0 0 1 1.170325,1.0745362 1.1686368,1.0752974 0 0 1 -1.170325,1.0768502 1.1686368,1.0752974 0 0 1 -1.167805,-1.0768502 1.1686368,1.0752974 0 0 1 1.167805,-1.0745362 z m 2.789225,0 a 1.1686368,1.0752974 0 0 1 1.167831,1.0745362 1.1686368,1.0752974 0 0 1 -1.167831,1.074548 1.1686368,1.0752974 0 0 1 -1.170324,-1.074548 1.1686368,1.0752974 0 0 1 1.170324,-1.0745362 z m 2.779223,0 A 1.1686368,1.0752974 0 0 1 19.129115,3.5455529 1.1686368,1.0752974 0 0 1 17.96131,4.6224031 1.1686368,1.0752974 0 0 1 16.790985,3.5455529 1.1686368,1.0752974 0 0 1 17.96131,2.4710167 Z M 5.2431212,5.0420761 A 1.1686368,1.0752974 0 0 1 6.4109255,6.1189263 1.1686368,1.0752974 0 0 1 5.2431212,7.1934743 1.1686368,1.0752974 0 0 1 4.0752904,6.1189263 1.1686368,1.0752974 0 0 1 5.2431212,5.0420761 Z m 2.8418516,0 A 1.1686368,1.0752974 0 0 1 9.2527904,6.1166241 1.1686368,1.0752974 0 0 1 8.0849728,7.1934743 1.1686368,1.0752974 0 0 1 6.914648,6.1166241 1.1686368,1.0752974 0 0 1 8.0849728,5.0420761 Z m 2.8644042,0 a 1.1686368,1.0752974 0 0 1 1.167818,1.074548 1.1686368,1.0752974 0 0 1 -1.167818,1.0768502 1.1686368,1.0752974 0 0 1 -1.1678044,-1.0768502 1.1686368,1.0752974 0 0 1 1.1678044,-1.074548 z m 2.834343,0 a 1.1686368,1.0752974 0 0 1 1.167818,1.074548 1.1686368,1.0752974 0 0 1 -1.167818,1.0768502 1.1686368,1.0752974 0 0 1 -1.170324,-1.0768502 1.1686368,1.0752974 0 0 1 1.170324,-1.074548 z m 2.786719,0 a 1.1686368,1.0752974 0 0 1 1.16783,1.074548 1.1686368,1.0752974 0 0 1 -1.16783,1.0768502 1.1686368,1.0752974 0 0 1 -1.167818,-1.0768502 1.1686368,1.0752974 0 0 1 1.167818,-1.074548 z M 3.8522495,7.6362048 A 1.1686368,1.0752974 0 0 1 5.0225743,8.7130545 1.1686368,1.0752974 0 0 1 3.8522495,9.7875907 1.1686368,1.0752974 0 0 1 2.6844451,8.7130545 1.1686368,1.0752974 0 0 1 3.8522495,7.6362048 Z m 2.8418649,0 A 1.1686368,1.0752974 0 0 1 7.864426,8.7107405 1.1686368,1.0752974 0 0 1 6.6941144,9.7875907 1.1686368,1.0752974 0 0 1 5.5262968,8.7107405 1.1686368,1.0752974 0 0 1 6.6941144,7.6362048 Z m 2.864417,0 A 1.1686368,1.0752974 0 0 1 10.728857,8.7107405 1.1686368,1.0752974 0 0 1 9.5585314,9.7875907 1.1686368,1.0752974 0 0 1 8.3907007,8.7107405 1.1686368,1.0752974 0 0 1 9.5585314,7.6362048 Z m 2.8343306,0 a 1.1686368,1.0752974 0 0 1 1.170325,1.0745357 1.1686368,1.0752974 0 0 1 -1.170325,1.0768502 1.1686368,1.0752974 0 0 1 -1.167805,-1.0768502 1.1686368,1.0752974 0 0 1 1.167805,-1.0745357 z m 2.789225,0 a 1.1686368,1.0752974 0 0 1 1.167831,1.0745357 1.1686368,1.0752974 0 0 1 -1.167831,1.0768502 1.1686368,1.0752974 0 0 1 -1.170324,-1.0768502 1.1686368,1.0752974 0 0 1 1.170324,-1.0745357 z m 2.779223,0 A 1.1686368,1.0752974 0 0 1 19.129115,8.7107405 1.1686368,1.0752974 0 0 1 17.96131,9.7875907 1.1686368,1.0752974 0 0 1 16.790985,8.7107405 1.1686368,1.0752974 0 0 1 17.96131,7.6362048 Z m -7.325183,4.0306882 c 0.474084,0.02845 0.922476,0.139052 1.343247,0.33435 0.42064,0.195238 0.777199,0.446945 1.070074,0.754035 0.292875,0.307077 0.515863,0.665358 0.671617,1.074536 0.15582,0.40913 0.218871,0.832014 0.187953,1.268239 -0.04764,0.671097 -0.296992,1.268016 -0.746796,1.789375 l 1.596349,1.671762 c 0.114674,0.120198 0.164384,0.260396 0.152864,0.421975 -0.01188,0.158604 -0.0838,0.292922 -0.218027,0.401232 -0.134059,0.10838 -0.286223,0.155617 -0.458604,0.145263 -0.179138,-0.01063 -0.324942,-0.07757 -0.436053,-0.20061 l -1.593842,-1.667158 c -0.620231,0.34265 -1.295411,0.493426 -2.024892,0.449649 C 9.7059456,18.081088 9.2574882,17.968186 8.8367825,17.772889 8.416156,17.577592 8.0595835,17.328305 7.7666955,17.021168 7.4738207,16.714078 7.2508457,16.35575 7.0950919,15.94662 6.939272,15.537384 6.8762077,15.114606 6.9071262,14.67838 c 0.030879,-0.436213 0.1536425,-0.84885 0.365889,-1.235949 0.2121805,-0.387053 0.483229,-0.715134 0.8169722,-0.984621 0.33373,-0.269487 0.7231081,-0.474666 1.1678043,-0.617969 0.4446439,-0.143374 0.9042513,-0.201401 1.3783353,-0.172948 z m -0.08261,1.171394 c -0.6133174,-0.03684 -1.1520225,0.132276 -1.6164073,0.507298 -0.4643585,0.374951 -0.7168268,0.844564 -0.7568242,1.408898 -0.039984,0.564381 0.1437718,1.059955 0.5513341,1.487291 0.4075623,0.427276 0.917883,0.659573 1.5311994,0.696373 0.613369,0.03683 1.151956,-0.132276 1.616394,-0.507286 0.464372,-0.375022 0.716827,-0.844517 0.756824,-1.408898 0.03998,-0.564334 -0.143759,-1.060015 -0.551321,-1.487303 -0.407628,-0.427288 -0.917896,-0.659574 -1.531199,-0.696373 z"
     class="ColorScheme-Text"
     id="path4"
     inkscape:connector-curvature="0" />
</svg>
