<svg viewBox="0 0 32 32" xmlns="http://www.w3.org/2000/svg"><path d="m28.3 11.9v14.9c0 .4-.1.8-.4 1.1s-.7.4-1.1.4h-21.6c-.4 0-.8-.1-1.1-.4s-.4-.7-.4-1.1v-21.6c0-.4.1-.8.4-1.1s.7-.4 1.1-.4h14.9c.4 0 .9.1 1.4.3s.9.5 1.2.8l4.5 4.5c.3.3.6.7.8 1.2s.3 1 .3 1.4zm-4.1 14.3h2.1v-14.3c0-.1-.1-.4-.2-.6-.1-.3-.2-.4-.3-.6l-4.5-4.5c-.1-.1-.3-.2-.6-.3s-.5-.2-.6-.2v6.7c0 .4-.1.8-.4 1.1s-.7.5-1.1.5h-9.3c-.4 0-.8-.1-1.1-.4s-.4-.7-.4-1.1v-6.7h-2v20.5h2v-6.7c0-.4.1-.8.4-1.1s.7-.5 1.1-.5h13.3c.4 0 .8.1 1.1.4s.4.7.4 1.1v6.7zm-14.4 0h12.3v-6.1h-12.3zm8.2-14.8v-5.1c0-.2 0-.3-.1-.4s-.2-.2-.4-.2h-3.1c-.1 0-.3.1-.4.2v5.5c0 .1.1.3.2.4s.2.2.4.2h3.1c.1 0 .3-.1.4-.2-.1-.2-.1-.3-.1-.4z" fill="#375273"/></svg>