<?xml version="1.0" encoding="UTF-8" standalone="no"?>
<svg
   xmlns:dc="http://purl.org/dc/elements/1.1/"
   xmlns:cc="http://creativecommons.org/ns#"
   xmlns:rdf="http://www.w3.org/1999/02/22-rdf-syntax-ns#"
   xmlns:svg="http://www.w3.org/2000/svg"
   xmlns="http://www.w3.org/2000/svg"
   xmlns:sodipodi="http://sodipodi.sourceforge.net/DTD/sodipodi-0.dtd"
   xmlns:inkscape="http://www.inkscape.org/namespaces/inkscape"
   viewBox="984 984 32 32"
   version="1.1"
   id="svg8"
   sodipodi:docname="document-import.svg"
   inkscape:version="0.92.4 5da689c313, 2019-01-14">
  <metadata
     id="metadata14">
    <rdf:RDF>
      <cc:Work
         rdf:about="">
        <dc:format>image/svg+xml</dc:format>
        <dc:type
           rdf:resource="http://purl.org/dc/dcmitype/StillImage" />
      </cc:Work>
    </rdf:RDF>
  </metadata>
  <defs
     id="defs12" />
  <sodipodi:namedview
     pagecolor="#ffffff"
     bordercolor="#666666"
     borderopacity="1"
     objecttolerance="10"
     gridtolerance="10"
     guidetolerance="10"
     inkscape:pageopacity="0"
     inkscape:pageshadow="2"
     inkscape:window-width="1366"
     inkscape:window-height="703"
     id="namedview10"
     showgrid="false"
     inkscape:zoom="7.375"
     inkscape:cx="-15.389831"
     inkscape:cy="16"
     inkscape:window-x="0"
     inkscape:window-y="0"
     inkscape:window-maximized="1"
     inkscape:current-layer="svg8" />
  <path
     inkscape:connector-curvature="0"
     style="fill:#1d99f3;fill-opacity:1;stroke:none;stroke-width:1.73656487"
     class="ColorScheme-Text"
     d="m 985.99033,988.9893 c -0.29147,0 -0.52589,0.19932 -0.52589,0.44733 v 18.26847 l 29.20666,0.053 v -15.67828 c 0,-0.24802 -0.2344,-0.44734 -0.5259,-0.44734 h -15.83147 c -0.53643,0.0404 -0.60666,-0.0213 -0.87158,-0.3222 -0.37601,-0.42792 -0.94294,-1.58149 -1.31293,-1.99891 -0.29712,-0.36545 -0.34588,-0.32219 -0.83844,-0.32219 z"
     id="path4-3" />
  <path
     fill="none"
     d="M-43.8-437.5H2700v2625H-43.8z"
     id="path2" />
  <path
     d="m 1006.8067,1000.1185 c 0,0.2071 -0.073,0.4143 -0.22,0.6215 l -4.4721,4.2126 c -0.1467,0.1381 -0.3666,0.2072 -0.6599,0.2072 -0.2199,0 -0.4399,-0.069 -0.5865,-0.2072 l -0.5132,-0.4834 c -0.1466,-0.1381 -0.2932,-0.3453 -0.2932,-0.6215 0,-0.2763 0.073,-0.4144 0.2932,-0.6216 l 2.0528,-1.9336 h -8.57768 c -0.21994,0 -0.43988,-0.069 -0.58651,-0.2763 -0.14663,-0.1381 -0.21994,-0.3453 -0.21994,-0.6215 v -0.82871 c 0,-0.2072 0.0733,-0.4144 0.21994,-0.6216 0.14663,-0.1381 0.36657,-0.2763 0.58651,-0.2763 h 8.50438 l -2.0528,-1.9336 c -0.1466,-0.1381 -0.29324,-0.3453 -0.29324,-0.5525 0,-0.2072 0.0733,-0.4144 0.29324,-0.5525 l 0.5132,-0.4834 c 0.1466,-0.1381 0.3666,-0.2762 0.5865,-0.2762 0.22,0 0.4399,0.069 0.6598,0.2762 l 4.4722,4.2127 c 0.2199,0.3453 0.2933,0.5525 0.2933,0.75971 z"
     id="path6"
     inkscape:connector-curvature="0"
     style="fill:#ececec;stroke-width:0.71154952" />
</svg>
