<svg viewBox="984 984 32 32" xmlns="http://www.w3.org/2000/svg"><path d="m-43.8-437.5h2743.8v2625h-2743.8z" fill="none"/><g fill="#375273"><path d="m1012.2 993.1c.2.3.5.6.6 1 .2.4.3.8.3 1.2v15.4c0 .4-.1.7-.4.9s-.6.4-.9.4h-18c-.4 0-.7-.1-.9-.4s-.4-.6-.4-.9v-21.4c0-.4.1-.7.4-.9s.6-.4.9-.4h12c.4 0 .8.1 1.2.3s.8.4 1 .6zm-.8 17.2v-13.7h-5.6c-.4 0-.7-.1-.9-.4-.3-.2-.4-.6-.4-.9v-5.6h-10.3v20.6zm-5.2-20.5v5h5c-.1-.3-.2-.4-.3-.5l-4.2-4.2c0-.1-.2-.2-.5-.3z"/><path d="m1005.7 1001.4c0 .3-.1.6-.3.9l-6.1 6.1c-.2.2-.5.3-.9.3-.3 0-.6-.1-.8-.3l-.7-.7c-.2-.2-.4-.5-.4-.9s.1-.6.4-.9l2.8-2.8h-11.7c-.3 0-.6-.1-.8-.4-.2-.2-.3-.5-.3-.9v-1.2c0-.3.1-.6.3-.9.2-.2.5-.4.8-.4h11.6l-2.8-2.8c-.2-.2-.4-.5-.4-.8s.1-.6.4-.8l.7-.7c.2-.2.5-.4.8-.4s.6.1.9.4l6.1 6.1c.3.5.4.8.4 1.1z"/></g></svg>