<?xml version="1.0" encoding="UTF-8" standalone="no"?>
<svg
   xmlns:dc="http://purl.org/dc/elements/1.1/"
   xmlns:cc="http://creativecommons.org/ns#"
   xmlns:rdf="http://www.w3.org/1999/02/22-rdf-syntax-ns#"
   xmlns:svg="http://www.w3.org/2000/svg"
   xmlns="http://www.w3.org/2000/svg"
   xmlns:sodipodi="http://sodipodi.sourceforge.net/DTD/sodipodi-0.dtd"
   xmlns:inkscape="http://www.inkscape.org/namespaces/inkscape"
   viewBox="984 984 32 32"
   version="1.1"
   id="svg8"
   sodipodi:docname="document-properties.svg"
   inkscape:version="0.92.4 5da689c313, 2019-01-14">
  <metadata
     id="metadata14">
    <rdf:RDF>
      <cc:Work
         rdf:about="">
        <dc:format>image/svg+xml</dc:format>
        <dc:type
           rdf:resource="http://purl.org/dc/dcmitype/StillImage" />
        <dc:title></dc:title>
      </cc:Work>
    </rdf:RDF>
  </metadata>
  <defs
     id="defs12" />
  <sodipodi:namedview
     pagecolor="#ffffff"
     bordercolor="#666666"
     borderopacity="1"
     objecttolerance="10"
     gridtolerance="10"
     guidetolerance="10"
     inkscape:pageopacity="0"
     inkscape:pageshadow="2"
     inkscape:window-width="1366"
     inkscape:window-height="703"
     id="namedview10"
     showgrid="false"
     inkscape:zoom="7.375"
     inkscape:cx="16"
     inkscape:cy="16"
     inkscape:window-x="0"
     inkscape:window-y="0"
     inkscape:window-maximized="1"
     inkscape:current-layer="svg8" />
  <g
     id="g12">
    <path
       id="path2"
       d="M-43.8-437.5H2700v2625H-43.8z"
       fill="none" />
    <path
       id="path4"
       class="ColorScheme-Text"
       d="m 986.80979,986.59134 c -0.42984,0 -0.77589,0.31485 -0.77589,0.70594 v 2.76858 1.46706 14.17418 c 0,0.361 0.3185,0.6508 0.71527,0.6508 h 26.50173 c 0.3968,0 0.7152,-0.2898 0.7152,-0.6508 v -15.64124 c 0,-0.36102 -0.3184,-0.65074 -0.7152,-0.65074 h -12.6955 c -0.88437,0.024 -1.3133,-0.1865 -1.70331,-0.51971 l -1.84405,-1.7084 c -0.26081,-0.31089 -0.45774,-0.59567 -0.88754,-0.59567 z"
       style="fill:#1d99f3;fill-opacity:1;stroke:none;stroke-width:1.4801873"
       inkscape:connector-curvature="0" />
    <path
       id="path4-3"
       class="ColorScheme-Text"
       d="m 1012.7982,1004.9928 c -0.056,-0.073 -0.1285,-0.1165 -0.2188,-0.1303 l -1.9062,-0.2917 c -0.1042,-0.3333 -0.2466,-0.6735 -0.4271,-1.0208 0.1249,-0.1736 0.3123,-0.4183 0.5623,-0.7344 0.2499,-0.316 0.427,-0.5468 0.5312,-0.6927 0.056,-0.077 0.083,-0.1562 0.083,-0.2396 0,-0.097 -0.024,-0.1735 -0.073,-0.2291 -0.25,-0.3543 -0.8229,-0.9445 -1.7188,-1.77095 -0.083,-0.0694 -0.17,-0.10407 -0.2602,-0.10407 -0.1042,0 -0.1875,0.0312 -0.25,0.0936 l -1.4791,1.11462 c -0.2848,-0.1459 -0.5973,-0.2744 -0.9375,-0.3855 l -0.2917,-1.91652 c -0.01,-0.0903 -0.047,-0.16493 -0.1198,-0.224 -0.073,-0.0591 -0.1579,-0.0885 -0.2553,-0.0885 h -2.3124 c -0.2014,0 -0.3264,0.0972 -0.375,0.29164 -0.09,0.34713 -0.191,0.99293 -0.3021,1.93738 -0.3264,0.1044 -0.6423,0.2363 -0.9479,0.396 l -1.4375,-1.11466 c -0.09,-0.0694 -0.1805,-0.10407 -0.2708,-0.10407 -0.1528,0 -0.48088,0.24813 -0.98437,0.74473 -0.5035,0.4966 -0.84538,0.8698 -1.02604,1.1198 -0.0625,0.09 -0.0937,0.1702 -0.0937,0.2396 0,0.083 0.0346,0.1667 0.10407,0.25 0.46527,0.5625 0.83682,1.0416 1.11465,1.4376 -0.17363,0.3193 -0.30903,0.6389 -0.4062,0.9582 l -1.93753,0.2917 c -0.0763,0.014 -0.1423,0.059 -0.19792,0.1355 -0.0556,0.076 -0.0834,0.1562 -0.0834,0.2395 v 2.3125 c 0,0.09 0.0277,0.1718 0.0834,0.2447 0.0556,0.073 0.1285,0.1166 0.21877,0.1304 l 1.90633,0.2813 c 0.0972,0.3402 0.23947,0.6839 0.42703,1.031 -0.12491,0.1737 -0.31248,0.4184 -0.56243,0.7345 -0.24996,0.316 -0.42717,0.5468 -0.53124,0.6927 -0.0556,0.077 -0.0834,0.1562 -0.0834,0.2396 0,0.09 0.0243,0.17 0.0729,0.2395 0.2708,0.3751 0.84372,0.9585 1.71878,1.75 0.077,0.077 0.1633,0.1146 0.2604,0.1146 0.1042,0 0.191,-0.031 0.2605,-0.094 l 1.4688,-1.1148 c 0.2848,0.1459 0.5973,0.2744 0.9375,0.3856 l 0.2917,1.9166 c 0.01,0.09 0.047,0.1649 0.1198,0.224 0.073,0.059 0.158,0.089 0.2552,0.089 h 2.3125 c 0.2016,0 0.3265,-0.097 0.3752,-0.2916 0.09,-0.3473 0.1908,-0.993 0.3019,-1.9374 0.3264,-0.1042 0.6425,-0.2363 0.9479,-0.396 l 1.4376,1.1251 c 0.097,0.062 0.1876,0.094 0.2708,0.094 0.1527,0 0.4791,-0.2463 0.979,-0.7395 0.5002,-0.493 0.8439,-0.8681 1.0312,-1.1251 0.062,-0.069 0.094,-0.1492 0.094,-0.2395 0,-0.09 -0.035,-0.1773 -0.1042,-0.2604 -0.4999,-0.6112 -0.8715,-1.0903 -1.1147,-1.4375 0.1389,-0.257 0.2744,-0.5729 0.4064,-0.9479 l 1.927,-0.2916 c 0.083,-0.014 0.1529,-0.059 0.2084,-0.1356 0.055,-0.077 0.083,-0.1564 0.083,-0.2396 v -2.3124 c 1e-4,-0.09 -0.027,-0.1717 -0.083,-0.2447 z m -6.0311,3.2655 c -0.5208,0.5209 -1.1493,0.7813 -1.8855,0.7813 -0.7362,0 -1.3646,-0.2604 -1.8855,-0.7813 -0.5207,-0.5207 -0.7811,-1.1491 -0.7811,-1.8853 0,-0.7362 0.2603,-1.3646 0.7811,-1.8855 0.5209,-0.5208 1.1494,-0.7812 1.8855,-0.7812 0.7362,0 1.3647,0.2604 1.8855,0.7812 0.5208,0.5209 0.7812,1.1493 0.7812,1.8855 0,0.7362 -0.2604,1.3646 -0.7812,1.8853 z"
       style="fill:#fdbc4b;fill-opacity:1;stroke:none"
       inkscape:connector-curvature="0" />
  </g>
</svg>
