<?xml version="1.0" encoding="UTF-8" standalone="no"?>
<svg
   xmlns:dc="http://purl.org/dc/elements/1.1/"
   xmlns:cc="http://creativecommons.org/ns#"
   xmlns:rdf="http://www.w3.org/1999/02/22-rdf-syntax-ns#"
   xmlns:svg="http://www.w3.org/2000/svg"
   xmlns="http://www.w3.org/2000/svg"
   xmlns:sodipodi="http://sodipodi.sourceforge.net/DTD/sodipodi-0.dtd"
   xmlns:inkscape="http://www.inkscape.org/namespaces/inkscape"
   viewBox="0 0 22 22"
   version="1.1"
   id="svg6"
   sodipodi:docname="document-save.svg"
   inkscape:version="0.92.4 5da689c313, 2019-01-14">
  <metadata
     id="metadata10">
    <rdf:RDF>
      <cc:Work
         rdf:about="">
        <dc:format>image/svg+xml</dc:format>
        <dc:type
           rdf:resource="http://purl.org/dc/dcmitype/StillImage" />
      </cc:Work>
    </rdf:RDF>
  </metadata>
  <sodipodi:namedview
     pagecolor="#ffffff"
     bordercolor="#666666"
     borderopacity="1"
     objecttolerance="10"
     gridtolerance="10"
     guidetolerance="10"
     inkscape:pageopacity="0"
     inkscape:pageshadow="2"
     inkscape:window-width="1366"
     inkscape:window-height="703"
     id="namedview8"
     showgrid="false"
     inkscape:zoom="10.727273"
     inkscape:cx="11"
     inkscape:cy="11"
     inkscape:window-x="0"
     inkscape:window-y="0"
     inkscape:window-maximized="1"
     inkscape:current-layer="svg6" />
  <defs
     id="defs">
    <style
       type="text/css"
       id="current-color-scheme">
        .ColorScheme-Text { color: #f2f2f2; }
    </style>
  </defs>
  <path
     style="fill:#1d99f3;stroke:none;fill-opacity:1"
     class="ColorScheme-Text"
     d="m3.6679688 3c-.3691339 0-.6679688.2988749-.6679688.6679688v14.6640622c0 .369134.2988349.667969.6679688.667969h14.6640622c.369134 0 .667969-.298835.667969-.667969v-11.5585935c0-.1772133-.069939-.3473157-.195312-.4726563l-3.105469-3.1054687c-.12534-.1253333-.295351-.1953125-.472657-.1953125zm1.9707031 1.5273438h9.1777341v4.9003906h-9.1777341zm5.5703121.4726562c-.115073 0-.208984.1073944-.208984.2402344v3.5195312c0 .13288.093911.2402344.208984.2402344h1.582032c.115073 0 .208984-.1073544.208984-.2402344v-3.5195312c0-.13284-.093911-.2402344-.208984-.2402344z"
     transform="matrix(1.000000005 0 0 1.000000005 .000001275238 .00000172266)"
     id="path4" />
</svg>
