<?xml version="1.0" encoding="UTF-8" standalone="no"?>
<svg
   xmlns:dc="http://purl.org/dc/elements/1.1/"
   xmlns:cc="http://creativecommons.org/ns#"
   xmlns:rdf="http://www.w3.org/1999/02/22-rdf-syntax-ns#"
   xmlns:svg="http://www.w3.org/2000/svg"
   xmlns="http://www.w3.org/2000/svg"
   xmlns:sodipodi="http://sodipodi.sourceforge.net/DTD/sodipodi-0.dtd"
   xmlns:inkscape="http://www.inkscape.org/namespaces/inkscape"
   viewBox="0 0 32 32"
   version="1.1"
   id="svg4"
   sodipodi:docname="download.svg"
   inkscape:version="0.92.4 5da689c313, 2019-01-14"
   width="32"
   height="32">
  <metadata
     id="metadata10">
    <rdf:RDF>
      <cc:Work
         rdf:about="">
        <dc:format>image/svg+xml</dc:format>
        <dc:type
           rdf:resource="http://purl.org/dc/dcmitype/StillImage" />
        <dc:title />
      </cc:Work>
    </rdf:RDF>
  </metadata>
  <defs
     id="defs8" />
  <sodipodi:namedview
     pagecolor="#ffffff"
     bordercolor="#666666"
     borderopacity="1"
     objecttolerance="10"
     gridtolerance="10"
     guidetolerance="10"
     inkscape:pageopacity="0"
     inkscape:pageshadow="2"
     inkscape:window-width="1366"
     inkscape:window-height="703"
     id="namedview6"
     showgrid="false"
     inkscape:zoom="10.727273"
     inkscape:cx="-2.3305084"
     inkscape:cy="11"
     inkscape:window-x="0"
     inkscape:window-y="0"
     inkscape:window-maximized="1"
     inkscape:current-layer="svg4" />
  <path
     inkscape:connector-curvature="0"
     d="M 14.479917,15.885203 2.5836207,6.3314897 c -0.822234,-0.6603266 -0.822234,-1.7280869 0,-2.381391 L 4.5605302,2.3624848 c 0.822234,-0.6603266 2.1518243,-0.6603266 2.9653087,0 l 8.4323571,6.7718938 8.432382,-6.7718938 c 0.822235,-0.6603266 2.151823,-0.6603266 2.965308,0 l 1.994386,1.5805723 c 0.822232,0.6603457 0.822232,1.728106 0,2.3814099 l -11.896298,9.553732 c -0.822234,0.667348 -2.1518,0.667348 -2.974057,0.0074 z m 2.974057,13.487622 11.896298,-9.553732 c 0.822232,-0.660326 0.822232,-1.728087 0,-2.381391 L 27.373385,15.85009 c -0.822257,-0.660328 -2.151825,-0.660328 -2.965333,0 l -8.441107,6.764886 -8.4323565,-6.771909 c -0.822234,-0.660327 -2.1518243,-0.660327 -2.9653327,0 L 2.5836207,17.43066 c -0.822234,0.660346 -0.822234,1.728107 0,2.38141 l 11.8962963,9.553715 c 0.822257,0.667368 2.151823,0.667368 2.974057,0.0074 z"
     id="path2-3"
     style="fill:#2ecc71;fill-opacity:1;stroke-width:0.07838864" />
</svg>
