<?xml version="1.0" encoding="UTF-8" standalone="no"?>
<svg
   xmlns:dc="http://purl.org/dc/elements/1.1/"
   xmlns:cc="http://creativecommons.org/ns#"
   xmlns:rdf="http://www.w3.org/1999/02/22-rdf-syntax-ns#"
   xmlns:svg="http://www.w3.org/2000/svg"
   xmlns="http://www.w3.org/2000/svg"
   xmlns:sodipodi="http://sodipodi.sourceforge.net/DTD/sodipodi-0.dtd"
   xmlns:inkscape="http://www.inkscape.org/namespaces/inkscape"
   viewBox="0 0 22 22"
   version="1.1"
   id="svg6"
   sodipodi:docname="download.svg"
   inkscape:version="0.92.4 5da689c313, 2019-01-14">
  <metadata
     id="metadata10">
    <rdf:RDF>
      <cc:Work
         rdf:about="">
        <dc:format>image/svg+xml</dc:format>
        <dc:type
           rdf:resource="http://purl.org/dc/dcmitype/StillImage" />
      </cc:Work>
    </rdf:RDF>
  </metadata>
  <sodipodi:namedview
     pagecolor="#ffffff"
     bordercolor="#666666"
     borderopacity="1"
     objecttolerance="10"
     gridtolerance="10"
     guidetolerance="10"
     inkscape:pageopacity="0"
     inkscape:pageshadow="2"
     inkscape:window-width="1366"
     inkscape:window-height="703"
     id="namedview8"
     showgrid="false"
     inkscape:zoom="10.727273"
     inkscape:cx="11"
     inkscape:cy="11"
     inkscape:window-x="0"
     inkscape:window-y="0"
     inkscape:window-maximized="1"
     inkscape:current-layer="svg6" />
  <defs
     id="defs3051">
    <style
       type="text/css"
       id="current-color-scheme">
     .ColorScheme-Text {
       color:#f2f2f2;
     }
     </style>
  </defs>
  <path
     style="fill:#1ea95d;fill-opacity:1;stroke:none"
     d="m17.16357 11.41288c-.4486-.43813-1.17641-.43813-1.62554 0l-4.53782 4.8801-4.53784-4.8801c-.44912-.43813-1.1764-.43813-1.62552 0-.44913.43814-.44913 1.1478 0 1.58594l5.27861 5.67726c.24298.23674.56657.34113.88475.32162.31763.0195.64176-.085.88472-.32162l5.27864-5.67726c.44857-.43814.44857-1.1478 0-1.58594zm-6.17013-4.72223c1.04598 0 1.89391-.82618 1.89391-1.84532 0-1.01915-.84793-1.84533-1.89391-1.84533s-1.89392.82618-1.89392 1.84533c0 1.01914.84794 1.84532 1.89392 1.84532zm0 5.27236c1.04598 0 1.89391-.82618 1.89391-1.84533s-.84793-1.84532-1.89391-1.84532-1.89392.82617-1.89392 1.84532.84794 1.84533 1.89392 1.84533z"
     class="ColorScheme-Text"
     id="path4" />
  <path
     id="path817"
     class="ColorScheme-Text"
     d="m17.16357 11.41288c-.4486-.43813-1.17641-.43813-1.62554 0l-4.53782 4.8801-4.53784-4.8801c-.44912-.43813-1.1764-.43813-1.62552 0-.44913.43814-.44913 1.1478 0 1.58594l5.27861 5.67726c.24298.23674.56657.34113.88475.32162.31763.0195.64176-.085.88472-.32162l5.27864-5.67726c.44857-.43814.44857-1.1478 0-1.58594zm-6.17013-4.72223c1.04598 0 1.89391-.82618 1.89391-1.84532 0-1.01915-.84793-1.84533-1.89391-1.84533s-1.89392.82618-1.89392 1.84533c0 1.01914.84794 1.84532 1.89392 1.84532zm0 5.27236c1.04598 0 1.89391-.82618 1.89391-1.84533s-.84793-1.84532-1.89391-1.84532-1.89392.82617-1.89392 1.84532.84794 1.84533 1.89392 1.84533z"
     style="fill:#1ea95d;fill-opacity:1;stroke:none" />
</svg>
