<svg height="32" viewBox="0 0 32 32" width="32" xmlns="http://www.w3.org/2000/svg"><path d="m14.672296 16.017963-10.6216929-9.5537131c-.7341375-.6603266-.7341375-1.7280869 0-2.381391l1.7650977-1.5876139c.7341375-.6603266 1.9212718-.6603266 2.6475971 0l7.5288911 6.7718938 7.528911-6.7718938c.73414-.6603266 1.921272-.6603266 2.647598 0l1.780701 1.5805723c.734135.6603457.734135 1.728106 0 2.3814099l-10.621695 9.5537318c-.734136.667348-1.92125.667348-2.655408.0074zm2.655408 13.487622 10.621695-9.553732c.734135-.660326.734135-1.728087 0-2.381391l-1.765077-1.587612c-.734158-.660328-1.921273-.660328-2.64762 0l-7.536702 6.764886-7.52889-6.771909c-.7341375-.660327-1.9212718-.660327-2.6476185 0l-1.7728884 1.587593c-.7341375.660346-.7341375 1.728107 0 2.38141l10.6216929 9.553715c.734158.667368 1.921272.667368 2.655408.0074z" fill="#2ecc71" stroke-width=".07407"/></svg>