<svg xmlns="http://www.w3.org/2000/svg" viewBox="0 0 32 32">
  <path fill="#FFF" d="M28.8 18.6c0 .1 0 .1 0 0 0 .2-.1.3-.2.5.1-.1.2-.3.2-.5"/>
  <path fill="#733737" d="M26.4 17s.1 0 0 0c.1 0 0 0 0 0z"/>
  <path fill="#FFF" d="M26.5 17s-.1 0 0 0c-.1 0 0 0 0 0"/>
  <path fill="#375273" d="M21.1 16l7.1 5.6c.3.2.4.4.3.8 0 .3-.2.6-.5.7l-1.8.9h-.4c-.2 0-.3 0-.4-.1l-9.6-5.4-1.5.9c-.1 0-.1.1-.2.1.1.5.2.9.1 1.4-.1.7-.3 1.4-.8 2.1-.5.7-1.1 1.2-1.8 1.7-1.2.8-2.5 1.2-3.9 1.2-1.3 0-2.3-.4-3.1-1.1-.8-.8-1.2-1.8-1.1-3 .1-.7.3-1.4.8-2.1.5-.7 1.1-1.2 1.8-1.7 1.2-.8 2.5-1.2 3.9-1.2.8 0 1.5.1 2.1.4l.3-.3 1.7-1-1.7-1-.3-.3c-.6.3-1.3.4-2.1.4-1.4 0-2.7-.4-3.9-1.2-.8-.5-1.4-1.1-1.8-1.7-.5-.7-.7-1.3-.8-2.1 0-.5 0-1.1.2-1.6s.5-.9.9-1.3C5.4 6.4 6.4 6 7.7 6s2.6.4 3.9 1.2c.8.5 1.4 1.1 1.8 1.7.5.7.7 1.3.8 2.1 0 .4 0 .9-.1 1.4 0 0 .1 0 .2.1l1.5.9L25.4 8h.4c.1 0 .3 0 .4.1L28 9c.3.1.4.4.5.7 0 .3-.1.6-.3.8L21.1 16zm-9.5-3.6c.4-.4.5-.9.3-1.5s-.7-1.2-1.5-1.6c-.9-.6-1.8-.9-2.7-.9-.7 0-1.2.2-1.6.5-.4.4-.5.9-.3 1.5s.7 1.2 1.5 1.6c.9.5 1.7.8 2.7.8.7.1 1.2-.1 1.6-.4zm-1.2 10.4c.8-.5 1.2-1 1.5-1.6s.1-1.1-.3-1.5c-.4-.3-.9-.5-1.6-.5-.9 0-1.8.3-2.7.8-.8.5-1.2 1-1.5 1.6-.2.6-.1 1.1.3 1.5.4.3.9.5 1.6.5.9 0 1.8-.3 2.7-.8zm5.6-5.5l1.3.4 10.3-8-1.8-.9-10.7 6v1.6l-2.2 1.3.1.1s.1 0 .1.1l.2.2.2.2.4.4 2.1-1.4zm-3.1-3.1l1.3.8v-.2c0-.3.2-.6.5-.8l.2-.1-1.1-.7-.4.4s-.1.1-.1.2l-.2.2H13l-.1.2zm3.4 1.2c.2-.2.4-.3.6-.3.2 0 .5.1.6.3.2.2.3.4.3.6s-.1.5-.3.6-.4.3-.6.3c-.2 0-.5-.1-.6-.3-.2-.1-.3-.4-.3-.6s.1-.5.3-.6zm9.5 7.7l1.8-.9-7.3-5.7-2.5 1.9s-.1.1-.2.1l8.2 4.6z"/>
</svg>
