<svg viewBox="0 0 32 32" xmlns="http://www.w3.org/2000/svg"><path d="m28.8 18.6c0 .1 0 .1 0 0 0 .2-.1.3-.2.5.1-.1.2-.3.2-.5" fill="#fff"/><path d="m26.4 17s.1 0 0 0z" fill="#733737"/><path d="m26.5 17s-.1 0 0 0c-.1 0 0 0 0 0" fill="#fff"/><path d="m23.2 19.2v2.7c0 1.1-.4 2.1-1.2 2.8s-1.7 1.2-2.8 1.2h-11.6c-1.1 0-2.1-.4-2.8-1.2s-1.2-1.7-1.2-2.8v-11.7c0-1.1.4-2.1 1.2-2.8s1.7-1.2 2.8-1.2h11.6c.6 0 1.1.1 1.6.3.2.1.2.2.3.3 0 .2 0 .3-.1.4l-.7.7c-.2.2-.3.2-.5.1h-12.2c-.6 0-1.2.2-1.6.6s-.7 1-.7 1.6v11.6c0 .6.2 1.1.7 1.6.4.4 1 .6 1.6.6h11.6c.6 0 1.1-.2 1.6-.7.4-.4.7-1 .7-1.6v-1.7c0-.1 0-.2.1-.3l.9-.9c.1-.1.3-.2.5-.1.1.1.2.3.2.5zm-1.3-10.3 4 4-9.4 9.4h-4v-4zm-6 12 1.6-1.6-2.1-2.1-1.6 1.6v.8h1.3v1.3zm6.2-10c-.1-.1-.3-.1-.5 0l-4.9 4.9c-.2.2-.2.3 0 .5.1.1.3.1.5 0l4.9-4.9c.1-.2.1-.4 0-.5zm6-.2-1.3 1.3-4-4 1.2-1.3c.3-.3.6-.4.9-.4.4 0 .7.1.9.4l2.1 2.1c.3.3.4.6.4.9s0 .7-.2 1z" fill="#375273"/></svg>