<?xml version="1.0" encoding="UTF-8" standalone="no"?>
<svg
   xmlns:dc="http://purl.org/dc/elements/1.1/"
   xmlns:cc="http://creativecommons.org/ns#"
   xmlns:rdf="http://www.w3.org/1999/02/22-rdf-syntax-ns#"
   xmlns:svg="http://www.w3.org/2000/svg"
   xmlns="http://www.w3.org/2000/svg"
   xmlns:sodipodi="http://sodipodi.sourceforge.net/DTD/sodipodi-0.dtd"
   xmlns:inkscape="http://www.inkscape.org/namespaces/inkscape"
   viewBox="0 0 32 32"
   version="1.1"
   id="svg6"
   sodipodi:docname="edit-find.svg"
   inkscape:version="0.92.4 5da689c313, 2019-01-14"
   width="32"
   height="32">
  <metadata
     id="metadata10">
    <rdf:RDF>
      <cc:Work
         rdf:about="">
        <dc:format>image/svg+xml</dc:format>
        <dc:type
           rdf:resource="http://purl.org/dc/dcmitype/StillImage" />
        <dc:title />
      </cc:Work>
    </rdf:RDF>
  </metadata>
  <sodipodi:namedview
     pagecolor="#ffffff"
     bordercolor="#666666"
     borderopacity="1"
     objecttolerance="10"
     gridtolerance="10"
     guidetolerance="10"
     inkscape:pageopacity="0"
     inkscape:pageshadow="2"
     inkscape:window-width="1366"
     inkscape:window-height="703"
     id="namedview8"
     showgrid="false"
     inkscape:zoom="10.727273"
     inkscape:cx="11"
     inkscape:cy="11"
     inkscape:window-x="0"
     inkscape:window-y="0"
     inkscape:window-maximized="1"
     inkscape:current-layer="svg6" />
  <defs
     id="defs3051">
    <style
       type="text/css"
       id="current-color-scheme">
     .ColorScheme-Text {
       color:#f2f2f2;
     }
     </style>
  </defs>
  <path
     style="color:#f2f2f2;fill:#1d99f3;fill-opacity:1;stroke:none;stroke-width:1.79683542"
     d="M 13.741997,1.8523892 C 12.518946,1.8905883 11.324549,2.0991104 10.159403,2.4769357 8.6056763,2.9804898 7.2466976,3.7041293 6.0806365,4.6510175 4.9145756,5.5979056 3.9617551,6.7513629 3.2204005,8.1113198 2.4788219,9.4714668 2.0551801,10.920008 1.9471589,12.452742 c -0.1079651,1.532752 0.1087123,3.014877 0.6530398,4.452839 0.5441967,1.437531 1.3298579,2.695248 2.353136,3.774261 1.0232594,1.079202 2.2698086,1.963883 3.7394608,2.650084 1.4698765,0.686218 3.0316175,1.078234 4.6880235,1.178191 2.548669,0.153834 4.906979,-0.37257 7.073959,-1.576551 l 5.570908,5.860589 c 0.388207,0.432462 0.895401,0.667792 1.521318,0.705559 0.602252,0.0363 1.136792,-0.135684 1.605226,-0.516517 0.468863,-0.380539 0.723216,-0.850458 0.762499,-1.407749 0.04016,-0.567732 -0.138972,-1.063058 -0.539938,-1.485392 l -5.570908,-5.874087 c 1.571528,-1.83188 2.438686,-3.927922 2.604855,-6.285947 C 26.516704,12.39527 26.300026,10.909378 25.755717,9.4718126 25.211539,8.0340746 24.429501,6.7765639 23.406223,5.6975517 22.382945,4.6185396 21.136434,3.7368491 19.666763,3.0508383 18.19668,2.3646027 16.631504,1.9692335 14.975098,1.8692763 14.561002,1.8442135 14.149669,1.8397195 13.741997,1.8519916 Z m 0.944883,4.1354929 c 2.142847,0.1292893 3.924158,0.9428091 5.348364,2.4441545 1.423983,1.5013457 2.066021,3.2430334 1.926282,5.2259124 -0.139719,1.983069 -1.018888,3.634774 -2.641354,4.952453 -1.622671,1.317679 -3.508083,1.911821 -5.651154,1.782481 C 11.526171,20.263593 9.7446713,19.446685 8.3206706,17.945357 6.8966887,16.443821 6.2546323,14.702531 6.3943893,12.719445 6.5341089,10.736566 7.4169388,9.0878511 9.0393861,7.7703626 10.661834,6.4526666 12.544032,5.8585583 14.68688,5.9878821 Z M 4.3404176,26.388499 c -1.0348217,0 -1.8679092,0.770895 -1.8679092,1.728465 0,0.95757 0.8330875,1.728466 1.8679092,1.728466 1.0348217,0 1.8679092,-0.770896 1.8679092,-1.728466 0,-0.95757 -0.8330875,-1.728465 -1.8679092,-1.728465 z m 7.4716364,0 c -1.034821,0 -1.8679088,0.770895 -1.8679088,1.728465 0,0.95757 0.8330878,1.728466 1.8679088,1.728466 1.034822,0 1.86791,-0.770896 1.86791,-1.728466 0,-0.95757 -0.833088,-1.728465 -1.86791,-1.728465 z m 7.471638,0 c -1.034822,0 -1.867909,0.770895 -1.867909,1.728465 0,0.95757 0.833087,1.728466 1.867909,1.728466 1.034822,0 1.867909,-0.770896 1.867909,-1.728466 0,-0.95757 -0.833087,-1.728465 -1.867909,-1.728465 z"
     class="ColorScheme-Text"
     id="path4"
     inkscape:connector-curvature="0" />
</svg>
