<svg xmlns="http://www.w3.org/2000/svg" viewBox="0 0 32 32">
  <path fill="#FFF" d="M28.8 18.6c0 .1 0 .1 0 0 0 .2-.1.3-.2.5.1-.1.2-.3.2-.5"/>
  <path fill="#733737" d="M26.4 17s.1 0 0 0c.1 0 0 0 0 0z"/>
  <path fill="#FFF" d="M26.5 17s-.1 0 0 0c-.1 0 0 0 0 0"/>
  <path fill="#375273" d="M27.6 25.8c0 .5-.2.9-.5 1.3-.4.4-.8.5-1.3.5s-.9-.2-1.3-.5l-4.8-4.8C18 23.5 16.2 24 14.1 24c-1.3 0-2.6-.3-3.8-.8s-2.2-1.2-3-2-1.6-2-2.1-3.2-.8-2.5-.8-3.8.3-2.6.8-3.8c.5-1.2 1.2-2.3 2.1-3.1s1.9-1.6 3.1-2.1 2.5-.8 3.8-.8 2.6.3 3.8.8c1.2.5 2.3 1.2 3.1 2.1s1.6 1.9 2.1 3.1c.5 1.2.8 2.5.8 3.8 0 2-.6 3.9-1.7 5.6l4.8 4.8c.3.3.5.7.5 1.2zm-9-7.2c1.2-1.2 1.8-2.7 1.8-4.4s-.6-3.2-1.8-4.4S15.9 8 14.2 8s-3.2.6-4.4 1.8C8.6 11 8 12.5 8 14.2s.6 3.2 1.8 4.4c1.2 1.2 2.7 1.8 4.4 1.8s3.2-.5 4.4-1.8z"/>
</svg>
