<?xml version="1.0" encoding="UTF-8" standalone="no"?>
<svg
   xmlns:dc="http://purl.org/dc/elements/1.1/"
   xmlns:cc="http://creativecommons.org/ns#"
   xmlns:rdf="http://www.w3.org/1999/02/22-rdf-syntax-ns#"
   xmlns:svg="http://www.w3.org/2000/svg"
   xmlns="http://www.w3.org/2000/svg"
   xmlns:sodipodi="http://sodipodi.sourceforge.net/DTD/sodipodi-0.dtd"
   xmlns:inkscape="http://www.inkscape.org/namespaces/inkscape"
   viewBox="0 0 16 16"
   version="1.1"
   id="svg4"
   sodipodi:docname="edit-copy.svg"
   inkscape:version="0.92.4 5da689c313, 2019-01-14">
  <metadata
     id="metadata10">
    <rdf:RDF>
      <cc:Work
         rdf:about="">
        <dc:format>image/svg+xml</dc:format>
        <dc:type
           rdf:resource="http://purl.org/dc/dcmitype/StillImage" />
      </cc:Work>
    </rdf:RDF>
  </metadata>
  <defs
     id="defs8" />
  <sodipodi:namedview
     pagecolor="#ffffff"
     bordercolor="#666666"
     borderopacity="1"
     objecttolerance="10"
     gridtolerance="10"
     guidetolerance="10"
     inkscape:pageopacity="0"
     inkscape:pageshadow="2"
     inkscape:window-width="1366"
     inkscape:window-height="703"
     id="namedview6"
     showgrid="false"
     inkscape:zoom="14.75"
     inkscape:cx="8"
     inkscape:cy="8"
     inkscape:window-x="0"
     inkscape:window-y="0"
     inkscape:window-maximized="1"
     inkscape:current-layer="svg4" />
  <path
     d="M 11.559314,5.6186451 H 1.6779706 c -0.4958687,0 -0.89830962,0.2771528 -0.89830962,0.6186388 V 13.04237 c 0,0.341494 0.40244092,0.618647 0.89830962,0.618647 h 9.8813434 c 0.495869,0 0.898311,-0.277153 0.898311,-0.618647 V 6.2372839 c 0,-0.341486 -0.402442,-0.6186388 -0.898311,-0.6186388 z M 14.254232,3.7627118 H 5.2711848 c -0.4958687,0 -0.8983096,0.2771528 -0.8983096,0.6186472 V 4.9999978 H 5.2711848 V 4.6906743 c 0,-0.1707431 0.2012266,-0.3093153 0.4491549,-0.3093153 h 8.0847383 c 0.247941,0 0.449154,0.1385722 0.449154,0.3093153 v 5.5677997 c 0,0.170743 -0.201213,0.309324 -0.449154,0.309324 h -0.449142 v 0.618638 h 0.898296 c 0.495869,0 0.898311,-0.277153 0.898311,-0.618638 V 4.381359 c 0,-0.3414944 -0.402442,-0.6186472 -0.898311,-0.6186472 z"
     id="path2"
     inkscape:connector-curvature="0"
     style="fill:#1d99f3;fill-opacity:1;stroke-width:0.99396503" />
</svg>
