<?xml version="1.0" encoding="UTF-8" standalone="no"?>
<svg
   xmlns:dc="http://purl.org/dc/elements/1.1/"
   xmlns:cc="http://creativecommons.org/ns#"
   xmlns:rdf="http://www.w3.org/1999/02/22-rdf-syntax-ns#"
   xmlns:svg="http://www.w3.org/2000/svg"
   xmlns="http://www.w3.org/2000/svg"
   xmlns:sodipodi="http://sodipodi.sourceforge.net/DTD/sodipodi-0.dtd"
   xmlns:inkscape="http://www.inkscape.org/namespaces/inkscape"
   viewBox="0 0 32 32"
   version="1.1"
   id="svg18"
   sodipodi:docname="edit-find-user.svg"
   inkscape:version="0.92.4 5da689c313, 2019-01-14">
  <metadata
     id="metadata24">
    <rdf:RDF>
      <cc:Work
         rdf:about="">
        <dc:format>image/svg+xml</dc:format>
        <dc:type
           rdf:resource="http://purl.org/dc/dcmitype/StillImage" />
        <dc:title />
      </cc:Work>
    </rdf:RDF>
  </metadata>
  <defs
     id="defs22" />
  <sodipodi:namedview
     pagecolor="#ffffff"
     bordercolor="#666666"
     borderopacity="1"
     objecttolerance="10"
     gridtolerance="10"
     guidetolerance="10"
     inkscape:pageopacity="0"
     inkscape:pageshadow="2"
     inkscape:window-width="1366"
     inkscape:window-height="703"
     id="namedview20"
     showgrid="false"
     inkscape:zoom="7.375"
     inkscape:cx="16"
     inkscape:cy="16"
     inkscape:window-x="0"
     inkscape:window-y="0"
     inkscape:window-maximized="1"
     inkscape:current-layer="svg18" />
  <path
     d="m 7.15,32.628814 c 0,0 0.1,0 0,0 0.1,0 0,0 0,0 z"
     id="path4"
     inkscape:connector-curvature="0"
     style="fill:#733737" />
  <path
     d="m 7.1944444,32.628814 c 0,0 -0.1,0 0,0 -0.1,0 0,0 0,0"
     id="path6"
     inkscape:connector-curvature="0"
     style="fill:#ffffff" />
  <g
     id="g846"
     transform="matrix(1.0687023,0,0,1.0894942,30.728341,-6.3633123)">
    <g
       transform="translate(-56.231356,6.2347457)"
       id="g837">
      <path
         d="m 48.547458,19.640678 c 0,0.1 0,0.1 0,0 0,0.2 -0.1,0.3 -0.2,0.5 0.1,-0.1 0.2,-0.3 0.2,-0.5"
         id="path2"
         inkscape:connector-curvature="0"
         style="fill:#ffffff" />
      <path
         d="m 53.997458,26.840678 c -0.4,0 -0.7,-0.1 -0.9,-0.4 l -2.6,-2.6 c -0.9,0.6 -2,0.9 -3.1,0.9 -0.8,0 -1.6,-0.2 -2.3,-0.5 -0.7,-0.3 -1.3,-0.7 -1.9,-1.2 -0.5,-0.5 -0.9,-1.1 -1.2,-1.9 -0.3,-0.7 -0.5,-1.5 -0.5,-2.3 0,-0.8 0.2,-1.6 0.5,-2.3 0.3,-0.7 0.7,-1.3 1.2,-1.9 0.5,-0.5 1.1,-0.9 1.9,-1.2 0.7,-0.3 1.5,-0.5 2.3,-0.5 0.8,0 1.6,0.2 2.3,0.5 0.7,0.3 1.3,0.7 1.9,1.2 0.5,0.5 0.9,1.1 1.2,1.9 0.3,0.7 0.5,1.5 0.5,2.3 0,1.1 -0.3,2.2 -0.9,3.1 l 2.6,2.6 c 0.2,0.2 0.4,0.5 0.4,0.9 0,0.3 -0.1,0.6 -0.4,0.9 -0.3,0.4 -0.6,0.5 -1,0.5 z m -6.6,-11.2 c -0.9,0 -1.7,0.3 -2.3,1 -0.6,0.7 -1,1.4 -1,2.3 0,0.9 0.3,1.7 1,2.3 0.7,0.7 1.4,1 2.3,1 0.9,0 1.7,-0.3 2.3,-1 0.7,-0.7 1,-1.4 1,-2.3 0,-0.9 -0.3,-1.7 -1,-2.3 -0.7,-0.6 -1.4,-1 -2.3,-1 z"
         id="path8"
         inkscape:connector-curvature="0"
         style="fill:#1d44f3;fill-opacity:1" />
      <path
         d="m 47.447458,13.290678 c 0.8,0 1.5,0.1 2.2,0.4 0.7,0.3 1.3,0.7 1.8,1.2 0.5,0.5 0.9,1.1 1.2,1.8 0.3,0.7 0.4,1.4 0.4,2.2 0,1.2 -0.3,2.2 -1,3.2 l 2.7,2.7 c 0.2,0.2 0.3,0.4 0.3,0.7 0,0.3 -0.1,0.5 -0.3,0.7 -0.2,0.2 -0.4,0.3 -0.7,0.3 -0.3,0 -0.5,-0.1 -0.7,-0.3 l -2.7,-2.7 c -0.9,0.7 -2,1 -3.2,1 -0.8,0 -1.5,-0.1 -2.2,-0.4 -0.7,-0.3 -1.3,-0.7 -1.8,-1.2 -0.5,-0.5 -0.9,-1.1 -1.2,-1.8 -0.3,-0.7 -0.4,-1.4 -0.4,-2.2 0,-0.8 0.1,-1.5 0.4,-2.2 0.3,-0.7 0.7,-1.3 1.2,-1.8 0.5,-0.5 1.1,-0.9 1.8,-1.2 0.7,-0.3 1.5,-0.4 2.2,-0.4 m 0,9.1 c 1,0 1.8,-0.3 2.5,-1 0.7,-0.7 1,-1.5 1,-2.5 0,-1 -0.3,-1.8 -1,-2.5 -0.7,-0.7 -1.5,-1 -2.5,-1 -1,0 -1.8,0.3 -2.5,1 -0.7,0.7 -1,1.5 -1,2.5 0,1 0.3,1.8 1,2.5 0.7,0.7 1.5,1 2.5,1 m 0,-9.6 c -0.8,0 -1.6,0.2 -2.4,0.5 -0.7,0.3 -1.4,0.8 -1.9,1.3 -0.5,0.5 -1,1.2 -1.3,1.9 -0.3,0.8 -0.5,1.5 -0.5,2.4 0,0.8 0.2,1.6 0.5,2.4 0.3,0.7 0.8,1.4 1.3,1.9 0.5,0.5 1.2,1 1.9,1.3 0.8,0.3 1.5,0.5 2.4,0.5 1.1,0 2.2,-0.3 3.1,-0.8 l 2.4,2.4 c 0.3,0.3 0.6,0.4 1.1,0.4 0.4,0 0.8,-0.2 1.1,-0.4 0.3,-0.3 0.4,-0.7 0.4,-1.1 0,-0.4 -0.2,-0.8 -0.4,-1.1 l -2.4,-2.4 c 0.6,-0.9 0.8,-2 0.8,-3.1 0,-0.8 -0.2,-1.6 -0.5,-2.4 -0.3,-0.7 -0.8,-1.4 -1.3,-1.9 -0.5,-0.5 -1.2,-1 -1.9,-1.3 -0.8,-0.4 -1.6,-0.5 -2.4,-0.5 z m 0,9.1 c -0.8,0 -1.6,-0.3 -2.2,-0.9 -0.6,-0.6 -0.9,-1.3 -0.9,-2.2 0,-0.8 0.3,-1.6 0.9,-2.2 0.6,-0.6 1.3,-0.9 2.2,-0.9 0.8,0 1.6,0.3 2.2,0.9 0.6,0.6 0.9,1.3 0.9,2.2 0,0.9 -0.3,1.6 -0.9,2.2 -0.6,0.6 -1.3,0.9 -2.2,0.9 z"
         id="path10"
         inkscape:connector-curvature="0"
         style="fill:#ffffff" />
    </g>
    <g
       transform="translate(-29.983898,3.5254237)"
       style="fill:#1d99f3;fill-opacity:1"
       id="g16">
      <path
         inkscape:connector-curvature="0"
         style="fill:#1d99f3;fill-opacity:1"
         id="path12"
         d="m 12.9,14.8 c 1.5,0 2.7,-0.5 3.8,-1.6 1,-1 1.6,-2.3 1.6,-3.8 C 18.3,7.9 17.8,6.7 16.7,5.6 15.7,4.6 14.4,4 12.9,4 11.4,4 10.2,4.5 9.1,5.6 8,6.7 7.5,7.9 7.5,9.4 c 0,1.5 0.5,2.7 1.6,3.8 1.1,1.1 2.3,1.6 3.8,1.6 z" />
      <path
         inkscape:connector-curvature="0"
         style="fill:#1d99f3;fill-opacity:1"
         id="path14"
         d="m 14.9,24 c -0.3,-0.8 -0.5,-1.5 -0.5,-2.4 0,-0.8 0.2,-1.6 0.5,-2.4 0.3,-0.7 0.8,-1.4 1.3,-1.9 0.5,-0.5 1.2,-1 1.9,-1.3 0.8,-0.3 1.5,-0.5 2.4,-0.5 h 0.7 C 21,15.2 20.8,15 20.6,14.8 c -0.3,-0.3 -0.7,-0.6 -1.2,-0.7 -0.5,-0.2 -1,-0.3 -1.6,-0.3 -0.1,0 -0.3,0.1 -0.6,0.3 -0.3,0.2 -0.7,0.4 -1,0.7 -0.4,0.2 -0.9,0.5 -1.5,0.7 -0.6,0.2 -1.2,0.3 -1.9,0.3 -0.7,0 -1.2,-0.1 -1.9,-0.3 C 10.2,15.3 9.8,15.1 9.4,14.8 9,14.6 8.7,14.3 8.4,14.1 8.2,14 8,13.9 7.9,13.9 7.3,13.9 6.8,14 6.3,14.2 5.8,14.4 5.4,14.6 5.1,14.9 4.8,15.2 4.5,15.6 4.3,16 4,16.4 3.8,16.9 3.7,17.4 3.6,17.9 3.4,18.4 3.3,18.9 3.2,19.4 3.1,20 3.1,20.4 v 1.4 c 0,1.1 0.3,2 1,2.6 0.7,0.6 1.6,1 2.7,1 h 9 C 15.5,25 15.1,24.6 14.9,24 Z" />
    </g>
  </g>
</svg>
