<?xml version="1.0" encoding="UTF-8" standalone="no"?>
<svg
   xmlns:dc="http://purl.org/dc/elements/1.1/"
   xmlns:cc="http://creativecommons.org/ns#"
   xmlns:rdf="http://www.w3.org/1999/02/22-rdf-syntax-ns#"
   xmlns:svg="http://www.w3.org/2000/svg"
   xmlns="http://www.w3.org/2000/svg"
   xmlns:sodipodi="http://sodipodi.sourceforge.net/DTD/sodipodi-0.dtd"
   xmlns:inkscape="http://www.inkscape.org/namespaces/inkscape"
   viewBox="0 0 32 32"
   version="1.1"
   id="svg6"
   sodipodi:docname="edit-delete.svg"
   width="32"
   height="32"
   inkscape:version="0.92.4 5da689c313, 2019-01-14">
  <metadata
     id="metadata10">
    <rdf:RDF>
      <cc:Work
         rdf:about="">
        <dc:format>image/svg+xml</dc:format>
        <dc:type
           rdf:resource="http://purl.org/dc/dcmitype/StillImage" />
        <dc:title />
      </cc:Work>
    </rdf:RDF>
  </metadata>
  <sodipodi:namedview
     pagecolor="#ffffff"
     bordercolor="#666666"
     borderopacity="1"
     objecttolerance="10"
     gridtolerance="10"
     guidetolerance="10"
     inkscape:pageopacity="0"
     inkscape:pageshadow="2"
     inkscape:window-width="1366"
     inkscape:window-height="703"
     id="namedview8"
     showgrid="false"
     inkscape:zoom="10.727273"
     inkscape:cx="11"
     inkscape:cy="11"
     inkscape:window-x="0"
     inkscape:window-y="0"
     inkscape:window-maximized="1"
     inkscape:current-layer="svg6" />
  <defs
     id="defs3051">
    <style
       type="text/css"
       id="current-color-scheme">
     .ColorScheme-Text {
       color:#da4453;
     }
     </style>
  </defs>
  <path
     style="color:#da4453;fill:currentColor;fill-opacity:1;stroke:none;stroke-width:1.74999881"
     d="m 2.1200751,10.686337 1.7527472,1.425146 -1.6496722,3.288684 c -0.8248099,1.516461 0.5921649,2.993703 1.4949897,3.507958 0.8887724,0.506205 2.2682271,0.566387 3.5570143,0.548152 L 9.5949363,15.509804 11.347666,16.496417 8.3061489,10.63158 2.1200751,10.68636 Z m 0.2577225,8.050445 3.7631993,7.23514 c 0.7560873,1.004848 2.1823545,1.242376 3.6601414,1.205853 H 13.77054 V 20.326341 L 6.2441244,20.271566 C 5.0756845,20.344541 3.5462899,20.088779 2.3777976,18.7368 Z M 26.054086,5.4032516 24.006603,6.307633 22.042334,3.2118342 C 21.167754,1.7259286 19.239149,2.2994203 18.369312,2.8718446 17.51302,3.435379 16.79363,4.66176 16.184175,5.8436211 l 2.192137,4.0246975 -1.678949,1.1169704 6.403686,0.07507 2.953037,-5.6570601 z M 19.163112,1.734976 11.257856,1.6525511 C 10.046786,1.8535209 9.1556863,3.0364844 8.4699489,4.3993128 L 6.5455443,8.0121659 12.303883,11.333836 15.998833,4.5100001 C 16.503883,3.4109839 17.46031,2.1430405 19.163112,1.735011 Z m 0.343875,27.917506 0.232505,-2.302069 3.554215,-0.28686 c 1.672806,-0.07578 2.125847,-2.109045 2.066451,-3.178294 -0.05845,-1.052607 -0.740442,-2.301929 -1.438289,-3.429611 l -4.445314,0.0441 -0.12495,-2.06967 -3.167623,5.792091 3.3229,5.430383 z m 6.423847,-4.493522 3.901816,-7.155111 c 0.418268,-1.199764 -0.14385,-2.584363 -0.956899,-3.869211 l -2.103465,-3.503111 -5.583392,3.630721 3.943747,6.671324 c 0.678825,0.99246 1.280773,2.477665 0.798193,4.225388 z"
     class="ColorScheme-Text"
     id="path4"
     inkscape:connector-curvature="0" />
</svg>
