<?xml version="1.0" encoding="UTF-8" standalone="no"?>
<svg
   xmlns:dc="http://purl.org/dc/elements/1.1/"
   xmlns:cc="http://creativecommons.org/ns#"
   xmlns:rdf="http://www.w3.org/1999/02/22-rdf-syntax-ns#"
   xmlns:svg="http://www.w3.org/2000/svg"
   xmlns="http://www.w3.org/2000/svg"
   xmlns:sodipodi="http://sodipodi.sourceforge.net/DTD/sodipodi-0.dtd"
   xmlns:inkscape="http://www.inkscape.org/namespaces/inkscape"
   viewBox="0 0 32 32"
   version="1.1"
   id="svg4"
   sodipodi:docname="edit-copy.svg"
   inkscape:version="0.92.4 5da689c313, 2019-01-14"
   width="32"
   height="32">
  <metadata
     id="metadata10">
    <rdf:RDF>
      <cc:Work
         rdf:about="">
        <dc:format>image/svg+xml</dc:format>
        <dc:type
           rdf:resource="http://purl.org/dc/dcmitype/StillImage" />
        <dc:title />
      </cc:Work>
    </rdf:RDF>
  </metadata>
  <defs
     id="defs8" />
  <sodipodi:namedview
     pagecolor="#ffffff"
     bordercolor="#666666"
     borderopacity="1"
     objecttolerance="10"
     gridtolerance="10"
     guidetolerance="10"
     inkscape:pageopacity="0"
     inkscape:pageshadow="2"
     inkscape:window-width="1366"
     inkscape:window-height="703"
     id="namedview6"
     showgrid="false"
     inkscape:zoom="14.75"
     inkscape:cx="8"
     inkscape:cy="16.135593"
     inkscape:window-x="0"
     inkscape:window-y="0"
     inkscape:window-maximized="1"
     inkscape:current-layer="svg4" />
  <path
     d="M 23.06778,7.1144092 H 3.8178053 c -0.9660083,0 -1.7500087,0.7840013 -1.7500087,1.7499857 V 28.114398 c 0,0.966007 0.7840004,1.750009 1.7500087,1.750009 H 23.06778 c 0.966009,0 1.750011,-0.784002 1.750011,-1.750009 V 8.8643949 c 0,-0.9659844 -0.784002,-1.7499857 -1.750011,-1.7499857 z M 28.317785,1.864407 H 10.817793 c -0.9660078,0 -1.7500086,0.7840013 -1.7500086,1.7500083 V 5.364401 H 10.817793 V 4.4893954 c 0,-0.4829921 0.392011,-0.8749801 0.875003,-0.8749801 h 15.749986 c 0.483018,0 0.875003,0.391988 0.875003,0.8749801 V 20.239405 c 0,0.482993 -0.391985,0.875006 -0.875003,0.875006 h -0.874979 v 1.749983 h 1.749982 c 0.96601,0 1.750011,-0.784002 1.750011,-1.749983 V 3.6144153 c 0,-0.966007 -0.784001,-1.7500083 -1.750011,-1.7500083 z"
     id="path2"
     inkscape:connector-curvature="0"
     style="fill:#1d99f3;fill-opacity:1;stroke-width:2.33333325" />
</svg>
