<?xml version="1.0" encoding="UTF-8" standalone="no"?>
<svg
   xmlns:dc="http://purl.org/dc/elements/1.1/"
   xmlns:cc="http://creativecommons.org/ns#"
   xmlns:rdf="http://www.w3.org/1999/02/22-rdf-syntax-ns#"
   xmlns:svg="http://www.w3.org/2000/svg"
   xmlns="http://www.w3.org/2000/svg"
   xmlns:sodipodi="http://sodipodi.sourceforge.net/DTD/sodipodi-0.dtd"
   xmlns:inkscape="http://www.inkscape.org/namespaces/inkscape"
   viewBox="0 0 22 22"
   version="1.1"
   id="svg6"
   sodipodi:docname="edit-cut.svg"
   inkscape:version="0.92.4 5da689c313, 2019-01-14">
  <metadata
     id="metadata10">
    <rdf:RDF>
      <cc:Work
         rdf:about="">
        <dc:format>image/svg+xml</dc:format>
        <dc:type
           rdf:resource="http://purl.org/dc/dcmitype/StillImage" />
      </cc:Work>
    </rdf:RDF>
  </metadata>
  <sodipodi:namedview
     pagecolor="#ffffff"
     bordercolor="#666666"
     borderopacity="1"
     objecttolerance="10"
     gridtolerance="10"
     guidetolerance="10"
     inkscape:pageopacity="0"
     inkscape:pageshadow="2"
     inkscape:window-width="1366"
     inkscape:window-height="703"
     id="namedview8"
     showgrid="false"
     inkscape:zoom="10.727273"
     inkscape:cx="11"
     inkscape:cy="11"
     inkscape:window-x="0"
     inkscape:window-y="0"
     inkscape:window-maximized="1"
     inkscape:current-layer="svg6" />
  <defs
     id="defs3051">
    <style
       type="text/css"
       id="current-color-scheme">
     .ColorScheme-Text {
       color:#f2f2f2;
     }
     </style>
  </defs>
  <path
     style="fill:#f47750;fill-opacity:1;stroke:none"
     d="m7.0136719 2-.4355469.7753906c-.2699231.4812667-.5038694.7087891-.6289062 1.1367188-.0625185.2139647-.0612584.4699226.0019531.7011718.0632171.2312494.1726285.4527981.3261719.7265626l3.3945312 6.0625002-1.7148438 3.023437c-.4483616-.277461-.8911737-.591797-1.4550781-.591797-1.6582865 0-3.0019531 1.388975-3.0019531 3.083985 0 1.695008 1.3436663 3.082031 3.0019531 3.082031 1.658287 0 3.0019532-1.387023 3.0019531-3.082031 0-.133955-.0209824-.259363-.0371093-.386719.4622484-1.003569.8985411-1.788627 1.8085941-2.248047.003037-.003375.002934-.004437.005859-.007812l1.253906 2.238281c-.017223.134034-.039062.265801-.039062.404297 0 1.695008 1.343665 3.082031 3.001953 3.082031 1.658287 0 3.001953-1.387023 3.001953-3.082031 0-1.69501-1.343667-3.083985-3.001953-3.083985-.56176 0-1.004412.308543-1.451172.583985l-1.708984-3.015625 3.398437-6.0625002v-.0019532c.152934-.2728193.261159-.4939397.324219-.7246094.063214-.2312492.066332-.4872071.003906-.7011718-.125138-.4278882-.358984-.6554521-.628906-1.1367188l-.435547-.7753906-3.994141 7.0488281zm-.5117188 13.884766c.5564078 0 .9960938.448401.9960938 1.033203s-.439686 1.03125-.9960938 1.03125-.9941406-.446448-.9941406-1.03125c0-.584803.4377328-1.033203.9941406-1.033203zm8.9960939 0c .556407 0 .99414.448401.994141 1.033203 0 .584802-.437734 1.03125-.994141 1.03125-.556409 0-.996094-.446448-.996094-1.03125 0-.584803.439685-1.033203.996094-1.033203z"
     class="ColorScheme-Text"
     id="path4" />
</svg>
