<svg xmlns="http://www.w3.org/2000/svg" viewBox="0 0 32 32">
  <path fill="#FFF" d="M28.8 18.6c0 .1 0 .1 0 0 0 .2-.1.3-.2.5.1-.1.2-.3.2-.5"/>
  <path fill="#733737" d="M26.4 17s.1 0 0 0c.1 0 0 0 0 0z"/>
  <path fill="#FFF" d="M26.5 17s-.1 0 0 0c-.1 0 0 0 0 0"/>
  <path fill="#375273" d="M28.5 17.8v9.4c0 .4-.1.7-.4.9s-.6.4-.9.4H13.8c-.4 0-.7-.1-.9-.4-.3-.3-.4-.6-.4-.9V25H4.8c-.4 0-.7-.1-.9-.4s-.4-.6-.4-1V4.8c0-.4.1-.7.4-.9.3-.3.6-.4.9-.4H20c.4 0 .7.1.9.4.3.3.4.6.4.9v4.6c.2.1.4.3.5.4l5.7 5.7c.3.3.5.6.7 1.1.2.4.3.8.3 1.2zM17.8 6.6v-.9c0-.1 0-.2-.1-.3-.1-.1-.2-.1-.3-.1H7.5c-.1 0-.2 0-.3.1-.1.1-.1.2-.1.3v.9c0 .1 0 .2.1.3.1.1.2.2.3.2h9.8c.1 0 .2 0 .3-.1.1-.1.2-.3.2-.4zm-3.6 20.1h12.5v-8.9h-5.8c-.4 0-.7-.1-.9-.4-.3-.3-.4-.6-.4-.9v-5.8h-5.4v16zM21.4 16h4.2l-4.2-4.2V16z"/>
</svg>
