<?xml version="1.0" encoding="UTF-8" standalone="no"?>
<svg
   xmlns:dc="http://purl.org/dc/elements/1.1/"
   xmlns:cc="http://creativecommons.org/ns#"
   xmlns:rdf="http://www.w3.org/1999/02/22-rdf-syntax-ns#"
   xmlns:svg="http://www.w3.org/2000/svg"
   xmlns="http://www.w3.org/2000/svg"
   xmlns:sodipodi="http://sodipodi.sourceforge.net/DTD/sodipodi-0.dtd"
   xmlns:inkscape="http://www.inkscape.org/namespaces/inkscape"
   viewBox="0 0 32 32"
   version="1.1"
   id="svg14"
   sodipodi:docname="edit-clear-history.svg"
   inkscape:version="0.92.4 5da689c313, 2019-01-14">
  <metadata
     id="metadata20">
    <rdf:RDF>
      <cc:Work
         rdf:about="">
        <dc:format>image/svg+xml</dc:format>
        <dc:type
           rdf:resource="http://purl.org/dc/dcmitype/StillImage" />
      </cc:Work>
    </rdf:RDF>
  </metadata>
  <defs
     id="defs18" />
  <sodipodi:namedview
     pagecolor="#ffffff"
     bordercolor="#666666"
     borderopacity="1"
     objecttolerance="10"
     gridtolerance="10"
     guidetolerance="10"
     inkscape:pageopacity="0"
     inkscape:pageshadow="2"
     inkscape:window-width="1366"
     inkscape:window-height="703"
     id="namedview16"
     showgrid="false"
     inkscape:zoom="7.375"
     inkscape:cx="16"
     inkscape:cy="16"
     inkscape:window-x="0"
     inkscape:window-y="0"
     inkscape:window-maximized="1"
     inkscape:current-layer="svg14" />
  <path
     d="M12.4 17.6c-.4.3-.7.5-1 .7s-.5.5-.9.8c-.4.3-.7.7-.9.9-.2.3-.5.6-.7 1-.3.4-.5.8-.6 1.2-.2.4-.3.8-.4 1.3-.1.5-.2 1-.2 1.4h13.1l-.6-.6c-.1 0-.2-.3-.2-.6 0-.2.1-.3.2-.5 0 0 0-.1.1-.1l1.9-1.9-1.9-1.9c-.3-.2-.3-.5-.3-.7 0-.2.1-.3.2-.5 0 0 0-.1.1-.1l.2-.2c-.1 0-.1-.1-.2-.1-.4-.3-.7-.5-.9-.6s-.5-.3-.9-.6c.4-.3.7-.4.9-.6.2-.1.5-.3.9-.6s.7-.5 1-.7c.2-.2.5-.5.9-.8.4-.3.7-.7.9-.9.2-.3.5-.6.7-1 .3-.4.5-.8.6-1.2s.3-.8.4-1.3c.1-.5.2-1 .2-1.4H7.7c0 .5.1 1 .2 1.4.1.5.3.9.4 1.3s.4.8.6 1.2.5.7.7 1c.2.3.5.6.9.9.4.3.7.6.9.8.2.2.6.5 1 .7.4.3.7.5.9.6.2.1.5.3.9.6-.4.3-.7.4-.9.6s-.5.2-.9.5zM23 25h2c0-.4-.1-.8-.2-1.2l-.3-.3L23 25zm3.3.9H6.4c-.1 0-.2 0-.3.1-.1.1-.1.2-.1.3V28c0 .1 0 .2.1.3.1.1.2.1.3.1h19.9c.1 0 .2 0 .3-.1.1-.1.1-.2.1-.3v-1.7c0-.1 0-.2-.1-.3-.1-.1-.2-.1-.3-.1zM6.4 6.8h19.9c.1 0 .2 0 .3-.1s.1-.2.1-.3V4.7c0-.1 0-.2-.1-.3s-.2-.1-.3-.1H6.4c-.1 0-.2 0-.3.1s-.1.1-.1.3v1.7c0 .1 0 .2.1.3s.2.1.3.1z"
     fill="#375273"
     id="path2"
     style="fill:#1d99f3;fill-opacity:1" />
  <path
     fill="none"
     d="M28.6 19.2c.1-.2.2-.3.2-.5 0 .1-.1.3-.2.5z"
     id="path4" />
  <path
     fill="#733737"
     d="M26.4 17s.1 0 0 0c.1 0 0 0 0 0zm0 4.3l2.2-2.1c.1-.2.2-.4.2-.5 0-.2-.1-.4-.2-.4l-1-1c-.2-.1-.3-.2-.5-.2s-.4 0-.5.2l-2.1 2.1-2.2-2.1c-.2-.1-.3-.2-.5-.2s-.4.1-.5.2l-1 .9c-.1.2-.2.3-.2.5s0 .4.2.5l2.1 2.1-2.1 2.1c-.1.2-.2.3-.2.5s.1.4.2.5l1 1c.2.1.3.2.5.2s.4-.1.5-.2l2.2-2.1 2 2.2c.2.1.3.2.5.2s.4-.1.5-.2l1-1c.1-.2.2-.3.2-.5s-.1-.4-.2-.5l-2.1-2.2z"
     id="path6"
     style="fill:#da4453;fill-opacity:1" />
  <path
     fill="#FFF"
     d="M28.8 18.6c0 .1 0 .1 0 0 0 .2-.1.3-.2.5.1-.1.2-.3.2-.5"
     id="path8" />
  <path
     fill="#733737"
     d="M26.4 17s.1 0 0 0c.1 0 0 0 0 0z"
     id="path10" />
  <path
     fill="#FFF"
     d="M26.5 17s-.1 0 0 0c-.1 0 0 0 0 0"
     id="path12" />
</svg>
