<?xml version="1.0" encoding="UTF-8" standalone="no"?>
<svg
   xmlns:dc="http://purl.org/dc/elements/1.1/"
   xmlns:cc="http://creativecommons.org/ns#"
   xmlns:rdf="http://www.w3.org/1999/02/22-rdf-syntax-ns#"
   xmlns:svg="http://www.w3.org/2000/svg"
   xmlns="http://www.w3.org/2000/svg"
   xmlns:sodipodi="http://sodipodi.sourceforge.net/DTD/sodipodi-0.dtd"
   xmlns:inkscape="http://www.inkscape.org/namespaces/inkscape"
   viewBox="0 0 32 32"
   version="1.1"
   id="svg6"
   sodipodi:docname="edit-clear.svg"
   inkscape:version="0.92.4 5da689c313, 2019-01-14"
   width="32"
   height="32">
  <metadata
     id="metadata10">
    <rdf:RDF>
      <cc:Work
         rdf:about="">
        <dc:format>image/svg+xml</dc:format>
        <dc:type
           rdf:resource="http://purl.org/dc/dcmitype/StillImage" />
        <dc:title />
      </cc:Work>
    </rdf:RDF>
  </metadata>
  <sodipodi:namedview
     pagecolor="#ffffff"
     bordercolor="#666666"
     borderopacity="1"
     objecttolerance="10"
     gridtolerance="10"
     guidetolerance="10"
     inkscape:pageopacity="0"
     inkscape:pageshadow="2"
     inkscape:window-width="1366"
     inkscape:window-height="703"
     id="namedview8"
     showgrid="false"
     inkscape:zoom="10.727273"
     inkscape:cx="11"
     inkscape:cy="11"
     inkscape:window-x="0"
     inkscape:window-y="0"
     inkscape:window-maximized="1"
     inkscape:current-layer="svg6" />
  <defs
     id="defs3051">
    <style
       type="text/css"
       id="current-color-scheme">
      .ColorScheme-Text {
        color:#eff0f1;
      }
      </style>
  </defs>
  <path
     style="color:#eff0f1;fill:#f47750;fill-opacity:1;stroke:none;stroke-width:1.76827025"
     d="M 28.580857,1.7457627 22.657031,11.774861 18.274391,9.3004101 16.421424,12.263018 26.671204,18.053567 28.52417,15.087594 24.215933,12.653542 30.161017,2.5874136 Z M 9.416996,7.3376833 A 1.8139947,1.7236985 0 0 0 7.6030011,9.0613818 1.8139947,1.7236985 0 0 0 9.416996,10.785081 1.8139947,1.7236985 0 0 0 11.230991,9.0613818 1.8139947,1.7236985 0 0 0 9.416996,7.3376833 Z M 3.0680144,9.0613818 A 0.90699735,0.86184921 0 0 0 2.161017,9.9232315 0.90699735,0.86184921 0 0 0 3.0680144,10.785081 0.90699735,0.86184921 0 0 0 3.9750117,9.9232315 0.90699735,0.86184921 0 0 0 3.0680144,9.0613818 Z m 2.720992,3.4473962 a 1.8139947,1.7236985 0 0 0 -1.8139947,1.723699 1.8139947,1.7236985 0 0 0 1.8139947,1.723699 1.8139947,1.7236985 0 0 0 1.8139947,-1.723699 1.8139947,1.7236985 0 0 0 -1.8139947,-1.723699 z m 9.0699736,1.723699 c -2.02893,2.696326 -5.740376,4.845134 -12.697963,5.171095 v 1.723699 c 3.8342651,5.81178 9.069974,8.618492 16.325952,8.618492 h 1.813995 c 2.378598,-2.735846 4.276516,-5.22691 5.441984,-8.618492 v -1.723699 l -9.069974,-5.171095 z m 0.960142,1.898761 7.851196,4.477577 c -1.039107,2.665943 -2.670233,5.004956 -4.687334,7.359384 -5.938,0.05386 -11.284262,-2.461807 -14.4162982,-7.133822 5.6564282,-0.535412 9.1054262,-2.214559 11.2524362,-4.703139 z"
     class="ColorScheme-Text"
     id="path4"
     inkscape:connector-curvature="0" />
</svg>
