<svg viewBox="0 0 32 32" xmlns="http://www.w3.org/2000/svg"><g stroke-width="1.194489"><path d="m9.859649 17.452282c-.4912281.348548-.8596492.580913-1.2280702.813278-.3684211.232365-.6140351.580913-1.1052632.929461-.4912281.348547-.8596491.813278-1.1052632 1.045643-.245614.348548-.6140351.697095-.8596491 1.161826-.3684211.46473-.6140351.92946-.7368421 1.39419-.2456141.464731-.3684211.929461-.4912281 1.510374s-.2456141 1.161825-.2456141 1.626556h16.08772l-.736842-.697096c-.122807 0-.245615-.348547-.245615-.697095 0-.232365.122808-.348548.245615-.580913 0 0 0-.116183.122807-.116183l2.333333-2.207468-2.333333-2.207469c-.368422-.232365-.368422-.580913-.368422-.813278s.122808-.348548.245615-.580913c0 0 0-.116183.122807-.116183l.245614-.232365c-.122807 0-.122807-.116182-.245614-.116182-.491229-.348548-.85965-.580913-1.105264-.697096-.245614-.116182-.614035-.348547-1.105263-.697095.491228-.348548.859649-.46473 1.105263-.697096.245614-.116182.614035-.348547 1.105264-.697095.491228-.348548.859649-.580913 1.22807-.813278.245614-.232365.614035-.580913 1.105263-.929461.491228-.348547.859649-.813278 1.105263-1.045643.245614-.348547.614035-.697095.859649-1.161825.368421-.464731.614035-.9294609.736842-1.3941912s.368421-.9294606.491228-1.5103734c.122807-.5809129.245614-1.1618257.245614-1.626556h-21.245614c0 .5809129.1228071 1.1618257.2456141 1.626556.122807.5809128.368421 1.0456431.4912281 1.5103734.122807.4647303.491228.9294602.7368421 1.3941912.245614.46473.6140351.813278.8596491 1.161825.2456141.348548.6140351.697096 1.1052632 1.045643.4912281.348548.8596491.697096 1.1052632.929461.245614.232365.7368421.580913 1.2280702.813278.491228.348548.859649.580913 1.105263.697095.245614.116183.614035.348548 1.105263.697096-.491228.348548-.859649.46473-1.105263.697095s-.614035.232365-1.105263.580913zm13.017544 8.59751h2.45614c0-.46473-.122807-.92946-.245614-1.394191l-.368421-.348547zm4.052632 1.045643h-24.4385972c-.122807 0-.2456141 0-.3684211.116183s-.122807.232365-.122807.348548v1.975103c0 .116183 0 .232366.122807.348548.122807.116183.2456141.116183.3684211.116183h24.4385972c.122807 0 .245614 0 .368421-.116183.122807-.116182.122807-.232365.122807-.348548v-1.975103c0-.116183 0-.232365-.122807-.348548s-.245614-.116183-.368421-.116183zm-24.4385972-22.1908704h24.4385972c.122807 0 .245614 0 .368421-.1161826s.122807-.2323651.122807-.3485477v-1.9751037c0-.1161826 0-.2323651-.122807-.3485477s-.245614-.1161826-.368421-.1161826h-24.4385972c-.122807 0-.2456141 0-.3684211.1161826s-.122807.1161826-.122807.3485477v1.9751037c0 .1161826 0 .2323651.122807.3485477s.2456141.1161826.3684211.1161826z" fill="#4285f4"/><path d="m29.754386 19.311203c.122807-.232365.245614-.348547.245614-.580913 0 .116183-.122807.348548-.245614.580913z" fill="none"/><path d="m27.052632 16.755187s.122807 0 0 0zm0 4.99585 2.701754-2.439834c.122807-.232365.245614-.46473.245614-.580913 0-.232365-.122807-.46473-.245614-.46473l-1.22807-1.161826c-.245614-.116182-.368421-.232365-.614035-.232365s-.491228 0-.614035.232365l-2.578948 2.439834-2.701754-2.439834c-.245614-.116182-.368421-.232365-.614035-.232365s-.491228.116183-.614035.232365l-1.22807 1.045644c-.122807.232365-.245614.348547-.245614.580912 0 .232366 0 .464731.245614.580913l2.578947 2.439834-2.578947 2.439834c-.122807.232365-.245614.348548-.245614.580913s.122807.46473.245614.580913l1.22807 1.161826c.245614.116182.368421.232365.614035.232365s.491228-.116183.614035-.232365l2.701754-2.439834 2.456141 2.556016c.245614.116183.368421.232365.614035.232365s.491228-.116182.614035-.232365l1.22807-1.161826c.122807-.232365.245614-.348547.245614-.580912 0-.232366-.122807-.464731-.245614-.580913z" fill="#db3236"/><path d="m30 18.614108c0 .116182 0 .116182 0 0 0 .232365-.122807.348548-.245614.580913.122807-.116183.245614-.348548.245614-.580913" fill="#fff"/><path d="m27.052632 16.755187s.122807 0 0 0z" fill="#733737"/><path d="m27.175439 16.755187c-.122807 0 0 0 0 0" fill="#fff"/></g></svg>