<svg viewBox="0 0 32 32" xmlns="http://www.w3.org/2000/svg"><path d="m28.8 18.6c0 .1 0 .1 0 0 0 .2-.1.3-.2.5.1-.1.2-.3.2-.5" fill="#fff"/><path d="m26.4 17s.1 0 0 0z" fill="#733737"/><path d="m26.5 17s-.1 0 0 0c-.1 0 0 0 0 0" fill="#fff"/><path d="m28.5 17.8v9.4c0 .4-.1.7-.4.9s-.6.4-.9.4h-13.4c-.4 0-.7-.1-.9-.4-.3-.3-.4-.6-.4-.9v-2.2h-7.7c-.4 0-.7-.1-.9-.4s-.4-.6-.4-1v-18.8c0-.4.1-.7.4-.9.3-.3.6-.4.9-.4h15.2c.4 0 .7.1.9.4.3.3.4.6.4.9v4.6c.2.1.4.3.5.4l5.7 5.7c.3.3.5.6.7 1.1.2.4.3.8.3 1.2zm-10.7-11.2v-.9c0-.1 0-.2-.1-.3s-.2-.1-.3-.1h-9.9c-.1 0-.2 0-.3.1s-.1.2-.1.3v.9c0 .1 0 .2.1.3s.2.2.3.2h9.8c.1 0 .2 0 .3-.1s.2-.3.2-.4zm-3.6 20.1h12.5v-8.9h-5.8c-.4 0-.7-.1-.9-.4-.3-.3-.4-.6-.4-.9v-5.8h-5.4zm7.2-10.7h4.2l-4.2-4.2z" fill="#375273"/></svg>