<svg xmlns="http://www.w3.org/2000/svg" viewBox="0 0 32 32">
  <path fill="#FFF" d="M28.8 18.6c0 .1 0 .1 0 0 0 .2-.1.3-.2.5.1-.1.2-.3.2-.5"/>
  <path fill="#733737" d="M26.4 17s.1 0 0 0c.1 0 0 0 0 0z"/>
  <path fill="#FFF" d="M26.5 17s-.1 0 0 0c-.1 0 0 0 0 0"/>
  <path fill="#375273" d="M23.2 19.2v2.7c0 1.1-.4 2.1-1.2 2.8s-1.7 1.2-2.8 1.2H7.6c-1.1 0-2.1-.4-2.8-1.2S3.6 23 3.6 21.9V10.2c0-1.1.4-2.1 1.2-2.8s1.7-1.2 2.8-1.2h11.6c.6 0 1.1.1 1.6.3.2.1.2.2.3.3 0 .2 0 .3-.1.4l-.7.7c-.2.2-.3.2-.5.1H7.6c-.6 0-1.2.2-1.6.6-.4.4-.7 1-.7 1.6v11.6c0 .6.2 1.1.7 1.6.4.4 1 .6 1.6.6h11.6c.6 0 1.1-.2 1.6-.7.4-.4.7-1 .7-1.6V20c0-.1 0-.2.1-.3l.9-.9c.1-.1.3-.2.5-.1.1.1.2.3.2.5zM21.9 8.9l4 4-9.4 9.4h-4v-4l9.4-9.4zm-6 12l1.6-1.6-2.1-2.1-1.6 1.6v.8h1.3v1.3h.8zm6.2-10c-.1-.1-.3-.1-.5 0l-4.9 4.9c-.2.2-.2.3 0 .5.1.1.3.1.5 0l4.9-4.9c.1-.2.1-.4 0-.5zm6-.2L26.8 12l-4-4L24 6.7c.3-.3.6-.4.9-.4.4 0 .7.1.9.4l2.1 2.1c.3.3.4.6.4.9s0 .7-.2 1z"/>
</svg>
