<svg viewBox="0 0 32 32" xmlns="http://www.w3.org/2000/svg"><path d="m28.8 18.6c0 .1 0 .1 0 0 0 .2-.1.3-.2.5.1-.1.2-.3.2-.5" fill="#fff"/><path d="m26.4 17s.1 0 0 0z" fill="#733737"/><path d="m26.5 17s-.1 0 0 0c-.1 0 0 0 0 0" fill="#fff"/><path d="m27.6 25.8c0 .5-.2.9-.5 1.3-.4.4-.8.5-1.3.5s-.9-.2-1.3-.5l-4.8-4.8c-1.7 1.2-3.5 1.7-5.6 1.7-1.3 0-2.6-.3-3.8-.8s-2.2-1.2-3-2-1.6-2-2.1-3.2-.8-2.5-.8-3.8.3-2.6.8-3.8 1.2-2.3 2.1-3.1 1.9-1.6 3.1-2.1 2.5-.8 3.8-.8 2.6.3 3.8.8 2.3 1.2 3.1 2.1 1.6 1.9 2.1 3.1.8 2.5.8 3.8c0 2-.6 3.9-1.7 5.6l4.8 4.8c.3.3.5.7.5 1.2zm-9-7.2c1.2-1.2 1.8-2.7 1.8-4.4s-.6-3.2-1.8-4.4-2.7-1.8-4.4-1.8-3.2.6-4.4 1.8-1.8 2.7-1.8 4.4.6 3.2 1.8 4.4 2.7 1.8 4.4 1.8 3.2-.5 4.4-1.8z" fill="#375273"/></svg>