<?xml version="1.0" encoding="UTF-8" standalone="no"?>
<svg
   xmlns:dc="http://purl.org/dc/elements/1.1/"
   xmlns:cc="http://creativecommons.org/ns#"
   xmlns:rdf="http://www.w3.org/1999/02/22-rdf-syntax-ns#"
   xmlns:svg="http://www.w3.org/2000/svg"
   xmlns="http://www.w3.org/2000/svg"
   xmlns:sodipodi="http://sodipodi.sourceforge.net/DTD/sodipodi-0.dtd"
   xmlns:inkscape="http://www.inkscape.org/namespaces/inkscape"
   viewBox="0 0 32 32"
   version="1.1"
   id="svg14"
   sodipodi:docname="edit-clear-history.svg"
   inkscape:version="0.92.4 5da689c313, 2019-01-14">
  <metadata
     id="metadata20">
    <rdf:RDF>
      <cc:Work
         rdf:about="">
        <dc:format>image/svg+xml</dc:format>
        <dc:type
           rdf:resource="http://purl.org/dc/dcmitype/StillImage" />
      </cc:Work>
    </rdf:RDF>
  </metadata>
  <defs
     id="defs18" />
  <sodipodi:namedview
     pagecolor="#ffffff"
     bordercolor="#666666"
     borderopacity="1"
     objecttolerance="10"
     gridtolerance="10"
     guidetolerance="10"
     inkscape:pageopacity="0"
     inkscape:pageshadow="2"
     inkscape:window-width="1366"
     inkscape:window-height="703"
     id="namedview16"
     showgrid="false"
     inkscape:zoom="7.375"
     inkscape:cx="16"
     inkscape:cy="16"
     inkscape:window-x="0"
     inkscape:window-y="0"
     inkscape:window-maximized="1"
     inkscape:current-layer="svg14" />
  <g
     id="g18"
     transform="matrix(1.2280702,0,0,1.1618257,-5.3006243,-3.1043264)">
    <path
       style="fill:#1d99f3;fill-opacity:1"
       id="path2"
       d="m 12.4,17.6 c -0.4,0.3 -0.7,0.5 -1,0.7 -0.3,0.2 -0.5,0.5 -0.9,0.8 C 10.1,19.4 9.8,19.8 9.6,20 9.4,20.3 9.1,20.6 8.9,21 8.6,21.4 8.4,21.8 8.3,22.2 8.1,22.6 8,23 7.9,23.5 7.8,24 7.7,24.5 7.7,24.9 H 20.8 L 20.2,24.3 C 20.1,24.3 20,24 20,23.7 c 0,-0.2 0.1,-0.3 0.2,-0.5 0,0 0,-0.1 0.1,-0.1 l 1.9,-1.9 -1.9,-1.9 C 20,19.1 20,18.8 20,18.6 c 0,-0.2 0.1,-0.3 0.2,-0.5 0,0 0,-0.1 0.1,-0.1 l 0.2,-0.2 c -0.1,0 -0.1,-0.1 -0.2,-0.1 -0.4,-0.3 -0.7,-0.5 -0.9,-0.6 -0.2,-0.1 -0.5,-0.3 -0.9,-0.6 0.4,-0.3 0.7,-0.4 0.9,-0.6 0.2,-0.1 0.5,-0.3 0.9,-0.6 0.4,-0.3 0.7,-0.5 1,-0.7 0.2,-0.2 0.5,-0.5 0.9,-0.8 0.4,-0.3 0.7,-0.7 0.9,-0.9 0.2,-0.3 0.5,-0.6 0.7,-1 0.3,-0.4 0.5,-0.8 0.6,-1.2 0.1,-0.4 0.3,-0.8 0.4,-1.3 C 24.9,8.9 25,8.4 25,8 H 7.7 c 0,0.5 0.1,1 0.2,1.4 0.1,0.5 0.3,0.9 0.4,1.3 0.1,0.4 0.4,0.8 0.6,1.2 0.2,0.4 0.5,0.7 0.7,1 0.2,0.3 0.5,0.6 0.9,0.9 0.4,0.3 0.7,0.6 0.9,0.8 0.2,0.2 0.6,0.5 1,0.7 0.4,0.3 0.7,0.5 0.9,0.6 0.2,0.1 0.5,0.3 0.9,0.6 -0.4,0.3 -0.7,0.4 -0.9,0.6 -0.2,0.2 -0.5,0.2 -0.9,0.5 z M 23,25 h 2 c 0,-0.4 -0.1,-0.8 -0.2,-1.2 l -0.3,-0.3 z m 3.3,0.9 H 6.4 C 6.3,25.9 6.2,25.9 6.1,26 6,26.1 6,26.2 6,26.3 V 28 c 0,0.1 0,0.2 0.1,0.3 0.1,0.1 0.2,0.1 0.3,0.1 h 19.9 c 0.1,0 0.2,0 0.3,-0.1 0.1,-0.1 0.1,-0.2 0.1,-0.3 v -1.7 c 0,-0.1 0,-0.2 -0.1,-0.3 -0.1,-0.1 -0.2,-0.1 -0.3,-0.1 z M 6.4,6.8 h 19.9 c 0.1,0 0.2,0 0.3,-0.1 0.1,-0.1 0.1,-0.2 0.1,-0.3 V 4.7 c 0,-0.1 0,-0.2 -0.1,-0.3 C 26.5,4.3 26.4,4.3 26.3,4.3 H 6.4 C 6.3,4.3 6.2,4.3 6.1,4.4 6,4.5 6,4.5 6,4.7 v 1.7 c 0,0.1 0,0.2 0.1,0.3 0.1,0.1 0.2,0.1 0.3,0.1 z"
       inkscape:connector-curvature="0" />
    <path
       id="path4"
       d="m 28.6,19.2 c 0.1,-0.2 0.2,-0.3 0.2,-0.5 0,0.1 -0.1,0.3 -0.2,0.5 z"
       inkscape:connector-curvature="0"
       style="fill:none" />
    <path
       style="fill:#da4453;fill-opacity:1"
       id="path6"
       d="m 26.4,17 c 0,0 0.1,0 0,0 0.1,0 0,0 0,0 z m 0,4.3 2.2,-2.1 c 0.1,-0.2 0.2,-0.4 0.2,-0.5 0,-0.2 -0.1,-0.4 -0.2,-0.4 l -1,-1 c -0.2,-0.1 -0.3,-0.2 -0.5,-0.2 -0.2,0 -0.4,0 -0.5,0.2 l -2.1,2.1 -2.2,-2.1 c -0.2,-0.1 -0.3,-0.2 -0.5,-0.2 -0.2,0 -0.4,0.1 -0.5,0.2 l -1,0.9 c -0.1,0.2 -0.2,0.3 -0.2,0.5 0,0.2 0,0.4 0.2,0.5 l 2.1,2.1 -2.1,2.1 c -0.1,0.2 -0.2,0.3 -0.2,0.5 0,0.2 0.1,0.4 0.2,0.5 l 1,1 c 0.2,0.1 0.3,0.2 0.5,0.2 0.2,0 0.4,-0.1 0.5,-0.2 l 2.2,-2.1 2,2.2 c 0.2,0.1 0.3,0.2 0.5,0.2 0.2,0 0.4,-0.1 0.5,-0.2 l 1,-1 c 0.1,-0.2 0.2,-0.3 0.2,-0.5 0,-0.2 -0.1,-0.4 -0.2,-0.5 z"
       inkscape:connector-curvature="0" />
    <path
       id="path8"
       d="m 28.8,18.6 c 0,0.1 0,0.1 0,0 0,0.2 -0.1,0.3 -0.2,0.5 0.1,-0.1 0.2,-0.3 0.2,-0.5"
       inkscape:connector-curvature="0"
       style="fill:#ffffff" />
    <path
       id="path10"
       d="m 26.4,17 c 0,0 0.1,0 0,0 0.1,0 0,0 0,0 z"
       inkscape:connector-curvature="0"
       style="fill:#733737" />
    <path
       id="path12"
       d="m 26.5,17 c 0,0 -0.1,0 0,0 -0.1,0 0,0 0,0"
       inkscape:connector-curvature="0"
       style="fill:#ffffff" />
  </g>
</svg>
