<svg viewBox="0 0 32 32" xmlns="http://www.w3.org/2000/svg"><path d="m28.8 18.6c0 .1 0 .1 0 0 0 .2-.1.3-.2.5.1-.1.2-.3.2-.5" fill="#fff"/><path d="m26.4 17s.1 0 0 0z" fill="#733737"/><path d="m26.5 17s-.1 0 0 0c-.1 0 0 0 0 0" fill="#fff"/><path d="m27.2 8.9c.4 0 .7.1.9.4s.4.6.4.9v17c0 .4-.1.7-.4.9s-.6.4-.9.4h-13.4c-.4 0-.7-.1-.9-.4-.3-.3-.4-.6-.4-.9v-4h-7.7c-.4 0-.7-.1-.9-.4s-.4-.6-.4-.9v-9.4c0-.4.1-.8.3-1.2s.4-.8.7-1.1l5.7-5.7c.3-.3.6-.5 1.1-.7.4-.2.9-.3 1.2-.3h5.8c.4 0 .7.1.9.4.3.3.4.6.4.9v4.6c.6-.4 1.2-.6 1.8-.6h5.8zm-13.8 6.6 4.4-4.4v-5.8h-5.4v5.8c0 .4-.1.7-.4.9-.3.3-.6.4-.9.4h-5.8v8.9h7.1v-3.6c0-.4.1-.8.3-1.2s.4-.7.7-1zm-2.8-9-4.2 4.2h4.2zm16.1 20.2v-16.1h-5.4v5.8c0 .4-.1.7-.4.9-.3.3-.6.4-.9.4h-5.8v8.9h12.5zm-7.1-14.9-4.2 4.2h4.2z" fill="#375273"/></svg>