<svg xmlns="http://www.w3.org/2000/svg" viewBox="0 0 22 22">
 <defs id="defs3051">
   <style type="text/css" id="current-color-scheme">
     .ColorScheme-Text {
       color:#da4453;
     }
     </style>
 </defs>
   <path
      style="fill:currentColor;fill-opacity:1;stroke:none"
      d="m3.0831416 8.16216 1.00157.81437-.94267 1.87925c-.47132.86655.33838 1.71069.85428 2.00455.50787.28926 1.29613.32365 2.03258.31323l1.32559-2.25513 1.00156.56378-1.73801-3.35134-3.5349.0313zm.14727 4.60026 2.1504 4.13437c.43205.5742 1.24706.70993 2.09151.68906h2.26823v-3.91511l-4.30081-.0313c-.66768.0417-1.54162-.10445-2.20933-.87701zm13.5293104-7.61917-1.16999.51679-1.12244-1.76903c-.49976-.84909-1.60182-.52138-2.09887-.19428-.48931.32202-.90039 1.02281-1.24865 1.69816l1.25265 2.29983-.9594.63827 3.65925.0429 1.68745-3.23261zm-3.9377-2.09616-4.5172904-.0471c-.69204.11484-1.20124.79082-1.59309 1.56958l-1.09966 2.06449 3.29048 1.8981 2.1114004-3.89934c.2886-.62801.83513-1.35255 1.80816-1.58571zm.1965 15.95288.13286-1.31547 2.03098-.16392c.95589-.0433 1.21477-1.20517 1.18083-1.81617-.0334-.60149-.42311-1.31539-.82188-1.95978l-2.54018.0252-.0714-1.18267-1.81007 3.30977 1.8988 3.10308zm3.67077-2.56773 2.22961-4.08864c.23901-.68558-.0822-1.47678-.5468-2.21098l-1.20198-2.00178-3.19051 2.0747 2.25357 3.81219c.3879.56712.73187 1.41581.45611 2.41451z"
      class="ColorScheme-Text" />
</svg> 
