<svg xmlns="http://www.w3.org/2000/svg" viewBox="0 0 32 32">
  <path d="M12.4 17.6c-.4.3-.7.5-1 .7s-.5.5-.9.8c-.4.3-.7.7-.9.9-.2.3-.5.6-.7 1-.3.4-.5.8-.6 1.2-.2.4-.3.8-.4 1.3-.1.5-.2 1-.2 1.4h13.1l-.6-.6c-.1 0-.2-.3-.2-.6 0-.2.1-.3.2-.5 0 0 0-.1.1-.1l1.9-1.9-1.9-1.9c-.3-.2-.3-.5-.3-.7 0-.2.1-.3.2-.5 0 0 0-.1.1-.1l.2-.2c-.1 0-.1-.1-.2-.1-.4-.3-.7-.5-.9-.6s-.5-.3-.9-.6c.4-.3.7-.4.9-.6.2-.1.5-.3.9-.6s.7-.5 1-.7c.2-.2.5-.5.9-.8.4-.3.7-.7.9-.9.2-.3.5-.6.7-1 .3-.4.5-.8.6-1.2s.3-.8.4-1.3c.1-.5.2-1 .2-1.4H7.7c0 .5.1 1 .2 1.4.1.5.3.9.4 1.3s.4.8.6 1.2.5.7.7 1c.2.3.5.6.9.9.4.3.7.6.9.8.2.2.6.5 1 .7.4.3.7.5.9.6.2.1.5.3.9.6-.4.3-.7.4-.9.6s-.5.2-.9.5zM23 25h2c0-.4-.1-.8-.2-1.2l-.3-.3L23 25zm3.3.9H6.4c-.1 0-.2 0-.3.1-.1.1-.1.2-.1.3V28c0 .1 0 .2.1.3.1.1.2.1.3.1h19.9c.1 0 .2 0 .3-.1.1-.1.1-.2.1-.3v-1.7c0-.1 0-.2-.1-.3-.1-.1-.2-.1-.3-.1zM6.4 6.8h19.9c.1 0 .2 0 .3-.1s.1-.2.1-.3V4.7c0-.1 0-.2-.1-.3s-.2-.1-.3-.1H6.4c-.1 0-.2 0-.3.1s-.1.1-.1.3v1.7c0 .1 0 .2.1.3s.2.1.3.1z" fill="#375273"/>
  <path fill="none" d="M28.6 19.2c.1-.2.2-.3.2-.5 0 .1-.1.3-.2.5z"/>
  <path fill="#733737" d="M26.4 17s.1 0 0 0c.1 0 0 0 0 0zm0 4.3l2.2-2.1c.1-.2.2-.4.2-.5 0-.2-.1-.4-.2-.4l-1-1c-.2-.1-.3-.2-.5-.2s-.4 0-.5.2l-2.1 2.1-2.2-2.1c-.2-.1-.3-.2-.5-.2s-.4.1-.5.2l-1 .9c-.1.2-.2.3-.2.5s0 .4.2.5l2.1 2.1-2.1 2.1c-.1.2-.2.3-.2.5s.1.4.2.5l1 1c.2.1.3.2.5.2s.4-.1.5-.2l2.2-2.1 2 2.2c.2.1.3.2.5.2s.4-.1.5-.2l1-1c.1-.2.2-.3.2-.5s-.1-.4-.2-.5l-2.1-2.2z"/>
  <path fill="#FFF" d="M28.8 18.6c0 .1 0 .1 0 0 0 .2-.1.3-.2.5.1-.1.2-.3.2-.5"/>
  <path fill="#733737" d="M26.4 17s.1 0 0 0c.1 0 0 0 0 0z"/>
  <path fill="#FFF" d="M26.5 17s-.1 0 0 0c-.1 0 0 0 0 0"/>
</svg>
