<?xml version="1.0" encoding="UTF-8" standalone="no"?>
<svg
   xmlns:dc="http://purl.org/dc/elements/1.1/"
   xmlns:cc="http://creativecommons.org/ns#"
   xmlns:rdf="http://www.w3.org/1999/02/22-rdf-syntax-ns#"
   xmlns:svg="http://www.w3.org/2000/svg"
   xmlns="http://www.w3.org/2000/svg"
   xmlns:sodipodi="http://sodipodi.sourceforge.net/DTD/sodipodi-0.dtd"
   xmlns:inkscape="http://www.inkscape.org/namespaces/inkscape"
   viewBox="0 0 22 22"
   version="1.1"
   id="svg6"
   sodipodi:docname="edit-rename.svg"
   inkscape:version="0.92.4 5da689c313, 2019-01-14">
  <metadata
     id="metadata10">
    <rdf:RDF>
      <cc:Work
         rdf:about="">
        <dc:format>image/svg+xml</dc:format>
        <dc:type
           rdf:resource="http://purl.org/dc/dcmitype/StillImage" />
      </cc:Work>
    </rdf:RDF>
  </metadata>
  <sodipodi:namedview
     pagecolor="#ffffff"
     bordercolor="#666666"
     borderopacity="1"
     objecttolerance="10"
     gridtolerance="10"
     guidetolerance="10"
     inkscape:pageopacity="0"
     inkscape:pageshadow="2"
     inkscape:window-width="1366"
     inkscape:window-height="703"
     id="namedview8"
     showgrid="false"
     inkscape:zoom="10.727273"
     inkscape:cx="11"
     inkscape:cy="11"
     inkscape:window-x="0"
     inkscape:window-y="0"
     inkscape:window-maximized="1"
     inkscape:current-layer="svg6" />
  <defs
     id="defs3051">
    <style
       type="text/css"
       id="current-color-scheme">
     .ColorScheme-Text {
       color:#f2f2f2;
     }
     </style>
  </defs>
  <path
     style="color:#f2f2f2;fill:#1d99f3;fill-opacity:1;stroke:none;stroke-width:1.15148306"
     d="m 2.9396186,1.9745763 c -0.6379446,0 -1.151483,0.5135384 -1.151483,1.151483 V 19.246822 c 0,0.637945 0.5135384,1.151483 1.151483,1.151483 H 19.060382 c 0.637944,0 1.151483,-0.513538 1.151483,-1.151483 V 3.1260593 c 0,-0.6379446 -0.513539,-1.151483 -1.151483,-1.151483 z M 14.782806,5.4290254 c 0.103749,0 0.203041,0.041223 0.276621,0.1146878 l 1.583289,1.5832891 c 0.153148,0.1531934 0.153148,0.4000598 0,0.5532531 L 15.758861,8.5641107 13.622319,6.4275685 14.506174,5.5437132 C 14.579754,5.4701334 14.679,5.4290254 14.782806,5.4290254 Z M 13.345698,6.7042008 15.48224,8.8407429 15.176372,9.1488568 13.03983,7.0100692 Z M 12.760963,7.2889354 14.899751,9.4254776 14.591637,9.731346 12.455095,7.5948039 Z m -0.584746,0.5824892 2.138799,2.1387994 -6.0205521,6.02054 c -0.042835,0.04295 -0.095228,0.07496 -0.1529285,0.09442 L 5.759854,16.923578 c -0.040993,0.01382 -0.081986,0.02027 -0.1236924,0.02027 -0.1022516,0 -0.2042615,-0.03996 -0.2788776,-0.114687 C 5.2519233,16.7238 5.2157437,16.567935 5.262862,16.426591 l 0.7983922,-2.381682 c 0.01946,-0.05734 0.051586,-0.109966 0.094422,-0.152928 z"
     class="ColorScheme-Text"
     id="path4"
     inkscape:connector-curvature="0" />
</svg>
