<?xml version="1.0" encoding="UTF-8" standalone="no"?>
<svg
   xmlns:dc="http://purl.org/dc/elements/1.1/"
   xmlns:cc="http://creativecommons.org/ns#"
   xmlns:rdf="http://www.w3.org/1999/02/22-rdf-syntax-ns#"
   xmlns:svg="http://www.w3.org/2000/svg"
   xmlns="http://www.w3.org/2000/svg"
   xmlns:sodipodi="http://sodipodi.sourceforge.net/DTD/sodipodi-0.dtd"
   xmlns:inkscape="http://www.inkscape.org/namespaces/inkscape"
   viewBox="0 0 32 32"
   version="1.1"
   id="svg6"
   sodipodi:docname="edit-rename.svg"
   inkscape:version="0.92.4 5da689c313, 2019-01-14"
   width="32"
   height="32">
  <metadata
     id="metadata10">
    <rdf:RDF>
      <cc:Work
         rdf:about="">
        <dc:format>image/svg+xml</dc:format>
        <dc:type
           rdf:resource="http://purl.org/dc/dcmitype/StillImage" />
        <dc:title />
      </cc:Work>
    </rdf:RDF>
  </metadata>
  <sodipodi:namedview
     pagecolor="#ffffff"
     bordercolor="#666666"
     borderopacity="1"
     objecttolerance="10"
     gridtolerance="10"
     guidetolerance="10"
     inkscape:pageopacity="0"
     inkscape:pageshadow="2"
     inkscape:window-width="1366"
     inkscape:window-height="703"
     id="namedview8"
     showgrid="false"
     inkscape:zoom="10.727273"
     inkscape:cx="11"
     inkscape:cy="11"
     inkscape:window-x="0"
     inkscape:window-y="0"
     inkscape:window-maximized="1"
     inkscape:current-layer="svg6" />
  <defs
     id="defs3051">
    <style
       type="text/css"
       id="current-color-scheme">
     .ColorScheme-Text {
       color:#f2f2f2;
     }
     </style>
  </defs>
  <path
     style="color:#f2f2f2;fill:#1d99f3;fill-opacity:1;stroke:none;stroke-width:1.74999988"
     d="m 3.6822033,1.8813557 c -0.969535,0 -1.7499999,0.7804658 -1.7499999,1.7499998 V 28.131356 c 0,0.969536 0.7804649,1.75 1.7499999,1.75 H 28.182203 c 0.969534,0 1.750001,-0.780464 1.750001,-1.75 V 3.6313555 c 0,-0.969534 -0.780467,-1.7499998 -1.750001,-1.7499998 z M 21.681232,7.1313554 c 0.157676,0 0.308578,0.062646 0.420404,0.1743005 l 2.406249,2.4062501 c 0.232751,0.232821 0.232751,0.608003 0,0.840822 L 23.164621,11.895995 19.917549,8.6489203 21.260813,7.3056559 C 21.372639,7.1938305 21.52347,7.1313554 21.681232,7.1313554 Z m -2.184086,1.9379856 3.247072,3.247072 -0.464852,0.468266 -3.247072,-3.250486 z m -0.888668,0.888667 3.250486,3.247074 -0.468266,0.464852 -3.247072,-3.247073 z m -0.888685,0.885256 3.250503,3.250503 -9.149911,9.149891 c -0.0651,0.06527 -0.144725,0.113922 -0.232416,0.143498 l -3.6196308,1.213382 c -0.0623,0.021 -0.1246005,0.0308 -0.1879851,0.0308 -0.1553999,0 -0.3104324,-0.06073 -0.4238324,-0.174298 -0.160125,-0.16012 -0.2151099,-0.397001 -0.1435006,-0.611813 l 1.2133798,-3.61963 c 0.029575,-0.08714 0.0784,-0.167124 0.1435007,-0.232417 z"
     class="ColorScheme-Text"
     id="path4"
     inkscape:connector-curvature="0" />
</svg>
