<svg height="32" viewBox="0 0 32 32" width="32" xmlns="http://www.w3.org/2000/svg"><path d="m28.41984 1.9999999-5.923826 10.0290981-4.38264-2.4744507-1.852967 2.9626077 10.24978 5.790549 1.852966-2.965973-4.308237-2.434052 5.945084-10.0661282zm-19.163861 5.5919206a1.8139947 1.7236985 0 0 0 -1.8139949 1.7236985 1.8139947 1.7236985 0 0 0 1.8139949 1.723699 1.8139947 1.7236985 0 0 0 1.813995-1.723699 1.8139947 1.7236985 0 0 0 -1.813995-1.7236985zm-6.3489816 1.7236985a.90699735.86184921 0 0 0 -.9069974.86185.90699735.86184921 0 0 0 .9069974.861849.90699735.86184921 0 0 0 .9069973-.861849.90699735.86184921 0 0 0 -.9069973-.86185zm2.720992 3.447396a1.8139947 1.7236985 0 0 0 -1.8139947 1.723699 1.8139947 1.7236985 0 0 0 1.8139947 1.723699 1.8139947 1.7236985 0 0 0 1.8139947-1.723699 1.8139947 1.7236985 0 0 0 -1.8139947-1.723699zm9.0699736 1.723699c-2.02893 2.696326-5.740376 4.845134-12.697963 5.171095v1.723699c3.8342651 5.81178 9.069974 8.618492 16.325952 8.618492h1.813995c2.378598-2.735846 4.276516-5.22691 5.441984-8.618492v-1.723699l-9.069974-5.171095zm.960142 1.898761 7.851196 4.477577c-1.039107 2.665943-2.670233 5.004956-4.687334 7.359384-5.938.05386-11.284262-2.461807-14.4162982-7.133822 5.6564282-.535412 9.1054262-2.214559 11.2524362-4.703139z" fill="#f25022"/></svg>