<svg height="32" viewBox="0 0 32 32" width="32" xmlns="http://www.w3.org/2000/svg"><path d="m23.191226 11.008683h-2.173961v-3.7155828c0-.3882333-.432745-.7028333-.966321-.7028333h-1.04128l-2.083546-5.0881667c-.1219-.2978499-.498617-.5021-.926118-.5021-.427294 0-.804149.2042501-.926118.5021l-2.083548 5.0881667h-1.041278c-.533577 0-.966323.3146-.966323.7028333v3.7156998h-2.1739588c-2.3757851 0-4.3087741 1.4058-4.3087741 3.133917v13.723383c0 1.7281 1.932805 3.1339 4.3087741 3.1339h14.3824518c2.375784 0 4.308774-1.4058 4.308774-3.1339v-13.723383c0-1.728267-1.932805-3.134034-4.308774-3.134034z" fill="#4285f4"/></svg>