<?xml version="1.0" encoding="UTF-8" standalone="no"?>
<svg
   xmlns:dc="http://purl.org/dc/elements/1.1/"
   xmlns:cc="http://creativecommons.org/ns#"
   xmlns:rdf="http://www.w3.org/1999/02/22-rdf-syntax-ns#"
   xmlns:svg="http://www.w3.org/2000/svg"
   xmlns="http://www.w3.org/2000/svg"
   xmlns:sodipodi="http://sodipodi.sourceforge.net/DTD/sodipodi-0.dtd"
   xmlns:inkscape="http://www.inkscape.org/namespaces/inkscape"
   viewBox="0 0 32 32"
   version="1.1"
   id="svg6"
   sodipodi:docname="folder-new.svg"
   inkscape:version="0.92.4 5da689c313, 2019-01-14"
   width="32"
   height="32">
  <metadata
     id="metadata10">
    <rdf:RDF>
      <cc:Work
         rdf:about="">
        <dc:format>image/svg+xml</dc:format>
        <dc:type
           rdf:resource="http://purl.org/dc/dcmitype/StillImage" />
        <dc:title></dc:title>
      </cc:Work>
    </rdf:RDF>
  </metadata>
  <sodipodi:namedview
     pagecolor="#ffffff"
     bordercolor="#666666"
     borderopacity="1"
     objecttolerance="10"
     gridtolerance="10"
     guidetolerance="10"
     inkscape:pageopacity="0"
     inkscape:pageshadow="2"
     inkscape:window-width="1366"
     inkscape:window-height="703"
     id="namedview8"
     showgrid="false"
     inkscape:zoom="10.727273"
     inkscape:cx="11"
     inkscape:cy="11"
     inkscape:window-x="0"
     inkscape:window-y="0"
     inkscape:window-maximized="1"
     inkscape:current-layer="svg6" />
  <defs
     id="defs3051">
    <style
       type="text/css"
       id="current-color-scheme">
     .ColorScheme-Text {
       color:#4d4d4d;
     }
     </style>
  </defs>
  <g
     id="g818"
     transform="matrix(1.5574131,0,0,1.5390718,-1.1617626,-1.0941907)">
    <path
       inkscape:connector-curvature="0"
       id="path4"
       class="ColorScheme-Text"
       d="m 1.7616459,3.7351127 c -0.1922804,0 -0.3463917,0.1582764 -0.3463917,0.3557436 V 18.636029 l 19.2627118,0.04194 V 6.1960831 c 0,-0.1974765 -0.155884,-0.3575648 -0.348174,-0.3575648 H 9.88843 C 9.5346799,5.870648 9.4894799,5.8227336 9.3146708,5.5831148 9.0667694,5.2423994 8.6918592,4.3246749 8.4478103,3.9923188 8.2519278,3.7013391 8.2202406,3.735094 7.8953653,3.735094 H 1.7616459 Z m 8.6117321,5.6589916 h 1.348246 c -0.0019,0.6638437 0,2.4117297 0,2.4117297 h 2.186683 v 1.384642 h -2.186683 c 0,0 -7.9e-4,1.744926 -0.0019,2.41173 h -1.348245 c 9.05e-4,-0.666804 0.0019,-2.41173 0.0019,-2.41173 0,0 -1.4644666,-9.34e-4 -2.1884652,0 v -1.382821 c 0.7239986,-0.0019 2.1884652,-0.0019 2.1884652,-0.0019 0,0 -9.15e-4,-1.747933 0,-2.4117297 z"
       style="color:#4d4d4d;fill:#1d99f3;fill-opacity:1;stroke:none;stroke-width:1.18557262" />
  </g>
</svg>
