<svg xmlns="http://www.w3.org/2000/svg" viewBox="0 0 32 32">
  <path fill="#375273" d="M28.5 21.3v4.8c0 .4-.1.7-.4 1s-.6.4-1 .4H4.9c-.4 0-.7-.1-1-.4s-.4-.6-.4-1v-4.8c0-.4.1-.7.4-1s.6-.4 1-.4h7l2 2c.6.6 1.3.8 2 .8.8 0 1.5-.3 2-.8l2-2h7c.4 0 .7.1 1 .4s.6.6.6 1zm-4.9-8.6c.2.4.1.8-.2 1.1l-6.8 6.8c-.2.2-.4.3-.7.3-.3 0-.5-.1-.7-.3l-6.8-6.8c-.3-.3-.4-.6-.2-1.1.2-.4.5-.6.9-.6H13V5.4c0-.3.1-.5.3-.7.2-.2.4-.3.7-.3h3.9c.3 0 .5.1.7.3s.3.4.3.7v6.8h3.9c.4-.1.7.1.8.5zm-1.1 12.7c.2-.2.3-.4.3-.7 0-.3-.1-.5-.3-.7-.2-.2-.4-.3-.7-.3s-.5.1-.7.3c-.2.2-.3.4-.3.7 0 .3.1.5.3.7.2.2.4.3.7.3s.5-.2.7-.3zm3.8 0c.2-.2.3-.4.3-.7 0-.3-.1-.5-.3-.7s-.4-.3-.7-.3c-.3 0-.5.1-.7.3s-.3.4-.3.7c0 .3.1.5.3.7s.4.3.7.3c.3-.1.5-.2.7-.3z"/>
</svg>
