<?xml version="1.0" encoding="UTF-8" standalone="no"?>
<svg
   xmlns:dc="http://purl.org/dc/elements/1.1/"
   xmlns:cc="http://creativecommons.org/ns#"
   xmlns:rdf="http://www.w3.org/1999/02/22-rdf-syntax-ns#"
   xmlns:svg="http://www.w3.org/2000/svg"
   xmlns="http://www.w3.org/2000/svg"
   xmlns:xlink="http://www.w3.org/1999/xlink"
   xmlns:sodipodi="http://sodipodi.sourceforge.net/DTD/sodipodi-0.dtd"
   xmlns:inkscape="http://www.inkscape.org/namespaces/inkscape"
   viewBox="0 0 32 32"
   version="1.1"
   id="svg14"
   sodipodi:docname="folder-remote.svg"
   enable-background="new"
   inkscape:version="0.92.4 5da689c313, 2019-01-14">
  <metadata
     id="metadata20">
    <rdf:RDF>
      <cc:Work
         rdf:about="">
        <dc:format>image/svg+xml</dc:format>
        <dc:type
           rdf:resource="http://purl.org/dc/dcmitype/StillImage" />
      </cc:Work>
    </rdf:RDF>
  </metadata>
  <defs
     id="defs18">
    <linearGradient
       id="d"
       gradientUnits="userSpaceOnUse"
       x1="22.098652"
       x2="22.003916"
       xlink:href="#c"
       y1="39.567833"
       y2="11.94437"
       gradientTransform="translate(-46.339413,-15.728814)" />
    <linearGradient
       id="c">
      <stop
         offset="0"
         stop-color="#ccc"
         id="stop10" />
      <stop
         offset="1"
         stop-color="#e6e6e6"
         id="stop12" />
    </linearGradient>
    <linearGradient
       id="b"
       gradientUnits="userSpaceOnUse"
       x1="13.92103"
       x2="13.524684"
       y1="39.852325"
       y2="8.3051176"
       gradientTransform="translate(-46.339413,-15.728814)">
      <stop
         offset="0"
         stop-color="#197cf1"
         id="stop5" />
      <stop
         offset="1"
         stop-color="#20bcfa"
         id="stop7" />
    </linearGradient>
    <linearGradient
       id="g"
       gradientUnits="userSpaceOnUse"
       x1="18.02523"
       x2="17.593777"
       xlink:href="#c"
       y1="39.75425"
       y2="9.6482773"
       gradientTransform="translate(-46.339413,-15.728814)" />
    <linearGradient
       id="e"
       gradientTransform="matrix(0.82970355,0,0,0.87402304,-1.470465,-8.683675)"
       gradientUnits="userSpaceOnUse"
       x1="-33.88871"
       x2="-34.502491"
       y1="37.608711"
       y2="2.822808">
      <stop
         offset="0"
         stop-color="#ccc"
         id="stop16" />
      <stop
         offset="1"
         stop-color="#f5f2f5"
         id="stop18" />
    </linearGradient>
    <filter
       style="color-interpolation-filters:sRGB"
       id="a"
       height="1.099489"
       width="1.0564131"
       x="-0.028207"
       y="-0.049743999">
      <feGaussianBlur
         stdDeviation="5.8998423"
         id="feGaussianBlur2" />
    </filter>
    <linearGradient
       id="f"
       gradientTransform="matrix(0.85071011,0,0,0.87172595,-1.000315,-7.266953)"
       gradientUnits="userSpaceOnUse"
       x1="-27.458342"
       x2="-26.62384"
       y1="36.068886"
       y2="3.7577009">
      <stop
         offset="0"
         stop-color="#2a97ff"
         id="stop21" />
      <stop
         offset="1"
         stop-color="#20bcfa"
         id="stop23" />
    </linearGradient>
    <filter
       inkscape:collect="always"
       style="color-interpolation-filters:sRGB"
       id="filter117">
      <feBlend
         inkscape:collect="always"
         mode="color"
         in2="BackgroundImage"
         id="feBlend119" />
    </filter>
    <filter
       inkscape:collect="always"
       style="color-interpolation-filters:sRGB"
       id="filter121">
      <feBlend
         inkscape:collect="always"
         mode="multiply"
         in2="BackgroundImage"
         id="feBlend123" />
    </filter>
  </defs>
  <sodipodi:namedview
     pagecolor="#ffffff"
     bordercolor="#666666"
     borderopacity="1"
     objecttolerance="10"
     gridtolerance="10"
     guidetolerance="10"
     inkscape:pageopacity="0"
     inkscape:pageshadow="2"
     inkscape:window-width="1366"
     inkscape:window-height="703"
     id="namedview16"
     showgrid="false"
     inkscape:zoom="7.375"
     inkscape:cx="28.067796"
     inkscape:cy="21.092942"
     inkscape:window-x="0"
     inkscape:window-y="0"
     inkscape:window-maximized="1"
     inkscape:current-layer="svg14" />
  <g
     inkscape:groupmode="layer"
     id="layer2"
     inkscape:label="Layer 2"
     style="filter:url(#filter117)" />
  <g
     inkscape:groupmode="layer"
     id="layer1"
     inkscape:label="Layer 1"
     style="filter:url(#filter121)" />
  <g
     id="g57"
     transform="translate(0,1.4915254)">
    <g
       transform="matrix(0.76283631,0,0,0.66484242,32.792179,8.5348633)"
       id="g102">
      <path
         d="m -39.795447,-4.072536 c -0.735153,0 -1.326321,0.592871 -1.326321,1.328021 v 25.543597 c 0,0.735152 0.591168,1.328023 1.326321,1.328023 h 17.206474 1.205593 17.206474 c 0.735152,0 1.326322,-0.592871 1.326322,-1.328023 V -2.744515 c 0,-0.73515 -0.59117,-1.328021 -1.326322,-1.328021 h -17.206474 -1.205593 z"
         id="path27"
         inkscape:connector-curvature="0"
         style="fill:url(#d)" />
      <path
         d="m -27.864945,-7.7082629 c -0.102628,-0.00269 -0.226588,0.00157 -0.387735,0.00157 h -12.168913 c -0.381513,0 -0.689133,0.3097891 -0.689133,0.6938416 V -2.78387 c -5.65e-4,0.016 -0.0047,0.03095 -0.0047,0.04709 v 25.576381 c 0,0.736091 0.593511,1.329602 1.329601,1.329602 h 35.69831 c 0.736093,0 1.328033,-0.593511 1.328033,-1.329602 V -2.736777 c 0,-0.736092 -0.59194,-1.329602 -1.328033,-1.329602 h -21.316008 c -0.01268,-0.0169 -0.02114,-0.02595 -0.03454,-0.04395 -0.491861,-0.662668 -1.234682,-2.4492081 -1.718902,-3.0956048 -0.2915,-0.4244578 -0.400085,-0.4942592 -0.707971,-0.5023288 z"
         id="path29"
         inkscape:connector-curvature="0"
         style="fill:url(#b)" />
      <path
         d="m -38.840254,-6.2721261 h 9.738435 c 0.277,0 0.5,0.223 0.5,0.5 v 1.1090001 c 0,0.277 -0.223,0.5 -0.5,0.5 h -9.738435 c -0.277,0 -0.5,-0.223 -0.5,-0.5 v -1.1090001 c 0,-0.277 0.223,-0.5 0.5,-0.5 z"
         id="path31"
         inkscape:connector-curvature="0"
         style="fill:url(#g)" />
      <path
         d="m -40.758956,-2.878045 c -0.638389,0 -1.195159,0.543892 -1.151745,1.21482 l 1.512034,23.366264 c 0.04342,0.670931 0.513357,1.214822 1.151744,1.214822 h 14.94167 4.377195 14.941671 c 0.638388,0 1.108331,-0.543891 1.151746,-1.214822 l 1.512033,-23.366264 c 0.0434,-0.670928 -0.513358,-1.21482 -1.151744,-1.21482 h -16.453706 -4.377195 z"
         id="path33"
         inkscape:connector-curvature="0"
         style="fill:url(#e)" />
      <path
         d="m 28.241425,148.07206 c -12.87594,0 -23.24141,9.6069 -23.24141,21.54052 l 16,244.76159 v 7.4003 c 0,6.06398 5.26673,10.94526 11.80953,10.94526 H 479.18859 c 6.54281,0 11.81139,-4.88128 11.81139,-10.94526 l 15.998,-252.16189 c 0,-11.93362 -10.36547,-21.54052 -23.24141,-21.54052 H 28.241275 Z"
         transform="matrix(0.07561882,0,0,0.07969348,-41.4999,-12.87232)"
         id="path35"
         inkscape:connector-curvature="0"
         style="opacity:0.3;fill-rule:evenodd;filter:url(#a)" />
      <path
         d="m -41.215723,-1.137599 c -0.654551,0 -1.214356,0.541818 -1.180905,1.211627 l 1.146943,22.96587 c 0.03345,0.669811 0.526354,1.211629 1.180905,1.211629 h 15.65554 4.488019 l 16.039057,-0.04794 c 0.654549,-0.002 1.154618,-0.541498 1.180906,-1.211629 L -1.806238,0.074027 C -1.779948,-0.596102 -2.332592,-1.1376 -2.987142,-1.1376 h -16.870282 -4.488019 z"
         id="path37"
         inkscape:connector-curvature="0"
         style="fill:url(#f)" />
    </g>
    <path
       id="path2"
       d="m 28.706779,18.571187 c 0,0.2 -0.1,0.3 -0.2,0.5 0.1,-0.1 0.2,-0.3 0.2,-0.5"
       inkscape:connector-curvature="0"
       style="fill:#ffffff" />
    <path
       id="path4"
       d="m 26.406779,16.971187 c 0,0 0,-0.1 0,0 0,-0.1 0,0 0,0 z"
       inkscape:connector-curvature="0"
       style="fill:#733737" />
    <path
       id="path6"
       d="m 26.406779,16.871187 c 0,0 0,0.1 0,0 0,0.1 0,0 0,0 m -0.2,-0.2 0.3,0.4 -0.3,-0.4 0.3,0.4 z"
       inkscape:connector-curvature="0"
       style="fill:#ffffff" />
    <path
       id="path2-3"
       d="m 22.854583,8.843302 c -0.07279,0 -0.144541,0.0017 -0.21679,0.0034 -0.709726,0.02098 -1.393419,0.144226 -2.035031,0.355384 -0.10875,0.0358 -0.217141,0.07487 -0.323438,0.115628 -0.03291,0.01261 -0.06527,0.02608 -0.0979,0.03911 -0.07297,0.0292 -0.145126,0.05864 -0.216791,0.09012 -0.103722,0.0457 -0.205033,0.09422 -0.305954,0.144534 -0.100946,0.05026 -0.200937,0.101608 -0.298961,0.156437 -0.394368,0.220584 -0.765261,0.478637 -1.106679,0.76688 -0.0405,0.03419 -0.0792,0.06862 -0.118884,0.103725 -0.08318,0.07346 -0.165392,0.148932 -0.244763,0.226153 -0.07934,0.07726 -0.156977,0.155479 -0.232525,0.236356 -0.113341,0.12126 -0.222697,0.246743 -0.326934,0.375788 -0.208492,0.257998 -0.397323,0.531876 -0.566452,0.817893 -0.05638,0.09531 -0.110932,0.190911 -0.162593,0.289068 -0.02584,0.04908 -0.05048,0.09818 -0.07518,0.147935 -0.07401,0.149313 -0.143372,0.30234 -0.206299,0.457408 -0.02094,0.05171 -0.04147,0.104138 -0.06119,0.156436 -0.07881,0.209204 -0.146774,0.422844 -0.204553,0.641052 -0.02854,0.108921 -0.05529,0.218781 -0.07867,0.329877 v 0.0017 c -0.02339,0.111164 -0.04348,0.221979 -0.06119,0.33498 -0.01772,0.113077 -0.03166,0.226943 -0.04371,0.34178 -0.024,0.229572 -0.03672,0.463064 -0.03672,0.698864 0,0.235767 0.01271,0.469251 0.03672,0.698865 0.01196,0.114796 0.0259,0.22873 0.04371,0.341781 0.01772,0.113009 0.03789,0.225583 0.06119,0.336679 0.02339,0.111097 0.04987,0.220813 0.07867,0.329878 0.05778,0.218207 0.125766,0.431848 0.204553,0.641051 0.03936,0.104572 0.08149,0.207371 0.125878,0.309473 0.04434,0.102091 0.09236,0.203134 0.141613,0.302672 0.02461,0.04976 0.04934,0.100534 0.07518,0.149635 0.05166,0.09813 0.106184,0.193728 0.162592,0.289067 0.169121,0.286017 0.357978,0.559827 0.566452,0.817893 0.104255,0.129003 0.213593,0.254477 0.326934,0.375788 0.07559,0.08091 0.153058,0.159135 0.232525,0.236356 0.07942,0.07727 0.16163,0.152647 0.244763,0.226153 0.374086,0.330699 0.784422,0.622179 1.225564,0.868904 0.09803,0.05475 0.198014,0.107887 0.29896,0.158137 0.201868,0.100569 0.40803,0.192168 0.62065,0.273764 0.106271,0.04079 0.214688,0.07984 0.323437,0.115628 0.70695,0.232694 1.464077,0.358784 2.251821,0.358784 0.537052,0 1.060461,-0.05905 1.562987,-0.170039 0.234553,-0.05188 0.46382,-0.114697 0.688833,-0.188745 0.108776,-0.03572 0.21707,-0.0749 0.323438,-0.115628 0.212593,-0.0815 0.42053,-0.173152 0.622397,-0.273764 0.100946,-0.05026 0.199233,-0.101633 0.297212,-0.156437 0.441168,-0.246682 0.853227,-0.539947 1.227312,-0.870604 0.08318,-0.07354 0.163618,-0.148933 0.243016,-0.226154 0.07942,-0.07718 0.156959,-0.155504 0.232524,-0.236355 0.113314,-0.121261 0.222723,-0.246744 0.326935,-0.375789 0.164956,-0.204126 0.317502,-0.417521 0.458056,-0.63935 0.03718,-0.05864 0.0748,-0.11867 0.110143,-0.178542 0.05639,-0.09529 0.109183,-0.190886 0.160844,-0.289068 0.02583,-0.04908 0.05222,-0.09988 0.07692,-0.149634 0.0494,-0.09949 0.09547,-0.20053 0.139865,-0.302672 0.04442,-0.102144 0.08655,-0.204842 0.125877,-0.309473 0.07881,-0.209203 0.146783,-0.422878 0.204553,-0.641051 0.02889,-0.109143 0.05528,-0.218782 0.07868,-0.329878 0.02331,-0.11119 0.04514,-0.223654 0.06294,-0.33668 0.01772,-0.113051 0.03167,-0.22696 0.04371,-0.341781 0.024,-0.229563 0.03672,-0.463063 0.03672,-0.698865 0,-0.235766 -0.01271,-0.4693 -0.03672,-0.698864 -0.01205,-0.114842 -0.02591,-0.228701 -0.04371,-0.341778 -0.01772,-0.113008 -0.03955,-0.223882 -0.06294,-0.334978 -0.02339,-0.111097 -0.04978,-0.222537 -0.07867,-0.331577 -0.05778,-0.218182 -0.125792,-0.431848 -0.204553,-0.641052 -0.01964,-0.0523 -0.04033,-0.104705 -0.06119,-0.156437 -0.06284,-0.155069 -0.130574,-0.306396 -0.204552,-0.455709 -0.02461,-0.04976 -0.05109,-0.09884 -0.07693,-0.147935 -0.05166,-0.09813 -0.104441,-0.195415 -0.160841,-0.290738 -0.169129,-0.286043 -0.359726,-0.559827 -0.568199,-0.817893 -0.104255,-0.128995 -0.213568,-0.254477 -0.326935,-0.375788 -0.07549,-0.08082 -0.153083,-0.159134 -0.232524,-0.236356 -0.07934,-0.07726 -0.159882,-0.152673 -0.243016,-0.226153 -0.161029,-0.142365 -0.329347,-0.277249 -0.503512,-0.404695 -0.230434,-0.168642 -0.472576,-0.323689 -0.723799,-0.464209 -0.09802,-0.05475 -0.19631,-0.107896 -0.297213,-0.158138 -0.0459,-0.02285 -0.09168,-0.04448 -0.138117,-0.06632 -0.05577,-0.02624 -0.113037,-0.05342 -0.169585,-0.07822 -0.02365,-0.01041 -0.04794,-0.01875 -0.07169,-0.02891 -0.08056,-0.03444 -0.160894,-0.06884 -0.243014,-0.100324 -8.53e-4,-4.56e-4 -0.0026,-8.34e-4 -0.0035,-0.0017 -0.08747,-0.03342 -0.176578,-0.06503 -0.265741,-0.09522 -0.01797,-0.0059 -0.03604,-0.01278 -0.0542,-0.0187 -0.207942,-0.06846 -0.420256,-0.127404 -0.636411,-0.176841 -0.06755,-0.01549 -0.134543,-0.02889 -0.202804,-0.04251 -0.04922,-0.0098 -0.09906,-0.02019 -0.148606,-0.02891 -0.369355,-0.06533 -0.747579,-0.102089 -1.134652,-0.108826 -0.04268,-7.59e-4 -0.08648,-0.0017 -0.129374,-0.0017 z m 0,0.367286 c 0.45412,0 0.898147,0.04441 1.326965,0.129231 -0.01798,0.04604 -0.07636,0.02536 -0.125878,0.04761 -0.04643,0.02098 -0.06427,0.06406 -0.11364,0.07312 -0.137202,0.02514 -0.25015,-0.03314 -0.368893,-0.02891 -0.0053,0.04993 0.0573,0.07916 0.08916,0.09522 0.107623,0.05484 0.196187,0.04751 0.347913,0.04421 0.07777,-0.0017 0.167461,0.02258 0.234273,-0.02211 0.04233,-0.0281 0.03974,-0.09144 0.07518,-0.12583 0.0151,-0.01456 0.03623,-0.02837 0.06119,-0.04081 0.07453,0.01709 0.148407,0.03487 0.222035,0.05442 -0.01239,0.04942 -0.09335,0.03758 -0.09441,0.103724 0.05246,0.03063 0.174862,-0.0158 0.222036,-0.06802 0.01825,0.0051 0.03604,0.01 0.05419,0.0153 0.106716,0.03157 0.212033,0.06549 0.316444,0.102024 0.148829,0.05213 0.295103,0.109795 0.438827,0.171741 -0.02758,0.01582 -0.05791,0.03579 -0.08217,0.03571 -0.0624,-3.81e-4 -0.08779,-0.08097 -0.157347,-0.05101 -0.0061,0.07845 0.08547,0.109998 0.143361,0.146235 0.06266,0.03927 0.128072,0.07799 0.150355,0.146234 -0.06136,0.126515 -0.159834,-0.0059 -0.257002,-0.0068 -0.107083,-7.44e-4 -0.261899,0.197039 -0.353158,0.03571 0.02269,-0.08548 0.119674,-0.09925 0.143361,-0.183643 -0.02086,0.0034 -0.04111,0.01084 -0.06119,0.01871 -0.03587,0.01379 -0.0718,0.03188 -0.108395,0.05101 -0.048,0.02514 -0.09841,0.05048 -0.155599,0.06292 -0.05264,0.01125 -0.103337,0.0088 -0.150355,0.02211 -0.09027,0.02572 -0.154509,0.08987 -0.250009,0.124127 -0.03727,0.01329 -0.08184,0.0095 -0.120633,0.02211 -0.09108,0.02953 -0.199761,0.08315 -0.293716,0.132631 -0.09606,0.05044 -0.204348,0.102718 -0.263995,0.153036 -0.0322,0.027 -0.116537,0.122503 -0.11364,0.153036 0.0035,0.04358 0.0888,0.05916 0.09091,0.103725 -0.0017,0.02699 -0.04969,0.08491 -0.01573,0.124129 0.0309,0.03572 0.09352,0.0074 0.159097,0.0153 0.115277,0.01388 0.191298,0.105586 0.279729,0.153036 0.06686,0.03588 0.16577,0.07915 0.241266,0.08842 0.103644,0.01261 0.220145,-0.02964 0.234274,0.05101 0.01371,0.07752 -0.09864,0.104393 -0.106647,0.153036 0.05586,0.07159 -0.03698,0.105581 -0.03672,0.168339 2.45e-4,0.05077 0.06444,0.128028 0.120633,0.132631 0.07603,0.0059 0.186953,-0.07248 0.218539,-0.146234 0.03753,-0.08788 0.02195,-0.20807 0.09091,-0.272064 0.35156,0.0094 0.648553,-0.154712 0.625895,-0.505019 -0.0026,-0.03461 -0.02325,-0.0793 -0.01573,-0.117328 0.011,-0.05662 0.111224,-0.103547 0.09791,-0.175141 0.03788,-0.01134 0.06105,-0.04131 0.08042,-0.07482 0.02889,-0.04993 0.05114,-0.107 0.104898,-0.125829 0.0035,-0.0017 0.0064,-0.0026 0.01048,-0.0034 0.03072,-0.0068 0.0641,-0.0011 0.09791,0.0085 0.06022,0.01727 0.125692,0.04725 0.197558,0.04251 0.03657,-0.0025 0.08388,-0.03399 0.120633,-0.02891 0.07375,0.01 0.117669,0.09682 0.173082,0.137732 0.04897,0.03639 0.101142,0.02463 0.11364,0.07312 -0.01449,0.08133 -0.0729,0.08518 -0.06818,0.159838 v 0.0017 c 0.0053,0.06711 0.0778,0.119187 0.11364,0.12583 0.05499,0.01 0.13392,-0.01882 0.188818,-0.04421 0.05926,-0.02725 0.112576,-0.08661 0.164341,-0.12753 0.07393,0.05517 0.147022,0.112054 0.218538,0.17004 0.0078,0.03258 0.01312,0.06173 0.01573,0.08162 0.01056,0.07921 -0.01013,0.139646 -0.0071,0.21255 0.0097,0.123503 0.169395,0.110429 0.248259,0.175142 0.02374,0.01963 0.03272,0.06972 0.05245,0.09522 0.03832,0.04959 0.08497,0.05083 0.09091,0.103724 0.01413,0.126515 -0.117249,0.135976 -0.1049,0.277166 -0.02722,0.05475 -0.09646,0.05282 -0.09091,0.125829 0.0087,0.115632 0.179074,0.02709 0.225531,0.117328 0.02514,0.04849 -0.0043,0.0839 -0.02273,0.153036 0.05857,0.0677 0.05954,0.174998 -0.04371,0.175141 -0.06275,0 -0.07991,-0.06468 -0.14336,-0.07992 -0.03526,-0.0085 -0.08445,-0.0074 -0.129376,-0.0153 -0.0384,-0.0068 -0.08424,-0.01787 -0.120633,-0.02211 -0.09313,-0.01075 -0.193186,0.01642 -0.24826,-0.03571 0.08977,-0.115775 0.208012,-0.230172 0.323438,-0.329877 0.0343,-0.02979 0.108385,-0.05086 0.09091,-0.110526 -0.06424,-0.05475 -0.142205,0.0043 -0.202803,0.03741 -0.06362,0.03478 -0.139749,0.08486 -0.211546,0.09522 -0.124773,0.01794 -0.291418,-0.03575 -0.393368,0.02891 -0.01405,0.05526 0.116041,0.03392 0.0979,0.117327 -0.04993,0.0076 -0.09619,0.01183 -0.134619,-0.02211 -0.03508,-0.03064 -0.01577,-0.07674 -0.03846,-0.09522 -0.03867,-0.03114 -0.183316,-0.03931 -0.24826,-0.02891 -0.07925,0.01252 -0.14994,0.05832 -0.159096,0.124129 0.0952,0.04333 0.252187,-0.04429 0.286722,0.06632 -0.05219,0.09116 -0.173842,0.141338 -0.157347,0.263563 0.0061,0.04722 0.06337,0.110312 0.104899,0.117327 0.04172,0.0068 0.06458,-0.03263 0.104898,-0.02891 0.04268,0.0043 0.03382,0.0497 0.08391,0.04251 0.07262,-0.03013 0.112608,-0.128732 0.195811,-0.124128 0.09984,0.11768 -0.08993,0.175221 -0.195811,0.212549 -0.120759,0.04248 -0.27865,0.06611 -0.370641,0.103725 -0.04826,0.01955 -0.229454,0.19021 -0.255253,0.05782 -0.01842,-0.09548 0.08904,-0.06765 0.111892,-0.146235 -0.11678,-0.02209 -0.22416,0.04916 -0.330431,0.08842 -0.151629,0.05568 -0.409222,0.08969 -0.445818,0.25506 -0.0071,0.03309 0.01395,0.09527 -0.0087,0.117328 -0.01807,0.01778 -0.125811,0.02184 -0.173082,0.03741 -0.07279,0.02429 -0.136858,0.07493 -0.181824,0.08672 -0.03396,0.0091 -0.08338,0.0073 -0.104899,0.0153 -0.05996,0.02259 -0.08156,0.100661 -0.150353,0.153036 -0.02819,0.02141 -0.09121,0.03793 -0.11364,0.05952 -0.0391,0.03774 -0.04473,0.132077 -0.113641,0.146235 -0.04381,0.0034 -0.07939,-0.03117 -0.120632,-0.0068 -0.0053,0.09343 0.03481,0.220116 -0.007,0.314575 -0.08937,0.07075 -0.18814,0.119565 -0.302457,0.181942 -0.06319,0.03462 -0.119451,0.04447 -0.195811,0.08162 -0.05418,0.02624 -0.103754,0.08843 -0.166071,0.12413 -0.144044,0.08234 -0.317552,0.179207 -0.316443,0.38769 2.44e-4,0.0451 0.02379,0.0952 0.02972,0.147935 0.0035,0.03106 -0.0035,0.06133 0,0.09522 0.009,0.07659 0.06607,0.173262 0,0.226152 -0.101546,-0.04045 -0.231417,-0.05391 -0.302445,-0.124127 -0.01946,-0.07227 0.04046,-0.131408 0.03147,-0.197246 -0.007,-0.05289 -0.08482,-0.147958 -0.129374,-0.154737 -0.04591,-0.0068 -0.08723,0.04114 -0.13462,0.03741 -0.05638,-0.0042 -0.109417,-0.08027 -0.181824,-0.08842 -0.106123,-0.01201 -0.184919,0.02272 -0.302457,0.0068 -0.113785,0.05898 -0.145521,0.16512 -0.284975,0.154737 -0.04914,-0.0034 -0.09534,-0.03967 -0.152102,-0.05102 -0.06153,-0.01235 -0.154476,-0.03492 -0.218539,-0.03061 -0.128431,0.0085 -0.221858,0.0991 -0.332179,0.154736 -0.09734,0.04926 -0.235087,0.110525 -0.263994,0.21255 -0.01589,0.05493 -0.0026,0.131117 -0.02273,0.181943 -0.01335,0.03342 -0.04155,0.06341 -0.05944,0.09522 -0.08457,0.150023 -0.155114,0.348737 -0.09091,0.564533 0.0095,0.03199 0.09299,0.213485 0.127627,0.249958 0.03892,0.04053 0.15321,0.100907 0.218538,0.102024 0.05525,8.35e-4 0.121276,-0.0281 0.174831,-0.03741 0.06206,-0.01075 0.139411,-0.01139 0.195811,-0.02891 0.163115,-0.05069 0.130426,-0.264511 0.293716,-0.33668 0.07131,-0.03131 0.154387,-0.03795 0.279729,-0.04421 0.0398,0.0325 0.05795,0.0899 0.05245,0.139432 -0.0043,0.0374 -0.04155,0.0708 -0.06119,0.12413 -0.01711,0.04671 -0.01978,0.101723 -0.03672,0.139433 -0.02243,0.04934 -0.07293,0.0862 -0.09091,0.132631 -0.01179,0.03021 -0.0042,0.06796 -0.01399,0.09522 -0.01737,0.04824 -0.08501,0.0813 -0.0542,0.13093 0.161544,0.06237 0.357295,-0.01689 0.498267,0.0085 0.05952,0.0105 0.182933,0.0793 0.181824,0.16834 -7.33e-4,0.0666 -0.05377,0.109021 -0.06119,0.181943 -0.0092,0.09167 -0.04826,0.204649 -0.05245,0.278865 -0.007,0.121548 0.183222,0.331546 0.316444,0.329878 0.143425,-0.0017 0.227559,-0.139 0.400363,-0.06632 0.05734,0.02403 0.118503,0.114994 0.181824,0.110526 0.05219,-0.0034 0.129447,-0.09329 0.164341,-0.154737 0.04251,-0.07489 0.04559,-0.137372 0.120633,-0.175141 0.08099,-0.0407 0.146381,-0.02202 0.250008,-0.05952 0.04626,-0.01667 0.08593,-0.0451 0.127627,-0.07312 0.03657,-0.02437 0.07503,-0.08855 0.120633,-0.04421 0.06022,0.05839 -0.07379,0.09221 -0.02273,0.154736 0.104656,0.05382 0.158489,-0.09968 0.234273,-0.102025 0.02418,-7.36e-4 0.107335,0.04553 0.150355,0.07312 0.05882,0.03749 0.07898,0.08981 0.14336,0.102024 0.04137,0.0076 0.107945,-0.0145 0.16609,-0.0068 0.07697,0.01066 0.123487,0.07481 0.181824,0.07312 0.07104,-0.0017 0.105248,-0.07745 0.166089,-0.08842 0.13317,-0.02369 0.182633,0.01445 0.241267,0.09522 0.06572,0.01109 0.06747,-0.07417 0.127627,-0.04421 -0.03299,0.0638 0.01202,0.09298 0.03846,0.146234 0.01711,0.03419 0.01376,0.05831 0.02972,0.07312 0.03596,0.03334 0.106327,0.0339 0.159096,0.06632 0.05568,0.03402 0.08648,0.09709 0.150354,0.168341 0.06572,0.07286 0.176227,0.149413 0.263995,0.154736 0.08292,0.0051 0.14999,-0.02351 0.218538,-0.01531 0.156072,0.01862 0.252705,0.09354 0.361899,0.175141 0.06101,0.04554 0.116784,0.07809 0.136368,0.132632 0.01379,0.03808 0.0071,0.08823 0.02273,0.13093 0.03333,0.09123 0.170181,0.136505 0.120632,0.29417 0.02269,0.04629 0.07293,0.06286 0.127626,0.09522 0.04373,0.02589 0.082,0.0793 0.129375,0.08672 0.03064,0.0051 0.06438,-0.0083 0.09091,-0.0068 0.08579,0.0059 0.144195,0.03839 0.21854,0.06632 0.04608,0.01727 0.10394,0.02398 0.134618,0.04421 0.03831,0.02514 0.04369,0.108682 0.09091,0.13093 0.03089,0.01456 0.100687,-0.0059 0.152104,0 0.081,0.0091 0.190837,0.05816 0.263994,0.05952 0.04443,8.35e-4 0.08124,-0.01827 0.120633,-0.01531 0.0916,0.0068 0.16322,0.06301 0.234273,0.125829 -0.90886,1.42506 -2.371154,2.483099 -4.092789,2.887279 -0.0061,-0.06423 -0.02509,-0.129852 -0.02798,-0.193845 -0.0061,-0.139218 0.01675,-0.236947 -0.007,-0.365586 -0.01754,-0.09731 -0.04079,-0.246556 -0.07692,-0.307782 -0.04041,-0.06812 -0.198016,-0.182876 -0.27798,-0.226153 -0.05281,-0.02844 -0.115575,-0.03881 -0.173083,-0.06632 -0.122863,-0.05852 -0.362168,-0.182748 -0.416098,-0.300936 -0.01562,-0.03402 -0.01297,-0.07935 -0.02972,-0.117327 -0.03273,-0.07506 -0.101408,-0.140152 -0.150354,-0.212551 -0.09319,-0.138142 -0.168355,-0.311361 -0.263995,-0.454007 -0.04836,-0.07244 -0.09035,-0.154851 -0.143361,-0.212549 -0.03107,-0.03402 -0.130602,-0.06613 -0.143362,-0.117328 -0.01702,-0.06778 -0.06939,-0.1607 -0.06119,-0.21255 0.01091,-0.0699 0.150572,-0.124953 0.150355,-0.188745 -2.45e-4,-0.05416 -0.07353,-0.08662 -0.08917,-0.13263 -0.03806,-0.111926 0.02096,-0.177149 0.06644,-0.270364 0.01501,-0.03064 0.02983,-0.08114 0.04546,-0.103725 0.02767,-0.04028 0.08379,-0.0516 0.120633,-0.09522 0.0206,-0.02445 0.03431,-0.07423 0.06119,-0.108826 0.05734,-0.07397 0.149491,-0.101578 0.173082,-0.168339 0.0192,-0.05442 0.03135,-0.327301 0.0087,-0.418299 -0.0131,-0.05276 -0.06465,-0.09638 -0.08393,-0.14627 -0.03413,-0.08839 -0.04088,-0.185547 -0.134619,-0.183643 -0.05787,8.35e-4 -0.09919,0.06446 -0.136369,0.103724 -0.0089,0.05222 -0.0052,0.108186 -0.06119,0.12413 -0.0858,0.02463 -0.118476,-0.08787 -0.218541,-0.117328 -0.0398,-0.01176 -0.102716,-0.01127 -0.127626,-0.02211 -0.07305,-0.03182 -0.09609,-0.134826 -0.173082,-0.175141 -0.06441,-0.03343 -0.120075,-0.02175 -0.159096,-0.07312 -0.01624,-0.03537 -0.0043,-0.100553 -0.0087,-0.147935 -0.08265,-0.04696 -0.151974,-0.222222 -0.24826,-0.263562 -0.0638,-0.02759 -0.161424,-0.0247 -0.241267,-0.05101 -0.03753,-0.01235 -0.06742,-0.0275 -0.106647,-0.03571 -0.04835,-0.0105 -0.09717,-0.01233 -0.134619,-0.03061 -0.14939,-0.07193 -0.229374,-0.304257 -0.414362,-0.299272 -0.0789,0.0017 -0.155781,0.07354 -0.22728,0.07312 -0.07104,-3.81e-4 -0.190583,-0.05507 -0.279729,-0.09522 -0.0926,-0.0418 -0.19461,-0.06412 -0.270988,-0.102024 -0.06171,-0.03063 -0.105175,-0.08728 -0.159096,-0.110526 -0.04128,-0.01777 -0.100746,-0.02013 -0.134619,-0.03571 -0.04818,-0.02217 -0.09912,-0.07001 -0.159097,-0.110526 -0.05691,-0.03825 -0.118399,-0.09668 -0.120633,-0.146234 -0.0026,-0.05738 0.05509,-0.106397 0.06119,-0.161539 0.01946,-0.174421 -0.11426,-0.299946 -0.197559,-0.402994 -0.06171,-0.07659 -0.133913,-0.141677 -0.195811,-0.212551 0.0035,-0.04705 0.0035,-0.05506 0,-0.102024 -0.04687,-0.04417 -0.08684,-0.110672 -0.136368,-0.176841 -0.04477,-0.05966 -0.130354,-0.123514 -0.141613,-0.190445 -0.01388,-0.08234 0.0322,-0.15306 0,-0.232954 -0.05367,-0.132584 -0.244681,-0.07328 -0.220286,0.102023 0.007,0.04832 0.07671,0.113632 0.0979,0.161538 0.02173,0.04883 0.01821,0.109517 0.03846,0.16834 0.01946,0.05636 0.07767,0.104845 0.09791,0.16834 0.03203,0.100281 0.03178,0.207681 0.06119,0.270363 0.02592,0.05568 0.119982,0.109429 0.06644,0.176842 -0.07139,0.01439 -0.09721,-0.05489 -0.141613,-0.09522 -0.02479,-0.02243 -0.115724,-0.06515 -0.129374,-0.117328 -0.01144,-0.04308 0.02892,-0.102006 0.01573,-0.154736 -0.02592,-0.103361 -0.240508,-0.106184 -0.241267,-0.21255 -3.93e-4,-0.06677 0.08835,-0.07487 0.08916,-0.139433 5.85e-4,-0.07067 -0.09915,-0.13053 -0.120633,-0.190445 -0.01964,-0.05493 -0.02239,-0.142079 -0.02972,-0.219351 -0.007,-0.07252 0.0013,-0.156595 -0.01573,-0.212549 -0.01545,-0.05036 -0.09342,-0.119214 -0.143362,-0.146234 -0.06607,-0.03572 -0.118009,-0.02082 -0.150354,-0.07312 -0.0281,-0.0457 -0.04634,-0.141193 -0.05245,-0.190445 -0.01091,-0.08808 -0.0035,-0.184863 -0.0087,-0.278866 -0.0053,-0.09415 -0.01484,-0.184497 0,-0.285667 0.03736,-0.07083 0.107048,-0.104961 0.145109,-0.175141 0.02653,-0.04883 0.0295,-0.109595 0.05944,-0.161538 0.05525,-0.09567 0.17606,-0.182859 0.257001,-0.277165 0.08728,-0.101593 0.167463,-0.200143 0.218539,-0.316275 0.01833,-0.04121 0.06652,-0.131404 0.05944,-0.181942 -0.0099,-0.07041 -0.145416,-0.128696 -0.13462,-0.212551 0.007,-0.05196 0.08223,-0.05245 0.104898,-0.103724 0.01161,-0.02649 0.02211,-0.09932 0.02273,-0.130931 8.53e-4,-0.07066 -0.03739,-0.1439 -0.02273,-0.219352 0.01239,-0.0644 0.111883,-0.09086 0.06119,-0.161537 -0.05027,-0.06998 -0.141918,0.03685 -0.197559,-0.0085 -0.05106,-0.04163 0.01102,-0.09174 0.01573,-0.168339 0.0017,-0.03046 -0.01905,-0.06416 -0.01573,-0.08672 0.0043,-0.03275 0.07166,-0.08854 0.0542,-0.110526 -0.02723,-0.03352 -0.05698,-0.100695 -0.09965,-0.154737 0.841499,-0.65468 1.850238,-1.116336 2.952893,-1.311008 h 0.0018 c 0.0137,0.02268 0.02409,0.04961 0.0577,0.05952 0.06572,-0.03309 0.132146,0.0025 0.204552,0 0.07052,-0.0025 0.133816,-0.03395 0.211546,-0.02211 0.137368,0.0209 0.328843,0.152476 0.437077,0.08162 0.02723,-0.01794 0.02084,-0.05051 0.04546,-0.09692 0.01955,-0.03715 0.04942,-0.07666 0.06818,-0.12243 0.05472,-0.0017 0.109364,-0.0017 0.164341,-0.0017 z"
       style="fill:#003380;stroke-width:0.76713252"
       inkscape:connector-curvature="0" />
  </g>
</svg>
