<svg xmlns="http://www.w3.org/2000/svg" viewBox="0 0 32 32">
  <path fill="#FFF" d="M28.3 18.3c0 .2-.1.3-.2.5.1-.1.2-.3.2-.5"/>
  <path fill="#733737" d="M26 16.7s0-.1 0 0c0-.1 0 0 0 0z"/>
  <path fill="#FFF" d="M26 16.6s0 .1 0 0c0 .1 0 0 0 0m-.2-.2l.3.4-.3-.4.3.4-.3-.4z"/>
  <path fill="#375273" d="M20.9 29.7c-1.6 0-3.1-.4-4.4-1.2-1.4-.8-2.4-1.9-3.2-3.2-.8-1.3-1.2-2.8-1.2-4.4s.4-3.1 1.2-4.4c.8-1.4 1.9-2.4 3.2-3.2 1.3-.8 2.8-1.2 4.4-1.2s3.1.4 4.4 1.2c1.4.8 2.4 1.9 3.2 3.2.8 1.3 1.2 2.8 1.2 4.4s-.4 3.1-1.2 4.4c-.8 1.4-1.9 2.4-3.2 3.2-1.3.8-2.8 1.2-4.4 1.2zm1.9-4v.4c.1.3 0 .5-.2.7-.1.1-.2.2-.2.3v.1l.1.1v.3c1.1-.3 2.1-.8 3.1-1.7h-.3v-.3l-.1-.1h-.1v-.1h-.2v-.1h-.1v.3s-.7-.4-.7-.5c-.1 0-.1-.1-.2-.1v.7l-.3-.3-.2.2v-.5c-.1 0-.1.1-.2.1 0 0 0 .1-.1.1 0 .1-.1.2-.1.2l-.2.2zm-2.5-1.9l.2.2.2.2v-.5s-.2.1-.4.1zm-.9-.2h.1l.1.1h.1s-.1 0-.1-.1c-.1-.1-.2-.2-.3-.4l-.1-.2c0-.1-.1-.2-.1-.4v-.3c0-.1 0-.2.1-.3v-.1l-.1-.2.3-.3s0-.1.1-.1l-.1-.1.5-.1h.7v-1.5l.5 1.4.1-.1.2.1c.1 0 .2 0 .3.1h.2v-.2l.1-.1c0-.1.1-.1.2-.2v-.1h.3s.1-.1.2-.1l.1-.1h-.4l.3-.4-.3-.3h.4c0-.1.1-.2.1-.2l.2-.2c.1-.1.2-.1.2-.1l.1-.1v-.1h.1c0-.1.1-.2.1-.2l.1-.1v-.2h-.5l.4-.4.1-.1c0-.1.1-.2.2-.2l.2-.2c.1-.1.2-.1.4-.1.1 0 .2 0 .3-.1h.2c.1 0 .2 0 .3.1 0 0 .1-.1.2-.1h.1l-.1-.1h-.1v-.1h-.1l-.1-.1H25v.1c-.1-.1-.1-.3-.1-.4v-.1l-.1-.1-.1-.1c-.1.1-.1.1-.2.1l-.1.1-.2.1-.1.1H23c0 .1-.1.2-.3.3h-.1v.1l.1.1.1.1c0 .2-.1.3-.2.3v.1h-.3c-.1 0-.3-.1-.4-.2-.1-.1-.2-.3-.2-.5 0 0 0-.1-.1-.1h-.1l-.2.2-.1-.3c0-.1-.1-.1-.3-.2h-.5v-.3h-.1l-.3.3V16l.1-.1v-.1c0-.2.1-.3.1-.3l-.4-.4c-.1-.1-.1-.1-.1-.2l-.2.1v-.1h-.6c-.2 0-.3-.1-.3-.1h-.1v.7l-.6-.6h-.4c-.9.6-1.7 1.3-2.3 2.1l.1.2c.1.1.2.2.2.3.1.1.2.1.4.3l.1.1c.1.1.2.2.2.3 0 .1 0 .3-.3.4h-.1v1l.5-.2-.1.2h.6l-.6.4c0 .1.1.1.2.2l.1.1h.1v.1c0 .1.1.1.1.1l.1.1.2.2v.1-.1h.3c.1 0 .2 0 .3.1h.2l.1.3v.3l.1.1.4.4c0 .1.1.1.1.1s.1 0 .1.1c.1.1.2.2.3.4l.1.1-.1.1v.4c.1 0 .2.1.2.2H19l.1.1c.1-.1.2 0 .3.1zm3.4-7.3c.1 0 .2.1.2.2s.1.2 0 .3l.7-.3-.1-.1v.2l-.1-.1v-.1l-.2-.2h-.1c-.1 0-.2-.1-.2-.1-.1 0-.2 0-.3-.1h-.1v.1l.1.1v.1c.1-.1.1-.1.1 0zm-2.7-.7c0-.1 0-.1 0 0v-.1h.1l.1-.1v-.1l.3-.1v-.6h-.1s0 .1-.1.1l-.1.1h-.2v.8z"/>
  <path fill="#FFF" d="M20.9 12.3c1.6 0 3 .4 4.3 1.1s2.4 1.8 3.1 3.1c.8 1.3 1.1 2.8 1.1 4.3 0 1.6-.4 3-1.1 4.3-.8 1.3-1.8 2.4-3.1 3.1-1.3.8-2.8 1.1-4.3 1.1-1.6 0-3-.4-4.3-1.1-1.3-.8-2.4-1.8-3.1-3.1s-1.1-2.8-1.1-4.3c0-1.6.4-3 1.1-4.3s1.8-2.4 3.1-3.1 2.7-1.1 4.3-1.1m-1 2.8c-.1-.1-.1-.1-.1-.2s-.1-.1-.1-.2c.1-.1 0-.1-.3-.1h-.6c-.1 0-.1-.1-.1-.1v-.3l-.1-.1-.1-.1c-.3.1-.7.3-1.1.4h.1l.1-.1.1-.1c.1-.1.3-.1.4-.1h.1l.1-.1.3.3h-.3c-.1.1-.3.1-.3.1.1.1.1.2.1.2l-.1-.1c-.1-.1-.1-.1-.2-.1h-.5c-1.1.6-1.9 1.4-2.6 2.5l.1.1.1.1v.1s.1 0 .1-.1c.1.1.1.2.1.3 0 0 .2.1.5.3.1.1.3.2.3.3 0 .1 0 .1-.1.2l-.1-.1-.1-.1v.2c0 .1.1.1.1.1-.1 0-.1.1-.1.2v.7c0 .1 0 .2.1.4 0 .1.1.2.2.2 0 .1.1.2.3.5l.1.1.1.1c.1.2.2.2.2.3l.1.1c0 .1.1.1.1.3.1.1.1.2.2.3 0 .1 0 .1.1.3.1.1.1.2.1.3 0 .1.1.1.2.2s.1.1.2.1v.1s0 .1.1.1c0-.1-.1-.4-.3-.7-.1-.2-.2-.3-.2-.3 0-.1-.1-.1-.1-.2s-.1-.1-.1-.2h.1s.1 0 .1.1c.1 0 .1 0 .1.1v.3c.1.1.1.1.1.2s.1.1.2.2l.1.1.2.2c.1.1.1.1 0 .1.1 0 .1.1.3.1.1.1.1.1.2.3-.1.1-.1.2-.1.4 0 .1.1.3.1.3 0 .1.1.1.1.1.1 0 .1.1.1.1.1 0 .1.1.2.1l.1.1c.1 0 .1.1.2.1.1.1.2.1.3.1s.1.1.2.1h.2c.1 0 .1-.1.1-.1.1 0 .3.1.3.2l.3.3c.2.1.4.1.5.1h.1v.1c0 .1.1.1.1.2.1.1.1.1.1.2s.1.1.1.1l.2.2c.1.1.2.1.2.2.1 0 .1-.1.1-.1 0 .1 0 .1.1.3.1.1.1.1.2.1s.2-.1.2-.4c-.1 0-.2.1-.2.1-.1 0-.3-.1-.3-.3v-.1c0-.1-.1-.1-.1-.1v-.2s0-.1.1-.1.1 0 .1-.1v-.1c0-.1-.1-.1-.1-.1 0-.1-.1-.1-.1-.3-.1-.1-.1-.1-.1-.2l-.1.1h-.1c-.1 0-.1-.1-.2-.1v.2L21 24v-.2c0-.1 0-.2.1-.3 0 0 0-.1.1-.1.1-.1.1-.1.1-.2s.1-.1.1-.1c0-.1 0-.1-.1-.1h-.2c-.1 0-.3.1-.3.3 0 0 0 .1-.1.1l-.1.1-.1.1h-.3c-.2 0-.2 0-.3-.1l-.3-.3c-.1-.2-.1-.3-.1-.4v-.3c0-.1 0-.2.1-.3 0-.1 0-.1-.1-.3l.1-.1.1-.1h.3s0-.1.1-.1l-.1-.1-.1-.1h.9v-.2c0 .1.1.2.2.2 0 0 .1 0 .2-.1 0 0 .1.1.2.1s.2.1.2.1l.1.1.1.1h.1l.1-.1c.1.1.1.2.1.3.1.3.1.4.2.5h.1l.1-.1v-.7c-.1 0-.2-.1-.2-.1v-.2l.2-.2s.1 0 .1-.1c.1 0 .1-.1.2-.1s.1-.1.1-.1c.2-.1.2-.3.2-.4.1 0 .1-.1.1-.1l-.1-.1-.1-.1h-.1c.1-.1.1-.1 0-.2.1 0 .1-.1.1-.1 0-.1.1-.1.1-.1l.1.1s.1 0 .1-.1c.1-.1.1-.1 0-.2.1-.1.1-.1.3-.1.1 0 .2-.1.2-.1h.1v-.1s0-.1.1-.1c0-.1.1-.1.2-.1s.1-.1.1-.1l.2-.1v-.1c.1 0 .3 0 .4-.1.1-.1.1-.2-.1-.3 0-.1 0-.1-.1-.1s-.1-.1-.2-.1h.2c.1-.1.1-.1-.1-.2-.1 0-.3.1-.5.2l-.1.1-.1.1c0-.1.1-.1.1-.1 0-.1.1-.1.1-.1-.1 0-.1-.1 0-.1.1-.1.3-.1.6-.1h.2c.2 0 .3.1.4.1 0 0 0-.1.1-.1.1-.1.1-.1.2-.1 0 0 .1-.1.2-.1s.1-.1.2-.1v-.3c-.1 0-.1 0-.2-.1s-.1-.1-.1-.3c0 0 0 .1-.1.1 0-.1 0-.1-.1-.1h-.2c-.1 0-.1-.1-.2-.1-.1-.1-.1-.1-.1-.2s0 .1 0 0-.1-.1-.1-.1l-.1-.1v-.1s0-.1-.1-.1c0 0 0-.1-.1-.1h-.1s-.1 0-.1.1-.1.1-.1.1c0 .1-.1.1-.1.1H24l-.1.1-.1.1s-.1 0-.1.1h-.1c.1-.1.1-.1 0-.1s-.1-.1-.2-.1c.1 0 .1-.1.1-.1 0-.1-.1-.1-.1-.2h.1l-.1-.1c-.1-.1-.1-.1-.2-.1s-.1-.1-.1-.1c-.1-.1-.2-.1-.4-.1h-.3l-.1.1c0 .1 0 .1.1.2 0 .1.1.1.1.1 0 .1 0 .1-.1.1s-.1.1-.1.1c0 .1.1.1.2.2.1 0 .2.1.1.2 0 .1-.1.1-.2.2.1 0 0 0 0 0-.1.1-.1.1 0 .2 0 .1.1.1.1.2v.1s0 .1-.1.1l-.1.1s-.1 0-.1.1H22c-.1 0-.1 0-.2-.1s-.1-.2-.1-.3c-.1-.2-.1-.3-.2-.3h-.3c-.1-.1-.2-.2-.4-.3-.2-.1-.4-.1-.6-.1.1 0 .1-.1 0-.2 0-.1-.1-.1-.1-.1H20c0-.1.1-.1.1-.2v-.1c0-.1.1-.2.1-.3l.1-.1.1-.1v-.1c.3 0 .4 0 .6-.1.1-.1.1-.1.1-.2.1-.1.1-.1.1-.2.1-.1.1-.1.2-.1s.1 0 .2.1.1.1.2.1.2-.1.2-.1c0-.1 0-.2-.1-.3.1 0 .1-.1.1-.2v-.2c-.1 0-.2 0-.3.1-.1 0-.1.1 0 .1l-.1.1-.2.2h-.1s-.1 0-.1-.1c0 0 0-.1-.1-.1l-.1-.1c-.1 0-.1.1-.2.2 0-.1 0-.1-.1-.2s-.2-.1-.3-.1c0-.1 0-.3-.2-.3 0-.1-.1-.1-.2-.1s-.2 0-.2.1l-.1.1c0 .1 0 .1.1.1s.1.1.1.1c.1 0 .1 0 .1.1.1 0 .1 0 .1.1.1 0 .1.1 0 .1 0 0-.1 0-.1.1-.1 0-.1.1-.1.1-.1 0-.1 0-.1.1v.2c.1-.2.1-.2.1-.1m2.9 10.3l-.1-.1-.1-.1c0 .1 0 .2.1.4 0 .2.1.3.1.4.1.3 0 .4-.1.6-.2.2-.3.3-.3.4 0 .2 0 .3.1.3 0 .1 0 .1-.1.3s-.1.2-.1.3h-.1v.1c1.6-.3 2.8-1 3.9-2.1l-.1-.1c-.1 0-.1 0-.1-.1-.1-.1-.3-.1-.3-.1v-.1c0-.1-.1-.1-.1-.1-.1 0-.1-.1-.1-.1l-.1-.1-.1-.1c-.1 0-.1-.1-.1-.1s-.1 0-.1-.1h-.4s-.1 0-.1.1-.1 0-.1.1c-.2-.1-.3-.2-.4-.3-.1 0-.1 0-.1-.1l.1.2h-.1c-.1 0-.1.1-.1.1v-.1c0-.1-.1-.1-.1-.1-.1 0-.1 0-.1.1-.1 0-.1.1-.1.1h-.4s-.1 0-.1.1l-.1.1-.1.1v.1m1-7.1c0 .1-.1.1 0 0-.1.1-.1.1 0 0m-7.9 1.5c0 .1 0 .1 0 0 0 .1 0 0 0 0m7.8 5.1v.1c-.1 0 0 0 0-.1m-.1.1c0 .1 0 .1 0 0m-2.7-13.2c-1.6 0-3.2.4-4.6 1.2-1.4.8-2.5 1.9-3.3 3.3-.8 1.4-1.2 2.9-1.2 4.6 0 1.6.4 3.2 1.2 4.6.8 1.4 1.9 2.5 3.3 3.3 1.4.8 2.9 1.2 4.6 1.2 1.6 0 3.2-.4 4.6-1.2 1.4-.8 2.5-1.9 3.3-3.3.8-1.4 1.2-2.9 1.2-4.6 0-1.6-.4-3.2-1.2-4.6-.8-1.4-1.9-2.5-3.3-3.3-1.4-.8-3-1.2-4.6-1.2zM15.5 17c.6-.8 1.2-1.4 2.1-1.9h.2l.1.1.9.9v-.9h.7l.1.1c0 .1.1.1.2.2l.2.2c0 .1-.1.2-.1.3 0 .1-.1.2-.1.3v1.2l.7-.7v.3h.4c.1 0 .2.1.2.1l.3.6.2-.2c0 .1.1.2.2.3.1.1.3.2.5.2h.7v-.3c.1-.1.2-.3.2-.4v-.3c.1 0 .1-.1.1-.1h.8-.1.2l.1-.1h.1l.1-.1h.1c0 .1 0 .3.2.4h-.5v-.3l-.4.4c-.1.1-.2.1-.2.2l-.3.3-.8.8h.6v.2s-.1 0-.2.1l-.4.3-.1.1h-.9l.6.6-.6.6h.3l-.1.1-.2.4c-.1 0-.2-.1-.2-.1l-.2-.2-.8-2.5V21h-1.5l.5.5-.1.1-.3.3.1.3v.6c0 .1 0 .3.1.4H19l-.1-.1V23l.1-.2-.1-.2c-.1-.2-.2-.3-.3-.4V22h-.1v-.1l-.1-.1-.2-.2-.1-.1-.2-.2v-.1c0-.3-.1-.5-.4-.5-.1-.1-.2-.1-.3-.1H17l-.1-.1c0-.1-.1-.1-.1-.1l-.1-.1-.1-.3 1.4-.7h-1.3l.2-.3-.9.2v-.5c.2-.1.4-.3.4-.6s-.2-.4-.3-.5l-.1-.1c-.1-.1-.2-.2-.3-.2 0-.1-.1-.2-.2-.3zm8.6 9.4v-.9s.1.1.2.1l.7.5c-.7.6-1.4 1-2.2 1.2v-.2l.1-.1c.2-.2.3-.5.3-.8l.4-.4.5.6z"/>
  <path fill="#375273" d="M11.8 20.9v-.5H5.7c-.5 0-.7-.2-.7-.5 0-.1.1-.3.3-.6l4.1-5.1c.2-.3.6-.5 1-.7.4-.2.8-.3 1.2-.3H16c.1-.1.2-.1.3-.2 1.4-.8 2.9-1.2 4.6-1.2 1.6 0 3.2.4 4.6 1.2.1.1.2.1.3.2h.9c.5 0 .7.2.7.5 0 .2-.1.3-.3.5.4.4.8.9 1.2 1.4l.2-.3c.4-.5.6-1.1.6-1.7 0-.3-.1-.7-.2-.9-.2-.4-.5-.8-.9-1-.4-.2-.9-.3-1.4-.3H24V9.2c0-.8-.3-1.6-1-2.2-.6-.6-1.3-.9-2.2-.9h-7.6v-.5c0-.9-.3-1.6-.9-2.2s-1.3-.9-2.2-.9H5.7c-.9 0-1.6.3-2.2.9s-1 1.4-1 2.2V19c0 .9.3 1.6.9 2.2s1.3.9 2.2.9h6.2v-1.2zM4.3 5.6c0-.4.1-.7.4-.9s.6-.4.9-.4h4.5c.4 0 .7.1.9.4.3.3.4.6.4.9v.9c0 .4.1.7.4.9.3.3.6.4.9.4h8c.4 0 .7.1.9.4.3.3.4.6.4.9v2.2H11.5c-.6 0-1.3.2-2 .5s-1.2.7-1.6 1.2l-3.6 4.4V5.6z"/>
</svg>
