<?xml version="1.0" encoding="UTF-8" standalone="no"?>
<svg
   xmlns:dc="http://purl.org/dc/elements/1.1/"
   xmlns:cc="http://creativecommons.org/ns#"
   xmlns:rdf="http://www.w3.org/1999/02/22-rdf-syntax-ns#"
   xmlns:svg="http://www.w3.org/2000/svg"
   xmlns="http://www.w3.org/2000/svg"
   xmlns:sodipodi="http://sodipodi.sourceforge.net/DTD/sodipodi-0.dtd"
   xmlns:inkscape="http://www.inkscape.org/namespaces/inkscape"
   viewBox="0 0 16 16"
   version="1.1"
   id="svg6"
   sodipodi:docname="folder-documents.svg"
   inkscape:version="0.92.4 5da689c313, 2019-01-14">
  <metadata
     id="metadata10">
    <rdf:RDF>
      <cc:Work
         rdf:about="">
        <dc:format>image/svg+xml</dc:format>
        <dc:type
           rdf:resource="http://purl.org/dc/dcmitype/StillImage" />
      </cc:Work>
    </rdf:RDF>
  </metadata>
  <sodipodi:namedview
     pagecolor="#ffffff"
     bordercolor="#666666"
     borderopacity="1"
     objecttolerance="10"
     gridtolerance="10"
     guidetolerance="10"
     inkscape:pageopacity="0"
     inkscape:pageshadow="2"
     inkscape:window-width="1366"
     inkscape:window-height="703"
     id="namedview8"
     showgrid="false"
     inkscape:zoom="14.75"
     inkscape:cx="8"
     inkscape:cy="8"
     inkscape:window-x="0"
     inkscape:window-y="0"
     inkscape:window-maximized="1"
     inkscape:current-layer="svg6" />
  <defs
     id="defs3051">
    <style
       type="text/css"
       id="current-color-scheme">
      .ColorScheme-Text {
        color:#f2f2f2;
      }
      </style>
  </defs>
  <path
     style="fill:#f47750;fill-opacity:1;stroke:none"
     class="ColorScheme-Text"
     d="M 5.8222656 1.9472656 C 5.7584265 1.9456666 5.7058614 1.953125 5.6523438 1.953125 L 1.0136719 1.953125 C 0.61596971 1.953125 0.28125 2.2878706 0.28125 2.6855469 L 0.28125 13.869141 L 15.792969 13.902344 L 15.792969 4.2363281 C 15.792969 3.8386261 15.45825 3.5039063 15.060547 3.5039062 L 7.140625 3.5039062 L 7.1191406 3.5058594 C 7.1088798 3.5067652 7.1136241 3.5053785 7.1054688 3.5058594 L 7.1035156 3.5039062 C 7.0630438 3.4497427 6.9337326 3.2154881 6.8164062 2.984375 C 6.7000478 2.7551685 6.5953499 2.5311376 6.4492188 2.3359375 C 6.3646196 2.214052 6.2586263 2.0710927 6.0625 1.9980469 C 5.9617543 1.9605248 5.8861049 1.9488649 5.8222656 1.9472656 z M 1.2207031 2.8925781 L 5.6523438 2.8925781 C 5.675327 2.8925781 5.6781792 2.8938263 5.6953125 2.8945312 L 5.6953125 2.8964844 C 5.7318811 2.9449763 5.8612155 3.1790947 5.9785156 3.4101562 C 6.0958159 3.6412178 6.2025475 3.8695927 6.3496094 4.0664062 C 6.4184051 4.1582357 6.500801 4.2887915 6.6894531 4.3789062 C 6.8614968 4.4610876 7.0159075 4.4550954 7.1601562 4.4433594 L 14.464844 4.4433594 C 12.275899 5.7674575 2.4409317 12.061342 1.2207031 12.917969 L 1.2207031 2.8925781 z "
     id="path4" />
</svg>
