<?xml version="1.0" encoding="UTF-8" standalone="no"?>
<svg
   xmlns:dc="http://purl.org/dc/elements/1.1/"
   xmlns:cc="http://creativecommons.org/ns#"
   xmlns:rdf="http://www.w3.org/1999/02/22-rdf-syntax-ns#"
   xmlns:svg="http://www.w3.org/2000/svg"
   xmlns="http://www.w3.org/2000/svg"
   xmlns:sodipodi="http://sodipodi.sourceforge.net/DTD/sodipodi-0.dtd"
   xmlns:inkscape="http://www.inkscape.org/namespaces/inkscape"
   viewBox="984 984 32 32"
   version="1.1"
   id="svg8"
   sodipodi:docname="3.svg"
   inkscape:version="0.92.4 5da689c313, 2019-01-14">
  <metadata
     id="metadata14">
    <rdf:RDF>
      <cc:Work
         rdf:about="">
        <dc:format>image/svg+xml</dc:format>
        <dc:type
           rdf:resource="http://purl.org/dc/dcmitype/StillImage" />
      </cc:Work>
    </rdf:RDF>
  </metadata>
  <defs
     id="defs12" />
  <sodipodi:namedview
     pagecolor="#ffffff"
     bordercolor="#666666"
     borderopacity="1"
     objecttolerance="10"
     gridtolerance="10"
     guidetolerance="10"
     inkscape:pageopacity="0"
     inkscape:pageshadow="2"
     inkscape:window-width="1366"
     inkscape:window-height="703"
     id="namedview10"
     showgrid="false"
     inkscape:zoom="7.375"
     inkscape:cx="16"
     inkscape:cy="26.847458"
     inkscape:window-x="0"
     inkscape:window-y="0"
     inkscape:window-maximized="1"
     inkscape:current-layer="svg8" />
  <g
     id="g17">
    <path
       id="path2"
       d="M-43.8-437.5H2700v2625H-43.8z"
       fill="none" />
    <path
       id="path4-3"
       d="m 985.73343,988.8281 c -0.29939,0 -0.54017,0.24423 -0.54017,0.54813 v 22.38477 l 30.00004,0.065 v -19.21115 c 0,-0.3038 -0.2408,-0.54813 -0.5402,-0.54813 h -16.26153 c -0.551,0.049 -0.62313,-0.0255 -0.89525,-0.39466 -0.38622,-0.52438 -0.96856,-1.93787 -1.34859,-2.44934 -0.30519,-0.44781 -0.35528,-0.3948 -0.86122,-0.3948 z"
       class="ColorScheme-Text"
       style="fill:#1d99f3;fill-opacity:1;stroke:none;stroke-width:1.94820786"
       inkscape:connector-curvature="0" />
    <path
       style="fill:#ffffff;fill-opacity:1;stroke-width:0.03618228"
       id="path2-3"
       d="m 999.12069,1002.0425 -5.40736,-4.478 c -0.37373,-0.30951 -0.37373,-0.80998 0,-1.1162 l 0.89859,-0.74415 c 0.37374,-0.30951 0.97809,-0.30951 1.34785,0 l 3.83282,3.17413 3.83281,-3.17413 c 0.3738,-0.30951 0.9781,-0.30951 1.3479,0 l 0.9065,0.74085 c 0.3738,0.30952 0.3738,0.80999 0,1.11621 l -5.4073,4.47799 c -0.3737,0.3128 -0.97805,0.3128 -1.35181,0 z m 1.35181,6.3219 5.4073,-4.478 c 0.3738,-0.3095 0.3738,-0.81 0,-1.1162 l -0.8986,-0.7442 c -0.3737,-0.3094 -0.978,-0.3094 -1.3478,0 l -3.83677,3.1709 -3.83288,-3.1741 c -0.37374,-0.3096 -0.97809,-0.3096 -1.34786,0 l -0.90256,0.7441 c -0.37373,0.3095 -0.37373,0.81 0,1.1162 l 5.40736,4.478 c 0.37376,0.3128 0.97811,0.3128 1.35181,0 z"
       inkscape:connector-curvature="0" />
  </g>
</svg>
