<?xml version="1.0" encoding="UTF-8" standalone="no"?>
<svg
   xmlns:dc="http://purl.org/dc/elements/1.1/"
   xmlns:cc="http://creativecommons.org/ns#"
   xmlns:rdf="http://www.w3.org/1999/02/22-rdf-syntax-ns#"
   xmlns:svg="http://www.w3.org/2000/svg"
   xmlns="http://www.w3.org/2000/svg"
   xmlns:sodipodi="http://sodipodi.sourceforge.net/DTD/sodipodi-0.dtd"
   xmlns:inkscape="http://www.inkscape.org/namespaces/inkscape"
   viewBox="0 0 32 32"
   version="1.1"
   id="svg6"
   sodipodi:docname="folder-remote.svg"
   inkscape:version="0.92.4 5da689c313, 2019-01-14"
   width="32"
   height="32">
  <metadata
     id="metadata10">
    <rdf:RDF>
      <cc:Work
         rdf:about="">
        <dc:format>image/svg+xml</dc:format>
        <dc:type
           rdf:resource="http://purl.org/dc/dcmitype/StillImage" />
        <dc:title></dc:title>
      </cc:Work>
    </rdf:RDF>
  </metadata>
  <sodipodi:namedview
     pagecolor="#ffffff"
     bordercolor="#666666"
     borderopacity="1"
     objecttolerance="10"
     gridtolerance="10"
     guidetolerance="10"
     inkscape:pageopacity="0"
     inkscape:pageshadow="2"
     inkscape:window-width="1366"
     inkscape:window-height="703"
     id="namedview8"
     showgrid="false"
     inkscape:zoom="7.375"
     inkscape:cx="8"
     inkscape:cy="8"
     inkscape:window-x="0"
     inkscape:window-y="0"
     inkscape:window-maximized="1"
     inkscape:current-layer="svg6" />
  <defs
     id="defs3051">
    <style
       type="text/css"
       id="current-color-scheme">
      .ColorScheme-Text {
        color:#f2f2f2;
      }
      </style>
  </defs>
  <g
     id="g16"
     transform="matrix(1.9340216,0,0,1.9625014,0.41527252,-0.22848093)">
    <path
       id="path4"
       d="M 0.56054688,2.1835938 C 0.4057015,2.1835938 0.28125,2.3080452 0.28125,2.4628906 V 13.869141 l 15.511719,0.0332 V 4.1132812 c 0,-0.1548453 -0.124452,-0.2792968 -0.279297,-0.2792968 H 7.1054688 C 6.8205808,3.859179 6.7833561,3.8207245 6.6425781,3.6328125 6.4429413,3.3656377 6.1418492,2.6453837 5.9453125,2.3847656 5.7875614,2.1565874 5.761625,2.1835938 5.5,2.1835938 Z"
       class="ColorScheme-Text"
       style="color:#f2f2f2;fill:#1d99f3;fill-opacity:1;stroke:none"
       inkscape:connector-curvature="0" />
    <path
       id="path2"
       d="m 7.7283866,5.5762897 c -0.035542,0 -0.070579,8.433e-4 -0.1058579,0.00168 -0.3465568,0.010363 -0.6804017,0.071218 -0.9936992,0.1754868 -0.053102,0.017676 -0.1060288,0.036971 -0.1579333,0.057096 -0.016067,0.00623 -0.031872,0.012876 -0.047807,0.019312 -0.035629,0.014417 -0.070864,0.028956 -0.105858,0.044501 -0.050647,0.022565 -0.1001171,0.046523 -0.1493963,0.07137 -0.049292,0.024822 -0.098117,0.050173 -0.1459815,0.077248 -0.1925694,0.1089237 -0.3736749,0.2363488 -0.5403879,0.3786818 -0.019775,0.016882 -0.038673,0.033881 -0.058051,0.051219 -0.040615,0.036272 -0.08076,0.073542 -0.119517,0.1116734 -0.03874,0.038152 -0.076651,0.076775 -0.1135413,0.1167112 C 5.1350125,6.7411455 5.0816143,6.8031085 5.0307156,6.8668304 4.9289097,6.9942285 4.8367041,7.1294678 4.754119,7.2707015 4.726588,7.3177675 4.699951,7.3649725 4.674726,7.4134421 c -0.012615,0.024236 -0.024648,0.048482 -0.036709,0.073049 -0.03614,0.07373 -0.070008,0.1492941 -0.1007358,0.2258662 -0.010228,0.02553 -0.020248,0.05142 -0.029879,0.07725 -0.038484,0.103304 -0.071669,0.208799 -0.099882,0.316548 -0.013936,0.05378 -0.026995,0.108034 -0.038416,0.162892 v 8.25e-4 c -0.011422,0.05489 -0.021228,0.109612 -0.029879,0.165411 -0.00865,0.05584 -0.015461,0.112063 -0.021342,0.168769 -0.01172,0.113362 -0.017928,0.228659 -0.017928,0.345096 0,0.11642 0.00621,0.231713 0.017928,0.345096 0.00584,0.05668 0.012648,0.112945 0.021342,0.168769 0.00865,0.0558 0.0185,0.111392 0.029879,0.166251 0.011422,0.05486 0.024352,0.109036 0.038416,0.162892 0.028213,0.107749 0.061411,0.2132447 0.099882,0.3165477 0.019221,0.05164 0.03979,0.102399 0.061466,0.152816 0.02165,0.05041 0.0451,0.100307 0.069149,0.149458 0.012018,0.02457 0.024094,0.04964 0.036709,0.07389 0.02523,0.04846 0.051849,0.09566 0.079393,0.14274 0.082581,0.141234 0.1747994,0.27644 0.2765967,0.403871 0.050907,0.0637 0.104297,0.12566 0.1596406,0.185562 0.036907,0.03995 0.074738,0.07858 0.1135413,0.116712 0.038782,0.03815 0.078923,0.07538 0.119517,0.111673 0.1826649,0.163298 0.3830308,0.307229 0.5984391,0.429061 0.047868,0.02703 0.09669,0.05327 0.1459815,0.07809 0.098571,0.04966 0.1992395,0.09489 0.3030611,0.135183 0.051892,0.02014 0.1048313,0.03943 0.1579333,0.0571 0.3452012,0.114903 0.7149041,0.177165 1.099557,0.177165 0.262241,0 0.5178202,-0.02916 0.7632019,-0.08396 0.1145312,-0.02562 0.2264817,-0.05664 0.336355,-0.0932 0.053115,-0.01764 0.1059947,-0.03699 0.1579335,-0.0571 0.1038085,-0.04024 0.2053436,-0.0855 0.3039144,-0.135183 0.049292,-0.02482 0.097285,-0.05019 0.1451278,-0.07725 0.2154208,-0.121811 0.4166279,-0.266623 0.5992926,-0.4299 0.04062,-0.03632 0.07989,-0.07354 0.118664,-0.111674 0.03878,-0.03811 0.07664,-0.07679 0.11354,-0.116711 0.05533,-0.05988 0.108756,-0.12184 0.159642,-0.185562 0.08055,-0.100797 0.155035,-0.20617 0.223667,-0.315708 0.01816,-0.02896 0.03652,-0.0586 0.05378,-0.08816 0.02753,-0.04705 0.05331,-0.09426 0.07854,-0.142741 0.01261,-0.02424 0.0255,-0.04932 0.03756,-0.07389 0.02412,-0.04913 0.04662,-0.09902 0.0683,-0.149458 0.02169,-0.05044 0.04226,-0.10115 0.06147,-0.152816 0.03848,-0.103304 0.07167,-0.2088147 0.09988,-0.3165477 0.01411,-0.05389 0.02699,-0.108033 0.03842,-0.162892 0.01138,-0.0549 0.02204,-0.110439 0.03073,-0.166251 0.0086,-0.05582 0.01546,-0.112072 0.02134,-0.16877 0.01172,-0.113357 0.01793,-0.228658 0.01793,-0.345096 0,-0.11642 -0.0062,-0.231738 -0.01793,-0.345095 -0.0059,-0.05671 -0.01265,-0.112932 -0.02134,-0.168768 -0.0087,-0.0558 -0.01931,-0.110552 -0.03073,-0.165411 -0.01142,-0.05486 -0.02431,-0.109888 -0.03842,-0.163731 -0.02821,-0.107737 -0.06142,-0.213245 -0.09988,-0.316548 -0.0096,-0.02582 -0.01969,-0.0517 -0.02988,-0.07725 -0.03068,-0.076582 -0.06376,-0.1513059 -0.09988,-0.2250361 -0.01202,-0.02457 -0.02495,-0.048804 -0.03756,-0.07305 -0.02523,-0.048454 -0.051,-0.096495 -0.07854,-0.1435651 C 10.620922,7.1294551 10.527854,6.9942619 10.426058,6.8668304 10.375151,6.8031335 10.321773,6.7411706 10.266416,6.681268 10.229552,6.6413608 10.191666,6.602688 10.152875,6.5645568 10.114136,6.5264047 10.074806,6.4891677 10.034212,6.4528834 9.955582,6.3825841 9.8733925,6.3159792 9.7883486,6.253047 9.6758282,6.1697724 9.557591,6.0932111 9.4349196,6.0238227 9.3870548,5.9967861 9.339062,5.9705447 9.2897914,5.9457354 c -0.022415,-0.011283 -0.044768,-0.021965 -0.067442,-0.032747 -0.027231,-0.012954 -0.055196,-0.02638 -0.082808,-0.038624 -0.011548,-0.00514 -0.023411,-0.00926 -0.035004,-0.014274 -0.039338,-0.017008 -0.078564,-0.033994 -0.1186632,-0.049539 -4.165e-4,-2.257e-4 -0.00129,-4.048e-4 -0.0017,-8.395e-4 -0.042713,-0.016506 -0.086223,-0.032115 -0.1297609,-0.04702 -0.00878,-0.00293 -0.017599,-0.00631 -0.026466,-0.00924 -0.101537,-0.033806 -0.2052095,-0.062911 -0.3107574,-0.087324 -0.032986,-0.00765 -0.065697,-0.014263 -0.099028,-0.020991 -0.024035,-0.00485 -0.048369,-0.00997 -0.072564,-0.014274 -0.1803552,-0.03226 -0.3650406,-0.050411 -0.554047,-0.053738 -0.02084,-3.747e-4 -0.042227,-8.394e-4 -0.063173,-8.394e-4 z m 0,0.1813642 c 0.2217455,0 0.4385624,0.021926 0.6479532,0.063813 -0.00878,0.022732 -0.037287,0.01252 -0.061466,0.02351 -0.022672,0.010363 -0.031384,0.031634 -0.05549,0.036105 -0.066995,0.012411 -0.1221477,-0.016363 -0.1801297,-0.014274 -0.00257,0.024655 0.027981,0.039089 0.043539,0.04702 0.052552,0.027079 0.095798,0.023461 0.1698849,0.021831 0.037973,-8.357e-4 0.081771,0.011148 0.1143949,-0.010916 0.020669,-0.013873 0.019405,-0.045152 0.036708,-0.062134 0.00737,-0.00719 0.017689,-0.014009 0.029881,-0.020152 0.036394,0.00844 0.072466,0.017216 0.108419,0.026869 -0.00605,0.024404 -0.045584,0.018553 -0.0461,0.051219 0.025614,0.015127 0.085384,-0.0078 0.1084193,-0.033586 0.00891,0.00251 0.017599,0.00492 0.026463,0.00756 0.052109,0.015587 0.1035346,0.032339 0.1545182,0.050379 0.072673,0.025741 0.144098,0.054216 0.2142777,0.084805 -0.013468,0.00781 -0.028276,0.017675 -0.040124,0.017633 -0.030472,-1.88e-4 -0.042869,-0.039982 -0.076832,-0.02519 -0.00299,0.038737 0.041736,0.054316 0.070003,0.07221 0.030597,0.01939 0.062537,0.038512 0.073418,0.07221 -0.029961,0.062473 -0.078047,-0.00294 -0.1254933,-0.00336 -0.052288,-3.678e-4 -0.1278843,0.097297 -0.1724459,0.017633 0.011079,-0.04221 0.058437,-0.049011 0.070003,-0.090682 -0.010185,0.00167 -0.020075,0.00535 -0.029878,0.00924 -0.017515,0.00681 -0.035061,0.015746 -0.052929,0.02519 -0.023441,0.012411 -0.048056,0.024924 -0.075979,0.031067 -0.025701,0.00556 -0.050459,0.00435 -0.073418,0.010916 -0.04408,0.012702 -0.075446,0.044378 -0.1220788,0.061293 -0.018197,0.00656 -0.039961,0.00469 -0.058905,0.010915 -0.044476,0.014584 -0.097543,0.041059 -0.1434206,0.065493 -0.046905,0.024905 -0.099782,0.050721 -0.1289078,0.075568 -0.015724,0.01333 -0.056905,0.060491 -0.05549,0.075568 0.0017,0.021521 0.043361,0.029213 0.044392,0.051219 -8.33e-4,0.01333 -0.024262,0.04193 -0.00768,0.061294 0.015088,0.017634 0.045663,0.00367 0.077686,0.00756 0.05629,0.00685 0.09341,0.052138 0.1365909,0.075568 0.032645,0.017718 0.080945,0.039082 0.1178094,0.043662 0.050609,0.00623 0.1074959,-0.014634 0.1143953,0.02519 0.00669,0.038278 -0.048167,0.051549 -0.052076,0.075568 0.027277,0.035353 -0.018057,0.052136 -0.017928,0.083125 1.197e-4,0.025073 0.031464,0.063219 0.058904,0.065493 0.037125,0.00292 0.091289,-0.035792 0.1067118,-0.07221 0.018326,-0.043392 0.010719,-0.102744 0.044392,-0.1343438 0.1716656,0.00464 0.316686,-0.076396 0.3056224,-0.2493758 -0.00125,-0.017091 -0.011351,-0.03916 -0.00768,-0.057936 0.00537,-0.027956 0.05431,-0.051131 0.047807,-0.086484 0.018496,-0.0056 0.029809,-0.020397 0.039268,-0.036944 0.014108,-0.024655 0.024971,-0.052836 0.051221,-0.062134 0.0017,-8.357e-4 0.00314,-0.00126 0.00512,-0.00168 0.015001,-0.00334 0.031301,-5.772e-4 0.047807,0.0042 0.029404,0.00852 0.061375,0.023332 0.096467,0.020991 0.017856,-0.00126 0.040958,-0.016781 0.058905,-0.014274 0.036011,0.00493 0.057458,0.047807 0.084516,0.068011 0.02391,0.017968 0.049387,0.012161 0.05549,0.036105 -0.00708,0.040158 -0.035595,0.042062 -0.033293,0.078927 v 8.395e-4 c 0.00257,0.033138 0.037991,0.058854 0.05549,0.062134 0.026852,0.00493 0.065392,-0.00929 0.092199,-0.021831 0.028935,-0.013455 0.054971,-0.04277 0.080247,-0.062974 0.036099,0.027245 0.07179,0.055332 0.1067118,0.083965 0.00382,0.016088 0.00641,0.030483 0.00768,0.040303 0.00516,0.039113 -0.00495,0.068956 -0.00345,0.1049561 0.00473,0.060985 0.082715,0.054529 0.1212242,0.086484 0.011594,0.00969 0.015978,0.034425 0.025611,0.04702 0.018712,0.024487 0.041492,0.025101 0.044393,0.051219 0.0069,0.062473 -0.057253,0.067144 -0.051222,0.1368628 -0.013294,0.027037 -0.047103,0.026079 -0.044392,0.062134 0.00426,0.057099 0.087441,0.013378 0.1101265,0.057936 0.01228,0.023944 -0.0021,0.041428 -0.0111,0.075569 0.0286,0.033429 0.02908,0.086413 -0.021343,0.086484 -0.030642,0 -0.039021,-0.031941 -0.070002,-0.039464 -0.017216,-0.00422 -0.041236,-0.00367 -0.063174,-0.00756 -0.01875,-0.00334 -0.041136,-0.00883 -0.058904,-0.010917 -0.045477,-0.00531 -0.094332,0.00811 -0.1212247,-0.017633 0.043837,-0.057169 0.1015715,-0.1136578 0.1579336,-0.162892 0.016747,-0.014709 0.052924,-0.025113 0.044392,-0.054577 -0.03137,-0.027037 -0.069439,0.00209 -0.099028,0.018472 -0.031066,0.017175 -0.068239,0.041905 -0.1032973,0.04702 -0.060926,0.00886 -0.1422983,-0.017652 -0.1920805,0.014274 -0.00686,0.027288 0.056663,0.01675 0.047807,0.057936 -0.02438,0.00376 -0.04697,0.00584 -0.065734,-0.010916 -0.017129,-0.015127 -0.0077,-0.037894 -0.01878,-0.04702 -0.018882,-0.015378 -0.089513,-0.019414 -0.1212242,-0.014274 -0.038699,0.00618 -0.073216,0.028796 -0.077686,0.061294 0.046487,0.021395 0.1231421,-0.02187 0.1400054,0.032747 -0.025486,0.045014 -0.084887,0.069792 -0.076832,0.1301459 0.00299,0.023318 0.030945,0.054472 0.051222,0.057935 0.02037,0.00334 0.031536,-0.016111 0.051221,-0.014275 0.02084,0.0021 0.016512,0.024543 0.040975,0.02099 0.035459,-0.014878 0.054986,-0.063567 0.095614,-0.061294 0.04875,0.05811 -0.043915,0.086524 -0.095614,0.1049559 -0.058966,0.020976 -0.1360639,0.032646 -0.180983,0.051219 -0.023566,0.00965 -0.1120416,0.093925 -0.1246393,0.028549 -0.00899,-0.047149 0.04348,-0.033406 0.054637,-0.07221 -0.057023,-0.010906 -0.1094565,0.024277 -0.1613484,0.043662 -0.07404,0.027496 -0.1998217,0.044286 -0.2176914,0.1259474 -0.00345,0.01634 0.00681,0.047042 -0.00426,0.057936 -0.00882,0.00878 -0.061433,0.010782 -0.084516,0.018472 -0.035542,0.011992 -0.066827,0.037 -0.088784,0.042822 -0.01658,0.00447 -0.040714,0.0036 -0.051222,0.00756 -0.029279,0.011157 -0.039824,0.049706 -0.073417,0.075568 -0.013767,0.01057 -0.044537,0.01873 -0.05549,0.02939 -0.019094,0.01864 -0.021839,0.06522 -0.05549,0.07221 -0.021393,0.0017 -0.038763,-0.01539 -0.058904,-0.0034 -0.00257,0.04613 0.017,0.108692 -0.00341,0.155335 -0.043637,0.03494 -0.091868,0.05904 -0.1476889,0.08984 -0.030855,0.01709 -0.058327,0.02196 -0.095614,0.0403 -0.026455,0.01296 -0.050663,0.04366 -0.081092,0.0613 -0.070336,0.04066 -0.1550597,0.08849 -0.1545183,0.191439 1.193e-4,0.02227 0.011616,0.04701 0.014513,0.07305 0.0017,0.01534 -0.0017,0.03029 0,0.04702 0.00439,0.03782 0.032263,0.08556 0,0.111673 -0.049585,-0.01997 -0.1130005,-0.02662 -0.1476833,-0.06129 -0.0095,-0.03569 0.019757,-0.06489 0.015369,-0.0974 -0.00341,-0.02612 -0.041417,-0.07306 -0.063173,-0.07641 -0.022419,-0.0033 -0.042593,0.02031 -0.065734,0.01847 -0.02753,-0.0021 -0.053428,-0.03964 -0.088784,-0.04366 -0.051819,-0.0059 -0.090295,0.01122 -0.147689,0.0034 -0.055561,0.02913 -0.071057,0.08154 -0.1391519,0.07641 -0.023994,-0.0017 -0.046553,-0.01959 -0.074271,-0.02519 -0.030044,-0.0061 -0.07543,-0.01724 -0.1067118,-0.01511 -0.062712,0.0042 -0.1083326,0.04893 -0.1622017,0.07641 -0.047532,0.02432 -0.1147926,0.05458 -0.1289077,0.104956 -0.00776,0.02712 -0.00129,0.06475 -0.011098,0.08984 -0.00652,0.01651 -0.020289,0.03131 -0.029026,0.04702 -0.041297,0.07408 -0.075742,0.172205 -0.044392,0.278763 0.00465,0.0158 0.045409,0.105418 0.06232,0.123429 0.019008,0.02002 0.074812,0.04983 0.1067117,0.05038 0.026977,4.12e-4 0.059219,-0.01387 0.085369,-0.01847 0.030301,-0.0053 0.068074,-0.0056 0.095614,-0.01427 0.079649,-0.02503 0.063687,-0.130614 0.1434207,-0.166251 0.034819,-0.01546 0.075387,-0.01874 0.1365909,-0.02183 0.019435,0.01605 0.028295,0.04439 0.02561,0.06885 -0.00212,0.01847 -0.020291,0.03496 -0.029878,0.06129 -0.00835,0.02307 -0.00966,0.05023 -0.017928,0.06885 -0.010954,0.02436 -0.03561,0.04257 -0.044392,0.06549 -0.00576,0.01492 -0.00204,0.03356 -0.00683,0.04702 -0.00848,0.02382 -0.041509,0.04015 -0.026466,0.06465 0.078881,0.0308 0.1744659,-0.0083 0.2433023,0.0042 0.029064,0.0052 0.089325,0.03916 0.088784,0.08313 -3.578e-4,0.03289 -0.026258,0.05383 -0.029878,0.08984 -0.00448,0.04527 -0.023566,0.101055 -0.02561,0.137703 -0.00341,0.06002 0.089467,0.163715 0.1545186,0.162892 0.070034,-8.25e-4 0.1111164,-0.06864 0.1954958,-0.03275 0.028,0.01187 0.057865,0.05678 0.088784,0.05458 0.025486,-0.0017 0.063209,-0.04607 0.080247,-0.07641 0.020756,-0.03698 0.02226,-0.06783 0.058905,-0.08648 0.03955,-0.0201 0.071478,-0.01088 0.1220782,-0.02939 0.022589,-0.0082 0.041961,-0.02227 0.06232,-0.0361 0.017856,-0.01203 0.036636,-0.04372 0.058905,-0.02183 0.029404,0.02883 -0.03603,0.04553 -0.011098,0.07641 0.051103,0.02658 0.07739,-0.04922 0.1143949,-0.05038 0.011806,-3.64e-4 0.052411,0.02248 0.073418,0.0361 0.028723,0.01851 0.038564,0.04434 0.070003,0.05038 0.0202,0.0038 0.052709,-0.0072 0.081101,-0.0034 0.037587,0.0053 0.060298,0.03694 0.088784,0.0361 0.03469,-8.24e-4 0.051392,-0.03825 0.081101,-0.04366 0.065027,-0.0117 0.089179,0.0071 0.1178101,0.04702 0.032093,0.0055 0.032945,-0.03663 0.06232,-0.02183 -0.016111,0.03151 0.00587,0.04591 0.01878,0.07221 0.00835,0.01688 0.00672,0.02879 0.014513,0.0361 0.017561,0.01646 0.051919,0.01674 0.077686,0.03275 0.027189,0.0168 0.042226,0.04794 0.073417,0.08313 0.032093,0.03598 0.086051,0.07378 0.128908,0.07641 0.040489,0.0025 0.073239,-0.01161 0.1067114,-0.0076 0.076209,0.0092 0.1233949,0.04619 0.1767143,0.08648 0.02979,0.02249 0.057025,0.03856 0.066588,0.06549 0.00673,0.0188 0.00345,0.04357 0.011098,0.06465 0.016277,0.04505 0.083099,0.06741 0.058905,0.14526 0.011079,0.02286 0.03561,0.03104 0.062319,0.04702 0.021351,0.01278 0.040041,0.03916 0.063173,0.04282 0.01496,0.0025 0.031438,-0.0041 0.044392,-0.0033 0.041892,0.0029 0.07041,0.01896 0.1067115,0.03275 0.0225,0.0085 0.05075,0.01184 0.06573,0.02183 0.01871,0.01241 0.02133,0.05367 0.04439,0.06465 0.01508,0.0072 0.04917,-0.0029 0.07427,0 0.03955,0.0045 0.09319,0.02872 0.128908,0.02939 0.02169,4.13e-4 0.03967,-0.009 0.0589,-0.0076 0.04473,0.0033 0.0797,0.03111 0.114395,0.06213 -0.443794,0.703688 -1.1578272,1.226142 -1.998496,1.425724 -0.00299,-0.03172 -0.012252,-0.06412 -0.013661,-0.09572 -0.00299,-0.06874 0.00818,-0.117004 -0.00341,-0.180525 -0.00856,-0.04805 -0.019916,-0.121748 -0.03756,-0.151981 -0.01973,-0.03364 -0.096691,-0.0903 -0.1357371,-0.111673 -0.025785,-0.01404 -0.056435,-0.01917 -0.084516,-0.03275 -0.059994,-0.0289 -0.1768458,-0.09024 -0.2031795,-0.1486 -0.00763,-0.0168 -0.00633,-0.03918 -0.014513,-0.05794 -0.015982,-0.03706 -0.049517,-0.06921 -0.073417,-0.104956 -0.045503,-0.06821 -0.082207,-0.153749 -0.1289078,-0.224187 -0.023611,-0.03577 -0.044117,-0.07647 -0.070003,-0.104956 -0.015172,-0.0168 -0.063772,-0.03265 -0.070003,-0.05794 -0.00831,-0.03347 -0.033883,-0.07935 -0.029878,-0.104957 0.00533,-0.03451 0.073524,-0.0617 0.073418,-0.0932 -1.192e-4,-0.02674 -0.035905,-0.04278 -0.043538,-0.06549 -0.018583,-0.05527 0.010234,-0.08748 0.032441,-0.133504 0.00733,-0.01513 0.014566,-0.04007 0.022195,-0.05122 0.013509,-0.01989 0.040916,-0.02548 0.058905,-0.04702 0.010056,-0.01208 0.016754,-0.03666 0.029878,-0.05374 0.028,-0.03652 0.072996,-0.05016 0.084516,-0.08313 0.00937,-0.02687 0.015308,-0.1616208 0.00427,-0.2065548 -0.0064,-0.02605 -0.031566,-0.04759 -0.040984,-0.07223 -0.016663,-0.04365 -0.019961,-0.09162 -0.065734,-0.09068 -0.028257,4.13e-4 -0.048433,0.03183 -0.066588,0.05122 -0.00435,0.02578 -0.00254,0.05342 -0.029878,0.06129 -0.041894,0.01216 -0.057851,-0.04339 -0.1067125,-0.05794 -0.019435,-0.0058 -0.050156,-0.0056 -0.06232,-0.01092 -0.035671,-0.01571 -0.046922,-0.06658 -0.084515,-0.08648 -0.031453,-0.01651 -0.058632,-0.01074 -0.077686,-0.03611 -0.00793,-0.01747 -0.00212,-0.04965 -0.00427,-0.07305 -0.040359,-0.02319 -0.074208,-0.109733 -0.1212246,-0.130146 -0.031154,-0.01362 -0.078823,-0.0122 -0.1178098,-0.02519 -0.018326,-0.0061 -0.032922,-0.01358 -0.052075,-0.01763 -0.023611,-0.0052 -0.047447,-0.0061 -0.065734,-0.01511 -0.072947,-0.03552 -0.1120027,-0.15024 -0.2023316,-0.147778 -0.038527,8.24e-4 -0.076067,0.03631 -0.1109801,0.0361 -0.034691,-1.88e-4 -0.093061,-0.02719 -0.1365909,-0.04702 -0.045218,-0.02064 -0.095028,-0.03166 -0.1323225,-0.05038 -0.030131,-0.01513 -0.051357,-0.0431 -0.077686,-0.05458 -0.020158,-0.0088 -0.049194,-0.0099 -0.065734,-0.01763 -0.023525,-0.01095 -0.048399,-0.03457 -0.077686,-0.05458 -0.027787,-0.01889 -0.057814,-0.04774 -0.058905,-0.07221 -0.00128,-0.02833 0.026896,-0.05254 0.029879,-0.07977 0.0095,-0.08613 -0.055793,-0.148112 -0.096467,-0.198997 -0.030131,-0.03782 -0.065389,-0.06996 -0.095614,-0.104956 0.0017,-0.02323 0.0017,-0.02719 0,-0.05038 -0.022886,-0.02181 -0.042402,-0.05465 -0.066588,-0.08732 -0.021863,-0.02946 -0.063651,-0.06099 -0.069149,-0.09404 -0.00678,-0.04066 0.015726,-0.07558 0,-0.115032 -0.02621,-0.06547 -0.1194771,-0.03619 -0.1075654,0.05038 0.00341,0.02386 0.037459,0.05611 0.047807,0.07977 0.010612,0.02411 0.00889,0.05408 0.018781,0.08312 0.0095,0.02783 0.037928,0.05177 0.047807,0.08313 0.015641,0.04952 0.015517,0.102552 0.029879,0.133504 0.012658,0.0275 0.058586,0.05404 0.03244,0.08732 -0.034861,0.0071 -0.047469,-0.02711 -0.069149,-0.04702 -0.012104,-0.01107 -0.056508,-0.03217 -0.063173,-0.05794 -0.00558,-0.02127 0.014119,-0.05037 0.00768,-0.07641 -0.012658,-0.05104 -0.117439,-0.05243 -0.1178098,-0.104957 -1.917e-4,-0.03297 0.043142,-0.03697 0.043538,-0.06885 2.856e-4,-0.03489 -0.048417,-0.06445 -0.058905,-0.09404 -0.00959,-0.02712 -0.010933,-0.07016 -0.014513,-0.108314 -0.00341,-0.03581 6.286e-4,-0.07733 -0.00768,-0.104956 -0.00754,-0.02487 -0.045617,-0.05887 -0.070003,-0.07221 -0.032262,-0.01764 -0.057623,-0.01028 -0.073418,-0.03611 -0.013723,-0.02256 -0.022628,-0.06972 -0.025611,-0.09404 -0.00533,-0.04349 -0.00171,-0.09129 -0.00427,-0.137703 -0.00256,-0.04649 -0.00724,-0.0911 0,-0.141061 0.018241,-0.034977 0.052271,-0.051829 0.070857,-0.086484 0.012956,-0.024112 0.014408,-0.054117 0.029026,-0.079767 0.026977,-0.047241 0.085969,-0.090295 0.1254929,-0.1368629 0.042618,-0.050166 0.081771,-0.09883 0.1067115,-0.1561747 0.00895,-0.02035 0.032478,-0.064887 0.029026,-0.089842 -0.00486,-0.034768 -0.071006,-0.063549 -0.065734,-0.1049562 0.00341,-0.025658 0.040154,-0.025899 0.051222,-0.051219 0.00567,-0.01308 0.0108,-0.049045 0.011098,-0.064653 4.259e-4,-0.034893 -0.018258,-0.071057 -0.011098,-0.1083148 0.00605,-0.0318 0.054632,-0.044866 0.029879,-0.079767 -0.024548,-0.034558 -0.069298,0.0182 -0.096467,-0.0042 -0.024932,-0.020559 0.00538,-0.045299 0.00768,-0.083125 8.511e-4,-0.015043 -0.0093,-0.031681 -0.00768,-0.042822 0.00213,-0.016172 0.034988,-0.043721 0.026464,-0.054577 C 5.7404828,6.515262 5.7259558,6.482087 5.7051198,6.455402 6.1160207,6.1321244 6.6085849,5.904161 7.1470075,5.8080326 h 8.709e-4 c 0.00669,0.011199 0.011764,0.024499 0.028174,0.029388 0.032093,-0.016339 0.064526,0.00125 0.099882,0 0.034436,-0.00125 0.065342,-0.016766 0.1032969,-0.010915 0.067076,0.010322 0.160573,0.075292 0.2134236,0.040303 0.013297,-0.00886 0.010177,-0.024939 0.022195,-0.04786 0.00955,-0.018345 0.02413,-0.037856 0.033293,-0.060455 0.02672,-8.357e-4 0.053402,-8.395e-4 0.080247,-8.395e-4 z"
       style="fill:#ffffff;stroke-width:0.37669137"
       inkscape:connector-curvature="0" />
  </g>
</svg>
