<svg viewBox="0 0 32 32" xmlns="http://www.w3.org/2000/svg"><path d="m28.4 18.7c0 .2-.1.3-.2.5.1-.1.2-.3.2-.5m-2.3-1.6c-.1 0-.1 0 0 0" fill="#fff"/><path d="m29.4 21.1v2c0 .3-.1.5-.3.7-.1.1-.4.3-.7.3h-4.3v4.2c0 .3-.1.5-.3.7-.1.1-.4.3-.7.3h-2c-.3 0-.5-.1-.7-.3-.1-.1-.3-.4-.3-.7v-4.2h-4.2c-.3 0-.5-.1-.7-.3-.1-.1-.3-.4-.3-.7v-2c0-.3.1-.5.3-.7.1-.1.4-.3.7-.3h4.2v-4.2c0-.3.1-.5.3-.7.1-.1.4-.3.7-.3h2c.3 0 .5.1.7.3.1.1.3.4.3.7v4.2h4.2c.3 0 .5.1.7.3.3.1.4.4.4.7z" fill="#427337"/><path d="m14.7 21.1v-.3h-9c-.5 0-.7-.2-.7-.5 0-.1.1-.3.3-.6l4.1-5.1c.2-.3.6-.5 1-.7s.8-.3 1.2-.3h15.2c.5 0 .7.2.7.5 0 .2-.1.3-.3.5l-2.5 3.1v1.8h.8l3.1-3.8c.4-.5.6-1.1.6-1.7 0-.3-.1-.7-.2-.9-.2-.4-.5-.8-.9-1s-.9-.3-1.4-.3h-2.7v-2.2c0-.9-.3-1.6-.9-2.2s-1.3-.9-2.2-.9h-7.6v-.4c0-.9-.3-1.6-.9-2.2s-1.4-1-2.2-1h-4.5c-.9 0-1.6.3-2.2.9s-.9 1.4-.9 2.3v13.4c0 .9.3 1.6.9 2.2s1.3.9 2.2.9h9zm-10.3-15c0-.4.1-.7.4-.9s.6-.4.9-.4h4.5c.4 0 .7.1.9.4.3.3.4.6.4.9v.9c0 .4.1.7.4.9.3.3.6.4.9.4h8c.4 0 .7.1.9.4.3.3.4.6.4.9v2.2h-10.6c-.6 0-1.3.2-2 .5s-1.2.7-1.6 1.2l-3.5 4.5z" fill="#375273"/></svg>