<?xml version="1.0" encoding="UTF-8" standalone="no"?>
<svg
   xmlns:dc="http://purl.org/dc/elements/1.1/"
   xmlns:cc="http://creativecommons.org/ns#"
   xmlns:rdf="http://www.w3.org/1999/02/22-rdf-syntax-ns#"
   xmlns:svg="http://www.w3.org/2000/svg"
   xmlns="http://www.w3.org/2000/svg"
   xmlns:sodipodi="http://sodipodi.sourceforge.net/DTD/sodipodi-0.dtd"
   xmlns:inkscape="http://www.inkscape.org/namespaces/inkscape"
   viewBox="0 0 22 22"
   version="1.1"
   id="svg6"
   sodipodi:docname="folder-new.svg"
   inkscape:version="0.92.4 5da689c313, 2019-01-14">
  <metadata
     id="metadata10">
    <rdf:RDF>
      <cc:Work
         rdf:about="">
        <dc:format>image/svg+xml</dc:format>
        <dc:type
           rdf:resource="http://purl.org/dc/dcmitype/StillImage" />
      </cc:Work>
    </rdf:RDF>
  </metadata>
  <sodipodi:namedview
     pagecolor="#ffffff"
     bordercolor="#666666"
     borderopacity="1"
     objecttolerance="10"
     gridtolerance="10"
     guidetolerance="10"
     inkscape:pageopacity="0"
     inkscape:pageshadow="2"
     inkscape:window-width="1366"
     inkscape:window-height="703"
     id="namedview8"
     showgrid="false"
     inkscape:zoom="10.727273"
     inkscape:cx="11"
     inkscape:cy="11"
     inkscape:window-x="0"
     inkscape:window-y="0"
     inkscape:window-maximized="1"
     inkscape:current-layer="svg6" />
  <defs
     id="defs3051">
    <style
       type="text/css"
       id="current-color-scheme">
     .ColorScheme-Text {
       color:#f2f2f2;
     }
     </style>
  </defs>
  <path
     style="color:#f2f2f2;fill:#1d99f3;fill-opacity:1;stroke:none;stroke-width:1.24392724"
     d="m 1.583587,2.70978 c -0.1969331,0 -0.3547734,0.1701242 -0.3547734,0.3823728 V 18.72611 L 20.957627,18.77118 V 5.3549672 c 0,-0.2122586 -0.159655,-0.3843305 -0.356597,-0.3843305 H 9.9070153 C 9.5447062,5.0051716 9.498412,4.9536705 9.3193735,4.6961149 9.0654729,4.3298951 8.6814913,3.3434741 8.4315371,2.9862394 8.2309147,2.6734782 8.1984609,2.7097599 7.8657246,2.7097599 H 1.583587 Z m 8.820111,6.0825971 h 1.38087 c -0.0019,0.7135368 0,2.5922609 0,2.5922609 h 2.239595 v 1.48829 h -2.239595 c 0,0 -8.09e-4,1.875543 -0.0019,2.592261 h -1.380904 c 9.26e-4,-0.716718 0.0019,-2.592261 0.0019,-2.592261 0,0 -1.4999027,-10e-4 -2.2414203,0 v -1.486333 c 0.7415176,-0.002 2.2414203,-0.002 2.2414203,-0.002 0,0 -9.38e-4,-1.8787751 0,-2.59226 z"
     class="ColorScheme-Text"
     id="path4"
     inkscape:connector-curvature="0" />
</svg>
