<svg height="48" viewBox="0 0 48 48" width="48" xmlns="http://www.w3.org/2000/svg" xmlns:xlink="http://www.w3.org/1999/xlink"><filter id="a" color-interpolation-filters="sRGB" height="1.099489" width="1.056413" x="-.028207" y="-.049744"><feGaussianBlur stdDeviation="5.8998423"/></filter><linearGradient id="b" gradientUnits="userSpaceOnUse" x1="13.921029831273" x2="13.524684385606" y1="39.852323748937" y2="8.305117441259"><stop offset="0" stop-color="#197cf1"/><stop offset="1" stop-color="#20bcfa"/></linearGradient><linearGradient id="c"><stop offset="0" stop-color="#ccc"/><stop offset="1" stop-color="#e6e6e6"/></linearGradient><linearGradient id="d" gradientUnits="userSpaceOnUse" x1="22.09865138425" x2="22.003916697133" xlink:href="#c" y1="39.567831542419" y2="11.944369840691"/><linearGradient id="e" gradientTransform="matrix(.82970355 0 0 .87402304 44.868948 7.045139)" gradientUnits="userSpaceOnUse" x1="-33.88871" x2="-34.502491" y1="37.608711" y2="2.822808"><stop offset="0" stop-color="#ccc"/><stop offset="1" stop-color="#f5f2f5"/></linearGradient><linearGradient id="f" gradientTransform="matrix(.85071011 0 0 .87172595 45.339098 8.461861)" gradientUnits="userSpaceOnUse" x1="-27.458342" x2="-26.62384" y1="36.068886" y2="3.757701"><stop offset="0" stop-color="#2a97ff"/><stop offset="1" stop-color="#20bcfa"/></linearGradient><linearGradient id="g" gradientUnits="userSpaceOnUse" x1="18.02523" x2="17.593777" xlink:href="#c" y1="39.75425" y2="9.648277"/><path d="m6.5439662 11.656278c-.7351528 0-1.3263212.592871-1.3263212 1.328021v25.543597c0 .735152.5911684 1.328023 1.3263212 1.328023h17.2064738 1.205593 17.206474c.735152 0 1.326322-.592871 1.326322-1.328023v-25.543597c0-.73515-.59117-1.328021-1.326322-1.328021h-17.206474-1.205593z" fill="url(#d)"/><path d="m18.474468 8.0205511c-.102628-.00269-.226588.00157-.387735.00157h-12.1689132c-.3815126 0-.6891325.3097891-.6891325.6938416v4.2289813c-.0005648.016-.00471.03095-.00471.04709v25.576381c0 .736091.5935103 1.329602 1.3296009 1.329602h35.6983098c.736093 0 1.328033-.593511 1.328033-1.329602v-25.576378c0-.736092-.59194-1.329602-1.328033-1.329602h-21.316008c-.01268-.0169-.02114-.02595-.03454-.04395-.491861-.662668-1.234682-2.4492081-1.718902-3.0956048-.2915-.4244578-.400085-.4942592-.707971-.5023288z" fill="url(#b)"/><path d="m7.499159 9.4566879h9.738435c.277 0 .5.223.5.5v1.1090001c0 .277-.223.5-.5.5h-9.738435c-.2770001 0-.5-.223-.5-.5v-1.1090001c0-.277.2229999-.5.5-.5z" fill="url(#g)"/><path d="m5.5804566 12.850769c-.6383882 0-1.1951591.543892-1.1517441 1.21482l1.5120334 23.366264c.043421.670931.5133569 1.214822 1.1517441 1.214822h14.94167 4.377195 14.941671c.638388 0 1.108331-.543891 1.151746-1.214822l1.512033-23.366264c.0434-.670928-.513358-1.21482-1.151744-1.21482h-16.453706-4.377195z" fill="url(#e)"/><path d="m28.241425 148.07206c-12.87594 0-23.24141 9.6069-23.24141 21.54052l16 244.76159v7.4003c0 6.06398 5.26673 10.94526 11.80953 10.94526h446.379045c6.54281 0 11.81139-4.88128 11.81139-10.94526l15.998-252.16189c0-11.93362-10.36547-21.54052-23.24141-21.54052h-455.515295z" fill-rule="evenodd" filter="url(#a)" opacity=".3" transform="matrix(.07561882 0 0 .07969348 4.839513 2.856494)"/><path d="m5.1236901 14.591215c-.6545516 0-1.2143558.541818-1.1809047 1.211627l1.1469427 22.96587c.033451.669811.526354 1.211629 1.1809047 1.211629h15.6555402 4.488019l16.039057-.04794c.654549-.002 1.154618-.541498 1.180906-1.211629l.89902-22.917931c.02629-.670129-.526354-1.211627-1.180904-1.211627h-16.870282-4.488019z" fill="url(#f)"/><path d="m30.235808 27.698656c-.436544-.438129-1.144808-.438129-1.581889 0l-4.416 4.880097-4.416008-4.880097c-.437073-.438129-1.144814-.438129-1.581887 0-.437076.438136-.437076 1.147799 0 1.585928l5.136917 5.677275c.236437.236727.551339.341123.860978.321614.30911.01953.624534-.08488.860972-.321614l5.136917-5.677275c.436546-.438129.436546-1.147792 0-1.585928zm-6.00447-4.722228c1.017894 0 1.843065-.826185 1.843065-1.845322 0-1.019151-.825171-1.845329-1.843065-1.845329-1.017901 0-1.843078.826178-1.843078 1.845329 0 1.019137.825177 1.845322 1.843078 1.845322zm0 5.272358c1.017894 0 1.843065-.826177 1.843065-1.845321 0-1.019152-.825171-1.84533-1.843065-1.84533-1.017901 0-1.843078.826178-1.843078 1.84533 0 1.019144.825177 1.845321 1.843078 1.845321z" fill="#fff"/></svg>