<?xml version="1.0" encoding="UTF-8" standalone="no"?>
<svg
   xmlns:dc="http://purl.org/dc/elements/1.1/"
   xmlns:cc="http://creativecommons.org/ns#"
   xmlns:rdf="http://www.w3.org/1999/02/22-rdf-syntax-ns#"
   xmlns:svg="http://www.w3.org/2000/svg"
   xmlns="http://www.w3.org/2000/svg"
   xmlns:sodipodi="http://sodipodi.sourceforge.net/DTD/sodipodi-0.dtd"
   xmlns:inkscape="http://www.inkscape.org/namespaces/inkscape"
   viewBox="0 0 32 32"
   version="1.1"
   id="svg6"
   sodipodi:docname="folder-documents.svg"
   inkscape:version="0.92.4 5da689c313, 2019-01-14"
   width="32"
   height="32">
  <metadata
     id="metadata10">
    <rdf:RDF>
      <cc:Work
         rdf:about="">
        <dc:format>image/svg+xml</dc:format>
        <dc:type
           rdf:resource="http://purl.org/dc/dcmitype/StillImage" />
        <dc:title></dc:title>
      </cc:Work>
    </rdf:RDF>
  </metadata>
  <sodipodi:namedview
     pagecolor="#ffffff"
     bordercolor="#666666"
     borderopacity="1"
     objecttolerance="10"
     gridtolerance="10"
     guidetolerance="10"
     inkscape:pageopacity="0"
     inkscape:pageshadow="2"
     inkscape:window-width="1366"
     inkscape:window-height="703"
     id="namedview8"
     showgrid="false"
     inkscape:zoom="7.375"
     inkscape:cx="8"
     inkscape:cy="18.847458"
     inkscape:window-x="0"
     inkscape:window-y="0"
     inkscape:window-maximized="1"
     inkscape:current-layer="svg6" />
  <defs
     id="defs3051">
    <style
       type="text/css"
       id="current-color-scheme">
      .ColorScheme-Text {
        color:#f2f2f2;
      }
      </style>
  </defs>
  <g
     id="g817"
     transform="matrix(1.9340216,0,0,1.9238329,0.41527251,0.71588199)">
    <path
       id="path4"
       d="m 5.8222656,1.9472656 c -0.063839,-0.0016 -0.1164042,0.00586 -0.1699218,0.00586 H 1.0136719 C 0.61596971,1.953125 0.28125,2.2878706 0.28125,2.6855469 V 13.869141 l 15.511719,0.0332 V 4.2363281 c 0,-0.397702 -0.334719,-0.7324218 -0.732422,-0.7324219 H 7.140625 l -0.021484,0.00195 c -0.010261,9.058e-4 -0.00552,-4.809e-4 -0.013672,0 l -0.00195,-0.00195 C 7.0630438,3.4497427 6.9337326,3.2154881 6.8164062,2.984375 6.7000478,2.7551685 6.5953499,2.5311376 6.4492188,2.3359375 6.3646196,2.214052 6.2586263,2.0710927 6.0625,1.9980469 5.9617543,1.9605248 5.8861049,1.9488649 5.8222656,1.9472656 Z M 1.2207031,2.8925781 h 4.4316407 c 0.022983,0 0.025835,0.00125 0.042969,0.00195 v 0.00195 c 0.036569,0.048492 0.165903,0.2826103 0.2832031,0.5136718 0.1173003,0.2310616 0.2240319,0.4594365 0.3710938,0.65625 0.068796,0.091829 0.1511916,0.2223853 0.3398437,0.3125 0.1720437,0.082181 0.3264544,0.076189 0.4707031,0.064453 H 14.464844 C 12.275899,5.7674575 2.4409317,12.061342 1.2207031,12.917969 Z"
       class="ColorScheme-Text"
       style="color:#f2f2f2;fill:#1d99f3;fill-opacity:1;stroke:none"
       inkscape:connector-curvature="0" />
  </g>
</svg>
