<svg xmlns="http://www.w3.org/2000/svg" viewBox="0 0 32 32">
  <path fill="#FFF" d="M28.8 18.6c0 .1 0 .1 0 0 0 .2-.1.3-.2.5.1-.1.2-.3.2-.5"/>
  <path fill="#733737" d="M26.4 17s.1 0 0 0c.1 0 0 0 0 0z"/>
  <path fill="#FFF" d="M26.5 17s-.1 0 0 0c-.1 0 0 0 0 0"/>
  <path fill="#375273" d="M26.7 14.5v3.1c0 .1 0 .2-.1.3-.1.1-.2.2-.3.2l-2.6.4c-.2.5-.4.9-.5 1.3.3.5.8 1.1 1.5 1.9.1.1.1.2.1.3 0 .1 0 .2-.1.3-.3.3-.7.8-1.4 1.5s-1.1 1-1.3 1c-.1 0-.2 0-.4-.1l-1.9-1.5c-.4.2-.8.4-1.3.5-.1 1.3-.3 2.1-.4 2.6-.1.3-.2.4-.5.4h-3.1c-.1 0-.2 0-.3-.1s-.2-.2-.2-.3l-.4-2.6c-.5-.1-.9-.3-1.3-.5l-2 1.5c-.1.1-.2.1-.3.1-.1 0-.2-.1-.3-.2-1.2-1.1-1.9-1.8-2.3-2.3-.1-.1-.1-.2-.1-.3 0-.1 0-.2.1-.3.1-.2.4-.5.7-.9.3-.4.6-.8.8-1-.3-.5-.4-.9-.6-1.4L5.7 18c-.1 0-.2-.1-.3-.2-.1-.1-.1-.2-.1-.3v-3.1c0-.1 0-.2.1-.3.1-.1.2-.2.3-.2l2.6-.4c.1-.4.3-.9.5-1.3-.4-.5-.9-1.2-1.5-1.9-.1-.1-.1-.2-.1-.3 0-.1 0-.2.1-.3.2-.4.7-.9 1.4-1.5.7-.7 1.1-1 1.3-1 .1 0 .2 0 .4.1l1.9 1.5c.4-.2.8-.4 1.3-.5.1-1.3.3-2.1.4-2.6.1-.3.2-.4.5-.4h3.1c.1 0 .2 0 .3.1.1.1.1.2.2.3l.4 2.6c.5.1.9.3 1.3.5l2-1.5c.1-.1.2-.1.3-.1.1 0 .2 0 .3.1 1.2 1.1 2 1.9 2.3 2.4.1.1.1.2.1.3 0 .1 0 .2-.1.3-.1.2-.4.5-.7.9-.3.4-.6.8-.8 1 .2.5.4.9.6 1.4l2.6.4c.1 0 .2.1.3.2v.3zm-8.2 4c.7-.7 1-1.5 1-2.5s-.3-1.8-1-2.5-1.5-1-2.5-1-1.8.3-2.5 1-1 1.5-1 2.5.3 1.8 1 2.5 1.5 1 2.5 1 1.8-.3 2.5-1z"/>
</svg>
