<?xml version="1.0" encoding="UTF-8" standalone="no"?>
<svg
   xmlns:dc="http://purl.org/dc/elements/1.1/"
   xmlns:cc="http://creativecommons.org/ns#"
   xmlns:rdf="http://www.w3.org/1999/02/22-rdf-syntax-ns#"
   xmlns:svg="http://www.w3.org/2000/svg"
   xmlns="http://www.w3.org/2000/svg"
   xmlns:sodipodi="http://sodipodi.sourceforge.net/DTD/sodipodi-0.dtd"
   xmlns:inkscape="http://www.inkscape.org/namespaces/inkscape"
   viewBox="0 0 22 22"
   version="1.1"
   id="svg6"
   sodipodi:docname="document-page-setup.svg"
   inkscape:version="0.92.4 5da689c313, 2019-01-14">
  <metadata
     id="metadata10">
    <rdf:RDF>
      <cc:Work
         rdf:about="">
        <dc:format>image/svg+xml</dc:format>
        <dc:type
           rdf:resource="http://purl.org/dc/dcmitype/StillImage" />
      </cc:Work>
    </rdf:RDF>
  </metadata>
  <sodipodi:namedview
     pagecolor="#ffffff"
     bordercolor="#666666"
     borderopacity="1"
     objecttolerance="10"
     gridtolerance="10"
     guidetolerance="10"
     inkscape:pageopacity="0"
     inkscape:pageshadow="2"
     inkscape:window-width="1366"
     inkscape:window-height="703"
     id="namedview8"
     showgrid="false"
     inkscape:zoom="10.727273"
     inkscape:cx="11"
     inkscape:cy="11"
     inkscape:window-x="0"
     inkscape:window-y="0"
     inkscape:window-maximized="1"
     inkscape:current-layer="svg6" />
  <defs
     id="defs3051">
    <style
       type="text/css"
       id="current-color-scheme">
     .ColorScheme-Text {
       color:#f2f2f2;
     }
     </style>
  </defs>
  <path
     style="color:#f2f2f2;fill:#1d99f3;fill-opacity:1;stroke:none;stroke-width:1.22721076"
     d="m 9.6675055,1.4152545 c -0.2483029,0 -0.402486,0.1179224 -0.462394,0.355446 C 9.0938089,2.1946826 8.9688247,2.9835849 8.8318245,4.1371597 8.4293372,4.2645886 8.0405877,4.4263777 7.6637978,4.6214251 L 5.8912872,3.2592797 C 5.7799844,3.1744832 5.6678359,3.1328459 5.5565331,3.1328459 5.3681382,3.1328459 4.963585,3.4352016 4.3427486,4.041738 3.7219124,4.6482745 3.3011531,5.1057416 3.0783898,5.41104 3.0012983,5.5212908 2.9627913,5.6172799 2.9627913,5.7020763 c 0,0.1018182 0.042035,0.2036876 0.12764,0.3053496 C 3.6641295,6.6945423 4.1229928,7.2795497 4.4655721,7.7631861 4.2514798,8.1532812 4.0844612,8.5443937 3.9646452,8.9344875 L 1.5756091,9.289934 C 1.4814903,9.3069603 1.4009494,9.3635354 1.3323705,9.4569223 1.263792,9.5501517 1.228814,9.6462965 1.228814,9.7479584 v 2.8244836 c 0,0.110402 0.034978,0.211566 0.1035565,0.300578 0.068579,0.08917 0.1584271,0.14058 0.2697299,0.157446 l 2.3505033,0.343519 c 0.1198155,0.415549 0.2937334,0.835584 0.5250099,1.259567 -0.1540267,0.212069 -0.3853801,0.510929 -0.6935911,0.896964 -0.308211,0.386034 -0.5267291,0.668686 -0.6550583,0.846868 -0.068579,0.09355 -0.1011484,0.191603 -0.1011484,0.293421 0,0.110256 0.029199,0.20624 0.089108,0.291037 0.3339084,0.458181 1.0403313,1.170643 2.1193062,2.137447 0.094277,0.09339 0.2004882,0.140747 0.3203042,0.140747 0.128487,0 0.2371072,-0.0383 0.3227126,-0.114506 l 1.8110435,-1.362145 c 0.3512501,0.178181 0.7364715,0.336476 1.1559853,0.472337 l 0.358837,2.340218 c 0.00867,0.110256 0.057045,0.202191 0.1469064,0.274337 0.089862,0.07231 0.1956716,0.107349 0.3154877,0.107349 h 2.8514303 c 0.248619,0 0.402328,-0.117926 0.462394,-0.355446 0.111147,-0.424138 0.236287,-1.212884 0.373286,-2.36646 0.402488,-0.127272 0.791396,-0.289217 1.168028,-0.484265 l 1.77251,1.374074 c 0.119816,0.0762 0.232122,0.114506 0.334754,0.114506 0.188237,0 0.590138,-0.301802 1.20656,-0.904121 0.616737,-0.602164 1.040622,-1.060186 1.271584,-1.374073 0.07709,-0.0848 0.115598,-0.180785 0.115598,-0.291037 0,-0.110256 -0.04187,-0.218157 -0.12764,-0.319662 -0.616422,-0.746459 -1.075285,-1.331622 -1.375141,-1.75576 0.171211,-0.313887 0.33823,-0.698964 0.500927,-1.156989 l 2.376994,-0.355447 c 0.102627,-0.01703 0.186859,-0.0736 0.255281,-0.166987 0.06842,-0.09339 0.103552,-0.189375 0.103552,-0.291037 V 9.8004394 C 20.957782,9.6901838 20.922803,9.58903 20.854072,9.4998606 20.785342,9.4106863 20.695645,9.3592801 20.584343,9.342415 L 18.233839,8.9845832 C 18.105352,8.5774667 17.931435,8.1634676 17.708828,7.7393297 17.862855,7.5272602 18.094209,7.2283995 18.40242,6.842365 c 0.30821,-0.3860346 0.526571,-0.6686863 0.655058,-0.846868 0.06858,-0.093386 0.101147,-0.1916037 0.101147,-0.2934219 0,-0.1186833 -0.02904,-0.2111777 -0.08911,-0.2791086 C 18.761304,4.9902393 18.054878,4.2687152 16.950206,3.2592784 16.847727,3.1744816 16.741047,3.1328447 16.629902,3.1328447 c -0.128487,0 -0.23117,0.038298 -0.308263,0.1145061 L 14.496153,4.6094974 C 14.144902,4.4313155 13.759681,4.2728652 13.340168,4.1371597 L 12.98133,1.7969415 C 12.972822,1.6866907 12.924289,1.5947512 12.834423,1.5226039 12.744398,1.4504572 12.639067,1.415254 12.518936,1.415254 Z m 1.4257155,6.5149199 c 0.907764,0 1.681893,0.3181658 2.324013,0.9542175 0.642118,0.6362068 0.963321,1.4028631 0.963321,2.3020491 0,0.899186 -0.321203,1.665998 -0.963321,2.30205 -0.64212,0.636207 -1.416249,0.954217 -2.324013,0.954217 -0.907765,0 -1.6817353,-0.31801 -2.3240123,-0.954217 -0.6421194,-0.636052 -0.963321,-1.402864 -0.963321,-2.30205 0,-0.899186 0.3210439,-1.6658423 0.963321,-2.3020491 0.642277,-0.6360517 1.4164053,-0.9542175 2.3240123,-0.9542175 z"
     class="ColorScheme-Text"
     id="path4"
     inkscape:connector-curvature="0" />
</svg>
