<?xml version="1.0" encoding="UTF-8" standalone="no"?>
<svg
   xmlns:dc="http://purl.org/dc/elements/1.1/"
   xmlns:cc="http://creativecommons.org/ns#"
   xmlns:rdf="http://www.w3.org/1999/02/22-rdf-syntax-ns#"
   xmlns:svg="http://www.w3.org/2000/svg"
   xmlns="http://www.w3.org/2000/svg"
   xmlns:sodipodi="http://sodipodi.sourceforge.net/DTD/sodipodi-0.dtd"
   xmlns:inkscape="http://www.inkscape.org/namespaces/inkscape"
   viewBox="0 0 32 32"
   version="1.1"
   id="svg6"
   sodipodi:docname="gear.svg"
   inkscape:version="0.92.4 5da689c313, 2019-01-14"
   width="32"
   height="32">
  <metadata
     id="metadata10">
    <rdf:RDF>
      <cc:Work
         rdf:about="">
        <dc:format>image/svg+xml</dc:format>
        <dc:type
           rdf:resource="http://purl.org/dc/dcmitype/StillImage" />
        <dc:title />
      </cc:Work>
    </rdf:RDF>
  </metadata>
  <sodipodi:namedview
     pagecolor="#ffffff"
     bordercolor="#666666"
     borderopacity="1"
     objecttolerance="10"
     gridtolerance="10"
     guidetolerance="10"
     inkscape:pageopacity="0"
     inkscape:pageshadow="2"
     inkscape:window-width="1366"
     inkscape:window-height="703"
     id="namedview8"
     showgrid="false"
     inkscape:zoom="10.727273"
     inkscape:cx="11"
     inkscape:cy="11"
     inkscape:window-x="0"
     inkscape:window-y="0"
     inkscape:window-maximized="1"
     inkscape:current-layer="svg6" />
  <defs
     id="defs3051">
    <style
       type="text/css"
       id="current-color-scheme">
     .ColorScheme-Text {
       color:#f2f2f2;
     }
     </style>
  </defs>
  <path
     style="color:#f2f2f2;fill:#1d99f3;fill-opacity:1;stroke:none;stroke-width:1.75000024"
     d="m 13.764701,2.1186442 c -0.352403,0 -0.571227,0.1689568 -0.656251,0.5092774 -0.157965,0.6074746 -0.335349,1.7378008 -0.529785,3.3906248 -0.571228,0.1825783 -1.122959,0.4143869 -1.657716,0.6938472 L 8.4053242,4.7607339 C 8.2473583,4.6392338 8.0881922,4.5795813 7.9302263,4.5795813 c -0.2673783,0 -0.8415382,0.4332108 -1.7226566,1.302246 -0.8811182,0.8690351 -1.4782784,1.524488 -1.794434,1.9619141 -0.1094109,0.1579659 -0.1640625,0.2954974 -0.1640625,0.4169918 0,0.1458846 0.059658,0.2918409 0.1811524,0.4375005 0.8142178,0.984489 1.4654569,1.8226793 1.9516606,2.5156253 -0.3038492,0.558922 -0.5408894,1.119303 -0.7109376,1.678221 l -3.3906257,0.509279 c -0.1335778,0.0244 -0.2478847,0.105453 -0.345215,0.239258 -0.097328,0.133579 -0.1469719,0.271332 -0.1469719,0.416992 v 4.046876 c 0,0.158182 0.049643,0.303128 0.1469719,0.430663 0.097331,0.127761 0.2248469,0.20142 0.3828127,0.225586 l 3.3359381,0.492188 c 0.1700475,0.595393 0.4168795,1.197213 0.7451173,1.804689 -0.2186015,0.303848 -0.5469484,0.73205 -0.9843751,1.285155 -0.4374267,0.553103 -0.7475572,0.958083 -0.9296877,1.213379 -0.09733,0.134037 -0.1435543,0.274526 -0.1435543,0.420409 0,0.157973 0.04144,0.295498 0.1264661,0.416993 0.4738975,0.656475 1.4764841,1.677278 3.007813,3.0625 0.1338021,0.133808 0.2845417,0.20166 0.4545899,0.20166 0.1823545,0 0.336513,-0.05487 0.458008,-0.164062 l 2.5703131,-1.951659 c 0.49851,0.255294 1.045233,0.482097 1.640625,0.676756 l 0.509278,3.353028 c 0.0123,0.157972 0.08096,0.289695 0.208496,0.393065 0.127536,0.103605 0.277707,0.153808 0.447755,0.153808 h 4.046875 c 0.352851,0 0.571001,-0.168962 0.656249,-0.509277 0.157745,-0.607699 0.33535,-1.737801 0.529785,-3.390626 0.571228,-0.182354 1.123184,-0.414386 1.657717,-0.693848 l 2.515624,1.968752 c 0.170048,0.109178 0.329438,0.164062 0.475098,0.164062 0.267154,0 0.83755,-0.432417 1.712404,-1.29541 0.8753,-0.862772 1.476896,-1.519018 1.804688,-1.96875 0.10941,-0.1215 0.164061,-0.259026 0.164061,-0.416994 0,-0.157972 -0.05942,-0.312571 -0.181152,-0.458006 -0.874853,-1.069515 -1.526092,-1.907927 -1.95166,-2.515625 0.242989,-0.449732 0.48003,-1.001465 0.710936,-1.657715 l 3.373536,-0.509279 c 0.145653,-0.0244 0.265198,-0.105453 0.362306,-0.239256 0.09711,-0.133808 0.146965,-0.271334 0.146965,-0.416994 V 14.132802 C 29.78836,13.974832 29.738715,13.8299 29.64117,13.70214 29.54363,13.574364 29.416323,13.500717 29.258358,13.476554 l -3.335939,-0.512697 c -0.182354,-0.583309 -0.429185,-1.17648 -0.745118,-1.784179 0.218601,-0.30385 0.546949,-0.732051 0.984376,-1.2851569 0.437425,-0.5531048 0.747333,-0.9580827 0.929687,-1.213379 0.09734,-0.1338077 0.143553,-0.2745271 0.143553,-0.4204104 0,-0.1700471 -0.04121,-0.3025724 -0.126469,-0.3999014 C 26.671021,7.2408245 25.66843,6.2070363 24.10063,4.760731 23.955188,4.6392309 23.803783,4.5795798 23.646041,4.5795798 c -0.182354,0 -0.328087,0.054876 -0.437501,0.1640624 L 20.61773,6.6953034 C 20.119219,6.4400084 19.572496,6.2129824 18.977105,6.0185464 L 18.467826,2.6655178 C 18.455763,2.5075534 18.386873,2.3758232 18.259329,2.2724521 18.131569,2.1690768 17.982071,2.1186427 17.811577,2.1186427 Z m 2.023438,9.3344728 c 1.288338,0 2.387017,0.455863 3.298342,1.367188 0.911322,0.911547 1.367188,2.01 1.367188,3.29834 0,1.288338 -0.455866,2.387015 -1.367188,3.29834 -0.911325,0.911548 -2.010004,1.367187 -3.298342,1.367187 -1.28834,0 -2.386794,-0.455639 -3.298342,-1.367187 -0.911323,-0.911325 -1.367187,-2.010002 -1.367187,-3.29834 0,-1.28834 0.45564,-2.386793 1.367187,-3.29834 0.911548,-0.911325 2.010226,-1.367188 3.298342,-1.367188 z"
     class="ColorScheme-Text"
     id="path4"
     inkscape:connector-curvature="0" />
</svg>
