<svg xmlns="http://www.w3.org/2000/svg" viewBox="0 0 32 32">
  <path fill="#FFF" d="M28.8 18.6c0 .1 0 .1 0 0 0 .2-.1.3-.2.5.1-.1.2-.3.2-.5"/>
  <path fill="#733737" d="M26.4 17s.1 0 0 0c.1 0 0 0 0 0z"/>
  <path fill="#FFF" d="M26.5 17s-.1 0 0 0c-.1 0 0 0 0 0"/>
  <path fill="#375273" d="M26.4 22.9c.2-.2.3-.4.3-.6v-1.8c0-.2-.1-.5-.3-.6-.2-.2-.4-.3-.6-.3h-9.5c.1 0 .2-.1.3-.2l9.9-9.9c.2-.2.2-.3.2-.4-.1-.1-.2-.2-.4-.2H5.7c-.2 0-.4 0-.4.1-.1.1 0 .3.2.4l9.9 9.9c.1.1.2.1.3.2H6.2c-.2 0-.5.1-.6.3-.2.2-.3.4-.3.6v1.8c0 .2.1.5.3.6s.4.3.6.3h19.6c.3 0 .5 0 .6-.2z"/>
</svg>
