<?xml version="1.0" encoding="UTF-8" standalone="no"?>
<svg
   xmlns:dc="http://purl.org/dc/elements/1.1/"
   xmlns:cc="http://creativecommons.org/ns#"
   xmlns:rdf="http://www.w3.org/1999/02/22-rdf-syntax-ns#"
   xmlns:svg="http://www.w3.org/2000/svg"
   xmlns="http://www.w3.org/2000/svg"
   xmlns:sodipodi="http://sodipodi.sourceforge.net/DTD/sodipodi-0.dtd"
   xmlns:inkscape="http://www.inkscape.org/namespaces/inkscape"
   viewBox="0 0 22 22"
   version="1.1"
   id="svg6"
   sodipodi:docname="go-bottom.svg"
   inkscape:version="0.92.4 5da689c313, 2019-01-14">
  <metadata
     id="metadata10">
    <rdf:RDF>
      <cc:Work
         rdf:about="">
        <dc:format>image/svg+xml</dc:format>
        <dc:type
           rdf:resource="http://purl.org/dc/dcmitype/StillImage" />
      </cc:Work>
    </rdf:RDF>
  </metadata>
  <sodipodi:namedview
     pagecolor="#ffffff"
     bordercolor="#666666"
     borderopacity="1"
     objecttolerance="10"
     gridtolerance="10"
     guidetolerance="10"
     inkscape:pageopacity="0"
     inkscape:pageshadow="2"
     inkscape:window-width="1366"
     inkscape:window-height="703"
     id="namedview8"
     showgrid="false"
     inkscape:zoom="10.727273"
     inkscape:cx="11"
     inkscape:cy="11"
     inkscape:window-x="0"
     inkscape:window-y="0"
     inkscape:window-maximized="1"
     inkscape:current-layer="svg6" />
  <defs
     id="defs3051">
    <style
       type="text/css"
       id="current-color-scheme">
     .ColorScheme-Text {
       color:#f2f2f2;
     }
     </style>
  </defs>
  <path
     style="fill:#1d99f3;fill-opacity:1;stroke:none"
     d="m17.874858 4.500038c-.28675.001-.57299.1139-.79102.33612l-6.06445 6.18463-6.1093704-6.14113c-.43901-.44097-1.14811-.43851-1.58399.006-.43599.44441-.43357 1.16406.006 1.60548l6.9043004 6.93793c.21952.22058.50618.3312.79297.33019.28664-.001.57296-.1139.79101-.33612l6.85352-6.98934c.43578-.44462.43335-1.16226-.006-1.6035-.21952-.22048-.50622-.33127-.79297-.33019zm-.11914 11.1177-13.5390604.0336c-.39067.002-.7589.14404-.98633.37961-.22756.23577-.29155.54249-.16992.81856l.01.0217c.16703.37905.63894.63092 1.17383.62874l13.5390604-.0316c.39047-.002.75824-.14365.98633-.37962.22766-.23579.2916-.54241.16992-.81856l-.01-.0217c-.16703-.37921-.63894-.6329-1.17383-.63073z"
     class="ColorScheme-Text"
     id="path4" />
  <path
     id="path817"
     class="ColorScheme-Text"
     d="m17.874858 4.500038c-.28675.001-.57299.1139-.79102.33612l-6.06445 6.18463-6.1093704-6.14113c-.43901-.44097-1.14811-.43851-1.58399.006-.43599.44441-.43357 1.16406.006 1.60548l6.9043004 6.93793c.21952.22058.50618.3312.79297.33019.28664-.001.57296-.1139.79101-.33612l6.85352-6.98934c.43578-.44462.43335-1.16226-.006-1.6035-.21952-.22048-.50622-.33127-.79297-.33019zm-.11914 11.1177-13.5390604.0336c-.39067.002-.7589.14404-.98633.37961-.22756.23577-.29155.54249-.16992.81856l.01.0217c.16703.37905.63894.63092 1.17383.62874l13.5390604-.0316c.39047-.002.75824-.14365.98633-.37962.22766-.23579.2916-.54241.16992-.81856l-.01-.0217c-.16703-.37921-.63894-.6329-1.17383-.63073z"
     style="fill:#1d99f3;fill-opacity:1;stroke:none" />
</svg>
