<?xml version="1.0" encoding="UTF-8" standalone="no"?>
<svg
   xmlns:dc="http://purl.org/dc/elements/1.1/"
   xmlns:cc="http://creativecommons.org/ns#"
   xmlns:rdf="http://www.w3.org/1999/02/22-rdf-syntax-ns#"
   xmlns:svg="http://www.w3.org/2000/svg"
   xmlns="http://www.w3.org/2000/svg"
   xmlns:sodipodi="http://sodipodi.sourceforge.net/DTD/sodipodi-0.dtd"
   xmlns:inkscape="http://www.inkscape.org/namespaces/inkscape"
   viewBox="0 0 32 32"
   version="1.1"
   id="svg6"
   sodipodi:docname="go-down.svg"
   inkscape:version="0.92.4 5da689c313, 2019-01-14"
   width="32"
   height="32">
  <metadata
     id="metadata10">
    <rdf:RDF>
      <cc:Work
         rdf:about="">
        <dc:format>image/svg+xml</dc:format>
        <dc:type
           rdf:resource="http://purl.org/dc/dcmitype/StillImage" />
        <dc:title />
      </cc:Work>
    </rdf:RDF>
  </metadata>
  <sodipodi:namedview
     pagecolor="#ffffff"
     bordercolor="#666666"
     borderopacity="1"
     objecttolerance="10"
     gridtolerance="10"
     guidetolerance="10"
     inkscape:pageopacity="0"
     inkscape:pageshadow="2"
     inkscape:window-width="1366"
     inkscape:window-height="703"
     id="namedview8"
     showgrid="false"
     inkscape:zoom="10.727273"
     inkscape:cx="11"
     inkscape:cy="11"
     inkscape:window-x="0"
     inkscape:window-y="0"
     inkscape:window-maximized="1"
     inkscape:current-layer="svg6" />
  <defs
     id="defs3051">
    <style
       type="text/css"
       id="current-color-scheme">
     .ColorScheme-Text {
       color:#f2f2f2;
     }
     </style>
  </defs>
  <g
     id="g11"
     transform="matrix(1.875,0,0,2.3000013,-4.5826271,-31.749183)">
    <path
       inkscape:connector-curvature="0"
       id="path4"
       class="ColorScheme-Text"
       d="m 3,17.598877 c -7e-5,-0.41113 0.14791,-0.82218 0.44404,-1.1329 0.59211,-0.621459 1.56655,-0.621239 2.15899,3e-4 h 7e-5 l 5.39752,5.66523 5.39588,-5.66351 c 0.59206,-0.62147 1.56645,-0.62132 2.1588,2.3e-4 2e-5,2e-5 3e-5,3e-5 6e-5,7e-5 3e-5,2e-5 4e-5,3e-5 7e-5,6e-5 0.59268,0.62159 0.59274,1.64478 3e-4,2.26628 l -6.47509,6.7963 c -0.29601,0.31063 -0.68934,0.46913 -1.07939,0.46906 -0.38975,-7e-5 -0.78312,-0.15854 -1.07928,-0.46923 h -7e-5 L 3.4444,18.732127 C 3.14819,18.421227 3.00006,18.010027 3,17.598877 Z"
       style="color:#f2f2f2;fill:#1d99f3;fill-opacity:1;stroke:none" />
    <path
       inkscape:connector-curvature="0"
       style="color:#f2f2f2;fill:#1d99f3;fill-opacity:1;stroke:none"
       d="m 3,17.598877 c -7e-5,-0.41113 0.14791,-0.82218 0.44404,-1.1329 0.59211,-0.621459 1.56655,-0.621239 2.15899,3e-4 h 7e-5 l 5.39752,5.66523 5.39588,-5.66351 c 0.59206,-0.62147 1.56645,-0.62132 2.1588,2.3e-4 2e-5,2e-5 3e-5,3e-5 6e-5,7e-5 3e-5,2e-5 4e-5,3e-5 7e-5,6e-5 0.59268,0.62159 0.59274,1.64478 3e-4,2.26628 l -6.47509,6.7963 c -0.29601,0.31063 -0.68934,0.46913 -1.07939,0.46906 -0.38975,-7e-5 -0.78312,-0.15854 -1.07928,-0.46923 h -7e-5 L 3.4444,18.732127 C 3.14819,18.421227 3.00006,18.010027 3,17.598877 Z"
       class="ColorScheme-Text"
       id="path817" />
  </g>
</svg>
