<?xml version="1.0" encoding="UTF-8" standalone="no"?>
<svg
   xmlns:dc="http://purl.org/dc/elements/1.1/"
   xmlns:cc="http://creativecommons.org/ns#"
   xmlns:rdf="http://www.w3.org/1999/02/22-rdf-syntax-ns#"
   xmlns:svg="http://www.w3.org/2000/svg"
   xmlns="http://www.w3.org/2000/svg"
   xmlns:sodipodi="http://sodipodi.sourceforge.net/DTD/sodipodi-0.dtd"
   xmlns:inkscape="http://www.inkscape.org/namespaces/inkscape"
   viewBox="0 0 32 32"
   version="1.1"
   id="svg6"
   sodipodi:docname="go-top.svg"
   inkscape:version="0.92.4 5da689c313, 2019-01-14"
   width="32"
   height="32">
  <metadata
     id="metadata10">
    <rdf:RDF>
      <cc:Work
         rdf:about="">
        <dc:format>image/svg+xml</dc:format>
        <dc:type
           rdf:resource="http://purl.org/dc/dcmitype/StillImage" />
        <dc:title></dc:title>
      </cc:Work>
    </rdf:RDF>
  </metadata>
  <sodipodi:namedview
     pagecolor="#ffffff"
     bordercolor="#666666"
     borderopacity="1"
     objecttolerance="10"
     gridtolerance="10"
     guidetolerance="10"
     inkscape:pageopacity="0"
     inkscape:pageshadow="2"
     inkscape:window-width="1366"
     inkscape:window-height="703"
     id="namedview8"
     showgrid="false"
     inkscape:zoom="10.727273"
     inkscape:cx="11"
     inkscape:cy="11"
     inkscape:window-x="0"
     inkscape:window-y="0"
     inkscape:window-maximized="1"
     inkscape:current-layer="svg6" />
  <defs
     id="defs3051">
    <style
       type="text/css"
       id="current-color-scheme">
     .ColorScheme-Text {
       color:#f2f2f2;
     }
     </style>
  </defs>
  <g
     id="g16"
     transform="matrix(1.874961,0,0,1.7692411,-4.582365,-3.4616899)">
    <g
       id="g11">
      <path
         style="color:#f2f2f2;fill:#1d99f3;fill-opacity:1;stroke:none"
         d="m 17.874858,17.499962 c -0.28675,-0.001 -0.57299,-0.1139 -0.79102,-0.33612 l -6.06445,-6.18463 -6.1093703,6.14113 c -0.43901,0.44097 -1.14811,0.43851 -1.58399,-0.006 -0.43599,-0.44441 -0.43357,-1.16406 0.006,-1.60548 l 6.9043003,-6.93793 c 0.21952,-0.22058 0.50618,-0.3312 0.79297,-0.33019 0.28664,0.001 0.57296,0.1139 0.79101,0.33612 l 6.85352,6.98934 c 0.43578,0.44462 0.43335,1.16226 -0.006,1.6035 -0.21952,0.22048 -0.50622,0.33127 -0.79297,0.33019 z m -0.11914,-11.1177 -13.5390603,-0.0336 c -0.39067,-0.002 -0.7589,-0.14404 -0.98633,-0.37961 -0.22756,-0.23577 -0.29155,-0.54249 -0.16992,-0.81856 l 0.01,-0.0217 c 0.16703,-0.37905 0.63894,-0.63092 1.17383,-0.62874 l 13.5390603,0.0316 c 0.39047,0.002 0.75824,0.14365 0.98633,0.37962 0.22766,0.23579 0.2916,0.54241 0.16992,0.81856 l -0.01,0.0217 c -0.16703,0.37921 -0.63894,0.6329 -1.17383,0.63073 z"
         class="ColorScheme-Text"
         id="path4"
         inkscape:connector-curvature="0" />
      <path
         id="path817"
         class="ColorScheme-Text"
         d="m 17.874858,17.499962 c -0.28675,-0.001 -0.57299,-0.1139 -0.79102,-0.33612 l -6.06445,-6.18463 -6.1093703,6.14113 c -0.43901,0.44097 -1.14811,0.43851 -1.58399,-0.006 -0.43599,-0.44441 -0.43357,-1.16406 0.006,-1.60548 l 6.9043003,-6.93793 c 0.21952,-0.22058 0.50618,-0.3312 0.79297,-0.33019 0.28664,0.001 0.57296,0.1139 0.79101,0.33612 l 6.85352,6.98934 c 0.43578,0.44462 0.43335,1.16226 -0.006,1.6035 -0.21952,0.22048 -0.50622,0.33127 -0.79297,0.33019 z m -0.11914,-11.1177 -13.5390603,-0.0336 c -0.39067,-0.002 -0.7589,-0.14404 -0.98633,-0.37961 -0.22756,-0.23577 -0.29155,-0.54249 -0.16992,-0.81856 l 0.01,-0.0217 c 0.16703,-0.37905 0.63894,-0.63092 1.17383,-0.62874 l 13.5390603,0.0316 c 0.39047,0.002 0.75824,0.14365 0.98633,0.37962 0.22766,0.23579 0.2916,0.54241 0.16992,0.81856 l -0.01,0.0217 c -0.16703,0.37921 -0.63894,0.6329 -1.17383,0.63073 z"
         style="color:#f2f2f2;fill:#1d99f3;fill-opacity:1;stroke:none"
         inkscape:connector-curvature="0" />
    </g>
  </g>
</svg>
