<svg viewBox="0 0 32 32" xmlns="http://www.w3.org/2000/svg"><path d="m28.8 18.6c0 .1 0 .1 0 0 0 .2-.1.3-.2.5.1-.1.2-.3.2-.5" fill="#fff"/><path d="m26.4 17s.1 0 0 0z" fill="#733737"/><path d="m26.5 17s-.1 0 0 0c-.1 0 0 0 0 0" fill="#fff"/><path d="m5.6 9.1c-.2.2-.3.4-.3.7v1.8c0 .2.1.5.3.6.2.2.4.3.6.3h9.5c-.1 0-.2.1-.3.2l-9.9 9.9c-.2.2-.2.3-.2.4.1.1.2.2.4.2h20.5c.2 0 .4-.1.4-.2.1-.1 0-.3-.2-.4l-9.9-9.9c-.1-.1-.2-.1-.3-.2h9.5c.2 0 .5-.1.6-.3.2-.2.3-.4.3-.6v-1.8c0-.2-.1-.5-.3-.6s-.4-.3-.6-.3h-19.5c-.3 0-.5 0-.6.2z" fill="#375273"/></svg>