<?xml version="1.0" encoding="UTF-8" standalone="no"?>
<svg
   xmlns:dc="http://purl.org/dc/elements/1.1/"
   xmlns:cc="http://creativecommons.org/ns#"
   xmlns:rdf="http://www.w3.org/1999/02/22-rdf-syntax-ns#"
   xmlns:svg="http://www.w3.org/2000/svg"
   xmlns="http://www.w3.org/2000/svg"
   xmlns:sodipodi="http://sodipodi.sourceforge.net/DTD/sodipodi-0.dtd"
   xmlns:inkscape="http://www.inkscape.org/namespaces/inkscape"
   viewBox="0 0 22 22"
   version="1.1"
   id="svg6"
   sodipodi:docname="go-up.svg"
   inkscape:version="0.92.4 5da689c313, 2019-01-14">
  <metadata
     id="metadata10">
    <rdf:RDF>
      <cc:Work
         rdf:about="">
        <dc:format>image/svg+xml</dc:format>
        <dc:type
           rdf:resource="http://purl.org/dc/dcmitype/StillImage" />
      </cc:Work>
    </rdf:RDF>
  </metadata>
  <sodipodi:namedview
     pagecolor="#ffffff"
     bordercolor="#666666"
     borderopacity="1"
     objecttolerance="10"
     gridtolerance="10"
     guidetolerance="10"
     inkscape:pageopacity="0"
     inkscape:pageshadow="2"
     inkscape:window-width="1366"
     inkscape:window-height="703"
     id="namedview8"
     showgrid="false"
     inkscape:zoom="10.727273"
     inkscape:cx="11"
     inkscape:cy="11"
     inkscape:window-x="0"
     inkscape:window-y="0"
     inkscape:window-maximized="1"
     inkscape:current-layer="svg6" />
  <defs
     id="defs3051">
    <style
       type="text/css"
       id="current-color-scheme">
     .ColorScheme-Text {
       color:#f2f2f2;
     }
     </style>
  </defs>
  <path
     style="fill:#1d99f3;fill-opacity:1;stroke:none"
     d="m19 14.401123c.00007.41113-.14791.82218-.44404 1.1329-.59211.62146-1.56655.62124-2.15899-.0003h-.00007l-5.39752-5.6652305-5.39588 5.6635105c-.59206.62147-1.56645.62132-2.1588-.00023-.00002-.00002-.00003-.00003-.00006-.00007-.00003-.00002-.00004-.00003-.00007-.00006-.59268-.62159-.59274-1.64478-.0003-2.26628l6.47509-6.7963005c.29601-.31063.68934-.46913 1.07939-.46906.38975.00007.78312.15854 1.07928.46923h.00007l6.4775 6.7986405c.29621.3109.44434.7221.4444 1.13325z"
     class="ColorScheme-Text"
     id="path4" />
</svg>
