<?xml version="1.0" encoding="UTF-8" standalone="no"?>
<svg
   xmlns:dc="http://purl.org/dc/elements/1.1/"
   xmlns:cc="http://creativecommons.org/ns#"
   xmlns:rdf="http://www.w3.org/1999/02/22-rdf-syntax-ns#"
   xmlns:svg="http://www.w3.org/2000/svg"
   xmlns="http://www.w3.org/2000/svg"
   xmlns:sodipodi="http://sodipodi.sourceforge.net/DTD/sodipodi-0.dtd"
   xmlns:inkscape="http://www.inkscape.org/namespaces/inkscape"
   viewBox="0 0 32 32"
   version="1.1"
   id="svg6"
   sodipodi:docname="go-up.svg"
   inkscape:version="0.92.4 5da689c313, 2019-01-14"
   width="32"
   height="32">
  <metadata
     id="metadata10">
    <rdf:RDF>
      <cc:Work
         rdf:about="">
        <dc:format>image/svg+xml</dc:format>
        <dc:type
           rdf:resource="http://purl.org/dc/dcmitype/StillImage" />
        <dc:title></dc:title>
      </cc:Work>
    </rdf:RDF>
  </metadata>
  <sodipodi:namedview
     pagecolor="#ffffff"
     bordercolor="#666666"
     borderopacity="1"
     objecttolerance="10"
     gridtolerance="10"
     guidetolerance="10"
     inkscape:pageopacity="0"
     inkscape:pageshadow="2"
     inkscape:window-width="1366"
     inkscape:window-height="703"
     id="namedview8"
     showgrid="false"
     inkscape:zoom="10.727273"
     inkscape:cx="11"
     inkscape:cy="11"
     inkscape:window-x="0"
     inkscape:window-y="0"
     inkscape:window-maximized="1"
     inkscape:current-layer="svg6" />
  <defs
     id="defs3051">
    <style
       type="text/css"
       id="current-color-scheme">
     .ColorScheme-Text {
       color:#f2f2f2;
     }
     </style>
  </defs>
  <path
     style="color:#f2f2f2;fill:#1d99f3;fill-opacity:1;stroke:none;stroke-width:2.07665634"
     d="m 30.855932,24.09377 c 1.31e-4,0.945599 -0.277331,1.891015 -0.832575,2.605671 -1.110206,1.429359 -2.937281,1.428853 -4.048106,-6.9e-4 H 25.97512 L 15.85477,13.668717 5.7374948,26.694795 c -1.1101126,1.429382 -2.9370938,1.429037 -4.0477501,-5.29e-4 -3.75e-5,-4.6e-5 -5.62e-5,-6.9e-5 -1.125e-4,-1.61e-4 -5.62e-5,-4.6e-5 -7.5e-5,-6.9e-5 -1.312e-4,-1.38e-4 C 0.57822596,25.264309 0.57811346,22.910972 1.6889385,21.481521 L 13.829732,5.8500228 c 0.555019,-0.7144493 1.292513,-1.0789971 2.023857,-1.0788384 0.730781,1.633e-4 1.46835,0.3646421 2.02365,1.0792294 h 1.31e-4 L 30.022682,21.487294 c 0.555394,0.71507 0.833138,1.660831 0.83325,2.606476 z"
     class="ColorScheme-Text"
     id="path4"
     inkscape:connector-curvature="0" />
</svg>
