<svg viewBox="0 0 32 32" xmlns="http://www.w3.org/2000/svg"><path d="m8.8 3.9h-.5c-1.1 0-2 .9-2 2v20.3c0 1.1.9 2 2 2h.5zm14.9 0h-13.9v24.3h13.9c1.1 0 2-.9 2-2v-20.3c0-1.1-.9-2-2-2zm-4.5 18.9c0 .1 0 .2-.1.3s-.2.1-.3.1h-2.8c-.1 0-.2 0-.3-.1s-.1-.2-.1-.3v-2.7c0-.1 0-.2.1-.3s.2-.1.3-.1h2.7c.1 0 .2 0 .3.1s.1.2.1.3v2.7zm3.4-8.4c-.1.4-.2.6-.4.9-.1.2-.4.4-.6.7-.3.2-.5.4-.7.5s-.4.2-.7.4-.6.4-.8.7-.3.6-.3.8c0 .1 0 .3-.1.4s-.2.2-.3.2h-2.7c-.1 0-.2-.1-.3-.2s-.1-.3-.1-.4v-.5c0-.6.2-1.2.7-1.8s1-1 1.6-1.2c.4-.2.8-.4 1-.6s.3-.5.3-.9c0-.3-.2-.6-.5-.8-.4-.2-.8-.4-1.2-.4-.5 0-.9.1-1.2.3s-.7.6-1.2 1.3c-.1.1-.2.2-.4.2-.1 0-.2 0-.3-.1l-1.9-1.4c-.1-.1-.2-.2-.2-.3s0-.2.1-.3c1.2-2 3-3 5.2-3 .6 0 1.2.1 1.8.4.6.2 1.2.5 1.7.9s.9.9 1.2 1.4c.3.6.5 1.2.5 1.8-.1.3-.1.7-.2 1z" fill="#375273"/></svg>