<?xml version="1.0" encoding="UTF-8" standalone="no"?>
<svg
   xmlns:dc="http://purl.org/dc/elements/1.1/"
   xmlns:cc="http://creativecommons.org/ns#"
   xmlns:rdf="http://www.w3.org/1999/02/22-rdf-syntax-ns#"
   xmlns:svg="http://www.w3.org/2000/svg"
   xmlns="http://www.w3.org/2000/svg"
   xmlns:sodipodi="http://sodipodi.sourceforge.net/DTD/sodipodi-0.dtd"
   xmlns:inkscape="http://www.inkscape.org/namespaces/inkscape"
   height="24"
   viewBox="0 0 24 24"
   width="24"
   version="1.1"
   id="svg4"
   sodipodi:docname="help-contents.svg"
   inkscape:version="0.92.4 5da689c313, 2019-01-14">
  <metadata
     id="metadata10">
    <rdf:RDF>
      <cc:Work
         rdf:about="">
        <dc:format>image/svg+xml</dc:format>
        <dc:type
           rdf:resource="http://purl.org/dc/dcmitype/StillImage" />
      </cc:Work>
    </rdf:RDF>
  </metadata>
  <defs
     id="defs8" />
  <sodipodi:namedview
     pagecolor="#ffffff"
     bordercolor="#666666"
     borderopacity="1"
     objecttolerance="10"
     gridtolerance="10"
     guidetolerance="10"
     inkscape:pageopacity="0"
     inkscape:pageshadow="2"
     inkscape:window-width="1366"
     inkscape:window-height="703"
     id="namedview6"
     showgrid="false"
     inkscape:zoom="9.8333333"
     inkscape:cx="12"
     inkscape:cy="12"
     inkscape:window-x="0"
     inkscape:window-y="0"
     inkscape:window-maximized="1"
     inkscape:current-layer="svg4" />
  <path
     d="m 14.946305,11.420339 -0.878644,0.89817 c -0.695149,0.710596 -0.759854,1.318152 -1.142238,2.762847 -0.09247,0.349383 -1.813036,0.323746 -1.952542,0 -0.03699,-1.199302 0.429945,-2.517602 1.142237,-3.250983 l 1.210577,-1.230101 c 0.36122,-0.351458 0.576,-0.8395945 0.576,-1.3765432 0,-1.083661 -0.878645,-1.9525424 -1.952543,-1.9525424 -1.078359,0 -1.9525418,0.8741831 -1.9525418,1.9525424 H 8.0440678 c 0,-2.1567187 1.7483661,-3.9050847 3.9050842,-3.9050847 2.156719,0 3.905085,1.748366 3.905085,3.9050847 0,0.8591192 -0.351458,1.6303732 -0.907932,2.1966102 m -3.729356,5.61356 c 0.344532,-0.345799 1.118608,-0.344533 1.464407,0 0.347064,0.345794 0.346429,1.117977 0,1.464407 -0.345164,0.345164 -1.119243,0.345164 -1.464407,0 -0.345164,-0.345164 -0.344531,-1.118611 0,-1.464407 z M 11.949152,2.3898305 c -5.3917964,0 -9.7627113,4.3709149 -9.7627113,9.7627125 0,5.391796 4.3709149,9.762712 9.7627113,9.762712 5.391796,0 9.762712,-4.370916 9.762712,-9.762712 0,-5.3987803 -4.39322,-9.7627125 -9.762712,-9.7627125 z"
     id="path2"
     style="fill:#1d99f3;fill-opacity:1;stroke-width:0.97627115"
     inkscape:connector-curvature="0" />
</svg>
