<?xml version="1.0" encoding="UTF-8" standalone="no"?>
<svg
   xmlns:dc="http://purl.org/dc/elements/1.1/"
   xmlns:cc="http://creativecommons.org/ns#"
   xmlns:rdf="http://www.w3.org/1999/02/22-rdf-syntax-ns#"
   xmlns:svg="http://www.w3.org/2000/svg"
   xmlns="http://www.w3.org/2000/svg"
   xmlns:sodipodi="http://sodipodi.sourceforge.net/DTD/sodipodi-0.dtd"
   xmlns:inkscape="http://www.inkscape.org/namespaces/inkscape"
   viewBox="0 0 22 22"
   version="1.1"
   id="svg6"
   sodipodi:docname="help-faq.svg"
   inkscape:version="0.92.4 5da689c313, 2019-01-14">
  <metadata
     id="metadata10">
    <rdf:RDF>
      <cc:Work
         rdf:about="">
        <dc:format>image/svg+xml</dc:format>
        <dc:type
           rdf:resource="http://purl.org/dc/dcmitype/StillImage" />
      </cc:Work>
    </rdf:RDF>
  </metadata>
  <sodipodi:namedview
     pagecolor="#ffffff"
     bordercolor="#666666"
     borderopacity="1"
     objecttolerance="10"
     gridtolerance="10"
     guidetolerance="10"
     inkscape:pageopacity="0"
     inkscape:pageshadow="2"
     inkscape:window-width="1366"
     inkscape:window-height="703"
     id="namedview8"
     showgrid="false"
     inkscape:zoom="10.727273"
     inkscape:cx="11"
     inkscape:cy="11"
     inkscape:window-x="0"
     inkscape:window-y="0"
     inkscape:window-maximized="1"
     inkscape:current-layer="svg6" />
  <defs
     id="defs3051">
    <style
       type="text/css"
       id="current-color-scheme">
     .ColorScheme-Text {
       color:#f2f2f2;
     }
     </style>
  </defs>
  <path
     style="color:#f2f2f2;fill:#1d99f3;fill-opacity:1;stroke:none;stroke-width:1.07279277"
     d="M 11.04661,2.2542373 A 8.5127119,8.6525424 0 0 0 2.5338983,10.906779 8.5127119,8.6525424 0 0 0 11.04661,19.559322 8.5127119,8.6525424 0 0 0 19.559322,10.906779 8.5127119,8.6525424 0 0 0 11.04661,2.2542373 Z m -0.0064,3.7854873 c 0.813049,0 1.47343,0.237058 1.982703,0.7118955 0.509265,0.46604 0.764809,1.0636202 0.764809,1.7934557 0,0.3165598 -0.08587,0.6379227 -0.255629,0.9632725 -0.169757,0.325351 -0.321128,0.5585287 -0.455146,0.6992187 -0.125088,0.131901 -0.303904,0.304397 -0.536202,0.515432 l -0.06647,0.06547 c -0.545012,0.48363 -0.818852,0.967617 -0.818852,1.451244 v 0.525995 H 10.395988 V 12.14677 c 0,-0.395695 0.08587,-0.734702 0.255629,-1.016082 0.169757,-0.290178 0.468965,-0.629184 0.897828,-1.016083 0.241229,-0.2198327 0.410903,-0.3824567 0.509182,-0.4879747 0.107217,-0.114316 0.209306,-0.267063 0.307585,-0.4605118 0.107218,-0.2022456 0.16211,-0.4100223 0.16211,-0.6210578 0,-0.4044913 -0.135153,-0.7297338 -0.40319,-0.9759484 -0.259099,-0.2462081 -0.620272,-0.3696734 -1.084874,-0.3696734 -0.768372,0 -1.2956775,0.4233116 -1.5815839,1.2674612 L 8.3052655,7.9916008 C 8.4928856,7.4903806 8.8160069,7.0416749 9.2716711,6.645979 9.7362697,6.2414878 10.325541,6.039703 11.040311,6.039703 Z m -0.01455,7.9406544 c 0.259105,0 0.474512,0.08819 0.64427,0.264054 0.178696,0.175863 0.268101,0.385406 0.268101,0.631621 0,0.246208 -0.08942,0.457864 -0.268101,0.633726 -0.169711,0.175871 -0.385125,0.264054 -0.644225,0.264054 -0.259105,0 -0.478052,-0.08818 -0.656741,-0.264054 -0.169758,-0.175862 -0.253558,-0.387518 -0.253558,-0.633726 0,-0.246215 0.0838,-0.455758 0.253558,-0.631621 0.178689,-0.175863 0.397636,-0.264054 0.656741,-0.264054 z"
     class="ColorScheme-Text"
     id="path4"
     inkscape:connector-curvature="0" />
</svg>
