<?xml version="1.0" encoding="UTF-8" standalone="no"?>
<svg
   xmlns:dc="http://purl.org/dc/elements/1.1/"
   xmlns:cc="http://creativecommons.org/ns#"
   xmlns:rdf="http://www.w3.org/1999/02/22-rdf-syntax-ns#"
   xmlns:svg="http://www.w3.org/2000/svg"
   xmlns="http://www.w3.org/2000/svg"
   xmlns:sodipodi="http://sodipodi.sourceforge.net/DTD/sodipodi-0.dtd"
   xmlns:inkscape="http://www.inkscape.org/namespaces/inkscape"
   height="32"
   viewBox="0 0 32 32"
   width="32"
   version="1.1"
   id="svg4"
   sodipodi:docname="help-about.svg"
   inkscape:version="0.92.4 5da689c313, 2019-01-14">
  <metadata
     id="metadata10">
    <rdf:RDF>
      <cc:Work
         rdf:about="">
        <dc:format>image/svg+xml</dc:format>
        <dc:type
           rdf:resource="http://purl.org/dc/dcmitype/StillImage" />
        <dc:title></dc:title>
      </cc:Work>
    </rdf:RDF>
  </metadata>
  <defs
     id="defs8" />
  <sodipodi:namedview
     pagecolor="#ffffff"
     bordercolor="#666666"
     borderopacity="1"
     objecttolerance="10"
     gridtolerance="10"
     guidetolerance="10"
     inkscape:pageopacity="0"
     inkscape:pageshadow="2"
     inkscape:window-width="1366"
     inkscape:window-height="703"
     id="namedview6"
     showgrid="false"
     inkscape:zoom="9.8333333"
     inkscape:cx="12"
     inkscape:cy="12"
     inkscape:window-x="0"
     inkscape:window-y="0"
     inkscape:window-maximized="1"
     inkscape:current-layer="svg4" />
  <path
     d="m 20.179356,14.865254 -1.26,1.288001 c -0.996863,1.019014 -1.089651,1.890266 -1.638001,3.961999 -0.132604,0.501025 -2.599944,0.464261 -2.799999,0 -0.05305,-1.719833 0.616552,-3.610311 1.637999,-4.662 l 1.736001,-1.763999 c 0.518,-0.504 0.826,-1.204002 0.826,-1.974 0,-1.554 -1.260001,-2.8000014 -2.800001,-2.8000014 -1.546397,0 -2.799999,1.2536024 -2.799999,2.8000014 h -2.8 c 0,-3.0927949 2.507205,-5.6000005 5.599999,-5.6000005 3.092795,0 5.6,2.5072056 5.6,5.6000005 0,1.232 -0.504,2.338 -1.301999,3.149999 m -5.348001,8.050001 c 0.494069,-0.495885 1.604116,-0.49407 2.1,0 0.4977,0.495878 0.496789,1.60321 0,2.100001 -0.494974,0.494974 -1.605024,0.494974 -2.1,0 -0.494974,-0.494975 -0.494067,-1.60412 0,-2.100001 z m 1.05,-20.9999997 c -7.7319856,0 -13.9999991,6.2680126 -13.9999991,14.0000007 0,7.731984 6.2680135,13.999999 13.9999991,13.999999 7.731985,0 14,-6.268015 14,-13.999999 0,-7.7420016 -6.299999,-14.0000007 -14,-14.0000007 z"
     id="path2"
     style="fill:#1d99f3;fill-opacity:1;stroke-width:1.39999998"
     inkscape:connector-curvature="0" />
</svg>
