<svg viewBox="0 0 32 32" xmlns="http://www.w3.org/2000/svg"><path d="m28.8 18.6c0 .1 0 .1 0 0 0 .2-.1.3-.2.5.1-.1.2-.3.2-.5" fill="#fff"/><path d="m26.4 17s.1 0 0 0z" fill="#733737"/><path d="m26.5 17s-.1 0 0 0c-.1 0 0 0 0 0" fill="#fff"/><path d="m29.3 17.4c0 .6-.2 1.1-.6 1.7l-4.1 5.1c-.4.5-.9.9-1.6 1.2s-1.3.5-2 .5h-15.2c-.9 0-1.6-.3-2.2-.9s-.9-1.3-.9-2.2v-13.5c0-.9.3-1.6.9-2.2s1.4-.9 2.2-.9h4.5c.9 0 1.6.3 2.2.9s.9 1.3.9 2.2v.4h7.6c.9 0 1.6.3 2.2.9s.9 1.3.9 2.2v2.2h2.7c.5 0 1 .1 1.4.3s.7.6.9 1c.1.4.2.7.2 1.1zm-17.7-2.3h10.7v-2.2c0-.4-.1-.7-.4-.9-.3-.3-.6-.4-.9-.4h-8c-.4 0-.7-.1-.9-.4-.3-.3-.4-.6-.4-.9v-1c0-.4-.1-.7-.4-.9-.3-.3-.7-.4-1-.4h-4.5c-.4 0-.7.1-.9.4s-.4.5-.4.9v11.9l3.5-4.4c.4-.5.9-.9 1.6-1.2s1.4-.5 2-.5zm15.9 2.3c0-.3-.2-.5-.7-.5h-15.2c-.4 0-.8.1-1.2.3s-.8.4-1 .7l-4.1 5.1c-.2.2-.3.4-.3.6 0 .3.2.5.7.5h15.3c.4 0 .8-.1 1.2-.3s.8-.5 1-.7l4.1-5.1c.1-.3.2-.5.2-.6z" fill="#375273"/></svg>