<svg height="32" viewBox="0 0 32 32" width="32" xmlns="http://www.w3.org/2000/svg"><path d="m2.777778 1.9999999c-.430889 0-.777778.4459999-.777778.9999999v3.9218001 2.0782001 20.078199c0 .5114.319271.921801.717014.921801h26.565971c.397743 0 .717015-.4104.717015-.921801v-22.1563991c0-.5113999-.319272-.9217998-.717015-.9217998h-12.726246c-.886457.034-1.31646-.2642001-1.707424-.7362002l-1.848624-2.42c-.261411-.4404-.458691-.8438-.88958-.8438z" fill="#4285f4"/><path d="m11.5 10.898305v2.333333h7.875c1.889212 0 3.375 1.540817 3.375 3.5 0 1.959184-1.485788 3.5-3.375 3.5h-1.125v-2.333333l-5.625 3.499999 5.625 3.500001v-2.333333h1.125c3.094707.117755 5.625-2.62185 5.625-5.833334 0-3.211483-2.528213-5.833333-5.625-5.833333zm-2.2500001 8.166666a2.25 2.3333333 0 0 0 -2.25 2.333333 2.25 2.3333333 0 0 0 2.25 2.333334 2.25 2.3333333 0 0 0 2.2500001-2.333334 2.25 2.3333333 0 0 0 -2.2500001-2.333333z" fill="#fff" stroke-width="1.527525"/></svg>