<?xml version="1.0" encoding="UTF-8" standalone="no"?>
<svg
   xmlns:dc="http://purl.org/dc/elements/1.1/"
   xmlns:cc="http://creativecommons.org/ns#"
   xmlns:rdf="http://www.w3.org/1999/02/22-rdf-syntax-ns#"
   xmlns:svg="http://www.w3.org/2000/svg"
   xmlns="http://www.w3.org/2000/svg"
   xmlns:sodipodi="http://sodipodi.sourceforge.net/DTD/sodipodi-0.dtd"
   xmlns:inkscape="http://www.inkscape.org/namespaces/inkscape"
   viewBox="0 0 16 16"
   version="1.1"
   id="svg4"
   sodipodi:docname="insert-link.svg"
   inkscape:version="0.92.4 5da689c313, 2019-01-14">
  <metadata
     id="metadata10">
    <rdf:RDF>
      <cc:Work
         rdf:about="">
        <dc:format>image/svg+xml</dc:format>
        <dc:type
           rdf:resource="http://purl.org/dc/dcmitype/StillImage" />
      </cc:Work>
    </rdf:RDF>
  </metadata>
  <defs
     id="defs8" />
  <sodipodi:namedview
     pagecolor="#ffffff"
     bordercolor="#666666"
     borderopacity="1"
     objecttolerance="10"
     gridtolerance="10"
     guidetolerance="10"
     inkscape:pageopacity="0"
     inkscape:pageshadow="2"
     inkscape:window-width="1366"
     inkscape:window-height="703"
     id="namedview6"
     showgrid="false"
     inkscape:zoom="14.75"
     inkscape:cx="10.610169"
     inkscape:cy="8"
     inkscape:window-x="0"
     inkscape:window-y="0"
     inkscape:window-maximized="1"
     inkscape:current-layer="svg4" />
  <path
     d="M 5.7500001,2 C 3.6725,2 2,3.6714797 2,5.7477125 2,7.8239453 3.6725,9.495425 5.7500001,9.495425 h 1.5 V 7.99634 h -1.5 C 4.5035,7.99634 3.5,6.9934521 3.5,5.7477125 3.5,4.5019727 4.5035,3.499085 5.7500001,3.499085 h 1.5 V 2 Z m 3,0 V 3.499085 H 10.25 c 1.2465,0 2.250001,1.0028877 2.250001,2.2486275 C 12.500001,6.9934521 11.4965,7.99634 10.25,7.99634 H 8.7500001 V 9.495425 H 10.25 C 12.3275,9.495425 14,7.8239453 14,5.7477125 14,3.6714797 12.3275,2 10.25,2 Z m -3,2.9981699 v 1.499085 H 10.25 v -1.499085 z"
     id="path2"
     inkscape:connector-curvature="0"
     style="fill:#1d99f3;fill-opacity:1"
     sodipodi:nodetypes="sssccsssccsccsssccssscccccc" />
  <path
     inkscape:connector-curvature="0"
     style="fill:#1a1a1a;fill-opacity:1;stroke:none"
     d="m 14.711864,0.84745759 c -20.7457627,8.70056511 -10.3728805,4.35028251 0,0 z m -3,9.00000011 V 11.847458 H 9.7118645 v 1 h 1.9999995 v 2 h 1 v -2 h 2 v -1 h -2 V 9.8474577 Z"
     class="ColorScheme-Text"
     id="path4"
     sodipodi:nodetypes="ccccccccccccccc" />
</svg>
