<svg viewBox="0 0 32 32" xmlns="http://www.w3.org/2000/svg"><path d="m28.5 20.1c0 1.1-.4 2.1-1.2 2.8l-2.1 2c-.8.8-1.7 1.2-2.8 1.2s-2.1-.4-2.8-1.2l-2.9-2.9c-.8-.8-1.2-1.7-1.2-2.8s.4-2.1 1.2-2.9l-1.2-1.3c-.8.8-1.8 1.2-2.9 1.2s-2.1-.4-2.8-1.2l-2.9-2.9c-.8-.8-1.2-1.7-1.2-2.8s.4-2.1 1.2-2.8l2.1-2c.8-.8 1.7-1.2 2.8-1.2s2.1.4 2.8 1.2l2.9 2.9c.8.8 1.2 1.7 1.2 2.8s-.4 2.1-1.2 2.9l1.2 1.2c.8-.8 1.8-1.2 2.9-1.2s2.1.4 2.8 1.2l2.9 2.9c.8.8 1.2 1.8 1.2 2.9zm-12.5-9.9c0-.4-.1-.7-.4-.9l-2.9-2.9c-.2-.3-.6-.4-.9-.4-.4 0-.7.1-.9.4l-2.1 2c-.3.3-.4.6-.4 1s.1.7.4.9l2.9 2.9c.3.3.6.4.9.4.4 0 .7-.1 1-.4l-.3-.3-.3-.3c-.1-.1-.1-.1-.2-.3-.1-.1-.1-.2-.2-.4v-.4c0-.4.1-.7.4-.9.3-.3.6-.4.9-.4h.4c.1 0 .2.1.4.2.1.1.2.2.3.2l.3.3.3.3c.2-.2.4-.6.4-1zm9.8 9.9c0-.4-.1-.7-.4-.9l-2.9-2.9c-.3-.3-.6-.4-.9-.4-.4 0-.7.1-1 .4l.3.3.3.3c.1.1.1.1.2.3.1.1.1.2.2.4s0 .2 0 .4c0 .4-.1.7-.4.9s-.6.4-.9.4h-.4c-.1 0-.2-.1-.4-.2-.1-.1-.2-.2-.3-.2l-.3-.3-.3-.3c-.3.3-.5.6-.5 1s.1.7.4.9l2.9 2.9c.3.3.6.4.9.4.4 0 .7-.1.9-.4l2.1-2c.4-.4.5-.7.5-1z" fill="#375273"/><path d="m9.2 29.2c-.4 0-.7-.2-1-.4-.2-.2-.4-.6-.4-1v-3.5h-3.4c-.4 0-.7-.2-1-.4-.2-.2-.4-.6-.4-.9v-1.9c0-.4.2-.7.4-1 .2-.2.6-.4 1-.4h3.4v-3.5c0-.4.2-.7.4-1 .2-.2.6-.4 1-.4h1.9c.4 0 .7.2 1 .4.2.2.4.6.4 1v3.5h3.4c.3 0 .7.1.9.3.4.2.6.6.6 1v2c0 .4-.2.7-.4 1-.2.2-.6.4-1 .4h-3.6v3.5c0 .4-.2.7-.4 1-.2.2-.6.4-1 .4h-1.8z" fill="#427337"/><path d="m11.1 15.5c.2 0 .5.1.6.2s.2.4.2.6v4h4c.2 0 .5.1.6.2.2.1.4.4.4.6v1.9c0 .2-.1.5-.2.6s-.4.2-.6.2h-4.1v4c0 .2-.1.5-.2.6s-.4.2-.6.2h-2c-.2 0-.5-.1-.6-.2s-.2-.4-.2-.6v-4h-4c-.2 0-.5-.1-.6-.2s-.2-.4-.2-.6v-1.9c0-.2.1-.5.2-.6s.4-.2.6-.2h4v-4c0-.2.1-.5.2-.6s.4-.2.6-.2zm0-1h-1.9c-.5 0-1 .2-1.3.5s-.5.8-.5 1.3v3h-3c-.5 0-1 .2-1.3.5s-.5.8-.5 1.3v1.9c0 .5.2 1 .5 1.3s.8.5 1.3.5h3v3c0 .5.2 1 .5 1.3s.8.5 1.3.5h1.9c.5 0 1-.2 1.3-.5s.5-.8.5-1.3v-3h3.1c.5 0 1-.2 1.3-.5s.5-.8.5-1.3v-1.9c0-.6-.3-1.1-.8-1.4-.3-.3-.8-.4-1.2-.4h-3v-3c0-.5-.2-1-.5-1.3s-.8-.5-1.2-.5z" fill="#fff"/></svg>