<?xml version="1.0" encoding="UTF-8" standalone="no"?>
<svg
   xmlns:dc="http://purl.org/dc/elements/1.1/"
   xmlns:cc="http://creativecommons.org/ns#"
   xmlns:rdf="http://www.w3.org/1999/02/22-rdf-syntax-ns#"
   xmlns:svg="http://www.w3.org/2000/svg"
   xmlns="http://www.w3.org/2000/svg"
   xmlns:sodipodi="http://sodipodi.sourceforge.net/DTD/sodipodi-0.dtd"
   xmlns:inkscape="http://www.inkscape.org/namespaces/inkscape"
   viewBox="0 0 32 32"
   version="1.1"
   id="svg4"
   sodipodi:docname="insert-link.svg"
   inkscape:version="0.92.4 5da689c313, 2019-01-14"
   width="32"
   height="32">
  <metadata
     id="metadata10">
    <rdf:RDF>
      <cc:Work
         rdf:about="">
        <dc:format>image/svg+xml</dc:format>
        <dc:type
           rdf:resource="http://purl.org/dc/dcmitype/StillImage" />
        <dc:title />
      </cc:Work>
    </rdf:RDF>
  </metadata>
  <defs
     id="defs8" />
  <sodipodi:namedview
     pagecolor="#ffffff"
     bordercolor="#666666"
     borderopacity="1"
     objecttolerance="10"
     gridtolerance="10"
     guidetolerance="10"
     inkscape:pageopacity="0"
     inkscape:pageshadow="2"
     inkscape:window-width="1366"
     inkscape:window-height="703"
     id="namedview6"
     showgrid="false"
     inkscape:zoom="7.375"
     inkscape:cx="10.610169"
     inkscape:cy="8"
     inkscape:window-x="0"
     inkscape:window-y="0"
     inkscape:window-maximized="1"
     inkscape:current-layer="svg4" />
  <g
     id="g821">
    <path
       sodipodi:nodetypes="sssccsssccsccsssccssscccccc"
       style="fill:#1d99f3;fill-opacity:1;stroke-width:2.09888864"
       inkscape:connector-curvature="0"
       id="path2"
       d="m 10.192204,4.3389834 c -4.5760406,0 -8.2600007,3.3429592 -8.2600007,7.4954246 0,4.152465 3.6839601,7.495425 8.2600007,7.495425 h 3.304 v -2.99817 h -3.304 c -2.7456246,0 -4.9560007,-2.005776 -4.9560007,-4.497255 0,-2.4914795 2.2103761,-4.4972548 4.9560007,-4.4972548 h 3.304 V 4.3389834 Z m 6.608,0 v 2.9981698 h 3.304 c 2.745624,0 4.956002,2.0057753 4.956002,4.4972548 0,2.491479 -2.210378,4.497255 -4.956002,4.497255 h -3.304 v 2.99817 h 3.304 c 4.57604,0 8.26,-3.34296 8.26,-7.495425 0,-4.1524654 -3.68396,-7.4954246 -8.26,-7.4954246 z m -6.608,5.9963396 v 2.99817 h 9.912 v -2.99817 z" />
    <path
       sodipodi:nodetypes="ccccccccccccccc"
       id="path4"
       class="ColorScheme-Text"
       d="m 29.932203,2.0338987 c -45.696001,17.4011293 -22.8479986,8.7005643 0,0 z m -6.608,17.9999993 v 4 H 18.91887 v 2 h 4.405333 v 4 h 2.202666 v -4 h 4.405334 v -2 h -4.405334 v -4 z"
       style="fill:#f47750;fill-opacity:1;stroke:none;stroke-width:2.09888864"
       inkscape:connector-curvature="0" />
  </g>
</svg>
