<?xml version="1.0" encoding="utf-8"?>
<!-- Generator: Adobe Illustrator 22.1.0, SVG Export Plug-In . SVG Version: 6.00 Build 0)  -->
<svg version="1.1" id="Layer_1" xmlns="http://www.w3.org/2000/svg" xmlns:xlink="http://www.w3.org/1999/xlink" x="0px" y="0px"
	 viewBox="0 0 32 32" style="enable-background:new 0 0 32 32;" xml:space="preserve">
<style type="text/css">
	.st0{fill:#733737;}
</style>
<path class="st0" d="M29.52496,10.79864c0-1.77153,0.00484-3.54224-0.00241-5.31377
	c-0.00483-1.10318-0.80283-1.94465-1.88184-1.95351c-1.85124-0.01611-3.70329-0.01771-5.55453,0.00161
	c-0.75451,0.00805-1.34153,0.38088-1.65799,1.06775c-0.14092,0.3076-0.19809,0.67801-0.20131,1.02104
	c-0.03301,3.21934-0.01369,6.43869-0.08133,9.65723c-0.02657,1.25134-0.53145,2.36177-1.47037,3.24028
	c-1.74415,1.63222-4.56409,1.33106-5.93058-0.63372c-0.71828-1.03393-0.96709-2.19991-0.97031-3.42951
	c-0.00805-2.97858,0-5.95716-0.00403-8.93573c-0.00161-1.14183-0.7988-1.9833-1.90761-1.99055
	C8.03153,3.51686,6.19961,3.50881,4.36849,3.54183C4.01822,3.54746,3.63975,3.69643,3.32973,3.876
	C2.68232,4.25043,2.47538,4.89624,2.47377,5.60323c-0.00161,0.94455,0.04429,1.8899,0.04268,2.83525
	c-0.00161,1.06453-0.04429,2.12986-0.04751,3.19438c-0.00241,0.79316,0.07006,1.58874,0.03704,2.37949
	c-0.04671,1.08707-0.08052,2.17092,0.08374,3.24994c0.38088,2.50751,1.42044,4.70823,3.13641,6.57397
	c1.41481,1.53881,3.09534,2.70721,5.0255,3.52533c2.46645,1.0452,5.01503,1.40111,7.64655,0.88737
	c3.1042-0.60554,5.75343-2.06222,7.88973-4.41754c2.11053-2.32794,3.18472-5.06737,3.23223-8.20297
	C29.54509,14.01879,29.52416,12.40831,29.52496,10.79864z M4.77916,5.45185c0.78431,0.0153,1.56941,0.00484,2.35372,0.00484
	s1.56941,0.00724,2.35371-0.00322c0.25526-0.00403,0.35914,0.07811,0.35753,0.34545C9.83526,7.18714,9.83526,8.57537,9.84331,9.9628
	c0.00161,0.25365-0.09743,0.32934-0.33981,0.32854c-1.56861-0.00725-3.13802-0.00644-4.70743,0
	c-0.23915,0.00081-0.34142-0.07006-0.34303-0.32531C4.44419,8.58906,4.42808,7.2113,4.40071,5.83434
	C4.39426,5.54607,4.48847,5.44622,4.77916,5.45185z M27.53683,9.97085c-0.00242,0.2319-0.08213,0.32129-0.31807,0.32048
	c-1.58954-0.00644-3.17828-0.00644-4.76782-0.00081c-0.21983,0.00081-0.30358-0.08294-0.30277-0.30277
	c0.00483-1.40836,0.00564-2.81592,0-4.22428c-0.00161-0.24318,0.1079-0.31083,0.33015-0.30921
	c0.79477,0.00725,1.58954,0.00322,2.38431,0.00322c0.77464-0.0008,1.54928,0.00966,2.32311-0.00564
	c0.29391-0.00644,0.41228,0.07247,0.40504,0.38813C27.56018,7.21694,27.54729,8.59389,27.53683,9.97085z"/>
</svg>
