<svg xmlns="http://www.w3.org/2000/svg" viewBox="0 0 32 32">
  <path d="M29.525 10.799c0-1.772.005-3.543-.002-5.314-.005-1.103-.803-1.945-1.882-1.954a290.277 290.277 0 0 0-5.555.002c-.754.008-1.341.38-1.658 1.068-.14.307-.198.678-.201 1.02-.033 3.22-.014 6.44-.081 9.658-.027 1.251-.532 2.362-1.47 3.24-1.745 1.632-4.565 1.331-5.931-.633-.719-1.034-.967-2.2-.97-3.43-.009-2.979 0-5.957-.005-8.936-.001-1.142-.799-1.983-1.907-1.99a218.825 218.825 0 0 0-5.495.012c-.35.005-.728.154-1.038.334-.648.374-.855 1.02-.856 1.727-.002.945.044 1.89.042 2.835-.001 1.065-.044 2.13-.047 3.195-.002.793.07 1.589.037 2.38-.047 1.086-.08 2.17.084 3.25.38 2.507 1.42 4.708 3.136 6.573a14.344 14.344 0 0 0 5.026 3.526c2.466 1.045 5.015 1.4 7.646.887 3.104-.606 5.754-2.062 7.89-4.418 2.11-2.328 3.185-5.067 3.232-8.203.025-1.61.004-3.22.005-4.83zM4.779 5.452c.784.015 1.57.005 2.354.005s1.57.007 2.354-.004c.255-.004.359.079.357.346a341.774 341.774 0 0 0 0 4.164c0 .253-.098.33-.34.328a539.567 539.567 0 0 0-4.708 0c-.24.001-.341-.07-.343-.325a307.326 307.326 0 0 0-.052-4.132c-.007-.288.087-.388.378-.382zM27.537 9.97c-.003.232-.082.321-.318.32-1.59-.006-3.179-.006-4.768 0-.22 0-.304-.083-.303-.303a540.93 540.93 0 0 0 0-4.225c-.001-.243.108-.31.33-.309.795.008 1.59.003 2.385.003.774 0 1.549.01 2.323-.005.294-.007.412.072.405.388-.03 1.377-.044 2.754-.054 4.13z" fill="#733737"/>
</svg>
