<?xml version="1.0" encoding="UTF-8" standalone="no"?>
<svg
   xmlns:dc="http://purl.org/dc/elements/1.1/"
   xmlns:cc="http://creativecommons.org/ns#"
   xmlns:rdf="http://www.w3.org/1999/02/22-rdf-syntax-ns#"
   xmlns:svg="http://www.w3.org/2000/svg"
   xmlns="http://www.w3.org/2000/svg"
   xmlns:sodipodi="http://sodipodi.sourceforge.net/DTD/sodipodi-0.dtd"
   xmlns:inkscape="http://www.inkscape.org/namespaces/inkscape"
   viewBox="0 0 32 32"
   version="1.1"
   id="svg6"
   sodipodi:docname="kt-magnet.svg"
   inkscape:version="0.92.4 5da689c313, 2019-01-14"
   width="32"
   height="32">
  <metadata
     id="metadata10">
    <rdf:RDF>
      <cc:Work
         rdf:about="">
        <dc:format>image/svg+xml</dc:format>
        <dc:type
           rdf:resource="http://purl.org/dc/dcmitype/StillImage" />
        <dc:title></dc:title>
      </cc:Work>
    </rdf:RDF>
  </metadata>
  <sodipodi:namedview
     pagecolor="#ffffff"
     bordercolor="#666666"
     borderopacity="1"
     objecttolerance="10"
     gridtolerance="10"
     guidetolerance="10"
     inkscape:pageopacity="0"
     inkscape:pageshadow="2"
     inkscape:window-width="1366"
     inkscape:window-height="703"
     id="namedview8"
     showgrid="false"
     inkscape:zoom="7.5853273"
     inkscape:cx="11"
     inkscape:cy="11"
     inkscape:window-x="0"
     inkscape:window-y="0"
     inkscape:window-maximized="1"
     inkscape:current-layer="svg6" />
  <defs
     id="defs3051">
    <style
       type="text/css"
       id="current-color-scheme">
     .ColorScheme-Text {
       color:#f2f2f2;
     }
     </style>
  </defs>
  <path
     style="color:#f2f2f2;fill:#f47750;fill-opacity:1;stroke:none;stroke-width:1.81289601"
     d="m 19.790617,28.558208 c -0.04883,0.491585 0.370145,0.92845 0.93117,0.972039 l 6.804001,0.520865 c 0.561023,0.04391 1.060243,-0.32391 1.109756,-0.815182 l 0.530974,-5.22835 -8.843902,-0.678363 z M 3.0244199,24.00758 3.5560784,29.23593 c 0.048829,0.491272 0.5487316,0.859091 1.1097561,0.815182 l 6.8040005,-0.520865 c 0.559658,-0.04359 0.978975,-0.480454 0.93117,-0.972039 L 11.869347,23.329217 Z M 2.1478833,15.390596 2.6962734,20.784085 11.540859,20.106042 10.99281,14.718279 c -0.01264,-0.1295 -0.01946,-0.263772 -0.01946,-0.396135 0,-2.474495 2.297707,-4.4879455 5.12195,-4.4879455 2.824244,0 5.121953,2.0137685 5.121953,4.4879455 0,0.13237 -0.0068,0.266635 -0.01946,0.396453 l -0.54805,5.387445 8.844586,0.678043 0.548049,-5.393489 c 0.03482,-0.356363 0.05292,-0.713999 0.05292,-1.068452 0,-6.7648512 -6.280537,-12.2674757 -14,-12.2674757 -7.7194635,0 -14.0000004,5.5026245 -14.0000004,12.2674757 0,0.354453 0.018104,0.712089 0.052586,1.068452 z"
     class="ColorScheme-Text"
     id="path4"
     inkscape:connector-curvature="0" />
</svg>
