<?xml version="1.0" encoding="UTF-8" standalone="no"?>
<svg
   xmlns:dc="http://purl.org/dc/elements/1.1/"
   xmlns:cc="http://creativecommons.org/ns#"
   xmlns:rdf="http://www.w3.org/1999/02/22-rdf-syntax-ns#"
   xmlns:svg="http://www.w3.org/2000/svg"
   xmlns="http://www.w3.org/2000/svg"
   xmlns:sodipodi="http://sodipodi.sourceforge.net/DTD/sodipodi-0.dtd"
   xmlns:inkscape="http://www.inkscape.org/namespaces/inkscape"
   viewBox="0 0 22 22"
   version="1.1"
   id="svg6"
   sodipodi:docname="kt-magnet.svg"
   inkscape:version="0.92.4 5da689c313, 2019-01-14">
  <metadata
     id="metadata10">
    <rdf:RDF>
      <cc:Work
         rdf:about="">
        <dc:format>image/svg+xml</dc:format>
        <dc:type
           rdf:resource="http://purl.org/dc/dcmitype/StillImage" />
      </cc:Work>
    </rdf:RDF>
  </metadata>
  <sodipodi:namedview
     pagecolor="#ffffff"
     bordercolor="#666666"
     borderopacity="1"
     objecttolerance="10"
     gridtolerance="10"
     guidetolerance="10"
     inkscape:pageopacity="0"
     inkscape:pageshadow="2"
     inkscape:window-width="1366"
     inkscape:window-height="703"
     id="namedview8"
     showgrid="false"
     inkscape:zoom="10.727273"
     inkscape:cx="11"
     inkscape:cy="11"
     inkscape:window-x="0"
     inkscape:window-y="0"
     inkscape:window-maximized="1"
     inkscape:current-layer="svg6" />
  <defs
     id="defs3051">
    <style
       type="text/css"
       id="current-color-scheme">
     .ColorScheme-Text {
       color:#f2f2f2;
     }
     </style>
  </defs>
  <path
     style="fill:#f47750;fill-opacity:1;stroke:none"
     d="m12.967631 18.14488c-.026.280906.19709.530543.495817.555451l3.622902.297637c.298726.02509.564544-.185091.590908-.465818l.282726-2.987629-4.709081-.387636zm-8.927437-2.600359.2830903 2.987629c.026.280727.2921812.490909.5909079.465818l3.6229017-.297637c.2979994-.024908.5212717-.274545.4958172-.555451l-.2830904-2.987995zm-.4667263-4.923991.2919993 3.081994 4.709445-.387453-.2918176-3.078722c-.00673-.074-.010364-.150727-.010364-.226363 0-1.4139973 1.223452-2.5645403 2.7272666-2.5645403 1.503815 0 2.727268 1.150725 2.727268 2.5645403 0 .07564-.0036.152363-.01036.226545l-.291818 3.07854 4.709445.387453.291818-3.081994c.01854-.203636.02818-.407999.02818-.610544 0-3.8656293-3.344175-7.0099863-7.45453-7.0099863-4.1103552 0-7.4545303 3.144357-7.4545303 7.0099863 0 .202545.00964.406908.028.610544z"
     class="ColorScheme-Text"
     id="path4" />
</svg>
