<?xml version="1.0" encoding="utf-8"?>
<!-- Generator: Adobe Illustrator 22.1.0, SVG Export Plug-In . SVG Version: 6.00 Build 0)  -->
<svg version="1.1" id="Layer_1" xmlns="http://www.w3.org/2000/svg" xmlns:xlink="http://www.w3.org/1999/xlink" x="0px" y="0px"
	 viewBox="0 0 32 32" style="enable-background:new 0 0 32 32;" xml:space="preserve">
<style type="text/css">
	.st0{fill:#D1954E;}
</style>
<g>
	<g>
		<path class="st0" d="M20.35652,22.70098c-0.00005,1.87213-0.03014,3.74495,0.01249,5.61611
			c0.02172,0.95323-0.68474,1.66495-1.65072,1.64124c-1.81361-0.04452-3.62978-0.04258-5.44351-0.00062
			c-0.94308,0.02182-1.63802-0.68973-1.63069-1.62574c0.02968-3.78997,0.0124-7.58031,0.0121-11.37052
			c-0.00004-0.52629-0.00094-0.52698-0.53736-0.52708c-1.86065-0.00035-3.72148-0.01551-5.58184,0.00776
			c-0.69151,0.00865-1.18496-0.26276-1.47176-0.86571C3.76139,14.93765,3.97822,14.37,4.40989,13.8621
			c0.0371-0.04364,0.0796-0.08275,0.12019-0.12336c3.42639-3.42785,6.8537-6.85478,10.278-10.2847
			c0.35813-0.35872,0.76032-0.56891,1.28501-0.55004c0.43756,0.01574,0.77053,0.22104,1.05908,0.50831
			c1.82321,1.81518,3.64321,3.63361,5.45751,5.4577c1.6762,1.68524,3.34648,3.3764,5.01424,5.07
			c0.77104,0.78299,0.52472,1.98675-0.4938,2.39964c-0.18417,0.07466-0.40237,0.08991-0.60501,0.09062
			c-1.89508,0.00656-3.79019,0.00353-5.68529,0.00431c-0.48087,0.0002-0.48273,0.00191-0.48292,0.47774
			C20.35611,18.84186,20.35657,20.77142,20.35652,22.70098z"/>
	</g>
	<path class="st0" d="M26.57572,2.0411H5.43002c-0.82545,0-1.50082,0.67537-1.50082,1.50082v0
		c0,0.82545,0.67537,1.50082,1.50082,1.50082h21.1457c0.82545,0,1.50082-0.67537,1.50082-1.50082v0
		C28.07654,2.71647,27.40117,2.0411,26.57572,2.0411z"/>
</g>
</svg>
