<?xml version="1.0" encoding="UTF-8" standalone="no"?>
<svg
   xmlns:dc="http://purl.org/dc/elements/1.1/"
   xmlns:cc="http://creativecommons.org/ns#"
   xmlns:rdf="http://www.w3.org/1999/02/22-rdf-syntax-ns#"
   xmlns:svg="http://www.w3.org/2000/svg"
   xmlns="http://www.w3.org/2000/svg"
   xmlns:sodipodi="http://sodipodi.sourceforge.net/DTD/sodipodi-0.dtd"
   xmlns:inkscape="http://www.inkscape.org/namespaces/inkscape"
   viewBox="0 0 22 22"
   version="1.1"
   id="svg6"
   sodipodi:docname="kt-set-max-download-speed.svg"
   inkscape:version="0.92.4 5da689c313, 2019-01-14">
  <metadata
     id="metadata10">
    <rdf:RDF>
      <cc:Work
         rdf:about="">
        <dc:format>image/svg+xml</dc:format>
        <dc:type
           rdf:resource="http://purl.org/dc/dcmitype/StillImage" />
      </cc:Work>
    </rdf:RDF>
  </metadata>
  <sodipodi:namedview
     pagecolor="#ffffff"
     bordercolor="#666666"
     borderopacity="1"
     objecttolerance="10"
     gridtolerance="10"
     guidetolerance="10"
     inkscape:pageopacity="0"
     inkscape:pageshadow="2"
     inkscape:window-width="1366"
     inkscape:window-height="703"
     id="namedview8"
     showgrid="false"
     inkscape:zoom="10.727273"
     inkscape:cx="-6.0593218"
     inkscape:cy="11"
     inkscape:window-x="0"
     inkscape:window-y="0"
     inkscape:window-maximized="1"
     inkscape:current-layer="svg6" />
  <defs
     id="defs3051">
    <style
       type="text/css"
       id="current-color-scheme">
     .ColorScheme-Text {
       color:#f2f2f2;
     }
     </style>
  </defs>
  <path
     style="color:#f2f2f2;fill:#1ea95d;fill-opacity:1;stroke:none"
     d="m 16.998179,11.412901 c -0.43656,-0.4381 -1.144838,-0.4381 -1.58192,0 l -4.416054,4.8801 -4.4160765,-4.8801 c -0.437072,-0.4381 -1.144827,-0.4381 -1.5818987,0 -0.4370824,0.4381 -0.4370824,1.1478 0,1.5859 l 5.1369702,5.6773 c 0.236459,0.2367 0.551361,0.3411 0.861004,0.3216 0.309101,0.019 0.624544,-0.085 0.860983,-0.3216 l 5.136992,-5.6773 c 0.436537,-0.4381 0.436537,-1.1478 0,-1.5859 z m -6.00456,-4.7221999 c 1.017909,0 1.843089,-0.8262 1.843089,-1.8454 0,-1.0191 -0.82518,-1.8453 -1.84309,-1.8453 -1.0179105,0 -1.8431005,0.8262 -1.8431005,1.8453 0,1.0192 0.82519,1.8454 1.8431015,1.8454 z m 0,5.2722999 c 1.017909,0 1.843089,-0.8262 1.843089,-1.8453 0,-1.0191999 -0.82518,-1.8452999 -1.84309,-1.8452999 -1.0179105,0 -1.8431005,0.8261 -1.8431005,1.8452999 0,1.0191 0.82519,1.8453 1.8431015,1.8453 z"
     class="ColorScheme-Text"
     id="path4"
     inkscape:connector-curvature="0" />
</svg>
