<?xml version="1.0" encoding="UTF-8" standalone="no"?>
<svg
   xmlns:dc="http://purl.org/dc/elements/1.1/"
   xmlns:cc="http://creativecommons.org/ns#"
   xmlns:rdf="http://www.w3.org/1999/02/22-rdf-syntax-ns#"
   xmlns:svg="http://www.w3.org/2000/svg"
   xmlns="http://www.w3.org/2000/svg"
   xmlns:sodipodi="http://sodipodi.sourceforge.net/DTD/sodipodi-0.dtd"
   xmlns:inkscape="http://www.inkscape.org/namespaces/inkscape"
   viewBox="0 0 22 22"
   version="1.1"
   id="svg6"
   sodipodi:docname="kt-set-max-upload-speed.svg"
   inkscape:version="0.92.4 5da689c313, 2019-01-14">
  <metadata
     id="metadata10">
    <rdf:RDF>
      <cc:Work
         rdf:about="">
        <dc:format>image/svg+xml</dc:format>
        <dc:type
           rdf:resource="http://purl.org/dc/dcmitype/StillImage" />
      </cc:Work>
    </rdf:RDF>
  </metadata>
  <sodipodi:namedview
     pagecolor="#ffffff"
     bordercolor="#666666"
     borderopacity="1"
     objecttolerance="10"
     gridtolerance="10"
     guidetolerance="10"
     inkscape:pageopacity="0"
     inkscape:pageshadow="2"
     inkscape:window-width="1366"
     inkscape:window-height="703"
     id="namedview8"
     showgrid="false"
     inkscape:zoom="10.727273"
     inkscape:cx="11"
     inkscape:cy="11"
     inkscape:window-x="0"
     inkscape:window-y="0"
     inkscape:window-maximized="1"
     inkscape:current-layer="svg6" />
  <defs
     id="defs3051">
    <style
       type="text/css"
       id="current-color-scheme">
     .ColorScheme-Text {
       color:#f2f2f2;
     }
     </style>
  </defs>
  <path
     style="fill:#1d99f3;fill-opacity:1;stroke:none"
     d="m16.998179 10.587099c-.43656.4381-1.144838.4381-1.58192 0l-4.416054-4.8801002-4.4160765 4.8801002c-.437072.4381-1.144827.4381-1.5818987 0-.4370824-.4381-.4370824-1.1478002 0-1.5859002l5.1369702-5.6773c.236459-.2367.551361-.3411.861004-.3216.309101-.019.624544.085.860983.3216l5.136992 5.6773c.436537.4381.436537 1.1478002 0 1.5859002zm-6.00456 4.7222c1.017909 0 1.843089.8262 1.843089 1.8454 0 1.0191-.82518 1.8453-1.84309 1.8453-1.0179105 0-1.8431005-.8262-1.8431005-1.8453 0-1.0192.82519-1.8454 1.8431005-1.8454zm0-5.2723c1.017909 0 1.843089.8262 1.843089 1.8453 0 1.0192-.82518 1.8453-1.84309 1.8453-1.0179105 0-1.8431005-.8261-1.8431005-1.8453 0-1.0191.82519-1.8453 1.8431005-1.8453z"
     class="ColorScheme-Text"
     id="path4" />
</svg>
