<svg xmlns="http://www.w3.org/2000/svg" viewBox="0 0 32 32">
  <path d="M11.643 9.299c0-1.872.03-3.745-.012-5.616-.022-.953.685-1.665 1.65-1.641 1.814.044 3.63.042 5.444 0 .943-.022 1.638.69 1.63 1.626-.029 3.79-.011 7.58-.011 11.37 0 .527 0 .528.537.528 1.86 0 3.722.015 5.582-.008.692-.009 1.185.263 1.472.866.304.638.087 1.206-.345 1.714-.037.044-.08.083-.12.123-3.426 3.428-6.854 6.855-10.278 10.285-.358.359-.76.569-1.285.55-.438-.016-.77-.221-1.06-.508A1427.6 1427.6 0 0 1 4.376 18.06c-.77-.783-.524-1.987.495-2.4.184-.074.402-.09.605-.09 1.895-.007 3.79-.004 5.685-.005.481 0 .483-.001.483-.477V9.299z" fill="#427337"/>
  <path d="M5.424 29.959H26.57c.825 0 1.5-.675 1.5-1.5 0-.826-.675-1.502-1.5-1.502H5.424c-.825 0-1.5.676-1.5 1.501 0 .826.675 1.5 1.5 1.5z" fill="#427337"/>
</svg>
