<?xml version="1.0" encoding="utf-8"?>
<!-- Generator: Adobe Illustrator 22.1.0, SVG Export Plug-In . SVG Version: 6.00 Build 0)  -->
<svg version="1.1" id="Layer_1" xmlns="http://www.w3.org/2000/svg" xmlns:xlink="http://www.w3.org/1999/xlink" x="0px" y="0px"
	 viewBox="0 0 32 32" style="enable-background:new 0 0 32 32;" xml:space="preserve">
<style type="text/css">
	.st0{fill:#427337;}
</style>
<g>
	<g>
		<path class="st0" d="M11.64348,9.29902c0.00005-1.87213,0.03014-3.74495-0.01249-5.61611
			c-0.02172-0.95323,0.68474-1.66495,1.65072-1.64124c1.81361,0.04452,3.62978,0.04258,5.44351,0.00062
			c0.94308-0.02182,1.63802,0.68973,1.63069,1.62574c-0.02968,3.78997-0.0124,7.58031-0.01211,11.37052
			c0.00004,0.52629,0.00094,0.52698,0.53736,0.52708c1.86065,0.00035,3.72148,0.01551,5.58184-0.00776
			c0.69151-0.00865,1.18496,0.26276,1.47176,0.86571c0.30384,0.63877,0.08701,1.20641-0.34466,1.71431
			c-0.0371,0.04365-0.0796,0.08275-0.12019,0.12336c-3.42639,3.42785-6.8537,6.85478-10.278,10.2847
			c-0.35813,0.35872-0.76032,0.56891-1.28501,0.55004c-0.43756-0.01574-0.77053-0.22104-1.05908-0.50831
			c-1.82321-1.81518-3.64321-3.63361-5.45751-5.4577c-1.6762-1.68524-3.34648-3.3764-5.01424-5.06999
			c-0.77104-0.78299-0.52472-1.98675,0.4938-2.39964c0.18417-0.07466,0.40237-0.08991,0.60501-0.09062
			c1.89508-0.00656,3.79019-0.00353,5.68529-0.00431c0.48087-0.0002,0.48273-0.00191,0.48292-0.47774
			C11.64389,13.15814,11.64343,11.22858,11.64348,9.29902z"/>
	</g>
	<path class="st0" d="M5.42428,29.9589h21.1457c0.82545,0,1.50082-0.67537,1.50082-1.50082v0
		c0-0.82545-0.67537-1.50082-1.50082-1.50082H5.42428c-0.82545,0-1.50082,0.67537-1.50082,1.50082v0
		C3.92346,29.28353,4.59883,29.9589,5.42428,29.9589z"/>
</g>
</svg>
