<?xml version="1.0" encoding="utf-8"?>
<!-- Generator: Adobe Illustrator 22.1.0, SVG Export Plug-In . SVG Version: 6.00 Build 0)  -->
<svg version="1.1" id="Layer_1" xmlns="http://www.w3.org/2000/svg" xmlns:xlink="http://www.w3.org/1999/xlink" x="0px" y="0px"
	 viewBox="0 0 32 32" style="enable-background:new 0 0 32 32;" xml:space="preserve">
<style type="text/css">
	.st0{fill:#733737;}
</style>
<g>
	<path class="st0" d="M16.00219,10.04511c2.72612-0.00007,5.45223-0.00024,8.17834,0.00006
		c0.61021,0.00007,0.74826,0.13863,0.74828,0.75104c0.00019,4.93887-0.01225,9.87779,0.01002,14.81656
		c0.0047,1.04211-0.71671,2.01923-1.73816,2.24834c-0.12809,0.02873-0.26248,0.04121-0.39396,0.04127
		c-4.54057,0.00205-9.08115,0.00405-13.62171-0.00001c-1.11631-0.001-2.1124-0.99507-2.11332-2.11002
		C7.0675,20.75612,7.06906,15.71989,7.07002,10.68366c0.00009-0.46362,0.17748-0.63758,0.64762-0.63781
		C10.47916,10.0445,13.24067,10.04519,16.00219,10.04511z M10.79837,18.97645c0,1.65403-0.00169,3.30807,0.00088,4.9621
		c0.00096,0.61567,0.25673,0.94654,0.72567,0.9569c0.4779,0.01056,0.74892-0.32981,0.74926-0.9599
		c0.0018-3.30806,0.00212-6.61613-0.00282-9.92418c-0.00026-0.17349-0.03315-0.35351-0.08676-0.51884
		c-0.08511-0.26247-0.35262-0.43181-0.63614-0.43807c-0.28652-0.00632-0.57607,0.16991-0.66006,0.44101
		c-0.05652,0.18245-0.08565,0.38065-0.08641,0.57197C10.79548,15.70376,10.79826,17.34011,10.79837,18.97645z M15.26058,18.98158
		c0,1.62749-0.0022,3.25499,0.00306,4.88246c0.00059,0.18333,0.01982,0.37345,0.07137,0.54834
		c0.10677,0.36221,0.47484,0.54971,0.84029,0.45361c0.37621-0.09893,0.55993-0.37364,0.56036-0.88257
		c0.00282-3.33458,0.00211-6.66917-0.00078-10.00375c-0.00011-0.1309-0.02115-0.2652-0.05478-0.39198
		c-0.08749-0.3299-0.34738-0.52912-0.67446-0.53322c-0.32254-0.00404-0.59901,0.19604-0.68299,0.52076
		c-0.04148,0.16041-0.05909,0.3312-0.05952,0.49737C15.25892,15.70891,15.26059,17.34525,15.26058,18.98158z M21.19969,19.00326
		c0-1.66288,0.00167-3.32576-0.00085-4.98863c-0.00096-0.63095-0.27052-0.97049-0.74899-0.96017
		c-0.46969,0.01014-0.7256,0.34013-0.72594,0.95664c-0.00184,3.30806-0.00238,6.61613,0.00317,9.92418
		c0.00031,0.18169,0.03709,0.37094,0.09628,0.54313c0.08848,0.25738,0.37346,0.4344,0.64926,0.41385
		c0.27795-0.0207,0.53164-0.11978,0.62504-0.4106c0.06101-0.18998,0.09692-0.39657,0.09785-0.59593
		C21.20309,22.25826,21.19978,20.63075,21.19969,19.00326z"/>
	<path class="st0" d="M16.00307,8.5681c-3.22201-0.00001-6.44402,0.00012-9.66603-0.00012
		C5.72122,8.56793,5.58244,8.43077,5.58175,7.8238c-0.00041-0.36292,0.02718-0.72834-0.006-1.08819
		c-0.05461-0.59234,0.56856-1.174,1.15323-1.16303c1.60159,0.03004,3.20415,0.00474,4.80623,0.01562
		c0.25807,0.00175,0.40942-0.07525,0.50878-0.31549c0.09765-0.2361,0.2219-0.46342,0.35494-0.68214
		c0.19313-0.3175,0.48923-0.49014,0.85998-0.49126c1.82342-0.00555,3.64687-0.00473,5.47031-0.00129
		c0.45802,0.00086,0.75456,0.26336,0.96247,0.6441c0.10176,0.18634,0.20498,0.37378,0.28379,0.57024
		c0.08621,0.2149,0.22946,0.27544,0.45267,0.27438c1.59326-0.00763,3.18721,0.02198,4.77958-0.01648
		c0.6566-0.01586,1.27964,0.57051,1.21527,1.21047c-0.03702,0.36805-0.00542,0.74287-0.00702,1.11463
		c-0.00217,0.50387-0.16696,0.67183-0.66722,0.67214c-2.01818,0.00125-4.03637,0.00058-6.05455,0.0006
		C18.46384,8.56811,17.23346,8.5681,16.00307,8.5681z"/>
</g>
</svg>
