<?xml version="1.0" encoding="UTF-8" standalone="no"?>
<svg
   xmlns:dc="http://purl.org/dc/elements/1.1/"
   xmlns:cc="http://creativecommons.org/ns#"
   xmlns:rdf="http://www.w3.org/1999/02/22-rdf-syntax-ns#"
   xmlns:svg="http://www.w3.org/2000/svg"
   xmlns="http://www.w3.org/2000/svg"
   xmlns:sodipodi="http://sodipodi.sourceforge.net/DTD/sodipodi-0.dtd"
   xmlns:inkscape="http://www.inkscape.org/namespaces/inkscape"
   viewBox="0 0 32 32"
   version="1.1"
   id="svg6"
   sodipodi:docname="list-add.svg"
   inkscape:version="0.92.4 5da689c313, 2019-01-14"
   width="32"
   height="32">
  <metadata
     id="metadata10">
    <rdf:RDF>
      <cc:Work
         rdf:about="">
        <dc:format>image/svg+xml</dc:format>
        <dc:type
           rdf:resource="http://purl.org/dc/dcmitype/StillImage" />
        <dc:title></dc:title>
      </cc:Work>
    </rdf:RDF>
  </metadata>
  <sodipodi:namedview
     pagecolor="#ffffff"
     bordercolor="#666666"
     borderopacity="1"
     objecttolerance="10"
     gridtolerance="10"
     guidetolerance="10"
     inkscape:pageopacity="0"
     inkscape:pageshadow="2"
     inkscape:window-width="1366"
     inkscape:window-height="703"
     id="namedview8"
     showgrid="false"
     inkscape:zoom="10.727273"
     inkscape:cx="11"
     inkscape:cy="11"
     inkscape:window-x="0"
     inkscape:window-y="0"
     inkscape:window-maximized="1"
     inkscape:current-layer="svg6" />
  <defs
     id="defs3051">
    <style
       type="text/css"
       id="current-color-scheme">
     .ColorScheme-Text {
       color:#f2f2f2;
     }
     </style>
  </defs>
  <path
     style="color:#f2f2f2;fill:#1d99f3;fill-opacity:1;stroke:none;stroke-width:1.79049718"
     d="M 26.190693,2.2256826 15.236162,3.2067551 H 3.9310305 C 2.5339369,3.1078217 1.9669426,3.2312843 1.9669426,4.4407854 V 27.692527 c -0.087753,1.32728 0.4910618,1.298979 1.8496056,1.298979 H 15.357799 l 10.92591,1.220358 c 0.843322,0 1.125729,-0.275839 1.216373,-0.799898 h 0.99099 c 0.224774,0 0.413278,0.0089 0.608186,-0.02051 0.19491,-0.02526 0.429476,-0.09827 0.593877,-0.276886 0.164398,-0.178622 0.22113,-0.395843 0.246853,-0.622144 0.02514,-0.221249 0.02129,-0.477809 0.0071,-0.806735 V 27.665172 4.430523 c 0,-0.6132223 0.04814,-0.9984244 -0.246853,-1.3673468 -0.147486,-0.1844091 -0.394974,-0.2826015 -0.60461,-0.3076539 -0.193821,-0.023153 -0.384229,-0.010283 -0.60461,0.017104 h -0.96231 C 27.403494,2.3246508 27.087043,2.1602432 26.190693,2.2256886 Z m 2.801237,1.3570936 c 0.01125,0.00892 0.05004,0.026888 0,0.020506 -0.01813,-0.014215 0.06082,0.2486886 0.06082,0.8306626 v 23.2585762 0.01028 c 0.01433,0.323662 0.01248,0.55909 -0.0037,0.700765 -0.01611,0.141685 -0.04683,0.17019 -0.02862,0.150411 0.01813,-0.02001 0.04943,-0.01762 -0.03934,-0.01028 -0.08878,0.01149 -0.260526,0.01028 -0.490127,0.01028 H 27.53575 c -0.0049,-0.09402 -5.7e-4,-0.163923 -0.0071,-0.266631 L 27.62167,3.6921912 c -3e-6,-0.027493 -0.0035,-0.041739 -0.0037,-0.06837 h 0.897972 0.02147 c 0.222894,-0.023153 0.383468,-0.027886 0.450774,-0.020506 h 0.0037 c 4.47e-4,3.478e-4 -5.7e-4,-0.021217 0,-0.020506 z M 13.762202,10.084511 h 2.561543 v 4.901941 h 5.130239 v 2.447552 h -5.130239 v 4.901939 H 13.762202 V 17.434004 H 8.6319616 v -2.447552 h 5.1302404 z"
     class="ColorScheme-Text"
     id="path4"
     inkscape:connector-curvature="0" />
</svg>
