<svg xmlns="http://www.w3.org/2000/svg" viewBox="0 0 32 32">
  <path d="M16.002 10.045h8.179c.61 0 .748.139.748.751 0 4.94-.012 9.878.01 14.817.005 1.042-.717 2.019-1.738 2.248a1.817 1.817 0 0 1-.394.041c-4.54.002-9.081.004-13.622 0-1.116 0-2.112-.995-2.113-2.11-.005-5.036-.003-10.072-.002-15.108 0-.464.178-.638.648-.638 2.761-.002 5.523 0 8.284 0zm-5.204 8.931c0 1.654-.001 3.309.001 4.963.001.615.257.946.726.956.478.011.749-.33.75-.96.001-3.308.001-6.616-.004-9.924a1.72 1.72 0 0 0-.086-.518c-.086-.263-.353-.432-.637-.439-.286-.006-.576.17-.66.441a2.017 2.017 0 0 0-.086.572c-.007 1.637-.004 3.273-.004 4.91zm4.463.006c0 1.627-.003 3.255.003 4.882 0 .183.02.373.071.548.107.363.475.55.84.454.377-.099.56-.374.56-.883.003-3.334.003-6.669 0-10.003 0-.131-.021-.266-.055-.392a.685.685 0 0 0-.674-.534.682.682 0 0 0-.683.521 1.98 1.98 0 0 0-.06.498c-.004 1.636-.002 3.272-.002 4.909zm5.939.021c0-1.663.001-3.325-.001-4.988-.001-.631-.27-.97-.75-.96-.469.01-.725.34-.725.956a4689.8 4689.8 0 0 0 .003 9.924c0 .182.037.371.096.543a.653.653 0 0 0 .65.414c.278-.02.531-.12.625-.41a2.01 2.01 0 0 0 .098-.596c.007-1.628.004-3.255.004-4.883zM16.003 8.568H6.337c-.616 0-.755-.137-.755-.744 0-.363.027-.729-.006-1.088-.055-.593.568-1.174 1.153-1.163 1.602.03 3.204.004 4.806.015.258.002.41-.075.509-.315.098-.236.222-.464.355-.682a.97.97 0 0 1 .86-.492c1.823-.005 3.647-.004 5.47-.001.458 0 .755.263.963.644.101.186.205.374.283.57.087.215.23.276.453.275 1.593-.008 3.187.022 4.78-.017.656-.016 1.28.57 1.215 1.21-.037.369-.005.744-.007 1.115-.002.504-.167.672-.667.673h-9.745z" fill="#733737"/>
</svg>
