<?xml version="1.0" encoding="UTF-8" standalone="no"?>
<svg
   xmlns:dc="http://purl.org/dc/elements/1.1/"
   xmlns:cc="http://creativecommons.org/ns#"
   xmlns:rdf="http://www.w3.org/1999/02/22-rdf-syntax-ns#"
   xmlns:svg="http://www.w3.org/2000/svg"
   xmlns="http://www.w3.org/2000/svg"
   xmlns:sodipodi="http://sodipodi.sourceforge.net/DTD/sodipodi-0.dtd"
   xmlns:inkscape="http://www.inkscape.org/namespaces/inkscape"
   viewBox="0 0 32 32"
   version="1.1"
   id="svg6"
   sodipodi:docname="mail-folder-inbox.svg"
   inkscape:version="0.92.4 5da689c313, 2019-01-14"
   width="32"
   height="32">
  <metadata
     id="metadata10">
    <rdf:RDF>
      <cc:Work
         rdf:about="">
        <dc:format>image/svg+xml</dc:format>
        <dc:type
           rdf:resource="http://purl.org/dc/dcmitype/StillImage" />
        <dc:title></dc:title>
      </cc:Work>
    </rdf:RDF>
  </metadata>
  <sodipodi:namedview
     pagecolor="#ffffff"
     bordercolor="#666666"
     borderopacity="1"
     objecttolerance="10"
     gridtolerance="10"
     guidetolerance="10"
     inkscape:pageopacity="0"
     inkscape:pageshadow="2"
     inkscape:window-width="1366"
     inkscape:window-height="703"
     id="namedview8"
     showgrid="false"
     inkscape:zoom="7.375"
     inkscape:cx="8"
     inkscape:cy="8"
     inkscape:window-x="0"
     inkscape:window-y="0"
     inkscape:window-maximized="1"
     inkscape:current-layer="svg6" />
  <defs
     id="defs3051">
    <style
       type="text/css"
       id="current-color-scheme">
      .ColorScheme-Text {
        color:#f2f2f2;
      }
      </style>
  </defs>
  <path
     style="color:#f2f2f2;fill:#1d99f3;fill-opacity:1;stroke:none;stroke-width:1.75"
     class="ColorScheme-Text"
     d="m 5.1450093,2.0338982 c -1.7266666,0 -3.111111,1.4000002 -3.111111,3.1111111 V 26.922787 a 3.1111112,3.1111113 0 0 0 3.111111,3.111111 H 26.922786 a 3.1111112,3.1111113 0 0 0 3.111112,-3.111111 V 5.1450093 A 3.1111112,3.1111113 0 0 0 26.922786,2.0338982 Z m 0,3.1111111 H 26.922786 V 20.700565 h -6.222221 a 4.6666667,4.6666669 0 0 1 -4.666667,4.666666 4.6666667,4.6666669 0 0 1 -4.666667,-4.666666 H 5.1450093 Z M 12.922787,8.2561204 V 12.922787 H 9.811676 l 6.222222,6.222222 6.222223,-6.222222 H 19.145008 V 8.2561204 Z"
     id="path4"
     inkscape:connector-curvature="0" />
</svg>
