<?xml version="1.0" encoding="UTF-8" standalone="no"?>
<svg
   xmlns:dc="http://purl.org/dc/elements/1.1/"
   xmlns:cc="http://creativecommons.org/ns#"
   xmlns:rdf="http://www.w3.org/1999/02/22-rdf-syntax-ns#"
   xmlns:svg="http://www.w3.org/2000/svg"
   xmlns="http://www.w3.org/2000/svg"
   xmlns:sodipodi="http://sodipodi.sourceforge.net/DTD/sodipodi-0.dtd"
   xmlns:inkscape="http://www.inkscape.org/namespaces/inkscape"
   viewBox="0 0 32 32"
   version="1.1"
   id="svg6"
   sodipodi:docname="mail-mark-read.svg"
   inkscape:version="0.92.4 5da689c313, 2019-01-14">
  <metadata
     id="metadata12">
    <rdf:RDF>
      <cc:Work
         rdf:about="">
        <dc:format>image/svg+xml</dc:format>
        <dc:type
           rdf:resource="http://purl.org/dc/dcmitype/StillImage" />
      </cc:Work>
    </rdf:RDF>
  </metadata>
  <defs
     id="defs10" />
  <sodipodi:namedview
     pagecolor="#ffffff"
     bordercolor="#666666"
     borderopacity="1"
     objecttolerance="10"
     gridtolerance="10"
     guidetolerance="10"
     inkscape:pageopacity="0"
     inkscape:pageshadow="2"
     inkscape:window-width="1366"
     inkscape:window-height="703"
     id="namedview8"
     showgrid="false"
     inkscape:zoom="7.375"
     inkscape:cx="16"
     inkscape:cy="16"
     inkscape:window-x="0"
     inkscape:window-y="0"
     inkscape:window-maximized="1"
     inkscape:current-layer="svg6" />
  <path
     fill="#427337"
     d="M31 19.3c0 .3-.1.5-.3.6l-6.8 6.8-1.2 1.3c-.2.2-.4.3-.6.3-.3 0-.5-.1-.6-.3l-1.3-1.3-3.4-3.4c-.2-.2-.3-.4-.3-.7 0-.3.1-.5.3-.6l1.3-1.3c.2-.2.4-.3.6-.3.3 0 .5.1.6.3l2.8 2.8 6.1-6.1c.2-.2.4-.3.6-.3.3 0 .5.1.6.3l1.3 1.3c.2.1.3.3.3.6z"
     id="path2"
     style="fill:#2ecc71;fill-opacity:1" />
  <path
     d="M16.1 24c-.3-.3-.5-.6-.6-1H5.7c-.1 0-.2 0-.3-.1-.1-.1-.1-.2-.1-.3V11.9c.3.3.6.6 1 .9 2.5 1.9 4.5 3.5 5.9 4.7.5.4.9.7 1.2.9.3.2.7.4 1.2.7.5.2 1 .3 1.4.3.4 0 .9-.1 1.4-.3s.9-.5 1.2-.7c.3-.2.7-.5 1.2-.9 1.5-1.2 3.5-2.8 5.9-4.7.3-.3.7-.6 1-.9v5.5l.7-.7c.3-.3.7-.5 1.1-.5V7.4c0-.6-.2-1.1-.7-1.6-.4-.4-1-.7-1.6-.7H5.7c-.6 0-1.1.2-1.6.7-.4.4-.7 1-.7 1.6v15.2c0 .6.2 1.1.7 1.6.4.4 1 .7 1.6.7h11.1l-.7-.9zM5.4 7.1c.1-.1.2-.1.3-.1h20.7c.1 0 .1.1.1.1l.1.1V8c0 .5-.2 1.2-.6 1.8-.4.7-.9 1.2-1.4 1.6-1.8 1.4-3.7 2.9-5.6 4.4-.1 0-.2.2-.5.4s-.5.4-.6.5c-.2.1-.4.3-.6.4-.3.2-.5.3-.7.4-.2.1-.4.1-.6.1-.2 0-.4 0-.6-.1-.2-.1-.4-.2-.7-.4-.3-.2-.5-.3-.6-.4-.2-.1-.4-.3-.6-.5-.3-.2-.4-.4-.5-.4-1.9-1.5-3.8-3-5.6-4.4C6 10.3 5.3 9 5.3 7.4c0-.1 0-.2.1-.3z"
     id="path4"
     fill="#375273"
     style="fill:#1d99f3;fill-opacity:1" />
</svg>
