<?xml version="1.0" encoding="UTF-8" standalone="no"?>
<svg
   xmlns:dc="http://purl.org/dc/elements/1.1/"
   xmlns:cc="http://creativecommons.org/ns#"
   xmlns:rdf="http://www.w3.org/1999/02/22-rdf-syntax-ns#"
   xmlns:svg="http://www.w3.org/2000/svg"
   xmlns="http://www.w3.org/2000/svg"
   xmlns:sodipodi="http://sodipodi.sourceforge.net/DTD/sodipodi-0.dtd"
   xmlns:inkscape="http://www.inkscape.org/namespaces/inkscape"
   viewBox="0 0 32 32"
   version="1.1"
   id="svg6"
   sodipodi:docname="mail-mark-read.svg"
   inkscape:version="0.92.4 5da689c313, 2019-01-14">
  <metadata
     id="metadata12">
    <rdf:RDF>
      <cc:Work
         rdf:about="">
        <dc:format>image/svg+xml</dc:format>
        <dc:type
           rdf:resource="http://purl.org/dc/dcmitype/StillImage" />
      </cc:Work>
    </rdf:RDF>
  </metadata>
  <defs
     id="defs10" />
  <sodipodi:namedview
     pagecolor="#ffffff"
     bordercolor="#666666"
     borderopacity="1"
     objecttolerance="10"
     gridtolerance="10"
     guidetolerance="10"
     inkscape:pageopacity="0"
     inkscape:pageshadow="2"
     inkscape:window-width="1366"
     inkscape:window-height="703"
     id="namedview8"
     showgrid="false"
     inkscape:zoom="7.375"
     inkscape:cx="16"
     inkscape:cy="16"
     inkscape:window-x="0"
     inkscape:window-y="0"
     inkscape:window-maximized="1"
     inkscape:current-layer="svg6" />
  <g
     id="g10"
     transform="matrix(1.0687792,0,0,1.0409117,-1.8609679,-1.2933957)">
    <path
       style="fill:#2ecc71;fill-opacity:1"
       id="path2"
       d="m 31,19.3 c 0,0.3 -0.1,0.5 -0.3,0.6 l -6.8,6.8 -1.2,1.3 c -0.2,0.2 -0.4,0.3 -0.6,0.3 -0.3,0 -0.5,-0.1 -0.6,-0.3 l -1.3,-1.3 -3.4,-3.4 c -0.2,-0.2 -0.3,-0.4 -0.3,-0.7 0,-0.3 0.1,-0.5 0.3,-0.6 l 1.3,-1.3 c 0.2,-0.2 0.4,-0.3 0.6,-0.3 0.3,0 0.5,0.1 0.6,0.3 l 2.8,2.8 6.1,-6.1 c 0.2,-0.2 0.4,-0.3 0.6,-0.3 0.3,0 0.5,0.1 0.6,0.3 l 1.3,1.3 c 0.2,0.1 0.3,0.3 0.3,0.6 z"
       inkscape:connector-curvature="0" />
    <path
       style="fill:#1d99f3;fill-opacity:1"
       id="path4"
       d="M 16.1,24 C 15.8,23.7 15.6,23.4 15.5,23 H 5.7 C 5.6,23 5.5,23 5.4,22.9 5.3,22.8 5.3,22.7 5.3,22.6 V 11.9 c 0.3,0.3 0.6,0.6 1,0.9 2.5,1.9 4.5,3.5 5.9,4.7 0.5,0.4 0.9,0.7 1.2,0.9 0.3,0.2 0.7,0.4 1.2,0.7 0.5,0.2 1,0.3 1.4,0.3 0.4,0 0.9,-0.1 1.4,-0.3 0.5,-0.2 0.9,-0.5 1.2,-0.7 0.3,-0.2 0.7,-0.5 1.2,-0.9 1.5,-1.2 3.5,-2.8 5.9,-4.7 0.3,-0.3 0.7,-0.6 1,-0.9 v 5.5 l 0.7,-0.7 c 0.3,-0.3 0.7,-0.5 1.1,-0.5 V 7.4 C 28.5,6.8 28.3,6.3 27.8,5.8 27.4,5.4 26.8,5.1 26.2,5.1 H 5.7 C 5.1,5.1 4.6,5.3 4.1,5.8 3.7,6.2 3.4,6.8 3.4,7.4 v 15.2 c 0,0.6 0.2,1.1 0.7,1.6 0.4,0.4 1,0.7 1.6,0.7 H 16.8 Z M 5.4,7.1 C 5.5,7 5.6,7 5.7,7 h 20.7 c 0.1,0 0.1,0.1 0.1,0.1 l 0.1,0.1 V 8 c 0,0.5 -0.2,1.2 -0.6,1.8 -0.4,0.7 -0.9,1.2 -1.4,1.6 -1.8,1.4 -3.7,2.9 -5.6,4.4 -0.1,0 -0.2,0.2 -0.5,0.4 -0.3,0.2 -0.5,0.4 -0.6,0.5 -0.2,0.1 -0.4,0.3 -0.6,0.4 -0.3,0.2 -0.5,0.3 -0.7,0.4 -0.2,0.1 -0.4,0.1 -0.6,0.1 -0.2,0 -0.4,0 -0.6,-0.1 C 15.2,17.4 15,17.3 14.7,17.1 14.4,16.9 14.2,16.8 14.1,16.7 13.9,16.6 13.7,16.4 13.5,16.2 13.2,16 13.1,15.8 13,15.8 11.1,14.3 9.2,12.8 7.4,11.4 6,10.3 5.3,9 5.3,7.4 5.3,7.3 5.3,7.2 5.4,7.1 Z"
       inkscape:connector-curvature="0" />
  </g>
</svg>
