<?xml version="1.0" encoding="UTF-8" standalone="no"?>
<svg
   xmlns:dc="http://purl.org/dc/elements/1.1/"
   xmlns:cc="http://creativecommons.org/ns#"
   xmlns:rdf="http://www.w3.org/1999/02/22-rdf-syntax-ns#"
   xmlns:svg="http://www.w3.org/2000/svg"
   xmlns="http://www.w3.org/2000/svg"
   xmlns:sodipodi="http://sodipodi.sourceforge.net/DTD/sodipodi-0.dtd"
   xmlns:inkscape="http://www.inkscape.org/namespaces/inkscape"
   viewBox="0 0 16 16"
   version="1.1"
   id="svg6"
   sodipodi:docname="mail-folder-inbox.svg"
   inkscape:version="0.92.4 5da689c313, 2019-01-14">
  <metadata
     id="metadata10">
    <rdf:RDF>
      <cc:Work
         rdf:about="">
        <dc:format>image/svg+xml</dc:format>
        <dc:type
           rdf:resource="http://purl.org/dc/dcmitype/StillImage" />
      </cc:Work>
    </rdf:RDF>
  </metadata>
  <sodipodi:namedview
     pagecolor="#ffffff"
     bordercolor="#666666"
     borderopacity="1"
     objecttolerance="10"
     gridtolerance="10"
     guidetolerance="10"
     inkscape:pageopacity="0"
     inkscape:pageshadow="2"
     inkscape:window-width="1366"
     inkscape:window-height="703"
     id="namedview8"
     showgrid="false"
     inkscape:zoom="14.75"
     inkscape:cx="8"
     inkscape:cy="8"
     inkscape:window-x="0"
     inkscape:window-y="0"
     inkscape:window-maximized="1"
     inkscape:current-layer="svg6" />
  <defs
     id="defs3051">
    <style
       type="text/css"
       id="current-color-scheme">
      .ColorScheme-Text {
        color:#f2f2f2;
      }
      </style>
  </defs>
  <path
     style="color:#f2f2f2;fill:#1d99f3;fill-opacity:1;stroke:none;stroke-width:0.86216056"
     class="ColorScheme-Text"
     d="m 2.7269303,1.0847458 c -0.8361582,0 -1.5065913,0.7016949 -1.5065913,1.5593221 V 13.559322 a 1.5065914,1.5593221 0 0 0 1.5065913,1.559322 H 13.273069 a 1.5065914,1.5593221 0 0 0 1.506592,-1.559322 V 2.6440679 A 1.5065914,1.5593221 0 0 0 13.273069,1.0847458 Z m 0,1.5593221 H 13.273069 V 10.440678 H 10.259887 A 2.259887,2.3389831 0 0 1 8,12.779661 2.259887,2.3389831 0 0 1 5.7401129,10.440678 H 2.7269303 Z m 3.7664783,1.559322 v 2.338983 H 4.9868173 L 8,9.661017 11.013183,6.5423729 H 9.506591 v -2.338983 z"
     id="path4"
     inkscape:connector-curvature="0" />
</svg>
