<?xml version="1.0" encoding="UTF-8" standalone="no"?>
<svg
   xmlns:dc="http://purl.org/dc/elements/1.1/"
   xmlns:cc="http://creativecommons.org/ns#"
   xmlns:rdf="http://www.w3.org/1999/02/22-rdf-syntax-ns#"
   xmlns:svg="http://www.w3.org/2000/svg"
   xmlns="http://www.w3.org/2000/svg"
   xmlns:sodipodi="http://sodipodi.sourceforge.net/DTD/sodipodi-0.dtd"
   xmlns:inkscape="http://www.inkscape.org/namespaces/inkscape"
   viewBox="0 0 32 32"
   version="1.1"
   id="svg6"
   sodipodi:docname="network-server.svg"
   inkscape:version="0.92.4 5da689c313, 2019-01-14"
   width="32"
   height="32">
  <metadata
     id="metadata10">
    <rdf:RDF>
      <cc:Work
         rdf:about="">
        <dc:format>image/svg+xml</dc:format>
        <dc:type
           rdf:resource="http://purl.org/dc/dcmitype/StillImage" />
        <dc:title></dc:title>
      </cc:Work>
    </rdf:RDF>
  </metadata>
  <sodipodi:namedview
     pagecolor="#ffffff"
     bordercolor="#666666"
     borderopacity="1"
     objecttolerance="10"
     gridtolerance="10"
     guidetolerance="10"
     inkscape:pageopacity="0"
     inkscape:pageshadow="2"
     inkscape:window-width="1366"
     inkscape:window-height="703"
     id="namedview8"
     showgrid="false"
     inkscape:zoom="7.375"
     inkscape:cx="2.2711864"
     inkscape:cy="8"
     inkscape:window-x="0"
     inkscape:window-y="0"
     inkscape:window-maximized="1"
     inkscape:current-layer="svg6" />
  <defs
     id="defs3051">
    <style
       type="text/css"
       id="current-color-scheme">
      .ColorScheme-Text {
        color:#4d4d4d;
      }
      </style>
  </defs>
  <g
     id="g11"
     transform="matrix(0.99999998,0,0,2.5,1.220339,-44.050847)">
    <path
       inkscape:connector-curvature="0"
       id="path4"
       d="m 3.6363631,18 a 0.54545455,0.54545455 0 0 0 -0.5454545,0.545454 v 2.181819 a 0.54545455,0.54545455 0 0 0 0.5454545,0.545454 h 8.7272729 a 0.54545455,0.54545455 0 0 0 0.545455,-0.545454 V 18.545454 A 0.54545455,0.54545455 0 0 0 12.363636,18 Z m 0.5454546,1.090909 h 1.0909091 v 1.090909 H 4.1818177 Z m 2.1818182,0 h 0.5454545 v 1.090909 H 6.3636359 Z m -2.7272728,3.272727 a 0.54545455,0.54545455 0 0 0 -0.5454545,0.545455 v 2.181818 a 0.54545455,0.54545455 0 0 0 0.5454545,0.545455 h 8.7272729 a 0.54545455,0.54545455 0 0 0 0.545455,-0.545455 v -2.181818 a 0.54545455,0.54545455 0 0 0 -0.545455,-0.545455 z m 0.5454546,1.090909 h 1.0909091 v 1.09091 H 4.1818177 Z m 2.1818182,0 h 0.5454545 v 1.09091 H 6.3636359 Z m -2.7272728,3.272728 a 0.54545455,0.54545455 0 0 0 -0.5454545,0.545454 v 2.181818 A 0.54545455,0.54545455 0 0 0 3.6363631,30 h 8.7272729 a 0.54545455,0.54545455 0 0 0 0.545455,-0.545455 v -2.181818 a 0.54545455,0.54545455 0 0 0 -0.545455,-0.545454 z m 0.5454546,1.090909 h 1.0909091 v 1.090909 H 4.1818177 Z m 2.1818182,0 h 0.5454545 v 1.090909 H 6.3636359 Z"
       class="ColorScheme-Text"
       style="color:#4d4d4d;fill:#1d99f3;fill-opacity:1;stroke:none;stroke-width:0.75" />
    <path
       style="color:#4d4d4d;fill:#1d99f3;fill-opacity:1;stroke:none;stroke-width:1.14791477"
       class="ColorScheme-Text"
       d="m 4.3686862,18 a 1.2777777,0.54545455 0 0 0 -1.2777776,0.545454 v 2.181819 a 1.2777777,0.54545455 0 0 0 1.2777776,0.545454 H 24.81313 a 1.2777777,0.54545455 0 0 0 1.277779,-0.545454 V 18.545454 A 1.2777777,0.54545455 0 0 0 24.81313,18 Z m 1.2777778,1.090909 h 2.5555555 v 1.090909 H 5.646464 Z m 5.111111,0 h 1.277777 v 1.090909 h -1.277777 z m -6.3888888,3.272727 a 1.2777777,0.54545455 0 0 0 -1.2777776,0.545455 v 2.181818 a 1.2777777,0.54545455 0 0 0 1.2777776,0.545455 H 24.81313 a 1.2777777,0.54545455 0 0 0 1.277779,-0.545455 V 22.909091 A 1.2777777,0.54545455 0 0 0 24.81313,22.363636 Z m 1.2777778,1.090909 h 2.5555555 v 1.09091 H 5.646464 Z m 5.111111,0 h 1.277777 v 1.09091 h -1.277777 z m -6.3888888,3.272728 a 1.2777777,0.54545455 0 0 0 -1.2777776,0.545454 v 2.181818 A 1.2777777,0.54545455 0 0 0 4.3686862,30 H 24.81313 a 1.2777777,0.54545455 0 0 0 1.277779,-0.545455 V 27.272727 A 1.2777777,0.54545455 0 0 0 24.81313,26.727273 Z m 1.2777778,1.090909 h 2.5555555 v 1.090909 H 5.646464 Z m 5.111111,0 h 1.277777 v 1.090909 h -1.277777 z"
       id="path816"
       inkscape:connector-curvature="0" />
  </g>
</svg>
