<svg height="32" width="32" xmlns="http://www.w3.org/2000/svg"><g fill="#4285f4" transform="matrix(.04902045265 0 0 .05273347062 38.38767112864 -10.94271270463)"><path d="m-456.70043 534.13427c-49.553 0-96.331 21.852-128.335 59.948-9.93 11.811-8.402 29.434 3.428 39.363 5.234 4.396 11.605 6.557 17.958 6.557 7.973 0 15.891-3.39 21.405-9.966 21.368-25.429 52.552-40.016 85.544-40.016s64.177 14.587 85.544 40.016c5.533 6.595 13.45 9.966 21.405 9.966 6.353 0 12.724-2.142 17.958-6.557 11.83-9.93 13.357-27.553 3.428-39.363-32.005-38.096-78.783-59.948-128.335-59.948z"/><path d="m-456.71026 411.20563c-82.545 0-160.489 36.419-213.879 99.926-9.929 11.811-8.402 29.434 3.428 39.363 5.234 4.396 11.605 6.558 17.958 6.558 7.973 0 15.891-3.391 21.405-9.967 42.716-50.838 105.086-79.993 171.089-79.993s128.372 29.155 171.107 79.993c5.533 6.595 13.45 9.967 21.404 9.967 6.353 0 12.724-2.14299 17.959-6.558 11.829-9.929 13.356-27.57 3.428-39.363-53.41-63.506-131.354-99.926-213.899-99.926z"/><path d="m-157.25874 432.76761c-74.739-88.935-183.887-139.923-299.442-139.923s-224.68501 50.988-299.44301 139.923c-9.93 11.811-8.402 29.434 3.428 39.363 5.234 4.396 11.587 6.558 17.939 6.558 7.973 0 15.891-3.391 21.423-9.967 64.08401-76.248 157.63901-119.989 256.65201-119.989s192.568 43.741 256.651 119.971c5.533 6.576 13.45 9.967 21.424 9.967 6.353 0 12.724-2.14299 17.958-6.558 11.81099-9.912 13.33999-27.553 3.41-39.345z"/><path d="m-502.72533 682.97548c0 25.40596 20.61957 46.02476 46.02469 46.02476 25.40511 0 46.02469-20.6188 46.02469-46.02476-7.77548-65.32599-90.56863-48.66693-92.04938 0z"/></g></svg>