<?xml version="1.0" encoding="UTF-8" standalone="no"?>
<svg
   xmlns:dc="http://purl.org/dc/elements/1.1/"
   xmlns:cc="http://creativecommons.org/ns#"
   xmlns:rdf="http://www.w3.org/1999/02/22-rdf-syntax-ns#"
   xmlns:svg="http://www.w3.org/2000/svg"
   xmlns="http://www.w3.org/2000/svg"
   xmlns:sodipodi="http://sodipodi.sourceforge.net/DTD/sodipodi-0.dtd"
   xmlns:inkscape="http://www.inkscape.org/namespaces/inkscape"
   viewBox="0 0 32 32"
   version="1.1"
   id="svg4"
   sodipodi:docname="network-wired.svg"
   inkscape:version="0.92.4 5da689c313, 2019-01-14"
   width="32"
   height="32">
  <metadata
     id="metadata10">
    <rdf:RDF>
      <cc:Work
         rdf:about="">
        <dc:format>image/svg+xml</dc:format>
        <dc:type
           rdf:resource="http://purl.org/dc/dcmitype/StillImage" />
        <dc:title></dc:title>
      </cc:Work>
    </rdf:RDF>
  </metadata>
  <defs
     id="defs8" />
  <sodipodi:namedview
     pagecolor="#ffffff"
     bordercolor="#666666"
     borderopacity="1"
     objecttolerance="10"
     gridtolerance="10"
     guidetolerance="10"
     inkscape:pageopacity="0"
     inkscape:pageshadow="2"
     inkscape:window-width="1366"
     inkscape:window-height="703"
     id="namedview6"
     showgrid="false"
     inkscape:zoom="7.375"
     inkscape:cx="8"
     inkscape:cy="8"
     inkscape:window-x="0"
     inkscape:window-y="0"
     inkscape:window-maximized="1"
     inkscape:current-layer="svg4" />
  <path
     d="m 13.407407,4.2634445 c -0.446479,0 -0.826845,0.1387837 -1.13936,0.4183346 -0.312514,0.2793635 -0.46767,0.6197872 -0.46767,1.0191667 v 4.7926012 c 0,0.399378 0.155157,0.73681 0.46767,1.016358 0.31231,0.279545 0.692881,0.421141 1.13936,0.421141 h 1.60703 v 2.875 H 6.4425612 c -0.5804429,0 -1.0825085,0.187793 -1.5065914,0.56714 -0.4240829,0.379161 -0.6371625,0.828629 -0.6371625,1.347656 v 2.875001 H 2.6917764 c -0.4462733,0 -0.8237063,0.14178 -1.136221,0.42114 -0.3125146,0.279364 -0.4708098,0.61698 -0.4708098,1.01636 v 4.792601 c 0,0.399378 0.158295,0.739802 0.4708098,1.019165 0.3125147,0.279544 0.6899477,0.418335 1.136221,0.418335 h 5.3578155 c 0.4462732,0 0.8268452,-0.138971 1.1393598,-0.418335 0.3125146,-0.279363 0.4676711,-0.619787 0.4676711,-1.019165 v -4.792601 c 0,-0.39938 -0.1551571,-0.736812 -0.4676711,-1.01636 -0.3125146,-0.279545 -0.6930866,-0.42114 -1.1393598,-0.42114 H 6.4425612 v -2.875001 h 8.5718758 v 2.875001 h -1.60703 c -0.446479,0 -0.826845,0.14178 -1.13936,0.42114 -0.312514,0.279364 -0.46767,0.61698 -0.46767,1.01636 v 4.792601 c 0,0.399378 0.155157,0.739802 0.46767,1.019165 0.31231,0.279544 0.692881,0.418335 1.13936,0.418335 h 5.354678 c 0.446683,0 0.826845,-0.138971 1.139358,-0.418335 0.31231,-0.279545 0.467672,-0.619787 0.467672,-1.019165 v -4.792601 c 0,-0.39938 -0.155165,-0.736812 -0.467672,-1.01636 -0.312513,-0.279545 -0.692675,-0.42114 -1.139358,-0.42114 h -1.607031 v -2.875001 h 8.571874 v 2.875001 h -1.60703 c -0.446274,0 -0.826845,0.14178 -1.139359,0.42114 -0.31231,0.279548 -0.467672,0.61698 -0.467672,1.01636 v 4.792601 c 0,0.399378 0.155358,0.739802 0.467672,1.019165 0.312514,0.279544 0.693085,0.418335 1.139359,0.418335 h 5.357817 c 0.446272,0 0.823707,-0.138971 1.136222,-0.418335 0.312513,-0.279363 0.470808,-0.619787 0.470808,-1.019165 v -4.792601 c 0,-0.39938 -0.15557,-0.736996 -0.46767,-1.01636 -0.312515,-0.279545 -0.692675,-0.42114 -1.13936,-0.42114 h -1.607033 v -2.875001 c 0,-0.519027 -0.213285,-0.968495 -0.637161,-1.347656 -0.424083,-0.379529 -0.926354,-0.56714 -1.506593,-0.56714 h -8.571874 v -2.875 h 1.607031 c 0.446683,0 0.82705,-0.141592 1.139358,-0.421141 0.312513,-0.279364 0.467672,-0.61698 0.467672,-1.016358 V 5.7009458 c 0,-0.3993795 -0.155358,-0.7398032 -0.467672,-1.0191667 C 19.58893,4.4022333 19.208768,4.2634445 18.762085,4.2634445 Z"
     id="path2"
     style="fill:#1d99f3;fill-opacity:1;stroke-width:1.77334452"
     inkscape:connector-curvature="0" />
</svg>
