<?xml version="1.0" encoding="UTF-8" standalone="no"?>
<svg
   xmlns:dc="http://purl.org/dc/elements/1.1/"
   xmlns:cc="http://creativecommons.org/ns#"
   xmlns:rdf="http://www.w3.org/1999/02/22-rdf-syntax-ns#"
   xmlns:svg="http://www.w3.org/2000/svg"
   xmlns="http://www.w3.org/2000/svg"
   xmlns:sodipodi="http://sodipodi.sourceforge.net/DTD/sodipodi-0.dtd"
   xmlns:inkscape="http://www.inkscape.org/namespaces/inkscape"
   viewBox="0 0 16 16"
   version="1.1"
   id="svg4"
   sodipodi:docname="network-wired.svg"
   inkscape:version="0.92.4 5da689c313, 2019-01-14">
  <metadata
     id="metadata10">
    <rdf:RDF>
      <cc:Work
         rdf:about="">
        <dc:format>image/svg+xml</dc:format>
        <dc:type
           rdf:resource="http://purl.org/dc/dcmitype/StillImage" />
      </cc:Work>
    </rdf:RDF>
  </metadata>
  <defs
     id="defs8" />
  <sodipodi:namedview
     pagecolor="#ffffff"
     bordercolor="#666666"
     borderopacity="1"
     objecttolerance="10"
     gridtolerance="10"
     guidetolerance="10"
     inkscape:pageopacity="0"
     inkscape:pageshadow="2"
     inkscape:window-width="1366"
     inkscape:window-height="703"
     id="namedview6"
     showgrid="false"
     inkscape:zoom="14.75"
     inkscape:cx="8"
     inkscape:cy="8"
     inkscape:window-x="0"
     inkscape:window-y="0"
     inkscape:window-maximized="1"
     inkscape:current-layer="svg4" />
  <path
     d="m 6.6483379,1.1433353 c -0.2310591,0 -0.4279041,0.081523 -0.5896348,0.2457251 C 5.8969724,1.553155 5.8166768,1.7531163 5.8166768,1.9877065 V 4.802827 c 0,0.2345903 0.080296,0.4327943 0.2420263,0.5969968 0.1616244,0.1642025 0.3585757,0.2473744 0.5896348,0.2473744 H 7.4799987 V 7.3359401 H 3.0439315 c -0.3003874,0 -0.5602134,0.1103083 -0.7796823,0.3331318 C 2.0447803,7.8917869 1.9345086,8.1557993 1.9345086,8.4606695 V 10.149413 H 1.1028474 c -0.23095273,0 -0.42627963,0.08328 -0.5880104,0.247373 -0.16173076,0.164095 -0.24365076,0.362407 -0.24365076,0.596998 v 2.81512 c 0,0.23459 0.0819199,0.434551 0.24365076,0.598646 0.16173077,0.164201 0.35705767,0.245725 0.5880104,0.245725 h 2.7727452 c 0.2309527,0 0.4279041,-0.08163 0.5896348,-0.245725 0.1617307,-0.164095 0.2420264,-0.364056 0.2420264,-0.598646 v -2.81512 c 0,-0.234591 -0.080296,-0.432795 -0.2420264,-0.596998 C 4.3034967,10.232584 4.1065453,10.149413 3.8755926,10.149413 H 3.0439315 V 8.4606695 H 7.4799987 V 10.149413 H 6.6483379 c -0.2310591,0 -0.4279041,0.08328 -0.5896348,0.247373 -0.1617307,0.164095 -0.2420263,0.362407 -0.2420263,0.596998 v 2.81512 c 0,0.23459 0.080296,0.434551 0.2420263,0.598646 0.1616244,0.164201 0.3585757,0.245725 0.5896348,0.245725 h 2.7711212 c 0.2311649,0 0.4279041,-0.08163 0.5896339,-0.245725 0.161625,-0.164202 0.242027,-0.364056 0.242027,-0.598646 v -2.81512 c 0,-0.234591 -0.0803,-0.432795 -0.242027,-0.596998 C 9.8473632,10.232584 9.650624,10.149413 9.4194591,10.149413 H 8.5877981 V 8.4606695 h 4.4360659 v 1.6887435 h -0.831661 c -0.230953,0 -0.427904,0.08328 -0.589634,0.247373 -0.161625,0.164203 -0.242027,0.362407 -0.242027,0.596998 v 2.81512 c 0,0.23459 0.0804,0.434551 0.242027,0.598646 0.16173,0.164201 0.358681,0.245725 0.589634,0.245725 h 2.772746 c 0.230952,0 0.42628,-0.08163 0.588011,-0.245725 0.16173,-0.164095 0.24365,-0.364056 0.24365,-0.598646 v -2.81512 c 0,-0.234591 -0.08051,-0.432903 -0.242026,-0.596998 -0.161731,-0.164202 -0.358469,-0.247373 -0.589635,-0.247373 H 14.133287 V 8.4606695 c 0,-0.3048702 -0.110378,-0.5688826 -0.32974,-0.7915976 C 13.584078,7.446141 13.324146,7.3359401 13.023864,7.3359401 H 8.5877981 V 5.6471982 h 0.831661 c 0.2311649,0 0.4280101,-0.083172 0.5896339,-0.2473744 C 10.170823,5.2357294 10.25112,5.0374173 10.25112,4.802827 V 1.9877065 c 0,-0.2345902 -0.0804,-0.4345515 -0.242027,-0.5986461 C 9.8473632,1.2248581 9.650624,1.1433353 9.4194591,1.1433353 Z"
     id="path2"
     style="fill:#1d99f3;fill-opacity:1;stroke-width:0.97772563"
     inkscape:connector-curvature="0" />
</svg>
