<svg xmlns="http://www.w3.org/2000/svg" viewBox="0 0 32 32">
  <path fill="#375273" d="M16 26.2c-.5 0-.8-.4-.8-.8v-4.1c0-.5.4-.8.8-.8.5 0 .8.4.8.8v4.1c0 .5-.3.8-.8.8z"/>
  <g fill="#375273">
    <path d="M28.8 26.9H3.2c-.5 0-.9-.4-.9-.9s.4-.9.9-.9h25.5c.5 0 .9.4.9.9.1.5-.3.9-.8.9z"/>
    <path d="M19.9 27.6h-7.8c-.6 0-1-.5-1-1v-1.3c0-.5.4-1 1-1h7.8c.5 0 1 .5 1 1v1.3c0 .6-.5 1-1 1z"/>
  </g>
  <path d="M18.7 2.9h-.4v19h.4c1.1 0 2-.9 2-2v-15c0-1.1-.9-2-2-2zm-5.4 0c-1.1 0-2 .9-2 2v15c0 1.1.9 2 2 2h4v-19h-4zm.8 17.5c-.8 0-1.5-.7-1.5-1.5s.7-1.5 1.5-1.5 1.5.7 1.5 1.5-.7 1.5-1.5 1.5z" fill="#375273"/>
</svg>
