<svg xmlns="http://www.w3.org/2000/svg" viewBox="0 0 32 32">
  <path fill="#375273" d="M25.7 3.9H6.3C5 3.9 3.9 5 3.9 6.3v19.5c0 1.3 1 2.3 2.3 2.3h19.5c1.3 0 2.3-1 2.3-2.3V6.3c.1-1.3-1-2.4-2.3-2.4zm-2.3 17.5c0 .6-.5 1.2-1.2 1.2h-1.5v-3.3c0-.3-.3-.6-.6-.6s-.6.3-.6.6v3.3H18v-3.3c0-.3-.3-.6-.6-.6s-.6.3-.6.6v3.3h-1.6v-3.3c0-.3-.3-.6-.6-.6s-.6.2-.6.6v3.3h-1.6v-3.3c0-.3-.3-.6-.6-.6s-.6.3-.6.6v3.3H9.7c-.6 0-1.2-.5-1.2-1.2v-7.9c0-.6.5-1.2 1.2-1.2h3.5v-1.7c0-.6.5-1.2 1.2-1.2h3.3c.6 0 1.2.5 1.2 1.2v1.7h3.5c.6 0 1.2.5 1.2 1.2v7.9z"/>
</svg>
