<?xml version="1.0" encoding="UTF-8" standalone="no"?>
<svg
   xmlns:dc="http://purl.org/dc/elements/1.1/"
   xmlns:cc="http://creativecommons.org/ns#"
   xmlns:rdf="http://www.w3.org/1999/02/22-rdf-syntax-ns#"
   xmlns:svg="http://www.w3.org/2000/svg"
   xmlns="http://www.w3.org/2000/svg"
   xmlns:sodipodi="http://sodipodi.sourceforge.net/DTD/sodipodi-0.dtd"
   xmlns:inkscape="http://www.inkscape.org/namespaces/inkscape"
   viewBox="0 0 32 32"
   version="1.1"
   id="svg4"
   sodipodi:docname="object-locked.svg"
   inkscape:version="0.92.4 5da689c313, 2019-01-14"
   width="32"
   height="32">
  <metadata
     id="metadata10">
    <rdf:RDF>
      <cc:Work
         rdf:about="">
        <dc:format>image/svg+xml</dc:format>
        <dc:type
           rdf:resource="http://purl.org/dc/dcmitype/StillImage" />
        <dc:title></dc:title>
      </cc:Work>
    </rdf:RDF>
  </metadata>
  <defs
     id="defs8" />
  <sodipodi:namedview
     pagecolor="#ffffff"
     bordercolor="#666666"
     borderopacity="1"
     objecttolerance="10"
     gridtolerance="10"
     guidetolerance="10"
     inkscape:pageopacity="0"
     inkscape:pageshadow="2"
     inkscape:window-width="1366"
     inkscape:window-height="703"
     id="namedview6"
     showgrid="false"
     inkscape:zoom="10.727273"
     inkscape:cx="11"
     inkscape:cy="11"
     inkscape:window-x="0"
     inkscape:window-y="0"
     inkscape:window-maximized="1"
     inkscape:current-layer="svg4" />
  <path
     d="M 22.283805,13.814423 H 9.1061206 V 10.12436 c 0,-3.2959188 2.9557014,-5.977229 6.5888424,-5.977229 3.633136,0 6.588842,2.6814977 6.588842,5.977229 z m 3.515031,0.03355 v -3.723984 c 0,-5.0541991 -4.532547,-9.16636131 -10.103873,-9.16636131 -5.571329,0 -10.1038767,4.11216221 -10.1038767,9.16636131 v 3.72398 C 4.7948445,13.998923 4.1949154,14.641663 4.1949154,15.408338 V 29.36334 c 0,0.879047 0.7884216,1.594288 1.7575164,1.594288 H 25.437404 c 0.969092,0 1.757511,-0.715241 1.757511,-1.594288 V 15.408338 c 0,-0.766675 -0.599832,-1.408677 -1.396079,-1.560372 z"
     id="path2"
     style="fill:#f47750;fill-opacity:1;stroke-width:1.98001373"
     inkscape:connector-curvature="0" />
</svg>
