<?xml version="1.0" encoding="UTF-8" standalone="no"?>
<svg
   xmlns:dc="http://purl.org/dc/elements/1.1/"
   xmlns:cc="http://creativecommons.org/ns#"
   xmlns:rdf="http://www.w3.org/1999/02/22-rdf-syntax-ns#"
   xmlns:svg="http://www.w3.org/2000/svg"
   xmlns="http://www.w3.org/2000/svg"
   xmlns:sodipodi="http://sodipodi.sourceforge.net/DTD/sodipodi-0.dtd"
   xmlns:inkscape="http://www.inkscape.org/namespaces/inkscape"
   viewBox="0 0 32 32"
   version="1.1"
   id="svg6"
   sodipodi:docname="preferences-system-network.svg"
   inkscape:version="0.92.4 5da689c313, 2019-01-14">
  <metadata
     id="metadata12">
    <rdf:RDF>
      <cc:Work
         rdf:about="">
        <dc:format>image/svg+xml</dc:format>
        <dc:type
           rdf:resource="http://purl.org/dc/dcmitype/StillImage" />
        <dc:title></dc:title>
      </cc:Work>
    </rdf:RDF>
  </metadata>
  <defs
     id="defs10" />
  <sodipodi:namedview
     pagecolor="#ffffff"
     bordercolor="#666666"
     borderopacity="1"
     objecttolerance="10"
     gridtolerance="10"
     guidetolerance="10"
     inkscape:pageopacity="0"
     inkscape:pageshadow="2"
     inkscape:window-width="1366"
     inkscape:window-height="703"
     id="namedview8"
     showgrid="false"
     inkscape:zoom="7.375"
     inkscape:cx="4.1355932"
     inkscape:cy="16"
     inkscape:window-x="0"
     inkscape:window-y="0"
     inkscape:window-maximized="1"
     inkscape:current-layer="svg6" />
  <g
     id="g10"
     transform="matrix(0.9929078,0,0,0.9929078,-0.25487438,-0.05487438)">
    <path
       style="fill:#1d4ef3;fill-opacity:1"
       id="path2"
       d="m 30.5,22 v 2.2 c 0,0.1 0,0.1 -0.1,0.2 -0.1,0.1 -0.1,0.1 -0.2,0.1 l -1.8,0.3 c -0.1,0.4 -0.3,0.6 -0.4,0.9 0.2,0.4 0.6,0.8 1.1,1.3 0.1,0.1 0.1,0.1 0.1,0.2 0,0.1 0,0.1 -0.1,0.2 -0.2,0.2 -0.5,0.6 -1,1.1 -0.5,0.5 -0.8,0.7 -0.9,0.7 -0.1,0 -0.1,0 -0.3,-0.1 L 25.6,28 c -0.3,0.1 -0.6,0.3 -0.9,0.4 -0.1,0.9 -0.2,1.5 -0.3,1.8 -0.1,0.2 -0.1,0.3 -0.4,0.3 h -2.2 c -0.1,0 -0.1,0 -0.2,-0.1 -0.1,-0.1 -0.1,-0.1 -0.1,-0.2 L 21.2,28.4 C 20.8,28.3 20.6,28.2 20.3,28 l -1.4,1.1 c -0.1,0.1 -0.1,0.1 -0.2,0.1 -0.1,0 -0.1,-0.1 -0.2,-0.1 l -1.6,-1.6 c -0.1,-0.1 -0.1,-0.1 -0.1,-0.2 0,-0.1 0,-0.1 0.1,-0.2 0.1,-0.1 0.3,-0.4 0.5,-0.6 0.2,-0.3 0.4,-0.6 0.6,-0.7 -0.2,-0.4 -0.3,-0.6 -0.4,-1 l -1.8,-0.3 c -0.1,0 -0.1,-0.1 -0.2,-0.1 -0.1,-0.1 -0.1,-0.1 -0.1,-0.2 V 22 c 0,-0.1 0,-0.1 0.1,-0.2 0.1,-0.1 0.1,-0.1 0.2,-0.1 l 1.8,-0.3 c 0.1,-0.3 0.2,-0.6 0.4,-0.9 -0.3,-0.4 -0.6,-0.8 -1.1,-1.3 -0.1,-0.1 -0.1,-0.1 -0.1,-0.2 0,-0.1 0,-0.1 0.1,-0.2 0.1,-0.3 0.5,-0.6 1,-1.1 0.5,-0.5 0.8,-0.7 0.9,-0.7 0.1,0 0.1,0 0.3,0.1 l 1.3,1.1 c 0.3,-0.1 0.6,-0.3 0.9,-0.4 0.1,-0.9 0.2,-1.5 0.3,-1.8 0.1,-0.2 0.1,-0.3 0.4,-0.3 h 2.2 c 0.1,0 0.1,0 0.2,0.1 0.1,0.1 0.1,0.1 0.1,0.2 l 0.3,1.8 c 0.4,0.1 0.6,0.2 0.9,0.4 l 1.4,-1.1 C 27.2,17 27.2,17 27.3,17 c 0.1,0 0.1,0 0.2,0.1 0.8,0.8 1.4,1.3 1.6,1.7 0.1,0.1 0.1,0.1 0.1,0.2 0,0.1 0,0.1 -0.1,0.2 -0.1,0.1 -0.3,0.4 -0.5,0.6 -0.2,0.3 -0.4,0.6 -0.6,0.7 0.1,0.4 0.3,0.6 0.4,1 l 1.8,0.3 c 0.1,0 0.1,0.1 0.2,0.1 0.1,-0.1 0.1,0 0.1,0.1 z m -5.7,2.8 c 0.5,-0.5 0.7,-1.1 0.7,-1.8 0,-0.7 -0.2,-1.3 -0.7,-1.8 -0.5,-0.5 -1.1,-0.7 -1.8,-0.7 -0.7,0 -1.3,0.2 -1.8,0.7 -0.5,0.5 -0.7,1.1 -0.7,1.8 0,0.7 0.2,1.3 0.7,1.8 0.5,0.5 1.1,0.7 1.8,0.7 0.7,0 1.3,-0.2 1.8,-0.7 z"
       inkscape:connector-curvature="0" />
    <path
       style="fill:#1d99f3;fill-opacity:1"
       id="path4"
       d="m 16.5,26.7 0.3,-0.3 c 0.1,-0.1 0.2,-0.2 0.2,-0.3 0.1,-0.2 0.2,-0.3 0.4,-0.5 -0.1,-0.2 -0.1,-0.3 -0.2,-0.5 l -1.5,-0.2 c -0.2,0 -0.4,-0.2 -0.5,-0.3 C 15,24.4 15,24.2 15,24.1 v -2.2 c 0,-0.1 0,-0.3 0.2,-0.6 0.1,-0.1 0.3,-0.3 0.6,-0.3 h 0.1 c 0,0 -0.1,-0.1 -0.2,-0.1 l -0.3,-0.3 c 0,-0.1 -0.1,-0.1 -0.1,-0.2 C 15.2,20.3 15.2,20.2 15.1,20.1 15.1,20 15,19.9 15,19.8 v -0.1 c -0.2,0.1 -0.5,0 -0.9,-0.2 l -0.4,-0.4 c -0.1,-0.2 -0.3,-0.3 -0.5,-0.3 0,0 -0.1,0.1 -0.2,0.1 h -0.3 c -0.1,0 -0.2,-0.1 -0.3,-0.1 -0.1,0 -0.2,-0.1 -0.4,-0.2 -0.1,-0.1 -0.2,-0.2 -0.3,-0.2 0,0 -0.1,0 -0.2,-0.1 -0.1,0 -0.2,-0.1 -0.3,-0.1 0,-0.1 -0.1,-0.2 -0.2,-0.2 -0.1,0 -0.2,-0.1 -0.2,-0.2 0,0 -0.1,-0.2 -0.1,-0.4 0,-0.3 0,-0.4 0.1,-0.5 -0.1,-0.2 -0.2,-0.3 -0.3,-0.4 -0.2,-0.1 -0.3,-0.2 -0.4,-0.2 0.1,0 0.1,0 0,-0.2 L 9.8,15.8 9.6,15.6 9.8,15.8 C 9.7,15.7 9.7,15.6 9.6,15.5 V 15.1 C 9.6,15 9.6,15 9.5,15 H 9.3 c 0,0.1 0.1,0.2 0.1,0.3 0,0.1 0.1,0.2 0.1,0.3 0,0 0.1,0.2 0.3,0.5 0.3,0.5 0.4,0.8 0.4,1 0,0.1 -0.1,0 -0.1,0 C 10,17 10,17 10,16.9 V 16.7 C 9.9,16.7 9.8,16.6 9.7,16.5 9.5,16.4 9.4,16.3 9.4,16.2 9.4,16.1 9.3,16 9.2,15.8 9,15.6 9,15.5 9,15.4 8.9,15.3 8.8,15.2 8.7,15 8.6,14.8 8.5,14.7 8.5,14.6 L 8.3,14.4 C 8.3,14.3 8.2,14.3 8,14 7.9,14 7.8,13.9 7.8,13.9 7.8,13.8 7.8,13.8 7.7,13.7 7.3,13.2 7.2,13 7.3,13 7.1,13.1 7,13 6.9,12.7 7,12.6 7,12.4 7,12.3 V 11.4 C 7.1,11.2 7.1,11.1 7.2,11.1 7.1,11.1 7,11.1 7,10.9 v -0.3 c 0.1,0 0.1,0 0.2,0.1 C 7.3,10.9 7.4,11 7.4,11 7.6,10.9 7.6,10.8 7.6,10.7 7.6,10.6 7.4,10.5 7.2,10.3 6.7,10 6.5,9.9 6.5,9.9 6.6,9.8 6.6,9.7 6.4,9.5 6.3,9.6 6.2,9.6 6.2,9.6 V 9.4 C 6.2,9.3 6.1,9.2 6.1,9.2 6.1,9.2 6,9.3 5.9,9.2 6.9,7.7 8.2,6.5 9.7,5.6 h 0.4 c 0.1,0.1 0.2,0.1 0.3,0 0.1,0.1 0.2,0.1 0.3,0.2 L 10.9,6 c 0,0 0,-0.2 -0.1,-0.3 0,-0.1 0.2,-0.1 0.4,-0.2 0.2,-0.1 0.4,0 0.5,0 L 11.3,5.1 11.2,5.2 c -0.1,-0.1 -0.4,-0.1 -0.7,0.1 0,0 -0.1,0 -0.2,0.1 -0.1,0 -0.1,0.1 -0.2,0.1 H 9.9 C 10.4,5.2 11,5 11.4,4.9 l 0.2,0.2 0.2,0.2 c -0.1,-0.1 -0.1,0 -0.1,0 v 0.4 c 0,0 0.1,0.1 0.2,0.1 h 0.9 c 0.4,0 0.5,0 0.4,0.1 0,0.1 0.1,0.2 0.1,0.3 0.1,0.1 0.1,0.2 0.2,0.3 V 5.9 c 0,-0.1 0,-0.1 0.1,-0.1 0.1,0 0.1,-0.1 0.2,-0.1 C 13.9,5.6 14,5.6 14,5.6 14.1,5.5 14.1,5.4 14,5.4 13.9,5.3 13.9,5.3 13.8,5.3 13.7,5.2 13.7,5.2 13.6,5.2 c -0.1,0 -0.1,-0.1 -0.2,-0.1 -0.1,0 -0.1,0 -0.1,-0.1 0,0 0,-0.1 0.1,-0.2 0,-0.1 0.1,-0.1 0.3,-0.1 0.2,0 0.3,0.1 0.4,0.1 0.3,0.1 0.3,0.3 0.3,0.5 0.1,0 0.2,0 0.4,0.1 C 15,5.5 15,5.6 15,5.7 15.1,5.5 15.2,5.4 15.3,5.4 15,5.3 15,5.4 15,5.5 c 0.1,0.1 0.1,0.2 0.1,0.2 0.1,0.1 0.2,0.2 0.3,0.1 l 0.3,-0.3 0.2,-0.2 c -0.1,0 -0.1,-0.1 0,-0.1 0.2,-0.1 0.4,-0.1 0.5,-0.1 0,0.1 0,0.1 0.1,0.2 0.1,0.2 0,0.3 -0.1,0.3 0.1,0.1 0.1,0.3 0.1,0.4 0,0.1 -0.1,0.2 -0.3,0.2 -0.1,0 -0.2,0 -0.3,-0.1 C 15.7,6 15.7,6 15.6,6 15.5,6 15.4,6 15.3,6.1 15.2,6.2 15.2,6.3 15.1,6.4 15,6.4 15,6.5 15,6.5 14.8,6.7 14.5,6.7 14.2,6.7 V 6.8 C 14.1,6.8 14.1,6.9 14,7 14,7.1 13.9,7.2 13.9,7.2 13.8,7.3 13.7,7.4 13.7,7.6 v 0.2 c 0,0.1 -0.1,0.2 -0.1,0.3 0.1,-0.1 0.2,0 0.3,0.2 0.1,0.2 0.1,0.3 0,0.3 0.4,0 0.6,0 0.9,0.1 0.4,0.2 0.5,0.3 0.6,0.5 0.1,-0.1 0.2,-0.1 0.5,0 0.1,-0.2 0.1,0 0.2,0.2 0,0.2 0.1,0.4 0.2,0.5 0.1,0.1 0.3,0.2 0.4,0.1 h 0.1 c 0,-0.1 0.1,-0.1 0.1,-0.1 L 17,9.8 V 9.6 C 16.9,9.5 16.8,9.4 16.8,9.3 16.7,9.2 16.7,9.1 16.8,9 16.8,9 16.9,8.9 17.1,8.8 17.3,8.7 17.4,8.6 17.4,8.5 17.5,8.3 17.4,8.2 17.2,8.2 17,8.1 16.9,8 16.9,7.9 c 0,0 0,-0.1 0.1,-0.2 C 17.1,7.6 17.1,7.6 17.1,7.5 17.1,7.5 17,7.4 17,7.3 16.9,7.1 16.9,7.1 16.9,7 c 0,-0.1 0,-0.1 0.1,-0.2 0.1,-0.1 0.3,-0.1 0.5,0 0.3,0.1 0.5,0.1 0.5,0.2 0,0 0.1,0.1 0.2,0.1 0.1,0.1 0.2,0.1 0.3,0.2 l 0.2,0.2 h -0.1 c 0.1,0.1 0.2,0.2 0.2,0.3 0.1,0.1 0,0.2 -0.1,0.2 0.1,0 0.2,0.1 0.3,0.1 0.2,0.1 0.2,0.1 0,0.2 h 0.2 C 19.3,8.2 19.4,8.2 19.4,8.2 L 19.5,8.1 19.6,8 h 0.2 c 0,0 0.1,0 0.1,-0.1 0,-0.1 0.1,-0.1 0.1,-0.2 0,-0.1 0.1,-0.1 0.1,-0.1 h 0.1 c 0.1,0 0.1,0.1 0.1,0.1 0.1,0 0.1,0.1 0.1,0.1 v 0.1 l 0.2,0.2 c 0.1,0.1 0.2,0.1 0.2,0.2 0,0.1 0.1,0.2 0.1,0.3 0,0.1 0,0.2 0.1,0.3 0.1,0 0.2,0.1 0.3,0.1 h 0.4 c 0.1,0 0.1,0 0.1,0.1 0.1,0 0.1,-0.1 0.1,-0.1 0,0.2 0,0.3 0.1,0.4 0.1,0.1 0.2,0.1 0.3,0.1 v 0.4 c -0.1,0 -0.2,0.1 -0.3,0.1 -0.2,0 -0.3,0.1 -0.3,0.1 -0.1,0 -0.2,0.1 -0.3,0.2 -0.4,0 -0.4,0.1 -0.4,0.1 -0.2,-0.2 -0.5,-0.3 -0.8,-0.2 -0.4,0.1 -0.6,0.1 -0.8,0.2 -0.2,0.1 -0.3,0.2 -0.4,0.3 0,0 -0.1,0 -0.1,0.1 0,0.1 -0.1,0.1 -0.1,0.2 l 0.1,-0.1 0.2,-0.2 c 0.3,-0.2 0.5,-0.3 0.7,-0.3 0.2,0.1 0.3,0.2 0.1,0.3 h -0.4 c 0.1,0 0.2,0.1 0.3,0.1 0.1,0.1 0.1,0.1 0.1,0.2 0.2,0.1 0.2,0.3 0.1,0.4 -0.2,0.2 -0.4,0.2 -0.5,0.2 v 0.1 l -0.3,0.2 c 0,0 -0.1,0.1 -0.2,0.1 -0.2,0.1 -0.3,0.1 -0.3,0.2 -0.1,0 -0.1,0.1 -0.1,0.2 v 0.2 h -0.1 c 0,0.1 -0.1,0.2 -0.3,0.2 -0.2,0.1 -0.3,0.1 -0.4,0.2 0.1,0.1 0.1,0.2 0,0.3 -0.2,0.2 -0.3,0.1 -0.4,0 0,0 -0.1,0.1 -0.1,0.2 0,0.1 0,0.2 -0.1,0.2 0.1,0.1 0.1,0.2 0,0.3 h 0.1 l 0.1,0.1 0.1,0.1 c -0.1,0.1 -0.1,0.2 -0.2,0.2 0,0.2 0,0.4 -0.3,0.5 0,0 -0.1,0.1 -0.2,0.1 -0.1,0 -0.2,0.1 -0.3,0.1 0,0.1 -0.1,0.1 -0.1,0.1 -0.2,0.1 -0.2,0.2 -0.3,0.3 v 0.3 c 0,0.1 0.1,0.2 0.3,0.2 v 0.4 -0.4 0.5 c 0,0.1 -0.1,0.2 -0.1,0.2 H 16.1 C 16,16.6 15.9,16.4 15.8,16 c 0,-0.1 -0.1,-0.2 -0.2,-0.4 -0.1,0 -0.2,0.1 -0.2,0.1 h -0.1 l -0.1,-0.1 -0.1,-0.1 c 0,0 -0.2,-0.1 -0.3,-0.1 -0.2,0 -0.3,-0.1 -0.3,-0.1 -0.3,0.2 -0.4,0.1 -0.5,-0.2 v 0.4 c -0.1,0.1 -0.2,0.1 -0.4,0 -0.1,0 -0.2,-0.1 -0.5,0 h -0.5 l 0.1,0.1 0.1,0.1 c -0.1,0 -0.1,0.1 -0.1,0.1 h -0.3 c -0.1,0 -0.1,0.1 -0.2,0.2 L 12,16.2 c 0.1,0.2 0.1,0.3 0.1,0.4 C 12,16.7 12,16.8 12,17 v 0.5 c 0,0.2 0.1,0.4 0.2,0.6 0.1,0.2 0.2,0.4 0.4,0.5 0.1,0.1 0.2,0.1 0.4,0.1 h 0.4 c 0.1,0 0.2,-0.1 0.2,-0.1 0,0 0,-0.1 0.1,-0.2 0.1,-0.1 0.1,-0.2 0.1,-0.2 0.1,-0.3 0.3,-0.4 0.5,-0.4 0.1,-0.1 0.2,0 0.3,0 0.1,0.1 0.1,0.1 0.1,0.2 0,0 -0.1,0.1 -0.1,0.2 0,0.1 0,0.2 -0.1,0.3 -0.1,0.1 -0.1,0.2 -0.1,0.2 -0.1,0.1 -0.1,0.2 -0.1,0.4 v 0.3 h 0.3 v -0.2 c 0.1,0.1 0.2,0.2 0.3,0.2 0.1,0.1 0.2,0 0.3,-0.1 0,0.1 0.1,0.2 0.2,0.3 0.1,0.2 0.2,0.3 0.2,0.4 0,0 0.1,0.1 0.1,0.2 v 0.2 c 0,0.1 -0.1,0.1 -0.2,0.1 -0.1,0 -0.1,0.1 -0.1,0.1 v 0.3 c 0,0.1 0.1,0.1 0.1,0.2 v 0.1 c 0.1,0.1 0.1,0.2 0.2,0.3 l 1.2,-0.2 c 0,-0.1 0.1,-0.3 0.2,-0.4 0,-0.1 -0.1,-0.1 -0.1,-0.2 -0.2,-0.3 -0.4,-0.6 -0.7,-0.9 -0.2,-0.2 -0.2,-0.4 -0.2,-0.5 0,-0.1 0,-0.3 0.2,-0.5 0.2,-0.3 0.5,-0.7 1.1,-1.1 0.6,-0.6 0.9,-0.8 1.2,-0.8 0.1,0 0.3,0 0.5,0.1 l 0.1,0.1 1.1,0.9 c 0.1,-0.1 0.2,-0.1 0.4,-0.2 0.1,-0.6 0.2,-1 0.2,-1.4 v -0.2 c 0.1,-0.3 0.3,-0.7 0.8,-0.7 h 2.2 c 0.1,0 0.3,0 0.6,0.2 0.1,0.1 0.1,0.2 0.2,0.2 l 0.1,0.1 v 0.1 l 0.2,1.5 c 0.1,0 0.3,0.1 0.4,0.2 l 1.2,-0.9 c 0.1,-0.1 0.1,-0.1 0.2,-0.1 0.1,-0.6 0.1,-1.1 0.1,-1.7 0,-2.3 -0.5,-4.3 -1.6,-6.2 C 24.2,7 22.8,5 20.9,3.9 19,2.8 16.9,2.3 14.7,2.3 12.5,2.3 10.4,2.8 8.5,3.9 6.6,5 5,6.5 3.9,8.4 c -1.1,1.9 -1.6,4 -1.6,6.2 0,2.2 0.5,4.3 1.6,6.2 1.1,1.9 2.6,3.4 4.5,4.5 1.9,1.1 4,1.6 6.2,1.6 0.6,0 1.1,0 1.7,-0.1 0.1,0.1 0.1,0 0.2,-0.1 z M 18.8,11 c 0,0 0,0.1 0,0 0,0.1 0,0.1 0,0 z"
       inkscape:connector-curvature="0" />
  </g>
</svg>
