<svg viewBox="0 0 32 32" xmlns="http://www.w3.org/2000/svg"><path d="m24.367187 7.0307425-6.726562 7.0220775 1.3125 1.152879 6.726562-7.022078c-.247912-.2270408-.828444-.7090127-1.3125-1.1528785zm-16.7343746.1048071-1.3125 1.1528785 6.6650396 6.8779679 1.319336-1.165979zm7.4921876 13.1008914v3.563443h1.75v-3.563443c-.695.0074-1.23339.0011-1.75 0z" fill="#4285f4" stroke-width="1.713067"/><path d="m4.6250001 2a2.6249928 2.625 0 0 0 -2.625 2.625 2.6249928 2.625 0 0 0 2.625 2.6250001 2.6249928 2.625 0 0 0 2.625-2.6250001 2.6249928 2.625 0 0 0 -2.625-2.625zm22.7499999 0a2.6249928 2.625 0 0 0 -2.625 2.625 2.6249928 2.625 0 0 0 2.625 2.6250001 2.6249928 2.625 0 0 0 2.625-2.6250001 2.6249928 2.625 0 0 0 -2.625-2.625zm-11.375 12.25a2.6249928 2.625 0 0 0 -2.625 2.625 2.6249928 2.625 0 0 0 2.625 2.625 2.6249928 2.625 0 0 0 2.625-2.625 2.6249928 2.625 0 0 0 -2.625-2.625zm0 10.5a2.6249928 2.625 0 0 0 -2.625 2.625 2.6249928 2.625 0 0 0 2.625 2.625 2.6249928 2.625 0 0 0 2.625-2.625 2.6249928 2.625 0 0 0 -2.625-2.625z" fill="#f25022" stroke-width="1.75"/></svg>