<?xml version="1.0" encoding="UTF-8" standalone="no"?>
<svg
   xmlns:dc="http://purl.org/dc/elements/1.1/"
   xmlns:cc="http://creativecommons.org/ns#"
   xmlns:rdf="http://www.w3.org/1999/02/22-rdf-syntax-ns#"
   xmlns:svg="http://www.w3.org/2000/svg"
   xmlns="http://www.w3.org/2000/svg"
   xmlns:sodipodi="http://sodipodi.sourceforge.net/DTD/sodipodi-0.dtd"
   xmlns:inkscape="http://www.inkscape.org/namespaces/inkscape"
   viewBox="0 0 32 32"
   version="1.1"
   id="svg6"
   sodipodi:docname="preferences-desktop.svg"
   inkscape:version="0.92.4 5da689c313, 2019-01-14">
  <metadata
     id="metadata12">
    <rdf:RDF>
      <cc:Work
         rdf:about="">
        <dc:format>image/svg+xml</dc:format>
        <dc:type
           rdf:resource="http://purl.org/dc/dcmitype/StillImage" />
      </cc:Work>
    </rdf:RDF>
  </metadata>
  <defs
     id="defs10" />
  <sodipodi:namedview
     pagecolor="#ffffff"
     bordercolor="#666666"
     borderopacity="1"
     objecttolerance="10"
     gridtolerance="10"
     guidetolerance="10"
     inkscape:pageopacity="0"
     inkscape:pageshadow="2"
     inkscape:window-width="1366"
     inkscape:window-height="703"
     id="namedview8"
     showgrid="false"
     inkscape:zoom="7.375"
     inkscape:cx="-15.389831"
     inkscape:cy="16"
     inkscape:window-x="0"
     inkscape:window-y="0"
     inkscape:window-maximized="1"
     inkscape:current-layer="svg6" />
  <path
     fill="#375273"
     d="M23.7 9.2v2.2c0 .1 0 .1-.1.2s-.1.1-.2.1l-1.9.3c-.1.4-.3.6-.4.9.2.4.6.8 1.1 1.4.1.1.1.1.1.2s0 .1-.1.2c-.2.2-.5.6-1 1.1-.5.5-.8.7-.9.7-.1 0-.1 0-.3-.1l-1.4-1.1c-.3.1-.6.3-.9.4-.1.9-.2 1.5-.3 1.9-.1.2-.1.3-.4.3h-2.2c-.1 0-.1 0-.2-.1s-.1-.1-.1-.2l-.3-1.9c-.4-.1-.6-.2-.9-.4l-1.4 1.1c-.1.1-.1.1-.2.1s-.1-.1-.2-.1c-.9-.8-1.4-1.3-1.7-1.7-.1-.1-.1-.1-.1-.2s0-.1.1-.2.3-.4.5-.6.4-.6.6-.7c-.2-.4-.3-.6-.4-1l-1.8-.3c-.1 0-.1-.1-.2-.1-.1-.1-.1-.1-.1-.2V9.1c0-.1 0-.1.1-.2s.1-.1.2-.1l1.9-.3c.1-.3.2-.6.4-.9-.3-.4-.6-.9-1.1-1.4-.3-.1-.3-.2-.3-.3s0-.1.1-.2c.1-.3.5-.6 1-1.1.5-.5.8-.7.9-.7.1 0 .1 0 .3.1l1.4 1.1c.3-.1.6-.3.9-.4.1-.9.2-1.5.3-1.9.1-.2.1-.3.4-.3h2.2c.1 0 .1 0 .2.1s.1.1.1.2l.3 1.9c.4.1.6.2.9.4L20.2 4c.1-.1.1-.1.2-.1s.1 0 .2.1c.9.8 1.4 1.4 1.7 1.7.1.1.1.1.1.2s0 .1-.1.2-.3.4-.5.6c-.2.3-.4.6-.6.7.1.4.3.6.4 1l1.9.3c.1 0 .1.1.2.1v.4zm-5.9 2.9c.5-.5.7-1.1.7-1.8s-.2-1.3-.7-1.8c-.5-.5-1.1-.8-1.8-.8s-1.3.3-1.8.8-.7 1.1-.7 1.8.2 1.3.7 1.8 1.1.7 1.8.7 1.3-.2 1.8-.7z"
     id="path2"
     style="fill:#fdbc4b;fill-opacity:1" />
  <path
     fill="#375273"
     d="M28.2 6.5c-.4-.4-.9-.6-1.5-.6h-3.9V6c0 .1 0 .3-.2.5-.1.1-.2.2-.3.4-.1.1-.2.2-.2.3-.1.2-.2.3-.3.5h4.9c.1 0 .2 0 .3.1.1.1.1.2.1.3v11.1c0 .1 0 .2-.1.3s-.2.1-.3.1H5.3c-.1 0-.2 0-.3-.1s-.1-.2-.1-.3V8c0-.1 0-.2.1-.3.1-.1.2-.1.3-.1h4.9l-.1-.1c-.2-.4-.5-.7-.7-1-.3-.2-.3-.5-.3-.6v-.1H5.3c-.6 0-1.1.2-1.5.6-.4.5-.7 1-.7 1.6v14.6c0 .6.2 1.1.6 1.5.4.4.9.6 1.5.6h7.3c0 .3-.1.7-.2 1-.1.4-.3.7-.4.9-.1.3-.2.5-.2.6 0 .2.1.4.3.6.2.2.4.3.6.3h6.9c.2 0 .4-.1.6-.3.2-.2.3-.4.3-.6 0-.1-.1-.3-.2-.6s-.3-.6-.4-1c-.1-.4-.2-.7-.2-1h7.3c.6 0 1.1-.2 1.5-.6.4-.4.6-.9.6-1.5V8c-.1-.6-.4-1.1-.8-1.5z"
     id="path4"
     style="fill:#1d99f3;fill-opacity:1" />
</svg>
