<?xml version="1.0" encoding="UTF-8" standalone="no"?>
<svg
   xmlns:dc="http://purl.org/dc/elements/1.1/"
   xmlns:cc="http://creativecommons.org/ns#"
   xmlns:rdf="http://www.w3.org/1999/02/22-rdf-syntax-ns#"
   xmlns:svg="http://www.w3.org/2000/svg"
   xmlns="http://www.w3.org/2000/svg"
   xmlns:sodipodi="http://sodipodi.sourceforge.net/DTD/sodipodi-0.dtd"
   xmlns:inkscape="http://www.inkscape.org/namespaces/inkscape"
   viewBox="0 0 32 32"
   version="1.1"
   id="svg4"
   sodipodi:docname="preferences-web-browser-cookies.svg"
   inkscape:version="0.92.4 5da689c313, 2019-01-14">
  <metadata
     id="metadata10">
    <rdf:RDF>
      <cc:Work
         rdf:about="">
        <dc:format>image/svg+xml</dc:format>
        <dc:type
           rdf:resource="http://purl.org/dc/dcmitype/StillImage" />
        <dc:title></dc:title>
      </cc:Work>
    </rdf:RDF>
  </metadata>
  <defs
     id="defs8" />
  <sodipodi:namedview
     pagecolor="#ffffff"
     bordercolor="#666666"
     borderopacity="1"
     objecttolerance="10"
     gridtolerance="10"
     guidetolerance="10"
     inkscape:pageopacity="0"
     inkscape:pageshadow="2"
     inkscape:window-width="1366"
     inkscape:window-height="703"
     id="namedview6"
     showgrid="false"
     inkscape:zoom="7.375"
     inkscape:cx="32.271186"
     inkscape:cy="26.847458"
     inkscape:window-x="0"
     inkscape:window-y="0"
     inkscape:window-maximized="1"
     inkscape:current-layer="svg4" />
  <g
     id="g848">
    <path
       inkscape:connector-curvature="0"
       id="path2-3"
       d="M 16.889411,2.811426 C 16.287209,2.798448 15.631894,2.907287 14.79484,3.1288838 14.188012,3.2895313 12.823968,3.6009461 11.657086,3.8531677 a 6.3001194,6.1464092 0 0 1 0.24473,1.6886619 6.3001194,6.1464092 0 0 1 -6.3001189,6.1464094 6.3001194,6.1464092 0 0 1 -2.079532,-0.352138 c -0.015211,0.05638 -0.046179,0.134799 -0.046487,0.1694 -0.0021,0.246615 -0.3193064,1.334604 -0.7041146,2.418281 -0.7978033,2.246719 -0.8532167,3.03383 -0.3240293,4.601804 0.2066162,0.612192 0.4423951,1.520003 0.5236427,2.018124 0.2097613,1.285976 0.5929847,1.948655 1.9797246,3.420007 0.6703725,0.71128 1.6230613,1.904126 2.1178136,2.650372 0.7965944,1.201518 1.0718057,1.443812 2.39946,2.111495 1.6053629,0.807341 2.8333489,1.02529 7.1970119,1.281836 1.425151,0.276552 2.200935,0.06995 3.398892,-0.572225 0.714173,-0.382938 1.657529,-0.811804 2.097305,-0.952373 1.349035,-0.431194 3.112412,-1.473616 3.602608,-2.130169 0.25614,-0.343067 0.899401,-1.497991 1.430105,-2.566339 0.634358,-1.277001 1.28986,-2.25871 1.914098,-2.867791 1.306036,-0.931128 0.948847,-2.053191 0.948847,-3.524047 0,-2.52352 -0.02164,-2.65686 -0.773843,-4.671165 C 28.857371,11.582952 28.352913,10.207468 28.162085,9.6674469 27.876996,8.8606973 27.507363,8.4237191 26.085287,7.2171527 23.906503,5.3685662 23.254578,4.9637267 21.762158,4.5280989 21.102492,4.3355453 19.957156,3.8681112 19.217774,3.4903588 18.348864,3.0464316 17.663667,2.828111 16.889409,2.811426 Z"
       style="opacity:0.2;stroke-width:0.69140798" />
    <g
       transform="matrix(0.7,0,0,0.68292141,31.288139,2.6077523)"
       id="g72">
      <path
         style="fill:#ffaa46"
         d="m -20.569612,-0.7020323 c -0.860288,-0.0190034 -1.796453,0.1403685 -2.992244,0.4648526 -0.866897,0.2352357 -2.815531,0.6912396 -4.482506,1.060567 a 9.0001706,9.0001706 0 0 1 0.349615,2.4727031 9.0001706,9.0001706 0 0 1 -9.00017,9.0001706 9.0001706,9.0001706 0 0 1 -2.97076,-0.515635 c -0.02173,0.08256 -0.06597,0.197386 -0.06641,0.248052 -0.003,0.361119 -0.456152,1.954258 -1.005878,3.541083 -1.139719,3.289865 -1.218881,4.442429 -0.462899,6.738409 0.295166,0.896431 0.631993,2.225737 0.748061,2.955134 0.299659,1.883052 0.847121,2.85341 2.828178,5.007907 0.957675,1.041525 2.318659,2.788207 3.025448,3.880933 1.137992,1.759379 1.531151,2.11417 3.4278,3.091856 2.293376,1.182187 4.047641,1.50133 10.281445,1.876989 2.035931,0.404954 3.144194,0.102431 4.85556,-0.837907 1.020248,-0.560736 2.367899,-1.188723 2.996151,-1.394558 1.927192,-0.631395 4.446302,-2.157811 5.146582,-3.1192 0.365915,-0.502352 1.284859,-2.193504 2.043007,-3.757883 0.906227,-1.86991 1.842658,-3.307424 2.734427,-4.199299 1.865765,-1.363449 1.355495,-3.006482 1.355495,-5.160253 0,-3.695183 -0.03091,-3.890433 -1.10549,-6.839974 -0.608325,-1.669825 -1.32898,-3.683943 -1.601592,-4.4746943 -0.40727,-1.181321 -0.935316,-1.821187 -2.966854,-3.587959 -3.112549,-2.7068805 -4.043869,-3.2996858 -6.175898,-3.9375745 -0.94238,-0.2819557 -2.578575,-0.9664182 -3.634835,-1.51956 -1.241299,-0.6500415 -2.220153,-0.9697277 -3.326235,-0.9941595 z"
         id="path4"
         inkscape:connector-curvature="0" />
    </g>
    <g
       style="fill:#a02c2c;fill-opacity:1"
       transform="matrix(0.7,0,0,0.68292141,31.288139,2.6077523)"
       id="g69">
      <path
         style="opacity:0.1;fill:#a02c2c;fill-opacity:1"
         d="m -18.970403,6.3109347 c -0.31191,0.03823 -0.618471,0.152344 -0.933593,0.251953 -1.527748,0.539486 -3.207635,1.441693 -3.597657,2.8125 -0.230995,0.6823933 -0.246965,0.9221983 -0.09375,1.3984373 0.05983,0.185941 0.12882,0.461989 0.152344,0.613282 0.06074,0.390588 0.170752,0.592171 0.572266,1.039062 0.194101,0.216036 0.470032,0.578031 0.613281,0.804688 0.230646,0.364936 0.310905,0.43783 0.695312,0.640625 0.446791,0.199089 0.496997,-0.517026 2.083985,0.388672 0.412638,0.084 0.63752,0.02122 0.984375,-0.173829 0.206782,-0.116309 0.48009,-0.246367 0.607422,-0.289062 0.390598,-0.130965 0.901037,-0.44707 1.042968,-0.646484 1.030765,-1.477428 1.361028,-2.653791 1.019532,-4.1406253 -0.123295,-0.34636 -0.270919,-0.763716 -0.326172,-0.927735 -0.08254,-0.245034 -0.189817,-0.377672 -0.601563,-0.74414 -0.630844,-0.561469 -0.817885,-0.684094 -1.25,-0.816407 -0.33821,-0.210567 -0.656839,-0.249169 -0.96875,-0.210937 z m -13.234375,7.9921873 c -0.256589,-0.028 -0.503821,0.05005 -0.722656,0.263672 -0.535323,-0.02871 -0.707933,0.0069 -1.015625,0.214844 -0.120132,0.08119 -0.30323,0.186555 -0.40625,0.234375 -0.265962,0.123461 -0.386389,0.244979 -0.621094,0.626953 -0.892032,1.271752 -0.781902,1.791637 -0.599609,2.833985 0.02655,0.316244 0.120155,0.465926 0.332031,0.677734 0.126334,0.126265 0.274879,0.297225 0.332031,0.380859 0.87023,1.087942 2.789508,0.761425 3.847657,0.521485 0.221292,-0.15982 0.490254,-0.350417 0.595703,-0.423828 0.157536,-0.10967 0.229119,-0.214856 0.404297,-0.587891 0.26839,-0.571536 0.316479,-0.732078 0.320312,-1.072266 0.158705,-0.576043 -0.153485,-0.954675 -0.427734,-1.371093 -0.415115,-1.17946 -1.269293,-2.214836 -2.039063,-2.298829 z m 21.607422,5.996094 c -0.665413,-0.0244 -1.351471,0.118311 -1.839844,0.238281 -0.204267,0.15982 -0.451491,0.350418 -0.548828,0.423828 -0.145417,0.10967 -0.211345,0.214855 -0.373046,0.587891 -0.247744,0.571536 -0.293339,0.732077 -0.296876,1.072266 -0.146497,0.576043 0.143333,0.954676 0.396485,1.371093 0.510907,1.572614 1.738873,2.889638 2.546875,2.035157 0.49414,0.02871 0.655431,-0.0069 0.939453,-0.214844 0.110889,-0.08119 0.279905,-0.186554 0.375,-0.234375 0.245502,-0.12346 0.355616,-0.24498 0.572266,-0.626953 1.777147,-1.476918 1.049951,-1.862399 0.552734,-2.833985 -0.02451,-0.316244 -0.10911,-0.465927 -0.304687,-0.677734 -0.116614,-0.126266 -0.255837,-0.297225 -0.308594,-0.380859 -0.401642,-0.543971 -1.045524,-0.735361 -1.710938,-0.759766 z m -17.425781,3.998047 c -0.242484,-0.0086 -0.424959,0.06465 -0.673828,0.210938 -0.197821,0.116309 -0.458263,0.246367 -0.580078,0.289062 -0.373672,0.130966 -0.862267,0.447069 -0.998047,0.646484 -2.005924,1.009866 -1.437246,2.591467 -0.97461,4.140625 0.117953,0.34636 0.257689,0.763716 0.310547,0.927735 0.07896,0.245034 0.180315,0.377672 0.574219,0.74414 0.603508,0.561469 0.783876,0.684095 1.197266,0.816407 0.64711,0.421135 1.217378,0.158203 1.820312,-0.04102 2.676572,-0.539487 4.247436,-1.441693 3.441406,-2.8125 0.220986,-0.682393 0.236419,-0.922198 0.08984,-1.398437 -0.05723,-0.18594 -0.123978,-0.46199 -0.146484,-0.613282 -0.05811,-0.390589 -0.162759,-0.59217 -0.546875,-1.039062 -0.837212,-1.576029 -1.616873,-0.881609 -3.246094,-1.833985 -0.09869,-0.021 -0.18675,-0.03424 -0.267578,-0.03711 z m 12.423828,6 c -0.238617,-0.0108 -0.492221,0.08128 -0.804687,0.199219 -1.330559,0.600572 -2.281744,0.549337 -3.148438,1.529297 -0.322893,0.67268 -0.03268,1.471564 0.21875,2.259765 0.09587,0.263569 0.208988,0.582218 0.251953,0.707031 0.06418,0.186464 0.148571,0.287538 0.46875,0.566407 0.490553,0.427259 0.63664,0.520409 0.972657,0.621093 1.148927,0.451135 1.318258,-0.512859 2.162109,-1.068359 1.112739,-0.588544 2.076392,-0.519649 1.632812,-1.222656 0.179625,-0.519279 0.191406,-0.702051 0.07227,-1.064453 -0.04652,-0.141494 -0.09889,-0.351668 -0.117187,-0.466797 -0.04723,-0.297225 -0.13309,-0.450946 -0.445313,-0.791016 -0.510049,-0.947592 -0.865977,-1.251534 -1.263672,-1.269531 z"
         id="path6"
         inkscape:connector-curvature="0" />
      <path
         style="fill:#a02c2c;fill-opacity:1"
         d="m -23.501122,8.3753967 c -0.230995,0.682393 -0.246935,0.921324 -0.09372,1.397563 0.05983,0.18594 0.127955,0.4618403 0.151479,0.6131333 0.06074,0.390588 0.171851,0.591761 0.573365,1.038652 0.194101,0.216036 0.47002,0.578202 0.613269,0.804859 0.230646,0.364936 0.310142,0.438385 0.694549,0.64118 0.44679,0.199089 0.496999,-0.516084 2.083987,0.389614 0.412638,0.084 0.63709,0.02109 0.983945,-0.173955 0.206782,-0.116309 0.480059,-0.246464 0.607391,-0.289159 0.390598,-0.130965 0.900911,-0.447446 1.042842,-0.64686 1.030765,-1.477428 1.360711,-2.6530273 1.019215,-4.1398613 -0.123295,-0.34636 -0.2693,-0.763901 -0.324553,-0.92792 -0.08254,-0.245034 -0.189879,-0.377827 -0.601625,-0.744295 -0.630844,-0.561469 -0.819522,-0.684635 -1.251637,-0.816948 -0.676421,-0.4211347 -1.270731,-0.157249 -1.900975,0.04197 -1.527748,0.539486 -3.207513,1.441219 -3.597535,2.812026 z"
         id="path8"
         inkscape:connector-curvature="0" />
      <path
         style="fill:#a02c2c;fill-opacity:1"
         d="m -23.906656,28.218151 c 0.220986,-0.682393 0.236235,-0.921324 0.08966,-1.397563 -0.05723,-0.18594 -0.12241,-0.46184 -0.144916,-0.613132 -0.05811,-0.390589 -0.164403,-0.591761 -0.548519,-1.038653 -0.837212,-1.576029 -1.615607,-0.883277 -3.244828,-1.835653 -0.394757,-0.084 -0.609483,-0.0211 -0.941308,0.173955 -0.197821,0.116309 -0.459256,0.246464 -0.581071,0.289159 -0.373672,0.130966 -0.861872,0.447446 -0.997652,0.646861 -2.005924,1.009866 -1.437687,2.590702 -0.97505,4.13986 0.117952,0.34636 0.257631,0.763901 0.310489,0.92792 0.07896,0.245034 0.181651,0.377827 0.575555,0.744295 0.603508,0.561469 0.78401,0.684636 1.1974,0.816948 0.64711,0.421135 1.215666,0.157249 1.8186,-0.04197 2.676572,-0.539487 4.247673,-1.44122 3.441644,-2.812027 z"
         id="path10"
         inkscape:connector-curvature="0" />
      <path
         style="fill:#a02c2c;fill-opacity:1"
         d="m -10.711799,25.027837 c 0.49414,0.02871 0.654592,-0.0083 0.938614,-0.216247 0.110889,-0.08119 0.279425,-0.186681 0.37452,-0.234502 0.245502,-0.12346 0.356502,-0.244925 0.573152,-0.626898 1.777147,-1.476918 1.049976,-1.860749 0.552759,-2.832335 -0.02451,-0.316244 -0.109373,-0.46618 -0.304951,-0.677987 -0.116614,-0.126266 -0.255213,-0.297925 -0.30797,-0.381559 -0.803283,-1.087942 -2.574922,-0.76156 -3.551668,-0.52162 -0.204268,0.15982 -0.451025,0.350581 -0.548362,0.423992 -0.145417,0.109669 -0.212111,0.214493 -0.373812,0.587529 -0.247744,0.571536 -0.292359,0.733373 -0.295896,1.073562 -0.146497,0.576043 0.142297,0.953255 0.395449,1.369673 0.510907,1.572613 1.74016,2.890874 2.548162,2.036393 z"
         id="path12"
         inkscape:connector-curvature="0" />
      <path
         style="fill:#a02c2c;fill-opacity:1"
         d="m -32.926846,13.565708 c -0.535323,-0.02871 -0.709147,0.0083 -1.016839,0.216247 -0.120132,0.08119 -0.302713,0.186682 -0.405733,0.234502 -0.265962,0.123461 -0.386214,0.244925 -0.620919,0.626899 -0.892033,1.271752 -0.781118,1.789986 -0.598825,2.832334 0.02655,0.316245 0.118488,0.46618 0.330364,0.677988 0.126334,0.126265 0.276484,0.297924 0.333637,0.381558 0.870229,1.087942 2.789516,0.76156 3.847665,0.52162 0.221292,-0.15982 0.488614,-0.350581 0.594063,-0.423992 0.157536,-0.109669 0.229788,-0.214493 0.404966,-0.587528 0.26839,-0.571536 0.316723,-0.733374 0.320556,-1.073562 0.158705,-0.576043 -0.154157,-0.953256 -0.428406,-1.369674 -0.553486,-1.572613 -1.885185,-2.890874 -2.760526,-2.036393 z"
         id="path14"
         inkscape:connector-curvature="0" />
      <path
         style="fill:#a02c2c;fill-opacity:1"
         d="m -13.845786,32.887723 c 0.179625,-0.519279 0.19202,-0.701097 0.07288,-1.063499 -0.04652,-0.141494 -0.0995,-0.351445 -0.117793,-0.466574 -0.04723,-0.297225 -0.133633,-0.45031 -0.445856,-0.79038 -0.816078,-1.516148 -1.23435,-1.384823 -2.067593,-1.070315 -1.330559,0.600572 -2.281067,0.549109 -3.147761,1.529069 -0.322893,0.67268 -0.03309,1.471659 0.218341,2.25986 0.09587,0.263569 0.209411,0.581304 0.252376,0.706117 0.06418,0.186463 0.147652,0.287515 0.467831,0.566384 0.490553,0.427259 0.637271,0.520985 0.973288,0.62167 1.148927,0.451134 1.318763,-0.512622 2.162614,-1.068122 1.112739,-0.588544 2.075257,-0.521199 1.631677,-1.224206 z"
         id="path16"
         inkscape:connector-curvature="0" />
    </g>
    <path
       inkscape:connector-curvature="0"
       id="path18"
       d="m 16.889131,2.1288371 c -0.602202,-0.012978 -1.257478,0.095855 -2.094532,0.3174518 -0.606827,0.1606475 -1.970812,0.4720486 -3.137695,0.7242702 a 6.3001194,6.1464092 0 0 1 0.15039,0.6482418 c 1.126863,-0.2450761 2.409561,-0.5366425 2.987305,-0.6895906 0.837054,-0.2215971 1.49233,-0.3304296 2.094532,-0.3174518 0.774257,0.016685 1.459411,0.2349928 2.32832,0.67892 0.739382,0.3777523 1.88467,0.8451668 2.544336,1.0377204 1.49242,0.4356279 2.144263,0.8404165 4.323047,2.6890031 1.422076,1.2065664 1.791669,1.6434981 2.076758,2.4502477 0.190828,0.5400213 0.695266,1.9154473 1.121093,3.0558063 0.752206,2.014305 0.773828,2.147556 0.773828,4.671076 0,0.354513 0.02097,0.686842 0.03418,1.003041 0.02484,-0.508798 -0.03418,-1.064558 -0.03418,-1.685962 0,-2.52352 -0.02162,-2.656772 -0.773828,-4.671076 C 28.856858,10.900175 28.35242,9.5247491 28.161592,8.9847281 27.876503,8.1779787 27.50691,7.741047 26.084834,6.5344805 23.90605,4.6858939 23.254207,4.2811053 21.761787,3.8454775 21.102121,3.6529239 19.956833,3.1855094 19.217451,2.8077571 18.348542,2.3638298 17.663388,2.1455221 16.889131,2.1288371 Z m -5.002539,3.02913 A 6.3001194,6.1464092 0 0 1 5.6016306,11.005482 6.3001194,6.1464092 0 0 1 3.5221385,10.653351 c -0.015211,0.05638 -0.046179,0.134795 -0.046487,0.169396 -0.0021,0.246616 -0.3192931,1.334558 -0.7041013,2.418236 -0.5236854,1.474766 -0.7222201,2.321224 -0.6507816,3.171849 0.056133,-0.657737 0.2645286,-1.401189 0.6507816,-2.488928 0.3848082,-1.083677 0.7020013,-2.17162 0.7041013,-2.418235 3.052e-4,-0.0346 0.031276,-0.113015 0.046487,-0.169397 a 6.3001194,6.1464092 0 0 0 2.0794921,0.352131 6.3001194,6.1464092 0 0 0 6.3000004,-6.1462926 6.3001194,6.1464092 0 0 0 -0.01504,-0.3841433 z"
       style="opacity:0.2;fill:#ffffff;stroke-width:0.69140798" />
  </g>
</svg>
