<?xml version="1.0" encoding="UTF-8" standalone="no"?>
<svg
   xmlns:dc="http://purl.org/dc/elements/1.1/"
   xmlns:cc="http://creativecommons.org/ns#"
   xmlns:rdf="http://www.w3.org/1999/02/22-rdf-syntax-ns#"
   xmlns:svg="http://www.w3.org/2000/svg"
   xmlns="http://www.w3.org/2000/svg"
   xmlns:sodipodi="http://sodipodi.sourceforge.net/DTD/sodipodi-0.dtd"
   xmlns:inkscape="http://www.inkscape.org/namespaces/inkscape"
   viewBox="0 0 32 32"
   version="1.1"
   id="svg4"
   sodipodi:docname="preferences-other.svg"
   inkscape:version="0.92.4 5da689c313, 2019-01-14">
  <metadata
     id="metadata10">
    <rdf:RDF>
      <cc:Work
         rdf:about="">
        <dc:format>image/svg+xml</dc:format>
        <dc:type
           rdf:resource="http://purl.org/dc/dcmitype/StillImage" />
      </cc:Work>
    </rdf:RDF>
  </metadata>
  <defs
     id="defs8" />
  <sodipodi:namedview
     pagecolor="#ffffff"
     bordercolor="#666666"
     borderopacity="1"
     objecttolerance="10"
     gridtolerance="10"
     guidetolerance="10"
     inkscape:pageopacity="0"
     inkscape:pageshadow="2"
     inkscape:window-width="1366"
     inkscape:window-height="703"
     id="namedview6"
     showgrid="false"
     inkscape:zoom="7.375"
     inkscape:cx="16"
     inkscape:cy="16"
     inkscape:window-x="0"
     inkscape:window-y="0"
     inkscape:window-maximized="1"
     inkscape:current-layer="svg4" />
  <path
     d="m 20.436121,14.819534 v 2.600546 c 0,0.104022 0,0.208044 -0.09842,0.312066 -0.09842,0.104021 -0.09842,0.104021 -0.196835,0.104021 l -2.066761,0.312066 c -0.09842,0.312065 -0.196834,0.728153 -0.393669,1.040218 0.295252,0.416088 0.688921,0.936197 1.181007,1.560328 0.09842,0.104022 0.09842,0.208043 0.09842,0.312065 0,0.104022 0,0.208044 -0.09842,0.312066 -0.196835,0.312065 -0.590504,0.728153 -1.08259,1.248262 -0.492086,0.520109 -0.885754,0.832174 -1.082589,0.832174 -0.09842,0 -0.196834,0 -0.295251,-0.104021 l -1.476258,-1.248262 c -0.295252,0.208043 -0.688921,0.312065 -0.984172,0.416087 -0.09842,1.040218 -0.196835,1.768371 -0.295252,2.184458 -0.09842,0.208044 -0.196834,0.312066 -0.393669,0.312066 h -2.46043 c -0.09842,0 -0.196834,0 -0.295251,-0.104022 -0.09842,-0.104022 -0.09842,-0.104022 -0.09842,-0.208044 L 10.102315,22.621172 C 9.8070632,22.51715 9.5118116,22.413128 9.1181428,22.205084 l -1.5746751,1.144241 c -0.098417,0 -0.1968344,0.104021 -0.2952516,0.104021 -0.098417,0 -0.1968344,0 -0.2952516,-0.104021 -1.2794236,-1.248262 -1.8699268,-1.976415 -1.8699268,-2.184459 0,-0.104022 0,-0.208044 0.098417,-0.312065 0.098417,-0.104022 0.2952516,-0.416088 0.492086,-0.728153 0.1968344,-0.312066 0.492086,-0.728153 0.6889204,-0.936197 -0.1968344,-0.416087 -0.3936688,-0.832174 -0.492086,-1.14424 l -1.968344,-0.312065 c -0.098417,0 -0.1968344,-0.104022 -0.1968344,-0.104022 -0.098417,-0.104022 -0.098417,-0.208044 -0.098417,-0.312066 v -2.600546 c 0,-0.104021 0,-0.208043 0.098417,-0.312065 0.098417,-0.104022 0.098417,-0.104022 0.1968344,-0.104022 L 5.8703753,13.98736 C 5.9687925,13.675294 6.0672097,13.259207 6.2640441,12.947141 5.9687925,12.531054 5.5751237,12.010945 5.0830377,11.386814 4.9846205,11.282792 4.9846205,11.17877 4.9846205,11.074748 c 0,-0.104022 0,-0.208043 0.098417,-0.312065 0.1968344,-0.312066 0.5905032,-0.728153 1.0825892,-1.2482619 0.492086,-0.5201092 0.8857548,-0.8321747 1.0825892,-0.8321747 0.098417,0 0.1968344,0.1040219 0.2952516,0.1040219 L 9.0197254,10.03453 C 9.314977,9.8264863 9.6102286,9.7224643 10.003898,9.6184433 c 0.09842,-1.0402187 0.196834,-1.7683715 0.295251,-2.1844589 0.09842,-0.2080436 0.196835,-0.3120655 0.393669,-0.3120655 h 2.558847 c 0.09842,0 0.196835,0 0.295252,0.1040219 0.09842,0.1040218 0.09842,0.1040218 0.09842,0.2080436 l 0.295252,2.0804367 c 0.295251,0.1040222 0.590503,0.2080432 0.984172,0.4160872 l 1.574675,-1.14424 c 0.09842,-0.1040219 0.196834,-0.1040219 0.295251,-0.1040219 0.09842,0 0.196835,0 0.295252,0.1040219 1.279424,1.2482617 1.869927,1.9764147 1.869927,2.1844577 0,0.104022 0,0.208044 -0.09842,0.312066 -0.09842,0.104022 -0.295252,0.416087 -0.590504,0.728153 -0.295251,0.312065 -0.492086,0.624131 -0.590503,0.832174 0.196835,0.416088 0.393669,0.832175 0.492086,1.144241 l 1.968344,0.312065 c 0.09842,0 0.196835,0.104022 0.196835,0.104022 0.09842,0.208044 0.09842,0.312065 0.09842,0.416087 z m -6.101867,3.744786 c 0.688921,-0.728153 0.984172,-1.560327 0.984172,-2.496524 0,-0.936196 -0.295251,-1.872393 -0.984172,-2.496524 -0.68892,-0.728153 -1.476258,-1.040218 -2.362012,-1.040218 -0.885755,0 -1.77151,0.312065 -2.3620132,1.040218 -0.6889204,0.728153 -0.984172,1.560328 -0.984172,2.496524 0,0.936197 0.2952516,1.872393 0.984172,2.496524 0.6889202,0.728153 1.4762582,1.040219 2.3620132,1.040219 0.885754,0 1.771509,-0.312066 2.362012,-1.040219 z M 28.9,7.9540936 v 1.9764147 c 0,0.1040217 -0.68892,0.3120657 -1.968344,0.4160867 -0.09842,0.208044 -0.196834,0.52011 -0.393669,0.728153 0.492086,1.040219 0.688921,1.66435 0.688921,1.872393 0,0 0,0.104022 -0.09842,0.104022 -1.082589,0.624131 -1.574675,1.040218 -1.673092,1.040218 -0.09842,0 -0.295252,-0.208043 -0.590503,-0.624131 -0.295252,-0.416087 -0.590503,-0.728152 -0.688921,-0.936196 h -0.787337 c -0.09842,0.208044 -0.393669,0.520109 -0.688921,0.936196 -0.295251,0.416088 -0.492086,0.624131 -0.590503,0.624131 0,0 -0.590503,-0.312065 -1.673092,-1.040218 l -0.09842,-0.104022 c 0,-0.208043 0.196834,-0.832174 0.68892,-1.872393 C 20.82979,10.866705 20.731372,10.554639 20.632955,10.346595 19.353532,10.242574 18.664611,10.03453 18.664611,9.9305083 V 7.9540936 c 0,-0.1040218 0.688921,-0.3120655 1.968344,-0.4160873 0.09842,-0.3120655 0.196835,-0.5201092 0.393669,-0.7281528 -0.492086,-1.0402184 -0.68892,-1.6643494 -0.68892,-1.872393 0,0 0,-0.1040219 0.09842,-0.1040219 0,0 0.196834,-0.1040218 0.492086,-0.3120655 0.295251,-0.2080436 0.492086,-0.3120655 0.787337,-0.5201091 l 0.393666,-0.2080437 c 0.09842,0 0.295252,0.2080437 0.590503,0.624131 0.295252,0.4160873 0.590504,0.7281528 0.688921,0.9361965 h 0.787337 c 0.492086,-0.624131 0.885755,-1.1442402 1.181007,-1.5603275 h 0.09842 c 0,0 0.590503,0.3120655 1.673092,0.9361965 l 0.09842,0.1040218 c 0,0.2080437 -0.196835,0.8321747 -0.688921,1.872393 0.196835,0.2080437 0.295252,0.4160873 0.393669,0.7281528 C 28.21108,7.6420281 28.9,7.8500718 28.9,7.9540936 Z m 0,14.2509904 v 1.976415 c 0,0.104022 -0.68892,0.312066 -1.968344,0.416088 -0.09842,0.208043 -0.196834,0.520109 -0.393669,0.728152 0.492086,1.040219 0.688921,1.66435 0.688921,1.872393 0,0 0,0.104022 -0.09842,0.104022 -1.082589,0.624131 -1.574675,1.040219 -1.673092,1.040219 -0.09842,0 -0.295252,-0.208044 -0.590503,-0.624131 -0.295252,-0.416088 -0.590503,-0.728153 -0.688921,-0.936197 h -0.787337 c -0.09842,0.208044 -0.393669,0.520109 -0.688921,0.936197 -0.295251,0.416087 -0.492086,0.624131 -0.590503,0.624131 0,0 -0.590503,-0.312066 -1.673092,-1.040219 l -0.09842,-0.104022 c 0,-0.208043 0.196834,-0.832174 0.68892,-1.872393 -0.196834,-0.208043 -0.295252,-0.520109 -0.393669,-0.728152 -1.279423,-0.104022 -1.968344,-0.312066 -1.968344,-0.416088 v -1.976415 c 0,-0.104021 0.688921,-0.312065 1.968344,-0.416087 0.09842,-0.312065 0.196835,-0.520109 0.393669,-0.728153 -0.492086,-1.040218 -0.68892,-1.664349 -0.68892,-1.872393 0,0 0,-0.104022 0.09842,-0.104022 0,0 0.196834,-0.104021 0.492086,-0.312065 0.295251,-0.208044 0.492086,-0.312066 0.787337,-0.520109 l 0.393669,-0.208044 c 0.09842,0 0.295252,0.208044 0.590503,0.624131 0.295252,0.416087 0.590504,0.728153 0.688921,0.936197 h 0.787337 c 0.492086,-0.624131 0.885755,-1.144241 1.181007,-1.560328 h 0.09842 c 0,0 0.590503,0.312066 1.673092,0.936197 l 0.09842,0.104021 c 0,0.208044 -0.196835,0.832175 -0.688921,1.872393 0.196835,0.208044 0.295252,0.416088 0.393669,0.728153 C 28.21108,21.893019 28.9,22.101063 28.9,22.205084 Z M 25.455398,8.8902901 c 0,-0.5201092 -0.196834,-0.9361965 -0.492086,-1.248262 -0.295252,-0.3120655 -0.68892,-0.5201092 -1.181006,-0.5201092 -0.492086,0 -0.885755,0.2080437 -1.181007,0.5201092 -0.295251,0.4160873 -0.492086,0.8321747 -0.492086,1.248262 0,0.5201092 0.196835,0.9361962 0.492086,1.2482619 0.295252,0.312065 0.688921,0.520109 1.181007,0.520109 0.492086,0 0.885754,-0.208044 1.181006,-0.520109 0.393669,-0.3120657 0.492086,-0.7281527 0.492086,-1.2482619 z m 0,14.3550129 c 0,-0.520109 -0.196834,-0.936197 -0.492086,-1.248262 -0.295252,-0.312066 -0.68892,-0.520109 -1.181006,-0.520109 -0.492086,0 -0.885755,0.208043 -1.181007,0.520109 -0.295251,0.312065 -0.492086,0.728153 -0.492086,1.248262 0,0.520109 0.196835,0.936196 0.492086,1.248262 0.295252,0.312065 0.688921,0.520109 1.181007,0.520109 0.492086,0 0.885754,-0.208044 1.181006,-0.520109 0.393669,-0.416088 0.492086,-0.832175 0.492086,-1.248262 z"
     id="path2"
     style="fill:#1d99f3;fill-opacity:1;stroke-width:1.0118072"
     inkscape:connector-curvature="0" />
</svg>
