<svg xmlns="http://www.w3.org/2000/svg" viewBox="0 0 32 32">
  <path fill="#375273" d="M20.3 14.8v2.5c0 .1 0 .2-.1.3-.1.1-.1.1-.2.1l-2.1.3c-.1.3-.2.7-.4 1 .3.4.7.9 1.2 1.5.1.1.1.2.1.3 0 .1 0 .2-.1.3-.2.3-.6.7-1.1 1.2s-.9.8-1.1.8c-.1 0-.2 0-.3-.1l-1.5-1.2c-.3.2-.7.3-1 .4-.1 1-.2 1.7-.3 2.1-.1.2-.2.3-.4.3h-2.5c-.1 0-.2 0-.3-.1-.1-.1-.1-.1-.1-.2l-.3-2c-.3-.1-.6-.2-1-.4L7.2 23c-.1 0-.2.1-.3.1-.1 0-.2 0-.3-.1-1.3-1.2-1.9-1.9-1.9-2.1 0-.1 0-.2.1-.3.1-.1.3-.4.5-.7s.5-.7.7-.9c-.2-.4-.4-.8-.5-1.1l-2-.3c-.1 0-.2-.1-.2-.1-.1-.1-.1-.2-.1-.3v-2.5c0-.1 0-.2.1-.3s.1-.1.2-.1l2-.3c.1-.3.2-.7.4-1-.3-.4-.7-.9-1.2-1.5-.1-.1-.1-.2-.1-.3 0-.1 0-.2.1-.3.2-.3.6-.7 1.1-1.2.5-.5.9-.8 1.1-.8.1 0 .2.1.3.1l1.5 1.2c.3-.2.6-.3 1-.4.1-1 .2-1.7.3-2.1.1-.2.2-.3.4-.3H13c.1 0 .2 0 .3.1.1.1.1.1.1.2l.3 2c.3.1.6.2 1 .4L16.3 9c.1-.1.2-.1.3-.1.1 0 .2 0 .3.1 1.3 1.2 1.9 1.9 1.9 2.1 0 .1 0 .2-.1.3-.1.1-.3.4-.6.7-.3.3-.5.6-.6.8.2.4.4.8.5 1.1l2 .3c.1 0 .2.1.2.1.1.2.1.3.1.4zm-6.2 3.6c.7-.7 1-1.5 1-2.4s-.3-1.8-1-2.4c-.7-.7-1.5-1-2.4-1s-1.8.3-2.4 1c-.7.7-1 1.5-1 2.4s.3 1.8 1 2.4c.7.7 1.5 1 2.4 1s1.8-.3 2.4-1zM28.9 8.2v1.9c0 .1-.7.3-2 .4-.1.2-.2.5-.4.7.5 1 .7 1.6.7 1.8 0 0 0 .1-.1.1-1.1.6-1.6 1-1.7 1-.1 0-.3-.2-.6-.6-.3-.4-.6-.7-.7-.9h-.8c-.1.2-.4.5-.7.9-.3.4-.5.6-.6.6 0 0-.6-.3-1.7-1l-.1-.1c0-.2.2-.8.7-1.8-.2-.2-.3-.5-.4-.7-1.3-.1-2-.3-2-.4V8.2c0-.1.7-.3 2-.4.1-.3.2-.5.4-.7-.5-1-.7-1.6-.7-1.8 0 0 0-.1.1-.1 0 0 .2-.1.5-.3s.5-.3.8-.5l.4-.2c.1 0 .3.2.6.6s.6.7.7.9h.8c.5-.6.9-1.1 1.2-1.5h.1s.6.3 1.7.9l.1.1c0 .2-.2.8-.7 1.8.2.2.3.4.4.7 1.3.2 2 .4 2 .5zm0 13.7v1.9c0 .1-.7.3-2 .4-.1.2-.2.5-.4.7.5 1 .7 1.6.7 1.8 0 0 0 .1-.1.1-1.1.6-1.6 1-1.7 1-.1 0-.3-.2-.6-.6-.3-.4-.6-.7-.7-.9h-.8c-.1.2-.4.5-.7.9-.3.4-.5.6-.6.6 0 0-.6-.3-1.7-1l-.1-.1c0-.2.2-.8.7-1.8-.2-.2-.3-.5-.4-.7-1.3-.1-2-.3-2-.4v-1.9c0-.1.7-.3 2-.4.1-.3.2-.5.4-.7-.5-1-.7-1.6-.7-1.8 0 0 0-.1.1-.1 0 0 .2-.1.5-.3s.5-.3.8-.5l.4-.2c.1 0 .3.2.6.6s.6.7.7.9h.8c.5-.6.9-1.1 1.2-1.5h.1s.6.3 1.7.9l.1.1c0 .2-.2.8-.7 1.8.2.2.3.4.4.7 1.3.2 2 .4 2 .5zM25.4 9.1c0-.5-.2-.9-.5-1.2s-.7-.5-1.2-.5-.9.2-1.2.5c-.3.4-.5.8-.5 1.2 0 .5.2.9.5 1.2.3.3.7.5 1.2.5s.9-.2 1.2-.5c.4-.3.5-.7.5-1.2zm0 13.8c0-.5-.2-.9-.5-1.2s-.7-.5-1.2-.5-.9.2-1.2.5c-.3.3-.5.7-.5 1.2s.2.9.5 1.2c.3.3.7.5 1.2.5s.9-.2 1.2-.5c.4-.4.5-.8.5-1.2z"/>
</svg>
