<?xml version="1.0" encoding="UTF-8" standalone="no"?>
<svg
   xmlns:dc="http://purl.org/dc/elements/1.1/"
   xmlns:cc="http://creativecommons.org/ns#"
   xmlns:rdf="http://www.w3.org/1999/02/22-rdf-syntax-ns#"
   xmlns:svg="http://www.w3.org/2000/svg"
   xmlns="http://www.w3.org/2000/svg"
   xmlns:sodipodi="http://sodipodi.sourceforge.net/DTD/sodipodi-0.dtd"
   xmlns:inkscape="http://www.inkscape.org/namespaces/inkscape"
   viewBox="0 0 32 32"
   version="1.1"
   id="svg6"
   sodipodi:docname="preferences-desktop.svg"
   inkscape:version="0.92.4 5da689c313, 2019-01-14">
  <metadata
     id="metadata12">
    <rdf:RDF>
      <cc:Work
         rdf:about="">
        <dc:format>image/svg+xml</dc:format>
        <dc:type
           rdf:resource="http://purl.org/dc/dcmitype/StillImage" />
      </cc:Work>
    </rdf:RDF>
  </metadata>
  <defs
     id="defs10" />
  <sodipodi:namedview
     pagecolor="#ffffff"
     bordercolor="#666666"
     borderopacity="1"
     objecttolerance="10"
     gridtolerance="10"
     guidetolerance="10"
     inkscape:pageopacity="0"
     inkscape:pageshadow="2"
     inkscape:window-width="1366"
     inkscape:window-height="703"
     id="namedview8"
     showgrid="false"
     inkscape:zoom="7.375"
     inkscape:cx="28"
     inkscape:cy="16"
     inkscape:window-x="0"
     inkscape:window-y="0"
     inkscape:window-maximized="1"
     inkscape:current-layer="svg6" />
  <g
     id="g10"
     transform="translate(-0.13559322,0.6779661)">
    <path
       style="fill:#fdbc4b;fill-opacity:1"
       id="path2"
       d="m 23.7,9.2 v 2.2 c 0,0.1 0,0.1 -0.1,0.2 -0.1,0.1 -0.1,0.1 -0.2,0.1 L 21.5,12 c -0.1,0.4 -0.3,0.6 -0.4,0.9 0.2,0.4 0.6,0.8 1.1,1.4 0.1,0.1 0.1,0.1 0.1,0.2 0,0.1 0,0.1 -0.1,0.2 -0.2,0.2 -0.5,0.6 -1,1.1 -0.5,0.5 -0.8,0.7 -0.9,0.7 -0.1,0 -0.1,0 -0.3,-0.1 l -1.4,-1.1 c -0.3,0.1 -0.6,0.3 -0.9,0.4 -0.1,0.9 -0.2,1.5 -0.3,1.9 -0.1,0.2 -0.1,0.3 -0.4,0.3 h -2.2 c -0.1,0 -0.1,0 -0.2,-0.1 -0.1,-0.1 -0.1,-0.1 -0.1,-0.2 l -0.3,-1.9 c -0.4,-0.1 -0.6,-0.2 -0.9,-0.4 l -1.4,1.1 c -0.1,0.1 -0.1,0.1 -0.2,0.1 -0.1,0 -0.1,-0.1 -0.2,-0.1 -0.9,-0.8 -1.4,-1.3 -1.7,-1.7 -0.1,-0.1 -0.1,-0.1 -0.1,-0.2 0,-0.1 0,-0.1 0.1,-0.2 0.1,-0.1 0.3,-0.4 0.5,-0.6 0.2,-0.2 0.4,-0.6 0.6,-0.7 -0.2,-0.4 -0.3,-0.6 -0.4,-1 L 8.7,11.7 C 8.6,11.7 8.6,11.6 8.5,11.6 8.4,11.5 8.4,11.5 8.4,11.4 V 9.1 C 8.4,9 8.4,9 8.5,8.9 8.6,8.8 8.6,8.8 8.7,8.8 L 10.6,8.5 C 10.7,8.2 10.8,7.9 11,7.6 10.7,7.2 10.4,6.7 9.9,6.2 9.6,6.1 9.6,6 9.6,5.9 c 0,-0.1 0,-0.1 0.1,-0.2 0.1,-0.3 0.5,-0.6 1,-1.1 0.5,-0.5 0.8,-0.7 0.9,-0.7 0.1,0 0.1,0 0.3,0.1 l 1.4,1.1 C 13.6,5 13.9,4.8 14.2,4.7 14.3,3.8 14.4,3.2 14.5,2.8 14.6,2.6 14.6,2.5 14.9,2.5 h 2.2 c 0.1,0 0.1,0 0.2,0.1 0.1,0.1 0.1,0.1 0.1,0.2 l 0.3,1.9 c 0.4,0.1 0.6,0.2 0.9,0.4 L 20.2,4 c 0.1,-0.1 0.1,-0.1 0.2,-0.1 0.1,0 0.1,0 0.2,0.1 0.9,0.8 1.4,1.4 1.7,1.7 0.1,0.1 0.1,0.1 0.1,0.2 0,0.1 0,0.1 -0.1,0.2 -0.1,0.1 -0.3,0.4 -0.5,0.6 -0.2,0.3 -0.4,0.6 -0.6,0.7 0.1,0.4 0.3,0.6 0.4,1 l 1.9,0.3 c 0.1,0 0.1,0.1 0.2,0.1 z m -5.9,2.9 C 18.3,11.6 18.5,11 18.5,10.3 18.5,9.6 18.3,9 17.8,8.5 17.3,8 16.7,7.7 16,7.7 15.3,7.7 14.7,8 14.2,8.5 13.7,9 13.5,9.6 13.5,10.3 c 0,0.7 0.2,1.3 0.7,1.8 0.5,0.5 1.1,0.7 1.8,0.7 0.7,0 1.3,-0.2 1.8,-0.7 z"
       inkscape:connector-curvature="0" />
    <path
       style="fill:#1d99f3;fill-opacity:1"
       id="path4"
       d="M 28.2,6.5 C 27.8,6.1 27.3,5.9 26.7,5.9 H 22.8 V 6 c 0,0.1 0,0.3 -0.2,0.5 C 22.5,6.6 22.4,6.7 22.3,6.9 22.2,7 22.1,7.1 22.1,7.2 22,7.4 21.9,7.5 21.8,7.7 h 4.9 c 0.1,0 0.2,0 0.3,0.1 0.1,0.1 0.1,0.2 0.1,0.3 v 11.1 c 0,0.1 0,0.2 -0.1,0.3 -0.1,0.1 -0.2,0.1 -0.3,0.1 H 5.3 C 5.2,19.6 5.1,19.6 5,19.5 4.9,19.4 4.9,19.3 4.9,19.2 V 8 C 4.9,7.9 4.9,7.8 5,7.7 5.1,7.6 5.2,7.6 5.3,7.6 h 4.9 L 10.1,7.5 C 9.9,7.1 9.6,6.8 9.4,6.5 9.1,6.3 9.1,6 9.1,5.9 V 5.8 H 5.3 C 4.7,5.8 4.2,6 3.8,6.4 3.4,6.9 3.1,7.4 3.1,8 v 14.6 c 0,0.6 0.2,1.1 0.6,1.5 0.4,0.4 0.9,0.6 1.5,0.6 h 7.3 c 0,0.3 -0.1,0.7 -0.2,1 -0.1,0.4 -0.3,0.7 -0.4,0.9 -0.1,0.3 -0.2,0.5 -0.2,0.6 0,0.2 0.1,0.4 0.3,0.6 0.2,0.2 0.4,0.3 0.6,0.3 h 6.9 c 0.2,0 0.4,-0.1 0.6,-0.3 0.2,-0.2 0.3,-0.4 0.3,-0.6 0,-0.1 -0.1,-0.3 -0.2,-0.6 -0.1,-0.3 -0.3,-0.6 -0.4,-1 -0.1,-0.4 -0.2,-0.7 -0.2,-1 h 7.3 c 0.6,0 1.1,-0.2 1.5,-0.6 0.4,-0.4 0.6,-0.9 0.6,-1.5 V 8 C 28.9,7.4 28.6,6.9 28.2,6.5 Z"
       inkscape:connector-curvature="0" />
  </g>
</svg>
