<?xml version="1.0" encoding="UTF-8" standalone="no"?>
<svg
   xmlns:dc="http://purl.org/dc/elements/1.1/"
   xmlns:cc="http://creativecommons.org/ns#"
   xmlns:rdf="http://www.w3.org/1999/02/22-rdf-syntax-ns#"
   xmlns:svg="http://www.w3.org/2000/svg"
   xmlns="http://www.w3.org/2000/svg"
   xmlns:sodipodi="http://sodipodi.sourceforge.net/DTD/sodipodi-0.dtd"
   xmlns:inkscape="http://www.inkscape.org/namespaces/inkscape"
   viewBox="0 0 32 32"
   version="1.1"
   id="svg4"
   sodipodi:docname="preferences-other.svg"
   inkscape:version="0.92.4 5da689c313, 2019-01-14">
  <metadata
     id="metadata10">
    <rdf:RDF>
      <cc:Work
         rdf:about="">
        <dc:format>image/svg+xml</dc:format>
        <dc:type
           rdf:resource="http://purl.org/dc/dcmitype/StillImage" />
        <dc:title></dc:title>
      </cc:Work>
    </rdf:RDF>
  </metadata>
  <defs
     id="defs8" />
  <sodipodi:namedview
     pagecolor="#ffffff"
     bordercolor="#666666"
     borderopacity="1"
     objecttolerance="10"
     gridtolerance="10"
     guidetolerance="10"
     inkscape:pageopacity="0"
     inkscape:pageshadow="2"
     inkscape:window-width="1366"
     inkscape:window-height="703"
     id="namedview6"
     showgrid="false"
     inkscape:zoom="7.375"
     inkscape:cx="16"
     inkscape:cy="16"
     inkscape:window-x="0"
     inkscape:window-y="0"
     inkscape:window-maximized="1"
     inkscape:current-layer="svg4" />
  <path
     d="m 20.474418,14.545762 v 2.966102 c 0,0.118645 0,0.237289 -0.108952,0.355933 -0.108953,0.118643 -0.108953,0.118643 -0.2179,0.118643 l -2.287937,0.355933 c -0.108953,0.355932 -0.217899,0.830509 -0.435798,1.18644 0.326848,0.474577 0.762646,1.067797 1.307393,1.779662 0.108953,0.118644 0.108953,0.237287 0.108953,0.355932 0,0.118644 0,0.237288 -0.108953,0.355932 -0.217899,0.355932 -0.653697,0.830509 -1.198444,1.423729 -0.544747,0.59322 -0.980544,0.949152 -1.198444,0.949152 -0.108952,0 -0.217898,0 -0.326847,-0.118643 l -1.634241,-1.423729 c -0.326849,0.237287 -0.762647,0.355932 -1.089495,0.474576 -0.108952,1.18644 -0.217899,2.016949 -0.326848,2.491525 -0.108953,0.237288 -0.217899,0.355932 -0.435798,0.355932 H 9.7973711 c -0.108952,0 -0.217898,0 -0.326847,-0.118644 -0.108953,-0.118644 -0.108953,-0.118644 -0.108953,-0.237288 L 9.0347291,23.444068 C 8.7078811,23.325424 8.3810331,23.20678 7.945235,22.969491 l -1.7431905,1.305086 c -0.1089492,0 -0.2178989,0.118643 -0.3268483,0.118643 -0.1089492,0 -0.2178988,0 -0.3268482,-0.118643 -1.4163424,-1.423729 -2.0700389,-2.254238 -2.0700389,-2.491526 0,-0.118644 0,-0.237289 0.1089491,-0.355932 C 3.6962074,21.308475 3.9141065,20.952542 4.1320053,20.59661 4.3499042,20.240678 4.6767524,19.766102 4.8946512,19.528813 4.6767524,19.054237 4.4588536,18.579662 4.3499042,18.223729 L 2.1709158,17.867797 c -0.1089492,0 -0.2178988,-0.118644 -0.2178988,-0.118644 C 1.8440678,17.630509 1.8440678,17.511864 1.8440678,17.39322 v -2.966102 c 0,-0.118643 0,-0.237287 0.1089492,-0.355931 0.1089492,-0.118645 0.1089492,-0.118645 0.2178988,-0.118645 L 4.3499044,13.596611 C 4.4588538,13.240678 4.5678032,12.766102 4.7857021,12.410169 4.4588538,11.935593 4.0230561,11.342373 3.4783091,10.630508 3.3693596,10.511864 3.3693596,10.39322 3.3693596,10.274576 c 0,-0.118645 0,-0.237288 0.1089492,-0.355932 C 3.6962077,9.5627112 4.1320053,9.0881353 4.6767524,8.4949153 5.2214995,7.9016949 5.6572972,7.5457627 5.875196,7.5457627 c 0.1089492,0 0.2178988,0.1186441 0.3268482,0.1186441 L 7.8362854,9.0881353 C 8.1631336,8.8508471 8.4899821,8.7322029 8.9257801,8.6135598 9.0347331,7.4271187 9.1436791,6.5966102 9.2526281,6.1220339 9.3615801,5.8847458 9.4705271,5.7661017 9.6884261,5.7661017 H 12.52111 c 0.108953,0 0.2179,0 0.326849,0.1186441 0.108952,0.1186441 0.108952,0.1186441 0.108952,0.2372881 l 0.326849,2.3728814 c 0.326848,0.1186445 0.653696,0.2372876 1.089494,0.4745761 l 1.743191,-1.3050846 c 0.108952,-0.1186441 0.217898,-0.1186441 0.326847,-0.1186441 0.108953,0 0.2179,0 0.326849,0.1186441 1.416343,1.4237285 2.070039,2.2542372 2.070039,2.4915242 0,0.118645 0,0.237289 -0.108952,0.355933 -0.108953,0.118644 -0.326849,0.474576 -0.653698,0.830509 -0.326847,0.355932 -0.544747,0.711865 -0.653696,0.949152 0.217899,0.474577 0.435798,0.949153 0.544747,1.305086 l 2.178988,0.355931 c 0.108953,0 0.2179,0.118645 0.2179,0.118645 0.108952,0.237288 0.108952,0.355931 0.108952,0.474575 z m -6.754864,4.271187 c 0.762646,-0.830509 1.089494,-1.779661 1.089494,-2.847458 0,-1.067796 -0.326848,-2.135593 -1.089494,-2.847457 -0.762646,-0.830509 -1.634242,-1.186441 -2.614786,-1.186441 -0.980545,0 -1.9610889,0.355932 -2.6147859,1.186441 -0.7626459,0.830508 -1.0894942,1.779661 -1.0894942,2.847457 0,1.067797 0.3268483,2.135593 1.0894942,2.847458 0.762646,0.830509 1.6342409,1.186441 2.6147859,1.186441 0.980544,0 1.961089,-0.355932 2.614786,-1.186441 z M 29.844068,6.7152543 v 2.2542371 c 0,0.1186439 -0.762646,0.3559324 -2.178989,0.4745755 -0.108952,0.2372886 -0.217898,0.5932211 -0.435798,0.8305091 0.544748,1.186441 0.762647,1.898306 0.762647,2.135593 0,0 0,0.118644 -0.108952,0.118644 -1.198444,0.711865 -1.743191,1.186441 -1.85214,1.186441 -0.108953,0 -0.326849,-0.237288 -0.653696,-0.711865 -0.326849,-0.474576 -0.653697,-0.830507 -0.762647,-1.067796 h -0.871595 c -0.108952,0.237289 -0.435798,0.59322 -0.762646,1.067796 -0.326848,0.474577 -0.544747,0.711865 -0.653696,0.711865 0,0 -0.653697,-0.355932 -1.85214,-1.186441 l -0.108953,-0.118644 c 0,-0.237287 0.217899,-0.949152 0.762646,-2.135593 C 20.910216,10.037288 20.801266,9.6813555 20.692316,9.4440669 19.275975,9.3254238 18.513328,9.0881353 18.513328,8.9694914 V 6.7152543 c 0,-0.1186441 0.762647,-0.3559322 2.178988,-0.4745763 0.108953,-0.3559322 0.2179,-0.5932203 0.435798,-0.8305084 -0.544747,-1.1864408 -0.762645,-1.8983052 -0.762645,-2.1355932 0,0 0,-0.1186442 0.108952,-0.1186442 0,0 0.217899,-0.118644 0.544747,-0.3559322 0.326848,-0.237288 0.544748,-0.3559321 0.871595,-0.5932202 l 0.435795,-0.2372882 c 0.108952,0 0.326848,0.2372882 0.653696,0.7118644 0.326849,0.4745762 0.653697,0.8305084 0.762647,1.0677966 h 0.871594 c 0.544747,-0.7118644 0.980545,-1.3050847 1.307394,-1.779661 h 0.108952 c 0,0 0.653697,0.3559322 1.85214,1.0677966 l 0.108953,0.118644 c 0,0.2372882 -0.2179,0.9491526 -0.762647,2.1355933 0.2179,0.2372881 0.326849,0.4745762 0.435798,0.8305084 1.416337,0.2372882 2.178983,0.4745763 2.178983,0.5932204 z m 0,16.2542367 v 2.254238 c 0,0.118644 -0.762646,0.355932 -2.178989,0.474577 -0.108952,0.237287 -0.217898,0.59322 -0.435798,0.830507 0.544748,1.186442 0.762647,1.898306 0.762647,2.135593 0,0 0,0.118645 -0.108952,0.118645 -1.198444,0.711864 -1.743191,1.186441 -1.85214,1.186441 -0.108953,0 -0.326849,-0.237289 -0.653696,-0.711864 -0.326849,-0.474577 -0.653697,-0.830509 -0.762647,-1.067798 h -0.871595 c -0.108952,0.237289 -0.435798,0.593221 -0.762646,1.067798 -0.326848,0.474575 -0.544747,0.711864 -0.653696,0.711864 0,0 -0.653697,-0.355933 -1.85214,-1.186441 l -0.108953,-0.118645 c 0,-0.237287 0.217899,-0.949151 0.762646,-2.135593 -0.217899,-0.237287 -0.326849,-0.59322 -0.435798,-0.830507 -1.416342,-0.118645 -2.178988,-0.355933 -2.178988,-0.474577 v -2.254238 c 0,-0.118643 0.762646,-0.355932 2.178988,-0.474576 0.108952,-0.355931 0.217899,-0.59322 0.435798,-0.830508 -0.544747,-1.186441 -0.762646,-1.898305 -0.762646,-2.135594 0,0 0,-0.118644 0.108953,-0.118644 0,0 0.217898,-0.118643 0.544747,-0.355932 0.326848,-0.237288 0.544747,-0.355932 0.871595,-0.59322 l 0.435798,-0.237288 c 0.108952,0 0.326848,0.237288 0.653696,0.711864 0.326848,0.474576 0.653697,0.830509 0.762646,1.067797 h 0.871595 c 0.544747,-0.711864 0.980545,-1.305085 1.307394,-1.779661 h 0.108952 c 0,0 0.653696,0.355933 1.85214,1.067797 l 0.108952,0.118643 c 0,0.237289 -0.217899,0.949153 -0.762646,2.135593 0.217899,0.237289 0.326848,0.474577 0.435798,0.830509 1.416339,0.237288 2.178985,0.474577 2.178985,0.59322 z M 26.030838,7.7830509 c 0,-0.5932204 -0.217898,-1.0677966 -0.544747,-1.4237288 -0.326849,-0.3559322 -0.762645,-0.5932204 -1.307393,-0.5932204 -0.544747,0 -0.980545,0.2372882 -1.307393,0.5932204 -0.326848,0.4745762 -0.544747,0.9491525 -0.544747,1.4237288 0,0.5932204 0.217899,1.0677962 0.544747,1.4237287 0.326848,0.3559316 0.762646,0.5932201 1.307393,0.5932201 0.544748,0 0.980544,-0.2372885 1.307393,-0.5932201 0.435798,-0.3559325 0.544747,-0.8305083 0.544747,-1.4237287 z m 0,16.3728811 c 0,-0.59322 -0.217898,-1.067797 -0.544747,-1.423728 -0.326849,-0.355933 -0.762645,-0.59322 -1.307393,-0.59322 -0.544747,0 -0.980545,0.237287 -1.307393,0.59322 -0.326848,0.355931 -0.544747,0.830508 -0.544747,1.423728 0,0.593221 0.217899,1.067797 0.544747,1.423729 0.326848,0.355932 0.762646,0.59322 1.307393,0.59322 0.544748,0 0.980544,-0.237288 1.307393,-0.59322 0.435798,-0.474577 0.544747,-0.949153 0.544747,-1.423729 z"
     id="path2"
     style="fill:#1d99f3;fill-opacity:1;stroke-width:1.13693464"
     inkscape:connector-curvature="0" />
</svg>
