<svg viewBox="0 0 32 32" xmlns="http://www.w3.org/2000/svg"><path d="m27.7 10.6c-.4.3-.8.4-1.3.4-.6 0-1.2-.3-1.6-.7-.4.2-.8.3-1.2.3-1.1 0-2.1-.7-2.4-1.8-1.5-.2-2.6-1.5-2.6-3-1.2-.2-2-1.3-2-2.5v-.4h-.8c-7.3-.1-13.1 5.8-13.1 13s5.8 13.1 13.1 13.1c7.2 0 13.1-5.9 13.1-13.1 0-1.9-.4-3.7-1.2-5.3zm-18.2 9.1c-1.3 0-2.3-1-2.3-2.3s1-2.3 2.3-2.3 2.3 1 2.3 2.3-1 2.3-2.3 2.3zm1.6-9c-.7 0-1.3-.6-1.3-1.3s.6-1.3 1.3-1.3 1.3.6 1.3 1.3-.6 1.3-1.3 1.3zm3.4 13.6c-.7 0-1.2-.6-1.2-1.2 0-.7.6-1.2 1.2-1.2.7 0 1.2.6 1.2 1.2.1.6-.5 1.2-1.2 1.2zm.8-10.9c-.8 0-1.4-.6-1.4-1.4s.6-1.4 1.4-1.4 1.4.6 1.4 1.4-.6 1.4-1.4 1.4zm6.1 7.5c-1.3 0-2.3-1-2.3-2.3s1-2.3 2.3-2.3 2.3 1 2.3 2.3c-.1 1.3-1.1 2.3-2.3 2.3z" fill="#375273"/></svg>