<svg xmlns="http://www.w3.org/2000/svg" viewBox="0 0 32 32">
  <path d="M-1027.8-1421.5H1716v2625h-2743.8v-2625z" fill="none"/>
  <path d="M27.6 30.7h-1.4c-.8 0-1.2-.4-1.2-1.2-.2-4.1-1.4-7.9-3.6-11.4-1.1-1.7-2.4-3.3-4-4.7-1.4-1.3-3-2.4-4.6-3.3-2.5-1.4-5.2-2.3-8.1-2.6-.6-.2-1.2-.2-1.8-.2C2 7.2 1.6 6.9 1.6 6V3.2c0-.8.5-1.2 1.3-1.1 1.3.1 2.6.2 3.9.4 2.3.4 4.4 1.1 6.5 2 2.3 1 4.5 2.4 6.5 4 1.3 1.1 2.5 2.3 3.7 3.6 1.5 1.7 2.7 3.6 3.7 5.5.8 1.6 1.5 3.2 1.9 4.9.6 2.2 1 4.5 1.1 6.8 0 .8-.6 1.2-1.2 1.2-.5.2-.9.2-1.4.2z" fill="#375273"/>
  <path d="M1.6 13.9v-1.6c0-.6.5-1 1.1-1 1.6.1 3.2.4 4.8.9 1.6.5 3.1 1.2 4.5 2.1 3.2 2.1 5.7 4.8 7.3 8.3.8 1.8 1.4 3.7 1.6 5.6.1.5.1 1 .1 1.5s-.3.9-.8 1c-.4.1-.8.1-1.2.1h-2.2c-.6 0-.9-.4-.9-1-.1-1.5-.5-3-1-4.4-1.2-3-3.2-5.3-6-6.9C7 17.4 5 16.7 2.8 16.6c-.6 0-1.2-.5-1.1-1.2-.1-.6-.1-1.1-.1-1.5z" fill="#375273"/>
  <path d="M1.6 26.5c0-2.1 1.7-4.1 4.1-4.1 2.4 0 4.1 1.8 4.1 4.1S8 30.6 5.7 30.6c-2.4.1-4.2-1.9-4.1-4.1z" fill="#375273"/>
</svg>
