<?xml version="1.0" encoding="UTF-8" standalone="no"?>
<svg
   xmlns:dc="http://purl.org/dc/elements/1.1/"
   xmlns:cc="http://creativecommons.org/ns#"
   xmlns:rdf="http://www.w3.org/1999/02/22-rdf-syntax-ns#"
   xmlns:svg="http://www.w3.org/2000/svg"
   xmlns="http://www.w3.org/2000/svg"
   xmlns:sodipodi="http://sodipodi.sourceforge.net/DTD/sodipodi-0.dtd"
   xmlns:inkscape="http://www.inkscape.org/namespaces/inkscape"
   height="32"
   viewBox="0 0 32 32"
   width="32"
   version="1.1"
   id="svg4"
   sodipodi:docname="rss-config.svg"
   inkscape:version="0.92.4 5da689c313, 2019-01-14">
  <metadata
     id="metadata10">
    <rdf:RDF>
      <cc:Work
         rdf:about="">
        <dc:format>image/svg+xml</dc:format>
        <dc:type
           rdf:resource="http://purl.org/dc/dcmitype/StillImage" />
        <dc:title></dc:title>
      </cc:Work>
    </rdf:RDF>
  </metadata>
  <defs
     id="defs8" />
  <sodipodi:namedview
     pagecolor="#ffffff"
     bordercolor="#666666"
     borderopacity="1"
     objecttolerance="10"
     gridtolerance="10"
     guidetolerance="10"
     inkscape:pageopacity="0"
     inkscape:pageshadow="2"
     inkscape:window-width="1366"
     inkscape:window-height="703"
     id="namedview6"
     showgrid="false"
     inkscape:zoom="7.375"
     inkscape:cx="8"
     inkscape:cy="13.423729"
     inkscape:window-x="0"
     inkscape:window-y="0"
     inkscape:window-maximized="1"
     inkscape:current-layer="svg4" />
  <path
     d="m 4.5295923,1.8644025 c 2.3282105,0 4.5696239,0.3012395 6.7242407,0.9037186 2.154616,0.6024812 4.171378,1.4551418 6.050235,2.5579882 1.878957,1.1028443 3.589374,2.4252349 5.131453,3.9671762 1.54188,1.5419415 2.864262,3.2523715 3.96715,5.1312915 1.102687,1.87907 1.955343,3.895797 2.557967,6.05048 0.602527,2.154581 0.903766,4.39586 0.903766,6.724288 0,0.735228 -0.260341,1.363038 -0.781128,1.883976 -0.520783,0.520936 -1.148738,0.781082 -1.883961,0.781082 -0.735275,0 -1.363229,-0.260246 -1.884165,-0.781082 -0.520682,-0.520788 -0.781075,-1.148748 -0.781075,-1.883976 0,-1.838227 -0.240018,-3.609825 -0.719958,-5.3153 C 23.334182,20.178922 22.660074,18.585772 21.792101,17.105102 20.924128,15.624381 19.882709,14.276459 18.667396,13.061288 17.452184,11.846118 16.104372,10.804542 14.623662,9.9365626 13.143001,9.0685805 11.550015,8.3946209 9.8447026,7.9146784 8.13939,7.4347381 6.3677037,7.1947668 4.5296426,7.1947668 3.7944181,7.1947668 3.1664137,6.9343729 2.6456297,6.4135849 2.1248455,5.8927969 1.8644536,5.2647888 1.8644536,4.5295586 c 0,-0.7352281 0.2603919,-1.3632383 0.7811761,-1.8840263 C 3.1663635,2.1247965 3.7943678,1.8644025 4.5295923,1.8644025 Z m 0,10.0787735 c 2.103559,0 4.0794745,0.403355 5.9277467,1.210066 1.848273,0.806711 3.461682,1.899343 4.840228,3.2779 1.378596,1.378605 2.471222,2.991926 3.277876,4.840111 0.806755,1.848487 1.210057,3.824217 1.210057,5.92799 0,0.735232 -0.260341,1.363038 -0.781075,1.883978 -0.520785,0.520788 -1.148739,0.781082 -1.884164,0.781082 -0.735224,0 -1.363178,-0.260244 -1.883962,-0.781082 -0.520784,-0.520788 -0.781176,-1.148746 -0.781176,-1.883978 0,-1.368443 -0.260392,-2.655046 -0.781176,-3.860004 C 13.153163,22.134278 12.443467,21.08249 11.544859,20.183926 10.646251,19.285263 9.5944718,18.575562 8.3895206,18.054774 7.1845692,17.534086 5.8979269,17.273692 4.5295923,17.273692 c -0.7352245,0 -1.3632288,-0.260344 -1.8840125,-0.781132 -0.5207842,-0.520836 -0.7811763,-1.148846 -0.7811763,-1.884076 0,-0.73523 0.2603921,-1.363238 0.7811763,-1.884026 0.5207837,-0.520889 1.148788,-0.781282 1.8840125,-0.781282 z m 4.9014962,13.99995 c 0,0.531051 -0.097009,1.021154 -0.2910264,1.470511 -0.1940156,0.449455 -0.4595153,0.84245 -0.7964933,1.179479 -0.3369778,0.336831 -0.7352245,0.602431 -1.1947396,0.796499 -0.4595147,0.193965 -0.9445589,0.290881 -1.4551313,0.290881 -0.5309955,0 -1.0211454,-0.09699 -1.4704491,-0.290881 C 3.7739448,29.19565 3.380804,28.929899 3.0438262,28.593116 2.7068484,28.256137 2.4413504,27.862992 2.2473329,27.413637 2.0533154,26.96428 1.9563065,26.474177 1.9563065,25.943126 c 0,-0.510425 0.097009,-0.995572 0.2910264,-1.454941 0.1940157,-0.45972 0.4595155,-0.857919 0.7964933,-1.194798 0.3369778,-0.336981 0.7301186,-0.602429 1.1794226,-0.796498 0.4493037,-0.193966 0.9394536,-0.291032 1.4704491,-0.291032 0.5105724,0 0.9956166,0.09708 1.4551313,0.291032 0.4595151,0.194069 0.8577618,0.459517 1.1947396,0.796498 0.336978,0.336879 0.6024758,0.735228 0.7964933,1.194798 0.1940157,0.459417 0.2910264,0.944416 0.2910264,1.454941 z"
     id="path2"
     style="fill:#1d99f3;fill-opacity:1;stroke-width:0.05005631"
     inkscape:connector-curvature="0" />
</svg>
