<?xml version="1.0" encoding="UTF-8" standalone="no"?>
<svg
   xmlns:dc="http://purl.org/dc/elements/1.1/"
   xmlns:cc="http://creativecommons.org/ns#"
   xmlns:rdf="http://www.w3.org/1999/02/22-rdf-syntax-ns#"
   xmlns:svg="http://www.w3.org/2000/svg"
   xmlns="http://www.w3.org/2000/svg"
   xmlns:sodipodi="http://sodipodi.sourceforge.net/DTD/sodipodi-0.dtd"
   xmlns:inkscape="http://www.inkscape.org/namespaces/inkscape"
   height="16"
   viewBox="0 0 16 16"
   width="16"
   version="1.1"
   id="svg4"
   sodipodi:docname="rss-config.svg"
   inkscape:version="0.92.4 5da689c313, 2019-01-14">
  <metadata
     id="metadata10">
    <rdf:RDF>
      <cc:Work
         rdf:about="">
        <dc:format>image/svg+xml</dc:format>
        <dc:type
           rdf:resource="http://purl.org/dc/dcmitype/StillImage" />
      </cc:Work>
    </rdf:RDF>
  </metadata>
  <defs
     id="defs8" />
  <sodipodi:namedview
     pagecolor="#ffffff"
     bordercolor="#666666"
     borderopacity="1"
     objecttolerance="10"
     gridtolerance="10"
     guidetolerance="10"
     inkscape:pageopacity="0"
     inkscape:pageshadow="2"
     inkscape:window-width="1366"
     inkscape:window-height="703"
     id="namedview6"
     showgrid="false"
     inkscape:zoom="14.75"
     inkscape:cx="8"
     inkscape:cy="8"
     inkscape:window-x="0"
     inkscape:window-y="0"
     inkscape:window-maximized="1"
     inkscape:current-layer="svg4" />
  <path
     d="m 2.5933192,1.3899116 c 1.1105508,0 2.1796996,0.1444192 3.2074464,0.4332575 1.0277468,0.2888385 1.9897372,0.6976183 2.8859475,1.2263395 0.896258,0.5287211 1.7121229,1.1626969 2.4476909,1.9019274 0.735473,0.7392306 1.366246,1.5592379 1.892321,2.4600221 0.525979,0.9008563 0.932694,1.8677067 1.220144,2.9006959 0.287404,1.03294 0.431094,2.107445 0.431094,3.22373 0,0.35248 -0.124182,0.653462 -0.372596,0.903208 -0.248412,0.249745 -0.547945,0.374463 -0.898645,0.374463 -0.350724,0 -0.650257,-0.124766 -0.898742,-0.374463 -0.248364,-0.249674 -0.372571,-0.550728 -0.372571,-0.903208 0,-0.881275 -0.114488,-1.730607 -0.343418,-2.548239 C 11.563063,10.170182 11.241515,9.4064015 10.827494,8.6965443 10.413473,7.9866632 9.916719,7.3404484 9.3370176,6.757876 8.7573641,6.1753036 8.1144612,5.6759558 7.4081659,5.2598327 6.7018945,4.8437095 5.9420438,4.5206021 5.128614,4.2905105 4.315184,4.0604189 3.4700939,3.9453731 2.5933432,3.9453731 2.2426429,3.9453731 1.9430863,3.8205361 1.6946736,3.5708624 1.4462608,3.3211885 1.3220545,3.0201111 1.3220545,2.6676304 c 0,-0.3524808 0.1242063,-0.6535581 0.3726191,-0.903232 C 1.9430624,1.5147486 2.2426189,1.3899116 2.5933192,1.3899116 Z m 0,4.8319239 c 1.0033926,0 1.9458995,0.1933748 2.8275211,0.5801246 0.8816216,0.3867498 1.6512139,0.9105754 2.308777,1.5714768 0.657587,0.6609255 1.1787666,1.4343768 1.5635389,2.3204261 0.3848201,0.886194 0.5771943,1.83339 0.5771943,2.841972 0,0.352482 -0.1241824,0.653462 -0.3725713,0.903209 -0.2484128,0.249674 -0.5479454,0.374463 -0.8987413,0.374463 -0.3507002,0 -0.6502328,-0.124765 -0.8986456,-0.374463 -0.2484127,-0.249674 -0.3726191,-0.550727 -0.3726191,-0.903209 0,-0.656053 -0.1242063,-1.272871 -0.372619,-1.850547 C 6.7067414,11.107611 6.3682182,10.603367 5.9395845,10.172581 5.5109508,9.7417476 5.0092545,9.4015059 4.4344957,9.151832 3.8597368,8.9022061 3.2460115,8.7773692 2.5933192,8.7773692 2.2426189,8.7773692 1.9430624,8.6525562 1.6946498,8.4028823 1.446237,8.1531845 1.3220306,7.8521071 1.3220306,7.4996264 1.3220306,7.1471455 1.446237,6.8460683 1.6946498,6.5963943 1.9430624,6.3466724 2.2426189,6.2218355 2.5933192,6.2218355 Z m 2.3380019,6.7117975 c 0,0.254594 -0.046273,0.489557 -0.1388189,0.704986 -0.092545,0.215476 -0.2191877,0.403884 -0.3799254,0.565461 -0.1607376,0.161482 -0.3507003,0.288815 -0.5698879,0.381854 -0.2191874,0.09299 -0.4505523,0.139453 -0.6940941,0.139453 -0.2532836,0 -0.4870839,-0.0465 -0.7014007,-0.139453 C 2.2328772,14.492944 2.04535,14.365539 1.8846124,14.20408 1.7238748,14.042527 1.5972329,13.854047 1.504687,13.638619 1.4121411,13.42319 1.3658681,13.188227 1.3658681,12.933633 c 0,-0.244706 0.046273,-0.477293 0.1388189,-0.697522 0.092545,-0.220397 0.2191878,-0.4113 0.3799254,-0.572805 0.1607376,-0.161554 0.3482648,-0.288814 0.5625817,-0.381854 0.2143168,-0.09299 0.4481171,-0.139525 0.7014007,-0.139525 0.2435418,0 0.4749067,0.04654 0.6940941,0.139525 0.2191876,0.09304 0.4091503,0.2203 0.5698879,0.381854 0.1607377,0.161505 0.2873795,0.35248 0.3799254,0.572805 0.092545,0.220252 0.1388189,0.452768 0.1388189,0.697522 z"
     id="path2"
     style="fill:#1d99f3;fill-opacity:1;stroke-width:0.02393719"
     inkscape:connector-curvature="0" />
</svg>
