<?xml version="1.0" encoding="utf-8"?>
<!-- Generator: Adobe Illustrator 22.1.0, SVG Export Plug-In . SVG Version: 6.00 Build 0)  -->
<svg version="1.1" id="Layer_1" xmlns="http://www.w3.org/2000/svg" xmlns:xlink="http://www.w3.org/1999/xlink" x="0px" y="0px"
	 viewBox="0 0 32 32" style="enable-background:new 0 0 32 32;" xml:space="preserve">
<style type="text/css">
	.st0{fill:none;}
	.st1{fill:#375273;}
</style>
<path class="st0" d="M-1027.8-1421.5H1716v2625h-2743.8V-1421.5z"/>
<g>
	<path class="st1" d="M27.6,30.7c-0.5,0-0.9,0-1.4,0c-0.8,0-1.2-0.4-1.2-1.2c-0.2-4.1-1.4-7.9-3.6-11.4c-1.1-1.7-2.4-3.3-4-4.7
		c-1.4-1.3-3-2.4-4.6-3.3c-2.5-1.4-5.2-2.3-8.1-2.6C4.1,7.3,3.5,7.3,2.9,7.3C2,7.2,1.6,6.9,1.6,6c0-0.9,0-1.9,0-2.8
		c0-0.8,0.5-1.2,1.3-1.1c1.3,0.1,2.6,0.2,3.9,0.4c2.3,0.4,4.4,1.1,6.5,2c2.3,1,4.5,2.4,6.5,4c1.3,1.1,2.5,2.3,3.7,3.6
		c1.5,1.7,2.7,3.6,3.7,5.5c0.8,1.6,1.5,3.2,1.9,4.9c0.6,2.2,1,4.5,1.1,6.8c0,0.8-0.6,1.2-1.2,1.2C28.5,30.7,28.1,30.7,27.6,30.7z"/>
	<path class="st1" d="M1.6,13.9c0-0.5,0-1.1,0-1.6c0-0.6,0.5-1,1.1-1c1.6,0.1,3.2,0.4,4.8,0.9c1.6,0.5,3.1,1.2,4.5,2.1
		c3.2,2.1,5.7,4.8,7.3,8.3c0.8,1.8,1.4,3.7,1.6,5.6c0.1,0.5,0.1,1,0.1,1.5c0,0.5-0.3,0.9-0.8,1c-0.4,0.1-0.8,0.1-1.2,0.1
		c-0.7,0-1.4,0-2.2,0c-0.6,0-0.9-0.4-0.9-1c-0.1-1.5-0.5-3-1-4.4c-1.2-3-3.2-5.3-6-6.9c-1.9-1.1-3.9-1.8-6.1-1.9
		c-0.6,0-1.2-0.5-1.1-1.2C1.6,14.8,1.6,14.3,1.6,13.9C1.6,13.9,1.6,13.9,1.6,13.9z"/>
	<path class="st1" d="M1.6,26.5c0-2.1,1.7-4.1,4.1-4.1c2.4,0,4.1,1.8,4.1,4.1c0,2.3-1.8,4.1-4.1,4.1C3.3,30.7,1.5,28.7,1.6,26.5z"/>
</g>
</svg>
