<svg xmlns="http://www.w3.org/2000/svg" viewBox="0 0 32 32">
  <path fill="#733737" d="M22.3 18.9c0 .3-.1.5-.3.7L20.6 21c-.2.2-.4.3-.7.3-.3 0-.5-.1-.7-.3L16 18l-3.1 3c-.2.2-.4.3-.7.3-.3 0-.5-.1-.7-.3L10 19.6c-.2-.2-.3-.4-.3-.7s.1-.5.3-.7l3.1-3.1-3-3c-.2-.2-.3-.5-.3-.7 0-.3.1-.5.3-.7l1.5-1.4c.2-.2.4-.3.7-.3.3 0 .5.1.7.3l3 3.1 3.1-3.1c.2-.2.4-.3.7-.3.3 0 .5.1.7.3l1.4 1.4c.2.2.3.4.3.7 0 .3-.1.5-.3.7l-3.1 3.1 3.1 3.1c.3.1.4.3.4.6z"/>
  <path fill="#733737" d="M26.2 3.8c-.2-.2-.5-.3-.7-.3H6.6c-.3 0-.5.1-.7.3-.3.2-.4.4-.4.7V17c0 .9.2 1.9.5 2.8.4.9.8 1.7 1.4 2.5.6.7 1.2 1.4 2 2.1.7.7 1.4 1.2 2.1 1.7.6.4 1.3.9 2 1.3s1.2.7 1.5.8c.3.1.5.3.7.3.1.1.3.1.4.1s.3 0 .4-.1c.2-.1.4-.2.7-.3.3-.1.8-.4 1.5-.8s1.3-.8 2-1.3c.6-.4 1.3-1 2.1-1.7.7-.7 1.4-1.4 1.9-2.1.5-.7 1-1.5 1.4-2.5.4-.9.5-1.9.5-2.8V4.5c-.1-.3-.2-.5-.4-.7zm-3.5 13.7c.4.4.6.9.6 1.4 0 .5-.2.9-.5 1.4l-1.4 1.4c-.4.4-.9.6-1.4.6-.5 0-.9-.2-1.4-.5L16 19.4l-2.4 2.4c-.4.4-.9.6-1.4.6-.5 0-.9-.2-1.4-.5l-1.4-1.4c-.4-.4-.6-.9-.6-1.4 0-.7.3-1.1.5-1.4l2.4-2.4L9.4 13c-.4-.4-.6-.9-.6-1.5 0-.5.2-.9.5-1.4V10h.1l1.4-1.4c.4-.4.9-.6 1.4-.6.5 0 .9.2 1.4.5l2.3 2.4 2.4-2.4c.4-.4.9-.6 1.4-.6.5 0 .9.2 1.4.5l1.4 1.4c.4.4.6.9.6 1.4 0 .5-.2.9-.5 1.4L20.2 15l2.5 2.5z"/>
</svg>
