<?xml version="1.0" encoding="UTF-8" standalone="no"?>
<svg
   xmlns:dc="http://purl.org/dc/elements/1.1/"
   xmlns:cc="http://creativecommons.org/ns#"
   xmlns:rdf="http://www.w3.org/1999/02/22-rdf-syntax-ns#"
   xmlns:svg="http://www.w3.org/2000/svg"
   xmlns="http://www.w3.org/2000/svg"
   xmlns:sodipodi="http://sodipodi.sourceforge.net/DTD/sodipodi-0.dtd"
   xmlns:inkscape="http://www.inkscape.org/namespaces/inkscape"
   viewBox="0 0 32 32"
   version="1.1"
   id="svg6"
   sodipodi:docname="security-high.svg"
   inkscape:version="0.92.4 5da689c313, 2019-01-14">
  <metadata
     id="metadata12">
    <rdf:RDF>
      <cc:Work
         rdf:about="">
        <dc:format>image/svg+xml</dc:format>
        <dc:type
           rdf:resource="http://purl.org/dc/dcmitype/StillImage" />
      </cc:Work>
    </rdf:RDF>
  </metadata>
  <defs
     id="defs10" />
  <sodipodi:namedview
     pagecolor="#ffffff"
     bordercolor="#666666"
     borderopacity="1"
     objecttolerance="10"
     gridtolerance="10"
     guidetolerance="10"
     inkscape:pageopacity="0"
     inkscape:pageshadow="2"
     inkscape:window-width="1366"
     inkscape:window-height="703"
     id="namedview8"
     showgrid="false"
     inkscape:zoom="7.375"
     inkscape:cx="16"
     inkscape:cy="16"
     inkscape:window-x="0"
     inkscape:window-y="0"
     inkscape:window-maximized="1"
     inkscape:current-layer="svg6" />
  <g
     id="g12">
    <g
       transform="matrix(1.0642622,0,0,1.0864339,-1.4381878,-1.2516713)"
       id="g824">
      <path
         inkscape:connector-curvature="0"
         d="m 24.2,11.2 c 0,0.3 -0.1,0.5 -0.3,0.7 l -7.6,7.6 -1.5,1.5 c -0.2,0.2 -0.4,0.3 -0.7,0.3 -0.3,0 -0.5,-0.1 -0.7,-0.3 L 12,19.6 8.2,15.8 C 8,15.6 7.9,15.4 7.9,15.1 7.9,14.8 8,14.6 8.2,14.4 L 9.6,13 c 0.2,-0.2 0.4,-0.3 0.7,-0.3 0.3,0 0.5,0.1 0.7,0.3 L 14.1,16.1 21,9 c 0.2,-0.2 0.4,-0.3 0.7,-0.3 0.3,0 0.5,0.1 0.7,0.3 l 1.4,1.4 c 0.3,0.3 0.4,0.5 0.4,0.8 z"
         id="path2"
         style="fill:#2ecc71;fill-opacity:1" />
      <path
         inkscape:connector-curvature="0"
         d="M 26.2,3.8 C 26,3.6 25.7,3.5 25.5,3.5 H 6.6 C 6.3,3.5 6.1,3.6 5.9,3.8 5.6,4 5.5,4.2 5.5,4.5 V 17 c 0,0.9 0.2,1.9 0.5,2.8 0.4,0.9 0.8,1.7 1.4,2.5 0.6,0.7 1.2,1.4 2,2.1 0.7,0.7 1.4,1.2 2.1,1.7 0.6,0.4 1.3,0.9 2,1.3 0.7,0.4 1.2,0.7 1.5,0.8 0.3,0.1 0.5,0.3 0.7,0.3 0.1,0.1 0.3,0.1 0.4,0.1 0.2,0 0.3,0 0.4,-0.1 0.2,-0.1 0.4,-0.2 0.7,-0.3 0.3,-0.1 0.8,-0.4 1.5,-0.8 0.7,-0.4 1.3,-0.8 2,-1.3 0.6,-0.4 1.3,-1 2.1,-1.7 0.7,-0.7 1.4,-1.4 1.9,-2.1 0.5,-0.7 1,-1.5 1.4,-2.5 0.4,-0.9 0.5,-1.9 0.5,-2.8 V 4.5 C 26.5,4.2 26.4,4 26.2,3.8 Z m -1.6,8.8 -7.6,7.6 -1.4,1.4 c -0.4,0.4 -0.9,0.6 -1.4,0.6 -0.5,0 -1,-0.2 -1.4,-0.6 L 11.4,20.2 7.6,16.4 C 7,16 6.8,15.5 6.8,15 6.8,14.5 7,14 7.4,13.6 l 1.4,-1.4 c 0.4,-0.4 0.9,-0.6 1.4,-0.6 0.5,0 1,0.2 1.4,0.6 l 2.4,2.4 6.2,-6.2 c 0.4,-0.4 0.9,-0.6 1.4,-0.6 0.5,0 1,0.2 1.4,0.6 l 1.4,1.4 c 0.4,0.4 0.6,0.9 0.6,1.4 0.2,0.5 0,1 -0.4,1.4 z"
         id="path4"
         style="fill:#1ea95d;fill-opacity:1" />
    </g>
  </g>
</svg>
