<svg viewBox="0 0 32 32" xmlns="http://www.w3.org/2000/svg"><g fill="#427337"><path d="m24.2 11.2c0 .3-.1.5-.3.7l-7.6 7.6-1.5 1.5c-.2.2-.4.3-.7.3s-.5-.1-.7-.3l-1.4-1.4-3.8-3.8c-.2-.2-.3-.4-.3-.7s.1-.5.3-.7l1.4-1.4c.2-.2.4-.3.7-.3s.5.1.7.3l3.1 3.1 6.9-7.1c.2-.2.4-.3.7-.3s.5.1.7.3l1.4 1.4c.3.3.4.5.4.8z"/><path d="m26.2 3.8c-.2-.2-.5-.3-.7-.3h-18.9c-.3 0-.5.1-.7.3-.3.2-.4.4-.4.7v12.5c0 .9.2 1.9.5 2.8.4.9.8 1.7 1.4 2.5.6.7 1.2 1.4 2 2.1.7.7 1.4 1.2 2.1 1.7.6.4 1.3.9 2 1.3s1.2.7 1.5.8.5.3.7.3c.1.1.3.1.4.1.2 0 .3 0 .4-.1.2-.1.4-.2.7-.3s.8-.4 1.5-.8 1.3-.8 2-1.3c.6-.4 1.3-1 2.1-1.7.7-.7 1.4-1.4 1.9-2.1s1-1.5 1.4-2.5c.4-.9.5-1.9.5-2.8v-12.5c-.1-.3-.2-.5-.4-.7zm-1.6 8.8-7.6 7.6-1.4 1.4c-.4.4-.9.6-1.4.6s-1-.2-1.4-.6l-1.4-1.4-3.8-3.8c-.6-.4-.8-.9-.8-1.4s.2-1 .6-1.4l1.4-1.4c.4-.4.9-.6 1.4-.6s1 .2 1.4.6l2.4 2.4 6.2-6.2c.4-.4.9-.6 1.4-.6s1 .2 1.4.6l1.4 1.4c.4.4.6.9.6 1.4.2.5 0 1-.4 1.4z"/></g></svg>