<?xml version="1.0" encoding="UTF-8" standalone="no"?>
<svg
   xmlns:dc="http://purl.org/dc/elements/1.1/"
   xmlns:cc="http://creativecommons.org/ns#"
   xmlns:rdf="http://www.w3.org/1999/02/22-rdf-syntax-ns#"
   xmlns:svg="http://www.w3.org/2000/svg"
   xmlns="http://www.w3.org/2000/svg"
   xmlns:sodipodi="http://sodipodi.sourceforge.net/DTD/sodipodi-0.dtd"
   xmlns:inkscape="http://www.inkscape.org/namespaces/inkscape"
   viewBox="0 0 32 32"
   version="1.1"
   id="svg6"
   sodipodi:docname="security-low.svg"
   inkscape:version="0.92.4 5da689c313, 2019-01-14">
  <metadata
     id="metadata12">
    <rdf:RDF>
      <cc:Work
         rdf:about="">
        <dc:format>image/svg+xml</dc:format>
        <dc:type
           rdf:resource="http://purl.org/dc/dcmitype/StillImage" />
        <dc:title></dc:title>
      </cc:Work>
    </rdf:RDF>
  </metadata>
  <defs
     id="defs10">
    <linearGradient
       id="c"
       gradientTransform="matrix(0,-0.01781461,0.01728217,0,39.257996,1.9453023)"
       gradientUnits="userSpaceOnUse"
       x1="487.74164"
       x2="493.5094"
       y1="985.34576"
       y2="11.610633">
      <stop
         offset="0"
         stop-color="#d3d3d3"
         id="stop12" />
      <stop
         offset="1"
         stop-color="#ddd"
         id="stop14" />
    </linearGradient>
    <linearGradient
       id="a"
       gradientUnits="userSpaceOnUse"
       x1="399.57144"
       x2="399.57144"
       y1="545.79797"
       y2="517.79797">
      <stop
         offset="0"
         stop-color="#3889e9"
         id="stop2" />
      <stop
         offset="1"
         stop-color="#5ea5fb"
         id="stop4" />
    </linearGradient>
    <linearGradient
       id="b"
       gradientUnits="userSpaceOnUse"
       x1="400.55615"
       x2="400.55615"
       y1="546.92657"
       y2="516.4751"
       gradientTransform="matrix(0.86384581,0,0,0.89104038,-298.84546,-465.10766)">
      <stop
         offset="0"
         stop-color="#2e3e46"
         id="stop7" />
      <stop
         offset="1"
         stop-color="#435a64"
         id="stop9" />
    </linearGradient>
  </defs>
  <sodipodi:namedview
     pagecolor="#ffffff"
     bordercolor="#666666"
     borderopacity="1"
     objecttolerance="10"
     gridtolerance="10"
     guidetolerance="10"
     inkscape:pageopacity="0"
     inkscape:pageshadow="2"
     inkscape:window-width="1366"
     inkscape:window-height="703"
     id="namedview8"
     showgrid="false"
     inkscape:zoom="7.375"
     inkscape:cx="16.592828"
     inkscape:cy="16"
     inkscape:window-x="0"
     inkscape:window-y="0"
     inkscape:window-maximized="1"
     inkscape:current-layer="svg6" />
  <g
     id="g25"
     transform="matrix(0.99421202,0,0,1.1111808,-0.11082261,-1.9444431)">
    <g
       transform="matrix(1.0963933,0,0,1.0756297,-1.7505021,-1.0782632)"
       id="g23">
      <path
         inkscape:connector-curvature="0"
         d="m 22.3,18.9 c 0,0.3 -0.1,0.5 -0.3,0.7 L 20.6,21 c -0.2,0.2 -0.4,0.3 -0.7,0.3 -0.3,0 -0.5,-0.1 -0.7,-0.3 L 16,18 12.9,21 c -0.2,0.2 -0.4,0.3 -0.7,0.3 -0.3,0 -0.5,-0.1 -0.7,-0.3 L 10,19.6 C 9.8,19.4 9.7,19.2 9.7,18.9 9.7,18.6 9.8,18.4 10,18.2 l 3.1,-3.1 -3,-3 C 9.9,11.9 9.8,11.6 9.8,11.4 c 0,-0.3 0.1,-0.5 0.3,-0.7 L 11.6,9.3 C 11.8,9.1 12,9 12.3,9 12.6,9 12.8,9.1 13,9.3 l 3,3.1 3.1,-3.1 C 19.3,9.1 19.5,9 19.8,9 c 0.3,0 0.5,0.1 0.7,0.3 l 1.4,1.4 c 0.2,0.2 0.3,0.4 0.3,0.7 0,0.3 -0.1,0.5 -0.3,0.7 l -3.1,3.1 3.1,3.1 c 0.3,0.1 0.4,0.3 0.4,0.6 z"
         id="path2"
         style="fill:#da4453;fill-opacity:1" />
      <path
         style="fill:#733737"
         inkscape:connector-curvature="0"
         d="M 26.2,3.8 C 26,3.6 25.7,3.5 25.5,3.5 H 6.6 C 6.3,3.5 6.1,3.6 5.9,3.8 5.6,4 5.5,4.2 5.5,4.5 V 17 c 0,0.9 0.2,1.9 0.5,2.8 0.4,0.9 0.8,1.7 1.4,2.5 0.6,0.7 1.2,1.4 2,2.1 0.7,0.7 1.4,1.2 2.1,1.7 0.6,0.4 1.3,0.9 2,1.3 0.7,0.4 1.2,0.7 1.5,0.8 0.3,0.1 0.5,0.3 0.7,0.3 0.1,0.1 0.3,0.1 0.4,0.1 0.1,0 0.3,0 0.4,-0.1 0.2,-0.1 0.4,-0.2 0.7,-0.3 0.3,-0.1 0.8,-0.4 1.5,-0.8 0.7,-0.4 1.3,-0.8 2,-1.3 0.6,-0.4 1.3,-1 2.1,-1.7 0.7,-0.7 1.4,-1.4 1.9,-2.1 0.5,-0.7 1,-1.5 1.4,-2.5 0.4,-0.9 0.5,-1.9 0.5,-2.8 V 4.5 C 26.5,4.2 26.4,4 26.2,3.8 Z m -3.5,13.7 c 0.4,0.4 0.6,0.9 0.6,1.4 0,0.5 -0.2,0.9 -0.5,1.4 l -1.4,1.4 c -0.4,0.4 -0.9,0.6 -1.4,0.6 -0.5,0 -0.9,-0.2 -1.4,-0.5 L 16,19.4 13.6,21.8 c -0.4,0.4 -0.9,0.6 -1.4,0.6 -0.5,0 -0.9,-0.2 -1.4,-0.5 L 9.4,20.5 C 9,20.1 8.8,19.6 8.8,19.1 8.8,18.4 9.1,18 9.3,17.7 L 11.7,15.3 9.4,13 C 9,12.6 8.8,12.1 8.8,11.5 8.8,11 9,10.6 9.3,10.1 V 10 H 9.4 L 10.8,8.6 C 11.2,8.2 11.7,8 12.2,8 c 0.5,0 0.9,0.2 1.4,0.5 l 2.3,2.4 2.4,-2.4 c 0.4,-0.4 0.9,-0.6 1.4,-0.6 0.5,0 0.9,0.2 1.4,0.5 l 1.4,1.4 c 0.4,0.4 0.6,0.9 0.6,1.4 0,0.5 -0.2,0.9 -0.5,1.4 L 20.2,15 Z"
         id="path4" />
      <circle
         id="circle17"
         r="0"
         cy="8.7947817"
         cx="47.444447"
         style="fill:#1d99f3;fill-opacity:1;stroke-width:0.83488357" />
      <circle
         style="fill:#1d99f3;fill-opacity:1;stroke-width:1.36709392"
         cx="11.089699"
         cy="34.874969"
         r="0"
         id="circle21" />
    </g>
  </g>
</svg>
