<?xml version="1.0" encoding="UTF-8" standalone="no"?>
<svg
   xmlns:dc="http://purl.org/dc/elements/1.1/"
   xmlns:cc="http://creativecommons.org/ns#"
   xmlns:rdf="http://www.w3.org/1999/02/22-rdf-syntax-ns#"
   xmlns:svg="http://www.w3.org/2000/svg"
   xmlns="http://www.w3.org/2000/svg"
   xmlns:sodipodi="http://sodipodi.sourceforge.net/DTD/sodipodi-0.dtd"
   xmlns:inkscape="http://www.inkscape.org/namespaces/inkscape"
   viewBox="0 0 32 32"
   version="1.1"
   id="svg6"
   sodipodi:docname="security-low.svg"
   inkscape:version="0.92.4 5da689c313, 2019-01-14">
  <metadata
     id="metadata12">
    <rdf:RDF>
      <cc:Work
         rdf:about="">
        <dc:format>image/svg+xml</dc:format>
        <dc:type
           rdf:resource="http://purl.org/dc/dcmitype/StillImage" />
      </cc:Work>
    </rdf:RDF>
  </metadata>
  <defs
     id="defs10">
    <linearGradient
       id="c"
       gradientTransform="matrix(0,-0.01781461,0.01728217,0,39.257996,1.9453023)"
       gradientUnits="userSpaceOnUse"
       x1="487.74164"
       x2="493.5094"
       y1="985.34576"
       y2="11.610633">
      <stop
         offset="0"
         stop-color="#d3d3d3"
         id="stop12" />
      <stop
         offset="1"
         stop-color="#ddd"
         id="stop14" />
    </linearGradient>
    <linearGradient
       id="a"
       gradientUnits="userSpaceOnUse"
       x1="399.57144"
       x2="399.57144"
       y1="545.79797"
       y2="517.79797">
      <stop
         offset="0"
         stop-color="#3889e9"
         id="stop2" />
      <stop
         offset="1"
         stop-color="#5ea5fb"
         id="stop4" />
    </linearGradient>
    <linearGradient
       id="b"
       gradientUnits="userSpaceOnUse"
       x1="400.55615"
       x2="400.55615"
       y1="546.92657"
       y2="516.4751"
       gradientTransform="matrix(0.86384581,0,0,0.89104038,-298.84546,-465.10766)">
      <stop
         offset="0"
         stop-color="#2e3e46"
         id="stop7" />
      <stop
         offset="1"
         stop-color="#435a64"
         id="stop9" />
    </linearGradient>
  </defs>
  <sodipodi:namedview
     pagecolor="#ffffff"
     bordercolor="#666666"
     borderopacity="1"
     objecttolerance="10"
     gridtolerance="10"
     guidetolerance="10"
     inkscape:pageopacity="0"
     inkscape:pageshadow="2"
     inkscape:window-width="1366"
     inkscape:window-height="703"
     id="namedview8"
     showgrid="false"
     inkscape:zoom="7.375"
     inkscape:cx="16.592828"
     inkscape:cy="16"
     inkscape:window-x="0"
     inkscape:window-y="0"
     inkscape:window-maximized="1"
     inkscape:current-layer="svg6" />
  <path
     fill="#733737"
     d="M22.3 18.9c0 .3-.1.5-.3.7L20.6 21c-.2.2-.4.3-.7.3-.3 0-.5-.1-.7-.3L16 18l-3.1 3c-.2.2-.4.3-.7.3-.3 0-.5-.1-.7-.3L10 19.6c-.2-.2-.3-.4-.3-.7s.1-.5.3-.7l3.1-3.1-3-3c-.2-.2-.3-.5-.3-.7 0-.3.1-.5.3-.7l1.5-1.4c.2-.2.4-.3.7-.3.3 0 .5.1.7.3l3 3.1 3.1-3.1c.2-.2.4-.3.7-.3.3 0 .5.1.7.3l1.4 1.4c.2.2.3.4.3.7 0 .3-.1.5-.3.7l-3.1 3.1 3.1 3.1c.3.1.4.3.4.6z"
     id="path2"
     style="fill:#da4453;fill-opacity:1" />
  <path
     fill="#733737"
     d="M26.2 3.8c-.2-.2-.5-.3-.7-.3H6.6c-.3 0-.5.1-.7.3-.3.2-.4.4-.4.7V17c0 .9.2 1.9.5 2.8.4.9.8 1.7 1.4 2.5.6.7 1.2 1.4 2 2.1.7.7 1.4 1.2 2.1 1.7.6.4 1.3.9 2 1.3s1.2.7 1.5.8c.3.1.5.3.7.3.1.1.3.1.4.1s.3 0 .4-.1c.2-.1.4-.2.7-.3.3-.1.8-.4 1.5-.8s1.3-.8 2-1.3c.6-.4 1.3-1 2.1-1.7.7-.7 1.4-1.4 1.9-2.1.5-.7 1-1.5 1.4-2.5.4-.9.5-1.9.5-2.8V4.5c-.1-.3-.2-.5-.4-.7zm-3.5 13.7c.4.4.6.9.6 1.4 0 .5-.2.9-.5 1.4l-1.4 1.4c-.4.4-.9.6-1.4.6-.5 0-.9-.2-1.4-.5L16 19.4l-2.4 2.4c-.4.4-.9.6-1.4.6-.5 0-.9-.2-1.4-.5l-1.4-1.4c-.4-.4-.6-.9-.6-1.4 0-.7.3-1.1.5-1.4l2.4-2.4L9.4 13c-.4-.4-.6-.9-.6-1.5 0-.5.2-.9.5-1.4V10h.1l1.4-1.4c.4-.4.9-.6 1.4-.6.5 0 .9.2 1.4.5l2.3 2.4 2.4-2.4c.4-.4.9-.6 1.4-.6.5 0 .9.2 1.4.5l1.4 1.4c.4.4.6.9.6 1.4 0 .5-.2.9-.5 1.4L20.2 15l2.5 2.5z"
     id="path4" />
  <circle
     id="circle17"
     r="0"
     cy="8.7947817"
     cx="47.444447"
     style="fill:#1d99f3;fill-opacity:1;stroke-width:0.83488357" />
  <circle
     style="fill:#1d99f3;fill-opacity:1;stroke-width:1.36709392"
     cx="11.089699"
     cy="34.874969"
     r="0"
     id="circle21" />
</svg>
