<svg xmlns="http://www.w3.org/2000/svg" viewBox="0 0 32 32">
  <path fill="#375273" d="M30.3 19.1c0 2.8-.8 5.4-2.3 7.7-.2.3-.5.5-.9.5H4.8c-.4 0-.7-.2-.9-.5-1.5-2.4-2.3-4.9-2.3-7.7 0-1.9.4-3.8 1.1-5.6.8-1.8 1.8-3.3 3.1-4.6 1.3-1.3 2.8-2.3 4.6-3.1C12.2 5 14 4.7 16 4.7c1.9 0 3.8.4 5.6 1.1 1.8.8 3.3 1.8 4.6 3.1 1.3 1.3 2.3 2.8 3.1 4.6s1 3.6 1 5.6zM7.2 20.5c.4-.4.6-.9.6-1.4 0-.6-.2-1-.6-1.4-.4-.5-.9-.7-1.4-.7s-1 .2-1.4.6c-.4.4-.6.9-.6 1.4 0 .6.2 1 .6 1.4.4.4.9.6 1.4.6s1-.1 1.4-.5zm3.1-7.1c.4-.4.6-.9.6-1.4s-.2-1-.6-1.4c-.4-.4-.9-.6-1.4-.6-.6 0-1 .2-1.4.6-.4.4-.6.9-.6 1.4s.2 1 .6 1.4c.3.4.8.6 1.3.6.6 0 1.1-.2 1.5-.6zm7.4 6.2l1.6-6.1c.1-.3 0-.5-.1-.8-.1-.2-.3-.4-.6-.5-.3-.1-.5 0-.8.1-.2.1-.4.4-.5.6L15.7 19c-.6.1-1.2.3-1.7.7-.5.4-.8.9-1 1.6-.2.8-.1 1.6.3 2.3.4.7 1.1 1.2 1.9 1.4.8.2 1.6.1 2.3-.3.7-.4 1.2-1.1 1.4-1.9.2-.6.1-1.3-.1-1.9-.2-.5-.5-.9-1.1-1.3zm-.3-9.3c.4-.4.6-.9.6-1.5s-.2-1-.6-1.4c-.4-.4-.8-.6-1.4-.6-.6 0-1 .2-1.4.6-.4.4-.6.9-.6 1.4 0 .6.2 1 .6 1.4.4.4.9.6 1.4.6.6.1 1-.1 1.4-.5zm7.2 3.1c.4-.4.6-.9.6-1.4s-.2-1-.6-1.4c-.4-.4-.9-.6-1.4-.6-.6 0-1 .2-1.4.6-.4.4-.6.9-.6 1.4s.2 1 .6 1.4c.4.4.9.6 1.4.6.5 0 1-.2 1.4-.6zm3.1 7.1c.4-.4.6-.9.6-1.4 0-.6-.2-1-.6-1.4-.4-.4-.9-.6-1.4-.6-.6 0-1 .2-1.4.6-.4.4-.6.9-.6 1.4 0 .6.2 1 .6 1.4.4.4.9.6 1.4.6.5 0 1-.2 1.4-.6z"/>
</svg>
