<?xml version="1.0" encoding="UTF-8" standalone="no"?>
<svg
   xmlns:dc="http://purl.org/dc/elements/1.1/"
   xmlns:cc="http://creativecommons.org/ns#"
   xmlns:rdf="http://www.w3.org/1999/02/22-rdf-syntax-ns#"
   xmlns:svg="http://www.w3.org/2000/svg"
   xmlns="http://www.w3.org/2000/svg"
   xmlns:sodipodi="http://sodipodi.sourceforge.net/DTD/sodipodi-0.dtd"
   xmlns:inkscape="http://www.inkscape.org/namespaces/inkscape"
   viewBox="0 0 32 32"
   version="1.1"
   id="svg6"
   sodipodi:docname="speedometer.svg"
   inkscape:version="0.92.4 5da689c313, 2019-01-14"
   width="32"
   height="32">
  <metadata
     id="metadata10">
    <rdf:RDF>
      <cc:Work
         rdf:about="">
        <dc:format>image/svg+xml</dc:format>
        <dc:type
           rdf:resource="http://purl.org/dc/dcmitype/StillImage" />
        <dc:title></dc:title>
      </cc:Work>
    </rdf:RDF>
  </metadata>
  <sodipodi:namedview
     pagecolor="#ffffff"
     bordercolor="#666666"
     borderopacity="1"
     objecttolerance="10"
     gridtolerance="10"
     guidetolerance="10"
     inkscape:pageopacity="0"
     inkscape:pageshadow="2"
     inkscape:window-width="1366"
     inkscape:window-height="703"
     id="namedview8"
     showgrid="false"
     inkscape:zoom="10.727273"
     inkscape:cx="11"
     inkscape:cy="11"
     inkscape:window-x="0"
     inkscape:window-y="0"
     inkscape:window-maximized="1"
     inkscape:current-layer="svg6" />
  <defs
     id="defs3051">
    <style
       type="text/css"
       id="current-color-scheme">
     .ColorScheme-Text {
       color:#f2f2f2;
     }
     </style>
  </defs>
  <path
     style="color:#f2f2f2;fill:#1d99f3;fill-opacity:1;stroke:none;stroke-width:1.87869477"
     d="m 15.974576,22.781185 a 4.2,4.8404493 0 0 1 -4.2,-4.840449 c 0,-1.807101 0.854,-3.388315 2.1,-4.211191 l 13.594,-9.0677734 -7.742,15.4571664 c -0.7,1.581213 -2.114,2.662247 -3.752,2.662247 m 0,-20.9752785 c 2.534,0 4.9,0.8067416 6.958,2.1297977 l -2.94,1.9523146 c -1.218,-0.5485843 -2.618,-0.8551461 -4.018,-0.8551461 A 11.2,12.907865 0 0 0 4.7745763,17.940736 c 0,3.565797 1.246,6.792764 3.276,9.116179 h 0.014 c 0.546,0.629259 0.546,1.645753 0,2.275011 -0.546,0.629259 -1.442,0.629259 -1.988,0.01614 -2.534,-2.920409 -4.102,-6.954117 -4.102,-11.40733 A 14,16.134831 0 0 1 15.974576,1.8059065 m 14,16.1348295 c 0,4.453213 -1.568,8.486921 -4.102,11.407325 -0.546,0.613124 -1.428,0.613124 -1.974,-0.01614 -0.546,-0.629258 -0.546,-1.645752 0,-2.275011 2.03,-2.33955 3.276,-5.550382 3.276,-9.116179 0,-1.613483 -0.266,-3.226966 -0.756,-4.679101 l 1.694,-3.388308 c 1.162,2.420225 1.862,5.130874 1.862,8.067414 z"
     class="ColorScheme-Text"
     id="path4"
     inkscape:connector-curvature="0" />
</svg>
