<svg xmlns="http://www.w3.org/2000/svg" viewBox="0 0 16 16">
  <defs id="defs3051">
    <style type="text/css" id="current-color-scheme">
      .ColorScheme-Text {
        color:#4d4d4d;
      }
      .ColorScheme-PositiveText {
        color:#27ae60;
      }
      </style>
  </defs>
 <path style="fill:currentColor;fill-opacity:1;stroke:none" 
     d="M 7.5 2 C 5.0147186 2 3 4.0147186 3 6.5 C 3.0015312 6.7197442 3.0191564 6.939081 3.0527344 7.15625 C 1.8279505 7.563833 1.0011929 8.7091793 1 10 C 1 11.656854 2.3431458 13 4 13 L 11.5 13 C 13.432997 13 14.822266 11.522841 14.822266 9.5898438 C 14.478661 8.4125977 13.437922 6.8177525 11.982422 6.1835938 C 11.952542 6.1705748 12.000843 6.0473359 11.970703 6.0351562 C 11.732774 3.7441624 9.803314 2.0026739 7.5 2 z M 7.5 3 C 9.4329966 3 11 4.5670034 11 6.5 C 10.998359 6.6892144 10.981376 6.8779841 10.949219 7.0644531 C 11.129854 7.0226102 11.314584 7.0009929 11.5 7 C 12.880712 7 14 8.1192881 14 9.5 C 14 10.880712 12.880712 12 11.5 12 L 4 12 C 2.8954305 12 2 11.104569 2 10 C 2 8.8954305 2.8954305 8 4 8 C 4.119895 8.000332 4.2395173 8.0114445 4.3574219 8.0332031 C 4.1233957 7.5559094 4.0011632 7.031579 4 6.5 C 4 4.5670034 5.5670034 3 7.5 3 z "
     class="ColorScheme-Text"
     />
  <path
      style="fill:currentColor;fill-opacity:1;stroke:none" 
     class="ColorScheme-PositiveText"
   d="M 7 6 L 7 10 A 4 3.9999852 0 0 0 11 14 A 4 3.9999852 0 0 0 15 10 L 15 6 L 11 6 L 7 6 z "
      />
      <path
         style="opacity:1;fill:#ffffff"
         d="M 10.5 7 L 10.5 11.085938 L 8.7070312 9.2929688 L 8 10 L 11 13 L 14 10 L 13.292969 9.2929688 L 11.5 11.085938 L 11.5 7 L 10.5 7 z "/>
</svg>
