<svg xmlns="http://www.w3.org/2000/svg" width="22" height="22" version="1.1">
 <defs>
  <style id="current-color-scheme" type="text/css">
   .ColorScheme-Text { color:#375273; } .ColorScheme-Highlight { color:#733737; }
  </style>
 </defs>
 <g transform="translate(-624 -502)">
  <path style="fill:currentColor" class="ColorScheme-Text" d="m11 3c-4.4183 0-8 3.5817-8 8 0 4.418 3.5817 8 8 8 4.418 0 8-3.582 8-8 0-4.4183-3.582-8-8-8zm0.145 3.998v0.002h0.001c1.309 0.048 2.501 0.7374 3.204 1.8184l1.388-0.4629-1.57 3.1465-3.147-1.5743 1.278-0.4257c-0.338-0.294-0.763-0.487-1.229-0.504-0.742-0.027-1.4343 0.3551-1.8063 0.9981l-1.7325-1c0.7401-1.282 2.1343-2.0531 3.6138-1.9981zm-3.313 3.5l3.147 1.574-1.2778 0.426c0.3378 0.294 0.7628 0.485 1.2288 0.502 0.742 0.027 1.434-0.355 1.806-0.998l1.733 1c-0.74 1.282-2.135 2.053-3.614 1.998-1.3085-0.048-2.4997-0.737-3.2027-1.818l-1.3886 0.463 1.5683-3.147z" transform="translate(624 502)"/>
 </g>
</svg>
