<svg xmlns="http://www.w3.org/2000/svg" viewBox="0 0 16 16">
  <defs id="defs3051">
    <style type="text/css" id="current-color-scheme">
      .ColorScheme-Text {
        color:#4d4d4d;
      }
      .ColorScheme-NeutralText {
        color:#f67400;
      }
      </style>
  </defs>
 <path style="fill:currentColor;fill-opacity:1;stroke:none" 
     d="M 7.5 2 A 4.5 4.5 0 0 0 3 6.5 A 4.5 4.5 0 0 0 3.0527344 7.15625 A 3 3 0 0 0 1 10 A 3 3 0 0 0 4 13 L 11.5 13 A 3.5 3.5 0 0 0 15 9.5 A 3.5 3.5 0 0 0 11.970703 6.0351562 A 4.5 4.5 0 0 0 7.5 2 z M 7.5 3 A 3.5 3.5 0 0 1 11 6.5 A 3.5 3.5 0 0 1 10.949219 7.0644531 A 2.5 2.5 0 0 1 11.5 7 A 2.5 2.5 0 0 1 14 9.5 A 2.5 2.5 0 0 1 11.5 12 L 4 12 A 2 2 0 0 1 2 10 A 2 2 0 0 1 4 8 A 2 2 0 0 1 4.3574219 8.0332031 A 3.5 3.5 0 0 1 4 6.5 A 3.5 3.5 0 0 1 7.5 3 z "
     class="ColorScheme-Text"
     /> 
 <path
      d="M 10.5 6 A 0.5 0.5002376 0 0 0 10.056641 6.2714844 A 0.5 0.5002376 0 0 1 10.054688 6.2714844 L 10.052734 6.2714844 L 6.0664062 13.248047 L 6.0683594 13.248047 A 0.5 0.5002376 0 0 0 6 13.5 A 0.5 0.5002376 0 0 0 6.5 14 L 14.5 14 A 0.5 0.5002376 0 0 0 15 13.5 A 0.5 0.5002376 0 0 0 14.931641 13.248047 L 14.933594 13.248047 L 10.947266 6.2695312 L 10.943359 6.2695312 A 0.5 0.5002376 0 0 0 10.503906 6 L 10.5 6 z "
        style="fill:currentColor;fill-opacity:1;stroke:none" 
     class="ColorScheme-NeutralText"
    />
    <path
       style="opacity:1;fill:#ffffff"
       d="M 10 8.0039062 L 10 11.003906 L 11 11.003906 L 11 8.0039062 L 10 8.0039062 z M 10 12.003906 L 10 12.005859 L 10 13.005859 L 11 13.005859 L 11 12.005859 L 11 12.003906 L 10 12.003906 z "
       />
</svg>
