<svg viewBox="0 0 32 32" xmlns="http://www.w3.org/2000/svg"><path d="m13.7 24.8v1.1c0 .1-.1.2-.2.3s-.2.1-.3.1h-5.2c-1.3 0-2.4-.5-3.3-1.4s-1.4-2-1.4-3.3v-11.3c0-1.3.5-2.4 1.4-3.3s2-1.4 3.3-1.4h5.2c.1 0 .3.1.4.2s.2.2.2.4v1.1c0 .1-.1.2-.2.3s-.2.1-.3.1h-5.3c-.7.1-1.3.3-1.8.8s-.8 1.1-.8 1.8v11.3c0 .7.3 1.3.8 1.8.5.6 1.1.8 1.8.8h5.4l.1.1c.1 0 .1.1.1.1.1.2.1.3.1.4zm14.9-8.8c0 .3-.1.5-.3.7l-8.8 8.8c-.2.2-.4.3-.7.3s-.5-.1-.7-.3-.3-.4-.3-.7v-4.6h-7.2c-.3 0-.5-.1-.7-.3s-.3-.4-.3-.7v-6.2c0-.3.1-.5.3-.7s.4-.3.7-.3h7.2v-4.8c0-.3.1-.5.3-.7s.4-.3.7-.3.5.1.7.3l8.8 8.8c.2.2.3.4.3.7z" fill="#733737"/></svg>