<svg viewBox="0 0 32 32" xmlns="http://www.w3.org/2000/svg"><path d="m30.2 26.2c0 .3-.1.6-.3.9l-1.9 1.9c-.2.2-.5.3-.9.3-.3 0-.6-.1-.9-.3l-3.9-4-3.9 3.9c-.2.2-.5.3-.9.3-.3 0-.6-.1-.9-.3l-1.8-1.8c-.2-.2-.3-.5-.3-.9s.1-.6.3-.9l3.9-3.9-3.8-3.8c-.3-.2-.4-.6-.4-.9s.1-.6.3-.9l1.9-1.7c.2-.2.5-.3.9-.3.3 0 .6.1.9.3l3.8 3.9 3.9-3.9c.2-.2.5-.3.9-.3.3 0 .6.1.9.3l1.8 1.8c.2.2.3.5.3.9 0 .3-.1.6-.3.9l-3.9 3.9 3.9 3.9c.3.1.4.4.4.7z" fill="#733737"/><path d="m15.9 23.3 2-2-3.5-3.5c-.4-.3-.6-.8-.6-1.3s.2-.9.5-1.2l1.9-1.7c.3-.3.8-.5 1.3-.5s.9.2 1.2.5l3.5 3.5 2.1-2.1v-8.4c0-.8-.7-1.5-1.5-1.5h-8.8c-.8 0-1.5.7-1.5 1.5v3h-10.5v12.2c0 .8.7 1.5 1.5 1.5z" fill="#375273"/></svg>