<?xml version="1.0" encoding="utf-8"?>
<!-- Generator: Adobe Illustrator 22.1.0, SVG Export Plug-In . SVG Version: 6.00 Build 0)  -->
<svg version="1.1" id="Layer_1" xmlns="http://www.w3.org/2000/svg" xmlns:xlink="http://www.w3.org/1999/xlink" x="0px" y="0px"
	 viewBox="0 0 32 32" style="enable-background:new 0 0 32 32;" xml:space="preserve">
<style type="text/css">
	.st0{fill:#375273;}
</style>
<path class="st0" d="M21.87848,24.36682l-2.31219,2.31219c-0.30829,0.30829-0.61658,0.46246-1.07904,0.46246
	s-0.77075-0.15417-1.07904-0.46246l-2.15808-2.15808l-5.85767-5.8576c-0.30829-0.30835-0.46246-0.61664-0.46246-1.07904
	c0-0.46246,0.15417-0.77075,0.46246-1.07904l2.15808-2.15808c0.30829-0.30835,0.61658-0.46246,1.07904-0.46246
	s0.77075,0.15411,1.07904,0.46246l4.77863,4.77856l10.26953-10.5672C26.19269,4.1731,21.44666,1.21875,16,1.21875
	C7.83655,1.21875,1.21875,7.83655,1.21875,16S7.83655,30.78125,16,30.78125S30.78125,24.16345,30.78125,16
	c0-0.17224-0.0199-0.33936-0.02576-0.51019L21.87848,24.36682z"/>
</svg>
