<svg xmlns="http://www.w3.org/2000/svg" viewBox="0 0 32 32">
  <path d="M28.219 3.055H3.78c-.55 0-1 .45-1 1v23.89c0 .55.45 1 1 1h24.44c.55 0 1-.45 1-1V4.055c0-.55-.45-1-1-1zm-3.191 17.738c.32.32.479.64.479 1.119 0 .32-.16.799-.48.959l-2.236 2.236c-.32.32-.64.48-1.119.48-.48 0-.799-.16-1.118-.48l-4.634-4.633-4.634 4.633c-.32.32-.639.48-1.118.48-.48 0-.799-.16-1.118-.48l-2.237-2.236c-.32-.32-.48-.64-.48-1.119 0-.48.16-.799.48-1.118L11.446 16l-4.633-4.634c-.32-.32-.48-.639-.48-1.118 0-.48.16-.799.48-1.119L9.05 6.893c.32-.32.639-.48 1.118-.48.48 0 .799.16 1.119.48l4.633 4.633 4.794-4.474c.32-.32.639-.479 1.118-.479.48 0 .799.16 1.118.48l2.237 2.236c.32.32.48.64.48 1.119s-.16.799-.48 1.118l-4.633 4.634 4.474 4.633z" fill="#733737"/>
</svg>
