<?xml version="1.0" encoding="utf-8"?>
<!-- Generator: Adobe Illustrator 22.1.0, SVG Export Plug-In . SVG Version: 6.00 Build 0)  -->
<svg version="1.1" id="Layer_1" xmlns="http://www.w3.org/2000/svg" xmlns:xlink="http://www.w3.org/1999/xlink" x="0px" y="0px"
	 viewBox="0 0 32 32" style="enable-background:new 0 0 32 32;" xml:space="preserve">
<style type="text/css">
	.st0{fill:#427337;}
</style>
<path class="st0" d="M22.47852,23.02536l-2.31226,2.31219c-0.30829,0.30829-0.61658,0.46246-1.07904,0.46246
	s-0.77075-0.15417-1.07904-0.46246l-2.15808-2.15808l-5.85767-5.8576c-0.30829-0.30835-0.4624-0.61664-0.4624-1.07904
	c0-0.46246,0.15411-0.77075,0.4624-1.07904l2.15808-2.15808c0.30829-0.30835,0.61664-0.46246,1.07904-0.46246
	c0.46246,0,0.77075,0.15411,1.07904,0.46246l4.77863,4.77856L29.21875,7.3591V4.05515c0-0.54999-0.45001-1-1-1H3.78125
	c-0.54999,0-1,0.45001-1,1v23.88971c0,0.55005,0.45001,1,1,1h24.4375c0.54999,0,1-0.44995,1-1V16.28506L22.47852,23.02536z"/>
</svg>
