<?xml version="1.0" encoding="utf-8"?>
<!-- Generator: Adobe Illustrator 22.1.0, SVG Export Plug-In . SVG Version: 6.00 Build 0)  -->
<svg version="1.1" id="Layer_1" xmlns="http://www.w3.org/2000/svg" xmlns:xlink="http://www.w3.org/1999/xlink" x="0px" y="0px"
	 viewBox="0 0 32 32" style="enable-background:new 0 0 32 32;" xml:space="preserve">
<style type="text/css">
	.st0{fill:#733737;}
</style>
<path class="st0" d="M28.21875,3.05511H3.78125c-0.54999,0-1,0.45001-1,1v23.88977c0,0.54999,0.45001,1,1,1h24.4375
	c0.54999,0,1-0.45001,1-1V4.05511C29.21875,3.50513,28.76874,3.05511,28.21875,3.05511z M25.02753,20.7934
	c0.31958,0.31958,0.47937,0.6391,0.47937,1.11847c0,0.31952-0.15979,0.79889-0.47937,0.95868l-2.23688,2.23688
	c-0.31958,0.31958-0.63916,0.47937-1.11847,0.47937c-0.47937,0-0.79889-0.15979-1.11847-0.47937l-4.63361-4.63361l-4.63361,4.63361
	c-0.31958,0.31958-0.6391,0.47937-1.11847,0.47937c-0.47931,0-0.79889-0.15979-1.11847-0.47937l-2.23688-2.23688
	c-0.31958-0.31958-0.47937-0.63916-0.47937-1.11847c0-0.47937,0.15979-0.79889,0.47937-1.11847L11.44629,16l-4.63361-4.63361
	c-0.31958-0.31958-0.47937-0.6391-0.47937-1.11847c0-0.47931,0.15979-0.79889,0.47937-1.11847l2.23688-2.23688
	C9.36914,6.573,9.68872,6.41321,10.16803,6.41321c0.47937,0,0.79889,0.15979,1.11847,0.47937l4.63361,4.63361l4.7934-4.47382
	C21.03308,6.73279,21.3526,6.573,21.83197,6.573c0.47931,0,0.79889,0.15979,1.11847,0.47937l2.23688,2.23688
	c0.31958,0.31958,0.47937,0.6391,0.47937,1.11847c0,0.47931-0.15979,0.79889-0.47937,1.11847l-4.63361,4.63361L25.02753,20.7934z"/>
</svg>
