<svg viewBox="0 0 16 16" xmlns="http://www.w3.org/2000/svg"><path d="m13.195474 4.988256c-.536511-.919216-1.264324-1.647024-2.183536-2.183536-.919403-.536512-1.923095-.80472-3.0117462-.80472-1.0885554 0-2.0925349.268208-3.0117467.80472-.9193077.536416-1.6471209 1.264224-2.1836313 2.183536-.5366065.919304-.8048138 1.923288-.8048138 3.011744 0 1.088552.2683032 2.092344.8047178 3.011744.5365106.91912 1.2643238 1.647024 2.1836314 2.183536.9193077.536512 1.9231913.80472 3.0117467.80472s2.0925341-.268208 3.0117461-.80472c.919212-.536416 1.647025-1.26432 2.183536-2.183536.536415-.919304.804622-1.923288.804622-3.011744 0-1.088552-.268207-2.092536-.804526-3.011744zm-2.367263 4.425752c.09896.09886.148535.21624.148535.351632 0 .140576-.04958.26044-.148535.359304l-.703073.703168c-.09896.09896-.2187276.14844-.3593996.14844-.1353984 0-.2527691-.04952-.351537-.14844l-1.4141055-1.414104-1.4141056 1.414104c-.09896.09896-.2161385.14844-.3515366.14844-.1406723 0-.2604402-.04952-.3593998-.14844l-.7031692-.703168c-.09896-.09886-.1484393-.218728-.1484393-.359304 0-.135392.04948-.252768.1484393-.351632l1.4141056-1.414008-1.4141056-1.414104c-.0989596-.098864-.1484393-.216144-.1484393-.351536 0-.140672.04948-.26044.1484393-.3594l.7031692-.703072c.09896-.09896.2187275-.14844.3593998-.14844.1353981 0 .252577.04952.3515366.14844l1.4141056 1.414008 1.4141055-1.414008c.098768-.09896.2161386-.14844.351537-.14844.140672 0 .2604396.04952.3593996.14844l.703073.703072c.09896.09896.148535.218728.148535.3594 0 .135392-.04958.252672-.148535.351536l-1.4140096 1.414104z" fill="#da4453"/></svg>