<svg enable-background="new" height="32" width="32" xmlns="http://www.w3.org/2000/svg" xmlns:xlink="http://www.w3.org/1999/xlink"><filter id="a" color-interpolation-filters="sRGB"><feBlend in2="BackgroundImage" mode="darken"/></filter><path d="m7.8880842 1.6622863c-1.2334652.0243458-2.4712016.4083896-3.5600445 1.170081-2.9035845 2.0312483-3.60540456 6.0089618-1.5722984 8.9098877 2.0331274 2.900937 6.0126558 3.602116 8.9162517 1.570857 2.088055-1.460735 3.036664-3.9226044 2.650335-6.2780678-.090015-.5503531-.261311-1.0625645-.483509-1.5583211l-5.8235922 6.6484119-.6303524.744286-.7162993-.687041-2.7506227-2.7481034c-.3451012-.3447381-.3450691-.9720367 0-1.3167962.3450799-.3447595.9729549-.3447809 1.3180134 0l2.0629617 2.0610826 5.5227295-6.3138606c-.987295-1.1370646-2.300642-1.8598669-3.7068987-2.1076064-.4043959-.071222-.815519-.1029356-1.2266741-.0948203z" fill="#2ecc71" stroke-width="1.067797" transform="matrix(2.1851847 0 0 2.1851878 -1.48148 -1.629674)"/><g fill="#1d99f3" filter="url(#a)" transform="translate(-485.00137 250.99797)"/></svg>