<svg viewBox="0 0 32 32" xmlns="http://www.w3.org/2000/svg"><path d="m25.4 9.1c.3.3.5.6.6 1 .2.4.3.8.3 1.2v15.4c0 .4-.1.7-.4.9-.2.3-.5.4-.9.4h-18c-.4 0-.7-.1-.9-.4-.3-.3-.4-.6-.4-.9v-21.4c0-.4.1-.7.4-.9s.5-.4.9-.4h12c.4 0 .8.1 1.2.3s.8.4 1 .6zm-.8 17.2v-13.7h-5.6c-.4 0-.7-.1-.9-.4s-.4-.6-.4-.9v-5.6h-10.3v20.6zm-13.7-11.6c0-.1 0-.2.1-.3s.2-.1.3-.1h9.4c.1 0 .2 0 .3.1s.1.2.1.3v.9c0 .1 0 .2-.1.3s-.2.1-.3.1h-9.4c-.1 0-.2 0-.3-.1s-.1-.2-.1-.3zm9.8 3c.1 0 .2 0 .3.1s.1.2.1.3v.9c0 .1 0 .2-.1.3s-.2.1-.3.1h-9.4c-.1 0-.2 0-.3-.1s-.1-.2-.1-.3v-.9c0-.1 0-.2.1-.3s.2-.1.3-.1zm0 3.4c.1 0 .2 0 .3.1s.1.2.1.3v.9c0 .1 0 .2-.1.3s-.2.1-.3.1h-9.4c-.1 0-.2 0-.3-.1s-.1-.2-.1-.3v-.9c0-.1 0-.2.1-.3s.2-.1.3-.1zm-1.3-15.3v5h5c-.1-.3-.2-.4-.3-.5l-4.1-4.2c-.1-.1-.3-.2-.6-.3z" fill="#375273"/></svg>