<svg xmlns="http://www.w3.org/2000/svg" viewBox="0 0 32 32">
  <path fill="#375273" d="M25.4 9.1c.3.3.5.6.6 1 .2.4.3.8.3 1.2v15.4c0 .4-.1.7-.4.9-.2.3-.5.4-.9.4H7c-.4 0-.7-.1-.9-.4-.3-.3-.4-.6-.4-.9V5.3c0-.4.1-.7.4-.9S6.6 4 7 4h12c.4 0 .8.1 1.2.3.4.2.8.4 1 .6l4.2 4.2zm-.8 17.2V12.6H19c-.4 0-.7-.1-.9-.4s-.4-.6-.4-.9V5.7H7.4v20.6h17.2zM10.9 14.7c0-.1 0-.2.1-.3.1-.1.2-.1.3-.1h9.4c.1 0 .2 0 .3.1.1.1.1.2.1.3v.9c0 .1 0 .2-.1.3-.1.1-.2.1-.3.1h-9.4c-.1 0-.2 0-.3-.1-.1-.1-.1-.2-.1-.3v-.9zm9.8 3c.1 0 .2 0 .3.1.1.1.1.2.1.3v.9c0 .1 0 .2-.1.3-.1.1-.2.1-.3.1h-9.4c-.1 0-.2 0-.3-.1-.1-.1-.1-.2-.1-.3v-.9c0-.1 0-.2.1-.3.1-.1.2-.1.3-.1h9.4zm0 3.4c.1 0 .2 0 .3.1.1.1.1.2.1.3v.9c0 .1 0 .2-.1.3-.1.1-.2.1-.3.1h-9.4c-.1 0-.2 0-.3-.1-.1-.1-.1-.2-.1-.3v-.9c0-.1 0-.2.1-.3.1-.1.2-.1.3-.1h9.4zM19.4 5.8v5h5c-.1-.3-.2-.4-.3-.5L20 6.1c-.1-.1-.3-.2-.6-.3z"/>
</svg>
