<?xml version="1.0" encoding="UTF-8" standalone="no"?>
<svg
   xmlns:dc="http://purl.org/dc/elements/1.1/"
   xmlns:cc="http://creativecommons.org/ns#"
   xmlns:rdf="http://www.w3.org/1999/02/22-rdf-syntax-ns#"
   xmlns:svg="http://www.w3.org/2000/svg"
   xmlns="http://www.w3.org/2000/svg"
   xmlns:sodipodi="http://sodipodi.sourceforge.net/DTD/sodipodi-0.dtd"
   xmlns:inkscape="http://www.inkscape.org/namespaces/inkscape"
   width="32"
   height="32"
   version="1"
   id="svg21"
   sodipodi:docname="tools-report-bug.svg"
   inkscape:version="0.92.4 5da689c313, 2019-01-14">
  <metadata
     id="metadata27">
    <rdf:RDF>
      <cc:Work
         rdf:about="">
        <dc:format>image/svg+xml</dc:format>
        <dc:type
           rdf:resource="http://purl.org/dc/dcmitype/StillImage" />
        <dc:title></dc:title>
      </cc:Work>
    </rdf:RDF>
  </metadata>
  <defs
     id="defs25" />
  <sodipodi:namedview
     pagecolor="#ffffff"
     bordercolor="#666666"
     borderopacity="1"
     objecttolerance="10"
     gridtolerance="10"
     guidetolerance="10"
     inkscape:pageopacity="0"
     inkscape:pageshadow="2"
     inkscape:window-width="1366"
     inkscape:window-height="703"
     id="namedview23"
     showgrid="false"
     inkscape:zoom="4.9166667"
     inkscape:cx="24"
     inkscape:cy="24"
     inkscape:window-x="0"
     inkscape:window-y="0"
     inkscape:window-maximized="1"
     inkscape:current-layer="svg21" />
  <g
     id="g40"
     transform="matrix(0.63555505,0,0,0.73634174,0.51921673,9.4163295)">
    <path
       inkscape:connector-curvature="0"
       id="path2"
       d="m 7.03125,-9.0250647 a 2.0002,2.0002 0 0 0 -1.9003906,2.7382812 l 2.53125,6.6425785 a 2.0002,2.0002 0 0 0 1.0644531,1.11914 L 15.806641,4.586264 A 9,7.5 0 0 0 16.304688,5.37142 L 8.1757812,6.849935 A 2.0002,2.0002 0 0 0 7.1796875,7.347982 l -4.5351563,4.181641 a 2.0002,2.0002 0 1 0 2.7109376,2.941406 l 4.109375,-3.789062 7.4843752,-1.365235 -8.4921878,7.146485 a 2.0002,2.0002 0 0 0 -0.5332031,0.699218 l -2.7421875,6.007813 a 2.0002,2.0002 0 1 0 3.6367188,1.660156 L 11.376953,19.234701 23.558594,8.986654 A 9,7.5 0 0 0 24,9.000326 9,7.5 0 0 0 24.458984,8.980796 l 12.185547,10.253906 2.558594,5.595703 a 2.0002,2.0002 0 1 0 3.636719,-1.660156 l -2.742188,-6.007813 a 2.0002,2.0002 0 0 0 -0.533203,-0.699218 l -8.492187,-7.146485 7.484375,1.365235 4.109375,3.789062 a 2.0002,2.0002 0 1 0 2.710937,-2.941406 L 40.841797,7.347983 A 2.0002,2.0002 0 0 0 39.845703,6.849936 L 31.699219,5.367515 a 9,7.5 0 0 0 0.484375,-0.767579 l 7.111328,-3.125 a 2.0002,2.0002 0 0 0 1.064453,-1.11914 l 2.53125,-6.6425785 a 2.0002,2.0002 0 0 0 -1.900391,-2.7382812 2.0002,2.0002 0 0 0 -1.83789,1.3125 l -2.232422,5.8613287 -4.115234,1.808593 A 9,7.5 0 0 0 29.810547,-4.226236 6,4.9999995 0 0 0 24,-7.9996741 6,4.9999995 0 0 0 18.1875,-4.214518 9,7.5 0 0 0 15.207031,-0.048502 L 11.101562,-1.851236 8.8691406,-7.7125647 a 2.0002,2.0002 0 0 0 -1.8378906,-1.3125 z"
       style="opacity:0.2" />
    <path
       inkscape:connector-curvature="0"
       id="path4"
       d="m 7.03125,-10.025391 a 2.0002,2.0002 0 0 0 -1.9003906,2.7382816 l 2.53125,6.6425784 a 2.0002,2.0002 0 0 0 1.0644531,1.11914 L 17.214844,4.205078 8.1757812,5.849609 A 2.0002,2.0002 0 0 0 7.1796875,6.347656 l -4.5351563,4.181641 a 2.0002,2.0002 0 1 0 2.7109376,2.941406 L 9.4648438,9.681641 16.949219,8.316406 8.4570312,15.462891 a 2.0002,2.0002 0 0 0 -0.5332031,0.699218 l -2.7421875,6.007813 a 2.0002,2.0002 0 1 0 3.6367188,1.660156 l 2.5585936,-5.595703 12.634766,-10.628906 12.632812,10.628906 2.558594,5.595703 a 2.0002,2.0002 0 1 0 3.636719,-1.660156 l -2.742188,-6.007813 a 2.0002,2.0002 0 0 0 -0.533203,-0.699218 l -8.492187,-7.146485 7.484375,1.365235 4.109375,3.789062 a 2.0002,2.0002 0 1 0 2.710937,-2.941406 L 40.841797,6.347656 A 2.0002,2.0002 0 0 0 39.845703,5.849609 L 30.806641,4.205078 39.294922,0.474609 a 2.0002,2.0002 0 0 0 1.064453,-1.11914 l 2.53125,-6.6425784 a 2.0002,2.0002 0 0 0 -1.900391,-2.7382816 2.0002,2.0002 0 0 0 -1.83789,1.3125004 L 36.919922,-2.851562 24.011719,2.820312 11.101562,-2.851562 8.8691406,-8.7128906 A 2.0002,2.0002 0 0 0 7.03125,-10.025391 Z"
       style="fill:#445a64" />
    <path
       inkscape:connector-curvature="0"
       id="path6"
       d="M 24,-9 A 6,4.9999995 0 0 0 18.1875,-5.214844 9,7.5 0 0 0 15,0.5 9,7.5 0 0 0 24,8 9,7.5 0 0 0 33,0.5 9,7.5 0 0 0 29.810547,-5.226562 6,4.9999995 0 0 0 24,-9 Z"
       style="fill:#445a64" />
    <ellipse
       transform="matrix(0.86278195,0.50557621,-0.49444444,0.86920924,0,0)"
       ry="2.6949999"
       rx="1.729"
       cy="-11.258652"
       cx="14.411235"
       style="opacity:0.2"
       id="ellipse887" />
    <path
       inkscape:connector-curvature="0"
       id="path9"
       d="m 7.03125,-10.025391 a 2.0002,2.0002 0 0 0 -1.9765625,2.5000004 2.0002,2.0002 0 0 1 1.9765625,-1.5 2.0002,2.0002 0 0 1 1.8378906,1.3125 l 2.2324214,5.8613286 4.105469,1.802734 A 9,7.5 0 0 1 18.1875,-4.214844 6,4.9999995 0 0 1 24,-8 a 6,4.9999995 0 0 1 5.810547,3.773438 9,7.5 0 0 1 2.994141,4.183593 l 4.115234,-1.808593 2.232422,-5.8613286 a 2.0002,2.0002 0 0 1 1.83789,-1.3125 2.0002,2.0002 0 0 1 1.976563,1.5 2.0002,2.0002 0 0 0 -1.976563,-2.5000004 2.0002,2.0002 0 0 0 -1.83789,1.3125004 l -2.232422,5.8613286 -4.115234,1.808593 A 9,7.5 0 0 0 29.810547,-5.226562 6,4.9999995 0 0 0 24,-9 6,4.9999995 0 0 0 18.1875,-5.214844 9,7.5 0 0 0 15.207031,-1.048828 L 11.101562,-2.851562 8.8691406,-8.7128906 A 2.0002,2.0002 0 0 0 7.03125,-10.025391 Z M 15.607422,4.498047 8.1757812,5.849609 A 2.0002,2.0002 0 0 0 7.1796875,6.347656 L 2.6445312,10.529297 A 2.0002,2.0002 0 0 0 2.046875,12.517578 2.0002,2.0002 0 0 1 2.6445312,11.529297 L 7.1796875,7.347656 A 2.0002,2.0002 0 0 1 8.1757812,6.849609 L 16.304688,5.371094 A 9,7.5 0 0 1 15.806641,4.585938 Z m 16.808594,0 -0.232422,0.101562 a 9,7.5 0 0 1 -0.484375,0.767579 l 8.146484,1.482421 a 2.0002,2.0002 0 0 1 0.996094,0.498047 l 4.535156,4.181641 a 2.0002,2.0002 0 0 1 0.597656,0.986328 2.0002,2.0002 0 0 0 -0.597656,-1.986328 L 40.841797,6.347656 A 2.0002,2.0002 0 0 0 39.845703,5.849609 Z M 16.949219,9.316406 15.431641,9.59375 8.4570312,15.462891 a 2.0002,2.0002 0 0 0 -0.5332031,0.699218 l -2.7421875,6.007813 a 2.0002,2.0002 0 0 0 -0.1464844,1.394531 2.0002,2.0002 0 0 1 0.1464844,-0.394531 l 2.7421875,-6.007813 a 2.0002,2.0002 0 0 1 0.5332031,-0.699218 z m 14.123047,0 8.492187,7.146485 a 2.0002,2.0002 0 0 1 0.533203,0.699218 l 2.742188,6.007813 a 2.0002,2.0002 0 0 1 0.148437,0.396484 2.0002,2.0002 0 0 0 -0.148437,-1.396484 L 40.097656,16.162109 A 2.0002,2.0002 0 0 0 39.564453,15.462891 L 32.589844,9.59375 Z"
       style="opacity:0.1;fill:#ffffff" />
    <ellipse
       id="ellipse11"
       transform="matrix(0.86278195,0.50557621,-0.49444444,0.86920924,0,0)"
       ry="2.6949999"
       rx="1.729"
       cy="-12.120652"
       cx="13.916234"
       style="fill:#e4e4e4" />
    <ellipse
       transform="matrix(-0.86278195,0.50557621,0.49444444,0.86920924,0,0)"
       ry="2.6949999"
       rx="1.729"
       cy="13.011348"
       cx="-27.314764"
       style="opacity:0.2"
       id="ellipse889" />
    <path
       inkscape:connector-curvature="0"
       id="path14"
       d="M 14.342786,1.971111 C 12.266203,4.626903 11,8.141005 11,12 11,20.284271 16.820298,28 24,28 31.179702,28 37,20.284271 37,12 37,7.894471 35.566846,4.17931 33.24942,1.472754 32.021682,0.202907 31.797744,-0.65399 30.380859,0.554688 L 24,6 17.619141,0.554688 c -1.311799,-1.185645 -2.45492,0.375071 -3.276355,1.416423 z"
       style="opacity:0.2" />
    <path
       inkscape:connector-curvature="0"
       id="path16"
       d="M 14.342786,0.971111 C 12.266203,3.626903 11,7.141005 11,11 11,19.284271 16.820298,27 24,27 31.179702,27 37,19.284271 37,11 37,6.894471 35.566846,3.17931 33.24942,0.472754 32.021682,-0.797093 31.797744,-1.65399 30.380859,-0.445312 L 24,5 17.619141,-0.445312 c -1.311799,-1.185645 -2.45492,0.375071 -3.276355,1.416423 z"
       style="fill:#ff5252" />
    <ellipse
       transform="matrix(-0.86278195,0.50557621,0.49444444,0.86920924,0,0)"
       ry="2.6949999"
       rx="1.729"
       cy="12.148349"
       cx="-27.808764"
       style="fill:#e4e4e4"
       id="ellipse872" />
    <path
       inkscape:connector-curvature="0"
       id="path19"
       d="m 31.587891,-1.021484 c -0.31166,-0.04054 -0.6757,0.122917 -1.207032,0.576172 L 24,5 17.619141,-0.445312 C 16.307342,-1.630957 15.165185,-0.070649 14.34375,0.970703 12.267167,3.626495 11,7.141005 11,11 c 0,0.16365 0.01698,0.32513 0.02148,0.488281 0.107365,-3.655871 1.338594,-6.980612 3.322266,-9.517578 0.821435,-1.041352 1.963592,-2.601661 3.275391,-1.416015 L 24,6 30.380859,0.554688 C 31.797744,-0.653991 32.022262,0.202809 33.25,1.472656 35.472854,4.06876 36.867195,7.597469 36.978516,11.503906 36.983315,11.335562 37,11.168877 37,11 37,6.894471 35.567426,3.179212 33.25,0.472656 32.482664,-0.320998 32.107323,-0.95392 31.587891,-1.021484 Z"
       style="opacity:0.2;fill:#ffffff" />
  </g>
</svg>
