<?xml version="1.0" encoding="UTF-8" standalone="no"?>
<svg
   xmlns:dc="http://purl.org/dc/elements/1.1/"
   xmlns:cc="http://creativecommons.org/ns#"
   xmlns:rdf="http://www.w3.org/1999/02/22-rdf-syntax-ns#"
   xmlns:svg="http://www.w3.org/2000/svg"
   xmlns="http://www.w3.org/2000/svg"
   xmlns:sodipodi="http://sodipodi.sourceforge.net/DTD/sodipodi-0.dtd"
   xmlns:inkscape="http://www.inkscape.org/namespaces/inkscape"
   width="32"
   height="32"
   version="1"
   id="svg21"
   sodipodi:docname="tools-report-bug.svg"
   inkscape:version="0.92.4 5da689c313, 2019-01-14">
  <metadata
     id="metadata27">
    <rdf:RDF>
      <cc:Work
         rdf:about="">
        <dc:format>image/svg+xml</dc:format>
        <dc:type
           rdf:resource="http://purl.org/dc/dcmitype/StillImage" />
        <dc:title />
      </cc:Work>
    </rdf:RDF>
  </metadata>
  <defs
     id="defs25" />
  <sodipodi:namedview
     pagecolor="#ffffff"
     bordercolor="#666666"
     borderopacity="1"
     objecttolerance="10"
     gridtolerance="10"
     guidetolerance="10"
     inkscape:pageopacity="0"
     inkscape:pageshadow="2"
     inkscape:window-width="1366"
     inkscape:window-height="703"
     id="namedview23"
     showgrid="false"
     inkscape:zoom="4.9166667"
     inkscape:cx="24"
     inkscape:cy="24"
     inkscape:window-x="0"
     inkscape:window-y="0"
     inkscape:window-maximized="1"
     inkscape:current-layer="svg21" />
  <g
     id="g40">
    <path
       inkscape:connector-curvature="0"
       id="path2"
       d="M 4.9879632,2.7707977 A 1.2712372,1.4728307 0 0 0 3.7801603,4.7871084 l 1.6087488,4.8912078 a 1.2712372,1.4728307 0 0 0 0.6765185,0.8240698 l 4.4997794,2.291001 a 5.7199954,5.522563 0 0 0 0.316537,0.578143 l -5.1663682,1.088693 a 1.2712372,1.4728307 0 0 0 -0.6330724,0.366732 l -2.8823415,3.079117 a 1.2712372,1.4728307 0 1 0 1.7229501,2.16588 l 2.611734,-2.790044 4.756732,-1.00528 -5.3972524,5.262255 A 1.2712372,1.4728307 0 0 0 5.5552457,22.053747 L 3.8124346,26.47755 a 1.2712372,1.4728307 0 1 0 2.311335,1.222442 L 7.7498967,23.579643 15.492,16.033578 a 5.7199954,5.522563 0 0 0 0.280538,0.01007 5.7199954,5.522563 0 0 0 0.29171,-0.01438 l 7.744585,7.550379 1.626128,4.12035 a 1.2712372,1.4728307 0 1 0 2.311335,-1.222442 l -1.742812,-4.423804 a 1.2712372,1.4728307 0 0 0 -0.338879,-0.514863 l -5.397253,-5.262255 4.756733,1.005279 2.611734,2.790045 a 1.2712372,1.4728307 0 1 0 1.722949,-2.16588 L 26.476427,14.82696 a 1.2712372,1.4728307 0 0 0 -0.633073,-0.366733 l -5.177539,-1.091568 a 5.7199954,5.522563 0 0 0 0.307847,-0.565201 L 25.493303,10.50239 A 1.2712372,1.4728307 0 0 0 26.169821,9.6783169 L 27.77857,4.7871091 A 1.2712372,1.4728307 0 0 0 26.570767,2.7707984 1.2712372,1.4728307 0 0 0 25.402687,3.7372469 L 23.98386,8.0531879 21.368402,9.3849304 A 5.7199954,5.522563 0 0 0 19.46546,6.3043755 3.8133303,3.6817083 0 0 0 15.772538,3.5258356 3.8133303,3.6817083 0 0 0 12.078374,6.313004 5.7199954,5.522563 0 0 0 10.184122,9.3806155 L 7.5748705,8.0531872 6.1560438,3.7372462 A 1.2712372,1.4728307 0 0 0 4.9879632,2.7707977 Z"
       style="opacity:0.2;stroke-width:0.68409479" />
    <path
       inkscape:connector-curvature="0"
       id="path4"
       d="M 4.9879632,2.0342156 A 1.2712372,1.4728307 0 0 0 3.7801603,4.0505267 L 5.3889091,8.9417344 A 1.2712372,1.4728307 0 0 0 6.0654276,9.7658039 L 11.460198,12.512704 5.7153758,13.723641 A 1.2712372,1.4728307 0 0 0 5.0823034,14.090374 L 2.1999619,17.16949 a 1.2712372,1.4728307 0 1 0 1.7229501,2.16588 l 2.611734,-2.790044 4.756732,-1.00528 -5.3972524,5.262256 a 1.2712372,1.4728307 0 0 0 -0.3388799,0.514863 l -1.7428111,4.423803 a 1.2712372,1.4728307 0 1 0 2.311335,1.222443 l 1.6261271,-4.12035 8.0300893,-7.826507 8.028847,7.826507 1.626128,4.12035 a 1.2712372,1.4728307 0 1 0 2.311335,-1.222443 l -1.742812,-4.423803 a 1.2712372,1.4728307 0 0 0 -0.338879,-0.514863 l -5.397253,-5.262256 4.756733,1.00528 2.611734,2.790044 a 1.2712372,1.4728307 0 1 0 1.722949,-2.16588 l -2.882341,-3.079116 a 1.2712372,1.4728307 0 0 0 -0.633073,-0.366733 l -5.744821,-1.210937 5.39477,-2.7469001 A 1.2712372,1.4728307 0 0 0 26.169821,8.9417344 L 27.77857,4.0505267 A 1.2712372,1.4728307 0 0 0 26.570767,2.0342156 1.2712372,1.4728307 0 0 0 25.402687,3.0006645 L 23.98386,7.3166054 15.779986,11.493043 7.5748705,7.3166054 6.1560438,3.0006645 A 1.2712372,1.4728307 0 0 0 4.9879632,2.0342156 Z"
       style="fill:#445a64;stroke-width:0.68409479" />
    <path
       inkscape:connector-curvature="0"
       id="path6"
       d="M 15.772538,2.7892538 A 3.8133303,3.6817083 0 0 0 12.078374,5.5764222 5.7199954,5.522563 0 0 0 10.052542,9.7845004 5.7199954,5.522563 0 0 0 15.772538,15.307063 5.7199954,5.522563 0 0 0 21.492533,9.7845004 5.7199954,5.522563 0 0 0 19.46546,5.5677937 3.8133303,3.6817083 0 0 0 15.772538,2.7892538 Z"
       style="fill:#445a64;stroke-width:0.68409479" />
    <path
       transform="matrix(0.82734583,0.56169287,-0.44072703,0.89764118,0,0)"
       style="opacity:0.2;stroke-width:0.68743885"
       d="m 15.359095,-0.45459181 a 1.1459407,1.9215857 0 0 1 -1.14594,1.92158571 1.1459407,1.9215857 0 0 1 -1.145941,-1.92158571 1.1459407,1.9215857 0 0 1 1.145941,-1.92158569 1.1459407,1.9215857 0 0 1 1.14594,1.92158569 z"
       id="ellipse887" />
    <path
       inkscape:connector-curvature="0"
       id="path9"
       d="M 4.9879632,2.0342156 A 1.2712372,1.4728307 0 0 0 3.7317489,3.8750703 1.2712372,1.4728307 0 0 1 4.9879632,2.7705577 1.2712372,1.4728307 0 0 1 6.1560438,3.7370062 l 1.4188267,4.3159409 2.6092515,1.3274283 a 5.7199954,5.522563 0 0 1 1.894252,-3.0676115 3.8133303,3.6817083 0 0 1 3.694164,-2.7871683 3.8133303,3.6817083 0 0 1 3.692922,2.7785399 5.7199954,5.522563 0 0 1 1.902942,3.0805541 L 23.98386,8.0529471 25.402687,3.7370062 a 1.2712372,1.4728307 0 0 1 1.16808,-0.9664485 1.2712372,1.4728307 0 0 1 1.256215,1.1045126 1.2712372,1.4728307 0 0 0 -1.256215,-1.8408547 1.2712372,1.4728307 0 0 0 -1.16808,0.9664489 L 23.98386,7.3166054 21.368402,8.6483479 A 5.7199954,5.522563 0 0 0 19.46546,5.5677937 3.8133303,3.6817083 0 0 0 15.772538,2.7892538 3.8133303,3.6817083 0 0 0 12.078374,5.5764222 5.7199954,5.522563 0 0 0 10.184122,8.6440337 L 7.5748705,7.3166054 6.1560438,3.0006645 A 1.2712372,1.4728307 0 0 0 4.9879632,2.0342156 Z M 10.438593,12.728429 5.7153758,13.723641 A 1.2712372,1.4728307 0 0 0 5.0823034,14.090374 L 2.1999619,17.16949 A 1.2712372,1.4728307 0 0 0 1.8201185,18.633545 1.2712372,1.4728307 0 0 1 2.1999619,17.905832 L 5.0823034,14.826715 A 1.2712372,1.4728307 0 0 1 5.7153758,14.459983 L 10.881744,13.37129 a 5.7199954,5.522563 0 0 1 -0.316537,-0.578143 z m 10.682786,0 -0.147717,0.07479 a 5.7199954,5.522563 0 0 1 -0.307847,0.5652 l 5.177539,1.091569 a 1.2712372,1.4728307 0 0 1 0.633073,0.366732 l 2.882341,3.079117 a 1.2712372,1.4728307 0 0 1 0.379844,0.726275 1.2712372,1.4728307 0 0 0 -0.379844,-1.462617 l -2.882341,-3.079116 a 1.2712372,1.4728307 0 0 0 -0.633073,-0.366733 z m -9.830001,3.547959 -0.964504,0.20422 -4.4327484,4.321694 a 1.2712372,1.4728307 0 0 0 -0.3388799,0.514863 l -1.7428111,4.423803 a 1.2712372,1.4728307 0 0 0 -0.093099,1.026852 1.2712372,1.4728307 0 0 1 0.093099,-0.29051 l 1.7428111,-4.423803 a 1.2712372,1.4728307 0 0 1 0.3388799,-0.514864 z m 8.975974,0 5.397253,5.262255 a 1.2712372,1.4728307 0 0 1 0.338879,0.514864 l 1.742812,4.423803 a 1.2712372,1.4728307 0 0 1 0.09434,0.291948 1.2712372,1.4728307 0 0 0 -0.09434,-1.02829 l -1.742812,-4.423803 a 1.2712372,1.4728307 0 0 0 -0.338879,-0.514863 l -4.432748,-4.321694 z"
       style="opacity:0.1;fill:#ffffff;stroke-width:0.68409479" />
    <path
       transform="matrix(0.82734583,0.56169287,-0.44072703,0.89764118,0,0)"
       style="fill:#e4e4e4;stroke-width:0.68743885"
       d="M 15.03102,-1.0692143 A 1.1459407,1.9215857 0 0 1 13.885079,0.85237134 1.1459407,1.9215857 0 0 1 12.739139,-1.0692143 1.1459407,1.9215857 0 0 1 13.885079,-2.9908 1.1459407,1.9215857 0 0 1 15.03102,-1.0692143 Z"
       id="ellipse11" />
    <path
       transform="matrix(-0.82734583,0.56169287,0.44072703,0.89764118,0,0)"
       style="opacity:0.2;stroke-width:0.68743885"
       d="m -13.237272,17.439421 a 1.1459407,1.9215857 0 0 1 -1.145941,1.921585 1.1459407,1.9215857 0 0 1 -1.145941,-1.921585 1.1459407,1.9215857 0 0 1 1.145941,-1.921586 1.1459407,1.9215857 0 0 1 1.145941,1.921586 z"
       id="ellipse889" />
    <path
       inkscape:connector-curvature="0"
       id="path14"
       d="m 9.6348468,10.867741 c -1.3197828,1.95557 -2.1245245,4.54315 -2.1245245,7.384689 0,6.100055 3.6991197,11.781468 8.2622157,11.781468 4.563096,0 8.262216,-5.681413 8.262216,-11.781468 0,-3.023072 -0.910849,-5.7587 -2.3837,-7.75165 C 20.870758,9.5657384 20.728434,8.9347694 19.827925,9.8247694 L 15.772538,13.83438 11.717151,9.8247694 C 10.88343,8.9517295 10.156914,10.10095 9.6348468,10.867741 Z"
       style="opacity:0.2;stroke-width:0.68409479" />
    <path
       inkscape:connector-curvature="0"
       id="path16"
       d="m 9.6348468,10.131399 c -1.3197828,1.955571 -2.1245245,4.543151 -2.1245245,7.38469 0,6.100054 3.6991197,11.781467 8.2622157,11.781467 4.563096,0 8.262216,-5.681413 8.262216,-11.781467 0,-3.023073 -0.910849,-5.758701 -2.3837,-7.751651 C 20.870758,8.8293967 20.728434,8.1984276 19.827925,9.0884277 L 15.772538,13.098038 11.717151,9.0884277 C 10.88343,8.2153878 10.156914,9.3646081 9.6348468,10.131399 Z"
       style="fill:#ff5252;stroke-width:0.68409479" />
    <path
       transform="matrix(-0.82734583,0.56169287,0.44072703,0.89764118,0,0)"
       style="fill:#e4e4e4;stroke-width:0.68743885"
       d="m -13.564684,16.824085 a 1.1459407,1.9215857 0 0 1 -1.145941,1.921586 1.1459407,1.9215857 0 0 1 -1.14594,-1.921586 1.1459407,1.9215857 0 0 1 1.14594,-1.921585 1.1459407,1.9215857 0 0 1 1.145941,1.921585 z"
       id="ellipse872" />
    <path
       inkscape:connector-curvature="0"
       id="path19"
       d="m 20.59506,8.6641682 c -0.198077,-0.029851 -0.429444,0.090509 -0.767135,0.4242595 L 15.772538,13.098038 11.717151,9.0884277 c -0.833721,-0.8730399 -1.559624,0.27588 -2.0816915,1.0426713 -1.3197828,1.95557 -2.1251372,4.543451 -2.1251372,7.38499 0,0.120502 0.010792,0.239406 0.013652,0.359541 0.068236,-2.69197 0.8507502,-5.140116 2.1114829,-7.00819 0.5220668,-0.766791 1.2479708,-1.9157112 2.0816908,-1.0426706 l 4.05539,4.0096106 4.055387,-4.0096106 c 0.900509,-0.8900008 1.043202,-0.2591032 1.823497,0.6759386 1.412746,1.911619 2.298927,4.509955 2.369677,7.386428 0.0031,-0.123959 0.01365,-0.246696 0.01365,-0.371047 0,-3.023073 -0.91048,-5.758773 -2.383332,-7.7517232 C 21.163738,9.1799653 20.925188,8.7139184 20.59506,8.6641682 Z"
       style="opacity:0.2;fill:#ffffff;stroke-width:0.68409479" />
  </g>
</svg>
