<svg xmlns="http://www.w3.org/2000/svg" width="48" height="48" version="1">
 <path style="opacity:0.2" d="M 7.03125,6.9749353 A 2.0002,2.0002 0 0 0 5.1308594,9.7132165 l 2.53125,6.6425785 a 2.0002,2.0002 0 0 0 1.0644531,1.11914 l 7.0800785,3.111329 a 9,7.5 0 0 0 0.498047,0.785156 l -8.1289068,1.478515 a 2.0002,2.0002 0 0 0 -0.9960937,0.498047 l -4.5351563,4.181641 a 2.0002,2.0002 0 1 0 2.7109376,2.941406 l 4.109375,-3.789062 7.4843752,-1.365235 -8.4921878,7.146485 a 2.0002,2.0002 0 0 0 -0.5332031,0.699218 l -2.7421875,6.007813 a 2.0002,2.0002 0 1 0 3.6367188,1.660156 L 11.376953,35.234701 23.558594,24.986654 A 9,7.5 0 0 0 24,25.000326 a 9,7.5 0 0 0 0.458984,-0.01953 l 12.185547,10.253906 2.558594,5.595703 a 2.0002,2.0002 0 1 0 3.636719,-1.660156 l -2.742188,-6.007813 a 2.0002,2.0002 0 0 0 -0.533203,-0.699218 l -8.492187,-7.146485 7.484375,1.365235 4.109375,3.789062 a 2.0002,2.0002 0 1 0 2.710937,-2.941406 l -4.535156,-4.181641 a 2.0002,2.0002 0 0 0 -0.996094,-0.498047 l -8.146484,-1.482421 a 9,7.5 0 0 0 0.484375,-0.767579 l 7.111328,-3.125 a 2.0002,2.0002 0 0 0 1.064453,-1.11914 l 2.53125,-6.6425785 a 2.0002,2.0002 0 0 0 -1.900391,-2.7382812 2.0002,2.0002 0 0 0 -1.83789,1.3125 l -2.232422,5.8613287 -4.115234,1.808593 A 9,7.5 0 0 0 29.810547,11.773764 6,4.9999995 0 0 0 24,8.0003259 6,4.9999995 0 0 0 18.1875,11.785482 9,7.5 0 0 0 15.207031,15.951498 L 11.101562,14.148764 8.8691406,8.2874353 A 2.0002,2.0002 0 0 0 7.03125,6.9749353 Z"/>
 <path style="fill:#445a64" d="M 7.03125 5.9746094 A 2.0002 2.0002 0 0 0 5.1308594 8.7128906 L 7.6621094 15.355469 A 2.0002 2.0002 0 0 0 8.7265625 16.474609 L 17.214844 20.205078 L 8.1757812 21.849609 A 2.0002 2.0002 0 0 0 7.1796875 22.347656 L 2.6445312 26.529297 A 2.0002 2.0002 0 1 0 5.3554688 29.470703 L 9.4648438 25.681641 L 16.949219 24.316406 L 8.4570312 31.462891 A 2.0002 2.0002 0 0 0 7.9238281 32.162109 L 5.1816406 38.169922 A 2.0002 2.0002 0 1 0 8.8183594 39.830078 L 11.376953 34.234375 L 24.011719 23.605469 L 36.644531 34.234375 L 39.203125 39.830078 A 2.0002 2.0002 0 1 0 42.839844 38.169922 L 40.097656 32.162109 A 2.0002 2.0002 0 0 0 39.564453 31.462891 L 31.072266 24.316406 L 38.556641 25.681641 L 42.666016 29.470703 A 2.0002 2.0002 0 1 0 45.376953 26.529297 L 40.841797 22.347656 A 2.0002 2.0002 0 0 0 39.845703 21.849609 L 30.806641 20.205078 L 39.294922 16.474609 A 2.0002 2.0002 0 0 0 40.359375 15.355469 L 42.890625 8.7128906 A 2.0002 2.0002 0 0 0 40.990234 5.9746094 A 2.0002 2.0002 0 0 0 39.152344 7.2871094 L 36.919922 13.148438 L 24.011719 18.820312 L 11.101562 13.148438 L 8.8691406 7.2871094 A 2.0002 2.0002 0 0 0 7.03125 5.9746094 z"/>
 <path style="fill:#445a64" d="M 24 7 A 6 4.9999995 0 0 0 18.1875 10.785156 A 9 7.5 0 0 0 15 16.5 A 9 7.5 0 0 0 24 24 A 9 7.5 0 0 0 33 16.5 A 9 7.5 0 0 0 29.810547 10.773438 A 6 4.9999995 0 0 0 24 7 z"/>
 <ellipse id="ellipse887" style="opacity:0.2" cx="22.323" cy="2.547" rx="1.729" ry="2.695" transform="matrix(0.86278195,0.50557621,-0.49444444,0.86920924,0,0)"/>
 <path style="opacity:0.1;fill:#ffffff" d="M 7.03125 5.9746094 A 2.0002 2.0002 0 0 0 5.0546875 8.4746094 A 2.0002 2.0002 0 0 1 7.03125 6.9746094 A 2.0002 2.0002 0 0 1 8.8691406 8.2871094 L 11.101562 14.148438 L 15.207031 15.951172 A 9 7.5 0 0 1 18.1875 11.785156 A 6 4.9999995 0 0 1 24 8 A 6 4.9999995 0 0 1 29.810547 11.773438 A 9 7.5 0 0 1 32.804688 15.957031 L 36.919922 14.148438 L 39.152344 8.2871094 A 2.0002 2.0002 0 0 1 40.990234 6.9746094 A 2.0002 2.0002 0 0 1 42.966797 8.4746094 A 2.0002 2.0002 0 0 0 40.990234 5.9746094 A 2.0002 2.0002 0 0 0 39.152344 7.2871094 L 36.919922 13.148438 L 32.804688 14.957031 A 9 7.5 0 0 0 29.810547 10.773438 A 6 4.9999995 0 0 0 24 7 A 6 4.9999995 0 0 0 18.1875 10.785156 A 9 7.5 0 0 0 15.207031 14.951172 L 11.101562 13.148438 L 8.8691406 7.2871094 A 2.0002 2.0002 0 0 0 7.03125 5.9746094 z M 15.607422 20.498047 L 8.1757812 21.849609 A 2.0002 2.0002 0 0 0 7.1796875 22.347656 L 2.6445312 26.529297 A 2.0002 2.0002 0 0 0 2.046875 28.517578 A 2.0002 2.0002 0 0 1 2.6445312 27.529297 L 7.1796875 23.347656 A 2.0002 2.0002 0 0 1 8.1757812 22.849609 L 16.304688 21.371094 A 9 7.5 0 0 1 15.806641 20.585938 L 15.607422 20.498047 z M 32.416016 20.498047 L 32.183594 20.599609 A 9 7.5 0 0 1 31.699219 21.367188 L 39.845703 22.849609 A 2.0002 2.0002 0 0 1 40.841797 23.347656 L 45.376953 27.529297 A 2.0002 2.0002 0 0 1 45.974609 28.515625 A 2.0002 2.0002 0 0 0 45.376953 26.529297 L 40.841797 22.347656 A 2.0002 2.0002 0 0 0 39.845703 21.849609 L 32.416016 20.498047 z M 16.949219 25.316406 L 15.431641 25.59375 L 8.4570312 31.462891 A 2.0002 2.0002 0 0 0 7.9238281 32.162109 L 5.1816406 38.169922 A 2.0002 2.0002 0 0 0 5.0351562 39.564453 A 2.0002 2.0002 0 0 1 5.1816406 39.169922 L 7.9238281 33.162109 A 2.0002 2.0002 0 0 1 8.4570312 32.462891 L 16.949219 25.316406 z M 31.072266 25.316406 L 39.564453 32.462891 A 2.0002 2.0002 0 0 1 40.097656 33.162109 L 42.839844 39.169922 A 2.0002 2.0002 0 0 1 42.988281 39.566406 A 2.0002 2.0002 0 0 0 42.839844 38.169922 L 40.097656 32.162109 A 2.0002 2.0002 0 0 0 39.564453 31.462891 L 32.589844 25.59375 L 31.072266 25.316406 z"/>
 <ellipse style="fill:#e4e4e4" cx="21.828" cy="1.685" rx="1.729" ry="2.695" transform="matrix(0.86278195,0.50557621,-0.49444444,0.86920924,0,0)"/>
 <ellipse id="ellipse889" style="opacity:0.2" cx="-19.403" cy="26.817" rx="1.729" ry="2.695" transform="matrix(-0.86278195,0.50557621,0.49444444,0.86920924,0,0)"/>
 <path style="opacity:0.2" d="M 14.342786,17.971111 C 12.266203,20.626903 11,24.141005 11,28 c 0,8.284271 5.820298,16 13,16 7.179702,0 13,-7.715729 13,-16 0,-4.105529 -1.433154,-7.82069 -3.75058,-10.527246 -1.227738,-1.269847 -1.451676,-2.126744 -2.868561,-0.918066 L 24,22 17.619141,16.554688 c -1.311799,-1.185645 -2.45492,0.375071 -3.276355,1.416423 z"/>
 <path style="fill:#ff5252" d="M 14.342786,16.971111 C 12.266203,19.626903 11,23.141005 11,27 c 0,8.284271 5.820298,16 13,16 7.179702,0 13,-7.715729 13,-16 0,-4.105529 -1.433154,-7.82069 -3.75058,-10.527246 -1.227738,-1.269847 -1.451676,-2.126744 -2.868561,-0.918066 L 24,21 17.619141,15.554688 c -1.311799,-1.185645 -2.45492,0.375071 -3.276355,1.416423 z"/>
 <ellipse id="ellipse872" style="fill:#e4e4e4" cx="-19.897" cy="25.954" rx="1.729" ry="2.695" transform="matrix(-0.86278195,0.50557621,0.49444444,0.86920924,0,0)"/>
 <path style="opacity:0.2;fill:#ffffff" d="M 31.587891 14.978516 C 31.276231 14.937977 30.912191 15.101433 30.380859 15.554688 L 24 21 L 17.619141 15.554688 C 16.307342 14.369043 15.165185 15.929351 14.34375 16.970703 C 12.267167 19.626495 11 23.141005 11 27 C 11 27.16365 11.016976 27.32513 11.021484 27.488281 C 11.128849 23.83241 12.360078 20.507669 14.34375 17.970703 C 15.165185 16.929351 16.307342 15.369042 17.619141 16.554688 L 24 22 L 30.380859 16.554688 C 31.797744 15.346009 32.022262 16.202809 33.25 17.472656 C 35.472854 20.06876 36.867195 23.597469 36.978516 27.503906 C 36.983315 27.335562 37 27.168877 37 27 C 37 22.894471 35.567426 19.179212 33.25 16.472656 C 32.482664 15.679002 32.107323 15.04608 31.587891 14.978516 z"/>
</svg>
