<svg viewBox="0 0 32 32" xmlns="http://www.w3.org/2000/svg"><path d="m26.5 9.9c1.1 1.9 1.6 3.9 1.6 6.1s-.5 4.2-1.6 6.1-2.6 3.3-4.4 4.4c-1.9 1.1-3.9 1.6-6.1 1.6s-4.2-.5-6.1-1.6-3.3-2.6-4.4-4.4c-1.1-1.9-1.6-3.9-1.6-6.1s.5-4.2 1.6-6.1 2.6-3.3 4.4-4.4c1.9-1.1 3.9-1.6 6.1-1.6s4.2.5 6.1 1.6c1.8 1.1 3.3 2.6 4.4 4.4zm-4.5 9.7c0-.3-.1-.5-.3-.7l-2.8-2.9 2.9-2.9c.2-.2.3-.4.3-.7s-.1-.5-.3-.7l-1.4-1.4c-.2-.2-.4-.3-.7-.3s-.5.1-.7.3l-3 2.8-2.9-2.9c-.2-.2-.4-.3-.7-.3s-.5.1-.7.3l-1.4 1.4c-.2.2-.3.4-.3.7s.1.5.3.7l2.9 2.9-2.9 2.9c-.2.2-.3.4-.3.7s.1.5.3.7l1.4 1.4c.2.2.4.3.7.3s.5-.1.7-.3l2.9-2.9 2.9 2.9c.2.2.4.3.7.3s.5-.1.7-.3l1.4-1.4c.2-.1.3-.4.3-.6z" fill="#733737"/></svg>