<?xml version="1.0" encoding="UTF-8" standalone="no"?>
<svg
   xmlns:dc="http://purl.org/dc/elements/1.1/"
   xmlns:cc="http://creativecommons.org/ns#"
   xmlns:rdf="http://www.w3.org/1999/02/22-rdf-syntax-ns#"
   xmlns:svg="http://www.w3.org/2000/svg"
   xmlns="http://www.w3.org/2000/svg"
   xmlns:sodipodi="http://sodipodi.sourceforge.net/DTD/sodipodi-0.dtd"
   xmlns:inkscape="http://www.inkscape.org/namespaces/inkscape"
   viewBox="0 0 32 32"
   version="1.1"
   id="svg10"
   sodipodi:docname="user-group-delete.svg"
   inkscape:version="0.92.4 5da689c313, 2019-01-14">
  <metadata
     id="metadata16">
    <rdf:RDF>
      <cc:Work
         rdf:about="">
        <dc:format>image/svg+xml</dc:format>
        <dc:type
           rdf:resource="http://purl.org/dc/dcmitype/StillImage" />
        <dc:title></dc:title>
      </cc:Work>
    </rdf:RDF>
  </metadata>
  <defs
     id="defs14" />
  <sodipodi:namedview
     pagecolor="#ffffff"
     bordercolor="#666666"
     borderopacity="1"
     objecttolerance="10"
     gridtolerance="10"
     guidetolerance="10"
     inkscape:pageopacity="0"
     inkscape:pageshadow="2"
     inkscape:window-width="1366"
     inkscape:window-height="703"
     id="namedview12"
     showgrid="false"
     inkscape:zoom="7.375"
     inkscape:cx="16"
     inkscape:cy="16"
     inkscape:window-x="0"
     inkscape:window-y="0"
     inkscape:window-maximized="1"
     inkscape:current-layer="svg10" />
  <g
     id="g14"
     transform="matrix(0.99644128,0,0,1.0144928,0.00711739,-0.29629045)">
    <path
       style="fill:#da4453;fill-opacity:1"
       id="path2"
       d="m 30.1,26.7 c 0,0.4 -0.1,0.6 -0.4,0.9 l -1.8,1.8 c -0.2,0.2 -0.5,0.4 -0.9,0.4 -0.4,0 -0.6,-0.1 -0.9,-0.4 l -3.9,-4 -3.9,3.9 c -0.2,0.2 -0.5,0.4 -0.9,0.4 -0.4,0 -0.6,-0.1 -0.9,-0.4 l -1.8,-1.8 c -0.2,-0.2 -0.4,-0.5 -0.4,-0.9 0,-0.4 0.1,-0.6 0.4,-0.9 l 3.9,-3.9 -4,-3.8 c -0.3,-0.2 -0.4,-0.6 -0.4,-0.9 0,-0.4 0.1,-0.6 0.4,-0.9 l 1.9,-1.8 C 16.7,14.2 17,14 17.4,14 c 0.4,0 0.6,0.1 0.9,0.4 l 3.9,3.9 3.9,-3.9 C 26.3,14.2 26.6,14 27,14 c 0.4,0 0.6,0.1 0.9,0.4 l 1.8,1.8 c 0.2,0.2 0.4,0.5 0.4,0.9 0,0.4 -0.1,0.6 -0.4,0.9 l -3.9,4 3.9,3.9 c 0.3,0.2 0.4,0.5 0.4,0.8 z"
       inkscape:connector-curvature="0" />
    <g
       style="fill:#1d99f3;fill-opacity:1"
       id="g8">
      <path
         style="fill:#1d99f3;fill-opacity:1"
         id="path4"
         d="m 9.3,12 c 0.8,0.8 1.8,1.2 2.9,1.2 1.1,0 2.1,-0.4 2.9,-1.2 0.8,-0.8 1.2,-1.8 1.2,-2.9 C 16.3,8 15.9,7 15.1,6.2 14.3,5.4 13.3,5 12.2,5 11.1,5 10.1,5.4 9.3,6.2 8.5,6.9 8.1,7.9 8.1,9 c 0,1.2 0.4,2.2 1.2,3 z m 9.1,-4.3 c 0.8,0 1.4,-0.3 1.9,-0.8 C 20.8,6.4 21.1,5.7 21.1,5 21.1,4.2 20.8,3.6 20.3,3.1 19.8,2.6 19.1,2.3 18.4,2.3 17.6,2.3 17,2.6 16.5,3.1 16,3.6 15.7,4.3 15.7,5 c 0,0.8 0.3,1.4 0.8,1.9 0.5,0.5 1.2,0.8 1.9,0.8 z m 1.3,0.7 c -0.4,0.2 -0.9,0.2 -1.3,0.2 -0.5,0 -1,-0.1 -1.4,-0.2 0,0.3 0.1,0.5 0.1,0.7 0,1 -0.3,1.9 -0.9,2.8 1.2,0 2.1,0.5 2.8,1.4 h 1.4 c 0.6,0 1.1,-0.1 1.5,-0.4 0.4,-0.3 0.6,-0.7 0.6,-1.3 0,-2.5 -0.4,-3.8 -1.3,-3.8 0,0 -0.2,0.1 -0.5,0.2 -0.2,0 -0.6,0.2 -1,0.4 z M 6.1,7.7 C 6.9,7.7 7.5,7.4 8,6.9 8.5,6.4 8.8,5.7 8.8,5 8.8,4.2 8.5,3.5 8,3 7.5,2.4 6.8,2.2 6.1,2.2 5.3,2.2 4.6,2.4 4.1,3 3.6,3.5 3.3,4.2 3.3,4.9 c 0,0.8 0.3,1.4 0.8,1.9 0.5,0.6 1.2,0.9 2,0.9 z"
         inkscape:connector-curvature="0" />
      <path
         style="fill:#1d99f3;fill-opacity:1"
         id="path6"
         d="M 17.6,21.4 14.4,18.2 C 14.1,18 13.9,17.6 13.9,17.1 13.9,16.7 14,16.4 14.3,16 l 1.9,-1.8 c 0.3,-0.3 0.6,-0.4 1.1,-0.4 0.4,0 0.7,0.1 1.1,0.4 L 19.2,15 C 19.1,14.7 19,14.4 18.8,14.2 18.6,13.9 18.4,13.6 18.1,13.3 l -0.9,-0.6 c -0.4,-0.1 -0.8,-0.2 -1.2,-0.2 -0.1,0 -0.2,0.1 -0.5,0.2 -0.2,0.2 -0.5,0.3 -0.8,0.5 -0.3,0.2 -0.7,0.4 -1.1,0.5 -0.5,0.2 -1,0.2 -1.5,0.2 -0.5,0 -1,-0.1 -1.4,-0.2 C 10.2,13.5 9.8,13.4 9.6,13.2 9.3,13 9.1,12.8 8.8,12.7 8.6,12.5 8.4,12.5 8.3,12.5 7.9,12.5 7.5,12.6 7.1,12.7 6.7,12.8 6.4,13 6.2,13.3 5.9,13.5 5.7,13.8 5.5,14.2 5.3,14.5 5.2,14.9 5,15.2 4.9,15.6 4.8,15.9 4.7,16.4 4.6,16.8 4.6,17.2 4.5,17.6 v 1.1 c 0,0.9 0.3,1.5 0.8,2 0.5,0.5 1.2,0.7 2.1,0.7 z M 8.3,11.8 C 7.7,11 7.4,10 7.4,9 7.4,8.8 7.4,8.6 7.5,8.3 7,8.5 6.5,8.6 6.1,8.6 5.7,8.6 5.3,8.5 4.8,8.4 4.3,8.2 4,8 3.7,7.9 3.5,7.7 3.3,7.7 3.3,7.7 2.4,7.7 2,9 2,11.5 c 0,0.6 0.2,1 0.6,1.3 0.3,0.2 0.8,0.4 1.4,0.4 h 1.4 c 0.8,-0.9 1.7,-1.4 2.9,-1.4 z"
         inkscape:connector-curvature="0" />
    </g>
  </g>
</svg>
