<?xml version="1.0" encoding="UTF-8" standalone="no"?>
<svg
   xmlns:dc="http://purl.org/dc/elements/1.1/"
   xmlns:cc="http://creativecommons.org/ns#"
   xmlns:rdf="http://www.w3.org/1999/02/22-rdf-syntax-ns#"
   xmlns:svg="http://www.w3.org/2000/svg"
   xmlns="http://www.w3.org/2000/svg"
   xmlns:sodipodi="http://sodipodi.sourceforge.net/DTD/sodipodi-0.dtd"
   xmlns:inkscape="http://www.inkscape.org/namespaces/inkscape"
   viewBox="0 0 32 32"
   version="1.1"
   id="svg10"
   sodipodi:docname="user-group-delete.svg"
   inkscape:version="0.92.4 5da689c313, 2019-01-14">
  <metadata
     id="metadata16">
    <rdf:RDF>
      <cc:Work
         rdf:about="">
        <dc:format>image/svg+xml</dc:format>
        <dc:type
           rdf:resource="http://purl.org/dc/dcmitype/StillImage" />
      </cc:Work>
    </rdf:RDF>
  </metadata>
  <defs
     id="defs14" />
  <sodipodi:namedview
     pagecolor="#ffffff"
     bordercolor="#666666"
     borderopacity="1"
     objecttolerance="10"
     gridtolerance="10"
     guidetolerance="10"
     inkscape:pageopacity="0"
     inkscape:pageshadow="2"
     inkscape:window-width="1366"
     inkscape:window-height="703"
     id="namedview12"
     showgrid="false"
     inkscape:zoom="7.375"
     inkscape:cx="16"
     inkscape:cy="16"
     inkscape:window-x="0"
     inkscape:window-y="0"
     inkscape:window-maximized="1"
     inkscape:current-layer="svg10" />
  <path
     fill="#733737"
     d="M30.1 26.7c0 .4-.1.6-.4.9l-1.8 1.8c-.2.2-.5.4-.9.4s-.6-.1-.9-.4l-3.9-4-3.9 3.9c-.2.2-.5.4-.9.4s-.6-.1-.9-.4l-1.8-1.8c-.2-.2-.4-.5-.4-.9s.1-.6.4-.9l3.9-3.9-4-3.8c-.3-.2-.4-.6-.4-.9 0-.4.1-.6.4-.9l1.9-1.8c.2-.2.5-.4.9-.4s.6.1.9.4l3.9 3.9 3.9-3.9c.2-.2.5-.4.9-.4s.6.1.9.4l1.8 1.8c.2.2.4.5.4.9s-.1.6-.4.9l-3.9 4 3.9 3.9c.3.2.4.5.4.8z"
     id="path2"
     style="fill:#da4453;fill-opacity:1" />
  <g
     fill="#375273"
     id="g8"
     style="fill:#1d99f3;fill-opacity:1">
    <path
       d="M9.3 12c.8.8 1.8 1.2 2.9 1.2 1.1 0 2.1-.4 2.9-1.2.8-.8 1.2-1.8 1.2-2.9 0-1.1-.4-2.1-1.2-2.9S13.3 5 12.2 5c-1.1 0-2.1.4-2.9 1.2-.8.7-1.2 1.7-1.2 2.8 0 1.2.4 2.2 1.2 3zm9.1-4.3c.8 0 1.4-.3 1.9-.8s.8-1.2.8-1.9c0-.8-.3-1.4-.8-1.9s-1.2-.8-1.9-.8c-.8 0-1.4.3-1.9.8s-.8 1.2-.8 1.9c0 .8.3 1.4.8 1.9s1.2.8 1.9.8zm1.3.7c-.4.2-.9.2-1.3.2-.5 0-1-.1-1.4-.2 0 .3.1.5.1.7 0 1-.3 1.9-.9 2.8 1.2 0 2.1.5 2.8 1.4h1.4c.6 0 1.1-.1 1.5-.4.4-.3.6-.7.6-1.3 0-2.5-.4-3.8-1.3-3.8 0 0-.2.1-.5.2-.2 0-.6.2-1 .4zM6.1 7.7c.8 0 1.4-.3 1.9-.8s.8-1.2.8-1.9c0-.8-.3-1.5-.8-2-.5-.6-1.2-.8-1.9-.8-.8 0-1.5.2-2 .8-.5.5-.8 1.2-.8 1.9 0 .8.3 1.4.8 1.9.5.6 1.2.9 2 .9z"
       id="path4"
       style="fill:#1d99f3;fill-opacity:1" />
    <path
       d="M17.6 21.4l-3.2-3.2c-.3-.2-.5-.6-.5-1.1 0-.4.1-.7.4-1.1l1.9-1.8c.3-.3.6-.4 1.1-.4.4 0 .7.1 1.1.4l.8.8c-.1-.3-.2-.6-.4-.8-.2-.3-.4-.6-.7-.9l-.9-.6c-.4-.1-.8-.2-1.2-.2-.1 0-.2.1-.5.2-.2.2-.5.3-.8.5-.3.2-.7.4-1.1.5-.5.2-1 .2-1.5.2s-1-.1-1.4-.2c-.5-.2-.9-.3-1.1-.5-.3-.2-.5-.4-.8-.5-.2-.2-.4-.2-.5-.2-.4 0-.8.1-1.2.2-.4.1-.7.3-.9.6-.3.2-.5.5-.7.9-.2.3-.3.7-.5 1-.1.4-.2.7-.3 1.2-.1.4-.1.8-.2 1.2v1.1c0 .9.3 1.5.8 2s1.2.7 2.1.7h10.2zm-9.3-9.6C7.7 11 7.4 10 7.4 9c0-.2 0-.4.1-.7-.5.2-1 .3-1.4.3-.4 0-.8-.1-1.3-.2-.5-.2-.8-.4-1.1-.5-.2-.2-.4-.2-.4-.2C2.4 7.7 2 9 2 11.5c0 .6.2 1 .6 1.3.3.2.8.4 1.4.4h1.4c.8-.9 1.7-1.4 2.9-1.4z"
       id="path6"
       style="fill:#1d99f3;fill-opacity:1" />
  </g>
</svg>
