<svg xmlns="http://www.w3.org/2000/svg" viewBox="0 0 32 32">
  <path fill="#427337" stroke="#FFF" stroke-width=".5" stroke-miterlimit="10" d="M29.7 18.1c.2.2.4.5.4.9v2.6c0 .3-.1.6-.4.9-.2.2-.5.4-.9.4h-5.6v5.5c0 .3-.1.6-.4.9-.2.2-.5.4-.9.4h-2.6c-.3 0-.6-.1-.9-.4s-.4-.5-.4-.9v-5.5h-5.4c-.4 0-.7-.1-.9-.4-.2-.2-.4-.5-.4-.9l.1-2.6c0-.3.1-.6.4-.9.2-.2.5-.4.9-.4h5.5v-5.5c0-.3.1-.6.4-.9.2-.2.5-.4.9-.4h2.6c.3 0 .6.1.9.4.2.2.4.5.4.9v5.5h5.5c.3.1.5.2.8.4z"/>
  <g fill="#375273">
    <path d="M18.4 7.8c.8 0 1.4-.3 1.9-.8s.8-1.2.8-1.9c0-.8-.3-1.4-.8-1.9s-1.2-.8-1.9-.8c-.8 0-1.4.3-1.9.8s-.8 1.2-.8 1.9c0 .8.3 1.4.8 1.9s1.1.8 1.9.8zm-9.1 4.3c.8.8 1.8 1.2 2.9 1.2 1.1 0 2.1-.4 2.9-1.2.8-.8 1.2-1.8 1.2-2.9 0-1.1-.4-2.1-1.2-2.9S13.3 5 12.2 5c-1.1 0-2.1.4-2.9 1.2-.8.8-1.2 1.8-1.2 3 0 1.1.4 2.1 1.2 2.9zm10.4-3.6c-.4.2-.9.2-1.3.2-.5 0-1-.1-1.4-.2v.7c0 1-.3 1.9-.9 2.8.6 0 1.2.2 1.7.4v-.1c0-.4.2-.8.5-1.1.3-.3.6-.4 1.1-.5H22c.2 0 .4 0 .5.1-.1-2-.5-3-1.3-3 0 0-.2.1-.5.2-.2.2-.6.3-1 .5zM8.3 11.9c-.6-.8-.9-1.8-.9-2.8 0-.2 0-.4.1-.7-.5.2-1 .3-1.5.3-.4 0-.8-.1-1.3-.2-.4-.2-.7-.3-1-.5-.3-.1-.4-.2-.5-.2-.9 0-1.3 1.3-1.3 3.8 0 .6.2 1 .6 1.3.4.3.9.4 1.5.4h1.4c.8-.9 1.7-1.4 2.9-1.4z"/>
    <path d="M11 19c0-.4.2-.7.5-1.1.3-.3.6-.4 1.1-.5h5.3V13l-.6-.3c-.4-.1-.8-.2-1.2-.2-.1 0-.2.1-.5.2-.2.2-.5.3-.8.5-.3.2-.7.4-1.1.5-.5.2-1 .2-1.5.2s-1-.1-1.4-.2c-.5-.2-.9-.3-1.1-.5-.3-.2-.5-.4-.8-.5-.2-.2-.4-.2-.5-.2-.4 0-.8.1-1.2.2-.4.1-.7.3-.9.6-.3.2-.5.5-.7.9-.2.3-.3.7-.5 1-.1.5-.2.8-.3 1.3-.1.4-.1.8-.2 1.2v1.1c0 .9.3 1.5.8 2s1.2.7 2.1.7H11V19zM6 7.8c.8 0 1.4-.3 2-.8.5-.6.8-1.2.8-2S8.5 3.6 8 3.1c-.6-.5-1.2-.8-2-.8s-1.4.3-1.9.8c-.6.5-.8 1.2-.8 1.9 0 .8.3 1.4.8 1.9.5.6 1.2.9 1.9.9z"/>
  </g>
</svg>
