<svg viewBox="0 0 32 32" xmlns="http://www.w3.org/2000/svg"><path d="m28.9 7.9v16.3c0 .6-.2 1.1-.6 1.5s-.9.6-1.5.6h-21.5c-.6 0-1.1-.2-1.5-.6s-.6-.9-.6-1.5v-16.3c0-.6.2-1.1.6-1.5s.9-.6 1.5-.6h21.4c.6 0 1.1.2 1.5.6s.7.9.7 1.5zm-2.2-.5h-21.4c-.1 0-.2 0-.3.1s-.1.2-.1.4v16.3c0 .1 0 .2.1.3s.2.1.3.1h21.4c.1 0 .2 0 .3-.1s.1-.2.1-.3v-16.3c0-.1 0-.2-.1-.3s-.2-.2-.3-.2zm-15.7 2.5c.5.5.8 1.1.8 1.8s-.3 1.3-.8 1.8-1.1.8-1.8.8-1.4-.3-1.9-.8-.8-1.1-.8-1.8.2-1.3.8-1.8c.5-.5 1.1-.8 1.8-.8s1.4.3 1.9.8zm14.4 7v6h-18.8v-2.6l4.3-4.3 2.1 2.1 6.9-6.9z" fill="#375273"/></svg>