<?xml version="1.0" encoding="UTF-8" standalone="no"?>
<svg
   xmlns:dc="http://purl.org/dc/elements/1.1/"
   xmlns:cc="http://creativecommons.org/ns#"
   xmlns:rdf="http://www.w3.org/1999/02/22-rdf-syntax-ns#"
   xmlns:svg="http://www.w3.org/2000/svg"
   xmlns="http://www.w3.org/2000/svg"
   xmlns:sodipodi="http://sodipodi.sourceforge.net/DTD/sodipodi-0.dtd"
   xmlns:inkscape="http://www.inkscape.org/namespaces/inkscape"
   viewBox="0 0 32 32"
   version="1.1"
   id="svg6"
   sodipodi:docname="view-categories.svg"
   inkscape:version="0.92.4 5da689c313, 2019-01-14"
   width="32"
   height="32">
  <metadata
     id="metadata10">
    <rdf:RDF>
      <cc:Work
         rdf:about="">
        <dc:format>image/svg+xml</dc:format>
        <dc:type
           rdf:resource="http://purl.org/dc/dcmitype/StillImage" />
        <dc:title></dc:title>
      </cc:Work>
    </rdf:RDF>
  </metadata>
  <sodipodi:namedview
     pagecolor="#ffffff"
     bordercolor="#666666"
     borderopacity="1"
     objecttolerance="10"
     gridtolerance="10"
     guidetolerance="10"
     inkscape:pageopacity="0"
     inkscape:pageshadow="2"
     inkscape:window-width="1366"
     inkscape:window-height="703"
     id="namedview8"
     showgrid="false"
     inkscape:zoom="5.3636364"
     inkscape:cx="11"
     inkscape:cy="11"
     inkscape:window-x="0"
     inkscape:window-y="0"
     inkscape:window-maximized="1"
     inkscape:current-layer="svg6" />
  <defs
     id="defs3051">
    <style
       type="text/css"
       id="current-color-scheme">
     .ColorScheme-Text {
       color:#f2f2f2;
     }
     </style>
  </defs>
  <path
     style="color:#f2f2f2;fill:#1d99f3;fill-opacity:1;stroke:none;stroke-width:1.63700318"
     d="m 3.6213795,2.1426999 c -0.8618701,0 -1.5534455,0.6256795 -1.5534455,1.4012709 V 28.741276 c 0,0.775591 0.6915754,1.401424 1.5534455,1.401424 H 28.514489 c 0.861871,0 1.553445,-0.625833 1.553445,-1.401424 V 3.5439708 c 0,-0.7755914 -0.691574,-1.4012709 -1.553445,-1.4012709 z m 5.2642424,7.10941 c 1.8795381,0 3.4031471,1.3709521 3.4031471,3.0623991 0,1.691448 -1.523609,3.062552 -3.4031471,3.062552 -1.8795374,0 -3.4031466,-1.371104 -3.4031466,-3.062552 0,-1.691447 1.5236092,-3.0623991 3.4031466,-3.0623991 z m 7.0721641,0.8749711 h 9.723276 c 0.53867,0 0.972329,0.390169 0.972329,0.874971 0,0.484802 -0.433659,0.874971 -0.972329,0.874971 h -9.723276 c -0.538668,0 -0.972327,-0.390169 -0.972327,-0.874971 0,-0.484802 0.433659,-0.874971 0.972327,-0.874971 z m 0,3.499885 h 9.723276 c 0.53867,0 0.972329,0.390322 0.972329,0.875124 0,0.48465 -0.433659,0.874971 -0.972329,0.874971 h -9.723276 c -0.538668,0 -0.972327,-0.390321 -0.972327,-0.874971 0,-0.484802 0.433659,-0.875124 0.972327,-0.875124 z M 5.4824753,16.908338 h 6.8062937 v 4.593676 1.531276 H 10.587196 5.4824753 Z m 10.4753107,0.218666 h 9.723276 c 0.53867,0 0.972329,0.390322 0.972329,0.874972 0,0.484802 -0.433659,0.875124 -0.972329,0.875124 h -9.723276 c -0.538668,0 -0.972327,-0.390322 -0.972327,-0.875124 0,-0.48465 0.433659,-0.874972 0.972327,-0.874972 z m 0,3.500039 h 9.723276 c 0.53867,0 0.972329,0.390169 0.972329,0.874971 0,0.484802 -0.433659,0.874971 -0.972329,0.874971 h -9.723276 c -0.538668,0 -0.972327,-0.390169 -0.972327,-0.874971 0,-0.484802 0.433659,-0.874971 0.972327,-0.874971 z"
     class="ColorScheme-Text"
     id="path4"
     inkscape:connector-curvature="0" />
</svg>
