<svg xmlns="http://www.w3.org/2000/svg" viewBox="0 0 32 32">
  <path fill="#375273" d="M27.1 9.1v17.1c0 .5-.2.9-.5 1.2s-.7.6-1.2.6H6.6c-.5 0-.9-.2-1.2-.5s-.5-.7-.5-1.2V9.1c0-.5.2-.9.5-1.2s.7-.5 1.2-.5h1.7V6.1c0-.6.2-1.1.6-1.5.4-.4.9-.6 1.5-.6h.9c.6 0 1.1.2 1.5.6.4.4.6.9.6 1.5v1.3h5.1V6.1c0-.6.2-1.1.6-1.5.5-.4 1-.6 1.6-.6h.9c.6 0 1.1.2 1.5.6.4.4.6.9.6 1.5v1.3h1.7c.5 0 .9.2 1.2.5s.5.8.5 1.2zM6.6 16.4h3.9v-3.9H6.6v3.9zm0 5.2h3.9v-4.3H6.6v4.3zm0 4.7h3.9v-3.9H6.6v3.9zM11.7 10V6.1c0-.1 0-.2-.1-.3-.1-.1-.2-.1-.3-.1h-.9c-.1 0-.2 0-.3.1-.1.1-.1.2-.1.3V10c0 .1 0 .2.1.3s.2.1.3.1h.9c.1 0 .2 0 .3-.1.1-.1.1-.2.1-.3zm-.4 6.4h4.3v-3.9h-4.3v3.9zm0 5.2h4.3v-4.3h-4.3v4.3zm0 4.7h4.3v-3.9h-4.3v3.9zm5.1-9.9h4.3v-3.9h-4.3v3.9zm0 5.2h4.3v-4.3h-4.3v4.3zm0 4.7h4.3v-3.9h-4.3v3.9zM22 10V6.1c0-.1 0-.2-.1-.3-.1-.1-.2-.1-.3-.1h-.9c-.1 0-.2 0-.3.1-.1.1-.1.2-.1.3V10c0 .1 0 .2.1.3s.2.1.3.1h.9c.1 0 .2 0 .3-.1s.1-.2.1-.3zm-.4 6.4h3.9v-3.9h-3.9v3.9zm0 5.2h3.9v-4.3h-3.9v4.3zm0 4.7h3.9v-3.9h-3.9v3.9z"/>
</svg>
