<svg viewBox="0 0 32 32" xmlns="http://www.w3.org/2000/svg"><path d="m27.1 9.1v17.1c0 .5-.2.9-.5 1.2s-.7.6-1.2.6h-18.8c-.5 0-.9-.2-1.2-.5s-.5-.7-.5-1.2v-17.2c0-.5.2-.9.5-1.2s.7-.5 1.2-.5h1.7v-1.3c0-.6.2-1.1.6-1.5s.9-.6 1.5-.6h.9c.6 0 1.1.2 1.5.6s.6.9.6 1.5v1.3h5.1v-1.3c0-.6.2-1.1.6-1.5.5-.4 1-.6 1.6-.6h.9c.6 0 1.1.2 1.5.6s.6.9.6 1.5v1.3h1.7c.5 0 .9.2 1.2.5s.5.8.5 1.2zm-20.5 7.3h3.9v-3.9h-3.9zm0 5.2h3.9v-4.3h-3.9zm0 4.7h3.9v-3.9h-3.9zm5.1-16.3v-3.9c0-.1 0-.2-.1-.3s-.2-.1-.3-.1h-.9c-.1 0-.2 0-.3.1s-.1.2-.1.3v3.9c0 .1 0 .2.1.3s.2.1.3.1h.9c.1 0 .2 0 .3-.1s.1-.2.1-.3zm-.4 6.4h4.3v-3.9h-4.3zm0 5.2h4.3v-4.3h-4.3zm0 4.7h4.3v-3.9h-4.3zm5.1-9.9h4.3v-3.9h-4.3zm0 5.2h4.3v-4.3h-4.3zm0 4.7h4.3v-3.9h-4.3zm5.6-16.3v-3.9c0-.1 0-.2-.1-.3s-.2-.1-.3-.1h-.9c-.1 0-.2 0-.3.1s-.1.2-.1.3v3.9c0 .1 0 .2.1.3s.2.1.3.1h.9c.1 0 .2 0 .3-.1s.1-.2.1-.3zm-.4 6.4h3.9v-3.9h-3.9zm0 5.2h3.9v-4.3h-3.9zm0 4.7h3.9v-3.9h-3.9z" fill="#375273"/></svg>