<?xml version="1.0" encoding="UTF-8" standalone="no"?>
<svg
   xmlns:dc="http://purl.org/dc/elements/1.1/"
   xmlns:cc="http://creativecommons.org/ns#"
   xmlns:rdf="http://www.w3.org/1999/02/22-rdf-syntax-ns#"
   xmlns:svg="http://www.w3.org/2000/svg"
   xmlns="http://www.w3.org/2000/svg"
   xmlns:sodipodi="http://sodipodi.sourceforge.net/DTD/sodipodi-0.dtd"
   xmlns:inkscape="http://www.inkscape.org/namespaces/inkscape"
   viewBox="0 0 22 22"
   version="1.1"
   id="svg6"
   sodipodi:docname="view-categories.svg"
   inkscape:version="0.92.4 5da689c313, 2019-01-14">
  <metadata
     id="metadata10">
    <rdf:RDF>
      <cc:Work
         rdf:about="">
        <dc:format>image/svg+xml</dc:format>
        <dc:type
           rdf:resource="http://purl.org/dc/dcmitype/StillImage" />
      </cc:Work>
    </rdf:RDF>
  </metadata>
  <sodipodi:namedview
     pagecolor="#ffffff"
     bordercolor="#666666"
     borderopacity="1"
     objecttolerance="10"
     gridtolerance="10"
     guidetolerance="10"
     inkscape:pageopacity="0"
     inkscape:pageshadow="2"
     inkscape:window-width="1366"
     inkscape:window-height="703"
     id="namedview8"
     showgrid="false"
     inkscape:zoom="10.727273"
     inkscape:cx="11"
     inkscape:cy="11"
     inkscape:window-x="0"
     inkscape:window-y="0"
     inkscape:window-maximized="1"
     inkscape:current-layer="svg6" />
  <defs
     id="defs3051">
    <style
       type="text/css"
       id="current-color-scheme">
     .ColorScheme-Text {
       color:#f2f2f2;
     }
     </style>
  </defs>
  <path
     style="fill:#1d99f3;fill-opacity:1;stroke:none"
     d="m3.8878053 1.8573c-.4924887 0-.8876679.4086-.8876679.9151v16.4551c0 .5065.3951792.9152.8876679.9152h14.2243897c.492489 0 .887668-.4087.887668-.9152v-16.4551c0-.5065-.395179-.9151-.887668-.9151h-14.2243897zm3.008087 4.6428c1.074003 0 1.9446219.8953 1.9446219 1.9999s-.8706189 2-1.9446219 2-1.9446219-.8954-1.9446219-2 .8706189-1.9999 1.9446219-1.9999zm4.0411667.5714h5.556063c.307806 0 .555607.2548.555607.5714s-.247801.5714-.555607.5714h-5.556063c-.307805 0-.555606-.2548-.555606-.5714s.247801-.5714.555606-.5714zm0 2.2856h5.556063c.307806 0 .555607.2549.555607.5715 0 .3165-.247801.5714-.555607.5714h-5.556063c-.307805 0-.555606-.2549-.555606-.5714 0-.3166.247801-.5715.555606-.5715zm-5.9857886 2.1429h3.8892439v2.9999 1h-.972311-2.9169329zm5.9857886.1428h5.556063c.307806 0 .555607.2549.555607.5714 0 .3166-.247801.5715-.555607.5715h-5.556063c-.307805 0-.555606-.2549-.555606-.5715 0-.3165.247801-.5714.555606-.5714zm0 2.2857h5.556063c.307806 0 .555607.2548.555607.5714s-.247801.5714-.555607.5714h-5.556063c-.307805 0-.555606-.2548-.555606-.5714s.247801-.5714.555606-.5714z"
     class="ColorScheme-Text"
     id="path4" />
</svg>
