<?xml version="1.0" encoding="UTF-8" standalone="no"?>
<svg
   xmlns:dc="http://purl.org/dc/elements/1.1/"
   xmlns:cc="http://creativecommons.org/ns#"
   xmlns:rdf="http://www.w3.org/1999/02/22-rdf-syntax-ns#"
   xmlns:svg="http://www.w3.org/2000/svg"
   xmlns="http://www.w3.org/2000/svg"
   xmlns:sodipodi="http://sodipodi.sourceforge.net/DTD/sodipodi-0.dtd"
   xmlns:inkscape="http://www.inkscape.org/namespaces/inkscape"
   viewBox="0 0 22 22"
   version="1.1"
   id="svg6"
   sodipodi:docname="view-refresh.svg"
   inkscape:version="0.92.4 5da689c313, 2019-01-14">
  <metadata
     id="metadata10">
    <rdf:RDF>
      <cc:Work
         rdf:about="">
        <dc:format>image/svg+xml</dc:format>
        <dc:type
           rdf:resource="http://purl.org/dc/dcmitype/StillImage" />
      </cc:Work>
    </rdf:RDF>
  </metadata>
  <sodipodi:namedview
     pagecolor="#ffffff"
     bordercolor="#666666"
     borderopacity="1"
     objecttolerance="10"
     gridtolerance="10"
     guidetolerance="10"
     inkscape:pageopacity="0"
     inkscape:pageshadow="2"
     inkscape:window-width="1366"
     inkscape:window-height="703"
     id="namedview8"
     showgrid="false"
     inkscape:zoom="10.727273"
     inkscape:cx="11"
     inkscape:cy="11"
     inkscape:window-x="0"
     inkscape:window-y="0"
     inkscape:window-maximized="1"
     inkscape:current-layer="svg6" />
  <defs
     id="defs3051">
    <style
       type="text/css"
       id="current-color-scheme">
     .ColorScheme-Text {
       color:#f2f2f2;
     }
     </style>
  </defs>
  <path
     style="fill:#1d99f3;fill-opacity:1;stroke:none"
     d="m11.195312 3.0018277c-.36394-.006-.72847.009-1.0918.0469-1.1030804.11675-2.1486904.42718-3.1210904.92383l-.6543-.6875c-.23175-.24223-.64026-.14291-.73438.17773l-1.1640603 3.97266c-.0941.32238.19563.62508.52149.54492l4.0195303-.97656c.32585-.0784.44467-.48065.21289-.72461l-.54492-.57031c.54021-.20912 1.10847-.34526 1.6992204-.40625 1.0839-.11327 2.18568.0412 3.18945.44726.84517.34155 1.61848.85998 2.25976 1.51172.16207.16381.4234.177.59766.0254l1.05469-.91601c.1882-.16381.19986-.45159.0273-.63282-.86957-.90267-1.92905-1.61933-3.08789-2.08984-1.00898-.40908-2.0918-.62704-3.18359-.64649zm5.85351 11.0175803-4.01953.97657c-.32587.0784-.44466.48064-.21289.7246l.54492.57032c-.54021.20911-1.10847.34526-1.69922.40625-1.08391.11327-2.1856804-.0412-3.1894504-.44727-.84517-.34155-1.61846-.85996-2.25976-1.51172-.16209-.1638-.4234-.177-.59766-.0254l-1.0546903.91602c-.18818.1638-.19986.45156-.0273.63281.86956.90268 1.9290503 1.61934 3.0878903 2.08984 1.34528.54544 2.8220604.75124 4.2753904.59961 1.10308-.11675 2.14871-.42718 3.12109-.92382l.6543.6875c.23177.2422.64027.1429.73437-.17774l1.16407-3.97266c.0941-.32238-.19562-.62506-.52149-.54492z"
     class="ColorScheme-Text"
     id="path4" />
</svg>
