<svg height="32" viewBox="0 0 32 32" width="32" xmlns="http://www.w3.org/2000/svg"><path d="m7.2499999 1.9999999s-1.75-.0000525-1.75 1.75h-3.5v5.25 19.2500001 1.75h28.0000001v-1.75-19.2500001-5.25h-3.5c0-1.7500525-1.75-1.75-1.75-1.75h-5.25s-1.75-.0000525-1.75 1.75h-3.5c0-1.7500525-1.75-1.75-1.75-1.75zm0 1.75h5.2500001v1.75h-5.2500001zm12.2500001 0h5.25v1.75h-5.25zm-15.75 5.25h24.5v19.2500001h-24.5000001zm3.5 1.7500001v3.5h3.5v-3.5zm7 0v3.5h3.5v-3.5zm7 0v3.5h3.5v-3.5zm0 12.25v3.5h3.5v-3.5z" fill="#4285f4"/><path d="m6 21v2h2v-2zm4 0v2h2v-2zm4 0v2h2v-2z" fill="#0fbb58"/></svg>