<?xml version="1.0" encoding="UTF-8" standalone="no"?>
<svg
   xmlns:dc="http://purl.org/dc/elements/1.1/"
   xmlns:cc="http://creativecommons.org/ns#"
   xmlns:rdf="http://www.w3.org/1999/02/22-rdf-syntax-ns#"
   xmlns:svg="http://www.w3.org/2000/svg"
   xmlns="http://www.w3.org/2000/svg"
   xmlns:sodipodi="http://sodipodi.sourceforge.net/DTD/sodipodi-0.dtd"
   xmlns:inkscape="http://www.inkscape.org/namespaces/inkscape"
   viewBox="0 0 32 32"
   version="1.1"
   id="svg6"
   sodipodi:docname="view-refresh.svg"
   inkscape:version="0.92.4 5da689c313, 2019-01-14"
   width="32"
   height="32">
  <metadata
     id="metadata10">
    <rdf:RDF>
      <cc:Work
         rdf:about="">
        <dc:format>image/svg+xml</dc:format>
        <dc:type
           rdf:resource="http://purl.org/dc/dcmitype/StillImage" />
        <dc:title></dc:title>
      </cc:Work>
    </rdf:RDF>
  </metadata>
  <sodipodi:namedview
     pagecolor="#ffffff"
     bordercolor="#666666"
     borderopacity="1"
     objecttolerance="10"
     gridtolerance="10"
     guidetolerance="10"
     inkscape:pageopacity="0"
     inkscape:pageshadow="2"
     inkscape:window-width="1366"
     inkscape:window-height="703"
     id="namedview8"
     showgrid="false"
     inkscape:zoom="10.727273"
     inkscape:cx="11"
     inkscape:cy="11"
     inkscape:window-x="0"
     inkscape:window-y="0"
     inkscape:window-maximized="1"
     inkscape:current-layer="svg6" />
  <defs
     id="defs3051">
    <style
       type="text/css"
       id="current-color-scheme">
     .ColorScheme-Text {
       color:#f2f2f2;
     }
     </style>
  </defs>
  <path
     style="color:#f2f2f2;fill:#1d99f3;fill-opacity:1;stroke:none;stroke-width:1.92839217"
     d="m 16.495714,1.7474561 c -0.773308,-0.010501 -1.54787,0.015751 -2.319883,0.082081 C 11.83198,2.0338636 9.6102425,2.5771533 7.5440633,3.4463502 L 6.153791,2.2431425 C 5.661363,1.819211 4.7933512,1.9930329 4.5933628,2.5541913 L 2.1199396,9.5068221 C 1.9199936,10.071026 2.5356189,10.600787 3.228014,10.460497 L 11.768809,8.7514004 C 12.461183,8.614191 12.713654,7.9102053 12.221163,7.4832461 L 11.063304,6.4851353 c 1.147851,-0.3659851 2.355303,-0.6042464 3.610544,-0.7109862 2.303096,-0.198236 4.644185,0.072105 6.77702,0.7827586 1.795837,0.5977534 3.438985,1.505068 4.801592,2.6456911 0.34437,0.2866871 0.89965,0.3097712 1.269922,0.044453 L 29.763413,7.6439246 C 30.163304,7.3572375 30.18808,6.853588 29.821423,6.5364138 27.97374,4.9566332 25.722532,3.7023924 23.260201,2.8789435 21.116296,2.1630045 18.815494,1.7815484 16.495632,1.7475086 Z m 12.437679,19.2820849 -8.540794,1.709114 c -0.692416,0.13721 -0.944824,0.841178 -0.452354,1.268137 l 1.157859,0.998128 c -1.147851,0.365968 -2.355303,0.604247 -3.610543,0.710987 -2.303118,0.198236 -4.644186,-0.07211 -6.777021,-0.782776 C 8.9147025,24.335377 7.2715971,23.428098 5.9089475,22.28744 5.5645348,22.00077 5.0092971,21.977668 4.6390252,22.242986 L 2.397994,23.846131 c -0.3998494,0.28667 -0.4246673,0.790284 -0.058008,1.107493 1.8476619,1.579799 4.0988923,2.834039 6.5612235,3.657471 2.8584835,0.954585 5.9963825,1.31476 9.0844525,1.049389 2.343851,-0.204326 4.565631,-0.747616 6.631767,-1.616796 l 1.390272,1.203208 c 0.492471,0.423879 1.360461,0.250092 1.560407,-0.311067 l 2.473444,-6.95263 c 0.199946,-0.564204 -0.415658,-1.09393 -1.108074,-0.953676 z"
     class="ColorScheme-Text"
     id="path4"
     inkscape:connector-curvature="0" />
</svg>
