<?xml version="1.0" encoding="UTF-8" standalone="no"?>
<svg
   xmlns:dc="http://purl.org/dc/elements/1.1/"
   xmlns:cc="http://creativecommons.org/ns#"
   xmlns:rdf="http://www.w3.org/1999/02/22-rdf-syntax-ns#"
   xmlns:svg="http://www.w3.org/2000/svg"
   xmlns="http://www.w3.org/2000/svg"
   xmlns:sodipodi="http://sodipodi.sourceforge.net/DTD/sodipodi-0.dtd"
   xmlns:inkscape="http://www.inkscape.org/namespaces/inkscape"
   viewBox="0 0 32 32"
   version="1.1"
   id="svg4"
   sodipodi:docname="wallet-open.svg"
   inkscape:version="0.92.4 5da689c313, 2019-01-14">
  <metadata
     id="metadata10">
    <rdf:RDF>
      <cc:Work
         rdf:about="">
        <dc:format>image/svg+xml</dc:format>
        <dc:type
           rdf:resource="http://purl.org/dc/dcmitype/StillImage" />
      </cc:Work>
    </rdf:RDF>
  </metadata>
  <defs
     id="defs8" />
  <sodipodi:namedview
     pagecolor="#ffffff"
     bordercolor="#666666"
     borderopacity="1"
     objecttolerance="10"
     gridtolerance="10"
     guidetolerance="10"
     inkscape:pageopacity="0"
     inkscape:pageshadow="2"
     inkscape:window-width="1366"
     inkscape:window-height="703"
     id="namedview6"
     showgrid="false"
     inkscape:zoom="7.375"
     inkscape:cx="16"
     inkscape:cy="16"
     inkscape:window-x="0"
     inkscape:window-y="0"
     inkscape:window-maximized="1"
     inkscape:current-layer="svg4" />
  <g
     id="g8"
     style="fill:#2ecc71;fill-opacity:1">
    <path
       inkscape:connector-curvature="0"
       style="fill:#2ecc71;fill-opacity:1;stroke-width:1.05090141"
       id="path2"
       d="m 28.343014,6.9644068 c 0.527932,0 0.950277,0.2091928 1.372622,0.5229819 0.422345,0.4183855 0.527931,0.836771 0.527931,1.4643493 v 2.719506 H 2.1576271 V 8.951738 c 0,-0.5229819 0.2111725,-0.9413674 0.5279312,-1.3597529 C 3.1079032,7.1735996 3.5302482,6.9644068 4.0581794,6.9644068 Z M 2.1576271,23.595231 V 16.273485 H 30.349153 v 7.321746 c 0,0.522982 -0.211172,0.941368 -0.527931,1.359753 -0.422345,0.418386 -0.84469,0.522982 -1.372621,0.522982 H 4.1637656 c -0.5279312,0 -0.9502761,-0.209192 -1.3726211,-0.522982 C 2.2632133,24.641195 2.1576271,24.22281 2.1576271,23.595231 Z M 5.219628,20.875726 v 1.568945 h 3.1675871 v -1.568945 z m 4.7513807,0 v 1.568945 h 4.6457953 v -1.568945 z" />
  </g>
</svg>
