<?xml version="1.0" encoding="UTF-8" standalone="no"?>
<svg
   xmlns:dc="http://purl.org/dc/elements/1.1/"
   xmlns:cc="http://creativecommons.org/ns#"
   xmlns:rdf="http://www.w3.org/1999/02/22-rdf-syntax-ns#"
   xmlns:svg="http://www.w3.org/2000/svg"
   xmlns="http://www.w3.org/2000/svg"
   xmlns:sodipodi="http://sodipodi.sourceforge.net/DTD/sodipodi-0.dtd"
   xmlns:inkscape="http://www.inkscape.org/namespaces/inkscape"
   viewBox="0 0 32 32"
   version="1.1"
   id="svg14"
   sodipodi:docname="webui.svg"
   inkscape:version="0.92.4 5da689c313, 2019-01-14">
  <metadata
     id="metadata20">
    <rdf:RDF>
      <cc:Work
         rdf:about="">
        <dc:format>image/svg+xml</dc:format>
        <dc:type
           rdf:resource="http://purl.org/dc/dcmitype/StillImage" />
      </cc:Work>
    </rdf:RDF>
  </metadata>
  <defs
     id="defs18" />
  <sodipodi:namedview
     pagecolor="#ffffff"
     bordercolor="#666666"
     borderopacity="1"
     objecttolerance="10"
     gridtolerance="10"
     guidetolerance="10"
     inkscape:pageopacity="0"
     inkscape:pageshadow="2"
     inkscape:window-width="1366"
     inkscape:window-height="703"
     id="namedview16"
     showgrid="false"
     inkscape:zoom="7.375"
     inkscape:cx="30.101695"
     inkscape:cy="10.576271"
     inkscape:window-x="0"
     inkscape:window-y="0"
     inkscape:window-maximized="1"
     inkscape:current-layer="svg14" />
  <g
     id="g18"
     transform="translate(0,-0.6779661)">
    <g
       style="fill:#1d99f3;fill-opacity:1"
       id="g10">
      <circle
         style="fill:#1d99f3;fill-opacity:1"
         id="circle2"
         r="0.80000001"
         cy="6.8000002"
         cx="26.9" />
      <circle
         style="fill:#1d99f3;fill-opacity:1"
         id="circle4"
         r="0.80000001"
         cy="6.8000002"
         cx="24.9" />
      <circle
         style="fill:#1d99f3;fill-opacity:1"
         id="circle6"
         r="0.80000001"
         cy="6.8000002"
         cx="22.9" />
      <path
         style="fill:#1d99f3;fill-opacity:1"
         id="path8"
         d="M 27.3,4.3 H 4.7 C 3.3,4.3 2.2,5.4 2.2,6.8 v 17.8 c 0,1.4 1.1,2.5 2.5,2.5 H 9.3 C 9,26.8 8.7,26.5 8.4,26.1 H 4.7 C 3.9,26.1 3.2,25.4 3.2,24.6 V 9.2 h 25.7 v 15.4 c 0,0.8 -0.7,1.5 -1.5,1.5 h -3.7 c -0.3,0.4 -0.6,0.7 -0.9,1 h 4.6 c 1.4,0 2.5,-1.1 2.5,-2.5 V 6.8 C 29.8,5.4 28.7,4.3 27.3,4.3 Z m 1.5,3.9 H 3.2 V 6.8 C 3.2,6 3.9,5.3 4.7,5.3 h 22.7 c 0.8,0 1.5,0.7 1.5,1.5 v 1.4 z"
         inkscape:connector-curvature="0" />
    </g>
    <path
       style="fill:#1d52f3;fill-opacity:1"
       id="path12"
       d="m 11.4,12.1 c 1.4,-0.8 2.9,-1.2 4.6,-1.2 1.7,0 3.2,0.4 4.6,1.2 1.4,0.8 2.5,1.9 3.3,3.3 0.8,1.4 1.2,2.9 1.2,4.6 0,1.7 -0.4,3.2 -1.2,4.6 -0.8,1.4 -1.9,2.5 -3.3,3.3 -1.4,0.8 -2.9,1.2 -4.6,1.2 -1.7,0 -3.2,-0.4 -4.6,-1.2 C 10,27.3 8.8,26.1 8,24.7 7.2,23.3 6.8,21.8 6.8,20.1 c 0,-1.7 0.4,-3.2 1.2,-4.6 0.8,-1.4 2,-2.6 3.4,-3.4 z m 7.9,5.1 -0.1,0.1 -0.1,0.1 c 0,0 0.1,0 0.1,-0.1 0,-0.1 0.1,-0.1 0.1,-0.1 -0.2,0 -0.1,0 0,0 0,-0.1 0.1,-0.1 0.2,-0.2 0.1,-0.1 0.3,-0.1 0.6,-0.1 0.3,-0.1 0.5,0 0.6,0.1 0,0 0,-0.1 0.1,-0.1 0.1,-0.1 0.1,-0.1 0.2,-0.1 0,0 0.1,-0.1 0.2,-0.1 0.1,0 0.1,-0.1 0.2,-0.1 v -0.3 c -0.1,0 -0.1,0 -0.2,-0.1 -0.1,-0.1 -0.1,-0.1 -0.1,-0.3 0,0 0,0.1 -0.1,0.1 0,-0.1 0,-0.1 -0.1,-0.1 h -0.2 c -0.1,0 -0.1,-0.1 -0.2,-0.1 -0.1,-0.1 -0.1,-0.1 -0.1,-0.2 0,-0.1 -0.1,-0.1 -0.1,-0.2 0,-0.1 -0.1,-0.1 -0.1,-0.1 l -0.1,-0.1 v -0.1 c 0,0 0,-0.1 -0.1,-0.1 0,0 0,-0.1 -0.1,-0.1 H 20 c 0,0 -0.1,0 -0.1,0.1 0,0.1 -0.1,0.1 -0.1,0.1 l -0.1,0.1 h -0.2 l -0.1,0.1 -0.1,0.1 c 0,0 -0.1,0 -0.1,0.1 h -0.1 c 0.1,-0.1 0.1,-0.1 0,-0.1 C 19,15.4 19,15.3 18.9,15.3 19,15.3 19,15.2 19,15.2 19,15.1 18.9,15.1 18.9,15 H 19 l -0.1,-0.1 c -0.1,-0.1 -0.1,-0.1 -0.2,-0.1 -0.1,0 -0.1,-0.1 -0.1,-0.1 -0.1,-0.1 -0.2,-0.1 -0.4,-0.1 -0.2,-0.1 -0.3,-0.1 -0.4,0 l -0.1,0.1 c 0,0 0,0.1 0.1,0.2 0,0.1 0.1,0.1 0.1,0.1 0,0.1 0,0.1 -0.1,0.1 l -0.1,0.1 c 0,0.1 0.1,0.1 0.2,0.2 0.1,0 0.2,0.1 0.1,0.2 0,0.1 -0.1,0.1 -0.2,0.2 -0.1,0.1 -0.2,0.1 -0.2,0.1 -0.1,0.1 -0.1,0.1 0,0.2 0,0.1 0.1,0.1 0.1,0.2 v 0.1 c 0,0 0,0.1 -0.1,0.1 l -0.1,0.1 c 0,0 -0.1,0 -0.1,0.1 h -0.1 c -0.1,0.1 -0.2,0 -0.3,-0.1 -0.1,-0.1 -0.1,-0.2 -0.1,-0.3 -0.1,-0.2 -0.1,-0.3 -0.2,-0.3 -0.2,-0.1 -0.3,-0.1 -0.3,0 -0.1,-0.1 -0.2,-0.2 -0.5,-0.3 -0.2,-0.1 -0.4,-0.1 -0.7,-0.1 0.1,0 0.1,-0.1 0,-0.2 -0.1,-0.1 -0.1,-0.2 -0.2,-0.1 0,-0.1 0.1,-0.1 0.1,-0.2 V 15 c 0,-0.1 0.1,-0.2 0.1,-0.3 l 0.1,-0.1 0.1,-0.1 v -0.1 c 0.3,0 0.5,0 0.6,-0.1 0.1,-0.1 0.1,-0.1 0.1,-0.2 0.1,-0.1 0.1,-0.1 0.1,-0.2 0.1,-0.1 0.1,-0.1 0.2,-0.1 0.1,0 0.1,0 0.2,0.1 0.1,0.1 0.1,0.1 0.2,0.1 0.1,0 0.2,-0.1 0.2,-0.1 0,-0.1 0,-0.2 -0.1,-0.3 0.1,0 0.1,-0.1 0.1,-0.2 l -0.1,-0.1 c -0.1,0 -0.2,0 -0.3,0.1 -0.1,0 -0.1,0.1 0,0.1 l -0.1,0.1 -0.2,0.2 c -0.1,0.1 -0.1,0 -0.2,-0.1 0,0 0,-0.1 -0.1,-0.1 l -0.1,-0.1 c -0.1,0 -0.1,0.1 -0.2,0.2 0,-0.1 0,-0.1 -0.1,-0.2 -0.1,-0.1 -0.2,-0.1 -0.3,-0.1 0,-0.1 0,-0.3 -0.2,-0.3 C 15,13.1 15,13 14.8,13 c -0.2,0 -0.2,0 -0.2,0.1 l -0.1,0.1 c 0,0.1 0,0.1 0.1,0.1 0.1,0 0.3,-0.3 0.4,-0.3 0.1,0 0.1,0 0.1,0.1 0.1,0 0.1,0 0.1,0.1 0.1,0 0.1,0.1 0,0.1 0,0 -0.1,0 -0.1,0.1 -0.1,0 -0.1,0.1 -0.1,0.1 -0.1,0 -0.1,0 -0.1,0.1 V 14 c -0.1,-0.1 -0.1,-0.1 -0.1,-0.2 0,-0.1 -0.1,-0.1 -0.1,-0.2 0.1,-0.1 0,-0.1 -0.3,-0.1 h -0.6 c -0.1,0 -0.1,-0.1 -0.1,-0.1 v -0.3 c 0,0 0,-0.1 0.1,0 L 13.7,13 13.6,12.9 c -0.3,0.1 -0.7,0.3 -1.1,0.5 h 0.1 c 0.1,0 0.1,-0.1 0.1,-0.1 l 0.1,-0.1 c 0.3,-0.1 0.5,-0.1 0.5,-0.1 l 0.1,-0.1 0.3,0.3 c -0.1,0 -0.2,-0.1 -0.3,0 -0.1,0.1 -0.3,0.1 -0.3,0.1 0.1,0.1 0.1,0.2 0.1,0.2 L 13.1,13.5 C 13,13.4 13,13.4 12.9,13.4 c -0.1,0.1 -0.1,0.1 -0.2,0 h -0.3 c -1.1,0.7 -2.1,1.5 -2.8,2.7 l 0.1,0.1 0.1,0.1 v 0.1 c 0,0 0.1,0 0.1,-0.1 0.1,0.1 0.1,0.2 0.1,0.3 0,0 0.2,0.1 0.5,0.3 0.1,0.1 0.3,0.2 0.3,0.3 0,0.1 0,0.1 -0.1,0.2 l -0.1,-0.1 -0.1,-0.1 v 0.2 c 0,0.1 0.1,0.1 0.1,0.1 -0.1,0 -0.1,0.1 -0.1,0.2 v 0.7 c 0,0.1 0,0.2 0.1,0.4 0.1,0.2 0.1,0.3 0.3,0.2 -0.1,0 0,0.2 0.3,0.5 l 0.1,0.1 0.1,0.1 c 0.1,0.2 0.2,0.2 0.2,0.3 l 0.1,0.1 c 0,0.1 0.1,0.1 0.1,0.3 0.1,0.1 0.1,0.2 0.2,0.3 0,0.1 0,0.1 0.1,0.3 -0.1,0 -0.1,0.1 -0.1,0.2 0,0.1 0.1,0.1 0.2,0.2 0.1,0.1 0.1,0.1 0.2,0.1 v 0.1 c 0,0.1 0,0.1 0.1,0.1 0,0 0.1,0.1 0.1,0 0,-0.1 -0.1,-0.4 -0.3,-0.7 -0.1,-0.2 -0.2,-0.3 -0.2,-0.3 0,-0.1 -0.1,-0.1 -0.1,-0.2 v -0.2 c 0,0 0.1,0 0.1,0.1 0.1,0 0.1,0 0.1,0.1 v 0.3 c 0.1,0.1 0.1,0.1 0.1,0.2 l 0.2,0.2 0.1,0.1 0.2,0.2 c 0.1,0.1 0.1,0.1 0,0.1 0.1,0 0.1,0.1 0.3,0.1 0.1,0.1 0.1,0.1 0.2,0.3 -0.1,0.1 -0.1,0.2 -0.1,0.4 0,0.1 0.1,0.3 0.1,0.3 0,0.1 0.1,0.1 0.1,0.1 0.1,0 0.1,0.1 0.1,0.1 0.1,0 0.1,0.1 0.2,0.1 l 0.1,0.1 c 0.1,0 0.1,0.1 0.2,0.1 0.1,0.1 0.2,0.1 0.3,0.1 0.1,0 0.1,0.1 0.2,0.1 h 0.2 c 0.1,0 0.1,-0.1 0.1,-0.1 0.1,0 0.3,0.1 0.3,0.2 l 0.3,0.3 c 0.3,0.1 0.5,0.2 0.7,0.1 V 24 c 0,0.1 0.1,0.1 0.1,0.2 0.1,0.1 0.1,0.1 0.1,0.2 0,0.1 0.1,0.1 0.1,0.1 l 0.2,0.2 c 0.1,0.1 0.2,0.1 0.2,0.2 0.1,0 0.1,-0.1 0.1,-0.1 0,0.1 0,0.1 0.1,0.3 0.1,0.1 0.1,0.1 0.2,0.1 0.1,0 0.2,-0.1 0.2,-0.4 -0.3,0.1 -0.5,0.1 -0.6,-0.2 v -0.1 c 0,-0.1 -0.1,-0.1 -0.1,-0.1 v -0.2 c 0,0 0,-0.1 0.1,-0.1 0.1,0 0.1,0 0.1,-0.1 v -0.1 c 0,-0.1 -0.1,-0.1 -0.1,-0.1 0,-0.1 -0.1,-0.1 -0.1,-0.3 -0.1,-0.1 -0.1,-0.1 -0.1,-0.2 -0.1,0.1 -0.1,0.1 -0.2,0.1 -0.1,0 -0.1,-0.1 -0.2,-0.1 v 0.2 H 16 v -0.2 c 0,-0.1 0,-0.2 0.1,-0.3 0,0 0,-0.1 0.1,-0.1 0.1,-0.1 0.1,-0.1 0.1,-0.2 0,-0.1 0.1,-0.1 0.1,-0.1 0,-0.1 0,-0.1 -0.1,-0.1 -0.1,0 -0.1,-0.1 -0.2,0 -0.1,0 -0.3,0.1 -0.3,0.3 0,0 0,0.1 -0.1,0.1 l -0.1,0.1 -0.1,0.1 h -0.3 c -0.2,0 -0.2,0 -0.3,-0.1 l -0.3,-0.3 c -0.1,-0.2 -0.1,-0.3 -0.1,-0.5 v -0.3 c 0,-0.1 0,-0.2 0.1,-0.3 0,-0.1 0,-0.1 -0.1,-0.3 l 0.1,-0.1 0.1,-0.1 H 15 c 0,0 0,-0.1 0.1,-0.1 L 15,20.9 14.9,20.8 h 0.3 c 0.2,-0.1 0.3,0 0.3,0 0.1,0.1 0.2,0.1 0.3,0 v -0.2 c 0.1,0.2 0.1,0.3 0.3,0.1 0,0 0.1,0.1 0.2,0.1 0.1,0 0.2,0.1 0.2,0.1 l 0.1,0.1 0.1,0.1 h 0.1 L 16.9,21 c 0.1,0.1 0.1,0.2 0.1,0.3 0.1,0.3 0.1,0.5 0.2,0.5 h 0.1 l 0.1,-0.1 v -1 c -0.1,0 -0.2,-0.1 -0.2,-0.1 v -0.2 l 0.2,-0.2 c 0,0 0.1,0 0.1,-0.1 0.1,0 0.1,-0.1 0.2,-0.1 0.1,0 0.1,-0.1 0.1,-0.1 0.2,-0.1 0.2,-0.3 0.2,-0.4 0.1,0 0.1,-0.1 0.1,-0.1 L 18,19.3 17.9,19.2 H 18 c 0.1,-0.1 0.1,-0.1 0,-0.2 0.1,0 0.1,-0.1 0.1,-0.1 l 0.1,-0.1 c 0.1,0.1 0.1,0.1 0.3,0 0.1,-0.1 0.1,-0.1 0,-0.2 0.1,-0.1 0.1,-0.1 0.3,-0.1 0.1,0 0.2,-0.1 0.2,-0.1 h 0.1 v -0.1 c 0,-0.1 0,-0.1 0.1,-0.1 0,-0.1 0.1,-0.1 0.2,-0.1 0.1,0 0.1,-0.1 0.1,-0.1 l 0.2,-0.1 v -0.1 c 0.1,0 0.3,0 0.4,-0.1 0.1,-0.1 0.1,-0.2 -0.1,-0.3 0,-0.1 0,-0.1 -0.1,-0.1 -0.1,0 -0.1,-0.1 -0.2,-0.1 h 0.2 C 20,17.1 20,17 19.8,17 c -0.1,0 -0.3,0 -0.5,0.2 z m -2,10.5 c 1.7,-0.3 3,-1.1 4.2,-2.3 l -0.1,-0.1 c -0.1,0 -0.1,0 -0.1,-0.1 C 21.2,25.1 21,25.1 21,25.1 v -0.2 c -0.1,0 -0.1,-0.1 -0.1,-0.1 l -0.1,-0.1 -0.1,-0.1 c -0.1,0 -0.1,-0.1 -0.1,-0.1 0,0 -0.1,0 -0.1,-0.1 h -0.4 c 0,0 -0.1,0 -0.1,0.1 0,0.1 -0.1,0 -0.1,0.1 -0.2,-0.1 -0.3,-0.2 -0.4,-0.3 -0.1,0 -0.1,0 -0.1,-0.1 l -0.1,-0.1 h -0.1 c -0.1,0 -0.1,0.1 -0.1,0.1 C 19,24.3 19,24.3 19,24.4 v 0.1 c -0.1,-0.1 -0.1,-0.1 0,-0.2 0.1,-0.1 0.1,-0.2 0,-0.2 C 19,24 18.9,24 18.9,24 c -0.1,0 -0.1,0 -0.1,0.1 -0.1,0 -0.1,0.1 -0.1,0.1 l -0.1,0.1 c 0,0 -0.1,0 -0.1,0.1 l -0.1,0.1 -0.1,0.1 c 0,0.1 -0.1,0.1 -0.1,0.1 L 18.1,24.6 C 18,24.6 18,24.5 18,24.5 c 0,0.1 0,0.2 0.1,0.4 0,0.2 0.1,0.3 0.1,0.5 0.1,0.3 0,0.5 -0.1,0.6 -0.2,0.2 -0.3,0.3 -0.3,0.5 0,0.2 0,0.3 0.1,0.3 0,0.1 0,0.1 -0.1,0.3 -0.4,0.4 -0.4,0.4 -0.5,0.6 0,-0.2 0,-0.1 0,0 z"
       inkscape:connector-curvature="0" />
  </g>
</svg>
