<svg xmlns="http://www.w3.org/2000/svg" viewBox="0 0 32 32">
  <g fill="#375273">
    <circle cx="26.9" cy="6.8" r=".8"/>
    <circle cx="24.9" cy="6.8" r=".8"/>
    <circle cx="22.9" cy="6.8" r=".8"/>
    <path d="M27.3 4.3H4.7c-1.4 0-2.5 1.1-2.5 2.5v17.8c0 1.4 1.1 2.5 2.5 2.5h4.6c-.3-.3-.6-.6-.9-1H4.7c-.8 0-1.5-.7-1.5-1.5V9.2h25.7v15.4c0 .8-.7 1.5-1.5 1.5h-3.7c-.3.4-.6.7-.9 1h4.6c1.4 0 2.5-1.1 2.5-2.5V6.8c-.1-1.4-1.2-2.5-2.6-2.5zm1.5 3.9H3.2V6.8c0-.8.7-1.5 1.5-1.5h22.7c.8 0 1.5.7 1.5 1.5v1.4z"/>
  </g>
  <path fill="#375273" d="M11.4 12.1c1.4-.8 2.9-1.2 4.6-1.2s3.2.4 4.6 1.2c1.4.8 2.5 1.9 3.3 3.3.8 1.4 1.2 2.9 1.2 4.6s-.4 3.2-1.2 4.6c-.8 1.4-1.9 2.5-3.3 3.3-1.4.8-2.9 1.2-4.6 1.2s-3.2-.4-4.6-1.2c-1.4-.6-2.6-1.8-3.4-3.2s-1.2-2.9-1.2-4.6.4-3.2 1.2-4.6 2-2.6 3.4-3.4zm7.9 5.1l-.1.1-.1.1s.1 0 .1-.1.1-.1.1-.1c-.2 0-.1 0 0 0 0-.1.1-.1.2-.2s.3-.1.6-.1c.3-.1.5 0 .6.1 0 0 0-.1.1-.1.1-.1.1-.1.2-.1 0 0 .1-.1.2-.1s.1-.1.2-.1v-.3c-.1 0-.1 0-.2-.1s-.1-.1-.1-.3c0 0 0 .1-.1.1 0-.1 0-.1-.1-.1h-.2c-.1 0-.1-.1-.2-.1-.1-.1-.1-.1-.1-.2s-.1-.1-.1-.2-.1-.1-.1-.1l-.1-.1v-.1s0-.1-.1-.1c0 0 0-.1-.1-.1h.1s-.1 0-.1.1-.1.1-.1.1l-.1.1h-.2l-.1.1-.1.1s-.1 0-.1.1h-.1c.1-.1.1-.1 0-.1s-.1-.1-.2-.1c.1 0 .1-.1.1-.1 0-.1-.1-.1-.1-.2h.1l-.1-.1c-.1-.1-.1-.1-.2-.1s-.1-.1-.1-.1c-.1-.1-.2-.1-.4-.1-.2-.1-.3-.1-.4 0l-.1.1s0 .1.1.2c0 .1.1.1.1.1 0 .1 0 .1-.1.1l-.1.1c0 .1.1.1.2.2.1 0 .2.1.1.2 0 .1-.1.1-.2.2s-.2.1-.2.1c-.1.1-.1.1 0 .2 0 .1.1.1.1.2v.1s0 .1-.1.1l-.1.1s-.1 0-.1.1h-.1c-.1.1-.2 0-.3-.1-.1-.1-.1-.2-.1-.3-.1-.2-.1-.3-.2-.3-.2-.1-.3-.1-.3 0-.1-.1-.2-.2-.5-.3-.2-.1-.4-.1-.7-.1.1 0 .1-.1 0-.2s-.1-.2-.2-.1c0-.1.1-.1.1-.2V15c0-.1.1-.2.1-.3l.1-.1.1-.1v-.1c.3 0 .5 0 .6-.1.1-.1.1-.1.1-.2.1-.1.1-.1.1-.2.1-.1.1-.1.2-.1s.1 0 .2.1.1.1.2.1.2-.1.2-.1c0-.1 0-.2-.1-.3.1 0 .1-.1.1-.2l-.1-.1c-.1 0-.2 0-.3.1-.1 0-.1.1 0 .1l-.1.1-.2.2c-.1.1-.1 0-.2-.1 0 0 0-.1-.1-.1l-.1-.1c-.1 0-.1.1-.2.2 0-.1 0-.1-.1-.2s-.2-.1-.3-.1c0-.1 0-.3-.2-.3-.1 0-.1-.1-.3-.1s-.2 0-.2.1l-.1.1c0 .1 0 .1.1.1s.3-.3.4-.3c.1 0 .1 0 .1.1.1 0 .1 0 .1.1.1 0 .1.1 0 .1 0 0-.1 0-.1.1-.1 0-.1.1-.1.1-.1 0-.1 0-.1.1v.4c-.1-.1-.1-.1-.1-.2s-.1-.1-.1-.2c.1-.1 0-.1-.3-.1h-.6c-.1 0-.1-.1-.1-.1v-.3s0-.1.1 0l-.1-.1-.1-.1c-.3.1-.7.3-1.1.5h.1c.1 0 .1-.1.1-.1l.1-.1c.3-.1.5-.1.5-.1l.1-.1.3.3c-.1 0-.2-.1-.3 0-.1.1-.3.1-.3.1.1.1.1.2.1.2l-.1-.1c-.1-.1-.1-.1-.2-.1-.1.1-.1.1-.2 0h-.3c-1.1.7-2.1 1.5-2.8 2.7l.1.1.1.1v.1s.1 0 .1-.1c.1.1.1.2.1.3 0 0 .2.1.5.3.1.1.3.2.3.3 0 .1 0 .1-.1.2l-.1-.1-.1-.1v.2c0 .1.1.1.1.1-.1 0-.1.1-.1.2v.7c0 .1 0 .2.1.4s.1.3.3.2c-.1 0 0 .2.3.5l.1.1.1.1c.1.2.2.2.2.3l.1.1c0 .1.1.1.1.3.1.1.1.2.2.3 0 .1 0 .1.1.3-.1 0-.1.1-.1.2s.1.1.2.2.1.1.2.1v.1c0 .1 0 .1.1.1 0 0 .1.1.1 0s-.1-.4-.3-.7c-.1-.2-.2-.3-.2-.3 0-.1-.1-.1-.1-.2v-.2s.1 0 .1.1c.1 0 .1 0 .1.1v.3c.1.1.1.1.1.2l.2.2.1.1.2.2c.1.1.1.1 0 .1.1 0 .1.1.3.1.1.1.1.1.2.3-.1.1-.1.2-.1.4 0 .1.1.3.1.3 0 .1.1.1.1.1.1 0 .1.1.1.1.1 0 .1.1.2.1l.1.1c.1 0 .1.1.2.1.1.1.2.1.3.1s.1.1.2.1h.2c.1 0 .1-.1.1-.1.1 0 .3.1.3.2l.3.3c.3.1.5.2.7.1v.1c0 .1.1.1.1.2.1.1.1.1.1.2s.1.1.1.1l.2.2c.1.1.2.1.2.2.1 0 .1-.1.1-.1 0 .1 0 .1.1.3.1.1.1.1.2.1s.2-.1.2-.4c-.3.1-.5.1-.6-.2v-.1c0-.1-.1-.1-.1-.1v-.2s0-.1.1-.1.1 0 .1-.1v-.1c0-.1-.1-.1-.1-.1 0-.1-.1-.1-.1-.3-.1-.1-.1-.1-.1-.2-.1.1-.1.1-.2.1s-.1-.1-.2-.1v.2H16v-.2c0-.1 0-.2.1-.3 0 0 0-.1.1-.1.1-.1.1-.1.1-.2s.1-.1.1-.1c0-.1 0-.1-.1-.1s-.1-.1-.2 0c-.1 0-.3.1-.3.3 0 0 0 .1-.1.1l-.1.1-.1.1h-.3c-.2 0-.2 0-.3-.1l-.3-.3c-.1-.2-.1-.3-.1-.5v-.3c0-.1 0-.2.1-.3 0-.1 0-.1-.1-.3l.1-.1.1-.1h.3s0-.1.1-.1l-.1-.1-.1-.1h.3c.2-.1.3 0 .3 0 .1.1.2.1.3 0v-.2c.1.2.1.3.3.1 0 0 .1.1.2.1s.2.1.2.1l.1.1.1.1h.1l.1-.1c.1.1.1.2.1.3.1.3.1.5.2.5h.1l.1-.1v-1c-.1 0-.2-.1-.2-.1v-.2l.2-.2s.1 0 .1-.1c.1 0 .1-.1.2-.1s.1-.1.1-.1c.2-.1.2-.3.2-.4.1 0 .1-.1.1-.1l-.1-.1-.1-.1h.1c.1-.1.1-.1 0-.2.1 0 .1-.1.1-.1l.1-.1c.1.1.1.1.3 0 .1-.1.1-.1 0-.2.1-.1.1-.1.3-.1.1 0 .2-.1.2-.1h.1v-.1c0-.1 0-.1.1-.1 0-.1.1-.1.2-.1s.1-.1.1-.1l.2-.1v-.1c.1 0 .3 0 .4-.1.1-.1.1-.2-.1-.3 0-.1 0-.1-.1-.1s-.1-.1-.2-.1h.2c.1-.1.1-.2-.1-.2-.1 0-.3 0-.5.2zm-2 10.5c1.7-.3 3-1.1 4.2-2.3l-.1-.1c-.1 0-.1 0-.1-.1-.1-.1-.3-.1-.3-.1v-.2c-.1 0-.1-.1-.1-.1l-.1-.1-.1-.1c-.1 0-.1-.1-.1-.1s-.1 0-.1-.1h-.4s-.1 0-.1.1-.1 0-.1.1c-.2-.1-.3-.2-.4-.3-.1 0-.1 0-.1-.1l-.1-.1h-.1c-.1 0-.1.1-.1.1-.1.1-.1.1-.1.2v.1c-.1-.1-.1-.1 0-.2s.1-.2 0-.2c0-.1-.1-.1-.1-.1-.1 0-.1 0-.1.1-.1 0-.1.1-.1.1l-.1.1s-.1 0-.1.1l-.1.1-.1.1c0 .1-.1.1-.1.1l-.1-.1c-.1 0-.1-.1-.1-.1 0 .1 0 .2.1.4 0 .2.1.3.1.5.1.3 0 .5-.1.6-.2.2-.3.3-.3.5s0 .3.1.3c0 .1 0 .1-.1.3-.4.4-.4.4-.5.6 0-.2 0-.1 0 0z"/>
</svg>
