<?xml version="1.0" encoding="utf-8"?>
<!-- Generator: Adobe Illustrator 18.0.0, SVG Export Plug-In . SVG Version: 6.00 Build 0)  -->
<!DOCTYPE svg PUBLIC "-//W3C//DTD SVG 1.1//EN" "http://www.w3.org/Graphics/SVG/1.1/DTD/svg11.dtd">
<svg version="1.1" id="Layer_1" xmlns="http://www.w3.org/2000/svg" xmlns:xlink="http://www.w3.org/1999/xlink" x="0px" y="0px"
	 viewBox="0 0 32 32" enable-background="new 0 0 32 32" xml:space="preserve">
<g>
	<path fill="#375273" d="M9.1,4.1c2.1-1.2,4.4-1.8,6.9-1.8s4.8,0.6,6.9,1.8c2.1,1.2,3.8,2.9,5,5c1.2,2.1,1.8,4.4,1.8,6.9
		c0,2.5-0.6,4.8-1.8,6.9c-1.2,2.1-2.9,3.8-5,5c-2.1,1.2-4.4,1.8-6.9,1.8s-4.8-0.6-6.9-1.8c-2.1-1.2-3.8-2.9-5-5
		c-1.2-2.1-1.8-4.4-1.8-6.9c0-2.5,0.6-4.8,1.8-6.9C5.3,7,7,5.3,9.1,4.1z M20.9,11.6c0,0-0.1,0.1-0.2,0.2c-0.1,0.1-0.2,0.2-0.2,0.2
		c0,0,0.1,0,0.1-0.1s0.1-0.1,0.1-0.2c0-0.1,0.1-0.1,0.1-0.1c0.1-0.1,0.2-0.2,0.4-0.3c0.2-0.1,0.5-0.1,0.9-0.2c0.4-0.1,0.7,0,0.9,0.2
		c0,0,0-0.1,0.2-0.2c0.1-0.1,0.2-0.2,0.3-0.2c0,0,0.1-0.1,0.3-0.1c0.1,0,0.2-0.1,0.3-0.1l0-0.4c-0.1,0-0.2,0-0.3-0.1
		c-0.1-0.1-0.1-0.2-0.1-0.4c0,0,0,0.1-0.1,0.1c0-0.1,0-0.1-0.1-0.1c-0.1,0-0.1,0-0.2,0c-0.1,0-0.1,0-0.2,0c-0.1,0-0.2-0.1-0.3-0.1
		c-0.1-0.1-0.1-0.2-0.1-0.3c0-0.1-0.1-0.2-0.1-0.3c0-0.1-0.1-0.1-0.2-0.2c-0.1-0.1-0.1-0.1-0.2-0.2c0,0,0-0.1,0-0.1
		c0,0,0-0.1-0.1-0.1c0,0,0-0.1-0.1-0.1c0,0-0.1,0-0.1,0c0,0-0.1,0-0.1,0.1c0,0.1-0.1,0.1-0.1,0.2c0,0.1-0.1,0.1-0.1,0.1
		c0,0-0.1,0-0.1,0c0,0-0.1,0-0.1,0c0,0,0,0-0.1,0.1c0,0-0.1,0.1-0.1,0.1c0,0-0.1,0-0.2,0.1c-0.1,0-0.1,0-0.2,0
		c0.2-0.1,0.2-0.1,0-0.2c-0.1,0-0.2-0.1-0.3-0.1c0.1,0,0.2-0.1,0.1-0.2c0-0.1-0.1-0.2-0.2-0.3h0.1c0,0-0.1-0.1-0.2-0.2
		c-0.1-0.1-0.2-0.1-0.3-0.2c-0.1,0-0.2-0.1-0.2-0.1c-0.1-0.1-0.3-0.1-0.6-0.2c-0.3-0.1-0.5-0.1-0.6,0c-0.1,0.1-0.1,0.1-0.1,0.2
		c0,0.1,0,0.1,0.1,0.3c0,0.1,0.1,0.2,0.1,0.2c0,0.1,0,0.1-0.1,0.2c-0.1,0.1-0.1,0.2-0.1,0.2c0,0.1,0.1,0.2,0.3,0.3
		C19,9,19.1,9.1,19,9.3c0,0.1-0.1,0.2-0.3,0.3c-0.2,0.1-0.3,0.2-0.3,0.2c-0.1,0.1-0.1,0.2,0,0.3c0,0.1,0.1,0.2,0.2,0.3
		c0,0,0,0,0,0.1c0,0,0,0.1-0.1,0.1c0,0-0.1,0.1-0.1,0.1s-0.1,0-0.1,0.1l-0.1,0c-0.1,0.1-0.3,0-0.4-0.1c-0.1-0.1-0.2-0.3-0.2-0.5
		c-0.1-0.3-0.2-0.5-0.3-0.5c-0.3-0.1-0.4-0.1-0.5,0c-0.1-0.2-0.3-0.3-0.7-0.5c-0.3-0.1-0.6-0.1-1-0.1c0.1,0,0.1-0.1,0-0.3
		c-0.1-0.2-0.2-0.3-0.3-0.2c0-0.1,0.1-0.2,0.1-0.3c0-0.1,0-0.2,0-0.2c0-0.2,0.1-0.3,0.2-0.4c0,0,0.1-0.1,0.1-0.2
		c0.1-0.1,0.1-0.2,0.2-0.2c0-0.1,0-0.1,0-0.1c0.4,0,0.7,0,0.9-0.2c0.1-0.1,0.1-0.2,0.2-0.3c0.1-0.1,0.1-0.2,0.2-0.3
		c0.1-0.1,0.2-0.1,0.3-0.1c0.1,0,0.1,0,0.3,0.1c0.1,0.1,0.2,0.1,0.3,0.1c0.2,0,0.3-0.1,0.3-0.2c0-0.1,0-0.3-0.1-0.4
		c0.1,0,0.2-0.1,0.1-0.3c-0.1-0.1-0.1-0.1-0.1-0.2c-0.1,0-0.3,0-0.5,0.1c-0.1,0-0.1,0.1,0,0.1c0,0-0.1,0.1-0.2,0.2
		c-0.1,0.1-0.2,0.2-0.3,0.3c-0.1,0.1-0.2,0-0.3-0.1c0,0,0-0.1-0.1-0.2c-0.1-0.1-0.1-0.2-0.2-0.2c-0.1,0-0.2,0.1-0.3,0.3
		c0-0.1,0-0.2-0.2-0.3c-0.2-0.1-0.3-0.1-0.4-0.1C15.3,5.3,15.3,5.1,15,5c-0.1,0-0.2-0.1-0.4-0.1c-0.2,0-0.3,0-0.3,0.1
		c-0.1,0.1-0.1,0.2-0.1,0.2c0,0.1,0,0.1,0.1,0.1c0.1,0,0.1,0.1,0.2,0.1c0.1,0,0.1,0,0.2,0.1c0.1,0,0.1,0,0.2,0.1
		C15,5.6,15,5.7,14.9,5.8c0,0-0.1,0-0.2,0.1c-0.1,0-0.1,0.1-0.2,0.1c-0.1,0-0.1,0-0.1,0.1c0,0,0,0.1,0,0.3c0,0.1,0,0.2,0,0.3
		c-0.1-0.1-0.1-0.2-0.2-0.3c0-0.1-0.1-0.2-0.1-0.3C14.2,6,14.1,6,13.7,6l-0.2,0c0,0-0.1,0-0.3,0c-0.1,0-0.3,0-0.4,0
		c-0.1,0-0.2-0.1-0.2-0.1c0-0.1,0-0.2,0-0.4c0,0,0-0.1,0.1,0c0,0-0.1-0.1-0.2-0.2c-0.1-0.1-0.1-0.1-0.2-0.2
		c-0.5,0.2-1.1,0.4-1.7,0.7c0.1,0,0.1,0,0.2,0c0.1,0,0.1-0.1,0.2-0.1c0.1-0.1,0.2-0.1,0.2-0.1c0.4-0.2,0.7-0.2,0.8-0.1l0.1-0.1
		c0.2,0.2,0.3,0.3,0.4,0.4c-0.1,0-0.3-0.1-0.5,0c-0.2,0.1-0.4,0.1-0.4,0.2c0.1,0.1,0.1,0.3,0.1,0.3c0,0-0.1-0.1-0.2-0.2
		c-0.1-0.1-0.2-0.1-0.3-0.2C11.1,6,11,6,10.9,5.9c-0.2,0-0.3,0-0.4,0c-1.7,1-3.1,2.3-4.2,4c0.1,0.1,0.2,0.1,0.2,0.1
		c0,0,0.1,0.1,0.1,0.2c0,0.1,0,0.2,0,0.2c0,0,0.1,0,0.2-0.1C7,10.5,7,10.6,6.9,10.7c0,0,0.3,0.1,0.8,0.5c0.2,0.2,0.4,0.3,0.4,0.4
		c0,0.1,0,0.2-0.2,0.3c0,0-0.1-0.1-0.2-0.2c-0.1-0.1-0.1-0.1-0.2-0.1c0,0.1,0,0.2,0,0.3c0,0.2,0.1,0.2,0.2,0.2
		c-0.1,0-0.1,0.1-0.2,0.3c0,0.2,0,0.4,0,0.6c0,0.2,0,0.4,0,0.4l0,0c0,0.1,0,0.3,0.1,0.6c0.1,0.3,0.2,0.4,0.4,0.3
		c-0.2,0,0,0.3,0.4,0.8c0.1,0.1,0.1,0.1,0.1,0.2c0,0,0.1,0.1,0.2,0.1C8.9,15.7,9,15.7,9,15.8c0.1,0.1,0.1,0.1,0.2,0.2
		c0,0.1,0.1,0.2,0.2,0.4c0.1,0.2,0.2,0.3,0.3,0.4c0,0.1,0,0.2,0.2,0.4c0.1,0.2,0.2,0.3,0.2,0.4c0,0,0,0,0,0c0,0,0,0,0,0
		c0,0.1,0.1,0.2,0.3,0.3c0.1,0.1,0.2,0.2,0.3,0.2c0,0,0,0.1,0,0.2c0,0.1,0,0.1,0.1,0.2c0,0,0.1,0.1,0.1,0c0-0.2-0.1-0.6-0.4-1.1
		c-0.2-0.3-0.3-0.5-0.3-0.5c0-0.1-0.1-0.2-0.1-0.3c0-0.1-0.1-0.2-0.1-0.3c0,0,0.1,0,0.1,0c0,0,0.1,0,0.2,0.1c0.1,0,0.1,0,0.1,0.1
		c0,0,0,0,0,0.1c0,0.1,0,0.2,0,0.3c0.1,0.1,0.1,0.2,0.2,0.3c0.1,0.1,0.2,0.2,0.3,0.3c0.1,0.1,0.2,0.2,0.2,0.2
		c0.1,0.1,0.2,0.2,0.3,0.3c0.1,0.2,0.1,0.2,0,0.2c0.1,0,0.2,0.1,0.4,0.2c0.1,0.1,0.2,0.2,0.3,0.4C12,19,12,19.1,12,19.4
		c0,0.2,0.1,0.4,0.1,0.4c0,0.1,0.1,0.2,0.2,0.2s0.2,0.1,0.2,0.2c0.1,0,0.2,0.1,0.3,0.1c0.1,0.1,0.2,0.1,0.2,0.1
		c0.1,0,0.2,0.1,0.3,0.2c0.2,0.1,0.3,0.2,0.4,0.2c0.1,0,0.2,0.1,0.3,0.1s0.2,0,0.3,0c0.1,0,0.2-0.1,0.2-0.1c0.2,0,0.4,0.1,0.5,0.3
		c0.2,0.2,0.3,0.3,0.4,0.4c0.4,0.2,0.8,0.3,1,0.2c0,0,0,0.1,0,0.1c0,0.1,0.1,0.2,0.1,0.3c0.1,0.1,0.1,0.2,0.2,0.3
		c0,0.1,0.1,0.1,0.1,0.2c0.1,0.1,0.2,0.2,0.3,0.3c0.2,0.1,0.3,0.2,0.3,0.3c0.1,0,0.1-0.1,0.1-0.2c0,0.1,0,0.2,0.1,0.4
		c0.1,0.1,0.2,0.2,0.3,0.2c0.2,0,0.3-0.2,0.3-0.6c-0.4,0.2-0.7,0.1-0.9-0.3c0,0,0,0,0-0.1c0-0.1-0.1-0.1-0.1-0.2c0,0,0-0.1,0-0.2
		c0-0.1,0-0.1,0-0.1c0,0,0-0.1,0.1-0.1c0.1,0,0.2,0,0.2-0.1c0,0,0-0.1,0-0.2c0-0.1-0.1-0.2-0.1-0.2c0-0.1-0.1-0.2-0.2-0.4
		c-0.1-0.1-0.2-0.2-0.2-0.3c-0.1,0.1-0.2,0.2-0.3,0.1c-0.1,0-0.2-0.1-0.3-0.2c0,0,0,0,0,0.1c0,0.1,0,0.1,0,0.1c-0.2,0-0.2,0-0.3,0
		c0,0,0-0.1,0-0.3c0-0.2,0-0.3,0.1-0.4c0,0,0-0.1,0.1-0.2c0.1-0.1,0.1-0.2,0.1-0.3c0-0.1,0.1-0.2,0.1-0.2c0-0.1,0-0.1-0.1-0.2
		c-0.1,0-0.2-0.1-0.3,0c-0.2,0-0.4,0.1-0.5,0.4c0,0,0,0.1-0.1,0.2s-0.1,0.2-0.1,0.2s-0.1,0.1-0.2,0.1c-0.1,0-0.2,0-0.4,0
		c-0.2,0-0.3,0-0.4-0.1c-0.2-0.1-0.3-0.3-0.4-0.5c-0.1-0.3-0.2-0.5-0.2-0.7c0-0.1,0-0.3,0-0.5s0-0.3,0.1-0.4c0-0.1,0-0.2-0.1-0.4
		c0,0,0.1-0.1,0.2-0.2c0.1-0.1,0.1-0.2,0.2-0.2c0,0,0.1,0,0.1,0c0,0,0.1,0,0.1,0c0,0,0,0,0.1,0c0,0,0-0.1,0.1-0.1c0,0,0,0-0.1-0.1
		c0,0-0.1-0.1-0.1-0.1c0.1,0,0.3,0,0.5,0c0.3-0.1,0.4,0,0.5,0c0.2,0.1,0.3,0.1,0.4,0c0,0,0-0.1,0-0.2c0-0.1,0-0.2,0-0.2
		c0.1,0.3,0.2,0.4,0.5,0.2c0,0,0.1,0.1,0.3,0.1c0.1,0,0.3,0.1,0.3,0.1c0,0,0.1,0.1,0.1,0.1c0,0,0.1,0.1,0.1,0.1c0,0,0,0,0.1,0
		c0,0,0.1-0.1,0.2-0.1c0.1,0.2,0.2,0.3,0.2,0.4c0.1,0.5,0.2,0.7,0.3,0.8c0.1,0,0.1,0,0.2,0c0,0,0.1-0.1,0.1-0.2c0-0.1,0-0.2,0-0.3
		c0-0.1,0-0.1,0-0.2l0-0.1c0-0.1,0-0.2,0-0.3l0-0.1c-0.2,0-0.3-0.1-0.3-0.2c0-0.1,0-0.2,0-0.3c0.1-0.1,0.1-0.2,0.3-0.3
		c0,0,0.1,0,0.1-0.1c0.1,0,0.2-0.1,0.3-0.1c0.1,0,0.2-0.1,0.2-0.1c0.3-0.2,0.3-0.4,0.3-0.6c0.1,0,0.1-0.1,0.2-0.2c0,0,0,0-0.1-0.1
		c0,0-0.1-0.1-0.1-0.1c0,0-0.1,0-0.1,0c0.1-0.1,0.1-0.2,0-0.3c0.1,0,0.1-0.1,0.1-0.2c0-0.1,0.1-0.2,0.1-0.2c0.1,0.1,0.2,0.2,0.4,0
		c0.1-0.1,0.1-0.2,0-0.3c0.1-0.1,0.2-0.1,0.4-0.2c0.2,0,0.3-0.1,0.3-0.2c0.1,0,0.1,0,0.1,0s0-0.1,0-0.2c0-0.1,0-0.2,0.1-0.2
		c0-0.1,0.1-0.1,0.3-0.2c0.1,0,0.2-0.1,0.2-0.1l0.3-0.2c0,0,0-0.1,0-0.1c0.2,0,0.4,0,0.6-0.2c0.1-0.1,0.1-0.3-0.1-0.4
		c0-0.1,0-0.1-0.1-0.2c-0.1,0-0.2-0.1-0.3-0.1c0,0,0.1,0,0.2,0c0.1,0,0.2,0,0.2,0c0.2-0.1,0.1-0.2-0.1-0.3
		C21.5,11.3,21.2,11.4,20.9,11.6z M18,27.3c2.5-0.4,4.5-1.6,6.3-3.4c0,0-0.1-0.1-0.2-0.1c-0.1,0-0.2,0-0.2-0.1
		c-0.2-0.1-0.4-0.1-0.4-0.1c0-0.1,0-0.2,0-0.2c0-0.1-0.1-0.1-0.1-0.2c-0.1,0-0.1-0.1-0.2-0.1c-0.1-0.1-0.2-0.1-0.2-0.1
		c0,0-0.1-0.1-0.1-0.1c-0.1,0-0.1-0.1-0.1-0.1c0,0-0.1,0-0.1-0.1c-0.1,0-0.1,0-0.2,0c0,0-0.1,0-0.2,0l-0.1,0c0,0-0.1,0-0.1,0
		c0,0-0.1,0-0.1,0.1s-0.1,0-0.1,0.1c0,0,0,0,0,0c-0.3-0.2-0.5-0.3-0.6-0.4c-0.1,0-0.1,0-0.2-0.1c-0.1-0.1-0.1-0.1-0.2-0.1
		c-0.1,0-0.1,0-0.2,0c-0.1,0-0.1,0.1-0.2,0.1c-0.1,0.1-0.1,0.1-0.1,0.3c0,0.1,0,0.2,0,0.2c-0.1-0.1-0.1-0.2,0-0.3
		c0.1-0.1,0.1-0.3,0-0.3c0-0.1-0.1-0.1-0.2-0.1c-0.1,0-0.2,0-0.2,0.1c-0.1,0-0.1,0.1-0.2,0.2c-0.1,0.1-0.1,0.1-0.2,0.1
		c0,0-0.1,0-0.2,0.1c-0.1,0.1-0.1,0.1-0.2,0.1c0,0-0.1,0.1-0.1,0.2c0,0.1-0.1,0.2-0.1,0.2c0,0-0.1-0.1-0.2-0.1
		c-0.1,0-0.2-0.1-0.2-0.1c0,0.1,0,0.3,0.1,0.6c0,0.3,0.1,0.5,0.1,0.7c0.1,0.4,0,0.7-0.2,0.9c-0.3,0.3-0.5,0.5-0.5,0.7
		c0,0.3,0,0.4,0.2,0.5c0,0.1,0,0.2-0.1,0.4c-0.1,0.2-0.1,0.3-0.1,0.4C17.9,27.1,18,27.2,18,27.3z"/>
</g>
</svg>
