<?xml version="1.0" encoding="utf-8"?>
<!-- Generator: Adobe Illustrator 18.0.0, SVG Export Plug-In . SVG Version: 6.00 Build 0)  -->
<!DOCTYPE svg PUBLIC "-//W3C//DTD SVG 1.1//EN" "http://www.w3.org/Graphics/SVG/1.1/DTD/svg11.dtd">
<svg version="1.1" id="Layer_1" xmlns="http://www.w3.org/2000/svg" xmlns:xlink="http://www.w3.org/1999/xlink" x="0px" y="0px"
	 viewBox="984 984 32 32" enable-background="new 984 984 32 32" xml:space="preserve">
<rect x="-43.8" y="-437.5" fill="none" width="2743.8" height="2625"/>
<g>
	<g enable-background="new    ">
		<path fill="#375273" d="M1012.2,993.1c0.2,0.3,0.5,0.6,0.6,1c0.2,0.4,0.3,0.8,0.3,1.2v15.4c0,0.4-0.1,0.7-0.4,0.9
			c-0.3,0.2-0.6,0.4-0.9,0.4h-18c-0.4,0-0.7-0.1-0.9-0.4c-0.2-0.3-0.4-0.6-0.4-0.9v-21.4c0-0.4,0.1-0.7,0.4-0.9
			c0.3-0.2,0.6-0.4,0.9-0.4h12c0.4,0,0.8,0.1,1.2,0.3c0.4,0.2,0.8,0.4,1,0.6L1012.2,993.1z M1011.4,1010.3v-13.7h-5.6
			c-0.4,0-0.7-0.1-0.9-0.4c-0.3-0.2-0.4-0.6-0.4-0.9v-5.6h-10.3v20.6H1011.4z M1006.2,989.8v5h5c-0.1-0.3-0.2-0.4-0.3-0.5l-4.2-4.2
			C1006.7,990,1006.5,989.9,1006.2,989.8z"/>
	</g>
	<g>
		<path fill="#375273" d="M1005.7,1001.4c0,0.3-0.1,0.6-0.3,0.9l-6.1,6.1c-0.2,0.2-0.5,0.3-0.9,0.3c-0.3,0-0.6-0.1-0.8-0.3l-0.7-0.7
			c-0.2-0.2-0.4-0.5-0.4-0.9s0.1-0.6,0.4-0.9l2.8-2.8H988c-0.3,0-0.6-0.1-0.8-0.4c-0.2-0.2-0.3-0.5-0.3-0.9v-1.2
			c0-0.3,0.1-0.6,0.3-0.9c0.2-0.2,0.5-0.4,0.8-0.4h11.6l-2.8-2.8c-0.2-0.2-0.4-0.5-0.4-0.8c0-0.3,0.1-0.6,0.4-0.8l0.7-0.7
			c0.2-0.2,0.5-0.4,0.8-0.4c0.3,0,0.6,0.1,0.9,0.4l6.1,6.1C1005.6,1000.8,1005.7,1001.1,1005.7,1001.4z"/>
	</g>
</g>
</svg>
