<?xml version="1.0" encoding="utf-8"?>
<!-- Generator: Adobe Illustrator 18.0.0, SVG Export Plug-In . SVG Version: 6.00 Build 0)  -->
<!DOCTYPE svg PUBLIC "-//W3C//DTD SVG 1.1//EN" "http://www.w3.org/Graphics/SVG/1.1/DTD/svg11.dtd">
<svg version="1.1" id="Layer_1" xmlns="http://www.w3.org/2000/svg" xmlns:xlink="http://www.w3.org/1999/xlink" x="0px" y="0px"
	 viewBox="0 0 32 32" enable-background="new 0 0 32 32" xml:space="preserve">
<g>
	<path fill="#375273" d="M12.4,17.6c-0.4,0.3-0.7,0.5-1,0.7s-0.5,0.5-0.9,0.8c-0.4,0.3-0.7,0.7-0.9,0.9c-0.2,0.3-0.5,0.6-0.7,1
		c-0.3,0.4-0.5,0.8-0.6,1.2c-0.2,0.4-0.3,0.8-0.4,1.3c-0.1,0.5-0.2,1-0.2,1.4h13.1l-0.6-0.6C20.1,24.3,20,24,20,23.7
		c0-0.2,0.1-0.3,0.2-0.5c0,0,0-0.1,0.1-0.1l0,0l0,0l1.9-1.9l-1.9-1.9C20,19.1,20,18.8,20,18.6c0-0.2,0.1-0.3,0.2-0.5
		c0,0,0-0.1,0.1-0.1l0,0l0,0l0.2-0.2c-0.1,0-0.1-0.1-0.2-0.1c-0.4-0.3-0.7-0.5-0.9-0.6s-0.5-0.3-0.9-0.6c0.4-0.3,0.7-0.4,0.9-0.6
		c0.2-0.1,0.5-0.3,0.9-0.6c0.4-0.3,0.7-0.5,1-0.7c0.2-0.2,0.5-0.5,0.9-0.8c0.4-0.3,0.7-0.7,0.9-0.9c0.2-0.3,0.5-0.6,0.7-1
		c0.3-0.4,0.5-0.8,0.6-1.2s0.3-0.8,0.4-1.3c0.1-0.5,0.2-1,0.2-1.4H7.7c0,0.5,0.1,1,0.2,1.4c0.1,0.5,0.3,0.9,0.4,1.3s0.4,0.8,0.6,1.2
		s0.5,0.7,0.7,1c0.2,0.3,0.5,0.6,0.9,0.9c0.4,0.3,0.7,0.6,0.9,0.8c0.2,0.2,0.6,0.5,1,0.7c0.4,0.3,0.7,0.5,0.9,0.6
		c0.2,0.1,0.5,0.3,0.9,0.6c-0.4,0.3-0.7,0.4-0.9,0.6S12.8,17.3,12.4,17.6z"/>
	<path fill="#375273" d="M23,25h2c0-0.4-0.1-0.8-0.2-1.2l-0.3-0.3L23,25z"/>
	<path fill="#375273" d="M26.3,25.9H6.4c-0.1,0-0.2,0-0.3,0.1C6,26.1,6,26.2,6,26.3V28c0,0.1,0,0.2,0.1,0.3c0.1,0.1,0.2,0.1,0.3,0.1
		h19.9c0.1,0,0.2,0,0.3-0.1c0.1-0.1,0.1-0.2,0.1-0.3v-1.7c0-0.1,0-0.2-0.1-0.3C26.5,25.9,26.4,25.9,26.3,25.9z"/>
	<path fill="#375273" d="M6.4,6.8h19.9c0.1,0,0.2,0,0.3-0.1s0.1-0.2,0.1-0.3V4.7c0-0.1,0-0.2-0.1-0.3s-0.2-0.1-0.3-0.1H6.4
		c-0.1,0-0.2,0-0.3,0.1S6,4.5,6,4.7v1.7c0,0.1,0,0.2,0.1,0.3S6.3,6.8,6.4,6.8z"/>
</g>
<g>
	<g>
		<path fill="none" d="M28.6,19.2L28.6,19.2c0.1-0.2,0.2-0.3,0.2-0.5c0,0,0,0,0,0C28.8,18.8,28.7,19,28.6,19.2L28.6,19.2z"/>
	</g>
	<g>
		<path fill="#733737" d="M26.4,17L26.4,17C26.4,17,26.5,17,26.4,17C26.5,17,26.4,17,26.4,17z"/>
	</g>
	<g>
		<path fill="#733737" d="M26.4,21.3l2.2-2.1l0,0c0.1-0.2,0.2-0.4,0.2-0.5c0-0.2-0.1-0.4-0.2-0.4l-1-1c-0.2-0.1-0.3-0.2-0.5-0.2
			s-0.4,0-0.5,0.2l-2.1,2.1l-2.2-2.1c-0.2-0.1-0.3-0.2-0.5-0.2s-0.4,0.1-0.5,0.2l-1,0.9c-0.1,0.2-0.2,0.3-0.2,0.5
			c0,0.2,0,0.4,0.2,0.5l2.1,2.1l-2.1,2.1c-0.1,0.2-0.2,0.3-0.2,0.5s0.1,0.4,0.2,0.5l1,1c0.2,0.1,0.3,0.2,0.5,0.2
			c0.2,0,0.4-0.1,0.5-0.2l2.2-2.1l2,2.2c0.2,0.1,0.3,0.2,0.5,0.2s0.4-0.1,0.5-0.2l1-1c0.1-0.2,0.2-0.3,0.2-0.5
			c0-0.2-0.1-0.4-0.2-0.5L26.4,21.3z"/>
	</g>
</g>
<g>
	<path fill="#FFFFFF" d="M28.8,18.6C28.8,18.7,28.8,18.7,28.8,18.6c0,0.2-0.1,0.3-0.2,0.5C28.7,19,28.8,18.8,28.8,18.6"/>
</g>
<g>
	<path fill="#733737" d="M26.4,17L26.4,17C26.4,17,26.5,17,26.4,17C26.5,17,26.4,17,26.4,17z"/>
	<path fill="#FFFFFF" d="M26.5,17C26.5,17,26.4,17,26.5,17C26.4,17,26.5,17,26.5,17"/>
</g>
</svg>
