<?xml version="1.0" encoding="utf-8"?>
<!-- Generator: Adobe Illustrator 18.0.0, SVG Export Plug-In . SVG Version: 6.00 Build 0)  -->
<!DOCTYPE svg PUBLIC "-//W3C//DTD SVG 1.1//EN" "http://www.w3.org/Graphics/SVG/1.1/DTD/svg11.dtd">
<svg version="1.1" id="Layer_1" xmlns="http://www.w3.org/2000/svg" xmlns:xlink="http://www.w3.org/1999/xlink" x="0px" y="0px"
	 viewBox="984 984 32 32" enable-background="new 984 984 32 32" xml:space="preserve">
<rect x="-43.8" y="-437.5" fill="none" width="2743.8" height="2625"/>
<g enable-background="new    ">
	<path fill="#375273" d="M1012.3,993.2c1.3,2.2,1.9,4.6,1.9,7.2c0,2.6-0.6,5-1.9,7.2c-1.3,2.2-3,3.9-5.2,5.2
		c-2.2,1.3-4.6,1.9-7.2,1.9s-5-0.6-7.2-1.9c-2.2-1.3-3.9-3-5.2-5.2c-1.3-2.2-1.9-4.6-1.9-7.2c0-2.6,0.6-5,1.9-7.2s3-3.9,5.2-5.2
		s4.6-1.9,7.2-1.9s5,0.6,7.2,1.9S1011.1,991,1012.3,993.2z M1004.8,1009.3v-3c0-0.2-0.1-0.3-0.2-0.4s-0.3-0.2-0.4-0.2h-1.8v-9.5
		c0-0.2-0.1-0.3-0.2-0.4c-0.1-0.1-0.3-0.2-0.4-0.2h-5.9c-0.2,0-0.3,0.1-0.4,0.2c-0.1,0.1-0.2,0.3-0.2,0.4v3c0,0.2,0.1,0.3,0.2,0.4
		c0.1,0.1,0.3,0.2,0.4,0.2h1.8v5.9h-1.8c-0.2,0-0.3,0.1-0.4,0.2c-0.1,0.1-0.2,0.3-0.2,0.4v3c0,0.2,0.1,0.3,0.2,0.4
		c0.1,0.1,0.3,0.2,0.4,0.2h8.3c0.2,0,0.3-0.1,0.4-0.2S1004.8,1009.5,1004.8,1009.3z M1002.4,992.7v-3c0-0.2-0.1-0.3-0.2-0.4
		c-0.1-0.1-0.3-0.2-0.4-0.2h-3.6c-0.2,0-0.3,0.1-0.4,0.2c-0.1,0.1-0.2,0.3-0.2,0.4v3c0,0.2,0.1,0.3,0.2,0.4c0.1,0.1,0.3,0.2,0.4,0.2
		h3.6c0.2,0,0.3-0.1,0.4-0.2C1002.3,993,1002.4,992.8,1002.4,992.7z"/>
</g>
</svg>
