<?xml version="1.0" encoding="utf-8"?>
<!-- Generator: Adobe Illustrator 18.0.0, SVG Export Plug-In . SVG Version: 6.00 Build 0)  -->
<!DOCTYPE svg PUBLIC "-//W3C//DTD SVG 1.1//EN" "http://www.w3.org/Graphics/SVG/1.1/DTD/svg11.dtd">
<svg version="1.1" id="Layer_1" xmlns="http://www.w3.org/2000/svg" xmlns:xlink="http://www.w3.org/1999/xlink" x="0px" y="0px"
	 viewBox="0 0 32 32" enable-background="new 0 0 32 32" xml:space="preserve">
<g>
	<g>
		<path fill="#375273" d="M8.8,3.9H8.3c-1.1,0-2,0.9-2,2v20.3c0,1.1,0.9,2,2,2h0.5V3.9z"/>
	</g>
	<g>
		<path fill="#375273" d="M23.7,3.9H9.8v24.3h13.9c1.1,0,2-0.9,2-2V5.9C25.7,4.8,24.8,3.9,23.7,3.9z M19.2,22.8c0,0.1,0,0.2-0.1,0.3
			c-0.1,0.1-0.2,0.1-0.3,0.1H16c-0.1,0-0.2,0-0.3-0.1c-0.1-0.1-0.1-0.2-0.1-0.3v-2.7c0-0.1,0-0.2,0.1-0.3c0.1-0.1,0.2-0.1,0.3-0.1
			h2.7c0.1,0,0.2,0,0.3,0.1c0.1,0.1,0.1,0.2,0.1,0.3V22.8z M22.6,14.4c-0.1,0.4-0.2,0.6-0.4,0.9c-0.1,0.2-0.4,0.4-0.6,0.7
			c-0.3,0.2-0.5,0.4-0.7,0.5c-0.2,0.1-0.4,0.2-0.7,0.4c-0.3,0.2-0.6,0.4-0.8,0.7c-0.2,0.3-0.3,0.6-0.3,0.8c0,0.1,0,0.3-0.1,0.4
			c-0.1,0.1-0.2,0.2-0.3,0.2h-2.7c-0.1,0-0.2-0.1-0.3-0.2c-0.1-0.1-0.1-0.3-0.1-0.4v-0.5c0-0.6,0.2-1.2,0.7-1.8c0.5-0.6,1-1,1.6-1.2
			c0.4-0.2,0.8-0.4,1-0.6c0.2-0.2,0.3-0.5,0.3-0.9c0-0.3-0.2-0.6-0.5-0.8c-0.4-0.2-0.8-0.4-1.2-0.4c-0.5,0-0.9,0.1-1.2,0.3
			c-0.3,0.2-0.7,0.6-1.2,1.3c-0.1,0.1-0.2,0.2-0.4,0.2c-0.1,0-0.2,0-0.3-0.1l-1.9-1.4c-0.1-0.1-0.2-0.2-0.2-0.3c0-0.1,0-0.2,0.1-0.3
			c1.2-2,3-3,5.2-3c0.6,0,1.2,0.1,1.8,0.4c0.6,0.2,1.2,0.5,1.7,0.9c0.5,0.4,0.9,0.9,1.2,1.4c0.3,0.6,0.5,1.2,0.5,1.8
			C22.7,13.7,22.7,14.1,22.6,14.4z"/>
	</g>
</g>
</svg>
