<?xml version="1.0" encoding="utf-8"?>
<!-- Generator: Adobe Illustrator 18.0.0, SVG Export Plug-In . SVG Version: 6.00 Build 0)  -->
<!DOCTYPE svg PUBLIC "-//W3C//DTD SVG 1.1//EN" "http://www.w3.org/Graphics/SVG/1.1/DTD/svg11.dtd">
<svg version="1.1" id="Layer_1" xmlns="http://www.w3.org/2000/svg" xmlns:xlink="http://www.w3.org/1999/xlink" x="0px" y="0px"
	 viewBox="0 0 32 32" enable-background="new 0 0 32 32" xml:space="preserve">
<g>
	<path fill="#375273" d="M28.3,11.9v14.9c0,0.4-0.1,0.8-0.4,1.1c-0.3,0.3-0.7,0.4-1.1,0.4H5.2c-0.4,0-0.8-0.1-1.1-0.4
		c-0.3-0.3-0.4-0.7-0.4-1.1V5.2c0-0.4,0.1-0.8,0.4-1.1c0.3-0.3,0.7-0.4,1.1-0.4h14.9c0.4,0,0.9,0.1,1.4,0.3c0.5,0.2,0.9,0.5,1.2,0.8
		l4.5,4.5c0.3,0.3,0.6,0.7,0.8,1.2C28.2,11,28.3,11.5,28.3,11.9z M24.2,26.2h2.1V11.9c0-0.1-0.1-0.4-0.2-0.6
		c-0.1-0.3-0.2-0.4-0.3-0.6l-4.5-4.5C21.2,6.1,21,6,20.7,5.9c-0.3-0.1-0.5-0.2-0.6-0.2v6.7c0,0.4-0.1,0.8-0.4,1.1
		C19.4,13.8,19,14,18.6,14H9.3c-0.4,0-0.8-0.1-1.1-0.4c-0.3-0.3-0.4-0.7-0.4-1.1V5.8h-2v20.5h2v-6.7c0-0.4,0.1-0.8,0.4-1.1
		C8.5,18.2,8.9,18,9.3,18h13.3c0.4,0,0.8,0.1,1.1,0.4c0.3,0.3,0.4,0.7,0.4,1.1V26.2z M9.8,26.2h12.3v-6.1H9.8V26.2z M18,11.4V6.3
		C18,6.1,18,6,17.9,5.9c-0.1-0.1-0.2-0.2-0.4-0.2h-3.1c-0.1,0-0.3,0.1-0.4,0.2C14,6,14,6.1,14,6.3v5.1c0,0.1,0.1,0.3,0.2,0.4
		c0.1,0.1,0.2,0.2,0.4,0.2h3.1c0.1,0,0.3-0.1,0.4-0.2C18,11.6,18,11.5,18,11.4z"/>
</g>
</svg>
