<svg height="32" viewBox="0 0 32 32" width="32" xmlns="http://www.w3.org/2000/svg"><path d="m75.781207 90.278883-11.787222-23.290407c-.835473-1.651301-3.061095-1.651301-3.897259 0l-11.78653 23.290407a2.2131731 2.3547963 0 0 0 1.945517 3.471117h23.576518a2.2131731 2.3547963 0 0 0 1.948976-3.471117zm-13.735506-.134665a1.3832332 1.4717477 0 1 1 1.383234-1.471748 1.3832332 1.4717477 0 0 1 -1.383234 1.471748zm1.502192-14.802102-.396988 8.977661a1.1065866 1.1773982 0 0 1 -2.213173 0l-.396988-8.973982a1.5028829 1.5990539 0 0 1 1.486975-1.669698h.01452a1.5035745 1.5997897 0 0 1 1.502883 1.670434z" fill="#ff8c00" stroke-width=".07134" transform="translate(-46.045701 -63.75)"/></svg>