<svg height="32" viewBox="0 0 32 32" width="32" xmlns="http://www.w3.org/2000/svg"><path d="m9.0382512 3.8461542c2.1420758-1.23077 4.4371588-1.8461544 7.0382508-1.8461544 2.601094 0 4.896175.6153844 7.038252 1.8461544 2.142076 1.230768 3.825137 2.923077 5.049181 5.076922 1.224043 2.1538458 1.836065 4.4615388 1.836065 7.0769238s-.612022 4.923076-1.836065 7.076922c-1.224044 2.153847-2.907105 3.846154-5.049181 5.076923-2.142077 1.23077-4.437158 1.846155-7.038252 1.846155-2.601092 0-4.896175-.615385-7.0382508-1.846155-2.142076-.923076-3.9781418-2.76923-5.2021858-4.923076-1.2240437-2.153847-1.8360655-4.461539-1.8360655-7.076923 0-2.615385.6120218-4.923077 1.8360655-7.0769238 1.224044-2.153846 3.0601098-4 5.2021858-5.230768zm12.0874308 7.8461528-.153005.153847-.153006.153846s.153006 0 .153006-.153846c0-.153847.153005-.153847.153005-.153847-.306011 0-.153005 0 0 0 0-.153846.153006-.153846.306011-.307692.153007-.153846.459018-.153846.918034-.153846.459016-.153847.765027 0 .918033.153846 0 0 0-.153846.153005-.153846.153006-.153847.153006-.153847.306011-.153847 0 0 .153005-.153846.306011-.153846.153005 0 .153005-.153845.306011-.153845v-.461539c-.153006 0-.153006 0-.306011-.153846-.153006-.153846-.153006-.153846-.153006-.4615388 0 0 0 .153847-.153005.153847 0-.153847 0-.153847-.153005-.153847h-.306011c-.153006 0-.153006-.153846-.306011-.153846-.153006-.153846-.153006-.153846-.153006-.307692 0-.153847-.153005-.153847-.153005-.307693 0-.153845-.153005-.153845-.153005-.153845l-.153006-.153846v-.153846s0-.153847-.153005-.153847c0 0 0-.153846-.153006-.153846h.153006s-.153006 0-.153006.153846c0 .153847-.153005.153847-.153005.153847l-.153006.153846h-.306012l-.153005.153846-.153006.153845s-.153005 0-.153005.153846h-.153006c.153006-.153846.153006-.153846 0-.153846-.153005 0-.153005-.153845-.30601-.153845.153005 0 .153005-.153846.153005-.153846 0-.153846-.153005-.153846-.153005-.307693h.153005l-.153005-.153846c-.153006-.153846-.153006-.153846-.306011-.153846-.153006 0-.153006-.153846-.153006-.153846-.153005-.153847-.306011-.153847-.612021-.153847-.306011-.153846-.459017-.153846-.612022 0l-.153005.153847s0 .153846.153005.307692c0 .153846.153005.153846.153005.153846 0 .153847 0 .153847-.153005.153847l-.153005.153846c0 .153846.153005.153846.30601.307691.153006 0 .306011.153846.153006.307693 0 .153846-.153006.153846-.306011.307692s-.306011.153846-.306011.153846c-.153005.153847-.153005.153847 0 .3076928 0 .153846.153006.153846.153006.307692v.153847s0 .153846-.153006.153846l-.153005.153846s-.153006 0-.153006.153845h-.153005c-.153006.153846-.306011 0-.459016-.153845-.153006-.153846-.153006-.307692-.153006-.461539-.153005-.307692-.153005-.4615378-.306011-.4615378-.306011-.153847-.459016-.153847-.459016 0-.153005-.153847-.306012-.307693-.765029-.461539-.30601-.153846-.612021-.153846-1.071037-.153846.153005 0 .153005-.153847 0-.307693-.153006-.153845-.153006-.307691-.306011-.153845 0-.153846.153005-.153846.153005-.307692v-.153847c0-.153846.153006-.307692.153006-.461538l.153005-.153847.153005-.153846v-.153846c.459017 0 .765027 0 .918033-.153846.153005-.153847.153005-.153847.153005-.307693.153006-.153845.153006-.153845.153006-.307691.153007-.153846.153007-.153846.306012-.153846s.153005 0 .306011.153846c.153005.153846.153005.153846.306011.153846.153005 0 .306011-.153846.306011-.153846 0-.153846 0-.307693-.153006-.461539.153006 0 .153006-.153846.153006-.307692l-.153006-.153847c-.153005 0-.306011 0-.459016.153847-.153006 0-.153006.153846 0 .153846l-.153006.153846-.30601.307693c-.153007.153846-.153007 0-.306013-.153847 0 0 0-.153846-.153005-.153846l-.153006-.153846c-.153005 0-.153005.153846-.30601.307692 0-.153846 0-.153846-.153006-.307692-.153005-.153846-.306011-.153846-.459016-.153846 0-.153847 0-.461539-.306011-.461539-.153005 0-.153005-.153845-.459016-.153845s-.306011 0-.306011.153845l-.153005.153846c0 .153846 0 .153846.153005.153846s.459016-.461537.612022-.461537c.153005 0 .153005 0 .153005.153845.153006 0 .153006 0 .153006.153846.153005 0 .153005.153846 0 .153846 0 0-.153006 0-.153006.153847-.153005 0-.153005.153846-.153005.153846-.153006 0-.153006 0-.153006.153846v.615385c-.153005-.153846-.153005-.153846-.153005-.307692 0-.153847-.153006-.153847-.153006-.307693.153006-.153846 0-.153846-.459016-.153846h-.918032c-.153006 0-.153006-.153846-.153006-.153846v-.461539s0-.153845.153006 0l-.153006-.153845-.153005-.153848c-.459016.153848-1.071038.461539-1.683061.769232h.153005c.153005 0 .153005-.153847.153005-.153847l.153006-.153846c.459018-.153846.765029-.153846.765029-.153846l.153005-.153845.459016.461537c-.153005 0-.306011-.153846-.459016 0-.153005.153847-.459016.153847-.459016.153847.153005.153846.153005.307692.153005.307692l-.153005-.153846c-.153006-.153846-.153006-.153846-.306011-.153846-.153007.153846-.153007.153846-.306013 0h-.459016c-1.6830589 1.076922-3.2131139 2.307692-4.2841519 4.1538458l.153005.153846.153006.153846v.153847s.153005 0 .153005-.153847c.153006.153847.153006.307693.153006.461539 0 0 .306011.153845.765027.461538.153006.153846.459016.307692.459016.461538 0 .153847 0 .153847-.153005.307693l-.1530049-.153846-.1530061-.153847v.307693c0 .153846.153006.153846.153006.153846-.153006 0-.153006.153846-.153006.307693v1.076922c0 .153846 0 .307693.153006.615385.153005.307691.153005.461539.459016.307691-.1530059 0 0 .307693.459016.769232l.153006.153846.153005.153846c.153005.307693.306011.307693.306011.461539l.153005.153846c0 .153846.153006.153846.153006.461539.153005.153845.153005.307691.306011.461537 0 .153847 0 .153847.1530049.461539-.1530049 0-.1530049.153846-.1530049.307693 0 .153846.1530049.153846.3060099.307692.153006.153846.153006.153846.306011.153846v.153845c0 .153848 0 .153848.153006.153848 0 0 .153005.153845.153005 0 0-.153848-.153005-.615385-.459016-1.076924-.153006-.307692-.306011-.461539-.306011-.461539 0-.153846-.1530049-.153846-.1530049-.307692v-.307693s.1530049 0 .1530049.153848c.153005 0 .153005 0 .153005.153845v.461539c.153006.153846.153006.153846.153006.307692l.306011.307693.153005.153846.306011.307692c.153005.153845.153005.153845 0 .153845.153005 0 .153005.153848.459018.153848.153005.153845.153005.153845.306011.461537-.153006.153847-.153006.307693-.153006.615385 0 .153847.153006.461539.153006.461539 0 .153845.153005.153845.153005.153845.153005 0 .153005.153846.153005.153846.153006 0 .153006.153848.306011.153848l.153006.153845c.153005 0 .153005.153846.30601.153846.153006.153846.306011.153846.459017.153846.153005 0 .153005.153847.306011.153847h.30601c.153006 0 .153006-.153847.153006-.153847.153005 0 .459016.153847.459016.307693l.459016.461539c.459017.153846.765027.307692 1.071038.153846v.153846c0 .153845.153006.153845.153006.307691.153007.153847.153007.153847.153007.307693s.153005.153846.153005.153846l.306011.307693c.153005.153846.306011.153846.306011.307692.153005 0 .153005-.153846.153005-.153846 0 .153846 0 .153846.153006.461539.153005.153846.153005.153846.30601.153846.153006 0 .306011-.153846.306011-.615385-.459016.153846-.765027.153846-.918032-.307693v-.153846c0-.153846-.153006-.153846-.153006-.153846v-.307693s0-.153846.153006-.153846c.153005 0 .153005 0 .153005-.153845v-.153846c0-.153846-.153005-.153846-.153005-.153846 0-.153847-.153006-.153847-.153006-.461539-.153005-.153846-.153005-.153846-.153005-.307693-.153006.153847-.153006.153847-.306011.153847s-.153005-.153847-.306012-.153847v.307693h-.306011v-.307693c0-.153846 0-.307692.153005-.461537 0 0 0-.153848.153006-.153848.153007-.153846.153007-.153846.153007-.307691 0-.153846.153005-.153846.153005-.153846 0-.153846 0-.153846-.153005-.153846-.153007 0-.153007-.153847-.306013 0-.153005 0-.459016.153846-.459016.461537 0 0 0 .153846-.153005.153846l-.153006.153848-.153005.153845h-.459016c-.306011 0-.306011 0-.459017-.153845l-.459016-.461539c-.153005-.307692-.153005-.461539-.153005-.769231v-.461539c0-.153846 0-.307691.153005-.461539 0-.153845 0-.153845-.153005-.461537l.153005-.153846.153005-.153847h.459017s0-.153846.153005-.153846l-.153005-.153846-.153006-.153846h.459017c.30601-.153847.459016 0 .459016 0 .153005.153846.306011.153846.459016 0v-.307693c.153005.307693.153005.461539.459016.153846 0 0 .153006.153847.306013.153847.153005 0 .30601.153846.30601.153846l.153006.153846.153005.153846h.153006l.153005-.153846c.153006.153846.153006.307693.153006.461539.153005.461537.153005.76923.30601.76923h.153006l.153005-.153845v-1.538463c-.153005 0-.306011-.153846-.306011-.153846v-.307691l.306011-.307693s.153006 0 .153006-.153846c.153005 0 .153005-.153846.306011-.153846.153005 0 .153005-.153846.153005-.153846.306011-.153847.306011-.461539.306011-.615385.153005 0 .153005-.153847.153005-.153847l-.153005-.153846-.153006-.153846h.153006c.153005-.153845.153005-.153845 0-.307693.153005 0 .153005-.153845.153005-.153845l.153006-.153846c.153005.153846.153005.153846.459016 0 .153005-.153846.153005-.153846 0-.307692.153005-.153847.153005-.153847.459016-.153847.153006 0 .306011-.153846.306011-.153846h.153005v-.153846c0-.153846 0-.153846.153006-.153846 0-.153847.153005-.153847.306011-.153847.153005 0 .153005-.153846.153005-.153846l.306012-.153846v-.153845c.153006 0 .459017 0 .612022-.153846.153006-.153847.153006-.307693-.153005-.461539 0-.153846 0-.153846-.153006-.153846-.153005 0-.153005-.153847-.306011-.153847h.306011c.153006-.153846.153006-.307692-.153005-.307692-.153006 0-.459018 0-.765029.307692zm-3.060108 16.153847c2.601092-.461539 4.590164-1.692308 6.426229-3.538463l-.153005-.153845c-.153006 0-.153006 0-.153006-.153846-.153005-.153846-.459016-.153846-.459016-.153846v-.307693c-.153005 0-.153005-.153846-.153005-.153846l-.153006-.153846-.153005-.153847c-.153006 0-.153006-.153846-.153006-.153846s-.153005 0-.153005-.153846h-.612022s-.153005 0-.153005.153846-.153006 0-.153006.153846c-.306011-.153846-.459016-.307692-.612023-.461538-.153005 0-.153005 0-.153005-.153847l-.153006-.153846h-.153005c-.153006 0-.153006.153846-.153006.153846-.153005.153847-.153005.153847-.153005.307693v.153846c-.153005-.153846-.153005-.153846 0-.307692.153005-.153847.153005-.307693 0-.307693 0-.153845-.153005-.153845-.153005-.153845-.153006 0-.153006 0-.153006.153845-.153005 0-.153005.153846-.153005.153846l-.153006.153847s-.153005 0-.153005.153846l-.153006.153846-.153005.153846c0 .153847-.153005.153847-.153005.153847l-.153006-.153847c-.153005 0-.153005-.153846-.153005-.153846 0 .153846 0 .307693.153005.615385 0 .307693.153006.461539.153006.76923.153005.461539 0 .769231-.153006.923078-.306011.307692-.459016.461538-.459016.769231 0 .307691 0 .461537.153005.461537 0 .153847 0 .153847-.153005.461539-.612022.615385-.612022.615385-.765027.923078 0-.307693 0-.153847 0 0z" fill="#f00" stroke-width="1.53426"/></svg>