<svg height="32" viewBox="0 0 32 32" width="32" xmlns="http://www.w3.org/2000/svg"><path d="m16.255859 3c-.144224-.0000003-.282592.057984-.384765.1601562l-1.228516 1.2265626 2.970703 2.96875 1.226563-1.2246094c.212775-.212841.210787-.5586436-.002-.7714844l-2.195266-2.1972656c-.102239-.1021729-.242527-.1621094-.386719-.1621094zm-1.998047 1.7714844-.423828.4277344 2.96875 2.96875.425782-.4277344zm-.808593.8125-.427735.4257812 2.96875 2.96875.427735-.4257812zm-.8125.8105468-8.3652346 8.3652348c-.059597.05966-.1057911.133198-.1328125.21289l-1.109375 3.308594c-.065414.196374-.013634.410227.1328125.556641.1036758.103905.2426327.162103.3847656.162109.057969-.000033.1169103-.0082.1738281-.02734l3.3066407-1.111328c.080248-.02712.1533907-.07123.2128906-.130859l8.3652346-8.3652386z" fill="#1e90ff" transform="matrix(1.7503248 0 0 1.75 -3.253429 -3.25)"/></svg>