<svg height="32" viewBox="0 0 32 32" width="32" xmlns="http://www.w3.org/2000/svg"><path d="m13.821754 2.0070454c-1.223051.0386728-2.417448.2497807-3.582594.6322914-1.5537272.5097986-2.9127059 1.2424119-4.078767 2.2010423-1.1660609.9586304-2.1188814 2.1263916-2.860236 3.5032132-.7415786 1.377014-1.1652204 2.8435187-1.2732416 4.3952597-.1079651 1.55176.1087123 3.052265.6530398 4.508059.5441967 1.455357 1.3298579 2.728671 2.353136 3.821065 1.0232594 1.092585 2.2698086 1.988237 3.7394608 2.682947 1.469877.694728 3.031618 1.091605 4.688024 1.192802 2.548669.155741 4.906979-.37719 7.073959-1.596102l5.570908 5.933266c.388207.437825.895401.676073 1.521318.714308.602252.03675 1.136792-.137366 1.605226-.522922.468863-.385258.723216-.861005.762499-1.425206.04016-.574773-.138972-1.076241-.539938-1.503813l-5.570908-5.946931c1.571528-1.854596 2.438686-3.976631 2.604855-6.363898.107966-1.551759-.108712-3.056078-.653021-4.5114706-.544178-1.4555672-1.326216-2.7286722-2.349494-3.8210651-1.023278-1.0923928-2.269789-1.9850171-3.73946-2.679535-1.470083-.6947455-3.035259-1.0950177-4.691665-1.1962144-.414096-.0253736-.825429-.0299234-1.233101-.0174991zm.944883 4.1867766c2.142847.1308926 3.924158.9545008 5.348364 2.4744642 1.423983 1.5199638 2.066021 3.2832508 1.926282 5.2907188-.139719 2.007661-1.018888 3.679848-2.641354 5.013868-1.622671 1.334019-3.508083 1.935529-5.651154 1.804585-2.142847-.130893-3.9243472-.957932-5.3483479-2.477877-1.4239819-1.520157-2.0660383-3.28304-1.9262813-5.290718.1397196-2.007469 1.0225495-3.6766296 2.6449968-5.0104561 1.6224484-1.3340366 3.5046464-1.9355124 5.6474944-1.8045849z" fill="#1e90ff"/></svg>