<svg height="32" viewBox="0 0 32 32" width="32" xmlns="http://www.w3.org/2000/svg"><g fill="none" stroke="#ff8c00" stroke-linecap="round" stroke-linejoin="round" stroke-width="49.3599" transform="matrix(.06922604 0 0 .06817697 -1.721831 -1.453304)"><path d="m400 304 48 48-48 48m0-288 48 48-48 48m-336 144h85.19a80 80 0 0 0 66.56-35.62l40.25-60.38"/><path d="m64 160h85.19a80 80 0 0 1 66.56 35.62l80.5 120.76a80 80 0 0 0 66.56 35.62h53.19m0-192h-53.19a80 80 0 0 0 -66.56 35.62l-8.25 12.38"/></g></svg>