<svg height="32" viewBox="0 0 32 32" width="32" xmlns="http://www.w3.org/2000/svg"><path d="m2.7773438 2c-.4308891 0-.7773438.4460001-.7773438 1v3.921875 2.078125 20.078125c0 .5114.3190539.921875.7167969.921875h26.5664061c.397743 0 .716797-.410474.716797-.921875v-22.15625c0-.5113999-.319054-.921875-.716797-.921875h-12.726562c-.886457.034-1.316068-.264328-1.707032-.7363281l-1.849609-2.4199219c-.261411-.4404-.457783-.84375-.888672-.84375zm11.8886722 8h2.667968c.246245 0 .44336.199065.44336.445312v5.777344h5.777344c.246223 0 .445312.197136.445312.44336v2.667968c0 .246224-.199091.44336-.445312.44336h-5.777344v5.777344c0 .246243-.197111.445312-.44336.445312h-2.667968c-.246244 0-.44336-.199064-.44336-.445312v-5.777344h-5.7773435c-.24622 0-.4453125-.197137-.4453125-.44336v-2.667968c0-.246227.1990915-.44336.4453125-.44336h5.7773435v-5.777344c0-.246244.197112-.445312.44336-.445312z" fill="#1e90ff"/></svg>