<svg height="32" viewBox="0 0 32 32" width="32" xmlns="http://www.w3.org/2000/svg"><path d="m22.476129 9.072258c-1.76479-1.652452-4.055032-2.558274-6.48471-2.556129-4.372629.0038-8.147548 3.001984-9.189814 7.160887-.07587.30275-.345597.516532-.657718.516532h-3.2348467c-.4232742 0-.7448226-.384266-.6665242-.800258 1.2214436-6.48629 6.9162819-11.39329 13.7574839-11.39329 3.751097 0 7.157556 1.4754194 9.671008 3.877379l2.016169-2.0161693c.853492-.853492 2.312823-.2490081 2.312823.9580403v7.567847c0 .748266-.606573 1.354838-1.354839 1.354838h-7.567846c-1.207049 0-1.811533-1.45933-.958041-2.312879zm-19.1212903 9.185807h7.5678463c1.207049 0 1.811533 1.45933.958041 2.312879l-2.356855 2.356854c1.76479 1.652508 4.055202 2.558331 6.484935 2.556129 4.370371-.004 8.146815-3.000064 9.189589-7.16083.07587-.30275.345597-.516532.657718-.516532h3.234903c.423274 0 .744823.384266.666524.800258-1.2215 6.486177-6.916338 11.393177-13.75754 11.393177-3.751097 0-7.157556-1.475419-9.671008-3.877379l-2.016169 2.016169c-.8534924.853492-2.312823.249008-2.312823-.95804v-7.567847c0-.748266.6065726-1.354838 1.3548387-1.354838z" fill="#008080" stroke-width=".056452"/></svg>