<svg height="32" viewBox="0 0 32 32" width="32" xmlns="http://www.w3.org/2000/svg"><g fill="#1e90ff" transform="matrix(1.7499636 0 0 1.5384705 -3.2496 -16.307881)"><path d="m17.874858 14.500038c-.28675.001-.57299.1139-.79102.33612l-6.06445 6.18463-6.1093704-6.14113c-.43901-.44097-1.14811-.43851-1.58399.006-.43599.44441-.43357 1.16406.006 1.60548l6.9043004 6.93793c.21952.22058.50618.3312.79297.33019.28664-.001.57296-.1139.79101-.33612l6.85352-6.98934c.43578-.44462.43335-1.16226-.006-1.6035-.21952-.22048-.50622-.33127-.79297-.33019zm-.11914 11.1177-13.5390604.0336c-.39067.002-.7589.14404-.98633.37961-.22756.23577-.29155.54249-.16992.81856l.01.0217c.16703.37905.63894.63092 1.17383.62874l13.5390604-.0316c.39047-.002.75824-.14365.98633-.37962.22766-.23579.2916-.54241.16992-.81856l-.01-.0217c-.16703-.37921-.63894-.6329-1.17383-.63073z"/><path d="m17.874858 14.500038c-.28675.001-.57299.1139-.79102.33612l-6.06445 6.18463-6.1093704-6.14113c-.43901-.44097-1.14811-.43851-1.58399.006-.43599.44441-.43357 1.16406.006 1.60548l6.9043004 6.93793c.21952.22058.50618.3312.79297.33019.28664-.001.57296-.1139.79101-.33612l6.85352-6.98934c.43578-.44462.43335-1.16226-.006-1.6035-.21952-.22048-.50622-.33127-.79297-.33019zm-.11914 11.1177-13.5390604.0336c-.39067.002-.7589.14404-.98633.37961-.22756.23577-.29155.54249-.16992.81856l.01.0217c.16703.37905.63894.63092 1.17383.62874l13.5390604-.0316c.39047-.002.75824-.14365.98633-.37962.22766-.23579.2916-.54241.16992-.81856l-.01-.0217c-.16703-.37921-.63894-.6329-1.17383-.63073z"/></g></svg>