<svg height="32" viewBox="0 0 32 32" width="32" xmlns="http://www.w3.org/2000/svg"><path d="m30 22.802249c.000122.82226-.258842 1.644361-.77707 2.265801-1.036192 1.24292-2.741462 1.24248-3.778232-.0006h-.000123l-9.44566-11.330465-9.4427899 11.327025c-1.0361051 1.24294-2.7412876 1.24264-3.7779001-.00046-.000035-.00004-.0000525-.00006-.000105-.00014-.0000525-.00004-.00007-.00006-.0001225-.00012-1.03719-1.243181-1.037295-3.289561-.000525-4.532562l11.3314075-13.5926074c.518018-.6212603 1.206345-.9382584 1.888933-.9381204.682062.000142 1.37046.3170801 1.88874.9384604h.000122l11.335625 13.5972874c.518368.6218.777595 1.444201.7777 2.266501z" fill="#1e90ff"/></svg>