<svg height="32" viewBox="0 0 32 32" width="32" xmlns="http://www.w3.org/2000/svg"><path d="m10.141602 2c-1.495269 0-2.7104497 1.2158531-2.7104497 2.7104492v2.7207031h-2.7207031c-1.4947081 0-2.7104492 1.2151807-2.7104492 2.7104497 0 1.494596 1.2157411 2.710449 2.7104492 2.710449h2.7207031v6.295898h-2.7207031c-1.4947081 0-2.7104492 1.216077-2.7104492 2.710449s1.2157411 2.710449 2.7104492 2.710449h2.7207031v2.720704c0 1.495492 1.2151807 2.710449 2.7104497 2.710449 1.494708 0 2.710449-1.214957 2.710449-2.710449v-2.720704h6.295898v2.720704c0 1.495492 1.216077 2.710449 2.710449 2.710449 1.495156 0 2.710449-1.214957 2.710449-2.710449v-2.720704h2.720704c1.494932 0 2.710449-1.216077 2.710449-2.710449s-1.215629-2.710449-2.710449-2.710449h-2.720704v-6.295898h2.720704c1.49426 0 2.710449-1.215853 2.710449-2.710449 0-1.4953811-1.216077-2.7104497-2.710449-2.7104497h-2.720704v-2.7207031c0-1.4945961-1.215853-2.7104492-2.710449-2.7104492-1.495492 0-2.710449 1.2158531-2.710449 2.7104492v2.7207031h-6.295898v-2.7207031c0-1.4945961-1.215741-2.7104492-2.710449-2.7104492zm1.507324 9.648926h8.702148v8.702148h-8.702148z" fill="#1e90ff"/></svg>