<svg height="32" viewBox="0 0 32 32" width="32" xmlns="http://www.w3.org/2000/svg"><path d="m12.639024 5.9949581c-2.25788-.99171-5.4138602-1.4775-9.6391302-1.49475a1.9598225 1.8028951 0 0 0 -1.11989.30643 1.9998189 1.8396888 0 0 0 -.88 1.52751v16.4479699c0 1.11186.86 1.95065 1.99979 1.95065 4.44147 0 8.8967402.38173 11.5652202 2.70204a.25685171.23628503 0 0 0 .434-.17247v-19.3805499a.99303509.91352052 0 0 0 -.341-.68988 8.9366906 8.2211095 0 0 0 -2.01859-1.19695zm17.47838-1.19005a1.9579477 1.8011704 0 0 0 -1.11989-.3047c-4.22517.0172-7.38115.50075-9.63913 1.49475a8.9560639 8.2389315 0 0 0 -2.01919 1.19465.99553487.91582012 0 0 0 -.341.68988v19.3816999a.24560279.22593678 0 0 0 .418.16155c1.60419-1.466 4.41957-2.6917 11.58392-2.69112a1.9998189 1.8396888 0 0 0 1.99988-1.83969v-16.5571999a1.9998189 1.8396888 0 0 0 -.88199-1.52982z" fill="#1e90ff" stroke-width=".05994"/></svg>