<svg height="32" viewBox="0 0 32 32" width="32" xmlns="http://www.w3.org/2000/svg"><path d="m15.999886 2c7.719803 0 14.000114 6.2803125 14.000114 14 0 7.719687-6.280241 14-14.000044 14-7.7197325 0-13.999956-6.280313-13.999956-14 0-7.7196875 6.2802235-14 13.999886-14zm0 4.732385c-1.698231 0-3.290919.4595675-4.661163 1.26021l12.668651 12.66853c.800719-1.37018 1.26029-2.962925 1.26029-4.661125 0-5.110228-4.157579-9.267615-9.267778-9.267615zm0 18.535248c1.698267 0 3.290902-.459568 4.661163-1.260211l-12.6686503-12.668529c-.800649 1.370215-1.2602203 2.962907-1.2602203 4.661107 0 5.110227 4.1575966 9.267633 9.2677076 9.267633z" fill="#f00"/></svg>