<svg height="32" viewBox="0 0 32 32" width="32" xmlns="http://www.w3.org/2000/svg"><g fill="#f00" stroke-width=".064859"><rect height="5.384615" rx="2" width="28" x="2" y="2"/><path d="m4.6523438 9.5390625a.5.53846152 0 0 0 -.5.5937495l1.6445312 17a.09375.10096153 0 0 0 0 .013672 3 3.2307691 0 0 0 2.9804688 2.853516h14.4433592a3 3.2307691 0 0 0 2.980469-2.853516v-.013672l1.640625-17a.5.53846152 0 0 0 -.5-.5937495zm6.3437502 5.2304685h1.667968c.466666 0 .901172.167083 1.201172.46875l2.13086 2.128907 2.132812-2.128907c.3-.301667.734506-.46875 1.201172-.46875h1.666016v1.666016c0 .46-.164844.897386-.464844 1.199219l-2.134766 2.134765 2.134766 2.134766c.299995.301502.464844.739053.464844 1.199219v1.666015h-1.666016c-.466666 0-.901172-.167085-1.201172-.46875l-2.132812-2.142578-2.13086 2.142578c-.3.30167-.734505.46875-1.201172.46875h-1.667968v-1.666015c0-.460166.166797-.897551.466797-1.199219l2.134765-2.134766-2.134765-2.134765c-.299995-.301833-.466797-.739219-.466797-1.199219z"/></g></svg>