<svg height="32" viewBox="0 0 32 32" width="32" xmlns="http://www.w3.org/2000/svg"><g stroke-width=".063565"><path d="m30.999995 8.505314a4.1379302 3.9995392 0 0 0 -6.878016-3.002779 4.1715509 4.0320355 0 0 0 -.821767.9561398v.00375c-.03491.056243-.06789.1137369-.100215.1712303l-.01552.030621c-.02716.049369-.05237.099363-.07694.1499827-.0078.015623-.01487.031246-.02198.04687-.02134.04562-.04203.091864-.06142.138734-.0084.019373-.01616.038746-.02392.058118-.01746.043745-.03427.08749-.05043.1318598l-.02328.066242c-.01422.042495-.0278.085615-.04073.1287351-.0078.024372-.01487.048119-.02134.072492-.01228.04187-.02263.084365-.03298.1249856-.0065.025622-.01293.051244-.01875.076866-.0091.042495-.01746.085615-.02522.1249856-.0052.026247-.01034.052494-.01487.078741-.0071.043745-.01293.088115-.01875.1324847-.0032.025622-.0071.051244-.01035.077491-.0052.048119-.0084.096239-.01228.1449833 0 .022497-.0039.044995-.0052.067492-.0039.071242-.0065.1424836-.0065.2149752 0 .062493 0 .1249856.0052.1837288v.039995q.0052.088115.01358.1762297l.0039.029997c.0058.053119.01228.1056128.02069.1574818 0 .010624 0 .021872.0045.032496.0091.056868.02004.113112.03168.1693555 0 .013748.0058.026872.0084.04062.01164.053744.02457.1074876.03879.1606065v.011874c.01487.055619.03103.1099874.04849.1643561l.01358.042495c.01746.053119.03556.1049879.05496.1568569.0039.011249.0084.022497.01293.033746.01746.04437.03556.08874.05431.1324846.0052.01312.01035.02562.01616.03812.02198.04937.04461.09874.06854.147483l.02134.04187c.02263.04375.04526.08749.06918.13061a4.159913 4.0207868 0 0 0 1.431465 1.487953 4.0228441 3.888302 0 0 0 .492672.259346l.02522.01125q.171983.07499.351077.134985l.06142.02.09698.02937c.02909.0087.05819.01625.08793.02437l.124137.03125.111854.025.07435.01437.118319.02062.06078.0094c.05819.0081.117026.01562.175862.02187l.04978.0044c.0472.0037.09504.0075.142888.01l.0556.0031c.06465 0 .125431.005.188793.005.075 0 .148707 0 .222414-.0062l.06983-.005c.05043-.0038.100216-.0069.15-.01187l.08082-.01c.04526-.0056.09116-.01125.136423-.01812l.08147-.01437c.04397-.0075.08858-.01562.129311-.02437l.07953-.01812c.04397-.01.08793-.02.129311-.03187.02521-.0062.04978-.01312.075-.02062.04461-.0125.08922-.02562.133189-.03937l.06853-.0225c.04591-.01562.09116-.03187.136422-.04874l.06013-.02312c.04849-.01875.09634-.03874.143535-.05937l.04849-.02125c.05237-.02375.104095-.04812.155173-.07437l.03168-.015c.05948-.03125.118965-.06249.177155-.09686h.0039a4.1715509 4.0320355 0 0 0 .998276-.791159 4.1256458 3.9876656 0 0 0 1.034482-2.6453199z" fill="#32cd32"/><path d="m22.942669 13.159778-6.824998 5.130659a1.0344826.9998848 0 0 1 -1.269828 0l-9.3103428-6.999194a1.0344826.9998848 0 1 1 1.2698274-1.5785681l8.6754294 6.5217491 6.091809-4.579473a6.1978436 5.9905598 0 0 1 -.091164-6.152416h-16.8627119a3.6245683 3.5033464 0 0 0 -3.620689 3.4995968v14.9982722a3.6245683 3.5033464 0 0 0 3.620689 3.499597h21.7241339a3.6245683 3.5033464 0 0 0 3.620689-3.499597v-10.299439a6.1971971 5.9899349 0 0 1 -7.022844-.541187z" fill="#1e90ff"/></g></svg>