<svg height="32" viewBox="0 0 32 32" width="32" xmlns="http://www.w3.org/2000/svg"><path d="m18.224065 25.49985-7.277534-20.028841a1.3342147 1.3769827 0 0 0 -2.498621 0l-7.2775344 20.028841a1.3342147 1.3769827 0 0 0 2.4986206.966389l2.192963-6.034937a.12129223.12518026 0 0 1 .1134091-.08137h7.4437037a.12129223.12518026 0 0 1 .113408.08137l2.192964 6.034937a1.3342147 1.3769827 0 0 0 2.498621-.966389zm-11.2704748-8.074126 2.6302212-7.238548a.12129223.12518026 0 0 1 .226818 0l2.6302206 7.239799a.12129223.12518026 0 0 1 -.113408.168994h-5.2604439a.12129223.12518026 0 0 1 -.1134079-.168994zm17.8305658-6.839849c-2.530157-.01877-4.795895 1.494026-5.761382 3.843032a1.3342457 1.3770148 0 0 0 2.456167 1.076551c.538538-1.307507 1.805435-2.155603 3.233652-2.165619 1.960082-.01377 3.542339 1.65864 3.542339 3.683431a.09096918.09388519 0 0 1 -.08793.09388c-1.329364.03818-2.906164.129562-4.313153.300433-3.320375.40308-5.302291 2.271396-5.302291 4.997821 0 1.451465.531262 2.753966 1.49614 3.672789.905447.860615 2.142627 1.334417 3.476843 1.334417 1.880029 0 3.498674-.500718 4.726758-1.453337h.0036a1.3342275 1.376996 0 1 0 2.66843.01189v-8.950383c0-3.516314-2.729075-6.419244-6.139206-6.444905zm-1.259621 14.082778c-1.063126 0-2.304552-.590226-2.304552-2.253245 0-.667836.232273-1.135385.753831-1.516559.507608-.37116 1.285698-.635915 2.191751-.746074 1.280846-.155849 2.718158-.241597 3.950488-.279778a.12129223.12518026 0 0 1 .121292.131439c-.164351 3.137018-1.713253 4.664217-4.71281 4.664217z" fill="#1e90ff" stroke="#1e90ff" stroke-width=".154775"/></svg>