<svg height="32" viewBox="0 0 32 32" width="32" xmlns="http://www.w3.org/2000/svg"><g fill="#1e90ff" transform="matrix(.06730765 0 0 .0625 -1.230751 0)"><path d="m256 428c-52.35 0-111.39-11.61-157.93-31-17.07-7.19-31.69-18.82-43.64-28a4 4 0 0 0 -6.43 3.18v12.58c0 28.07 23.49 53.22 66.14 70.82 38.15 15.75 88.53 24.42 141.86 24.42s103.7-8.67 141.86-24.42c42.65-17.58 66.14-42.75 66.14-70.82v-12.58a4 4 0 0 0 -6.43-3.18c-11.95 9.17-26.57 20.81-43.65 28-46.54 19.39-105.57 31-157.92 31zm208-301.49c-.81-27.65-24.18-52.4-66-69.85-38.26-15.9-88.66-24.66-142-24.66s-103.74 8.76-141.91 24.66c-41.78 17.41-65.15 42.11-66 69.69l-.09 17.65c0 6.41 5.2 16.48 14.63 24.73 11.13 9.73 27.65 19.33 47.78 27.73 42.83 17.9 97.26 28.54 145.59 28.54s102.76-10.68 145.59-28.58c20.13-8.4 36.65-18 47.78-27.73 9.43-8.2 14.63-18.27 14.63-24.69z"/><path d="m413.92 226c-46.53 19.43-105.57 31-157.92 31s-111.39-11.57-157.93-31c-17.07-7.15-31.69-18.79-43.64-28a4 4 0 0 0 -6.43 3.22v30.78c0 6.41 5.2 14.48 14.63 22.73 11.13 9.74 27.65 19.33 47.78 27.74 42.83 17.87 97.26 28.53 145.59 28.53s102.76-10.68 145.59-28.57c20.13-8.41 36.65-18 47.78-27.74 9.43-8.22 14.63-16.28 14.63-22.69v-30.78a4 4 0 0 0 -6.43-3.18c-11.95 9.17-26.57 20.81-43.65 27.96z"/><path d="m413.92 312c-46.54 19.41-105.57 31-157.92 31s-111.39-11.59-157.93-31c-17.07-7.17-31.69-18.81-43.64-28a4 4 0 0 0 -6.43 3.2v29.8c0 6.41 5.2 14.47 14.62 22.71 11.13 9.74 27.66 19.33 47.79 27.74 42.83 17.87 97.25 28.55 145.59 28.55s102.76-10.68 145.59-28.57c20.13-8.41 36.65-18 47.78-27.74 9.43-8.25 14.63-16.32 14.63-22.69v-29.8a4 4 0 0 0 -6.43-3.18c-11.95 9.17-26.57 20.81-43.65 27.98z"/></g></svg>