<svg height="32" viewBox="0 0 32 32" width="32" xmlns="http://www.w3.org/2000/svg"><g fill="#808080" stroke="#808080" stroke-linecap="round" stroke-linejoin="round" stroke-width="3.458" transform="matrix(1.3141898 0 0 1.0646346 -4.824252 -1.566469)"><path d="m8.1321547 5.07899h2.4210093c.67062 0 1.210505.6702329 1.210505 1.5027643v19.8364877c0 .832531-.539885 1.502764-1.210505 1.502764h-2.4210093c-.6706196 0-1.2105048-.670233-1.2105048-1.502764v-19.8364877c0-.8325314.5398852-1.5027643 1.2105048-1.5027643z"/><path d="m21.138228 5.07899h2.421009c.67062 0 1.210505.6702329 1.210505 1.5027643v19.8364877c0 .832531-.539885 1.502764-1.210505 1.502764h-2.421009c-.67062 0-1.210505-.670233-1.210505-1.502764v-19.8364877c0-.8325314.539885-1.5027643 1.210505-1.5027643z"/></g></svg>
