<svg height="32" viewBox="0 0 32 32" width="32" xmlns="http://www.w3.org/2000/svg"><g transform="matrix(.97901521 0 0 1.002423 .596859 -.038768)"><path d="m22.998931 8.9999216c-.228655 3.3044124-2.566538 6.0000674-5.133075 6.0000674-2.566538 0-4.908503-2.69503-5.133076-6.0000674-.233321-3.4375385 2.041565-6.0000672 5.133076-6.0000672s5.366396 2.6250294 5.133075 6.0000672z" fill="#1e90ff" stroke="#1e90ff" stroke-linecap="round" stroke-linejoin="round" stroke-width="1.93215"/><path d="m17.865856 19.000034c-5.074745 0-10.2253194 3.000033-11.1784382 8.662597-.1166608.682507.245571 1.337515.9128708 1.337515h20.5317174c.6673 0 1.027782-.655008.912871-1.337515-.953702-5.662564-6.104277-8.662597-11.179021-8.662597z" fill="#1e90ff" stroke="#1e90ff" stroke-miterlimit="10" stroke-width="1.93215"/><path d="m6.1997757 10.999944v7.000078m3.2665024-3.500039h-6.5330048" fill="none" stroke="#008000" stroke-linecap="round" stroke-linejoin="round" stroke-width="3"/></g></svg>