<svg height="32" viewBox="0 0 32 32" width="32" xmlns="http://www.w3.org/2000/svg"><path d="m21.57125 30h-4.44625a1.125 1.1249747 0 0 1 -1.125-1.124974v-1.731836a1.9575 1.9574559 0 0 0 -.606875-1.423093c-.48625-.474364-1.1925-.737484-1.930625-.719359-1.335.031249-2.4625 1.206223-2.4625 2.566192v1.308096a1.125 1.1249747 0 0 1 -1.125 1.124974h-4.39875a3.47625 3.4761717 0 0 1 -3.47625-3.476171v-4.398651a1.125 1.1249747 0 0 1 1.125-1.124975h1.731875c.5725 0 1.129375-.244994 1.568125-.687484a2.62875 2.6286908 0 0 0 .7625-1.869958c-.01875-1.324345-1.10875-2.442445-2.380625-2.442445h-1.681875a1.125 1.1249747 0 0 1 -1.125-1.124975v-4.398651a3.47625 3.4761717 0 0 1 3.47625-3.4761711h3.4525a.5.49998874 0 0 0 .5-.499989v-.404991a4.095625 4.0955327 0 0 1 4.1675-4.094908c2.218125.03875 4.0225 1.898707 4.0225 4.145532v.354367a.5.49998874 0 0 0 .5.499989h3.4525a3.42875 3.4286728 0 0 1 3.42875 3.4286721v3.452423a.5.49998874 0 0 0 .5.499988h.35375c2.28625 0 4.14625 1.812459 4.14625 4.039909 0 2.288074-1.836875 4.149907-4.095 4.149907h-.405a.5.49998874 0 0 0 -.5.499988v3.499922a3.42875 3.4286728 0 0 1 -3.42875 3.428672z" fill="#1e90ff" stroke-width=".062499"/></svg>