<svg height="32" viewBox="0 0 32 32" width="32" xmlns="http://www.w3.org/2000/svg"><path d="m20.989822 4.7573384v10.2497086 10.249768c0 .74574-.878967 1.04424-1.240745.416551-2.070293-3.588481-4.115027-5.470305-11.2960576-5.86902l2.2669876 8.195654h-3.3881008l-2.2928708-8.288668c-2.2462378-.114454-4.0390354-2.177881-4.0390354-4.704285 0-2.60004 1.8971867-4.715939 4.2350859-4.715939 9.8476581 0 12.1626151-1.8749253 14.5136701-5.9507538.362099-.6272705 1.241066-.3287707 1.241066.4169842zm5.83226 11.2429786c0 1.964265-.594194 3.768405-1.488401 5.133328 0 0-.358143.545565-.952764.545565-.611951 0-1.152399-.571425-1.152399-1.288514 0-.42339.22803-.767564.22803-.767564.425526-.691981 1.048759-1.754791 1.048759-3.622815s-.623233-2.931239-1.048759-3.62322c0 0-.22803-.344175-.22803-.767565 0-.717089.540396-1.288514 1.152399-1.288514.594621 0 .952764.545565.952764.545565.89458 1.365345 1.4884 3.169484 1.488401 5.133734zm-.860087-7.4356943s-.522855-.4157848-.522855-1.067249c0-.7332602.541465-1.2933896 1.158548-1.2933896.396808 0 .762277.3109945.762277.3109945 1.400374 1.1647343 3.640035 4.1494484 3.640035 9.4853384 0 5.335904-2.240035 8.320619-3.640464 9.485353 0 0-.365469.310996-.76217.310996-.616761 0-1.158655-.560129-1.158655-1.293329 0-.651541.522963-1.067268.522963-1.067268 1.62985-1.337384 2.720802-4.010697 2.720802-7.435692s-1.090952-6.098355-2.720481-7.4357543z" fill="#32cd32"/></svg>