<svg height="32" viewBox="0 0 32 32" width="32" xmlns="http://www.w3.org/2000/svg"><path d="M 19.355469 21.824219 L 19.355469 14.433594 L 13.265625 18.164062 L 11.117188 14.425781 L 17.472656 10.945312 L 11.117188 7.417969 L 13.277344 3.746094 L 19.355469 7.460938 L 19.355469 0.0390625 L 23.695312 0.0390625 L 23.695312 7.460938 L 29.828125 3.746094 L 32 7.417969 L 25.617188 10.945312 L 32 14.425781 L 29.820312 18.179688 L 23.695312 14.433594 L 23.695312 21.824219 Z M 9.074219 27.425781 C 9.074219 23.945312 5.28125 21.757812 2.261719 23.5 C -0.753906 25.238281 -0.753906 29.609375 2.261719 31.351562 C 5.28125 33.089844 9.074219 30.902344 9.074219 27.425781 Z M 9.074219 27.425781" fill="#1e90ff"/></svg>
