<svg height="32" viewBox="0 0 32 32" width="32" xmlns="http://www.w3.org/2000/svg"><path d="m15.999998 3.515625c3.716108 0 7.433074 1.4096369 10.253906 4.2304688 5.641664 5.6416632 5.641664 14.8661492 0 20.5078122a2.5 2.5 0 0 1 -3.537109 0 2.5 2.5 0 0 1 0-3.537109c3.730919-3.730919 3.730919-9.702675 0-13.433594-2.109265-2.109265-4.934007-3.024122-7.666016-2.748047l-.0059-.0039-5.3417969-3.5878904c1.9822759-.9514423 4.1393709-1.4277406 6.2969159-1.4277406zm-12.2304689 6.701172 2.9375 5.724609.0059.0098c-.678256 3.055196.176335 6.371648 2.570312 8.765625a2.5 2.5 0 0 1 0 3.537109 2.5 2.5 0 0 1 -3.537109 0c-4.878265-4.878264-5.534628-12.433881-1.976563-18.037109z" fill="#1e90ff"/><path d="m5.3697171 6.0418607 7.0712359 13.7839783.0059-.0053a4 4 0 0 0 .563666.836956 4 4 0 0 0 5.647106.331963 4 4 0 0 0 .331963-5.647105 4 4 0 0 0 -.759274-.663037 4 4 0 0 0 -.0081-.0061z" fill="#f00"/></svg>
