<svg height="32" viewBox="0 0 32 32" width="32" xmlns="http://www.w3.org/2000/svg"><path d="m14.672296 16.017963-10.6216928-9.5537122c-.7341375-.6603266-.7341375-1.7280868 0-2.3813907l1.7650978-1.5876139c.7341375-.6603266 1.9212716-.6603266 2.6475971 0l7.5288899 6.7718933 7.528912-6.7718933c.734138-.6603266 1.921271-.6603266 2.647596 0l1.780701 1.5805722c.734137.6603456.734137 1.7281058 0 2.3814097l-10.621693 9.5537309c-.734138.667348-1.921251.667348-2.655408.0074zm2.655408 13.487621 10.621693-9.553731c.734137-.660327.734137-1.728087 0-2.381391l-1.765077-1.587612c-.734157-.660327-1.921272-.660327-2.647619 0l-7.536702 6.764886-7.5288889-6.771909c-.7341375-.660327-1.9212716-.660327-2.6476184 0l-1.7728885 1.587593c-.7341375.660346-.7341375 1.728106 0 2.38141l10.6216928 9.553714c.734157.667368 1.92127.667368 2.655408.0074z" fill="#3cb371" stroke-width=".07407"/></svg>