<svg height="32" viewBox="0 0 32 32" width="32" xmlns="http://www.w3.org/2000/svg"><path d="m14.672297 15.982037-10.6216938 9.553713c-.7341375.660327-.7341375 1.728087 0 2.381391l1.7650977 1.587614c.7341375.660326 1.9212717.660326 2.647597 0l7.5288911-6.771893 7.528912 6.771893c.734138.660326 1.92127.660326 2.647596 0l1.780702-1.580573c.734135-.660345.734135-1.728105 0-2.381409l-10.621695-9.553732c-.734138-.667348-1.92125-.667348-2.655407-.0074zm2.655407-13.4876193 10.621695 9.5537303c.734135.660326.734135 1.728086 0 2.38139l-1.765078 1.587612c-.734157.660327-1.921272.660327-2.647619 0l-7.536702-6.7648849-7.52889 6.7719079c-.7341374.660327-1.9212716.660327-2.6476183 0l-1.7728885-1.587593c-.7341375-.660346-.7341375-1.728106 0-2.38141l10.6216938-9.5537123c.734157-.6673682 1.921269-.6673682 2.655407-.00742z" fill="#6495ed" stroke-width=".07407"/></svg>