<svg height="32" viewBox="0 0 32 32" width="32" xmlns="http://www.w3.org/2000/svg"><path d="m17.144832 16.007-4.330374-4.330497c-.21994-.219818-.329735-.488635-.329735-.806471 0-.317817.109724-.58653.329735-.806347l.668237-.6683426c.219713-.21973.48853-.32963.806243-.32963.317817 0 .586547.1099.806469.32963l5.809563 5.8007076c.219835.219817.329752.488635.329752.80647 0 .317817-.1099.58653-.329752.806347l-5.809563 5.800708c-.219922.219835-.488652.329752-.806469.329752-.317713 0-.58653-.1099-.806243-.329752l-.668237-.66822c-.21994-.21973-.329735-.48713-.329735-.80199 0-.314755.109724-.585113.329735-.810845zm-15.1448322-.007a14.000001 14.000001 0 0 0 14.0000002 14 14.000001 14.000001 0 0 0 14-14 14.000001 14.000001 0 0 0 -14-14.0000001 14.000001 14.000001 0 0 0 -14.0000002 14.0000001z" fill="#f00"/></svg>