<svg height="32" viewBox="0 0 32 32" width="32" xmlns="http://www.w3.org/2000/svg"><path d="m19.480063 2.0000001c-1.446612 0-3.468165.8364185-4.490967 1.8592716l-12.221994 12.2219763c-1.0228027 1.022801-1.0228027 2.695743 0 3.718543l9.433082 9.433069c1.022803 1.022853 2.695694 1.022853 3.718549 0l12.221993-12.221976c1.022802-1.022853 1.859274-3.044509 1.859274-4.490961v-7.8882338c-.000052-1.4465045-1.181768-2.6316891-2.628275-2.6316891zm4.395269 3.4998053c1.449659 0 2.624858 1.1751997 2.624858 2.624854 0 1.4496544-1.175199 2.6248536-2.624858 2.6248536-1.449658 0-2.624857-1.1751467-2.624857-2.6248536 0-1.4496543 1.175199-2.624854 2.624857-2.624854z" fill="#1e90ff"/></svg>