<svg height="32" viewBox="0 0 32 32" width="32" xmlns="http://www.w3.org/2000/svg"><path d="m28.122773 8.9725973c-1.251859-2.1448373-2.95009-3.843056-5.094918-5.0949173-2.145273-1.2518613-4.487221-1.87768-7.027407-1.87768-2.539963 0-4.882582.6258187-7.0274094 1.87768-2.1450513 1.2516373-3.8432821 2.949856-5.0951397 5.0949173-1.2520819 2.1450427-1.8778989 4.4876717-1.8778989 7.0274027 0 2.539955.6260408 4.882136 1.8776749 7.027403 1.251858 2.144613 2.9500888 3.843056 5.0951399 5.094917 2.1450512 1.251861 4.4874462 1.87768 7.0274092 1.87768 2.539962 0 4.882579-.625819 7.027407-1.87768 2.144828-1.251637 3.843059-2.95008 5.094918-5.094917 1.251635-2.145043 1.877451-4.487672 1.877451-7.027403 0-2.539955-.625816-4.882584-1.877227-7.0274027zm-5.523614 10.3267547c.230907.230673.346582.50456.346582.820475 0 .32801-.115687.607693-.346582.838376l-1.640504 1.640725c-.230906.230907-.510364.34636-.838599.34636-.315929 0-.589794-.115547-.820253-.34636l-3.299579-3.299576-3.29958 3.299576c-.230907.230907-.504323.34636-.820252.34636-.328235 0-.607694-.115547-.8386-.34636l-1.6407277-1.640725c-.2309067-.230674-.3463584-.510366-.3463584-.838376 0-.315915.1154534-.589792.3463584-.820475l3.2995797-3.299352-3.2995797-3.299576c-.2309067-.230673-.3463584-.504336-.3463584-.820251 0-.328234.1154534-.607693.3463584-.8386l1.6407277-1.640501c.230907-.2309067.510365-.34636.8386-.34636.315929 0 .589346.1155467.820252.34636l3.29958 3.299352 3.299579-3.299352c.230459-.2309067.504324-.34636.820253-.34636.328235 0 .607693.1155467.838599.34636l1.640504 1.640501c.230907.230907.346582.510366.346582.8386 0 .315915-.115687.589568-.346582.820251l-3.299356 3.299576z" fill="#f00" stroke-width="2.333333"/></svg>