<svg height="32" viewBox="0 0 32 32" width="32" xmlns="http://www.w3.org/2000/svg"><path d="m16 2c-7.756 0-14 6.244-14 14s6.244 14 14 14 14-6.244 14-14-6.244-14-14-14zm5.605469 8c.27519 0 .508592.094603.701172.283203l1.404297 1.373047c.192559.18859.289192.41818.289062.6875 0 .26944-.096483.496957-.289062.685547l-7.472657 7.314453-1.404297 1.373047c-.19271.18849-.427935.283203-.703125.283203-.27532 0-.508591-.094603-.701171-.283203l-1.404297-1.373047-3.7363285-3.658203c-.19276-.18847-.2890625-.416227-.2890625-.685547 0-.26944.0963525-.496957.2890625-.685547l1.4042969-1.375c.19271-.18859.4258516-.283203.7011716-.283203.27519 0 .510415.094603.703125.283203l3.033203 2.980469 6.771485-6.636719c.19259-.18869.427805-.283203.703125-.283203z" fill="#008000"/></svg>