<svg height="32" viewBox="0 0 32 32" width="32" xmlns="http://www.w3.org/2000/svg"><path d="m74.453195 67.398077-.004-.0034c-.668397-.617885-1.533343-.76327-2.164719-.869616l-.04644-.0081c-.609164-.100288-.705418-.168269-.981393-.415288-.164239-.146058-.360114-.380289-.360114-.669039s.195875-.52298.359441-.669038l2.038175-1.808558c1.744655-1.541961 2.705855-3.611673 2.705855-5.828115s-.959181-4.286154-2.705899-5.828846c-2.41579-2.12625-5.721429-3.298077-9.313813-3.298077-4.152412 0-8.306842 1.572981-11.403145 4.315096-2.95293 2.609519-4.577143 6.105481-4.577143 9.843077s1.626232 7.233558 4.577143 9.842404c1.464013 1.295 3.196596 2.300577 5.150632 2.989808a17.91615 17.915288 0 0 0 5.847301 1.009615h.121833c4.105966 0 8.016058-1.384519 10.728688-3.796154.652916-.576154 1.019761-1.402019 1.03255-2.326154.01414-.95375-.36146-1.88125-1.004952-2.479615zm-22.145296-8.628846a2.1539497 2.1538462 0 1 1 2.15395 2.153846 2.1539497 2.1538462 0 0 1 -2.15395-2.153846zm2.692438 9.086538a2.1539497 2.1538462 0 1 1 2.153949-2.153846 2.1539497 2.1538462 0 0 1 -2.153949 2.153846zm2.692437-13.394231a2.1539497 2.1538462 0 1 1 2.153949 2.153847 2.1539497 2.1538462 0 0 1 -2.153949-2.153847zm4.307899 18.240385a3.2309246 3.2307692 0 1 1 3.230925-3.230769 3.2309246 3.2307692 0 0 1 -3.230925 3.230769zm4.846387-16.086538a2.1539497 2.1538462 0 1 1 2.15395-2.153847 2.1539497 2.1538462 0 0 1 -2.15395 2.153847z" fill="#1e90ff" stroke-width=".067309" transform="translate(-46 -46)"/></svg>