<svg height="32" viewBox="0 0 32 32" width="32" xmlns="http://www.w3.org/2000/svg"><path d="m16.000002 1c-6.3509517 0-11.5000025 4.7958103-11.5000025 10.711067 0 .369709.033485.710286.072579 1.070355.031509.358271.083753.723168.1451609 1.074112 1.316651 7.528273 6.6824576 12.860221 11.2822626 17.144466 4.599805-4.284245 9.965566-9.61598 11.282261-17.144466.061409-.350944.113619-.715841.145157-1.074112.03932-.360069.07258-.700646.07258-1.070355 0-5.9152567-5.149052-10.711067-11.499998-10.711067zm0 6.4296445c2.540473 0 4.600808 1.9152985 4.600808 4.2814225s-2.060404 4.285178-4.600808 4.285178-4.600807-1.919054-4.600807-4.285178 2.060403-4.2814225 4.600807-4.2814225z" fill="#f00" stroke-width="2.59043"/></svg>