<svg height="32" viewBox="0 0 32 32" width="32" xmlns="http://www.w3.org/2000/svg"><g stroke-width=".062495"><path d="m4.1351907 22.312459a.99984768.99999792 0 0 1 -.9129859-.591249 13.997868 13.999971 0 0 1 12.7799282-19.7212092.99984768.99999792 0 0 1 .999848.999998v12.9999732a.99984768.99999792 0 0 1 -.591785.913123l-11.8669424 5.309364a.99547335.99562293 0 0 1 -.4080629.09z" fill="#008000"/><path d="m19.60096 4.2612461a.49992384.49999896 0 0 0 -.599284.488749v11.2499769a3.0039174 3.0043688 0 0 1 -1.77473 2.738744l-10.7777328 4.82374a.49992384.49999896 0 0 0 -.2093431.738123 13.024266 13.026223 0 0 0 3.0282887 3.150619 12.893036 12.894973 0 0 0 7.7338222 2.548745c7.167033 0 12.998019-5.831863 12.998019-12.999973 0-6.278112-4.473068-11.5312264-10.39904-12.7387239z" fill="#1e90ff"/></g></svg>