<svg height="32" viewBox="0 0 32 32" width="32" xmlns="http://www.w3.org/2000/svg"><g transform="matrix(1.0016046 0 0 .9993628 .090124 .104351)"><path d="m26.502476 9.1481903-1.356007-1.5373535a12.290749 11.977843 0 0 0 -8.916781-3.7185561c-6.8057232 0-12.3273474 5.3810502-12.3273474 12.0135073 0 6.632457 5.5216242 12.013508 12.3273474 12.013508a12.333125 12.019138 0 0 0 11.625587-8.009005" fill="none" stroke="#1e90ff" stroke-linecap="round" stroke-miterlimit="10" stroke-width="3.99096"/><path d="m29.861915 3.2711167v7.6925913a1.1518373 1.1130536 0 0 1 -1.15184 1.113053h-7.960634c-1.026576 0-1.540583-1.198619-.814926-1.899843l7.961356-7.6932866c.725658-.7026152 1.966044-.2045237 1.966044.7874853z" fill="#1e90ff"/></g></svg>