<svg height="32" viewBox="0 0 32 32" width="32" xmlns="http://www.w3.org/2000/svg"><g fill="#1e90ff" transform="matrix(1.7521394 0 0 1.75 32.155319 -25.525424)"><path d="m-12.359008 16.299126c-.07728 0-.144689.02945-.201172.08594-.05648.05659-.08398.121937-.08398.199219v1.71289c0 .07728.0275.144579.08398.201172.05648.05637.12389.08398.201172.08398h10.843749c.07739 0 .144579-.0275.201172-.08398.05648-.05659.08398-.12389.08398-.201172v-1.71289c0-.07728-.02761-.142735-.08398-.199218-.0567-.05637-.123781-.08594-.201172-.08594zm0 6.269531c-.07728 0-.144689.02739-.201172.08398-.05648.05648-.08398.12389-.08398.201172v1.710938c0 .07717.0275.144688.08398.201171.05648.05659.12389.08594.201172.08594h10.843749c.07739 0 .144579-.02934.201172-.08594.05648-.05648.08398-.123999.08398-.201171v-1.710937c0-.07728-.02761-.144798-.08398-.201172-.0567-.05648-.123781-.08398-.201172-.08398zm0 6.306641c-.07728 0-.144689.0275-.201172.08398-.05648.05648-.08398.123999-.08398.201172v1.71289c0 .07739.0275.142626.08398.199219.05648.05637.12389.08594.201172.08594h10.843749c.07739 0 .144579-.02956.201172-.08594.05648-.05659.08398-.121827.08398-.199219v-1.71289c0-.07717-.02761-.144798-.08398-.201172-.0567-.05637-.123781-.08398-.201172-.08398z"/><path d="m-15.499633 15.728814c-.475733 0-.8799.167118-1.212891.5-.332881.33299-.498047.737267-.498047 1.21289 0 .475732.165056.8799.498047 1.212891.332991.332881.737268.498047 1.212891.498047.475622 0 .8799-.165166 1.21289-.498047.332881-.332991.5-.737159.5-1.212891 0-.475623-.167119-.8799-.5-1.21289-.332881-.332882-.737158-.5-1.21289-.5zm0 6.267578c-.475733 0-.8799.167009-1.212891.5-.332881.332881-.498047.737158-.498047 1.212891 0 .475623.165056.880009.498047 1.21289.332991.332882.737268.5 1.212891.5.475622 0 .8799-.167118 1.21289-.5.332881-.332881.5-.737267.5-1.21289 0-.475733-.167009-.88001-.5-1.212891-.332881-.332882-.737158-.5-1.21289-.5zm0 6.308594c-.475733 0-.88001.165056-1.212891.498047-.332881.33299-.498047.737268-.498047 1.21289 0 .475842.165056.8799.498047 1.212891.332991.332881.737268.5 1.212891.5.475622 0 .8799-.167119 1.21289-.5.332881-.332991.5-.737049.5-1.212891 0-.475622-.167119-.880009-.5-1.21289s-.737158-.498047-1.21289-.498047z"/></g></svg>