<svg height="32" viewBox="0 0 32 32" width="32" xmlns="http://www.w3.org/2000/svg"><path d="m22.523113 2.0000002c-3.236654 0-5.384328 2.153755-6.523113 3.718399-1.136094-1.566831-3.28646-3.718399-6.5231141-3.718399-4.0799753 0-7.4337383 3.684861-7.4761393 8.2132878-.03635 3.952439 1.253875 7.602303 3.944693 11.155197 1.263298 1.668176 3.5536563 4.335216 8.8430864 8.224953a2.1429626 2.3214477 0 0 0 2.422947 0c5.28943-3.889737 7.579788-6.556777 8.843086-8.224953 2.692164-3.553623 3.981038-7.203487 3.944694-11.155197-.0424-4.5284268-3.396165-8.2132878-7.47614-8.2132878zm-6.523113 25.6642448v-15.195858c0-1.431219.352-2.8259828.956391-4.0989878a.08009188.08676265 0 0 1 .0054-.01167 8.2784044 8.967904 0 0 1 1.46521-2.078659c1.220208-1.289774 2.597923-1.945962 4.096112-1.945962 2.904172 0 5.291448 2.648084 5.321735 5.9056928.06798 7.627093-5.94699 13.088036-11.844848 17.425439z" fill="#f00" stroke-width=".070051"/></svg>