<svg viewBox="0 0 640 480" xmlns="http://www.w3.org/2000/svg"><path d="m0 0h640v480h-640z" fill="#012169" stroke-width="4.4"/><path d="m484.3 180.4 2 2z" fill="#49497d"/><path d="m486.3 180.4 2 2z" fill="#0e0e6e"/><path d="m480.2 182.4 2 2z" fill="#262678"/><path d="m482.3 182.4 2 2z" fill="#808067"/><path d="m488.3 182.4 2 2z" fill="#58587b"/><path d="m413.2 184.5 2 2z" fill="#0e0e6e"/><path d="m476.2 184.5 2 2z" fill="#1b1b74"/><path d="m478.2 184.5 2 2z" fill="#6e6c70"/><path d="m416.8 188c0 52.6-6 111.7 33 152.8 8 8.4 23.4 27.7 36.5 27 13.7-.8 31.4-21.1 39.2-31 34-44.8 28.7-98.2 29.8-150.2-15.3 6.9-23 9.2-36.4 9-10 1-25.3-5.5-34.5-10-6 4-14.7 8.9-30.4 9.4-18 .8-23.8-2.3-37.2-7z" fill="#cc3"/><path d="m490.4 184.5 2 2z" fill="#99994e"/><path d="m492.4 184.5 2 2z" fill="#49497d"/><path d="m555.3 184.5 2 2z" fill="#0e0e6e"/><path d="m415.3 186.5 2 2z" fill="#a4a43d"/><path d="m417.3 186.5 2 2z" fill="#6e6c70"/><path d="m419.3 186.5 2 2z" fill="#3a3a7c"/><path d="m472 186.5 2 2z" fill="#1b1b74"/><path d="m474 186.5 2 2z" fill="#6e6c70"/><path d="m476.2 186.5 2 2z" fill="#a4a43d"/><path d="m484.3 186.5 2 2z" fill="#d0d045"/><path d="m492.4 186.5 2 2z" fill="#a4a43d"/><path d="m494.4 186.5 2 2z" fill="#8d8d5b"/><path d="m496.5 186.5 2 2z" fill="#3a3a7c"/><path d="m549.2 186.5 2 2z" fill="#262678"/><path d="m551.3 186.5 2 2z" fill="#53527c"/><path d="m553.3 186.5 2 2z" fill="#8d8d5b"/><path d="m423.4 188.6 2 2z" fill="#737370"/><path d="m425.4 188.6 2 2z" fill="#53527c"/><path d="m427.4 188.6 2 2z" fill="#1b1b74"/><path d="m468 188.6 2 2z" fill="#262678"/><path d="m470 188.6 2 2z" fill="#6e6c70"/><path d="m472 188.6 2 2z" fill="#a4a43d"/><path d="m482.3 188.6 2 2z" fill="#e5e59d"/><path d="m420.9 193.8c-1 27.6-.2 58.6 4 88 4.9 15.5 4.2 24 11.3 33.2l99-.8c6-9.7 10.5-24.4 11-30.3 5.6-29.7 5.7-62.6 5.9-92a62 62 0 0 1 -35.7 7.4 69 69 0 0 1 -30.5-9.2c-9.5 5.6-12.8 8.2-28.4 8.9-12.2.6-22 1.6-36.6-5.2z" fill="#fff"/><path d="m486.3 188.6 2 2z" fill="#f2f1d7"/><path d="m488.3 188.6 2 2z" fill="#d9d868"/><path d="m496.5 188.6 2 2z" fill="#a4a43d"/><path d="m498.5 188.6 2 2z" fill="#99994e"/><path d="m500.5 188.6 2 2z" fill="#49497d"/><path d="m502.5 188.6 2 2z" fill="#0e0e6e"/><path d="m543.2 188.6 2 2z" fill="#3a3a7c"/><path d="m545.2 188.6 2 2z" fill="#667"/><path d="m547.2 188.6 2 2z" fill="#99994e"/><path d="m549.2 188.6 2 2zm-121.8 2 2 2z" fill="#a4a43d"/><path d="m429.5 190.6 2 2z" fill="#99994e"/><path d="m431.5 190.6 2 2z" fill="#6e6c70"/><path d="m433.5 190.6 2 2z" fill="#49497d"/><path d="m435.5 190.6 2 2zm26.4 0 2 2z" fill="#1b1b74"/><path d="m463.9 190.6 2 2z" fill="#53527c"/><path d="m466 190.6 2 2z" fill="#8d8d5b"/><path d="m468 190.6 2 2z" fill="#a4a43d"/><path d="m478.2 190.6 2 2z" fill="#e5e59d"/><path d="m480.2 190.6 2 2z" fill="#fbfaf2"/><path d="m490.4 190.6 2 2z" fill="#f2f1d2"/><path d="m492.4 190.6 2 2z" fill="#d9d868"/><path d="m502.5 190.6 2 2z" fill="#a4a43d"/><path d="m504.6 190.6 2 2z" fill="#6e6c70"/><path d="m506.6 190.6 2 2z" fill="#3a3a7c"/><path d="m533 190.6 2 2z" fill="#0e0e6e"/><path d="m535 190.6 2 2z" fill="#32327b"/><path d="m537 190.6 2 2z" fill="#58587b"/><path d="m539 190.6 2 2z" fill="#808067"/><path d="m542.5 191.2 1.3.7z" fill="#a4a43d"/><path d="m419.3 192.6 2 2z" fill="#dddc7a"/><path d="m421.3 192.6 2 2z" fill="#d0d045"/><path d="m436.9 193.2 1.4.7z" fill="#a4a43d"/><path d="m439.6 192.6 2 2z" fill="#808067"/><path d="m441.6 192.6 2 2z" fill="#667"/><path d="m443.7 192.6 2 2z" fill="#58587b"/><path d="m445.7 192.6 2 2z" fill="#49497d"/><path d="m457.9 192.6 2 2z" fill="#737370"/><path d="m459.9 192.6 2 2z" fill="#99994e"/><path d="m461.9 192.6 2 2z" fill="#a4a43d"/><path d="m474 192.6 2 2z" fill="#e5e59d"/><path d="m476.2 192.6 2 2z" fill="#fbfaf2"/><path d="m494.4 192.6 2 2z" fill="#f2f1d2"/><path d="m496.5 192.6 2 2z" fill="#d9d868"/><path d="m507.9 193.2 1.4.7-1.3-.7z" fill="#a4a43d"/><path d="m510.7 192.6 2 2z" fill="#808067"/><path d="m512.7 192.6 2 2z" fill="#667"/><path d="m514.7 192.6 2 2z" fill="#58587b"/><path d="m516.8 192.6 2 2z" fill="#3a3a7c"/><path d="m526.2 193.2 1.4.7z" fill="#58587b"/><path d="m528.9 192.6 2 2z" fill="#737370"/><path d="m530.9 192.6 2 2z" fill="#99994e"/><path d="m533 192.6 2 2z" fill="#a4a43d"/><path d="m549.2 192.6 2 2z" fill="#dddc7a"/><path d="m551.3 192.6 2 2z" fill="#d0d045"/><path d="m423.4 194.6 2 2z" fill="#f2f1d7"/><path d="m425.4 194.6 2 2z" fill="#e0dea1"/><path d="m427.4 194.6 2 2z" fill="#dddc7a"/><path d="m468 194.6 2 2z" fill="#d9d868"/><path d="m470 194.6 2 2z" fill="#e5e3af"/><path d="m498.5 194.6 2 2z" fill="#f6f6e4"/><path d="m500.5 194.6 2 2z" fill="#e1e18c"/><path d="m541 194.6 2 2z" fill="#d4d456"/><path d="m543.2 194.6 2 2z" fill="#e1e18c"/><path d="m545.2 194.6 2 2z" fill="#eeedc1"/><path d="m431.5 196.6 2 2z" fill="#f2f1d2"/><path d="m433.5 196.6 2 2z" fill="#e0dea1"/><path d="m435.5 196.6 2 2z" fill="#dddc7a"/><path d="m437.6 196.6 2 2z" fill="#d0d045"/><path d="m461.9 196.6 2 2z" fill="#dddc7a"/><path d="m463.9 196.6 2 2z" fill="#e5e3af"/><path d="m466 196.6 2 2z" fill="#f6f6e4"/><path d="m504.6 196.6 2 2z" fill="#eeedc1"/><path d="m506.6 196.6 2 2z" fill="#e1e18c"/><path d="m508.6 196.6 2 2z" fill="#d4d456"/><path d="m533 196.6 2 2z" fill="#d9d868"/><path d="m535 196.6 2 2z" fill="#e1e18c"/><path d="m537 196.6 2 2z" fill="#eeedc1"/><path d="m539 196.6 2 2z" fill="#f6f6e4"/><path d="m441.6 198.6 2 2z" fill="#f2f1d7"/><path d="m443.7 198.6 2 2z" fill="#f2f1d2"/><path d="m445.7 198.6 2 2z" fill="#eeedc1"/><path d="m455.2 199.3 1.3.7z" fill="#f2f1d2"/><path d="m457.9 198.6 2 2z" fill="#fbfaf2"/><path d="m468 198.6 4 4v-4z" fill="#fef8f1"/><path d="m512.7 198.6 2 2z" fill="#f2f1d7"/><path d="m514.7 198.6 2 2z" fill="#f2f1d2"/><path d="m516.8 198.6 2 2z" fill="#e5e3af"/><path d="m520.2 199.3 1.3.7-1.4-.7z" fill="#e5e59d"/><path d="m522.9 198.6 2 2z" fill="#e0dea1"/><path d="m526.2 199.3 1.4.7z" fill="#f2f1d2"/><path d="m528.9 198.6 2 2z" fill="#fbfaf2"/><path d="m463.9 200.7 2 2z" fill="#fef8f1"/><path d="m466 200.7 2 2z" fill="#fbbe66"/><path d="m463.9 202.7 2 2z" fill="#fbc477"/><path d="m468 202.7 2 2z" fill="#fcb144"/><path d="m463.9 204.8 2 2z" fill="#fe9f11"/><path d="m468 204.8 2 2z" fill="#fea522"/><path d="m461.9 206.8 2 2zm8.2 0 2 2z" fill="#fae3c9"/><path d="m480.2 206.8 2 2z" fill="#fbead6"/><path d="m482.3 206.8 2 2z" fill="#f9d6aa"/><path d="m490.4 206.8 2 2z" fill="#fae3c9"/><path d="m492.4 206.8 2 2z" fill="#fef8f1"/><path d="m461.9 208.8 2 2z" fill="#f9d099"/><path d="m470 208.8 2 2z" fill="#fdab33"/><path d="m474 208.8 2 2z" fill="#fcf1e4"/><path d="m476.2 208.8 2 2z" fill="#fbc477"/><path d="m478.2 208.8 2 2z" fill="#fea522"/><path d="m494.4 208.8 2 2z" fill="#fcb755"/><path d="m496.5 208.8 2 2z" fill="#f9d6aa"/><path d="m461.9 210.9 2 2z" fill="#faca88"/><path d="m472 210.9 2 2zm26.5 0 2 2z" fill="#fea522"/><path d="m500.5 210.9 2 2z" fill="#f8dcbb"/><path d="m419.3 212.9 2 2z" fill="#f6f6e4"/><path d="m461.9 212.9 2 2z" fill="#fbc477"/><path d="m502.5 212.9 2 2z" fill="#fbbe66"/><path d="m504.6 212.9 2 2z" fill="#f8dcbb"/><path d="m461.9 214.9 2 2z" fill="#faca88"/><path d="m508.6 214.9 2 2z" fill="#fcb755"/><path d="m510.7 214.9 2 2z" fill="#f8dcbb"/><path d="m459.9 217 2 2z" fill="#fef8f1"/><path d="m461.9 217 2 2z" fill="#fe9f11"/><path d="m518.8 217 2 2z" fill="#fdab33"/><path d="m520.9 217 2 2z" fill="#fcb144"/><path d="m522.9 217 2 2z" fill="#fbc477"/><path d="m524.9 217 4 4z" fill="#f9d6aa"/><path d="m526.9 217 2 2z" fill="#fef8f1"/><path d="m459.9 219 2 2z" fill="#fcb144"/><path d="m488.3 219 2 2z" fill="#fdab33"/><path d="m490.4 219 2 2zm8 0 2 2z" fill="#fbc477"/><path d="m500.5 219 2 2z" fill="#fea522"/><path d="m457.9 221 2 2z" fill="#fae3c9"/><path d="m484.3 221 2 2z" fill="#fcb144"/><path d="m486.3 221 2 2z" fill="#fae3c9"/><path d="m502.5 221 2 2z" fill="#f8dcbb"/><path d="m504.6 221 2 2z" fill="#fdab33"/><path d="m516.8 221 2 2z" fill="#fe9f11"/><path d="m518.8 221 2 2z" fill="#fcb755"/><path d="m520.9 221 2 2z" fill="#f9d099"/><path d="m522.9 221 2 2z" fill="#fbead6"/><path d="m457.9 223 2 2z" fill="#fcb144"/><path d="m482.3 223 2 2z" fill="#fbbe66"/><path d="m506.6 223 2 2z" fill="#f9d099"/><path d="m514.7 223 2 2z" fill="#fbead6"/><path d="m455.9 225 2 2z" fill="#fcf1e4"/><path d="m480.2 225 2 2z" fill="#fbbe66"/><path d="m508.6 225 2 2z" fill="#f9d099"/><path d="m514.7 225 2 2z" fill="#fae3c9"/><path d="m455.9 227 2 2z" fill="#fbc477"/><path d="m478.2 227 2 2zm32.5 0 2 2z" fill="#fcb144"/><path d="m514.7 227 2 2z" fill="#fbbe66"/><path d="m419.3 229 2 2z" fill="#f6f6e4"/><path d="m455.9 229 2 2z" fill="#fea522"/><path d="m478.2 229 2 2z" fill="#fbead6"/><path d="m510.7 229 2 2z" fill="#fcf1e4"/><path d="m516.8 229 2 2z" fill="#fef8f1"/><path d="m453.9 231.2 2 2z" fill="#fcf1e4"/><path d="m476.2 231.2 2 2z" fill="#fbbe66"/><path d="m512.7 231.2 2 2z" fill="#faca88"/><path d="m516.8 231.2 2 2z" fill="#f9d099"/><path d="m453.9 233.2 2 2z" fill="#f9d6aa"/><path d="m476.2 233.2 2 2z" fill="#fcf1e4"/><path d="m486.3 233.2 2 2z" fill="#fae3c9"/><path d="m488.3 233.2 2 2z" fill="#fea522"/><path d="m490.4 233.2 2 2z" fill="#fcb144"/><path d="m492.4 233.2 2 2z" fill="#f9d6aa"/><path d="m512.7 233.2 2 2z" fill="#fef8f1"/><path d="m514.7 233.2 2 2z" fill="#fea522"/><path d="m516.8 233.2 2 2z" fill="#fdab33"/><path d="m453.9 235.2-2.1 6 2-6z" fill="#faca88"/><path d="m474 235.2 2 2z" fill="#fea522"/><path d="m476.2 235.2 2 2z" fill="#fef8f1"/><path d="m486.3 235.2 2 2z" fill="#f9d099"/><path d="m494.4 235.2 2 2z" fill="#fdab33"/><path d="m496.5 235.2 2 2z" fill="#fae3c9"/><path d="m514.7 235.2 2 2z" fill="#f8dcbb"/><path d="m516.8 235.2 2 2z" fill="#f90"/><path d="m519.5 236.6.6 1.3z" fill="#fbead6"/><path d="m478.2 237.2 2 2z" fill="#fea522"/><path d="m480.2 237.2 2 2z" fill="#fbbe66"/><path d="m482.3 237.2 2 2z" fill="#faca88"/><path d="m484.3 237.2 2 2z" fill="#fcb144"/><path d="m486.3 237.2 2 2z" fill="#fae3c9"/><path d="m488.3 237.2 2 2z" fill="#fe9f11"/><path d="m498.5 237.2 2 2z" fill="#fdab33"/><path d="m500.5 237.2 2 2z" fill="#fbc477"/><path d="m502.5 237.2 2 2z" fill="#faca88"/><path d="m504.6 237.2 2 2z" fill="#f9d6aa"/><path d="m507.9 237.9 1.4.7-1.3-.7z" fill="#fae3c9"/><path d="m510.7 237.2 2 2z" fill="#fef8f1"/><path d="m516.8 237.2 2 2z" fill="#fbc477"/><path d="m429.5 239.3 2 2z" fill="#fef8f1"/><path d="m431.5 239.3 2 2z" fill="#fcf1e4"/><path d="m484.3 239.3 2 2z" fill="#fcb755"/><path d="m488.3 239.3 2 2z" fill="#fbead6"/><path d="m490.4 239.3 2 2z" fill="#fea522"/><path d="m506.6 239.3 2 2z" fill="#fe9f11"/><path d="m508.6 239.3-2 4z" fill="#fcb144"/><path d="m512.7 239.3 2 2z" fill="#fe9f11"/><path d="m514.7 239.3 2 2z" fill="#fbbe66"/><path d="m516.8 239.3 2 2z" fill="#fcf1e4"/><path d="m429.5 241.3 2 2z" fill="#fae3c9"/><path d="m431.5 241.3 4 4z" fill="#fe9f11"/><path d="m433.5 241.3 2 2zm18.3 0 2 2z" fill="#fbead6"/><path d="m453.9 241.3 2 2z" fill="#fae3c9"/><path d="m472 241.3 2 2z" fill="#fe9f11"/><path d="m474 241.3 2 2z" fill="#fbc477"/><path d="m476.2 241.3 2 2z" fill="#fea522"/><path d="m482.3 241.3 2 2z" fill="#fbc477"/><path d="m484.3 241.3 2 2z" fill="#fef8f1"/><path d="m492.4 241.3 2 2z" fill="#fbc477"/><path d="m508.6 241.3 2 2z" fill="#fff"/><path d="m510.7 241.3 2 2z" fill="#fdab33"/><path d="m518.8 241.3 2 2z" fill="#fbc477"/><path d="m429.5 243.3 2 2z" fill="#fef8f1"/><path d="m435.5 243.3 2 2z" fill="#fbead6"/><path d="m445.7 243.3 2 2z" fill="#f9d6aa"/><path d="m455.9 243.3 2 2z" fill="#fe9f11"/><path d="m459.2 244 1.4.7z" fill="#f9d6aa"/><path d="m472 243.3 2 2z" fill="#f8dcbb"/><path d="m478.2 243.3 2 2z" fill="#fcf1e4"/><path d="m494.4 243.3 2 2z" fill="#f9d6aa"/><path d="m508.6 243.3 2 2z" fill="#fdab33"/><path d="m520.9 243.3 2 2z" fill="#fcb755"/><path d="m522.9 243.3 2 2z" fill="#fef8f1"/><path d="m413.2 245.4 2 2z" fill="#53527c"/><path d="m431.5 245.4 2 2z" fill="#fcb755"/><path d="m435.5 245.4 2 2z" fill="#fea522"/><path d="m443.7 245.4 2 2z" fill="#fbead6"/><path d="m447.7 245.4 2 2z" fill="#fe9f11"/><path d="m449.8 245.4 2 2z" fill="#fcf1e4"/><path d="m455.9 245.4 2 2z" fill="#fbbe66"/><path d="m457.9 245.4 2 2z" fill="#fbc477"/><path d="m459.9 245.4 2 2z" fill="#fbbe66"/><path d="m470 245.4 2 2z" fill="#fea522"/><path d="m496.5 245.4 2 2z" fill="#f9d6aa"/><path d="m522.9 245.4 2 2z" fill="#fcb144"/><path d="m555.3 245.4 2 2z" fill="#8d8d5b"/><path d="m419.3 247.4 2 2z" fill="#e5e3af"/><path d="m431.5 247.4 2 2z" fill="#f8dcbb"/><path d="m437.6 247.4 2 2z" fill="#fdab33"/><path d="m443.7 247.4 2 2z" fill="#fe9f11"/><path d="m447.7 247.4 2 2z" fill="#faca88"/><path d="m455.9 247.4 2 2z" fill="#fcf1e4"/><path d="m470 247.4 2 2zm28.5 0 2 2z" fill="#f9d099"/><path d="m524.9 247.4 2 2z" fill="#fbbe66"/><path d="m433.5 249.4 2 2z" fill="#fea522"/><path d="m439.6 249.4 2 2z" fill="#fdab33"/><path d="m441.6 249.4 2 2z" fill="#fea522"/><path d="m445.7 249.4 2 2z" fill="#fe9f11"/><path d="m447.7 249.4 2 2z" fill="#fef8f1"/><path d="m457.9 249.4 2 2z" fill="#fbbe66"/><path d="m470 249.4 2 2z" fill="#fef8f1"/><path d="m500.5 249.4 2 2z" fill="#fbbe66"/><path d="m526.9 249.4 2 2z" fill="#f9d099"/><path d="m433.5 251.5 2 2z" fill="#f9d6aa"/><path d="m445.7 251.5 2 2z" fill="#f9d099"/><path d="m457.9 251.5 2 2z" fill="#fcf1e4"/><path d="m468 251.5 2 2zm34.5 0 2 2z" fill="#fdab33"/><path d="m528.9 251.5 2 2z" fill="#fbead6"/><path d="m435.5 253.5 2 2z" fill="#fea522"/><path d="m443.7 253.5 2 2z" fill="#fe9f11"/><path d="m459.9 253.5 2 2z" fill="#fcb144"/><path d="m468 253.5 2 2z" fill="#faca88"/><path d="m502.5 253.5 2 2z" fill="#f8dcbb"/><path d="m528.9 253.5 2 2z" fill="#fcb144"/><path d="m419.3 255.6 2 2z" fill="#d3d079"/><path d="m435.5 255.6 2 2zm24.4 0 2 2z" fill="#faca88"/><path d="m468 255.6 2 2zm34.5 0 2 2z" fill="#fae3c9"/><path d="m530.9 255.6 2 2z" fill="#f8dcbb"/><path d="m549.2 255.6 2 2z" fill="#f2f1d7"/><path d="m556 256.9.7 1.3z" fill="#58587b"/><path d="m419.9 258.9.8 1.4-.7-1.4z" fill="#d9d868"/><path d="m435.5 257.6 2 2z" fill="#f8dcbb"/><path d="m500.5 257.6 2 2z" fill="#f9d6aa"/><path d="m502.5 257.6 2 2z" fill="#fe9f11"/><path d="m530.9 257.6 2 2z" fill="#fcb144"/><path d="m549.9 258.9.7 1.4z" fill="#f2f1d2"/><path d="m435.5 259.6 2 2z" fill="#fcf1e4"/><path d="m498.5 259.6 2 2z" fill="#fef8f1"/><path d="m500.5 259.6 2 2z" fill="#fe9f11"/><path d="m506.6 259.6-2 4z" fill="#fdab33"/><path d="m508.6 259.6 2 2z" fill="#fcb755"/><path d="m533 259.6 2 2z" fill="#fea522"/><path d="m535 259.6 2 2z" fill="#f9d099"/><path d="m555.3 259.6 2 2z" fill="#53527c"/><path d="m415.9 263 .7 1.3z" fill="#808067"/><path d="m437.6 261.6 2 2zm6 0 2 2z" fill="#fea522"/><path d="m466 261.6 2 2z" fill="#fe9f11"/><path d="m498.5 261.6 2 2z" fill="#fae3c9"/><path d="m506.6 261.6 2 2z" fill="#fef8f1"/><path d="m510.7 261.6 2 2z" fill="#fcb144"/><path d="m537 261.6 2 2z" fill="#fcb755"/><path d="m539 261.6 4 4z" fill="#fef8f1"/><path d="m549.9 263 .7 1.3z" fill="#e5e59d"/><path d="m556 263 .7 1.3z" fill="#32327b"/><path d="m438.3 265 .6 1.4z" fill="#fcb755"/><path d="m445.7 263.6 2 2z" fill="#fef8f1"/><path d="m466 263.6 2 2z" fill="#fbbe66"/><path d="m498.5 263.6 2 2z" fill="#fbead6"/><path d="m502.5 263.6 2 2z" fill="#fe9f11"/><path d="m504.6 263.6 2 2z" fill="#fcf1e4"/><path d="m510.7 263.6 2 2z" fill="#fbead6"/><path d="m539 263.6 2 2z" fill="#fdab33"/><path d="m415.3 265.6 2 2z" fill="#667"/><path d="m421.3 265.6 2 2z" fill="#f6f6e4"/><path d="m445.7 265.6 2 2z" fill="#f9d6aa"/><path d="m461.9 265.6 2 2z" fill="#fdab33"/><path d="m463.9 265.6 2 2z" fill="#fe9f11"/><path d="m466 265.6 2 2z" fill="#fcf1e4"/><path d="m500.5 265.6 2 2z" fill="#fea522"/><path d="m502.5 265.6 2 2zm10.2 0 2 2z" fill="#faca88"/><path d="m541 265.6 2 2z" fill="#fcb144"/><path d="m549.2 265.6 2 2z" fill="#dddc7a"/><path d="m415.3 267.7 2 2z" fill="#58587b"/><path d="m421.3 267.7 2 2z" fill="#f2f1d2"/><path d="m438.3 269 .6 1.4z" fill="#fcb144"/><path d="m445.7 267.7 2 2z" fill="#fea522"/><path d="m466 267.7 2 2z" fill="#fef8f1"/><path d="m468 267.7 2 2z" fill="#fea522"/><path d="m472 267.7 2 2z" fill="#fcb144"/><path d="m474 267.7 2 2z" fill="#fbead6"/><path d="m500.5 267.7 2 2z" fill="#f8dcbb"/><path d="m502.5 267.7 2 2z" fill="#fcf1e4"/><path d="m512.7 267.7 2 2z" fill="#fef8f1"/><path d="m514.7 267.7 2 2z" fill="#fe9f11"/><path d="m543.2 267.7 2 2z" fill="#fbead6"/><path d="m549.2 267.7 2 2z" fill="#d9d868"/><path d="m415.3 269.7 2 2z" fill="#3a3a7c"/><path d="m421.3 269.7 2 2z" fill="#e5e3af"/><path d="m447.7 269.7 2 2z" fill="#faca88"/><path d="m468 269.7 2 2z" fill="#fbead6"/><path d="m474 269.7 2 2z" fill="#fe9f11"/><path d="m476.2 269.7 2 2z" fill="#fcf1e4"/><path d="m498.5 269.7 2 2z" fill="#fbead6"/><path d="m500.5 269.7 2 2z" fill="#fae3c9"/><path d="m502.5 269.7 2 2z" fill="#fbead6"/><path d="m514.7 269.7 2 2zm16.3 0 2 2z" fill="#fbbe66"/><path d="m533 269.7 2 2z" fill="#fcf1e4"/><path d="m535 269.7 2 2z" fill="#fef8f1"/><path d="m537 269.7 2 2z" fill="#f8dcbb"/><path d="m539 269.7 2 2z" fill="#fcb755"/><path d="m543.2 269.7 2 2z" fill="#fae3c9"/><path d="m553.3 269.7 2 2z" fill="#808067"/><path d="m415.3 271.8 2 2z" fill="#32327b"/><path d="m417.9 273 .7 1.5-.6-1.4z" fill="#a4a43d"/><path d="m421.3 271.8 2 2z" fill="#e5e59d"/><path d="m437.6 271.8 2 2z" fill="#fbc477"/><path d="m449.8 271.8 2 2z" fill="#f9d6aa"/><path d="m470 271.8 2 2z" fill="#fbbe66"/><path d="m476.2 271.8 2 2z" fill="#f9d099"/><path d="m494.4 271.8 2 2z" fill="#fae3c9"/><path d="m496.5 271.8 2 2z" fill="#fcb144"/><path d="m504.6 271.8 2 2z" fill="#fae3c9"/><path d="m514.7 271.8 2 2z" fill="#f8dcbb"/><path d="m530.9 271.8 2 2z" fill="#f9d099"/><path d="m541 271.8 2 2z" fill="#fbc477"/><path d="m543.2 271.8 2 2z" fill="#fbead6"/><path d="m553.3 271.8 2 2z" fill="#737370"/><path d="m421.3 273.8 2 2z" fill="#d9d868"/><path d="m437.6 273.8 2 2z" fill="#f9d099"/><path d="m451.8 273.8 2 2zm18.3 0 2 2z" fill="#f9d6aa"/><path d="m476.2 273.8 2 2z" fill="#fbc477"/><path d="m486.3 273.8 2 2z" fill="#fef8f1"/><path d="m488.3 273.8 2 2z" fill="#f8dcbb"/><path d="m490.4 273.8 2 2z" fill="#fbc477"/><path d="m492.4 273.8 2 2z" fill="#fea522"/><path d="m504.6 273.8 2 2z" fill="#fbead6"/><path d="m547.2 273.8 2 2z" fill="#f2f1d2"/><path d="m553.3 273.8 2 2z" fill="#58587b"/><path d="m417.3 275.8 2 2z" fill="#99994e"/><path d="m421.3 275.8 2 2z" fill="#d0d045"/><path d="m453.9 275.8 2 2z" fill="#fcb144"/><path d="m455.9 275.8 2 2z" fill="#fae3c9"/><path d="m470 275.8 2 2z" fill="#fef8f1"/><path d="m478.2 275.8 2 2z" fill="#fcb755"/><path d="m480.2 275.8 2 2z" fill="#fbc477"/><path d="m482.3 275.8 2 2z" fill="#fcb144"/><path d="m484.3 275.8 2 2z" fill="#fea522"/><path d="m500.5 275.8 2 2z" fill="#fe9f11"/><path d="m502.5 275.8 2 2z" fill="#f9d6aa"/><path d="m530.9 275.8 2 2z" fill="#fef8f1"/><path d="m547.2 275.8 2 2z" fill="#e0dea1"/><path d="m553.3 275.8 2 2z" fill="#3a3a7c"/><path d="m417.3 277.9 2 2z" fill="#737370"/><path d="m423.4 277.9 2 2z" fill="#fbfaf2"/><path d="m439.6 277.9 2 2z" fill="#fea522"/><path d="m457.9 277.9 2 2z" fill="#fe9f11"/><path d="m459.9 277.9 2 2z" fill="#fcb144"/><path d="m461.9 277.9 2 2z" fill="#fbc477"/><path d="m463.9 277.9 2 2z" fill="#faca88"/><path d="m466 277.9 2 2z" fill="#fbc477"/><path d="m468 277.9 2 2z" fill="#fcb144"/><path d="m470 277.9 2 2z" fill="#fdab33"/><path d="m498.5 277.9 2 2z" fill="#fbc477"/><path d="m500.5 277.9 2 2z" fill="#fef8f1"/><path d="m528.9 277.9 2 2z" fill="#fdab33"/><path d="m547.2 277.9 2 2z" fill="#e1e18c"/><path d="m551.9 279.2.7 1.4z" fill="#a4a43d"/><path d="m553.3 277.9 2 2z" fill="#262678"/><path d="m417.3 279.9 2 2z" fill="#58587b"/><path d="m423.4 279.9 2 2z" fill="#f2f1d2"/><path d="m439.6 279.9 2 2z" fill="#faca88"/><path d="m494.4 279.9 2 2z" fill="#fe9f11"/><path d="m496.5 279.9 2 2z" fill="#fbead6"/><path d="m514.7 279.9 2 2z" fill="#fbc477"/><path d="m528.9 279.9 2 2z" fill="#faca88"/><path d="m547.2 279.9 2 2z" fill="#d4d456"/><path d="m417.3 281.9 2 2z" fill="#32327b"/><path d="m423.4 281.9 2 2z" fill="#e5e59d"/><path d="m439.6 281.9 2 2z" fill="#fef8f1"/><path d="m441.6 281.9 2 2z" fill="#fe9f11"/><path d="m494.4 281.9 2 2z" fill="#fbead6"/><path d="m514.7 281.9 2 2z" fill="#fea522"/><path d="m528.9 281.9 2 2z" fill="#fcf1e4"/><path d="m551.3 281.9 2 2z" fill="#808067"/><path d="m417.3 283.9 2 2z" fill="#0e0e6e"/><path d="m419.3 283.9 2 2z" fill="#a4a43d"/><path d="m423.4 283.9 2 2z" fill="#d9d868"/><path d="m441.6 283.9 2 2z" fill="#f8dcbb"/><path d="m512.7 283.9 2 2z" fill="#f9d6aa"/><path d="m526.9 283.9 2 2z" fill="#faca88"/><path d="m545.2 283.9 2 2z" fill="#f2f1d2"/><path d="m551.3 283.9 2 2z" fill="#58587b"/><path d="m419.3 286 2 2z" fill="#8d8d5b"/><path d="m443.7 286 2 2z" fill="#f9d6aa"/><path d="m484.3 286 2 2z" fill="#fdab33"/><path d="m486.3 286 2 2z" fill="#fff"/><path d="m489.7 286.6 1.4.7z" fill="#fcb144"/><path d="m510.7 286-2 4z" fill="#fef8f1"/><path d="m512.7 286 2 2z" fill="#fe9f11"/><path d="m524.9 286-2 4z" fill="#fdab33"/><path d="m545.2 286 2 2z" fill="#e5e59d"/><path d="m551.3 286 2 2z" fill="#3a3a7c"/><path d="m419.3 288 2 2z" fill="#667"/><path d="m425.4 288 2 2z" fill="#f2f1d2"/><path d="m445.7 288 2 2z" fill="#f9d6aa"/><path d="m484.3 288 2 2z" fill="#fe9f11"/><path d="m486.3 288 2 2z" fill="#faca88"/><path d="m488.3 288 2 2z" fill="#fea522"/><path d="m490.4 288 2 2z" fill="#fcf1e4"/><path d="m510.7 288 2 2z" fill="#fdab33"/><path d="m524.9 288 2 2z" fill="#fef8f1"/><path d="m545.2 288 2 2z" fill="#d9d868"/><path d="m549.2 288 2 2z" fill="#a4a43d"/><path d="m551.3 288 2 2z" fill="#0e0e6e"/><path d="m419.3 290 2 2z" fill="#3a3a7c"/><path d="m425.4 290 2 2z" fill="#e5e59d"/><path d="m447.7 290 4 4z" fill="#fae3c9"/><path d="m449.8 290 2 2z" fill="#fe9f11"/><path d="m488.3 290 2 2z" fill="#f8dcbb"/><path d="m506.6 290 2 2z" fill="#fcf1e4"/><path d="m508.6 290 2 2z" fill="#fdab33"/><path d="m520.9 290 2 2z" fill="#fcb144"/><path d="m522.9 290 2 2z" fill="#fef8f1"/><path d="m543.2 290 2 2z" fill="#fbfaf2"/><path d="m549.2 290 2 2z" fill="#8d8d5b"/><path d="m419.3 292 2 2z" fill="#0e0e6e"/><path d="m421.3 292 2 2z" fill="#a4a43d"/><path d="m425.4 292 2 2z" fill="#d4d456"/><path d="m486.3 292 2 2z" fill="#f9d6aa"/><path d="m504.6 292 2 2z" fill="#f9d099"/><path d="m506.6 292 2 2z" fill="#fe9f11"/><path d="m518.8 292 2 2z" fill="#faca88"/><path d="m543.2 292 2 2z" fill="#eeedc1"/><path d="m549.2 292 2 2z" fill="#58587b"/><path d="m421.3 294 2 2z" fill="#737370"/><path d="m427.4 294 2 2z" fill="#f6f6e4"/><path d="m449.8 294 2 2z" fill="#fbbe66"/><path d="m482.3 294 2 2z" fill="#fcb144"/><path d="m484.9 295.5.7 1.3z" fill="#f8dcbb"/><path d="m500.5 294 2 2z" fill="#fbbe66"/><path d="m502.5 294 2 2z" fill="#fe9f11"/><path d="m514.7 294 2 2z" fill="#fbc477"/><path d="m516.8 294 2 2z" fill="#fcf1e4"/><path d="m543.2 294 2 2z" fill="#d3d079"/><path d="m547.2 294 2 2z" fill="#a4a43d"/><path d="m549.2 294 2 2z" fill="#262678"/><path d="m421.3 296 2 2z" fill="#49497d"/><path d="m427.4 296 2 2z" fill="#e0dea1"/><path d="m447.7 296 2 2z" fill="#fae3c9"/><path d="m476.2 296 2 2z" fill="#fdab33"/><path d="m478.2 296 2 2z" fill="#fbc477"/><path d="m480.2 296 2 2z" fill="#fbead6"/><path d="m486.3 296 2 2z" fill="#fcb144"/><path d="m512.7 296 2 2z" fill="#f9d6aa"/><path d="m547.2 296 2 2z" fill="#99994e"/><path d="m421.3 298.2 2 2z" fill="#0e0e6e"/><path d="m423.4 298.2 2 2z" fill="#a4a43d"/><path d="m427.4 298.2 2 2z" fill="#d4d456"/><path d="m445.7 298.2 2 2z" fill="#f9d099"/><path d="m447.7 298.2 2 2zm10.2 0 2 2z" fill="#fe9f11"/><path d="m459.9 298.2 2 2z" fill="#f9d6aa"/><path d="m461.9 298.2 2 2z" fill="#f9d099"/><path d="m470 298.2 2 2z" fill="#f9d6aa"/><path d="m472 298.2 2 2z" fill="#fae3c9"/><path d="m474 298.2 2 2z" fill="#fef8f1"/><path d="m490.4 298.2 2 2z" fill="#fbead6"/><path d="m492.4 298.2 2 2z" fill="#fae3c9"/><path d="m494.4 298.2 2 2z" fill="#faca88"/><path d="m496.5 298.2 2 2z" fill="#fbc477"/><path d="m498.5 298.2 2 2z" fill="#fdab33"/><path d="m508.6 298.2 2 2z" fill="#fe9f11"/><path d="m510.7 298.2 2 2z" fill="#f9d6aa"/><path d="m541 298.2 2 2z" fill="#e5e3af"/><path d="m547.2 298.2 2 2z" fill="#667"/><path d="m423.4 300.2 2 2z" fill="#737370"/><path d="m429.5 300.2 2 2z" fill="#f2f1d7"/><path d="m443.7 300.2 2 2z" fill="#fea522"/><path d="m453.9 300.2 2 2z" fill="#fe9f11"/><path d="m455.9 300.2 2 2z" fill="#fbbe66"/><path d="m457.9 300.2 2 2z" fill="#fcf1e4"/><path d="m506.6 300.2 2 2z" fill="#fea522"/><path d="m508.6 300.2 2 2z" fill="#fbead6"/><path d="m541 300.2 2 2z" fill="#dddc7a"/><path d="m545.2 300.2 2 2z" fill="#a4a43d"/><path d="m547.2 300.2 2 2z" fill="#262678"/><path d="m423.4 302.2 2 2z" fill="#49497d"/><path d="m426 303.6.8 1.3z" fill="#a4a43d"/><path d="m429.5 302.2 2 2z" fill="#d3d079"/><path d="m445.7 302.2 2 2z" fill="#f9d099"/><path d="m447.7 302.2 2 2z" fill="#fcb144"/><path d="m449.8 302.2 2 2z" fill="#faca88"/><path d="m451.8 302.2 2 2z" fill="#f8dcbb"/><path d="m453.9 302.2 2 2z" fill="#fef8f1"/><path d="m498.5 302.2 2 2z" fill="#f8dcbb"/><path d="m506.6 302.2 2 2z" fill="#fcf1e4"/><path d="m539 302.2 2 2z" fill="#f6f6e4"/><path d="m545.2 302.2 2 2z" fill="#8d8d5b"/><path d="m431.5 304.2 2 2z" fill="#fbfaf2"/><path d="m498.5 304.2 2 2z" fill="#fbbe66"/><path d="m504.6 304.2 2 2z" fill="#faca88"/><path d="m539 304.2 2 2z" fill="#e1e18c"/><path d="m545.2 304.2 2 2z" fill="#49497d"/><path d="m425.4 306.3 2 2z" fill="#58587b"/><path d="m431.5 306.3 2 2z" fill="#e5e59d"/><path d="m498.5 306.3 2 2z" fill="#fe9f11"/><path d="m502.5 306.3 2 2z" fill="#fdab33"/><path d="m537 306.3 2 2z" fill="#fbfaf2"/><path d="m543.2 306.3 2 2z" fill="#a4a43d"/><path d="m545.2 306.3 2 2z" fill="#0e0e6e"/><path d="m425.4 308.3 2 2z" fill="#1b1b74"/><path d="m427.4 308.3 2 2z" fill="#a4a43d"/><path d="m431.5 308.3 2 2z" fill="#d0d045"/><path d="m496.5 308.3 2 2z" fill="#fbead6"/><path d="m500.5 308.3 2 2z" fill="#fe9f11"/><path d="m502.5 308.3 2 2z" fill="#fbead6"/><path d="m537 308.3 2 2z" fill="#e5e59d"/><path d="m543.2 308.3 2 2z" fill="#667"/><path d="m427.4 310.3 2 2z" fill="#6e6c70"/><path d="m433.5 310.3 2 2z" fill="#e5e3af"/><path d="m497 311.7.8 1.4z" fill="#faca88"/><path d="m500.5 310.3 2 2z" fill="#fae3c9"/><path d="m535 310.3 2 2z" fill="#fbfaf2"/><path d="m541 310.3 2 2z" fill="#a4a43d"/><path d="m543.2 310.3 2 2zm-115.8 2 2 2z" fill="#1b1b74"/><path d="m429.5 312.4 2 2z" fill="#a4a43d"/><path d="m433.5 312.4 2 2z" fill="#d0d045"/><path d="m435.5 312.4 2 2z" fill="#fbfaf2"/><path d="m498.5 312.4 2 2z" fill="#f9d6aa"/><path d="m535 312.4 2 2z" fill="#e5e59d"/><path d="m541 312.4 2 2zm-111.5 2 2 2z" fill="#6e6c70"/><path d="m435.5 314.4 2 2z" fill="#8cbf84"/><path d="m436.4 314.4c7 14.8 32 49.8 51 49.2 18.6-.7 39.5-35 47.6-49.2z" fill="#0cf"/><path d="m539 314.4 2 2z" fill="#a4a43d"/><path d="m541 314.4 2 2zm-111.5 2 2 2z" fill="#1b1b74"/><path d="m431.5 316.4 2 2z" fill="#a4a43d"/><path d="m435.5 316.4 2 2z" fill="#adb333"/><path d="m437.6 316.4 2 2z" fill="#1ac5b5"/><path d="m533 316.4 2 2z" fill="#68b070"/><path d="m539 316.4 2 2z" fill="#667"/><path d="m431.5 318.5 2 2z" fill="#58587b"/><path d="m437.6 318.5 2 2z" fill="#7fb15c"/><path d="m530.9 318.5 2 2z" fill="#27c2aa"/><path d="m537 318.5-2 4z" fill="#a4a43d"/><path d="m539 318.5 2 2zm-107.5 2 2 2z" fill="#0e0e6e"/><path d="m433.5 320.5 4 4z" fill="#a4a43d"/><path d="m439.6 320.5 2 2z" fill="#34be9e"/><path d="m530.9 320.5 2 2z" fill="#96b247"/><path d="m537 320.5 2 2z" fill="#53527c"/><path d="m433.5 322.6 2 2z" fill="#3a3a7c"/><path d="m439.6 322.6 2 2z" fill="#a2b23d"/><path d="m441.6 322.6 2 2z" fill="#0dc9c1"/><path d="m528.9 322.6 2 2z" fill="#5bb47c"/><path d="m535 322.6 2 2z" fill="#8d8d5b"/><path d="m435.5 324.6 2 2z" fill="#737370"/><path d="m441.6 324.6 2 2z" fill="#74b166"/><path d="m526.9 324.6 2 2z" fill="#27c2aa"/><path d="m533 324.6-2 4z" fill="#a4a43d"/><path d="m535 324.6 2 2z" fill="#262678"/><path d="m435.5 326.6 2 2z" fill="#0e0e6e"/><path d="m437.6 326.6 4 4z" fill="#a4a43d"/><path d="m443.7 326.6 2 2z" fill="#42bb92"/><path d="m524.9 326.6 2 2z" fill="#0dc9c1"/><path d="m526.9 326.6 2 2z" fill="#96b247"/><path d="m533 326.6 2 2z" fill="#58587b"/><path d="m437.6 328.6 2 2z" fill="#3a3a7c"/><path d="m443.7 328.6 2 2z" fill="#adb333"/><path d="m445.7 328.6 2 2z" fill="#27c2aa"/><path d="m524.9 328.6 2 2z" fill="#74b166"/><path d="m530.9 328.6 2 2z" fill="#8d8d5b"/><path d="m439.6 330.6 2 2z" fill="#6e6c70"/><path d="m445.7 330.6 2 2z" fill="#96b247"/><path d="m447.7 330.6 2 2z" fill="#0dc9c1"/><path d="m522.9 330.6 2 2z" fill="#42bb92"/><path d="m528.9 330.6-4 6z" fill="#a4a43d"/><path d="m530.9 330.6 2 2z" fill="#1b1b74"/><path d="m439.6 332.6 2 2z" fill="#0e0e6e"/><path d="m441.6 332.6 2 2z" fill="#8d8d5b"/><path d="m447.7 332.6 2 2z" fill="#7fb15c"/><path d="m520.9 332.6 2 2z" fill="#34be9e"/><path d="m528.9 332.6 2 2z" fill="#3a3a7c"/><path d="m441.6 334.7 2 2z" fill="#1b1b74"/><path d="m443.7 334.7 22.3 22.3z" fill="#a4a43d"/><path d="m449.8 334.7 2 2z" fill="#74b166"/><path d="m518.8 334.7 2 2z" fill="#27c2aa"/><path d="m520.9 334.7 2 2z" fill="#adb333"/><path d="m526.9 334.7 2 2z" fill="#667"/><path d="m443.7 336.7 2 2z" fill="#32327b"/><path d="m451.8 336.7 2 2z" fill="#42bb92"/><path d="m516.8 336.7-8.2 10.2 8.3-10.3z" fill="#0dc9c1"/><path d="m518.8 336.7 2 2z" fill="#adb333"/><path d="m524.9 336.7 2 2z" fill="#737370"/><path d="m445.7 338.8 2 2z" fill="#49497d"/><path d="m453.9 338.8 2 2z" fill="#42bb92"/><path d="m516.8 338.8 2 2z" fill="#96b247"/><path d="m522.9 338.8-2 4z" fill="#8d8d5b"/><path d="m524.9 338.8 2 2z" fill="#0e0e6e"/><path d="m447.7 340.8 2 2z" fill="#53527c"/><path d="m455.9 340.8 2 2z" fill="#42bb92"/><path d="m514.7 340.8 2 2z" fill="#96b247"/><path d="m522.9 340.8 2 2z" fill="#0e0e6e"/><path d="m449.8 342.8 2 2z" fill="#6e6c70"/><path d="m457.9 342.8 2 2z" fill="#42bb92"/><path d="m512.7 342.8 2 2z" fill="#96b247"/><path d="m518.8 342.8-4 6z" fill="#a4a43d"/><path d="m520.9 342.8 2 2z" fill="#262678"/><path d="m451.8 344.9 2 2z" fill="#6e6c70"/><path d="m459.9 344.9 2 2z" fill="#42bb92"/><path d="m510.7 344.9 2 2z" fill="#96b247"/><path d="m518.8 344.9 2 2z" fill="#262678"/><path d="m453.9 346.9 2 2z" fill="#6e6c70"/><path d="m461.9 346.9 2 2z" fill="#68b070"/><path d="m506.6 346.9 2 2z" fill="#27c2aa"/><path d="m508.6 346.9 2 2z" fill="#adb333"/><path d="m516.8 346.9 2 2z" fill="#262678"/><path d="m455.9 348.9 2 2z" fill="#667"/><path d="m463.9 348.9 2 2z" fill="#74b166"/><path d="m504.6 348.9 2 2z" fill="#34be9e"/><path d="m506.6 348.9 2 2z" fill="#adb333"/><path d="m512.7 348.9-2 4z" fill="#8d8d5b"/><path d="m514.7 348.9 2 2z" fill="#262678"/><path d="m457.9 350.9 2 2z" fill="#49497d"/><path d="m466 350.9 2 2z" fill="#96b247"/><path d="m468 350.9 2 2z" fill="#0dc9c1"/><path d="m502.5 350.9 2 2z" fill="#42bb92"/><path d="m512.7 350.9 2 2z" fill="#0e0e6e"/><path d="m459.9 353 2 2z" fill="#49497d"/><path d="m468 353 2 2z" fill="#a2b23d"/><path d="m470 353 2 2z" fill="#27c2aa"/><path d="m500.5 353 2 2z" fill="#74b166"/><path d="m506.6 353-6 8z" fill="#a4a43d"/><path d="m508.6 353 2 2z" fill="#808067"/><path d="m510.7 353 2 2z" fill="#0e0e6e"/><path d="m461.9 355 2 2z" fill="#262678"/><path d="m470 355 2 2z" fill="#adb333"/><path d="m472 355 2 2z" fill="#42bb92"/><path d="m496.5 355 2 2z" fill="#0dc9c1"/><path d="m498.5 355 2 2z" fill="#96b247"/><path d="m506.6 355 2 2z" fill="#6e6c70"/><path d="m463.9 357 2 2z" fill="#1b1b74"/><path d="m466 357 2 2z" fill="#8d8d5b"/><path d="m474 357 2 2z" fill="#74b166"/><path d="m476.2 357 2 2z" fill="#0dc9c1"/><path d="m494.4 357 2 2z" fill="#34be9e"/><path d="m496.5 357 2 2z" fill="#adb333"/><path d="m504.6 357 2 2z" fill="#49497d"/><path d="m466 359 2 2z" fill="#0e0e6e"/><path d="m468 359 2 2z" fill="#6e6c70"/><path d="m470 359 4 4z" fill="#a4a43d"/><path d="m476.2 359 2 2z" fill="#96b247"/><path d="m478.2 359 2 2z" fill="#27c2aa"/><path d="m492.4 359 2 2z" fill="#68b070"/><path d="m502.5 359 2 2z" fill="#32327b"/><path d="m470 361 2 2z" fill="#49497d"/><path d="m480.2 361 2 2z" fill="#5bb47c"/><path d="m488.3 361 2 2z" fill="#27c2aa"/><path d="m490.4 361 2 2z" fill="#96b247"/><path d="m496.5 361-2 4z" fill="#a4a43d"/><path d="m498.5 361 2 2z" fill="#808067"/><path d="m500.5 361 2 2z" fill="#0e0e6e"/><path d="m472 363 2 2z" fill="#262678"/><path d="m474 363 2 2z" fill="#8d8d5b"/><path d="m482.3 363 2 2z" fill="#8bb252"/><path d="m484.3 363 2 2z" fill="#1ac5b5"/><path d="m486.3 363 2 2z" fill="#5bb47c"/><path d="m496.5 363 2 2z" fill="#58587b"/><path d="m474 365.2 2 2z" fill="#0e0e6e"/><path d="m476.2 365.2 2 2z" fill="#667"/><path d="m478.2 365.2 2 2z" fill="#a4a43d"/><path d="m492.4 365.2 2 2z" fill="#99994e"/><path d="m494.4 365.2 2 2zm-16.2 2 2 2z" fill="#32327b"/><path d="m480.2 367.2 2 2z" fill="#99994e"/><path d="m488.3 367.2 2 2z" fill="#a4a43d"/><path d="m490.4 367.2 2 2z" fill="#667"/><path d="m492.4 367.2 2 2zm-12.2 2 2 2z" fill="#0e0e6e"/><path d="m482.3 369.2 2 2z" fill="#667"/><path d="m484.3 369.2 2 2z" fill="#a4a43d"/><path d="m486.3 369.2 2 2z" fill="#99994e"/><path d="m488.3 369.2 2 2z" fill="#32327b"/><path d="m484.3 371.2 2 2z" fill="#262678"/><path d="m486.3 371.2 2 2z" fill="#0e0e6e"/><path d="m488.3 235.2c3.2 7.4 13.2 15.5 16 19.5-3.5 4-4.2 3.6-3.8 11 6-6.4 6.2-7 10.2-6.1 8.6 8.6 1.5 27-5.6 31-7.1 4.3-5.8-.1-16.5 5.2 4.9 4.2 10.6-.6 15.2.7 2.5 3-1.2 8.4.7 13.6 4-.4 3.6-8.7 4.6-11.7 3-11 21-18.6 21.9-28.7 3.8-1.7 7.5-.5 12 2-2.2-9.4-9.7-9.3-11.8-12.2-4.8-7.4-9.1-15.8-19.4-18-8-1.7-7.3.5-12.3-3-3.2-2.4-12.7-7-11.2-3.3z" fill="#f90"/><path d="m510.9 243.6a1.6 1.6 0 1 1 -3.3 0 1.6 1.6 0 0 1 3.3 0z" fill="#fff" fill-rule="evenodd"/><path d="m463.2 266.5c5-6.2 7.6-19 9.8-23.2 5.2 1.2 5 2 11.5-1.8-8.5-2.4-9.2-2.2-10.2-6.1 3.6-11.7 23.2-14 30-9.6 7.2 4.3 2.7 5.2 12.4 12 1.4-6.2-5.5-9-6.5-13.6 1.5-3.7 8-3 11.6-7-2.2-3.5-9.3.8-12.4 1.4-11 2.5-26.3-9.8-35.6-6-3.3-2.5-4-6.4-4-11.7-7.1 6.5-3.5 13-5.2 16.3-4.2 7.7-9.7 15.5-6.8 25.6 2.2 7.8 3.8 6.2 3.2 12.3-.7 3.9-.4 14.5 2.2 11.4z" fill="#f90"/><path d="m460 242.6c.9-.4 1.9-.1 2.3.7a1.6 1.6 0 1 1 -2.2-.7z" fill="#fff" fill-rule="evenodd"/><path d="m504.3 270.8c-8-1-20.1 3.3-25 3.7-1.5-5.1-.8-5.5-7.4-9 2.3 8.6 2.8 9 0 12-11.8 2.9-24-12.7-23.8-20.8 0-8.3 3.2-5 4-17-6 2-4.8 9.5-8.3 12.8-4 .6-6.6-5.3-12-6.3-1.8 3.7 5.5 7.5 7.6 9.9 7.9 8.2 5.2 27.5 13.3 33.5-.4 4.2-3.4 6.8-8 9.4 9.3 2.9 13-3.7 16.7-4 8.8-.2 18.3.4 25.5-7.3 5.4-6 3.3-6.5 8.8-9 3.7-1.4 12.6-7.2 8.6-8z" fill="#f90"/><path d="m485.5 285.9a1.6 1.6 0 1 1 1.7-2.8 1.6 1.6 0 0 1 -1.7 2.8z" fill="#fff" fill-rule="evenodd"/><g stroke-width=".5"><path d="m0 0h320v240h-320z" fill="#012169"/><path d="m37.5 0 122 90.5 121.5-90.5h39v31l-120 89.5 120 89v30.5h-40l-120-89.5-119.5 89.5h-40.5v-30l119.5-89-119.5-89v-32z" fill="#fff"/><path d="m212 140.5 108 79.5v20l-135.5-99.5zm-92 10 3 17.5-96 72h-27zm200-150.5v1.5l-124.5 94 1-22 98.5-73.5zm-320 0 119.5 88h-30l-89.5-67z" fill="#c8102e"/><path d="m120.5 0v240h80v-240zm-120.5 80v80h320v-80z" fill="#fff"/><path d="m0 96.5v48h320v-48zm136.5-96.5v240h48v-240z" fill="#c8102e"/></g></svg>