<svg xmlns="http://www.w3.org/2000/svg" xmlns:xlink="http://www.w3.org/1999/xlink" id="flag-icons-ai" viewBox="0 0 640 480">
  <defs>
    <path d="M271 87c1.54 3.63 6.49 7.64 7.85 9.6-1.73 1.97-2.08 1.75-1.85 5.4 3.01-3.15 3.06-3.48 5-3 4.24 4.23.76 13.32-2.75 15.3-3.5 2.1-2.86-.08-8.12 2.57 2.41 2.05 5.2-.3 7.48.32 1.24 1.47-.59 4.15.38 6.68 2.01-.2 1.77-4.27 2.24-5.74 1.47-5.4 10.32-9.17 10.77-14.13 1.87-.88 3.73-.27 6 1-1.13-4.64-4.87-4.6-5.87-6.04-2.38-3.65-4.5-7.8-9.6-8.89-3.86-.81-3.57.25-6.05-1.44-1.54-1.2-6.23-3.47-5.48-1.63z" fill="#f90" id="ai-b"/>
  </defs>
  <clipPath id="ai-a">
    <path d="M0 0v120h373.33v120H320L0 0Zm320 0H160v280H0v-40L320 0Z"/>
  </clipPath>
  <path d="M0 0h640v480H0V0Z" fill="#012169"/>
  <path d="m0 0 320 240m0-240L0 240" stroke="#fff" stroke-width="50"/>
  <path clip-path="url(#ai-a)" d="m0 0 320 240m0-240L0 240" stroke="#c8102e" stroke-width="30"/>
  <path d="M160 0v280M0 120h373.33" stroke="#fff" stroke-width="75"/>
  <path d="M159.99 0v280M0 120h373.3" stroke="#c8102e" stroke-width="50"/>
  <path d="M0 240h320V0h106.66v320H0v-80Z" fill="#012169"/>
  <path d="M423.92 191.8c0 90.4 9.78 121.55 29.36 142.53 11.68 12.43 16.86 17.1 34.99 29.88 18.13-12.78 23.3-17.45 34.99-29.88 19.58-20.98 29.36-52.13 29.36-142.53-14.24 6.53-22.36 9.7-34.1 9.5-10.51-.17-21.64-5.4-30.25-9.5-8.61 4.1-19.74 9.33-30.25 9.5-11.74.2-19.86-2.97-34.1-9.5z" fill="#fff"/>
  <g transform="matrix(1.96 0 0 2.002 -40.8 62.85)">
    <use xlink:href="#ai-b"/>
    <circle cx="281.32" cy="91.13" fill="#fff" fill-rule="evenodd" r=".81"/>
  </g>
  <g transform="matrix(-.916 -1.77 1.733 -.935 563.42 829.07)">
    <use xlink:href="#ai-b"/>
    <circle cx="281.32" cy="91.13" fill="#fff" fill-rule="evenodd" r=".81"/>
  </g>
  <g transform="matrix(-1.01 1.716 -1.68 -1.031 925.38 -103.22)">
    <use xlink:href="#ai-b"/>
    <circle cx="281.32" cy="91.13" fill="#fff" fill-rule="evenodd" r=".81"/>
  </g>
  <path d="M440.06 315.15a77.92 77.92 0 0 0 13.22 19.19c11.68 12.42 16.86 17.1 34.99 29.87 18.13-12.78 23.3-17.45 34.99-29.87a77.92 77.92 0 0 0 13.22-19.19z" fill="#9cf"/>
  <path d="M421.24 188.2c0 94.17 10.19 126.62 30.58 148.48 12.17 12.94 17.56 17.81 36.45 31.12 18.89-13.3 24.28-18.18 36.44-31.12 20.4-21.86 30.59-54.3 30.59-148.47-14.84 6.8-23.29 10.1-35.52 9.9-10.95-.18-22.54-5.63-31.51-9.9-8.97 4.27-20.57 9.72-31.5 9.9-12.24.2-20.7-3.1-35.53-9.9zm4.02 5.03c13.94 6.43 21.9 9.55 33.4 9.36 10.28-.17 21.18-5.32 29.6-9.36 8.44 4.04 19.34 9.19 29.63 9.36 11.5.19 19.44-2.93 33.39-9.36 0 88.9-9.58 119.53-28.75 140.17-11.44 12.21-16.5 16.81-34.26 29.37-17.76-12.56-22.83-17.16-34.26-29.37-19.17-20.64-28.75-51.27-28.75-140.17z" fill="#fdc301"/>
</svg>
