<svg xmlns="http://www.w3.org/2000/svg" id="flag-icons-as" viewBox="0 0 640 480">
  <defs id="defs147">
    <clipPath id="as-a">
      <path id="path144" fill-opacity=".7" d="M0 0h640v480H0z"/>
    </clipPath>
  </defs>
  <path id="path430" fill="#006" d="M0 0h640v480H0Z" style="stroke-width:.783836"/>
  <path id="path432" fill="#bd1021" d="m-.6 240 640-240v480Z" style="stroke-width:.783836"/>
  <path id="path434" fill="#fff" d="m59.7 240 580-214.3v428.6" style="stroke-width:.789692"/>
  <g id="g572" transform="matrix(.7659 0 0 .7659 -113 57.5)">
    <path id="path436" d="M766.5 278c6.6.4 6.4 7 6.4 7l23.6.6c3-8.3 6.2-7.3 11.9-3.2a42.9 42.9 0 0 0 11.4 5.5c2.3-11.8 19-9.4 19-9.4 7.2-17 7.8-16.8 3.5-19a14 14 0 0 1-6-5.8c-4-4.9-6.1-11.9-6.6-16.2-.5-4.3-5.5 2.1-6.4.8-.9-1.4-8.3-.6-8.3-.6 1.8 2-4.4.8-4.4.8.6.5 0 2.3 0 2.3-.6-.8-5.4-1.6-5.4-1.6-.4 1-1.5 2.1-1.5 2.1-2.6-1-7.7-.9-7.7-.9a26.2 26.2 0 0 0-14.3 3.6c-2.1 1.2-9.7 5-16 11.1-6.2 6-9.7 5.3-9.7 5.3-1.8 6.8-16.7 15-16.7 15-2.4 2.1-9.9 3.1-13.7 0-3.8-3.2 0-9 0-9 1.5-2.6 2.8-2.5 3-11.7.1-6.2 6.5-11.2 13.1-18.4 8.1-8.9 19.4-23.5 19.4-23.5 0 4.5 2.5 5.2 2.5 5.2 2.2-4.5 5.4-8.2 5.4-8.2.2.4.7.6.7.6 2.5-3.4 4-4.7 4-4.7-.8-.4-7.9 0-14.4 5.7-6.6 5.7-11 3.8-11 3.8-4.6-1.5-5-5-5-5-3.3-14.3 9.7-24.5 9.7-24.5-17.5-4.2-4.9-26.5 16.9-36 21.7-9.4 21.5-13.7 21.5-13.7 1.3 1.5 2.3 4 2.3 4 .2-.1 1.8-2.5 14.4-8 12.5-5.6 18.5-10.4 18.5-10.4 1.6 3.1 1.3 5.3 1.3 5.3 34.3-12 68-39.6 68-39.6 1 2.3.5 5.8.5 5.8 5.6-5.2 25.8-17.2 25.8-17.2.3 7.7-6 10.6-6 10.6.7 1.1 1 3.1 1 3.1A470 470 0 0 0 936 77.1c5.7 4.9.6 12.8.6 12.8 2-.3 3.4-2 3.4-2 1.5 8.3-7.7 15.6-7.7 15.6 1.6 0 4.3-1.6 4.3-1.6-1.8 9-18.9 19-18.9 19 2.5 2.3.1 5.2-2 6.6-2 1.3-5.6 4.2-4.5 5.4 1.1 1.2 8.7-4.2 8.7-4.2 1.3 3.8-8.4 11.3-8.4 11.3 6.8.9 25.6-7.7 25.6-7.7-1.5 7.3-8.6 13-17.4 16.3-8.8 3.3-8.3 3.8-8.3 3.8 1.5 1.2 13.6-2.3 13.6-2.3-3.6 8.1-16.2 13.7-16.2 13.7 3.4 3 8.2-.5 12.9-3.7a76 76 0 0 1 18.3-8.4c7-2.4 12.1-.6 12.1-.6 6-1.9 11 .8 11 .8 11.3.9 12.5 5 12.5 5 1.2.3 2.2.8 5.1 3 2.9 2.1 2.7 8.7 2.6 12-.1 3.2-1 3.2-1.6 4-.5 1-.6 2-.6 3.2 0 1.3-2.9 9-20.5 9H934c-1.5 0-3.2.9-3.2.9-7.4 3.7-3.5-2.5-12.3 4.7-8.8 7.3-13.3 6-13.3 6a117.7 117.7 0 0 1-16 13.8c-5.2 3.4-4.3 3 .3 5s11.5 0 11.5 0c-4.4 3-1.3 4.4-1.3 4.4 5.8-3.6 9.4-2.3 9.4-2.3 1.8 5.1-4.9 13.2-4.9 13.2 2.6.3 7.5 0 7.5 0-1.2 3.4-6 7.2-9.6 8.3-3.6 1.2-3 1.7-1.9 3.8 1 2.2.2 4.4.2 4.4-6.3-4.3-6.5-.5-6.5-.5-.7 5.1-.6 12.5-.6 12.5-4.4-2.2-4.6.7-4.6.7-1.2 4.7-6.6 10-6.6 10-.2-2.8-2.9-3.6-2.9-3.6-2.8 5.4-8 8.7-8 8.7-.6 4.6.7 11.2.7 11.2-3.4-.7-4.6-.7-5.1.1-.5.8.7 1.2.7 1.2l43.6 1.1c.6 0 3.2.4 3.2 5 .1 4.8-3.8 5-3.8 5l-47.6-1.1s.2 1.3-2.3 2.6-1.6-1.5-2.3 4.4c-.7 5.8-10.2-.5-10.2-.5-1.5 2.3-5.2 5.3-5.2 5.3-2.2-6.5-4.4-8.5-7.8-2.9-3.4 5.6 6.2 4.6 6.2 4.6s55.9-8.2 59-8.5c3-.3 6.3-.1 7.7 4.1 1.3 4.3-6.8 5-6.8 5l-57.4 6.2c-1.2 3.4-6 3.2-6 3.2.4 3.2-3 5.3-4.7 6.4-1.8 1.2-7.3.7-7.3.7-6.6 4.5-9.9 1-9.9 1-4.3 1.8-7 1-10.6-.5-3.6-1.6-3.3-5.9-3.3-5.9l-36.2 3.8a8.8 8.8 0 0 0-2.9 1.7c1.3 1.7-2.6 5.5-2.6 5.5 1.1.7 3.2 2.8 3.5 7.3.3 4.8-5.9 5.6-2.8 9 3 3.3 8.7.5 15-2.5 6.2-3 12.4-2.6 15-2.6 2.7 0 10.2 2 14.8 3.6 4.7 1.6 6.3.6 6.6-1.8.3-2.3 2.4-3 2.4-3-.6 2.3.7 3.4.7 3.4 1.8 0 4.9-1.7 4.9-1.7-.3 1.8-2.6 2.9-2.6 2.9-4.5 3 1.7 1.9 1.7 1.9 12.5-2.6 17-2.3 20.2-2a160 160 0 0 1 18.6 6.9c.5-1.6.2-5.4.2-5.4 3.9 1.1 5.5 3.4 5.5 3.4 1.5-1.6.5-4.4.5-4.4 12.6 7.1-2.6 10.3-6.7 11.7-4 1.3-4 3-4 3 3.4-1 5.7-1.5 8.5-1.7 2.8-.2 1.8 0 8.5-1.3 6.7-1.4 10.1 1.5 10.1 1.5-5.6.3-7.2 2-7.2 2 3.5 2.3.1 4.4.1 4.4-5-6.4-9.4.2-9.4.2a20 20 0 0 1 8.3 1.8c1.1.7 3.8 2 7 3.5 4.7 2.1 3.8.8 7.4 2.1 3.6 1.4 2.2 4.8 2.2 4.8-1.5-2.8-4.8-3.8-4.8-3.8-.3 3.8-4.1 4.5-4.1 4.5 4.7-5.2-5.4-7.5-10.2-7.4-4.7 0-8.2 3.1-8.2 3.1 9.5 9 16.1 6 16.1 6-1.2 3.3-9 2-9 2 3.6 2.8 3.2 4.7 3.2 4.7-2-1.9-5.1-1-12-5.3-6.8-4.5-12.9-3-12.9-3 6.7 7-2.4 11.3-2.4 11.3-3.4 2 1.4 4.5 1.4 4.5-4.2.8-4.8-3.4-4.8-3.4-2.2-.5-5.4 2.2-5.4 2.2.2-4.3 5.9-2.1 6-6.7.2-4.5-5.2-8-21.3-5.8-16.2 2.3-20.9-2.9-20.9-2.9-1.4 0-1.6 1.4-1.6 1.4 2.6 2.6 3.8 3.6 3.4 5.4-.5 1.8.8 2.4.8 2.4-3-.2-3.2-3.7-3.2-3.7 0 1.5-.6 1.6-1.6 3.1s0 3.5 0 3.5c-1.3-1.1-3.6-2.4-1.4-5.6 1.6-2.4-3.5-5.5-3.5-5.5-2-2-7.3-.1-7.3-.1-11 2.1-17.4-4.8-17.4-4.8-1.3 0-3.7-.7-3.7-.7-11.6 5.2-21.8-6-21.8-6-8.8 1.6-12.8-2.6-15.4-6.8a15 15 0 0 0-6.8-6.6c-3.5-2-6.8-8.1-3.5-11.3 2.8-2.8 2-3.4 2-3.4-4.6-7.7 8-10.1 8.3-12 .3-2.6 3-4.3 5.8-4.5 2.9-.2 2.9 0 4.8-1.8 1.8-2 5.4.4 5.4.4.8-.5 7-5.4 12.6-2.9 5.6 2.5 10.2.8 10.2.8 4-.9 36.6-5.3 36.6-5.3 2-3.2 3.6-7 12.6-9S831 303 831 303c-1.6-1.7-4.3-1.6-5.6-1.8-1.4-.1-4.2-2.6-4.2-2.6-1.7.8-2.5.4-14.3 7.6-10.6 6.4-10.9-6.3-10.9-6.3h-23c-.4 4.9-4 6.8-4 6.8l-8.5.4c-4.6-2.4-4.7-10.7-4.7-10.7-25.3.4-39.3 9.4-39.3 9.4-28.7-14.6-51.1-18-51.1-18 34.8-3.7 53.2-13.4 53.2-13.4a82.6 82.6 0 0 0 37.2 11.8c.7-7 5.4-8.7 5.4-8.7z"/>
    <path id="path438" fill="#ffc221" d="M725 335.7c-7.2 4.2-5.9 6.6-5.2 7.9.6 1.3.7 2.6-1.3 4.6-2 2-1.8 2.7-1.8 2.7.3 7 5.3 8.5 7.4 10.3 1.8 1.4 4.7 6 4.7 6 3.8 5.3 7.7 5.4 10.6 5.4 3 0 2.7-.3 1.2-1.6l-4.3-3.6a23 23 0 0 1 7.6 5.4c7.4 8.1 14.2 7 17.2 6.7 3-.4 2.5-2.2 2.5-2.2-.2-.3-3-.5-3-.5-11.2-1-14.5-8.3-14.5-8.3a31.5 31.5 0 0 0 20.4 7.8c3.2-.2 3 .8 2.3 1-.7.1-1.6 0-3.1-.2-1.5 0-1.5.3-1.2 1 .4.5 1.8.6 3.5.5 1.8 0 .4.2 5 3.7 4.6 3.6 16 .7 16 .7-7.4-1.8-8.4-5.2-8.4-5.2-10 1.2-14.1-4.8-14.1-4.8-1.8-1.8-7.2-4.6-7.2-4.6-5.6-2.4-6.5-7.5-6.5-7.5 1.6 2.3 4.7 4.9 8.6 6 4 1 5 1.6 5 1.6a5 5 0 0 1-3-.3c-3.9-1.2-1.7.4-1.7.4 4.4 3.5 5.6 3.2 5.6 3.2 11.3 1.2 5.7-3.4 5.7-3.4 8 2 9.4-1 9.4-1 1.7 3.5 7.8 2.2 7.8 2.2-8.1 4-2 2.8-2 2.8 8.3-1.5 10 .6 10 .6 2.1 2 4.4 1.8 4.4 1.8s1.5 0 4.6.6c3.1.6 8 3.3 12.5 2.8 4.5-.6 5.3.8 5.3.8-.9-.3-2.9-.6-6.4 1-3.5 1.6-9.6 2-18.5 0s-9.6-1.8-9.6-1.8c2.1 1.5 4 3.8 4.4 5.3.4 1.5 2 1.6 2 1.6.6-2 3.2-2.8 3.2-2.8 1.8 1.6 6.5 3.7 6.5 3.7.5-1 0-1.8 0-1.8 3.4 3.3 7.4 2.3 7.4 2.3 1-.7.7-2.6.7-2.6 1.4 0 1.6.8 2.6 1.5 1 .6 4 .2 4 .2-1.1-.5-2-2.2-2-2.2 4.6-3.1 14.3-1.8 14.3-1.8 7 1.3 6.2 5.9 6.2 5.9 1.4.6 3.3 2.8 3.3 2.8.6-1.6 0-3.3 0-3.3 3.3 1.5 4 5.3 4 5.3 3.7-4.3-3.6-9-3.6-9 3.5-.5 7.4-.2 9.8.1 2.4.4 5.7 1.6 8.5 4 2.8 2.2 7.7 3.3 7.7 3.3-.1-1-2.8-2.6-3.4-2.9-.6-.3-.8-1.2-.8-1.2 2.4.5 4 .2 4 .2-8.4-5.2-10.6-7.6-10.6-7.6 3.2.4 5-1.6 5-1.6-6.7.1-7-1.6-7-1.6.9.2 4 1 8 .2s9.5 0 9.5 0c-2.9-4.7-14.1-3.9-17.7-3.7-3.6.2-5-.3-5-.3.6-.2 1.2-.8 4-.9 2.8 0 5.6.3 8.8-2 3.1-2.1 7.5-1.4 7.5-1.4-1-2.1-6.1-2.9-10.5 0-4.5 2.8-8.5 2-8.5 2 7-1 9-3.5 9-3.5-2-.6-3.2.1-7.5 1-4.2.8-5.3-.7-5.3-.7 4.6-2.7 7.9-3.8 7.9-3.8-4-.9-7.6-2.6-7.6-2.6-4.1 3.9-7.3 6-15.2 2-7.9-4.2-12-3.7-12-3.7 7-4 14-2.3 19.2.8 5.2 3 6.7.6 6.7.6-1.7-1-1.4-2-1.4-2 12.5 6.4 18 2.5 20.7.6 2.8-1.9-1.3-4.4-1.3-4.4-.2 4-5.3 6-9.4 4.6-4-1.4-7.7-3.1-13.5-5.6-5.8-2.4-13-1.1-19.8.3-6.8 1.4-7.6.7-8.3.2-.6-.5-.9-2.2-4.4-.8-3.4 1.5-11.5-2.3-16.5-3.5-5-1.2-13.2-.6-20.3 3.3-7 4-10.6 3-12.7 2-2.1-1-3.5-3.6-1.2-6s2.5-3 2.3-6.5c-.2-3.4-3.6-5.5-3.6-5.5 3.1-3.2 3.9-4 2.8-5.3-1-1.4.6-1.4 2.4-2.2 1.8-.8 1-.9.6-2-.4-1-1.5-.8-1.5-.8-4.1.2-6.4-1-6.4-1-6.8-3.1-13.2 3-13.2 3-3.9-3-4.8-1-5.5-.3-.6.7-2 1.2-3.8 1.4-1.7.2-4.2.8-5 2.4 0 0-.8 1.2.1 2.6 0 0 1 1.6-.8 3.5-2 2-2.7 2.4-2 4.3.5 1.8.4 3.2-.4 4.4 0 0-.9-1-.6-2.3.2-1.2.2-2-.1-2.6 0 0-1.9 1.8-2.2 3.2 0 0-.8-2.1 2-4.9 2.7-2.7 4-4.1 3.2-5.2-.6-.8-2.6.5-3.1.8z"/>
    <path id="path440" d="M733 366.2s-3.5-2.6-3.1-6.3c.4-3.6.4-4 0-4.9 0 0-.7.4-.6 1.8 0 1.4-.2 2.8-.3 3 0 0-1.8-3-2.6-3.6 0 0 .7-3.2-.3-4.5-1-1.4-2-1.5-3.1-1-1.6.5-2.8 2 2.5 6.3 0 0 2 1.6 3.3 5 1.4 3.5 3.7 4 4.1 4.2zm17-10.1s-.2-2 1.7-5.7a8 8 0 0 0 .3-7.3c-.4-1-.7-.6 1.2-2.2 2.3-2-.9-4.4 3-7.8 0 0 2.4-2.1 3-3 0 0-4 2.1-6.7 3.2-2.6 1.1-12.6 6-10.4 9.3 2.2 3.3 2 3.5 1.6 4.9 0 0-6-3.2-3.8-8.3 0 0 .9-2 3.4-4.4 2.3-2.1 1 .5 5.6-2.2 0 0 3.6-2.2 5.6-5.1 0 0-2.5 1.5-3.3 1.8 0 0-5.4 1-7.6 3.2-2.1 2.3-6.7 6.2-5.2 10.6 0 0-5.3-.6-6.5-6.2 0 0-10 12.2 10.9 18 0 0 3.8 1 7.3 1.2z"/>
    <path id="path442" fill="#ffc221" d="M841.6 315.2c7.8-1.1 52.8-8 57-8.4 4.4-.4 6.1-1 7.6 2.6 1.7 4-6.2 4.1-6.2 4.1l-53.7 6.1c-2.6.3-3.2-.7-3.2-.7l-2-2.7s-.7-.8.5-1z"/>
    <path id="path444" fill="#5a3719" d="M731.6 339.7s-5.8 12.2 17 15.2c0 0 .1-1.3 1-3.3 1-1.9 3-5.8 1-8.3-1.8-2.5 1.6-1.2 2-4.5.6-3.2-.3-2.8 1.3-4.9 0 0-7.1 2.6-9.9 5.8-2.7 3.1 3.7 5.5 0 9 0 0-3.3-1.2-5.2-4.7 0 0-4.4.1-7.2-4.3z"/>
    <path id="path446" d="M754 354.7s5.6 4.9 12.3 4.7c6.7-.3 9.6-2 11.3-4.7 0 0 1.3 2 1.3 3.4 0 0 5.8-4.8 15.8-.6s7 3 9.2 3.3c0 0-4.3-.7-14 3.7-10 4.6-36.2 3-36-9.8z"/>
    <path id="path448" fill="#5a3719" d="M744.6 333.1s2.5.4 5-2.5c0 0-3.4.7-5 2.5zm-19.2 22.7s-4.7-3.7-1.7-4.4c0 0 2.2-.4 1.7 4.4z"/>
    <path id="path450" d="M828 379s2.6-4.5 9.8-4.5c7.2 0 8 3.4 17.2 4 0 0-11 3-18.6.3-4-1.5-7.6-.3-8.4.2z"/>
    <path id="path452" fill="#5a3719" d="M756.4 358s10.9 6.5 20.5-.6c0 0 .8.8 1.5 2.5 0 0 7.3-7 20.3.6 0 0-1.6-.2-7.7 2.4-8 3.5-28 5.8-34.6-5z"/>
    <path id="path454" d="M798.2 364.6s10.4 1.2 19.1.7c5.4-.3 11.3-1.3 8.4.5-3 1.8-1.5 2 10.9.9 12.4-1.2-.1 2.3 8.4 3.4 0 0-20.7 10.6-46.8-5.5z"/>
    <path id="path456" fill="#5a3719" d="M825.4 358s6.1-2.2 11.8.4c5.6 2.7 4.7 2.9 8.5 3.3 0 0-2.6 3.7-8.8.7-6.2-3-7.9-3.6-11.5-4.4zm6.8 18.7s6-3 12.6.1c.8.4 2.6 1.2 4.3 1.5 0 0-5 1.6-10.2 0-2.2-.7-3.9-1.2-6.7-1.6zM802.6 366s13.4 1.2 20.6-.2c0 0-8.4 4 12.7 2.2 0 0 4.6-.5 4 .2-.5.7-.9 1.3 1.4 2 0 0-15.6 7-38.7-4.2z"/>
    <path id="path458" d="M736 354.7s.2 1 3.1 2.3c3 1.4 4.6 3.7 5.2 5a7.3 7.3 0 0 0 4.6 3.8s-10.5 2.2-15.1-3.3c0 0-3.6-3.9 2.1-7.8"/>
    <path id="path460" fill="#5a3719" d="M818.3 378.8s-4.1-.3-9.8-2.2c-5.6-2-7.1-.3-10.3-2.7-3.2-2.4-9.6-.9-10.8-.7-1.2.1-4.6 0-.4-2.8 0 0-3.4 0-4.7-1.8 0 0-1.5 1.5-7.3 1 0 0 2.6 4-7.7 2.8a13.4 13.4 0 0 0 14.4 4c0 .1-.7 3.2 4 4.4 4.9 1.2 5.8 2.1 8.3 3.1 0 0 .3-2-6-6.6 0 0 3.4-.2 8.3 1s16 4 22 .5zm2.6 4.8s1 2.4 4.2 1.8c3.1-.5 8.3-1.4 13.3 1.1 0 0 .9-4.2-9.2-4.5 0 0-6.3.3-8.3 1.6zm-85.2-27.4s-3.9 3.2-.4 6.5c3.2 3 8.2 2.8 10.6 2.7 0 0-1.5-.8-2.7-2.7-1.3-1.9-1.3-3.2-4-4.4-2.7-1.2-3-1.5-3.5-2.1zm-4-16.5s-5.9 12.2 17 15.2c0 0 0-1.3 1-3.3.8-1.9 2.8-5.8 1-8.3-2-2.5 1.5-1.2 2-4.5.5-3.2-.4-2.8 1.2-4.9 0 0-7.1 2.6-9.9 5.8-2.7 3.1 3.7 5.5 0 9 0 0-3.3-1.2-5.2-4.6 0 0-4.4 0-7.2-4.4z"/>
    <path id="path462" d="M791.6 367.9s4.8-.8 17 3.8c12.2 4.5 17.3 3.4 19.1 3.3 0 0-6.9 3.6-17.5-1.1-9.4-4.2-10-2.6-18.6-6z"/>
    <path id="path464" fill="#ffc221" d="M868 365.2s2.7-.1 4.4.6c0 0 1-.9 3.6-1.2 0 0-1.7-1.6-8 .6zm-8.4-6.8s2.8-.1 3.7-1.5c0 0-1.5-1.7-3.6-2.6 0 0 .4 2 0 4.1zM766 327.3s-.6-1.4 2.4-1.8l40.8-5.9s2 0 2.3 1.3c.3 1.5-.2 2.5-9.4 3.6-9.1 1-33.4 4.1-33.4 4.1s-2.5.4-2.7-1.3z"/>
    <path id="path466" fill="#ffc221" d="M803 325.6s0 5.4 5.5 6.2c5.3.8 7.1-.3 8.5-3.1.4-.8 2-6.4-.3-6.8-1-.2-2.6 0-3.8.4-1.8.8-3.5 1.7-3 2.6 1.4 2 1.6 2.5 1.2 2.6-1.4.4-2.3-.8-2.6-1.6-.3-1 .7-1.6-2.8-1-1.5.1-2.7.1-2.7.7z"/>
    <path id="path468" fill="#ffc221" d="M825.8 321.5c2.7.3 2.5 6.2-.8 8.9-3.6 2.9-7 1.8-7 1.8-1.9-.7-1.6-.5-.2-2.6 1.3-2 2-4.7 1.2-6.6-.2-.6.4-1.1 1.3-1.3 0 0 2.6-.5 5.5-.2z"/>
    <path id="path470" fill="#ffc221" d="M828.2 322s2 2.5-.5 7.1c0 0-1.1 1.4 1.4 1.2 2.4-.2 8-2.8 7.4-6.2 0 0-.2-.8-1.7-.8-1.4.1-.2-.7.4-1 .6 0 2.5-.8-2.4-4 0 0-.8-.7-1.8-.4-.7.3-3.3 1.3-3.3 2.9 0 .6.5 1.2.5 1.2z"/>
    <path id="path472" fill="#ffc221" d="M833.5 317.8s4 2.8 3.9 3.6c0 .8-.4 2 .7 1.8 1 0 5.2-1 4-3.7-1.1-2.8-2.3-3.8-4.2-4.5-2-.7-2.5.2-4.2 1.5 0 0-1.2.8-.2 1.3zm-21 3.9s.6-2-2.9-2.8c0 0 1.5-1.3 4.5-.6 2.9.6 2.6 2.6 2.6 2.8 0 0-2.3 0-4.2.6zm7.6-.5s4-.7 5.8-.5c0 0-2-4.4-7.4-3 0 0 2 2.3 1.6 3.5zm6.9-1s0-1.5 3.4-2.8c0 0-1.6-1.6-4-1.4-2.6.1-3.2 1-3.2 1s3 1.1 3.8 3.1zm1.3-4.8s2.2.6 3.5 1.7c0 0 2-2.2 3.7-2.6 0 0-3.3-1.8-7.2 1z"/>
    <path id="path474" fill="#5a3719" d="M716.5 304.7s9.4-8 14.7-7c5.2 1 2.6.3 8.3-.6 5.8-.9 11.7-1.5 14.1-1.2 0 0-7-5-19.4-4.9 0 0-8.7 3-14.8 7 0 0-11.6-6.4-23.6-2.6 0 0 13 4.8 20.7 9.3z"/>
    <path id="path476" fill="#ffc221" d="m816.3 318.5 1.6-.3s2.6 3.3.7 3.3c-1.5 0-1-.4-1.2-1.4a3 3 0 0 0-1.1-1.6zm-11.8.2s-1 1.2.8 1c2.2-.4 1.8 0 4.1-1.6 0 0 1.5-1.5 4.2-.6 0 0 2.3.8 4.1-.1 1.9-1 2.3-.9 3.3-.8 1 .1 1 .3 2.2-.7 1.4-1 3.7-.2 5.1-1.4 1.5-1.2 3.3-.2 0-2.5 0 0-.7-.7-.6-1.3 0 0 1.3.4 2.3 1.3 1 .9 2.6.6 2.9.4 0 0 .2-2.9 3-5.6 3-2.7 3-2.9 1.3-2.9s-4.6-.7-5.6 0-9.4 6.3-14.4 7.2c-5 1-9.5 2.4-12.7 7.6zm-132.2-30.5s15.2 3.9 18.6 5.5c0 0 .8-2.5-6.1-4.5 0 0 16.8-.5 34.5 7.6 0 0 8.6-7.4 36.2-5.1 0 0 0-2.4.2-4.3 0 0-19.3-.6-37.1-11.4 0 0-16 7.9-46.3 12.2zm84.5 7.3c-1-15.5 4.9-17 4.9-17s2.8.1 5.8.6c0 0-4.7 5.6-3.4 16.7 0 0 .5 1.8-3.5 1.8s-3.8-2-3.8-2z"/>
    <path id="path478" fill="#5a3719" d="M760.9 305.8s-3-3-3.2-6.4c0 0-.1-.8 2.8-.8 3 .1 3.3-.2 4 1.5.7 1.6 2.6 5.1 3 5.5z"/>
    <path id="path480" fill="#ffc221" d="M767.1 298a37 37 0 0 1-.3-5.9c.2-8.6 1.6-7.9 2.2-6.8h3s-2.2-9.7-4.8-4a24.9 24.9 0 0 0-2 13.7c.2 2.6.5 4.2.8 5.1z"/>
    <path id="path482" fill="#5a3719" d="M800.6 298s5.7 1-3 3c0 0 .4 10.6 10.7 3.2 0 0 6.2-3.9 10.4-5.5 0 0 2.1-.7 1.9-2.3 0 0 .2-2-2-1.5 0 0-1.8 0-3-.4 0 0-1.2-1.5-2-1-.8.6-2.8.3-1.2 2.2 1.5 1.8 2 1.3 2.7.8.7-.5 4-1.8 1 .9s-5.4-1.5-6.4-2.3zm-28.7 1.3h-2.5s-1.4 2-2.3-1.3l-1 2.1s3 11.4 5.8-.8z"/>
    <path id="path484" fill="#ffc221" d="M768.3 286.1s-1.3 7.5.4 12l27.5.6s-.3-5.3 0-12.6h-3.8s-.6 6 0 9.7h-.7s-.5-5.1 0-9.7h-3.2s-.5 5.6-.1 9.8h-.6s-.5-4.9 0-9.8h-3.1s-.6 5 0 9.7h-.8s-.6-5 0-9.7h-3.5s-.8 4.7 0 9.8h-.7s-.8-4.8 0-9.8h-3.5s-.8 5.4 0 9.8h-.8s-.5-5.2.2-9.8h-3.3s-.9 4.5-.1 9.8h-.8s-.5-4 .2-9.8h-3.3zm29.1 13.6s-.7-13.4 1.8-17c2.6-3.4 3.2-2.7 7.6 0 4.4 2.9 10 5.9 11 6.2.9.4 2.2.7 2.2 3.2 0 2.4.4 3.1-3.4 0-.5-.4-2.3-2-3.6-2.4-3.4-1.1.8.7 2 2.5 1 1.4 1.9 1.3-.8 2a286 286 0 0 0-16.8 5.5z"/>
    <path id="path486" d="M807 290s-2-2.4.6-3c2.5-.6 2.7 4 3.2 6.7.4 2.8-3.2-2.8-3.7-3.6zm-3.6 11.8s-3 1.1-1 2c1.9 1 7.3-3.5 5.5-3.2-2 .3-4.5 1.2-4.5 1.2zm4-4.1s2.6-.3 2 .8c-.4 1.2-1.4.5-1.8.2-.4-.2-2.2-.9-.2-1z"/>
    <path id="path488" fill="#ffc221" d="M821.3 294.1s.7 5.2 5.1 6.5c0 0 2.6.6 2-1.6 0 0-.4-2-.7-2.7-.4-.8-2.2-1.3-2.4-1.4-.2 0-.4-.6.8-.2 1.2.4 1.4.5 1.3-.4 0-.9-.8-.5-1.9-1-.4-.3 0-.6.5-.5.5.1 1.6.5 1.6-1.3 0 0 .2-1-1.1-1-1.5-.1-1.4-.8-1-.9.5 0 2 1 2.5-.8.4-1.7-2.1-.7-1.8-1.6.4-1 2.2.5 2.3-.6.2-1 1.6-1.5-.9-1.9-1.1-.1 0-.7 1.3-.5 1.4.2 2.2-1.5 3-2.1.9-.6 5.5-3.3-.7-2.4-6.1.9-8 3.9-8.3 4.5a17 17 0 0 0-1.6 10z"/>
    <path id="path490" fill="#ffc221" d="M835.7 298.1c.8-.1 1.5 0 1.8.6 1 2.1-1.3 1.4-2.6 2.9s-1.4 1.2-3.2.7c-1.8-.6-2.5-3.3-2.5-3.3-.2-.9.6-1 1.5-.8 0 0 3 .3 5 0zm-6.7-1s.1.5 1.2.6c1 .1 4 .4 5.9-.2 0 0 .6-.1.3-1.3 0 0 0-.8-1.6-.5-1.7.3-4 0-4.8-.1-.8-.2-1.4 0-1 1.4zm-.2-3.8s-.1 1.6 1.5 1.8c1.7.2 3.7.2 4.5 0 .7 0 1.9-.3 2-1.3 0-1 .3-1.6-1.7-1.1s-4.4.1-4.7 0c-.2 0-1.6-.4-1.6.6zm.7-3.3s-.4.8-.3 1.5c0 .7 1.2 1 3.3 1 2.1 0 4-.3 4.2-1 .1-.8.6-1.6-1-1.3-1.7.2-3.8.3-4.7 0-.8-.4-1.4-.5-1.5-.2z"/>
    <path id="path492" fill="#5a3719" d="M907.6 298.3s0 1.4 1.1 2.9l-59-1.7s.8-.5 1-2.8z"/>
    <path id="path494" fill="#ffc221" d="M830 287.6s-.5 1.5.5 1.8c1 .3 2.9.6 5.3.2 0 0 1.2 0 1.6-1.2.5-1.3.4-.6-3-1.2 0 0-1-.4 2-.4 0 0 1.8 0 2-.2.3-.3 2.6-2.2-.4-2-3 0-1.5-.6 0-.6 1.6 0 2 .4 2.5-.1s0-.2-.8-1-.2-.6.4-.1c.6.4 1 .6 1.6 0 .7-.6-.5-1.5 0-1.4.5.1.8 1.1 2.7.2 2-1 4.6-.5 5.3 0 .7.6 2.7 1.3 4 0 1.2-1.2-1.5-2.3-.4-2.4 1.2-.2 2 .2 2.4-.7.5-1-1.8-1.8.4-2.4 2.1-.6.3-6.6-.4-7.1 0 0-2.4 1.4-5 5.6-2.7 4.3-4.2 6.8-7.8 5.5-5-2-7.7.8-8.5 1.3-1.2.7 2.6 1 .3 1.1-2.2 0-2.2.3-2.4.6-.2.3 0 .6.4.7.4 0 1.2.8-.1.8-1.4 0-2.4-.3-2 1.2 0 0 0 .3.8.4.8 0 1.1 1-.4 1-1 0-1 .3-1 .4zm5.4 14.8s-1 .7.4.8c1.5 0 2.2.4 2.7-.4s2.4-.5 1.1-1.6c-1.3-1-2.2-.4-4.2 1.2z"/>
    <path id="path496" fill="#ffc221" d="M841.5 284.6s5-4.6 9-1.5c4.2 3.2 4.5 3.6 4.6 3.7 0 0 .5.4-.6 1.4-1.1 1 0 1 1.2.3 1.2-.6 1.3 0 1.9.7.6.6 1.4 1-.5 1h-6s-2.7.3-1.3-.9c1.3-1.1 1.1-2.4.4-2.5-.7-.1 0 .7-.4 1.2-.5.5-1.4 1-2.4 1s-1.8.7-.3 1.2c1.5.6-.2 1-1 1s-4.6.2-.7.7c3.9.5-.4.4 2.5 2 3.2 1.8.9 5.6-.3 6 0 0-1.3.7.3.5 1.7-.2 2.6-.4 1.4.5-1.1.9-3.5 3.8-6.7 1.6 0 0-1.5-.7 1.1-.9 2.7-.1-2.1-.7-3-1.2-.7-.5-3.8-3.6-1.9-3.3 2 .4 1.3-.7.1-1.1-1.1-.4-1.3-2.1 0-1.8 1.2.4 2.7 1.1 3.8 1 1 0 .7-.4-1.5-1-2.2-.8-3.1-.9-2.6-2.7.5-1.9 3 .7 2.4-.7-.6-1.4-2.7-.7-1.6-2.5s1.4-1 1.9-.8c.5.2 1.3 0-.1-1-1-.7 0-1.7.3-1.9z"/>
    <path id="path498" d="M845 285.9s0-.6 1-.5c.8 0 .6-.3.8-.5.3 0 2.5.7.4 1.4-.7.3-2 .1-2.1-.4z"/>
    <path id="path500" fill="#ffc221" d="M849.8 291.1s-1.7.9-.2 2.6c1.3 1.5 1.3 2 1.2 3-.1 1 56.8 1.6 56.8 1.6s-.1-3.7 2.3-5.8l-60.1-1.4z"/>
    <path id="path502" fill="#5a3719" d="M908.5 297.3s.3-3.1 2-4.1c1-.6 2.2-.3 2.7 2.2.8 3.5-2.2 6.6-3.6 5.2-1.3-1.3-1-3.3-1-3.3z"/>
    <path id="path504" fill="#7b3c20" d="M843.3 310.6s3.8-3.3 4.4-4.7c0 0 10.2 7.3 9.6.6 0 0 0-1.8.3-3.5 0 0 3.7.4 4.3-2.6l-9.6-.3s-1-.2-2.5 1.4c-1.4 1.6-4.5 3.3-7.3 1.8 0 0-1.2-1-2.4-.1-1.3.8-1.3 1-.3 2s3.1 3.8 3.5 5.4zm22-20.1-5.6-.2s-2-2.9-6-6c0 0-1.2-.6 1-2.4 2.3-1.8 3-3.7 3-4.6.1-.8 0-2.2.8-1.2.8 1 6.6 6.3 7.5 4.8.8-1.6 1-2.3 1-2.8.2-.5.4-1.9 1.2-.4.9 1.5 1.4 1.1 1.5 5 0 0 .1 4 .7 5.3 0 0-7.3-2.3-5 2.5zm-24.3-12s4.3 2.5 6.4-.8c2-3.2 3.5-3.7 1.9-6.9-1.6-3 0-4.5 1.2-5.8 1.3-1.3 2.3-1 2.4-6 .2-5 3.6-6.6 5.2-8.2 1.5-1.5 5.4-3.8-.5-4.8-5.8-1-17.5-4-20.5-8.5-3-4.6-4.4-1.9-4.4-1.7 0 .2-1 3.5 2 9.5s5.5 9.9 8.5 11.8c2.9 2 5.5 3 4 7s-4 11.2-6.2 14.5z"/>
    <path id="path506" fill="#5a3719" d="M856.8 265.8s.7 10.3 8.2 14c0 0 1.7-4 1-8 0 0 2.5.2 3.2 1.3 0 0 0-3-3.4-4.1-3.6-1-1.9-7.8-.6-8.5 1.2-.8.8-2.2 0-3.4-.9-1.2-1-3 1.9-2.2 3 .7 2.5-.8.7-2.3-1.8-1.4-1.7-3.2.8-3.2s6.7-2.5 4.2-3.2c-2.5-.8-3.3-1.6 0-2.6 3.5-1 5.2-2.2 2.6-2.5-2.6-.3-4.3-1.2-1.8-1.6 2.5-.5-.4-3-3.3-3.1-3-.2-9.2 1-4.3-3 5-3.9-7-1-2.1-3.6 5-2.6-1.7-1.5-2.6-1.5-.9 0-.9 0-.5-1.3.3-1.3-.7-2-2.2-1.1-1.4.8-1.4.8-1.3-1 0-1.9-1.7-.5-2.8 0-1.1.4-3.8 2.5-5 1.4-1-1.2-1.6-2.3-5-.3-3.4 2-2.6.3-2.5-.6 0-1 1.3-4.5-3.3-.7s-.9-4-4.5-1.4c-3.6 2.7-4 3.2-4.6 2-.6-1.2-1.3-2.2-5.3.4-4 2.5-1-1.6-.5-2.5.6-.9 2.3-6.7-1.2-2.1 0 0-1.7 3.1-5.5-2.5 0 0-4 5.6-5.1 3.1-1-2.5-2-2.7-3.4-1.1-1.3 1.6-.3-.1-.9-1.5-.6-1.3-.9-3.8-7.6 1-6.7 5 2.3 1.4-2.8 3.6s-17.5 9.2-6.2 7.6c11.4-1.6-5.5 4.4-1.6 5.5 4 1.1 2.7 4.6 17.5.5 14.7-4 12.3-.6 19.9-3.9 7.5-3.2-1.8 1.1 8.3 1 10.1-.3 1.7 0 3.7 2 2 2.1 10.5 7 18.4 7.9 8 .8 10-2.2 7.7 1.3-2.3 3.4-3.1 4.7-4.5 6-1.3 1.1-5.1 3.9-5.2 8.6 0 4.8-6.2 5.6-4 10.9l5.5-5.3z"/>
    <path id="path508" fill="#5a3719" d="M869.9 277.3s-1.8-1.3-1.8-3.6c0 0 1.3.2 1.8 1 0 0 4.6-5.1-1-7-5.4-1.9-2.7-6.9-.8-6.9 1.9 0 2.2-.5.6-2.6-1.6-2-1.4-2.2 1.7-2.7 3-.5 2.7-1.2 1.3-2a10 10 0 0 1-2.5-2s8.8-3.8 6-5.6c-2.9-1.7 0-1.3 2.5-3.1 2.6-1.8 3-2.2 3.3-2.9 0 0-2.5.3-4.4 0 0 0 2.2-1.2 0-3s-3-3.4-6.6-2.6c-3.5.9-2.3-.3-1-1.7 1.4-1.5.8-2.3-1.7-2.7 0 0 .3-1.5 2.2-3.3 0 0-4.8.3-6.4-.5 0 0 2-1.3 2-2.9 0 0-2.6.9-5.9.6 0 0 2-1.7 2-3.2 0 0-5.8 1.3-8.4 3.3 0 0-.6-.1-1-.7-.5-.6-.8-1.3-7.2.7 0 0 .7-2.8 2.3-4 1.5-1 1.3-3.3-8.6 2.9 0 0-1.3-.8-2.4-3.8 0 0-2.2 3-3.8 4 0 0-1.4.6-1.2-1.3.2-2-1-.6-2 0-1 .5-1.7 1.9-1.2-2s-1.4-4.7-1.4-4.7-3 4.4-4.8 4.9c0 0-3.2-3.2-4.4-5.3-1.1-2-1.1-2.8-2.3.8-1.1 3.6-2.5 3.9-2.5 3.9s-2-1.7-2.2-2.6c0 0-.3 1-1 1.4 0 0-1.7-2-1.6-4.9 0 0-10.6 5.9-12 9.4 0 0-10-.6-14.1.2 0 0 1-3.2 3.6-4.9 0 0-2.6-.3-2.7-3 0 0 2.1.3 3.4 0 1.3-.3-1.8-4.1 1.5-4.2 3.3-.1 5.4 1.6 4-2.8-1.5-4.4-.9-4.4-.9-4.4s5.8 3.4 6.7 2.5c1-.8-.7-2.6 4.4-1.8 5.1.9 3.7-2 5.7-2.2 2-.1 3 1.3 1.8-8s6.2 4.6 1.1-9.4c0 0-1.2-4.3-4.3-6.1 0 0-.7 3-4.1.4-3.5-2.7-10.2-3.7-7.4-5.8 2.9-2.2 4.2-5 3.4-6.8 0 0-3.4 3.5-9.2 1-4.6-2-5.6 1.6-10.3.6 0 0 0-1.2 4-4.4 4-3.1-2.3 1-4.7 1.6-2.5.6-3.2.1 2-4 5.2-4 15.6-11.1 14.2-17 0 0 2.4 3.1 8.9.8 6.4-2.2 11.2-3 13.1-6.4 2-3.3 7-6.6 8.3-7.4 1.4-.7 3.1-1.2 1.1 2-2 3.1-5.2 8.5-14.1 12.2-8.9 3.7-12.3 6.3-13.9 8.3-1.6 1.9-9.7 6.2-4.4 5.5 5.2-.8 14.3 0 10-1.2-4.2-1.2-9 .8-5.1-2.8 3.9-3.5 4.6-4.7 10.3-7.1 5.7-2.4 12-7.9 11.4-2-.7 5.7-11.3 11.9-13.9 13.8-2.6 1.9-1.6 1.6-1.6 2.3 0 .8-.4 2.4-1.5 3-1 .8-.7 1.6-.4 3.2.3 1.7-.3 2.3.5 2.6.8.2 1.6.3 1.8 1.5.3 1.2.9 1.3 2.4 1.2 1.5-.2 2.5 0 2.6.9.1.9 1.6 2.1 1.7-.6.2-2.8 1.2-3.3-1.6-2-2.8 1.2-3.4.8-3.3-.5 0-1.3-.3-1-1.4-1.1-1.2-.1-1.6-1.8.5-2.9 2-1 2 0 4.6-2.1 2.6-2.2 2.6-2.7 3-3.8.4-1-3.7 3-5.7 3.9-2 .9-1.4-.7-1-2.9.3-2.2 5.2-5.2 7.4-5.2 2.3 0 7.3 1.3 5.2 4.4-2.2 3-8.4 6.7-5.8 7 2.7.2 3.1-.8 4.7.5 1.5 1.4 0 4.2-.6 5.7a11 11 0 0 1-2.9 3.6s-2.8-5-2.7-1c0 4-.6 5.4 0 5.5.6.2 3.7 2.3 4.7 2.3s-5.4 3-2.7 3.2c2.7.2 7-1.2 8.4-4 0 0-5.5-1.3-7.6-3.3 0 0 6.3-1.5 4.5-7.6 0 0 6.4 1.7 3.6 4.6-2.7 2.8-4.4 2.4-2 3.2 2.4.8 3.5 1.5 3.5 1.5s1.7.8.7 2.1c-1 1.4-1 3.4-.1 3.3.7 0 3.4-1.3 1.2-2.6-2.3-1.4 2.5-1.1.5-2.3-2-1.2-2.6-1.4-3.1-2-.6-.5 25.7-16 12.4-10.2 0 0 2.8-6 6.7-6 3.8 0 4.1 3 2 5.4-2.3 2.3-3.7 6-8.8 6.8 0 0 7.3 3.6-1.4 9.5 0 0-1.9.9-1.2 1.5.7.7 5.9-2.2 6.6-3.9.7-1.6 1.8-3 3.8-3.9 2-1 11.7-7.6 14.6-12.6 3-5 3.7-5.1 9.4-9.7s4.7-3.7 5.5-4.8c.7-1.1 1-3 3.6-4.4 2.6-1.5 12.8-7.1 16-9.4 3.2-2.3 9.7-6.6 12.5-10.2 2.8-3.5 10.4-8.1 12.3-7.3 1.9.9-.2 3.6-4.6 7-4.5 3.3-15.5 12.2-17.3 13.6a58.4 58.4 0 0 1-14.6 8.6c-3.5.5-3.1 1.7-5.2 4s-7 7-8.6 8.3c-1.6 1.4-5.5 4-5.7 5.9-.2 1.9.7 2.1-2.4 5-3.1 3-12.2 9.6-15.6 10.6 0 0 5.9 2 2.4 6-3.5 3.9-3.3 3.3-3.5 3.6 0 0 8.8-1.4 2.6 5.6 0 0-1.3 2 1.5-.1 3-2.3 1.8-5.3 1.4-5.7 0 0 4.7-3 10.2-3 5.4-.1 5.2-.5.3-1.9 0 0 3.5-4.2 6.4-2.1 3 2 2 3.3-1 5-3.2 1.6-7.7 2.2-11.1 4.1 0 0 6.4 1.3 9.9-1.4 3.4-2.6 3.6-1.3 4-.8.5.5.9 1.3-.6 3.5-1.6 2.2-1.7 2.3-1.6 2.8 0 .5-.2 2-3.3 2.5-3 .5-4.5 1.8-3.4 3.3 1 1.5 1 5.1-1.6 4.8-2.6-.4-2-2.5-3-3.3-1-.8-2.4-2-7 .3-4.7 2.4-5-.4-4.8-2 0 0-3 2.7-5.5.3-2.5-2.5-.3-3.4 1.2-4.6 1.4-1.2 7.3-3.8 3.8-3.3-3.6.4-8.8.6-10-2-1.3-2.8 2.6-2.5 3.2-2.2.6.2 3 2.2 3.2-.4 0-2.7 4-3 2.6-3.5-1.3-.5-3.2 1.2-3.7 1.8 0 0-2.7-3.8-7.1-2.6-4.4 1.3 1.4.8 2.5 1 1.2.2.5 2.4-3.4 6-4 3.5-2.2 2.4.7 2.4 3 0 10.2 0 6 3.4-4.2 3.5-5.9 5.2-8 4.6-2.2-.6.2-2 1.2-2.7 1-.6 1.5-1.6-.6-.8-2 .7-2.7.9-4.4-2-1.6-3-1-2-.2-4 .7-1.9 2.3-3.9.4-3.2-2 .7-1.8.8-1.6-1.4.1-2.2-2.2-2.7-2.2-2.7s1 2.2.1 3.6c-.8 1.4-.9 1.9.5 2.2 1.4.4 2.7 1.6.8 2.9-1.9 1.2-1.6 1-.5 1.8 1.2.8 3 1.7 1.1 3.5-1.8 1.8-.3 1.2.6 1.2 1 0 3 .8 3 2.6 0 1.7-.1 2.1 2.9.5 3-1.7 8.8-1.5 8.8.8-.1 2.3-.8 3 2.4 1 3.1-2 4.5 1.8 6.7 0 2.1-1.9 3.5-3.7 6-.5 2.5 3.1 1.7 4-1.3 6.3-3 2.2 1.5.5 3.8-.7s8.8-2 12.5-.3c3.7 1.6 4.8 1.3 7.5.1 2.8-1.1 4.2-1.4 8.3 1.4 4.2 2.8 7.4 3.3 9.6 3.2 0 0-4.6 1.8-9.8 2.1-5.2.4-7.8 1.3-8.8 2.1 0 0 3.1 2 3.7 4.2 0 0 3.4-.4 5 .2 0 0-.8 2.5 1.3 3.8 2.1 1.3 3.5 1.8 2 3.6-1.6 1.8 2.4 1 .1 3.5-2.2 2.6-2.8 3.8-2.9 5.9 0 2 .5 2.3-1.5 2.5-2 .2.3 2.5-.6 5.2-.9 2.6-6.5 2.3-6.3 9.5 0 0 1.6-3.5 5-6.6 3.3-3 3.4-3.3 3.3-5.2 0-1.8-.2-1.4 1.6-2.8 1.7-1.4-.8-2.7 1-4.7 1.7-2 .2-1.6 2.3-3.6 2-2-1.9-2.2.3-4.3 2-2-5.2-4.5-3-5.8 2-1.3 5.6-3.2-6.5-3 0 0 2.9-4.8 13.1-3.8 0 0-2.6 2-2.9 3.8 0 0 1.2.6 2 .8 0 0-.5 1.4-2.4 3 0 0 5.4 3 6.3 4.9 0 0-3.3 1-4.2 2.4 0 0 1.5 1.7 2 3.8 0 0-3.7-.4-4.2 2.3-.5 2.8-1.6.9-1.6 2.5s.1 2.3-1.2 2.6c-1.3.2-.2 1.6 0 2.5.2.9.7 3 .5 3.6 0 0-1.9 0-2.8.3 0 0 .6 4-1.6 4.5-2.2.6 1.2 1.4-1.2 1.8-2.3.4-2 .6-4.9 5.8 0 0 2.5-1.4 5-3.1 2.6-1.7-.2-1.2 4-5.3 4.2-4.2 3.5-4.5 3.1-6.6-.3-2.1-.4-3.8 1.1-5.8 1.6-2 2-4.3 7.5-4 0 0-1.6-3.6-3.6-4.5 0 0 2.6-1.8 5.3-2 0 0-2.4-3-7.3-5.7 0 0 4-3.5 5-5.1 0 0-1.9.3-3.4 0 0 0 .7-1.7 4.4-4.1 0 0 2 1.9 1.8 3.8 0 0 6.3-3.5 9.8-3.1 0 0 1.8 4.4-6.9 12.9 0 0 5.4.5 7.7.2 0 0-1.3 4.1-7.8 6.5-6.5 2.5 1.4 5.4-5.3 4.9-6.6-.5-4.6 1.7-4.4 5.1.2 3.4.4 6.9.3 7.8 0 0-5.3-1.7-5.2 3.4.1 5.2-2.8 6.3-3.3 6.7 0 0-1.6-1.3-3.9-2.2 0 0-3.3 6.3-8.6 10z"/>
    <path id="path510" fill="#7b3c20" d="M862.3 212.8s1.8-.3 4.9 1.6c3 2 6-2 2.7-3-3.5-1 0-2.3 3 .2 3.2 2.5 4.4 1.2 5.5.4 1.1-.9 2.5-1.4.4-2.8-2.1-1.5 1.4-.8 3 .3 1.6 1 1 2 .8 2.3-.3.3-.4 3.7 2.7.6 3.1-3.2 4.7-6.3 4.6-7.8 0 0 1.7 1 2 3 .2 2 2.6-1 3.4-2.1.8-1 2.1-3.8 2-5.8 0 0 2 3.3 5.2 0 3.1-3.2 1.8-1.2 5.5-2.2 3.8-1 8.5-3.7 11-6.8 2.6-3.2 2.8-1 6.1-1.8s10-5.4 10.6-8c.6-2.4.5-4-.4-3.1-1 .8-.6.1-2-.7-1.5-1-3.6 1.1-3.6 1.1s2.1 1.6.5 2.3c-1.6.7-3 3-6.1 2-3-.8-6.2 2.9-6.2 2.9s2.7 2.1-.9 3.5c-3.5 1.4-3 1.8-5.1.3 0 0-3.8 4.8-6 5.8 0 0-1 0-1.6-1 0 0-2.5 2.8-3.7 3.3 0 0-1.6-1.4-3-2 0 0-3 3.8-5.5 4.9 0 0-.7-1.4-2.3-2.3 0 0-.8 4.8-6 7.6 0 0 .3-1.2-2.3-3 0 0-6.5 5.6-9 6.2-2.6.5-.3-1.2 0-2 .4-.7 2-3-1.1-4s-2.6.7-3.3 1c-.7.3-.7-.6-2.9-.3-2 .3-1.7 1.2-2.6 1.6-1 .3-4.6-.6-4.4 1.8.2 2.4 1.9 4.1-1.3 5.5-3.2 1.4 1.2 1.1 5.4.5z"/>
    <path id="path512" fill="#5a3719" d="M875.4 206s.8-3.2-1.9-4.6c0 0 17.2-2.7 4.2-9.3 0 0 15.5-3.1 11.8-8-3.6-5-7.2-4-7.7-3.8-.5 0 3.3-2.9 4.3-2.5 1 .4 13.4 5.1 10.2 1-3.1-4-2.9-3.8-3.4-5 0 0 4.1 0 10.3 6 0 0 1.3-1.3 1.2-3.8 0 0 4.4 1.3 5.8 2.6 0 0 .7-1.5.4-2.4 0 0 3.9 2 5.2 4.2 0 0 1.7-1.5 2-3.3 0 0 3.8 1.6 4.8 2.8 0 0 1.3-1.7.8-4 0 0 6.3 1.8 7.2-2 0 0 6.3 1.3 2.2 3.8-5.3 3.2-.5-.8-6 3-4.2 3-6.6 6.4-8.6 5.7-1.5-.6-3.3 3.8-5.3 1.7-2-2.2-2-1.2-3.5 1-1.4 2.2-3.7 4.5-3.7 4.5s-1-.6-2-1.5c0 0-1.1 2-2.7 3.6 0 0-1.3-1.7-3.3-2.7 0 0-3.1 3.6-5 4.9 0 0-1.9-1.8-3.8-2.4 0 0-.3 4.9-4.1 7.4 0 0-.8-1.6-3.3-2.6 0 0-1.9 3-6 5.6z"/>
    <path id="path514" fill="#5a3719" d="M866.4 198.4s-2.1 1.6-.8 3.3c1.4 1.8 1.5-.3 3.2-.4 1.7-.2 22.8-3.8 3.7-9.5 0 0 .8-.8 4-1 3.4-.4 15.4-3.6 9.8-7.9-5.6-4.2-10.3 1.5-5.6-3.6 3.8-4.1.8-6.1.8-6.1s-11.1 7.4-13.6 8.8c-2.4 1.3-6 4-1.8 5.3 4.2 1.3 7-4.5 7.4-3.2.4 1.3-8.4 6.2-7.1 8.4 1.2 2.3 1 4.2 3.1 3.7 2.2-.4 8 1.1 3.3 1-4.8-.2-6.4 1.2-6.4 1.2z"/>
    <path id="path516" d="M874 187.8s-2 1.4.6.7 7.7-1.8 6.8-3.1c-1-1.4-4.4.2-7.4 2.4z"/>
    <path id="path518" fill="#7b3c20" d="M907.9 165.8s9.8-.3 13.8 2.5c4 2.7 6 4.5 7.2 4.9 0 0-.2 3.7-6.5 1 0 0 .4 1.8-.3 3.6 0 0-2.3-1.6-5-2.2 0 0-.5 1.4-1.3 2.2 0 0-2.8-2.8-6-3.7 0 0-.6 1.4-1.1 2 0 0-3.4-2-6-2 0 0 .5 2.1 0 3 0 0-7-5.7-13.4-5 0 0 3 4.5 5 6.7 0 0-12.8-1-10.6-7.9 2-6.9-.2-5.2 8.2-5.1h16z"/>
    <path id="path520" fill="#5a3719" d="M847.8 184.9s-1.5 1.2 0 2.2c1.4 1 6.5-2.6 7.2-3.1.7-.6 2.5-.5 0 1.4s-5 4-6.7 6c0 0 8.5-2.3 14-7.1 5.6-4.8-.2-1.7 9.2-6.2 9.4-4.6 14.4-11.9 9.3-11.1-5 .8-9.6 6.6-13.6 8.8-3.9 2.2-6.1 2.5-5.5 1.2.6-1.3 3.5-.8 9-5.1 5.4-4.4 4.2-4 4.2-5.6 0-1.5-2-5.3 6.1-9.6 8.2-4.3 33.5-19 35.7-24.2 0 0-7.4.8-17.2 8A91 91 0 0 1 882 152c-2.7 1-2.4.3-4.1 2.4-1.8 2.1-11.4 11.4-13.2 12.8-1.7 1.3-2.3 2.2-2.4 5 0 1.3-11 9.6-14.4 12.7z"/>
    <path id="path522" fill="#5a3719" d="M881.3 165.6s-2 .8-3.8 0c-1.8-1-1.2-4.8 3.2-7.2a65.2 65.2 0 0 1 16.4-6.3s-.6 5-13.2 9.3c0 0 .8 2.6-2.6 4.2z"/>
    <path id="path524" fill="#aa5323" d="M885.7 162.3s.4 1.2 0 2.3c0 0 23.4 2.3 35.5-12 0 0-16.6 1.6-23.2 5.6 0 0 4.2-5.2 16.6-9.5 12.4-4.3 17.5-9.7 18.6-12.6 0 0-15.8 5.5-23.2 5.5 0 0-1.5 0-3 .7-1.4.9-11.4 8.1-14 9.4 0 0 5.6-.5 7.6-2.3 0 0-4 10.5-14.9 12.9z"/>
    <path id="path526" fill="#5a3719" d="M840.9 175.6s-3 2.2-1.8 3.2c1.3 1.1 3.4 1.3 8-2.5 4.6-3.9 15.7-13.4 8.7-13.8 0 0-9-.5-8.7 5 .3 5.5-5.8 7.8-6.2 8.1zm-20.8-3.2s6 3.5 3.7 6.3c0 0 18.2-15.4 13-18.8-5-3.3-9 3-7.8 3.6 1.2.7 3.9-.5 3 .7-1 1.2-10.7 7.7-11.9 8.2zm-4.7-5s4 1.2 4.2 3c.1 1.6 12-8.4 8.9-12.7-1.5-1.9-8-2.7-8.4 1.1-.3 3.8 6-.4 3.8 2.3-2.8 3.6-7.6 5.7-8.5 6.3zM858 159s-2.5 1.8-.2 3c2.3 1 3.7-.7 4.9-1.7 1.1-1 6.8-5.2 8-7.8 1.4-2.7 3.3-3.5 5.4-4.8 2-1.4 16.5-8.6 25.4-16.6 8.9-8 5.2-5.9 14.4-11s15.3-9.8 17.2-15.4c0 0-4.3 1.4-8 3.9-3.8 2.4-12.3 7.7-14 8.5-1.7.7-4 .8-5.3 2.1-1.3 1.4-1.2 3-5.6 6.6-4.5 3.7-27.4 19.9-30.2 22.2-2.8 2.3-12 11-12 11z"/>
    <path id="path528" fill="#aa5323" d="M839.6 164.4s2.5-1.4 7.2-1c4.7.2 23.3-17.8 28.7-21.4 5.4-3.7 22.3-15.8 24.5-18 2.3-2.3 2.7-4.7 4.7-6 2-1.3 3.8-1.1 8.3-3.7 4.6-2.6 26.5-15.7 25.2-23.3 0 0-32.6 19.5-40.1 25.9a489.7 489.7 0 0 1-32.2 23.1c-3.7 2.4-6.6 6.4-12.9 11.5-6.2 5-12.4 9.3-13.4 12.9z"/>
    <path id="path530" fill="#aa5323" d="M832.7 157.4s6-.6 6.9 2.4c0 0 12.9-8.9 15.8-12.5 3-3.7-1-1.6 6.4-6.4a776 776 0 0 0 35.3-25c3.5-3 10.2-7.1 15.5-10.7 5.3-3.6 26-13.8 23.7-22.1l-18.6 12.4c-3.5 2.3-5 1-8.4 3.7-3.5 2.8-11.2 8.2-12.5 10-1.4 1.6-13.1 10.6-18.8 14.4-5.7 3.8-18.4 11.2-24.6 16.6-6.2 5.3-18 15.2-20.7 17.2z"/>
    <path id="path532" fill="#aa5323" d="M814 155.7s3 0 4 1.2c0 0 5.6-5 11.6 0 0 0 22-15 24.2-18.7 2.2-3.7 5.8-3.8 14.3-10 8.6-6.3 14-9 19.7-13.3 5.7-4.5 10.5-9.5 14.6-12.1 4-2.7 14.4-9.5 12.7-15.3 0 0-8.4 4.7-13.8 10.7-5.5 6-5 .9-10.6 5.9a108 108 0 0 1-21.3 15.3c-7.1 3.5-2.8 3.1-8 6.4-5.1 3.3-4.7 2.8-6.6 3.3-2 .4-4.8 1.8-6.7 4-2 2.2-7 5.2-12.5 8.4a139 139 0 0 0-21.7 14.2z"/>
    <path id="path534" fill="#aa5323" d="M820.6 144.3s-1.2-2.5.9-4.3c2.1-1.7 6-6.3 6.6-9.2.6-3 .1-2.4 6.2-5a245.7 245.7 0 0 0 49.9-28.2c2.4-1.9 8.4-6 10.8-8 0 0 1.1 3.2-1.5 5.5a290 290 0 0 1-28.1 19.4c-2.9 1.5-10 5.1-12.5 7.2-2.5 2.1-2.1 2.7-13.3 8.2-11.2 5.4-11.7 6-11.4 6.4.4.5 5.4-1.7 7.8-3.1 2.4-1.4 11.5-5.6 14.3-7.8 2.7-2.2 7.3-5.6 9.3-6.7 2-1 18.5-11 23.3-14.5 4.7-3.5 6-4.6 7-4 1 .6 2.7.6.6 2.6s-8.8 8-11.4 9.6c-2.6 1.7-10.6 6.5-12.8 7.6-2.2 1.2-3.1 3.3-4.4 4.2-1.2 1-4.9 3.5-9.3 4.5s-5.2 4.4-8.1 6.3c-3 1.8-23.6 13-24.2 13.5 0 0 1.2-1.3.3-4.2z"/>
    <path id="path536" fill="#aa5323" d="M892.1 97.8s-1.1 1-.5 1.6c.8.8 3.7 2.8 7.3-.8a139 139 0 0 1 16.4-13.1c3-1.9 4.6-3.6 4.5-6.1 0 0-14.9 7.9-27.7 18.4zm20.4-1.3s2.3-3.8 7.9-7.4c5.6-3.6 14-8.8 15-10 0 0 2 2.2-2.3 5a407 407 0 0 0-14 9.2c-1 .8-2.7 2-6.6 3.2z"/>
    <path id="path538" fill="#7b3c20" d="M799 137.8s-6.2 3.3-4 5.4c2.2 2 5.5 1.4 7 .8 1.3-.5 3.9-1.2 4.3-1.3.4-.1 5.8-1.7 7.2-4.2 1.3-2.5 5-5.4 7.9-7.5 2.9-2 4-4.2 3.5-5.7 0 0-24.4 11.6-25.9 12.5zm-37 28.7s4.4-2.6 10.4-1c0 0-.3-1.4-1.2-2.2 0 0 7.3-1.9 8.9-5.1 1.6-3.3 2-2.6 3.3-3.5 1.5-1 11.3-8.9 10.2-10.6-1.2-1.7-1.4-4-2.2-4.8 0 0-2 2.8-11.7 7.4-9.5 4.7-20.2 8.2-28 18.6-7.7 10.5-6.9 16.5 2.6 19.2 0 0 6.6-4.2 22.9-2.8 16.2 1.5 21.7 7.6 22.8 8.7 1 1.1 4.3 5.1 1.1 11.9 0 0 3.3 1.4 3.5-1.7.3-3.1.5-2.4 1.2-2 .8.5 1.7.6 1.3-1.8-.3-2.4-1.4-7.7-3-9.5-1.4-1.9.3-1 1.2-.7 1 .4 4.4 3.2 2.4-2-2-5-2.6-2.5-2.7-2.3 0 .3-.4 1.6-4.9-1.8a35 35 0 0 0-11.5-5.8c-3-.8-.9-.8.9-1.4 1.8-.7 4.1-1 5-3 0 0-1.8.4-5-.8a17.2 17.2 0 0 0-15 2.7s1.6-6-3.2-5.7c-4.8.3-8.1.2-13.2 4.2 0 0-.3-6.1 4.5-9.3 4.8-3.1 4.2-1.2 6.8-2 2.7-.8 3-3.5 1.8-4.4 0 0 6.3 1.1 16.8-7.6 0 0-5.7 7.4-12.5 8.9 0 0-1.1 4-7.4 4.8-6.2.9-6 4.5-6 5.4z"/>
    <path id="path540" fill="#5a3719" d="M744.1 202.6s3-18.4 20.3-19.7c15-1.2 19.8.7 22.8 1.7s10.4 3.1 7.5 5.5c-2.8 2.3-4.5 1.9-4.5 1.9s3.3-3.7.3-4.3c-3-.6-3.2 1.2-3.6 2.7-.5 1.6-.6 3.4-2.1 4.6 0 0-1.5-1.7-3.7-.2s-.3 1.6.6 1.3c.8-.2 2-.7 1.7.7-.2 1.3-1.4 3.6-5 5.5-3.5 1.8-3.4 1.7-7.6 2.4-4.3.7-8.2 2.4-13.6 7-5.5 4.7-11.4 3.1-12.6-2-1-4.5-.5-7-.5-7z"/>
    <path id="path542" d="M763.8 202s1.6-3.6-1.3-5.3c0 0-9 1.6-11.8-1.1 0 0 9.9-.6 16-3 6-2.3 4.3-4 2.2-4.4-2.1-.4-6 .6-6.4 2.5 0 0-1.2-2 .3-3.4 1.6-1.4 4-1.6 6.1-1 2.2.6 4.1 1.6 11.2-2.1 0 0 4.1 1 4.3 3.7 0 2.8-.3 3.9-.7 4.3-.3.5-.8 1.3-1.7 1.2-.8-.1-2-.3-3 1.6-1 2-1.7 3.6-3.5 4.9 0 0 2-6-3.2-7.4 0 0-4.3 2.5-7.6 2.7 0 0 4.2 3.9-1 6.8z"/>
    <path id="path544" fill="#5a3719" d="M773.3 191s-2-2.1.6-2.4c2.6-.2 6 1.7 5.4 3.4-.7 1.6-3.8 1.5-6-1z"/>
    <path id="path546" fill="#fff" d="M921.3 162s-4.8 1.3-.3 4.3c4.4 3 6.6 5.5 9.8 6.3 3.3.9 6.6 2 6.6 5.3 0 3.2-.7 4.5-2.5 6.7-1.8 2.3 1 3.2 3.3 2 2.4-1.3 4.3-2 5.9-2.9 1.5-.9 4-.8 1.8.4-2.4 1.2-4.8 2-1.8 2 3 .1 21.2.5 25-.8 3.8-1.2 8.8-1.6 9.2-6.5 0 0 .2-2.2 1.6-3.2 1.4-.9 2.4-3 .3-1.6-2 1.5-3.6 2.2-4 1.8-.4-.5-.6-.8 1-1.5 1.5-.7 2.3 0 3.7-2 1.4-2.1 1.3-1.8.5-2.6-.7-.8-2.3-1.3-1.5-2.3.8-1 1.5-4-1.8-2.3-3.3 1.8-9.9 6.3-13 7-3 .7-5.3 1.6-9.4 2.4-4 .9-6.6 1.8-11 4.2-4.4 2.4-4-1.4-3.3-1.9 0 0 1.7 3 6.1-.9 4.4-3.8 3-.2 13.9-3.8 10.8-3.5 8.2-4.1 12.4-6.3 4.3-2.2 8.3-2.3 5.3-5.3-3-3-3.3-3.2-7.1 0a45 45 0 0 1-20.8 8.5s24.5-10.5 22-12a27.1 27.1 0 0 0-6.9-3.3c-1.7-.4-2.2-.8-6.1 1-4 1.7-4.6 2.1-5.7 2.2-1.2.1-4.5.8-9.2 3.2-4.6 2.4-7.1 3.4-10.3 5.3 0 0 2.2-4.4 11.9-7.3 9.6-2.9 14.5-5.5 13.5-6s-3.5-1-5.3-.6c-1.8.3-1.3-.2-7.2 2.2-5.9 2.3-3.4 1.8-8.1 2.8-4.8 1-6.7 2-9 3 0 0 1-1.2 4.1-2.4 1.7-.6-1.8-1.2 2.8-1.4h1.3a42 42 0 0 0 11.3-4.2c-1-.2-6.7-.8-12.5 2-5.8 2.6-3.2 1.7-5.2 2-2 .5-6.4 3.2-7.8 4.4-1.5 1.2-3.5 2-3.5 2z"/>
    <path id="path548" fill="#5a3719" d="M777.8 188.4s2.3.7 2.9 2.3c.6 1.6 2-.7 2-1.4-.1-.7-1.5-4-4-2.4-2.5 1.4-1.2 1.4-.9 1.5z"/>
    <path id="path550" fill="#7b3c20" d="M771.5 220s4.8-2.3 9-2c0 0-1.7-5.7 1.2-4.8 2.8 1 2 .6 2.6.6 0 0 .2-3.8-.6-5.3 0 0 3 .7 5.9.7 0 0-2.8-5.4.3-9.2 0 0 1.7 3.6 5.5 4.5v-3.1s2.2-.3 4 .6c1.8 1 3.2-9.9-2-12.2 0 0-1.3 2-6.2 3s-4.8 2-6.8 5.7-3.8 3.7-8 6.4c-4 2.6-6.5 8-6.7 8.5 0 0 2.1 2.6 1.8 6.6z"/>
    <path id="path552" fill="#999" d="M935 157.1c1.7-.3-1.9-1.2 2.7-1.4h1.3a42 42 0 0 0 11.3-4.2c-1-.2-6.7-.8-12.5 1.9s-3.2 1.8-5.2 2.2c-2 .4-6.4 3.1-7.8 4.3-1.5 1.2-3.5 2-3.5 2s-4.8 1.4-.3 4.4c4.4 3 6.6 5.5 9.8 6.3 3.3.9 6.6 2 6.6 5.3-.1 3.2-.7 4.5-2.5 6.7-1.8 2.3 1 3.2 3.3 2 2.4-1.3 4.3-2 5.9-2.9 1.5-.9 4-.8 1.7.4-2.3 1.2-4.7 2-1.7 2 3 .1 21.2.5 25-.8 3.8-1.2 8.8-1.6 9.2-6.5 0 0 .2-2.2 1.6-3.2 1.4-.9 2.4-3 .3-1.6-2 1.5-3.7 2.2-4 1.8-.4-.5-.6-.8 1-1.5 1.5-.7 2.3 0 3.7-2 1.4-2.1 1.3-1.8.5-2.6-.4-.4-1-.7-1.3-1.1 0 0-1.1-1-2.4-.2-1.3.9-6.9 3.2-9.1 3.5-2.2.2-4.6 1.2-8.6 3.2s-10.7 6-11.8 2.2c0 0-2.9 1-3.5 1.4-4.5 2.3-4.1-1-3.3-1.9 0 0-2.4 2.7-2.3.3.1-2.4 1.6-2 4.3-2.8 2.6-.8 6.7-2.5 5-3.9-1.7-1.4-3.5 1.4-5.4 2.3-1.9.9-5.7 1.6-6.3-1.1-.6-2.8-.6-4.7-5.7-5-5.1-.3-5-3.5-3.6-4.9 1.5-1.4 2.7-3.7 7.5-4.6z"/>
    <path id="path554" d="M951.3 182s8-3.6 15.3-5.4c7.4-1.7 1.6.3.4.6-1.3.4-12.7 4.2-15.4 5.5-2.7 1.2-2.2.2-.3-.6zm1.8 1.7s9-3 10.7-1.8c1.7 1.3.3.7-1.7 1-2 .2-7.4 1.1-8.8 1.1-1.5 0-.2-.3-.2-.3zm14.5-3.2s1.7-.3 1.9.4c.1.6-.8.7-1.8.6-.9-.2-1.7-.7-.1-1z"/>
    <path id="path556" fill="#fff" d="M729.8 259s-.3-8 3.7-12 23.3-24.1 26.3-29.7c0 0 2.5 1.7 2.6 4.9 0 0 3.3-5.6 5.8-7.7 0 0 2.3 2.3 2 7 0 0 4.6-2.5 11.8-2.5 0 0-2.7 3.1-2.8 5 0 0 10-1.2 15.3-.3 0 0-13.8 7.7-10 8.4 4 .7 8 0 8 0s-4.4 4.4-11.4 5.3c0 0 8.9-.1 10.7 1.9 0 0-8.7 1.3-15.6 6.6 0 0-.7-.3-.7-2.3 0 0-.3 1.8-2.3 3.5-2 1.6-6.7 5.2-8.5 7-1.8 1.7-5 5.3-8.6 5.1 0 0 .8-2.7-1.8-3.6a7.4 7.4 0 0 0-7.8 2s-9.3.2-12.3.6c0 0 2.1-3.4 4-3.3 2 0 9.8 1.2 10.5-4.2.7-5.3-5-3.9-2.9-7 2.2-3.2 1.7-3 1.8-3.4 0 0-1.8 1-2.8 3.8-1 2.8-1.8 5-5.5 7.8a19.7 19.7 0 0 0-6.3 6.5s-1.7.2-3.2.6z"/>
    <path id="path558" fill="#fff" d="M738.8 254.2s.3-1 3-1.5c2.8-.5 3-1.8 2.6-2.4-.4-.5-2-.5.6-3.6 0 0 1 .3 1.6 1 .7.8 3.7 7.2-7.8 6.5z"/>
    <path id="path560" fill="#999" d="M732.3 248.6c.1 5.3 7 3.3 7 3.3a28 28 0 0 0-5 4.6c.5-2.6-3.9-3.2-3.9-3.2.4-1.6 1-3.3 1.9-4.7zm25.3-28.1c1-1.3 1.8-2.4 2.2-3.2 0 0 2.5 1.7 2.6 4.9 0 0 3.3-5.6 5.8-7.7 0 0 2.3 2.3 2 7 0 0 4.6-2.5 11.8-2.5 0 0-2.7 3.1-2.8 5 0 0 10-1.2 15.3-.3 0 0-13.8 7.7-10 8.4 4 .7 8 0 8 0s-4.4 4.4-11.4 5.3c0 0 8.9-.1 10.7 1.9 0 0-2.6.4-6 1.6 0 0-2.5-2.4-10-2 0 0 5.8-3.3 10.4-4.4 0 0-2-2.6-5.2-.2 0 0-6.3-4.3-1-8 0 0-3.7-.7-6.1 1 0 0 0-3 2.7-4.3 0 0-7-1.2-8.7 4 0 0-1.4-2.1-.7-4.5 0 0-4.3 2.4-6.2 5.2 0 0-.7-5.3-3.4-7.2M744 253.9c-1.2.3-3 .4-5.2.3 0 0 .2-.7 1.7-1.2 0 0 .4.9 3.5.9"/>
    <path id="path562" d="M756.8 234s3.2 2.5 4.3 4c0 0 3-2 4-3.7 0 0 2.3 1.5 3 3.7 0 0 1.7-1 2-2.6 0 0 4 .8 5.4 2.1 0 0 .6-3.8 0-6.3 0 0 2.8.3 4.5 1 0 0-1.6-2.6 6.5-5.9 0 0-6.1 1.4-8.5 4 0 0-2.6.2-3.7-.6v5.8s-1.6-.7-4.6-1.4c0 0-.8 1.3-1.3 1.6 0 0-2-1.6-2.8-3.5 0 0-3 2.7-4 3.8 0 0-2.9-2-4.8-2z"/>
    <path id="path564" fill="#ffc221" d="M738.4 273.9s1.3.6 4.3-1.8 11.3-7.7 12-12c.9-4.3-2.6-4.5-5.3-3.3-2.8 1.3-1.6 3.6-1.5 4.4.1.8.2 3.8-4.3 7.9l-5.2 4.8z"/>
    <path id="path566" fill="#ffc221" d="M737.5 275.2s-6.7-2.8-.7-5.8 8.7-3.8 9.4-6.4c.7-2.5.3-2-2-1-2.2 1-10.7 5-12 1.3 0 0 3.5 1.4 7.9-.7 4.4-2.2 8-2.8 5.2-3.7-2.8-.9-12.9.2-14.5.7-1.7.5-1.3.4-1.6 2-.3 1.7-2.1 5.2-2.8 6.2-.7 1-2.4 5.3.7 7.2 3 1.9 8 1.7 10.4.2z"/>
    <path id="path568" d="M734.9 260.6s-1.6.2-1.3.8c.3.6.7.5 1.3.5.5 0 1.4-.3 1.5-.6.1-.4-1-.9-1.5-.7z"/>
    <path id="path570" fill="#fff" d="M737 273.7s-3.1-1.5.5-3.4c3.6-2 7.4-3.9 8-4.7 0 0-1.8 2.4-8.4 8.1z"/>
  </g>
</svg>
