<svg viewBox="0 0 640 480" xmlns="http://www.w3.org/2000/svg"><path d="m0 0h640v480h-640z" fill="#006" stroke-width="1.3"/><path d="m299.8 392.5-43.7 3.8 6 43.4-30.1-31.7-30.1 31.7 6-43.4-43.7-3.8 37.7-22.3-24.3-36.5 41 15.5 13.4-41.7 13.5 41.7 41-15.5-24.3 36.5m224.4 62.3-10.6-15.8 17.8 6.7 5.8-18.1 5.8 18.1 17.8-6.7-10.5 15.8 16.4 9.7-19 1.7 2.6 18.9-13-13.9-13.2 13.9 2.6-18.9-19-1.6m16.4-291.9-10.5-15.8 17.8 6.7 5.8-18.1 5.8 18.1 17.8-6.7-10.5 15.8 16.4 9.8-19 1.6 2.6 18.9-13-13.8-13.2 13.7 2.6-18.8-19-1.6m-89.3 104.8-10.5-15.8 17.8 6.7 5.8-18.1 5.9 18.1 17.8-6.7-10.6 15.8 16.4 9.7-19 1.7 2.7 18.9-13.2-13.9-13 13.9 2.5-18.9-19-1.6m216.3-38-10.7-15.8 17.8 6.7 5.8-18.1 5.9 18.1 17.8-6.7-10.5 15.8 16.3 9.7-19 1.7 2.6 18.8-13-13.8-13.2 13.8 2.6-18.8-19-1.7m-22.1 73.5-10.3 6.5 2.9-11.9-9.3-7.8 12.1-1 4.6-11.2 4.7 11.3 12.1.9-9.3 7.8 2.9 11.9" fill="#fff" fill-rule="evenodd" stroke-width="1.3"/><g stroke-width=".5"><path d="m0 0h320v240h-320z" fill="#006"/><path d="m37.5 0 122 90.5 121.5-90.5h39v31l-120 89.5 120 89v30.5h-40l-120-89.5-119.5 89.5h-40.5v-30l119.5-89-119.5-89v-32z" fill="#fff"/><path d="m212 140.5 108 79.5v20l-135.5-99.5zm-92 10 3 17.5-96 72h-27zm200-150.5v1.5l-124.5 94 1-22 98.5-73.5zm-320 0 119.5 88h-30l-89.5-67z" fill="#c8102e"/><path d="m120.5 0v240h80v-240zm-120.5 80v80h320v-80z" fill="#fff"/><path d="m0 96.5v48h320v-48zm136.5-96.5v240h48v-240z" fill="#c8102e"/></g></svg>