<svg height="480" viewBox="0 0 640 480" width="640" xmlns="http://www.w3.org/2000/svg" xmlns:xlink="http://www.w3.org/1999/xlink"><clipPath id="a"><path d="m0 0h288v216h-288z"/></clipPath><g clip-path="url(#a)" transform="scale(2.2222)"><path d="m0 0v216h324v-216z" fill="#39c"/><path d="m0 144v12h324v-12zm0 24v12h324v-12z" fill="#ff0"/></g><path d="m142.647 28.067 2.952 2.952-2.953-2.953zm-2.952 5.903 2.952 2.953-2.952-2.952m5.904 0 2.95 2.953-2.95-2.952z" fill="#9cc"/><path d="m139.695 36.923 2.952 2.952zm5.904 0 2.95 2.952z" fill="#ccf"/><path d="m136.743 42.827 2.952 2.952-2.952-2.953z" fill="#6cc"/><path d="m142.647 42.827 2.952 2.952-2.953-2.953z" fill="#c66"/><path d="m148.55 42.827 2.953 2.952-2.952-2.953z" fill="#6cc"/><path d="m136.743 45.78 2.952 2.95zm11.807 0 2.953 2.95-2.952-2.95z" fill="#ccf"/><path d="m139.695 48.73 2.952 2.954-2.952-2.953m5.904 0 2.95 2.954-2.95-2.953z" fill="#fcc"/><path d="m133.79 51.684 2.953 2.952-2.952-2.952z" fill="#6cc"/><path d="m142.16 34.065-20.695 78.45-78.68 21.367 78.453 20.476 20.922 78.45 20.918-78.45 78.452-20.922-78.452-20.922-20.918-78.45z" fill="#c00" stroke="#fff" stroke-width="3.69"/><path d="m151.503 51.684 2.952 2.952z" fill="#6cc"/><path d="m133.79 54.636 2.953 2.952-2.952-2.952m17.713 0 2.952 2.952z" fill="#9cf"/><path d="m136.743 57.588 2.952 2.952zm11.808 0 2.953 2.952-2.952-2.952z" fill="#fcc"/><path d="m130.838 60.54 2.953 2.952-2.952-2.952z" fill="#69c"/><path d="m137.726 62.51.984 1.967-.984-1.968m11.808 0 .984 1.967-.984-1.968z" fill="#c33"/><path d="m154.455 60.54 2.952 2.952z" fill="#69c"/><path d="m130.838 63.492 2.953 2.952-2.952-2.952m23.617 0 2.952 2.952z" fill="#9cf"/><path d="m133.79 66.444 2.953 2.952-2.952-2.952m17.713 0 2.952 2.952z" fill="#fcc"/><path d="m127.886 69.396 2.952 2.952zm29.521 0 2.952 2.952-2.953-2.952z" fill="#69c"/><path d="m127.886 72.348 2.952 2.952zm29.52 0 2.953 2.952z" fill="#9cc"/><path d="m127.886 75.3 2.952 2.952zm29.52 0 2.953 2.952z" fill="#cff"/><path d="m124.934 78.252 2.952 2.952z" fill="#69c"/><path d="m130.838 78.252 2.953 2.952-2.952-2.952m23.617 0 2.952 2.952z" fill="#fcc"/><path d="m160.36 78.252 2.95 2.952z" fill="#69c"/><path d="m124.934 81.204 2.952 2.953-2.952-2.952z" fill="#9cc"/><path d="m131.82 83.174.986 1.967-.985-1.966m23.618 0 .984 1.967-.984-1.966z" fill="#c33"/><path d="m160.36 81.204 2.95 2.953-2.95-2.952z" fill="#9cc"/><path d="m124.934 84.157 2.952 2.952-2.952-2.953m35.425 0 2.95 2.952-2.95-2.953z" fill="#cff"/><path d="m127.886 87.11 2.952 2.95zm29.52 0 2.953 2.95z" fill="#fcc"/><path d="m121.982 90.06 2.952 2.953-2.952-2.952z" fill="#9cc"/><path d="m128.87 92.03.984 1.968-.985-1.968m29.52 0 .985 1.968z" fill="#c33"/><path d="m163.31 90.06 2.954 2.953-2.953-2.952z" fill="#9cc"/><path d="m121.982 93.013 2.952 2.952zm41.33 0 2.952 2.952-2.953-2.952z" fill="#ccf"/><path d="m124.934 95.965 2.952 2.952zm35.425 0 2.95 2.952z" fill="#fcc"/><path d="m119.03 98.917 2.952 2.952-2.952-2.953z" fill="#9cc"/><path d="m125.917 100.886.984 1.968-.983-1.968m35.425 0 .985 1.968z" fill="#c33"/><path d="m166.264 98.917 2.952 2.952-2.952-2.953z" fill="#9cc"/><path d="m119.03 101.87 2.952 2.95zm47.234 0 2.952 2.95z" fill="#ccf"/><path d="m121.982 104.82 2.952 2.953-2.952-2.952m41.33 0 2.952 2.953-2.953-2.952z" fill="#fcc"/><path d="m116.078 107.773 2.952 2.952z" fill="#9cc"/><path d="m121.982 107.773 2.952 2.952zm41.33 0 2.952 2.952-2.953-2.952z" fill="#c33"/><path d="m169.216 107.773 2.952 2.952zm-61.994 2.952 2.952 2.953-2.952-2.952z" fill="#9cc"/><path d="m110.174 110.725 2.952 2.953-2.952-2.952m64.946 0 2.952 2.952z" fill="#ccf"/><path d="m178.072 110.725 2.952 2.953-2.952-2.952m-79.707 2.952 2.952 2.952z" fill="#9cc"/><path d="m101.317 113.678 2.953 2.952z" fill="#ccf"/><path d="m113.126 113.678 2.952 2.952z" fill="#fcc"/><path d="m116.078 113.678 2.952 2.952zm53.138 0 2.952 2.952z" fill="#c33"/><path d="m172.168 113.678 2.952 2.952z" fill="#fcc"/><path d="m183.976 113.678 2.952 2.952z" fill="#ccf"/><path d="m186.928 113.678 2.952 2.952z" fill="#9cc"/><path d="m86.557 116.63 2.952 2.952-2.953-2.952z" fill="#69c"/><path d="m89.51 116.63 2.95 2.952z" fill="#9cc"/><path d="m92.46 116.63 2.953 2.952-2.952-2.952z" fill="#cff"/><path d="m104.27 116.63 2.952 2.952z" fill="#fcc"/><path d="m109.19 117.613 1.97.984zm67.9 0 1.967.984-1.968-.984z" fill="#c33"/><path d="m181.024 116.63 2.952 2.952z" fill="#fcc"/><path d="m192.833 116.63 2.952 2.952z" fill="#cff"/><path d="m195.785 116.63 2.952 2.952z" fill="#9cc"/><path d="m198.737 116.63 2.952 2.952-2.953-2.952m-121.036 2.952 2.953 2.952-2.952-2.952z" fill="#69c"/><path d="m80.653 119.582 2.952 2.952z" fill="#9cc"/><path d="m83.605 119.582 2.952 2.952z" fill="#cff"/><path d="m95.413 119.582 2.952 2.952z" fill="#fcc"/><path d="m100.334 120.565 1.968.984-1.968-.985m85.61 0 1.97.984-1.97-.985z" fill="#c33"/><path d="m189.88 119.582 2.953 2.952z" fill="#fcc"/><path d="m201.69 119.582 2.95 2.952z" fill="#cff"/><path d="m204.64 119.582 2.953 2.952-2.952-2.952z" fill="#9cc"/><path d="m207.593 119.582 2.952 2.952zm-138.75 2.952 2.953 2.952-2.952-2.952z" fill="#69c"/><path d="m71.796 122.534 2.952 2.952z" fill="#9cf"/><path d="m86.557 122.534 2.952 2.952-2.953-2.952z" fill="#fcc"/><path d="m91.478 123.517 1.968.984-1.968-.983m103.324 0 1.967.984-1.968-.983z" fill="#c33"/><path d="m198.737 122.534 2.952 2.952-2.953-2.952z" fill="#fcc"/><path d="m213.497 122.534 2.952 2.952-2.953-2.952z" fill="#9cf"/><path d="m216.45 122.534 2.95 2.952z" fill="#69c"/><path d="m59.988 125.486 2.952 2.952z" fill="#6cc"/><path d="m62.94 125.486 2.952 2.952z" fill="#9cf"/><path d="m74.75 125.486 2.95 2.952zm135.795 0 2.952 2.952z" fill="#fcc"/><path d="m222.353 125.486 2.953 2.952z" fill="#9cf"/><path d="m225.306 125.486 2.952 2.952zm-174.174 2.952 2.952 2.952z" fill="#6cc"/><path d="m54.084 128.438 2.952 2.952z" fill="#ccf"/><path d="m65.892 128.438 2.952 2.952z" fill="#fcc"/><path d="m70.813 129.42 1.968.985-1.967-.984m144.653 0 1.968.985-1.968-.984z" fill="#c33"/><path d="m219.4 128.438 2.954 2.952-2.953-2.952z" fill="#fcc"/><path d="m231.21 128.438 2.952 2.952z" fill="#ccf"/><path d="m234.162 128.438 2.952 2.952z" fill="#6cc"/><path d="m42.275 131.39 2.952 2.952z" fill="#9cc"/><path d="m45.227 131.39 2.953 2.952-2.952-2.952z" fill="#ccf"/><path d="m57.036 131.39 2.952 2.952zm171.222 0 2.952 2.952z" fill="#fcc"/><path d="m240.066 131.39 2.952 2.952z" fill="#ccf"/><path d="m243.018 131.39 2.952 2.952zm-206.648 2.952 2.953 2.952-2.952-2.952z" fill="#9cc"/><path d="m51.132 134.342 2.952 2.952zm183.03 0 2.952 2.952z" fill="#c66"/><path d="m248.922 134.342 2.953 2.952zm-206.647 2.952 2.952 2.953z" fill="#9cc"/><path d="m45.227 137.294 2.953 2.953-2.952-2.953z" fill="#ccf"/><path d="m57.036 137.294 2.952 2.953zm171.222 0 2.952 2.953z" fill="#fcc"/><path d="m240.066 137.294 2.952 2.953z" fill="#ccf"/><path d="m243.018 137.294 2.952 2.953z" fill="#9cc"/><path d="m51.132 140.247 2.952 2.952-2.952-2.953z" fill="#6cc"/><path d="m54.084 140.247 2.952 2.952-2.952-2.953z" fill="#ccf"/><path d="m65.892 140.247 2.952 2.952-2.952-2.953z" fill="#fcc"/><path d="m70.813 141.23 1.968.984-1.967-.984m144.653 0 1.968.984z" fill="#c33"/><path d="m219.4 140.247 2.954 2.952-2.953-2.953z" fill="#fcc"/><path d="m231.21 140.247 2.952 2.952-2.952-2.953z" fill="#ccf"/><path d="m234.162 140.247 2.952 2.952-2.952-2.953m-174.174 2.954 2.952 2.95z" fill="#6cc"/><path d="m62.94 143.2 2.952 2.95z" fill="#9cf"/><path d="m74.75 143.2 2.95 2.95zm135.795 0 2.952 2.95z" fill="#fcc"/><path d="m222.353 143.2 2.953 2.95z" fill="#9cf"/><path d="m225.306 143.2 2.952 2.95z" fill="#6cc"/><path d="m68.844 146.15 2.952 2.953-2.952-2.952z" fill="#69c"/><path d="m71.796 146.15 2.952 2.953-2.952-2.952z" fill="#9cf"/><path d="m86.557 146.15 2.952 2.953-2.953-2.952z" fill="#fcc"/><path d="m91.478 147.134 1.968.984zm103.324 0 1.967.984-1.968-.984z" fill="#c33"/><path d="m198.737 146.15 2.952 2.953-2.953-2.952z" fill="#fcc"/><path d="m213.497 146.15 2.952 2.953-2.953-2.952z" fill="#9cf"/><path d="m216.45 146.15 2.95 2.953-2.95-2.952m-138.75 2.953 2.953 2.952-2.952-2.952z" fill="#69c"/><path d="m80.653 149.103 2.952 2.952z" fill="#9cc"/><path d="m83.605 149.103 2.952 2.952z" fill="#cff"/><path d="m95.413 149.103 2.952 2.952z" fill="#fcc"/><path d="m100.334 150.086 1.968.984zm85.61 0 1.97.984z" fill="#c33"/><path d="m189.88 149.103 2.953 2.952z" fill="#fcc"/><path d="m201.69 149.103 2.95 2.952z" fill="#cff"/><path d="m204.64 149.103 2.953 2.952-2.952-2.952z" fill="#9cc"/><path d="m207.593 149.103 2.952 2.952zm-121.036 2.952 2.952 2.952-2.953-2.952z" fill="#69c"/><path d="m89.51 152.055 2.95 2.952z" fill="#9cc"/><path d="m92.46 152.055 2.953 2.952-2.952-2.952z" fill="#cff"/><path d="m104.27 152.055 2.952 2.952z" fill="#fcc"/><path d="m109.19 153.038 1.97.984zm67.9 0 1.967.984-1.968-.984z" fill="#c33"/><path d="m181.024 152.055 2.952 2.952z" fill="#fcc"/><path d="m192.833 152.055 2.952 2.952z" fill="#cff"/><path d="m195.785 152.055 2.952 2.952z" fill="#9cc"/><path d="m198.737 152.055 2.952 2.952-2.953-2.952z" fill="#69c"/><path d="m98.365 155.007 2.952 2.952-2.952-2.953z" fill="#9cc"/><path d="m101.317 155.007 2.953 2.952-2.953-2.953z" fill="#ccf"/><path d="m113.126 155.007 2.952 2.952-2.952-2.953z" fill="#fcc"/><path d="m116.078 155.007 2.952 2.952-2.952-2.953m53.138 0 2.952 2.952-2.952-2.953z" fill="#c33"/><path d="m172.168 155.007 2.952 2.952-2.952-2.953z" fill="#fcc"/><path d="m183.976 155.007 2.952 2.952-2.952-2.953z" fill="#ccf"/><path d="m186.928 155.007 2.952 2.952-2.952-2.953m-79.706 2.952 2.952 2.95z" fill="#9cc"/><path d="m110.174 157.96 2.952 2.95zm64.946 0 2.952 2.95z" fill="#ccf"/><path d="m178.072 157.96 2.952 2.95zm-61.994 2.95 2.952 2.953-2.952-2.952z" fill="#9cc"/><path d="m121.982 160.91 2.952 2.953-2.952-2.952m41.33 0 2.952 2.953-2.953-2.952z" fill="#c33"/><path d="m169.216 160.91 2.952 2.953-2.952-2.952z" fill="#9cc"/><path d="m121.982 163.863 2.952 2.952zm41.33 0 2.952 2.952-2.953-2.952z" fill="#fcc"/><path d="m119.03 166.815 2.952 2.953z" fill="#ccf"/><path d="m125.917 168.784.984 1.968-.983-1.968m35.425 0 .985 1.968z" fill="#c33"/><path d="m166.264 166.815 2.952 2.953z" fill="#ccf"/><path d="m119.03 169.768 2.952 2.952zm47.234 0 2.952 2.952z" fill="#9cc"/><path d="m124.934 172.72 2.952 2.952zm35.425 0 2.95 2.952z" fill="#fcc"/><path d="m121.982 175.672 2.952 2.952z" fill="#ccf"/><path d="m128.87 177.64.984 1.97-.985-1.97m29.52 0 .985 1.97z" fill="#c33"/><path d="m163.31 175.672 2.954 2.952-2.953-2.952z" fill="#ccf"/><path d="m121.982 178.624 2.952 2.952zm41.33 0 2.952 2.952-2.953-2.952z" fill="#9cc"/><path d="m127.886 181.576 2.952 2.952zm29.52 0 2.953 2.952z" fill="#fcc"/><path d="m124.934 184.528 2.952 2.952z" fill="#cff"/><path d="m131.82 186.497.986 1.968-.985-1.968m23.618 0 .984 1.968z" fill="#c33"/><path d="m160.36 184.528 2.95 2.952z" fill="#cff"/><path d="m124.934 187.48 2.952 2.952zm35.425 0 2.95 2.952z" fill="#9cc"/><path d="m124.934 190.432 2.952 2.952z" fill="#69c"/><path d="m130.838 190.432 2.953 2.952-2.952-2.952m23.617 0 2.952 2.952z" fill="#fcc"/><path d="m160.36 190.432 2.95 2.952z" fill="#69c"/><path d="m127.886 193.384 2.952 2.952zm29.521 0 2.952 2.952-2.953-2.952z" fill="#cff"/><path d="m127.886 196.336 2.952 2.953-2.952-2.954m29.52 0 2.953 2.953-2.953-2.954z" fill="#9cc"/><path d="m127.886 199.29 2.952 2.95zm29.52 0 2.953 2.95z" fill="#69c"/><path d="m133.79 202.24 2.953 2.953-2.952-2.952m17.713 0 2.952 2.953-2.952-2.952z" fill="#fcc"/><path d="m130.838 205.193 2.953 2.952-2.952-2.952z" fill="#9cf"/><path d="m137.726 207.162.984 1.968zm11.808 0 .984 1.968z" fill="#c33"/><path d="m154.455 205.193 2.952 2.952z" fill="#9cf"/><path d="m130.838 208.145 2.953 2.952-2.952-2.952m23.617 0 2.952 2.952z" fill="#69c"/><path d="m136.743 211.097 2.952 2.952-2.952-2.953m11.808 0 2.953 2.952-2.952-2.953z" fill="#fcc"/><path d="m133.79 214.05 2.953 2.95-2.952-2.95zm17.713 0 2.952 2.95z" fill="#9cf"/><path d="m133.79 217 2.953 2.953zm17.713 0 2.952 2.953-2.952-2.952z" fill="#6cc"/><path d="m139.695 219.953 2.952 2.952zm5.904 0 2.95 2.952z" fill="#fcc"/><path d="m136.743 222.905 2.952 2.952zm11.808 0 2.953 2.952-2.952-2.952z" fill="#ccf"/><path d="m136.743 225.857 2.952 2.953z" fill="#6cc"/><path d="m142.647 225.857 2.952 2.953-2.953-2.953z" fill="#c66"/><path d="m148.55 225.857 2.953 2.953-2.952-2.953z" fill="#6cc"/><path d="m139.695 231.762 2.952 2.952zm5.904 0 2.95 2.952z" fill="#ccf"/><path d="m139.695 234.714 2.952 2.952zm5.904 0 2.95 2.952zm-2.953 5.904 2.952 2.952-2.953-2.952z" fill="#9cc"/></svg>