<svg viewBox="0 0 640 480" xmlns="http://www.w3.org/2000/svg" xmlns:xlink="http://www.w3.org/1999/xlink"><clipPath id="a"><path d="m0 0h288v216h-288z"/></clipPath><g clip-path="url(#a)" transform="scale(2.2222)"><path d="m0 0v216h324v-216z" fill="#39c"/><path d="m0 144v12h324v-12zm0 24v12h324v-12z" fill="#ff0"/></g><path d="m142.7 28 2.9 3-3-3zm-3 6 3 3zm5.9 0 3 3z" fill="#9cc"/><path d="m139.7 37 3 2.9-3-3m5.9 0 3 3z" fill="#ccf"/><path d="m136.7 42.8 3 3z" fill="#6cc"/><path d="m142.7 42.8 2.9 3-3-3z" fill="#c66"/><path d="m148.6 42.8 2.9 3-3-3z" fill="#6cc"/><path d="m136.7 45.8 3 3zm11.9 0 2.9 3-3-3z" fill="#ccf"/><path d="m139.7 48.7 3 3zm5.9 0 3 3z" fill="#fcc"/><path d="m133.8 51.7 3 3z" fill="#6cc"/><path d="m142.2 34-20.7 78.5-78.7 21.5 78.4 20.5 21 78.4 20.9-78.4 78.4-21-78.4-20.9-21-78.4z" fill="#c00" stroke="#fff" stroke-width="3.7"/><path d="m151.5 51.7 3 3z" fill="#6cc"/><path d="m133.8 54.6 3 3zm17.7 0 3 3z" fill="#9cf"/><path d="m136.7 57.6 3 3zm11.9 0 2.9 3-3-3z" fill="#fcc"/><path d="m130.8 60.5 3 3z" fill="#69c"/><path d="m137.7 62.5 1 2zm11.8 0 1 2z" fill="#c33"/><path d="m154.5 60.5 3 3z" fill="#69c"/><path d="m130.8 63.5 3 3zm23.7 0 3 3z" fill="#9cf"/><path d="m133.8 66.4 3 3zm17.7 0 3 3z" fill="#fcc"/><path d="m127.9 69.4 3 3zm29.5 0 3 3z" fill="#69c"/><path d="m127.9 72.3 3 3zm29.5 0 3 3z" fill="#9cc"/><path d="m127.9 75.3 3 3zm29.5 0 3 3z" fill="#cff"/><path d="m125 78.3 2.9 2.9-3-3z" fill="#69c"/><path d="m130.8 78.3 3 2.9-3-3m23.7 0 3 3z" fill="#fcc"/><path d="m160.4 78.3 3 2.9-3-3z" fill="#69c"/><path d="m125 81.2 2.9 3-3-3z" fill="#9cc"/><path d="m131.8 83.2 1 2zm23.6 0 1 2z" fill="#c33"/><path d="m160.4 81.2 3 3z" fill="#9cc"/><path d="m125 84.2 2.9 3-3-3m35.5 0 3 3z" fill="#cff"/><path d="m127.9 87.1 3 3zm29.5 0 3 3z" fill="#fcc"/><path d="m122 90 3 3z" fill="#9cc"/><path d="m128.9 92 1 2zm29.5 0 1 2z" fill="#c33"/><path d="m163.3 90 3 3z" fill="#9cc"/><path d="m122 93 3 3zm41.3 0 3 3z" fill="#ccf"/><path d="m125 96 2.9 3-3-3m35.5 0 3 3z" fill="#fcc"/><path d="m119 99 3 2.9-3-3z" fill="#9cc"/><path d="m126 100.9.9 2-1-2m35.4 0 1 2z" fill="#c33"/><path d="m166.3 99 3 2.9-3-3z" fill="#9cc"/><path d="m119 101.9 3 3zm47.3 0 3 3z" fill="#ccf"/><path d="m122 104.8 3 3zm41.3 0 3 3z" fill="#fcc"/><path d="m116 107.8 3 3z" fill="#9cc"/><path d="m122 107.8 3 3zm41.3 0 3 3z" fill="#c33"/><path d="m169.2 107.8 3 3zm-62 3 3 2.9-3-3z" fill="#9cc"/><path d="m110.2 110.7 3 3zm65 0 2.9 3-3-3z" fill="#ccf"/><path d="m178 110.7 3 3zm-79.6 3 3 3z" fill="#9cc"/><path d="m101.3 113.7 3 3z" fill="#ccf"/><path d="m113.1 113.7 3 3z" fill="#fcc"/><path d="m116 113.7 3 3zm53.2 0 3 3z" fill="#c33"/><path d="m172.2 113.7 3 3z" fill="#fcc"/><path d="m184 113.7 3 3z" fill="#ccf"/><path d="m187 113.7 2.9 3-3-3z" fill="#9cc"/><path d="m86.6 116.6 3 3z" fill="#69c"/><path d="m89.5 116.6 3 3z" fill="#9cc"/><path d="m92.5 116.6 3 3z" fill="#cff"/><path d="m104.3 116.6 3 3z" fill="#fcc"/><path d="m109.2 117.6 2 1zm67.9 0 2 1z" fill="#c33"/><path d="m181 116.6 3 3z" fill="#fcc"/><path d="m192.8 116.6 3 3z" fill="#cff"/><path d="m195.8 116.6 3 3z" fill="#9cc"/><path d="m198.7 116.6 3 3zm-121 3 3 3z" fill="#69c"/><path d="m80.7 119.6 3 3z" fill="#9cc"/><path d="m83.6 119.6 3 3z" fill="#cff"/><path d="m95.4 119.6 3 3z" fill="#fcc"/><path d="m100.3 120.6 2 1zm85.6 0 2 1z" fill="#c33"/><path d="m189.9 119.6 3 3z" fill="#fcc"/><path d="m201.7 119.6 3 3z" fill="#cff"/><path d="m204.6 119.6 3 3z" fill="#9cc"/><path d="m207.6 119.6 3 3zm-138.8 3 3 2.9-3-3z" fill="#69c"/><path d="m71.8 122.5 3 3z" fill="#9cf"/><path d="m86.6 122.5 3 3z" fill="#fcc"/><path d="m91.5 123.5 2 1zm103.3 0 2 1z" fill="#c33"/><path d="m198.7 122.5 3 3z" fill="#fcc"/><path d="m213.5 122.5 3 3z" fill="#9cf"/><path d="m216.4 122.5 3 3z" fill="#69c"/><path d="m60 125.5 3 3z" fill="#6cc"/><path d="m63 125.5 2.9 3-3-3z" fill="#9cf"/><path d="m74.8 125.5 2.9 3-3-3zm135.8 0 2.9 3-3-3z" fill="#fcc"/><path d="m222.3 125.5 3 3z" fill="#9cf"/><path d="m225.3 125.5 3 3zm-174.2 3 3 2.9-3-3z" fill="#6cc"/><path d="m54 128.4 3 3z" fill="#ccf"/><path d="m65.9 128.4 3 3z" fill="#fcc"/><path d="m70.8 129.4 2 1zm144.7 0 2 1z" fill="#c33"/><path d="m219.4 128.4 3 3z" fill="#fcc"/><path d="m231.2 128.4 3 3z" fill="#ccf"/><path d="m234.2 128.4 3 3z" fill="#6cc"/><path d="m42.3 131.4 3 3z" fill="#9cc"/><path d="m45.2 131.4 3 3z" fill="#ccf"/><path d="m57 131.4 3 3zm171.3 0 3 3z" fill="#fcc"/><path d="m240 131.4 3 3z" fill="#ccf"/><path d="m243 131.4 3 3zm-206.6 3 3 2.9-3-3z" fill="#9cc"/><path d="m51.1 134.3 3 3zm183 0 3 3z" fill="#c66"/><path d="m249 134.3 2.9 3-3-3m-206.6 3 3 3z" fill="#9cc"/><path d="m45.2 137.3 3 3z" fill="#ccf"/><path d="m57 137.3 3 3zm171.3 0 3 3z" fill="#fcc"/><path d="m240 137.3 3 3z" fill="#ccf"/><path d="m243 137.3 3 3z" fill="#9cc"/><path d="m51.1 140.3 3 2.9-3-3z" fill="#6cc"/><path d="m54 140.3 3 2.9-3-3z" fill="#ccf"/><path d="m65.9 140.3 3 2.9-3-3z" fill="#fcc"/><path d="m70.8 141.2 2 1zm144.7 0 2 1z" fill="#c33"/><path d="m219.4 140.3 3 2.9-3-3z" fill="#fcc"/><path d="m231.2 140.3 3 2.9-3-3z" fill="#ccf"/><path d="m234.2 140.3 3 2.9-3-3m-174.2 3 3 3z" fill="#6cc"/><path d="m63 143.2 2.9 3-3-3z" fill="#9cf"/><path d="m74.8 143.2 2.9 3-3-3zm135.8 0 2.9 3-3-3z" fill="#fcc"/><path d="m222.3 143.2 3 3z" fill="#9cf"/><path d="m225.3 143.2 3 3z" fill="#6cc"/><path d="m68.8 146.2 3 2.9-3-3z" fill="#69c"/><path d="m71.8 146.2 3 2.9-3-3z" fill="#9cf"/><path d="m86.6 146.2 3 2.9-3-3z" fill="#fcc"/><path d="m91.5 147.1 2 1zm103.3 0 2 1z" fill="#c33"/><path d="m198.7 146.2 3 2.9-3-3z" fill="#fcc"/><path d="m213.5 146.2 3 2.9-3-3z" fill="#9cf"/><path d="m216.4 146.2 3 2.9-3-3m-138.7 3 3 3z" fill="#69c"/><path d="m80.7 149.1 3 3z" fill="#9cc"/><path d="m83.6 149.1 3 3z" fill="#cff"/><path d="m95.4 149.1 3 3z" fill="#fcc"/><path d="m100.3 150 2 1zm85.6 0 2 1z" fill="#c33"/><path d="m189.9 149.1 3 3z" fill="#fcc"/><path d="m201.7 149.1 3 3z" fill="#cff"/><path d="m204.6 149.1 3 3z" fill="#9cc"/><path d="m207.6 149.1 3 3zm-121 3 2.9 2.9-3-3z" fill="#69c"/><path d="m89.5 152 3 3z" fill="#9cc"/><path d="m92.5 152 3 3z" fill="#cff"/><path d="m104.3 152 3 3z" fill="#fcc"/><path d="m109.2 153 2 1zm67.9 0 2 1z" fill="#c33"/><path d="m181 152 3 3z" fill="#fcc"/><path d="m192.8 152 3 3z" fill="#cff"/><path d="m195.8 152 3 3z" fill="#9cc"/><path d="m198.7 152 3 3z" fill="#69c"/><path d="m98.4 155 3 3z" fill="#9cc"/><path d="m101.3 155 3 3z" fill="#ccf"/><path d="m113.1 155 3 3z" fill="#fcc"/><path d="m116 155 3 3zm53.2 0 3 3z" fill="#c33"/><path d="m172.2 155 3 3z" fill="#fcc"/><path d="m184 155 3 3z" fill="#ccf"/><path d="m187 155 2.9 3-3-3m-79.7 3 3 3z" fill="#9cc"/><path d="m110.2 158 3 3zm65 0 2.9 3-3-3z" fill="#ccf"/><path d="m178 158 3 3zm-62 3 3 2.9-3-3z" fill="#9cc"/><path d="m122 161 3 2.9-3-3m41.3 0 3 3z" fill="#c33"/><path d="m169.2 161 3 2.9-3-3z" fill="#9cc"/><path d="m122 163.9 3 3zm41.3 0 3 3z" fill="#fcc"/><path d="m119 166.8 3 3z" fill="#ccf"/><path d="m126 168.8.9 2-1-2m35.4 0 1 2z" fill="#c33"/><path d="m166.3 166.8 3 3z" fill="#ccf"/><path d="m119 169.8 3 3zm47.3 0 3 3z" fill="#9cc"/><path d="m125 172.7 2.9 3-3-3m35.5 0 3 3z" fill="#fcc"/><path d="m122 175.7 3 3z" fill="#ccf"/><path d="m128.9 177.6 1 2zm29.5 0 1 2z" fill="#c33"/><path d="m163.3 175.7 3 3z" fill="#ccf"/><path d="m122 178.6 3 3zm41.3 0 3 3z" fill="#9cc"/><path d="m127.9 181.6 3 3zm29.5 0 3 3z" fill="#fcc"/><path d="m125 184.5 2.9 3-3-3z" fill="#cff"/><path d="m131.8 186.5 1 2zm23.6 0 1 2z" fill="#c33"/><path d="m160.4 184.5 3 3z" fill="#cff"/><path d="m125 187.5 2.9 3-3-3m35.5 0 3 3z" fill="#9cc"/><path d="m125 190.4 2.9 3-3-3z" fill="#69c"/><path d="m130.8 190.4 3 3zm23.7 0 3 3z" fill="#fcc"/><path d="m160.4 190.4 3 3z" fill="#69c"/><path d="m127.9 193.4 3 3zm29.5 0 3 3z" fill="#cff"/><path d="m127.9 196.3 3 3zm29.5 0 3 3z" fill="#9cc"/><path d="m127.9 199.3 3 3zm29.5 0 3 3z" fill="#69c"/><path d="m133.8 202.2 3 3zm17.7 0 3 3z" fill="#fcc"/><path d="m130.8 205.2 3 3z" fill="#9cf"/><path d="m137.7 207.2 1 2zm11.8 0 1 2z" fill="#c33"/><path d="m154.5 205.2 3 3z" fill="#9cf"/><path d="m130.8 208.2 3 2.9-3-3m23.7 0 3 3z" fill="#69c"/><path d="m136.7 211.1 3 3zm11.9 0 2.9 3-3-3z" fill="#fcc"/><path d="m133.8 214 3 3zm17.7 0 3 3z" fill="#9cf"/><path d="m133.8 217 3 3zm17.7 0 3 3z" fill="#6cc"/><path d="m139.7 220 3 3zm5.9 0 3 3z" fill="#fcc"/><path d="m136.7 222.9 3 3zm11.9 0 2.9 3-3-3z" fill="#ccf"/><path d="m136.7 225.9 3 3z" fill="#6cc"/><path d="m142.7 225.9 2.9 3-3-3z" fill="#c66"/><path d="m148.6 225.9 2.9 3-3-3z" fill="#6cc"/><path d="m139.7 231.8 3 3zm5.9 0 3 3z" fill="#ccf"/><path d="m139.7 234.7 3 3zm5.9 0 3 3zm-3 6 3 2.9-3-3z" fill="#9cc"/></svg>