<svg height="480" viewBox="0 0 640 480" width="640" xmlns="http://www.w3.org/2000/svg" xmlns:xlink="http://www.w3.org/1999/xlink"><clipPath id="a"><path d="m-85.333 0h682.67v512h-682.67z"/></clipPath><g clip-path="url(#a)" fill-rule="evenodd" transform="matrix(.9375 0 0 .9375 80 0)"><path d="m-85.333 0h682.67v512h-682.67z" fill="#009"/><path d="m56.489 0 510.978 512.267v-512z" fill="#fc0"/><path d="m439.883 481.532-27.865-20.359-28.639 20.261 10.828-33.243-28.18-20.528 34.914.071 10.855-33.192 10.725 33.233 34.923.099-27.942 20.657zm81.294 10.343-34.923-.099-10.725-33.233-10.855 33.192-34.914-.071 28.18 20.528-10.828 33.243 28.639-20.261 27.865 20.359-10.38-33zm-155.541-107.209 27.942-20.657-34.923-.099-10.725-33.233-10.855 33.192-34.914-.071 28.18 20.528-10.828 33.243 28.639-20.261 27.865 20.359zm-64.355-64.445 27.942-20.657-34.923-.099-10.725-33.233-10.855 33.192-34.914-.071 28.18 20.528-10.828 33.243 28.639-20.261 27.865 20.359zm-63.645-63.644 27.941-20.658-34.922-.099-10.725-33.233-10.855 33.192-34.914-.071 28.18 20.528-10.828 33.243 28.639-20.263 27.865 20.36zm-64.445-64.267 27.941-20.658-34.922-.099-10.725-33.233-10.855 33.192-34.914-.071 28.18 20.528-10.828 33.243 28.639-20.262 27.865 20.36zm-63.644-63.912 27.941-20.658-34.922-.099-10.726-33.233-10.855 33.192-34.914-.071 28.18 20.528-10.828 33.243 28.639-20.262 27.865 20.36zm-64-64 27.941-20.658-34.922-.099-10.726-33.233-10.855 33.192-34.914-.071 28.18 20.528-10.827 33.243 28.639-20.262 27.865 20.36zm-64-64 27.941-20.657-34.922-.099-10.726-33.234-10.855 33.192-34.914-.071 28.18 20.528-10.827 33.243 28.639-20.263 27.865 20.36-10.381-32.999z" fill="#fff"/></g></svg>