<svg viewBox="0 0 640 480" xmlns="http://www.w3.org/2000/svg" xmlns:xlink="http://www.w3.org/1999/xlink"><clipPath id="a"><path d="m-85.3 0h682.6v512h-682.6z"/></clipPath><g clip-path="url(#a)" fill-rule="evenodd" transform="matrix(.9375 0 0 .9375 80 0)"><path d="m-85.3 0h682.6v512h-682.6z" fill="#009"/><path d="m56.5 0 511 512.3v-512z" fill="#fc0"/><path d="m439.9 481.5-27.9-20.3-28.6 20.2 10.8-33.2-28.2-20.5h35l10.8-33.2 10.7 33.3h35l-28 20.7zm81.3 10.4-35-.1-10.7-33.3-10.8 33.2h-35l28.2 20.5-10.8 33.2 28.6-20.2 28 20.3-10.5-33zm-155.6-107.2 28-20.7-35-.1-10.7-33.2-10.8 33.2-35-.1 28.2 20.5-10.8 33.3 28.6-20.3 28 20.4zm-64.3-64.5 28-20.6-35-.1-10.7-33.3-10.9 33.2h-34.9l28.2 20.5-10.8 33.2 28.6-20.2 27.9 20.3zm-63.7-63.6 28-20.7h-35l-10.6-33.4-10.8 33.2h-35l28.2 20.4-10.8 33.3 28.6-20.3 28 20.4-10.5-33zm-64.4-64.3 28-20.6-35-.1-10.7-33.3-10.9 33.2h-34.9l28.3 20.5-10.8 33.2 28.6-20.2 27.9 20.3-10.4-33zm-63.6-63.9 27.9-20.7h-35l-10.6-33.4-10.9 33.3h-35l28.4 20.4-10.9 33.2 28.6-20.2 27.8 20.4zm-64-64 27.9-20.7h-35l-10.6-33.4-10.9 33.3h-35l28.4 20.4-11 33.3 28.7-20.3 27.8 20.4zm-64-64 27.8-20.7h-35l-10.7-33.3-10.7 33.2h-35l28.3 20.4-10.8 33.2 28.6-20.2 27.8 20.4-10.3-33z" fill="#fff"/></g></svg>