<svg height="480" viewBox="0 0 640 480" width="640" xmlns="http://www.w3.org/2000/svg" xmlns:xlink="http://www.w3.org/1999/xlink"><clipPath id="a"><path d="m-90.533 0h682.67v512h-682.67z"/></clipPath><g clip-path="url(#a)" fill-rule="evenodd" transform="matrix(.9375 0 0 .9375 84.875 0)"><path d="m-178 0 428.8 256-428.8 256zm857.6 0-428.8 256 428.8 256z" fill="#00cf00"/><path d="m-178 0 428.8 256 428.8-256zm0 512 428.8-256 428.8 256z" fill="#f00"/><g fill="#fff"><path d="m679.6 0h-79.902l-777.7 464.3v47.703h79.902l777.7-464.3z"/><path d="m398.855 256c0 81.767-66.285 148.05-148.052 148.05s-148.053-66.282-148.053-148.05 66.285-148.053 148.053-148.053 148.052 66.285 148.052 148.053z"/><path d="m-178 0v47.703l777.7 464.3h79.902v-47.703l-777.7-464.3z"/></g><path d="m279.943 200.164-19.25.322-9.948 16.442-9.92-16.472-19.22-.41 9.303-16.822-9.245-16.875 19.222-.332 9.977-16.457 9.918 16.496 19.222.41-9.333 16.817zm-64.5 111.62-19.25.322-9.948 16.442-9.92-16.47-19.22-.41 9.303-16.824-9.245-16.875 19.222-.332 9.977-16.457 9.918 16.496 19.222.41-9.333 16.817zm130.57 0-19.25.322-9.948 16.442-9.92-16.47-19.22-.41 9.303-16.824-9.245-16.875 19.222-.332 9.977-16.457 9.918 16.496 19.222.41-9.333 16.817z" fill="#f00" stroke="#00de00" stroke-width="3.901"/></g></svg>