<svg viewBox="0 0 640 480" xmlns="http://www.w3.org/2000/svg" xmlns:xlink="http://www.w3.org/1999/xlink"><clipPath id="a"><path d="m-90.5 0h682.5v512h-682.5z"/></clipPath><g clip-path="url(#a)" fill-rule="evenodd" transform="matrix(.9375 0 0 .9375 84.9 0)"><path d="m-178 0 428.8 256-428.8 256zm857.6 0-428.8 256 428.8 256z" fill="#00cf00"/><path d="m-178 0 428.8 256 428.8-256zm0 512 428.8-256 428.8 256z" fill="#f00"/><g fill="#fff"><path d="m679.6 0h-79.9l-777.7 464.3v47.7h79.9l777.7-464.3z"/><path d="m398.9 256a148 148 0 1 1 -296.1 0 148 148 0 0 1 296 0z"/><path d="m-178 0v47.7l777.7 464.3h79.9v-47.7l-777.7-464.3z"/></g><path d="m280 200.2-19.3.3-10 16.4-9.9-16.4-19.2-.4 9.3-16.9-9.2-16.8 19.2-.4 10-16.4 9.9 16.5 19.2.4-9.3 16.8zm-64.6 111.6-19.2.3-10 16.4-9.9-16.4-19.2-.4 9.3-16.9-9.2-16.8 19.2-.4 10-16.4 9.9 16.5 19.2.4-9.3 16.8zm130.6 0-19.2.3-10 16.4-10-16.4-19.1-.4 9.3-16.9-9.3-16.8 19.2-.4 10-16.4 10 16.5 19.2.4-9.4 16.8z" fill="#f00" stroke="#00de00" stroke-width="3.9"/></g></svg>