<svg viewBox="0 0 640 480" xmlns="http://www.w3.org/2000/svg"><path d="m0 0h640v480h-640z" fill="#cf142b"/><g stroke-width="1.2"><path d="m559.7 130.6v161.6c0 43.1-86.2 57.2-86.2 57.2s-86.4-14-86.4-57.4v-161.4h172.5z" fill="#fff"/><path d="m559.7 292.2c0 43.1-86.2 57.2-86.2 57.2s-86.4-14-86.4-57.4c0 0 0-3.5 1.8-5.4 0 0-1 7.1 4.5 12.6 0 0-4.3-7.8 0-15.3 0 0-1.7 9.8 4.4 15.3 0 0-3.3-7.9.4-16.7 0 0-1.8 14.3 4.7 17.3 0 0 1.8-8.4-.8-13.6 0 0 4.5 1.8 4.3 13.8 0 0 1.4-1.8 1.8-10.5 0 0 .2 10 3.5 12.3 0 0 1.2-1-.3-5.5-1.6-4.4.6-6 1-6 0 0-.8 5 3.4 8.8 0 0-1.8-7.9.7-9 0 0-.6 6.7 4.8 8.1 0 0 .3-1.9-.8-4 0 0-1-2.5-.3-4.5 0 0 1.7 6 4 7 0 0-1.4-3.6 0-7 0 0 .2 5 4.7 7.1 0 0-3-4-1.9-8.2l28.7 1.4 15 .7 44.7-3 7.6-6.7s3.1 4.1-1.8 10.8c0 0 4.8-.8 6.3-8.3 0 0 2 4.1-.7 8.8 0 0 5.3-5.4 6-11.3 0 0 2.1 5.8-2.9 12 0 0 4.4-1.6 6.3-8.1 0 0 1.6 4-2.7 9.5 0 0 8.1-4.1 7.9-13 0 0 3.3 4.8-.5 11.6 0 0 4-3.7 4.5-9.3 0 0 2.3 2.5-.2 9.4 0 0 5-4.8 5.8-9.9 0 0 1 4.8-3.2 10.8 0 0 2.9-.8 5.7-6.6 0 0 .7 2.4-1.8 6.6 0 0 2.8-.5 4.6-5.9 0 0 .3 3.2-.5 6 0 0 2.1-1.3 2.6-7.3a9 9 0 0 0 1.2 4.4v.8z" fill="#2f8f22"/><path d="m515.4 198.7s-3 .6-7-.6c-3.8-1.2-5.3-.7-6.5 0 0 0 1.5-3.1-2.3-5.6 0 0 1.2 3.2-.5 4.6 0 0-.7.7-1.6-.3 0 0-1.3-1.5-2.8-2.4 0 0 3.3-1.2 2.7-4.5s-2.4-3.6-3.3-4.1a6 6 0 0 0 0 2.4s-3.5-2 1.2-4.7c4.8-2.7 4-4.4 3.1-5.8a13.1 13.1 0 0 0 -3.5-3.6s1 1.6.7 2.9c-.1 1.2-2.4 2-2-.1.5-2.4 0-2 0-4.3 0 0 4.2 1.4 6-2.8 0 0 1.6-4.3-3.8-6.4 0 0 1.3 1.8.7 3 0 0-1.2 2.2-2.5.6-1.3-1.7-2.2-2.2-2.1-4.2 0 0 4.9.7 3.6-4.7 0 0-.9 3.6-7.2-1.2 0 0 4.2-4.2 2.5-7.6 0 0-.5-1.5-4.9-.7 0 0 3.8-2.4 2.3-4.5 0 0-.9-1.3-4.6.4 0 0 1.5-2.3-2.1-5 0 0-2.4 1.2-3.6 2.4 0 0-2.4-3-4-4.3 0 0-2.8 1.1-3.5 4.3 0 0-1.3-1.5-4.3-2.4 0 0-1.4 2.8.5 5 0 0-1.4 0-4-1.1 0 0-2.8-1.2-2.3 1.1.3 2.4.6 3 1.2 4.2 0 0-6.5-1.5-6.2 2a8.8 8.8 0 0 0 3 6.2s-3.5 4.8-6.6 1.2c0 0-1.2 1.2 1.2 4.2 0 0 2.4 2.5.3 4.2 0 0-2.5 2-3.7-2 0 0-4.1 4.1.8 7.2 0 0 3 1.8 6.3-1 0 0-1 8-4 6.4 0 0-1.9-1.2 1.4-2.9 0 0-4.8-.6-5.5 4 0 0-.6 3.5 3.5 5 0 0 3.1 1.2 0 3.6 0 0-2.5 1.7-.9 4.4 0 0 1.8 2.8-2.9 3.2 0 0-2.4 0-3.3-.4 0 0-1 2-.4 4 0 0-2.3-1.7-7.5.2-5.2 2-4.9.6-5.2 1.2l-1.6 2.4s2.8 3.6 2.9 3.3l-.6 4 1.4.6 10.8-4.8 11-5.7 8.9.4 5.6 1.3 7.2.6 5.4-2.8h7.6l8.4 4.2 9.5 5.7 5 1 3.9-.3v-7.8z" fill="#d40000" stroke="#000" stroke-linejoin="round"/><path d="m428.2 207.7s4.2 2.2 6-.3c0 0 2.2-4.4-2.8-6 0 0 2.8-3.2-.2-6.2 0 0-1.6-1.6-4.2-.5 0 0-1.2-2.3-3.7-2.2 0 0-2.4 0-3 2.5 0 0-3.2-1.2-4.9.6 0 0-3 3.2 1.1 5.8l2.9.3 2.8-1.4 3.3.9s-.9 3.2 2.7 6.5z" fill="#d40000" stroke="#000" stroke-linejoin="round"/><path d="m521.6 200.1a6.7 6.7 0 0 1 6.9 3.8c2.6 6.2-3 9.6-3 9.6.4 1.3.5 3.2.5 3.2 7.8 1 6.4 9.8 6.4 9.8l-2.6-2.2c-4.5-1.8-9.3 2.2-12.6 8.6-3.4 6.6-1.8 9.5-1.2 17.3.6 7.7 13 12.4 13 12.4l-9.7 25c-3.8 10-12 5.9-14.3 3.7-2.3-2-2.9-.8-4 0-1.1 1 5.3 6-6.5 10.8-11.7 4.7-13.7 8.3-15.7 9.5s-10 .5-10.8-.6c-1-1-.4-1-3.5-2.9-3-1.7-8.2-3.5-13.8-6.2s-5.4-6.2-5.3-6.9c0-.7 1.9-6.5-4.7-1.9-6.5 4.7-12.1-2.2-12.1-2.2-1.2-1.7-6.8-16.4-6.8-16.4a92.4 92.4 0 0 0 -4.3-12s-.4.8 4.5-2c4.8-2.7 7-7.3 8.7-11.9s0-12.5-.6-14c-.6-1.6-4.2-8.9-8.7-10.4-4.4-1.6-7.5 2.4-7.5 2.4s-1.3-9 6.6-10c0 0 0-1.8.4-3.1 0 0-5.6-3.4-3-9.6 0 0 1.8-4.3 6.8-3.8l-1.1 2.4s-1.2 12.6 17.2 4.2c18.5-8.6 18-10.2 28.7-4.8l7.6-.1s11-5.3 14.7-3c3.5 2.3 16.3 9.4 16.3 9.4s12.4 4.7 14.9-4z" fill="#64b4d1" stroke="#000"/><path d="m465.8 255s-.6-3.9-1.2-6.4c0 0-1.5-3.9 1-6.8l2.8-3.3s1.8-2.4 4-2.7c0 0 2.3 0 2.4-.5.3-.5 2.8-4.5 8.6 0 0 0 1.8-3 4.8-3.6 0 0 3-.8 4.5 1.4 0 0 3.5-2.6 6.4 1.7 0 0 4.1-2.4 7.2 2.3 0 0 4-2 6.4 2.1 2.5 4.3 2 6 2 6l2 6.8 6.5 8-15.2 5.8h-7l-13.7 3.6-24.3 1.9-6.7-8 9.6-8.3z" fill="#fff" stroke="#00247d" stroke-miterlimit="10"/><path d="m445.3 295.5s-3.6.1-5.5 1.2c-1.8.8-3.3 1.8-5.4 3.2 0 0-1 1.3-5.2.5 0 0-7.2-1.7-7.2 4 0 0-8.8.6-5.2 8.3 0 0 2.3 6 7.3 1.8 0 0-3.2 4.5 3 6.3 0 0 4.4 1.2 5.8-3.5 0 0 .7-1.8-1-4 0 0 2.1-.4 3.6-2.7 0 0-4.6 5.8.5 8 0 0 6.3 1.5 6.6-5 0 0-.6-3.2 2-4.3 0 0 5-1.2 7-6.6 0 0-7-3.9-6.3-7.2zm-14.7-57.5s-5.6-2.5-8.4 0c0 0-3.5-2.2-7.5 0 0 0-3.7 2.4-6.3 5.2 0 0-1.8 1.5-1.2 6.4 0 0 1 3.5.5 5.1 0 0-1.2-.2-3.7 2.8 0 0-3.1 3.5-6 .3 0 0 1 4.6 6.1 3.8 0 0-2.5 2-.3 7 0 0 1.6 3.6-1 8.2 0 0 4.5-1.8 4.4-7.2 0 0-.5-3.6 1-6 0 0-1.5 2.2 1.6 7.1 0 0 2.4 3.6.5 7.2 0 0 4.4-1.6 4-7s-3-3.2-1.4-8.2c0 0 .5 2.6 1.8 4a7.2 7.2 0 0 1 2.4 7s2.6-3.4 2-6.8a13.1 13.1 0 0 0 -1.3-4.4l8.4-4.8 4.3-7.5z" fill="#d40000" stroke="#000" stroke-linejoin="round"/><path d="m417.8 259.5s-3.5-.2-4-3m-6.1-1.8s1.2 0 2.4 1.2c0 0 .7 1.2 1.9 1" fill="none" stroke="#000" stroke-miterlimit="10"/><path d="m423 249.2s-1.8 0-3-.8c0 0-.9-.7-1.5.4 0 0-1 1.6.8 2.3 0 0 2.2 1.2-1.2 3.4 0 0 4-1.6 2.4-3.6 0 0-1.8-1.2-1.2-1.7 0 0 .2-.4 1 0 .6.6 2 .4 2.7 0z"/><path d="m477.6 259 2.1-.6-14-48h-.4z" fill="#784421" stroke="#000"/><path d="m431.2 312.3s-3.2-1.9-6 .3c0 0 .4-1.2 2.4-1.7 0 0 1.2-3.2 4.3-2.9 0 0-1.3 1.6-3 2.8 0 0 1.8.2 2.4 1.5z"/><path d="m419.7 319.8s-5.2-3.2-2.3-8.7c0 0 .8-1.5 2.3-1.2 0 0 3.3 1 .8 5.5 0 0-1.4 2.9-.8 4.5zm10.5 5.3s-7.4-3.4-5.1-9.2c0 0 .7-2 2.4-1.8 0 0 2.8.2 2.3 4 0 0-.9 3.6.4 7z" fill="#64b4d1" stroke="#00247d" stroke-miterlimit="2.6"/><path d="m428.7 303.6s-2.3 1.7-3.1 2.8c0 0-1-1.2-2.2-1.8 0 0 1.5-.3 2.2.3 0 0 1.2-1 3-1.3z"/><path d="m435.2 323.6s6-1.4 4.8-7.5c0 0-.6-2.6-3-2.2 0 0-3 .8-1 4.6 0 0 1.1 2.6-.8 5.1z" fill="#64b4d1" stroke="#00247d" stroke-miterlimit="2.6"/><path d="m461.6 196.7 5.7 1.9s5.4 2.3 12.3 0l5.2-2-3.5 5.4v2.9l2.1 3.2s-1.3.6-5.4-2c0 0-4.4-3.4-9.6 0 0 0-3 2-5.4 2l3.5-3.8-1.3-3.5-3.6-4.3z" fill="#f5ce00" stroke="#000" stroke-miterlimit="2.6"/><path d="m437.5 316.5s.2-.4 0-.5l-.5.2s-.6 1 0 2.4c0 0 .5.9.3 1.8v.4s.3-.1.3-.4c0 0 .4-.8-.2-1.8 0 0-.6-1.4.1-2.1z" fill="#fff"/><path d="m518 207.7s-4.2 2.2-6-.3c0 0-2.1-4.4 2.9-6 0 0-2.8-3.2.1-6.2 0 0 1.6-1.6 4.2-.5 0 0 1.2-2.3 3.7-2.2 0 0 2.4 0 3 2.5 0 0 3.3-1.2 5 .6 0 0 2.8 3.2-1.2 5.8l-2.9.3-2.9-1.4-3 .9s.8 3.2-3 6.5z" fill="#d40000" stroke="#000" stroke-linejoin="round"/><path d="m484.8 204.4s0 .8-.8 1c0 0-1 .3-1.5-.9v-.3c0-.5-.3-2 1.4-3.3 0 0 2.6-2.1 7.6.5a192 192 0 0 0 14.8 7.5s3.1 1.6 7.9 1.8c0 0 6.5.5 9.3-4.1 0 0 2.1-3.5 0-5.8 0 0-.9-1-2.3-.8a3 3 0 0 0 -1.8 1.2s-1 1.4.1 2.5c0 0 1.6 1 2.2-1 0 .2.5 1.7-.4 2.9 0 0-4 6-14.9-.1l-14.3-8.1s-7.1-3.7-11.6 2.1c0 0-3.4 4.8 1.1 7.9 0 0 3.4 2 5.4-1.2 0 0 1.8-3.1-1-4.4 0 0-2.4-1.2-3.3 1.2-1 2.4 1.8 3 2 1.3 0 0 0-.4.3 0z" fill="#f5ce00" stroke="#000" stroke-miterlimit="2.6"/><path d="m428 229.2v-9c0-.8 0-1.2 1.2-2.2 1-.8 2.1-2.3 3.7 1.7 0 0 3.2-3.5 4.2-4 0 0 2-1.5 3.3.7 0 0 1.6-2.6 3-3.2 0 0 3.2-2 3.3 4.2l2.5-2.4s2-1.5 4.2.7c0 0 3.5 3.6 4 4.6 0 0 .8 1 1 2.7 0 0 0 2 1 3 0 0 1.1 1 2.2 1.2 0 0 2.5.1 3.6 2.6 0 0 .3-.5 1.6 11.2v21.5l-14.4 17.1-23.1-6.6-9.2-3.9-2.2-6.6 9-5.9 4.8-13-1.5-9.3-2.2-5.2z" fill="#e4cb5e" stroke="#000" stroke-miterlimit="2.6"/><path d="m491.6 240.4 1.2-1.5 2.5-2s4 10.4 4.2 12.7v3.2s6 1.6 7.2 10.7l-5 9.2-7.8-4.4-2.3-1.5v-26.3z" fill="#784421" stroke="#000"/><path d="m418.3 312.4s.2-.3 0-.6l-.5.4s-1.5 1.7-.2 4.4c0 0 0 .4.3.2 0 0 .3 0 0-.3 0 0-1.1-2.4.4-4z" fill="#fff"/><path d="m441.7 310.6s.1-.8-.4-1.6c0 0-.3-.6-.2-1.5" fill="none" stroke="#000" stroke-miterlimit="10"/><path d="m446.7 217.4s0 2.3.7 4c.6 1.6 2.9 4.5 3 5.9" fill="none" stroke="#000" stroke-miterlimit="10"/><path d="m501 295.5s3.6.1 5.5 1.2c2 .8 3.4 1.8 5.5 3.2 0 0 1 1.3 5.2.5 0 0 7.2-1.7 7.2 4 0 0 8.7.6 5.2 8.3 0 0-2.4 6-7.4 1.8 0 0 3.2 4.5-3 6.3 0 0-4.4 1.2-5.7-3.5 0 0-.8-1.8 1-4 0 0-2.1-.4-3.5-2.7 0 0 4.5 5.8-.5 8 0 0-6.3 1.5-6.7-5 0 0 .5-3.2-2-4.3 0 0-5-1.2-7.2-6.6 0 0 7.2-3.9 6.5-7.2z" fill="#d40000" stroke="#000" stroke-linejoin="round"/><path d="m443.8 227.4 6 47.8m-4.5-47.9 6.6 44.6m-5.5-44.8 7.8 44.2" fill="none" stroke="#000" stroke-miterlimit="10"/><path d="m458.6 267.5 2.2-.7-14-48h-.5z" fill="#784421" stroke="#000"/><path d="m450.7 225.3 14.1 35.5m-15-35 13.6 37" fill="none" stroke="#000" stroke-miterlimit="10"/><path d="m427.6 321.6s-1.7-1.5-1.4-4.3c0 0 0-.6-.3-.7 0 0-.3-.1-.3.6 0 0-.5 2.9 1.5 4.5 0 0 .1.3.4.2 0 0 .2 0 0-.3z" fill="#fff"/><path d="m451.5 224.8 14.3 32.4m-18.3-30.4 9 43.7" fill="none" stroke="#000" stroke-miterlimit="10"/><path d="m520 259c-6.3-3.6-7.7-11.4-7.7-11.4a24.6 24.6 0 0 1 1.6-14.3c4-8.6 11.1-10.3 11.1-10.3s-6.9 4.8-8.8 11.2c0 0-1.4 5.5-.6 10.7.8 5.5.5 4.1 1.8 8.3l2.6 6z" fill="#f5ce00" stroke="#000" stroke-miterlimit="2.6"/><path d="m492.7 238.7-26.6 8.5-1.4 12c-6.3 9.1-19.2 10.7-19.2 10.7l10 10.7 19 4 10.2-7.8 9.2-8.4c-1-4.5-.5-11.2-.5-11.2 0-1.2.5-3.8.5-3.8s-1.5-10.7-1.2-14.5z" fill="#784421" stroke="#000"/><path d="m465 256.2s17.6-5.5 28-10m-36.4 20s22-4 37.3-12.8l5.6-3.8" fill="none" stroke="#000" stroke-miterlimit="10"/><path d="m499.5 252.8-6 4.4s-24.5 11.2-43.2 11.6m43.1-3.6s-18.8 9.8-29.4 9.8" fill="none" stroke="#000" stroke-miterlimit="10"/><path d="m515.8 238s5.6-2.5 8.4 0c0 0 3.6-2.2 7.6 0 0 0 3.6 2.4 6.2 5.2 0 0 1.8 1.5 1.2 6.4 0 0-1 3.5-.3 5.1 0 0 1.1-.2 3.5 2.8 0 0 3.3 3.5 6 .3 0 0-.8 4.6-6 3.8 0 0 2.4 2 .3 7 0 0-1.6 3.6 1 8.2 0 0-4.6-1.8-4.4-7.2 0 0 .4-3.6-1-6 0 0 1.4 2.2-1.7 7.1 0 0-2.4 3.6-.4 7.2 0 0-4.5-1.6-4-7 .3-5.4 3-3.2 1.3-8.2 0 0-.4 2.6-1.7 4a7.2 7.2 0 0 0 -2.4 7s-2.6-3.4-2-6.8c.6-3.5 1.2-4.4 1.2-4.4l-8.3-4.8-4.2-7.5z" fill="#d40000" stroke="#000" stroke-linejoin="round"/><path d="m420.6 268.4s.8-3.7 4.3-2.4c0 0 1.2-6 7.7-6.2s6.8 6.4 6.8 6.8c0 0 2-2.8 5.1-2.5 0 0 5.5-.3 3.6 8.5l1 1.2s4.1-9.9 12.7-7.4c0 0 8.4 2.6 3 10.7 0 0 4.2 5.5 7.6 5 3.6-.5 6.7-1.6 10.2-7.8 3.6-6.2 11.7-7.2 13.7-6.8 2 .3 3.7 1.8 4 3.2 0 0 4.3-14.3 19.8-12.2l6.2 3.3 2.4 1-3.6 10-8.4 19.2-6.6 2-6.8-3.9-2.4 1.2v5.9l-9 6.4-6.2 2.5-6.8 4.8-1.7 4.2s-3.7-1.7-8 0l-1.4-3.6-4-3.7-15.6-7.4-2.7-9-2.9-1.3-3.2 3.6-4.5.6-7-4.8-7.4-21z" fill="#fff" stroke="#00247d" stroke-miterlimit="10"/><path d="m488.2 198s-6-.2-5.7 6" fill="none" stroke="#000" stroke-miterlimit="2.6"/><path d="m527 263.3c-10.2-3.2-13-14.3-13-14.3a25.5 25.5 0 0 1 1.2-15.5c4.8-11 12.7-11 12.7-11a4 4 0 0 1 4.5 3.2c.4 2.4-1.3 3.3-1.3 3.3-2.7 1.5-4.5-.5-4.5-.5-1.2-1.6-.3-2.9-.3-2.9.7-1 2-.4 2-.4 1.3.2 1 1.6 1 1.6s.4-1.6-1.2-1.8c0 0-3.2-.7-6.8 3.8 0 0-4.7 6.1-4.7 14.1 0 0-.6 14.8 14.7 18.6 0 0-1.6 2.4-4.6 11.1 0 0-3.3 11.2-6.4 17.3 0 0-4.3 8.6-13.9 5.1 0 0-5.6-2.5-5.6-6.5 0 0-.3-3.8 3-4 0 0 3.3-.3 3.3 2.5 0 0 0 3-3.5 2.4 0 0-1.2-.3-1.1-1.5 0 0 .2-1.2 1.8-.6 1.5.6 0 0 0-.1 0 0-.6-.3-1.2 0 0 0-.6 0-.6 1 0 0 0 .6.7 1.1l1.7.2s1 2 3 2.7a8 8 0 0 0 7.1-1.2 10.7 10.7 0 0 0 3-4.3 113.3 113.3 0 0 0 5.2-13.5s1.8-5.7 3.4-8.7z" fill="#f5ce00" stroke="#000" stroke-miterlimit="2.6"/><path d="m498 291.4s2-.2 2 1.5c0 0-.1 2.4-3.2 1.9 0 0-3-.6-2-4 0 0 .8-2.3 3.6-2 0 0 2.8 0 4 3.8 0 0 1 3.3-.7 6-1.8 3-6.2 5-8.4 6 0 0-8.7 3.3-11.3 5.3 0 0-4 2.9-2.2 5.6 0 0 .7 1.1 1.7 1.1 0 0 1.2 0 1.3-1.2 0 0 0 .7-.7 1 0 0-.8.4-1.7-.3 0 0-1-1-.2-2.4 0 0 1-1.6 3.6-.6 0 0 2 1.1 1.2 3.3 0 0-.9 2.1-3.4 2 0 0-1.9 0-3.2-1.2-2-2.1-2-6-.2-8 0 0 1.5-2.1 4.7-3.6l9-3.5c2.6-1.1 4.9-2.3 6.4-4.1 0 0 1.3-1.4 1.8-4 0 0 .4-2-.8-2.4l-1.2-.3z" fill="#f5ce00" stroke="#000" stroke-miterlimit="2.6"/><path d="m498.2 291.4s2.1-.4 3.5 2.2c0 0 .7 1.5.8 2.5m.7-9s-2.1.3-1 3.4c1.1 2.9 3 3.7 3.5 4.2" fill="none" stroke="#000" stroke-miterlimit="2.6"/><path d="m461.6 204.4s0 .8 1 1c0 0 .8.2 1.3-.9v-.3c0-.5.3-2-1.2-3.3 0 0-2.8-2.1-7.8.5 0 0-4 2-6.7 3.6 0 0-7.1 3.8-8 4 0 0-3.2 1.6-8 1.8 0 0-6.5.5-9.2-4.1 0 0-2.2-3.5 0-5.8 0 0 .8-1 2.2-.8.6.1 1.2.4 1.8 1.2 0 0 1 1.4-.1 2.5 0 0-1.6 1-2.2-1 0 .2-.3 1.6.5 3 0 0 4 5.9 14.8-.3l14.3-8s7.2-3.7 11.6 2c0 0 3.4 4.8-1 8 0 0-3.3 2-5.5-1.2 0 0-1.6-3 1-4.4 0 0 2.4-1.2 3.5 1.2 1 2.4-2 3-2.2 1.3 0 0 0-.4-.1 0zm-35.2 54.7c6.3-3.5 7.8-11.5 7.8-11.5 1.4-8-1.7-14.3-1.7-14.3-4-8.6-11-10.3-11-10.3s6.8 4.8 8.7 11.2c0 0 1.6 5.5.6 10.7-.8 5.5-.5 4.1-1.8 8.3z" fill="#f5ce00" stroke="#000" stroke-miterlimit="2.6"/><path d="m458.4 198s6-.2 5.6 6" fill="none" stroke="#000" stroke-miterlimit="2.6"/><path d="m419.3 263.3c10.3-3.2 13-14.3 13-14.3a25.5 25.5 0 0 0 -1.1-15.5c-4.8-11-12.7-11-12.7-11a4 4 0 0 0 -4.5 3.2c-.3 2.4 1.3 3.3 1.3 3.3 2.8 1.5 4.6-.5 4.6-.5 1.1-1.6.2-2.9.2-2.9-.7-1-2-.4-2-.4-1.2.2-1 1.6-1 1.6s-.3-1.6 1.2-1.8c0 0 3.2-.7 6.8 3.8 0 0 4.8 6.1 4.8 14.1 0 0 .6 14.8-14.8 18.6 0 0 1.7 2.4 4.6 11.1 0 0 3.4 11.2 6.6 17.3 0 0 4.2 8.6 13.7 5.1 0 0 5.6-2.5 5.6-6.5 0 0 .4-3.8-3-4 0 0-3.3-.3-3.3 2.5 0 0 0 3 3.6 2.4 0 0 1.2-.3 1-1.5 0 0-.2-1.2-1.7-.6-1.6.6 0 0 0-.1 0 0 .5-.3 1.1 0 0 0 .6 0 .6 1 0 0 0 .6-.7 1.1l-1.5.2s-1 2-3.2 2.7a7.5 7.5 0 0 1 -7-1.2 10.7 10.7 0 0 1 -3-4.3 113.5 113.5 0 0 1 -5.3-13.5s-1.8-5.7-3.2-8.7l-.6-1.2z" fill="#f5ce00" stroke="#000" stroke-miterlimit="2.6"/><path d="m448.5 291.4s-2-.2-2 1.5c0 0 0 2.4 3.2 1.9 0 0 3-.6 1.9-4 0 0-.7-2.3-3.6-2 0 0-2.7 0-4 3.8 0 0-.9 3.3.8 6 1.8 3 6.2 5 8.3 6 0 0 8.7 3.3 11.4 5.3 0 0 3.9 2.9 2.1 5.6 0 0-.6 1.1-1.7 1.1 0 0-1.2 0-1.3-1.2 0 0 0 .7.7 1 0 0 .9.4 1.7-.3 0 0 1-1 .2-2.4 0 0-1-1.6-3.4-.6 0 0-2.2 1.1-1.2 3.3 0 0 .7 2.1 3.2 2 0 0 2 0 3.2-1.2 2-2.1 2-6 .4-8 0 0-1.7-2.1-4.8-3.6-1.9-.6-5.5-2.1-9-3.5-2.7-1.1-5-2.3-6.5-4.1 0 0-1.3-1.4-1.8-4 0 0-.3-2 .9-2.4l1.2-.3z" fill="#f5ce00" stroke="#000" stroke-miterlimit="2.6"/><path d="m448.2 291.4s-2.1-.4-3.4 2.2c0 0-.7 1.5-.9 2.5m-.7-9s2.2.3 1.1 3.4c-1.2 2.9-3 3.7-3.6 4.2m27.4-91.1s5.2-3.3 10.4.3" fill="none" stroke="#000" stroke-miterlimit="2.6"/><path d="m438.8 235.2s.7-3-2.6-8c0 0-2.2-4.7-3.2-7.5m7.4-3.3 2.3 6.6 3 6.8" fill="none" stroke="#000" stroke-miterlimit="2.6"/><path d="m441.2 238.3s2 2.1 1.8 5.6m-8.1-7.9s2.1 1 1.9 6.8c0 0-.1 4 3 6.2m-5.3 1.4s6.7-.7 7.2 3.5c0 0 0 4 2.4 4.3 0 0 3.3.3 4 3.6m-11.4-6.8s1.2 1.7 2.4 2.6m6.2-7s1.6 2.7 2 4.1m5.3-35s1.6 2.1 3.1 3m3.1 9.6s3.4 1.6 3 10c0 0-.6 5 .9 7.7" fill="none" stroke="#000" stroke-miterlimit="10"/><path d="m443.1 226.6.4.8s6 .3 9.1-3.8l-.3-.8s-5.3-.3-9 3.8z" fill="#784421" stroke="#000"/><path d="m464.7 258.5s20.6-6 28.6-9.6" fill="none" stroke="#000" stroke-miterlimit="10"/><path d="m462.5 220.5-.2-.6 10.1-4 .3.8z" fill="#784421" stroke="#000"/><path d="m463.4 220.1 6.8 33.3m-5.6-33.6 7.7 33m-6.4-33.6 8.4 32.9m-5-34.1 11.5 24.6m-10-25 12.3 24.2m-11.3-24.8 13.4 24.3m-15.5 12.4 5.2-1.6m-9.1-1.6s15.2-4.5 27-9.2m-27.4 10.7s19.5-5 27.2-8.8m-21.2 24.6 1 3.3 2.8-1-1-3.1m5-1.3 1 3 2.8-.9-1-3m-16-17.6-.2-4.2 25.5-7.7 1.3 3.6m-16 .8 1.3 3.8m7.6-6.4 1.6 3.6m.5-4.3 1.6 3.3m.4-4 1.6 3.6m0-4 2.8-1.6 1.2 3.1m-2.6-2.3 1.4 3.3" fill="none" stroke="#000" stroke-miterlimit="10"/><path d="m429.5 283.1s-5-5.1 0-10c0 0-5.5-2.6-4.6-7m13.6 21s-5.3.7-3.7-9.4c0 0-2.2 4-2.9 6a4.7 4.7 0 0 0 2 5.4c.9.6 5.5 1.8 7-1.2m-8.3-16.2s-2.1 1.9-.6 5.4m2.8-5s.2 3.5 2 5.4m-.5-6.7s0 4 2.9 6.6m-1.5-8s0 4.5 3.4 7.4m13.5-.7s1.6-3.9 5.2-3.6c0 0-1.7.8-1.7 2.5 0 0-.2 3 2.9 3.2 0 0 2.5.4 3.8-1" fill="none" stroke="#00247d" stroke-miterlimit="10"/><path d="m463.1 293.1s-8.9-4.2-8-10.1c0 0 .4-3.6 4-5.4m-2 3.8s-.8 2.5 1 4.3m1.1-6s-1.2 2.8.7 4.8m1.5-6.3s-1.4 2.4.2 4.5m-8.4 11s4.8 4.3 8.6 4.3m-10.1-2.9s4.5 3.6 7.4 4.2m-9-3.2s5.5 4.9 9 5.2m13.7 4.6s-5.5 3-1.2 6.2m-2.4-9.4 9-4.6m-6.7 6.2s9-5.5 11.7-6.7m-7 7.2s7.7-5.2 11.9-7.5m-6.8 7.1s5.3-4 10.5-7.1m1.7-5.1s-2.6-3.9-11.2 0c0 0 3.3-2.9 9.5-5.2m8.5-16.3s.8 3.1 0 5" fill="none" stroke="#00247d" stroke-miterlimit="10"/><path d="m486.5 285.7s1.8-2.6 6.3-4c0 0 1.2 3 4.8 2.5 0 0 5.2-1.1 3.6-7 0 0-1.1-4.2-7.2-4.7m18.1-7.3s6.1 1.2 6 6.1c0 0 .6 7.6-7.4 9m6.6-12s1.6-3.7 5.5-5.2m-4.6-2.2s1.7 2.8 2.8 3.1m-3.6-1s1.5 2.1 2 2.5m-2.6-.5a8 8 0 0 0 1.5 1.6m-33.3-30.8s1.2-2 4.3-1.2m12.1 15.8s2-7.8 8.5-5m-2.6-.6s.6-3.6-1-5.5m-3.6 5.2s.9 1.5.1 2.7" fill="none" stroke="#00247d" stroke-miterlimit="10"/><path d="m516.2 325s7.4-3.3 5.1-9.1c0 0-.7-2-2.4-1.8 0 0-2.8.1-2.3 4 0 0 1 3.8-.5 7z" fill="#64b4d1" stroke="#00247d" stroke-miterlimit="2.6"/><path d="m518.8 321.6s1.7-1.5 1.5-4.3c0 0-.2-.6 0-.7 0 0 .4-.1.4.6 0 0 .5 2.9-1.4 4.5 0 0-.1.3-.4.2 0 0-.2 0 0-.3z" fill="#fff"/><path d="m526.7 319.8s5.2-3.2 2.4-8.7c0 0-.9-1.5-2.4-1.2 0 0-3.2 1-.7 5.5 0 0 1.2 2.9.7 4.5z" fill="#64b4d1" stroke="#00247d" stroke-miterlimit="2.6"/><path d="m528 312.4s-.2-.3 0-.6l.4.4s1.5 1.7.3 4.4c0 0-.1.4-.5.2v-.3s1.2-2.4-.2-4z" fill="#fff"/><path d="m511 323.6s-5.8-1.4-4.7-7.5c0 0 .6-2.6 3.1-2.2 0 0 3 .8 1 4.6 0 0-1.1 2.6.7 5.1z" fill="#64b4d1" stroke="#00247d" stroke-miterlimit="2.6"/><path d="m508.8 316.5v-.5s.4 0 .5.2c0 0 .6 1 .1 2.4 0 0-.5.9-.2 1.8 0 0 0 .3-.3.4l-.2-.4s-.3-.8.2-1.8c0 0 .6-1.4 0-2.1z" fill="#fff"/><path d="m515.2 312.3s3.4-1.9 6 .3c0 0-.2-1.2-2.4-1.7 0 0-1-3.2-4.2-2.9 0 0 1.2 1.6 3 2.8 0 0-1.8.2-2.4 1.5zm2.4-8.7s2.4 1.7 3.2 2.8c0 0 .9-1.2 2-1.8 0 0-1.2-.3-2 .3 0 0-1.1-1-3-1.3z"/><path d="m504.8 310.6s-.3-.8.3-1.6c0 0 .4-.6.2-1.5m23.4-48s3.5-.2 4-3m6-1.8s-1.2 0-2.2 1.2c0 0-.9 1.2-2 1" fill="none" stroke="#000" stroke-miterlimit="10"/><path d="m523.6 249.2s1.8 0 2.7-.8c0 0 1.1-.7 1.7.4 0 0 1 1.6-.8 2.3 0 0-2.2 1.2 1.3 3.4 0 0-4.2-1.6-2.4-3.6 0 0 1.8-1.2 1-1.7 0 0-.2-.4-.9 0-.7.6-2.1.4-2.6 0z"/><path d="m526 205.6s.8-1.2.5-4.4c-.4-3.2 2.6-3.7 3.6-2.8 0 0 1.2 1 0 3.1a8.3 8.3 0 0 1 -4.1 4.1z" fill="#64b4d1" stroke="#00247d" stroke-miterlimit="2.6"/><path d="m527 203s1.2-1.1.6-3.6l.2-.2h.3s.6 2.8-.6 4.2c0 0-.2.3-.5 0z" fill="#fff"/><path d="m525.1 204.4s0-1.4-2.3-3.6c-2.4-2.4-.5-4.4 1-4.4 0 0 1.3 0 2 2.3a8.3 8.3 0 0 1 -.7 5.7z" fill="#64b4d1" stroke="#00247d" stroke-miterlimit="2.6"/><path d="m524.8 201.4s0-1.6-2.2-3.3v-.4h.4s2.3 1.8 2.3 3.8c0 0 0 .3-.3.3 0 0-.2 0-.2-.4z" fill="#fff"/><path d="m522 203.3s-.7-1-3.5-2.1c-2.9-1-2.2-3.5-1-4 0 0 1.3-.5 2.6 1.1a7.6 7.6 0 0 1 1.8 5z" fill="#64b4d1" stroke="#00247d" stroke-miterlimit="2.6"/><path d="m520.6 201.3s-.6-1.4-3.2-2.1c0 0-.2 0-.2-.3 0 0 0-.2.3-.1 0 0 2.9.6 3.7 2.4l-.1.3s-.3 0-.4-.2z" fill="#fff"/><path d="m523.7 204.4s-1.3.5-4.4-1-4.4 1.1-3.8 2.3c0 0 .5 1.6 2.8 1.2a8.3 8.3 0 0 0 5.4-2.4z" fill="#64b4d1" stroke="#00247d" stroke-miterlimit="2.6"/><path d="m516.6 205.4s1.4 1 3.9 0h.3s0 .2-.2.3c0 0-2.6 1.2-4.4.1 0 0-.2 0 0-.3h.4z" fill="#fff"/><path d="m519.3 194.7s1.4.8 1.2 2.5" fill="none" stroke="#000" stroke-miterlimit="2.6"/><path d="m526 195s.6 1.9 0 3" fill="none" stroke="#000" stroke-miterlimit="10"/><path d="m420.2 205.6s-.8-1.2-.5-4.4c.4-3.4-2.5-3.7-3.5-2.8 0 0-1.2 1-.2 3.1a8.3 8.3 0 0 0 4.2 4.1z" fill="#64b4d1" stroke="#00247d" stroke-miterlimit="2.6"/><path d="m419.1 203s-1-1.1-.6-3.6v-.2h-.4s-.5 2.8.7 4.2c0 0 .2.3.3 0z" fill="#fff"/><path d="m421.2 204.4s0-1.4 2.4-3.6c2.3-2.4.4-4.4-1-4.4 0 0-1.6 0-2 2.3a8.3 8.3 0 0 0 .6 5.7z" fill="#64b4d1" stroke="#00247d" stroke-miterlimit="2.6"/><path d="m421.5 201.4s0-1.6 2-3.3c0 0 .3-.3 0-.4h-.2s-2.4 1.8-2.4 3.8c0 0 0 .3.4.3 0 0 .2 0 .2-.4z" fill="#fff"/><path d="m424.3 203.3s.6-1 3.5-2.1c2.8-1 2-3.5.9-4 0 0-1.2-.5-2.6 1.1a7.6 7.6 0 0 0 -1.8 5z" fill="#64b4d1" stroke="#00247d" stroke-miterlimit="2.6"/><path d="m425.6 201.3s.6-1.4 3.2-2.1c0 0 .2 0 .2-.3 0 0 0-.2-.2-.1 0 0-2.9.6-3.7 2.4v.3s.4 0 .5-.2z" fill="#fff"/><path d="m422.5 204.4s1.4.5 4.4-1 4.4 1.1 4 2.3c0 0-.7 1.6-3 1.2a8.3 8.3 0 0 1 -5.4-2.4z" fill="#64b4d1" stroke="#00247d" stroke-miterlimit="2.6"/><path d="m429.6 205.4s-1.3 1-3.9 0h-.2v.3s2.8 1.2 4.5.1c0 0 .2 0 0-.3h-.4z" fill="#fff"/><path d="m427 194.7s-1.5.8-1.2 2.5" fill="none" stroke="#000" stroke-miterlimit="2.6"/><path d="m420.2 195s-.6 1.9 0 3" fill="none" stroke="#000" stroke-miterlimit="10"/><path d="m486.7 177.6s1 2.7.6 5.2c-.3 2.4.2 2.9 1 3.4.7.3 2.4-.4 2.5-2.2 0 0 2 3.8-1.8 6.3 0 0-2.7 1.7-5-.4-.8-.9-1.2-3-.7-5 0 0 .6-2.7-.5-5.5 0 0 1.6 1.6 1.2 4.9 0 0-.8 6 3.6 5.6 0 0 3 0 3-3.6 0 0-1.1 1.2-2.4.8a2.4 2.4 0 0 1 -1.8-2.8c.1-1.6.6-4.3.3-6.7zm-4.7 9.4s-.4 4.8-4.6 5.9c0 0 .6-.9-.3-3.3 0 0-1-1.2-1-3.3 0 0-1.2 1 .3 3.8 1 1.7 0 3.6-.1 3.7-.4.1 6.9-1 5.6-6.7zm-5.6-4.5s-1.1-1.2-1.2-3.8c0-2.7-.5-3.4-.9-3.6 0 0 .5 2.3.4 3.6a7 7 0 0 0 .4 3s-2.4.3-3.9-3c-1.3-3.3-2.7-3-3.4-3 0 0 .8.1 2.4 3 1.6 3 2.1 3.7 6.2 3.7zm-10.8-7s1.2 3.2 1.4 4.8c0 0-3.1-1-4-3.5 0 0-3.2 1-2 4.7 0 0-2.9-1-4.2-3.2 0 0 1.6 1.2 3.1 1.7 0 0-.2-3.1 3.6-4.2 0 0 .6 2.7 2.6 3.3zm5-5.4s1.2 1.5 3.4 1.5a3.6 3.6 0 0 0 3.2-1.5s-.1 2.6-3.2 2.7c0 0-3.3 0-3.3-2.7zm-13.4 18.5 2 1.9s1.2 1.2 2-.3c0 0 1.3-2.4 2.9-2.2 0 0-1.2.7-2.4 3 0 0-.2.7-1.2.8-.5 0-1 .2-1.8-.7 0 0-.7-.9-1.5-2.4zm16.7-29.4c-3.2 0-.5 2.4-.5 2.4 0 4-3.1 5.4-5.3 4.2s-.4-4-.4-4-2.4 1.5-1 3.9c1.6 2.4 5.7 1.2 7.2-.9 1.5 2.2 5.7 3.3 7.1.9 1.7-2.4-.8-4-.8-4s1.8 2.9-.5 4c-2.1 1.3-5.4 0-5.2-4 0 0 2.7-2.5-.5-2.5zm2-4.4s1.2 2 1 5c0 0 .9-3-1-4.9zm-10 4.7s-.3-2.2-2.4-2.4c0 0 1.9 1.3 2.4 2.4zm16 0s.3-2.2 2.5-2.4c0 0-1.8 1.3-2.4 2.4zm-19.2 3.2s1.6.5 2.6-.7zm-5.4-13.1s1.9-.1 3.8 2.7c0 0-1.9 1-2.4 1.6 0 0 0-1 1-1.7 0 0-.4-1.4-2.4-2.5zm32 0s-2-.1-3.9 2.7c0 0 2 1 2.4 1.6 0 0 0-1-1-1.7 0 0 .4-1.4 2.5-2.5zm-14.7 2.2s1.7.5 3.8-.7c0 0 2.6-1.4 4.3 0 0 0-1.4-.7-4.3.7 0 0-2.7 1.6-3.8 0z"/><path d="m476.4 153.6s1.4-2.5 6-2c0 0-1.3 3.6-6 2z" fill="#fff"/><ellipse cx="479.4" cy="152.8" fill="#784421" rx=".8" ry="1.1"/><ellipse cx="479.4" cy="152.8" rx=".5" ry=".7"/><path d="m466.8 148.1s2.8.3 4.6 1.2c0 0 1.8 1.2 3.8-.3 0 0 2.2-1.4 3.7-3.1 0 0-3.5 2.3-4.8 2.7 0 0-1.2-1-1.5-2.3 0 0 0-1 2-2.7 0 0-2.5.8-3 2.9a7.2 7.2 0 0 0 1.4 2.3s-.4.3-1.6-.6c0 0-2.8-.8-4.6 0zm7.2 17c-2.4 2.1 0 1.9 0 1.9s2.4.2 0-2zm-1.4-13.2s-1.8.5-4-.7c0 0-2.6-1.4-4.3 0 0 0 1.5-.7 4.3.7 0 0 2.9 1.6 4 0z"/><path d="m470.8 153.6s-1.5-2.5-6-2c0 0 1.2 3.6 6 2z" fill="#fff"/><ellipse cx="467.7" cy="152.8" fill="#784421" rx=".8" ry="1.1"/><ellipse cx="467.7" cy="152.8" rx=".5" ry=".7"/><path d="m560 130.6v161.6c0 43.1-86.2 57.2-86.2 57.2s-86.4-14-86.4-57.2v-161.6h172.7z" fill="none" stroke="#000"/></g><path d="m0 0h320v240h-320z" fill="#006" stroke-width=".5"/><path d="m37.5 0 122 90.5 121.5-90.5h39v31l-120 89.5 120 89v30.5h-40l-120-89.5-119.5 89.5h-40.5v-30l119.5-89-119.5-89v-32z" fill="#fff" stroke-width=".5"/><path d="m212 140.5 108 79.5v20l-135.5-99.5zm-92 10 3 17.5-96 72h-27zm200-150.5v1.5l-124.5 94 1-22 98.5-73.5zm-320 0 119.5 88h-30l-89.5-67z" fill="#c8102e" stroke-width=".5"/><path d="m120.5 0v240h80v-240zm-120.5 80v80h320v-80z" fill="#fff" stroke-width=".5"/><path d="m0 96.5v48h320v-48zm136.5-96.5v240h48v-240z" fill="#c8102e" stroke-width=".5"/></svg>