<svg viewBox="0 0 640 480" xmlns="http://www.w3.org/2000/svg" xmlns:xlink="http://www.w3.org/1999/xlink"><clipPath id="a"><path d="m0 0h682.6v512h-682.6z"/></clipPath><g clip-path="url(#a)" fill-rule="evenodd" transform="scale(.9376 .9375)"><path d="m0 0h1024v340.1h-1024z" fill="#b20000"/><path d="m0 340.1h1024v171.9h-1024z" fill="#429f00"/><path d="m0 0h113.4v512h-113.4z" fill="#fff"/><g fill="#b20000" stroke-width="1pt"><path d="m5.4 8.7h5.4v8.7h-5.4zm16.2 0h16.2v8.7h-16.2zm5.4-8.7h5.4v8.7h-5.4zm27 0h5.4v8.7h-5.4zm21.6 8.7h16.2v8.7h-16.2zm5.4-8.7h5.4v8.7h-5.4zm-64.8 17.4h10.8v8.6h-10.8zm16.2 0h10.8v8.6h-10.8zm37.8 0h10.8v8.6h-10.8zm16.2 0h10.8v8.6h-10.8zm-75.6 8.6h10.8v8.7h-10.8zm27 0h10.8v8.7h-10.8zm27 0h10.8v8.7h-10.8zm27 0h10.8v8.7h-10.8zm10.8-17.3h5.4v8.7h-5.4zm-97.2 26h10.8v8.7h-10.8zm37.8 0h10.8v8.7h-10.8zm54 0h10.8v8.7h-10.8zm-86.4 26h10.8v8.7h-10.8zm5.4 8.7h10.8v8.7h-10.8zm21.6-8.6h10.8v8.6h-10.8zm-5.4 8.6h10.8v8.7h-10.8zm-10.8 8.7h16.2v8.7h-16.2z"/><path d="m27 86.8h5.4v8.7h-5.4zm37.8-26h10.8v8.6h-10.8zm5.4 8.6h10.8v8.7h-10.8zm21.6-8.6h10.8v8.6h-10.8zm-5.4 8.6h10.8v8.7h-10.8zm-10.8 8.7h16.2v8.7h-16.2zm5.4 8.7h5.4v8.7h-5.4zm-27-8.8h5.4v8.7h-5.4zm-54 0h5.4v8.7h-5.4zm108 0h5.4v8.7h-5.4zm-81 43.4h5.4v8.7h-5.4zm-5.4 8.8h16.2v8.6h-16.2zm-5.4 8.6h27v8.7h-27zm64.8-17.3h5.4v8.7h-5.4zm-5.4 8.7h16.2v8.6h-16.2zm-5.4 8.6h27v8.7h-27zm5.4 43.4h27v8.7h-27zm-10.8-34.7h37.8v8.7h-37.8zm-54 0h37.8v8.7h-37.8zm5.4 43.4h16.2v8.7h-16.2zm-5.4-8.7h27v8.7h-27zm75.6-17.2h27v8.7h-27zm-5.4 26h16.2v8.7h-16.2z"/><path d="m21.6 199.6h5.4v8.7h-5.4zm64.8 0h5.4v8.7h-5.4zm-86.4-34.7h27v8.7h-27zm48.6 17.3h16.2v8.7h-16.2zm5.4 8.8h5.4v8.7h-5.4zm-16.2-26h37.8v8.7h-37.8zm21.6-130.3h10.8v8.7h-10.8zm-10.8 8.7h16.2v8.7h-16.2zm-5.4 8.7h10.8v8.6h-10.8zm16.2 0h10.8v8.6h-10.8zm-59.4-8.7h10.8v8.7h-10.8zm5.4 8.7h10.8v8.6h-10.8zm97.2-8.7h10.8v8.6h-10.8zm-5.4 8.6h10.8v8.6h-10.8zm-97.2 78h5.4v8.7h-5.4zm108 0h5.4v8.7h-5.4zm-59.4 69.5h16.2v8.7h-16.2zm-5.4 8.7h10.8v8.6h-10.8zm16.2 0h10.8v8.6h-10.8zm-21.6 8.6h10.8v8.7h-10.8zm27 0h10.8v8.7h-10.8zm-32.4 8.7h10.8v8.7h-10.8zm37.8 0h10.8v8.7h-10.8zm-43.2 8.8h10.8v8.7h-10.8zm48.6 0h10.8v8.7h-10.8zm-59.4 8.7h16.2v8.7h-16.2zm64.8 0h16.2v8.7h-16.2zm10.8-8.7h10.8v8.7h-10.8zm5.4-8.7h10.8v8.7h-10.8zm5.4-8.7h10.8v8.7h-10.8zm-91.8 17.4h10.8v8.7h-10.8zm-5.4-8.7h10.8v8.7h-10.8zm-5.4-8.6h10.8v8.7h-10.8zm21.6 34.8h5.4v8.6h-5.4zm64.8 0h5.4v8.6h-5.4zm-32.4-26h5.4v8.6h-5.4zm-16.2 26h5.4v8.6h-5.4zm32.4 0h5.4v8.6h-5.4zm-16.2 0h5.4v8.6h-5.4zm-54 0h5.4v8.6h-5.4zm108 0h5.4v8.6h-5.4zm-54-121.6h5.4v8.6h-5.4zm-27-86.8h5.4v8.7h-5.4zm54 0h5.4v8.7h-5.4zm-32.4 60.7h16.2v8.7h-16.2zm-10.8 8.7h16.2v8.7h-16.2zm5.4 8.7h5.4v8.7h-5.4zm-10.8-17.4h10.8v8.7h-10.8zm5.4-8.6h16.2v8.6h-16.2zm5.4-8.7h5.4v8.7h-5.4zm16.2 8.7h16.2v8.6h-16.2zm5.4-8.7h5.4v8.7h-5.4zm5.4 17.3h10.8v8.7h-10.8zm-10.8 8.7h16.2v8.7h-16.2zm5.4 8.7h5.4v8.7h-5.4zm21.6-17.4h10.8v8.7h-10.8zm5.4-8.6h16.2v8.6h-16.2zm10.8 8.6h10.8v8.7h-10.8zm-10.8 8.7h16.2v8.7h-16.2zm5.4 8.7h5.4v8.7h-5.4zm0-34.7h5.4v8.7h-5.4zm-97.2 17.2h10.8v8.7h-10.8zm5.4-8.6h16.2v8.6h-16.2zm10.8 8.6h10.8v8.7h-10.8zm-10.8 8.7h16.2v8.7h-16.2z"/><path d="m10.8 121.5h5.4v8.7h-5.4zm0-34.7h5.4v8.7h-5.4zm-5.4 69.4h21.6v8.7h-21.6zm27 0h21.6v8.7h-21.6zm27 0h21.6v8.7h-21.6zm27 0h21.6v8.7h-21.6zm-43.2 17.4h27v8.6h-27zm-37.8 0h27v8.6h-27zm75.6 0h27v8.6h-27zm27 34.7h5.4v8.6h-5.4zm-108 0h5.4v8.6h-5.4zm5.4 295h5.4v-8.6h-5.4zm16.2 0h16.2v-8.6h-16.2zm5.4 8.7h5.4v-8.7h-5.4zm27 0h5.4v-8.7h-5.4zm21.6-8.7h16.2v-8.7h-16.2zm5.4 8.7h5.4v-8.7h-5.4zm-64.8-17.4h10.8v-8.6h-10.8zm16.2 0h10.8v-8.6h-10.8zm37.8 0h10.8v-8.6h-10.8zm16.2 0h10.8v-8.6h-10.8zm-48.6-8.6h10.8v-8.7h-10.8zm27 0h10.8v-8.7h-10.8zm27 0h10.8v-8.7h-10.8zm10.8 17.3h5.4v-8.7h-5.4zm-97.2-26h10.8v-8.7h-10.8zm37.8 0h10.8v-8.7h-10.8zm54 0h10.8v-8.7h-10.8zm-86.4-26h10.8v-8.7h-10.8zm5.4-8.7h10.8v-8.7h-10.8zm21.6 8.7h10.8v-8.7h-10.8zm-5.4-8.7h10.8v-8.7h-10.8zm-10.8-8.7h16.2v-8.7h-16.2zm5.4-8.7h5.4v-8.6h-5.4zm37.8 26h10.8v-8.6h-10.8zm5.4-8.6h10.8v-8.7h-10.8zm21.6 8.7h10.8v-8.7h-10.8zm-5.4-8.7h10.8v-8.7h-10.8zm-10.8-8.7h16.2v-8.7h-16.2zm5.4-8.7h5.4v-8.6h-5.4zm-27 8.8h5.4v-8.7h-5.4zm-54 0h5.4v-8.7h-5.4zm108 0h5.4v-8.7h-5.4zm-81-43.4h5.4v-8.7h-5.4zm-5.4-8.8h16.2v-8.6h-16.2zm-5.4-8.6h27v-8.7h-27zm64.8 17.3h5.4v-8.7h-5.4z"/><path d="m75.6 381.8h16.2v-8.6h-16.2zm-5.4-8.6h27v-8.7h-27zm5.4-43.4h27v-8.8h-27zm-10.8 34.7h37.8v-8.7h-37.8zm-54 0h37.8v-8.7h-37.8zm5.4-43.4h16.2v-8.7h-16.2zm-5.4 8.7h27v-8.8h-27zm75.6 17.2h27v-8.7h-27zm-5.4-26h16.2v-8.7h-16.2zm-81 26h27v-8.7h-27zm48.6-17.3h16.2v-8.7h-16.2zm5.4-8.7h5.4v-8.7h-5.4zm-16.2 26h37.8v-8.7h-37.8zm21.6 130.2h10.8v-8.7h-10.8zm-10.8-8.7h16.2v-8.5h-16.2zm-5.4-8.7h10.8v-8.7h-10.8zm16.2 0h10.8v-8.7h-10.8zm-59.4 8.8h10.8v-8.6h-10.8zm5.4-8.7h10.8v-8.6h-10.8zm97.2 8.7h10.8v-8.6h-10.8zm-5.4-8.7h10.8v-8.6h-10.8zm-97.2-77.9h5.4v-8.7h-5.4zm108 0h5.4v-8.7h-5.4zm-64.8-78.2h10.8v-8.6h-10.8zm16.2 0h10.8v-8.6h-10.8zm-21.6-8.6h10.8v-8.7h-10.8zm27 0h10.8v-8.7h-10.8zm-32.4-8.7h10.8v-8.7h-10.8zm37.8 0h10.8v-8.7h-10.8zm-43.2-8.8h10.8v-8.7h-10.8zm48.6 0h10.8v-8.7h-10.8zm-59.4-8.7h16.2v-8.7h-16.2zm64.8 0h16.2v-8.7h-16.2zm10.8 8.7h10.8v-8.7h-10.8zm5.4 8.7h10.8v-8.7h-10.8zm5.4 8.7h10.8v-8.7h-10.8zm-91.8-17.4h10.8v-8.7h-10.8zm-5.4 8.7h10.8v-8.7h-10.8zm-5.4 8.6h10.8v-8.7h-10.8zm21.6-34.8h5.4v-8.6h-5.4zm32.4 26h5.4v-8.6h-5.4zm0 95.5h5.4v-8.6h-5.4zm-27 86.8h5.4v-8.5h-5.4zm54 0h5.4v-8.5h-5.4zm-32.4-60.5h16.2v-8.7h-16.2zm-10.8-8.7h16.2v-8.7h-16.2zm5.4-8.7h5.4v-8.7h-5.4zm-10.8 17.4h10.8v-8.7h-10.8zm5.4 8.5h16.2v-8.5h-16.2zm5.4 8.7h5.4v-8.6h-5.4zm16.2-8.7h16.2v-8.5h-16.2zm5.4 8.7h5.4v-8.6h-5.4zm5.4-17.3h10.8v-8.7h-10.8zm-10.8-8.7h16.2v-8.7h-16.2zm5.4-8.7h5.4v-8.7h-5.4zm21.6 17.5h10.8v-8.7h-10.8zm5.4 8.5h16.2v-8.5h-16.2zm10.8-8.6h10.8v-8.7h-10.8zm-10.8-8.7h16.2v-8.7h-16.2zm5.4-8.7h5.4v-8.7h-5.4zm0 34.7h5.4v-8.6h-5.4zm-97.2-17.2h10.8v-8.7h-10.8zm5.4 8.5h16.2v-8.5h-16.2z"/><path d="m16.2 407.9h10.8v-8.7h-10.8zm-10.8-8.7h16.2v-8.7h-16.2zm5.4-8.7h5.4v-8.7h-5.4zm0 34.7h5.4v-8.6h-5.4zm-5.4-69.4h21.6v-8.7h-21.6zm27 0h21.6v-8.7h-21.6zm27 0h21.6v-8.7h-21.6zm27 0h21.6v-8.7h-21.6zm-43.2-17.4h27v-8.6h-27zm-37.8 0h27v-8.6h-27zm75.6 0h27v-8.6h-27zm27-34.6h5.4v-8.8h-5.4zm-108 0h5.4v-8.8h-5.4zm48.6-43.5h5.4v8.7h-5.4zm10.8 0h5.4v8.7h-5.4zm0-17.3h5.4v8.7h-5.4zm-10.8 0h5.4v8.7h-5.4zm-37.8 234.3h10.8v8.7h-10.8zm75.6-164.9h5.4v-8.7h-5.4zm-64.8 0h5.4v-8.7h-5.4zm27-8.7h16.2v8.7h-16.2z"/></g></g></svg>