<svg viewBox="0 0 640 480" xmlns="http://www.w3.org/2000/svg" xmlns:xlink="http://www.w3.org/1999/xlink"><clipPath id="a"><path d="m-123.4 0h682.6v512h-682.6z"/></clipPath><g clip-path="url(#a)" fill-rule="evenodd" transform="matrix(.94 0 0 .94 115.7 0)"><path d="m-123.4 233h846.4v206h-846.5z" fill="#fff"/><path d="m-122.8 0h846v256.6h-846zm.3 385.9h852.1v126.1h-852.1z" fill="#081873"/><path d="m-122.5 302.6h846v39.6h-846z" fill="#de3929"/><path d="m131 399.2 6.6 20.4h21.4l-17.4 12.7 6.6 20.5-17.2-12.8-17.4 12.7 6.7-20.5-17.4-12.7h21.5m192.6-169.1 6.7 20.5h21.3l-17.4 12.6 6.6 20.5-17.4-12.7-17.4 12.7 6.6-20.5-17.4-12.6h21.6m-222 64.4 6.6 20.5h21.5l-17.3 12.8 6.7 20.4-17.4-12.6-17.4 12.6 6.6-20.4-17.4-12.7h21.5m235.4-26.4 6.7 20.4h21.3l-17.4 12.7 6.6 20.4-17.4-12.6-17.4 12.7 6.6-20.5-17.4-12.7h21.6m-40.5-161.7 6.7 20.4h21.6l-17.4 12.7 6.6 20.5-17.4-12.7-17.4 12.7 6.7-20.5-17.5-12.7h21.6m-64.5-45.2 6.7 20.5h21.5l-17.4 12.6 6.6 20.5-17.4-12.6-17.4 12.6 6.7-20.5-17.4-12.6h21.4m-64.5 2.9 6.7 20.5h21.5l-17.4 12.6 6.7 20.5-17.5-12.7-17.4 12.7 6.7-20.5-17.4-12.6h21.6m-34.8 43.2 6.6 20.5h21.6l-17.5 12.6 6.7 20.5-17.4-12.7-17.4 12.7 6.6-20.5-17.4-12.6h21.5m119.2 149.4 6.7 20.5h21.5l-17.4 12.6 6.7 20.5-17.5-12.7-17.4 12.7 6.7-20.5-17.4-12.6h21.4m82.2-41.7 6.6 20.4h21.5l-17.3 12.7 6.7 20.5-17.4-12.7-17.5 12.7 6.7-20.5-17.4-12.7h21.5" fill="#ffce08"/></g></svg>