<svg height="480" viewBox="0 0 640 480" width="640" xmlns="http://www.w3.org/2000/svg" xmlns:xlink="http://www.w3.org/1999/xlink"><clipPath id="a"><path d="m-123.43 0h682.67v512h-682.67z"/></clipPath><g clip-path="url(#a)" fill-rule="evenodd" transform="matrix(.94 0 0 .94 115.72 0)"><path d="m-123.43 233.05h846.53v205.97h-846.53z" fill="#fff"/><path d="m-122.76 0h845.95v256.64h-845.95zm.24 385.87h852.12v126.13h-852.12z" fill="#081873"/><path d="m-122.52 302.55h845.95v39.65h-845.95z" fill="#de3929"/><path d="m130.92 399.168 6.65 20.468h21.522l-17.412 12.65 6.65 20.47-17.41-12.65-17.41 12.65 6.65-20.47-17.412-12.65h21.522m192.64-169.138 6.65 20.468h21.522l-17.412 12.65 6.65 20.47-17.41-12.65-17.41 12.65 6.65-20.47-17.412-12.65h21.522m-221.99 64.482 6.65 20.468h21.523l-17.412 12.65 6.652 20.47-17.41-12.65-17.412 12.65 6.65-20.47-17.41-12.65h21.52m235.289-26.458 6.65 20.468h21.522l-17.412 12.65 6.65 20.47-17.41-12.65-17.41 12.65 6.65-20.47-17.412-12.65h21.522m-40.44-161.748 6.65 20.468h21.522l-17.412 12.65 6.65 20.47-17.41-12.65-17.41 12.65 6.65-20.47-17.412-12.65h21.522m-64.43-45.218 6.65 20.468h21.522l-17.412 12.65 6.65 20.47-17.41-12.65-17.41 12.65 6.65-20.47-17.412-12.65h21.522m-64.44 2.892 6.65 20.468h21.522l-17.412 12.65 6.65 20.47-17.41-12.65-17.41 12.65 6.65-20.47-17.412-12.65h21.522m-34.816 43.242 6.65 20.468h21.522l-17.412 12.65 6.65 20.47-17.41-12.65-17.41 12.65 6.65-20.47-17.412-12.65h21.522m119.206 149.442 6.65 20.468h21.522l-17.412 12.65 6.65 20.47-17.41-12.65-17.41 12.65 6.65-20.47-17.412-12.65h21.522m82.17-41.708 6.65 20.468h21.522l-17.412 12.65 6.65 20.47-17.41-12.65-17.41 12.65 6.65-20.47-17.412-12.65h21.522" fill="#ffce08"/></g></svg>