<svg height="480" viewBox="0 0 640 480" width="640" xmlns="http://www.w3.org/2000/svg" xmlns:xlink="http://www.w3.org/1999/xlink"><clipPath id="a"><path d="m-85.01 0h682.67v512h-682.67z"/></clipPath><g clip-path="url(#a)" fill-rule="evenodd" transform="matrix(.94 0 0 .94 79.7 0)"><path d="m-258.27 0h1027.5v512h-1027.5z" fill="#108c00"/><path d="m-260 178.16h1032.6v50.162h-1032.6z" fill="#ffd600"/><path d="m181.08 0h48.432v512h-48.432z" fill="#ffd600"/><path d="m227.78 0h48.432v512h-48.432z"/><path d="m-260 226.59h1032.6v50.162h-1032.6z"/><path d="m-260 276.76h1032.6v50.162h-1032.6z" fill="#fff"/><path d="m276.22 0h48.432v512h-48.432z" fill="#fff"/><rect fill="#e72910" height="275.03" ry="137.51" transform="scale(-1)" width="273.75" x="-394.56" y="-393.87"/><g stroke-width="1pt"><path d="m250.51 136.92c0-.258 5.61-15.997 5.61-15.997l5.098 15.74s17.08.515 17.08.257-13.51 10.32-13.51 10.32 6.373 18.062 6.118 17.546-14.787-10.837-14.787-10.837-14.787 10.32-14.532 10.32 5.608-17.03 5.608-17.03l-13.256-10.063 16.57-.258z"/><path d="m251.274 137.72c0-.224 4.857-13.855 4.857-13.855l4.417 13.63s14.794.448 14.794.225-11.7 8.938-11.7 8.938 5.52 15.643 5.298 15.196c-.22-.447-12.807-9.386-12.807-9.386s-12.805 8.94-12.584 8.94 4.857-14.75 4.857-14.75l-11.48-8.716 14.35-.223z" fill="#ffe700"/><path d="m253.328 139.987c0-.13 2.8-7.99 2.8-7.99l2.547 7.86s8.53.26 8.53.13-6.747 5.154-6.747 5.154 3.182 9.02 3.055 8.762c-.127-.257-7.384-5.41-7.384-5.41s-7.385 5.153-7.257 5.153 2.8-8.504 2.8-8.504l-6.62-5.025 8.275-.13z" fill="#108c00"/><path d="m356.875 211.8c0-.258 5.608-15.997 5.608-15.997l5.1 15.74s17.08.515 17.08.257-13.512 10.32-13.512 10.32 6.375 18.062 6.12 17.546-14.787-10.837-14.787-10.837-14.786 10.32-14.53 10.32 5.607-17.03 5.607-17.03l-13.256-10.063 16.57-.258z"/><path d="m357.638 212.6c0-.224 4.857-13.855 4.857-13.855l4.416 13.63s14.795.448 14.795.225-11.702 8.938-11.702 8.938 5.52 15.643 5.3 15.196c-.222-.447-12.808-9.386-12.808-9.386s-12.806 8.94-12.585 8.94 4.857-14.75 4.857-14.75l-11.48-8.716 14.35-.223z" fill="#ffe700"/><path d="m359.692 214.867c0-.13 2.8-7.99 2.8-7.99l2.547 7.86s8.53.26 8.53.13-6.748 5.154-6.748 5.154 3.182 9.02 3.055 8.762c-.127-.257-7.384-5.41-7.384-5.41s-7.384 5.153-7.256 5.153 2.8-8.504 2.8-8.504l-6.62-5.025 8.275-.13z" fill="#108c00"/><path d="m325.875 330.65c0-.258 5.608-15.997 5.608-15.997l5.1 15.74s17.08.515 17.08.257-13.512 10.32-13.512 10.32 6.375 18.062 6.12 17.546-14.787-10.837-14.787-10.837-14.787 10.321-14.531 10.321 5.607-17.03 5.607-17.03l-13.256-10.063 16.57-.258z"/><path d="m326.638 331.45c0-.224 4.857-13.855 4.857-13.855l4.416 13.63s14.795.448 14.795.225-11.702 8.938-11.702 8.938 5.52 15.643 5.3 15.196c-.222-.447-12.808-9.386-12.808-9.386s-12.806 8.94-12.585 8.94 4.857-14.75 4.857-14.75l-11.48-8.716 14.35-.223z" fill="#ffe700"/><path d="m328.692 333.717c0-.13 2.8-7.99 2.8-7.99l2.547 7.86s8.53.26 8.53.13-6.748 5.154-6.748 5.154 3.182 9.02 3.055 8.762c-.127-.257-7.384-5.41-7.384-5.41s-7.384 5.153-7.256 5.153 2.8-8.504 2.8-8.504l-6.62-5.025 8.275-.13z" fill="#108c00"/><path d="m177.167 330.65c0-.258 5.608-15.997 5.608-15.997l5.1 15.74s17.08.515 17.08.257-13.512 10.32-13.512 10.32 6.374 18.062 6.12 17.546c-.256-.516-14.788-10.837-14.788-10.837s-14.785 10.321-14.53 10.321 5.607-17.03 5.607-17.03l-13.256-10.063 16.57-.258z"/><path d="m177.93 331.45c0-.224 4.857-13.855 4.857-13.855l4.416 13.63s14.794.448 14.794.225-11.702 8.938-11.702 8.938 5.52 15.643 5.3 15.196c-.222-.447-12.808-9.386-12.808-9.386s-12.806 8.94-12.585 8.94 4.857-14.75 4.857-14.75l-11.482-8.716 14.352-.223z" fill="#ffe700"/><path d="m179.984 333.717c0-.13 2.8-7.99 2.8-7.99l2.547 7.86s8.53.26 8.53.13-6.746 5.154-6.746 5.154 3.182 9.02 3.055 8.762c-.128-.257-7.385-5.41-7.385-5.41s-7.384 5.153-7.256 5.153 2.8-8.504 2.8-8.504l-6.62-5.025 8.274-.13z" fill="#108c00"/><path d="m150.01 208.74c0-.258 5.608-15.997 5.608-15.997l5.1 15.74s17.08.515 17.08.257-13.512 10.32-13.512 10.32 6.374 18.062 6.12 17.546c-.256-.516-14.788-10.837-14.788-10.837s-14.786 10.32-14.53 10.32 5.607-17.03 5.607-17.03l-13.256-10.063 16.57-.258z"/><path d="m150.773 209.54c0-.224 4.857-13.855 4.857-13.855l4.416 13.63s14.794.448 14.794.225-11.702 8.938-11.702 8.938 5.52 15.643 5.3 15.196c-.222-.447-12.808-9.386-12.808-9.386s-12.806 8.94-12.585 8.94 4.857-14.75 4.857-14.75l-11.48-8.716 14.35-.223z" fill="#ffe700"/><path d="m152.827 211.807c0-.13 2.8-7.99 2.8-7.99l2.547 7.86s8.53.26 8.53.13-6.747 5.154-6.747 5.154 3.182 9.02 3.055 8.762c-.127-.257-7.384-5.41-7.384-5.41s-7.384 5.153-7.256 5.153 2.8-8.504 2.8-8.504l-6.62-5.025z" fill="#108c00"/><path d="m324.615 174.14c0 .258-5.608 15.997-5.608 15.997l-5.1-15.74s-17.08-.515-17.08-.257 13.512-10.32 13.512-10.32-6.375-18.062-6.12-17.546 14.787 10.837 14.787 10.837 14.786-10.32 14.53-10.32-5.607 17.03-5.607 17.03l13.256 10.063-16.57.258z"/><path d="m323.852 173.34c0 .224-4.857 13.855-4.857 13.855l-4.416-13.63s-14.795-.448-14.795-.225 11.702-8.938 11.702-8.938-5.52-15.643-5.3-15.196c.222.447 12.808 9.386 12.808 9.386s12.806-8.94 12.585-8.94-4.857 14.75-4.857 14.75l11.48 8.716-14.35.223z" fill="#ffe700"/><path d="m321.798 171.073c0 .13-2.8 7.99-2.8 7.99l-2.547-7.86s-8.53-.26-8.53-.13 6.748-5.154 6.748-5.154-3.182-9.02-3.055-8.762c.127.257 7.384 5.41 7.384 5.41s7.384-5.153 7.256-5.153-2.8 8.504-2.8 8.504l6.62 5.025-8.275.13z" fill="#108c00"/><path d="m367.315 290.28c0 .258-5.608 15.997-5.608 15.997l-5.1-15.74s-17.08-.515-17.08-.257 13.512-10.32 13.512-10.32-6.375-18.062-6.12-17.546 14.787 10.837 14.787 10.837 14.786-10.32 14.53-10.32-5.607 17.03-5.607 17.03l13.256 10.063-16.57.258z"/><path d="m366.552 289.48c0 .224-4.857 13.855-4.857 13.855l-4.416-13.63s-14.795-.448-14.795-.225 11.702-8.938 11.702-8.938-5.52-15.643-5.3-15.196c.222.447 12.808 9.386 12.808 9.386s12.806-8.94 12.585-8.94-4.857 14.75-4.857 14.75l11.48 8.716-14.35.223z" fill="#ffe700"/><path d="m364.498 287.213c0 .13-2.8 7.99-2.8 7.99l-2.547-7.86s-8.53-.26-8.53-.13 6.748-5.154 6.748-5.154-3.182-9.02-3.055-8.762c.127.257 7.384 5.41 7.384 5.41s7.384-5.153 7.256-5.153-2.8 8.504-2.8 8.504l6.62 5.025-8.275.13z" fill="#108c00"/><path d="m261.425 375.25c0 .258-5.608 15.997-5.608 15.997l-5.1-15.74s-17.08-.515-17.08-.257 13.512-10.32 13.512-10.32-6.375-18.062-6.12-17.546 14.787 10.837 14.787 10.837 14.786-10.32 14.53-10.32-5.607 17.03-5.607 17.03l13.256 10.063-16.57.258z"/><path d="m260.662 374.45c0 .224-4.857 13.855-4.857 13.855l-4.416-13.63s-14.795-.448-14.795-.225 11.702-8.938 11.702-8.938-5.52-15.643-5.3-15.196c.222.447 12.808 9.386 12.808 9.386s12.806-8.94 12.585-8.94-4.857 14.75-4.857 14.75l11.48 8.716-14.35.223z" fill="#ffe700"/><path d="m258.608 372.183c0 .13-2.8 7.99-2.8 7.99l-2.547-7.86s-8.53-.26-8.53-.13 6.748-5.154 6.748-5.154-3.182-9.02-3.055-8.762c.127.257 7.384 5.41 7.384 5.41s7.384-5.153 7.256-5.153-2.8 8.504-2.8 8.504l6.62 5.025-8.275.13z" fill="#108c00"/><path d="m161.935 290.28c0 .258-5.608 15.997-5.608 15.997l-5.1-15.74s-17.08-.515-17.08-.257 13.512-10.32 13.512-10.32-6.375-18.062-6.12-17.546 14.787 10.837 14.787 10.837 14.786-10.32 14.53-10.32-5.607 17.03-5.607 17.03l13.256 10.063-16.57.258z"/><path d="m161.172 289.48c0 .224-4.857 13.855-4.857 13.855l-4.416-13.63s-14.795-.448-14.795-.225 11.702-8.938 11.702-8.938-5.52-15.643-5.3-15.196c.222.447 12.808 9.386 12.808 9.386s12.806-8.94 12.585-8.94-4.857 14.75-4.857 14.75l11.48 8.716-14.35.223z" fill="#ffe700"/><path d="m159.118 287.213c0 .13-2.8 7.99-2.8 7.99l-2.547-7.86s-8.53-.26-8.53-.13 6.748-5.154 6.748-5.154-3.182-9.02-3.055-8.762c.127.257 7.384 5.41 7.384 5.41s7.384-5.153 7.256-5.153-2.8 8.504-2.8 8.504l6.62 5.025-8.275.13z" fill="#108c00"/><path d="m198.655 175.85c0 .258-5.608 15.997-5.608 15.997l-5.1-15.74s-17.08-.515-17.08-.257 13.512-10.32 13.512-10.32-6.375-18.062-6.12-17.546 14.787 10.837 14.787 10.837 14.786-10.32 14.53-10.32-5.607 17.03-5.607 17.03l13.256 10.063-16.57.258z"/><path d="m197.892 175.05c0 .224-4.857 13.855-4.857 13.855l-4.416-13.63s-14.795-.448-14.795-.225 11.702-8.938 11.702-8.938-5.52-15.643-5.3-15.196c.222.447 12.808 9.386 12.808 9.386s12.806-8.94 12.585-8.94-4.857 14.75-4.857 14.75l11.48 8.716-14.35.223z" fill="#ffe700"/><path d="m195.838 172.783c0 .13-2.8 7.99-2.8 7.99l-2.547-7.86s-8.53-.26-8.53-.13 6.748-5.154 6.748-5.154-3.182-9.02-3.055-8.762c.127.257 7.384 5.41 7.384 5.41s7.384-5.153 7.256-5.153-2.8 8.504-2.8 8.504l6.62 5.025-8.275.13z" fill="#108c00"/></g><g transform="matrix(1.04 0 0 1.04 -250.6 359.43)"><g stroke="#000"><g fill="#009200" stroke-width="2.5" transform="matrix(.16 -.02 0 .18 429.84 -215.63)"><ellipse cx="680.21" cy="586.13" rx="30.805" ry="189.82" transform="matrix(1.4 0 0 1 -534.29 263.72)"/><ellipse cx="680.21" cy="586.13" rx="30.805" ry="189.82" transform="matrix(1.5 0 0 1 -547.22 267.05)"/><ellipse cx="680.21" cy="586.13" rx="30.805" ry="189.82" transform="matrix(1.2 0 0 1.1 -364.93 214.1)"/></g><g transform="translate(72.86 -9.8)"><path d="m388.528-52.952c5.994-.333 3.33-3.33 6.327-4.995 2.998-1.666 7.327-.666 8.659 1.332s.333 3.996 1.998 3.996 46.912-2.535 48.576-.87c1.665 1.665 1.998 4.996.333 6.327-1.665 1.332-58.9 2.868-60.898 1.536s-4.995-6.993-4.995-7.326z" fill="#a95600" stroke-width=".501"/><g fill="#ff0" stroke-width="3.853"><path d="m529.59 405.46c0 39.983 45.562 27.88 46.81 61.25-.724 35.407-76.706 3.466-78.635-61.25 1.93-64.716 75.107-97.93 76.705-61.01 1.246 30.685-44.88 21.027-44.88 61.01z" transform="matrix(.15 0 0 .1 340.42 -81.69)"/><path d="m529.59 405.46c0 39.983 45.562 27.88 46.81 61.25-.724 35.407-76.706 3.466-78.635-61.25 1.93-64.716 75.107-97.93 76.705-61.01 1.246 30.685-44.88 21.027-44.88 61.01z" transform="matrix(.15 0 0 .1 344.42 -81.64)"/><path d="m529.59 405.46c0 39.983 45.562 27.88 46.81 61.25-.724 35.407-76.706 3.466-78.635-61.25 1.93-64.716 75.107-97.93 76.705-61.01 1.246 30.685-44.88 21.027-44.88 61.01z" transform="matrix(.15 0 0 .1 348.71 -81.8)"/><path d="m529.59 405.46c0 39.983 45.562 27.88 46.81 61.25-.724 35.407-76.706 3.466-78.635-61.25 1.93-64.716 75.107-97.93 76.705-61.01 1.246 30.685-44.88 21.027-44.88 61.01z" transform="matrix(.15 0 0 .1 352.71 -81.75)"/></g><ellipse cx="478.38" cy="-41.086" fill="#a95600" rx="3.534" ry="3.403" stroke-width=".399" transform="matrix(1.1 .02 -.02 1.15 -75.57 4.68)"/></g><g fill="#009200" stroke-width="2.5" transform="matrix(.99488071 -.1010563 .1010563 .99488071 66.706385 66.36344)"><ellipse cx="427.11" cy="905" rx="20.814" ry="24.144" transform="matrix(.17 0 0 .32 369.8 -361.65)"/><ellipse cx="427.11" cy="905" rx="20.814" ry="24.144" transform="matrix(.17 0 0 .32 364.04 -362.7)"/><ellipse cx="427.11" cy="905" rx="20.814" ry="24.144" transform="matrix(.17 0 0 .32 360.64 -370.55)"/><ellipse cx="427.11" cy="905" rx="20.814" ry="24.144" transform="matrix(.16 0 0 .35 369.3 -399.35)"/><ellipse cx="427.11" cy="905" rx="20.814" ry="24.144" transform="matrix(.16 0 0 .33 377.41 -379.07)"/><ellipse cx="427.11" cy="905" rx="20.814" ry="24.144" transform="matrix(.16 0 0 .33 373.22 -382.21)"/><ellipse cx="427.11" cy="905" rx="20.814" ry="24.144" transform="matrix(.16 0 0 .33 367.99 -386.66)"/><ellipse cx="427.11" cy="905" rx="20.814" ry="24.144" transform="matrix(.16 0 0 .33 363.01 -389.54)"/></g><path d="m482.57-141.072s-11.702 10.055-10.09 36.95c1.775 27.045 26.52 39.53 26.52 39.53s6.192-7.742 5.231-29.476c-2.097-31.772-13.868-45.705-13.868-45.705z" fill="#804bff" stroke-width=".456"/><g fill="#009200" stroke-width="2.5" transform="matrix(.99695828 .0779371 -.0779371 .99695828 60.553485 -11.763265)"><ellipse cx="427.11" cy="905" rx="20.814" ry="24.144" transform="matrix(.17 0 0 .32 369.8 -361.65)"/><ellipse cx="427.11" cy="905" rx="20.814" ry="24.144" transform="matrix(.17 0 0 .32 364.04 -362.7)"/><ellipse cx="427.11" cy="905" rx="20.814" ry="24.144" transform="matrix(.17 0 0 .32 360.64 -370.55)"/><ellipse cx="427.11" cy="905" rx="20.814" ry="24.144" transform="matrix(.16 0 0 .35 369.3 -399.35)"/><ellipse cx="427.11" cy="905" rx="20.814" ry="24.144" transform="matrix(.16 0 0 .33 377.41 -379.07)"/><ellipse cx="427.11" cy="905" rx="20.814" ry="24.144" transform="matrix(.16 0 0 .33 373.22 -382.21)"/><ellipse cx="427.11" cy="905" rx="20.814" ry="24.144" transform="matrix(.16 0 0 .33 367.99 -386.66)"/><ellipse cx="427.11" cy="905" rx="20.814" ry="24.144" transform="matrix(.16 0 0 .33 363.01 -389.54)"/></g><ellipse cx="624.42" cy="606.11" fill="#c90000" rx="58.28" ry="186.49" stroke-width="1pt" transform="matrix(.16 -.06 .06 .15 369.61 -145.05)"/><g fill="#009200" transform="matrix(.99984154 .01780142 -.01780142 .99984154 -34.813206 -4.625292)"><ellipse cx="218.13" cy="356.75" rx="10.823" ry="12.905" stroke-width="1.464" transform="matrix(.4 0 0 .3 445.07 -230.53)"/><ellipse cx="218.13" cy="356.75" rx="10.823" ry="12.905" stroke-width="1.546" transform="matrix(.35 0 0 .3 457.17 -235.92)"/><ellipse cx="218.13" cy="356.75" rx="10.823" ry="12.905" stroke-width="1.546" transform="matrix(.35 0 0 .3 452 -235.92)"/><ellipse cx="218.13" cy="356.75" rx="10.823" ry="12.905" stroke-width="1.56" transform="matrix(.37 0 0 .27 449.48 -233.46)"/><ellipse cx="218.13" cy="356.75" rx="10.823" ry="12.905" stroke-width="1.56" transform="matrix(.37 0 0 .27 448.95 -237.93)"/><ellipse cx="218.13" cy="356.75" rx="10.823" ry="12.905" stroke-width="1.546" transform="matrix(.35 0 0 .3 447.01 -238.85)"/><ellipse cx="218.13" cy="356.75" rx="10.823" ry="12.905" stroke-width="1.562" transform="matrix(.35 0 0 .3 448.08 -241.58)"/><ellipse cx="218.13" cy="356.75" rx="10.823" ry="12.905" stroke-width="1.464" transform="matrix(.4 0 0 .3 432.77 -243.48)"/><ellipse cx="218.13" cy="356.75" rx="10.823" ry="12.905" stroke-width="1.56" transform="matrix(.37 0 0 .27 445.92 -243.48)"/><ellipse cx="218.13" cy="356.75" rx="10.823" ry="12.905" stroke-width="1.562" transform="matrix(.35 0 0 .3 444.16 -246.97)"/><ellipse cx="218.13" cy="356.75" rx="10.823" ry="12.905" stroke-width="1.546" transform="matrix(.35 0 0 .3 436.14 -243.17)"/><g stroke-width="1.562"><ellipse cx="218.13" cy="356.75" rx="10.823" ry="12.905" transform="matrix(.35 0 0 .3 437.42 -243.88)"/><ellipse cx="218.13" cy="356.75" rx="10.823" ry="12.905" transform="matrix(.35 0 0 .3 438.99 -247.02)"/></g></g><g fill="#009200" transform="matrix(.18 0 0 .2 420.99 -216.8)"><ellipse cx="528.68" cy="564.48" rx="67.438" ry="205.64" stroke-width="2.545" transform="matrix(.98 -.3 .36 .87 -245.81 324.4)"/><ellipse cx="528.68" cy="646.07" rx="13.321" ry="40.796" stroke-width="2.5" transform="matrix(.9178932 -.39682751 .39682751 .9178932 -210.473481 304.46796)"/><g stroke-width="1.533"><path d="m139.87 643.99c0 57.677-18.755 86.17-34.55 110.32 7.516-32.47 12.904-52.637 12.904-110.31 0-57.677 29.58-85.337 40.38-101.99-4.187 16.652-18.734 44.312-18.734 101.99z" transform="matrix(1.88 -.46 .95 1.18 -352.26 -10.02)"/><path d="m139.87 643.99c0 57.677-18.755 86.17-34.55 110.32 7.516-32.47 12.904-52.637 12.904-110.31 0-57.677 29.58-85.337 40.38-101.99-4.187 16.652-18.734 44.312-18.734 101.99z" transform="matrix(1.88 -.46 .95 1.18 -348.42 44.06)"/><path d="m139.87 643.99c0 57.677-18.755 86.17-34.55 110.32 7.516-32.47 12.904-52.637 12.904-110.31 0-57.677 29.58-85.337 40.38-101.99-4.187 16.652-18.734 44.312-18.734 101.99z" transform="matrix(1.87 -.5 .98 1.16 -361.92 105.78)"/></g><ellipse cx="528.68" cy="646.07" rx="13.321" ry="40.796" stroke-width="1.389" transform="matrix(1.8 -.4 .7 1.64 -915.63 -221.01)"/><ellipse cx="528.68" cy="646.07" rx="13.321" ry="40.796" stroke-width="1.64" transform="matrix(1.63 -.23 .54 1.35 -739.49 -91.78)"/><ellipse cx="528.68" cy="646.07" rx="13.321" ry="40.796" stroke-width="1.64" transform="matrix(1.63 -.2 .5 1.36 -750.62 -91.83)"/><ellipse cx="528.68" cy="646.07" rx="13.321" ry="40.796" stroke-width="2.097" transform="matrix(1.3 -.2 .47 1 -531.06 47.57)"/><ellipse cx="528.68" cy="646.07" rx="13.321" ry="40.796" stroke-width="2.097" transform="matrix(1.33 -.13 .4 1.03 -517.87 12.21)"/><path d="m145.7 569.47c0 34.006-6.712 61.61-14.985 61.61-8.272 0-14.986-27.604-14.986-61.61" stroke-width="2.086" transform="matrix(1.03 -.5 .46 1.18 12.77 -14.52)"/><ellipse cx="528.68" cy="646.07" rx="13.321" ry="40.796" stroke-width="2.097" transform="matrix(1.33 -.13 .4 1.03 -519.53 -34.41)"/><ellipse cx="528.68" cy="646.07" rx="13.321" ry="40.796" stroke-width="2.097" transform="matrix(1.33 -.1 .38 1.04 -533.98 -40.12)"/><path d="m145.7 569.47c0 34.006-6.712 61.61-14.985 61.61-8.272 0-14.986-27.604-14.986-61.61" stroke-width="2.88" transform="matrix(.67 -.47 .46 .8 39.49 143.28)"/><path d="m145.7 569.47c0 34.006-6.712 61.61-14.985 61.61-8.272 0-14.986-27.604-14.986-61.61" stroke-width="2.88" transform="matrix(.67 -.47 .46 .8 51.14 125.79)"/><path d="m145.7 569.47c0 34.006-6.712 61.61-14.985 61.61-8.272 0-14.986-27.604-14.986-61.61" stroke-width="2.086" transform="matrix(.94 -.64 .64 1.1 -40.2 -10.74)"/><path d="m145.7 569.47c0 34.006-6.712 61.61-14.985 61.61-8.272 0-14.986-27.604-14.986-61.61" stroke-width="2.742" transform="matrix(.67 -.52 .46 .88 68.63 71.18)"/></g><g stroke-width="2.5"><g fill="#804bff"><path d="m276.27 345.41c-12.278 9.174.41 25.144 12.022 30.68 13.06 7.67 86.603 58.184 136.32 11.998-40.795.833-118.66-63.183-148.34-42.678z" transform="matrix(.16 0 0 .22 457.95 -214.27)"/><path d="m276.27 345.41c-12.278 9.174.41 25.144 12.022 30.68 13.06 7.67 86.603 58.184 136.32 11.998-40.795.833-118.66-63.183-148.34-42.678z" transform="matrix(.16 0 0 .22 456.55 -220.15)"/><path d="m276.27 345.41c-12.278 9.174.41 25.144 12.022 30.68 13.06 7.67 86.603 58.184 136.32 11.998-40.795.833-118.66-63.183-148.34-42.678z" transform="matrix(.16 0 0 .22 454.77 -225.77)"/><path d="m276.27 345.41c-12.278 9.174.41 25.144 12.022 30.68 13.06 7.67 86.603 58.184 136.32 11.998-40.795.833-118.66-63.183-148.34-42.678z" transform="matrix(.16 0 0 .22 450.9 -232.2)"/></g><path d="m211.17 247.3c21.773-12.065 56.618-9.75 79.734 11.165 19.36 16.943 45.307 75.194 70.322 92.834-20.227.018-31.298-5.77-42.24-15.18-28.768 15.44-38.128 16.723-63.89 15.63-35.882-1.333-62.46-17.653-68.18-40.603-6.165-21.804 4.926-52.498 24.254-63.847z" fill="#804bff" transform="matrix(.20068036 -.03643338 .04678782 .18086155 423.57903 -195.74318)"/><ellipse cx="287.23" cy="323.04" fill="#f00" rx="14.154" ry="14.986" transform="matrix(.24996039 .00445035 -.00231418 .1299794 417.627392 -197.389388)"/><ellipse cx="204.58" cy="348.26" fill="#ff0" rx="23.254" ry="15.895" transform="matrix(.20139242 -.07642704 .06696267 .17121916 414.341147 -190.326769)"/></g></g><ellipse cx="283.9" cy="333.86" rx="5.828" ry="5.828" transform="matrix(.19996831 .00356028 -.00356028 .19996831 427.426286 -215.777868)"/><path d="m516.8 260.29c4.425 18.107-6.674 43.083-33.133 52.61-26.775 13.172-46.08 41.83-55.64 88.016-47.245-103.27-23.108-148.28 20.6-160.35 37.376-14.363 60.42-13.37 68.173 19.72z" fill="#ff0" stroke="#000" stroke-width="6.56" transform="matrix(.09998415 .00178014 -.00142411 .07998732 433.233136 -173.417785)"/><ellipse cx="198.98" cy="362.39" rx="4.71" ry="4.71" transform="matrix(.19996831 .00356028 -.00356028 .19996831 434.847187 -216.885941)"/></g></g></svg>