<svg viewBox="0 0 640 480" xmlns="http://www.w3.org/2000/svg" xmlns:xlink="http://www.w3.org/1999/xlink"><clipPath id="a"><path d="m-85 0h682.7v512h-682.7z"/></clipPath><g clip-path="url(#a)" fill-rule="evenodd" transform="matrix(.94 0 0 .94 79.7 0)"><path d="m-258.3 0h1027.5v512h-1027.5z" fill="#108c00"/><path d="m-260 178.2h1032.6v50.1h-1032.6z" fill="#ffd600"/><path d="m181 0h48.5v512h-48.4z" fill="#ffd600"/><path d="m227.8 0h48.4v512h-48.4z"/><path d="m-260 226.6h1032.6v50.2h-1032.6z"/><path d="m-260 276.8h1032.6v50.1h-1032.6z" fill="#fff"/><path d="m276.2 0h48.5v512h-48.5z" fill="#fff"/><rect fill="#e72910" height="275" ry="137.5" transform="scale(-1)" width="273.8" x="-394.6" y="-393.9"/><g stroke-width="1pt"><g><path d="m250.5 137 5.6-16 5.1 15.7s17.1.5 17.1.2-13.5 10.3-13.5 10.3l6.1 17.6c-.2-.5-14.8-10.9-14.8-10.9s-14.8 10.4-14.5 10.4 5.6-17 5.6-17l-13.3-10.1 16.6-.3z"/><path d="m251.3 137.7 4.7-13.7 4.4 13.6s14.9.4 14.9.2-11.7 9-11.7 9l5.2 15.2c-.2-.5-12.8-9.4-12.8-9.4s-12.8 9-12.6 9 5-14.8 5-14.8l-11.6-8.8 14.4-.2z" fill="#ffe700"/><path d="m253.3 140 2.8-8 2.6 7.9s8.5.2 8.5 0-6.7 5.2-6.7 5.2l3 8.8c-.1-.3-7.4-5.4-7.4-5.4l-7.2 5.2c.2 0 2.8-8.5 2.8-8.5l-6.6-5z" fill="#108c00"/></g><g><path d="m356.9 211.8 5.6-16 5 15.7s17.2.6 17.2.3-13.5 10.3-13.5 10.3l6 17.6c-.2-.5-14.7-10.9-14.7-10.9s-14.8 10.4-14.5 10.4 5.6-17 5.6-17l-13.3-10.2 16.6-.3z"/><path d="m357.6 212.6 4.9-13.9 4.4 13.7s14.8.4 14.8.2-11.7 9-11.7 9l5.3 15.1c-.2-.4-12.8-9.4-12.8-9.4s-12.8 9-12.6 9 4.9-14.8 4.9-14.8l-11.5-8.7z" fill="#ffe700"/><path d="m359.7 214.9 2.8-8 2.5 7.8 8.6.2-6.8 5.1s3.2 9 3 8.8c0-.3-7.3-5.4-7.3-5.4l-7.3 5.1 2.8-8.5-6.6-5z" fill="#108c00"/></g><g><path d="m325.9 330.6 5.6-16 5 15.8s17.2.5 17.2.3-13.5 10.3-13.5 10.3l6 17.5c-.2-.5-14.7-10.8-14.7-10.8s-14.8 10.3-14.6 10.3 5.7-17 5.7-17l-13.3-10 16.6-.3z"/><path d="m326.6 331.4 4.9-13.8 4.4 13.6s14.8.5 14.8.2-11.7 9-11.7 9l5.3 15.2c-.2-.5-12.8-9.4-12.8-9.4s-12.8 9-12.6 9 4.9-14.8 4.9-14.8l-11.5-8.7z" fill="#ffe700"/><path d="m328.7 333.7 2.8-8 2.5 7.9s8.6.3 8.6.1-6.8 5.2-6.8 5.2l3 8.7c0-.2-7.3-5.4-7.3-5.4l-7.3 5.2 2.8-8.5-6.6-5z" fill="#108c00"/></g><g><path d="m177.2 330.6 5.6-16 5 15.8s17.1.5 17.1.3-13.5 10.3-13.5 10.3l6.2 17.5c-.3-.5-14.8-10.8-14.8-10.8s-14.8 10.3-14.6 10.3 5.7-17 5.7-17l-13.3-10 16.6-.3z"/><path d="m178 331.4 4.8-13.8 4.4 13.6s14.8.5 14.8.2-11.7 9-11.7 9l5.3 15.2c-.2-.5-12.8-9.4-12.8-9.4s-12.8 9-12.6 9 4.9-14.8 4.9-14.8l-11.5-8.7 14.3-.3z" fill="#ffe700"/><path d="m180 333.7 2.8-8 2.5 7.9s8.6.3 8.6.1-6.8 5.2-6.8 5.2l3 8.7c0-.2-7.3-5.4-7.3-5.4l-7.3 5.2 2.8-8.5-6.6-5z" fill="#108c00"/></g><g><path d="m150 208.7 5.6-16 5.1 15.8s17.1.5 17.1.2-13.5 10.4-13.5 10.4l6.1 17.5c-.3-.5-14.8-10.8-14.8-10.8s-14.8 10.2-14.5 10.2 5.6-17 5.6-17l-13.3-10z"/><path d="m150.8 209.5 4.8-13.8 4.5 13.6s14.7.5 14.7.2-11.7 9-11.7 9l5.3 15.2c-.2-.5-12.8-9.4-12.8-9.4s-12.8 9-12.5 9 4.8-14.8 4.8-14.8l-11.5-8.7z" fill="#ffe700"/><path d="m152.8 211.8 2.8-8 2.6 7.9 8.5.1-6.7 5.2 3 8.7c-.1-.2-7.4-5.4-7.4-5.4l-7.2 5.2c.2 0 2.8-8.5 2.8-8.5l-6.6-5z" fill="#108c00"/></g><g><path d="m324.6 174.1-5.6 16-5-15.7s-17.2-.5-17.2-.3 13.5-10.3 13.5-10.3l-6-17.5c.2.5 14.7 10.8 14.7 10.8s14.8-10.3 14.5-10.3-5.6 17-5.6 17l13.3 10z"/><path d="m323.9 173.3c0 .3-5 13.9-5 13.9l-4.3-13.6s-14.8-.5-14.8-.3 11.7-8.9 11.7-8.9l-5.3-15.2c.2.5 12.8 9.4 12.8 9.4s12.8-9 12.6-9-4.9 14.8-4.9 14.8l11.5 8.7-14.4.2z" fill="#ffe700"/><path d="m321.8 171-2.8 8-2.5-7.8s-8.6-.3-8.6-.1 6.8-5.2 6.8-5.2l-3-8.7c0 .2 7.3 5.4 7.3 5.4l7.3-5.2c-.2 0-2.9 8.5-2.9 8.5l6.7 5-8.3.2z" fill="#108c00"/></g><g><path d="m367.3 290.3-5.6 16-5-15.8s-17.2-.5-17.2-.2 13.5-10.3 13.5-10.3l-6-17.6c.2.5 14.7 10.8 14.7 10.8s14.8-10.3 14.5-10.3-5.6 17-5.6 17l13.4 10.1-16.6.3z"/><path d="m366.6 289.5-4.9 13.8-4.4-13.6s-14.8-.4-14.8-.2 11.7-9 11.7-9l-5.3-15.2c.2.5 12.8 9.4 12.8 9.4s12.8-9 12.6-9-4.9 14.8-4.9 14.8l11.5 8.8-14.4.2z" fill="#ffe700"/><path d="m364.5 287.2-2.8 8-2.5-7.9s-8.6-.2-8.6 0 6.8-5.2 6.8-5.2l-3-8.8c0 .3 7.3 5.4 7.3 5.4l7.3-5.2c-.2 0-2.9 8.6-2.9 8.6l6.7 5z" fill="#108c00"/></g><g><path d="m261.4 375.3-5.6 16-5-15.8s-17.2-.5-17.2-.3 13.5-10.3 13.5-10.3l-6-17.5c.2.5 14.7 10.8 14.7 10.8s14.8-10.3 14.5-10.3-5.6 17-5.6 17l13.3 10.1z"/><path d="m260.7 374.4-4.9 14-4.4-13.7s-14.8-.5-14.8-.2 11.7-9 11.7-9l-5.3-15.2c.2.5 12.8 9.4 12.8 9.4s12.8-9 12.6-9-4.9 14.8-4.9 14.8l11.5 8.7-14.3.3z" fill="#ffe700"/><path d="m258.6 372.2-2.8 8-2.5-7.9s-8.6-.3-8.6-.1 6.8-5.2 6.8-5.2l-3-8.7c0 .2 7.3 5.4 7.3 5.4l7.3-5.2-2.8 8.5 6.6 5z" fill="#108c00"/></g><g><path d="m162 290.3-5.7 16-5-15.8s-17.2-.5-17.2-.2 13.5-10.3 13.5-10.3l-6-17.6c.2.5 14.7 10.8 14.7 10.8l14.7-10.2-5.7 17 13.3 10.1-16.6.3z"/><path d="m161.2 289.5-4.9 13.8-4.4-13.6s-14.8-.4-14.8-.2 11.7-9 11.7-9l-5.3-15.2c.2.5 12.8 9.4 12.8 9.4s12.8-9 12.6-9-4.9 14.8-4.9 14.8l11.5 8.8z" fill="#ffe700"/><path d="m159.1 287.2-2.8 8-2.5-7.9s-8.6-.2-8.6 0 6.8-5.2 6.8-5.2l-3-8.8c0 .3 7.3 5.4 7.3 5.4l7.3-5.2-2.8 8.6 6.6 5z" fill="#108c00"/></g><g><path d="m198.7 175.8-5.6 16-5.2-15.7s-17-.5-17-.3 13.5-10.3 13.5-10.3l-6.1-17.5c.2.5 14.7 10.8 14.7 10.8s14.8-10.3 14.6-10.3-5.6 17-5.6 17l13.2 10-16.5.4z"/><path d="m197.9 175-4.9 14-4.4-13.7s-14.8-.5-14.8-.2 11.7-9 11.7-9l-5.3-15.2c.2.5 12.8 9.4 12.8 9.4s12.8-9 12.6-9-4.8 14.8-4.8 14.8l11.4 8.7-14.3.3z" fill="#ffe700"/><path d="m195.8 172.8-2.8 8-2.5-7.9s-8.5-.3-8.5-.1 6.7-5.2 6.7-5.2l-3-8.7c0 .2 7.3 5.4 7.3 5.4l7.3-5.2-2.8 8.5 6.6 5z" fill="#108c00"/></g></g><g transform="matrix(1.04 0 0 1.04 -250.6 359.4)"><g stroke="#000"><g fill="#009200" stroke-width="2.5" transform="matrix(.16 -.02 0 .18 429.8 -215.6)"><ellipse cx="680.2" cy="586.1" rx="30.8" ry="189.8" transform="matrix(1.4 0 0 1 -534.3 263.7)"/><ellipse cx="680.2" cy="586.1" rx="30.8" ry="189.8" transform="matrix(1.5 0 0 1 -547.2 267)"/><ellipse cx="680.2" cy="586.1" rx="30.8" ry="189.8" transform="matrix(1.2 0 0 1.1 -365 214.1)"/></g><g transform="translate(72.9 -9.8)"><path d="m388.5-53c6-.3 3.4-3.3 6.4-5 3-1.6 7.3-.6 8.6 1.4s.3 4 2 4 47-2.5 48.6-.9c1.6 1.7 2 5 .3 6.3-1.6 1.4-58.9 3-60.9 1.6s-5-7-5-7.4z" fill="#a95600" stroke-width=".5"/><g fill="#ff0" stroke-width="3.9"><path d="m529.6 405.5c0 40 45.6 27.8 46.8 61.2-.7 35.4-76.7 3.5-78.6-61.2 1.9-64.8 75-98 76.7-61 1.2 30.6-45 21-45 61z" transform="matrix(.15 0 0 .1 340.4 -81.7)"/><path d="m529.6 405.5c0 40 45.6 27.8 46.8 61.2-.7 35.4-76.7 3.5-78.6-61.2 1.9-64.8 75-98 76.7-61 1.2 30.6-45 21-45 61z" transform="matrix(.15 0 0 .1 344.4 -81.6)"/><path d="m529.6 405.5c0 40 45.6 27.8 46.8 61.2-.7 35.4-76.7 3.5-78.6-61.2 1.9-64.8 75-98 76.7-61 1.2 30.6-45 21-45 61z" transform="matrix(.15 0 0 .1 348.7 -81.8)"/><path d="m529.6 405.5c0 40 45.6 27.8 46.8 61.2-.7 35.4-76.7 3.5-78.6-61.2 1.9-64.8 75-98 76.7-61 1.2 30.6-45 21-45 61z" transform="matrix(.15 0 0 .1 352.7 -81.8)"/></g><ellipse cx="478.4" cy="-41.1" fill="#a95600" rx="3.5" ry="3.4" stroke-width=".4" transform="matrix(1.1 .02 -.02 1.15 -75.6 4.7)"/></g><g fill="#009200" stroke-width="2.5" transform="matrix(.99488071 -.1010563 .1010563 .99488071 66.704517 66.366574)"><ellipse cx="427.1" cy="905" rx="20.8" ry="24.1" transform="matrix(.17 0 0 .32 369.8 -361.6)"/><ellipse cx="427.1" cy="905" rx="20.8" ry="24.1" transform="matrix(.17 0 0 .32 364 -362.7)"/><ellipse cx="427.1" cy="905" rx="20.8" ry="24.1" transform="matrix(.17 0 0 .32 360.6 -370.6)"/><ellipse cx="427.1" cy="905" rx="20.8" ry="24.1" transform="matrix(.16 0 0 .35 369.3 -399.4)"/><ellipse cx="427.1" cy="905" rx="20.8" ry="24.1" transform="matrix(.16 0 0 .33 377.4 -379)"/><ellipse cx="427.1" cy="905" rx="20.8" ry="24.1" transform="matrix(.16 0 0 .33 373.2 -382.2)"/><ellipse cx="427.1" cy="905" rx="20.8" ry="24.1" transform="matrix(.16 0 0 .33 368 -386.7)"/><ellipse cx="427.1" cy="905" rx="20.8" ry="24.1" transform="matrix(.16 0 0 .33 363 -389.5)"/></g><path d="m482.6-141s-11.7 10-10.1 36.9c1.8 27 26.5 39.5 26.5 39.5s6.2-7.7 5.2-29.5c-2-31.8-13.8-45.7-13.8-45.7l-7.8-1.3z" fill="#804bff" stroke-width=".5"/><g fill="#009200" stroke-width="2.5" transform="matrix(.99691733 .0784591 -.0784591 .99691733 60.96362 -11.827752)"><ellipse cx="427.1" cy="905" rx="20.8" ry="24.1" transform="matrix(.17 0 0 .32 369.8 -361.6)"/><ellipse cx="427.1" cy="905" rx="20.8" ry="24.1" transform="matrix(.17 0 0 .32 364 -362.7)"/><ellipse cx="427.1" cy="905" rx="20.8" ry="24.1" transform="matrix(.17 0 0 .32 360.6 -370.6)"/><ellipse cx="427.1" cy="905" rx="20.8" ry="24.1" transform="matrix(.16 0 0 .35 369.3 -399.4)"/><ellipse cx="427.1" cy="905" rx="20.8" ry="24.1" transform="matrix(.16 0 0 .33 377.4 -379)"/><ellipse cx="427.1" cy="905" rx="20.8" ry="24.1" transform="matrix(.16 0 0 .33 373.2 -382.2)"/><ellipse cx="427.1" cy="905" rx="20.8" ry="24.1" transform="matrix(.16 0 0 .33 368 -386.7)"/><ellipse cx="427.1" cy="905" rx="20.8" ry="24.1" transform="matrix(.16 0 0 .33 363 -389.5)"/></g><ellipse cx="624.4" cy="606.1" fill="#c90000" rx="58.3" ry="186.5" stroke-width="1pt" transform="matrix(.16 -.06 .06 .15 369.6 -145)"/><g fill="#009200" transform="matrix(.9998477 .01745241 -.01745241 .9998477 -34.131403 -4.528646)"><ellipse cx="218.1" cy="356.8" rx="10.8" ry="12.9" stroke-width="1.5" transform="matrix(.4 0 0 .3 445 -230.5)"/><g stroke-width="1.6"><ellipse cx="218.1" cy="356.8" rx="10.8" ry="12.9" transform="matrix(.35 0 0 .3 457.2 -236)"/><ellipse cx="218.1" cy="356.8" rx="10.8" ry="12.9" transform="matrix(.35 0 0 .3 452 -236)"/><ellipse cx="218.1" cy="356.8" rx="10.8" ry="12.9" transform="matrix(.37 0 0 .27 449.5 -233.5)"/><ellipse cx="218.1" cy="356.8" rx="10.8" ry="12.9" transform="matrix(.37 0 0 .27 449 -238)"/><ellipse cx="218.1" cy="356.8" rx="10.8" ry="12.9" transform="matrix(.35 0 0 .3 447 -238.8)"/><ellipse cx="218.1" cy="356.8" rx="10.8" ry="12.9" transform="matrix(.35 0 0 .3 448 -241.6)"/></g><ellipse cx="218.1" cy="356.8" rx="10.8" ry="12.9" stroke-width="1.5" transform="matrix(.4 0 0 .3 432.8 -243.5)"/><ellipse cx="218.1" cy="356.8" rx="10.8" ry="12.9" stroke-width="1.6" transform="matrix(.37 0 0 .27 446 -243.5)"/><ellipse cx="218.1" cy="356.8" rx="10.8" ry="12.9" stroke-width="1.6" transform="matrix(.35 0 0 .3 444.2 -247)"/><ellipse cx="218.1" cy="356.8" rx="10.8" ry="12.9" stroke-width="1.6" transform="matrix(.35 0 0 .3 436.1 -243.2)"/><ellipse cx="218.1" cy="356.8" rx="10.8" ry="12.9" stroke-width="1.6" transform="matrix(.35 0 0 .3 437.4 -243.9)"/><ellipse cx="218.1" cy="356.8" rx="10.8" ry="12.9" stroke-width="1.6" transform="matrix(.35 0 0 .3 439 -247)"/></g><g fill="#009200" transform="matrix(.18 0 0 .2 421 -216.8)"><ellipse cx="528.7" cy="564.5" rx="67.4" ry="205.6" stroke-width="2.5" transform="matrix(.98 -.3 .36 .87 -245.8 324.4)"/><ellipse cx="528.7" cy="646.1" rx="13.3" ry="40.8" stroke-width="2.5" transform="matrix(.91775463 -.39714789 .39714789 .91775463 -210.619332 304.757713)"/><path d="m139.9 644c0 57.7-18.8 86.2-34.6 110.3 7.5-32.5 13-52.6 13-110.3s29.5-85.3 40.3-102c-4.2 16.7-18.7 44.3-18.7 102z" stroke-width="1.5" transform="matrix(1.88 -.46 .95 1.18 -352.3 -10)"/><path d="m139.9 644c0 57.7-18.8 86.2-34.6 110.3 7.5-32.5 13-52.6 13-110.3s29.5-85.3 40.3-102c-4.2 16.7-18.7 44.3-18.7 102z" stroke-width="1.5" transform="matrix(1.88 -.46 .95 1.18 -348.4 44)"/><path d="m139.9 644c0 57.7-18.8 86.2-34.6 110.3 7.5-32.5 13-52.6 13-110.3s29.5-85.3 40.3-102c-4.2 16.7-18.7 44.3-18.7 102z" stroke-width="1.5" transform="matrix(1.87 -.5 .98 1.16 -362 105.8)"/><ellipse cx="528.7" cy="646.1" rx="13.3" ry="40.8" stroke-width="1.4" transform="matrix(1.8 -.4 .7 1.64 -915.6 -221)"/><ellipse cx="528.7" cy="646.1" rx="13.3" ry="40.8" stroke-width="1.6" transform="matrix(1.63 -.23 .54 1.35 -739.5 -91.8)"/><ellipse cx="528.7" cy="646.1" rx="13.3" ry="40.8" stroke-width="1.6" transform="matrix(1.63 -.2 .5 1.36 -750.6 -91.8)"/><g stroke-width="2.1"><ellipse cx="528.7" cy="646.1" rx="13.3" ry="40.8" transform="matrix(1.3 -.2 .47 1 -531 47.6)"/><ellipse cx="528.7" cy="646.1" rx="13.3" ry="40.8" transform="matrix(1.33 -.13 .4 1.03 -517.9 12.2)"/><path d="m145.7 569.5c0 34-6.7 61.6-15 61.6s-15-27.6-15-61.6" transform="matrix(1.03 -.5 .46 1.18 12.8 -14.5)"/><ellipse cx="528.7" cy="646.1" rx="13.3" ry="40.8" transform="matrix(1.33 -.13 .4 1.03 -519.5 -34.4)"/><ellipse cx="528.7" cy="646.1" rx="13.3" ry="40.8" transform="matrix(1.33 -.1 .38 1.04 -534 -40.1)"/></g><path d="m145.7 569.5c0 34-6.7 61.6-15 61.6s-15-27.6-15-61.6" stroke-width="2.9" transform="matrix(.67 -.47 .46 .8 39.5 143.3)"/><path d="m145.7 569.5c0 34-6.7 61.6-15 61.6s-15-27.6-15-61.6" stroke-width="2.9" transform="matrix(.67 -.47 .46 .8 51.1 125.8)"/><path d="m145.7 569.5c0 34-6.7 61.6-15 61.6s-15-27.6-15-61.6" stroke-width="2.1" transform="matrix(.94 -.64 .64 1.1 -40.2 -10.7)"/><path d="m145.7 569.5c0 34-6.7 61.6-15 61.6s-15-27.6-15-61.6" stroke-width="2.7" transform="matrix(.67 -.52 .46 .88 68.6 71.2)"/></g><g fill="#804bff" stroke-width="2.5"><path d="m276.3 345.4c-12.3 9.2.4 25.2 12 30.7 13 7.7 86.6 58.2 136.3 12-40.8.8-118.7-63.2-148.3-42.7z" transform="matrix(.16 0 0 .22 458 -214.3)"/><path d="m276.3 345.4c-12.3 9.2.4 25.2 12 30.7 13 7.7 86.6 58.2 136.3 12-40.8.8-118.7-63.2-148.3-42.7z" transform="matrix(.16 0 0 .22 456.6 -220.2)"/><path d="m276.3 345.4c-12.3 9.2.4 25.2 12 30.7 13 7.7 86.6 58.2 136.3 12-40.8.8-118.7-63.2-148.3-42.7z" transform="matrix(.16 0 0 .22 454.8 -225.8)"/><path d="m276.3 345.4c-12.3 9.2.4 25.2 12 30.7 13 7.7 86.6 58.2 136.3 12-40.8.8-118.7-63.2-148.3-42.7z" transform="matrix(.16 0 0 .22 450.9 -232.2)"/></g><path d="m211.2 247.3c21.7-12 56.6-9.8 79.7 11.2 19.4 17 45.3 75.2 70.3 92.8a57.7 57.7 0 0 1 -42.2-15.2c-28.8 15.5-38.1 16.7-64 15.7-35.8-1.4-62.4-17.7-68-40.6-6.3-21.8 4.8-52.5 24.2-63.9z" fill="#804bff" stroke-width="2.5" transform="matrix(.2006676364 -.036503426 .0468509512 .1808452065 423.271487836 -196.056625922)"/><ellipse cx="287.2" cy="323" fill="#f00" rx="14.2" ry="15" stroke-width="2.5" transform="matrix(.249961925 .0043631025 -.0022688133 .129980201 417.300325492 -197.761096702)"/><ellipse cx="204.6" cy="348.3" fill="#ff0" rx="23.3" ry="15.9" stroke-width="2.5" transform="matrix(.2013657328 -.076497334 .0670224293 .1711957777 414.07514027 -190.616295733)"/></g><circle cx="283.9" cy="333.9" r="5.8" transform="matrix(.19996954 .003490482 -.003490482 .19996954 427.121748227 -216.092481257)"/><path d="m516.8 260.3c4.4 18-6.7 43-33.1 52.6-26.8 13.2-46.1 41.8-55.7 88-47.2-103.2-23-148.3 20.6-160.3 37.4-14.4 60.4-13.4 68.2 19.7z" fill="#ff0" stroke="#000" stroke-width="6.6" transform="matrix(.09998477 .001745241 -.0013961928 .079987816 432.984251345 -173.783722411)"/><circle cx="199" cy="362.4" r="4.7" transform="matrix(.19996954 .003490482 -.003490482 .19996954 434.54330934 -217.263135433)"/></g></g></svg>