<svg xmlns="http://www.w3.org/2000/svg" xmlns:xlink="http://www.w3.org/1999/xlink" id="flag-icons-eac" viewBox="0 0 640 480">
  <path id="eac-a" fill="#fff" fill-opacity="1" fill-rule="nonzero" stroke="none" stroke-dasharray="none" stroke-miterlimit="4" stroke-opacity="1" stroke-width="3.11399" d="M0 326.4h640V348H0z"/>
  <use xlink:href="#eac-a" width="600" height="330" transform="translate(0 -194.4)"/>
  <path id="eac-b" fill="#0087ff" fill-opacity="1" fill-rule="nonzero" stroke="none" stroke-dasharray="none" stroke-miterlimit="4" stroke-opacity="1" stroke-width="3.11399" d="M0 348h640v132H0z"/>
  <use xlink:href="#eac-b" width="600" height="330" transform="translate(0 -348)"/>
  <path fill="red" fill-opacity="1" fill-rule="nonzero" stroke="none" stroke-dasharray="none" stroke-miterlimit="4" stroke-opacity="1" stroke-width="3.11399" d="M0 290.4h640v36H0z"/>
  <path fill="#000" fill-opacity="1" fill-rule="nonzero" stroke="none" stroke-dasharray="none" stroke-miterlimit="4" stroke-opacity="1" stroke-width="3.11399" d="M0 153.6h640v36H0z"/>
  <path fill="#ff0" fill-opacity="1" fill-rule="nonzero" stroke="none" stroke-dasharray="none" stroke-miterlimit="4" stroke-opacity="1" stroke-width="3.11399" d="M0 206.4h640v67.2H0z"/>
  <path id="eac-c" fill="#008300" fill-opacity="1" fill-rule="nonzero" stroke="none" stroke-dasharray="none" stroke-miterlimit="4" stroke-opacity="1" stroke-width="3.11399" d="M0 273.6h640v16.8H0z"/>
  <use xlink:href="#eac-c" width="600" height="330" transform="translate(0 -84)"/>
  <g transform="matrix(.87273 0 0 .87273 41.1 674.6)">
    <path fill="#fff" fill-opacity="1" fill-rule="nonzero" stroke="#000" stroke-miterlimit="4" stroke-opacity="1" stroke-width="1.97893" d="M319.6-589.5a80 80 0 0 0-56.7 136.3l-34.2 11 3.1 7.8-11 2.4 8 25.6h181.6l7.9-25.6-11-2.4 3.1-7.9-34.2-10.9a80 80 0 0 0-56.6-136.3z"/>
    <path fill="#008300" fill-opacity="1" fill-rule="nonzero" stroke="none" stroke-width=".791572" d="m230.5-431.6 7 22.6h164.2l6.9-22.6z"/>
    <path fill="#fff" fill-opacity="1" fill-rule="nonzero" stroke="none" stroke-width=".791572" d="m234.9-428.7 5.1 16.8h159.1l5.1-16.8H275.4z"/>
    <g stroke-width="3.86792" aria-label="JUMUIYA YA AFRIKA MASHARIKI" font-family="Times New Roman" font-size="52.1213px" font-weight="700">
      <path d="M140.8 811.3q0 2.6-.6 5-.6 2.3-2.1 4-1.5 1.8-4 2.8-2.5 1-6.4 1-3.5 0-6-.8-2.6-.9-4.3-2l2.7-6.3q1.5.9 3.3 1.5 1.7.7 3.7.7 3 0 4.3-1.5 1.3-1.4 1.3-4.9v-23.5h8.1zM162.8 824.1q-3.9 0-6.6-1-2.8-1.1-4.6-3-1.8-1.9-2.7-4.5-.8-2.7-.8-5.8v-22.5h8.1V809q0 2.2.5 3.7t1.4 2.5q.8 1 2 1.4 1.3.4 2.8.4 3 0 4.8-1.8 1.8-1.8 1.8-6.2v-21.8h8.2v22.5q0 3.1-1 5.8-.8 2.6-2.6 4.6-1.9 1.9-4.7 2.9-2.8 1-6.6 1zM195 787.3q1 1.7 2.2 4.3l2.6 5.4 2.6 6 2.5 5.8 2.4-5.8 2.6-6 2.6-5.4q1.2-2.6 2.2-4.3h7.4l1 8 .7 9.3q.4 4.8.6 9.7l.5 9.1H217l-.4-11.5-.8-12.5-2 4.9-2.4 5.3q-1 2.7-2.1 5.1l-1.8 4.1h-5.7l-1.7-4.1-2.2-5.1-2.3-5.3-2-4.9q-.6 6.3-.8 12.5l-.4 11.5h-8l.5-9.1.6-9.7.8-9.2 1-8.1zM246.4 824.1q-3.8 0-6.6-1-2.8-1.1-4.6-3-1.8-1.9-2.7-4.5-.8-2.7-.8-5.8v-22.5h8.1V809q0 2.2.5 3.7t1.4 2.5q.9 1 2 1.4 1.3.4 2.8.4 3 0 4.8-1.8 1.8-1.8 1.8-6.2v-21.8h8.2v22.5q0 3.1-1 5.8-.8 2.6-2.6 4.6-1.9 1.9-4.7 2.9-2.8 1-6.6 1zM269 787.3h8.2v36.1h-8.1zM298.8 802.1l4.2-7.4q2-3.7 3.6-7.4h9q-3 5.8-6.2 11.3-3.2 5.5-6.7 11v13.8h-8.1v-13.7q-3.6-5.5-6.8-11-3.2-5.6-6.2-11.4h9.5q1.6 3.7 3.6 7.4l4 7.4zM339 823.4l-1.3-3.8-1.4-4h-14l-1.5 4-1.2 3.8H311l3.9-10.8 3.5-9.3 3.5-8.3q1.7-4 3.5-7.7h7.8q1.8 3.7 3.5 7.7l3.4 8.3 3.6 9.3 3.9 10.8zm-9.8-28q-.2.9-.8 2.2l-1.2 3.1-1.5 4-1.6 4.4h10.3l-1.6-4.5-1.5-3.9-1.2-3-.9-2.2zM378.1 802.1l4.2-7.4q2-3.7 3.6-7.4h9q-3 5.8-6.1 11.3-3.2 5.5-6.8 11v13.8H374v-13.7l-6.8-11q-3.2-5.6-6.1-11.4h9.4l3.6 7.4 4.1 7.4zM418.3 823.4l-1.3-3.8-1.4-4h-14l-1.4 4-1.3 3.8h-8.4l3.8-10.8 3.6-9.3 3.4-8.3q1.7-4 3.6-7.7h7.7q1.8 3.7 3.5 7.7l3.5 8.3 3.6 9.3 3.8 10.8zm-9.7-28-.8 2.2-1.2 3.1-1.5 4-1.6 4.4h10.2l-1.6-4.5-1.5-3.9-1.2-3-.8-2.2zM468.4 823.4l-1.3-3.8-1.4-4h-14l-1.4 4-1.3 3.8h-8.4l3.8-10.8q1.8-5 3.6-9.3l3.4-8.3q1.7-4 3.5-7.7h7.8q1.8 3.7 3.5 7.7l3.4 8.3 3.6 9.3 3.9 10.8zm-9.8-28-.7 2.2-1.2 3.1-1.5 4-1.7 4.4h10.3l-1.6-4.5-1.5-3.9-1.2-3-.9-2.2zM481.8 823.4v-36.1H506v6.8h-16v7.6h14.2v6.8h-14.3v15zM522.3 786.9q8.1 0 12.4 2.9 4.4 2.9 4.4 9 0 3.8-1.8 6.2-1.7 2.3-5 3.7l2.3 3 2.3 3.7 2.3 4 2 4h-9l-2.1-3.6-2-3.5-2.2-3.3-2-2.8h-4v13.2h-8.2v-35.6q2.7-.5 5.5-.7l5-.2zm.5 6.9H521l-1.3.2v9.8h2.3q4.6 0 6.6-1.2 2-1.1 2-3.9 0-2.7-2-3.7-2-1.2-6-1.2zM546.5 787.3h8.1v36.1h-8.1zM584.3 823.4q-1.1-1.8-2.6-3.8l-3.3-4.1q-1.7-2.1-3.6-4-1.9-1.9-3.7-3.4v15.3h-8.2v-36.1h8.2v13.6q3.2-3.3 6.3-6.9l6-6.7h9.7q-3.7 4.4-7.5 8.4-3.7 4.1-7.8 8.2 4.3 3.6 8.3 8.6 4.1 5 7.8 11zM624 823.4l-1.2-3.8-1.4-4h-14l-1.5 4-1.2 3.8h-8.5l3.9-10.8 3.5-9.3 3.5-8.3q1.7-4 3.5-7.7h7.8q1.8 3.7 3.5 7.7l3.4 8.3 3.6 9.3 3.9 10.8zm-9.7-28-.7 2.2-1.2 3.1-1.6 4-1.6 4.4h10.3l-1.6-4.5-1.5-3.9-1.2-3-.9-2.2zM659.6 787.3q1 1.7 2.1 4.3l2.6 5.4 2.6 6 2.5 5.8 2.4-5.8 2.6-6 2.6-5.4q1.2-2.6 2.2-4.3h7.4l1 8 .7 9.3q.4 4.8.6 9.7l.5 9.1h-7.9l-.4-11.5-.8-12.5-2 4.9-2.4 5.3q-1 2.7-2.1 5.1l-1.8 4.1h-5.7l-1.7-4.1-2.2-5.1-2.3-5.3-2-4.9q-.6 6.3-.8 12.5l-.4 11.5h-8l.5-9.1.6-9.7.8-9.2 1-8.1zM721 823.4l-1.4-3.8-1.3-4h-14.1l-1.4 4-1.3 3.8h-8.4l3.8-10.8 3.6-9.3 3.4-8.3q1.7-4 3.6-7.7h7.7q1.8 3.7 3.5 7.7 1.8 4 3.5 8.3l3.6 9.3 3.8 10.8zm-9.8-28-.8 2.2-1.2 3.1-1.5 4-1.6 4.4h10.2l-1.6-4.5-1.5-3.9-1.2-3-.8-2.2zM745.2 817.2q1.7 0 2.8-.3 1.1-.3 1.8-.7.7-.6 1-1.2.2-.7.2-1.5 0-1.8-1.7-3-1.6-1.2-5.7-2.5l-3.6-1.4q-1.7-.9-3.1-2-1.4-1.3-2.3-3-1-1.8-1-4.3t1-4.5q1-2 2.7-3.4 1.7-1.4 4.2-2.2 2.4-.7 5.5-.7 3.6 0 6.3.7 2.6.8 4.4 1.8l-2.4 6.4q-1.5-.8-3.4-1.4-1.8-.6-4.4-.6-3 0-4.2.8-1.3.8-1.3 2.5 0 1 .5 1.6.5.7 1.3 1.3l2 1 2.5.9q2.8 1 4.9 2 2 1 3.4 2.4t2.1 3.2q.7 1.8.7 4.4 0 5-3.6 7.9-3.5 2.7-10.6 2.7-2.4 0-4.4-.3-1.9-.2-3.4-.7l-2.6-.8-1.7-1 2.3-6.4q1.6.9 4 1.6 2.3.7 5.8.7zM787.4 787.3h8.2v36.1h-8.2v-15.3h-13.6v15.3h-8.2v-36.1h8.2V801h13.6zM828 823.4l-1.2-3.8-1.4-4h-14l-1.5 4-1.2 3.8h-8.5q2-5.8 4-10.8 1.7-5 3.5-9.3l3.4-8.3q1.7-4 3.5-7.7h7.8q1.8 3.7 3.5 7.7l3.4 8.3 3.6 9.3 3.9 10.8zm-9.7-28-.7 2.2-1.2 3.1-1.6 4-1.6 4.4h10.3l-1.6-4.5-1.5-3.9-1.2-3-.9-2.2zM852 786.9q8.2 0 12.5 2.9 4.3 2.9 4.3 9 0 3.8-1.7 6.2-1.8 2.3-5 3.7l2.3 3 2.3 3.7 2.3 4 2 4h-9l-2.1-3.6-2.1-3.5-2-3.3-2.2-2.8h-4v13.2h-8.1v-35.6q2.6-.5 5.4-.7l5.2-.2zm.5 6.9H851l-1.3.2v9.8h2.3q4.6 0 6.6-1.2 2-1.1 2-3.9 0-2.7-2-3.7-2-1.2-6-1.2zM876.2 787.3h8.2v36.1h-8.2zM914 823.4q-1-1.8-2.6-3.8-1.4-2-3.2-4.1-1.7-2.1-3.6-4-1.9-1.9-3.8-3.4v15.3h-8v-36.1h8v13.6q3.2-3.3 6.4-6.9l6-6.7h9.6q-3.7 4.4-7.4 8.4-3.7 4.1-7.8 8.2 4.3 3.6 8.3 8.6 4 5 7.8 11zM928.4 787.3h8v36.1h-8z" style="-inkscape-font-specification:&quot;Ubuntu Bold&quot;" transform="matrix(.18901 0 0 .21163 219.5 -590.5)"/>
    </g>
    <g id="eac-d">
      <path fill="#008300" fill-opacity="1" fill-rule="evenodd" stroke="none" d="m52.1-129.6 13.1-3.5-4.1-7.2 22.6-8.5v7.7h7v11.8h-38Z" transform="translate(189.3 -329) scale(.79157)"/>
      <path fill="#fff" fill-opacity="1" fill-rule="evenodd" stroke="none" d="M87.4-129.4H59.9l27.5-7.4zM81.4-141H69l12.5-4.8zM65.2-138.8l2.8 5 18.3-5z" transform="translate(189.3 -329) scale(.79157)"/>
    </g>
    <use xlink:href="#eac-d" width="600" height="330" transform="matrix(-1 0 0 1 639.1 0)"/>
    <path fill="#ff0" fill-opacity="1" fill-rule="nonzero" stroke="#000" stroke-dasharray="none" stroke-miterlimit="4" stroke-opacity="1" stroke-width="1.18735" d="M317.7-580A70.8 70.8 0 0 0 294-443.4v-7.8a63.5 63.5 0 0 1 25.2-121.6h.5a63.5 63.5 0 0 1 25.6 121.6v7.8A70.7 70.7 0 0 0 319.6-580h-1.9z"/>
    <path fill="#fff" fill-opacity="1" fill-rule="evenodd" stroke="#000" stroke-linecap="butt" stroke-linejoin="miter" stroke-opacity="1" stroke-width="1.0634px" d="m710.6-118.7.2 13.3c-8.1 1.2-17.1 9.6-19.5 11.2-2.4 1.6-6.4 4.7-8.5 4.5-3.6-.5-1-3.4-1-3.4s-2.4 3-4.3 1.6c-1.7-1.1 1-3.4 1-3.4s-.9 1.2-2.8.7c-1.7-.5-.5-2.6-.5-2.6s-4.8 2.5-5.6 1.7c-1.4-1.7.4-3.2.4-3.2l11.3-9.5s-7.3 2.7 0 0c6.2-2.4 7.9 1 10.8.8 3-.2 10.7-4.4 12.8-6.5 2.2-2.1 1.6-4.4 3.2-4.9s2.4-.4 2.5-.3z" transform="translate(-223.5 -364.3) scale(.79157)"/>
    <path fill="#fff" fill-opacity="1" fill-rule="evenodd" stroke="#000" stroke-linecap="butt" stroke-linejoin="miter" stroke-opacity="1" stroke-width="1px" d="m661.3-117.8-.1 12.4c7.6 1.1 16 9.1 18.3 10.6 2.2 1.5 6 3.8 8 3.6 3.3-.4 2.6-1.6 2.6-1.6s1.5.7 3.5 0c2-.8 1-2.2 1-2.2s3 .9 4.3-.7c1.3-1.5-1.2-3-1.2-3s1.1-.9-.9.3c-2 1-6-3.6-10.1-3.7-4.1-.2-4.5 4-7.1 2-2.6-2 2.1-5.3 3.7-5.8 6.5-2.1 12.5.5 4.7-2.4-4-1.6-7.2 1.3-9.9 1.2-2.7-.2-9.5-3.9-11.4-5.9-2-2-1.5-4-3-4.6-1.5-.5-2.3-.3-2.4-.2z" transform="translate(-223.5 -364.3) scale(.79157)"/>
    <path fill="none" stroke="#000" stroke-linecap="butt" stroke-linejoin="miter" stroke-opacity="1" stroke-width="1px" d="m694.7-95-5.4-2.3M690.7-92.6l-6.4-3.9" transform="translate(-223.5 -364.3) scale(.79157)"/>
    <g id="eac-e" stroke="#000" stroke-dasharray="none" stroke-miterlimit="4" stroke-opacity="1" stroke-width=".517473">
      <path fill="#008300" fill-opacity="1" fill-rule="evenodd" stroke="#000" stroke-dasharray="none" stroke-linecap="butt" stroke-linejoin="miter" stroke-miterlimit="4" stroke-opacity="1" stroke-width=".517473" d="M441.7-108.7c-16.2 7.9-17-12.7-24.4-12.5 13.8-9.1 11.6 7.9 24.4 12.5zM435.3-131.3c-8.2 14.8 10.8 16.8 10.2 23.9 9.3-12.5-6.6-11.5-10.2-23.9z" transform="matrix(.76484 0 0 .76484 -46 -379.5)"/>
      <path fill="#008300" fill-opacity="1" fill-rule="evenodd" stroke="#000" stroke-dasharray="none" stroke-linecap="butt" stroke-linejoin="miter" stroke-miterlimit="4" stroke-opacity="1" stroke-width=".517473" d="M427.5-125.7c-19.9 3.5-14.5-13.8-22.8-15.3 17.6-5.1 10 8.2 22.8 15.3z" transform="matrix(.76484 0 0 .76484 -46 -379.5)"/>
      <path fill="#008300" fill-opacity="1" fill-rule="evenodd" stroke="#000" stroke-dasharray="none" stroke-linecap="butt" stroke-linejoin="miter" stroke-miterlimit="4" stroke-opacity="1" stroke-width=".517473" d="M425.4-146.1c-10.9 13 4.9 13.6 3 20.4 11.4-10.5-.3-10-3-20.4zM414-143.7c-19.9-2.9-7.4-23.1-13.4-27.5 16.4 1.2 5.8 19 13.3 27.5z" transform="matrix(.76484 0 0 .76484 -46 -379.5)"/>
      <path fill="#008300" fill-opacity="1" fill-rule="evenodd" stroke="#000" stroke-dasharray="none" stroke-linecap="butt" stroke-linejoin="miter" stroke-miterlimit="4" stroke-opacity="1" stroke-width=".517473" d="M421.5-169.2c-18.3 8.7.2 18-7 26.1 18-1 2-12.8 7-26zM411.3-168.6c-21.3-9.8 1-28-2.8-34.7 14.5 14.7-7.6 20.3 2.8 34.7z" transform="matrix(.76484 0 0 .76484 -46 -379.5)"/>
      <path fill="#008300" fill-opacity="1" fill-rule="evenodd" stroke="#000" stroke-dasharray="none" stroke-linecap="butt" stroke-linejoin="miter" stroke-miterlimit="4" stroke-opacity="1" stroke-width=".517473" d="M425-193.2c-18.3 2.3-9.2 19.2-13 25.2 14.3-3.3 2.8-11.9 13-25.2zM416.1-198.3c-10.4-15.7 6.8-19.3 8-27.3 5 20.7-6.7 14-8 27.3z" transform="matrix(.76484 0 0 .76484 -46 -379.5)"/>
      <path fill="#008300" fill-opacity="1" fill-rule="evenodd" stroke="#000" stroke-dasharray="none" stroke-linecap="butt" stroke-linejoin="miter" stroke-miterlimit="4" stroke-opacity="1" stroke-width=".517473" d="M436.8-211.4c-17-4.8-14 12.3-19.8 16.3 14.4 2.4 11.5-11.4 19.8-16.3zM428.9-218.8c-3.4-13.6 3.4-11.3 11.1-17.3 4.2 11-6.2 9.7-11.1 17.3zM450.6-220.8c-13.2-9.7-14.6 3.4-21.4 5.1 12.6 7.5 13.1-3.5 21.4-5zM442.7-227.4c.4-5.8 8.2-13.6 16.4-10.9-.5 9.7-9.9 12.3-16.4 11z" transform="matrix(.76484 0 0 .76484 -46 -379.5)"/>
    </g>
    <use xlink:href="#eac-e" width="600" height="330" transform="matrix(-1 0 0 1 639.1 0)"/>
    <path fill="none" stroke="none" d="M186.4-229s9-2.3 18.1-2.2c9 0 18 2.5 18 2.5" transform="matrix(.8133 0 0 .8133 153 -370.8)"/>
    <path fill="#000" fill-opacity="1" stroke="none" d="m188.2-240.9.8 4.7 2.5-.5c.7 0 1.1-.3 1.3-.5.3-.3.4-.8.3-1.5h.3l.7 4h-.3l-.4-1-.6-.4h-1.1l-2.6.5.6 3.9.3 1 .3.1h.6l2-.3 1.4-.4.8-.7c.3-.4.6-1 .8-1.8h.4l-.5 3-9 1.6-.1-.3h.4l.7-.4c.2-.2.3-.3.3-.5v-1.2l-1.4-7.6c0-.7-.2-1.2-.4-1.3-.3-.2-.6-.3-1.1-.2h-.4v-.2l9-1.6.5 2.6h-.3a4 4 0 0 0-.6-1.2l-.8-.4a4 4 0 0 0-1.2 0l-3.2.6m17.2 5.7h-4.6l-.8 1.9a3 3 0 0 0-.3 1c0 .2.1.4.3.5.2.2.5.2 1.1.3v.3h-3.7v-.3c.5 0 .8-.2 1-.3l1-1.8 4-9.8h.4l4.2 9.9c.3.8.6 1.3.9 1.5.3.3.6.4 1.1.4v.4h-4.7v-.3c.5 0 .8-.1 1-.3.2-.1.2-.3.2-.5s0-.6-.3-1.2l-.8-1.7m-.2-.7-2-4.8-2.1 4.9h4.1m17.8-5.5-.4 4h-.3a5.1 5.1 0 0 0-1-2.8c-.6-.7-1.4-1-2.3-1.2a4 4 0 0 0-2.2.2 4 4 0 0 0-1.9 1.6c-.5.8-.8 1.9-1 3.2a7 7 0 0 0 0 2.8c.2.9.6 1.6 1.2 2 .6.6 1.4 1 2.3 1.1.7.1 1.4.1 2-.1.7-.2 1.4-.8 2.3-1.6l.3.2c-.8 1-1.6 1.6-2.5 2-.9.3-1.8.4-3 .2-1.9-.4-3.3-1.3-4-3a6.3 6.3 0 0 1-.6-4c.2-1.1.6-2.2 1.3-3 .7-1 1.6-1.6 2.6-2a5.6 5.6 0 0 1 5.6.8l.4.3.5-.1.4-.6h.3" font-family="Times New Roman" font-size="18px" font-stretch="normal" font-style="normal" font-variant="normal" font-weight="400" style="line-height:125%;text-align:start" text-anchor="start" transform="translate(167 -386.8) scale(.74556)" writing-mode="lr-tb"/>
    <path fill="red" fill-opacity="1" fill-rule="nonzero" stroke="none" stroke-width=".791572" d="M317.2-550.3c-1 0-2 .2-2.9.4a13 13 0 0 1-7 5.8l-.6.2a13.4 13.4 0 0 1-9.7.3 41.5 41.5 0 0 0-7.6 6.5 13.1 13.1 0 0 1-2 9.5 13.4 13.4 0 0 1-7.2 6.4c-1 3.2-1.6 6.6-1.7 10 2 1.5 3.7 4.4 4.4 7.9l.2.7c.7 3.8 0 7.4-1.4 9.5 1.3 3.1 3 6 5 8.7 2.4-.2 5.6 1 8.4 3.1l.5.5c3 2.5 4.8 5.6 5 8.2 3.1 1.6 6.3 2.8 9.7 3.5 1.8-1.7 5-3 8.6-3h.7c3.9 0 7.3 1.2 9.2 3 3.4-.7 6.6-2 9.6-3.5a13.2 13.2 0 0 1 5-8.3 13.6 13.6 0 0 1 9-3.5c2-2.6 3.7-5.5 5-8.5-1.4-2-2-5.3-1.5-8.9v-.6c.8-3.9 2.6-7 4.7-8.6a41 41 0 0 0-1.7-10c-2.3-.7-5-2.8-6.8-5.9l-.4-.6c-2-3.4-2.6-7-2-9.5-2.3-2.6-5-4.8-7.9-6.7a13 13 0 0 1-9 0l-.7-.3a13.5 13.5 0 0 1-7.6-6c-1.6-.2-3.3-.3-5-.3H317.7a1 1 0 0 0-.1 0H317.1zm-3 .4zm11 81.5z"/>
    <path fill="#fbf014" fill-opacity="1" fill-rule="nonzero" stroke="#000" stroke-dasharray="none" stroke-miterlimit="4" stroke-opacity="1" stroke-width=".369764" d="M354.7-509.4a35.1 35.1 0 1 1-70.3 0 35.1 35.1 0 0 1 70.3 0z"/>
    <path fill="#fbf014" fill-opacity="1" fill-rule="nonzero" stroke="#000" stroke-dasharray="none" stroke-miterlimit="4" stroke-opacity="1" stroke-width=".369764" d="M351.7-509.4a32.2 32.2 0 1 1-64.4 0 32.2 32.2 0 0 1 64.4 0z"/>
    <g stroke="#000" stroke-dasharray="none" stroke-miterlimit="4" stroke-opacity="1" stroke-width="3.03275">
      <path fill="#0087ff" fill-opacity="1" fill-rule="evenodd" stroke="#000" stroke-dasharray="none" stroke-linecap="butt" stroke-linejoin="miter" stroke-miterlimit="4" stroke-opacity="1" stroke-width="3.03275" d="m-338.2-217.2 89.5 16-12 89.5-75.6 51.7-41.7-45.7 2-73.7z" transform="matrix(.11892 0 0 .11892 350.2 -499.4)"/>
      <path fill="#fff" fill-opacity="1" fill-rule="evenodd" stroke="#000" stroke-dasharray="none" stroke-linecap="butt" stroke-linejoin="miter" stroke-miterlimit="4" stroke-opacity="1" stroke-width="3.03275" d="m-363.2-151.1-35 1.2s-1.7-.4-2.4-.4l-1.2.2-.5 1.9-.8.5-.7 2.4-2.8 1.4-.1 1.5-2.6 1.7-3.2 2-1.6-.4-.7-3.3-1-.2-3.6.7-2.6.7-.1-4.3-1-1.2v-7.8h1.7l.5-7.8.8-1.8-.3-1.6 2.7-2.4 1.9-1.3 1-2.1.2-2.6 1-1-1.3-1.2-2 1-2.3-1.5-.2-3.3.5-1.7 1.9-1.2.9.5 1.2-7 2.9-1.9-1.4-4.2 1-2.6-.5-3.3 7.4-2.7.7-2.9.6-3.3 3.1-.8 2.4-1.4 1.6 4.3.1 2.2 2-.3 1.3-3 1.9-.8.7-2.6 4.7-5.8.9-1.7 4-1.7 2.7-.5 2.5-2.8 1.2-1.7-.1-2 1.2.5 1.9-2.2-1.4-2 .8-1.6-1-4.1-1.2-1.2.4-1.2-2 2.7-2-.8-.3-2.6-2.2.5-2.1-.3-2.4-3.3-1.4.7v2.2l-1.3-.8-1-2.8-2.5.2 1-3.6 3.1-6.3.6-3.1-3.6-3.1 2.2-7 3.4-3.8-.2-3.4-2.2.7 2.8-4.3 6.1-3 3.3.3 5.5 3.4 1.8-1.2 2.4-.4 3.5-2.5 4.6 3.6-.2 2 3.3.2 1.3 2h2v-2.9l6-2.9 9.2-.8 7-3.5 4 2.8 9.8.5 13.6-12.7 44.3 9.5-2.5 76.2-45.3 25-2.5-1.6-1.4 1-.7-.7.5-3.4-2.9.5-.8 4h-2.6l-3-1.6.3-1.4 2.5.4-.1-1.4-2-1-2.7.5.2-1.7 2-2.2-.5-.9-1.7 1.9-2-.9-1.7 1.2 1.7 2.4-2.4 1.4-.2 1.5-3.4-.5v1.4h2.2l-5.3 4-1.4-1.6.5-1.4h-1.2l-1.8 1.7-3.3.2.5-1 2.4-.7-.7-.9-2.2.2v-2.9l-.8.5-.4 2.6-1.2-.5.2 1.5-.2 1.5.2 1.2-1.2.4-.4-.9-1.7.7-1-1.5s-1.9.3-1.5 1.2l.6 2.4-3.2-1-1.4-1v3.3l-2 .6-2.8-2.6 1.2 2.7-3-.1-2 1.2 1.6 1.7 1.2 1.3 1.4 1.6-.7 1.3-1.2-.6-2 3h-1.6l-1.2 2.6-1.2.9.5 1.3 1 .4-.1 1.5-1.2-.3-2.8 3.4.5 1.2 1.6-.2z" transform="matrix(.11892 0 0 .11892 350.2 -499.4)"/>
      <path fill="#fff" fill-opacity="1" fill-rule="evenodd" stroke="#000" stroke-dasharray="none" stroke-linecap="butt" stroke-linejoin="miter" stroke-miterlimit="4" stroke-opacity="1" stroke-width="3.03275" d="m-302.8-150.5 96.4 52.9 1.4 7.3-3.5 2.2 1 3.5 3.3.5 1 3.5 37.5 26.9 2.7-1.7 3.2 1.4.9-3.5 2.1-2.2 4.4-9.5-2.5-.8 1.6-3.5 2.2.5 3.3-4.3.5-3.8-2.7-1.9 3.2 1 2.8-8 3.8-1.1.8-5.7 1.9-2s-2.5-6.7-.3-9.1c2.2-2.5 10.8-2.2 10.8-2.2l5.4-5.7v-2.2l3.3-2.4-3.3-5.7 6.3 2 5.1-2 3 .3 5.2-7.3v-2.7l-15.5-19.8v-98l9.2-9 15.2-20.9-4.3-1.9-15.5 2.2-3.8-5.4h-1.9l-1-3-2.8-1.7-25.4 11.2-1.1 4.3-6 5.7-.5 2.7-1.4.3-1.3-.8-26.3-6.3-1.1 2.2-9-.3-30.6-22.2h-23l-4.6-1.9-.3-3h-41.4l-9.5 9.5 2.4 10 3.6.6 1.9 4.8h4l-.8 4.7-.8.8-.3 5.1 1.7 3 2.7 1.6.2 4.4 5.2 2.1.8 5.7 3 2.2.8 2.4-2.2 3 3.5 5.1-1 3.6 1.6 4v1.7l-.8 5.1-2.2 1.6-1.4 3.3-1.6.5.8 6-4.6.5-2.1 2.7-2.2-1.3-.3 5.7-2.4 4h-2.7v2.5l-3.3 1-1 4.7v3.8l-3.6 2.4-.8 4.3 1 3 2 1.1 1.6-1-.8 2.9 3 1.3 1.3 3.6 3.3-2-.6-2.4h4.6l5.2-2.4 1.4 3 2.4 2.1-.8.9-2.7-.6-1.4 2-1.9-.9-4.6-.3-.5 2 2.4 1.6-2.2 1.6-1.6-1.6-2.2 1-1.6-1-2.7-.9.6 3.3h-2.5l-1.3 4.6 2.4 2.4 2.4 1.4-1.9 3.8zM-154.4 33l3-3v-1.8l3-.4 1.7-3.3.3 4.4-1.6 1.2.3 2.6-2.1-.2.6 2.5h-1.1l-.2-1.7zM-164.9-14.5l.1-5.6-1-1 3.6-2.8.7-3.4 3.8-1.5-1.1 3.8-1.5.3-.5 4.5 2.1 2.8v2.4l1.9 1.2 2.5 3.3v2.6l-1.8 1.4-3.4-4.2-3.3 1zM-152.5-36.1l.8-3.4 1.5-3.8-2.6-6.5 3 .4 1 2.9 2 .7.3-3s1.4-1 .9.5c-.5 1.5-1.1 6.9-1.1 6.9l1.5 3.2-2.3 3-2.5 2.5z" transform="matrix(.11892 0 0 .11892 350.2 -499.4)"/>
      <path fill="#fff" fill-opacity="1" fill-rule="evenodd" stroke="#000" stroke-dasharray="none" stroke-linecap="butt" stroke-linejoin="miter" stroke-miterlimit="4" stroke-opacity="1" stroke-width="3.03275" d="m-132.7 99.8-11.4 9-15.2 6-3.7 2.7-7.7.2-5.5 2-3.7 1.3-4.3 4.4-6.7-4.7h-8l-2.7 3-.5 4.5-5.2 2.5-3.2-.8-2 2.5-9-1.2-2.7-3-4.7.7-6.5 4.7-3-1-.7-1.7-2.3.5-2 1.3-3.7-.8.3-3-3-1-3.3-4.5-4.2.5-1.2 2.3-3 2.7-3.5-1.2-12.7.2-3.2-6h-3l-4-7.7.3-5 1.5-1.2.5-5.2-3.3-2.5.8-8-1.5-2.2-.5-3.5-5.7-5.7.5-2.5-7.8-5.4h-2l-.4 5-2.8-.6-2-2.2-8.4 1.7-3.5-4.2-3.7.5-3.5-2.7-4.5.2-3.5-3.5-7.2.3-1.7-5-4.8.5-2.2-2-5.5.5-.5-3-6.4-.5-3.3-2.4-.2-4.5-5-2.3-4.5 1-1.7-5.4-3.7-3.5-1-4.7-5.7-8.5v-3l-3.3-3.5V14l-3-3 .3-3.2 1.5-.2-.3-2.8-4.2-3-1.7-3.2-6-5.7-2.7 1h-2.8l-5.7-7-.2-3.5 2.4-3.2h3.3l1.2-2.5-.7-3-5-8.4.5-4.3 2-1.5-1.3-5-5.2-4.7v-5.7l1.3-3.7v-1.7l4.7-2.3 2.7-1.5 2.8-2 .5-2.5 4.4-2.4-.2-2.5 4.7-4.3.3-3.2 1.7-4.2 5.7-2.5-.2-1.5 4.7-2.5-.5-6.2 1-2-2.2-1.2-2 .5-3.3-1.5-3.5 1-1-3 3.3-3.7-1.8-1.5 2.3-4.8 8.4-1.2-.2-6.2 1.5-2-3.2-4.7.4-7.8-2.2-2.7.5-2.2-4.7-3-3.3-5.7 5-.8 2.3-1.7h29l1.3 2.2.3 2.8-1 1-1 3.7-1.3 3-.2 1.5-.3 3.2-.7 3.7-1.3 1.3v3l-1.2 1.2 2.5.5-.8 3.5-1 3.7 2.3.7 4.2-.4-2.5 4.7-1 3.7 1.3 4.7 3.4-3 2.8 2-.8-4.2 1.3-3.5 3.2 1.8 1.3-1.5-2-3 3.7-3.2 3 4.2 2.7.5 1.8 4 2.4-5.3 1 3.8 3.3-.8.2 4 2.3 3.2-4 2 .2 4.3 2.5-.8.3-3.2 3.2-1-1.5-3.3-1-3.4 3.7-5.3 2.8.5 2.2 3.5 5.5-.2 5.2-5 6.5-2-1.3-4.5h-1.7l-2.5 3-7.5-1.2-2.7-1.5-2 1.2-2.2.8-6.5-3v-2.5l-1.7-1.2 2.7-1 2 2.4 2-.2 2.5-1.2 3.2 3 5-1v-2.5l-3.3-1 .5-2 5-.3 1.3-1.7 4.2-1.3-2.5-3.4.3-2 7.2 2-3.3-3.5.8-3.3 4.7 2.8.3-1.3-3.8-2.7 5.2-5.2 97.8 53.2 1 7.5-3.5 2.2v4l4.2-.5.3 4 37.3 25 2.5 4.3-2 2.2-1.8 3.8-1 5.7-1.7 3v5l-3.2 3.2-2.5 6.2v4.7l2 3.3-1.3 5 3.8 3.2h3l7.2 8.4 3.7 3.5 1.7 3.7-2 4.8-2.4.7-2.3 7.7.3 5.7 2.7 2.8-.7 3.7-2 5-1.5 5 1.5 5.4 2 4.3 1.7 1.2v3.5l-1.5-.3 2 4.8 3.5 1.2.5 7-1.5-.3.2 2 3.5 2.7 1.5 7.8-1.7 2.7 1 1.5 4.4 1 1.8 4 3.5-1.3 5.4 3 2.3 3.5z" transform="matrix(.11892 0 0 .11892 350.2 -499.4)"/>
    </g>
    <path fill="#fff" fill-rule="evenodd" stroke="#000" stroke-dasharray="none" stroke-miterlimit="4" stroke-width=".286271" d="M286.2 151.1c-.2-.2.6-.6.5-1 0-.6.3-.8 1-1.1l.4-.2c.2.1.2.4.4.2.2-.1.7-.8 1-.7-.2.3.2.8.4 1l.4 1.2c-.1.5-.4.5-.9.4-.5-.2-.6.2-1-.1-.1.4 0 .8-.6 1-.3 0-.6 0-.7-.2-.2-.3-.6-.3-.7 0-.1-.1-.2-.2-.2-.5" class="eac-landxx eac-rw" transform="matrix(1.54867 0 0 1.54867 -145.1 -746.9)"/>
    <path fill="#fff" fill-rule="evenodd" stroke="#000" stroke-dasharray="none" stroke-miterlimit="4" stroke-width=".286271" d="M286.4 151.6c.3-.7.7.1.8.1 1 .1 1-.1 1.2-1 .5.4.3 0 1.4.3-.2 0-.6.5-.3.5-.3.7.3.7.7.6-.2.3.3.4-.2.7-.3.2-.3 0-.3.4l-.4.1c-.1.1.2.4.1.4 0 0-.1.3-.4.5-.3.2-.4.5-.8.7l-.5.1-.6-1.2c-.1-.3 0-.7-.2-1v-.6c-.2-.2-.4-.3-.5-.6" class="eac-landxx eac-bi" transform="matrix(1.54867 0 0 1.54867 -145.1 -746.9)"/>
  </g>
</svg>
