<svg viewBox="0 0 640 480" xmlns="http://www.w3.org/2000/svg" xmlns:xlink="http://www.w3.org/1999/xlink"><clipPath id="a"><path d="m-158.7 0h682.7v512h-682.7z"/></clipPath><g clip-path="url(#a)" fill-rule="evenodd" transform="matrix(.94 0 0 .94 148.8 0)"><path d="m-180 0h1024v256h-1024z"/><path d="m-180 256h1024v256h-1024z" fill="#107b00"/><path d="m-180 169.3h1024v176.1h-1024z" fill="#fff"/><path d="m310 195.6c-45.2-19.5-84.1 20.6-84 58 0 39.2 38 81 86 62.5-34-10-48-35.3-48-60.7-.3-25.2 15.8-54.6 46-59.9z" fill="#f0f"/><path d="m363.1 294.2-25.8-18.9-26 19 10-30.5-26-18.8h32l9.9-30.5 9.8 30.4h32.1l-25.9 18.8" fill="#ff1800"/><path d="m314.3 315.6a65.2 65.2 0 0 1 -89.2-59.4 65 65 0 0 1 89.5-60.9 60.6 60.6 0 0 0 -51.2 59.2 61.3 61.3 0 0 0 51 61.1zm-494.3-315.6 348.6 256.6-348.6 255.4z" fill="#f00"/></g></svg>