<svg viewBox="0 0 640 480" xmlns="http://www.w3.org/2000/svg" xmlns:xlink="http://www.w3.org/1999/xlink"><clipPath id="a"><path d="m-158.7 0h682.7v512h-682.7z"/></clipPath><g clip-path="url(#a)" fill-rule="evenodd" transform="matrix(.94 0 0 .94 148.8 0)"><path d="m-158.3 0h680.9v255.3h-680.9z" stroke-width="1.38978"/><path d="m-158.3 255.3h680.9v255.3h-680.9z" fill="#007a3d" stroke-width="1.38978"/><path d="m-158.3 148.9h680.9v212.8h-680.9z" fill="#fff" stroke-width="1.55382"/><g stroke-width="1.70213"><path d="m-158.3 0 340.4 255.3-340.4 255.3z" fill="#c4111b"/><circle cx="352.3" cy="255.3" fill="#c4111b" r="68.1"/><circle cx="377.9" cy="255.3" fill="#fff" r="68.1"/><path d="m334 296.5 29.1-20.7 28.8 21-10.8-34 29-20.9-35.7-.2-11-34-11.2 33.9-35.7-.2 28.7 21.2-11.1 34z" fill="#c4111b"/></g></g></svg>