<svg viewBox="0 0 640 480" xmlns="http://www.w3.org/2000/svg" xmlns:xlink="http://www.w3.org/1999/xlink"><clipPath id="a"><path d="m-61.3 0h682.7v512h-682.7z"/></clipPath><g clip-path="url(#a)" fill-rule="evenodd" stroke-width="1pt" transform="matrix(.94 0 0 .94 57.5 0)"><path d="m-238 3.5h1038v498h-1038z" fill="#ffc621"/><path d="m-240 342.5h1039.3v169.5h-1039.3z" fill="#ef2118"/><path d="m-238 0h1038v180h-1038z" fill="#298c08"/><circle cx="534.2" cy="353" fill="#006bc6" r="199.7" transform="matrix(.54 0 0 .54 -25.8 74)"/><path d="m214.3 188.2-6.5 4.5 23.5 33 6.3-4-23.4-33.5zm29.4 78-9.7-6.8 4-12.7-48.1.7-14-10.7 65.7-.7 12.2-36.9 6.6 15-16.7 52zm76.5-70.7-6.3-4.8-24.3 32.4 5.6 4.7zm-65.4 51.5 3.5-11.2h13.3l-15.2-45.8 6-16.5 20.5 62.4 38.8.5-12.2 10.7-54.7-.2zm90.6 51.2 2.7-7.4-38.3-13.3-2.8 7zm-69.1-46.4 11.7-.1 4.1 12.6 38.8-28.5 17.6.6-53.1 38.7 11.5 37.2-14-8.4zm-19.8 102 7.9.2.3-40.5-7.4-.5-.8 40.9zm22-80.3 3.8 11.1-10.7 8 39.4 27.7 5 16.8-53.6-38-31.5 22.7 3.5-16 44-32.3zm-103.3 13 2.3 7.5 38.7-12.2-2-7.2zm83.2-4-9.4 7.1-10.8-7.7-14.2 46-14.4 10 19.5-62.7-31.4-23 16.3-1.6z" fill="#ffc621"/></g></svg>