<svg viewBox="0 0 640 480" xmlns="http://www.w3.org/2000/svg" xmlns:xlink="http://www.w3.org/1999/xlink"><defs><g id="a"><g id="b"><path id="c" d="m0-1-.3 1 .5.1z"/><use transform="scale(-1 1)" xlink:href="#c"/></g><g id="d"><use transform="matrix(.30901699 .95105652 -.95105652 .30901699 0 0)" xlink:href="#b"/><use transform="matrix(-.80901699 .58778525 -.58778525 -.80901699 0 0)" xlink:href="#b"/></g><use transform="scale(-1 1)" xlink:href="#d"/></g></defs><path d="m0 0h640v480h-640z" fill="#039"/><g fill="#fc0" transform="matrix(23.7037 0 0 23.7037 320 242.3)"><use height="100%" width="100%" xlink:href="#a" y="-6"/><use height="100%" width="100%" xlink:href="#a" y="6"/><g id="e"><use height="100%" width="100%" x="-6" xlink:href="#a"/><use height="100%" transform="matrix(-.80901699 -.58778525 .58778525 -.80901699 -2.92639 -5.150842)" width="100%" xlink:href="#a"/><use height="100%" transform="matrix(-.80901699 .58778525 -.58778525 -.80901699 -5.150842 -2.92639)" width="100%" xlink:href="#a"/><use height="100%" transform="matrix(.30901699 .95105652 -.95105652 .30901699 -5.149733 3.088)" width="100%" xlink:href="#a"/><use height="100%" transform="matrix(.30901699 .95105652 -.95105652 .30901699 -2.979387 5.100774)" width="100%" xlink:href="#a"/></g><use height="100%" transform="scale(-1 1)" width="100%" xlink:href="#e"/></g></svg>