<svg viewBox="0 0 640 480" xmlns="http://www.w3.org/2000/svg" xmlns:xlink="http://www.w3.org/1999/xlink"><clipPath id="a"><path d="m-81.3 0h682.6v512h-682.6z"/></clipPath><g clip-path="url(#a)" fill-rule="evenodd" stroke-width="1pt" transform="matrix(.94 0 0 .94 76.3 0)"><path d="m-252 0h1024v512h-1024z" fill="#6797d6"/><path d="m259.8 123-32.4 22.2 12.4-35.9-32.5-22.2h40.1l12.4-35.9 12.4 36h40l-32.4 22.1 12.4 35.9m-32.4 244.8-32.4-22.2 12.4 36-32.5 22.1h40.1l12.4 35.9 12.4-36 40 .1-32.4-22.2 12.4-35.9m-188.4-92.4-24.5 30.6 1.4-38-37.5-11.7 38.4-11.7 1.3-38 22.3 30.8 38.4-11.8-24.6 30.7 22.4 30.7m274.2-11.7 24.6 30.7-1.4-38 37.5-11.7-38.4-11.7-1.3-38-22.3 30.8-38.4-11.8 24.6 30.7-22.4 30.7" fill="#fff"/></g></svg>