<svg height="480" viewBox="0 0 640 480" width="640" xmlns="http://www.w3.org/2000/svg" xmlns:xlink="http://www.w3.org/1999/xlink"><clipPath id="a"><path d="m-81.333 0h682.67v512h-682.67z"/></clipPath><g clip-path="url(#a)" fill-rule="evenodd" stroke-width="1pt" transform="matrix(.94 0 0 .94 76.25 0)"><path d="m-252 0h1024v512h-1024z" fill="#6797d6"/><path d="m259.787 122.985-32.44 22.214 12.433-35.9-32.475-22.177 40.122.038 12.366-35.92 12.366 35.92 40.12-.026-32.479 22.166 12.43 35.905m-32.443 244.847-32.44-22.214 12.433 35.9-32.475 22.176 40.122-.038 12.366 35.92 12.366-35.92 40.12.027-32.48-22.166 12.43-35.905m-188.384-92.465-24.53 30.73 1.395-37.967-37.54-11.713 38.38-11.695 1.324-37.966 22.328 30.735 38.36-11.755-24.58 30.694 22.383 30.7m274.28-11.763 24.53 30.73-1.395-37.967 37.54-11.713-38.38-11.695-1.324-37.966-22.328 30.735-38.36-11.755 24.58 30.694-22.383 30.7" fill="#fff"/></g></svg>