<svg height="480" viewBox="0 0 640 480" width="640" xmlns="http://www.w3.org/2000/svg" xmlns:xlink="http://www.w3.org/1999/xlink"><clipPath id="a"><path d="m-85.333 0h682.67v512h-682.67z"/></clipPath><g clip-path="url(#a)" transform="matrix(.94 0 0 .94 80 0)"><g stroke-width="1pt"><path d="m-256 0h1024.02v512.01h-1024.02z" fill="#006"/><path d="m-256 0v57.244l909.535 454.768h114.485v-57.242l-909.535-454.77zm1024.02 0v57.243l-909.535 454.767h-114.485v-57.243l909.535-454.767z" fill="#fff"/><path d="m170.675 0v512.01h170.67v-512.01zm-426.675 170.67v170.67h1024.02v-170.67z" fill="#fff"/><path d="m-256 204.804v102.402h1024.02v-102.402zm460.81-204.804v512.01h102.4v-512.01zm-460.81 512.01 341.34-170.67h76.324l-341.34 170.67zm0-512.01 341.34 170.67h-76.324l-265.016-132.506zm606.356 170.67 341.34-170.67h76.324l-341.34 170.67zm417.664 341.34-341.34-170.67h76.324l265.016 132.508z" fill="#c00"/></g></g></svg>