<svg viewBox="0 0 640 480" xmlns="http://www.w3.org/2000/svg" xmlns:xlink="http://www.w3.org/1999/xlink"><defs><g id="a"><g id="b"><path id="c" d="m0-1v1h.5" fill="#fcd116" transform="matrix(.95105652 .30901699 -.30901699 .95105652 -.309017 -.048943)"/><use transform="scale(-1 1)" xlink:href="#c"/></g><use transform="matrix(.30901699 .95105652 -.95105652 .30901699 0 0)" xlink:href="#b"/><use transform="matrix(-.80901699 .58778525 -.58778525 -.80901699 0 0)" xlink:href="#b"/><use transform="matrix(-.80901699 -.58778525 .58778525 -.80901699 0 0)" xlink:href="#b"/><use transform="matrix(.30901699 -.95105652 .95105652 .30901699 0 0)" xlink:href="#b"/></g></defs><path d="m0 0h640v480h-640z" fill="#ce1126"/><path d="m67.2 67.2h505.6v345.6h-505.6z" fill="#007a5e"/><path d="m67.2 67.3h505.6l-505.6 345.6h505.6z" fill="#fcd116"/><circle cx="319.9" cy="240.1" fill="#ce1126" r="57.6"/><use height="100%" transform="matrix(52.8 0 0 52.8 320 240)" width="100%" xlink:href="#a"/><use height="100%" transform="translate(-30.3)" width="100%" x="-100" xlink:href="#d"/><use id="d" height="100%" transform="matrix(31.2 0 0 31.2 320 33.6)" width="100%" xlink:href="#a"/><use height="100%" transform="translate(30.3)" width="100%" x="100" xlink:href="#d"/><path d="m102.3 240.7a80.4 80.4 0 0 0 33.5 33.2 111 111 0 0 0 -11.3-45z" fill="#ce1126"/><path d="m90.1 194.7c10.4 21.7-27.1 73.7 35.5 85.9a63.2 63.2 0 0 1 -10.9-41.9 70 70 0 0 1 32.5 30.8c16.4-59.5-42-55.8-57.1-74.8z" fill="#fcd116"/><use height="100%" transform="translate(-30.3 414.6)" width="100%" x="-100" xlink:href="#d"/><use height="100%" transform="matrix(31.2 0 0 31.2 320 448.2)" width="100%" xlink:href="#a"/><use height="100%" transform="translate(30.3 414.6)" width="100%" x="100" xlink:href="#d"/></svg>