<svg height="480" viewBox="0 0 640 480" width="640" xmlns="http://www.w3.org/2000/svg"><path d="m0 0h640v480h-640z" fill="#fff"/><g fill="#f00"><path d="m272.001 0h96v480h-96z"/><path d="m0 192h640v96h-640z"/><path d="m146.848 373.155c1.023-16.824 3.969-31.155 3.969-31.155s-9.84 1.008-14.817 1.008c-4.902 0-14.814-1.008-14.814-1.008s2.946 14.331 3.969 31.155c-16.825-1.026-31.155-3.969-31.155-3.969s1.008 7.407 1.008 14.814c0 7.41-1.008 14.814-1.008 14.814s14.331-2.943 31.155-3.969c-1.023 16.824-3.97 31.155-3.97 31.155s7.41-1.008 14.815-1.008c7.41 0 14.817 1.008 14.817 1.008s-2.946-14.331-3.97-31.155c16.822 1.026 31.153 3.969 31.153 3.969s-1.005-9.84-1.005-14.814c0-4.902 1.005-14.814 1.005-14.814s-14.331 2.943-31.152 3.969zm367.997-288c1.026-16.824 3.97-31.155 3.97-31.155s-9.84 1.008-14.815 1.008c-4.902 0-14.814-1.008-14.814-1.008s2.943 14.331 3.97 31.155c-16.826-1.026-31.156-3.969-31.156-3.969s1.008 7.407 1.008 14.814c0 7.41-1.008 14.814-1.008 14.814s14.331-2.943 31.155-3.969c-1.025 16.824-3.969 31.155-3.969 31.155s7.407-1.008 14.814-1.008c7.41 0 14.814 1.008 14.814 1.008s-2.943-14.331-3.969-31.155c16.824 1.026 31.155 3.969 31.155 3.969s-1.008-9.84-1.008-14.814c0-4.902 1.008-14.814 1.008-14.814s-14.331 2.943-31.155 3.969zm-367.997 0c1.022-16.824 3.969-31.155 3.969-31.155s-9.84 1.008-14.817 1.008c-4.902 0-14.814-1.008-14.814-1.008s2.946 14.331 3.969 31.155c-16.825-1.026-31.155-3.969-31.155-3.969s1.008 7.407 1.008 14.814c0 7.41-1.008 14.814-1.008 14.814s14.331-2.943 31.155-3.969c-1.023 16.824-3.97 31.155-3.97 31.155s7.41-1.008 14.815-1.008c7.41 0 14.817 1.008 14.817 1.008s-2.946-14.331-3.97-31.155c16.822 1.026 31.153 3.969 31.153 3.969s-1.005-9.84-1.005-14.814c0-4.902 1.005-14.814 1.005-14.814s-14.331 2.943-31.152 3.969zm367.997 288c1.026-16.824 3.97-31.155 3.97-31.155s-9.84 1.008-14.815 1.008c-4.902 0-14.814-1.008-14.814-1.008s2.943 14.331 3.97 31.155c-16.826-1.026-31.156-3.969-31.156-3.969s1.008 7.407 1.008 14.814c0 7.41-1.008 14.814-1.008 14.814s14.331-2.943 31.155-3.969c-1.025 16.824-3.969 31.155-3.969 31.155s7.407-1.008 14.814-1.008c7.41 0 14.814 1.008 14.814 1.008s-2.943-14.331-3.969-31.155c16.824 1.026 31.155 3.969 31.155 3.969s-1.008-9.84-1.008-14.814c0-4.902 1.008-14.814 1.008-14.814s-14.331 2.943-31.155 3.969z" fill-rule="evenodd"/></g></svg>