<svg viewBox="0 0 640 480" xmlns="http://www.w3.org/2000/svg"><path d="m0 0h640v480h-640z" fill="#e32118"/><path d="m0 0h640v320h-640z" fill="#fff"/><path d="m0 0h640v160h-640z" fill="#3e9a00"/><path d="m0 0v480l180-240z" fill="#0073ce"/><g stroke="#000"><path d="m281.6 191.8h76.6v80.2c0 27-35.2 6.2-38.2 20.6-5.2-14.8-38.2 6.6-38.2-22.2z" fill="#fff"/><g stroke-width=".2"><path d="m325.4 279.8s-1 1-2.8.2-2-51.4-2-51.4c4-4.4 7.2-5.8 7.2-5.8l2.4 2c-9 4.6-8.2 11.2-7.4 22.6.2 4.2.2 9.6 1.2 14.8 1.4 6.6 4.2 12.2 4.4 16.4.2 2.6-3 1.2-3 1.2z" fill="#73452b"/><path d="m319.2 221.6h3.6c-3 29-.4 46.2-.4 54.6 0 2.8 1.6 3.8 1.4 3.8-3.6 4-5.4-.2-5.4-.2z" fill="#73452b"/><path d="m313.6 279.8c-3.4 1.6-3.8-1.6-3.6-2 7.4-15 10.6-48 3.8-51.6l.4-3.2c2.6.8 5 4.2 5 4.2 1 37 0 52.2-.6 52.8-3.6 3.8-5-.6-5.2-1" fill="#a36629"/><path d="m313.4 279.2c-.6-3.2 5.2-11.4 4.8-20m5 7c1.8 5 2.6 9.4 2.2 13.6" fill="none"/><path d="m331 208c1.2-1.4 1.2-1.4 3.4-1.4.4-3 5.4-3 5.8.8 4-.8 4.8 1.6 3.2 4 3.8-1 7.2 0 6.2 4.4 6.8 1.8 4.2 6.6 1.2 7.6-.4 3-3.2 4-7 2.8-4.8 3.4-7.6 2.2-9.8-1.2-5.4.8-5.8-.4-8.2-3.4-4.2 1.8-5 1.8-8.6-.4-.2 2.8-1.2 2-3 1.8.2 3.6-1.2 5.2-4.4 4 2.4 5-3.8 7.2-6.8 3-2.8.2-3-.6-4.4-1.6-1.2 4-5.6 3.4-6.4 1.2-5.6-.8-5-3.8-.4-4 .4-3.2 3.2-2.6 5-2.2.2-2 1.4-1.6 2.4-1.2-.6-1.4-.2-2.2 1.6-2.6-2.6-3.4-1-4.6 1.6-5.8-1.4-3.2 1-3 2.8-3.2-.2-3.4.8-4 4.4-4.4-.4-1.2.2-2.2 2.2-2.2-1.2-3.4.4-4.2 4-3.6.6-5 11.2-2.6 10.4 4.2 3 .4 4 1 4.8 3.4z" fill="#009a3b"/><path d="m309.6 206.2c.8.4 1.8 0 2 2.2 1.6-2.8 3.6-1.2 3.6 2m11-5.8c-.8 1.2-3.8 1.2-3.4 4.4-1-1.4-3-1.8-3.8-.4m12-.6c0 .8-.2 3.2-1 4.4m13.4-1c.2.2-2.8 0-4.2 1m11.6 11c-.8-.4-2.4-1.4-3.6.2 0-.8 0-3-2.2-3m-1.2 5.6c0-2-.4-2.6-.8-3.2m-5.8.4c-1.6-1.2-3.2.6-3.2 1.6m-8.4-3.4c0-.8-.6-2.4.8-3m-23.6 11.4c.4-2 1.8-2 1.6-3-.2-1.6-2-3-4.2-.8m4.2.8c1.2-.4 2.4-.2 2.8.4m-6.2-7.8c.8-.8 2.8-.6 4 0m0-4.8c1 0 2.8-.4 3.4 1.4 2.2-3.4 3.8-3 4.2-2.2m4-.4c1.6-.6 4.4 1 6 3.8.8-2.2 2-1.8 3.2-2m7.6 2c2.6-1.2 4.2 1.2 5 2.2 1.2-1.6 2.2-1.6 3.4-1.6m-32.6 4.2c.6-1 2-1.2 3-.6-.2-1.8 1-2.6 1.8-2.2" fill="none"/></g><path d="m317.4 180.5-4.4.2-2.2 4-2.4-3.8-4.4.2 2-4-2.4-3.7 4.6-.2 2-4 2.4 3.8 4.4-.2-2 4zm-18.8 1.5-4.4 1-1.2 4.3-3.2-3.2-4.2 1 1.2-4.2-3-3.2 4.2-1.1 1.2-4.3 3.2 3.2 4.4-1-1.4 4.3zm-18.2 3.7-4 2-.2 4.4-3.8-2.4-4 2 .4-4.5-3.8-2.4 4-2 .4-4.5 3.6 2.5 4-2-.2 4.4zm42.8-5.2 4.4.2 2 4 2.4-3.8 4.4.2-2-4 2.4-3.7-4.4-.2-2.2-4-2.4 3.8-4.4-.2 2 4zm18.8 1.5 4.2 1 1.2 4.3 3.2-3.2 4.2 1-1.2-4.2 3.2-3.2-4.4-1.1-1.2-4.3-3.2 3.2-4.2-1 1.2 4.3zm18 3.7 4 2 .2 4.4 3.8-2.4 4 2-.2-4.5 3.6-2.4-4-2-.2-4.5-3.8 2.5-4-2 .4 4.4z" fill="#ffd700" stroke-width=".7"/><g fill="#fff" stroke-width=".7"><path d="m365.4 270.4 5 7.2 4.6-6.8-3.2-5.8zm-31.8 21 .4 7.2s2 0 3.8-.6c1.6-.6 3-1.8 3-1.8l-.2-3.8zm-26.8 0-.4 7s-1.8 0-3.6-.4c-1.6-.4-3-1.4-3-1.4l-2-4.8zm-32.2-21-5.2 7.2-5.6-9.2 4.2-4.4z"/><path d="m299.6 305.8c0 6.8 41.2 6.8 41.2 0v-9.6c0 5-41.2 4-41.2 0z"/><path d="m262.8 283.6c3.6 18.4 36.8 18.8 36.8 18.8v-6.2c-.8-2.4.6-3.2 6-4 2.2-.2 1.2-3.4 1.2-3.4s-14.4 2.6-24.6-1.4c-13.8-5.6-15.8-16.4-15.8-16.4s-1 8.4-3.6 12.6zm114.6 0c-3.4 18.4-36.6 18.8-36.6 18.8v-6.2c.6-2.4-.8-3.2-6.2-4-2.2-.2-1-3.4-1-3.4s14.4 2.6 24.6-1.4c13.6-5.6 15.2-16.4 15.2-16.4s1.4 8.4 4 12.6z"/><path d="m265.4 276.6c-9.2-5-2-10.2-1.2-25 1.4 9 11.6 12.8 10.4 18.6-4.2.2-6.2-6.2-8.2.8zm109.4 0c9.2-5.2 1.6-10.2.8-25-1.4 9-11.4 12.8-10.2 18.6 4 .2 6-6.2 8 .8l1.4 5.4z"/></g><path d="m271 283.4 1 .8-2.2 2.4c-1 1-1.1 1.6-.5 2.2.7.7 1.3.4 2-.4l2.5-2.6.8.8-2.4 2.8c-1.3 1.5-2.5 1.2-3.6.2-.8-.8-1.4-2 0-3.5zm4 3.4 1 .6-.2 4.8 2.2-3.4 1 .6-3.2 5.2-1.2-.6.2-4.8-2.2 3.4-1-.6zm1.8 8.4 2.8-5.6 1 .6-2.6 5.4zm4.4-4.8-2.2 5.8 2.2.8c2 .7 3-.2 3.6-1.9.7-1.8.4-3-1.6-3.9zm.8 1.4c2 .7 2.2 1.5 1.6 3-.6 1.3-1 1.8-3 .8zm5.8.8-3.6 5.4 1.4.4.8-1.4 2.4.6.2 1.4 1.4.2-1.4-6.4zm.4 1.4.4 2.4-1.6-.2zm3-.9-.2 6.2h2.3c2.2.1 2.8-1 2.9-3 0-1.8-.7-3-2.9-3zm1.2 1c2.2.1 2.5.8 2.5 2.3-.1 1.5-.4 2.1-2.6 1.8v-4zm19.8 7.7v6.4h1.4v-2.4s1.2 0 2.2-.2c.7-.2 1.3-.7 1.3-2 0-1.2-.7-1.8-1.9-1.8zm1.4 1h1.4c1.1 0 1 1.8 0 1.8h-1.4zm5.8-1-2.6 6.4h1.4l.6-1.6h2.6l.6 1.6h1.4l-2.6-6.4zm.6 1.4 1 2.4h-1.8zm3.4 3.8 3.4-4.2h-3v-1h4.8v1l-3.6 4.2h3.6v1.2h-5.2zm20.2-12.4 1.2-.2.6 3.6c.2 1.3-.4 2.1-1.3 2.5-1 .4-2.4 0-2.5-1.7l1-.2c.2 1 .6 1.1 1 1 .5-.2.7-.8.6-1.4zm2-.4 1.1-.2.6 3c.2 1.3.6 1.8 1.5 1.7 1-.2 1.1-.8.9-2l-.7-3.1 1.2-.2.8 3.3c.4 2-.6 2.7-2 3-1.1.2-2.4 0-2.8-2zm6.2 2.8 1-.4c.5.9 1.2.8 1.8.6.8-.4 1-1.1.5-1.4-.6-.3-2 .2-2.7 0-.9-.4-1.3-1-1.2-1.7 0-1 .8-1.4 1.7-1.7 1-.3 2-.2 2.7 1l-1.2.4c-.4-.7-1-.6-1.4-.4s-1 .5-.6 1c.2.5 1.7.2 2.5.2s1.4.6 1.5 1.3c.2 1.1-.2 1.7-1.5 2.2-1.5.6-2.9 0-3.1-1.1zm5.4-5-1.6.8-.4-1 4.4-1.8.4.8-1.6.8 1.8 4.4-1 .6zm2.6-2.2 1-.6 2.8 5.2-1 .6zm6.8.4 1.2-.4a2.4 2.4 0 0 1 -2.4 3.3c-3 0-3.4-3.4-2.9-4.5.8-1.9 3-1.8 4-.8l-1 .8c-.6-.8-2-.3-2 .4a2.7 2.7 0 0 0 1.4 3c1 .4 2.4-.8 1.7-1.8zm-.6-4.2 1-.8 3.6 4.8-1 .8zm3.8-3-1 .8 2.2 6 1-1-.6-1.2 1.8-1.6 1.2.6 1-.8zm.4 1.4 2 1-1.2 1.2z" stroke="none"/></g></svg>