<svg viewBox="0 0 640 480" xmlns="http://www.w3.org/2000/svg"><path d="m0 0h640v53.3h-640z" fill="#005bae" fill-rule="evenodd" stroke-width="6.7"/><path d="m0 53.3h640v53.4h-640z" fill="#fff" fill-rule="evenodd" stroke-width="6.7"/><path d="m0 106.7h640v53.3h-640z" fill="#005bae" fill-rule="evenodd" stroke-width="6.7"/><path d="m0 160h640v53.3h-640z" fill="#fff" fill-rule="evenodd" stroke-width="6.7"/><path d="m0 0h266.7v266.7h-266.7z" fill="#005bae" stroke-width=".9"/><g fill-rule="evenodd"><path d="m0 213.3h640v53.4h-640z" fill="#005bae" stroke-width="6.7"/><path d="m0 266.7h640v53.3h-640z" fill="#fff" stroke-width="6.7"/><path d="m0 320h640v53.3h-640z" fill="#005bae" stroke-width="6.7"/><path d="m0 373.3h640v53.4h-640z" fill="#fff" stroke-width="6.7"/><g fill="#fff" stroke-width="1.3" transform="scale(5.33333)"><path d="m20 0h10v50h-10z"/><path d="m0 20h50v10h-50z"/></g></g><path d="m0 426.7h640v53.3h-640z" fill="#005bae" stroke-width=".6"/></svg>