<svg xmlns="http://www.w3.org/2000/svg" id="flag-icons-gu" version="1.1" viewBox="0 0 640 480">
  <path id="path659" fill="#be0027" fill-rule="evenodd" d="M0 0h640v480H0z"/>
  <path id="path661" fill="#3b5aa3" fill-rule="evenodd" d="M25.6 27.3h589.5v428.4H25.6z"/>
  <path id="path663" fill="#cbe0e5" fill-rule="evenodd" d="M314.4 413.2a10 10 0 0 0 8.4.1c137.8-73.3 137.8-274.3.1-346.6a10 10 0 0 0-8.7.2c-134.3 73.4-134.7 272.1.1 346.3z"/>
  <path id="path665" fill="#add2d9" fill-rule="evenodd" d="M314.4 416.9c2 1.7 6.4 1.5 8.4 0 101.5-76 102-123.3 97.6-123.3h-201c-3 0 1.8 48.2 95 123.3z"/>
  <path id="path667" fill="#fdf9a1" fill-rule="evenodd" d="M235.3 331.2a39.2 39.2 0 0 1 27.9 1.7c7.6 4 12 4 20.2 4 8.6.2 15.3 6.5 24.6 6.8 17.1.4 24.3 8.9 11 9-6.2 0-19.7-4.3-26.2-3.4-13.6 1.4-22.2 4.4-35 18.7l14.8 10c12.8-5.1 14.9-11 22-11.2 8-.3 10.7-5.2 20-5.2a92.6 92.6 0 0 0 33-3.2c14.8-3.4 7.8-13.8-1.2-17.5-7.3-3.1-20.8-.1-29.2-3.2-6.4-2.5-1.2-6.5 2.3-7.3 3.4-.7 7.1.5 11.4 1.2 7.7.6 17.4-.1 24.1-1.2 14-2.1 13.4-6.2 20-6.3 5-.3 8.7-1.7 12-4.1 4-2.7 8.1-8 12.9-7.8l12.7.5-18 40.4-50.7 51.7-26.3 10-57.8-37.7-29.1-44.7 4.7-1.2z"/>
  <path id="path669" fill="#179a3b" fill-rule="evenodd" d="m301.8 292 116-.6 2-10.3s-4.1-.6-7.5-.8c-4.1-.3-11.3 4.4-16 4.3-3.5 0-7.3-6-10.7-6-6 0-6.4 5.3-12 5.5-4.5-.2-6.4-3.6-12.3-3.2-6 .3-5.6 3.7-13.3 3.5-10.2-.3-14.3-9.1-22.5-9.2-13.6-.2-14 13-23.8 16.7z"/>
  <path id="path671" fill="#fdf9a1" fill-rule="evenodd" d="m301.8 294.4 119.4-.6v-3.2l-122.2.6 2.7 3.2z"/>
  <path id="path673" fill="#a79270" fill-rule="evenodd" d="M350.8 330.3c1.9 7 3.8 9.4 11.2 11.3 7.3 1.7 18.5-5.4 11.6-12.3-6.6-6.4-13.6-8-19.5-13.8-12.5-12.3-31.3-42.5-31.3-63.8 0-18.3-1.8-55.8-1.8-91.3 0-2.3-7 6.4-7 8.8.4 31.3.4 55 1.6 86.6 2 23.1 13 38.7 22.7 52.7 4.3 6.8 10.6 14 12.5 21.8z"/>
  <text id="text677" x="465.1" y="269.5" fill="#bd0728" stroke="#fff" stroke-width="1.6" font-family="helvetica" font-size="25.6" transform="matrix(1.33 0 0 1.33 -363 -108)"><tspan id="tspan675">G</tspan></text>
  <text id="text681" x="488.1" y="269.6" fill="#bd0728" stroke="#fff" stroke-width="1.6" font-family="helvetica" font-size="25.6" transform="matrix(1.33 0 0 1.33 -363 -108)"><tspan id="tspan679">U</tspan></text>
  <text id="text685" x="516" y="269.6" fill="#bd0728" stroke="#fff" stroke-width="1.6" font-family="helvetica" font-size="25.6" transform="matrix(1.33 0 0 1.33 -363 -108)"><tspan id="tspan683">A</tspan></text>
  <text id="text689" x="539.5" y="269.5" fill="#bd0728" stroke="#fff" stroke-width="1.6" font-family="helvetica" font-size="25.6" transform="matrix(1.33 0 0 1.33 -363 -108)"><tspan id="tspan687">M</tspan></text>
  <path id="path691" fill="#239e46" fill-rule="evenodd" d="M259.6 160.9c-1.5 3 3.6-.9 4.8-1.3 6.7-2.4 9.3-10.8 20.8-5.7 9 3.9 21.1 1.6 14.8 5.6-7.8 4.7-23.5 9.9-23.8 33.2 1.3 2.2 1.4 1.9 2.5-.6 2.4-5.4 13.7-20.1 19.3-18.9 2.3.6 8.9-6.7 9-4.6.7 5.8-9 17.6-8.8 33.3 0 3.7 4.5 4.9 6.6 2.3 2.2-2.3 3.4-4.6 7.2-7.6 6.6-5.4 4.8-28.6 5.6-27.5 4.7 6 5.4 23.3 12.4 30.3 5.9 5.9 10.6 3 9.3-5-2.5-16.4-10.2-11.7-13.9-28.6-.8-3.3-1-6.2 3.4-4.9 5.3 1.6 8.5 4 12.4 10 4 5.8 11.4 11.3 15.7 14.6 7.5 5.8 10.2.8 6.6-6.6a39.6 39.6 0 0 0-21-18.2c-6.2-2.2-8.4-2.4-13.8-3.4-1.5-.3-3-3.4-.4-5.1a42.5 42.5 0 0 1 19.6-7.7c6.7-.2 12 5.2 16.7 6.6 9.4 2.4 9.4-3.5 5.2-8-3.4-3.7-10.6-10-17.3-9.1-13.5 1.7-12.6 1.3-21 6.8-3 1.8-6.4 3.8-5.1 1.6 3-5.5.2-4.5 4.9-10.1 3.6-4 6.3-7 10-8 3.4-.9 8-4.5 9.3-6.4 3.4-4.6.5-7.3-4.7-5.7-4.6 1.2-7 4.2-10 5-7.4 2.4-13.3 19-14.2 21.4-1.1 2.8-2.4 1.4-2.2-1 1-11.7 2-31.5-2-39.6-6.4-12-5.8-6.4-8.2-.7-3.6 9-2.3 17.5 0 26.3 1 4.4 4.6 9.4 5.3 12.9.5 2.7-1.6-.8-2.8-2.5-3.9-6-6.8-10-13.2-13.3a35.3 35.3 0 0 0-20.2-2c-1.8.6 2 3.2 3.5 4.4 4.3 3.4 12.4 4.5 18 7.9 4.6 2.9 8.2 4.7 9.8 8.7.6 3 1.6 7.4-.4 7.3-5.1-.3-13-4.8-29.4-3-8.4 1.2-15.6 8.3-20.3 16.9z"/>
  <path id="path693" fill-rule="evenodd" d="M295.3 310.6h4.7v7.9h-4.7z"/>
  <path id="path695" fill="#fdf9ff" fill-rule="evenodd" d="M271.7 257.9c18.8 26 49 41.2 49.6 53h-58.8c13.5-16.2 21.8-27.2 9.2-53z"/>
  <path id="path697" fill="#a68861" fill-rule="evenodd" d="M254.6 311.5c25.6 5.7 56.1 8.9 75.6-.8.2 5.7-6.3 14-11.7 14h-49c5.7-.9 9-2.6 18.2-3l-26 .2c-3 .1-8-7.6-7.1-10.4z"/>
  <path id="path699" fill="#be0027" fill-rule="evenodd" d="M312.6 425c2.6 1.5 6.7 1.4 9 .2 147.8-78.7 147.9-294.4.2-372a10.7 10.7 0 0 0-9.4.2c-144 78.8-144.4 292 .2 371.7zm.7-17.7a9.3 9.3 0 0 0 8 .1c123.6-72.8 125.1-265.1.1-334-2.4-1.8-5.9-1.2-8.3 0-118.4 70.1-125 254.5.2 333.9z"/>
  <g id="text703" aria-label="G" style="font-size:25.6px;font-family:helvetica;fill:#bd0728" transform="matrix(1.33 0 0 1.33 -363 -108)">
    <path id="path722" d="M475 250.7q2.6 0 4.5 1 2.7 1.4 3.3 5h-2.4q-.5-2-2-3-1.3-.9-3.5-.9-2.5 0-4.3 2-1.7 1.9-1.7 5.7 0 3.2 1.4 5.3 1.5 2 4.7 2 2.5 0 4.1-1.4 1.7-1.4 1.7-4.7h-5.7v-2h8v9.8h-1.6l-.6-2.4q-1.2 1.4-2.2 2-1.7.9-4.2.9-3.2 0-5.6-2.1-2.6-2.7-2.6-7.3t2.5-7.3q2.4-2.6 6.2-2.6zm-.4 0z"/>
  </g>
  <g id="text707" aria-label="U" style="font-size:25.6px;font-family:helvetica;fill:#bd0728" transform="matrix(1.33 0 0 1.33 -363 -108)">
    <path id="path725" d="M492.8 251.2v11.4q0 2 .7 3.3 1.1 2 3.8 2 3.1 0 4.3-2.1.6-1.2.6-3.2v-11.4h2.5v10.4q0 3.3-1 5.2-1.6 3.3-6.2 3.3-4.7 0-6.4-3.3-.9-1.9-.9-5.2v-10.4zm4.7 0z"/>
  </g>
  <g id="text711" aria-label="A" style="font-size:25.6px;font-family:helvetica;fill:#bd0728" transform="matrix(1.33 0 0 1.33 -363 -108)">
    <path id="path728" d="m527.4 262-2.8-8-3 8zm-4.1-10.8h2.8l6.7 18.4H530l-1.8-5.5h-7.3l-2 5.5h-2.5z"/>
  </g>
  <g id="text715" aria-label="M" style="font-size:25.6px;font-family:helvetica;fill:#bd0728" transform="matrix(1.33 0 0 1.33 -363 -108)">
    <path id="path731" d="M541.4 251.1h3.6l5.2 15.6 5.3-15.6h3.5v18.4h-2.4V254l-5.2 15.5H549l-5.3-15.5v15.5h-2.3z"/>
  </g>
</svg>
