<svg height="480" viewBox="0 0 640 480" width="640" xmlns="http://www.w3.org/2000/svg"><g stroke-width="1pt"><path d="m0 0h640v480h-640z" fill="#006"/><path d="m0 0v30.59l372.58 243.023h46.898v-30.59l-372.58-243.023zm419.478 0v30.59l-372.58 243.022h-46.898v-30.59l372.58-243.022z" fill="#fff"/><path d="m174.782 0v273.612h69.913v-273.612zm-174.782 91.204v91.204h419.478v-91.204z" fill="#fff"/><path d="m0 109.445v54.722h419.478v-54.722zm188.765-109.445v273.612h41.948v-273.612zm-188.765 273.612 139.826-91.204h31.265l-139.825 91.204zm0-273.612 139.826 91.204h-31.266l-108.56-70.81zm248.387 91.204 139.826-91.204h31.265l-139.826 91.204zm171.09 182.408-139.825-91.204h31.265l108.56 70.81z" fill="#c00"/><path d="m125.512 416.48-27.478-2.388 23.717-14.077-15.26-22.972 25.79 9.766 8.448-26.258 8.447 26.257 25.79-9.767-15.26 22.972 23.716 14.077-27.477 2.39 3.786 27.32-19.002-19.993-19.002 19.993m370.437 1.897-19.346-1.684 16.698-9.913-10.748-16.173 18.165 6.877 5.943-18.49 5.943 18.49 18.164-6.877-10.748 16.173 16.698 9.913-19.346 1.684 2.67 19.23-13.382-14.072-13.382 14.073m2.671-307.008-19.346-1.683 16.698-9.912-10.748-16.175 18.165 6.878 5.943-18.487 5.943 18.488 18.164-6.878-10.748 16.175 16.698 9.912-19.346 1.684 2.67 19.232-13.382-14.073-13.382 14.072m-105.245 97.677-19.346-1.684 16.698-9.913-10.748-16.173 18.165 6.877 5.943-18.49 5.943 18.49 18.165-6.877-10.748 16.173 16.698 9.913-19.346 1.684 2.67 19.23-13.382-14.072-13.382 14.073m206.48-48.009-19.317-1.683 16.728-9.915-10.77-16.173 18.18 6.878 5.9-18.49 5.97 18.49 18.13-6.878-10.72 16.173 16.692 9.914-19.353 1.682 2.662 19.23-13.383-14.07-13.38 14.07m-22.247 40.414-9.503 8.022 2.97 12.08-10.575-6.555-10.575 6.555 2.97-12.08-9.503-8.02 12.41-.915 4.698-11.518 4.698 11.518" fill="#fff" fill-rule="evenodd"/></g></svg>