<svg viewBox="0 0 640 480" xmlns="http://www.w3.org/2000/svg"><g stroke-width="1pt"><path d="m0 0h640v480h-640z" fill="#006"/><path d="m0 0v30.6l372.6 243h46.9v-30.6l-372.6-243zm419.5 0v30.6l-372.6 243h-46.9v-30.6l372.6-243z" fill="#fff"/><path d="m174.8 0v273.6h69.9v-273.6h-70zm-174.8 91.2v91.2h419.5v-91.2z" fill="#fff"/><path d="m0 109.4v54.8h419.5v-54.8zm188.8-109.4v273.6h42v-273.6zm-188.8 273.6 139.8-91.2h31.3l-139.8 91.2zm0-273.6 139.8 91.2h-31.2l-108.6-70.8zm248.4 91.2 139.8-91.2h31.3l-139.9 91.2zm171 182.4-139.7-91.2h31.2l108.6 70.8v20.4z" fill="#c00"/><path d="m125.5 416.5-27.5-2.5 23.8-14-15.3-23 25.8 9.7 8.4-26.3 8.5 26.3 25.8-9.7-15.3 23 23.7 14-27.5 2.5 3.8 27.3-19-20-19 20m370.5 1.9-19.4-1.7 16.7-10-10.7-16 18.1 6.8 6-18.5 6 18.5 18-6.9-10.7 16.2 16.8 9.9-19.3 1.7 2.7 19.2-13.4-14-13.4 14m2.7-307-19.4-1.7 16.7-9.9-10.7-16.2 18.1 7 6-18.6 6 18.5 18-6.9-10.7 16.2 16.7 10-19.3 1.6 2.7 19.2-13.4-14-13.4 14m-105.2 97.7-19.4-1.7 16.7-9.9-10.8-16.1 18.2 6.8 6-18.5 5.9 18.5 18.2-6.8-10.8 16.1 16.7 10-19.3 1.6 2.6 19.3-13.4-14.1-13.4 14m206.4-48-19.4-1.6 16.8-10-10.8-16.1 18.2 6.9 5.9-18.5 6 18.5 18-7-10.6 16.2 16.7 10-19.4 1.6 2.7 19.3-13.4-14.1-13.4 14m-22.3 40.5-9.5 8 3 12-10.6-6.5-10.5 6.6 3-12-9.6-8.1 12.4-1 4.7-11.4 4.7 11.5" fill="#fff" fill-rule="evenodd"/></g></svg>