<svg viewBox="0 0 640 480" xmlns="http://www.w3.org/2000/svg" xmlns:xlink="http://www.w3.org/1999/xlink"><path d="m0 0h640v480h-640z" fill="#0073cf"/><path d="m0 160h640v160h-640z" fill="#fff"/><g id="a" fill="#0073cf" transform="matrix(26.66665 0 0 26.66665 320 240)"><g id="b"><path id="c" d="m-.3 0 .5.1-.2-1.1z"/><use height="100%" transform="scale(-1 1)" width="100%" xlink:href="#c"/></g><use height="100%" transform="matrix(.30901699 .95105652 -.95105652 .30901699 0 0)" width="100%" xlink:href="#b"/><use height="100%" transform="matrix(.30901699 -.95105652 .95105652 .30901699 0 0)" width="100%" xlink:href="#b"/><use height="100%" transform="matrix(-.80901699 .58778525 -.58778525 -.80901699 0 0)" width="100%" xlink:href="#b"/><use height="100%" transform="matrix(-.80901699 -.58778525 .58778525 -.80901699 0 0)" width="100%" xlink:href="#b"/></g><use height="100%" transform="translate(133.3 -42.7)" width="100%" xlink:href="#a"/><use height="100%" transform="translate(133.3 37.3)" width="100%" xlink:href="#a"/><use height="100%" transform="translate(-133.3 -42.7)" width="100%" xlink:href="#a"/><use height="100%" transform="translate(-133.3 37.3)" width="100%" xlink:href="#a"/></svg>