<svg viewBox="0 0 640 480" xmlns="http://www.w3.org/2000/svg" xmlns:xlink="http://www.w3.org/1999/xlink"><clipPath id="a"><path d="m-87.6 0h682.6v512h-682.6z"/></clipPath><g clip-path="url(#a)" fill-rule="evenodd" transform="matrix(.94 0 0 .94 82.1 0)"><path d="m619.4 512h-731.4v-512h731.4z" fill="#fff"/><path d="m619.4 115.2h-731.4v-67.2h731.4zm0 350.5h-731.4v-67.2h731.4zm-483-275 110.1 191.6 112.5-190.7-222.6-.8z" fill="#00c"/><path d="m225.8 317.8 20.9 35.5 21.4-35.3-42.4-.2z" fill="#fff"/><path d="m136 320.6 110.2-191.6 112.4 190.8z" fill="#00c"/><path d="m225.8 191.6 20.9-35.5 21.4 35.4-42.4.1zm-43.8 79.5-21.7 36 41-.1-19.3-36zm-21.3-66.5 41.2.3-19.8 36.3zm151.2 67 20.9 35.5-41.7-.5zm20.5-67-41.2.3 19.8 36.3zm-114.3 0-28.4 51.4 28.8 50.3 52.8 1.2 32-51.5-29.6-52-55.6.5z" fill="#fff"/></g></svg>