<svg height="480" viewBox="0 0 640 480" width="640" xmlns="http://www.w3.org/2000/svg" xmlns:xlink="http://www.w3.org/1999/xlink"><clipPath id="a"><path d="m-87.62 0h682.67v512h-682.67z"/></clipPath><g clip-path="url(#a)" fill-rule="evenodd" transform="matrix(.94 0 0 .94 82.14 0)"><path d="m619.43 512h-731.43v-512h731.43z" fill="#fff"/><path d="m619.43 115.23h-731.43v-67.227h731.43zm0 350.45h-731.43v-67.227h731.43zm-483-274.9 110.12 191.54 112.49-190.75z" fill="#00c"/><path d="m225.75 317.81 20.95 35.506 21.4-35.36-42.35-.145z" fill="#fff"/><path d="m136.02 320.58 110.13-191.54 112.48 190.75z" fill="#00c"/><path d="m225.75 191.61 20.95-35.506 21.4 35.36-42.35.145zm-43.78 79.5-21.64 35.982 40.9-.127zm-21.27-66.5 41.225.29-19.834 36.26-21.39-36.55zm151.24 66.91 20.83 35.576-41.71-.533zm20.45-66.91-41.225.29 19.835 36.26zm-114.27-.04-28.394 51.515 28.8 50.297 52.73 1.217 32.044-51.515-29.61-51.92-55.572.405z" fill="#fff"/></g></svg>