<svg viewBox="0 0 640 480" xmlns="http://www.w3.org/2000/svg" xmlns:xlink="http://www.w3.org/1999/xlink"><clipPath id="a"><path d="m0 0h682.7v512h-682.7z"/></clipPath><g clip-path="url(#a)" transform="scale(.9375)"><path d="m0 0h1024v512h-1024z" fill="#fff" fill-rule="evenodd"/><path d="m1024 445.2c-11.5 7-21.3 23-51.8 23-61 0-76.2-33.9-122-33.9-30.4 0-45.6 34-76.1 34-61 0-76.2-34-122-34-30.4 0-45.6 34-76 34-61 0-76.3-34-122-34-30.5 0-45.7 34-76.2 34-61 0-76.2-34-121.9-34-30.5 0-45.7 34-76.2 34-61 0-76.2-34-121.9-34-30.5 0-39.6 24.2-57.9 24.2v43.7c18.3 0 27.4-24.2 58-24.2 45.6 0 60.9 34 121.8 34 30.5 0 45.7-34 76.2-34 45.7 0 61 34 122 34 30.4 0 45.6-34 76.1-34 45.7 0 61 34 121.9 34 30.5 0 45.7-34 76.2-34 45.7 0 61 34 121.9 34 30.5 0 45.7-34 76.2-34 45.7 0 61 34 121.9 34 30.5 0 40.3-9.6 51.8-16.5zm0-84.9c-11.5 7-21.3 23-51.8 23-61 0-76.2-34-122-34-30.4 0-45.6 34-76.1 34-61 0-76.2-34-122-34-30.4 0-45.6 34-76 34-61 0-76.3-34-122-34-30.5 0-45.7 34-76.2 34-61 0-76.2-34-121.9-34-30.5 0-45.7 34-76.2 34-61 0-76.2-34-121.9-34-30.5 0-39.6 24.3-57.9 24.3v43.7c18.3 0 27.4-24.2 58-24.2 45.6 0 60.9 34 121.8 34 30.5 0 45.7-34 76.2-34 45.7 0 61 34 122 34 30.4 0 45.6-34 76.1-34 45.7 0 61 34 122 34 30.4 0 45.6-34 76.1-34 45.7 0 61 34 121.9 34 30.5 0 45.7-34 76.2-34 45.7 0 61 34 121.9 34 30.5 0 40.3-9.6 51.8-16.5zm0-84.9c-11.5 7-21.3 23-51.8 23-61 0-76.2-34-122-34-30.4 0-45.6 34-76.1 34-61 0-76.2-34-122-34-30.4 0-45.6 34-76 34-61 0-76.3-34-122-34-30.5 0-45.7 34-76.2 34-61 0-76.2-34-121.9-34-30.5 0-45.7 34-76.2 34-61 0-76.2-34-121.9-34-30.5 0-39.6 24.3-57.9 24.3v43.7c18.3 0 27.4-24.2 58-24.2 45.6 0 60.9 34 121.8 34 30.5 0 45.7-34 76.2-34 45.7 0 61 34 122 34 30.4 0 45.6-34 76.1-34 45.7 0 61 34 122 34 30.4 0 45.6-34 76.1-34 45.7 0 61 34 121.9 34 30.5 0 45.7-34 76.2-34 45.7 0 61 34 121.9 34 30.5 0 40.3-9.7 51.8-16.6zm0-84.9c-11.5 6.9-21.3 23-51.8 23-61 0-76.2-34-122-34-30.4 0-45.6 34-76.1 34-61 0-76.2-34-122-34-30.4 0-45.6 34-76 34-61 0-76.3-34-122-34-30.5 0-45.7 34-76.2 34-61 0-76.2-34-121.9-34-30.5 0-45.7 34-76.2 34-61 0-76.2-34-121.9-34-30.5 0-39.6 24.3-57.9 24.3v43.7c18.3 0 27.4-24.2 58-24.2 45.6 0 60.9 34 121.8 34 30.5 0 45.7-34 76.2-34 45.7 0 61 34 122 34 30.4 0 45.6-34 76.1-34 45.7 0 61 34 122 34 30.4 0 45.6-34 76.1-34 45.7 0 61 34 121.9 34 30.5 0 45.7-34 76.2-34 45.7 0 61 34 121.9 34 30.5 0 40.3-9.7 51.8-16.6zm0-85c-11.5 7-21.3 23.1-51.8 23.1-61 0-76.2-34-122-34-30.4 0-45.6 34-76.1 34-61 0-76.2-34-122-34-30.4 0-45.6 34-76 34-61 0-76.3-34-122-34-30.5 0-45.7 34-76.2 34-61 0-76.2-34-121.9-34-30.5 0-45.7 34-76.2 34-61 0-76.2-34-121.9-34-30.5.1-39.6 24.4-57.9 24.4v43.7c18.3 0 27.4-24.2 57.9-24.2 45.7 0 61 34 122 34 30.4 0 45.6-34 76.1-34 45.7 0 61 34 122 34 30.4 0 45.6-34 76-34 45.8 0 61 34 122 34 30.5 0 45.7-34 76.2-34 45.7 0 61 34 121.9 34 30.5 0 45.7-34 76.2-34 45.7 0 61 34 121.9 34 30.4 0 40.3-9.7 51.8-16.6v-50.2zm0-84.8c-11.5 6.9-21.3 23-51.8 23-61 0-76.2-34-122-34-30.4 0-45.6 34-76.1 34-61 0-76.2-34-122-34-30.4 0-45.6 34-76 34-61 0-76.3-34-122-34-30.5 0-45.7 34-76.2 34-61 0-76.2-34-121.9-34-30.5 0-45.7 34-76.2 34-61 0-76.2-34-121.9-34-30.5 0-39.6 24.3-57.9 24.3v43.8c18.3 0 27.4-24.2 57.9-24.2 45.7 0 61 34 122 34 30.4 0 45.6-34 76.1-34 45.7 0 61 34 122 34 30.4 0 45.6-34 76-34 45.8 0 61 34 122 34 30.5 0 45.7-34 76.2-34 45.7 0 61 34 121.9 34 30.5 0 45.7-34 76.2-34 45.7 0 61 34 121.9 34 30.4 0 40.3-9.7 51.8-16.6v-50.3z" fill="#000063" fill-rule="evenodd"/><path d="m0 0h261.3v158h-261.3z" fill="#000063" fill-rule="evenodd"/><g stroke-width="1pt"><path d="m0 0v17.7l232.1 140.3h29.2v-17.7l-232-140.2h-29.3zm261.3 0v17.7l-232 140.3h-29.3v-17.7l232.1-140.2h29.2z" fill="#fff"/><path d="m108.9 0v158h43.5v-158h-43.4zm-108.9 52.8v52.6h261.3v-52.7h-261.3z" fill="#fff"/><path d="m0 63.2v31.6h261.3v-31.6zm117.6-63.2v158h26.1v-158zm-117.6 158 87.1-52.7h19.5l-87.1 52.7zm0-158 87.1 52.7h-19.5l-67.6-40.9v-11.7zm154.7 52.7 87.1-52.6h19.5l-87 52.6zm106.6 105.3-87-52.7h19.4l67.6 40.9z" fill="#c00"/></g><path d="m815-301.2-17.8 708.7c0 37.3 80.1 37.3 88.6 0l-17.7-708.7z" fill="#a24300" fill-rule="evenodd" stroke="#fff" stroke-width="6.9" transform="matrix(.2064 0 0 .4902 211.6 267.4)"/><path d="m496 549.2 17.8 70.9 35.4-53.2-17.7 88.6 35.4-35.4-35.4 88.6 35.4-35.5-35.4 88.6 35.4-35.4-35.4 106.3 35.4-35.5-35.4 106.3 35.4-35.4-35.4 106.3-17.7 53.2-17.7 17.7-17.8-17.7-17.7-53.2-35.4-106.3 35.4 35.4-35.4-106.3 35.4 35.5-35.4-106.3 35.4 35.4-35.4-88.6 35.4 35.5-35.4-88.6 35.4 35.4-17.6-88.5 35.4 53.2 17.8-70.9z" fill="#006d00" fill-rule="evenodd" stroke="#fff" stroke-width="8.3" transform="matrix(-.2354 .06743 -.1035 -.19501 591.3 322.6)"/><path d="m496 549.2v496m-70.8-177 70.9 106.2 70.8-106.3" fill="none" stroke="#000" stroke-width="1pt" transform="matrix(-.2354 .06743 -.1035 -.19501 591.3 322.6)"/><path d="m425.2 797.2 70.9 106.3 70.8-106.3" fill="none" stroke="#000" stroke-width="1pt" transform="matrix(-.2354 .06743 -.1035 -.19501 591.3 322.6)"/><path d="m425.2 726.4 70.9 106.3 70.8-106.3" fill="none" stroke="#000" stroke-width="1pt" transform="matrix(-.2354 .06743 -.1035 -.19501 591.3 322.6)"/><path d="m425.2 673.2 70.9 88.6 70.8-88.6" fill="none" stroke="#000" stroke-width="1pt" transform="matrix(-.2354 .06743 -.1035 -.19501 591.3 322.6)"/><path d="m425.2 620 70.9 88.7 70.8-88.6" fill="none" stroke="#000" stroke-width="1pt" transform="matrix(-.2354 .06743 -.1035 -.19501 591.3 322.6)"/><path d="m443 567 53 106.2 53.3-106.2" fill="none" stroke="#000" stroke-width="1pt" transform="matrix(-.2354 .06743 -.1035 -.19501 591.3 322.6)"/><path d="m496 549.2 17.8 70.9 35.4-53.2-17.7 88.6 35.4-35.4-35.4 88.6 35.4-35.5-35.4 88.6 35.4-35.4-35.4 106.3 35.4-35.5-35.4 106.3 35.4-35.4-35.4 106.3-17.7 53.2-17.7 17.7-17.8-17.7-17.7-53.2-35.4-106.3 35.4 35.4-35.4-106.3 35.4 35.5-35.4-106.3 35.4 35.4-35.4-88.6 35.4 35.5-35.4-88.6 35.4 35.4-17.6-88.5 35.4 53.2 17.8-70.9z" fill="#006d00" fill-rule="evenodd" stroke="#fff" stroke-width="8.3" transform="matrix(.17703 -.18126 .22077 .14638 73.8 93.5)"/><path d="m496 549.2v496m-70.8-177 70.9 106.2 70.8-106.3" fill="none" stroke="#000" stroke-width="1pt" transform="matrix(.17703 -.18126 .22077 .14638 73.8 93.5)"/><path d="m425.2 797.2 70.9 106.3 70.8-106.3" fill="none" stroke="#000" stroke-width="1pt" transform="matrix(.17703 -.18126 .22077 .14638 73.8 93.5)"/><path d="m425.2 726.4 70.9 106.3 70.8-106.3" fill="none" stroke="#000" stroke-width="1pt" transform="matrix(.17703 -.18126 .22077 .14638 73.8 93.5)"/><path d="m425.2 673.2 70.9 88.6 70.8-88.6" fill="none" stroke="#000" stroke-width="1pt" transform="matrix(.17703 -.18126 .22077 .14638 73.8 93.5)"/><path d="m425.2 620 70.9 88.7 70.8-88.6" fill="none" stroke="#000" stroke-width="1pt" transform="matrix(.17703 -.18126 .22077 .14638 73.8 93.5)"/><path d="m443 567 53 106.2 53.3-106.2" fill="none" stroke="#000" stroke-width="1pt" transform="matrix(.17703 -.18126 .22077 .14638 73.8 93.5)"/><path d="m496 549.2 17.8 70.9 35.4-53.2-17.7 88.6 35.4-35.4-35.4 88.6 35.4-35.5-35.4 88.6 35.4-35.4-35.4 106.3 35.4-35.5-35.4 106.3 35.4-35.4-35.4 106.3-17.7 53.2-17.7 17.7-17.8-17.7-17.7-53.2-35.4-106.3 35.4 35.4-35.4-106.3 35.4 35.5-35.4-106.3 35.4 35.4-35.4-88.6 35.4 35.5-35.4-88.6 35.4 35.4-17.6-88.5 35.4 53.2 17.8-70.9z" fill="#006d00" fill-rule="evenodd" stroke="#fff" stroke-width="8.3" transform="matrix(.1135 .2156 -.24917 .1076 581.8 -57.8)"/><path d="m496 549.2v496m-70.8-177 70.9 106.2 70.8-106.3" fill="none" stroke="#000" stroke-width="1pt" transform="matrix(.1135 .2156 -.24917 .1076 581.8 -57.8)"/><path d="m425.2 797.2 70.9 106.3 70.8-106.3" fill="none" stroke="#000" stroke-width="1pt" transform="matrix(.1135 .2156 -.24917 .1076 581.8 -57.8)"/><path d="m425.2 726.4 70.9 106.3 70.8-106.3" fill="none" stroke="#000" stroke-width="1pt" transform="matrix(.1135 .2156 -.24917 .1076 581.8 -57.8)"/><path d="m425.2 673.2 70.9 88.6 70.8-88.6" fill="none" stroke="#000" stroke-width="1pt" transform="matrix(.1135 .2156 -.24917 .1076 581.8 -57.8)"/><path d="m425.2 620 70.9 88.7 70.8-88.6" fill="none" stroke="#000" stroke-width="1pt" transform="matrix(.1135 .2156 -.24917 .1076 581.8 -57.8)"/><path d="m443 567 53 106.2 53.3-106.2" fill="none" stroke="#000" stroke-width="1pt" transform="matrix(.1135 .2156 -.24917 .1076 581.8 -57.8)"/><path d="m496 549.2 17.8 70.9 35.4-53.2-17.7 88.6 35.4-35.4-35.4 88.6 35.4-35.5-35.4 88.6 35.4-35.4-35.4 106.3 35.4-35.5-35.4 106.3 35.4-35.4-35.4 106.3-17.7 53.2-17.7 17.7-17.8-17.7-17.7-53.2-35.4-106.3 35.4 35.4-35.4-106.3 35.4 35.5-35.4-106.3 35.4 35.4-35.4-88.6 35.4 35.5-35.4-88.6 35.4 35.4-17.6-88.5 35.4 53.2 17.8-70.9z" fill="#006d00" fill-rule="evenodd" stroke="#fff" stroke-width="8.3" transform="matrix(-.15682 .19451 -.23555 -.12827 705.9 197.8)"/><path d="m496 549.2v496m-70.8-177 70.9 106.2 70.8-106.3" fill="none" stroke="#000" stroke-width="1pt" transform="matrix(-.15682 .19451 -.23555 -.12827 705.9 197.8)"/><path d="m425.2 797.2 70.9 106.3 70.8-106.3" fill="none" stroke="#000" stroke-width="1pt" transform="matrix(-.15682 .19451 -.23555 -.12827 705.9 197.8)"/><path d="m425.2 726.4 70.9 106.3 70.8-106.3" fill="none" stroke="#000" stroke-width="1pt" transform="matrix(-.15682 .19451 -.23555 -.12827 705.9 197.8)"/><path d="m425.2 673.2 70.9 88.6 70.8-88.6" fill="none" stroke="#000" stroke-width="1pt" transform="matrix(-.15682 .19451 -.23555 -.12827 705.9 197.8)"/><path d="m425.2 620 70.9 88.7 70.8-88.6" fill="none" stroke="#000" stroke-width="1pt" transform="matrix(-.15682 .19451 -.23555 -.12827 705.9 197.8)"/><path d="m443 567 53 106.2 53.3-106.2" fill="none" stroke="#000" stroke-width="1pt" transform="matrix(-.15682 .19451 -.23555 -.12827 705.9 197.8)"/><path d="m496 549.2 17.8 70.9 35.4-53.2-17.7 88.6 35.4-35.4-35.4 88.6 35.4-35.5-35.4 88.6 35.4-35.4-35.4 106.3 35.4-35.5-35.4 106.3 35.4-35.4-35.4 106.3-17.7 53.2-17.7 17.7-17.8-17.7-17.7-53.2-35.4-106.3 35.4 35.4-35.4-106.3 35.4 35.5-35.4-106.3 35.4 35.4-35.4-88.6 35.4 35.5-35.4-88.6 35.4 35.4-17.6-88.5 35.4 53.2 17.8-70.9z" fill="#006d00" fill-rule="evenodd" stroke="#fff" stroke-width="8.3" transform="matrix(-.15547 -.16616 .17678 -.15123 275.8 396)"/><path d="m496 549.2v496m-70.8-177 70.9 106.2 70.8-106.3" fill="none" stroke="#000" stroke-width="1pt" transform="matrix(-.15547 -.16616 .17678 -.15123 275.8 396)"/><path d="m425.2 797.2 70.9 106.3 70.8-106.3" fill="none" stroke="#000" stroke-width="1pt" transform="matrix(-.15547 -.16616 .17678 -.15123 275.8 396)"/><path d="m425.2 726.4 70.9 106.3 70.8-106.3" fill="none" stroke="#000" stroke-width="1pt" transform="matrix(-.15547 -.16616 .17678 -.15123 275.8 396)"/><path d="m425.2 673.2 70.9 88.6 70.8-88.6" fill="none" stroke="#000" stroke-width="1pt" transform="matrix(-.15547 -.16616 .17678 -.15123 275.8 396)"/><path d="m425.2 620 70.9 88.7 70.8-88.6" fill="none" stroke="#000" stroke-width="1pt" transform="matrix(-.15547 -.16616 .17678 -.15123 275.8 396)"/><path d="m443 567 53 106.2 53.3-106.2" fill="none" stroke="#000" stroke-width="1pt" transform="matrix(-.15547 -.16616 .17678 -.15123 275.8 396)"/><path d="m460.6 549.2 28.7 70.9 42.2-53.2-10.2 88.6 28-35.4-17.8 88.6 25.2-35.5-25.2 88.6 35.4-35.4-35.4 106.3 35.4-35.5-35.4 106.3 35.4-35.4-35.4 106.3-17.7 53.2-17.7 17.7-17.8-17.7-17.7-53.2-35.4-106.3 35.4 35.4-35.4-106.3 35.4 35.5-35.4-106.3 35.4 35.4-45.6-88.6 45.6 35.5-53.1-88.6 43 35.4-25.3-88.6 35.4 53.2z" fill="#006d00" fill-rule="evenodd" stroke="#fff" stroke-width="8.3" transform="matrix(-.27108 -.06397 -.15704 .20433 684.1 -32.2)"/><g fill="none" stroke="#000" stroke-width="1pt"><path d="m467.2 584.6 28.9 124v336.7" transform="matrix(-.27108 -.06397 -.15704 .20433 684.1 -32.2)"/><path d="m436.2 885.8 59.9 88.6 60.6-88.6" transform="matrix(-.27108 -.06397 -.15704 .20433 684.1 -32.2)"/><path d="m434.5 815 61.6 88.5 60.6-88.5" transform="matrix(-.27108 -.06397 -.15704 .20433 684.1 -32.2)"/><path d="m435.4 744.1 60.7 88.6 59.8-88.6" transform="matrix(-.27108 -.06397 -.15704 .20433 684.1 -32.2)"/><path d="m432.8 691 63.3 70.8 53.1-70.9" transform="matrix(-.27108 -.06397 -.15704 .20433 684.1 -32.2)"/><path d="m425.2 637.8 70.9 70.9 45.4-70.9" transform="matrix(-.27108 -.06397 -.15704 .20433 684.1 -32.2)"/><path d="m436.1 593.2 53.2 87 35.3-95.6" transform="matrix(-.27108 -.06397 -.15704 .20433 684.1 -32.2)"/></g><path d="m460.6 549.2 28.7 70.9 42.2-53.2-10.2 88.6 28-35.4-17.8 88.6 25.2-35.5-25.2 88.6 35.4-35.4-35.4 106.3 35.4-35.5-35.4 106.3 35.4-35.4-35.4 106.3-17.7 53.2-17.7 17.7-17.8-17.7-17.7-53.2-35.4-106.3 35.4 35.4-35.4-106.3 35.4 35.5-35.4-106.3 35.4 35.4-45.6-88.6 45.6 35.5-53.1-88.6 43 35.4-25.3-88.6 35.4 53.2z" fill="#006d00" fill-rule="evenodd" stroke="#fff" stroke-width="8.3" transform="matrix(.27011 .06695 .00989 .24471 240.8 -138.4)"/><path d="m467.2 584.6 28.9 124v336.7" fill="none" stroke="#000" stroke-width="1pt" transform="matrix(.27011 .06695 .00989 .24471 240.8 -138.4)"/><path d="m436.2 885.8 59.9 88.6 60.6-88.6" fill="none" stroke="#000" stroke-width="1pt" transform="matrix(.27011 .06695 .00989 .24471 240.8 -138.4)"/><path d="m434.5 815 61.6 88.5 60.6-88.5" fill="none" stroke="#000" stroke-width="1pt" transform="matrix(.27011 .06695 .00989 .24471 240.8 -138.4)"/><path d="m435.4 744.1 60.7 88.6 59.8-88.6" fill="none" stroke="#000" stroke-width="1pt" transform="matrix(.27011 .06695 .00989 .24471 240.8 -138.4)"/><path d="m432.8 691 63.3 70.8 53.1-70.9" fill="none" stroke="#000" stroke-width="1pt" transform="matrix(.27011 .06695 .00989 .24471 240.8 -138.4)"/><path d="m425.2 637.8 70.9 70.9 45.4-70.9" fill="none" stroke="#000" stroke-width="1pt" transform="matrix(.27011 .06695 .00989 .24471 240.8 -138.4)"/><path d="m436.1 593.2 53.2 87 35.3-95.6" fill="none" stroke="#000" stroke-width="1pt" transform="matrix(.27011 .06695 .00989 .24471 240.8 -138.4)"/><path d="m354.3 531.5 88.6 88.6 17.7-53.2v88.6l35.5-35.4-17.8 88.6 35.5-35.5-17.7 88.6 35.4-35.4-17.7 106.3 35.4-35.4-35.4 106.3 35.4-35.5-17.7 106.3-17.7 53.2-17.7 17.7-17.8-17.7-17.7-53.2-53.1-82.3 35.4 11.5-35.4-106.3 35.4 35.4-53.1-106.3 35.4 35.4-53.2-88.6 53.2 35.5-70.9-88.6 53.2 35.4-70.9-70.8 70.9 35.4-53.2-88.6z" fill="#006d00" fill-rule="evenodd" stroke="#fff" stroke-width="8.3" transform="matrix(.03453 -.23456 .24402 .04167 115.5 229.5)"/><path d="m379 560 64 95.5 17.6 53.2 8.9 45.2 8.8 78.8 9.4 70.9 8.4 141.7" fill="none" stroke="#000" stroke-width="1pt" transform="matrix(.03453 -.23456 .24402 .04167 115.5 229.5)"/><path d="m425.2 903.5 63.7 71 50.7-88.7" fill="none" stroke="#000" stroke-width="1pt" transform="matrix(.03453 -.23456 .24402 .04167 115.5 229.5)"/><path d="m417 815 70.7 88.5 50.7-88.5" fill="none" stroke="#000" stroke-width="1pt" transform="matrix(.03453 -.23456 .24402 .04167 115.5 229.5)"/><path d="m407.5 752.4 70.9 80.3 45.9-88.6m-152.2-106.3 88.5 70.9 25.9-70.9" fill="none" stroke="#000" stroke-width="1pt" transform="matrix(.03453 -.23456 .24402 .04167 115.5 229.5)"/><path d="m360.6 602.4 82.3 53.1 10.5-53.1m-63.6 88.5 81 71 34-71" fill="none" stroke="#000" stroke-width="1pt" transform="matrix(.03453 -.23456 .24402 .04167 115.5 229.5)"/><g fill-rule="evenodd"><g stroke="#000"><path d="m541.5 1173.3-1.7-229.1-61.1-107c-15.3-52.6-7.8-78 17-79.8 24.7-1.6 49.2 13.6 84.8 15.3s28.9-59.4 81.5-57.7 144.3 32.3 222.3 37.4c78.1 5 118.8-27.2 208.8-30.6s113.7 42.4 118.8 42.4 30.6-18.6 56-22c25.5-3.4 34 10.2 34 10.2s-1.7 57.7-13.6 91.6c-11.9 34-54.3 90-56 90s-15.3 249.5-15.3 251.2-675.5-6.8-675.5-11.9z" fill="#c00" stroke-width="1pt" transform="matrix(.13659 0 0 .12573 266.4 208.2)"/><g stroke-width="1pt"><path d="m531.5 584.6s-68-52-69.8-177.1c-1-72 34.4-124 123-124 124 0 301.1 53.1 301.1 53.1v17.7s-141.7-53.1-301.2-53.1c-70.8 0-106.3 52-106.3 105.2 0 88.6 71 178.3 71 178.3v141.7h-17.8z" fill="#fff100" transform="matrix(-.13659 0 0 .12573 508.4 252.7)"/><g fill="#fff"><path d="m478.4 549.2a17.7 17.7 0 1 1 -35.5 0 17.7 17.7 0 0 1 35.5 0z" transform="matrix(-.13659 0 0 .12573 506.2 252.5)"/><path d="m478.4 549.2a17.7 17.7 0 1 1 -35.5 0 17.7 17.7 0 0 1 35.5 0z" transform="matrix(-.13659 0 0 .12573 508.6 247.4)"/><path d="m478.4 549.2a17.7 17.7 0 1 1 -35.5 0 17.7 17.7 0 0 1 35.5 0z" transform="matrix(-.13659 0 0 .12573 509.9 242.2)"/><path d="m478.4 549.2a17.7 17.7 0 1 1 -35.5 0 17.7 17.7 0 0 1 35.5 0z" transform="matrix(-.13659 0 0 .12573 510.8 236.7)"/><path d="m478.4 549.2a17.7 17.7 0 1 1 -35.5 0 17.7 17.7 0 0 1 35.5 0z" transform="matrix(-.13659 0 0 .12573 510.6 230.7)"/><path d="m478.4 549.2a17.7 17.7 0 1 1 -35.5 0 17.7 17.7 0 0 1 35.5 0z" transform="matrix(-.13659 0 0 .12573 502.7 257)"/><path d="m478.4 549.2a17.7 17.7 0 1 1 -35.5 0 17.7 17.7 0 0 1 35.5 0z" transform="matrix(-.13659 0 0 .12573 508.5 225)"/><path d="m478.4 549.2a17.7 17.7 0 1 1 -35.5 0 17.7 17.7 0 0 1 35.5 0z" transform="matrix(-.13659 0 0 .12573 504 220.5)"/><path d="m478.4 549.2a17.7 17.7 0 1 1 -35.5 0 17.7 17.7 0 0 1 35.5 0z" transform="matrix(-.13659 0 0 .12573 498 217.5)"/><path d="m478.4 549.2a17.7 17.7 0 1 1 -35.5 0 17.7 17.7 0 0 1 35.5 0z" transform="matrix(-.13659 0 0 .12573 492 217.1)"/><path d="m478.4 549.2a17.7 17.7 0 1 1 -35.5 0 17.7 17.7 0 0 1 35.5 0z" transform="matrix(-.13659 0 0 .12573 485.5 217.3)"/><path d="m478.4 549.2a17.7 17.7 0 1 1 -35.5 0 17.7 17.7 0 0 1 35.5 0z" transform="matrix(-.13659 0 0 .12573 479 218.2)"/><path d="m478.4 549.2a17.7 17.7 0 1 1 -35.5 0 17.7 17.7 0 0 1 35.5 0z" transform="matrix(-.13659 0 0 .12573 472.6 219)"/><path d="m478.4 549.2a17.7 17.7 0 1 1 -35.5 0 17.7 17.7 0 0 1 35.5 0z" transform="matrix(-.13659 0 0 .12573 465.6 220)"/><path d="m478.4 549.2a17.7 17.7 0 1 1 -35.5 0 17.7 17.7 0 0 1 35.5 0z" transform="matrix(-.13659 0 0 .12573 459.6 221.6)"/></g></g><path d="m478.4 549.2a17.7 17.7 0 1 1 -35.5 0 17.7 17.7 0 0 1 35.5 0z" fill="#fff" stroke-width="1pt" transform="matrix(.13659 0 0 .12573 268.6 252.5)"/><path d="m478.4 549.2a17.7 17.7 0 1 1 -35.5 0 17.7 17.7 0 0 1 35.5 0z" fill="#fff" stroke-width="1pt" transform="matrix(.13659 0 0 .12573 266.1 247.4)"/><path d="m478.4 549.2a17.7 17.7 0 1 1 -35.5 0 17.7 17.7 0 0 1 35.5 0z" fill="#fff" stroke-width="1pt" transform="matrix(.13659 0 0 .12573 264.9 242.2)"/><path d="m478.4 549.2a17.7 17.7 0 1 1 -35.5 0 17.7 17.7 0 0 1 35.5 0z" fill="#fff" stroke-width="1pt" transform="matrix(.13659 0 0 .12573 264 236.7)"/><path d="m478.4 549.2a17.7 17.7 0 1 1 -35.5 0 17.7 17.7 0 0 1 35.5 0z" fill="#fff" stroke-width="1pt" transform="matrix(.13659 0 0 .12573 264.2 230.7)"/><path d="m478.4 549.2a17.7 17.7 0 1 1 -35.5 0 17.7 17.7 0 0 1 35.5 0z" fill="#fff" stroke-width="1pt" transform="matrix(.13659 0 0 .12573 266.2 225)"/><path d="m478.4 549.2a17.7 17.7 0 1 1 -35.5 0 17.7 17.7 0 0 1 35.5 0z" fill="#fff" stroke-width="1pt" transform="matrix(.13659 0 0 .12573 270.6 220.5)"/><path d="m478.4 549.2a17.7 17.7 0 1 1 -35.5 0 17.7 17.7 0 0 1 35.5 0z" fill="#fff" stroke-width="1pt" transform="matrix(.13659 0 0 .12573 276.7 217.5)"/><path d="m478.4 549.2a17.7 17.7 0 1 1 -35.5 0 17.7 17.7 0 0 1 35.5 0z" fill="#fff" stroke-width="1pt" transform="matrix(.13659 0 0 .12573 282.7 217.1)"/><path d="m478.4 549.2a17.7 17.7 0 1 1 -35.5 0 17.7 17.7 0 0 1 35.5 0z" fill="#fff" stroke-width="1pt" transform="matrix(.13659 0 0 .12573 289.2 217.3)"/><path d="m478.4 549.2a17.7 17.7 0 1 1 -35.5 0 17.7 17.7 0 0 1 35.5 0z" fill="#fff" stroke-width="1pt" transform="matrix(.13659 0 0 .12573 295.7 218.2)"/><path d="m478.4 549.2a17.7 17.7 0 1 1 -35.5 0 17.7 17.7 0 0 1 35.5 0z" fill="#fff" stroke-width="1pt" transform="matrix(.13659 0 0 .12573 302.2 219)"/><path d="m478.4 549.2a17.7 17.7 0 1 1 -35.5 0 17.7 17.7 0 0 1 35.5 0z" fill="#fff" stroke-width="1pt" transform="matrix(.13659 0 0 .12573 309.1 220)"/><path d="m478.4 549.2a17.7 17.7 0 1 1 -35.5 0 17.7 17.7 0 0 1 35.5 0z" fill="#fff" stroke-width="1pt" transform="matrix(.13659 0 0 .12573 315.1 221.6)"/><path d="m478.4 549.2a17.7 17.7 0 1 1 -35.5 0 17.7 17.7 0 0 1 35.5 0z" fill="#fff" stroke-width="1pt" transform="matrix(.13659 0 0 .12573 272 257)"/><path d="m531.5 584.6s-68-52-69.8-177.1c-1-72 34.4-124 123-124 124 0 301.1 53.1 301.1 53.1v17.7s-141.7-53.1-301.2-53.1c-70.8 0-106.3 52-106.3 105.2 0 88.6 71 178.3 71 178.3v141.7h-17.8z" fill="#fff100" stroke-width="1pt" transform="matrix(.13659 0 0 .12573 266.4 252.7)"/><path d="m1240.2 531.5s15.3-35.4 70.9-35.4c37.8 0 70.8 35.4 70.8 70.8v70.9h35.5v-70.9c0-35.4 35.4-70.8 70.8-70.8 53.2 0 70.9 35.4 70.9 35.4s0-106.3-70.9-106.3c-53.1 0-70.8 35.4-70.8 35.4s17.7-53.1 17.7-106.3-35.4-88.6-35.4-88.6c0 6.8-35.5 35.5-35.5 88.6s17.7 106.3 17.7 106.3-17.7-35.4-70.8-35.4c-70.9 0-70.9 106.3-70.9 106.3z" fill="#fff100" stroke-width="3" transform="matrix(.04553 0 0 .0479 299.4 309)"/><path d="m1240.2 531.5s15.3-35.4 70.9-35.4c37.8 0 70.8 35.4 70.8 70.8v70.9h35.5v-70.9c0-35.4 35.4-70.8 70.8-70.8 53.2 0 70.9 35.4 70.9 35.4s0-106.3-70.9-106.3c-53.1 0-70.8 35.4-70.8 35.4s17.7-53.1 17.7-106.3-35.4-88.6-35.4-88.6c0 6.8-35.5 35.5-35.5 88.6s17.7 106.3 17.7 106.3-17.7-35.4-70.8-35.4c-70.9 0-70.9 106.3-70.9 106.3z" fill="#fff100" stroke-width="3" transform="matrix(.04553 0 0 .0479 347.8 309)"/><path d="m531.5 832.7v-159.5s35.4 53.2 88.6 53.2c43.5 0 88.6-70.9 88.6-70.9s41.5 53.2 88.6 53.2c42 0 88.5-68.6 88.5-68.6s43.2 68.6 88.6 68.6c45.5 0 88.6-53.2 88.6-53.2s46.3 70.9 106.3 70.9c53.1 0 70.9-53.2 70.9-53.2v159.5z" fill="#fff100" stroke-width="1pt" transform="matrix(.13659 0 0 .12573 266.4 252.7)"/><path d="m708.7 832.7v-124s106.3 35.3 106.3 124z" fill="#fff100" stroke-width="1pt" transform="matrix(.13659 0 0 .12573 242.2 252.7)"/><path d="m708.7 832.7v-124s106.3 35.3 106.3 124z" fill="#fff100" stroke-width="1pt" transform="matrix(-.13659 0 0 .12573 532.5 252.7)"/><path d="m602.4 832.7c0-88.7 106.3-144.7 106.3-144.7s106.3 56 106.3 144.7z" fill="#fff100" stroke-width="1pt" transform="matrix(.13659 0 0 .12573 266.4 252.7)"/><path d="m602.4 832.7c0-88.7 106.3-144.7 106.3-144.7s106.3 56 106.3 144.7z" fill="#fff100" stroke-width="1pt" transform="matrix(.13659 0 0 .12573 314.8 252.7)"/><path d="m584.6 847.5c0-88.6 124.1-159.4 124.1-159.4s124 70.8 124 159.4h-248z" fill="#fff100" stroke-width="1pt" transform="matrix(.13659 0 0 .12573 290.6 250.9)"/><path d="m1275.6 655.5c-35.4-17.7-166-35.4-376.3-35.4s-350 17.7-385.5 35.4c-35.4 17.7-35.4 53.2 0 70.9s175.3 35.4 385.5 35.4 340.9-17.7 376.3-35.4 35.4-53.2 0-70.9z" fill="#fff" stroke-width="1pt" transform="matrix(.13505 0 0 .12573 265.9 275)"/></g><path d="m435.8 366.3c0 4.5-40.3 4.5-48.4 4.5-8.8 0-48.4 1.2-48.4-4.5 0-4.4 39.9-4.4 48.4-4.4 8.4 0 48.4.9 48.4 4.4z" fill="#808080"/><path d="m343.8 350.3c0 1.5-1 2.7-2.4 2.7s-2.4-1.2-2.4-2.7 1-2.6 2.4-2.6c1.3 0 2.4 1.2 2.4 2.6zm92 0c0 1.5-1.1 2.7-2.5 2.7-1.3 0-2.4-1.2-2.4-2.7s1.1-2.6 2.4-2.6c1.4 0 2.4 1.2 2.4 2.6z" fill="#c00"/><path d="m392.2 349c0 1.4-2.2 2.6-4.8 2.6s-4.9-1.2-4.9-2.7 2.2-2.6 4.9-2.6 4.8 1.2 4.8 2.6z"/><path d="m415.4 349c0 1.4-1.6 2.6-3.6 2.6s-3.6-1.2-3.6-2.7 1.6-2.6 3.6-2.6 3.6 1.2 3.6 2.6zm-49.8 0c0 1.4-1.6 2.6-3.6 2.6s-3.7-1.2-3.7-2.7 1.6-2.6 3.7-2.6c2 0 3.6 1.2 3.6 2.6z" fill="#006300"/><path d="m1257.9 496s35.4-53 70.9-53h35.4v35.3c0 53.2-53.1 71-53.1 71h141.7s-53.2-17.8-53.2-71v-35.3h35.5c35.4 0 70.8 53.2 70.8 53.2v-141.9s-35.4 53.2-70.8 53.2h-35.5v-35.5c0-53.1 53.2-70.8 53.2-70.8h-141.8s53.1 17.7 53.1 70.8v35.5h-35.4c-35.5 0-70.9-53.2-70.9-53.2v141.8z" fill="#fff100" stroke="#000" stroke-width="2.2" transform="matrix(.07805 0 0 .07185 279.5 298)"/><path d="m1381.9 549.2h70.9s-53.2-17.7-53.2-70.9v-35.3h35.4c35.5 0 71 53.2 71 53.2v-141.9s-35.5 53.2-71 53.2h-35.4v-35.5c0-53.1 53.2-70.8 53.2-70.8h-70.9z" fill="#fff100" stroke="#000" stroke-width="3.3" transform="matrix(.03903 0 0 .06287 285 307.3)"/><path d="m1381.9 549.2h70.9s-53.2-17.7-53.2-70.9v-35.3h35.4c35.5 0 71 53.2 71 53.2v-141.9s-35.5 53.2-71 53.2h-35.4v-35.5c0-53.1 53.2-70.8 53.2-70.8h-70.9z" fill="#fff100" stroke="#000" stroke-width="3.3" transform="matrix(-.03903 0 0 .06287 489.7 307.3)"/><path d="m903.5 602.4a17.7 17.7 0 1 1 -35.4 0 17.7 17.7 0 0 1 35.4 0z" fill="#fff" stroke="#000" stroke-width="1pt" transform="matrix(.13659 0 0 .12573 266.4 252.7)"/><path d="m1257.9 496s35.4-53 70.9-53h35.4v35.3c0 53.2-53.1 71-53.1 71h141.7s-53.2-17.8-53.2-71v-35.3h35.5c35.4 0 70.8 53.2 70.8 53.2v-141.9s-35.4 53.2-70.8 53.2h-35.5v-35.5c0-53.1 53.2-70.8 53.2-70.8h-141.8s53.1 17.7 53.1 70.8v35.5h-35.4c-35.5 0-70.9-53.2-70.9-53.2v141.8z" fill="#fff100" stroke="#000" stroke-width="2.2" transform="matrix(.07805 0 0 .07185 279.5 251.2)"/><path d="m903.5 602.4a17.7 17.7 0 1 1 -35.4 0 17.7 17.7 0 0 1 35.4 0z" fill="#fff" stroke="#000" stroke-width="1pt" transform="matrix(.13659 0 0 .12573 266.6 206.3)"/><path d="m850.4 655.5h70.9v53.2h-71z" fill="#fff100" stroke="#000" stroke-width="1pt" transform="matrix(.13659 0 0 .12573 266.4 208.2)"/><path d="m850.4 683.3h70.9v202.5h-71z" fill="#fff100" stroke="#000" stroke-width="1pt" transform="matrix(.13659 0 0 .12573 266.4 208.2)"/><path d="m478.4 549.2a17.7 17.7 0 1 1 -35.5 0 17.7 17.7 0 0 1 35.5 0z" fill="#fff" stroke="#000" stroke-width="1pt" transform="matrix(.13659 0 0 .12573 324.4 246)"/><path d="m478.4 549.2a17.7 17.7 0 1 1 -35.5 0 17.7 17.7 0 0 1 35.5 0z" fill="#fff" stroke="#000" stroke-width="1pt" transform="matrix(.13659 0 0 .12573 324.4 240.3)"/><path d="m478.4 549.2a17.7 17.7 0 1 1 -35.5 0 17.7 17.7 0 0 1 35.5 0z" fill="#fff" stroke="#000" stroke-width="1pt" transform="matrix(.13659 0 0 .12573 324.4 235)"/><path d="m478.4 549.2a17.7 17.7 0 1 1 -35.5 0 17.7 17.7 0 0 1 35.5 0z" fill="#fff" stroke="#000" stroke-width="1pt" transform="matrix(.13659 0 0 .12573 324.4 229.4)"/><path d="m392.5 357.5c0 1-2.2 1.8-5 1.8s-4.8-.8-4.8-1.8 2.2-1.8 4.9-1.8 4.9.8 4.9 1.8zm44.6 4.4c-.3.7-2.7.8-5.4.1-2.7-.6-4.6-1.6-4.4-2.3.3-.7 2.7-.8 5.4-.1 2.7.6 4.6 1.6 4.4 2.3zm-18.7-3c0 .9-2.4 1.4-5.2 1.3-2.7-.2-4.9-1.1-4.8-2s2.5-1.4 5.2-1.2c2.8.2 5 1 4.8 1.9zm-81.8 3c.2.7 2.6.8 5.3.1 2.7-.6 4.7-1.6 4.4-2.3s-2.7-.8-5.4-.1c-2.6.6-4.6 1.6-4.3 2.3zm19.5-3.4c.1.9 2.5 1.4 5.2 1.2 2.8-.2 5-1 4.8-2 0-.8-2.4-1.4-5.2-1.2-2.7.2-4.9 1-4.8 2z"/></g></g></svg>