<svg viewBox="0 0 640 480" xmlns="http://www.w3.org/2000/svg" xmlns:xlink="http://www.w3.org/1999/xlink"><clipPath id="a"><path d="m-85.3 0h682.7v512h-682.7z"/></clipPath><g clip-path="url(#a)" fill-rule="evenodd" transform="matrix(.9375 0 0 .9375 80 0)"><path d="m-192 0h896v512h-896z" fill="#fff"/><path d="m-192 343.8h896v168.2h-896z" fill="#da0000"/><g fill="#fff" stroke-width="1pt"><path d="m-21.6 351h49v3.3h-49zm7.3 16.8h3.4v3.3h-3.4zm41.9 0v3.3h-9.8v-3.4zm5.2-16.8h3.4v20h-3.4z"/><path d="m52.4 367.7v3.4h-18.6v-3.4zm-34.6-7.9h3.2v11.3h-3.3z"/><path d="m49.6 351h3.4v20h-3.4zm-8.4 0h3.3v20h-3.3zm-44.8 8v3.4h-18v-3.4zm39.3 0v3.4h-18v-3.4z"/><path d="m17.8 359.9h3.2v11.1h-3.3z"/><path d="m17.8 359.9h3.2v11.1h-3.3z"/><path d="m17.8 359.9h3.2v11.1h-3.3zm-39.3 0h3.3v11.1h-3.3zm28.8 0h3.4v11.1h-3.4zm-14.3 0h3.4v11.1h-3.4z"/><path d="m9.6 367.7v3.4h-15.1v-3.4zm1-8.7v3.4h-9.6v-3.4z"/></g><g fill="#fff" stroke-width="1pt"><path d="m-102.2 351h49v3.3h-49zm7.3 16.8h3.4v3.3h-3.5zm41.9 0v3.3h-9.8v-3.4zm5.2-16.8h3.4v20h-3.4z"/><path d="m-28.2 367.7v3.4h-18.6v-3.4zm-34.6-7.9h3.3v11.3h-3.3z"/><path d="m-31 351h3.4v20h-3.4zm-8.4 0h3.3v20h-3.3zm-44.8 8v3.4h-18v-3.4zm39.3 0v3.4h-18v-3.4z"/><path d="m-62.8 359.9h3.3v11.1h-3.3z"/><path d="m-62.8 359.9h3.3v11.1h-3.3z"/><path d="m-62.8 359.9h3.3v11.1h-3.3zm-39.3 0h3.3v11.1h-3.3zm28.8 0h3.3v11.1h-3.3zm-14.3 0h3.4v11.1h-3.4z"/><path d="m-71 367.7v3.4h-15v-3.4zm1-8.7v3.4h-9.6v-3.4z"/></g><g fill="#fff" stroke-width="1pt"><path d="m58.3 351h49v3.3h-49zm7.3 16.8h3.4v3.3h-3.4zm41.9 0v3.3h-9.8v-3.4zm5.3-16.8h3.4v20h-3.4z"/><path d="m132.3 367.7v3.4h-18.6v-3.4zm-34.6-7.9h3.4v11.3h-3.4z"/><path d="m129.5 351h3.4v20h-3.4zm-8.4 0h3.4v20h-3.5zm-44.8 8v3.4h-18v-3.4zm39.3 0v3.4h-18v-3.4z"/><path d="m97.7 359.9h3.4v11.1h-3.4z"/><path d="m97.7 359.9h3.4v11.1h-3.4z"/><path d="m97.7 359.9h3.4v11.1h-3.4zm-39.3 0h3.4v11.1h-3.4zm28.8 0h3.4v11.1h-3.4zm-14.3 0h3.4v11.1h-3.4z"/><path d="m89.6 367.7v3.4h-15.2v-3.4zm1-8.7v3.4h-9.6v-3.4z"/></g><g fill="#fff" stroke-width="1pt"><path d="m622.7 351h49v3.3h-49zm7.3 16.8h3.4v3.3h-3.4zm41.9 0v3.3h-9.9v-3.4zm5.3-16.8h3.3v20h-3.4z"/><path d="m696.7 367.7v3.4h-18.7v-3.4zm-34.6-7.9h3.4v11.3h-3.5z"/><path d="m694 351h3.3v20h-3.4zm-8.5 0h3.4v20h-3.4zm-44.8 8v3.4h-18v-3.4zm39.3 0v3.4h-18v-3.4z"/><path d="m662 359.9h3.5v11.1h-3.5z"/><path d="m662 359.9h3.5v11.1h-3.5z"/><path d="m662 359.9h3.5v11.1h-3.5zm-39.2 0h3.4v11.1h-3.4zm28.8 0h3.4v11.1h-3.4zm-14.3 0h3.4v11.1h-3.4z"/><path d="m654 367.7v3.4h-15.2v-3.4zm1-8.7v3.4h-9.6v-3.4z"/></g><g fill="#fff" stroke-width="1pt"><path d="m138.7 351h49.1v3.3h-49zm7.4 16.8h3.3v3.3h-3.3zm41.8 0v3.3h-9.8v-3.4zm5.3-16.8h3.4v20h-3.4z"/><path d="m212.8 367.7v3.4h-18.6v-3.4zm-34.7-7.9h3.4v11.3h-3.4z"/><path d="m210 351h3.4v20h-3.4zm-8.5 0h3.4v20h-3.4zm-44.8 8v3.4h-17.9v-3.4zm39.3 0v3.4h-17.9v-3.4z"/><path d="m178.1 359.9h3.4v11.1h-3.4z"/><path d="m178.1 359.9h3.4v11.1h-3.4z"/><path d="m178.1 359.9h3.4v11.1h-3.4zm-39.3 0h3.4v11.1h-3.4zm28.8 0h3.4v11.1h-3.4zm-14.2 0h3.3v11.1h-3.3z"/><path d="m170 367.7v3.4h-15.1v-3.4zm1-8.7v3.4h-9.6v-3.4z"/></g><g fill="#fff" stroke-width="1pt"><path d="m219.5 351h49v3.3h-49zm7.3 16.8h3.4v3.3h-3.4zm41.9 0v3.3h-9.8v-3.4zm5.3-16.8h3.3v20h-3.3z"/><path d="m293.5 367.7v3.4h-18.6v-3.4zm-34.6-7.9h3.4v11.3h-3.4z"/><path d="m290.7 351h3.4v20h-3.4zm-8.4 0h3.4v20h-3.4zm-44.8 8v3.4h-18v-3.4zm39.3 0v3.4h-18v-3.4z"/><path d="m258.9 359.9h3.4v11.1h-3.4z"/><path d="m258.9 359.9h3.4v11.1h-3.4z"/><path d="m258.9 359.9h3.4v11.1h-3.4zm-39.3 0h3.3v11.1h-3.3zm28.8 0h3.4v11.1h-3.4zm-14.3 0h3.4v11.1h-3.5z"/><path d="m250.8 367.7v3.4h-15.2v-3.4zm1-8.7v3.4h-9.8v-3.4z"/></g><path d="m-192 0h896v168.2h-896z" fill="#239f40"/><g stroke-width="1pt"><g fill="#fff"><path d="m300.7 351h49v3.3h-49zm7.3 16.8h3.4v3.3h-3.4zm41.9 0v3.3h-9.9v-3.4zm5.3-16.8h3.3v20h-3.3z"/><path d="m374.7 367.7v3.4h-18.6v-3.4zm-34.6-7.9h3.4v11.3h-3.5z"/><path d="m372 351h3.3v20h-3.3zm-8.5 0h3.4v20h-3.4zm-44.8 8v3.4h-18v-3.4zm39.3 0v3.4h-18v-3.4z"/><path d="m340 359.9h3.5v11.1h-3.5z"/><path d="m340 359.9h3.5v11.1h-3.5z"/><path d="m340 359.9h3.5v11.1h-3.5zm-39.2 0h3.4v11.1h-3.4zm28.8 0h3.4v11.1h-3.4zm-14.3 0h3.4v11.1h-3.4z"/><path d="m332 367.7v3.4h-15.2v-3.4zm1-8.7v3.4h-9.6v-3.4z"/></g><g fill="#fff"><path d="m381.4 351h49v3.3h-49zm7.3 16.8h3.4v3.3h-3.4zm42 0v3.3h-9.9v-3.4zm5.2-16.8h3.4v20h-3.4z"/><path d="m455.4 367.7v3.4h-18.6v-3.4zm-34.6-7.9h3.4v11.3h-3.4z"/><path d="m452.7 351h3.3v20h-3.3zm-8.5 0h3.4v20h-3.4zm-44.8 8v3.4h-17.9v-3.4zm39.3 0v3.4h-17.9v-3.4z"/><path d="m420.8 359.9h3.4v11.1h-3.4z"/><path d="m420.8 359.9h3.4v11.1h-3.4z"/><path d="m420.8 359.9h3.4v11.1h-3.4zm-39.3 0h3.4v11.1h-3.4zm28.8 0h3.4v11.1h-3.4zm-14.3 0h3.4v11.1h-3.3z"/><path d="m412.7 367.7v3.4h-15.1v-3.4zm1-8.7v3.4h-9.7v-3.4z"/></g><g fill="#fff"><path d="m462.2 351h49v3.3h-49zm7.3 16.8h3.4v3.3h-3.4zm41.9 0v3.3h-9.8v-3.4zm5.2-16.8h3.4v20h-3.4z"/><path d="m536.2 367.7v3.4h-18.6v-3.4zm-34.7-7.9h3.4v11.3h-3.4z"/><path d="m533.4 351h3.4v20h-3.4zm-8.4 0h3.3v20h-3.3zm-44.8 8v3.4h-18v-3.4zm39.3 0v3.4h-18v-3.4z"/><path d="m501.6 359.9h3.3v11.1h-3.3z"/><path d="m501.6 359.9h3.3v11.1h-3.3z"/><path d="m501.6 359.9h3.3v11.1h-3.3zm-39.4 0h3.4v11.1h-3.4zm28.9 0h3.3v11.1h-3.3zm-14.3 0h3.4v11.1h-3.4z"/><path d="m493.4 367.7v3.4h-15.1v-3.4zm1-8.7v3.4h-9.6v-3.4z"/></g><g fill="#fff"><path d="m543.4 351h49v3.3h-49zm7.3 16.8h3.4v3.3h-3.4zm41.9 0v3.3h-9.8v-3.4zm5.2-16.8h3.4v20h-3.4z"/><path d="m617.4 367.7v3.4h-18.6v-3.4zm-34.6-7.9h3.3v11.3h-3.3z"/><path d="m614.6 351h3.4v20h-3.4zm-8.4 0h3.3v20h-3.3zm-44.8 8v3.4h-18v-3.4zm39.3 0v3.4h-18v-3.4z"/><path d="m582.8 359.9h3.3v11.1h-3.3z"/><path d="m582.8 359.9h3.3v11.1h-3.3z"/><path d="m582.8 359.9h3.3v11.1h-3.3zm-39.3 0h3.3v11.1h-3.3zm28.8 0h3.4v11.1h-3.4zm-14.3 0h3.4v11.1h-3.4z"/><path d="m574.6 367.7v3.4h-15.1v-3.4zm1-8.7v3.4h-9.6v-3.4z"/></g><g fill="#fff"><path d="m-183.8 351h49v3.3h-49zm7.3 16.8h3.4v3.3h-3.4zm42 0v3.3h-9.9v-3.4zm5.2-16.8h3.4v20h-3.4z"/><path d="m-109.8 367.7v3.4h-18.6v-3.4zm-34.6-7.9h3.4v11.3h-3.4z"/><path d="m-112.5 351h3.3v20h-3.3zm-8.5 0h3.4v20h-3.4zm-44.8 8v3.4h-17.9v-3.4zm39.3 0v3.4h-17.9v-3.4z"/><path d="m-144.4 359.9h3.4v11.1h-3.4z"/><path d="m-144.4 359.9h3.4v11.1h-3.4z"/><path d="m-144.4 359.9h3.4v11.1h-3.4zm-39.3 0h3.4v11.1h-3.4zm28.8 0h3.4v11.1h-3.4zm-14.3 0h3.4v11.1h-3.4z"/><path d="m-152.5 367.7v3.4h-15.2v-3.4zm1-8.7v3.4h-9.6v-3.4z"/></g><g fill="#fff"><path d="m-21.6 143.4h49v3.4h-49zm7.3 17h3.4v3.2h-3.4zm41.9-.2v3.4h-9.8v-3.4zm5.2-16.8h3.4v20.2h-3.4z"/><path d="m52.4 160.2v3.4h-18.6v-3.4zm-34.6-7.9h3.2v11.3h-3.3z"/><path d="m49.6 143.4h3.4v20.2h-3.4zm-8.4 0h3.3v20.2h-3.3zm-44.8 8v3.4h-18v-3.3zm39.3 0v3.4h-18v-3.3z"/><path d="m17.8 152.3h3.2v11.3h-3.3z"/><path d="m17.8 152.3h3.2v11.3h-3.3z"/><path d="m17.8 152.3h3.2v11.3h-3.3zm-39.3 0h3.3v11.3h-3.3zm28.8 0h3.4v11.3h-3.4zm-14.3 0h3.4v11.3h-3.4z"/><path d="m9.6 160.2v3.4h-15.1v-3.4zm1-8.7v3.3h-9.6v-3.3z"/></g><g fill="#fff"><path d="m-102.2 143.4h49v3.4h-49zm7.3 17h3.4v3.2h-3.5zm41.9-.2v3.4h-9.8v-3.4zm5.2-16.8h3.4v20.2h-3.4z"/><path d="m-28.2 160.2v3.4h-18.6v-3.4zm-34.6-7.9h3.3v11.3h-3.3z"/><path d="m-31 143.4h3.4v20.2h-3.4zm-8.4 0h3.3v20.2h-3.3zm-44.8 8v3.4h-18v-3.3zm39.3 0v3.4h-18v-3.3z"/><path d="m-62.8 152.3h3.3v11.3h-3.3z"/><path d="m-62.8 152.3h3.3v11.3h-3.3z"/><path d="m-62.8 152.3h3.3v11.3h-3.3zm-39.3 0h3.3v11.3h-3.3zm28.8 0h3.3v11.3h-3.3zm-14.3 0h3.4v11.3h-3.4z"/><path d="m-71 160.2v3.4h-15v-3.4zm1-8.7v3.3h-9.6v-3.3z"/></g><g fill="#fff"><path d="m58.3 143.4h49v3.4h-49zm7.3 17h3.4v3.2h-3.4zm41.9-.2v3.4h-9.8v-3.4zm5.3-16.8h3.4v20.2h-3.4z"/><path d="m132.3 160.2v3.4h-18.6v-3.4zm-34.6-7.9h3.4v11.3h-3.4z"/><path d="m129.5 143.4h3.4v20.2h-3.4zm-8.4 0h3.4v20.2h-3.5zm-44.8 8v3.4h-18v-3.3zm39.3 0v3.4h-18v-3.3z"/><path d="m97.7 152.3h3.4v11.3h-3.4z"/><path d="m97.7 152.3h3.4v11.3h-3.4z"/><path d="m97.7 152.3h3.4v11.3h-3.4zm-39.3 0h3.4v11.3h-3.4zm28.8 0h3.4v11.3h-3.4zm-14.3 0h3.4v11.3h-3.4z"/><path d="m89.6 160.2v3.4h-15.2v-3.4zm1-8.7v3.3h-9.6v-3.3z"/></g><g fill="#fff"><path d="m622.7 143.4h49v3.4h-49zm7.3 17h3.4v3.2h-3.4zm41.9-.2v3.4h-9.9v-3.4zm5.3-16.8h3.3v20.2h-3.4z"/><path d="m696.7 160.2v3.4h-18.7v-3.4zm-34.6-7.9h3.4v11.3h-3.5z"/><path d="m694 143.4h3.3v20.2h-3.4zm-8.5 0h3.4v20.2h-3.4zm-44.8 8v3.4h-18v-3.3zm39.3 0v3.4h-18v-3.3z"/><path d="m662 152.3h3.5v11.3h-3.5z"/><path d="m662 152.3h3.5v11.3h-3.5z"/><path d="m662 152.3h3.5v11.3h-3.5zm-39.2 0h3.4v11.3h-3.4zm28.8 0h3.4v11.3h-3.4zm-14.3 0h3.4v11.3h-3.4z"/><path d="m654 160.2v3.4h-15.2v-3.4zm1-8.7v3.3h-9.6v-3.3z"/></g><g fill="#fff"><path d="m138.7 143.4h49.1v3.4h-49zm7.4 17h3.3v3.2h-3.3zm41.8-.2v3.4h-9.8v-3.4zm5.3-16.8h3.4v20.2h-3.4z"/><path d="m212.8 160.2v3.4h-18.6v-3.4zm-34.7-7.9h3.4v11.3h-3.4z"/><path d="m210 143.4h3.4v20.2h-3.4zm-8.5 0h3.4v20.2h-3.4zm-44.8 8v3.4h-17.9v-3.3zm39.3 0v3.4h-17.9v-3.3z"/><path d="m178.1 152.3h3.4v11.3h-3.4z"/><path d="m178.1 152.3h3.4v11.3h-3.4z"/><path d="m178.1 152.3h3.4v11.3h-3.4zm-39.3 0h3.4v11.3h-3.4zm28.8 0h3.4v11.3h-3.4zm-14.2 0h3.3v11.3h-3.3z"/><path d="m170 160.2v3.4h-15.1v-3.4zm1-8.7v3.3h-9.6v-3.3z"/></g><g fill="#fff"><path d="m219.5 143.4h49v3.4h-49zm7.3 17h3.4v3.2h-3.4zm41.9-.2v3.4h-9.8v-3.4zm5.3-16.8h3.3v20.2h-3.3z"/><path d="m293.5 160.2v3.4h-18.6v-3.4zm-34.6-7.9h3.4v11.3h-3.4z"/><path d="m290.7 143.4h3.4v20.2h-3.4zm-8.4 0h3.4v20.2h-3.4zm-44.8 8v3.4h-18v-3.3zm39.3 0v3.4h-18v-3.3z"/><path d="m258.9 152.3h3.4v11.3h-3.4z"/><path d="m258.9 152.3h3.4v11.3h-3.4z"/><path d="m258.9 152.3h3.4v11.3h-3.4zm-39.3 0h3.3v11.3h-3.3zm28.8 0h3.4v11.3h-3.4zm-14.3 0h3.4v11.3h-3.5z"/><path d="m250.8 160.2v3.4h-15.2v-3.4zm1-8.7v3.3h-9.8v-3.3z"/></g><g fill="#fff"><path d="m300.7 143.4h49v3.4h-49zm7.3 17h3.4v3.2h-3.4zm41.9-.2v3.4h-9.9v-3.4zm5.3-16.8h3.3v20.2h-3.3z"/><path d="m374.7 160.2v3.4h-18.6v-3.4zm-34.6-7.9h3.4v11.3h-3.5z"/><path d="m372 143.4h3.3v20.2h-3.3zm-8.5 0h3.4v20.2h-3.4zm-44.8 8v3.4h-18v-3.3zm39.3 0v3.4h-18v-3.3z"/><path d="m340 152.3h3.5v11.3h-3.5z"/><path d="m340 152.3h3.5v11.3h-3.5z"/><path d="m340 152.3h3.5v11.3h-3.5zm-39.2 0h3.4v11.3h-3.4zm28.8 0h3.4v11.3h-3.4zm-14.3 0h3.4v11.3h-3.4z"/><path d="m332 160.2v3.4h-15.2v-3.4zm1-8.7v3.3h-9.6v-3.3z"/></g><g fill="#fff"><path d="m381.4 143.4h49v3.4h-49zm7.3 17h3.4v3.2h-3.4zm42-.2v3.4h-9.9v-3.4zm5.2-16.8h3.4v20.2h-3.4z"/><path d="m455.4 160.2v3.4h-18.6v-3.4zm-34.6-7.9h3.4v11.3h-3.4z"/><path d="m452.7 143.4h3.3v20.2h-3.3zm-8.5 0h3.4v20.2h-3.4zm-44.8 8v3.4h-17.9v-3.3zm39.3 0v3.4h-17.9v-3.3z"/><path d="m420.8 152.3h3.4v11.3h-3.4z"/><path d="m420.8 152.3h3.4v11.3h-3.4z"/><path d="m420.8 152.3h3.4v11.3h-3.4zm-39.3 0h3.4v11.3h-3.4zm28.8 0h3.4v11.3h-3.4zm-14.3 0h3.4v11.3h-3.3z"/><path d="m412.7 160.2v3.4h-15.1v-3.4zm1-8.7v3.3h-9.7v-3.3z"/></g><g fill="#fff"><path d="m462.2 143.4h49v3.4h-49zm7.3 17h3.4v3.2h-3.4zm41.9-.2v3.4h-9.8v-3.4zm5.2-16.8h3.4v20.2h-3.4z"/><path d="m536.2 160.2v3.4h-18.6v-3.4zm-34.7-7.9h3.4v11.3h-3.4z"/><path d="m533.4 143.4h3.4v20.2h-3.4zm-8.4 0h3.3v20.2h-3.3zm-44.8 8v3.4h-18v-3.3zm39.3 0v3.4h-18v-3.3z"/><path d="m501.6 152.3h3.3v11.3h-3.3z"/><path d="m501.6 152.3h3.3v11.3h-3.3z"/><path d="m501.6 152.3h3.3v11.3h-3.3zm-39.4 0h3.4v11.3h-3.4zm28.9 0h3.3v11.3h-3.3zm-14.3 0h3.4v11.3h-3.4z"/><path d="m493.4 160.2v3.4h-15.1v-3.4zm1-8.7v3.3h-9.6v-3.3z"/></g><g fill="#fff"><path d="m543.4 143.4h49v3.4h-49zm7.3 17h3.4v3.2h-3.4zm41.9-.2v3.4h-9.8v-3.4zm5.2-16.8h3.4v20.2h-3.4z"/><path d="m617.4 160.2v3.4h-18.6v-3.4zm-34.6-7.9h3.3v11.3h-3.3z"/><path d="m614.6 143.4h3.4v20.2h-3.4zm-8.4 0h3.3v20.2h-3.3zm-44.8 8v3.4h-18v-3.3zm39.3 0v3.4h-18v-3.3z"/><path d="m582.8 152.3h3.3v11.3h-3.3z"/><path d="m582.8 152.3h3.3v11.3h-3.3z"/><path d="m582.8 152.3h3.3v11.3h-3.3zm-39.3 0h3.3v11.3h-3.3zm28.8 0h3.4v11.3h-3.4zm-14.3 0h3.4v11.3h-3.4z"/><path d="m574.6 160.2v3.4h-15.1v-3.4zm1-8.7v3.3h-9.6v-3.3z"/></g><g fill="#fff"><path d="m-183.8 143.4h49v3.4h-49zm7.3 17h3.4v3.2h-3.4zm42-.2v3.4h-9.9v-3.4zm5.2-16.8h3.4v20.2h-3.4z"/><path d="m-109.8 160.2v3.4h-18.6v-3.4zm-34.6-7.9h3.4v11.3h-3.4z"/><path d="m-112.5 143.4h3.3v20.2h-3.3zm-8.5 0h3.4v20.2h-3.4zm-44.8 8v3.4h-17.9v-3.3zm39.3 0v3.4h-17.9v-3.3z"/><path d="m-144.4 152.3h3.4v11.3h-3.4z"/><path d="m-144.4 152.3h3.4v11.3h-3.4z"/><path d="m-144.4 152.3h3.4v11.3h-3.4zm-39.3 0h3.4v11.3h-3.4zm28.8 0h3.4v11.3h-3.4zm-14.3 0h3.4v11.3h-3.4z"/><path d="m-152.5 160.2v3.4h-15.2v-3.4zm1-8.7v3.3h-9.6v-3.3z"/></g><path d="m-68.8 339.5h6v10.5h-6zm160.5 0h6v10.5h-6zm-283.7 0h6v10.5h-6zm81.5 0h6v10.5h-6zm80.9 0h6v10.5h-6zm40 0h6v10.5h-6zm40.9 0h6v10.5h-6zm80.4 0h6v10.5h-6zm203 0h6.1v10.5h-6zm-162.1 0h6v10.5h-6zm40 0h6v10.5h-6zm40.5 0h6v10.5h-6zm40.4 0h6v10.5h-6zm323.2 0h6v10.5h-6zm-242.7 0h6v10.5h-6zm40.8 0h6v10.5h-6zm41.3 0h6v10.5h-6zm38.8 0h6v10.5h-6zm41.3 0h6v10.5h-6zm40.4 0h6v10.5h-6zm119.7 0h6v10.5h-6zm-38.8 0h6v10.5h-6zm-808.9 0h6v10.5h-6z" fill="#d90000"/><path d="m-68.8 162.6h6v10.5h-6zm160.5 0h6v10.5h-6zm-283.7 0h6v10.5h-6zm81.5 0h6v10.5h-6zm80.9 0h6v10.5h-6zm40 0h6v10.5h-6zm40.9 0h6v10.5h-6zm80.4 0h6v10.5h-6zm203 0h6.1v10.5h-6zm-162.1 0h6v10.5h-6zm40 0h6v10.5h-6zm40.5 0h6v10.5h-6zm40.4 0h6v10.5h-6zm323.2 0h6v10.5h-6zm-242.7 0h6v10.5h-6zm40.8 0h6v10.5h-6zm41.3 0h6v10.5h-6zm38.8 0h6v10.5h-6zm41.3 0h6v10.5h-6zm40.4 0h6v10.5h-6zm119.7 0h6v10.5h-6zm-38.8 0h6v10.5h-6zm-808.9 0h6v10.5h-6z" fill="#239e3f"/></g><g fill="#da0000"><path d="m279.8 197.5c8.4 10.4 34.5 67.6-15.7 105.2-23.7 17.8-9 18.6-8.3 21.6 38-20.1 50.3-47.5 50-72-.2-24.4-13.2-46-26-54.8z"/><path d="m284.8 194.8a73.3 73.3 0 0 1 15.7 112.4c27.2-6 62-86.4-15.7-112.4zm-57.6 0a73.3 73.3 0 0 0 -15.6 112.4c-27.3-6-62-86.4 15.6-112.4z"/><path d="m232.2 197.5c-8.4 10.4-34.5 67.6 15.7 105.2 23.6 17.8 9 18.6 8.3 21.6-38-20.1-50.3-47.5-50-72 .2-24.4 13.2-46 26-54.8z"/><path d="m304.2 319.1c-14.9.2-33.6-2-47.5-9.3 2.3 4.5 4.2 7.3 6.5 11.7 13.2 1.3 31.5 2.8 41-2.4zm-95 0c14.9.2 33.6-2 47.5-9.3-2.3 4.5-4.2 7.3-6.5 11.7-13.2 1.3-31.5 2.8-41-2.4zm27.3-138.7c3 8 10.9 9.2 19.3 4.5 6.2 3.6 15.7 3.9 19-4.1 2.5 19.8-18.3 15-19 11.2-7.8 7.5-22.2 3.2-19.3-11.6z"/><path d="m256.4 331.6 7.8-9 1.1-120.1-9.3-8.2-9.3 7.8 1.9 121z"/></g></g></svg>