<svg xmlns="http://www.w3.org/2000/svg" id="flag-icons-je" viewBox="0 0 640 480">
  <path fill="#fff" d="M0 0h640v480H0Z"/>
  <path d="m1.3-2.4 637.4 484.8m-637.4 0L638.7-2.4" color="#000" style="-inkscape-stroke:none" transform="matrix(.99998 0 0 .99028 0 2.3)"/>
  <path fill="#cf142b" d="M0-2.4v29.2L280.5 240 0 453.3v29h44L320 270l275.8 212.4H640V453L359.5 240 640 26.7v-29h-44L320 209.8 44-2.4Z" color="#000" style="-inkscape-stroke:none" transform="matrix(.99998 0 0 .99028 0 2.3)"/>
  <path fill="#cf142b" stroke="maroon" stroke-miterlimit="140.8" stroke-width=".5" d="M364.2 65c10.8 44 4.8 98.2-44.2 128.4-49-30.2-55-84.4-44.2-128.4 11.6-10.5 64.2-17 88.4 0z"/>
  <path fill="gold" stroke="#806600" stroke-miterlimit="135.2" stroke-width=".2" d="M295.1 91a6.6 6.6 0 0 1-2.4-.4 6 6 0 0 1-1.4-2 10.4 10.4 0 0 1-2.7.2 7.2 7.2 0 0 1-2.1-1.2 4 4 0 0 0 2.2-.9 10.7 10.7 0 0 1-2.5-.5c-.8-.4-1.5-.8-2.1-1.3.8-.2 1.6-.2 2.1-.8l-2.4-.3a8.4 8.4 0 0 1-1.7-1.3c.8 0 1.6-.3 2.2-1a8.2 8.2 0 0 1-2.3-.1 11.8 11.8 0 0 1-2.4-1.6 4.6 4.6 0 0 0 2.6-.8l-.6-1c-.6-1.2-1.8-.7-2.7-1.1a2.4 2.4 0 0 1-1.4-1.8c0-.9.4-2.3 2.4-2-1-1.6.1-2.7 1.2-3.2 1-.4 2-.2 2.7 1.5a5.6 5.6 0 0 1 1.4-.8 1.5 1.5 0 0 1 1.8.6v1.2c-.3.6-1 1-1 1.8-.3.8.5 2.4.5 2.4s4 3.2 5.7 4.8l2.8 3h4.1l.3 6.6H295z"/>
  <path fill="#377bc8" stroke="#2c5aa0" stroke-miterlimit="135.2" stroke-width=".2" d="M284.2 69.2a2.4 2.4 0 0 1 .7 2.4c.2.3.5.5 1 .4a1 1 0 0 0 .7-1.3c-.4-.3-.5-1.1-2.4-1.6zm-4.5.5a4.6 4.6 0 0 0-1.1.1 2.4 2.4 0 0 1 1.6 2c.3.1.8.1 1-.1a1 1 0 0 0 .2-1.5c-.4 0-.8-.5-1.6-.5zm-1.3 4.2c-.5.1-1.2-.4-2.7.8a2.4 2.4 0 0 1 2.3 1c.3 0 .7-.1.9-.4a1 1 0 0 0-.5-1.4z"/>
  <path fill="gold" stroke="#806600" stroke-miterlimit="135.2" stroke-width=".2" d="M317.6 94c-.6-.2-1.5-1-2.2-1a2 2 0 0 0-1.7 1 1.8 1.8 0 0 0 .4 1.5l1.3.8a4.4 4.4 0 0 0-1 1.6 1.6 1.6 0 0 0 .6 1.1c.4.5.6.8 1.2.8a6.6 6.6 0 0 0 1.5-.1 2.4 2.4 0 0 0 .1 1.1 2.3 2.3 0 0 0 2.1 1.1 1.4 1.4 0 0 0 1.2-.6c.3-.4.3-1.4.7-1.9l1.9-1.6c.8.4.8 1.2.6 2a6.9 6.9 0 0 0 1.6-1.4 7 7 0 0 0 .5-1.8 2 2 0 0 1 .8 2 7.8 7.8 0 0 0 1.6-1.2 6 6 0 0 0 .8-2c.6.7.8 1.6.5 2.3a6.4 6.4 0 0 0 1.7-1.6 7.2 7.2 0 0 0 .4-1.6c1.6.1 2.8-.6 2.8-1.4 0-.5-.6-1.3-1.9-1.6a7 7 0 0 1-.6-1.2 1.8 1.8 0 0 1 0-1.1 4.8 4.8 0 0 1 1.5-2 18.4 18.4 0 0 1 2.8-1.5l-.6-2.9-6.5-1-7.4 1.8c1.4.6 4.3 2.7 4.1 3.5 0 .3-.7.6-1 1-.2.2 0 .8.2 1 .2.4 1 .5 1.3.9.2.3.2.8 0 1-.5.7-2.2 1-3 1.3l-4 2.1a5.5 5.5 0 0 1-2.2-.4z"/>
  <path fill="gold" stroke="#806600" stroke-miterlimit="135.2" stroke-width=".2" d="M333.1 85.1s-.1 2.4-1.1 3a1.8 1.8 0 0 1-1.4.1 1.8 1.8 0 0 1-1-1l-.3-1.1a9.4 9.4 0 0 0-2.3-.7c-1.2 0-2.4.3-3.6.6a8 8 0 0 1 2.7-3.2l3.9-.3z"/>
  <path fill="gold" d="M343.6 69.4c1.1-.1 3.4-.6 4.2-1.3l1.4-1.4c-.2 2.3-1.4 3.7-3.8 4.7a13.8 13.8 0 0 1-6.2.8 28.2 28.2 0 0 1-3.8-.8c1.4 1.4.7 2.4-1 3 0 0 .2-1.3-.2-1.5-1-.4-2.4.1-3.5.8a6.9 6.9 0 0 1-3 .6 8 8 0 0 1-3.6-.5c-.8-.2-2.3-1.3-2.8-1.2-1.4.2-3 .4-3.7 1.4-.2.3-.2.8 0 1.2a4 4 0 0 0 2.6 1.5c2.8.6 5.6.7 8.4.3l9.6-1.9c3-.5 6.8-1.4 9-1.9a34.2 34.2 0 0 1 8.9-1c5.3.1 7 2.8 6.9 5.6-.2 2.8-3.3 4.1-6 5-4.8 1.4-11.4.6-15.6.4l2 1.6c.8.6 1.2 1.8 2 2 1.3.4 3.2-.4 4.5-.4 1.9-.2 5 0 5 0a3 3 0 0 1 1.3-.8 2.4 2.4 0 0 1 1.2 0c.6.2 1 .8.8 2 .2.2.5.5 1 .6h1.7l1.6.8-1.5.5a3.1 3.1 0 0 0-.7.7c.7 0 1.3 0 2 .3a3.8 3.8 0 0 1 1.2 1 2.9 2.9 0 0 0-1.3.2 6 6 0 0 0-.8.6s1.6-.1 2.2.3l1.1 1.2a6.6 6.6 0 0 0-1.3 0l-.8.4a5.6 5.6 0 0 1 1.6 1.2c.4.4.5 1 .6 1.6a8 8 0 0 0-1.1-.6 2.9 2.9 0 0 0-.8 0l.2 2.2c0 .6 1 1.2 1 1.6a1 1 0 0 1-.1 1.2 2.2 2.2 0 0 1-2.2.7 3 3 0 0 1-1-.6 5 5 0 0 1-.9 1c-.5.4-.6.4-1.3.4a2 2 0 0 1-1.3-.5 4.3 4.3 0 0 1-.7-1.6l-1.6.3a2.2 2.2 0 0 1-1.5-.7 1.6 1.6 0 0 1 .3-1.8c.4-.4 1.6-.5 2.2-.8a5 5 0 0 0 1.6-1.3 38 38 0 0 1-3.8-3 25.6 25.6 0 0 1-1.6-2.1s-3.4 1-4.7 1a26 26 0 0 1-6.4 0c-4.8 0-8-6.6-12.3-8.2a5 5 0 0 0-3.3 0c-5 1-10.4 6.8-15.3 8-2.1.4-4.3.6-6.4.7a5.6 5.6 0 0 1-1.3 1.7 7.2 7.2 0 0 1-2.6.5 8.3 8.3 0 0 1-1 2.3 7.1 7.1 0 0 1-2 1.3 3.3 3.3 0 0 0 0-2.3 9 9 0 0 1-1.5 2 12 12 0 0 1-2.2 1.1c.2-.6.5-1.3 0-2.1a7.7 7.7 0 0 1-1.2 1.8c-.6.5-1.3.8-2 1a2.4 2.4 0 0 0 0-2.3 6.9 6.9 0 0 1-1.2 1.9 12.2 12.2 0 0 1-2.6 1.3 3.7 3.7 0 0 0 .4-2.4h-1.2c-1.5 0-1.6 1.3-2.3 1.9a2.7 2.7 0 0 1-2.4.4c-.8-.4-1.7-1.4-.5-3-2 .2-3-1-3-2.2 0-1 .3-1.9 2.4-1.8a4 4 0 0 1-.2-1.4 1.4 1.4 0 0 1 1.5-1.2c.4 0 .8.3 1.2.6.4.4.5 1.1 1.2 1.6.8.6 2.7.5 2.7.5a50.2 50.2 0 0 1 6.2-2.8c1.3-.4 5-1 5-1V81a86.9 86.9 0 0 1 13 1.1l5.2-.3s8.4-1.3 12.4-1.7c2-.2 4-.3 6.1-.2 3 .2 5.6.9 8.6 1 2.1.3 4.3.4 6.4.3 3.5-.2 9.7 0 11.7-3a2 2 0 0 0-.6-2.6 3.1 3.1 0 0 0-3-.8c-.8.1-1.6.6-1.7 1.2a1.4 1.4 0 0 0 .3 1.1c.2.4.6.7 1.1.9a3.8 3.8 0 0 1-2.2-.3 6.4 6.4 0 0 1-1.4-2.2 2 2 0 0 0-.5 1.5c0 .6.2 1.2.7 1.6a4.2 4.2 0 0 1-2.4-.8 6.8 6.8 0 0 1-.9-2.2 2.4 2.4 0 0 0-.8 1.6c0 .6.3 1 .5 1.7a5 5 0 0 1-2.2-1.2 6.4 6.4 0 0 1-.7-2.2l-9 1.8-9.5 1.6a24 24 0 0 1-11.3-.8c-1.6-.8-2.4-1.3-2.8-2.7a3.2 3.2 0 0 1 1-2.7 9.8 9.8 0 0 1 5-2.6 76.3 76.3 0 0 1 8.8-1.6 33.6 33.6 0 0 1 9.5.4c1.4.2 3-.1 3.3-.6.4-.4 1-.8.2-1.8.8 0 1.4.5 1.8 1.2.3.4 0 1.6 0 1.6z"/>
  <path fill="none" stroke="#806600" stroke-miterlimit="135.2" stroke-width=".2" d="M343.6 69.4c1.1-.1 3.4-.6 4.2-1.3l1.4-1.4c-.2 2.3-1.4 3.7-3.8 4.7a13.8 13.8 0 0 1-6.2.8 28.2 28.2 0 0 1-3.8-.8c1.4 1.4.7 2.4-1 3 0 0 .2-1.3-.2-1.5-1-.4-2.4.1-3.5.8a6.9 6.9 0 0 1-3 .6 8 8 0 0 1-3.6-.5c-.8-.2-2.3-1.3-2.8-1.2-1.4.2-3 .4-3.7 1.4-.2.3-.2.8 0 1.2a4 4 0 0 0 2.6 1.5c2.8.6 5.6.7 8.4.3l9.6-1.9c3-.5 6.8-1.4 9-1.9a34.2 34.2 0 0 1 8.9-1c5.3.1 7 2.8 6.9 5.6-.2 2.8-3.3 4.1-6 5-4.8 1.4-11.4.6-15.6.4l2 1.6c.8.6 1.2 1.8 2 2 1.3.4 3.2-.4 4.5-.4 1.9-.2 5 0 5 0a3 3 0 0 1 1.3-.8 2.4 2.4 0 0 1 1.2 0c.6.2 1 .8.8 2 .2.2.5.5 1 .6h1.7l1.6.8-1.5.5a3.1 3.1 0 0 0-.7.7c.7 0 1.3 0 2 .3a3.8 3.8 0 0 1 1.2 1 2.9 2.9 0 0 0-1.3.2 6 6 0 0 0-.8.6s1.6-.1 2.2.3l1.1 1.2a6.6 6.6 0 0 0-1.3 0l-.8.4a5.6 5.6 0 0 1 1.6 1.2c.4.4.5 1 .6 1.6a8 8 0 0 0-1.1-.6 2.9 2.9 0 0 0-.8 0l.2 2.2c0 .6 1 1.2 1 1.6a1 1 0 0 1-.1 1.2 2.2 2.2 0 0 1-2.2.7 3 3 0 0 1-1-.6c-.2.4-.5.7-.9 1a1.8 1.8 0 0 1-1.3.5 2 2 0 0 1-1.3-.6 4.3 4.3 0 0 1-.7-1.6l-1.6.3a2.2 2.2 0 0 1-1.5-.7 1.6 1.6 0 0 1 .3-1.8c.4-.4 1.6-.5 2.2-.8a5 5 0 0 0 1.6-1.3 38 38 0 0 1-3.8-3 25.6 25.6 0 0 1-1.6-2.1s-3.4 1-4.7 1a26 26 0 0 1-6.4 0c-4.8 0-8-6.6-12.3-8.2a5 5 0 0 0-3.3 0c-5 1-10.4 6.8-15.3 8-2.1.4-4.3.6-6.4.7a5.6 5.6 0 0 1-1.3 1.7 7.2 7.2 0 0 1-2.6.5 8.3 8.3 0 0 1-1 2.3 7.1 7.1 0 0 1-2 1.3 3.3 3.3 0 0 0 0-2.4 9 9 0 0 1-1.5 2 12 12 0 0 1-2.2 1.2c.2-.6.5-1.3 0-2.1a7.7 7.7 0 0 1-1.2 1.8c-.6.5-1.3.8-2 1a2.4 2.4 0 0 0 0-2.3 6.9 6.9 0 0 1-1.2 1.9 12.2 12.2 0 0 1-2.6 1.3 3.7 3.7 0 0 0 .4-2.4h-1.2c-1.5 0-1.6 1.3-2.3 1.9a2.7 2.7 0 0 1-2.4.4c-.8-.4-1.7-1.4-.5-3-2 .2-3-1-3-2.2 0-1 .3-1.9 2.4-1.8a4 4 0 0 1-.2-1.4 1.4 1.4 0 0 1 1.5-1.2c.4 0 .8.3 1.2.6.4.4.5 1.1 1.2 1.6.8.6 2.7.5 2.7.5a50.2 50.2 0 0 1 6.2-2.8c1.3-.4 5-1 5-1V81a86.9 86.9 0 0 1 13 1.1l5.2-.3s8.4-1.3 12.4-1.7c2-.2 4-.3 6.1-.2 3 .2 5.6.9 8.6 1 2.1.3 4.3.4 6.4.3 3.5-.2 9.7 0 11.7-3a2 2 0 0 0-.6-2.6 3.1 3.1 0 0 0-3-.8c-.8.1-1.6.6-1.7 1.2 0 .4 0 .8.3 1 .3.4.6.7 1.1 1 0 0-1.7 0-2.4-.4a4.6 4.6 0 0 1-1.2-2.1 2 2 0 0 0-.5 1.5c0 .6.2 1.2.7 1.6a4.2 4.2 0 0 1-2.4-.8 6.8 6.8 0 0 1-.9-2.2 2.4 2.4 0 0 0-.8 1.6c0 .6.3 1 .5 1.7a5 5 0 0 1-2.2-1.2 6.4 6.4 0 0 1-.7-2.2l-9 1.8-9.5 1.6a22 22 0 0 1-11.3-1c-1.6-.6-2.4-1.1-2.8-2.5a3.2 3.2 0 0 1 1-2.8 9.8 9.8 0 0 1 5-2.5 76.3 76.3 0 0 1 8.8-1.6 33.6 33.6 0 0 1 9.4.4c1.4.2 3-.1 3.4-.6.4-.4 1-.8.1-1.8a2 2 0 0 1 1.8 1.2c.3.4 0 1.6 0 1.6z"/>
  <path fill="gold" d="M307.6 82.3c1 .7 2-.1 2.2-.2a2.6 2.6 0 0 1-.8-1.1 7.1 7.1 0 0 1-.2-2c0-1.6.6-1.9.6-1.8a7.4 7.4 0 0 0 1.6-.7 2.4 2.4 0 0 0 .7-1.5 5.1 5.1 0 0 0-.2-1.9c-1.6 0-2 .1-2.4.6a7.2 7.2 0 0 0-.2-1.6 4.8 4.8 0 0 0-.6-1.2 2.2 2.2 0 0 0-.5-.6c0 .5-.4.8-.6 1.1a6.6 6.6 0 0 0-.6-2.1 6.2 6.2 0 0 0-1.2-1 6.2 6.2 0 0 0-1.5.2 6.6 6.6 0 0 0-1.6 1.6 2.4 2.4 0 0 1 .1-1.3c-.2 0-.5 0-.8.2a4.8 4.8 0 0 0-1.1.7 7.2 7.2 0 0 0-1 1.2c0-.7-.4-1-1.7-1.9a5.1 5.1 0 0 0-1.2 1.6 2.4 2.4 0 0 0-.2 1.6c.2.6.6 1 1 1.5 0-.1.4.5-.5 1.8a7.2 7.2 0 0 1-1.3 1.5 2.6 2.6 0 0 1-1.3.5c.3.9.4 1.3 1.8 1.5-3 2.2-3.4 5.7-1 8.7a6.9 6.9 0 0 1 .9-1.5 4.3 4.3 0 0 0 1 2.6c.2.3.4 2 .8 2.4l1 1s.3-1.3.9-1.5l2-.6c.9-.3 2.1-1.9 2.1-1.9l-.2 2c4-1.4 5-4.2 4-7.9"/>
  <path fill="#504416" d="M299.8 77.4a8.2 8.2 0 0 1-.8 4l2.5 1 2.7.4c-.3-1.1.8-3.2 1.3-3.8h-1.9l-.8-.8-1.6.3z"/>
  <path fill="#fff" d="M300.2 78a3.2 3.2 0 0 0 0 2l.8-1.6zm3.8 1.2-.2 1.8a3.2 3.2 0 0 0 1-1.7zm-3.8 1.3a3.2 3.2 0 0 0-1 1.7h.9zm3.3.9-.7 1.6.6.4a3.2 3.2 0 0 0 .1-2m-3-8.6c-.5 0-.8.2-1 .6 0 .4.3 1 1 1.2a1.4 1.4 0 0 0 1.7-.7c.2-.5-.4-.8-1.2-1a2.6 2.6 0 0 0-.5-.1m5.4 1.6c-.4 0-.6 0-.8.4a1.4 1.4 0 0 0 1.1 1.4c.8.3 1.4 0 1.6-.5.1-.6-.4-1-1-1.2z"/>
  <path fill="#d1b948" d="M300.5 72.6a1.5 1.5 0 0 0-.5.1.8.8 0 0 0-.6.6c0 .3 0 .6.2.9.2.3.6.5.9.6.8.2 1.6 0 1.8-.8a.7.7 0 0 0-.2-.8 2.8 2.8 0 0 0-1-.4 2.6 2.6 0 0 0-.6-.2m0 .4a2.5 2.5 0 0 1 .5 0l.8.4c.3 0 .4.4.3.5a1.2 1.2 0 0 1-1.5.7 1.4 1.4 0 0 1-.8-.6.8.8 0 0 1 0-.6.6.6 0 0 1 .3-.4zm5.4 1.2h-.2a.7.7 0 0 0-.7.5 1.4 1.4 0 0 0 1.2 1.6c.3.2.8.2 1 0 .3 0 .6-.3.6-.6a.8.8 0 0 0-.1-.8 2 2 0 0 0-1-.5zm0 .3.8.1c.3 0 .6.3.8.4.1.2.2.4.1.7a.8.8 0 0 1-.5.5h-.9a1.2 1.2 0 0 1-1-1.4c0-.2.2-.2.5-.3z"/>
  <path fill="gold" d="M300.6 71.7a1.3 1.3 0 0 0-1 .2c-.2.2-.2.7-.2.7h.4l.7.1 1.3.6h1.5l-1.2-.7c-.5-.2-1-.8-1.6-1zm7 2c-.6-.2-1.1 0-1.6 0l-1.4-.1 1.2.8 1.5.2.6.2.4.3.3-.6a1.3 1.3 0 0 0-1-.8m-8.6 7.7c-1.3 3.5 4 5.2 4.8 1.4a11 11 0 0 1-4.8-1.4"/>
  <path fill="#806600" d="m299 81.1-.2.3a2.7 2.7 0 0 0 0 2.4 2.8 2.8 0 0 0 5.4-.8v-.4h-.3a10.7 10.7 0 0 1-4.8-1.3zm.1.4A14 14 0 0 0 304 83a3.2 3.2 0 0 1-1.1 1.7 3.5 3.5 0 0 1-2.2.2 3.5 3.5 0 0 1-1.6-1.4 2.6 2.6 0 0 1 0-1.9z"/>
  <path fill="#377bc8" stroke="#2c5aa0" stroke-miterlimit="135.2" stroke-width=".2" d="M301.3 78.4a15.2 15.2 0 0 0-.8 7.2c1.6-1.8 2.4-4.2 3-6.4 0-.2-.4-.3-.5-.4l-.4-.6a3.4 3.4 0 0 1-.7.4 2 2 0 0 1-.6-.1z"/>
  <path fill="gold" d="M305.4 68.2a6.2 6.2 0 0 0-1.5.3 6.6 6.6 0 0 0-1.6 1.6 2.4 2.4 0 0 1 0-1.3c-.2 0-.5 0-.7.2a4.8 4.8 0 0 0-1.2.7 7.2 7.2 0 0 0-1 1.1c.4 0 1.6-1 2-.9.4 0 .2 1 .5 1.1.5 0 1-.8 1.6-1.2a3 3 0 0 1 1.6-.8 2.4 2.4 0 0 1 1 1.6c.3.8.5 1.6.9 1.9.3.1.6-.8 1-.8.5.2.7 1.7 1.1 2a7.2 7.2 0 0 0-.2-1.6 4.8 4.8 0 0 0-.7-1.2 2.2 2.2 0 0 0-.5-.6c0 .4-.4.8-.6 1.1a6.6 6.6 0 0 0-.5-2.1 6.2 6.2 0 0 0-1.2-1zm-6.5 5.7c-.6 1 0 2 1.2 2.1l-.4 1.1.6 1.3 1.2.4 1-.4.9 1 1 .2 1.3-.8.5-.9h.8l.8-.4.2-.9a2.3 2.3 0 0 1-2.6.4 2 2 0 0 1-.5 1.4 1 1 0 0 1-1 .2 2.3 2.3 0 0 1-1.2-1c-.5.3-.8.6-1.2.5a1.4 1.4 0 0 1-1-1 1.6 1.6 0 0 1 .5-1.4c-2.4-.7-1.6-1.4-2.2-1.8zm-1.3.3a19.8 19.8 0 0 1-2 2.8 2.6 2.6 0 0 1-1.3.5c.3.9.4 1.3 1.8 1.5-3 2.2-3.4 5.7-1 8.7a6.9 6.9 0 0 1 .9-1.5 4.3 4.3 0 0 0 1 2.6c.2.3.4 2 .8 2.4l1 1s.3-1.3.9-1.5l2-.6c.9-.3 2.1-1.9 2.1-1.9l-.1 2c4-1.4 5-4.2 3.9-7.9 1 .7 2-.1 2.2-.2a2.6 2.6 0 0 1-.8-1.2 7.8 7.8 0 0 1-.2-2l-.2-1.1-.5 1.7v1.8a5.4 5.4 0 0 1-1.9-1 31.2 31.2 0 0 1 .8 4c0 .9-.1 1.8-.4 2.7a7 7 0 0 1-1.7 1.7 20.2 20.2 0 0 0 .3-2.4c0-.8-.4-3-.4-3a16.5 16.5 0 0 1-.8 3l-1.3 2c.3-2.1.2-2.2-.1-3 0 0-.5 2.6-1.5 3.7a8 8 0 0 1-1.6.8 1.8 1.8 0 0 0-.8.6l-.6-1.8a20.9 20.9 0 0 1-1.2-2.4c-.3-1.2 1.3-3.6 1.3-3.6-.6 0-1.2.7-1.9 1.4a18.2 18.2 0 0 0-1.3 1.8 16 16 0 0 1-.5-2.4 4.5 4.5 0 0 1 .7-2.2 21.6 21.6 0 0 1 3.4-3.3 4.5 4.5 0 0 1-3 0s1.3-1.3 1.4-1.6a4.3 4.3 0 0 0 .6-2zm5.2 1.2h-1.3v.6l.6.2.8 1 1.7-.5.3-.4a6.5 6.5 0 0 0-1.6-.9 2.5 2.5 0 0 0-.5 0"/>
  <path fill="none" stroke="#806600" stroke-miterlimit="135.2" stroke-width=".2" d="M307.6 82.3c1 .7 2-.1 2.2-.2a2.6 2.6 0 0 1-.8-1.1 7.1 7.1 0 0 1-.2-2c0-1.6.6-1.9.6-1.8a7.4 7.4 0 0 0 1.6-.7 2.4 2.4 0 0 0 .7-1.5 5.1 5.1 0 0 0-.2-1.9c-1.6 0-2 .1-2.4.6a7.2 7.2 0 0 0-.2-1.6 4.8 4.8 0 0 0-.6-1.2 2.2 2.2 0 0 0-.5-.6c0 .5-.4.8-.6 1.1a4 4 0 0 0-1.8-3.2c-1.4 0-2.2.8-3.2 1.8a2.4 2.4 0 0 1 .2-1.2 2.2 2.2 0 0 0-.8.2 4.8 4.8 0 0 0-1.1.7 7.2 7.2 0 0 0-1 1.2c0-.7-.4-1-1.7-1.9a5.1 5.1 0 0 0-1.2 1.6 2.4 2.4 0 0 0-.2 1.6c.2.6.6 1 1 1.5 0-.1.4.5-.5 1.8a7.2 7.2 0 0 1-1.3 1.5 2.6 2.6 0 0 1-1.3.5c.3.9.4 1.3 1.8 1.5-3 2.2-3.4 5.7-1 8.7a6.9 6.9 0 0 1 .9-1.5 4.3 4.3 0 0 0 1 2.6c.2.3.4 2 .8 2.4l1 1s.3-1.3.9-1.5l2-.6c.9-.3 2.1-1.9 2.1-1.9l-.2 2c4-1.4 5-4.2 4-7.9z"/>
  <path fill="#806600" d="M297.8 70.2a3.2 3.2 0 0 0-.6 1.6 6.4 6.4 0 0 0 1 1.7l.4-2.4c0-.4-.8-1-.8-1Zm2.1 2.1a.8.8 0 0 0-.3.1c-.2.2-.4.2-.6.6l.8-.4a.4.4 0 0 1 .3 0c.4.4.8.5 1.2.7a4.9 4.9 0 0 0 1.9 0 2.7 2.7 0 0 1-.2.8s-.7.2-1 .5a8.6 8.6 0 0 0-.3.4 1 1 0 0 0-.3.3v.8h.2c.4.1.8.5.8 1l.2.2a.5.5 0 0 0 .3 0h.4c.3-.3.8-.4 1.3-.3h.1l.1-.1c.2-.2.2-.3.2-.6V76a7.5 7.5 0 0 0-.1-.6l-.4-1 .1-.9a5 5 0 0 0 1.6 1.2l1.4.1.3.2.5.6c0-.3 0-.6-.2-.8-.1-.2-.3-.2-.5-.2-.4-.2-1 0-1.3-.2a4 4 0 0 1-1.5-1l-.3-.2-.1.2-.3 1.2.4 1.2a6.2 6.2 0 0 1 .1.7v.1a2.2 2.2 0 0 0-1.7.5h-.1a2.6 2.6 0 0 0-1.2-1.3v-.3l.1-.2.4-.3c.2-.3.8-.5 1-.8.2-.3.3-.7.3-1v-.4h-.3a3.6 3.6 0 0 1-1.8.2l-1.2-.6a.8.8 0 0 0-.3 0zm-1 1.4a1.6 1.6 0 0 0-.3 1.7c.3.4.7.7 1.2.8l-.1.2-.2.8c.1.6.4 1 .8 1.4a1.8 1.8 0 0 0 1.3.4 1.8 1.8 0 0 0 .8-.4l.6.8a1.8 1.8 0 0 0 1.3.3 1.8 1.8 0 0 0 1.8-1.5v-.1a1.6 1.6 0 0 0 1.4-.2c.4-.4.7-1 .7-1.6-.4.3 0 .8-1 1.4a1.1 1.1 0 0 1-1.1 0l-.4-.3v1a2.2 2.2 0 0 1-.3.5c-.3.3-.8.5-1.2.5a1.4 1.4 0 0 1-.8-.2 2 2 0 0 1-.6-.8v-.5l-.3.3-.5.3a1.4 1.4 0 0 1-.5.1 1.4 1.4 0 0 1-.9-.3 2 2 0 0 1-.8-1.2l.2-.5a1.4 1.4 0 0 1 .2-.4l.2-.4h-.4a1.4 1.4 0 0 1-1-.6c-.6-.6 0-1-.1-1.5m12 .2s-1 0-1.3.4a8.8 8.8 0 0 0-.8 2.3 6.4 6.4 0 0 0 1.6-1 3.2 3.2 0 0 0 .5-1.7"/>
  <path fill="#2b2200" d="M301 73.1a.6.6 0 0 0-.2 1.1.6.6 0 1 0 .2-1zm5.4 1.6a.6.6 0 0 0-.2 1 .6.6 0 1 0 .2-1"/>
  <path fill="#377bc8" stroke="#2c5aa0" stroke-miterlimit="135.2" stroke-width=".2" d="M280.2 91.5c-.5.3-1.2-.2-2.7 1a2.4 2.4 0 0 1 2.4 1c.3 0 .7-.2.8-.6a1 1 0 0 0-.5-1.4zm33.9 1.6c-.5.3-1.2-.2-2.7 1a2.4 2.4 0 0 1 2.4 1 1 1 0 0 0 .8-.5 1 1 0 0 0-.5-1.5zm-36.4 2c-.4.3-1.2.2-2.1 1.9a2.4 2.4 0 0 1 2.6 0c.3-.2.5-.6.5-1a1 1 0 0 0-1-1zm37 2.6c-.4.4-1.2.3-1.9 2a2.4 2.4 0 0 1 2.5-.2c.4-.1.5-.5.5-.8a1 1 0 0 0-1.2-1zM280.1 99a1.3 1.3 0 0 0-.6.2c-.2.5-.9.8-.8 2.7a2.4 2.4 0 0 1 2.2-1.3c.2-.3.3-.7 0-1a1 1 0 0 0-.8-.6zm73.8.3h-.5c-.1.5-1 .8-1.1 2.7a2.4 2.4 0 0 1 2.4-1c.2-.4.2-.8.2-1.1a1 1 0 0 0-1-.6zm-35.2 1.2a1.3 1.3 0 0 0-.6.3c0 .5-.8.8-.5 2.7a2.4 2.4 0 0 1 2-1.4c.2-.4.2-.8 0-1a1 1 0 0 0-.8-.6zm43.8.2a1 1 0 0 0-1 .6c.2.5-.3 1.2.8 2.7a2.4 2.4 0 0 1 1.1-2.3 1 1 0 0 0-.5-1 1.3 1.3 0 0 0-.4 0zm-4.8.6c-.2 0-.4.1-.7.4 0 .4-.6 1 .1 2.8a2.4 2.4 0 0 1 1.7-2 1 1 0 0 0-.3-1 1 1 0 0 0-.8-.2z"/>
  <path fill="gold" stroke="#806600" stroke-miterlimit="128.6" stroke-width=".2" d="M295.2 127a6.2 6.2 0 0 1-2.2-.3 5.8 5.8 0 0 1-1.5-1.8 9 9 0 0 1-2.5 0 6.8 6.8 0 0 1-2-1 3.8 3.8 0 0 0 2.1-1 10.2 10.2 0 0 1-2.4-.3 11.2 11.2 0 0 1-2-1.3c.7-.2 1.5-.2 2-.8a8.8 8.8 0 0 1-2.1-.3 8 8 0 0 1-1.8-1.2 2.9 2.9 0 0 0 2.2-1 7.8 7.8 0 0 1-2.3-.2 11.2 11.2 0 0 1-2.2-1.5 4.4 4.4 0 0 0 2.4-.6l-.5-1c-.6-1.2-1.8-.8-2.6-1.1a2.2 2.2 0 0 1-1.3-1.6c-.1-.9.3-2.2 2.3-2-1-1.4 0-2.5 1-3 1-.4 2-.2 2.6 1.4a5.3 5.3 0 0 1 1.4-.8 1.4 1.4 0 0 1 1.6.6c.2.4.2.8 0 1.2-.2.5-.8.8-1 1.6-.2.8.6 2.4.6 2.4s3.8 3 5.5 4.6l2.6 2.7h3.8l.3 6.3z"/>
  <path fill="#377bc8" stroke="#2c5aa0" stroke-miterlimit="128.6" stroke-width=".2" d="M284.8 106.3a2.4 2.4 0 0 1 .6 2.3c.3.4.6.4 1 .4a1 1 0 0 0 .6-1.2c-.4-.4-.4-1-2.2-1.5zm-4.2.5a4.4 4.4 0 0 0-1.2 0 2.4 2.4 0 0 1 1.6 2 1 1 0 0 0 1 0 1 1 0 0 0 0-1.5c-.2 0-.6-.5-1.4-.5zm-1.3 4c-.5 0-1.1-.3-2.6.8a2.4 2.4 0 0 1 2.2 1c.4 0 .8-.2.9-.5a1 1 0 0 0-.5-1.3z"/>
  <path fill="gold" stroke="#806600" stroke-miterlimit="128.6" stroke-width=".2" d="M316.6 130c-.6-.2-1.4-1.1-2.1-1.1a2 2 0 0 0-1.6 1 1.7 1.7 0 0 0 .4 1.4l1.2.9a4.2 4.2 0 0 0-.8 1.4 1.4 1.4 0 0 0 .5 1.1c.4.5.4.7 1.2.8a6.2 6.2 0 0 0 1.2-.1c0 .3 0 .8.3 1a2.2 2.2 0 0 0 1.9 1c.5 0 1-.1 1.2-.5.2-.4.2-1.4.6-1.8l1.8-1.6c.8.5.7 1.1.6 1.9a6.6 6.6 0 0 0 1.5-1.2 5.5 5.5 0 0 0 .5-1.9 2 2 0 0 1 .8 2 7.4 7.4 0 0 0 1.6-1.2l.7-1.7a2.2 2.2 0 0 1 .4 2 6 6 0 0 0 1.6-1.6 6.9 6.9 0 0 0 .5-1.4c1.6 0 2.5-.6 2.6-1.3 0-.5-.6-1.3-1.8-1.5a6.6 6.6 0 0 1-.7-1.2 1.6 1.6 0 0 1 0-1.1 4.6 4.6 0 0 1 1.5-1.8 17.4 17.4 0 0 1 2.7-1.6l-.6-2.6-6.2-1-7 1.7c1.3.6 4.1 2.6 4 3.4-.2.2-.9.5-1.1.8-.2.4 0 .8.2 1 .3.5 1 .6 1.2.9a.8.8 0 0 1 0 1c-.4.7-2 .9-2.8 1.2l-3.8 2a5.2 5.2 0 0 1-2.2-.4z"/>
  <path fill="gold" stroke="#806600" stroke-miterlimit="128.6" stroke-width=".2" d="M331.4 121.4s-.1 2.3-1 2.8a1.7 1.7 0 0 1-1.5.3 1.8 1.8 0 0 1-.8-1.1l-.3-1a9 9 0 0 0-2.3-.7 13.3 13.3 0 0 0-3.3.6 7.7 7.7 0 0 1 2.4-3l3.8-.3z"/>
  <path fill="gold" d="M341.4 106.5c1-.1 3.2-.6 4-1.2l1.2-1.3c-.1 2-1.2 3.4-3.6 4.4a13.1 13.1 0 0 1-5.9.7 26.8 26.8 0 0 1-3.5-.8c1.3 1.5.6 2.4-1 3 0 0 .3-1.3-.2-1.5-1-.4-2.2.2-3.4.8a6.5 6.5 0 0 1-2.8.6 9.1 9.1 0 0 1-3.4-.5c-.8-.2-2.2-1.3-2.7-1.2-1.3.3-2.8.4-3.5 1.4a1.1 1.1 0 0 0 0 1.2 4 4 0 0 0 2.5 1.3c2.6.6 5.3.7 8 .3 2.8-.4 6.2-1.2 9-1.7l8.8-2a32.6 32.6 0 0 1 8.4-.7c5 0 6.6 2.5 6.5 5.1-.2 2.8-3.2 4-5.8 4.8-4.6 1.4-10.8.6-14.7.5l1.9 1.4c.7.6 1 1.7 2 2 1.1.3 3-.4 4.2-.5l4.8.1c.2-.3.7-.6 1.2-.8a2.4 2.4 0 0 1 1 0c.6.2 1 .8.8 1.9a1.8 1.8 0 0 0 .9.5c.6.2 1.3 0 1.7.2l1.5.6-1.5.6a3 3 0 0 0-.6.6 7.6 7.6 0 0 1 2 .3c.3.2.7.5 1 1a2.7 2.7 0 0 0-1.2 0 5.7 5.7 0 0 0-.8.7s1.6-.1 2.2.3l1 1a6.3 6.3 0 0 0-1.2.2 4 4 0 0 0-.8.3 5.4 5.4 0 0 1 1.6 1.1 3.7 3.7 0 0 1 .5 1.6 7.6 7.6 0 0 0-1-.6 2.8 2.8 0 0 0-.8 0l.2 2.1c0 .5.8 1.1 1 1.5.2.4.1 1-.2 1.2a2.2 2.2 0 0 1-2 .6 3 3 0 0 1-1-.6 4.7 4.7 0 0 1-.8 1c-.4.4-.7.3-1.3.3a1.8 1.8 0 0 1-1.3-.4 4 4 0 0 1-.6-1.5l-1.5.3a2 2 0 0 1-1.4-.7 1.6 1.6 0 0 1 .2-1.7c.4-.5 1.6-.5 2.2-.8a4.8 4.8 0 0 0 1.4-1.2 36 36 0 0 1-3.5-2.9 24.4 24.4 0 0 1-1.6-2l-4.5 1a24.7 24.7 0 0 1-6 0c-4.6 0-7.6-6.3-11.7-7.8a4.8 4.8 0 0 0-3.2 0c-4.8 1-9.9 6.4-14.6 7.6a43.6 43.6 0 0 1-6 .7 5.3 5.3 0 0 1-1.3 1.6c-.8.3-1.6.5-2.4.5a8 8 0 0 1-1 2.1 6.8 6.8 0 0 1-2 1.3c.3-.8.4-1.5 0-2.2a8.6 8.6 0 0 1-1.3 1.9 11.4 11.4 0 0 1-2 1.1c0-.6.3-1.3 0-2a7.3 7.3 0 0 1-1.3 1.7c-.5.4-1.2.8-1.9 1a2.4 2.4 0 0 0 0-2.2 6.5 6.5 0 0 1-1.1 1.7 11.5 11.5 0 0 1-2.4 1.3c.3-.8.5-1.5.3-2.2H286c-1.3 0-1.4 1.1-2.1 1.7a2.6 2.6 0 0 1-2.2.4c-.9-.4-1.7-1.4-.6-3-1.9.3-2.8-.9-2.8-2 0-.9.3-1.8 2.2-1.7a3.8 3.8 0 0 1-.2-1.3 1.4 1.4 0 0 1 1.5-1c.4 0 .8 0 1.1.4.4.4.5 1 1.2 1.6a5.8 5.8 0 0 0 2.6.4 47.7 47.7 0 0 1 5.8-2.6c1.3-.4 4.8-1 4.8-1v-8.7h3.1c2.6 0 9.3 1 9.3 1l4.8-.3s8-1.2 12-1.6a38.6 38.6 0 0 1 5.7-.2c3 .1 5.4.8 8.1 1 2.1.2 4.2.3 6.2.2 3.3-.1 9.2 0 11-3a2 2 0 0 0-.4-2.3 3 3 0 0 0-3-.8c-.6.1-1.5.6-1.5 1.2-.1.4 0 .8.2 1.1l1 .8a3.7 3.7 0 0 1-2-.3 6 6 0 0 1-1.3-2.1 2 2 0 0 0-.5 1.4 2.2 2.2 0 0 0 .7 1.6 4 4 0 0 1-2.3-.8 6.5 6.5 0 0 1-.9-2.1 2.3 2.3 0 0 0-.8 1.5c0 .6.4 1 .6 1.6a4.8 4.8 0 0 1-2-1.1 6.2 6.2 0 0 1-.9-2.1l-8.5 1.6a101 101 0 0 1-9 1.6c-4.6.6-8 .3-10.8-.8-1.5-.6-2.2-1.2-2.6-2.4a3 3 0 0 1 .8-2.7 9.4 9.4 0 0 1 4.8-2.4 72.6 72.6 0 0 1 8.4-1.6 32 32 0 0 1 9 .5c1.4.1 2.8-.2 3.2-.6.4-.4 1-.8.2-1.8.7 0 1.3.5 1.6 1.2.3.4 0 1.6 0 1.6z"/>
  <path fill="gold" stroke="#806600" stroke-miterlimit="128.6" stroke-width=".2" d="M341.4 106.5c1-.1 3.2-.6 4-1.2l1.2-1.3c-.1 2-1.2 3.4-3.6 4.4a13.1 13.1 0 0 1-5.9.7 26.8 26.8 0 0 1-3.5-.8c1.3 1.5.6 2.4-1 3 0 0 .3-1.3-.2-1.5-1-.4-2.2.2-3.4.8a6.5 6.5 0 0 1-2.8.6 9.1 9.1 0 0 1-3.4-.5c-.8-.2-2.2-1.3-2.7-1.2-1.3.3-2.8.4-3.5 1.4a1.1 1.1 0 0 0 0 1.2 4 4 0 0 0 2.5 1.3c2.6.6 5.3.7 8 .3 2.8-.4 6.2-1.2 9-1.7l8.8-2a32.6 32.6 0 0 1 8.4-.7c5 0 6.6 2.5 6.5 5.1-.2 2.8-3.2 4-5.8 4.8-4.6 1.4-10.8.6-14.7.5l1.9 1.4c.7.6 1 1.7 2 2 1.1.3 3-.4 4.2-.5l4.8.1c.2-.3.7-.6 1.2-.8a2.4 2.4 0 0 1 1 0c.6.2 1 .8.8 1.9a1.8 1.8 0 0 0 .9.5c.6.2 1.3 0 1.7.2l1.5.6-1.5.6a3 3 0 0 0-.6.6 7.6 7.6 0 0 1 2 .3c.3.2.7.5 1 1a2.7 2.7 0 0 0-1.2 0 5.7 5.7 0 0 0-.8.7s1.6-.1 2.2.3l1 1a6.3 6.3 0 0 0-1.2.2 4 4 0 0 0-.8.3 5.4 5.4 0 0 1 1.6 1.1 3.7 3.7 0 0 1 .5 1.6 7.6 7.6 0 0 0-1-.6 2.8 2.8 0 0 0-.8 0l.2 2.1c0 .5.8 1.1 1 1.5.2.4.1 1-.2 1.2a2.2 2.2 0 0 1-2 .6 3 3 0 0 1-1-.6 4.7 4.7 0 0 1-.8 1 1.7 1.7 0 0 1-1.3.5 1.8 1.8 0 0 1-1.3-.6 4 4 0 0 1-.6-1.5l-1.5.3a2 2 0 0 1-1.4-.7 1.6 1.6 0 0 1 .2-1.7c.4-.5 1.6-.5 2.2-.8a4.8 4.8 0 0 0 1.4-1.2 36 36 0 0 1-3.5-2.9 24.4 24.4 0 0 1-1.6-2l-4.5 1a24.7 24.7 0 0 1-6 0c-4.6 0-7.6-6.3-11.7-7.8a4.8 4.8 0 0 0-3.2 0c-4.8 1-9.9 6.4-14.6 7.6a43.6 43.6 0 0 1-6 .7 5.3 5.3 0 0 1-1.3 1.6 6.8 6.8 0 0 1-2.4.5 8 8 0 0 1-1 2.1 6.8 6.8 0 0 1-2 1.3c.3-.8.4-1.5 0-2.2a8.6 8.6 0 0 1-1.3 1.9 11.4 11.4 0 0 1-2 1.1c0-.6.3-1.3 0-2a7.3 7.3 0 0 1-1.3 1.7c-.5.4-1.2.8-1.9 1a2.4 2.4 0 0 0 0-2.2 6.5 6.5 0 0 1-1.1 1.7 11.5 11.5 0 0 1-2.4 1.3c.3-.8.5-1.5.3-2.2H286c-1.3 0-1.4 1.1-2.1 1.7a2.6 2.6 0 0 1-2.2.4c-1-.4-1.7-1.4-.6-3-1.9.3-2.8-.9-2.8-2 0-.9.3-1.8 2.2-1.7a3.8 3.8 0 0 1-.2-1.3 1.4 1.4 0 0 1 1.5-1c.4 0 .8 0 1.1.4.4.4.5 1 1.2 1.6a5.8 5.8 0 0 0 2.6.4 47.7 47.7 0 0 1 5.8-2.6c1.3-.4 4.8-1 4.8-1v-8.7h3.1c2.6 0 9.3 1 9.3 1l4.8-.3s8-1.2 12-1.6a38.6 38.6 0 0 1 5.7-.2c3 .1 5.4.8 8.1 1 2.1.2 4.2.3 6.2.2 3.3-.1 9.2 0 11-3a2 2 0 0 0-.4-2.3 3 3 0 0 0-3-.8c-.6.1-1.5.6-1.5 1.2a1.2 1.2 0 0 0 .2 1l1 .9a4.9 4.9 0 0 1-2.2-.4 4.4 4.4 0 0 1-1.1-2 2 2 0 0 0-.5 1.4 2.2 2.2 0 0 0 .7 1.6 4 4 0 0 1-2.3-.8 6.5 6.5 0 0 1-.9-2.1 2.3 2.3 0 0 0-.8 1.5c0 .6.4 1 .6 1.6a4.8 4.8 0 0 1-2-1.1 6.2 6.2 0 0 1-.9-2.1l-8.5 1.6a101 101 0 0 1-9 1.6c-4.6.6-8 .3-10.8-.8-1.5-.6-2.2-1.2-2.6-2.4a3 3 0 0 1 .8-2.7 9.4 9.4 0 0 1 4.8-2.4 72.6 72.6 0 0 1 8.4-1.6 32 32 0 0 1 9 .5c1.4.1 2.8-.1 3.2-.6.4-.4 1-.8.2-1.8.7 0 1.3.5 1.6 1.2.3.4 0 1.6 0 1.6z"/>
  <path fill="gold" d="M307 118.8c1 .6 2-.2 2.3-.2a2.5 2.5 0 0 1-.8-1.2 6.8 6.8 0 0 1-.3-1.8c0-1.6.5-1.8.6-1.6a7 7 0 0 0 1.4-.8c.4-.3.7-.8.8-1.3a4.8 4.8 0 0 0-.2-1.9c-1.5 0-1.8.2-2.2.6a6.9 6.9 0 0 0-.3-1.5 4.6 4.6 0 0 0-.5-1.2 2 2 0 0 0-.6-.5c0 .4-.3.8-.6 1a6.4 6.4 0 0 0-.4-2 1.6 1.6 0 0 0-2.6-.8 6.4 6.4 0 0 0-1.6 1.5 2.2 2.2 0 0 1 .2-1.2 2 2 0 0 0-.8.2 4.6 4.6 0 0 0-1 .7 6.9 6.9 0 0 0-1.1 1.1c0-.6-.3-1-1.6-1.7a4.8 4.8 0 0 0-1.1 1.6 2.4 2.4 0 0 0-.1 1.4 7 7 0 0 0 .8 1.4c.1 0 .5.4-.4 1.7a6.8 6.8 0 0 1-1.2 1.4c-.4.3-.8.5-1.3.5.4.8.5 1.2 1.8 1.4-3 2-3.2 5.4-1 8.3.2-.5.5-1 .9-1.4a4 4 0 0 0 .8 2.5c.3.3.5 1.8.8 2.3l1 1s.3-1.3.9-1.5l2-.6a7.4 7.4 0 0 0 2-1.7l-.3 1.8c3.8-1.3 4.8-4 3.7-7.5"/>
  <path fill="#504416" d="M299.6 114a7.8 7.8 0 0 1-.8 4l2.6 1 2.4.2c-.2-1 .8-3 1.2-3.6h-1.7l-.8-.8-1.5.3-1.4-1z"/>
  <path fill="#fff" d="M300 114.7a3 3 0 0 0 0 1.9l.7-1.6zm3.6 1.1-.2 1.7a3 3 0 0 0 1-1.6h-.8zM300 117a3 3 0 0 0-.9 1.6l.7.1zm3.2 1-.8 1.5.7.3a3 3 0 0 0 0-1.9zm-2.9-8.2c-.5 0-.8.1-.9.4-.1.5.3 1 1 1.3a1.3 1.3 0 0 0 1.6-.6c0-.6-.4-.8-1.1-1zm5.2 1.4c-.4 0-.6.2-.8.4a1.3 1.3 0 0 0 1 1.4c.9.3 1.3 0 1.5-.5.2-.5-.2-.9-1-1.1a3.2 3.2 0 0 0-.8-.2z"/>
  <path fill="#d1b948" d="M300.3 109.6a1.4 1.4 0 0 0-.4 0 .8.8 0 0 0-.5.6c-.1.3 0 .6.1.8.2.4.5.5.8.6a1.4 1.4 0 0 0 1.8-.8.6.6 0 0 0-.3-.6 2.7 2.7 0 0 0-1-.5 2.4 2.4 0 0 0-.5 0zm0 .2.5.1.8.4a.4.4 0 0 1 .2.5 1.2 1.2 0 0 1-1.4.6 1.4 1.4 0 0 1-.7-.4.7.7 0 0 1-.2-.7.6.6 0 0 1 .4-.4zm5.2 1.3a1.6 1.6 0 0 0-.2 0 .6.6 0 0 0-.7.5 1.4 1.4 0 0 0 1.2 1.6 1.6 1.6 0 0 0 1 0c.2-.2.5-.4.6-.7a.8.8 0 0 0-.3-.8 2 2 0 0 0-.8-.4 3.3 3.3 0 0 0-.8-.2m0 .3.7.1c.3 0 .5.2.8.4l.1.6a.7.7 0 0 1-.5.4 1.4 1.4 0 0 1-.8 0 1.2 1.2 0 0 1-1-1.2c0-.3.2-.3.5-.3z"/>
  <path fill="gold" d="M300.4 108.6a1.2 1.2 0 0 0-1 .3c-.2.1-.2.6-.2.6h.6l.5.2 1.3.5h1.4l-1.2-.6c-.4-.2-.8-.9-1.4-1m6.6 2c-.4-.2-1 .1-1.5 0l-1.3-.1 1.2.8 1.4.2.6.2.4.2.2-.5a1.2 1.2 0 0 0-1-.8m-8 7.4c-1.4 3.2 3.8 4.8 4.6 1.3a10.5 10.5 0 0 1-4.6-1.3"/>
  <path fill="#806600" d="M298.8 117.6v.3a2.6 2.6 0 0 0 0 2.3 2.6 2.6 0 0 0 5-.8v-.3h-.2a10.2 10.2 0 0 1-4.6-1.3l-.2-.1zm.2.5a13.3 13.3 0 0 0 4.5 1.2 3.1 3.1 0 0 1-1 1.7 3 3 0 0 1-2 .2 3.4 3.4 0 0 1-1.6-1.4 2.5 2.5 0 0 1 0-1.7z"/>
  <path fill="#377bc8" stroke="#2c5aa0" stroke-miterlimit="128.6" stroke-width=".2" d="M301.1 115.2a14.4 14.4 0 0 0-.8 6.7c1.6-1.6 2.4-4 2.9-6.1l-.5-.4a6.5 6.5 0 0 1-.3-.5 3.2 3.2 0 0 1-.7.3 2 2 0 0 1-.6 0z"/>
  <path fill="gold" d="M305 105.4a6 6 0 0 0-1.4.2 6.3 6.3 0 0 0-1.6 1.5 2.2 2.2 0 0 1 0-1.2c-.2 0-.4 0-.6.2a4.6 4.6 0 0 0-1.2.7 6.9 6.9 0 0 0-1 1c.6 0 1.7-1 2-.8.4 0 0 1 .5 1s.9-.6 1.5-1.1c.5-.5 1.2-.8 1.6-.7a2.4 2.4 0 0 1 .9 1.4c.2.8.4 1.6.8 1.8.3.2.6-.8 1-.7.4.2.6 1.6 1 1.9a6.9 6.9 0 0 0-.2-1.5 4.6 4.6 0 0 0-.6-1.2 2 2 0 0 0-.5-.5c0 .4-.4.8-.6 1a6.4 6.4 0 0 0-.5-2 6 6 0 0 0-1.1-1m-6.3 5.5c-.5.8.2 1.7 1.3 1.9l-.5 1 .7 1.2 1 .4 1.1-.4.7 1 1 .2 1.3-.8.5-.8h.8l.6-.4.2-.8c-.6.6-1.6.8-2.4.4a2 2 0 0 1-.4 1.3 1 1 0 0 1-1 .2 2.2 2.2 0 0 1-1.1-.9c-.5.2-.8.5-1.1.4a1.4 1.4 0 0 1-1-1 1.5 1.5 0 0 1 .4-1.3c-2.4-.7-1.6-1.3-2-1.6zm-1.2.2a18.8 18.8 0 0 1-1.8 2.6c-.4.3-.8.5-1.3.5.4.8.5 1.2 1.8 1.4-3 2-3.2 5.4-1 8.3.2-.5.5-1 .9-1.4a4 4 0 0 0 .8 2.5c.3.3.5 1.8.8 2.3l1 1s.3-1.3.9-1.5l2-.6a7.4 7.4 0 0 0 2-1.7l-.3 1.8c3.9-1.3 4.8-4 3.7-7.5 1 .6 2-.2 2.3-.2a2.5 2.5 0 0 1-.8-1.2 7.4 7.4 0 0 1-.3-1.8v-1.1l-.6 1.6a8 8 0 0 0 0 1.7 5.2 5.2 0 0 1-1.8-.8c.4 1.2.6 2.4.8 3.7 0 .8-.2 1.7-.5 2.5a6.6 6.6 0 0 1-1.6 1.7l.3-2.3-.3-2.8a15.7 15.7 0 0 1-.8 2.7l-1.2 2c.1-2 0-2.2-.2-2.9 0 0-.5 2.5-1.3 3.6a7.5 7.5 0 0 1-1.6.7 1.7 1.7 0 0 0-.7.6l-.6-1.7a19.8 19.8 0 0 1-1.2-2.2c-.3-1.2 1.2-3.6 1.2-3.6-.6 0-1.1.7-1.7 1.4a17.4 17.4 0 0 0-1.3 1.6 15.2 15.2 0 0 1-.5-2.2c0-.8.3-1.5.7-2.1.6-1 3.3-3 3.3-3a4.2 4.2 0 0 1-2.8 0l1.2-1.7a4.2 4.2 0 0 0 .5-1.9m5 1.1h-1.2v.5l.5.3.8 1 1.6-.5.3-.4a6.2 6.2 0 0 0-1.5-.8 2.4 2.4 0 0 0-.4 0z"/>
  <path fill="none" stroke="#806600" stroke-miterlimit="128.6" stroke-width=".2" d="M307 118.8c1 .6 2-.2 2.3-.2a2.5 2.5 0 0 1-.8-1.2 6.8 6.8 0 0 1-.3-1.8c0-1.6.5-1.8.6-1.6a7 7 0 0 0 1.4-.8c.4-.3.7-.8.8-1.3a4.8 4.8 0 0 0-.2-1.9c-1.5 0-1.8.2-2.2.6a6.9 6.9 0 0 0-.3-1.5 4.6 4.6 0 0 0-.5-1.2 2 2 0 0 0-.6-.5c0 .4-.3.8-.6 1a3.8 3.8 0 0 0-1.6-3c-1.3 0-2.1.7-3 1.7a2.2 2.2 0 0 1 0-1.2 2 2 0 0 0-.6.2 4.6 4.6 0 0 0-1 .7 6.9 6.9 0 0 0-1.1 1.1c0-.6-.3-1-1.6-1.7a4.8 4.8 0 0 0-1.1 1.6 2.4 2.4 0 0 0-.1 1.4 7 7 0 0 0 .8 1.4c.1 0 .5.4-.4 1.7a6.8 6.8 0 0 1-1.2 1.4c-.4.3-.8.5-1.3.5.4.8.5 1.2 1.8 1.4-3 2-3.2 5.4-1 8.3.2-.5.5-1 .9-1.4a4 4 0 0 0 .8 2.5c.3.3.5 1.8.8 2.3l1 1s.3-1.3.9-1.5l2-.6a7.4 7.4 0 0 0 2-1.7l-.3 1.8c3.8-1.3 4.8-4 3.7-7.5z"/>
  <path fill="#806600" d="M297.7 107.2a3.1 3.1 0 0 0-.5 1.6 6 6 0 0 0 .9 1.6l.5-2.2c-.1-.4-.8-1-.8-1zm2 2a.8.8 0 0 0-.3.2c-.2.1-.4.1-.4.4l.7-.2a.3.3 0 0 1 .2 0l1.2.6h1.9l-.3.8-.9.4-.4.4-.2.4v.6h.2a1 1 0 0 1 .8.9l.2.2a.5.5 0 0 0 .2.1h.4a1 1 0 0 1 1.2-.3h.1l.1-.1a1.3 1.3 0 0 0 .3-.6v-.4a7.2 7.2 0 0 0-.2-.4c0-.4-.3-1-.3-1l.1-.8a4.7 4.7 0 0 0 1.5 1.1l1.3.1c.2 0 .3 0 .3.2l.4.5a.8.8 0 0 0-.1-.8l-.5-.2-1.3-.1a3.8 3.8 0 0 1-1.4-1l-.2-.2-.1.2a2 2 0 0 0-.4 1.2l.4 1a5.8 5.8 0 0 1 .2.7 1 1 0 0 1-.2.3 2.2 2.2 0 0 0-1.5.4h-.1a2.5 2.5 0 0 0-1.2-1.3v-.3l.2-.1c0-.2.2-.3.3-.3.3-.3.8-.5.9-.8.2-.3.4-.6.4-1v-.3h-.3a3.4 3.4 0 0 1-1.6.1c-.4 0-.8-.4-1.2-.5a.8.8 0 0 0-.3 0zm-.9 1.4a1.5 1.5 0 0 0-.2 1.6c.2.4.6.7 1 .8v.1c-.2.3-.2.6-.2.8 0 .6.4 1 .8 1.3.3.3.8.5 1.2.4a1.7 1.7 0 0 0 .8-.2l.5.6c.4.2.8.4 1.3.3a1.8 1.8 0 0 0 1.6-1.4v-.2a1.5 1.5 0 0 0 1.4-.1 1.6 1.6 0 0 0 .6-1.5c-.3.3 0 .8-.8 1.3-.4.2-.8.2-1.1 0l-.4-.3v.9l-.3.5a1.6 1.6 0 0 1-1 .6 1.4 1.4 0 0 1-1-.3 1.8 1.8 0 0 1-.4-.7l-.2-.5-.2.3-.4.2-.5.2c-.3 0-.7 0-.8-.3a2 2 0 0 1-.7-1.2v-.5c0-.2.1-.3.3-.4l.1-.3h-.4a1.4 1.4 0 0 1-1-.5c-.5-.7 0-1 0-1.5m11.4.2s-1 0-1.2.4a8.3 8.3 0 0 0-.8 2 6 6 0 0 0 1.6-.7c.3-.6.4-1.1.4-1.6z"/>
  <path fill="#2b2200" d="M300.8 110a.5.5 0 0 0-.2 1.1.5.5 0 1 0 .1-1zm5.1 1.6a.5.5 0 0 0-.1 1 .5.5 0 1 0 .1-1"/>
  <path fill="#377bc8" stroke="#2c5aa0" stroke-miterlimit="128.6" stroke-width=".2" d="M281 127.6c-.5.2-1.2-.2-2.5 1a2.4 2.4 0 0 1 2.2.8 1 1 0 0 0 .8-.5 1 1 0 0 0-.5-1.3zm32.3 1.5c-.5.2-1.1-.2-2.5 1a2.4 2.4 0 0 1 2.2.9c.4 0 .8-.3.8-.6a1 1 0 0 0-.5-1.3zm-34.7 1.8c-.4.3-1.2.2-2 1.8a2.4 2.4 0 0 1 2.4 0c.4-.1.6-.5.6-.8a1 1 0 0 0-1-1zm35.2 2.5c-.3.4-1 .4-1.8 2a2.4 2.4 0 0 1 2.4-.2 1 1 0 0 0 .6-.8 1 1 0 0 0-1.2-1zm-32.8 1.4a1.2 1.2 0 0 0-.5.2c-.2.4-.9.8-.8 2.5a2.4 2.4 0 0 1 2-1.2 1 1 0 0 0 .1-1 1 1 0 0 0-.8-.5zm70.2.2h-.4c-.2.6-1 .8-1 2.6a2.4 2.4 0 0 1 2.1-1c.3-.3.3-.7.3-1a1 1 0 0 0-1-.6zm-33.4 1.2a1.2 1.2 0 0 0-.6.3c0 .5-.8.8-.5 2.6a2.4 2.4 0 0 1 2-1.4 1 1 0 0 0 0-1 1 1 0 0 0-.9-.5zm41.6.2a1 1 0 0 0-1 .6c.2.4-.2 1 .9 2.5a2.4 2.4 0 0 1 1-2.1.9.9 0 0 0-.5-1 1.2 1.2 0 0 0-.4 0zm-4.4.5a1.1 1.1 0 0 0-.8.4c0 .5-.6 1 .1 2.6a2.4 2.4 0 0 1 1.6-1.7c.1-.4 0-.8-.2-1a1 1 0 0 0-.8-.3z"/>
  <path fill="gold" stroke="#806600" stroke-miterlimit="103.2" stroke-width=".2" d="M303.1 158.7a5 5 0 0 1-1.7-.3 4.6 4.6 0 0 1-1.2-1.4h-2a5.4 5.4 0 0 1-1.6-.8 3.1 3.1 0 0 0 1.6-.8 8.2 8.2 0 0 1-1.9-.3 9 9 0 0 1-1.6-1c.6-.2 1.2-.1 1.6-.7a7 7 0 0 1-1.7-.2 6.4 6.4 0 0 1-1.5-1 2.3 2.3 0 0 0 1.8-.7 6.3 6.3 0 0 1-1.8-.1 9 9 0 0 1-1.7-1.2 4 4 0 0 0 1.8-.5l-.4-.8c-.4-1-1.4-.7-2-.9a1.8 1.8 0 0 1-1.1-1.4c0-.7.3-1.7 1.8-1.6-.8-1 0-2 .9-2.4.8-.2 1.5-.1 2 1.2a4.2 4.2 0 0 1 1.2-.7 1.1 1.1 0 0 1 1.4.6v.9c-.3.4-.8.7-.8 1.3a3.7 3.7 0 0 0 .4 1.9s3 2.4 4.4 3.7c.8.7 2 2.2 2 2.2h3l.3 5z"/>
  <path fill="#377bc8" stroke="#2c5aa0" stroke-miterlimit="103.2" stroke-width=".2" d="M294.8 142c.5.6.7 1.3.5 2a.8.8 0 0 0 .8.2.8.8 0 0 0 .5-1c-.4-.2-.4-.8-1.8-1.1zm-3.4.5a3.5 3.5 0 0 0-.8 0 2 2 0 0 1 1.2 1.6.8.8 0 0 0 .8-.1.8.8 0 0 0 0-1.1c-.3 0-.5-.4-1.2-.4zm-1 3.2a3 3 0 0 0-2 .6 2 2 0 0 1 1.7.8c.2 0 .5 0 .6-.4a.8.8 0 0 0-.3-1z"/>
  <path fill="gold" stroke="#806600" stroke-miterlimit="103.2" stroke-width=".2" d="M318 161c-.6-.1-1.3-.8-1.8-.8a1.6 1.6 0 0 0-1.3.8 1.4 1.4 0 0 0 .3 1.2l1 .6a3.4 3.4 0 0 0-.7 1.2c0 .3.1.6.4.9.3.4.4.5.9.6l1.1-.1c0 .3 0 .6.2.8a1.8 1.8 0 0 0 1.6.8c.3.1.7 0 .9-.4.2-.3.1-1 .5-1.4l1.4-1.3c.6.4.6.9.5 1.5a5.3 5.3 0 0 0 1.2-1c.2-.4.4-.9.4-1.4.5.4.8 1 .6 1.6a6 6 0 0 0 1.2-1 6 6 0 0 0 .6-1.4c.4.4.6 1 .4 1.6a4.8 4.8 0 0 0 1.3-1.2l.3-1.2c1.3 0 2.1-.4 2.1-1 .1-.5-.4-1-1.4-1.2a5.4 5.4 0 0 1-.5-1 1.4 1.4 0 0 1 0-.8 3.7 3.7 0 0 1 1.2-1.5 14 14 0 0 1 2.2-1.3l-.5-2.1-5-.8-5.7 1.4c1 .4 3.4 2 3.2 2.7 0 .2-.5.4-.8.8-.2.1 0 .4.1.8.3.2.8.3 1 .6a.6.6 0 0 1 0 .8c-.3.5-1.6.7-2.3 1-1 .4-3 1.6-3 1.6a4.2 4.2 0 0 1-1.7-.4z"/>
  <path fill="gold" stroke="#806600" stroke-miterlimit="103.2" stroke-width=".2" d="M328 154.2s0 1.9-.7 2.3c-.4.2-.8.3-1.2.1a1.4 1.4 0 0 1-.7-.8l-.2-.8a7.2 7.2 0 0 0-1.8-.5c-1 0-1.8.1-2.7.5a6.2 6.2 0 0 1 2-2.5l3-.3 2.4 2z"/>
  <path fill="gold" d="M333.8 142.2c.8 0 2.2-.4 2.7-1l.8-1a4 4 0 0 1-2.3 3.6 7.3 7.3 0 0 1-4 .5 15.1 15.1 0 0 1-2.4-.5c1 1 .5 1.8-.6 2.4 0 0 .2-1-.2-1.2-.6-.4-1.4 0-2.1.5-.6.3-1.2.6-2 .6a5.1 5.1 0 0 1-2.2-.4c-.5-.3-1.4-1-1.7-1-.8.2-2 .3-2.4 1v1a2.5 2.5 0 0 0 1.6 1.1c1.8.5 3.6.5 5.3.2 2-.3 4.2-1 6.1-1.4 2-.4 4.3-1 5.8-1.5a18 18 0 0 1 5.6-.6c3.2 0 4.4 2 4.3 4.1-.2 2.2-2.2 3.2-3.9 3.8-3 1.1-7.2.5-9.7.4l1.3 1.2c.4.4.6 1.4 1.2 1.6.8.2 2-.3 2.8-.4a29.3 29.3 0 0 1 3.2 0 2 2 0 0 1 .8-.6h.8c.3.1.5.6.4 1.5l.6.5h1.1l1 .6a5.6 5.6 0 0 0-.9.4 2.2 2.2 0 0 0-.5.6l1.3.1.8.8a1.6 1.6 0 0 0-.8.1 4 4 0 0 0-.6.6s1-.1 1.5.2l.6.8a3.4 3.4 0 0 0-.8 0l-.5.4a3.6 3.6 0 0 1 1 .9c.2.4.3.8.3 1.3a5 5 0 0 0-.6-.5 1.6 1.6 0 0 0-.6-.1l.2 1.8c0 .4.6.8.7 1.2.2.3 0 .7-.2 1-.2.4-.8.6-1.3.4a2 2 0 0 1-.7-.4l-.4.8c-.4.2-.5.2-1 .2a1 1 0 0 1-.7-.4 3.7 3.7 0 0 1-.5-1.2l-1 .3c-.4 0-.8-.3-1-.6a1.4 1.4 0 0 1 .2-1.3c.3-.4 1-.4 1.5-.6a4 4 0 0 0 1-1 25.3 25.3 0 0 1-2.5-2.4l-1-1.6s-2 .8-2.9.8a13.6 13.6 0 0 1-4 0c-3.1 0-5.1-5-7.8-6.2a2.6 2.6 0 0 0-2.1 0c-3.2.7-6.6 5.1-9.6 6a24 24 0 0 1-4 .6 4.3 4.3 0 0 1-.9 1.3 3.8 3.8 0 0 1-1.6.3 7.2 7.2 0 0 1-.6 1.8 4.4 4.4 0 0 1-1.3 1 3 3 0 0 0 0-1.7 7 7 0 0 1-1 1.4 7.2 7.2 0 0 1-1.3 1 2.4 2.4 0 0 0 0-1.6 6.2 6.2 0 0 1-.8 1.3 5.2 5.2 0 0 1-1.3.8 2.2 2.2 0 0 0 0-1.7 5.5 5.5 0 0 1-.7 1.3 7.2 7.2 0 0 1-1.6 1 3.4 3.4 0 0 0 .2-1.8h-.8c-1 0-1 1-1.4 1.5a1.5 1.5 0 0 1-1.5.3c-.6-.2-1-1.1-.4-2.3a1.6 1.6 0 0 1-1.9-1.6c0-.8.3-1.5 1.5-1.5a3.7 3.7 0 0 1 0-1c0-.6.4-1 .8-.9.4 0 .6.2.8.4.3.3.4.8.8 1.2a3.2 3.2 0 0 0 1.7.4 29.4 29.4 0 0 1 4-2.1 31 31 0 0 1 3.1-.8v-7c.7 0 1.4.2 2 0 2.1.2 4.2.5 6.2.9l3.2-.3s5.4-1 7.8-1.2c1.3-.3 2.6-.3 3.9-.3 1.9.2 3.6.8 5.4.8 1.4.3 2.7.3 4 .3 2.3-.2 6.2 0 7.4-2.4a2 2 0 0 0-2.3-2.6c-.4.2-1 .5-1 1 0 .3 0 .6.2.8.1.3.4.5.7.8a2 2 0 0 1-1.4-.4 5.2 5.2 0 0 1-.9-1.6 1.8 1.8 0 0 0-.3 1.2c0 .4.1.8.4 1.2a2.4 2.4 0 0 1-1.5-.7 5.8 5.8 0 0 1-.6-1.6c-.2.3-.4.7-.4 1.1 0 .5.1 1 .3 1.4a3 3 0 0 1-1.4-1 5.7 5.7 0 0 1-.5-1.6l-5.6 1.3-6 1.3c-3 .4-5.3.2-7.2-.7a2.6 2.6 0 0 1-1.6-2 2.7 2.7 0 0 1 .5-2.1 6 6 0 0 1 3.2-2 40.7 40.7 0 0 1 5.5-1.2 17.6 17.6 0 0 1 6 .3c.8.3 1.5 0 2-.4a1 1 0 0 0 .2-1.4c.5 0 .9.5 1 1a2.5 2.5 0 0 1 0 1.1"/>
  <path fill="gold" d="M337.4 140.2a9.2 9.2 0 0 1-1.6 2.1 6.8 6.8 0 0 1-3 1.1 10.7 10.7 0 0 1-3-.2 13.3 13.3 0 0 1-2.8-.9 5.6 5.6 0 0 1 .8 1.8 3.8 3.8 0 0 0-1.6-.1l-1.6.8c-.8.2-1.8 0-2.4-.2-.8-.1-1-.4-1.7-.3l-.7.3 2.1 1.2 2 .3 1.3-.3 1.4-.8 1.2-.1.3.5v.8l.8-.8.1-.5-.2-1 1.6.3 1.8.2 2-.4 1.8-.8.9-1.1zm5.2 5.4a2.6 2.6 0 0 0-1.3.5 2.2 2.2 0 0 0-.6 1.7 16.4 16.4 0 0 1-.8-2.1c-.8.8-.8 1.8-1 2.7a15.4 15.4 0 0 1-.8-2.5 4.8 4.8 0 0 0-1.4 2.3 4.8 4.8 0 0 1-.5-2h-.2c-2.6.4-8.2 2.3-12.6 2.7-2.4.2-5.2 0-6.7-1a3 3 0 0 1-1.3-2l-.2 1 .8 1.3 1.6 1 3 .7 3.4-.4 2-.1 10-2.4v1.3l.8.8.8.5-.2-1.1v-.8l.4-.5.5 1.4.7.6 1 .2-.5-.7v-.9l.3-.8.5 1.3.5.5h1.3l-.8-.7-.2-.8.6-.7 1.1-.3 1 .4.6.7.2 1-.1.8c1.7-1.6 0-3.6-2-3.6zm3.4 1.6a4.5 4.5 0 0 1-1.1 2.8c-3 3.3-9.8 2.2-13 1.1l-1.4-.2a15.5 15.5 0 0 0-.8-.3 8 8 0 0 0-2-.3 21.2 21.2 0 0 0-3.9.3c-2.4.2-7.8 1.2-7.8 1.2l-3.2.3a45.6 45.6 0 0 0-6.2-.8 9.5 9.5 0 0 1-2 0v1.1l2.8.6h-.4l-1.9 3.6-.4-1.6-.1 2.5-.4.7-2.4.6-2.4 1-1.8 1.4-1.8-.5-.8-1.3c.1.7.4 1.3.7 2 .5.5 2 .6 2 .6a30 30 0 0 1 3.3-2l1.6-.6a4.4 4.4 0 0 0 1.6 1.2c0-1.6 1-1.6 2.4-2.4v1s2.7-1 3.4-1.8a4.9 4.9 0 0 0 1.1-1.9 5 5 0 0 0 .1-2.1 62.6 62.6 0 0 0 1.8 0c2.7-.1 5.6-1.3 8.2-1.6 2-.4 4.5-.8 6.4-.4 1.6.3 2.2 1 3.6 2 1.2.8 2.4 3.2 4 3.2 0 0 .9 0 1.4-.2.8 0 1.3-.4 2-.5a12.2 12.2 0 0 1 2.4.2c.7-1 1-1 1.2-.8.4.2.4.8.1 1.3a2.2 2.2 0 0 0 1.9.8c-.4.4-.8.8-1 1.3a2.6 2.6 0 0 1 1.7.3 3.3 3.3 0 0 0-.8 1.2 5 5 0 0 1 1.6.3c-.4.2-.8.4-.8.8l1.3 1c-.6 0-.8 0-1 .3l.9 1.7-.2-1.6.6.2c.2 0 .5.2.6.5a3.4 3.4 0 0 0-.2-1.3 3.6 3.6 0 0 0-1-.9l.4-.3h.8a6.4 6.4 0 0 0-.6-.9c-.4-.3-1.5-.2-1.5-.2a4 4 0 0 1 .6-.6 1.6 1.6 0 0 1 .8 0 2.6 2.6 0 0 0-.8-.9 4.2 4.2 0 0 0-1.3-.1l.5-.6a5.6 5.6 0 0 1 .9-.4 5.8 5.8 0 0 0-1-.6h-1.1a1.2 1.2 0 0 1-.6-.5c.1-.8-.1-1.3-.4-1.5a1.3 1.3 0 0 0-.8 0c-.4.1-.7.4-.8.7a29.3 29.3 0 0 0-3.2 0c-.8 0-2 .5-2.8.3-.6-.2-.8-1.2-1.2-1.6l-1.3-1.2h2.9l3 .2h1.8c2.2-.6 4.7-1.2 5.7-3.8v-2zm-22.4 5.1a6 6 0 0 0-2.4.5 29.8 29.8 0 0 0-5.1 3.5 25 25 0 0 1-3.2 2 18.4 18.4 0 0 1-4.6.6s-.4 1.6-1 1.9c-.4.3-1.5-.3-1.5-.3l-.1 1.3a5.8 5.8 0 0 1-.5 1.4 4.5 4.5 0 0 0-.3-1 5.2 5.2 0 0 0-.8-1 9.4 9.4 0 0 1-.4 1.4l-.9 1.4a5.2 5.2 0 0 0-.2-.8 8.3 8.3 0 0 0-.8-1.2 13.4 13.4 0 0 1-.4 1.4l-.5 1a4.8 4.8 0 0 0-.2-.5 11.8 11.8 0 0 0-.8-1.2l-.7 1.5-.6.8a2.6 2.6 0 0 0-.2-1.2 1.2 1.2 0 0 0-1-.3c-1 .2-1.5 1.2-2.1 2.1-.2.2-.5.3-.4 0a.8.8 0 0 0 0-.7.6.6 0 0 0-.7-.3c-.4.3.8-1.2.8-1.2a8.6 8.6 0 0 1-1.6-.1c-.4-.1.1 0 .1-.8 0-.9-.8-.8-.5-.8a2.3 2.3 0 0 1 1.3.1s-.4-.4-.2-.8c0-.1.5-.4.6-.8a1.1 1.1 0 0 0-.5-1c-.1.4-.8.2-.8.7v1.1c-1.2 0-1.5.7-1.5 1.5a1.6 1.6 0 0 0 2 1.6c-.9 1.2-.3 2 .3 2.3a1.5 1.5 0 0 0 1.5-.3c.5-.5.5-1.5 1.4-1.5h.8a4 4 0 0 1-.2 1.9 7.2 7.2 0 0 0 1.6-1l.8-1.4a2.2 2.2 0 0 1 0 1.7 5.2 5.2 0 0 0 1.2-.8 6.2 6.2 0 0 0 .8-1.4 2.4 2.4 0 0 1 0 1.7 7.2 7.2 0 0 0 1.3-1 7 7 0 0 0 1-1.4 3 3 0 0 1 0 1.7 4.4 4.4 0 0 0 1.3-1 7.2 7.2 0 0 0 .6-1.7c.6 0 1-.1 1.6-.4a4.3 4.3 0 0 0 .8-1.3 24 24 0 0 0 4-.5c3.2-1 6.5-5.4 9.7-6.2a2.6 2.6 0 0 1 2 0c2.8 1.3 4.9 6.4 7.8 6.4 1.4 0 2.1.3 4 0l3-.9 1 1.6a25.3 25.3 0 0 0 2.4 2.4 3.5 3.5 0 0 1-1 1c-.3.2-1.1.2-1.4.6a1.4 1.4 0 0 0-.1 1.3c.2.3.5.5 1 .6l.9-.3a3.7 3.7 0 0 0 .4 1.2c.2.3.6.4.8.5.4 0 .8 0 1-.4l.4-.8c.2.3.4.4.7.5a1.3 1.3 0 0 0 1.3-.5c.3-.3 0-1.3-.1-1.7a7.8 7.8 0 0 0 0 1.2.8.8 0 0 0-1.5 0 1.4 1.4 0 0 1-.7-.8l-.2 1c-.1.2 0 .6-.3.6 0-1-.7-1-1.2-.8a2 2 0 0 1 0-1 7.2 7.2 0 0 1-1 .5c-.3 0 0-.2-.2-.5 0-.3-.6-.2-.4-.3l1.5-.8a5 5 0 0 0 1-1.4 25.6 25.6 0 0 1-2.5-2.4l-1.5-2.4a26.2 26.2 0 0 1-4.8 1 7.4 7.4 0 0 1-3.4-.4c-1.8-.9-2.8-3.1-4.3-4.3-1-.8-1.9-1.7-3-1.9a2.9 2.9 0 0 0-.4 0"/>
  <path fill="none" stroke="#806600" stroke-miterlimit="103.2" stroke-width=".2" d="M333.8 142.2c.8 0 2.2-.4 2.7-1l.8-1a4 4 0 0 1-2.3 3.6 7.3 7.3 0 0 1-4 .5 15.1 15.1 0 0 1-2.4-.5c1 1 .5 1.8-.6 2.4 0 0 .2-1-.2-1.2-.6-.4-1.4 0-2.1.5-.6.3-1.2.6-2 .6a5.1 5.1 0 0 1-2.2-.4c-.5-.3-1.4-1-1.7-1-.8.2-2 .3-2.4 1v1a2.5 2.5 0 0 0 1.6 1.1c1.8.5 3.6.5 5.3.2 2-.3 4.2-1 6.1-1.4 2-.4 4.3-1 5.8-1.5a18 18 0 0 1 5.6-.6c3.2 0 4.4 2 4.3 4.1-.2 2.2-2.2 3.2-3.9 3.8-3 1.1-7.2.5-9.7.4l1.3 1.2c.4.4.6 1.4 1.2 1.6.8.2 2-.3 2.8-.4a29.3 29.3 0 0 1 3.2 0 2 2 0 0 1 .8-.6h.8c.3.1.5.6.4 1.5l.6.5h1.1l1 .6a5.6 5.6 0 0 0-.9.4 2.2 2.2 0 0 0-.5.6l1.3.1.8.8a1.6 1.6 0 0 0-.8.1 4 4 0 0 0-.6.6s1-.1 1.5.2l.6.8a3.4 3.4 0 0 0-.8 0l-.5.4 1 .9c.2.4.3.8.3 1.3a5 5 0 0 0-.6-.5 1.6 1.6 0 0 0-.6-.1l.2 1.8c0 .4.6.8.7 1.2.2.3 0 .7-.2 1-.2.4-.8.6-1.3.4a2 2 0 0 1-.7-.4l-.4.8a1 1 0 0 1-1 .3 1.2 1.2 0 0 1-.7-.5 3.7 3.7 0 0 1-.5-1.2l-1 .3c-.4 0-.8-.3-1-.6a1.4 1.4 0 0 1 .2-1.3c.3-.4 1-.4 1.5-.6a4 4 0 0 0 1-1 25.3 25.3 0 0 1-2.5-2.4l-1-1.6s-2 .8-2.9.8a13.6 13.6 0 0 1-4 0c-3.1 0-5.1-5-7.8-6.2a2.6 2.6 0 0 0-2.1 0c-3.2.7-6.6 5.1-9.6 6a24 24 0 0 1-4 .6 4.3 4.3 0 0 1-.9 1.3 3.8 3.8 0 0 1-1.6.3 7.2 7.2 0 0 1-.6 1.8 4.4 4.4 0 0 1-1.3 1 3 3 0 0 0 0-1.7 7 7 0 0 1-1 1.4 7.2 7.2 0 0 1-1.3 1 2.4 2.4 0 0 0 0-1.6 6.2 6.2 0 0 1-.8 1.3 5.2 5.2 0 0 1-1.3.8 2.2 2.2 0 0 0 0-1.7 5.5 5.5 0 0 1-.7 1.3 7.2 7.2 0 0 1-1.6 1 3.4 3.4 0 0 0 .2-1.8h-.8c-1 0-1 1-1.4 1.5a1.5 1.5 0 0 1-1.5.3c-.6-.2-1-1.1-.4-2.3a1.6 1.6 0 0 1-1.9-1.6c0-.8.3-1.5 1.5-1.5a3.7 3.7 0 0 1 0-1c0-.6.4-1 .8-.9.4 0 .6.2.8.4.3.3.4.8.8 1.2a3.2 3.2 0 0 0 1.7.4 29.4 29.4 0 0 1 4-2.1 31 31 0 0 1 3.1-.8v-7c.7 0 1.4.2 2 0 2.1.2 4.2.5 6.2.9l3.2-.3s5.4-1 7.8-1.2c1.3-.3 2.6-.3 3.9-.3 1.9.2 3.6.8 5.4.8 1.4.3 2.7.3 4 .3 2.3-.2 6.2 0 7.4-2.4a2 2 0 0 0-2.3-2.6c-.4.2-1 .5-1 1 0 .3 0 .5.2.8l.7.8a2.7 2.7 0 0 1-1.6-.4 3.8 3.8 0 0 1-.7-1.6 1.8 1.8 0 0 0-.3 1.2c0 .4.1.8.4 1.2a2.4 2.4 0 0 1-1.5-.7 5.8 5.8 0 0 1-.6-1.6c-.2.3-.4.7-.4 1.1 0 .5.1 1 .3 1.4a3 3 0 0 1-1.4-1 5.7 5.7 0 0 1-.5-1.6l-5.6 1.3-6 1.3c-3 .4-5.3.2-7.2-.7a2.6 2.6 0 0 1-1.6-2 2.7 2.7 0 0 1 .5-2.1 6 6 0 0 1 3.2-2 40.7 40.7 0 0 1 5.5-1.2 17.6 17.6 0 0 1 6 .3c.8.3 1.5 0 2-.4a1 1 0 0 0 .2-1.4c.5 0 .9.5 1 1 .2.3.1.7 0 1.1z"/>
  <path fill="gold" d="M310.2 152.2c.8.4 1.6-.2 1.8-.3a2 2 0 0 1-.6-.8 5.4 5.4 0 0 1-.3-1.6c0-1.2.5-1.3.5-1.3a5.6 5.6 0 0 0 1.1-.5c.3-.3.6-.7.7-1.1a3.8 3.8 0 0 0-.2-1.5c-1.2 0-1.5 0-1.8.4a5.5 5.5 0 0 0-.2-1.2 3.7 3.7 0 0 0-.5-1 1.6 1.6 0 0 0-.4-.3c0 .3-.2.6-.4.8a5 5 0 0 0-.5-1.6 1.4 1.4 0 0 0-2-.7 5 5 0 0 0-1.2 1.2 1.8 1.8 0 0 1 0-1 1.6 1.6 0 0 0-.5.2 3.7 3.7 0 0 0-.9.6 5.6 5.6 0 0 0-.8.9c0-.5-.2-.8-1.3-1.4a4 4 0 0 0-.9 1.2 1.8 1.8 0 0 0-.1 1.2l.7 1.1s.4.4-.3 1.5a5.4 5.4 0 0 1-1 1 2 2 0 0 1-1 .4c.2.8.3 1 1.3 1.2-2.4 1.6-2.5 4.3-.8 6.6l.8-1.2c0 .8.3 1.5.7 2 .2.3.3 1.6.6 2l.7.7s.4-1 .8-1.1l1.6-.5a6 6 0 0 0 1.6-1.5l-.2 1.6c3.1-1.2 3.8-3.2 3-6"/>
  <path fill="#504416" d="M304.2 148.3a6.2 6.2 0 0 1-.6 3.1l2 .8 2 .3c-.2-.8.6-2.4 1-3h-1.5l-.6-.6-1.1.3-1.2-.8z"/>
  <path fill="#fff" d="M304.6 148.8a2.4 2.4 0 0 0 0 1.5l.5-1.2zm2.8 1-.1 1.3c.3-.4.6-.8.7-1.3zm-2.8 1a2.4 2.4 0 0 0-.8 1.2h.6l.2-1.3zm2.5.6-.6 1.2.5.3a2.4 2.4 0 0 0 0-1.5zm-2.3-6.6c-.4 0-.6 0-.7.4-.1.4.1.8.8 1a1 1 0 0 0 1.2-.5c.1-.4-.3-.7-.8-.8a2 2 0 0 0-.5-.1m4.2 1.2c-.4 0-.6 0-.7.3a1 1 0 0 0 .8 1.1c.7.2 1.1 0 1.2-.4.2-.4-.1-.8-.8-1a2.6 2.6 0 0 0-.5 0"/>
  <path fill="#d1b948" d="M304.8 144.8a1.1 1.1 0 0 0-.3 0 .6.6 0 0 0-.5.5.8.8 0 0 0 .2.6c.1.3.4.4.6.5a1.1 1.1 0 0 0 1.4-.6.6.6 0 0 0-.2-.6 2.2 2.2 0 0 0-.8-.4 2 2 0 0 0-.4 0m0 .2h.4l.6.4c.2 0 .3.1.2.3-.2.5-.7.6-1.1.5a1 1 0 0 1-.6-.4.6.6 0 0 1-.1-.5.4.4 0 0 1 .3-.3zm4.2 1h-.2a.6.6 0 0 0-.6.3 1.1 1.1 0 0 0 1 1.3h.7a.8.8 0 0 0 .5-.6.6.6 0 0 0-.2-.5 1.5 1.5 0 0 0-.6-.4 2.6 2.6 0 0 0-.6-.2zm0 .2h.5c.3 0 .4.2.7.4a.4.4 0 0 1 0 .4.6.6 0 0 1-.4.4h-.6a1 1 0 0 1-.8-1c0-.2.2-.2.4-.2z"/>
  <path fill="gold" d="M304.8 144a1 1 0 0 0-.8.2v.4h.3l.5.2 1 .5 1.2-.1-1-.5c-.4-.1-.7-.7-1.2-.8zm5.4 1.5H308l1 .6 1 .1.6.2.3.2.1-.4a1 1 0 0 0-.8-.7m-6.5 6c-1 2.6 3.1 4 3.7 1a8.4 8.4 0 0 1-3.7-1"/>
  <path fill="#806600" d="M303.6 151.2v.2a2 2 0 0 0 0 1.8 2.2 2.2 0 0 0 4-.6v-.3h-.2a8.2 8.2 0 0 1-3.6-1zm.2.3a10.6 10.6 0 0 0 3.6 1 2.5 2.5 0 0 1-.8 1.4 2.6 2.6 0 0 1-1.6.1 2.7 2.7 0 0 1-1.3-1 2 2 0 0 1 0-1.5z"/>
  <path fill="#377bc8" stroke="#2c5aa0" stroke-miterlimit="103.2" stroke-width=".2" d="M305.4 149.2a11.6 11.6 0 0 0-.6 5.4 11.5 11.5 0 0 0 2.4-5l-.5-.2a5.2 5.2 0 0 1-.2-.4l-.6.2z"/>
  <path fill="gold" d="m308.6 141.4-1.2.1a5 5 0 0 0-1.2 1.2 1.8 1.8 0 0 1 0-1 1.6 1.6 0 0 0-.5.2 3.7 3.7 0 0 0-1 .6 5.6 5.6 0 0 0-.8.8c.4 0 1.3-.8 1.6-.7.3 0 .1.8.4.8.3.1.7-.4 1.2-.8.4-.4 1-.7 1.2-.6.4.2.7.6.8 1.1.2.7.3 1.4.6 1.5.3.1.5-.7.8-.5.4 0 .5 1.3.9 1.4a5.5 5.5 0 0 0-.2-1.2 3.7 3.7 0 0 0-.5-1 1.6 1.6 0 0 0-.4-.3c0 .3-.3.6-.5.8a5 5 0 0 0-.4-1.6 4.7 4.7 0 0 0-.8-.8m-5 4.4c-.5.7 0 1.3.9 1.6l-.3.8.4 1 1 .2.8-.3.6.8.8.2 1-.7.4-.7h.6l.5-.2.3-.7a1.8 1.8 0 0 1-2.1.3 1.6 1.6 0 0 1-.3 1 .8.8 0 0 1-.8.2 1.8 1.8 0 0 1-.8-.7c-.4.2-.8.4-1 .3a1.1 1.1 0 0 1-.8-.8 1.2 1.2 0 0 1 .3-1c-1.8-.5-1.2-1.1-1.6-1.3zm-1 .2a15.1 15.1 0 0 1-1.6 2 2 2 0 0 1-1 .4c.3.8.4 1 1.4 1.2-2.4 1.6-2.5 4.3-.8 6.6l.8-1.2c0 .8.3 1.5.7 2 .2.3.3 1.6.6 2l.7.7s.4-1 .8-1.1l1.6-.5a6 6 0 0 0 1.6-1.5l-.2 1.6c3.1-1.2 3.8-3.2 3-6 .8.4 1.6-.2 1.8-.3a2 2 0 0 1-.6-.8 6 6 0 0 1-.3-1.6v-.8l-.5 1.3a6.4 6.4 0 0 0 0 1.3 4.2 4.2 0 0 1-1.4-.7l.6 3c0 .7-.1 1.4-.4 2a5.3 5.3 0 0 1-1.2 1.4l.2-1.8-.3-2.3a12.6 12.6 0 0 1-.7 2.2l-1 1.6c.2-1.6.2-1.7 0-2.4a9 9 0 0 1-1.1 2.9 6 6 0 0 1-1.2.6 1.4 1.4 0 0 0-.6.5l-.5-1.4a16 16 0 0 1-1-1.8c-.2-.9 1-2.8 1-2.8-.4 0-.8.5-1.3 1.1l-1.1 1.3a12.2 12.2 0 0 1-.4-1.8 3.4 3.4 0 0 1 .5-1.6 16.5 16.5 0 0 1 2.7-2.6 3.4 3.4 0 0 1-2.3.1l1-1.3c.3-.5.5-1 .5-1.6zm4 .8h-1v.5l.4.1.6.8 1.4-.4.2-.3a5 5 0 0 0-1.2-.6 2 2 0 0 0-.4 0z"/>
  <path fill="none" stroke="#806600" stroke-miterlimit="103.2" stroke-width=".2" d="M310.2 152.2c.8.4 1.6-.2 1.8-.3a2 2 0 0 1-.6-.8 5.4 5.4 0 0 1-.3-1.6c0-1.2.5-1.3.5-1.3a5.6 5.6 0 0 0 1.1-.5c.3-.3.6-.7.7-1.1a3.8 3.8 0 0 0-.2-1.5c-1.2 0-1.5 0-1.8.4a5.5 5.5 0 0 0-.2-1.2 3.7 3.7 0 0 0-.5-1 1.6 1.6 0 0 0-.4-.3c0 .3-.2.6-.4.8a2 2 0 1 0-3.7-1 1.8 1.8 0 0 1 0-1 1.6 1.6 0 0 0-.5.1 3.7 3.7 0 0 0-.9.6 5.6 5.6 0 0 0-.8.9c0-.5-.2-.8-1.3-1.4a4 4 0 0 0-.9 1.2 1.8 1.8 0 0 0-.1 1.2l.7 1.1s.4.4-.3 1.5a5.4 5.4 0 0 1-1 1 2 2 0 0 1-1 .4c.2.8.3 1 1.3 1.2-2.4 1.6-2.5 4.3-.8 6.6l.8-1.2c0 .8.3 1.5.7 2 .2.3.3 1.6.6 1.9l.7.8s.4-1 .8-1.1l1.6-.6a6 6 0 0 0 1.6-1.4l-.2 1.6c3.1-1.2 3.8-3.2 3-6z"/>
  <path fill="#806600" d="M302.7 142.9a2.5 2.5 0 0 0-.5 1.2 4.8 4.8 0 0 0 .8 1.3c.2-.6.4-1.2.4-1.8 0-.3-.7-.8-.7-.8zm1.6 1.6a.6.6 0 0 0-.2 0c-.2.1-.3.1-.4.5.2 0 .4-.1.5-.3a.3.3 0 0 1 .3 0l1 .5a3.8 3.8 0 0 0 1.4 0l-.2.6-.7.4-.2.3a.8.8 0 0 0-.3.3v.6h.1c.4.1.6.4.6.8h.1l.2.1h.5a.8.8 0 0 1 1-.2v-.1l.3-.4v-.3a5.8 5.8 0 0 0-.1-.4c0-.3-.4-.8-.4-.8 0-.3 0-.5.2-.7.3.4.8.7 1.2.8.3.2.7.2 1 .2h.2l.4.6a.7.7 0 0 0 0-.7l-.5-.1-1-.1a3 3 0 0 1-1.1-.8l-.2-.2-.2.2a1.6 1.6 0 0 0-.1 1l.2.7a5 5 0 0 1 .1.6.8.8 0 0 1 0 .2 1.8 1.8 0 0 0-1.3.4 2 2 0 0 0-1-1 .8.8 0 0 1 0-.3l.1-.1a6 6 0 0 1 .3-.3l.7-.5.3-.9v-.2h-1.6c-.2 0-.5-.3-.9-.3a.6.6 0 0 0-.2 0zm-.8 1a1.2 1.2 0 0 0-.1 1.3c.2.3.4.6.8.6v.2a1.6 1.6 0 0 0-.1.6c0 .4.2.8.5 1 .4.2.7.4 1 .4a1.4 1.4 0 0 0 .7-.2l.4.4c.3.3.7.4 1 .4a1.4 1.4 0 0 0 1.3-1.2v-.1c.4 0 .8 0 1.2-.2.3-.2.4-.7.4-1.1-.3.2 0 .6-.6 1h-.9l-.3-.3v.7a1.6 1.6 0 0 1-.2.4 1.4 1.4 0 0 1-1 .5l-.6-.1a1.4 1.4 0 0 1-.4-.6v-.4l-.3.2a1.6 1.6 0 0 1-.3.2h-.4a1 1 0 0 1-.7-.2 1.6 1.6 0 0 1-.6-.8l.1-.5.2-.3.1-.2h-.3a1.1 1.1 0 0 1-.8-.5c-.4-.5 0-.8 0-1.2zm9.2.2s-.8 0-1 .3a6.6 6.6 0 0 0-.6 1.7 4.8 4.8 0 0 0 1.3-.7 2.4 2.4 0 0 0 .3-1.3"/>
  <path fill="#2b2200" d="M305.1 145.1a.4.4 0 0 0 0 .8.4.4 0 1 0 0-.8m4.2 1.2a.4.4 0 0 0-.1.8.4.4 0 1 0 0-.8z"/>
  <path fill="#377bc8" stroke="#2c5aa0" stroke-miterlimit="103.2" stroke-width=".2" d="M293.8 159.2c-.3 0-.8-.2-1.6.8a1.4 1.4 0 0 1 1.4.6.6.6 0 0 0 .6-.4.8.8 0 0 0-.4-1zm21.4 1.2a2.8 2.8 0 0 0-2 .8 2 2 0 0 1 1.8.6.8.8 0 0 0 .7-.4.8.8 0 0 0-.5-1zm-23 1.4c-.2.3-.8.2-1.2 1.5a1.4 1.4 0 0 1 1.6 0 .8.8 0 0 0 .4-.7.7.7 0 0 0-.8-.8zm23.4 2c-.2.4-.8.3-1.4 1.6a2 2 0 0 1 1.9-.1.8.8 0 0 0 .4-.7.8.8 0 0 0-.8-.8zm-21.7 1.2a.7.7 0 0 0-.4.1 3.2 3.2 0 0 0-.5 2c.4-.7.7-.8 1.3-1a.8.8 0 0 0 .1-.7.6.6 0 0 0-.5-.4zm46.4.1a.8.8 0 0 0-.2.1 3.1 3.1 0 0 0-.7 2 1.4 1.4 0 0 1 1.4-.8c.2-.2.2-.6.2-.8a.6.6 0 0 0-.7-.5zm-21.5 1-.5.1a2.8 2.8 0 0 0-.4 2.2 2 2 0 0 1 1.6-1.1.8.8 0 0 0 0-.8.8.8 0 0 0-.7-.4zm27 .1c-.3 0-.4.1-.6.4 0 .8 0 1.6.5 2.1 0-.6.1-1.3.7-1.7a1 1 0 0 0-.3-.8.7.7 0 0 0-.3 0zm-3 .4a.7.7 0 0 0-.5.4 3.4 3.4 0 0 0 .1 2 1.8 1.8 0 0 1 1-1.4.8.8 0 0 0-.1-.8.6.6 0 0 0-.5-.2z"/>
  <path fill="gold" stroke="#806600" stroke-linecap="round" stroke-linejoin="round" stroke-width=".5" d="M378.7 21.3V21l.8-1.6a9 9 0 0 0-6.9 2 17.5 17.5 0 0 0-2.8 3.7 11.6 11.6 0 0 0-.8 3.2 18 18 0 0 0-1.9-1.6 2.7 2.7 0 0 0-1.3-.4 4.8 4.8 0 0 0-3.2 1.5 6 6 0 0 0-1.5 3c-.4 1.6 0 3.2-1 4.6l-1.6 1.8a8 8 0 0 0 2.7.6 4.2 4.2 0 0 0 2.8-1.5c.6-.8.9-1.9 1.8-2.5a1.4 1.4 0 0 1 1.2-.2c.5.2.6 1.2.4 1.6l-1 3.4-1.8-.4-1.4.8-.6.3h0l1.2 1.8.5.2h0a13.4 13.4 0 0 1-.4.2l-3.3 1.6-.4.2h0l-2.4.1a11.1 11.1 0 0 1-1.6-.2l-2.4-.8a7.2 7.2 0 0 1-.7-.4l-1.3-1.4a12 12 0 0 1-2.1-4.3 5.8 5.8 0 0 0 5-5.7v-.8a4.3 4.3 0 0 0-.1-.4 4.2 4.2 0 0 0-.3-1 6 6 0 0 0-.3-.6 6.7 6.7 0 0 0-.6-1 7.2 7.2 0 0 0-.4-.4 5.4 5.4 0 0 0-3.5-1.7h-1.3a5.8 5.8 0 0 0-3.2 1.6 5.6 5.6 0 0 0-1.4 2.2l-.2.8a7.4 7.4 0 0 0-.1 1.3h0a5.8 5.8 0 0 0 3.2 5.2 26.9 26.9 0 0 1-2.7 2.6 15.2 15.2 0 0 1-8.7 4 14.4 14.4 0 0 1-10.6-3 12.2 12.2 0 0 1-2.3-2.8h1.3l1.6-1.6h.1l-.5-.4-1.2-1h-.5l.4-3.8c0-.6.4-1.6 1-1.6a1.6 1.6 0 0 1 1.4.8c.8 1 .4 2.1.8 3.2a4.6 4.6 0 0 0 2.4 2.6c1.2.3 2.2.5 3.3.4l-.9-2.4c-.6-1.8.5-3.2.8-5a5.8 5.8 0 0 0-.2-3.6 5.6 5.6 0 0 0-3-2.8 3.6 3.6 0 0 0-1.6 0l-2.8.8s.8-2.4.5-3.6a15 15 0 0 0-1.6-4.8 22.6 22.6 0 0 0-3.5-3.7 22.6 22.6 0 0 0-3.5 3.7 15 15 0 0 0-1.6 4.8c-.2 1.2.5 3.6.5 3.6a23 23 0 0 0-2.8-.8 3.6 3.6 0 0 0-1.6 0 5.6 5.6 0 0 0-3 2.8 5.8 5.8 0 0 0-.2 3.6c.3 1.8 1.4 3.2.8 5l-1 2.4c1.2 0 2.2 0 3.3-.4a4.6 4.6 0 0 0 2.4-2.6c.5-1 .2-2.3 1-3.2.2-.5.7-.8 1.2-.8.7 0 1.1 1 1.1 1.6l.4 3.7h-.5l-1.6 1.6 1.6 1.5h1.3a12.2 12.2 0 0 1-2.4 2.8 14.4 14.4 0 0 1-10.6 3 15.2 15.2 0 0 1-8.6-4 27.4 27.4 0 0 1-2.6-2.6 5.8 5.8 0 0 0 3.4-5.2h0a6 6 0 0 0-1.8-4.2 5.8 5.8 0 0 0-3.3-1.6l-.3-.2h-1a5.4 5.4 0 0 0-3.4 1.8 6.6 6.6 0 0 0-1.3 2l-.3 1a4.3 4.3 0 0 0 0 .4 5.7 5.7 0 0 0 0 .8 5.8 5.8 0 0 0 4.7 5.7 12 12 0 0 1-2.1 4.3l-1.4 1.4a7.2 7.2 0 0 1-.8.4l-2.3.8a11.1 11.1 0 0 1-1.6.2l-2.3-.1h0l-.4-.1-3.4-1.7-.3-.2h0l.5-.2 1.2-1.8h0l-.6-.3-1.4-.8-1.7.4-1.1-3.3c-.2-.5-.1-1.5.4-1.7a1.4 1.4 0 0 1 1.2.2c.8.6 1.2 1.8 1.8 2.5a4.2 4.2 0 0 0 2.8 1.5 8 8 0 0 0 2.7-.6l-1.6-1.8c-1.1-1.4-.6-3-1-4.7a6 6 0 0 0-1.5-3 4.8 4.8 0 0 0-3.2-1.4 2.7 2.7 0 0 0-1.3.4 18 18 0 0 0-2 1.6 11.6 11.6 0 0 0-.7-3.2 17.5 17.5 0 0 0-2.8-3.7 8.6 8.6 0 0 0-6.8-2l.7 1.6v.3h.1l8.2 18.4-1.1.2-1.2 2 1.9 1 2.4-.6c.8 2 1.4 3.9 2 5.8l-2 .2h0c-.4.5-.6.5-.6 1h0c0 .3.1.8.4 1h0l.3.2h0l.5.3h1l.2 1.3-.1-.1v2l-1.2 2.6L274 59l.8 2.1.6-.4.1.7h-.3l.5 1h0l-.7.2c-.4.4-.5.5-.5 1h0c0 .2 0 .7.3 1h0l.8.5c3.8-.5 8-1 12.2-1.3l4-.3c7-.5 14.2-.5 21.3-.6h13.6c4.3 0 13.3 0 21.4.6a193 193 0 0 1 2.2.2l2.3.1a280.6 280.6 0 0 1 5.3.5l6.4.8h0l.3-.2.7-.7a1 1 0 0 0 0-.6h0c0-.5-.2-.6-.5-1h0l-.7-.1.2-.9h0l.2-.9.5.4.8-2 2-2.4-1.2-2.8V52h-.2l.3-1.3.9.1h0c.2 0 .3 0 .4-.2.6-.4.8-.8.8-1.3h0c0-.4-.2-.6-.6-1h0l-2.3-.2a286.4 286.4 0 0 1 2.2-5.9l2.5.7 2-1-1.2-2-1.2-.2 8.3-18.3h.1z"/>
</svg>
