<svg height="480" viewBox="0 0 640 480" width="640" xmlns="http://www.w3.org/2000/svg" xmlns:xlink="http://www.w3.org/1999/xlink"><defs><path id="a" d="m-28.58 47.5 1.733 1 46.713-80.91c2.732-.73 4.232-3.33 5.732-5.927 1-1.732 5-8.66 6.734-17.663-6.93 6.003-10.93 12.93-11.93 14.663-1.5 2.598-3 5.196-2.268 7.928z" stroke-miterlimit="10"/></defs><path d="m0 0h640v480h-640z" fill="#fff"/><path d="m0 0h640v144h-640z"/><path d="m0 336h640v144h-640z" fill="#060"/><g id="b" transform="matrix(3 0 0 3 320 240)"><use height="100%" stroke="#000" width="100%" xlink:href="#a"/><use fill="#fff" height="100%" width="100%" xlink:href="#a"/></g><use height="100%" transform="matrix(-1 0 0 1 640 0)" width="100%" xlink:href="#b"/><path d="m640.5 168h-263.5c-9-24-39-72-57-72s-48 48-57 72h-263.227v144h263.227c9 24 39 72 57 72s48-48 57-72h263.5z" fill="#b00"/><path id="c" d="m377 312c9-24 15-48 15-72s-6-48-15-72c-9 24-15 48-15 72s6 48 15 72"/><use height="100%" transform="matrix(-1 0 0 1 640 0)" width="100%" xlink:href="#c"/><g fill="#fff" transform="matrix(3 0 0 3 320 240)"><ellipse rx="4" ry="6"/><path id="d" d="m1 5.85s4 8 4 21-4 21-4 21z"/><use height="100%" transform="scale(-1)" width="100%" xlink:href="#d"/><use height="100%" transform="scale(-1 1)" width="100%" xlink:href="#d"/><use height="100%" transform="scale(1 -1)" width="100%" xlink:href="#d"/></g></svg>