<svg viewBox="0 0 640 480" xmlns="http://www.w3.org/2000/svg" xmlns:xlink="http://www.w3.org/1999/xlink"><defs><path id="a" d="m-28.6 47.5 1.8 1 46.7-81c2.7-.6 4.2-3.2 5.7-5.8 1-1.8 5-8.7 6.7-17.7a58 58 0 0 0 -11.9 14.7c-1.5 2.6-3 5.2-2.3 7.9z" stroke-miterlimit="10"/></defs><path d="m0 0h640v480h-640z" fill="#fff"/><path d="m0 0h640v144h-640z"/><path d="m0 336h640v144h-640z" fill="#060"/><g id="b" transform="matrix(3 0 0 3 320 240)"><use height="100%" stroke="#000" width="100%" xlink:href="#a"/><use fill="#fff" height="100%" width="100%" xlink:href="#a"/></g><use height="100%" transform="matrix(-1 0 0 1 640 0)" width="100%" xlink:href="#b"/><path d="m640.5 168h-263.5c-9-24-39-72-57-72s-48 48-57 72h-263.2v144h263.2c9 24 39 72 57 72s48-48 57-72h263.5z" fill="#b00"/><path id="c" d="m377 312c9-24 15-48 15-72s-6-48-15-72c-9 24-15 48-15 72s6 48 15 72"/><use height="100%" transform="matrix(-1 0 0 1 640 0)" width="100%" xlink:href="#c"/><g fill="#fff" transform="matrix(3 0 0 3 320 240)"><ellipse rx="4" ry="6"/><path id="d" d="m1 5.8s4 8 4 21-4 21-4 21z"/><use height="100%" transform="scale(-1)" width="100%" xlink:href="#d"/><use height="100%" transform="scale(-1 1)" width="100%" xlink:href="#d"/><use height="100%" transform="scale(1 -1)" width="100%" xlink:href="#d"/></g></svg>