<svg viewBox="0 0 640 480" xmlns="http://www.w3.org/2000/svg" xmlns:xlink="http://www.w3.org/1999/xlink"><path d="m0 0h640v480h-640z" fill="#032ea1"/><path d="m0 120h640v240h-640z" fill="#e00025"/><g fill="#fff" stroke="#000" transform="matrix(1.2 0 0 1.2 85.6 -522)"><g stroke-linejoin="bevel"><path d="m139 623.5h113.8v43.8h-113.8z"/><path d="m247 647.6h3.5v16.5h-3.5zm-108-8.1h113.8v5h-113.8zm0-7h113.8v4.6h-113.8z"/><path d="m139 625.7h113.8v4.3h-113.8z" stroke-width=".9"/><path d="m169 647.6h3.6v16.5h-3.6zm49 0h3.6v16.5h-3.6zm-78 0h3.5v16.5h-3.5zm7 0h3.5v16.5h-3.5zm7.5 0h3.5v16.5h-3.5zm7.5 0h3.5v16.5h-3.5zm62.8 0h3.6v16.5h-3.6zm7.5 0h3.6v16.5h-3.6zm7.5 0h3.6v16.5h-3.6z"/><path d="m94.5 669.5a9.3 9.3 0 0 0 4.4-5.3h193.1a9.3 9.3 0 0 0 4.4 5.3z" stroke-linejoin="miter"/></g><path d="m193 556.8s-.1-4.1 2.3-4.2c2.3 0 2.2 4.2 2.2 4.2zm-12.5 54.5v-5.5c0-2.8-2.8-3-2.8-5 0 0-.4-3 .4-4.4 1.1 4 3 3.3 3 1.6 0-1.4-1-2.8-3.3-6.3-.8-1.1-.3-4.6.7-5.9.4 3 .9 4.5 2.2 4.5.8 0 1.4-.5 1.4-2 0-2-1.3-3-2-4.8a5 5 0 0 1 1.1-5.3c.5 3 .4 4.2 1.7 4.2 2.7-.9 0-4.8-.6-5.8-.6-1.1 1-3.4 1-3.4.8 2.7 1 2.9 2 2.6 1.2-.3 1-2-.4-3.4-.9-1-.8-2.3.2-3.3 1 1.9 2.2 1.8 2.3.6l-.8-4.4h17.4l-.9 4.3c-.2 1.2 1.4 1.5 2.4-.5 1 1 1.1 2.4.2 3.3-1.4 1.4-1.6 3.1-.4 3.4 1 .3 1.2 0 2-2.6 0 0 1.5 1.5 1 3.4-.6 1-3.3 5-.6 5.8 1.3 0 1.2-1.2 1.7-4.2a5 5 0 0 1 1 5.3c-.6 1.8-2 2.8-2 4.8 0 1.5.7 2 1.5 2 1.3 0 1.8-1.4 2.2-4.5 1 1.3 1.5 4.8.7 6-2.3 3.4-3.4 4.8-3.4 6.2 0 1.7 2 2.4 3-1.6.9 1.4.5 4.4.5 4.4 0 2-2.7 2.2-2.8 5v5.5zm7.2-46-.4-3.1h15.9l-.4 3.1zm1-3.2-.2-2.5h13.5l-.3 2.5zm2.3-2.6-.3-2.6h9l-.1 2.6zm33 110c-2-.7-5-2.9-5-5v-24.3l2.6-3.4h-52.6l2.5 3.4v24.3c0 2.1-2 4.3-4 5z"/><path d="m178.2 647.6h3.6v16.5h-3.6zm30.4 0h3.6v16.5h-3.6z" stroke-linejoin="bevel"/><path d="m168 609.2v27.6h54v-27.6a4.2 4.2 0 0 0 -2.6 2.8v11.8h-48.7v-11.8s-.6-2-2.8-2.8z"/><path d="m214.6 669.5c-1.8-.7-5.6-2.9-5.6-5v-27.2c.4-1.5 2.4-2.4 3.7-3.4h-35.7c1.7 1 3.6 1.7 4.3 3.4v27.2c0 2.1-3 4.3-4.8 5z"/><path d="m219.4 634.2v-19.6h-4.9v-1.9h-38.8v2h-5v19.5zm-12.4 35.3c-1.8-.7-4.3-2.9-4.3-5v-23.2l1.4-2.1h-17.7l1.5 2v23.3c0 2.1-2.6 4.3-4.3 5z"/><path d="m190.7 639.2h9v30.3h-9z"/><path d="m204.4 632.5c0-2 5.8-2.1 8.8-3.8h-36c3 1.7 8.7 1.8 8.7 3.8l1.2 3.9 15 .6z" stroke-linejoin="bevel"/><path d="m211.4 611.3c0-4.9.2-6.7 1.7-6.7v15.4c-3.7 1.4-6.3 6-6.3 6h-23.2s-2.6-4.6-6.3-6v-15.5c1.8 0 1.8 2 1.8 6.7zm1.7-2c0-5.6 4.9-6.2 4.9-6.2v5c-1.9-.1-2.8 1.6-2.8 4 0 2.5 1.5 2.5 1.5 2.5v14.2h-3.6z"/><path d="m177.3 609.3c0-5.6-4.9-6.2-4.9-6.2v5c1.9-.1 2.8 1.6 2.8 4 0 2.5-1.5 2.5-1.5 2.5v14.2h3.6z"/><g fill="none" stroke-width=".8"><path d="m186.8 570.6h17.2m-19.2 5.4h21m-23 6.5h24.9m-27 7.9h29.5m-30.2 9h30.4"/><path d="m170.8 629h48.6m-33.2 0h18v6.6h-18z" stroke-width="1"/></g><path d="m184 614.2c3 3.6 2.6 9.7 2.6 13.3h17.4c0-3.6-.4-9.7 2.6-13.3zm9.7-41-2.4-1.3v-3.5c1 .3 2 .4 2.2 2 .3-2.3 1-2.1 1.9-3 1 .9 1.5.7 1.9 3 0-1.6 1.2-1.7 2.1-2v3.5l-2.3 1.2z"/><path d="m193.5 578.9-4-2.8v-3.1c1.5.3 3 .5 3.2 2.2.4-2.5 1.3-3.7 2.7-4.7 1.3 1 2.2 2.2 2.7 4.7.1-1.7 1.7-1.9 3-2.2v3.2l-3.9 2.7z"/><path d="m193.2 587.8-4.5-4v-4.7c1.6.4 3.4.6 3.6 3.1.5-3.5 1.5-5.4 3-6.8 1.6 1.4 2.6 3.3 3.2 6.8.2-2.5 2-2.7 3.6-3.1v4.7l-4.6 4zm8.4 5.3-4 5.7h-4.7l-4.1-5.7zm-15.2 9.5c2 1.1 2.8 3.4 3 7.6h11.6c.2-4.2 1-6.5 3-7.6z"/><path d="m204.2 593v-5.6a5.2 5.2 0 0 0 -3.8 3.3c0-2-2.5-6.3-5.2-8.5-2.7 2.4-5.3 6.4-5.2 8.4-.5-1.5-1.8-2.7-3.8-3.2v5.7z" stroke-linejoin="bevel"/><path d="m205 602.6v-5.6c-2.1.6-3.5 1.7-4.1 3.3 0-2-2.7-6.3-5.7-8.5-3 2.5-5.8 6.4-5.7 8.5-.5-1.5-2-2.7-4.1-3.3v5.7z" stroke-linejoin="bevel"/><path d="m207.4 614.3v-6.6a9.6 9.6 0 0 0 -5.1 3.8c0-3.5-4-9-7.1-10.7-3.2 1.8-7.1 7.4-7.1 10.7a9.7 9.7 0 0 0 -5.2-3.8v6.6z" stroke-linejoin="bevel"/><path d="m206 629v-6.8c-2.4.9-3 3.1-3.8 4.7.3-6.9-3.8-14.2-7-16.1-3.2 1.9-7.4 9.4-7 16-.8-1.4-1.5-3.7-3.8-4.6v6.7z" stroke-linejoin="bevel"/><path d="m204.4 639.2v-6.8c-2.5.6-2.6 1.5-3.4 3 .3-4.1-2.6-8.8-5.8-10.6-3.2 1.8-6 6.5-5.8 10.6-.8-1.5-.9-2.4-3.4-3v6.8z"/><g id="a"><path d="m99 664.2v-20.4c-.7-2.6-3-5-4.6-5.4v-18l3.7 2 4.3 18.9v23z"/><path d="m99 664.3v-20.5c-.7-2.6-3-5-4.6-5.4v-19.2c2.5 0 3.7 3.2 3.7 3.2l4.3 18.9v22.9z"/><path d="m96.3 669.5c1.7-.7 4.2-2.9 4.2-5v-25.6l-1.2-2h43.7l-1.7 2v25.6a6 6 0 0 0 3.4 5z"/><path d="m135.8 669.5c-1.7-.7-4.2-2.9-4.2-5v-24.3l3.6-3.4h-29.6l3.6 3.4v24.3c0 2.1-2.5 4.3-4.2 5z"/><path d="m131.7 669.5c-1.7-.7-4.3-2.9-4.3-5v-22l2.4-3.3h-18.8l2.4 3.3v22c0 2.1-2.5 4.3-4.3 5z"/><path d="m116 639.2h8.9v30.4h-9z"/><path d="m103.7 647.6h3.6v16.5h-3.6zm30.8 0h3.5v16.5h-3.6zm-33.9-27.8h4.4v17h-4.4zm0-3.2h4.3v3.2h-4.3zm35.6 6.9h6.1v13h-6.1z" stroke-linejoin="bevel"/><path d="m104.9 636.6v-29c1.2 0 1.4 4.3 4.2 4.3 1.5 0 1.4-1.8.5-3.2-.7-1.3-1.6-3-.4-6.3.9 2.5 3.1 3.3 2.7 1.8-.7-2.7-2.8-3.2-1.2-7.3.5 3.4 2.7 3.3 2.2 1.3-.6-2.3-1.9-3.3-.3-6.5.9 3.7 2 3.5 2 1.2 0-3.4 0-7 4.2-8.3 0 0 .3-3 1.9-3 1.5 0 1.8 3 1.8 3 4.3 1.3 4.2 5 4.2 8.3 0 2.3 1.1 2.5 2-1.2 1.6 3.2.3 4.2-.3 6.5-.5 2 1.7 2.1 2.2-1.3 1.6 4.1-.5 4.6-1.2 7.3-.4 1.5 1.8.7 2.7-1.8 1.2 3.3.3 5-.4 6.3-.8 1.4-1 3.2.5 3.2 2.8 0 3-4.2 4.2-4.2v28.9zm-6.9-21.9v22.1h2.5v-22.1c-.9-.5-1.7-.5-2.5 0z"/><path d="m98.2 629c3.1 1.6 6.2 3.5 7 7.8h-7zm43.2-6.6v14.4h2v-14.4c-.6-.3-1.5-.4-2 0z"/><path d="m143.4 629c-3.1 1.5-6.2 3.3-7 7.7h7zm-20.6-33.7 1.8-1.5v-2c-.6 0-1 .3-1.5 1a5 5 0 0 0 -2.5-3 5 5 0 0 0 -2.6 2.9c-.5-.7-.8-.8-1.5-1v2l1.8 1.6z"/><path d="m123.8 600.2.8-1.9v-2.5c-.6 0-1 .3-1.5 1a5 5 0 0 0 -2.5-3 5 5 0 0 0 -2.6 2.9c-.5-.7-.8-.8-1.5-.9v2.5l.8 1.9z"/><path d="m124 606.8 2.6-3.3v-3.2c-1 0-1.5.5-2.2 1.6-.7-2.3-2-2.7-3.8-3.8-1.9 1-3.2 1.5-3.8 3.7-.8-1.1-1.3-1.4-2.3-1.5v3.2l2.7 3.3z"/><path d="m124.7 613.3s3.2-2.7 3.3-4.2v-3.5c-1.2.1-2.3.4-3.2 1.9-.8-2.9-2-3.7-4.2-5-2.3 1.3-3.5 2.1-4.2 5-1-1.5-2-1.8-3.3-2v3.6a15 15 0 0 0 3.3 4.2z"/><path d="m126 625.3s4.4-4.7 4.5-6.6v-5.4c-1.6.2-3.2 1.3-4.4 3.6-1-4.5-2.6-7.6-5.5-9.8-3 2.2-4.6 5.3-5.6 9.8-1.2-2.3-2.7-3.4-4.3-3.6v5.4c.3 1.9 4.4 6.6 4.4 6.6z"/><path d="m126 632.4s3.7-3.7 4.5-5.3v-5.4c-1.6.2-3.2 1.3-4.4 3.5a14 14 0 0 0 -5.5-9.2c-3 2.2-4.6 4.7-5.6 9.2-1.2-2.2-2.7-3.3-4.3-3.5v5.4c1 1.6 4.4 5.3 4.4 5.3z"/><path d="m127.5 636.6c-1-4.7-2-8.2-7.1-11.7-5.2 3.5-6.1 7-7.2 11.7z"/><path d="m130.2 639.2v-6.8c-2.4 1-4.5 2.3-5.3 3.8-.8-3.8-2.5-5.4-4.6-7.7-2.1 2.3-3.5 4-4.4 7.7-.8-1.5-2.9-2.9-5.2-3.8v6.8z"/></g><use height="100%" transform="matrix(-1 0 0 1 390.7 0)" width="100%" xlink:href="#a"/><path d="m72.7 694.3h245.3v12.5h-245.3zm-6.5 12.5h258.3v12.5h-258.3zm19.4-31.3h219.4v8.1h-219.4z"/><path d="m79.2 683.6h232.4v10.6h-232.4zm10.2-14.3h212v6.2h-212z"/><path d="m112.4 669.3h16v50h-16z"/><path d="m116 669.3h8.9v50h-9zm71 0h16v50h-16z"/><path d="m190.7 669.3h9v50h-9zm71.5 0h16v50h-16z"/><path d="m265.7 669.3h9v50h-9z"/><path d="m99 664.2h193m-176.2 48.8h9.2m-9.2-6.3h9.2m-9.2-6.2h9.2m-9.2-6.3h9.2m-9.2-6.2h9.2m-9.2-6.3h9.2m-9.2-6.2h9.2m65.8 37.5h8.6m-8.6-6.3h8.6m-8.6-6.2h8.6m-8.6-6.3h8.6m-8.6-6.2h8.6m-8.6-6.3h8.6m-8.6-6.2h8.6m66.2 37.5h9.2m-9.2-6.3h9.2m-9.2-6.2h9.2m-9.2-6.3h9.2m-9.2-6.2h9.2m-9.2-6.3h9.2m-9.2-6.2h9.2" fill="none"/></g></svg>