<svg height="480" viewBox="0 0 640 480" width="640" xmlns="http://www.w3.org/2000/svg" xmlns:xlink="http://www.w3.org/1999/xlink"><clipPath id="a"><path d="m0 0h682.67v512h-682.67z"/></clipPath><g clip-path="url(#a)" fill-rule="evenodd" transform="scale(.9375)"><path d="m0 0h768.77v128h-768.77z" fill="#ff0"/><path d="m0 128h768.77v128h-768.77z" fill="#fff"/><path d="m0 256h768.77v128h-768.77z" fill="#be0027"/><path d="m0 384h768.77v128h-768.77z" fill="#3b5aa3"/><path d="m0 0v512l381.86-255.28z" fill="#239e46"/><g fill="#fff"><path d="m157.21 141.43c-85.097-4.31-123.87 63.47-123.78 115.87-.194 61.97 58.529 113.08 112.81 109.99-29.27-13.84-65.008-52.66-65.337-110.25-.3-52.18 29.497-97.55 76.307-115.61z"/><path d="m155.927 197.058-11.992-9.385-14.539 4.576 5.215-14.317-8.831-12.41 15.227.528 9.065-12.238 4.195 14.649 14.452 4.846-12.644 8.524zm-.255 52.063-11.993-9.385-14.538 4.576 5.215-14.317-8.831-12.41 15.227.528 9.065-12.238 4.194 14.649 14.453 4.846-12.645 8.524zm.255 52.577-11.992-9.385-14.539 4.576 5.215-14.317-8.831-12.41 15.227.528 9.065-12.239 4.195 14.65 14.452 4.846-12.644 8.524zm-.255 53.08-11.993-9.385-14.538 4.576 5.215-14.317-8.831-12.41 15.227.528 9.065-12.239 4.194 14.65 14.453 4.846-12.645 8.524z"/></g></g></svg>