<svg viewBox="0 0 640 480" xmlns="http://www.w3.org/2000/svg" xmlns:xlink="http://www.w3.org/1999/xlink"><clipPath id="a"><path d="m0 0h682.7v512h-682.7z"/></clipPath><g clip-path="url(#a)" fill-rule="evenodd" transform="scale(.9375)"><path d="m0 0h768.8v128h-768.8z" fill="#ff0"/><path d="m0 128h768.8v128h-768.8z" fill="#fff"/><path d="m0 256h768.8v128h-768.8z" fill="#be0027"/><path d="m0 384h768.8v128h-768.8z" fill="#3b5aa3"/><path d="m0 0v512l381.9-255.3z" fill="#239e46"/><g fill="#fff"><path d="m157.2 141.4c-85-4.3-123.9 63.5-123.8 115.9-.2 62 58.6 113 112.8 110-29.2-13.8-65-52.7-65.2-110.3-.3-52.1 29.5-97.5 76.3-115.6z"/><path d="m156 197-12-9.3-14.6 4.6 5.2-14.4-8.8-12.4 15.2.6 9-12.3 4.3 14.7 14.4 4.8-12.6 8.5zm-.3 52.1-12-9.4-14.6 4.6 5.3-14.3-8.9-12.4 15.3.5 9-12.2 4.2 14.6 14.5 4.9-12.7 8.5zm.2 52.6-12-9.4-14.5 4.6 5.2-14.3-8.8-12.4 15.2.5 9-12.2 4.3 14.6 14.4 4.8-12.6 8.6zm-.2 53-12-9.3-14.7 4.6 5.3-14.4-8.9-12.4 15.3.6 9-12.3 4.2 14.7 14.5 4.8-12.7 8.5z"/></g></g></svg>