<svg height="480" viewBox="0 0 640 480" width="640" xmlns="http://www.w3.org/2000/svg" xmlns:xlink="http://www.w3.org/1999/xlink"><clipPath id="a"><path d="m-80.109 0h682.67v512h-682.67z"/></clipPath><g clip-path="url(#a)" fill-rule="evenodd" transform="matrix(.9375 0 0 .9375 75.102 0)"><path d="m-107.85.239h737.65v511.29h-737.65z" fill="#ffe900"/><path d="m-108.24.239.86 368.58 573.98-368.82-574.84.238z" fill="#35a100"/><path d="m630.69 511.53-1.347-383.25-578.98 383.54 580.33-.283z" fill="#c70000"/><path d="m-107.87 396.61.49 115.39 125.25-.16 611.76-410.14-.69-100.32-123.76-1.141-613.05 396.37z"/><path d="m380.455 156.62-9.913-42.245 33.354 27.075 38.014-24.636-17.437 41.311 33.404 27.021-44.132-1.541-17.37 41.333-9.835-42.265-44.138-1.48zm-275.245 178.91-9.913-42.245 33.354 27.075 38.014-24.636-17.437 41.311 33.404 27.021-44.132-1.541-17.37 41.333-9.835-42.265-44.138-1.48z" fill="#fff"/></g></svg>