<svg viewBox="0 0 640 480" xmlns="http://www.w3.org/2000/svg" xmlns:xlink="http://www.w3.org/1999/xlink"><clipPath id="a"><path d="m-80.1 0h682.7v512h-682.7z"/></clipPath><g clip-path="url(#a)" fill-rule="evenodd" transform="matrix(.9375 0 0 .9375 75.1 0)"><path d="m-107.8.2h737.6v511.3h-737.6z" fill="#ffe900"/><path d="m-108.2.2.8 368.6 574-368.8-574.8.2z" fill="#35a100"/><path d="m630.7 511.5-1.4-383.2-579 383.5z" fill="#c70000"/><path d="m-107.9 396.6.5 115.4 125.3-.2 611.7-410.1-.6-100.3-123.8-1.2-613 396.4z"/><path d="m380.4 156.6-9.8-42.2 33.3 27 38-24.6-17.4 41.3 33.4 27-44.2-1.5-17.3 41.3-9.9-42.2-44.1-1.5zm-275.2 179-9.9-42.3 33.3 27 38-24.6-17.4 41.3 33.4 27-44.1-1.5-17.4 41.3-9.8-42.2-44.1-1.5z" fill="#fff"/></g></svg>