<svg height="480" viewBox="0 0 640 480" width="640" xmlns="http://www.w3.org/2000/svg" xmlns:xlink="http://www.w3.org/1999/xlink"><clipPath id="a"><path d="m-95.808-.44h682.67v512h-682.67z"/></clipPath><g clip-path="url(#a)" fill-rule="evenodd" transform="matrix(.9375 0 0 .9375 89.82 .412)"><path d="m610.61 511.56h-730.17v-512h730.17z" fill="#fff"/><path d="m251.871 256.021c0 62.137-50.372 112.508-112.507 112.508-62.137 0-112.507-50.372-112.507-112.508 0-62.137 50.371-112.507 112.507-112.507 62.137 0 112.507 50.372 112.507 112.507z" fill="#fff"/><path d="m393.011 262.55c0 81.079-65.034 146.803-145.261 146.803s-145.262-65.723-145.262-146.803 65.034-146.804 145.262-146.804 145.26 65.725 145.26 146.804z" fill="#c70000"/><path d="m-49.417 126.44 83.66-96.77 19.821 17.135-83.66 96.771zm27.399 23.687 83.66-96.77 19.82 17.135-83.66 96.77z"/><path d="m-49.417 126.44 83.66-96.77 19.821 17.135-83.66 96.771z"/><path d="m-49.417 126.44 83.66-96.77 19.821 17.135-83.66 96.771zm55.384 47.88 83.66-96.77 19.82 17.136-83.66 96.77z"/><path d="m-49.417 126.44 83.66-96.77 19.821 17.135-83.66 96.771z"/><path d="m-49.417 126.44 83.66-96.77 19.821 17.135-83.66 96.771zm508.83-96.802 83.002 97.335-19.937 17-83.002-97.334zm-55.706 47.503 83.002 97.335-19.936 17-83.002-97.334z"/><path d="m417.55 133.19 78.602-67.814 14.641 16.953-83.996 75.519-9.247-24.659z" fill="#fff"/><path d="m514.228 372.013-80.416 95.829-19.716-16.4 80.417-95.828zm-82.375-318.873 83.002 97.334-19.936 17.001-83.002-97.334zm109.622 341.536-80.417 95.829-19.715-16.399 80.417-95.829zm-55.085-45.819-80.417 95.83-19.715-16.4 80.416-95.829z"/><path d="m104.6 236.68c4.592 36.974 11.297 78.175 68.199 82.455 21.328 1.278 62.817-5.074 77.061-63.19 18.688-55.829 74.975-71.88 113.28-41.613 21.718 14.166 27.727 36.666 29.283 53.557-1.739 54.243-32.874 101.2-72.823 122.14-45.93 27.3-109.56 27.87-165.3-13.49-25.12-23.57-60.219-67.02-49.7-139.86z" fill="#3d5897"/><path d="m435.91 370.59 78.734 67.661-14.591 16.997-87.156-71.851z" fill="#fff"/><path d="m-1.887 357.197 83.002 97.335-19.937 17-83.002-97.334z"/><path d="m-16.188 437.25 78.602-67.814 14.641 16.953-83.996 75.519-9.247-24.659z" fill="#fff"/><path d="m25.672 333.696 83.003 97.334-19.937 17-83.002-97.334zm-55.705 47.503 83.002 97.334-19.936 17-83.003-97.333z"/></g></svg>