<svg viewBox="0 0 640 480" xmlns="http://www.w3.org/2000/svg" xmlns:xlink="http://www.w3.org/1999/xlink"><clipPath id="a"><path d="m-95.8-.4h682.7v512h-682.7z"/></clipPath><g clip-path="url(#a)" fill-rule="evenodd" transform="matrix(.9375 0 0 .9375 89.8 .4)"><path d="m610.6 511.6h-730.2v-512h730.2z" fill="#fff"/><path d="m251.9 256a112.5 112.5 0 1 1 -225 0 112.5 112.5 0 0 1 225 0z" fill="#fff"/><path d="m393 262.6c0 81-65 146.8-145.3 146.8s-145.2-65.8-145.2-146.8 65-146.9 145.3-146.9 145.2 65.9 145.2 146.9z" fill="#c70000"/><path d="m-49.4 126.4 83.6-96.7 19.9 17.1-83.7 96.8zm27.4 23.7 83.6-96.7 19.9 17-83.7 96.9z"/><path d="m-49.4 126.4 83.6-96.7 19.9 17.1-83.7 96.8z"/><path d="m-49.4 126.4 83.6-96.7 19.9 17.1-83.7 96.8zm55.4 48 83.6-96.9 19.9 17.2-83.7 96.8z"/><path d="m-49.4 126.4 83.6-96.7 19.9 17.1-83.7 96.8z"/><path d="m-49.4 126.4 83.6-96.7 19.9 17.1-83.7 96.8zm508.8-96.8 83 97.4-20 17-83-97.4zm-55.7 47.5 83 97.4-20 17-83-97.4z"/><path d="m417.6 133.2 78.4-67.8 14.7 17-84 75.4-9.3-24.6z" fill="#fff"/><path d="m514.2 372-80.4 95.8-19.7-16.4 80.4-95.8zm-82.4-318.9 83 97.4-19.9 17-82.9-97.5zm109.7 341.6-80.5 95.8-19.8-16.4 80.5-95.8zm-55.1-45.8-80.4 95.8-19.7-16.4 80.4-95.8z"/><path d="m104.6 236.7c4.6 37 11.3 78.2 68.2 82.4 21.3 1.3 62.8-5 77-63.2 18.8-55.8 75-71.8 113.3-41.6 21.9 14.2 27.9 36.7 29.3 53.7-1.7 54-32.9 101-72.8 122-46 27.3-109.6 27.9-165.3-13.5-25.1-23.5-60.2-67-49.7-139.8z" fill="#3d5897"/><path d="m436 370.6 78.6 67.6-14.6 17-87.1-71.8 23-12.8z" fill="#fff"/><path d="m-1.9 357.2 83 97.3-20 17-83-97.3z"/><path d="m-16.2 437.3 78.6-67.9 14.7 17-84 75.5-9.3-24.7z" fill="#fff"/><path d="m25.7 333.7 83 97.3-20 17-83-97.3zm-55.7 47.5 83 97.3-20 17-83-97.3z"/></g></svg>