<svg viewBox="0 0 640 480" xmlns="http://www.w3.org/2000/svg"><g fill-rule="evenodd"><path d="m0 0h640v480h-640z" fill="#6fdcff"/><g fill="#ffe400"><g><path d="m60.2 467c3.3 3.2 2.2 8.5 11.3 7.8 13.8 0 14.2-8.4 14.2-14.3s-20.7-14.1-21.7-22.8 4.8-11 9.6-11c4.7 0 8 2.7 8 5.1s-2.2 3.2-5.6 3.2 1.5-1.7-1.4-3-4.8 2-4.8 4c0 2.2 7.2 2.8 12 1.3 1 4.7 1.4 5-5.3 13 4.8-3.1 5.2-3.8 10.5-2-5.3-4.6-1.3-13.8-1.2-16.1s-1-5.1-3-6.5c-3.9-3.5-12.2-3.7-17.2-1.4-7.3 3.2-7.7 12.8-5.8 16l20.2 20.4c1.4 2.4 2 9.2-6.6 9.5-9 .7-12.2-11.6-13.8-15.7-2.1 4.5-4.5 16.8-13.6 16.1-8.6-.3-10.2-7-8.8-9.5l20.7-21c2-3.2 1.6-12.8-5.7-16-5-2.3-13.3-2-17.1 1.4-2.2 1.4-3.4 4.1-3.2 6.5s4.1 11.5-1.1 16c5.2-1.7 5.7-1 10.5 2-6.7-7.9-6.2-8.2-5.3-13 4.8 1.6 12 1 12-1.1s-2-5.6-4.9-4.2c-2.8 1.4 2 3.1-1.4 3.1-3.3 0-5.7-.7-5.7-3s3.3-5.3 8.1-5.3 10.5 2.4 9.5 11.1-22 18.1-22 24c0 6 1.4 13.1 15.2 13.1 9 .7 10.1-4.6 13.4-7.8z"/><path d="m59.1 343.3c3.3-3.2 6-12.6 15-12 13.8 0 19 7.7 19 13.6s-28 54-29 62.7 4.8 11.1 9.5 11.1c4.8 0 8.1-2.7 8.1-5.2s-2.4-3-5.7-3 1.4 1.7-1.4 3-4.8-2-4.8-4.1 7.2-2.8 12-1.2c.9-4.7 1.3-5-5.3-13 4.8 3 5.2 3.8 10.5 2-5.3 4.6-1.4 13.7-1.2 16s-1 5.2-3.1 6.6c-3.8 3.5-12.2 3.6-17.2 1.4-7.2-3.3-7.6-12.8-5.7-16l27.2-58.6c1.5-2.4-2.3-10.4-10.9-10.7-9-.7-12.1 8.8-13.7 12.9l12.3-1s.5 2 0 3.2a110 110 0 0 0 -12.3 1.6l-.5 6.2h6l-.4 2.8s-5.1-.4-5.6 0c-.5.3-1 6.2-1 6.2s-1 .4-2 .4-2-.4-2-.4-.4-5.9-.9-6.2c-.5-.4-5.6 0-5.6 0l-.5-2.8h6.1l-.5-6.2s-6-1.2-12.3-1.6c-.4-1.2 0-3.1 0-3.1l12.3.9c-1.6-4.1-4.7-13.6-13.7-13-8.6.4-12.4 8.4-11 10.8l27.2 58.6c1.9 3.1 1.5 12.7-5.7 16-5 2.2-13.4 2-17.2-1.4-2.1-1.4-3.3-4.2-3.1-6.5s4-11.6-1.2-16c5.3 1.7 5.8 1 10.5-2.1-6.6 8-6.2 8.3-5.2 13 4.7-1.6 11.9-1 11.9 1.2 0 2-2 5.5-4.8 4.1s2-3-1.4-3c-3.3 0-5.7.6-5.7 3s3.3 5.2 8 5.2 10.5-2.4 9.6-11c-1-8.7-29-57-29-62.8 0-6 5.2-13.5 19-13.5 9-.7 12.3 8.7 15.5 11.9z"/><path d="m59.1 319.4c3.3 3.2 6 12.6 15 12 13.8 0 19-7.7 19-13.6s-28-54-29-62.7 4.8-11.1 9.5-11.1c4.8 0 8.1 2.7 8.1 5.2s-2.4 3-5.7 3 1.4-1.6-1.4-3-4.8 2-4.8 4.1 7.2 2.8 12 1.2c.9 4.7 1.3 5-5.3 13 4.8-3 5.2-3.8 10.5-2-5.3-4.6-1.4-13.7-1.2-16s-1-5.2-3.1-6.6c-3.8-3.4-12.2-3.6-17.2-1.4-7.2 3.3-7.6 12.8-5.7 16l27.2 58.5c1.5 2.4-2.3 10.4-10.9 10.7-9 .7-12.1-8.8-13.7-12.9l12.3 1s.5-2 0-3.2a110 110 0 0 1 -12.3-1.6l-.5-6.2h6l-.4-2.8s-5.1.4-5.6 0c-.5-.3-1-6.2-1-6.2s-1-.4-2-.4-2 .4-2 .4-.4 5.9-.9 6.2c-.5.4-5.6 0-5.6 0l-.5 2.8h6.1l-.5 6.2s-6 1.2-12.3 1.6c-.4 1.2 0 3.1 0 3.1l12.3-.9c-1.6 4.1-4.7 13.6-13.7 13-8.6-.4-12.4-8.4-11-10.8l27.2-58.5c1.9-3.2 1.5-12.7-5.7-16-5-2.2-13.4-2-17.2 1.4-2.1 1.4-3.3 4.2-3.1 6.5s4 11.5-1.2 16c5.3-1.7 5.8-1 10.5 2.1-6.6-8-6.2-8.3-5.2-13 4.7 1.6 11.9 1 11.9-1.2 0-2-2-5.5-4.8-4.1s2 3-1.4 3c-3.3 0-5.7-.6-5.7-3s3.3-5.2 8-5.2 10.5 2.4 9.6 11c-1 8.7-29 57-29 62.8 0 6 5.2 13.5 19 13.5 9 .7 12.3-8.7 15.5-11.9z"/><path d="m59.1 160.6c3.3-3.2 6-12.6 15-12 13.8 0 19 7.7 19 13.6s-28 54-29 62.8c-1 8.6 4.8 11 9.5 11 4.8 0 8.1-2.7 8.1-5.1s-2.4-3.2-5.7-3.2 1.4 1.8-1.4 3.2-4.8-2.1-4.8-4.2c0-2 7.2-2.8 12-1.2.9-4.7 1.3-5-5.3-13 4.8 3.1 5.2 3.8 10.5 2-5.3 4.6-1.4 13.8-1.2 16s-1 5.2-3.1 6.6c-3.8 3.5-12.2 3.6-17.2 1.4-7.2-3.3-7.6-12.8-5.7-16l27.2-58.5c1.5-2.4-2.3-10.4-10.9-10.7-9-.7-12.1 8.8-13.7 12.9l12.3-1s.5 2 0 3.2c-6.4.4-12.3 1.6-12.3 1.6l-.5 6.2h6l-.4 2.8s-5.1-.3-5.6 0-1 6.3-1 6.3-1 .3-2 .3-2-.3-2-.3-.4-6-.9-6.3-5.6 0-5.6 0l-.5-2.8h6.1l-.5-6.2s-6-1.2-12.3-1.6c-.4-1.2 0-3.1 0-3.1l12.3.9c-1.6-4.1-4.7-13.6-13.7-13-8.6.4-12.4 8.4-11 10.8l27.2 58.5c1.9 3.2 1.5 12.7-5.7 16-5 2.2-13.4 2-17.2-1.4-2.1-1.4-3.3-4.2-3.1-6.5s4-11.5-1.2-16c5.3 1.7 5.8 1 10.5-2.1-6.6 8-6.2 8.3-5.2 13 4.7-1.6 11.9-.9 11.9 1.2 0 2-2 5.5-4.8 4.1-2.8-1.3 2-3-1.4-3-3.3 0-5.7.6-5.7 3s3.3 5.2 8 5.2 10.5-2.4 9.6-11c-1-8.7-29-56.9-29-62.8s5.2-13.5 19-13.5c9-.7 12.3 8.7 15.5 12z"/><path d="m59.1 136.7c3.3 3.2 6 12.7 15 12 13.8 0 19-7.7 19-13.6s-28-54-29-62.7 4.8-11.1 9.5-11.1c4.8 0 8.1 2.8 8.1 5.2s-2.4 3.1-5.7 3.1 1.4-1.7-1.4-3.1-4.8 2-4.8 4.1 7.2 2.8 12 1.2c.9 4.7 1.3 5-5.3 13 4.8-3 5.2-3.8 10.5-2-5.3-4.5-1.4-13.7-1.2-16s-1-5.2-3.1-6.6c-3.8-3.4-12.2-3.6-17.2-1.3-7.2 3.2-7.6 12.8-5.7 15.9l27.2 58.6c1.5 2.4-2.3 10.4-10.9 10.8-9 .6-12.1-8.8-13.7-13l12.3 1s.5-2 0-3.2a111.5 111.5 0 0 1 -12.3-1.5l-.5-6.3h6l-.4-2.8s-5.1.4-5.6 0c-.5-.3-1-6.2-1-6.2s-1-.4-2-.4-2 .4-2 .4-.4 5.9-.9 6.2c-.5.4-5.6 0-5.6 0l-.5 2.8h6.1l-.5 6.3s-6 1.1-12.3 1.5c-.4 1.3 0 3.2 0 3.2l12.3-1c-1.6 4.2-4.7 13.6-13.7 13-8.6-.4-12.4-8.4-11-10.8l27.2-58.6c1.9-3.1 1.5-12.7-5.7-16-5-2.2-13.4-2-17.2 1.4-2.1 1.4-3.3 4.2-3.1 6.5s4 11.6-1.2 16c5.3-1.7 5.8-1 10.5 2.1-6.6-8-6.2-8.3-5.2-13 4.8 1.6 11.9 1 11.9-1.2 0-2-2-5.5-4.8-4.1s2 3.1-1.4 3.1c-3.3 0-5.7-.7-5.7-3.1s3.3-5.2 8-5.2 10.6 2.4 9.6 11c-1 8.7-29 57-29 62.8 0 6 5.2 13.6 19 13.6 9 .7 12.3-8.8 15.5-12z"/><path d="m60.2 13c3.3-3.2 2.2-8.5 11.3-7.8 13.8 0 14.2 8.4 14.2 14.3s-20.7 14.1-21.7 22.8 4.8 11 9.6 11c4.7 0 8-2.7 8-5.1s-2.2-3.2-5.6-3.2 1.5 1.7-1.4 3-4.8-2-4.8-4c0-2.2 7.2-2.9 12-1.3 1-4.7 1.4-5-5.3-13 4.8 3.1 5.2 3.8 10.5 2-5.3 4.6-1.3 13.8-1.2 16.1s-1 5.1-3 6.5c-4 3.7-12.3 3.7-17.3 1.5-7.3-3.2-7.7-12.8-5.8-16l20.3-20.5c1.4-2.4 2-9.2-6.6-9.5-9-.7-12.2 11.6-13.8 15.7-2.1-4.5-4.5-16.9-13.6-16.2-8.6.3-10.2 7-8.8 9.5l20.7 21c2 3.2 1.6 12.8-5.7 16-5 2.3-13.3 2.1-17.1-1.4-2.2-1.4-3.4-4.1-3.2-6.5s4.1-11.5-1.1-16c5.2 1.7 5.7 1 10.4-2-6.6 7.9-6.1 8.2-5.2 13 4.8-1.6 12-1 12 1.1s-2 5.6-4.9 4.2c-2.8-1.4 2-3.1-1.4-3.1-3.3 0-5.7.7-5.7 3s3.3 5.3 8.1 5.3 10.5-2.4 9.5-11.1-22-18.1-22-24c0-6 1.4-13.1 15.2-13.1 9-.7 10.1 4.6 13.4 7.8z"/></g><g transform="matrix(1.0673 0 0 1.0673 -194.7 8.3)"><rect height="161.3" rx="85.1" ry="80.7" width="170.2" x="425.9" y="104.5"/><path d="m507 56.4c-.8 0-4.6 26.8-6 32.8-1.4 13.5 18 13 14.8-.5l-8.8-32.4zm6.8 259.8c.7 0 6.5-26.5 8.4-32.4 2.3-13.3-17.1-14-15-.4zm-135.6-131.6c0 .7 27.9 6.3 34.1 8.1 14 2.3 15-16 .6-14l-34.7 6zm271.7 3.2c0-.7-28.2-5.3-34.5-6.9-14.1-1.7-14.2 16.6 0 14.1zm-243.1-88.2c-.5.5 17.9 21.3 21.6 26.4 9.6 10 22.3-4 9.6-10.8l-31.2-15.5zm211.1 171c.5-.5-19.7-19.7-23.9-24.4-10.5-9.2-21.8 5.7-8.6 11.5l32.5 13zm-169-200c-.6.3 8 26.1 9.4 32.2 4.8 12.7 22.2 4.4 13.2-6.5l-22.5-25.7zm123.1 232.4c.7-.3-6-26.6-6.9-32.7-3.9-13-21.8-6-13.7 5.6l20.7 27zm30.3-214.4c-.6-.5-22.8 16.6-28.2 20-10.7 9 3.8 21.2 11.2 9.3zm-183 193.7c.5.5 24-15 29.6-18.1 11.3-8.2-2.2-21.4-10.5-10l-19 28.1zm-35-144.1c-.3.6 24 14.7 29.3 18.4 12.5 6.5 19.8-10.5 5.5-13.2zm253.7 98.4c.3-.6-23-16.3-28-20.3-12-7.4-20.5 9.1-6.4 12.7zm-80.6-172.9c-.7-.2-14.6 23.4-18.3 28.5a7.8 7.8 0 0 0 14 4.7zm-93.9 244.3c.7.3 16.3-22.4 20.3-27.3 7.3-11.6-10.4-19-13.7-5.6zm-77.5-69.3c.3.6 28-6 34.5-7 13.6-3.8 6-20.6-6-12.8zm252.1-102.7c-.2-.6-28.3 4.1-34.8 4.7-14 2.9-7.5 20.2 5 13.2z"/><path d="m534.6 58.1c-.7-.1-10.1 25.4-12.9 31-4.1 13 15 16.2 14.7 2.4l-1.7-33.5zm-48.5 255.9c.7.2 12-24.7 15.2-30.2 5-12.6-13.8-17-14.5-3.3l-.8 33.5zm-9.7-253.4c-.7.2 1.9 27.2 1.9 33.4 1.9 13.3 20.6 8.7 14.4-3.7zm68 251.9c.7-.1 0-27.2.5-33.4-.9-13.5-20-10.1-14.6 2.7l14 30.7zm-116.2-229.5c-.6.4 12.7 24.3 15.2 30 7.2 11.7 22.7.7 11.8-8.6zm164.8 207.9c.6-.4-11-25.2-13-31-6.3-12.1-22.5-2.1-12.4 7.8zm-200-174.3c-.4.6 21.1 18.4 25.6 23 11.1 8.4 21.4-7.2 7.8-12.1zm234.2 139.7c.4-.6-19.7-19.8-23.9-24.6-10.4-9.1-21.8 5.8-8.6 11.6zm-249.6-97.8c-.2.7 26.3 10.8 32.1 13.7 13.4 4.5 17.7-13.4 3.1-13.8zm267.4 57.8c.3-.6-25.4-12.4-31-15.7-13-5.4-18.7 12.2-4.2 13.6zm-268.3-6.3c.1.6 28.7.2 35.2.7 14.2-.7 10.8-18.8-2.8-13.9zm270.2-45c0-.7-28.6-2.2-35-3.1-14.3-.2-12.2 18.1 1.7 14l33.3-11zm-245.7 98.4c.4.6 26-11.6 32-13.9 12.4-6.5 1-21.4-8.9-11.3zm222.3-152.3c-.4-.6-26.7 9.9-33 11.8-12.9 5.7-2.6 21.3 8 11.9zm-180.7 187.7c.6.3 18.9-20.5 23.5-24.9 8.7-10.7-8-20-12.9-7zm139.7-223.8c-.5-.4-20.3 19.1-25.2 23.2-9.4 10.1 6.6 20.5 12.4 7.9l12.7-31.1z"/><g transform="matrix(2.1824 0 0 2.0629 -405 -272.6)"><path d="m360.1 247.9c.7 2.5.8 16.5 14.9 30 14 13.4 38 16.4 38 16.4s.1 1.9-1.6 2c-1.7.2-9.9-1.5-14-2.8-4-1.2-7.6-3.4-8-3.3-.5.2-1.3 1.6-2.5 1.4s-7-6.2-9.6-7.8a80.6 80.6 0 0 1 -13.7-15.3c-2.8-4.5-3.5-7.5-4.4-7.5s-4.2 2.2-4.2 2.2-3-4.5-5.6-11.7c-2.7-7.2-2.4-11.4-1.8-11.7.7-.3.7 5.3 2.7 10.4 2 5.2 4.8 6.8 4.8 6.8s-1.8-2.7-3.2-9.4-2-13.2-1-15.2 1.9-2.6 2-2.5c.2.2-1.7 3.1-.4 10.8s4.8 14.2 5.6 13.9-.5-1.9-1-6.4.5-7.3 1.6-7.7c.5-.4 1.3 5 1.4 7.4zm-9.8 12.8c-2.7-2.5-6.9-11.2-7.8-10.8-1 .5 6.8 13 7 14 .2 1.2 1.9 4.6.6 4.1s-10.6-10.3-9.5-8.4 8.1 10.5 7.7 11-5.8-4.8-6-4.1c-.1.6 5.3 5.8 5.2 6.4s-3.5-3.3-3.5-2.5 3.5 4.7 3.5 5.3-3-2.8-2-1c.9 2 3.5 3.7 3.4 4.3s-2.2-.8-2.2-.5 3.9 1.7 4.8 2.8c1 1.1 7.4 8.5 12.2 12.2s18.6 10.2 19.6 10.2c.9 0 2.3-2 2-2.8s-13.8-5.4-17.5-8.8c-3.8-3.4-13-11.6-13.8-12-.7-.5-2.8-.3-2.8-.8s2.7.3 2.5 0c-.1-.3-3.7-1.9-3.6-2.2.2-.3 2.5.6 2.5.3s-4.2-2.6-4-3.1c.1-.5 3.1 1.4 3.1 1 0-.2-4-3-3.9-3.5s3.1 2.2 3 1.6-2.4-4-2.4-4.4c0-.5 3.6 3.4 4 2.6.2-.7-1.3-7.2-1.2-7.3s2.7 1.4 3.1.5c.5-1-1.8-2.3-4-4.1zm46.1 49.2c-1.9.3-2.8-.4-1.7-2 1.5 0 5.5-1.3 6.9-1.9s2.9-1.4 4.1-2.5c1.2-1.3 2 .7 1.3 1.8-.5.7-2.8 2-4.5 2.7-2.5.8-4.7 2-6.1 1.9zm12.5-5.1c-1.3-1.4-.2-2.4 1.7-3.5 2.8-1.5 2-3.6 5.6-5.3 1.6-1 24-10 31.3-14.8s27.8-20.3 33.3-31c5.4-10.6 2.8-11.4 3.6-11.8.7-.5 1.5 1.5 1.4 3.9-.2 2.3-2 9.3-1.4 10s8.2-5.5 11.4-13 5.6-15.3 7.1-15.3c1.6 0-2.6 12.8-5.3 17.8-2.6 5-5.7 7.5-5 8.6.8 1 8.6-5.5 11.3-10.3 2.6-4.9 5.1-9.2 5.6-8.3a34 34 0 0 1 -6.7 16.1c-4.2 4.8-9.2 8.3-8.4 9 .7.8 6.4 1.6 12.3-2.4 6-4.1 6.6-10 7.3-9.7.8.3-.7 8.4-6.4 13.4s-13.2 5.5-13 6.6c.4 1 16.3-4.6 16-3.3-.3 1.2-20.6 9.2-20.8 10 0 .6 3.5.8 9-.5 5.4-1.2 10.6-5.5 11.3-4.5.2 1.4-3.9 4.8-10.1 6.4-6.3 1.6-9.4 3.7-9.6 4.2-.1.5 11.2-1.4 11.2-.8s-14.8 3.5-14.9 4.3c-.2.7 14-2.9 13.8-2-.4.7-19.3 6.3-19.1 6.6.1.4 15.8-3.4 15.5-2.8-.4.7-26.4 8-26.6 8.5-.2.4 23-5.2 22.8-4.7s-12 3.4-12 3.7 9.5-1.5 9.3-1c-.1.4-24 6.5-24.5 7.4-.5 1 12.4-2.5 12.2-.7s-27.7 11-27.8 9.3c-.2-1.7 16.7-6 16.6-6.5-.2-.5-9.7 1-9.9.1-.1-1 6.3-3 5.8-3.4-.5-.5-5.3 1.4-4.9.3.5-1.1 9.6-5.3 9.4-5.6-.1-.3-3.3 1-3 0 .4-1.1 19.7-6.7 19.4-7.4-.3-.6-8.9 1.4-9.7 1.6-.3-.6 12-5.2 11.8-6-.4-.7-6.6 2.7-7 1.8-.2-1 10.9-5.3 10.2-6s-5.7 1.8-6.4 1.1 10.5-8.4 8.8-8.6c-1.7-.1-3.8 2.4-4 .8.2-2 8.7-5.3 6.8-6.9-3-.9-13.1.7-17.3 3.2s-18.2 16.4-21.6 18.6c-3.4 2.1-15 7-17.2 8-3.4 1.2-4 3-7.5 4.8-6.3 1.7-6.2 3.6-9.2 4.7-1.1.3-12.4 5.7-12.5 5.3zm-15.8 7c-1.9 1-3.6 3.4-2.5 4.4.6 1.2 2.5-2.7 4-2.5l8 .4c4.3.3 6.4-.9 8.8-.7s7.7-1.3 10.2-1.3 3 .3 3.2-.8c.3-1-7.8-.3-11.4-.4-3.6-.2-8.1.7-10.8.7-2.5-.1-6.8-.9-9.5.2z"/><rect height="3" rx="1.7" ry="1.5" width="3.4" x="401.7" y="309.1"/><path d="m445 307.7c1.7-.3 6.3 1.3 9.5 2 5.8 2.3 16.6 1.2 16.6 2.3s-.7 2.4-3.2 2.6-8.8-1-8.6-1 5 2.3 3.6 2.9-5.5-1.3-6.2-.8 3.8 1.4 3 1.7c-.6.3-3.7-.4-4.7-.3-1 .2.8 1.3-.4 1.7-1.2.5-3.2-.6-4-.3-.9.3 1.8 2 .6 2.2s-4-.8-5.6-1c-1.6 0 1.5 1.6.5 1.8-1 .1-3.8-1.3-4.5-1.3s0 2-1 2-2.2-1.7-2.8-1.7 0 2-1 2-1.4-2.1-2.2-2c-1 .2 0 2.7-1.4 2.5-1.3-.1-1.5-2.6-2.6-2.5-1 .2.2 2.5-.8 2.5s-1.2-2.3-2.2-2.5c-1-.1-.6 2.2-1.2 2.2s-1.2-2.2-1.6-2.2c-.3 0 0 2.2-1.2 2s-1.2-2.4-1.5-2.3c-.4.2-.4 1.8-1.2 1.8s-.9-1.6-1.2-1.4c-.4.1-1.6 2.1-2.4 1.8-.9-.3.2-1.9-.2-1.9s-1.4 1.1-2 1 0-1.4-.2-1.4-1.7.8-2.4.8-2.6 1-3.1.1c-.5-1 1.3-1 1.7-1.9.3-.9-1-3.6.4-4.5 1.3-1 5.6 1.3 12-.3 11.6-3.1 20.6-6.7 21.5-6.6z"/></g></g></g></g></svg>