<svg viewBox="0 0 640 480" xmlns="http://www.w3.org/2000/svg"><path d="m0 0h640v480h-640z" fill="#fff"/><path d="m0 336h640v144h-640z" fill="#009543"/><path d="m0 0h640v144h-640z" fill="#00209f"/><path d="m319.6 153c-2.7 0-5.4 3-5.4 3l.3 32.4-10.3 10.7h8.3v18.5l-49 66-7.2-2.6-12.7 27s31.3 19.6 76.7 19c49.8-.5 76.9-19.9 76.9-19.9l-13-26.6-6.5 2.8-49.6-65.6v-19.1h8.2l-11.2-10.6v-32.2s-2.7-3-5.5-2.9z" stroke="#000" stroke-width="1.6"/><path d="m336.7 230.4h-33.9s-12.2-25.9-10.3-44c2-18.4 12.6-27.1 26.6-27.3 16.6-.1 25.2 8.1 27.8 26.6 2.6 18.3-10.2 44.7-10.2 44.7z" fill="none" stroke="#000" stroke-width="8"/><path d="m260.5 292.1c-.6.7-4.7 8.9-4.7 8.9l7-1.5zm4 10.5-7.4 2.4 8.9 3.5zm3.3-10.3 3.7 10.9 9-2.6-2.3-5.2zm5.8 14.8 1.2 4.4 12 3-4.8-10.2zm13.2-9.3 4.3 10.2 9-3.5-3-4.5zm6 13.9 1.4 3.8 14 2-5.9-9.2-9.6 3.4zm13.4-11 5.2 9.1 13-4.8-1.4-3.5-16.8-.7zm7.6 12.4 2.7 4.8 16.2-.5-6-9-13 4.7zm17.1-12 4.4 7.6 10.4-5-2.8-4zm17 5.8-10.3 5.1 2.7 4.5 13.8-2.2zm3.3-8 5.3 6.7 8.7-6.9-3-3zm15.9 3.5-8.3 6.3 2.2 3.9 11.4-3zm11.4-13 2 2.9-5.7 8.5-5.9-7.6zm3.9 7.3 3.5 7-7 2.4-.6-3.3 4-6z" fill="#fff"/></svg>