<svg viewBox="0 0 640 480" xmlns="http://www.w3.org/2000/svg"><path d="m0 0h640v480h-640z" fill="#c4272f"/><path d="m213.3 0h213.4v480h-213.4z" fill="#015197"/><circle cx="107" cy="189.1" fill="#f9cf02" r="35"/><circle cx="107" cy="173.2" fill="#c4272f" r="38.2"/><g fill="#f9cf02"><path d="m91.1 131.8a15.9 15.9 0 0 0 31.8 0c0-6.3-4-7.2-4-9.5 0-2.4 2.4-5.6-2.4-9.6 2.4 4-1.6 4.8-1.6 8.8s1.6 4 1.6 7.1a3.2 3.2 0 0 1 -6.3 0c0-3.1 3.1-6.3 3.1-11 0-4.9-.7-6.5-3.1-10.4-2.4-4-6.4-7.2-3.2-10.4-4.8 1.6-2.4 8-2.4 12s-3.2 6.3-3.2 11 2.4 5.7 2.4 8.8a3.2 3.2 0 0 1 -6.3 0c0-3.1 1.6-3.1 1.6-7.1s-4-4.8-1.6-8.8c-4.8 4-2.4 7.2-2.4 9.6s-4 3.1-4 9.5z" fill-rule="evenodd"/><circle cx="107" cy="179.5" r="25.4"/><path d="m37 230.4v152.7h31.8v-152.7zm108.2 0v152.7h31.8v-152.7zm-70 25.5v12.7h63.6v-12.7zm0 89v12.8h63.6v-12.7zm0-114.5h63.6l-31.8 19.1zm0 133.7h63.6l-31.8 18.9z"/><circle cx="107" cy="306.8" r="33.7" stroke="#c4272f" stroke-width="3.8"/></g><path d="m107 273a16.9 16.9 0 0 1 0 33.8 16.9 16.9 0 1 0 0 33.7" fill="none" stroke="#c4272f" stroke-width="3.8"/><circle cx="107" cy="289.9" fill="#c4272f" r="6.4"/><circle cx="107" cy="323.6" fill="#c4272f" r="6.4"/></svg>