<svg viewBox="0 0 640 480" xmlns="http://www.w3.org/2000/svg" xmlns:xlink="http://www.w3.org/1999/xlink"><radialGradient id="a" cx="842.3" cy="103.7" gradientTransform="matrix(.14152 .03595 -.03453 .14198 213.1 162.4)" gradientUnits="userSpaceOnUse" r="25.9" xlink:href="#d"/><radialGradient id="b" cx="651.5" cy="550.5" gradientTransform="matrix(-.13441 -.05384 .04964 -.12489 397.9 -24.3)" gradientUnits="userSpaceOnUse" r="25.9" xlink:href="#d"/><radialGradient id="c" cx="380.8" cy="740.4" gradientTransform="matrix(.07536 .00282 -.00343 .14804 412.4 -203.6)" gradientUnits="userSpaceOnUse" r="25.9" xlink:href="#d"/><linearGradient id="d"><stop offset="0" stop-color="#fff"/><stop offset="1" stop-color="#f15770"/></linearGradient><path d="m426.7 0h213.3v480h-213.3z" fill="#ce1126"/><path d="m213.3 0h213.4v480h-213.4z" fill="#fff"/><path d="m0 0h213.3v480h-213.3z" fill="#006847"/><g fill="#fcca3e" stroke="#aa8c30"><path d="m355.8 289.4.2 4.5 1.7-1.1-1.3-3.7z" stroke-width=".3"/><circle cx="355.6" cy="288.2" r="1.4" stroke-width=".2"/><path d="m361.1 296.4-3.2-3.1-1.5 1.2 4.5 2.6z" stroke-width=".3"/><path d="m360.9 298.2c-.5-.6-.3-1.5.3-2 .7-.5 1.6-.4 2 .2.5.6.3 1.5-.3 2-.7.5-1.6.4-2-.2z" stroke-width=".2"/><path d="m386.3 249.6 3.4 3.3.4-1.7-3.1-2z" stroke-width=".3"/><circle cx="385.9" cy="248.7" r="1.4" stroke-width=".2"/><path d="m395.2 251.6-5.2 1.4.5-1.7 4.4-.4z" stroke-width=".3"/><circle cx="396" cy="250.8" r="1.4" stroke-width=".2"/><path d="m378 276.8-3.2-4.8.5-.3 3.5 4.2z" stroke-width=".3"/><circle cx="374.5" cy="270.8" r="1.4" stroke-width=".2"/><path d="m378.1 277 4 .7.1-.5-3.3-1.4z" stroke-width=".3"/><circle cx="383.3" cy="277.7" r="1.4" stroke-width=".2"/><path d="m284.6 288c0 .8-.5 1.2-1 1.2s-1-.5-1-1.2.5-1.3 1-1.3 1 .7 1 1.4z" stroke-width=".2"/><path d="m284.6 290.3 1 5-1.3-.5-.4-4.3z" stroke-width=".3"/><path d="m285.7 288.6c.6.7-.4 1.9-1.4 2.2s-2.4-.2-2.4-1.2 1.6-.5 2-.6c.6-.2 1.2-1.2 1.8-.4z" stroke-width=".2"/><ellipse cx="277" cy="296.3" rx="1.6" ry="1.1" stroke-width=".2"/><path d="m279.6 296 4.8-.2-.8-1-4 .4z" stroke-width=".3"/><path d="m280 295.4c.5 1.3.5 3-.9 2.7-1.4-.1-1-1.4-1.2-1.8-.2-.9-1-1.7-.2-2.5s2 .4 2.3 1.6z" stroke-width=".2"/><ellipse cx="264.4" cy="269.2" rx=".9" ry="1.4" stroke-width=".2"/><path d="m264.4 272.4.1 4.6-1.2-1v-3.8z" stroke-width=".3"/><path d="m266.2 271c.3 1-1.3 1.6-2.4 1.4-1-.2-1.9-.7-1.7-1.7.1-1 1.5-.8 2-.5.4.3 1.8-.8 2.1.7z" stroke-width=".2"/><ellipse cx="256.2" cy="276.5" rx="1.6" ry=".7" stroke-width=".2"/><path d="m259.1 276.5 3.6-.3 1.6 1.2-5.3-.2z" stroke-width=".3"/><path d="m257.8 274.5c1 0 1.6 1.1 1.5 2.3-.2 1.1-1 2-2 2-.9-.2-.8-1-.8-1.2 0-.3.5-.7.6-1 0-.4-.3-1.3-.1-1.6 0-.4.3-.5.8-.5zm-3-28.3c-.4.6-1.2 1.1-1.6.9-.4-.3-.2-1.2.2-1.8.4-.7 1-1 1.4-.8.4.3.4 1 0 1.7z" stroke-width=".2"/><path d="m250.7 253.5 2-4.8-.2-.3-2.4 3.4z" stroke-width=".3"/><path d="m252.4 248.7c-1-.7-1.2-1.5-1-2.3.4-.7 1.2-.2 1.2-.2l.8.7c.4.2 1 0 1.4.6.5.6.2 1.2-.1 1.4-.4.1-1.5.4-2.3-.2zm-8.5-.6c.7.4 1.1 1 .9 1.5-.3.5-1 .5-1.8 0-.7-.3-1-1-.8-1.5.2-.4 1-.5 1.7 0z" stroke-width=".2"/><path d="m246 250.2 3.8 2.2-.1 1.8-4.1-3.5z" stroke-width=".3"/><path d="m246 250.6c-.8 1-1.6 1-2.3.7-.7-.5-.1-1.2-.1-1.2l.8-.7c.2-.4 0-1 .7-1.4s1.2 0 1.3.3c.1.4.3 1.5-.4 2.3z" stroke-width=".2"/></g><path d="m356.6 289.8-.4.4-.3 1v-1.5l.5-.3zm.2-.9s-.3.5-1.1.5-1.2-.4-1.3-.8-.1-.7.2-1.2c.2-.5-.4.4-.4.4v1l.6.6.5.2h.4l.7-.2.4-.3zm4.2 7.3s-.4.2-.7.1c-1.9-.6-3.5-1.8-3.5-1.8l3.8 2.4zm2.4 1.1s0 .7-.8 1c-.7.3-1.2.2-1.5-.1s-.4-.6-.4-1.2l-.1.6.4.8.8.4.5-.1.5-.2.4-.5.3-.5zm24.3-47.6-.1.4v.7l-.9-1 .4-.5zm-.5-1.2c0 .7-.9 1.6-1.6 1.3s-1.2-1-.9-1.8l-.2.3.1 1.1.7.6h.9l.6-.3.4-.7zm10 1.8s-.1-.4 0 0-.6 1.7-1.4 1.6c-.7-.1-1-.8-1-1.4s-.1.2-.1.2v.8l.5.4.6.4.6-.2.7-.3.2-.6v-.9z" fill="#aa8c30"/><path d="m393.8 251s0 .4-.4.7l-1.3.7 2.8-.8-.2-.7-.9.2zm-17.1 22.5-.1.5v.8l-1.6-2.5.5-.3zm-.9-2.4c-.2.7-1.4 1-2 .8-.5-.4-1-1.6-.3-2l-.4.2-.1.7.2.7.6.7.5.1.8-.2.6-.4s.4-1.3.1-.6zm5.6 5.7s0 .3-.5.3h-1.6l2.6.6.2-.6z" fill="#aa8c30"/><path d="m384.6 277.5c.3.8-.5 1.7-1.5 1.4s-1.3-1.3-1-1.8l-.2.6.2.8.6.6h1.3l.6-.7.2-.7-.1-.2zm-99 11.1c.3.3-.1 1.5-1.2 2-1.2.4-1.7 0-2-.4s-.3-.8-.3-.8l-.2.2.2.6.5.5 1 .2.8-.1.7-.5.4-.3.3-.5v-.6l-.1-.3z" fill="#aa8c30"/><path d="m284.6 291.1-.3.4-.3.8v-1.4l.5-.3zm-3.8 4s0 .3.2.5l1 .3h-1.8l-.2-.7h.8zm-.6 1.2v.2a1.4 1.4 0 0 1 -.1.5c-.2.5-.3 1-1 .9a1.2 1.2 0 0 1 -1-1.1c0-.4-.2-.6-.2-.6v.6l.4 1 .7.3h.5l.5-.2.2-.6.1-.5v-.5zm-4.7-.1s.2.8 1.2.8 1.2-.2 1.2-.2v.3l-.2.2h-1.7l-.3-.3-.3-.5v-.3zm-9.4-25.4v.4c-.1.3-.7 1-1.8 1-1 0-1.5-.3-1.8-.7-.3-.3-.4-.8-.4-.8v.5l.4.7 1.1.5h1l1-.3.5-.5.1-.6zm-1.7 2.3s-.4 0-.6.2a4 4 0 0 0 -.4.4v-1.3h1zm-4.7 3.4.5.3c.5.3 3.1.5 3.1.5h-4.1l.1-.8zm-.5 0-.2.6c-.2.5-.7 1.6-1.6 1.4-.9-.1-.7-.8-.7-.8v-.4l-.2.7.2.4.4.2.7.1.4-.2.6-.5.2-.5.2-.6v-.3zm-2.2.2s0 .2-.7.2-1.7-.3-1.7-.3l.4.4.5.2h1.3zm-2-29s0 .5-.3.8c-.4.3-1.3.5-1.8.2s-1.5-1.3-1.5-1.3l.4.8.7.6 1 .3 1-.2.4-.4.2-.3-.2-.4z" fill="#aa8c30"/><path d="m252 249.1v.6l-.2 1.1.9-2-.4-.2zm-5.4 1.5.2.5c.2.5 2.3 2.6 2.3 2.6l-3.3-2.9.4-.5zm-1 .3s-.5.3-1 .3c-.3 0-1 0-1-.4-.1-.5.1-.7.1-.7l-.3.6.1.4.5.3h.7l.6-.3.2-.2zm-1.5-1.4h-.5c-.7 0-1.4-.8-1.4-.8l.5.8 1 .5z" fill="#aa8c30"/><path d="m399.9 240.2c-.3 3.8-4.1 5.8-6.1 7.2s-3 3.2-3 3.2l-.6 2.2-.3 1.5-.1.5c.1.4.3 1 .3 2l-.1 4.3 2.7-1.9 1.9-.7.6-.1s-2.2 2.1-3 4.4-2.4 7.2-5.3 8.8c-3 1.6-4.8 1-5.7 1.8-1 .8-1 1-1 1l-1.3 1.8-1 1.2-.9.7-.6.4a7.5 7.5 0 0 1 -.2 1.7l-.7 2.4s.6-.4 1.3-.5h1.3s-.5.6-.7 1.3c-.2.6.1 4.6-3.6 7-3.8 2.3-13.4 2-13.4 2l-1.8.7-1.7 1.3-1.6 1.7v.4s-1.3 1.5-2.1 2l-2.8 1.9 2.2.1 3.5 1.5s-2.2 0-3.6.5c-1.5.6-8.2 4.4-11.4 4.3-3.3-.1-8-4.9-8-4.9l-2-1.4-3.5-.7-4.3-.2v-.6l.1-.7s1.5-.2 3.8.1c2 .2 2.7 1 4.4 1.1 1.7.2 3 0 3.5-.3.7-.3 5.9-4.7 5.9-4.7l5.8-2 2.3.3 1 .2.9.3-1 1a7.3 7.3 0 0 1 -1.4 1.1l.7.6 3.7-.6 1.2.3.3.2c0-.3.2-.8.6-1.3.4-.6 2.5-2.3 3.4-2.9l1.4-1c.3-.3 1.5-3.3 1.5-3.3l.1-1.6 4.1-4 2.8-2.9 1.2-3.3-.2-.7s1 1 .9 3c-.2 2.2-.7 2.9-.7 2.9s2.8-2 4.3-2.6c1.2-.5 2-.5 2.4-.5.4-.2 1.5-.9 2.1-1.8.8-1.2 1-1.5 1-2l.2-2.8-.3-7 2.4-5.4 3.5-3.1.7-.4-.4 1.2v1.5s1.8-2.5 2.7-2.9l.5-.3a7 7 0 0 0 .8-2l.3-3v-3l-.5-2.3-1.7-4.3v-5.8l-1.2-1.6s1.1 0 2.5 2a13.5 13.5 0 0 1 1.9 5l3.3-10.3s.9 1.2 1.5 3.3l.8 3.3 1.4-2.8.1 1c.2 1 2.3 2.1 2 6zm-67.3 65s-.7-1.6-3.9-3.2c-3.1-1.5-5.5-1.8-5.5-1.8v1.1l5 2.2 2.4 2z" fill="#9ca168"/><path d="m355.4 295.6c.3-.4 3-2.8 4.4-3.5s3.2-.8 3.2-.8c1.9-.4 2.2-.1 6.6-2.5 4.3-2.4 5.3-5.2 6.2-5.9.8-.7 2.3-.8 2.3-.8l-3.4 3.9a28.5 28.5 0 0 1 -5.8 4.5 17.8 17.8 0 0 1 -7.6 1.8 7.7 7.7 0 0 0 -4 2c-1.3 1-2 2.2-2 2.2s-.2-.5 0-.9zm12-12.7c-4 3.7-5.3 7.2-5.3 7.2l5.4-4.9c1.9-1.8 4.5-2.6 5.6-3.7 1.2-1.1 1.3-2 2-2.7l1.3-1s-1.8-1.4-9 5.1zm-8.5 8.6s1.7-.8 2.4-2.3c.5-1.2.2-1.5 1-2.8 0 0 4.2-4 5.7-5.8 2.6-3.1 1.4-5.7 1.4-5.7s.3 1.3-.8 2.7c-1 1.4-6.5 5-7.2 7.2-.6 2.2-.3 2.3-.6 3.4-.6 2.6-1.9 3.3-1.9 3.3zm-2.8 10.5s-2.1-1.4-4.5-1.3c-4.9.4-9 3.4-12.2 3.4-3.1.1-4.4-1.5-6.9-3.2-2.6-1.8-9.2-1.5-9.2-1.5v.3s4.4 0 6.4.6c3.6 1 5.6 4.8 9.7 4.6 5.5-.3 9.9-3.6 12-3.6 3.8 0 4.7.7 4.7.7zm-24-2.4s3.7.6 6.6-1.5c3-2.1 6.4-5 8.3-5.2 2 0 4 .4 4 .4s-2.5-1-4.4-1c-2 0-4 .2-5.8 1.3s-2.7 3-4.6 4.3a12.8 12.8 0 0 1 -4.1 1.7zm-.7 5c-.5 0-1.1.3-1.3.3s-1.3-1.2-3-2c-1.6-1-4-1.4-4-1.4s-.3 0 .3.2l3.8 1.5a8.6 8.6 0 0 1 2.6 2.1c.1.3.6.9 1.5.8 1 0 1.3-.5 1.2-1 0-.3-.6-.5-1.1-.5zm2.6-3.6s1.5.8 4 .8c5.2-.2 8.6-3.8 12-5 3.4-1.4 5.2-.3 5.2-.3s.1-.2 0-.2a7 7 0 0 0 -3.9-1.2c-5.7 0-11.2 3.7-13.5 4.7s-3.8 1.2-3.8 1.2zm56-39.9c-1.8 1.9-4.5 7.7-5.6 9.3-1.2 1.6-2.7 2-3.3 2.7-.6.6-2.7 3.5-3.2 4.1-.5.7-.6.5-1 .8-.3.3-.5.3.1.2s.8-.5 1.6-1.5c1-1 .9-1.4 2.3-2.7 1.4-1.2 3.9-2.6 5.1-4.2 1.3-1.5 3.8-7.5 5.2-9s4-2.4 4-2.4-2-.6-5.3 2.7zm-9 11.1s-.1-1 1.2-2.6 1.7-1.3 2.8-3.6c1-2.3 1.5-4.5 2.3-6.9.9-2.4 2.3-4.8 2.3-4.8s-1.3.2-2.7 2a34.5 34.5 0 0 0 -4.8 8.7c-1.1 3.4-1.1 7.2-1.1 7.2zm-1.7 2.2s.5-.2.5-3.2c.1-2.9-.1-7 .7-9 .9-2 5.4-7 5.4-7s-1.9.5-4.5 2.5-3.7 4.7-3.6 6.7c.2 2 1.3 4.2 1.4 6.1l.1 4zm10.5-20.1s1.1-4 1.6-5 .5-1.5 2.7-4c1.3-1.5 2.6-2.4 3.1-4.4.6-2 .6-7.7.6-7.7s-.6.5-1.1 1.5-.1 4.7-1 6.4c-.8 1.7-2.7 5.6-3.7 6.5 0 0-.2-2.9.2-5.7.3-3 1.3-3.8 1.7-5.7s.2-6.7.2-6.7-1.5 1.5-2.3 3.4c-.8 1.8-1.2 5-1.2 7.5s.5 4.5.6 5.9.2 2-.4 3.6l-.6 2a34.8 34.8 0 0 1 -.7 2.6zm-3.5-21.6s1.4 1.7 1.2 3.6c-.3 2-1 4.5-.2 6.5.7 2 1.9 2.2 2.2 3.4s.3 3.4.3 3.4.6-4.3.2-5.5c-.5-1.1-.7-.6-1.3-1.8s0-4.7-.4-6.7c-.5-2-2-2.9-2-2.9z" fill="#717732"/><path d="m306.7 304.8s.4-1 3.1-2.4a34 34 0 0 1 7.3-3c.3.3-.3 1.8-.3 1.8l-2.6.8-2.1 1.2-2.5 1.6z" fill="#9ca168"/><path d="m313.6 297.7c-3.4.1-5.3 1-6 1-.2.1-.7.5-1.2.3a4.9 4.9 0 0 1 -1.5-1.5l-.7-.7-.2 2.5-5-4.4-.6 3-.7 1.3-5-4.8.2 3.7-1.4.1-3.6-2.5-1 .4 1.2 2.2-4.6.3-1 .8a6.3 6.3 0 0 0 -1 1v.4h1.9c.4-.2.6-.7.7-.5.2.2.3 1.2.9 1.1.6 0 2.7-1.7 4.2-1 1.7.8-2.2 2-1.8 3.1.4 1.2 3.2.7 4 .3.6-.3 2.7-3 3.6-2 1.2 1.4-2.5 2.5-1.8 3.9.6 1.3 2.7 1 3.7.4 1-.5 3.4-4.1 3.9-3.4.9 1.4-2 2.7-1.3 3.7.8 1 2.3 0 3.4-.8s1.5-2.5 3-3.3c1.4-.8 1.3-.5 1.7-.5s1.5-1.1 1.5-1.1l3.5-1.5 1.6.2.9.4 1.7.2.2-1.4s-2-1-3.3-1zm-27.4 0 .7-1.3-.4-.6s-1.2-.7-2.3-1.8a6.9 6.9 0 0 0 -2-1.6l-2.2-1.4-.8-2.8-.5-.9-1.3.6-1.7-6.1-.3-1.1h-.7l-1.5 3.6-1.5-2.3-.4-5-1 1-1.3 1.4-2.3-4.6s-.1-.1-.3.3c0 .3-.3 1.8-.1 2.6a26.2 26.2 0 0 1 -6-5.2l-1-2.5 1-2 .5-2.6-2.2.9-.4-5.7-.3-1.8-2.7 3.8-1-1.7v-3.6l-.7-.2-1 2s-1.1-2-1.6-2.5c.1-.8.2-2.9-.3-4.5-.6-2-1.3-3.1-1-4.8.2-1.6.9-1.8.8-2.5 0-.8-1.2.5-.8-.5s3.8-3.2 3.1-4.4c-.7-1.1-4 1.9-3.3-.1.8-2 4-2 4.2-4.9.1-1.7-3 1.1-3.3.2-.3-.8 2-2.6 1.9-3.8 0-1 .4-1.2-.2-1.8s-2.6 2.3-2.6 2.3l-2-.7-.8 3-.6 2.5-2.6-1.5.7 3.1.6 3-2.7-.7 1.4 2.6 1.9 2 1.1 1.5.9.4 1 1.1.5 1.7.6 1.9.1 1.8v2.4l-.1.4v1.1c-.5 0-1.4-.8-1.7-.3-.3.6 1.6 2 1.2 2.4-.3.4-3-.5-3.2.3-.2 1 .2 2.2 1.8 2.6s5.3 1.2 4.7 2c-.6.7-4.7-2.3-4.5-.1a3.8 3.8 0 0 0 2.6 3.4c1 .4 5.1 0 4.9 1-.3.9-3.3-.4-3.6 1s2.1 1.6 2.6 1.6 2.2-.1 2.9.4l4.3 4.1a75.7 75.7 0 0 0 4.6 3.4c-.8 0-2.4-.3-2.6.3-.3.7 6 3 4.2 3.8-1.8.7-3.8-2-4.3-.4-.6 1.7 1.2 3 2.2 3.6s6.7.1 5.6 1.4-5.3-.8-5.3.7 2.7 4 4.2 3.9c1.4 0 3-2.4 3.6-1.1.7 1.2-1 1.7.3 2 1.4.4 2.3-1.4 4-1 1.5.3 4 1.3 5.4 2.5a79 79 0 0 1 2.9 2.8z" fill="#9ca168"/><path d="m308.4 304.1c1 0 1 .6 1.2.6.1 0 1.8-1.5 3.3-2.3a17.5 17.5 0 0 1 4-1.4l.1.2s-2.8.7-4.2 1.7l-3 2.1c-.2.2-.8.7-1.7.7-1 0-1.4-.6-1.4-.9 0-.2.7-.7 1.7-.7zm8.5-4.3s-.9.1-1.3-.3a4.3 4.3 0 0 0 -2.6-.8 7 7 0 0 0 -4 1.8c0 .1-.3.6-1.4 1.3.4.1 1.1-.4 2-1a7.4 7.4 0 0 1 3.6-1.4c1-.2 1.7.4 2.2.7.5.4 1.4.3 1.4.3v-.6zm-50.5-20.6v-.7a16.1 16.1 0 0 1 -2.2-1.1c-1.6-1-5-3.8-5-3.8l2.8 2.7c1.4 1.3 4 2.9 4 2.9zm35.6 25.2 1.5-2.1c.9-1.5 1.7-2 1.9-2.2.1-.2-.4-.9-.7-1.4l-.2-1.2s.4.8 1 1.3a9.5 9.5 0 0 1 1.1 1s1.4-.2 1.4-.5c0-.2 0-.4-.2-.5-.3-.1-.5.2-1.1 0-1.3-.6-1.8-2.6-2.6-2.6-.8-.1-.2 2-.6 2-1.1.2-2-4.3-5-4.5-2 0-2.3.3-2.4.7 0 .5 2.5 3.1 1.6 3.5-.8.4-3.5-4.2-5.5-4.2-1.9 0-2 .7-2 1.1.2.4 2.2.8 1.8 2.2-.5 1.4-2.5-2-4.3-1.9-1.8.2-2 .3-2 .9-.1.5.6 1.2.3 1.4-.2.2-1.4.1-2.3.7-.9.7-2.1 2.4-2.1 2.4s1.2-1.7 2.7-1.9a50 50 0 0 1 5.6 0l-1.1-.8c-.6-.5-1.1-1.6-1.1-1.6l1.7 1.5c.8.7 1.9 1.2 1.9 1.2s1.7.2 1.8.4 0 .6-.8 1.3l-1.7 1.7 2-1.6 1.5-1.2 1.4.2c.1 0 0-.5-.8-1.7l-1.6-2.5s1 .9 2 2.3c1.1 1.3 1 2 1.4 2s1 .2 1.4.1c.4 0 .3.6-.4 1.7s-1.2 2.5-1.2 2.5.8-1.2 1.6-2c.7-.8 1.1-1.7 1.5-1.8h1.5l-.8-1.6c-.6-1-.8-2.6-.8-2.6s.6 1.4 1.4 2.5l1.3 1.9 1.4-.1.3.1c0 .5-.2.7-.7 1.8a17.7 17.7 0 0 0 -1 2.1zm-21.5-12.4c1.2.5 1.7.5 1.7.5s-1.7-1-2.1-2.4c-.5-1.4 0-4.4-.8-4.3-.7 0-1.1 2.1-1.8 1.7-.8-.4.2-4.4-.6-6-.8-1.7-2.6-2.9-3-2.3s-.3 4.2-1.5 3.5c-1.1-.8.1-4-.2-5.3-.4-1.5-1.2-2.5-1.9-2.1-.6.3.3 3-.7 3s-.9-1.9-1.3-2c-.5-.2-.6.3-.9 0-.2-.4 0-1.7-.6-1.6s-.5 1.2-.3 1.7c.1.6.5 1.4.7 1.8s1 .9 1 1.2c-.1.3-.5.6-1 .6h-1.9s1.4.4 1.9.4 1.4-.2 1.7.2c.2.5 1.4 2 1.4 2s.3-.8.4-2.2c.2-1.5 0-2.7 0-2.7s.5 1.6.4 2.7c0 1-.4 3-.4 3s1.1.8.8 1c-.3.3-1.5.3-2.8.3-1.4 0-3.3-.5-3.3-.5a13.7 13.7 0 0 0 6.7 1.3l1.8 2s.9-1.5 1-3v-3l.4 2.8c0 1.3-.4 3.6-.6 3.8a5 5 0 0 1 -1.9 1l-3.5.5s2.2.3 3.8 0c1.5-.4 1.7-.9 2.2-.6l.8.7 1.3 1c.1.1-.7.4-1 .7l-1.5.7 2.2-.7a22.3 22.3 0 0 0 1.1-.4l.5.2-.1-1.2-.3-1.8s.5.8.7 1.6l.1 1.6s.2.2 1.4.6zm-31.1-35.6s.3-1.7.3-3.6a14.3 14.3 0 0 0 -1.9-5.8l1-1.4-1.2 1-1.2-.5a3 3 0 0 1 -.9-1l1.2.8c.6.2.7.1.7.1l-.5-2-1.9-1c-1.3-.6-2.5-1.8-2.5-1.8l2.8 1.5c1 .4 1.6.4 1.6.4l1.6-.6 1.7-1.1s-1 .6-1.8.7l-1.6.3-.3-2.4-1.1-1.1c-.9-1.2-1.6-2.9-1.6-2.9s1 1.2 1.7 1.7c.7.6 1.4 1.5 1.4 1.5l1.6-1 2.8-2-2.7 1.3-1.6.7s-.2-1 0-1.5c.3-.4.8-1.2.7-1.6 0-.5-.4-.3-.5-.7-.2-.3.4-2.6.4-2.6l.1 1.2c0 .5-.2 1 .4 1s3.2-2.7 3.6-3.2c.3-.5.8-1.8-.6-1.3-1.4.6-1 1.8-2.2 1.7-.4 0-.8-1.5-1.2-1.2-.4.4-1.4 1.3-1.6 2.4-.2 1 .2 2.6-.4 3.1s-1-1.8-2.2-1.5-1.5 2-1.3 2.6 2.7 3.5 2 4c-.9.3-2.9-2.6-4-.6-1 1.9 3.4 4 4 4.4.5.5 0 .6.8 1.6s1.8 1.2 2.4 1.8a13 13 0 0 1 2.1 5.9zm11.7 17.1s-1-1.2-.7-3.3c.3-2 1.8-5.7 1.3-6.2s-2 2.2-2.4 1.6.9-4.3.2-5.8c-.6-1.5-.7-2.5-2-2.3-1.3.1-1.8 4.4-2.5 3.6-.6-.7.4-2.6 0-3.7-.5-1-.7-1.3-1.3-1.2-.7.2-1 2.2-1.4 2.1-.5 0-1.2-2.3-2.2-2-.9.3 2.3 4.5 2.3 4.5s.5-.5.8-1.2l.6-1.5s.3 1.3 0 1.9c-.2.5-.3 1.7-.3 1.7s-.8.3-2.1 0a8.8 8.8 0 0 1 -2.3-.7s.8.6 2.1 1l2.7.7a44.9 44.9 0 0 0 2 2.7l.8-2.1 1.3-3.5-.6 3.9-.7 3s-1 0-2.6-.3l-3.6-.8 3.6 1.2 2.8.7 1.4 1.9 1-1.5 1-1.8s-.3 1.4-.7 2.3a27.4 27.4 0 0 1 -.7 1.4l-1.8.2h-2.5a19.6 19.6 0 0 0 4.5.9s0 .5.7 1.3a4.6 4.6 0 0 0 1.3 1.3z" fill="#717732"/><path d="m314.4 310.8s-.6-.6-1.4-1c-.9-.5-1.2-.4-1.2-.4l-.4-.1.8-2 5.5-5.3.9-5.3h3.4v7.2l1 .5 6.2 3.7v1.6l-1 .4-.7.4-2.3.2-4-3-1.8-1.7-3 4z" fill="#fff"/><path d="m318.8 296.7-.1 1c0 .9 0 5.2-.2 5.8s-3.2 1.8-4.9 3.3-1.8 2.6-1.8 2.6-.5 0-1.6.4c-1 .4-1.5 1-1.5 1s.6-2.6 3.4-5c2.7-2.6 4-2.8 4.4-3.2.3-.4 0-5 0-5.5.1-.4.5-.4.7-.4zm7 15.7.8-1.1 1-.8-1.5-.8c-1.5-.6-2.3-.4-3.3-1.2a13.6 13.6 0 0 1 -2.2-2l-1.5 1.2 1.7 2c.9.8 2.7 1.1 3.5 1.6a8.8 8.8 0 0 1 1.6 1.1z" fill="#016848"/><path d="m321.5 296.6s1.7 0 1.9.2l.2.6c0 .1 0 4-.2 5.3a8 8 0 0 1 -1.4 3l-4 3.7c-1.2 1.2-2.4 2.8-2.4 2.8l-.8-1c-.3-.4-.7-.6-.6-.9a10 10 0 0 1 3.3-3.4c2-1.3 3.6-2.8 4-4.9.3-2 0-5.4 0-5.4z" fill="#cd202a"/><path d="m332.5 310s-.4-.4-1.8-.4l-1.5.1s-.8-1-2-1.7c-1.2-.8-2.1-.7-3.5-1.6-1.3-.8-2-2.1-2-2.1l1-2s1.2 1.5 2.4 2.4c1.1.9 3.7 1.7 4.6 2.4z" fill="#cd202a"/><path d="m345 286.4s-3.6-1.4-3.4-2.7c.3-1.2 8.3-3.3 8.3-3.3l.1-2.1s-1.2-.1-3.2.5c-2 .7-5.2 1.6-8.6 1.6a1735.4 1735.4 0 0 0 -34.4-2.2c-3.7-.3-6-6-6-6l-1.8.4s.5 2.7-.4 3a65 65 0 0 1 -13.9-6l-.6 2.6s7.3 4 7.1 5.5c-.2 1.4-2.4 1.3-2.4 1.3l1 1.8c.3 0 12 .6 12.3 4.1 0 1.5-3 2.3-3 2.3l1 1.2v.6s6.7 0 8.5 1 2.7 2.6 5 3.8c2.2 1.3 17.3 1 19.6.3 2.7-.7 4.3-3.7 8.7-5 4.3-1.4 5.7-1.4 5.7-1.4z" fill="#30c2dc" stroke="#0872a7" stroke-width=".5"/><circle cx="284.5" cy="280.7" fill="#fff" r="2.1" stroke="#0872a7"/><circle cx="296.4" cy="270.9" fill="#fff" r="2.1" stroke="#0872a7"/><circle cx="346.5" cy="286.6" fill="#fff" r="2.1" stroke="#0872a7"/><path d="m275.1 267.8c-.7 1.6 2 4.6 4 5 1.8.2 2.8-.2 3.2-1.1a2.8 2.8 0 0 0 -.4-2.5c-1.2-1.7-6-3-6.8-1.4z" fill="#f8c83c"/><path d="m281 270.2c0-1-1.6-1.9-2.6-1.9s-2 0-1.8.5c.1.6 2.7 1.3 2.8 1.6 0 .3-.8.6-.4 1 .5.4 1 .1 1.4-.2s.7-.4.7-1z" fill="#fff"/><path d="m297.7 288.3c.4 1.4-.7 2-2 2.7-1.5.6-4.3.2-5-.9-.6-1.1 1-3 2.8-3.4 1.7-.4 3.8.3 4.2 1.6z" fill="#f8c83c"/><path d="m294.8 289c.5 0 .6 1 1 .8.5 0 1-.8.8-1.3-.1-.6-1-1.3-1.8-1.2-.8 0-3 2-2.8 2.5s.8.5 1.2.3 1-1 1.6-1z" fill="#fff"/><path d="m349.2 281c1.3 1.7 3.6.2 4.2-.5.6-.6 2.4-1.7 1.7-2.8-.8-1.1-2-1-3-1-.8 0-2.6 1.4-2.9 2-.3.5-.6 1.6 0 2.4z" fill="#f8c83c"/><path d="m349.6 280s.1-1.9 1.8-2c1 0 1 .3 1.8.7.7.4 1-.5 1-.5s0 1.3-1.1 1.3c-1.2 0-.8-.5-2-.7-1-.2-1.5 1.1-1.5 1.1z" fill="#fff"/><path d="m321.9 276.4-.9-.6h-2.8l-3.4.1 3.4 9.9 4 5.8 1.6.6 3.1-.2.6-1.6-1.2-9.5z" fill="#f9aa51" stroke="#953220" stroke-linecap="round" stroke-linejoin="round" stroke-width=".5"/><path d="m310.6 277 .2-1.1 1.8-.1a7.2 7.2 0 0 1 2.2.1s2.3 2.9 3.1 4.7 1.7 4.8 2.7 6.6c1 1.9 3.2 5 3.2 5h-4l-2-.6-5.6-9z" fill="#f9aa51" stroke="#953220" stroke-linecap="round" stroke-linejoin="round" stroke-width=".5"/><path d="m308.2 275.8h2.6a14 14 0 0 1 3.9 5.4c1 2.8.5 3.2 1.8 6.2 1.4 2.9 3.2 4.9 3.2 4.9s-3.9.2-6-.2c-2.3-.4-3-.3-3.6-1a9.2 9.2 0 0 0 -1.7-1.3h-2.2l.5-3.1-.6-6.9.1-3.5zm23.4 1.8-3.7-1.5-7-.4.6 3.6a30.2 30.2 0 0 0 2.6 7.7c1.1 2 2.2 4.4 2.8 5 .6.5 4.6-1.1 4.6-1.1l2.6-.4-.3-2.8-.4-1 .6-8-.6-1.2z" fill="#f9aa51" stroke="#953220" stroke-linecap="round" stroke-linejoin="round" stroke-width=".5"/><path d="m307.1 277.7c0 .8 1 .9 1.2.8.2 0 1-.3 1-1.5s-.7-2.1-2.2-2.2c-1.4 0-2.5 1.7-2.5 3 0 1.2 1.2 1.8 1.2 2.3 0 0-1.2 1.1-1.1 3.1 0 2 1.6 3.6 1.6 3.6s-1.7 1.3-1.7 2.7 1.3 2.3 2.6 2.3c1.2 0 2.8-.8 2.8-1.8s-1-1.7-1.7-1.7c-.8 0-1.1.5-1.1.8m25.6-10.9c0 .9-.6 1-1 1s-1.2-.4-1.2-1.5c0-1 1.4-1.6 2.4-1.6.9 0 2.4 1.2 2.4 2.7s-1 2.6-1 2.6.6.3.6 2.2c0 2-1.2 3.3-1.2 3.3s1.6.6 1.6 2.6-1.4 2.6-2.3 2.6c-1 0-2.6-.5-2.6-1.9 0-1.3.8-1.8 1.5-1.8.6 0 1.3.7 1.3 1.5" fill="#f9aa51" stroke="#953220" stroke-linecap="round" stroke-linejoin="round" stroke-width=".5"/><path d="m309.5 288.6.4.6c.2.4.3 1 .8 1.4.8.7 7.2 1 9.2 1s7.8.2 8.9-.4c1-.7 1.2-1.8 1.9-2.3l.9-.4-.9.7v1.4l.5.8s-.1.4-.8.8-1.3.5-2.3.6-13.2.1-15.2-.2c-2-.4-1.8-.3-2.4-.7a4.3 4.3 0 0 1 -1-1l.3-.8-.3-1.4zm20-11.8 1 .5s-.9.3-1.6 2.3-.1 2.5-.6 2.7-5.8 0-5.8 0l-1-2.1 8-3.3z" fill="#953220"/><path d="m346.4 276s-.9-.3-1.3-1c-.4-.8-.8-1.7-.5-2 .4-.1 1 .5 1 1.1s.8 2 .8 2zm10.4-2.8s.7 1.2 1 1.3l1.2.6s-1.5 0-2-.4a8.3 8.3 0 0 1 -1-1.5z" fill="#231f20"/><path d="m360 274.2s-1 .5-1.6.2c-.8-.3-1.4-.7-1-1 .2-.4.4-.3.8.2.4.4 1.8.6 1.8.6zm5.3-4.5s-.8.6-1.3.6-1.5-.2-1.5-.4 1.3-.4 1.6-.3h1.2zm-8-10.5s-1.1.4-1.5 1c-.4.5-.3 1.2.2 1.2s.6-.7.6-1zm-5.2 2.9s-.9.5-1 1c-.3.5-.5 1.6 0 1.6s.7-.8.7-1.2c0-.5.3-1.4.3-1.4z" fill="#231f20"/><path d="m342.8 268.4-2.9 3s6.6 3.7 11.7 3.5c5-.1 10.8-4 11.2-5 .4-.7 0-4.3-.6-5.4-.7-1.1-4.2-3.8-5.5-3.7s-3.7 1.9-5.8 4c-2.2 2.1-2 3.9-5 3.7z" fill="#8cbebf" stroke="#04534e" stroke-width=".5"/><path d="m342 269.6s7 1 9.1-.8c2-1.8 4.3-5.3 5.7-6 1.4-.9 2-.9 2-.9l1.6 1.1 1.8 1.5.6 3.4v1.8l-2.2 1.8-4 1.9-4 1.2-3.2-.1-6.7-2-1.7-1.1-.4-.4z" fill="#0c8489"/><path d="m352.8 265.5c0-.6.4-.6 1-.6s1 .2 1 .8-.5 1.4-1 1.4c-.6 0-1-1-1-1.6zm2.8 1.8c0-.6.4-.8 1-.8.7 0 1.3.7 1.3 1.2s-.5 1-1.1 1c-.7 0-1.2-.9-1.2-1.4zm-1 4.2c0-.7.5-.8 1.1-.8s1 .3 1 1a1.2 1.2 0 0 1 -1.1 1.2c-.7 0-1-.7-1-1.4zm-3.7-1.3c0-.7.7-1 1.3-1s1 .7 1 1.4-.4 1.3-1 1.3-1.3-1-1.3-1.7zm-5.9.7a1.4 1.4 0 1 1 3 0 1.4 1.4 0 0 1 -3 0z" fill="#04534e"/><path d="m355.6 267.3c0-.5.7-.8 1-.8.5 0 .8.4.8.8s-.3 1-.7 1-1-.5-1-1zm-1 4c0-.5.6-.8 1.2-.8s1 .3 1 .8-.5 1-1 1c-.6 0-1.1-.4-1.1-1zm-3.7-1.2c0-.6 1-.9 1.5-.9.4 0 .3.4.3 1 0 .7-.3 1.2-.7 1.2s-1-.7-1-1.3zm1.8-4.7c0-.5.4-.5.8-.5s.6.1.6.7-.3 1-.6 1c-.4 0-.8-.6-.8-1.2zm-7.7 5.1c0-.6.6-1.3 1.4-1.3s1.7.3 1.7 1c0 .6-1 1.8-1.8 1.8-.9 0-1.3-.8-1.3-1.5z" fill="#8cbebf"/><path d="m347.7 269.4s-1 .1-1.5.6-.5 1-.3 1.2c.3.2.7-.3.8-.6 0-.2 1-1.2 1-1.2zm4.7-1s-1 .6-1 1.3c-.1.6 0 1 .2 1 .3 0 .5-.9.4-1.2s.4-1.2.4-1.2z" fill="#231f20"/><path d="m353.2 269.3s-.6 0-1 .4c-.5.5-.9 1-.6 1s.8-.2.8-.5c0-.2.8-.9.8-.9zm1-5.4-.8.6c-.2.2-.5 1-.2 1 .3.2.5 0 .8-.5.2-.5.2-1.1.2-1.1zm3.5 2.3s-.9 0-1.2.5c-.3.4-.5.8 0 .8.3 0 .4-.2.6-.5.1-.4.6-.8.6-.8zm-.5 4.1s-.2.7-.8 1c-.5.3-.7.5-1 .1-.1-.4.2-.6.4-.7z" fill="#231f20"/><path d="m362.8 267.5s.4 2-1.3 3c-1.7.9-6.4 4.2-10.9 3.8s-9.6-3-9.6-3l-.7.4 1.2.5 3.4 1.4 4 1.2 2.5.1 2.1-.2 4-1.3 3.3-1.7 1.8-1.4.4-.6v-1.9z" fill="#04534e"/><path d="m274.9 242.2s1 .9 1 1.6c-.2.8-.4 1.1-.7 1-.3-.2-.3-1-.3-1.3zm7.7 7.1s-.3 1.4-.9 1.5c-.5.1-.9-.4-.8-.7.1-.2.6 0 .8-.2zm-16.8 1s.4.8 1 1c.8 0 1-.4 1-.6-.1-.2-.4-.2-.8-.2l-1.2-.1zm3 6s.7.6 1.5.7a1.3 1.3 0 0 0 1.3-.7c0-.2-1-.2-1.3 0-.3.3-1.5 0-1.5 0zm5.3 4.4s1.4-.2 1.6-.6.6-1 .3-1.3c-.3-.4-.5.5-.7.9-.1.3-1.2 1-1.2 1z" fill="#231f20"/><path d="m282.6 257.1s1-6-4-10.4c-5-4.3-8.1-3.2-9.8-1.6s-3.2 6.7 2 11.3c5.3 4.5 11.7 3 11.7 3z" fill="#8cbebf" stroke="#04534e" stroke-width=".5"/><path d="m267.6 250.7s-.1-3.4 1.5-4.4c1.5-1 6.8-1.8 9.3 3.1 2.6 5 2.7 7.4 2 10h-2.7l-4.3-1.8-3.5-2.6z" fill="#0c8489"/><path d="m282 258s-.9 1-2.7 1c-1.7-.2-10-2.3-12-9.8v1.7l.1.5.6 1.5 1.7 2.5 2.2 1.9 2.8 1.4 2 .6 2.5.4h1.5z" fill="#04534e"/><path d="m277.7 255.9c0-.7.3-.7.8-.7s1-.2 1 .4c0 .7-.4 1.6-1 1.6-.4 0-.8-.7-.8-1.3zm.3-4c0-.4.4-.8 1-.8.5 0 .9.4.9.9 0 .4-.4.8-1 .8-.5 0-.9-.4-.9-.8zm-3.7 4.4c0-.4.4-.7 1-.7s1 .3 1 .7c0 .3-1 .8-1.5.8-.6 0-.5-.5-.5-.8zm-.4-4.6c0-.6.3-.4.8-.4s1.2.1 1.2.7-.7 1.4-1.2 1.4-.8-1.2-.8-1.7zm-3.4.7c0-.5.3-1.1.9-1.1s1.3.6 1.3 1.1-.5 1-1.1 1-1.1-.5-1.1-1zm.6-4c0-.6.3-.5 1-.5.6 0 1.1.2 1.1.7s-.7 1.2-1.4 1.2c-.6 0-.7-1-.7-1.5zm3.7-.5c0-.4.5-.3 1-.3.7 0 1.1.4 1.1 1s-.7 1-1.3 1-.8-1.2-.8-1.6z" fill="#04534e"/><path d="m271 248.3c.2-.4.4-.7.8-.7.5 0 .9.1.9.7 0 .4-.4.9-.8.9-.5 0-1-.5-.8-1zm-.6 4c0-.5.2-1 .7-1s1 0 1 .5-.5 1.1-1 1.1-.7-.1-.7-.6zm4.4-4.3c0-.4.3-.4.8-.4s.8 0 .8.5c0 .4-.4.7-.8.7s-.8-.4-.8-.8zm-.9 3.9c0 .5.5 1 1 1s1-.5 1-1c0-.6-.6-1-1-1s-1 .4-1 1zm4.3-.6c0 .5.4.9 1 .9.5 0 .9-.4.9-.9s-.5-.9-1-.9-1 .4-1 1zm-4.1 5c0-.5.5-.9.9-.9s.9.3.9.7-.8 1-1.2 1c-.5 0-.6-.4-.6-.9zm3.6-.7c0-.5.4-.6 1-.6.5 0 .8.1.8.6 0 .6-.5 1-1 1s-.8-.5-.8-1z" fill="#8cbebf"/><path d="m278.7 249.4s.5.7.6 1.3v1.2c-.3 0-.6-.4-.7-.9s0-1.6 0-1.6zm-3.2-3.3s.4.5.4 1 0 1-.3 1-.3-.4-.3-.8zm-3.7.5s.4.5.4 1 0 1-.3 1-.3-.4-.3-.8z" fill="#231f20"/><path d="m270.5 247.3 1 .4c.3.4.5.8.3 1-.1.2-.5-.1-.6-.4zm2.8 3.8s.7 0 1.1.5c.4.3.8.6.5.9-.2.2-.7-.2-1-.5zm-3.4 0 1 .3c.3.2.4.7.2.8-.1.1-.4 0-.6-.4l-.6-.8zm8.3 2.5.2 1.4c0 .5.1 1-.2 1s-.3-.7-.3-1c0-.5.3-1.4.3-1.4z" fill="#231f20"/><path d="m277.3 254.9.8.5c.3.2.3.6.1.6l-.4-.5a9.2 9.2 0 0 1 -.5-.6zm-3.7.2.9.3c.2.2.3 1 .2 1.1 0 .1-.4 0-.6-.3l-.5-1z" fill="#231f20"/><path d="m272.1 243.8s-3.2.7-3.8 2.9c-.6 2-.7 4.4-.7 4.4l-.4-2.7.6-1.7 1-1.6 1.4-1 1.3-.4zm10.2 12.5s.4-.8-.6-3.4c-1-2.5-3-6-3-6l1.6 1.8 1.2 2 .6 1.8.5 1.7v1.6l-.3.6z" fill="#04534e"/><path d="m285.6 252.2s1.2.7 1.3 1.1.2.6-.1.7-.8-.4-1-.7a6.5 6.5 0 0 1 -.2-1.1zm-4.8 12.8s.6-1 1.3-1.3c.7-.4 1.2-.4 1.4-.1.2.2-.4.7-1 .9l-1.7.6zm8.1 3.1s.8-.4 1.3-1c.5-.5.6-.9.4-1-.2-.3-.8 0-1.1.5-.3.4-.6 1.5-.6 1.5zm-.9-.7s.3-1 .6-1.4c.3-.3.6-.5 1-.3.2.2 0 .6-.2.9a7.8 7.8 0 0 1 -1.4.8z" fill="#231f20"/><path d="m301.5 261.2s-5-7.2-12.8-7.6a7.4 7.4 0 0 0 -8 7c.2 1.6 2.6 5.2 10.9 5.8s9.6-3.9 10-4.1c.3-.2-.1-1-.1-1z" fill="#8cbebf" stroke="#04534e" stroke-width=".5"/><path d="m295.6 256.3s2 1.5 3 2.8c.8 1.2 1 2.2.5 2.3-.5.2-5-4-8.8-4.9-3.7-.9-6.9 0-7.6 1.7s-.4 4.5 1.2 5.6c1.8 1 9.7 2.3 9.7 2.3l3.7-.5 2.3-1.3.5-1.3.6-1.6.2-.7-1.9-2-3.4-2.5z" fill="#0c8489"/><path d="m289.2 257.3c0 .4-.5.7-1 .7s-.9-.3-.9-.7c0-.5.4-.9 1-.9s1 .4 1 .9zm-4.6 1.6c0-.5.6-.4 1-.4.6 0 1 .3 1 .8s-.8 1.1-1.3.9c-.6-.3-.7-.8-.7-1.3zm5 2.7c0-.6.4-1 1-1 .7 0 1.2.4 1.2 1s-.8 1.2-1.5 1.2-.7-.6-.7-1.2z" fill="#04534e"/><path d="m285.8 262.7c0-.5.6-.6 1-.6.5 0 1 .5 1 1s-.5.9-1 .9c-.4 0-1-.8-1-1.3z" fill="#8cbebf"/><path d="m292.5 264.5c0-.4.2-.8.7-.8.4 0 1 .3 1 .7s-.5.9-1 .9a.8.8 0 0 1 -.7-.8zm3-2.3c0-.5.3-.4.8-.4s1 .2 1 .8-.6.8-1.1.8-.7-.6-.7-1.2z" fill="#04534e"/><path d="m289 256.9c0 .4-.2.6-.7.6s-.9-.2-.9-.6c0-.5.2-.6.6-.6s1 .1 1 .6zm-2.5 1.9c0 .5-.7.7-1 .7-.5 0-.8-.2-.8-.7s.3-.6.8-.6 1 .1 1 .6zm1 3.8c0 .4 0 .7-.5.7s-1-.3-1-.7 0-.7.5-.7 1.1.3 1.1.7zm4-1.3c0 .4-.7 1-1.2 1-.4 0-.6-.9-.6-1.3s.4-.7.8-.7 1 .6 1 1zm5.8 1.3c0 .4-.7.4-1 .4-.5 0-.8-.5-.8-1 0-.4.1-.8 1-.7.5 0 .8.8.8 1.3zm-3.4 1.7c0 .5-.3.8-.7.8a.8.8 0 0 1 -.8-.8c0-.4.4-.6.8-.6s.7.2.7.6z" fill="#8cbebf"/><path d="m294.4 262s.8-.3 1.5-.3c.6 0 .6.3.6.4s-.5.3-.7.2a86.2 86.2 0 0 1 -1.4-.4zm-3.3 2.8s.6-.4 1.1-.5.9 0 .8.4c0 .3-.2.3-.6.3zm-2.2-5s1.4.6 1.7 1.1c.3.6.4.7.1.9s-.6-.2-.8-.5z" fill="#231f20"/><path d="m288.5 261.6 1.6-.3c.5 0 .6 0 .7.2 0 .2-.1.3-.5.3zm-3.4 0s1.2.2 1.5.5.3.6.1.7c0 .2-.6.1-.8 0z" fill="#231f20"/><path d="m285 263.3s.4-.7.8-.8 1-.1 1 .1c.1.2-.4.5-.7.6l-1.2.1zm-1-5.1 1.2.3c.4.3.5.6.4.7 0 .1-.5.2-.8 0-.5-.4-.7-1-.7-1zm2.6-3s1.2.4 1.6 1c.4.5.3.8.1.9l-.9-.4c-.3-.3-.8-1.4-.8-1.4z" fill="#231f20"/><path d="m300 263.7s-2.3 2-7.7 1.9c-5.5-.2-10.4-2.5-11.6-5l.5 1.2 1.2 1.6 3.8 2 4.3.9 3.3.2 3.2-.6 2.5-1.1.4-.7.2-.4zm.8-2.5s-.9-1.2-2.2-2.3c-1.2-1.2-6.2-4.4-6.2-4.4l4 1.8 2.7 2.2 1.8 2z" fill="#04534e"/><path d="m301 256.4s1.4.5 1.6.8l.5.6s-.3 1-.6.6l-.8-.9zm4-2.2s1.3.5 1.8 1.1c.5.7.4 1.2.2 1.3-.2 0-1-.7-1.2-1a47.3 47.3 0 0 0 -.7-1.4z" fill="#231f20"/><path d="m306.4 254s1.2.8 1.4 1.2c.1.4.5 1 .1 1-.3.2-.9-.4-1-.8l-.6-1.5zm6.8 1.5s1 .4 1 1.2v1.3l-.7-.7v-.7l-.3-1zm1.8.7s.8.7.9 1.2c0 .5.2.8-.3 1-.4 0-.6-.5-.6-1zm-12.3 15s.6.2 1.2 0c.5-.2 1-.7.9-1-.1-.4-.4-.7-.8-.2-.4.4-.2.6-.5.8l-.7.3zm6.8 1.8s.9-.2 1.5-.9c.6-.6.9-1 .5-1.2s-1 0-1 .5zm5.5.1 1.3-.9c.5-.4.7-.7.4-1-.3-.5-.6-.2-.8 0l-.2.7-.6 1.2z" fill="#231f20"/><path d="m316.7 273.1s.8-.9 1-1.4c.1-.5.2-1-.1-1-.4 0-.8.5-.8.9v1.5z" fill="#231f20"/><path d="m299.9 264.1c0-2.4 3.5-8 7.5-8 1.6 0 4.9 1 7.5 2.1 2.2 1 3 2 4.4 2.4 1.5.4 3.7.1 3.7.1l5-.5-4 5.7-1.4 1.2s-1.2 2.4-4.7 3.8c-3.6 1.4-9.5.4-12.2-.3s-6-3.2-5.8-6.5z" fill="#8cbebf" stroke="#04534e" stroke-width=".5"/><path d="m299.9 264.1h.2c0-.5.2-1.3.6-2.1a12.2 12.2 0 0 1 2.7-3.8c1.1-1 2.5-1.8 3.9-1.8.8 0 2 .2 3.4.6a29.4 29.4 0 0 1 4.1 1.4c1 .5 1.8 1 2.4 1.5.7.4 1.3.8 2 1a9 9 0 0 0 2 .2l1.8-.1 4.4-.5-3.6 5.2-1.4 1.2v.1a9 9 0 0 1 -4.6 3.7c-1.3.4-2.8.6-4.5.6-2.8 0-5.9-.5-7.6-1a8.4 8.4 0 0 1 -3.8-2.1 5.7 5.7 0 0 1 -1.8-4h-.5c0 1.7.8 3.2 2 4.4a9 9 0 0 0 4 2.3c1.7.4 4.8 1 7.7 1a14 14 0 0 0 4.7-.7 9.4 9.4 0 0 0 4.9-4h-.3l.2.1 1.4-1.3 4.3-6.2-5.6.7h-.1a14.8 14.8 0 0 1 -3.4-.1 5.5 5.5 0 0 1 -1.9-1c-.6-.4-1.4-1-2.5-1.4a29 29 0 0 0 -4.2-1.5c-1.3-.4-2.6-.6-3.4-.6h-.1c-1 0-2 .3-3 1a11.2 11.2 0 0 0 -3.3 3.5 8.3 8.3 0 0 0 -1.4 3.7z" fill="#04534e"/><path d="m324 264.9c-.4.3-1 .3-1.4.3-.5 0-11.6-6.7-15-6.4-3.5.3-6.8 1.7-6.9 5.3 0 3.5.8 3.5 1.5 4.5s7.5 2.5 7.5 2.5h4.1l3.3-.4 3-1.6 1.5-1.3 1.1-1.3z" fill="#0c8489"/><path d="m306.5 263c0 .8-.3 1.3-1 1.3-.6 0-1.1-.3-1.1-1s.4-1 1-1c.7 0 1 .1 1 .8zm1.1-3c0-.6.6-.8 1.2-.8.7 0 1.2.2 1.2.8s-.5 1-1.2 1c-.6 0-1.2-.4-1.2-1zm6.7 1.8c0-.5.4-.9 1-.9.5 0 .9.4.9 1s-.4.8-1 .8a1 1 0 0 1 -1-.9zm1.3 4c0-.6.5-1 1-1 .6 0 1.2.2 1.2.8s-.2 1.3-.8 1.3-1.4-.4-1.4-1zm-3.2 2.7c0-.6.5-1 1-1 .7 0 1.2.4 1.2 1 0 .5-.5.9-1 .9-.7 0-1.2-.4-1.2-1zm-6-1c0-.6.3-1 .9-1a1 1 0 1 1 0 1.9 1 1 0 0 1 -1-1z" fill="#04534e"/><path d="m306.4 263c0 .5-.4 1-1 1a1 1 0 0 1 -1-1c0-.6.4-.8 1-.8s1 .2 1 .7zm3.3-3.2c0 .5-.2.9-.8.9-.5 0-1.3-.4-1.3-.9s.5-1 1-1c.6 0 1 .5 1 1zm6.4 1.7c0 .5-.4.9-1 .9s-.9-.4-.9-.9c0-.4.4-.8 1-.8s.9.4.9.8z" fill="#8cbebf"/><path d="m312.7 264.2c0 .7-.3 1.2-1 1.2-.6 0-1.1-.3-1.1-1s.3-1 1-1 1 .2 1 .8z" fill="#04534e"/><path d="m308 267.2c0 .5-.4 1-1 1s-1-.5-1-1 .6-.8 1.2-.8.8.3.8.8zm4.5-3a1 1 0 0 1 -1 1 1 1 0 0 1 -1-1 1 1 0 0 1 1-1 1 1 0 0 1 1 1zm5.2 1.3c0 .6-.3 1-1 1-.6 0-1.1-.4-1.1-1s.2-.8.8-.8 1.3.2 1.3.8zm-3.3 2.7c0 .6-.4 1-1 1s-1.1-.4-1.1-1c0-.5.5-.8 1-.8.6 0 1 .3 1 .8z" fill="#8cbebf"/><path d="m314.8 265s1.6-.2 1.9 0c.3.4.3.8.1 1-.1 0-.8.1-1-.1 0-.3-1-1-1-1zm-1.7-5.4s1.3.3 1.8.9c.5.5.4 1 .4 1.1-.2.1-.6.2-1-.2zm-3.7 2.6s1.5.8 1.8 1.3c.3.4.4.8.2 1-.1.2-.8 0-1-.3 0-.3-1-2-1-2z" fill="#231f20"/><path d="m308.7 263.3s1.7.2 2 .5c.5.4.8.4.8.6 0 .3-.3.4-.5.4a3.6 3.6 0 0 1 -1.2-.5l-1-1zm-1.9-4.8s1.7.2 2 .5c.4.3.5 1 .1 1.2s-.8-.2-1-.5a8.2 8.2 0 0 0 -1-1.2zm-3.6 2.5s1.5.8 2 1.4c.3.4.5.7 0 1-.4 0-.9-.7-.9-1a9 9 0 0 0 -1.1-1.4z" fill="#231f20"/><path d="m302.8 263 1.5-.2c.5 0 1.2-.1 1.2.2 0 .4-.6.5-1 .4zm8.6 5.6s1.1-.7 1.7-.6c.5.1.7.1.7.4 0 .4-.7.3-.9.3zm-6-.9s.4-.6.9-.7c.4 0 .6 0 .7.2 0 .2-.4.6-.6.6h-1z" fill="#231f20"/><path d="m322.6 266.6s-1.6 2-4 3a14 14 0 0 1 -7.2 1.1 15.2 15.2 0 0 1 -11.2-5.2l.4 1.1 2 2.6 2.3 1 3.5 1 3.3.3h2.5l3-.5 1.9-.7 1.3-.8 1-.8 1.2-2zm-3-5.9s-1 .3-3-.9-4.3-2.8-8.8-2.8-5.9 3-6.2 3.2l2-2.6 2-1.1 1.7-.3h1.5l2 .6 1.7.6 2.1.7 1.8 1 2.2 1.1zm6 1.4h-3.4c-.8 0-.8.2-1 .4a4 4 0 0 1 -.2.4l-.8-1.7 3.5-.5 2 .7-.2.6z" fill="#04534e"/><path d="m320.7 280.4c.2.5.6 1 1.1 1h1.6l3.6-.3 1.2-1.4.8-3.2 1-1.2 3.3-1.9 2.8-.8 1.9-.2 2.5-.8 1.9-1 .8-1.2.8-1.8-.8-2.5-2-2.7-3.4-1.3h-2.8l-3 1.1-5.5 1.3s-3 1.3-4.3 3.7c-1.3 2.3-1.2 3-1.5 6-.2 3.2 0 7.2 0 7.2z" fill="#0c8489" stroke="#04534e" stroke-width=".5"/><path d="m322.2 279.2c1 0 .2-1.7 1.4-3.8 1.2-2 2.6-4.6 3-4.6s.4.4.9.3c.4-.2 1.2-.8 1.2-1s0-1.3 1-2c.8-.8 2.1-1.9 2.7-2s1-.3 1 0c.1.3-.3.7.1.8.4.2 1.4.1 1.6-.5l.2-1s.6-.5 1.8-.3c1.2.3 1.3.2 1.4.7.1.4-.5.5-.4.8v.6c.2.2.4 1 1.2 1 .8-.1 1.1-.6 1.1-.6l.3-.4s.2-.5-.1-.7-.2-.4 0-.3c.4.1 1.6 1.8 2 1.1s.5-1.7.2-2a91.2 91.2 0 0 1 -1.9-2.7l-3-1-4 .3-4 2.2-3.6 2s-.2 2.9-.8 2.3c-.7-.5-1.6-2-1.9-1.5s-.9 2.7-1.3 3.8c-.3 1-1.4 4.4-1.3 5.6s.8 2.9 1.2 2.9z" fill="#8cbebf"/><path d="m325.8 274.4c-.3 0-.7.3-.8.5-.2.2-.3.5-.2 1 0 .3.7.7.7.7h.5l1-.3.3-.8c0-.5-.3-.6-.4-.6a29 29 0 0 1 -1.1-.5zm6.2-5c-.6-.3-.8.1-1 .3v.5s.2.8.4 1c.3 0 1.1.3 1.3 0 .3-.2.5-.4.5-.9s-.7-.7-.7-.7l-.5-.3zm5 1.1c0-.2-.5-.3-.9-.2-.3 0-.7.4-.6 1 .2.7.8.7 1.2.6.5-.1.4-.8.4-.9zm-14.4 1c0 .3.5 1 1.2.9a1.3 1.3 0 0 0 1.2-1c0-.4-.4.3-1 .5s-.7.2-1 0c-.2-.4-.4-.4-.4-.4z" fill="#8cbebf"/><path d="m327.3 275.5s0 .6-.4 1c-.5.3-.8.3-1 .3-.3 0-.6 0-.8-.3l-.3-.7s.5.8 1.3.6a2 2 0 0 0 1.2-.9zm13.3-8.3s0 .6-.5.9-.7.3-1 .3c-.2 0-.6-.1-.7-.4-.6-1-.3-1.5-.3-1.5s.4 1.6 1.3 1.5a2 2 0 0 0 1.2-.8zm-11.9 2.9s-.4 1.2-1.2 1.2c-.9 0-.8-.2-.7-.4 0-.1.3.2.7 0 .4 0 1.2-.8 1.2-.8zm2.3-.3s0 1 .2 1.2c.3.4.7.5 1 .5s.6 0 .9-.4.1-.8.1-.8l-.2.5c-.3.3-.5.3-.8.3s-.7 0-.8-.3zm4.3-4.3s.2.7-.3 1.2c-.5.6-1.5.2-1.5.2s.8.3 1.2-.2c.4-.4.6-1.2.6-1.2z" fill="#04534e"/><path d="m321.7 281.1s5.3 0 5.7-.8c.4-.7-.4-3.6 2.7-5.8 3.2-2.2 5.7-2.2 7.4-2.3 1.7-.2 5.3-1.3 6-4.5.3-2-2.3-2.2-3.3-4-1-2-3.6-1.2-3.8-1.2-.1 0-3 0-4.3 1.3-.9.8-.8 1.8-1.1 2.2-.4.5-4 0-4.3.6-.4.6.1 1.7-.2 2-.2.3-1-.8-1-.8l.2-2.8 4.5-2.6 5-2.8 3.5.1 3.5 1.8 1.7 2s.3.8.5 2.3a5.3 5.3 0 0 1 -.2 2c-.8 2.8-3.7 4.8-6.7 5a14 14 0 0 0 -7 2.5c-1.4 1-2.1 5.3-2.1 5.9 0 .5-6.6.1-6.6.1v-.2z" fill="#04534e"/><path d="m324 270.8c-.3.3-.7.2-.8 0-.2-1 .3-2.2.3-2.2v1.6c.1.2.4.1.5.3zm3.2-.6c-.2-.1-.1-1 0-1.3.2-.3 1.7-1.4 1.7-1.4l-.6 1.5c-.2.4-.7 1.3-1 1.2zm-1.2 5.3c-.3 0-.3-.4-.3-1s1-1.6 1-1.6l-.4 1.2.2 1c0 .3-.3.4-.5.4z" fill="#231f20"/><path d="m328.4 274s-.5.6-1 .9-1.1.7-1.4.6c-.4 0 .1-.8.3-.9zm4.5-6.4s-.6.5-.9 1.2-.4 1.3-.1 1.4c.3.2.7-.8.8-1.1z" fill="#231f20"/><path d="m334.6 269.9s-.5-.4-1.2-.6c-.8-.2-1 0-1.2.2 0 .2-.6.5-.3.7.2.2.6-.3.8-.3.2-.1.5-.3.9-.2zm-1-4.5c.3.3.7-.2 1-.6.4-.4.7-1.2.7-1.2l-1 .7c-.4.3-.9 1-.7 1.1zm6.9-.1s-1 .4-1.2.8c-.3.4-.7.8-.4 1 .3.3.6-.2.8-.5zm-2 4.6s-.3.6-.9 1c-.5.4-1.2.5-1.3.3s.1-.6.3-.7l.8-.2a7.3 7.3 0 0 0 1.1-.4z" fill="#231f20"/><ellipse cx="328.8" cy="207.4" fill="url(#a)" rx="2.9" ry="4.3" transform="matrix(.98849389 .15126082 -.15126082 .98849389 0 0)"/><path d="m295.4 247-1.7 4.2 1.4-.2.7-3.8z" fill="#fcca3e" stroke="#aa8c30" stroke-width=".3"/><path d="m296.1 245.1c-.6 0-1.1.4-1.2 1 0 .7.4 1.3 1 1.4.6 0 1.1-.4 1.2-1 0-.7-.3-1.3-1-1.4z" fill="#fcca3e" stroke="#aa8c30" stroke-width=".2"/><path d="m369.7 255.8-4.2 4 1.7.4 2.9-3.8z" fill="#fcca3e" stroke="#aa8c30" stroke-width=".3"/><path d="m371.6 254.1a1.5 1.5 0 0 0 -2 .6c-.5.7-.3 1.5.4 2 .7.3 1.6 0 2-.7.4-.6.2-1.5-.4-1.9z" fill="#fcca3e" stroke="#aa8c30" stroke-width=".2"/><path d="m262.8 233 2.2 4.9 1-1.4-2.6-3.7z" fill="#fcca3e" stroke="#aa8c30" stroke-width=".3"/><path d="m261.9 230.9c-.6.4-.6 1.3-.1 1.9.4.6 1.3.7 1.8.2.6-.5.6-1.3.1-2a1.3 1.3 0 0 0 -1.8-.1z" fill="#fcca3e" stroke="#aa8c30" stroke-width=".2"/><path d="m296.6 245.3s.3.1 0 0c-.5 0-1.4.4-1.4 1a1 1 0 0 0 1 1c.5 0-.2.2-.2.2l-.7-.2-.2-.4-.2-.5.1-.6.4-.5.5-.2h.3z" fill="#aa8c30"/><path d="m295.6 248.1s-.3 0-.5.3a49.4 49.4 0 0 1 -.7 1.1l1-2.3.4.2zm76.4 6.4s.3.4-.1 0c-.4-.3-1.8-.2-2.1.5-.4.8 0 1.4.6 1.7.6.2-.2 0-.2 0l-.7-.5-.1-.6v-.7l.5-.6.7-.3h.7l.3.2z" fill="#aa8c30"/><path d="m369.4 257.3s-.3-.2-.8 0l-1.4.9 2.3-2.2.5.6zm-107-26.7s.4-.1 0 .1c-.5.3-.8 1.4-.3 2 .6.5 1.3.4 1.7 0 .4-.5 0 .2 0 .2l-.7.4h-.6l-.6-.3-.4-.6v-.8l.2-.5.3-.3.3-.2z" fill="#aa8c30"/><path d="m264 233.8s-.3.1-.2.6l.3 1.5-1.2-2.7.7-.2z" fill="#aa8c30"/><ellipse cx="337.6" cy="-128.1" fill="url(#b)" rx="4.6" ry="3.1" transform="matrix(.45554491 .8902128 -.8902128 .45554491 0 0)"/><path d="m262.6 241.2s1 .2 1.5 0 .6-.7.7-.8.3-.6.2-1a3.8 3.8 0 0 0 -1-1.4l-1-.1c-.1-.1 0-.4-.2-.5-.3 0-1.7 1.6-1.5 1.8.3.3.4 0 .5.1v1.1c0 .3.8.8.8.8z" fill="#e92736"/><path d="m264 238.1c.1.3.7 1 .9 1 .2.2.8.2 1 0 .3 0 1-.7 1-1a1.5 1.5 0 0 0 -.1-.7c-.2-.3-.1-1-.4-1.1-.2 0-.3-.1-.5-.3v-.7c-.3-.3-2.6 1.1-2.4 1.4.2.2.4 0 .5.1z" fill="#e92736"/><path d="m269.2 237.6c.2-.4.1-1.5-.1-1.8s-.6-.3-.7-.4c0-.1.3-.2.3-.5s-2.6.1-2.4.4.6.1.6.3-.4.4-.5.6l.3 1.1c0 .2 0 .4.2.5l.6.2h1.4c.1-.1.2-.1.3-.5zm22 12.8s.3.7.8 1h1l.6-.5c.2-.2.4-1.2.3-1.4 0-.2-.5-.6-.5-.8s.3-.2.2-.4-2-.2-2 .2c0 .3.3.2.2.3 0 .2-.5.5-.6.7-.2.1 0 1 0 1z" fill="#e92736"/><path d="m293.8 249.5c0 .2-.2 1 0 1.1 0 .2.3.7.5.8h1.2a1.2 1.2 0 0 0 .4-.6c.1-.3.6-.7.5-.9s-.2-.2-.1-.4c0-.2.3-.2.3-.5s-2.1-1-2.2-.7c0 .3.3.2.2.4 0 .2-.7.6-.8.8z" fill="#e92736"/><path d="m297.3 252.5c.3-.2 1-.9 1-1.1 0-.4-.3-.6-.2-.7l.5-.1c.1-.2-1.6-1.6-1.7-1.3 0 .3.3.4.2.5l-.7.1c-.1.1-.5.6-.5.8s-.3.2-.2.5l.2.4c.1.2.8.9 1 .9zm66 5.5s0 .8.4 1.2c.3.3.6.3.8.4h.7a3 3 0 0 0 1-1c0-.3-.3-.8-.2-1s.3 0 .3-.2c0-.3-1.6-1.1-1.7-.8-.1.2.2.3 0 .4l-.8.2c-.2 0-.5.8-.5.8z" fill="#e92736"/><path d="m366 258.5-.8.8c0 .2 0 .7.2.8 0 .2.7.6 1 .5.1 0 .3 0 .5-.2.2-.1.8-.2.8-.4l.1-.4c.1-.1.4 0 .6-.2s-1.2-1.7-1.4-1.5 0 .3 0 .4c-.2 0-.9 0-1 .2z" fill="#e92736"/><path d="m366.4 262.2h1.4l.4-.5c.1 0 .1.2.4.2.2 0 0-2-.3-1.8-.2.1-.1.5-.2.4-.2 0-.3-.3-.5-.3a2.4 2.4 0 0 0 -1 .1s-.2 0-.3.2l-.2.4v1c.1.2 0 .2.3.3z" fill="#e92736"/><path d="m264.2 239c.2.4-.1 1.2-.3 1.4-.1.2-1.3-.1-1.3-.3s-.1-.6 0-.8c.2-.2.6-.7.9-.6.3 0 .6.3.7.4zm.3-1.3c-.2.3 0 .6.2.7.1.2 1 .4 1.2.3.2-.2.6-1.5.4-1.7s-.6-.2-.7-.2c-.2 0-1 .6-1.1.9zm2.7-1.3v.7c.2.1.7.5 1 .5s.5-1 .5-1.1c0-.2-.1-.3-.3-.4l-1.2.2zm26.1 13.7c0 .4-.7.7-.9.7s-.7-1-.6-1c.1-.2.3-.5.5-.5s.7 0 .9.2l.2.7zm1.1-.6c-.2.1-.3.4-.3.6s.3.8.5.9c.2 0 1.2-.5 1.3-.7 0-.2-.2-.5-.4-.6l-1-.2zm2.4 1c-.2 0-.4.3-.4.5 0 0 0 .6.3.8.2.2.8-.2.9-.3v-.4c0-.2-.8-.6-.8-.6zm68.6 8.2c-.2.2-.9.2-1 0-.3 0-.3-1-.1-1 .1-.1.4-.3.6-.2.2 0 .6.3.6.6zm1 .1c-.3 0-.5.1-.6.3-.1.1-.2.7 0 .9.1.1 1.2.2 1.3 0v-.5zm1 2h-.5c-.1 0-.4.4-.4.7 0 .2.7.3.8.3l.3-.2-.1-.8z" fill="#f7e204"/><ellipse cx="438.6" cy="-93" fill="url(#c)" rx="2.2" ry="4.5" transform="matrix(.67042662 .74197584 -.74197584 .67042662 0 0)"/><path d="m285.8 199.3s-3.8.3-6.5-.1-2-7.3-2.1-7.5c0-.2-1.6-1.8-1.4-3.3.3-1.5 5.2-5.5 5.8-5.8.5-.1 1.5.3 1.5.3s1.2-1.2 1.6-1.2.9.7.8 1c-.2.3-1.9 1.3-2 2-.2.8 0 1.5-.5 2.3-.5.7-1.4 1.7-1.5 2.4-.1.6-.4 1.1 0 1.4.5.2 2.1 0 3.5-.6 1.4-.7 2-1.5 2.1-1.4.2 0-.8 1.7-2.3 2.4-1.5.6-2.5 1.3-3.3 1.2 0 0-.8 2 1.8 2.2 2.6 0 4-.6 4-.6zm-15 16s2 .8 2 3-2.1 4.1-2 8c0 4 .6 4 5.8 8.3a5.7 5.7 0 0 1 1.6 2.5c.3 1.3 1.2 8.9 6.2 8.9s5.8-3.3 5.8-3.3l-2.2-3.1s-1.7.5-2.7.3a3.4 3.4 0 0 1 -2.3-2.1c-.6-1.2-.7-4.1-1.6-5.4-2-3.2-5.8-3.7-5.9-7 0-3.4 2.3-3.7 1.7-7.7-.7-4-5.4-5.8-5.4-5.8l-1.9-.8-.7 4z" fill="#a8ac71"/><path d="m284.7 187.6c1.7-.4.7-4.8.7-4.8l-1.2 1s.8 1 .8 2-.3 1.8-.3 1.8z" fill="#f1a720"/><path d="m287.8 231.5-.9-.7c-.6-.4-3.2-2.6-2.8-8.9.5-7.2 11-11 11.6-13.8.8-3.2 3.1-4.5-5.2-11l-2 2.2 3.5 2.6s.7-.4.8.6c0 1-1 1.7-1.2 2.5-.2.7-5.4 4.3-5.8 4.6l-3 2.4s-1.3 1.3-2.5 4.1c-1.3 2.8-.7 6.4-.7 6.4s0 7.6 8.2 9z" fill="#a8ac71"/><path d="m282.7 235.5.6 2.7-1.7.6h-.7l-.5.2-1.3 1.2h-.3s-.2 0-.3-.8c0-.8-.2-1.5-.2-1.5l1.6.7h.6l.3-.1.7-1.5zm-4.8.5-.8-1-1-.9 1.2-.6h1.2l-.2 1.5zm2.7-4.3s.8.3 1 1l.6 1.2-2-.2-1.4-.4 1-1.4zm-.7 11.9s-.4-.3-.7-.9l-.4-1.6 1.3-.3 1.5.7h.4l-.3.8-1.5 1.3zm5-4.1s-1-.4-1.2-1c-.2-.5-.4-.4-.4-.4l-.3 1.5-.5 1.5.2.2 1.1-.3.9-.9.3-.6zm-4.7 4.8 1.4.7c.8.5 1.2.5 1.2.5l.6-.6.7-1.3v-.1l-3 .3zm4.4-1.2 2.7-1.6.1-1.4-.5-.4h-1.5l-.5 1.8zm-1.8 2.5s1.8.8 5-.4c1.4-.5 1.7-1.2 1.7-1.2l-1.3-.5-1.2 1-4.2 1zm-2.5-20.3-.4-1.4c-.2-.8-.1-1.1-.1-1.1l.9.5 1.3 1-1 .7zm2.2 3.7-.9-1a12.4 12.4 0 0 1 -.6-1.2l1 .2 1.1.6-.5 1.4z" fill="#78732e"/><path d="m276.6 187c-.2.7-.4 1.9.5 2 .4.2 2.3 0 4.5-2.4 1-1.2 1-2.4 1-2.4l.5-1.3s-.9-.6-2.2.2-4.3 4-4.3 4z" fill="#c6c7a6"/><circle cx="282.5" cy="183.6" fill="#1c242f" r=".4"/><path d="m279.7 184a17.7 17.7 0 0 0 -1.7 1.7s1.4-.4 2.6-1.5c.6-.6 2-.8 2.6-.7.4.1.2-.4 0-.5-.3-.3-1.4-.4-1.6-.3z" fill="#a8ac71"/><path d="m284.1 224.5v-2.2l-.9.8-.8 1.1 1.3.5zm-4.5-2.6v-2.3c0-1 .5-3.1.5-3.1l.6 1.4 1.5 2.4.5.4-1.3 1-1.4.4zm4.5-.6.3-1c.1-.6.5-1.4.5-1.4v.1a25 25 0 0 0 -2 1.7l.8.7h.5m-3.7-6s.2-.6 1-1.5l1.3-1.8.6 2.4.4 2v.4l-.7.2c-.2 0-1.6 0-1.8-.3l-.8-1.3zm4.8 2.9.8-.9 1-1-3.2.6.5 1 .8.3zm-2-6.7s.3 0 1.2-1c.8-.8 1.3-.7 1.3-.7l.3 3.4-1.6-.5z" fill="#78732e"/><path d="m287.3 216.2 2-2-3.3-1 .6 2.3zm1.4-5.2.2-3.3s-.7.3-1.5 1l-1.2.9.4.6 1 .7h1zm2.8-3.2v-2.8s-.5.8-1 1.2l-.9.8.9.6h1zm1.2 3.5 1.6-1.3a6.5 6.5 0 0 0 1.5-1.7l-4.2-.3.2 1.7 1 1.6zm-9.6-13.8-.2 1.8h3.5l-.9-1.2-1-.6-1-1zm6.6 16.2c.2 0 1.1-.8 1.6-1.2.4-.5 1.2-1 1.2-1l-3.3-.3v2.2zm6.3-5.9s.4-1.3.3-2.6c0-1.2-.2-1.8-.2-1.8l-2.5 1.7.4 1.2 1 1z" fill="#78732e"/><path d="m291.8 204.8s.7-1 .8-1.4v-.4h2l1.1.2h.2l-.9 1.1-1.2.7-1.5.2zm4-2-1.3-2c-.4-.7-.8-1-.8-1l-1 2.7v.3h3z" fill="#78732e"/><path d="m271.6 222.2-.3.8s1.3-.7 2.3-.7 2.1 1.3 2.1 1.3l.2-.9s-1.3-1.3-2.2-1.3c-.8-.1-2 .8-2 .8zm.7-5.8.3.4c0 .1.1-1 1.4-1.5 1.4-.6 2-.1 2-.1s-.2-.8-.8-1c-.6-.1-1.1 0-1.8.5a3.7 3.7 0 0 0 -1.1 1.7zm4.4 4.4s-.6-1.4-1.6-1.6c-1.1-.3-2.5.5-2.5.5l-.2.7s1.5-.8 2.5-.4c1.1.5 1.5 1.7 1.5 1.7l.3-1zm-5-5.1.4.5s-.2-1.4.5-2.1a4.9 4.9 0 0 1 1.1-1l-.6-.3s-.9.5-1.2 1.1a3.2 3.2 0 0 0 -.2 1.8zm-.5-2.3c.3-.8 1.2-1 1.2-1l-.3-.3h-.5s-.5.3-.9 1c-.3.9-.3 2-.3 2l.6.3s-.1-1.4.2-2zm7.8-19.2c.9-.4 1.5-.3 1.5-.3s-1.3 1.3-.7 2.9c-.7 1.3-.9 2.3-.9 2.3h.7l.4-1.8c.8 1.3 2 2 2 2h1s0-1.3.4-2.4h.1a5 5 0 0 0 2 1.5v-.4s-1.1-.6-1.7-1.5l-.1-.1a4.2 4.2 0 0 1 1.8-1.7l.7.6.2-.2-.5-.7h-.6l-1.8 1.7a9.2 9.2 0 0 1 -.8-1.5l-.4-.2s-1.1.1-2 1.7c-.2-1.2 1.1-2.4 1.1-2.4v-.5l-2.4.6c-1 .3-1.7 1.2-1.7 1.2v.8s1-1.1 1.7-1.6zm1.5 2.2c.6-1 2-1.5 2-1.5s0 .7.7 1.7c-.5.9-.8 2.2-.8 2.2s-1-.6-1.9-2a1.6 1.6 0 0 1 -.2-.3zm-7.6 21.1v.8s.8-.9 2-1c1.2 0 2.3 1 2.3 1s0-1-.2-1.2c-.1 0-1.1-.6-2-.6s-2.1 1-2.1 1zm21.4-11.2-.5-1 .6-.3a12.5 12.5 0 0 0 1.7-1.6l-.4-.6h-1.6l-1.4-.1.5-1.7.6-1.4-.6-.5s.2.5-.8.6-2.8-.8-2.8-.8v.4l2.5.7c.6 0 1-.1 1.2-.3l-.5 1.3-.3 1 .2.2v.8l1.4.1 1.6.1s-.8 1-1.7 1.5a2.3 2.3 0 0 1 -.3 0l-1-1.5-.1.5.7 1.2a5 5 0 0 1 -1.5-.1l-.4.4v2.5l-1.8-.6-.3.3v-.1l-.4.4s-.4 1.4-.3 3.1v.1a4.9 4.9 0 0 1 -2.4-1.3l-.4.3s-.3 1.4 0 3.2c-1.3-.3-2.5-1.5-2.5-1.5l-.5.5a60 60 0 0 0 .7 4.7 4.9 4.9 0 0 1 -.7 0c-1.4 0-2.3-1.3-2.3-1.3l-.4 1s.6 2.7 2 4l.4.2c-1.3 1-2.8 1.2-2.8 1.2v.9a44.7 44.7 0 0 0 2.2 1.5 4.8 4.8 0 0 1 -1.6 1l.2.5 1.8-1.3 1.8.5v-.5l-1.5-.3.1-.1c.5-.4 1.4-1.8 1.4-1.8v-1s-.5 0-1.1-.6c1.8-1.2 1.9-1.8 1.9-1.8l.4-.6s-.7-.3-1.1-1.2l2.9-.7.2-.2s-.7-1.2-1-2.6l3 .6.4-.4-.5-2.4c1.8 0 3.2.2 3.2.2l.3-.3s-1-1.9-1-3a4.8 4.8 0 0 0 1 0h3l.3-.5s-1.4-1-1.7-1.5zm-10.5 15.5s-.5 1-1.4 2l-.2.2a4.6 4.6 0 0 1 -.5-.2c-1.1-.6-1.4-1.3-1.4-1.3l2.5-1.6zm.9-3.2-2 2a4.1 4.1 0 0 1 -.4-.5c-.8-1.2-2-2.1-1.8-3.8 0 0 .7 1.2 2.2 1a14 14 0 0 0 1-.1c.4 1 1 1.4 1 1.4zm2-2.5-2.7.7a5.3 5.3 0 0 1 -.1-.5c-.5-1.6-.5-4-.5-4s1 .8 2.6 1.2zm-.5-3c-.2-1.4.1-2.9.1-2.9s.8.8 2.3 1c.1 1.5.3 2.1.3 2.1l-2.7-.1zm5.8-2.2s-1 .4-2.8.1a15.3 15.3 0 0 1 0-.5 23 23 0 0 1 0-3l2.3.7a10 10 0 0 0 .5 2.7zm0-3.1h-.2v-2.8s1 .3 1.7.2c.2.4 0 .5.5 1.2.4.7 1.1 1.3 1.1 1.3s-2.3.2-3.2 0zm-7.6 18.6-.1-.5s-1 .7-1.2 1.4a1.6 1.6 0 0 1 -.3-.1l-2-.8.2.4 1.8.8h.2l-.5 1.4.2.3.5-1.7 1.2.1-.2.8-.4 1.5.5.3h2l-.3-.4-.7-.1h-1.1l.3-1.2.3-.8-.3-.7-1 .2a3 3 0 0 1 .9-.9zm-11.3-1.3c1.3 0 2.3.9 2.3.9v-.6s-1-1.4-2.1-1.4c-1.2 0-2.5 1.2-2.5 1.2v1.2s1-1.3 2.3-1.3zm13.3 19.4c-1.3.6-2.7.6-2.7.6l.8-1.5c2.5-.8 3-2.4 3-2.4l-.2-.7s-.6 1.6-2.6 2.4c.4-1.2.7-3.2.7-3.2l-.7-.2s-1 1.3-2 1.6a7.7 7.7 0 0 0 .8-2.7l-.3-.5s-.7.6-1.7.8a1.8 1.8 0 0 1 -.6 0c.6-.8 1.7-3.2 1.7-3.2l-.2-.5s-.8 2.1-1.7 3.2a10.6 10.6 0 0 1 -.3.4c-1-.3-2.2-1-2.2-1l.1.3s.8.6 1.8 1a27.3 27.3 0 0 1 -1.3 1.2v1l3 .4c-1 1.6-2 2.1-2 2.1l.5.7s1.3 0 3.7-.6c-.6 1.2-1.2 1.8-1.2 1.8s2.2.2 3.7-.6 2-1.6 2-1.6l-.4-.4s-.4 1-1.7 1.6zm-6.9-4 1.2-1.5c1.6.3 2-.1 2-.1s.3.8-.6 2.3c-1.1 0-2.6-.8-2.6-.8zm1.4 3 1.3-1.6.3-.3c1.5 0 2.3-1.3 2.3-1.3s.2 1.2-.5 2.7c-1.9.7-3.4.5-3.4.5zm-1.9-9.8c1.5 0 3.3.7 3.3.7l-.2-.7-2.9-.6a3.6 3.6 0 0 1 1.6-1.6l-.5-.3s-.6.1-1.4 1.5a4.1 4.1 0 0 0 -.2.4 4 4 0 0 0 -.3 0 5 5 0 0 0 -2.4.7l.2.4s1.1-.5 2.3-.5a25.7 25.7 0 0 0 -.7 2.4l.3.6 1-3zm-3-6.2-.3-.7s-1.5-.6-2.7 0c-1.1.5-2 1.9-2 1.9l.5.9s.8-1.5 1.9-1.9c1-.3 2.6-.2 2.6-.2zm3 2.4-1-.6s-1.7.5-2.2 1.1c-.6.6-1.1 2.1-1 2.5.2.5.7.7.7.7s.3-1.5 1.1-2.3 2.4-1.4 2.4-1.4zm-3.9-.5a4.5 4.5 0 0 1 2-1l-.7-.5s-1.5.2-2.2.9c-.8.7-1.8 2.1-1.8 2.1l.9.9s1.2-1.8 1.8-2.4zm5.2-44.7v-.1c.8-1 1.6-1 1.9-1h.6a9.3 9.3 0 0 0 -.8 2.5c-.2 1-.7 1.2-1 1.9-.4.7-1.1 1.8-1.2 2.8 0 1 .3 1.6.5 1.7.3.1.8-.4.7-.7 0-.3-.3 0-.4 0-.2 0-.2-.3-.3-.9s.7-2.2 1-2.8c.3-.5 1-1.1 1-2l.7-2.5c0-.1-.4-.2-1.3-.3-.6 0-1.5.5-1.9 1.2-.4.6-1.7 1.1-1.7 1.1s1.4 0 2.2-1z" fill="#fff"/><path d="m285.2 194.5h-2.5l.7 2zm-3-.1-.5-.4a1.5 1.5 0 0 0 -.3-.3l-.9.5-.5 1.9.3.3 2-2zm-.3 5-1.8-2.7-1 2.2.5.2 1.2.2h1.1zm7.4 44.7a9 9 0 0 1 -4.8 1.5 6.7 6.7 0 0 1 -3.4-1 4 4 0 0 1 -1.5-1.7c-.6-1.1-.8-2.5-1-4-.3-1.3-.5-2.6-1.1-3.6-.8-1.3-2.4-2.1-3.8-3.3a7.3 7.3 0 0 1 -2.8-5.2 8.1 8.1 0 0 1 0-.8c0-1.7.5-3.2 1-4.5s1.2-2.5 1.2-3.5v-.5c-.3-.7-1-1.4-1.5-1.9s-1.2-.8-1.2-.8l-1-.2-.1.3 1 .2v-.1.1l1.3 1c.5.4 1 1 1.1 1.5a1.9 1.9 0 0 1 0 .4c0 1-.5 2-1 3.3a11.7 11.7 0 0 0 -1.2 4.7v.8a7.7 7.7 0 0 0 3 5.5c1.5 1.1 3 2 3.7 3.2.8 1.2 1 3 1.3 5 .2.8.4 1.7.8 2.5s.9 1.5 1.6 2a7 7 0 0 0 3.7 1c2.7 0 4.9-1.6 4.9-1.6z" fill="#78732e"/><path d="m287.2 239.2a2.6 2.6 0 0 1 -1.3.4c-.5 0-1.1-.2-1.7-.8a4 4 0 0 1 -1.2-2.3c-.2-.9-.3-2-1-3.3-.5-1.5-2-2.6-3.5-3.7-1.3-1.1-2.6-2.2-2.9-3.4a3.3 3.3 0 0 1 0-.7c0-1 .4-2 .8-3.1a10.8 10.8 0 0 0 .9-4.8c-.2-2-1.7-3.5-3.2-4.5a14.1 14.1 0 0 0 -2.8-1.4l-.1.3h.2c.5.3 1.8.9 3 1.8 1.3 1 2.4 2.2 2.6 3.8v.8c0 1.5-.4 2.7-.9 3.9s-.9 2.2-.9 3.2l.1.8c.3 1.3 1.6 2.4 3 3.6 1.5 1 3 2.2 3.5 3.5.6 1.3.7 2.4.9 3.2.2 1 .4 1.7 1.2 2.5.7.7 1.4.9 2 .9a2.8 2.8 0 0 0 1.4-.4z" fill="#78732e"/><path d="m296.4 231.6s1.7.4 1.6 1.8a13.3 13.3 0 0 1 -.8 3.4l-2.4-2.2 1.3-1.2.5-.7z" fill="#a8ac71"/><path d="m266.4 214.5s-1.7.6-2.1-.1c-.4-.8-.2-1.4-.2-1.5 0-.2-1-.3-1-1.3.1-1 1.4-.9 1.6-.9.3 0 .4-1.5 1.3-1.4.8 0 1.2 1 1.2 1z" fill="#f8c83c" stroke="#977c2e" stroke-width=".3"/><path d="m268.3 215s-1.5.8-2 0c-.4-.7 0-1.6-.1-1.8-.2-.1-1-.4-.9-1.3.2-.9 1.1-.6 1.4-.8.3-.1.6-1.4 1.5-1.2.9.3 1 1 1 1l-1 4.1z" fill="#f8c83c" stroke="#977c2e" stroke-width=".3"/><path d="m270.8 215.3s-.5 1-1.5.8-.7-1.7-.9-2c-.1-.3-.9-.5-.8-1.4.2-1 1.1-.9 1.5-1 .3-.1.7-1.6 1.4-1.4.7.3 1.3 1.1 1.2 1.5 0 0-1.5.5-1.7 1.5s.8 2 .8 2z" fill="#f8c83c" stroke="#977c2e" stroke-width=".3"/><path d="m293.7 231.2-2.2-2.6c-.9-1.3-2.3-2.7-2.3-2.7l-2.2-1.1-1.4-2.4-.2-2.8.6-1.6.8-1.2s-4.6 1.7-2.2 10.5c1 3.8 3.5 4.3 3.5 4.3l4.3-.3h1.3z" fill="#af7029"/><path d="m291.6 201.7c.4 0 .6.2.8.4l.2.6v.4c-1.6 3.4-4.8 5-7.8 7a13.8 13.8 0 0 0 -3.8 4 12 12 0 0 0 -1.6 6.8c.1 5 2 7.8 4.2 9.3a9.7 9.7 0 0 0 5.2 1.5h.4l1.4-.1a35.8 35.8 0 0 1 3-.2l1.8.1.9.4a.8.8 0 0 1 .2.5c0 .4-.3.8-.6 1.2l-1 .7.2.3a4 4 0 0 0 1-.8c.4-.4.7-.9.7-1.4 0-.2 0-.5-.3-.7-.2-.3-.6-.4-1.1-.5l-1.8-.1c-2 0-4.5.3-4.5.3v.2-.2a6.8 6.8 0 0 1 -.3 0 9.4 9.4 0 0 1 -5-1.5c-2.1-1.4-4-4-4-9v-.4c0-2.7.5-4.7 1.5-6.3 1.4-2.4 3.7-3.8 6-5.3a14 14 0 0 0 5.5-5.7v-.5c0-.2 0-.6-.2-.8-.2-.3-.5-.5-1-.5z" fill="#816c2a"/><path d="m297.8 232.7s-1 2-1.4 2c-.2 0 1 .3 1.3.8l-.3.5s-1.2-.9-2-1v-.6l1.1-.7a4 4 0 0 0 .9-1.7z" fill="#fff"/><path d="m302 234-2.7.8-1.3-1s0-1-.5-1.5l-1.6-1c-.6-.2-2.5-.2-2.5-.2l-5-5.3 2 .2 2.8-.4 2.7-.2 1.4.2 1.6.4.8.7.8.8.8 1.3.6 1.6.2 1.7v1.9z" fill="#fcca3d"/><path d="m302.2 233.8s-1 .3-2.2.3c-1.3 0-2-.2-2-.2l-.2.9c-.2.9-.5 1.3-.5 1.3v3.2l2.6.5 1.4-.5.7-3.5z" fill="#af7029"/><path d="m301.5 232.5v1.2l.6.2v-1.2zm-2.5-30-.3-2.1-.8-1.5-1.1-1.5-1.2-1.3-.6-.5-.3-.5-2.9.2-1.4 1.7s3.8 2.8 5.3 5.8a7 7 0 0 1 2.8 1.7l.1-.2z" fill="#fcca3d"/><path d="m296.3 205c0 2.2-.5 3.2-.8 3.7l1.8-2 1.2-2.2a7 7 0 0 0 -2.8-1.7c.4.7.6 1.4.6 2.1z" fill="#af7029"/><path d="m300.3 237.9-1.4-1.6c-.6-.6-1.3-1-1.3-1l-.2.4h.1l1.2.8a17.6 17.6 0 0 1 1.3 1.6z" fill="#816c2a"/><path d="m302 235.5s-.3 1-1.3 1.8c-1 1-2.2 1.5-2.2 1.5l2.8 1 1.9-1.7z" fill="#6f5b24"/><path d="m302.4 237.8-.2.3-.5.5-.4.5.6-3 .6 1v.4z" fill="#404118"/><path d="m285.8 199.3s-3.8.3-6.5-.1-2-7.3-2.1-7.5c0-.2-1.6-1.8-1.4-3.3.3-1.5 5.2-5.5 5.8-5.8.5-.1 1.5.3 1.5.3s1.2-1.2 1.6-1.2.9.7.8 1c-.2.3-1.9 1.3-2 2-.2.8 0 1.5-.5 2.3-.5.7-1.4 1.7-1.5 2.4-.1.6-.4 1.1 0 1.4.5.2 2.1 0 3.5-.6 1.4-.7 2-1.5 2.1-1.4.2 0-.8 1.7-2.3 2.4-1.5.6-2.5 1.3-3.3 1.2 0 0-.8 2 1.8 2.2 2.6 0 4-.6 4-.6z" fill="none" stroke="#78732e" stroke-width=".2"/><path d="m318.7 170.6s-7-1.3-7 4.5c.1 1.9.5 2.5 2 3 1.5.3 4.4.5 7 2.7 2.5 2.3 2.7 4 2.7 5.3 0 1.4-.7 2.6-.7 2.6l1.6 7.7 1.6 5.7 4.8-2.7 2.8-8.5-3.6-15.2z" fill="#ab6d29" stroke="#4d2a15" stroke-width=".4"/><path d="m325.6 200s2.5-1 3-3c.3-.5-2.4-2.9-2.4-2.9-.1 0 1.3.7 2 1.3.6.6 1.1.9 1.3.8s1.3-2.7.9-3.3-1.1-2-2.1-2.6c-1-.7-2.4-.6-2.4-.6s1.9-.6 2.8 0c1 .5 1 1 1.1.9.1-.3-.2-2.9-.6-3.7-.4-1-.8-1.3-2-1.6-1.1-.2-2.3-.1-2.3-.1s1.6-.9 2.8-.6c1.3.3 1.3 1 1.4.8 0-.1-.6-2.4-1-3a6.7 6.7 0 0 0 -2.1-1.8l-1.8-.2h-.6s1-.6 2.1-.5c1.2.1 1.3.5 1.4.4.2 0-.1-.2-.8-.7s-4.2-2-4.2-2h-3.3s0-.8 1-1c.9-.1 1.1.1 1-.1 0-.3-2.6-.8-2.6-.8h-2.2l-3 .3s.2-.5.7-.9c.3-.3.9-.5 1.3-.6 1-.3-.6-1.1-.6-1.1l.9-1.3 3.9.3 8.2 4.8 3.9 3.3 2.4 6.2-.7 10.8-5.5 4.5-2.4.3z" fill="#4d2a15"/><path d="m318.4 173.3s-.2-.7-.2-1.7.2-.9.2-.9-2.7-.3-4.6 1.2-.8 4.1-.8 4.1.8-.8 1.9-1.2c1-.4 3-.3 3-.3.2-.2-.4-1-1.1-1.1-.8-.2-2.1-.2-2.1-.2s.8-.5 2.2-.4 1.6.5 1.6.5z" fill="#d2a567"/><path d="m326.7 200.9-1.8.6 1 7.5 7.2 12.1 3.7-.6 1.3-2.3 1 .5c.4.4 1.8 2.8 3 3.3 1.1.4 1.7.2 2.7 1 1 1 4.9 6.6 5 6.8.3.2-.1-2.4-.1-2.4l-1.2-3.4-1.4-2.4-.3-.6h2l1.2.8 2 1.5.9 1.2.5 1.2.2 1 .5 1.6 1 2.3 1.3 2.1.4-.9-.6-2.5-2-6-1-2 1.9 1.2c.4.1 1.8 2.2 1.8 2.2l.9 2.2.6 2 .4 1.7.7 1.9 1-.7-.1-1.3-1-4.2-.4-4.5s.6 0 1.2.7a9 9 0 0 1 1.2 2.3l.5 4.1.7 3.8 1.2 3.8 1.2 2.4.9 1.3v-2l-1.6-16 .2-.6s.2-.1.8.7c.5.7 1 1.9 1 1.9l.5 2.5.2 1.7.3 3.3.5 3.5 1.6 3.8.9 2 .5-2.4-.8-17.1.4-.5s.9.7 1.2 1.3l.8 1 .6 3.8.4 10.7.4 2.8 3.2-28.2 2-.4.2-.6-1.5-1-3.2-5-2.1-4.9-3.8-7-6.6-8-5.2-4.3a20 20 0 0 0 -1.9-1.3l.4-1 1-1.7-.1-.1h-.9l-2.2.4-2.2-.7-4.4-3-4.6-2.3-2.8-1-6.6-1.6-6.6-1h-3l-2.6.5s-1.4.6-1.8 1.5c-.5.8-.5 1.4-.4 2.6.2 1.3 1 1.9 2.8 2.7 1.8.7 6.2 3.6 6.2 3.6l2 2.1.8 1 .2.8 1.4 11.1-2.8 6-2 1z" fill="#8f4620"/><path d="m333.8 218.2s1.2 2 2.9.5c1.7-1.6-.8-6-.7-6.3 0-.3.7-.3.7-.3l1.3 2.2s.7 1.3.4 3.2c-.2 2-2.1 3.7-2.1 3.7l-2.2-.5z" fill="#ab6d29"/><path d="m375.3 244.2-1.6-4.5-.4-3.5c0-.6-.3-7.9-.5-9.3 0-1.4 0-3-.2-3.1l-1.6-2.2-.7-.7.5-.3s.6.6.7.3c.2-.4 0-2-.6-4.5-.7-2.5-3.9-8.3-3.9-8.3l.4.2.9 1 1.8 1.5 4.1 1.5 2.2.3 1.4 2.9s1 4.9 1 7.4c0 2.4-.2 4.5-1.2 7-1 2.4-1.2 10.3-1.3 11.5-.1 1.3-.6 2.5-.6 2.5l-.5.3z" fill="#4d2a15"/><path d="m375.3 231.2s.8-1 1.2-2.4.5-12.4-.8-13.7a10 10 0 0 0 -4-2.3c-.2 0 1 3.5 1 3.5l.8 1.4.6 1.8c.1 1 .9 3.1 1 6z" fill="#8f4620"/><path d="m369.3 238s.5-5.1.3-9c-.3-3.7-.6-4.2-1-4.9a32.3 32.3 0 0 1 -2.5-6.3c-.9-3.2-1.5-5.6-2-6.2-.6-.6-1.7-2-2-1.6-.3.3-.3 1.1-.3 1.1l-1.5-.4-.4-1 .5-1.6v-.7l-.3-1.1 2 1.6 4.2 2.8 2 8.6 2 5.3.2 9-.2 8-1-3.5zm2.4-24.7s1 1 1.7 1.4 1.8 1.1 1.6 1.2a8 8 0 0 1 -2-.8l-1.2-.8v-1z" fill="#4d2a15"/><path d="m363.7 236s.8-1.8.7-4.1a49 49 0 0 0 -1.6-8.6c-.4-.7-2-1.7-3.5-4.8s-1.3-3.8-2.3-5c-1-1-2-2.4-2-2.4l.3-3.3 3.6 1.8 1.6.8 1.8 8.7 1.6 2.5.7 3.5.9 8 .4 6.6-.2.5zm-4.2-3.7s.1-2.5-.5-4.8c-.7-2.3-1.1-4-1.9-4.8-.7-.7-2.5-2.6-4.1-5-1.6-2.5-3.9-5-3.9-5v-3.3l2 1.5a57.1 57.1 0 0 1 2.4 1.2l1 3.7 1.2 2.7 1.8 2.4 1.2 1.1.7 4 .4 2.3 1 3.2-.4 1.7zm-3 0-1-.9s.6-.6.3-2c-.3-1.2-.6-2.4-1.2-3.7-.6-1.2-.7-2-1-2.3a121 121 0 0 0 -4.5-4c-1-1-2.7-2.6-3.7-3.3-1-.6-1.8-.8-1.8-.8l-.5-4s1.3 1.8 2.1 2a54.7 54.7 0 0 0 2.1.8l2.8 5 1 1.3 2.6 2 1 2.2.9 2.5 1 3.4.1 2-.2-.1zm-5.5-1s-1.7-2-2-3.2c-.2-1.2.2-1.2-.3-2.6s-2.3-3.5-3.7-4.6c-1.4-1.2-3.4-2.8-3.3-3.8.1-.9.4-1 .4-1l.8.8 4.5 4.7 1.4 2.5 1 3.1.7 1.5.7 1.8-.2.7zm16-23.3s3.1 3.8 4 .3c.3-1.6-1.2-4.6-1.2-4.6s-2.8-5-3.8-6.2l-5.7-7.3-3.5-1.6 1.2 2s2.6 2.6 5.9 8.4c3.3 5.7 2.7 8.9 2.7 8.9h.5zm-17.8-23s6.1 5.2 10 10.8c4 5.7 5.5 9.4 4.7 10.2-1 .7-3.4-.4-4.4-2s-1.8-4.4-5.5-8.6-5.5-4.8-5.5-4.8l-2.7-4.3zm-3.2 12.5s3.6 3 6 5.4a37.4 37.4 0 0 1 3.4 4.2l1.4 1.4s-.9-1.5-.4-2c.5-.6 1.1-.3 1.1-.3l-11.5-12zm-.7.3s1.2 2.3 3 4.1a464.6 464.6 0 0 0 4.1 4l.8 2.9s-5.2-4-5.2-3 1.2 3 1.2 3l-1.6-1-2.2-3.1-1.3-2.8-1.5-3.8z" fill="#4d2a15"/><path d="m329.5 210.2s2.7 2.4 4.2 0c1.5-2.3.3-5 .3-5s3.9 5.6 5 .3c.2-1-2.4-4.6-2.4-4.6l1-.9 1.9 3.3s1.8-.8 1.8-3-1.9-5.3-1.9-5.3l1.8 2s3.6 0 3.7-2c0-2.2-3-4.5-3-4.5s2.4.1 2.4-1.3-3.4-2.4-3.4-3.3 1-2.4 2.5-1.5c1.5.8 3.5 1.4 4.4-.2.8-1.6-.1-2-.1-2l-2.1-.4-3.4-1.8-2.7-1-2.8-.4 1 2 .8 5.8v2.6l.5 5.8-1.4 4.7-.7.9-.5.6-1.2 2.6-1.6 1.8-2.2 2.7-2 2.1z" fill="#4d2a15"/><path d="m348.8 220.9s-.7-1.7-2.2-2.9a7.8 7.8 0 0 0 -3.8-1.2l4 4.2zm5.6 1s-1.3-2.6-2.8-4.2-2.5-3.6-3-3.6h-.6l.4 3.3 2.7 2.7s2.6 2 3.3 1.8zm4.6-.2s-.6-3-2.2-6c-1.5-2.8-3.1-4-3.1-4l.4 3 1.2 3 2 3zm3.8-1.7s1-6.2 0-8c-.9-1.6-2.7-2-2.7-2l-.6 1 .6 4.3 1.5 3.4zm3.7-10.3s.9.4 2 2.5a40 40 0 0 1 2.6 8.6c0 .3-.5.2-.7.2-.2-.1-3.9-6-3.9-6l-.6-5.4h.6z" fill="#ab6d29"/><path d="m340.4 216.8s2-.4 2-1c0-.8-2.4-2.2-2.2-3.3 0-.5 2 .1 2.1-.3s-2-3.6-1.3-4.4c.6-.8 2.4 3.5 2.4 3.5s1 2 .7 3.2c-1.2 3.6-3.7 2.3-3.7 2.3zm4.6-4.4c.1-.3 3.1.4 3.1.2.2-.7-2.7-3-2.7-3s-.6-1.2-.4-1.4 2 .2 2 0c.2-.3-2-3.2-2-3.7s.6 0 .6 0 1.7 1.7 2.6 3.2c1 1.4 1.8 2.6 1.5 4.9-.4 2.5-5 .6-4.7-.2zm13.6-4.6s-.5-2-.2-2.3l1.1-.5s-1.6-1-2.4-1c-.7 0-.8-.2-1 0-.2.4 1.3 2.4 1.3 2.4z" fill="#d2a567"/><path d="m349.4 209.4s4.7 1.2 4.9.8c.2-.3-3.7-4-3.7-4s-.3-.6-.2-.8c0-.2 1.7-.3 2.2.1s0 1.2.1 1.5c.2.3 1.7 2.5 2 2.1.2-.3-.4-3-.3-3.3.2-.2 1.8 1.6 2.3 1.9.4.3 3 2.3 3.3 1.4.3-1 .4-1.1.3-1.7 0-.6.9 2.6-.3 3s-2.6-.4-2.6-.4l-1.1-.8-.6-.7s.7 2.5-.2 2.7c-.8.3-1.7.2-1.7.2l-2-.2zm10.7-3.2s5 3 5.4 2.5c.5-.5-1.2-7.5-1-8.2.3-.6 4 7.9 2.2 9-1.4 1-2 .3-2 .3l-2.5-1.3-2-2.3zm13.8 12.6 1 .5.7.2-1.4.2-.3-1zm-4.8-16.4.7.3.7.3s-.4.3-.6.2h-.4zm-1.4-2.5s.5.3 1.1-.2c.7-.4.7-.8.6-1 0-.2-1-.2-1.4-.5-.3-.2-.3-.6-.3-.6h-1.1l-.4.1zm4.3 14.4s1.5 1 2 1c.4 0 1.1.5 1 .6 0 .1-1.2.2-1.8-.1s-.7-.1-.7-.1zm-8.1-22.5h.6c.3 0 .5-.2.6 0 .2.2 0 1.2-.3 1.5l-1 .5a48.4 48.4 0 0 1 -1.6-2.2zm-7.1-6.4h1.5c.5 0 1 .3 1.5.6.4.3.9 3.3.6 3.8-.2.6-3.6-2-3.7-2.1 0-.3-1.5-2.5-1.5-2.5zm-3.2-1.4s2.5.2 2.2-1.3a3.2 3.2 0 0 0 -1.3-2.3l-2.9 2.1zm-6.5-2.8s.7.4 1.4 0c.7-.2 2.6-2.7 4-3s1.7-.3 2 0c.2.4 0 1.8-.2 2.2-.3.4-4.4 2-4.4 2l-1.5-.1a9.6 9.6 0 0 1 -1.3-.5zm-.7-4.5c-.7-1.4-1.7-2-2.2-1.9-.4.1 1.4 1.5 1.7 3.5s.2 3.3.2 3.4l.8.1.2-.7.1-.5v-.5l-.1-1-.2-.9-.2-.6zm-5.8-2a15.4 15.4 0 0 0 -5.5-3.7c-.2 0 4 2.5 5 4 .9 1.7.9 3.9 1.3 4.2s.8-.2.9-.2c0 0 .3-.5.2-.7l-.2-1-.7-1-.4-.8zm-5.5-2.3c-2.4-2-6.6-3-10-3-3.5-.2-5.3.2-4.8 2s2 2.8 5 2.8c2.9 0 3.6-.3 5.2.2a9.7 9.7 0 0 1 3.6 2c.5.5-1.1-1.5-2.6-2.6-1.5-1.2-2.5-1.7-2.5-1.7s-.3-.7 1.7-.4 4.7 1.6 5.5 3.3c.7 1.7.6 2.6.6 3 0 .3.7-.2.7-.2l.3-.9s0-.6-.3-1.4c-.4-.7-.5-1-1.4-2-.9-1.1-1-1-1-1zm-9.6 28.5c1.5 0 4.8-2.8 5.2-6.7.5-4-1.9-11.9-2.5-12.7-.5-.9 1-.4 1.7.4a25 25 0 0 1 2.5 10.6c0 4.2-.8 5.3-3 7.5-2.2 2-4 1.8-4 1.8zm5.1 11.6s.7 1 1.6.6c1.5-.5 3.8-1.7 3.8-3.8 0-1.4-1.8-2.7-1.9-3.2v-1l1.6.4.5 2.2s.6.7 1.3.4c.6-.2 2.5-1.6 2.2-3-.3-1.2-2-2.9-2.2-3.5-.2-.7 0-1.2 0-1.2l1.6.2.4 2s.4.6 1.3.4c.8-.1 2.4-1.7 2-2.5l-1.5-2.6v-.9l.5.4s.6.2 1.8-.1c1.1-.4 2.3-1.2 2.3-2s-1-1.6-1-2v-.6h.8l1 1.2.1 1.4-.3 1.2-1.4 1.6-1.4.6h-.4l.8 1.4-.2 2-1.3 1.2-1.7 1-.1 1.9-1 2-2 1.2h-.7l-.2 1.2-1.4 2-2.3 1.5-1.7.3-1-1.4.1-.5z" fill="#d2a567"/><path d="m343.4 191.4s4 1.1 3.8-1.4c0-1.3-3.8-4.5-4-5-.3-.6-.2-1.3-.2-1.3l1.9 1.8s2.5.6 3.2-.9c.7-1.4.1-2.3 0-2.3l.6-.1 1.1.2-.1 2.2-1.3 5.5s.3 2.2-1.4 2.3c-1.7.2-3.6-1-3.6-1zm3.7 29.5s0-1.1-.8-2c-.9-.7-2.5-1.4-2.8-1.6a63 63 0 0 0 2.8 3.5h.8zm5.6.2s-2-2.4-2.3-3.3c-.5-.8-1.5-2.6-2.3-2.7-.8 0 .8 3 .8 3l3.2 2.9h.6zm5.4 0-2.1-4.2c-.4-.9-1.3-3.4-2.3-4.1s.1 1.1.1 1.1l1.1 3.3 1.9 2.9zm3.9-2.4s-.1-2.7-.5-4.6c-.3-1.8-1.7-3.4-1.8-3.3v3.3zm8.1 2-2-4.7c-.5-1.6-1.8-4.1-2-4.2l.4 3 1.7 4.7 2 1.2zm7-8.5s-1.2-1.2-3.9-2.3c-2.7-1-5.4-1.2-5.4-1.2l.3.4 1.3 1 2.8 1.5 3.7.9 1.3-.3z" fill="#d2a567"/><path d="m348.2 213.8s0 2.4 1.3 3.8c1.2 1.5 4 4 4.6 4.6.6.5 1 3.4 1.9 5.8.8 2.4 1 4.4 1.4 5.1s1.1 1.8.5 1.7c-.5-.1-1-.8-1.4-1.7-.3-.9-.2-.9-.2-2 0-1.3-1.8-7.5-2.7-8.1-.9-.7-4.8-4-6.4-6.3-1.5-2.3-1.2-2.8-1.2-2.8h2.2z" fill="#202020"/><path d="m354.6 229.3c-.8-1.7-1-3.3-1.2-4.3a16 16 0 0 0 -4.4-4.2c-.6-.3-1.9 0-2.4-.3l-3.7-4s-.5.5-.3.6c.1.1 3.4 3.7 4.6 4.8 1.2 1.2 1.9 3.7 2.7 5.7.9 2 .5 1.6.6 2.5.1 1 .7 1.5 1.3 1.5s.8-.2.6-.4a10.3 10.3 0 0 1 -2.2-3.5c-.7-1.7-1.5-4.9-2.5-6l-.3-.3 1.3-.2c.8 0 4.1 3 4.4 4 .3.8 0 1.2 1.4 4.2s2 3.7 2 3.7h.2s-1.2-2-2-3.8zm-5.2-19.9s2.5 1.5 3.2 1.7a9.8 9.8 0 0 0 1.2.3s.4 4.4 2.1 6.8c1.8 2.5 3.2 3.4 3.2 3.4s0 4.8 1.4 8c1.3 3.3 1.5 7.3 1.2 8-.3.6-1.4-2-2-4.3l-2-6.2a13 13 0 0 0 -2.5-4.4c-.8-.7-.2-.6.3-.2.4.4 1.7 2 2.5 4.5s1.1 5 1.5 5c.5 0 .8-.3.8-.9 0-.4-.6-1.8-1-4.1a17 17 0 0 0 -1.2-4.7c-.4-.6-1-.7-2.4-3.4a20.3 20.3 0 0 1 -2.5-5.3c-.2-1.2 0-1-.2-1.3-.2-.1-.4 0-1.6-.6-1.1-.6-2-2.3-2-2.3z" fill="#202020"/><path d="m355.7 208.5s1.4 1.2 2.3 1.5c.8.4 2 .4 2 .4s-.3 4.2 1.3 6.9 3.3 4.2 3.3 4.2.3 1 .8 6.8l.7 8.3c.1 2.3.2 10.6-.1 10.3-1.3-1-.2-5.4-.9-7.3-.6-1.8-1.6-2.1-2.8-7.4-1.2-5.2-.4-6.4-1.3-8.3-.9-2-2-2.2-2-2.2s1.6.4 2.3 2c.6 1.6.7 6 1.3 8.2 1.2 4.9 2.9 7.4 2.9 7.4s-.4-6.2-.8-9.7c-.5-3.5-.5-6.4-1.1-7.7-.7-1.4-2.1-2.4-3-4.2-.8-1.8-1.1-5.3-1.5-6.2s-.6-.6-1.2-.8c-2-.8-2.2-2.2-2.2-2.2z" fill="#202020"/><path d="m360.1 206.2s1.3 1.5 3.1 2.6c1.8 1 2.8.7 3 1 .3.2-.3 3.8 1.6 7.2s2.6 3.5 2.6 4l.6 13.9c.3 3.4.5 14.8-.9 14.8s-.1-8.5-.8-10.4c-.7-2-.7-1.4-1.3-3-.7-1.6-.7-7.8-1.8-11.5-.8-2.8-1.6-3.2-1.6-3.2s1.4.7 2 3c.6 2.2.8 10 1.5 11.1.8 1.3 1.8 2.8 2 4a157 157 0 0 0 -.4-15.6c-.3-1-3.5-6.6-3.7-9.7-.3-3.2-.4-3.5-.7-3.7-.2-.3-1.1 0-2.6-1.5-1.5-1.4-2.6-3-2.6-3z" fill="#202020"/><path d="m367.3 208c0-.3 1 1.7 3.7 2.8 2.9 1.2 5.6 1 6 1.3.3.3 2 4.5 2.1 10.2.1 5.6-1 5.1-1.8 10-.9 4.9-1 14.8-1.5 16.3-.2.5-.5.8-.8 1.7-.3 1 .2 2.8-.7 2.8-.8 0-1-1.4-1-2.1 0-.8 1-3.5 1-6.2s-.6-3-1-6.2c-.4-3.3-.4-13.5-.8-14.5-.3-1-2.1-3.1-2.1-3.1s1.9 1.2 2.4 2.6c.4 1.3.5 12.7 1 15 .5 2.4.3-.5.5-1.8s.9-7 .8-10-1.4-9.4-2.4-10.5c0 0 .5.6 1.1 2 0 .1.4.5.8.7l1 .5s-.6 0-1-.3c-.4-.1-.6-.4-.6-.4a23.9 23.9 0 0 1 1.3 8c.1 5.2-.7 16.4.1 16.5.8.2.7-6 1.5-11.2.8-5 2-5.8 1.6-9.9-.3-4.1-1.4-8.6-2.3-9.2-.9-.5-3.4-.3-5.6-1.8-2.2-1.4-3.4-2.9-3.3-3.2zm-35.8 5.7s.8.4 1.7 0c1-.5 3.5-2.5 3.5-3.3v-1.6s0 .3.7.4c.8.1 2.8-1.4 3-2.4a8 8 0 0 0 -.1-3.1c-.2-.4.6.3 1 0 .4-.4 2.4-1.7 2.4-3 0-1.4-1.1-2.6-1.1-2.6s1 .2 1.6 0c.5-.1 2.5-1.3 2.4-2.4 0-1.2-.7-3-2.3-3.2 0 0 1.2.3 2.3-.1 1-.4 1.5-1 1.5-2.3 0-1.2-2.3-4-2.6-4.2-.4-.2 2.4.8 3-.3.8-1.1.9-1.9.7-2.5-.2-.7-.8-.8-.8-.8s1.2.3 2.8-.5 3-2 3.8-1.9c.8 0-2.3 1.7-2.5 2.6 0 .4.9 1 2.3 2 0 .1 0 .2.2.3.7.3 3 .4 3.3.5.2.2-2.4.1-2.2.3a34.1 34.1 0 0 1 5.7 5.4c.1 0 .5.4 1 .5l1.3.3h-1.6a65.3 65.3 0 0 1 3.3 4.7c0 .1.4.6.9.8s1 .1 1.1.2c.1.2-1.4 0-1.3.2a82 82 0 0 1 3.3 6s-3-5.3-6.7-9.5c-3.8-4.2-4.7-4.7-4.8-4.4-.2.4 2.7 4.1 4.3 6.7s3 5.9 3 5.9-3.7-7.8-9-12.6c-5.2-4.8-5.8-5.5-6.3-5.4-.6.2-1 3.8-.7 4.5s4.2 3.6 7.4 7.5c3.3 3.8 7.5 10.4 7.5 10.4s-3-4.7-8-10-6.9-6.6-7.3-6.5c-.4 0-.4 1-1 1.8-.6.7-1.8.6-1.8 1s4.2 4.3 5 4.7c.9.5 1.4.3 2 .6l1.4 1-1.6-.5c-.6-.2-1.3-.3-1.3 0s3.5 4.3 4 4.6c.6.3 1 .1 1.7.4.8.3 2 1.1 2 1.1s-1.3-.7-2.1-.8c-.9-.2-1.2 0-1.2.2s2.6 3.6 2.5 3.6-4-4.6-7.3-7.5c-3.3-3-4.8-3.6-5-3.5s0 1-.9 1.3c-.8.3-1.5.4-1.5.7s3 3 5 5.4a149.4 149.4 0 0 1 4 4.5l-4.5-4.3c-2.3-2.2-3.5-3-3.8-3-.2.2-.2 1.3 0 1.6s4.6 5.4 4.4 5.5c-.1.2-5-6-5.4-6-.3 0-.5.7-.8 1-.4.4-1.8.4-1.8 1 0 .4 7 7.3 6.9 7.5 0 0-5.8-5-6-4.7s2.4 5 2.2 5.2c-.1 0-3.4-5-3.7-5s-.2.6-1 1.3c-1 .8-2 .4-2 .8 0 .3 4.8 5.7 4.7 5.8-.2.1-5-5.1-5-4.8-.1 0-.4.3-.2.7.3 1.3 1.4 3.6 1.3 3.8 0 0-1.6-3.2-2-3-.4 0-.4.7-1.2 1.1-.7.5-1.3.4-1.3.7s.8 1 1.2 1.7.7 2.4.7 2.4-.5-1.4-1.1-2.3c-.7-.9-1.3-1.5-1.9-1.5s-.8.5-.8.5l-.5-1.2z" fill="#202020"/><path d="m377 212s1.5 0 1.7-.4c.2-.3-.6 0-2-1.6s-5-12.1-9-17.4c-6.6-8.7-12.7-12.7-12.7-12.7s7.3 4.2 13 12.4c5.6 8.4 7 14.9 8.6 16.6s3.2 2 3 2.5c0 .5-.3.8-.9 1l-2 .1.2-.4zm-48-2.2.3.1c.3 0 2.3-1.9 2.2-2.5 0 0-1-.3-1.6-1-.7-.8-.9-1.9-.9-1.9s.7 1.3 1.2 1.6c.6.4 1.4.6 1.8.3.3-.2 3.2-2.4 3-3.2 0 0-.9 0-1.8-.6-.8-.6-1-2-1-2s.6 1.1 1.5 1.5c.8.4 1.7.3 2 0 .2-.3 2-3 1.8-3.7 0 0-1 0-1.8-.5-.9-.6-1.3-2.2-1.3-2.2s.6 1.3 1.7 1.5c1.1.3 2-.4 2.2-1.2s.8-3.7-.2-4.5c0 0-1.4.5-2.4 0-1-.6-1.4-1.9-1.4-1.9s.9 1.2 2 1.4c1.2.1 1.7-.5 1.9-1a5.9 5.9 0 0 0 -.1-3c-.4-1-1.1-.8-1.3-2.2 0 0-.3.5-1.8.5s-2.3-1.6-2.3-1.6 1.2 1 2.4 1a1.9 1.9 0 0 0 1.6-1.9c0-.7-.6-1.4-1-2.1-.2-.8-.3-1.7-.5-1.6-.2 0-.5.8-2 .6-1.5-.3-1.8-1.3-1.8-1.3s1 .7 2 .7c.8 0 1.3-.5 1.3-1 0-.6-.3-1.7-2.2-3.3a58.1 58.1 0 0 0 -3.5-2.7 21.8 21.8 0 0 0 6.6 5.3s1.7.6 2 0c.1-.6.1-1.4-.5-2.4-.5-1-2-2.6-2-2.6s1.6 1.3 2.3 2.7c.8 1.3.4 2.2.5 2.6 0 .3 3.3 1.6 4 1.1.8-.4.5-1.4-.2-2.3l-1-1.8s.7.8 1.2 1.8c.6 1 1 1.7.8 2.1-.2.5-.6.7-.6.9l2.3 1.3c1 .6 2.3 1 2.5.8.2-.4.3-1.1.2-2.2-.1-1-.7-2.7-.7-2.7s.7 1.6.8 2.7-.1 2 .1 2.4c.3.4 1.1.5 1.1.5s-.6.4-2 0c-1.5-.4-7.7-3.6-8-3.3-.3.4 2.9 2.3 4.3 3.7 1.5 1.3 2.2 2.8 2.2 2.8s-1.1-1-2.2-1.6-4.4-2.3-4.7-2c-.2.2 1.3.5 1.4.7.1.3-1 1.3-1 1.8 0 .4 4.7 3.7 4.5 4-.1.4-1.2 1.3-1.4 1.2-.1 0-2.5-1.8-2.5-1.6s1.4 1.5 1.4 1.7c0 .3-1 .8-.8 1.4s2.6 2.6 2.6 3.3-1.4 1.3-1.1 1.7l1.5 2s-1.4-.9-1.8-1.4c-.4-.4-1.3-1.5-1.5-1.3-.1.1-1 2-1 2.5.2.4 1.3 1 1.5 2.3.2 1.1-.2 2.4-.3 2.4 0 0-1.6-2-2-2.1-.2 0-.6.1-.9.6s-1.2 2.1-1 2.4c0 .3 1.6.7 1.6 1.9a3.4 3.4 0 0 1 -1 2.3l-2.1-2.4c-.2 0-2.2 2.3-2.3 2.6 0 .2 1.4 1.3 1.2 1.7-.3.4-1.3-.2-1.8.1l-1.7.7c-.2 0-.5-.6-.5-.6z" fill="#202020"/><path d="m355 180 .5-1c.3-.3 1.5-1.7 1-2-.4-.2-2 .3-3 .2-1 0-1.7.2-4.6-2.3 0 0-9.3-6.4-23.6-7.3-4.6-.2-6.6 1.4-6.8 2.2 0 .2 1.2-1.8 5.7-1.7 2 0 16.5 1.1 24 7 .4.3 2.9 2.7 5.2 2.4 2.3-.2 2.8-.5 2.7-.2 0 .4-.7 1.2-.9 1.6a9.2 9.2 0 0 0 -.3 1.1zm-25 2v-.2c-.2-.4-1.1-1.7-2.7-3.1a37.4 37.4 0 0 0 -8-4.3c-.3-.1 6 2.9 7.7 4.5l3 3z" fill="#202020"/><path d="m330 192.2s-.4-.6-1.7-1.4a9.9 9.9 0 0 0 -2.5-1.1l3 .7a4.8 4.8 0 0 1 1.1 1.8zm-.8-5.3s-.4-.6-2.1-1.2-2.2-.5-2.2-.5 1.6-.7 2.8 0a2.7 2.7 0 0 1 1.5 1.6zm-1-4.5s-.4-.8-2-1.3c-1.5-.6-2.6-.7-2.6-.7s1.6-.4 3.2.2c1.5.6 1.4 1.8 1.4 1.8zm-2-2.8s-.4-.6-3.3-1.3c-3-.7-4-.7-4-.7s4.1-.4 5.2.1 2.2 1.9 2.2 1.9zm-5.3-3s-1.8-.6-3.5-.7-4.4.1-4.4.1 5-.8 6.3-.5c1.4.3 1.6 1 1.6 1z" fill="#d2a567"/><path d="m304.5 238.4s.9 1.6 2.6 1.6c1.8.1 3.1 2.6 3.1 2.6l-1.9 1.9-4.6.2-1.5-2.4zm0-1.6c.2-.3-1.3-3.3-2.4-3.8-1-.5.4 1 .2 1.6-.3.6-.4 1.4-.3 1.5 0 0 .9 1.4.4 2-.4.5 2.2-1.3 2.2-1.3z" fill="#f8c83c" stroke="#977c2e" stroke-width=".3"/><path d="m303.8 241.4s.8.4 1.4.2c.7-.2 1.3-.9 1.3-.9m-3.6-.5s2.6-1.9 2.4-2.9-.7-1-1-.9a7 7 0 0 0 -2.1 1.7c-.1.3.7 2.1.7 2.1z" fill="#f8c83c" stroke="#977c2e" stroke-width=".3"/><path d="m301 241.5s.6 1.3 1.4 1.3 2-.7 2-1.2c.1-.5-.8-1.5-1.3-1.7-.6-.3-1.9.4-1.9.4l-.1 1.2z" fill="#f8c83c" stroke="#977c2e" stroke-width=".3"/><path d="m303.4 239.8c0 .4-1.7 1.2-2.3 1.2-.5 0-1.6-1.3-1.2-1.5l1.5-.4c.4-.2.5-.8.7-.8.3 0 1 .1 1.1.5.2.5.4.6.2 1z" fill="#f8c83c" stroke="#977c2e" stroke-width=".3"/><path d="m301.8 240.9s-2.6 3.4-3.7 3.3c-1-.2.5-5 .5-5l1.2.6c.9.2 1.7.6 2 1z" fill="#f8c83c" stroke="#977c2e" stroke-width=".3"/><path d="m297.2 238.4s3.3.6 3.4 1.1c.2.6-1.5 1.3-2.5 1.3-.9 0-.9-2.4-.9-2.4z" fill="#f8c83c" stroke="#977c2e" stroke-width=".3"/><path d="m289 243.4s.5 1.6 1.9 1.7c1.4 0 2.8-1.5 2.8-1.5l-3.4-1.3z" fill="#202220"/><path d="m289 243.4.4.9c.3.4.7.8 1.5.9h.1c1.4 0 2.7-1.6 2.7-1.6l-3.4-1.4-1.4 1.2h.1l1.3-1 3.3 1.3v-.1l-.2.2c-.4.4-1.4 1.2-2.4 1.2h-.1a1.8 1.8 0 0 1 -1.4-.8 2.8 2.8 0 0 1 -.3-.6v-.1l-.1-.1z" fill="#4b4139"/><path d="m290 243s.5 1.2 2.4 1.2 3.3-1.5 3.3-1.5l-3-2.3z" fill="#202220"/><path d="m290 243s.5 1.2 2.4 1.3c2 0 3.4-1.5 3.4-1.5l-3-2.5-3 2.7h.2l2.8-2.5 2.9 2.3v-.1a5 5 0 0 1 -3.2 1.4 3 3 0 0 1 -2-.6 2.2 2.2 0 0 1 -.3-.4 1.1 1.1 0 0 1 -.1-.1z" fill="#4b4139"/><path d="m290.2 243.3s.9.6 1.8.7c1 0 2.2-.3 2.2-.3l-1.1.4-.8.1-.8-.1-.6-.3-.6-.4v-.2z" fill="#4b4139"/><path d="m292.4 241.6s.8 2 2.6 1.8c1.7-.2 1.7-1.2 1.7-1.2l-2-2.8z" fill="#202220"/><path d="m292.4 241.6.5 1c.4.4 1 1 1.8 1l.3-.1c.8-.1 1.3-.4 1.5-.7.3-.3.3-.6.3-.6l-2-3-2.5 2.4h.1l2.4-2.1 1.9 2.7c0 .2-.3 1-1.8 1.1h-.2a2.2 2.2 0 0 1 -1.7-.8 4 4 0 0 1 -.4-.6v-.2a1.5 1.5 0 0 1 -.1-.1z" fill="#4b4139"/><path d="m292.6 242s1 1.3 2 1.3a3 3 0 0 0 1.5-.4v.1l-.5.3-.8.1h-.8l-.7-.5-.6-.9zm-3.2 2s.8.9 1.5.9a4.7 4.7 0 0 0 1.9-.6h.1l-.2.1-.8.4-.9.3-.7-.1-.6-.4-.3-.4z" fill="#4b4139"/><path d="m297 238.3c.8-.2 2.4 2 2.4 3.2s-.5 2.7-1.3 2.7-2.6-1.7-3-2.5c-.4-.9-.8-1.4-.5-1.9.3-.4 2.4-1.5 2.4-1.5zm-8 .2s-1.4-1-1.9-.5-.3 2.3 0 2.6c.4.4 2-.8 2-.8l-.2-1.3z" fill="#f8c83c" stroke="#977c2e" stroke-width=".3"/><path d="m288.8 239.7s-1.8.2-1.8 1 .9 1.6 1 1.8c.2.1 1.8-.7 1.8-.7z" fill="#f8c83c" stroke="#977c2e" stroke-width=".3"/><path d="m289.5 241.1s-1.8.6-1.8 1.2.8 1.7 1.3 1.7 1-1 1.2-1.3c.3-.2-.7-1.6-.7-1.6zm.8-5.1s-.3-.5-1-.2c-.8.3-1.6 1-1.5 2.3.1 1.1.6 2 .6 2l2.7-1z" fill="#f8c83c" stroke="#977c2e" stroke-width=".3"/><path d="m290.5 238s-2.2.8-2.3 1.7.5 1.7 1 2c.7 0 2.6-1.8 2.6-1.8l-1.3-1.8z" fill="#f8c83c" stroke="#977c2e" stroke-width=".3"/><path d="m292.5 241.7s-2.2 1.5-2.5 1.5-1.2-1.2-1-2 1.7-1.3 2.3-1.6c.6-.2 1.2 2.1 1.2 2.1zm2-8.2s-.7-.6-2-.5c-1.4.1-2.4 2-2.6 2.8-.2.9 0 2.6.5 2.8.5.3 3.3-2 3.3-2l.8-3z" fill="#f8c83c" stroke="#977c2e" stroke-width=".3"/><path d="m291.8 240.3c-1-.1-1.8-1.5-1.7-2.3.2-.8 2-2.2 3-2 1 .1.8 2.5.8 2.5s-1.2 1.9-2.1 1.8z" fill="#f8c83c" stroke="#977c2e" stroke-width=".3"/><path d="m294.7 240s-.4 1.2-1.4 1.7c-1 .4-1.5 0-2-.7-.6-.8.2-1.2.6-1.6.5-.4 1.7-.7 1.7-.7l1.1 1.4z" fill="#f8c83c" stroke="#977c2e" stroke-width=".3"/><path d="m293.2 237.2s-1 .8-.4 1.8 1 1.4 1.8 1.5 1.3-.2 1.9-.9 1.5-1 1.4-2c-.1-.9-.4-1.6-1-1.8-.5-.3-2.2 0-3.7 1.4z" fill="#f8c83c" stroke="#977c2e" stroke-width=".3"/><path d="m296.2 233s-1-.5-1.9 0c-.8.5-1.4 1.5-1.5 2.4l.2 2.3s1.2-.4 2-1c.7-.6 1-.8.8-1.1 0-.2-.4-.4-.4-1.2 0-1.4.8-1.5.8-1.5z" fill="#202220"/><path d="m296.2 233s-1.2-.3-1.9.1a3.2 3.2 0 0 0 -1.3 1.9c-.3.8-.1 1-.1 1v-1.4c.4-.8 1-1.5 1.6-1.7.8-.3 1.7 0 1.7 0z" fill="#4b4139"/><path d="m328.8 257 1.6-.8 2-1.2.4 2.2-1.8 1.4h-1.5l-.9-.7.2-1z" fill="#f8c83c" stroke="#977c2e" stroke-width=".3"/><path d="m326.4 257.2h1c1.1 0 1.2-.3 1.4-.3.2.1.5 1.3.5 1.3l-.4.7-1.5.9-1.3-.8-.1-1.8zm12.1-.8s-.3-.5-.9-1l-2.2-1.9v5l2.3-.1 1.1-1.5z" fill="#f8c83c" stroke="#977c2e" stroke-width=".3"/><path d="m326.4 257.2s-.4-.5-1.3-.4c-1 0-2 .9-2.1 1.5-.1.7 0 2.6.5 3s1.2.5 2.2.3c1-.3 6.4-3.6 6.4-3.6l-1.4.3c-.7.2-1.4-.1-1.4-.1s-.7.8-1.6 1c-.8 0-1-.5-1.2-.9z" fill="#f8c83c" stroke="#977c2e" stroke-width=".3"/><path d="m330 258.9-1.2.5-1.3.6.4 1.6 2.3.5 1.4-1.1v-1.6l-1.7-.5zm10.4-1.2-.8-.8c-.4-.4-1-.5-1-.5l-1.3 1.5v1l1.2.7.9.2 1.1-.8z" fill="#f8c83c" stroke="#977c2e" stroke-width=".3"/><path d="m332.6 257s-1 .4-1.5.8l-1.2 1c0 .2 1.1 1.4 1.1 1.4l1.2.1 2.5-1.7-.2-1.6zm9.5 2-.5-.7c-.4-.4-1-.6-1.2-.6-.3 0-1.3 1.5-1.3 1.5v.4l.8 1 1.6.5 1.1-1.2z" fill="#f8c83c" stroke="#977c2e" stroke-width=".3"/><path d="m338 260.8 1.2.2s0 .3.3.5c.3.3.3 0 .3 0s.2 1.2 1.4 2c0 0 1.4.6 2 .2.8-.4.7 0 .7 0l2-2.4s0-.5-.5-.5c0 0 .4-1.6-1-2-1.2-.2-2.2.2-2.2.2s-1 1.8-1.6 1.6a2.4 2.4 0 0 1 -.8-.5l-.7-.9s-.4.1-.9-.2-.9-1.1-.9-1.1-.7-.1-1-.4l-.5-.8-1.9 1.4s0 .5-1.1 1.3-1.7.8-1.7.8-.4 1.7-1.6 1.4-2-1.6-2-1.6-.9-.2-1.4.6c-.6.7-.9 1-.9 1.7 0 .8.5 1.8 1 2.2.3.3 1.5 1.3 3 .6 1.4-.8.9-2 .9-2l.8-.5c.9-.6 1.8-1.5 2.5-1.7" fill="#f8c83c" stroke="#977c2e" stroke-linecap="round" stroke-linejoin="round" stroke-width=".3"/><path d="m335.8 250.8v3.2s.4 2.9-.2 3.7c-.6 1-2.9.7-3.2 0-.3-.8-.2-3.2-.2-3.2z" fill="#f8c83c" stroke="#977c2e" stroke-width=".3"/><path d="m333.3 260.5s-.5.8 1 1c.4 0 .7-.2.9-.4.4-.4.3-.8.3-.8s-.2 1.2 1.2 1.2c1.4.1 1.3-1.3 1.3-1.3" fill="#f8c83c" stroke="#977c2e" stroke-linecap="round" stroke-linejoin="round" stroke-width=".3"/><path d="m321.2 263.1s-.8-1.4.1-1.9c1-.5 1.5 0 2.1 0s.4-1.4.3-1.7a3.7 3.7 0 0 0 -.7-1.2c-.2-.2-3.5.2-3.4 2.3 0 2.1 1.6 2.5 1.6 2.5zm5 5.2s-1-1.5-.4-2.4c.5-.9 1-.3 1.2-.4.3 0 .4-.6 0-1.6-.5-1-1.1-1.4-1.4-1.5-.4 0-2.3 1.4-2 3.2a3.5 3.5 0 0 0 2.6 2.7zm18.2-1.8s3.5 1.5 3.7-2c.2-2-1.5-3.3-2-3.3-.4 0-.7.3-1.3 1-.7.8-1.1 1.3-.9 1.6.3.3 1.3-.3 1.8.8.7 2-1.3 1.9-1.3 1.9z" fill="#202220"/><path d="m326.2 268.3s-2.7-.6-2.7-3.3c0-1.8 2-2.6 2-2.6s-1.8 1-1.8 2.6c-.1 2.7 2.5 3.3 2.5 3.3zm-5-5.2s-1.6-.3-1.7-2.6c-.2-2.3 3.5-2.2 3.5-2.2s-3.5.2-3.4 2.4c.2 2.2 1.6 2.4 1.6 2.4zm23.2 3.4s.7.3 1.5.3 1.8-.3 2-1.6c.4-1.3.3-2-.6-3.1-.6-.9-1.2-.8-1.2-.8s.6 0 1 .8c.6.8 1.3 1.6.8 3.1s-2 1.5-2.5 1.5a5.5 5.5 0 0 1 -1-.2z" fill="#4b4139"/><path d="m302.6 192.4-.6-.2.4-1 1.9-.7 1.8-.1 2-.1.8.6 1 2.3-3.6 2.2-.6.2-.2-1-.6-1.4z" fill="#904720"/><path d="m337 245.5-.3-5.5-14.8 4.6 5.8 5.5z" fill="#202020"/><path d="m309.4 235.9-1.2-1-1.4-.8h-1.1l-.2.3.2.5 1.3 1.6 2.3 1.2.8.7.5.2-1.1-2.7zm-.3 2.3.8.2.9 1 .5 1 .7 1.3.2.8-1.6-.3-4.8-1.5.4-1.2.8-.7.7-.3 1-.2z" fill="#d2a567"/><path d="m312.2 242.2h.8l.6-.5-.3-1.8.3-5.8-3.9-4.6-.8 2.6 1.1 4.7.9 2.8z" fill="#d2a567"/><path d="m309.4 231.7s-.2.4.1 2c.3 1.5.9 4.9 2.2 7.2l-1.3-1.9s-2-4.6-1.7-8.2c.3-3.5.7.8.7.8zm2.9 2.9s-.9 1-1 1.9v2.2s0-1 .8-1.3c.9-.3.7 2.3.8 2.6l.5-4.7zm.4 9.6-4.4-1c-2.3-1-3.5-1.8-3.4-2.3 0-.6 4 .1 4.6.2l2.4 1h1l1.9-.8.2 2-2.3 1zm-7.3-.8s1 .8.5 1a4.4 4.4 0 0 1 -2.3.3l4.2 1 .9-.7z" fill="#ab6d29"/><path d="m304.2 242.2c.2-.2.3.7 1.8.8 1.5.2 2.2-.2 2.2-.2l.7.4.8.2-.7 1.1-2.8-.8-1.5-.8z" fill="#d2a567"/><path d="m314 240.3.8 1 .5-2.4v-2.5l-1.6-1z" fill="#ab6d29"/><path d="m309.7 236.1-1.3-2.1-1.7-3.1 1-1.8 1.3 1.8s-.4 1.3-.1 2.5c.2 1.2.8 2.7.8 2.7z" fill="#4d2a15"/><path d="m300.8 244s.6-.9 1.9-1a7.6 7.6 0 0 1 2.4.2l2.6 1.4.6.9-5-.7z" fill="#d2a567"/><path d="m314 235 .2 4c0 1 .7 2 .6 2.3-.2.4-.4.6-1 .9-.6.2-2 0-2 0s1.3-.2 1.4-.5c0-.2-.4-1.4-.5-2.4 0-1 .1-2.2-.3-2.2-.3 0-.7.4-.8.6 0 0 .4-3.8.8-4.2s1.6 1.6 1.6 1.6z" fill="#8f4620"/><path d="m304.7 243s-.5-.4-.5-.8c0-.3.6 1.6 3.4 1.5 2.8 0 2.6-.2 2.6-.2h1.3s-.3 1.3-.5 1.4a61 61 0 0 0 -2.2 1.4l-.7.4v-.2l-.3-2.1-2.4-1z" fill="#ab6d29"/><path d="m309.7 236.1s-3.2-3.3-4.3-5.5c-1-2.2-.4-5.2-.4-5.2l3 4s-.4.7-.3 2c.2 1.2 2 4.7 2 4.7z" fill="#8f4620"/><path d="m307.6 248.3c0-.3-.2-1 .4-1.8 2-2.4 6.8-4 6.8-4v2.8l-6.2 3z" fill="#ab6d29"/><path d="m308 246c.3-.1 1.4-1 1.4-1.3 0-.4-.7-.4-2.1-.7-1.5-.3-2.6-1-2.6-1s1.7 1.4 2.4 1.7c.7.2.6.5.5.7zm8.3.7s-.9-1.3-1.2-2.1-.3-2.1-.3-2.2l-1 .7-2 .7s2 0 2 .6c0 .7-3 1-3 1 0 .1 2.4-.4 2.3.1-.2.6-1.2.7-2.5 1.2l-2.3 1-.7.5s.6.4 1.5.3c.9 0 2.9-.5 2.9-.5l3.8-1.5z" fill="#8f4620"/><path d="m316.3 246.7s-1-.3-1.8-4.8-.6-5.7-.6-5.7l1.8 1.3 1.7 3z" fill="#ab6d29"/><path d="m316.9 239.3s-.9 2.5-.9 4c0 1.4-.1 2.4.3 3.4s1.8 2.3 1.8 2.3l.7-.6.3-2 .1-3.4z" fill="#8f4620"/><path d="m319.4 242.7s.4 6.3-1.2 6.5c-.7 0-1.9-2.4-1.9-2.5 0 0 1.4 2.3 2 2.1 1-.4.6-6.6.6-6.6zm-3.1 4s-.3 0-.7-.8c-.4-.7 0 .6-3.4 1.8s-4.6.5-4.6.5 1.1 1 4.5 0 3.1-1.3 3.6-1.4h.6z" fill="#202020"/><path d="m310 238.7s.6.5 1.2 1.7a363.3 363.3 0 0 0 1 2h.2s-.4-1.3-1-2.2l-2.2-3.1z" fill="#ab6d29"/><path d="m308 246.5s.3-1.1 0-1.4c-.3-.2-.7 0-3-.2a34 34 0 0 1 -4.2-.9s1.6 1 3 1.4l3.5.8.5.1z" fill="#8f4620"/><path d="m308 246.5-.2-.5c-.3-.3-.7.1-3.5-.7-2.8-.7-3.5-1.3-3.5-1.3s1 1 3.4 1.5z" fill="#202020"/><path d="m309.3 238.2s-2.1.1-2.8.7c-.7.5-1.6 2-1.6 2l1.3.1s-.1-1.2.5-1.9c.7-.6 1.7-.7 2.6-.9z" fill="#ab6d29"/><path d="m305.3 234.2s.8 1.2 1.7 1.5c.9.4 1.8.8 2.2 1.2s.9 1.8.9 1.8-3-1.3-3.7-2a9.6 9.6 0 0 1 -1.1-2.5z" fill="#8f4620"/><path d="m308.2 235s-.3-.5-1.1-.9-1.4-.3-1.7-.1-.1.2-.1.2l1 1.7.7-.2s-1.6-1-1.3-1.3c.8-.7 2.5.5 2.5.5z" fill="#8f4620"/><path d="m316.3 231.1 17-8.7 8 11.1-14.7 4-7.7.6-3.8-2.7z" fill="#202020"/><path d="m339 235.9 21 18.2-2.3 1.6-5-1.4-10.2-10.1-3.8-3.8z" fill="#4d2a15"/><path d="m366 250.5-12-9.1-15.3-11.5.4 5.5 17.4 16 5.7 2.7 3-.8 1.4-1.6z" fill="#4d2a15"/><path d="m339 237.6s6 6.9 10.6 10.4 9 7.3 10 6.7c.8-.5.5-1 .5-1l-21.3-17.5.1 1.4z" fill="#803f1d"/><path d="m353.8 255.1-2.1 1.7-2.5-1-13-13.2.7-2.5 1.8.3z" fill="#4d2a15"/><path d="m366 250.5s-1.6 3.8-5 2.9-22-18.5-22-18.5v1.8s18.8 17.3 22.5 18c3.6.7 6.6-2.5 6.2-2.8a43.7 43.7 0 0 0 -1.7-1.4z" fill="#202020"/><path d="m336.9 240.4s6 7.7 9.1 10.5c3.2 2.9 6 5 7.2 4.8 1.3-.2-.7-1.7-.7-1.7l-9.1-9-4.7-4.6s-1.8-.7-1.8 0z" fill="#803f1d"/><path d="m338.4 240.4s15.2 15.5 16.4 15.9c2.5.7 6.2-2 6.2-2l-1.3-.7-.2.5s-.7 1.6-4 .9c-3.2-.7-16.6-15.1-16.6-15.1z" fill="#202020"/><path d="m344 255.3-5.5-6.4-1.2-2.1-.3-2.7 11 11.1-1.5 1-1.4-.4z" fill="#4d2a15"/><path d="m354.1 255.5s-1.3 2-3.2 1.6a5.4 5.4 0 0 1 -2.8-1.7l-10.6-10.4-.3-1.6s11.7 12.3 13.7 12.8c1.6.4 2.7-1.4 2.7-1.4z" fill="#202020"/><path d="m348.2 255.1s-.5 1.6-2 1.4c-1.6-.3-2-.9-2-.9l-6.6-7.7-.1-2s6.8 9.3 8.3 9.8c1.6.5 2-1 2-1z" fill="#202020"/><path d="m341.3 234.9s6.3 5.4 6.8 5.6c.5.3 2.7.4 2.8.7.2.3-1.4 0-1.5.3-.1.4 3.2 3 3.7 3.1.5 0 3.2 0 3.1.4 0 .3-1.8 0-1.9.4 0 .4 2.9 2.7 3.4 2.8.5 0 3.9 0 3.9.4 0 .3-2.7 0-2.7.5.1.6 4.6 3.4 4.4 3.8s-5.4-3.5-5.5-3.3c-.2.2-.4 1.4-.7 1.6s0-1.6-.2-2.4c-.3-.8-3.4-3.1-3.7-2.9-.3.3 0 1.7-.4 1.7s.1-1.7-.2-2.3a16 16 0 0 0 -3.6-3c-.4 0-.1 1.3-.4 1.5s-.2-1.5-.6-2-7-6.5-6.7-7z" fill="#b07229"/><path d="m330.5 252.3s0 2.4-1 2.8c-1.1.3-3.1-4.4-3.1-4.4l-.5-4.4 3.1 3zm8.4-1.2v-1.1c0-.6-.3-1.5-.3-1.5l-.2-2.4-.6-1.7-.4-1h-.7l-1.7 1.2-.5 1.6.8 3 .8 2.7 1.3.4 1.5-1z" fill="#4d2a15"/><path d="m336.8 255.3c.3-.1-.4-3.4-.4-3.4l-2-4.8-.5-1.7-1.5-.6-1 1.2.2 1.9s1.5 3.2 2.2 4.3c.8 1.1 2.3 3.3 3 3.1z" fill="#4d2a15"/><path d="m335 245a6 6 0 0 1 1.4 2.6s1.3 3.6 1.1 4c-.2.3-1 .3-1 .3s1.8 1.8 2.3 1.6.3-2 .1-2.4c-.1-.4-.7 0-1-.5-.1-.4-.8-2.7-.8-4.2v-2.7c.2-.3 1.5 3 1.5 4.7l.6.7-.6-3.2-.7-2.3c0-.2.3-.8.3-1.5v-1s.6.5.9.5.7-.4.8-2c.2-1.5-.1-6-.1-6l-6.8 9 2 2.5z" fill="#202020"/><path d="m335 244.3s-.3 2.4.6 4.8l1.3 3c.2.3.2 2.9-.1 3.2 0 0-1.8-4.4-2.4-6.6-.5-2.1-.7-3-1-3.2l-.8-.2z" fill="#202020"/><path d="m334.4 257c.2 0 0-1 0-1l-.2-2.3-2.4-4.9-2.6-2.3-1.4-2-.2 4s2 4 3.1 5c1.3 1.2 3.3 3.6 3.7 3.5z" fill="#4d2a15"/><path d="m324.7 246s.4 1.1.4 1.8v1.4l1.8 3.5c.9 1.5 1.7 3.1 2.4 2.8.7-.4 1-1.5 1-1.7.1-.1-.8 1.3-1.2 1.1a40 40 0 0 1 -2.3-6.6l-1-.8a18.4 18.4 0 0 1 -1.1-1.4zm7 5.5-1.7-3.1c-.5-1-1.2-1.7-1.4-1.7s-.5-2-.5-2 .7 1.3 1.6 1.7c1 .5 1.5.8 2 .7l.2 2z" fill="#202020"/><path d="m327.4 248.3s.5 1.4 1.4 2.7c.8 1.3 2.3 2.9 2.3 2.9s-1.6-1.6-2.5-2.8a14 14 0 0 1 -1.4-2.8z" fill="#5c3a1d"/><path d="m332 246.7s.5-1.2.8-1.3l1.2-.3s-.7-.1-1.2-.8l-1.3-1.3.4 2zm-.4.4s2 4 2.4 5.5c.5 1.3.4 3.4.4 3.4s-.2-1.5-.6-2.7l-2.4-5c-.1-.3.2-1.2.2-1.2z" fill="#202020"/><path d="m334.2 244.4.5-6-.5-2.2-2.7-6s-.1.8-.8.8a6.2 6.2 0 0 1 -3.1-1.8 9.2 9.2 0 0 0 -.2 4.8l5.3 9.9z" fill="#4d2a15"/><path d="m323.8 248.3s.8 1 1.3 1c.4-.2.3-2.1-.3-3.2-.6-1-7-9.6-8-10.1s7 12.3 7 12.3z" fill="#8b441f"/><path d="m328.1 244.8c.2.4.6 3.1-.5 3.4-1.5.3-8.5-9.4-9.6-10.7 0 0-4.4-2.8-4.5-3.5s4.7 1 4.7 1l9.5 9 .5.8z" fill="#8b441f" stroke="#5c3a1d" stroke-width=".1"/><path d="m323.8 248.3s-.8-1.3-.9-2.3c0-1-.4-1.5-.4-1.9 0-.3-5.2-7.7-5.7-8.2-.6-.5-2.3-1.4-2.3-1.4a15.5 15.5 0 0 0 .3 2.4s1.6 3 4 5.7a458.4 458.4 0 0 0 5 5.8z" fill="#202020"/><path d="m331.6 247c.7-.3.4-2.7.1-3.5a458.4 458.4 0 0 0 -4.4-9.4l-1.3.4-2.3-1.8-1.4-1.5s.5 2.1.4 3.1v1.6l3.3 5.9 5.6 5.3zm4.7-5.2 1-1.3-.5-4.4-2.8-9.4s-.7.1-1.4-.3c-.6-.4-1.4-1.3-1.4-1.3l.7 5.7 2.9 8 .2 2.3z" fill="#4d2a15"/><path d="m327.7 244s-2.8-3-3.7-4.5l-1.7-3s-.8.3-1.8 0c-1-.5-2.2-1.8-2.2-1.8s-.8 1.5 3.2 5.6c4.6 4.6 6.2 3.7 6.2 3.7z" fill="#202020"/><path d="m334.4 245c1.2-.4 1.1-5.4 0-8.7-1-3.3-2.9-6.2-2.9-6.2s2.3 5.4 2.8 7.5c.4 2.2 0 3.7-.4 3.6s-.4-1.3-1.3-3.4c-1-2-1.6-2.6-1.6-2.6s3.3 8.8 2.3 8.6c-.9-.2-5.3-9.9-5.5-10.2-.2-.2-.4.4-.4.4s4 12.2 7 11z" fill="#8b441f"/><path d="m337 221.3 2 4.2.6 4.4.2 3.7s0 7.4-.8 7.6c-1 .1-1.4-.7-1.4-.9a2729 2729 0 0 1 -1.7-8.3l-1.7-8.5.6-.6.2-1.2 1.3-.1z" fill="#4d2a15"/><path d="m331.6 247c.8 0 0-2 0-2s-.6 1-1.2.3c-.5-.7-1.3-3.1-1.3-3.1l-.5-1.5s-.6 1.6-1.3 1.6-4.6-6.4-4.6-6.4l-.4.6s5.4 11.1 9.3 10.6z" fill="#8b441f"/><path d="m329.1 242.2s.7-1.6.4-3c-.3-1.5-2.2-5.1-2.2-5.1s-.6.1-1.4-.2a9.6 9.6 0 0 1 -2.2-1.2 38.3 38.3 0 0 0 5.4 9.5zm3.1-2.3s-.5-3.4-2-6.6c-1.6-3.1-2.6-4.1-2.6-4.1v3.5s1.5.5 2.6 2.4c1 2 2 4.8 2 4.8zm4.3-5.8s-.3-3.7-.8-5.8l-1.2-5s0-.2.3-.4h.6c.8.3 1.1 2.2 1.1 2.2l-.1-3.1-.3-.5h-1.4s.3 1-.1 1.3c-.3.3-.6-.2-.7-.3l-.2.4.4 2-.1 1.7s.5 2.2 1.2 3.5c.6 1.4 1.3 4 1.3 4zm3.3-.5s.6-5.3-.6-8.7-2.2-4.2-2.2-4.2l-.6.6s1.8 3 2.4 5.6zm-5.4 2.7s-.6-4.1-1.3-6.8a82.8 82.8 0 0 1 -1-3.6l-1.1-1s.7 2.7.6 3.6l-.1 1.4s.5 1.4 1.3 2.6a25.5 25.5 0 0 1 1.6 3.8z" fill="#202020"/><path d="m337.2 242.9c1 0 .1-6-.3-7.5-.4-1.6-3-8.8-3-8.8s3 10.3 2.8 10.8c-.3.8-1.5-3.1-1.7-3-.2 0 2.2 6.9 1.3 7-.8 0-1.3-1.5-1.3-1.5l.1 1.5s.6 1.4 2.1 1.5z" fill="#904720"/><path d="m338.5 239.9c.7 0-.2-5.7-.7-8.2l-2-7.5s1.5 3.5 2.3 7.5 1.4 9 .6 9.2c-.8 0-1.2-.8-1.2-.8v-.9s.3.7 1 .7z" fill="#904720"/><path d="m328.8 246.5c0 .4 0 2.4-1 2.2-1-.1-2.9-1.9-3.3-3 0 0 2.2 2.5 3 2.4.8 0 .8-2.5.6-3.2 0-.6.6 1.6.6 1.6z" fill="#312317"/><path d="m334.1 219.5s1.4.9 2.4.3a4 4 0 0 0 1.8-3c0-.8 0-1.5-.7-2.4s1 .7 1 2.3 0 4.3-2.5 5c-2.5.5-1.4-.2-1.4-.2z" fill="#d2a567"/><path d="m332.1 214.7s1.6 2.6 2.2 5c.7 2.3.5 3.2.2 3.3-.4 0-.6-.3-.7-.9 0-.6-1.7-7.4-1.7-7.4z" fill="#8f4620"/><path d="m304.1 218 10.6 15.3 13.2-15-8.3-8.6z" fill="#1e2121"/><path d="m317.5 208.5-.6 2.4 1.3 4.1 2.2 2.3 2.5 1.7.6-2 .6-2.2.7-.2 1.6.6 1-1.5 1.8-3.1-.4-1.2-.4-.9-2.7-4.6-.9 1.7-.8.5-1.6-.8-1.8 2.4-2.3-1z" fill="#4d2a15"/><path d="m323 219s.4-.3.6-1.6c.2-1.2.2-4.9-.1-6.4s-1.3-4.4-1.5-4.2c-.2.3 1.5 3.3 1.3 7-.3 3.6-.2 4.6-1 5-.7.3.6.2.6.2z" fill="#5c3818"/><path d="m323.6 212.8s1.7 2.5 2.5 1.6c.9-.9.5-4 0-5.3l-1.2-3 .5-.6.9 3.4c.3 1.4 1.3 5.2.1 6-1.1.6-2.8-1.5-2.8-1.5z" fill="#5c3818"/><path d="m317.9 214.6s.6-1 1.4-1 1 .3 1 .3l.6 2 1.2 2.2 1 1-.5.6-.9.2-2.5-1.4-.7-1-.6-3z" fill="#8f4620"/><path d="m322 236.3c-.8.5-2.7-.5-3.7-1.4l-6.8-6.7-.8-3.2 2.2.6 3.9-1.7.7-1.3 4.6-2.4 2.6-1.4 5.5-.1 1.4-2.7s1.8 3.2 2.1 4.5c.4 1.4.3 5.4-.2 5.7s-2.3-1.2-2.6-1.3c-.2-.1 1.4 5.7 0 6-1.3.2-3.6-2.2-3.6-2.2s1 5.2-.2 5.2a10 10 0 0 1 -5-2.6s1.3 4.3 0 5z" fill="#d2a567"/><path d="m321 229.6 1.1 1.7c.3.4 0 2.9-.2 3.4-.3.9-1.6-1.2-2.3-3l-2.2-3.8c0-.4 3.5 1.7 3.5 1.7zm10.8-12.9s2 8.1 1 8.4-3.6-2.6-4-3l-4-6.4-.8-.8.2-.4 1.7.6 6 1.6z" fill="#8f4620"/><path d="m317.9 232.3c-.4.3-1.3-1-1.7-1.4l-3-3.3a11.5 11.5 0 0 1 -2.2-2.5c0-.3-.8-1.1-.8-1.1l.7-1h.9s5.4 4.2 5.7 5c.4.6.6 4.1.4 4.3zm8 0c-.2.3-3.7-2.3-5.2-4.4-1.5-2.2-3-4-3.5-5l-.6-1.9 1 .2s8.8 10.8 8.4 11.2zm1.3-3.7c-.2.3-1.7-.9-2.7-2.1-1-1.3-.4-2.9-.4-2.9s3.3 4.8 3.1 5zm2-.5c-.5.3-2.5-2.2-4.2-5-1.3-2-1.6-2.3-1.8-2.5-.5-.3-1.4-.4-1.4-.4l-.2-.3 1-.2.6-.8 1-1.3 4.3 8.5s1 1.9.7 2z" fill="#8f4620"/><path d="m318.3 234.9c0 .3 0 .6-1.2.5a21 21 0 0 1 -9.9-7.8l-3-5 1.1-1.4 9.6 11z" fill="#ab6d29"/><path d="m318.3 234.9c0 .5-.5.6-1.1.5-.6-.2-3-1-6.9-5.3a33.3 33.3 0 0 1 -5.3-7.4l-.2-1.8 1.2-.5 6.5 10z" fill="#8f4620"/><path d="m324.6 230.6s-2-1.5-3.2-3a24 24 0 0 1 -3.8-5.7c.1-.7 1.2-.7 1.2-.7v-1.8l.2-.6 1.9.8 2.3 2.9.9 1.1s1.5 3.7 1.2 4-2.4-2-2.7-1.7 2.4 4.4 2 4.7zm-3.7-1s.7 1 .4 1.7-.5 1-1.5-.4a16 16 0 0 0 -2.3-3c0 .1.1 2.3-.3 2.3-.5 0-2-1.9-3-3.3l-2.5-3.9v-2l-.1-2.5.3.9.4.7 3.6 4.2 1-.7 2.1 4 2 2zm-13.5-6.1s2.8 4.8 5.3 7.5a17.4 17.4 0 0 0 5.6 3.9l-8.4-9.9zm21.2 2.8a12 12 0 0 1 -3-3.4c-1-1.6-1.9-4-1.8-5 0-1 .4-3.4.4-3.4s2.8 3 3.4 4.3c.5 1.4 1.7 3.3 1.4 3.5-.2.2-2.1-1.3-2.4-1-.2.4 2.3 4.8 2 5zm3.2-3c-.3.1-1.8-1.6-2.1-2.6a14.8 14.8 0 0 1 -.6-3.2l-1.2-3v-3.3l1.4-.2 1.9 2.7s.7 1.5.7 3.7c0 2.3.3 5.6 0 5.8zm-22.5 8a41.8 41.8 0 0 1 -4-6l-1-2.9.5.4s.8 3.2 4.7 7.1c4 4 4.9 4.2 4.9 4.2s.7 2.2.4 3c0 0-2.9-2.6-5.5-5.7z" fill="#4d2a15"/><path d="m313.6 235.9s-3.4-3-6-6.4a46.6 46.6 0 0 1 -4.4-6.6l1.2-1a46.3 46.3 0 0 0 9.2 14zm4.7-1-6-6.1c-2-2.2-3-4.4-3-4.4l1.6.6s.7 1.7 2 3.5zm-.8-7s-2.1-2.6-3.1-4.2l-2-3.8s2.8 3.3 3.6 3.5c.9.2.9 0 .9 0s-.4 1.2-.1 2.2zm.9-10.6s.3 1.9.1 3c-.2 1-.8 1-.8 1a15.7 15.7 0 0 0 4 4l-1.8-2.7c-.5-1-1.3-2-1-2.8.4-1 2.1.6 2.6 1l2.6 2.8s-.8-2.5-1.8-3.4a53.6 53.6 0 0 0 -4-2.9z" fill="#202020"/><path d="m327 222.8-1.7-4.2-1.6-5.2v2.8c-.1 1.2-.5 3-1 3.3-.6.2-.7.3-1.7 0-1-.2.7.5.7.5s1 0 1.4-.5.5-1.5 1-1.4c.4.2 1 1.7 1.3 2.4z" fill="#202020"/><path d="m323.7 213.4s2 2.3 3 1.3c.8-1 .3-4 .3-4s1.2.5 1.6.2c.4-.4.2-1.5.2-1.5s2.3 3.2 3.3 5.3c1.1 2 1.6 5.8 1.6 5.8s-1.8-3-2.7-5.8c-.9-2.6-2.1-3.8-2.3-3.5a5.3 5.3 0 0 0 -.3 3c.2 1 1 2.1 1.5 3.5l1.1 3.4-1.6-2.5c-.7-.8-1.3-1.2-1.7-1.6s-1-1.2-1.7-1.4c-.6-.3-1.8-.9-1.8-.4s-.3-1-.3-1z" fill="#202020"/><path d="m316.8 223.3a27 27 0 0 0 4.2 6.3s-2-1.8-2.8-3a15.5 15.5 0 0 1 -1.4-3.3z" fill="#171717"/><path d="m330.2 223.9c-.3 0-1.3-.3-1.4 0 0 .4.6 1.8 1.3 2.5s1 .7 1.1.6c.2 0 0-.7-.2-1.4v-1.7c-.1-.3-.8 0-.8 0z" fill="#8f4620"/><path d="m306 209.4-1.3.7-1.4 3 .4 5.3 2.1 3c.8 1.2 3.5 4.2 4.2 4s1.4-2.3 1.5-3.4l.2-3.2 1.8 2.3c1.1 1.3 2 2.4 2.6 2.3.5 0 2-3.2 2-3.6.1-.4-3.8-10-3.8-10l-1.8-1-6.6.6z" fill="#d2a567"/><path d="m314.8 217.4 1 3.7c.5 1.2 0 2.3.3 2.3.2 0 2.3-2.7 2.3-4 0-1.2 0-2.5-.5-6.3s.2-5 .2-5l-1.2-1-2 4.2zm-7-2.2.7 5c.3 1.2 1 3.3 1.4 3.2.4 0 1.6-3.3 1.7-4.4 0 0-.9-1.6-.8-5.5 0-4-.4-4.4-.4-4.4z" fill="#ab6d29"/><path d="m302.5 207.5s-3.1 4.6-3 7c0 2.5.4 2 1.1 4.2.7 2.3 1.1 5.6 1.2 5.9 0 .2.5-.2.5-.5z" fill="#45392d"/><path d="m302.5 208s-2.7 4.3-2.5 6.6.5 2.3 1.3 4.4c.8 2 .8 5.4.8 5.4s1-.2 1.9-.9c1-.7 1.8-2.1 1.8-2.1l-1-2.1a8 8 0 0 1 -.6-2l-.8-1 .2-4.1.7-3v-1l-1.8-.1z" fill="#ab6d29"/><path d="m317.2 215.3s-1.3-.3-1.9-.6-.8-1.1-.8-1.1l.4-.8z" fill="#dbad6c"/><path d="m303 208.5s-2 4.3-1.7 7.2 1.9 6.6 2 6.7c.2 0 0-.3.1-1v-8.7l.9-2.8v-1.5z" fill="#d2a567"/><path d="m307.8 209.5s.3 1.2.1 1.8c-.2.5-1.2 1.2-1.6 2-.5.8-1 2.8-1 2.8s.4-1.1 1-1.8c.7-.7 1-1.2 1-.8.2.4.4 2 .3 2.3s-.7.8-1 2c-.4 1.3 0 2.4 0 2.4l.5-2.2c.2-.6.7-1 .7-1l1 2.4s0-1.1.3-2c.1-.8 1-2 1.3-2s.8-.1-.3-.7c-.4-.2-.1-4.2.1-4.4.3-.2 1.9-.2 1.7-.8a11 11 0 0 0 -1.6-2.2c-.1-.1-2.5 2.2-2.5 2.2z" fill="#8f4620"/><path d="m317 218.1-1.5-.3c-.5 0-.6-.6-.6-.6l.2-.6 1.2.7z" fill="#dbad6c"/><path d="m304.4 218.6c0 .4-.3.9-.5 1.5-.3.7-.4 1.6-.4 1.6l-.4-3.3-.3-2.4c-.2 0-.7.7-.7.7s0-1.6.3-2.3.5-1.8.3-2c-.3-.1-.8.3-1 .7a30.8 30.8 0 0 0 -.8 1.3s.3-1.3.6-1.9c.3-.5 1.8-2.2 2-2.8.4-.7.4-1.4.4-1.4h1s1 .8 1 1.5c0 .4-1 .9-1 1 0 0-.8-.1-1 3.2-.2 3.4.6 3.2.5 4.6zm9.4-8.7s.2 1.8 0 2.4-.7 1-1.1 1.8c-.4.7-.4 2.4-.4 2.4l.5-1.4.7-1c.1 0 .6.7.8 1.7l.8 2.5s-.2-1.2.1-1.2.5-.1.9.2l.9.8s0-.5-.7-1.1c-.6-.7-1-.6-1.1-1.5-.2-1-.3-1.8-.2-2.2 0-.3.5.3.9.7l1.5 1.4-.7-1v-3c0-1 0-1.9.4-2.1.3-.3.4-1.6.2-1.8-.1-.2-3.5 2.4-3.5 2.4z" fill="#8f4620"/><path d="m324.6 206.1a23.7 23.7 0 0 0 1.5 7.1s-1-2-1.6-3.6-.9-3.5-1.3-3.6c-.4-.2-1 .8-1 1.5s.5 3.3 1.1 4.2c.6 1-1-1.2-1.3-2.3l-.7-2.2s-.4 1-.3 2c.2 1.1 1.1 2.7 1.1 2.7l-1-1-.6-.7s0 1.5.4 2.1l1.2 1.7-1.3-1-.4-.8s.2 2.1.6 3.3l1.5 3s-1.2-1-2-2.9c-.8-1.8-1.2-7.3-1-8.1l1.1-1.9c.6-.8 1.3-4.7 1.3-4.7s.9 3.6 1.5 4.3 1.2 1 1.2 1zm-8.6-1 .8 1.3.6 1s-1 1.1-2.3 2c-1.2 1-2.8 2-3.1 1.5-.4-.5-.4-1-.4-1s1.4-.8 2.4-1.8a6.6 6.6 0 0 0 1.6-2.2c.2-.6.5-.9.5-.9zm-10.9 3.5s.2 2.2 1.2 2.2c.9 0 3.7-2.9 3.9-3s.4-.8.4-1l-.2-.8s-3 3-4 3.2c-.9 0-1.3-.6-1.3-.6zm.1-3-.3 2c0 .5.2.9.2.9s-2.2.7-2.5 0c-.4-.6-.1-1.6-.1-1.6h1.5c.6-.2 1.2-1.3 1.2-1.3zm20.3-3.1 1.5 3.2 1.4 2.8s-1.4-1.7-1.9-2l-1.2-1 .2-1.1v-2z" fill="#1e2121"/><path d="m302.1 207h1.3c.5 0 .8-.2.8-.2l.9-1.2s-.5 1.4-.2 2.5c.3 1 1 1.1 1.2 1.1a4 4 0 0 0 2.2-1.1c.9-1 2.1-1.9 2.1-1.9s-.3 1.3.2 2.7c.5 1.3 1.2 1.3 2.2.4 1-.8 2-2.2 2.6-2.8l.7-1 1.1-1 1-5.4-.5-.7-1.4.7-1.7-.7-.5-.7-1 1.7-1 .6-.5.1-1.2.3-.5-1.1-.3-.8-.6-.3-2.4 2.5-1.4-.1-1.3 2.2-1 1.3-1 2.4z" fill="#dbad6c"/><path d="m313.9 201.5s.2 1.3-.5 3.6-1.6 3.9-1.6 3.9 2.4-1.5 3.6-4.2c1.1-2.6.9-5.7.9-5.7zm3-2.5s.2.4 0 2.4l-.8 4 .6 1.2c.4.7 1.2 1.8 1.7 1.6.6-.2 1.6-.9 2.2-2.2.6-1.4 1.1-2.7 1.4-2.9.2-.2.3.1.4.2 0 .1.3 1.3.9 1.8.5.5 1.3 1.3 1.6 1 .4-.2.8-.9.7-1.2l-1.3-4-1.6-4-1-1.6-2.8.3z" fill="#8f4620"/><path d="m321.7 195.3s.8 1.7.9 3.6c0 1.8-.4 3.8-.4 3.8s.2-2.3 0-3.7c-.3-1.4-.7-2.3-.7-2.7z" fill="#ab6d29"/><path d="m325.6 202.6v2.3c-.2.8-1.3-.5-2-3-.6-2.5-.5-3-1-4.3l-.9-2.2 1.5-.3zm-7 4.6s2.8-1.5 3.1-6.2c.2-2.1-1.2-5.7-1.2-5.7s0 3.8-1 6.2a60.9 60.9 0 0 1 -1.9 4s.7-.2 1-.6l.8-1.1s.1.7-.1 1.6l-.6 1.8zm-2.3-8.1s-.1 1-1.3 2c-1 .9-3.1 1.9-3.1 1.9s1.5-1.4 2-2.6c.6-1.2.1-2 .1-2s-.2.6-.8 1.1-1.6.6-1.6.6 0-.6.7-1.3c0-.1 0-.4.2-.7.3-1 1.1-2.3 1.1-2.3s.7 1.4 1.3 2z" fill="#4d2a15"/><path d="m324.7 193.6a17.6 17.6 0 0 0 .9 9s-1.4-2.2-1.7-3c-.4-1-.4-2.3-.7-3a3.2 3.2 0 0 0 -1-1c-.3-.2-1-.1-1-.1s.8-.4.8-1.1v-1l1.4.3h1.3zm-6 9.8s1.4-2 1.8-4.6 0-3.5 0-3.5-.6 0-1.1-.5-1.3-1.8-1.3-1.8.2 1.4 0 3c-.4 1.6-1.8 3-1.8 3s.8.4 1.4 0c1.5-.9 1.4-2.5 1.4-2.5s.3.2.3 2.2-.7 4.7-.7 4.7z" fill="#1e2121"/><path d="m301.2 206.9c-.3 0 1-2 1.8-3.4l2.1-3.4s.3.3.8.3a3.6 3.6 0 0 0 2.4-1.7 7 7 0 0 0 1-2.5c0-.3-.1 1.8 1 3 1 1.1.9 1 1.3 1 0 0 0 1.4-.4 2.7l-.8 3.3s.2-2.5-.3-3.2c-.4-.8-.6 0-1 1-.3.9-1.1 1.5-1.1 1.5s.6-1.1 1-2.3.2-1.2 0-1.2c0 0-.2-.1-.6.4-.5.5-.9.6-.9.6s.5-.4.7-1a6 6 0 0 1 1-1.8c.2-.3.4-.7.4-1 0-.2 0-.7-.2-.7s-.5.3-1.4 1.2l-1.3 1.3-.9 2.6a17 17 0 0 1 -1 2.8l-.6.4.9-2.4 1-3.4c-.2-.3-.7-.3-.8 0l-2 2.8c-1 1.4-1 3.1-1.2 3.2l-1-.1z" fill="#8f4620"/><path d="m325.7 192.1c0 .2 0 1.2-1 1.5a3.5 3.5 0 0 1 -2.3-.2c-.2 0-.2-1.4-.2-1.4z" fill="#874f20"/><path d="m306 195.4s-.2.9-.8 2c-.5 1.2-1.4 2.2-1.3 2.4 0 .1.6.7 1.4.6.8 0 1.1-4.8 1.1-4.8l-.1-.2z" fill="#b27129"/><path d="m318.4 192.7s-.3 6.4-2.1 6.4-2.7-3.2-2.7-3.2-.1 4.3-2.4 4.3c-1 0-2.1-3.4-1.9-4 0 0-.4 2.3-1.5 3.2-2.2 1.7-3.5.9-3.6.6 0-.3 1.8-2 2-4.6 0 0 .4.1 1-.6s.7-1.6 1.3-1.5c.5.2 3-1 3-1l1.4-1.7s.2.5 1.2-.2a3.6 3.6 0 0 0 1.3-1.7l2.7 2.3z" fill="#dbad6c"/><path d="m311.4 186.6 2.7 3.8.6-.5c.4.5.6.9.4 1.2-.4 1-1.3 2.3-.5 3.7 0 0-.3-.8.1-1.8s.7-1.4 1-1.3c.2 0 .6 5.8 1 5.8.3 0 .9-2.7.9-4.5s.3-.3.5 0c.2.4 1.8 3 3.1 2.6 1.4-.4 1.2-2.8 1.2-3.3 0-.6-1-3.7-1-3.7l-6.1-3.9-.5 1.6c-.3 1-3.4.3-3.4.3z" fill="#b27129"/><path d="m320 186s.4.4 1 1.9.7 6.4-.1 6.4-2.3-1-2.6-1.6c-.3-.7 0-3.1-.4-3.8a8.1 8.1 0 0 1 -1.2-2.7l.1-2 1.4-.5 1.9 2.3z" fill="#8f4620"/><path d="m319.6 184.5 2.6 3.9 2.3 3.3 1.2.4a2.5 2.5 0 0 1 -3.2.5c-.9-.5-.4-2-1.5-4.5-1.2-2.5-3.2-3.6-3.2-3.6l.7-.7z" fill="#4d2a15"/><path d="m318.2 182.4s2.3 1.5 3.1 3.2c.9 1.7 1.3 2.7 2.3 4.3s2.1 2.1 2 2.2c0 .1-.7.3-1.2 0a4.7 4.7 0 0 1 -1.4-1.6 35 35 0 0 0 -2.4-4.2c-.5-.7-2.3-2-2.3-1.9s.5.5 1.5 2.1a7 7 0 0 1 1.2 3.1l-1.1-2c-1-1.5-2.8-3.3-2.9-3-.1.2 1 1.9 1.5 2.9l1.3 3.3-1.8-3c-1-1.5-1.2-1.3-1.6-1.8l-1.4-1.8s1 .3 1.8-.3c1-.6 1.4-1.5 1.4-1.5z" fill="#1e2121"/><path d="m312.3 186.7s1.5.3 2.3.2h1.1s.5.6.5 1.4c0 .7-.5 2.1-.8 2.2-.2 0-.2-1.3-.5-1.8z" fill="#8f4620"/><path d="m313.1 190.6s.5 1.6.1 3.9c-.4 2.2-1.7 4.6-2 4.6s-.2-2.6-.4-4a38.8 38.8 0 0 0 0-.4l-.5 1.6.4-2.6-.1-.8 1.6-2z" fill="#b27129"/><path d="m310.3 192.3c-.5.5-1.2.4-1.8.6s-.9 1-.9 1 .5-.3.7-.2c.3.1.5.1.1 1.2-.5 1.1-2.2 3-2.1 3 0 0 2-1.5 2.5-2.5.7-.9.6-1.4.8-1.8 0-.3.8-.7 1-.7.1 0 .5 0 .6.7l.6 2.6.8-2.6c.2-1 .2-2.9.2-2.9l-.6-.1c-.5-.1-1.5-1-1.5-1s.2 2-.5 2.7z" fill="#8f4620"/><path d="m318.3 180.8s.6 1.5-.7 2.6c-.4.3-.7.5-1.4.6a4.5 4.5 0 0 1 -1.7-.6l-4-1.6-2-.6-1-.3.2-1.1h3l3 1.2 1.3.5 1.1.2h.9l.7-.2.4-.3z" fill="#dbad6c"/><path d="m318.3 180.8c0 .3-.3 1.1-.6 1.3-.3 0-.8.3-2 0-1.1-.2-2.3-1-3.6-1.3-1.3-.4-2.3-.7-3.3-.7s-.5-.4-.5-.4 2.3-.3 4.3.5c2 .7 2.9 1.2 4 1.2 1.4 0 1.7-.6 1.7-.6z" fill="#ab6d29"/><path d="m307.6 179.6h.9c.4 0 .7-.3.7-.3s0 .5-.2.7c-.3.2-1 .1-1.2.1z" fill="#4d2a15"/><path d="m315.3 184.4s1.3 1.3 1 2.4l-2.7-1.2-4.2-1.7-2.3-.7-.3-.4.6-.8.2-.8 2.8.4 3 1z" fill="#dbad6c"/><path d="m312.4 186.3s2.4 3.1 1.8 4.1l-5.6-3.5-2 3.3-4.7-2.3s3.8-3 4.2-3.5l.5-.7 2 .4 3.4 1z" fill="#dbad6c"/><path d="m311 181.6s2 .5 3.3 1.2c1.3.6 3 .8 3 .8s-.6.7-2 .8c-.4 0-1.4-.8-2-1.3-.7-.4-2.6-1-2.6-1z" fill="#ab6d29"/><path d="m307.6 180.6s1.4.3 2.2.7c1 .3 1 .2 1.2.1.3 0 .3-.2.3-.2s.2 1-.5 1-1-.3-1.8-.7c-1-.4-1.5 0-1.5 0v-1z" fill="#4d2a15"/><path d="m315.4 186s1 .7.9.9c-.2 0-.7.3-1.6.4a3.4 3.4 0 0 1 -2-.4c-.6-.2-1-1.3-2.5-2a18 18 0 0 0 -2.8-.9l-1.3-.2 1-.4 3.2.6 2.8.9 1.7.8.6.4zm-5.4 2 .6 2.6-.4 1.5-.8.6-.8-.3-.3-.5s.4-.6 0-1.1c-.3-.6-2-1.2-2-1.2s.7-1.3 1.4-1.6c.8-.3.4-1.2.4-1.2z" fill="#ab6d29"/><path d="m306.8 182.8s.5.4 1.5.5c.5 0 1.3.2 2.2.5l1-.3-.5.4c.9.2 2 .7 2.5.9a5.8 5.8 0 0 1 2 1.3l-2-1a17.4 17.4 0 0 0 -3-.9c-2-.3-4-.2-4.3-.4-.4 0 .1-.1.4-.3.2-.2.2-.7.2-.7z" fill="#4d2a15"/><path d="m314 189.8s.7.7 0 .9c-.6.2-2.4.2-3.2-.7l-.6-1.2a14 14 0 0 0 -2.4-1.7c-.7-.5.3-.5.3-.5l3.6 1.5a13 13 0 0 1 2.3 1.7z" fill="#ab6d29"/><path d="m314 189.9s-1.2-1.8-4.9-3.3l1.2-.2h-2a24 24 0 0 0 -.8-.3c-2-.6-2-.6-2.2-.8-.1-.3-.4 0-.6.3l-.7 1a5 5 0 0 1 2.5-.1c1.1.3 1 .7 1 1-.1.5-1.4 2-1.3 2.1.2 0 1-1.5 2-1.3 1 .3 1.2.8 1.2.8s0-.6-.2-.8-1.3-1.3-1-1.3 1.6.3 3.3 1.2c1.8.9 2 1.1 2.6 1.7z" fill="#4d2a15"/><path d="m308.1 187s2.8.8 2.7 3.8-2.3 2.4-2.5 1.3c-.2-1 .3.5 1 .4.9-.2 1-1 1-2.2 0-1-.3-1.6-1-2.2a12 12 0 0 0 -1.2-1z" fill="#dbad6c"/><path d="m296 179.9s.4.2-.4 2.3-1.3 2.8-2.5 4.2c-2.2 2.4-3.2 2.5-3 3.5.3 1 1.1.8 1.3.8s4.3-6 4.3-6l.9-3.5-.2-1-.3-.3z" fill="#6c3f18"/><path d="m306.1 175.6s1.2 1.8.8 5c-.3 3.4-4.7 6.3-4.7 6.3l-6.4 4.4-2.7-.2h-.8c-.4-.1-.8-.5-.9-.5l-.5-1.2.9-1 2.3-2.3 1.4-2s.7-1.3.8-2.5c0-1.1-.2-1.7-.2-1.7l.5.8.3 1.8-.2 2 1.6-1.2 2.2-1s.7 0 1-1.3c.5-1.2.9-3 .9-3.8l-.1-1.8h.3c.2 0 .7 1.2.7 1.7l.4 2.8 1-1 1-1.5c.2-.5.4-1.3.4-1.8z" fill="#dbad6c"/><path d="m306.8 192.2s.5.4.3 1.6-1.1 1.8-1.6 1.8v-1.6l-1.4-1.2-1.5-.4.3-.3c.1-.2 1.7-.8 1.7-.8z" fill="#904720"/><path d="m305.7 192.2s.5.4 1.2.3c.7-.2 1-1.3.6-1.8-.4-.4-.2 1-.7 1.3-.4.1-1-1.2-1.5-1.3-.7-.1-1.6.3-1.9.7-.2.4 1 0 1 0l.7.3h.5z" fill="#ab6d29"/><path d="m296.5 187.6s.8.3 1.7.1l3.1-1 1.8-1.3c.7-.7 3.1-2.2 3.4-5.1.2-3-.4-4.7-.4-4.7s3.5 3.8.5 8.2c-2 2.8-3.8 3.7-3.8 3.7s3.4-1 3.7-.2-.1 2-.2 2.3c0 0 1.9.4 2.2 1.4.1.6-2.2-.7-4-.2-1.8.4-2.5 1.4-2.5 1.4s-.4-.5-2-.5c-1.5 0-2.2.7-3.1.7-1 0-3.7-.6-4.2-1.4l1.8-2.2c.8-1.6 2-1.2 2-1.2z" fill="#904720"/><path d="m303.8 179.7s1.3-1.3 1.8-2.3c.4-1 .5-1.8.5-1.8s.2 1-.6 2.3-1.7 2-1.7 2z" fill="#ab6d29"/><path d="m303.4 176.7s1.1 4.4 0 6.1c-1.3 1.8-6.5 4.1-6.5 4.1s4-2.1 5.2-4.6 1.1-4.5 1.1-4.5l.2-1z" fill="#904720"/><path d="m298.2 187.7s1.7 0 2.6-.6c1-.5 2.3-1.7 2.3-1.7s-1.2 1-1.6 1c-.3 0-.6-.5-.5-.9 0 0-.3.8-1 1.4-.8.5-1.8.8-1.8.8zm3.9-5.4s1.4-1.4 1.4-4.4-1.2-2.5-1.2-2.5 1 .7.7 3c-.2 2.3-1 4-1 4zm1.7.3s1.6-.3 2.1-1.3.6-2.7.6-2.7-.2 1.7-.7 2.3c-.4.6-2 1.7-2 1.7zm-1 9.5s.8-1.5 1.9-1.1c1 .4 1 1.2 1 1.2s-.4-.6-1.2-.7c-.7 0-1.6.6-1.6.6zm-2.9-2.7 3.7-1 3-1s-1.2 1.3-3 2.3c-1.6 1-3 1-3 1s3.2-1.4 3.4-2c0 0-3 .9-4 .7z" fill="#1e2121"/><path d="m296.2 185.8a2.6 2.7 67.8 0 1 -3 4.4" fill="#fff"/><path d="m296.1 186.1a2.3 2.4 67.8 0 1 -2.7 3.8" fill="#f16e16"/><path d="m295 187.4a1 1 0 1 1 -.8 1.4"/><path d="m295.2 188.6a.3.3 0 1 1 -.6-.1.3.3 0 0 1 .3-.3.3.3 0 0 1 .3.4z" fill="#d5d3ca"/><path d="m296.8 184.2s1.6-1.5 1.9-3.5.1-3.2.1-3.2l.9 1 .3 1.4-.5 2.6 1.6-.8c.6-.8 1.5-4.2 1.2-6.3 0 0 .4 1-.2 3.8-.6 2.9-1 3.2-3.2 4.4a9.6 9.6 0 0 0 -3.8 4.2 19 19 0 0 1 -2.3 3l1.6-2.6c.8-1.8 1.7-2.8 1.7-2.8z" fill="#ab6d29"/><path d="m296.1 185.4s.7-2 .7-3.1-.7-2.4-.7-2.4 1-.1 1 2.2c.1 2.4-.4 2.6-1 3.3z" fill="#904720"/><path d="m299.2 182.8s.7-1.7.7-3c0-1.1-1-2.3-1-2.3s1.1.3 1.2 2.4c.1 2.2-.2 2.2-1 3z" fill="#4d2a15"/><path d="m292.1 191s-.6-.8-.5-1.3c0-.6 0-.7 1.4-2.2a13 13 0 0 0 2.5-3c.3-.9 1.5-3 .6-4.6 0 0 .6 2.4-.8 4.3a15.7 15.7 0 0 1 -3.3 3.7c-1.1.8-1.3 1.2-1.2 1.7 0 .5.1 1 .3 1 .4.3 1 .3 1 .3z" fill="#ab6d29"/><path d="m305.5 195.6s.3 0 .5-.3.2-1-.3-1.6a3.3 3.3 0 0 0 -1.7-1.1l-2-.4s.4.8 1.3 1.3c.4.2 1.2 0 1.6.4.5.4.6 1.7.6 1.7z" fill="#6c4119"/><path d="m305.5 195.6s1.5-.5 1.6-2l-.1-1.2s.2.5.8.7l.6-.2s-1 2.8-3 2.7z" fill="#6c4119"/><path d="m294.8 195.3.8.8.9 1 3.7-1 1.2-1.2-1-1.6h-2.7l-3 2z" fill="#bf802d"/><path d="m303.8 194-.7-.9-.7-.6c-.6-.3-2.8-.3-2.8-.3l-1.6.3s-.5.5-1.3.3a22 22 0 0 1 -2.6-1l-1.9-.7s-1.3-.6-1.6-.5-1.5 1.3-1.5 1.3-.2.7.3.7c.4 0-.7.2-.7.2s-2.8 1.6-3.2 4.4c-.5 2.7 4.6 6.8 6.5 4.7 0 0-2.8-2-2.2-3.7.5-1.7 1.8-2.8 4-3 2.1 0 2.3-.3 3.2-1 1-.6 2.7-1 4 .3 1.3 1.4-5 2.7-5 2.7l.7 1s7.7-2.7 7-4.1z" fill="#f9c83a" stroke="#8f4620" stroke-width=".4"/><path d="m289.4 200.7s-3.1-.8-2.9-3.7c.3-2.8 3-3.9 3.4-4 .4-.2.3-1.6.8-1.8a2.4 2.4 0 0 1 2 .5l1.4.8s-5.5 2.4-5.5 5.6c0 2.1.8 2.5.8 2.5z" fill="#fcf3d8"/><path d="m303.8 193.8s-.4.2-.5 0c-.6-1-2-1.4-3-1.3-1.5 0-2.4.5-3.4.5s-.7-.1-1.8-.2c-1.1 0-3.5-1.8-4-1.6-.6.2-.8.8-.8 1.1.1.4-1 .4-1 .1-.2-.2.7-1.7 1.7-1.7 2.6 0 4.6 1.7 5.8 1.7 1.3 0 1.7-.7 3.4-.7s3.5.8 3.6 2z" fill="#fdeaaf"/><path d="m295.2 195.8s1.3-.2 2.2-.6l2.2-.8-2 1.2-2 .5z" fill="#513625"/><path d="m290.8 202.3c-.2 0-1.3 0-3-1.1-1.8-1.2-2.3-3.2-2.3-3.2s-.4-1.9 1.4-3.8 2.1-1.3 2.2-1.2c.1 0 0 .1 0 .1l-1.7 1.3-.7 1.3-.7 1.2v1.4l.8 1.5 2.5 1.5z" fill="#f9c83a"/><path d="m289.8 191.4v-.2.3-.3.3-.3l-.3.2h.2v-.2l-.2.2.2-.2h-.2a.3.3 0 0 0 0 .2l.2-.2h-.2.2-.2.2-.2.2l-.2-.1.2.1-.2-.1-.1.1a4.6 4.6 0 0 0 -.4.5l-.2.6v.1c0 .3.2.5.4.6h1.4a.3.3 0 0 0 .1-.4.3.3 0 0 0 -.3-.2l-.7.1a.8.8 0 0 1 -.3 0v-.2a.5.5 0 0 1 0-.2 3 3 0 0 1 .3-.5l.2-.1v-.1l.1-.2a.3.3 0 0 0 -.3-.2.3.3 0 0 0 -.2.3.3.3 0 0 0 .3.2z" fill="#8b5122"/><path d="m295.1 194.1-3.8 1.1c-.3.2 1.2 0 2.4 0l1.3.1.9-.2c1.4-.5 4.4-1.6 4.7-.3.2 1-4.1 2-4.1 2v.5l3.4-.9 1.9-1 .5-.9-1.7-1.2h-2.6l-1.2.3z" fill="#f9c83a"/><path d="m289.7 199.5c.3.8.9 2 1.6 2.3 0 0 .1 0 0 0 0 .1-.5.5-1.7.1-1.2-.3-3-.7-4.1-4v.7l.7 1.3 1.1 1.2 1.9 1.1 1.2.3 1-.2.6-.4-1.1-1-1.4-2.3.2 1z" fill="#8f4620"/><path d="m302.1 232.6v1.2h-.7v-1.5zm-4.7-34.4-1.2-1.4-.8.1 1.2 1.8z" fill="#fcca3d"/><path d="m302 235.5-1.7-1a10 10 0 0 0 -2.4-.6v.3h.2l2.1.6a14.3 14.3 0 0 1 1.7 1zm0-3.1h-3a4 4 0 0 0 -1.3.7l.1.2a3.8 3.8 0 0 1 2.6-.7 23 23 0 0 1 1.4.1v-.3zm-.4-2.7-2.6 1.4-1.6 1.2.2.2.5-.4a16.5 16.5 0 0 1 2.6-1.6l1-.5zm-1.7-2.7s0 .7-.3 1.2a8.6 8.6 0 0 1 -.6.8 86.3 86.3 0 0 1 -2.5 2.6l.2.3a220.4 220.4 0 0 0 2.5-2.7l.7-.8c.3-.6.3-1.3.3-1.4zm-2.1-1.2a4.2 4.2 0 0 1 -.2 2.2l-1 2.2-.4.9-.2.3.2.2s1.3-2.2 1.7-3.5c.2-.5.2-1 .2-1.5a4 4 0 0 0 0-.9h-.4zm-2.1-.3a8.7 8.7 0 0 0 0 1.2c0 .6 0 1.2-.2 1.7l-.7 1.8-.3 1 .3.1 1-2.8c.2-.5.2-1.2.2-1.8v-1.2zm-1.6 0v1.2l-.3 2a52.2 52.2 0 0 0 -.5 2.5h.3l.2-.8.3-1.7c.3-1 .3-3.2.3-3.2zm-1.8.3a13 13 0 0 0 0 2.9 14 14 0 0 0 -.4 2.5h.3a23.3 23.3 0 0 1 .4-2.4l.1-1.4v-1.6zm-1.3.2v.2a9 9 0 0 1 -.3 2.2l-.6 1.9-.2 1h.3l.8-2.9a8.9 8.9 0 0 0 .3-2.2v-.2zm-1.6 0v.7c0 .6 0 1.4-.4 2a5.5 5.5 0 0 1 -1.3 1.6 9.8 9.8 0 0 1 -.7.4l-.2.2.1.3s1.7-1 2.4-2.3c.4-.7.5-1.6.5-2.2v-.7zm-.9-.3v.2a6.7 6.7 0 0 1 -1 1.9c-.3.4-.9.8-1.3 1.1a12.1 12.1 0 0 1 -.8.5l.2.3s1.4-.8 2.1-1.7a8 8 0 0 0 1.1-2.2h-.3zm-1.5-.7v.1a6.2 6.2 0 0 1 -1 1.3c-.1.2-.5.4-.9.6l-.6.4.1.3.7-.4 1-.7.7-.9.3-.6zm-.7-1-.3.3-.9 1a6.5 6.5 0 0 1 -.5.4l-.4.3.1.3.7-.4c.7-.6 1.5-1.7 1.5-1.7zm-.4-.6-.2.2-.9.6a2 2 0 0 1 -.8.3v.4l.6-.3c.7-.3 1.5-1 1.5-1zm-.2-.7-.8.4-.6.3a1.9 1.9 0 0 1 -.4.2v.3c.2 0 .3 0 .5-.2l1.4-.7zm-.4-1.3-.5.5-.9.3v.3a2 2 0 0 0 1.2-.5 3.8 3.8 0 0 0 .5-.4zm.1-2.2-.6.5c-.3.3-.6.6-.7 1a.6.6 0 0 1 -.1 0v.5l.2-.2a.8.8 0 0 0 .2-.2c0-.2.4-.6.7-.9a7.9 7.9 0 0 1 .5-.5zm10.7-12.8h1.6l.1-.2v-.1h-.1v.3-.1h-.2.1-.1v-.2l.1.1v-.1.1-.1h-1.5zm0-1h.2c.2 0 .4 0 .6-.2.4-.1.7-.4 1-.6l.5-.3a.8.8 0 0 1 .3 0v-.4l-.6.2-1 .7-.8.3-.1.3zm0-1.5.7-.2 1.2-.8c.4-.3.7-.4 1-.4v-.3c-.3 0-.5 0-.8.2l-1.2.7a3 3 0 0 1 -1 .5v.3zm-.6-1.4 1.5-1 1.6-1.2-.1-.3-1.7 1.2c-.5.5-1.1.9-1.5 1l.2.4zm-1-1.5 3.2-2.3-.2-.3-3.2 2.3.1.3zm-1.5-1.6a20.7 20.7 0 0 1 3.4-2.3l-.2-.2-1.5 1-1.9 1.3zm-1-1a123.7 123.7 0 0 1 2.6-1.8l.8-.5-.1-.3a7.6 7.6 0 0 0 -.8.5 113 113 0 0 0 -2.7 2l.1.2z" fill="#816c2a"/><path d="m294.5 195.4.1.1a17.3 17.3 0 0 1 2.5 2.5c1 1.2 1.8 2.7 1.8 4.1v.5a9.5 9.5 0 0 1 -2.5 5c-2 2.3-4.8 4.4-7 6.4a18 18 0 0 0 -3 3.1 6.1 6.1 0 0 0 -1.2 3.7 6.4 6.4 0 0 0 1.1 3.4 4.4 4.4 0 0 0 3.9 2c1.8 0 3.8-.7 5.6-.7 1.6 0 3 .4 4.4 1.9 1.3 1.4 1.7 3.6 1.7 5.7 0 1.6-.2 3-.4 4.2a25.6 25.6 0 0 1 -.4 1.8h.3s.8-2.8.8-6c0-2.1-.4-4.5-1.8-6a5.8 5.8 0 0 0 -4.6-1.9c-1.9 0-3.9.6-5.6.6a4 4 0 0 1 -3.6-1.8 6 6 0 0 1 -1-3.3v-.1c0-1.6.7-3 1.9-4.3 1.8-2 4.5-4 7-6.2 2.3-2.2 4.4-4.5 4.7-7.5v-.5c0-1.8-1.1-3.5-2.3-4.8a17.2 17.2 0 0 0 -2.3-2.2z" fill="#78732e"/><path d="m292.1 198.4-.4-.3-.3.1.6.5zm1 1-.3-.3h-.1l.2.4z" fill="#a8ac71"/><path d="m294.5 201-.2-.4-.2.2.3.3zm1 1.5-.1-.3h-.3l.4.5zm.7 1.5-.2-.4v.4zm0 1.5v-.4l-.2-.1v.5zm0 1v-.5l-.1-.1v.6zm-12.2 14.6.1-.7c.1-.3-.3.1-.3.1v.5z" fill="#78732e"/><path d="m284 222.1-.3.1.1.5.1-.2v-.4z" fill="#fff"/><path d="m284 223.9v-.4h-.2v.6z" fill="#78732e"/><path d="m284 224.9v-.4h-.1v.4zm.3 1.4v-.4l-.2.1.1.4zm.4 1.4-.1-.5h-.2l.2.6z" fill="#fff"/><path d="m285.6 229.7-.2-.3h-.2l.3.3zm1.5 1.4-.5-.3c-.3-.3-.1.2-.1.2l.4.2h.2zm9.8.8-.4-.3c-.2 0 0 0 .2.4.1.3.2-.1.2-.1z" fill="#a8ac71"/><path d="m297.7 232.5-.3-.3v.3h.2z" fill="#fff"/><path d="m297.9 233c-.1-.2-.2.1-.2.1l.2.3v-.5zm0 1.3v-.5c0-.2-.1 0-.1 0v.5z" fill="#a8ac71"/><path d="m297.4 235.7.2-.4h-.2zm-14.8-52s.5-.2.1.4l.3-.5h-.5z" fill="#fff"/><path d="m294.6 195 .4.3h-.5z" fill="#f9c83a"/><path d="m295 195.3-.7.1c-.2 0 .2-.2.2-.2l.4.1z" fill="#8f4620"/><path d="m301 239.1s.3 0 .5-.3-.1.4-.1.4l-.3.1-.2-.2z" fill="#977c2e"/></svg>