<svg viewBox="0 0 640 480" xmlns="http://www.w3.org/2000/svg" xmlns:xlink="http://www.w3.org/1999/xlink"><path d="m0 0h640v480h-640z" fill="#cc0001"/><path id="a" d="m0 445.8h640v34.2h-640z" fill="#fff"/><use height="100%" transform="translate(0 -68.6)" width="100%" xlink:href="#a"/><use height="100%" transform="translate(0 -137.2)" width="100%" xlink:href="#a"/><use height="100%" transform="translate(0 -205.8)" width="100%" xlink:href="#a"/><use height="100%" transform="translate(0 -274.3)" width="100%" xlink:href="#a"/><use height="100%" transform="translate(0 -343)" width="100%" xlink:href="#a"/><use height="100%" transform="translate(0 -411.5)" width="100%" xlink:href="#a"/><path d="m0 0h372.6v274.3h-372.6z" fill="#010066"/><g fill="#fc0"><path d="m149.7 48.5c-49 0-88.9 39.7-88.9 88.6a88.8 88.8 0 0 0 89 88.6 88.7 88.7 0 0 0 48-14 78.9 78.9 0 0 1 -25.8 4.2 78.7 78.7 0 0 1 -78.8-78.5 78.7 78.7 0 0 1 106.2-73.7 88.7 88.7 0 0 0 -49.7-15.2z"/><path d="m297.1 183.2-37.4-19.5 11 40-25-33.5-7.8 40.7-7.7-40.7-25.1 33.4 11.2-40-37.6 19.5 28-31.3-42.5 1.6 39-16.3-39-16.5 42.5 1.7-27.8-31.3 37.4 19.5-11-40 25 33.5 7.8-40.7 7.7 40.7 25.1-33.3-11.2 39.9 37.6-19.4-28 31.2 42.5-1.6-39 16.4 39 16.5-42.5-1.8z"/></g></svg>