<svg height="480" viewBox="0 0 640 480" width="640" xmlns="http://www.w3.org/2000/svg" xmlns:xlink="http://www.w3.org/1999/xlink"><clipPath id="a"><path d="m0 0h640v480h-640z"/></clipPath><g clip-path="url(#a)" fill-rule="evenodd"><path d="m0 0h640v480h-640z" fill="#fff"/><path d="m-26.374.224.803 345.543 538.106-345.767-538.913.222z" fill="#3662a2"/><path d="m666.37 479.56-1.262-359.298-542.793 359.57 544.059-.266z" fill="#38a100"/><path d="m-26.028 371.822.458 108.178 117.421-.15 573.524-384.506-.646-94.05-116.025-1.07-574.735 371.596z" fill="#c70000"/><path d="m219.556 171.927-21.733-13.122-12.575 22.103-12.235-22.246-21.93 12.883.536-25.406-25.413.198 13.167-21.759-22.082-12.531 22.27-12.278-12.837-21.907 25.405.487-.15-25.41 21.734 13.125 12.575-22.106 12.235 22.246 21.93-12.88-.536 25.407 25.41-.201-13.165 21.76 22.08 12.532-22.27 12.278 12.84 21.906-25.405-.488z" fill="#ffe700"/><path d="m232.384 112.437c0 25.544-20.87 46.252-46.613 46.252s-46.614-20.708-46.614-46.252 20.87-46.253 46.614-46.253 46.613 20.708 46.613 46.253z" fill="#3662a2"/><path d="m222.267 112.437c0 20.156-16.34 36.496-36.496 36.496s-36.497-16.34-36.497-36.496 16.34-36.497 36.497-36.497 36.496 16.34 36.496 36.497z" fill="#ffe700"/></g></svg>