<svg viewBox="0 0 640 480" xmlns="http://www.w3.org/2000/svg" xmlns:xlink="http://www.w3.org/1999/xlink"><clipPath id="a"><path d="m0 0h640v480h-640z"/></clipPath><g clip-path="url(#a)" fill-rule="evenodd"><path d="m0 0h640v480h-640z" fill="#fff"/><path d="m-26.4.2.8 345.6 538.1-345.8z" fill="#3662a2"/><path d="m666.4 479.6-1.4-359.3-542.7 359.5 544-.2z" fill="#38a100"/><path d="m-26 371.8.4 108.2 117.5-.1 573.5-384.5-.7-94.1-116-1-574.7 371.4z" fill="#c70000"/><path d="m219.6 172-21.8-13.2-12.6 22.1-12.2-22.2-22 12.9.6-25.4-25.4.2 13.2-21.8-22.1-12.5 22.2-12.3-12.8-22 25.4.6-.1-25.5 21.7 13.2 12.6-22.1 12.2 22.2 22-12.9-.6 25.4 25.4-.2-13.2 21.8 22.1 12.5-22.2 12.3 12.8 22-25.4-.6z" fill="#ffe700"/><path d="m232.4 112.4c0 25.6-20.9 46.3-46.6 46.3s-46.6-20.7-46.6-46.3 20.8-46.2 46.6-46.2 46.6 20.7 46.6 46.2z" fill="#3662a2"/><path d="m222.3 112.4a36.5 36.5 0 1 1 -73 0 36.5 36.5 0 0 1 73 0z" fill="#ffe700"/></g></svg>