<svg viewBox="0 0 640 480" xmlns="http://www.w3.org/2000/svg"><path d="m0 0h640v480h-640z" fill="#009543" stroke-width=".9"/><path d="m0 0h640v320h-640z" fill="#ed4135" stroke-width=".9"/><path d="m0 0h640v160h-640z" fill="#0035ad" stroke-width=".9"/><circle cx="240" cy="240" fill="#fae600" r="157.3" stroke="#000" stroke-width="5.3"/><path d="m213.3 263.5h53.3m-53.3-39.5h53.3m-26.6-140.8v268.8" stroke="#000" stroke-width="6.4"/><g stroke-width="1.1"><path d="m176.6 384.4c64.2 26.3 124.4 1.7 124.4 1.7s-22.7-24.6-34.3-34.2c-11.4-9.4-44.8-9-56.2 0a488.7 488.7 0 0 0 -33.9 32.5z"/><ellipse cx="240" cy="312.5" rx="17.6" ry="25.6"/><ellipse cx="240" cy="243.7" rx="21.3" ry="13.5"/><circle cx="240" cy="181.3" r="21.3"/><path d="m265.6 101.9s1.8 3-2 10c-18.6 33.5-37.3 34.2-40.8 37.1-4 3.2-5.6 3-5.6 3 .3-2.9.5-14.6.7-15.7 2.9-15.7 26.5-15.5 45-31.5 2.9-2.5 2.7-3 2.7-3z"/></g><path d="m265.5 163s4 11.2 4.5 22.5c1 18 18.2 18.5 30 18.5v-10c-8.9 0-16.6-1.3-23-14.5a115 115 0 0 0 -11.5-16.5zm-.5 145s6.3-7.8 13.7-26c3.8-9.5 13-15 21.3-15v-14c-19 0-28.2 7-29.1 17.4-2 21.1-5.9 37.6-5.9 37.6z" transform="matrix(1.06667 0 0 1.06667 -80 0)"/></svg>