<svg height="480" viewBox="0 0 640 480" width="640" xmlns="http://www.w3.org/2000/svg" xmlns:xlink="http://www.w3.org/1999/xlink"><clipPath id="a"><path d="m-54.667 0h682.67v512h-682.67z"/></clipPath><g clip-path="url(#a)" fill-rule="evenodd" stroke-width="1pt" transform="matrix(.9375 0 0 .9375 51.25 0)"><path d="m-140 0h1024v512h-1024z" fill="#002170"/><path d="m-140 234.11h1024v43.783h-1024z" fill="#ffb20d"/><path d="m161.81 437.989-32.916-32.971-10.604 45.363-12.008-45.015-31.875 33.978 12.107-44.989-44.59 13.498 32.972-32.907-45.365-10.613 45.016-12.008-33.987-31.875 44.989 12.108-13.49-44.591 32.907 32.971 10.614-45.364 12.008 45.015 31.866-33.977-12.098 44.988 44.59-13.498-32.98 32.908 45.363 10.613-45.015 12.009 33.987 31.874-44.989-12.108z" fill="#fff"/></g></svg>