<svg height="480" viewBox="0 0 640 480" width="640" xmlns="http://www.w3.org/2000/svg" xmlns:xlink="http://www.w3.org/1999/xlink"><clipPath id="a"><path d="m0 0h496.06v372.05h-496.06z"/></clipPath><g clip-path="url(#a)" transform="scale(1.2902)"><path d="m.013 0h499.55v248.1h-499.55z" fill="#fff" fill-rule="evenodd"/><path d="m.013 0-.02 18.621 119.21 61.253 44.86 1.3-164.051-81.174z" fill="#c00"/><path d="m51.054 0 144.53 75.491v-75.49h-144.52z" fill="#006"/><path d="m214.86 0v96.372h-214.84v55.07h214.84v96.372h66.106v-96.372h214.84v-55.07h-214.84v-96.372z" fill="#c00"/><path d="m300.24 0v71.132l141.39-70.58z" fill="#006"/><path d="m304.71 78.887 39.76-.32 154.48-78.016-40.99.668z" fill="#c00"/><path d="m.013 167.5v52.775l99.16-52.22-99.16-.56z" fill="#006"/><path d="m381.85 169.68-41.336-.321 155.82 77.58-1.025-17.749-113.46-59.51zm-343.12 78.57 146.11-76.71-38.38.26-146.45 76.34" fill="#c00"/><path d="m497.9 21.795-118 58.515 116.43.436v87.194h-99.159l98.242 53.23 1.442 27.08-52.474-.627-143.62-70.505v71.132h-104.67v-71.132l-134.72 70.94-60.844.192v247.81h991.59v-495.63l-493.17-.43m-498.41 27.971-.523 51.467 104.39 1.308-103.86-52.775z" fill="#006"/><g fill-rule="evenodd"><g fill="#ffd900" stroke-width="1pt"><path d="m496.06 0h496.06v496.06h-496.06z"/><path d="m0 248.03h523.49v248.03h-523.49z"/></g><g><path d="m290.9 125.29c0 23.619-19.148 42.767-42.768 42.767-23.619 0-42.767-19.147-42.767-42.767s19.147-42.767 42.767-42.767 42.767 19.147 42.767 42.767z" fill="#000067"/><path d="m240.189 114.32 8.225-24.592 8.224 24.591 26.686-.018-21.603 15.175 8.266 24.58-21.577-15.211-21.577 15.207 8.27-24.576-21.6-15.182zm148.548 4.026 4.076-11.512 4.076 11.512 13.226-.008-10.707 7.104 4.097 11.508-10.694-7.122-10.693 7.12 4.098-11.506-10.704-7.107zm-144.68 85.54 4.076-11.512 4.076 11.512 13.226-.008-10.707 7.104 4.097 11.508-10.694-7.122-10.693 7.12 4.098-11.506-10.704-7.107zm0-167.05 4.076-11.512 4.076 11.512 13.226-.008-10.707 7.104 4.097 11.508-10.694-7.122-10.693 7.12 4.098-11.506-10.704-7.107zm-145.127 81.51 4.076-11.512 4.076 11.512 13.225-.008-10.706 7.104 4.096 11.508-10.693-7.122-10.694 7.12 4.099-11.506-10.705-7.107z" fill="#fff40d"/></g></g></g></svg>