<svg viewBox="0 0 640 480" xmlns="http://www.w3.org/2000/svg" xmlns:xlink="http://www.w3.org/1999/xlink"><clipPath id="a"><path d="m0 0h496v372h-496z"/></clipPath><g clip-path="url(#a)" transform="scale(1.2902)"><path d="m0 0h499.6v248.1h-499.6z" fill="#fff" fill-rule="evenodd"/><path d="m0 0v18.6l119.2 61.4 44.9 1.3z" fill="#c00"/><path d="m51 0 144.6 75.5v-75.5z" fill="#006"/><path d="m214.9 0v96.4h-214.9v55h215v96.4h66v-96.4h215v-55h-215v-96.4h-66z" fill="#c00"/><path d="m300.2 0v71.1l141.4-70.5z" fill="#006"/><path d="m304.7 78.9 39.8-.3 154.4-78-41 .6-153.1 77.8z" fill="#c00"/><path d="m0 167.5v52.8l99.2-52.3-99.2-.4z" fill="#006"/><path d="m381.9 169.7-41.4-.3 155.8 77.5-1-17.7-113.5-59.5zm-343.2 78.6 146.1-76.8-38.3.3-146.5 76.3" fill="#c00"/><path d="m497.9 21.8-118 58.5 116.4.5v87.1h-99.1l98.2 53.3 1.4 27-52.4-.6-143.6-70.5v71.2h-104.8v-71.3l-134.7 71-60.9.2v247.8h991.6v-495.6l-493-.4m-498.4 28-.6 51.4 104.4 1.3-103.9-52.7z" fill="#006"/><g fill-rule="evenodd"><g fill="#ffd900" stroke-width="1pt"><path d="m496 0h496.1v496h-496z"/><path d="m0 248h523.5v248h-523.5z"/></g><g><path d="m290.9 125.3a42.8 42.8 0 1 1 -85.5 0 42.8 42.8 0 0 1 85.5 0z" fill="#000067"/><path d="m240.2 114.3 8.2-24.6 8.2 24.6h26.7l-21.6 15.2 8.3 24.5-21.6-15.3-21.6 15.2 8.3-24.5-21.6-15.2zm148.5 4 4.1-11.5 4 11.6h13.3l-10.7 7 4.1 11.5-10.7-7-10.7 7 4.1-11.5-10.7-7zm-144.6 85.7 4-11.5 4.1 11.5h13.2l-10.7 7 4.1 11.6-10.7-7.1-10.7 7 4.1-11.4-10.7-7.1zm0-167 4-11.6 4.1 11.5h13.2l-10.7 7.1 4.1 11.5-10.7-7-10.7 7 4.1-11.5-10.7-7zm-145.2 81.2 4.1-11.5 4 11.5h13.3l-10.7 7.1 4.1 11.5-10.7-7-10.7 7 4.1-11.5-10.7-7z" fill="#fff40d"/></g></g></g></svg>