<svg viewBox="0 0 640 480" xmlns="http://www.w3.org/2000/svg" xmlns:xlink="http://www.w3.org/1999/xlink"><defs><clipPath id="a"><path d="m0 0h600v300h-600z"/></clipPath><clipPath id="b"><path d="m0 0 300 150h-300zm300 0h300l-300 150zm0 150h300v150zm0 0v150h-300z"/></clipPath><g id="c"><g id="d"><path d="m0 0v.5l1-.5z" transform="translate(0 -.3)"/><path d="m0 0v-.5l1 .5z" transform="matrix(.80901699 -.58778525 .58778525 .80901699 .213049 .255696)"/></g><use transform="scale(-1 1)" xlink:href="#d"/><use transform="matrix(.30901699 .95105652 -.95105652 .30901699 0 0)" xlink:href="#d"/><use transform="matrix(.30901699 -.95105652 .95105652 .30901699 0 0)" xlink:href="#d"/><use transform="matrix(-.30901699 .95105652 .95105652 .30901699 0 0)" xlink:href="#d"/></g></defs><path d="m0 0h640v480h-640z" fill="#00247d" fill-rule="evenodd"/><g transform="matrix(.66825 0 0 .66825 -93 36.1)"><use fill="#fff" height="100%" transform="matrix(45.4 0 0 45.4 900 120)" width="100%" xlink:href="#c"/><use fill="#cc142b" height="100%" transform="matrix(30 0 0 30 900 120)" width="100%" xlink:href="#c"/></g><g transform="matrix(.09300242 .66174664 -.66174664 .09300242 583.637238 -421.39784)"><use fill="#fff" height="100%" transform="matrix(5.62259328 -40.00682998 40.00682998 5.62259328 900.014856 119.948656)" width="100%" xlink:href="#c"/><use fill="#cc142b" height="100%" transform="matrix(3.47932752 -24.75670172 24.75670172 3.47932752 900.014856 119.948656)" width="100%" xlink:href="#c"/></g><g transform="matrix(.09300242 .66174664 -.66174664 .09300242 583.637238 -421.39784)"><use fill="#fff" height="100%" transform="matrix(6.31845878 -44.95817032 44.95817032 6.31845878 900.059711 380.000256)" width="100%" xlink:href="#c"/><use fill="#cc142b" height="100%" transform="matrix(4.17519303 -29.70804206 29.70804206 4.17519303 900.059711 380.000256)" width="100%" xlink:href="#c"/></g><g transform="matrix(.66825 0 0 .66825 -93 36.1)"><use fill="#fff" height="100%" transform="matrix(50.4 0 0 50.4 900 480)" width="100%" xlink:href="#c"/><use fill="#cc142b" height="100%" transform="matrix(35 0 0 35 900 480)" width="100%" xlink:href="#c"/></g><path clip-path="url(#a)" d="m0 0 600 300m-600 0 600-300" stroke="#fff" stroke-width="60" transform="scale(.60681 .73139)"/><path clip-path="url(#b)" d="m0 0 600 300m-600 0 600-300" stroke="#cc142b" stroke-width="40" transform="scale(.60681 .73139)"/><path clip-path="url(#a)" d="m151.7 0v79.4h-151.7v60.6h151.7v79.4h60.7v-79.3h151.6v-60.7h-151.6v-79.4z" fill="#fff"/><path d="m163.8 0v91.5h-163.8v36.4h163.8v91.5h36.4v-91.4h163.9v-36.5h-163.9v-91.5z" fill="#cc142b"/></svg>