<svg viewBox="0 0 640 480" xmlns="http://www.w3.org/2000/svg" xmlns:xlink="http://www.w3.org/1999/xlink"><defs><g id="a"><g id="b"><path d="m0 0v.5l1-.5z" transform="translate(0 -.3)"/><path d="m0 0v-.5l1 .5z" transform="matrix(.80901699 -.58778525 .58778525 .80901699 .213049 .255696)"/></g><use transform="scale(-1 1)" xlink:href="#b"/><use transform="matrix(.30901699 .95105652 -.95105652 .30901699 0 0)" xlink:href="#b"/><use transform="matrix(.30901699 -.95105652 .95105652 .30901699 0 0)" xlink:href="#b"/><use transform="matrix(-.30901699 .95105652 .95105652 .30901699 0 0)" xlink:href="#b"/></g></defs><path d="m0 0h640v480h-640z" fill="#00247d" fill-rule="evenodd"/><g transform="matrix(.66825 0 0 .66825 -111 36.1)"><use fill="#fff" height="100%" transform="matrix(45.4 0 0 45.4 900 120)" width="100%" xlink:href="#a"/><use fill="#cc142b" height="100%" transform="matrix(30 0 0 30 900 120)" width="100%" xlink:href="#a"/></g><g transform="matrix(.09300242 .66174664 -.66174664 .09300242 565.591008 -421.438027)"><use fill="#fff" height="100%" transform="matrix(5.62259328 -40.00682998 40.00682998 5.62259328 900.014856 119.948656)" width="100%" xlink:href="#a"/><use fill="#cc142b" height="100%" transform="matrix(3.47932752 -24.75670172 24.75670172 3.47932752 900.014856 119.948656)" width="100%" xlink:href="#a"/></g><g transform="matrix(.09300242 .66174664 -.66174664 .09300242 565.591008 -421.438027)"><use fill="#fff" height="100%" transform="matrix(6.31845878 -44.95817032 44.95817032 6.31845878 900.059711 380.000256)" width="100%" xlink:href="#a"/><use fill="#cc142b" height="100%" transform="matrix(4.17519303 -29.70804206 29.70804206 4.17519303 900.059711 380.000256)" width="100%" xlink:href="#a"/></g><g transform="matrix(.66825 0 0 .66825 -111 36.1)"><use fill="#fff" height="100%" transform="matrix(50.4 0 0 50.4 900 480)" width="100%" xlink:href="#a"/><use fill="#cc142b" height="100%" transform="matrix(35 0 0 35 900 480)" width="100%" xlink:href="#a"/></g><g stroke-width=".5"><path d="m0 0h320v240h-320z" fill="#012169"/><path d="m37.5 0 122 90.5 121.5-90.5h39v31l-120 89.5 120 89v30.5h-40l-120-89.5-119.5 89.5h-40.5v-30l119.5-89-119.5-89v-32z" fill="#fff"/><path d="m212 140.5 108 79.5v20l-135.5-99.5zm-92 10 3 17.5-96 72h-27zm200-150.5v1.5l-124.5 94 1-22 98.5-73.5zm-320 0 119.5 88h-30l-89.5-67z" fill="#c8102e"/><path d="m120.5 0v240h80v-240zm-120.5 80v80h320v-80z" fill="#fff"/><path d="m0 96.5v48h320v-48zm136.5-96.5v240h48v-240z" fill="#c8102e"/></g></svg>