<svg height="480" viewBox="0 0 640 480" width="640" xmlns="http://www.w3.org/2000/svg" xmlns:xlink="http://www.w3.org/1999/xlink"><clipPath id="a"><path d="m0 0h640v480h-640z"/></clipPath><g clip-path="url(#a)"><g fill-rule="evenodd"><path d="m-3.299-21.609h702.27v553.02h-702.27z" fill="#ef2d29"/><path d="m174.57 317.33h535.76v207.56h-535.76z" fill="#009025"/><path d="m174.57-35.415h564.88v190.08h-564.88z" fill="#fff"/></g><g stroke="#ef2d28" stroke-width=".983"><g fill="#fff" fill-rule="evenodd"><g transform="matrix(.19848 0 0 .17744 111.26 -13.444)"><rect height="85.039" rx="11.298" ry="11.851" stroke-width="1.406" width="138.19" x="17.717" y="467.72"/><g stroke-width="1.311"><rect height="77.953" rx="10.719" ry="10.864" width="131.1" x="21.26" y="471.26"/><path d="m64.966 396.07 9.723.443.442 5.745 7.955 5.303 6.187-6.629 7.513 5.303-7.07 5.746 1.767 7.955 8.838-.442v10.607l-7.07-.442-3.536 6.629 7.955 7.513-6.187 6.187-6.63-6.629-9.722 2.652.442 9.723-10.607.884-1.326-9.281-8.839-4.862-4.861 6.629-7.514-4.861 4.42-7.513-5.304-4.862h-7.512l-.442-13.7 7.513.884 5.304-7.955-6.187-6.187 7.955-7.071 5.745 5.745 9.723-1.768 1.326-5.746z" transform="matrix(.68108 0 0 .5852 37.972 260.74)"/><ellipse cx="68.944" cy="426.78" rx="11.049" ry="9.944" transform="matrix(.65819 0 0 .70224 38.845 209.62)"/><path d="m38.976 474.8-10.63 10.63m17.717-10.63-10.63 10.63m17.716-10.63-10.63 10.63m17.717-10.63-10.63 10.63m17.716-10.63-10.63 10.63m17.717-10.63-10.63 10.63m17.717-10.63-10.63 10.63m17.716-10.63-10.63 10.63m17.717-10.63-10.63 10.63m17.716-10.63-10.63 10.63m17.717-10.63-10.63 10.63m17.717-10.63-10.63 10.63m-17.717-10.63-10.63 10.63m46.063-10.63-10.63 10.63m17.717-10.63-10.63 10.63m17.717-10.63-10.63 10.63m17.717-10.63-10.63 10.63m-.002-10.63 10.63 10.63m-17.71-10.63 10.63 10.63m-17.72-10.63 10.63 10.63m-17.72-10.63 10.63 10.63m-17.71-10.63 10.63 10.63m-17.72-10.63 10.63 10.63m-17.72-10.63 10.63 10.63m-17.71-10.63 10.63 10.63m-17.72-10.63 10.63 10.63m-17.72-10.63 10.63 10.63m-17.71-10.63 10.63 10.63m-17.721-10.63 10.63 10.63m17.721-10.63 10.63 10.63m-46.067-10.63 10.63 10.63m-17.717-10.63 10.63 10.63m-17.716-10.63 10.63 10.63m-17.717-10.63 10.63 10.63m-.001 49.606-10.63 10.63m17.717-10.63-10.63 10.63m17.716-10.63-10.63 10.63m17.717-10.63-10.63 10.63m17.716-10.63-10.63 10.63m17.717-10.63-10.63 10.63m17.717-10.63-10.63 10.63m17.716-10.63-10.63 10.63m17.717-10.63-10.63 10.63m17.716-10.63-10.63 10.63m17.717-10.63-10.63 10.63m17.717-10.63-10.63 10.63m-17.717-10.63-10.63 10.63m46.063-10.63-10.63 10.63m17.717-10.63-10.63 10.63m17.717-10.63-10.63 10.63m17.717-10.63-10.63 10.63m-.002-10.63 10.63 10.63m-17.71-10.63 10.63 10.63m-17.72-10.63 10.63 10.63m-17.72-10.63 10.63 10.63m-17.71-10.63 10.63 10.63m-17.72-10.63 10.63 10.63m-17.72-10.63 10.63 10.63m-17.71-10.63 10.63 10.63m-17.72-10.63 10.63 10.63m-17.72-10.63 10.63 10.63m-17.71-10.63 10.63 10.63m-17.721-10.63 10.63 10.63m17.721-10.63 10.63 10.63m-46.067-10.63 10.63 10.63m-17.717-10.63 10.63 10.63m-17.716-10.63 10.63 10.63m-17.717-10.63 10.63 10.63"/></g></g><g transform="matrix(.19848 0 0 .17744 19.131 -14.073)"><rect height="85.039" rx="11.298" ry="11.851" stroke-width="1.406" width="138.19" x="17.717" y="467.72"/><g stroke-width="1.311"><rect height="77.953" rx="10.719" ry="10.864" width="131.1" x="21.26" y="471.26"/><path d="m64.966 396.07 9.723.443.442 5.745 7.955 5.303 6.187-6.629 7.513 5.303-7.07 5.746 1.767 7.955 8.838-.442v10.607l-7.07-.442-3.536 6.629 7.955 7.513-6.187 6.187-6.63-6.629-9.722 2.652.442 9.723-10.607.884-1.326-9.281-8.839-4.862-4.861 6.629-7.514-4.861 4.42-7.513-5.304-4.862h-7.512l-.442-13.7 7.513.884 5.304-7.955-6.187-6.187 7.955-7.071 5.745 5.745 9.723-1.768 1.326-5.746z" transform="matrix(.68108 0 0 .5852 37.972 260.74)"/><ellipse cx="68.944" cy="426.78" rx="11.049" ry="9.944" transform="matrix(.65819 0 0 .70224 38.845 209.62)"/><path d="m38.976 474.8-10.63 10.63m17.717-10.63-10.63 10.63m17.716-10.63-10.63 10.63m17.717-10.63-10.63 10.63m17.716-10.63-10.63 10.63m17.717-10.63-10.63 10.63m17.717-10.63-10.63 10.63m17.716-10.63-10.63 10.63m17.717-10.63-10.63 10.63m17.716-10.63-10.63 10.63m17.717-10.63-10.63 10.63m17.717-10.63-10.63 10.63m-17.717-10.63-10.63 10.63m46.063-10.63-10.63 10.63m17.717-10.63-10.63 10.63m17.717-10.63-10.63 10.63m17.717-10.63-10.63 10.63m-.002-10.63 10.63 10.63m-17.71-10.63 10.63 10.63m-17.72-10.63 10.63 10.63m-17.72-10.63 10.63 10.63m-17.71-10.63 10.63 10.63m-17.72-10.63 10.63 10.63m-17.72-10.63 10.63 10.63m-17.71-10.63 10.63 10.63m-17.72-10.63 10.63 10.63m-17.72-10.63 10.63 10.63m-17.71-10.63 10.63 10.63m-17.721-10.63 10.63 10.63m17.721-10.63 10.63 10.63m-46.067-10.63 10.63 10.63m-17.717-10.63 10.63 10.63m-17.716-10.63 10.63 10.63m-17.717-10.63 10.63 10.63m-.001 49.606-10.63 10.63m17.717-10.63-10.63 10.63m17.716-10.63-10.63 10.63m17.717-10.63-10.63 10.63m17.716-10.63-10.63 10.63m17.717-10.63-10.63 10.63m17.717-10.63-10.63 10.63m17.716-10.63-10.63 10.63m17.717-10.63-10.63 10.63m17.716-10.63-10.63 10.63m17.717-10.63-10.63 10.63m17.717-10.63-10.63 10.63m-17.717-10.63-10.63 10.63m46.063-10.63-10.63 10.63m17.717-10.63-10.63 10.63m17.717-10.63-10.63 10.63m17.717-10.63-10.63 10.63m-.002-10.63 10.63 10.63m-17.71-10.63 10.63 10.63m-17.72-10.63 10.63 10.63m-17.72-10.63 10.63 10.63m-17.71-10.63 10.63 10.63m-17.72-10.63 10.63 10.63m-17.72-10.63 10.63 10.63m-17.71-10.63 10.63 10.63m-17.72-10.63 10.63 10.63m-17.72-10.63 10.63 10.63m-17.71-10.63 10.63 10.63m-17.721-10.63 10.63 10.63m17.721-10.63 10.63 10.63m-46.067-10.63 10.63 10.63m-17.717-10.63 10.63 10.63m-17.716-10.63 10.63 10.63m-17.717-10.63 10.63 10.63"/></g></g><path d="m538.58 531.5c1.717 166.56 24.803 201.97 3.543 201.97s-31.89-92.07-31.89-205.51 14.173-205.51 35.433-205.51-8.913 31.909-7.086 209.06z" stroke-width="1.311" transform="matrix(-.32136 -.12684 -.20158 .20221 345.89 61.391)"/><path d="m545.67 779.53-60.236 17.716c56.693 60.236 120.47 85.039 138.19 74.409 17.717-10.629-31.89-35.433-77.953-92.125z" stroke-width="1.229" transform="matrix(-.19848 0 0 .17744 145.247 -13.446)"/><path d="m547.27 786.9-50.926 14.74c56.693 60.236 112.77 77.385 127.28 70.015 14.591-7.37-30.287-28.063-76.35-84.755z" stroke-width="1.27" transform="matrix(-.19334 0 0 .17062 142.75 -8.126)"/></g><g fill="none"><g stroke-width="1.751"><path d="m353.13 634.23c.187 1.273.748 7.068 1.25 9.375 0 3.186.288 5.632.625 8.125.796 2.177.661 4.198 3.125 5.001 1.694 2.631 2.76 3.313 5 4.375 1.527 1.323 3.84 2.642 6.25 3.75 2.499 1.071 4.771 1.218 7.5.625 2.19-1.526 3.804-3.1 5.625-4.375.429-1.973.822-4.903 1.25-6.875-.674 2.024-1.147 5.265-1.25 8.125.24 3.12 1.265 4.481 2.5 6.875" transform="matrix(-.13978 0 0 .12414 123.027 20.362)"/><path d="m389.38 681.73.625-.625c-1.484 1.484-.878.776 2.5-1.25 2.426-1.246 5.015-1.908 8.125-2.5h8.75c3.405 0 5.696.511 8.125 1.25 1.762 1.762 4.393 2.763 6.25 4.375 1.905 1.295 2.722 2.829 3.75 5 1.701 1.701 2.803 4.326 4.375 5.625.704 2.871 2.141 2.773 3.125 5-2.948.227-5.311.631-6.875 2.5-2.597 1.344 2.179-1.317 3.125-2.5 2.046-.618 2.576-1.25 5.625-1.25 2.85-.904 4.579.737 7.5 1.25 1.705.987 2.178 1.25 4.376 1.25" transform="matrix(-.13978 0 0 .12414 124.863 19.663)"/><path d="m438.13 724.86c1.273.075 7.083 1.146 9.376 0 2.552-.696 4.068-2.04 5.625-4.375.767-1.689 0 2.998 0 5 .283 3.68 1.366 3.714 3.125 6.25 1.814 1.163 3.725 2.8 5.625 3.75 1.576 1.366 3.513 2.28 5.625 3.125 1.896.898 4.111 1.813 5.625 3.125 2.09 1.493 1.888 3.278 3.125 5.625-.235 3.057-.733 4.79-2.5 6.25-.738 2.113-2.395 4.205-3.75 5.625-1.545 2.87-3.256 4.224.625 5 2.132.914 3.327.197 5.625 0" transform="matrix(-.13978 0 0 .12414 126.96 18.19)"/><path d="m480.63 771.73c1.536-.391 6.983-2.213 9.375-3.125h8.75c3.391.261 4.037 1.256 6.876 2.5 1.832 1.871 3.089 3.162 5.625 4.376 1.341 1.733 3.953 4.677 5 6.875.745 2.133 1.25 5.018 1.25 8.125-.044 3.648-1.002 4.271-1.25 7.5-.701 2.684-1.839 5.143-3.75 7.5-.265.793-.457.986-1.25 1.25" transform="matrix(-.13978 0 0 .12414 127.396 17.802)"/></g><path d="m538.13 817.98c.374 0 1.201 2.018 2.5 3.75 2.828 2.906 3.192 3.125 7.5 3.125 3.884-.143 3.522-1.532 6.25-2.5 1.289-2.008 2.896-3.6 4.375-6.25 1.006-1.634 1.89-4.129 3.125-5.625 1.141-1.854 2.563-3.254 3.75-5 1.172-.502 1.618-.984 3.126-1.25-3.6.578-3.915 1.867-6.251 3.75-1.094 1.779-2.181 3.633-3.125 5.625-.361 2.673-1.21 4.779-1.25 8.125 0 3.457.017 5.872 1.25 8.75 1.473 1.545 2.563 3.143 4.375 4.376 1.439 1.405 3.244 3.336 4.376 5 1.96 1.206 3.385 2.189 5.625 3.75 1.884 1.102 3.915 2.234 6.875 2.5 3.67-.262 4.755-1.297 7.5-2.5 2.329-1.713 4.163-2.838 6.25-4.375 1.629-1.141 3.288-3.403 4.375-5 3.382-.846 5.529-.508 7.5 1.25a16.536 16.536 0 0 1 4.375 4.375c1.02.51 2.73 1.99 3.75 2.5" stroke-width="2.339" transform="matrix(-.09924 0 0 .09799 109.457 38.807)"/><path d="m503.76 836.11c-.802.334-3.717 2.367-5 3.125-.8 2.631-2.077 4.069-2.5 6.875-.677 2.709-.625 5.692-.625 8.75.685 3.194 2.015 5.557 3.125 8.125 1.974 1.342 2.967 2.33 5.625 3.75 2.494.337 4.94.625 8.126.625 1.904.635 5.615.942 7.5 0 2.783-.376 4.854-1.507 6.875-2.5 2.306-1.307 3.728-2.542 6.25-3.75 1.225-1.801 3.13-3.46 5-5.625 1.556-2.105 2.7-3.286 3.75-5.625-.924 2.669-2.327 4.999-3.125 7.5-1.422 2.661-2.248 3.604-2.5 6.875-.871 2.613-.625 5.76-.625 8.75.274 2.031.418 5.837 1.25 7.5v1.875" stroke-width="1.878" transform="matrix(-.12338 0 0 .12229 111.375 19.248)"/><path d="m541.26 799.23v.625c0-1.687.041-.83-.625 2.5-1.179 1.462-3.944 1.868-6.25 1.25-2.022-1.67-1.96-2.935-5.625-3.75-3.542.253-4.892 1.279-6.875 2.5-2.354 1.177-3.438 1.771-5 4.375-.776 2.12-1.209 3.555 1.25 4.375 1.954 1.386 4.277 2.149 6.875 2.5 2.887 0 4.968-.339 6.25 1.25 1.983 2.055 1.875 3.277 1.875 6.875.667 1.112.799 4.394 1.25 5.625 1.736.823 2.755 1.25 5.625 1.25.674-1.931 1.423-5.419 1.875-7.5.489-2.248.64-5.379 1.875-6.875a16.58 16.58 0 0 1 4.375-4.375c.766-1.073 2.223-1.965 3.75-2.5-2.452 1.251-2.801 2.603-3.125 5.625 2.155 1.078 2.731 1.833 6.25 1.875 3.459-.291 4.295-1.169 5.625-3.125.242 3.136 1.243 4.186 1.875 6.875 1.286 1.891 1.832 3.828 3.125 6.25-.551 3.012-1.737 3.163-1.875 6.875-.811 2.435-.723 4.783-2.5 6.251-.792.968-1.384 1.158-3.125 1.25 3.618 0 5.727-.391 8.125-1.875 1.854-1.141 3.255-2.563 5.001-3.75 2.212-1.603 4.947-3.085 7.5-3.751 2.887 0 4.968-.339 6.25 1.25 1.77 1.265 2.959 3.447 3.75 6.251.579 3.244.8 5.404-.625 7.5-1.057 2.408-1.297 3.346 0 6.25 1.452 2.033 3.617 2.272 6.875 3.125 2.379-.128 4.668-.671 6.25-1.25" stroke-width="1.229" transform="matrix(-.19848 0 0 .17744 145.247 -13.446)"/></g><g fill-rule="evenodd"><g stroke-width="1.311" transform="matrix(-.19848 0 0 .17744 145.247 -13.446)"><g fill="#fff"><path d="m531.5 359.64c0-165.27 7.937-299.41 17.717-299.41 9.779 0 17.716 134.13 17.716 299.41z" transform="matrix(1.4216 -.73423 .46161 .89375 -716.84 541.07)"/><path d="m531.5 359.64c0-165.27 7.937-299.41 17.717-299.41 9.779 0 17.716 134.13 17.716 299.41" transform="matrix(1.1373 -.58739 .44532 .86221 -554.83 471.77)"/><path d="m563.39 301.18c.189 18.908 0 40.188 0 60.236h-28.347c0-20.048-.189-41.328 0-60.236z" transform="matrix(1.4216 -.73423 .45889 .88849 -716.67 541.39)"/><path d="m559.84 304.72c.189 18.908 0 33.102 0 53.15h-21.26c0-20.048-.189-34.242 0-53.15z" transform="matrix(1.4216 -.73423 .45889 .88849 -716.67 541.39)"/><path d="m542.13 311.81h14.173v38.976h-14.173zm0 0 14.173 38.976m-14.173.004 14.173-38.976m-14.173-198.424h14.173" transform="matrix(1.4216 -.73423 .45889 .88849 -716.67 541.39)"/></g><ellipse cx="545.67" cy="92.126" fill="#ef0000" rx="3.543" ry="3.543" transform="matrix(1.6046 .45375 -.36215 1.5787 -734.9 -170.85)"/></g><g fill="#fff"><path d="m538.58 531.5c1.717 166.56 24.803 201.97 3.543 201.97s-31.89-92.07-31.89-205.51 14.173-205.51 35.433-205.51-8.913 31.909-7.086 209.06z" stroke-width="1.311" transform="matrix(.32136 -.12684 .20158 .20221 -181.512 60.764)"/><path d="m545.67 779.53-60.236 17.716c56.693 60.236 120.47 85.039 138.19 74.409 17.717-10.629-31.89-35.433-77.953-92.125z" stroke-width="1.229" transform="matrix(.19848 0 0 .17744 19.131 -14.073)"/><path d="m547.27 786.9-50.926 14.74c56.693 60.236 112.77 77.385 127.28 70.015 14.591-7.37-30.287-28.063-76.35-84.755z" stroke-width="1.27" transform="matrix(.19334 0 0 .17062 21.629 -8.754)"/></g></g><g fill="none"><g stroke-width="1.751"><path d="m353.13 634.23c.187 1.273.748 7.068 1.25 9.375 0 3.186.288 5.632.625 8.125.796 2.177.661 4.198 3.125 5.001 1.694 2.631 2.76 3.313 5 4.375 1.527 1.323 3.84 2.642 6.25 3.75 2.499 1.071 4.771 1.218 7.5.625 2.19-1.526 3.804-3.1 5.625-4.375.429-1.973.822-4.903 1.25-6.875-.674 2.024-1.147 5.265-1.25 8.125.24 3.12 1.265 4.481 2.5 6.875" transform="matrix(.13978 0 0 .12414 41.35 19.735)"/><path d="m389.38 681.73.625-.625c-1.484 1.484-.878.776 2.5-1.25 2.426-1.246 5.015-1.908 8.125-2.5h8.75c3.405 0 5.696.511 8.125 1.25 1.762 1.762 4.393 2.763 6.25 4.375 1.905 1.295 2.722 2.829 3.75 5 1.701 1.701 2.803 4.326 4.375 5.625.704 2.871 2.141 2.773 3.125 5-2.948.227-5.311.631-6.875 2.5-2.597 1.344 2.179-1.317 3.125-2.5 2.046-.618 2.576-1.25 5.625-1.25 2.85-.904 4.579.737 7.5 1.25 1.705.987 2.178 1.25 4.376 1.25" transform="matrix(.13978 0 0 .12414 39.515 19.036)"/><path d="m438.13 724.86c1.273.075 7.083 1.146 9.376 0 2.552-.696 4.068-2.04 5.625-4.375.767-1.689 0 2.998 0 5 .283 3.68 1.366 3.714 3.125 6.25 1.814 1.163 3.725 2.8 5.625 3.75 1.576 1.366 3.513 2.28 5.625 3.125 1.896.898 4.111 1.813 5.625 3.125 2.09 1.493 1.888 3.278 3.125 5.625-.235 3.057-.733 4.79-2.5 6.25-.738 2.113-2.395 4.205-3.75 5.625-1.545 2.87-3.256 4.224.625 5 2.132.914 3.327.197 5.625 0" transform="matrix(.13978 0 0 .12414 37.419 17.563)"/><path d="m480.63 771.73c1.536-.391 6.983-2.213 9.375-3.125h8.75c3.391.261 4.037 1.256 6.876 2.5 1.832 1.871 3.089 3.162 5.625 4.376 1.341 1.733 3.953 4.677 5 6.875.745 2.133 1.25 5.018 1.25 8.125-.044 3.648-1.002 4.271-1.25 7.5-.701 2.684-1.839 5.143-3.75 7.5-.265.793-.457.986-1.25 1.25" transform="matrix(.13978 0 0 .12414 36.982 17.174)"/></g><path d="m538.13 817.98c.374 0 1.201 2.018 2.5 3.75 2.828 2.906 3.192 3.125 7.5 3.125 3.884-.143 3.522-1.532 6.25-2.5 1.289-2.008 2.896-3.6 4.375-6.25 1.006-1.634 1.89-4.129 3.125-5.625 1.141-1.854 2.563-3.254 3.75-5 1.172-.502 1.618-.984 3.126-1.25-3.6.578-3.915 1.867-6.251 3.75-1.094 1.779-2.181 3.633-3.125 5.625-.361 2.673-1.21 4.779-1.25 8.125 0 3.457.017 5.872 1.25 8.75 1.473 1.545 2.563 3.143 4.375 4.376 1.439 1.405 3.244 3.336 4.376 5 1.96 1.206 3.385 2.189 5.625 3.75 1.884 1.102 3.915 2.234 6.875 2.5 3.67-.262 4.755-1.297 7.5-2.5 2.329-1.713 4.163-2.838 6.25-4.375 1.629-1.141 3.288-3.403 4.375-5 3.382-.846 5.529-.508 7.5 1.25a16.536 16.536 0 0 1 4.375 4.375c1.02.51 2.73 1.99 3.75 2.5" stroke-width="2.339" transform="matrix(.09924 0 0 .09799 54.92 38.18)"/><path d="m503.76 836.11c-.802.334-3.717 2.367-5 3.125-.8 2.631-2.077 4.069-2.5 6.875-.677 2.709-.625 5.692-.625 8.75.685 3.194 2.015 5.557 3.125 8.125 1.974 1.342 2.967 2.33 5.625 3.75 2.494.337 4.94.625 8.126.625 1.904.635 5.615.942 7.5 0 2.783-.376 4.854-1.507 6.875-2.5 2.306-1.307 3.728-2.542 6.25-3.75 1.225-1.801 3.13-3.46 5-5.625 1.556-2.105 2.7-3.286 3.75-5.625-.924 2.669-2.327 4.999-3.125 7.5-1.422 2.661-2.248 3.604-2.5 6.875-.871 2.613-.625 5.76-.625 8.75.274 2.031.418 5.837 1.25 7.5v1.875" stroke-width="1.878" transform="matrix(.12338 0 0 .12229 53.004 18.62)"/><path d="m541.26 799.23v.625c0-1.687.041-.83-.625 2.5-1.179 1.462-3.944 1.868-6.25 1.25-2.022-1.67-1.96-2.935-5.625-3.75-3.542.253-4.892 1.279-6.875 2.5-2.354 1.177-3.438 1.771-5 4.375-.776 2.12-1.209 3.555 1.25 4.375 1.954 1.386 4.277 2.149 6.875 2.5 2.887 0 4.968-.339 6.25 1.25 1.983 2.055 1.875 3.277 1.875 6.875.667 1.112.799 4.394 1.25 5.625 1.736.823 2.755 1.25 5.625 1.25.674-1.931 1.423-5.419 1.875-7.5.489-2.248.64-5.379 1.875-6.875a16.58 16.58 0 0 1 4.375-4.375c.766-1.073 2.223-1.965 3.75-2.5-2.452 1.251-2.801 2.603-3.125 5.625 2.155 1.078 2.731 1.833 6.25 1.875 3.459-.291 4.295-1.169 5.625-3.125.242 3.136 1.243 4.186 1.875 6.875 1.286 1.891 1.832 3.828 3.125 6.25-.551 3.012-1.737 3.163-1.875 6.875-.811 2.435-.723 4.783-2.5 6.251-.792.968-1.384 1.158-3.125 1.25 3.618 0 5.727-.391 8.125-1.875 1.854-1.141 3.255-2.563 5.001-3.75 2.212-1.603 4.947-3.085 7.5-3.751 2.887 0 4.968-.339 6.25 1.25 1.77 1.265 2.959 3.447 3.75 6.251.579 3.244.8 5.404-.625 7.5-1.057 2.408-1.297 3.346 0 6.25 1.452 2.033 3.617 2.272 6.875 3.125 2.379-.128 4.668-.671 6.25-1.25" stroke-width="1.229" transform="matrix(.19848 0 0 .17744 19.131 -14.073)"/></g><g fill-rule="evenodd"><g stroke-width="1.311" transform="matrix(.19848 0 0 .17744 19.131 -14.073)"><g fill="#fff"><path d="m531.5 359.64c0-165.27 7.937-299.41 17.717-299.41 9.779 0 17.716 134.13 17.716 299.41z" transform="matrix(1.4216 -.73423 .46161 .89375 -716.84 541.07)"/><path d="m531.5 359.64c0-165.27 7.937-299.41 17.717-299.41 9.779 0 17.716 134.13 17.716 299.41" transform="matrix(1.1373 -.58739 .44532 .86221 -554.83 471.77)"/><path d="m563.39 301.18c.189 18.908 0 40.188 0 60.236h-28.347c0-20.048-.189-41.328 0-60.236z" transform="matrix(1.4216 -.73423 .45889 .88849 -716.67 541.39)"/><path d="m559.84 304.72c.189 18.908 0 33.102 0 53.15h-21.26c0-20.048-.189-34.242 0-53.15z" transform="matrix(1.4216 -.73423 .45889 .88849 -716.67 541.39)"/><path d="m542.13 311.81h14.173v38.976h-14.173zm0 0 14.173 38.976m-14.173.004 14.173-38.976m-14.173-198.424h14.173" transform="matrix(1.4216 -.73423 .45889 .88849 -716.67 541.39)"/></g><ellipse cx="545.67" cy="92.126" fill="#ef0000" rx="3.543" ry="3.543" transform="matrix(1.6046 .45375 -.36215 1.5787 -734.9 -170.85)"/></g><g fill="#fff"><g transform="matrix(.19848 0 0 .17744 19.131 -14.073)"><g stroke-width="1.311"><path d="m305.61 396.85c0 124.02.491 170.76-5.62 177.17-5.79 6.857-167.12 0-167.12 35.433s132.87 70.867 172.74 70.866c53.149 0 79.723-35.433 79.723-106.3v-177.17h-79.723z" transform="matrix(1.3333 0 0 1 -141.74 0)"/><path d="m265.75 396.85v17.717c35.433 5.906 70.866 5.906 106.3 0v-17.717c-35.433 5.906-70.866 5.906-106.3 0z" transform="matrix(1 0 0 .99999 0 35.437)"/><path d="m265.75 396.85v17.717c35.433 5.906 70.866 5.906 106.3 0v-17.717c-35.433 5.906-70.866 5.906-106.3 0z" transform="matrix(1 0 0 .99999 0 .004)"/><path d="m265.75 396.85v17.717c35.433 5.906 70.866 5.906 106.3 0v-17.717c-35.433 5.906-70.866 5.906-106.3 0z" transform="matrix(1 0 0 .99999 0 17.721)"/><path d="m265.75 396.85v17.717c35.433 5.906 70.866 5.906 106.3 0v-17.717c-35.433 5.906-70.866 5.906-106.3 0z" transform="matrix(1 0 0 .99999 0 53.154)"/></g><g stroke-width="4.388"><ellipse cx="256.89" cy="210.83" rx="8.858" ry="26.575" transform="matrix(.54545 0 0 .14383 130.46 394.32)"/><ellipse cx="292.32" cy="246.26" rx="8.858" ry="26.575" transform="matrix(.54545 0 0 .14383 130.46 391.13)"/><ellipse cx="327.76" cy="263.98" rx="8.858" ry="26.575" transform="matrix(.54545 0 0 .14383 130.46 390.49)"/><ellipse cx="363.19" cy="263.98" rx="8.858" ry="26.575" transform="matrix(.54545 0 0 .14383 130.46 390.49)"/><ellipse cx="398.62" cy="246.26" rx="8.858" ry="26.575" transform="matrix(.54545 0 0 .14383 130.46 391.13)"/><ellipse cx="434.06" cy="210.83" rx="8.858" ry="26.575" transform="matrix(.54545 0 0 .14383 130.46 394.32)"/></g><g stroke-width="1.311"><path d="m265.75 485.43 106.3 95.669m-95.67-95.669 95.669 85.039m-81.499-81.489 81.496 70.866m-70.866-70.866 70.866 60.237m-60.236-60.237 60.236 49.607m-49.606-49.607 49.606 38.977m-38.976-38.977 38.976 28.347m-28.346-28.347 28.346 21.26m-17.716-21.26 17.716 14.174m-7.086-14.174 7.086 7.087m-106.296-.007 106.3 95.669m0-106.299-116.93 106.3m106.3-106.3-102.76 92.126m88.59-88.576-81.496 70.866m70.866-70.866-70.866 60.237m60.236-60.237-60.236 49.607m49.606-49.607-49.606 38.977m38.976-38.977-38.976 28.347m28.346-28.347-28.346 21.26m17.716-21.26-17.716 14.174m7.086-14.174-7.086 7.087m106.296-.007-116.93 106.3m116.93-95.67-116.93 106.3m116.93-95.67-116.93 106.3m116.93-95.67-116.93 106.3m116.93-95.67-116.93 106.3m116.93-95.67-116.93 106.3m116.93-95.67-116.93 106.3m116.93-95.67-116.93 106.3m116.93-95.67-109.84 99.21m109.84-88.58-99.212 88.583m95.662-74.413-77.953 70.866m74.413-56.686-63.779 56.693m56.689-38.983-31.89 28.346m-60.23-159.446 102.76 92.126m-102.763-81.489 102.76 92.126m-102.76-81.496 99.213 88.583m-99.213-77.953 99.213 88.583m-99.207-77.957 95.67 85.039m-99.219-77.949 95.669 85.04m-95.669-74.41 88.583 77.953m-92.124-70.873 88.583 77.953m-92.132-70.863 85.04 74.409m-85.041-63.782 81.496 70.865m-81.496-60.235 70.866 63.779"/><path d="m265.75 396.85v17.717c35.433 5.906 70.866 5.906 106.3 0v-17.717c-35.433 5.906-70.866 5.906-106.3 0z" transform="matrix(1 0 0 .99999 0 70.87)"/><path d="m255.114 612.99 63.78 56.692m-63.78-46.062 56.693 49.606m-56.694-38.976 49.606 42.519m-49.605-31.889 35.434 31.889m-35.434-21.259 28.347 24.804m-28.348-14.174 17.716 14.173"/></g><g stroke-width="4.388"><ellipse cx="256.89" cy="210.83" rx="8.858" ry="26.575" transform="matrix(.54545 0 0 .14383 130.46 447.47)"/><ellipse cx="292.32" cy="246.26" rx="8.858" ry="26.575" transform="matrix(.54545 0 0 .14383 130.46 444.28)"/><ellipse cx="327.76" cy="263.98" rx="8.858" ry="26.575" transform="matrix(.54545 0 0 .14383 130.46 443.64)"/><ellipse cx="363.19" cy="263.98" rx="8.858" ry="26.575" transform="matrix(.54545 0 0 .14383 130.46 443.64)"/><ellipse cx="398.62" cy="246.26" rx="8.858" ry="26.575" transform="matrix(.54545 0 0 .14383 130.46 444.28)"/><ellipse cx="434.06" cy="210.83" rx="8.858" ry="26.575" transform="matrix(.54545 0 0 .14383 130.46 447.47)"/></g><g stroke-width="1.311"><path d="m113.39 651.97 127.55-74.41m-134.637 70.867 120.47-70.87m-124.013 63.784 109.84-63.78m-113.383 56.693 95.669-56.693m-102.759 49.599 88.583-49.606m-85.043 38.983 60.236-35.433m-63.776 28.35 46.063-28.346m-46.066 17.709 31.89-17.717m-.001 74.407 120.47-70.86m-109.836 74.407 113.38-67.32m-102.747 70.866 106.3-63.78m-95.67 67.324 88.583-53.15m-74.41 53.142 77.952-46.063m-67.322 49.607 67.323-38.976m-56.7 42.523 53.15-31.89m-38.976 31.896 42.52-24.803m-28.35 28.347 28.347-17.717m-14.164 17.713 17.717-10.63"/><path d="m265.75 396.85v17.717c35.433 5.906 70.866 5.906 106.3 0v-17.717c-35.433 5.906-70.866 5.906-106.3 0z" transform="matrix(0 1 -.99999 0 655.51 308.27)"/><path d="m49.61 623.624 42.52-35.433m-42.52 10.609 42.52 42.52"/><path d="m260.15 387.99 5.595 26.575c35.433 5.906 65.271 5.906 100.7 0l11.19-26.575c-35.433 5.906-82.056 5.906-117.49 0z" transform="matrix(0 .63333 -.8 0 423.78 416.34)"/><path d="m258.66 350.79v-17.865c-10.63.149-17.716-10.481-17.717-21.26l-35.432.149c0 10.63-7.087 21.26-17.717 21.26v17.716z" transform="matrix(1.4983 0 0 1 -15.633 53.149)"/></g><path d="m296.09 343.7h45.506v21.26h-45.506zm3.79-21.26h37.922v21.26h-37.922zm0-21.26h37.922v21.26h-37.922zm3.79-28.35h30.337v28.346h-30.337z" stroke-width="1.356"/><path d="m302.36 248.03h32.953v24.803h-32.953z" stroke-width="1.413"/><g stroke-width="1.311"><ellipse cx="237.4" cy="161.22" rx="42.52" ry="33.661" transform="matrix(1.0333 0 0 1 75.354 63.779)"/><path d="m258.66 159.45c0 9.291 10.63 24.803 10.63 24.803-7.696 6.093-20.154 10.63-31.889 10.63s-26.349-2.528-31.89-10.63c0 0 10.63-15.512 10.63-24.803s-10.63-21.26-10.63-21.26c7.696-6.093 20.154-10.63 31.89-10.63 11.735 0 24.193 4.537 31.889 10.63 0 0-10.63 11.969-10.63 21.26z" transform="matrix(1.0333 0 0 1 75.354 63.779)"/><path d="m251.58 159.45c0 9.291 10.63 28.346 10.63 28.346-7.696 6.093-13.068 7.087-24.803 7.087s-19.262 1.015-24.803-7.087c0 0 10.63-19.055 10.63-28.346s-10.63-24.803-10.63-24.803c7.696-6.093 13.067-7.087 24.803-7.087 11.735 0 17.107.994 24.803 7.087 0 0-10.63 15.512-10.63 24.803z" transform="matrix(1.0333 0 0 1 75.354 63.779)"/><ellipse cx="194.88" cy="166.54" rx="10.63" ry="10.63" transform="matrix(1.0333 0 0 1 75.354 60.236)"/><ellipse cx="194.88" cy="166.54" rx="10.63" ry="10.63" transform="matrix(1.0333 0 0 1 163.23 60.236)"/><ellipse cx="194.88" cy="166.54" rx="10.63" ry="10.63" transform="matrix(1.0333 0 0 1 119.29 60.236)"/><ellipse cx="194.88" cy="166.54" rx="10.63" ry="10.63" transform="matrix(1.0333 0 0 1 119.29 24.803)"/><ellipse cx="194.88" cy="166.54" rx="10.63" ry="10.63" transform="matrix(1.0702 0 0 1 79.931 226.77)"/><ellipse cx="194.88" cy="166.54" rx="10.63" ry="10.63" transform="matrix(1.0702 0 0 1 140.61 226.77)"/><path d="m212.6 311.81h49.607l-24.803 31.89z" transform="matrix(1.0702 0 0 1 64.762 53.149)"/><ellipse cx="194.88" cy="166.54" rx="10.63" ry="10.63" transform="matrix(1.427 0 0 1.3333 40.745 167.72)"/></g></g><g transform="matrix(.19848 0 0 .17744 18.78 -19.095)"><g stroke-width="1.229"><rect height="21.26" rx="4.349" ry="3.687" width="81.496" x="262.2" y="524.41"/><path d="m368.51 506.69c-9.814 0-17.716 8.259-17.716 18.519v16.111c0 10.26 7.902 18.52 17.716 18.52 9.815 0 17.717-8.26 17.717-18.52v-16.111c0-10.26-7.902-18.519-17.717-18.519zm0 7.087c-5.888 0-10.63 6.608-10.63 14.816v9.345c0 8.208 4.742 14.816 10.63 14.816 5.889 0 10.63-6.608 10.63-14.816v-9.345c0-8.208-4.741-14.816-10.63-14.816zm-92.13-3.537c-5.888 0-10.63 6.608-10.63 14.816v16.432c0 8.208 4.742 14.816 10.63 14.816 5.889 0 10.63-6.608 10.63-14.816v-16.432c0-8.208-4.741-14.816-10.63-14.816zm0-7.087c-9.814 0-17.716 8.259-17.716 18.519v23.198c0 10.26 7.902 18.52 17.716 18.52 9.815 0 17.717-8.26 17.717-18.52v-23.198c0-10.26-7.902-18.519-17.717-18.519z"/><path d="m248.03 517.32c-5.888 0-10.63 6.608-10.63 14.816l-.001 3.864c0 8.208 4.742 14.816 10.63 14.816 5.889 0 10.63-6.608 10.63-14.816l.001-3.864c0-8.208-4.741-14.816-10.63-14.816zm0-7.087c-9.814 0-17.716 8.259-17.716 18.519l-.001 10.63c0 10.26 7.902 18.52 17.716 18.52 9.815 0 17.717-8.26 17.717-18.52l.001-10.63c0-10.26-7.902-18.519-17.717-18.519z"/></g><path d="m478.35 237.4c-5.888 0-10.63 6.608-10.63 14.816v16.432c0 8.208 4.742 14.816 10.63 14.816 5.889 0 10.63-6.608 10.63-14.816v-16.432c0-8.208-4.741-14.816-10.63-14.816zm0-7.087c-9.814 0-17.716 8.259-17.716 18.519v23.198c0 10.26 7.902 18.52 17.716 18.52 9.815 0 17.717-8.26 17.717-18.52v-23.198c0-10.26-7.902-18.519-17.717-18.519z" stroke-width=".867" transform="matrix(1.8 0 0 1.1176 -655.51 242.2)"/><path d="m478.35 237.4c-5.888 0-10.63 6.608-10.63 14.816v16.432c0 8.208 4.742 14.816 10.63 14.816 5.889 0 10.63-6.608 10.63-14.816v-16.432c0-8.208-4.741-14.816-10.63-14.816zm0-7.087c-9.814 0-17.716 8.259-17.716 18.519v23.198c0 10.26 7.902 18.52 17.716 18.52 9.815 0 17.717-8.26 17.717-18.52v-23.198c0-10.26-7.902-18.519-17.717-18.519z" stroke-width=".867" transform="matrix(1.8 0 0 1.1176 -425.2 245.74)"/><g stroke-width="1.229"><rect height="21.26" rx="2.269" ry="3.687" width="42.52" x="375.59" y="524.41"/><rect height="28.346" rx="1.324" ry="4.916" width="24.803" x="336.61" y="520.87"/><rect height="28.346" rx="1.324" ry="4.916" width="24.803" x="219.69" y="520.87"/><rect height="35.433" rx="2.647" ry="6.145" width="49.606" x="141.73" y="517.32"/><rect height="35.433" rx="2.458" ry="6.145" width="46.063" x="450" y="520.87"/></g></g></g></g></g></g></svg>