<svg height="480" viewBox="0 0 640 480" width="640" xmlns="http://www.w3.org/2000/svg" xmlns:xlink="http://www.w3.org/1999/xlink"><clipPath id="a"><path d="m0 0h640v480h-640z"/></clipPath><g clip-path="url(#a)"><path d="m0 0h640v480h-640z" fill="#fff"/><g fill-rule="evenodd"><path d="m92.462 0h477.19v480h-477.19z" fill="#fff"/><path d="m323.07 3.655h358v221.68h-358z" fill="#db0000"/><path d="m3.227 225.33h319.87v254.66h-319.87zm211.573-47.68-41.959-29.326-41.754 29.614 15.529-48.124-41.677-29.716 51.562-.414 15.993-47.978 16.335 47.867 51.562.063-41.463 29.996 15.872 48.017z" fill="#0000ab"/><path d="m516.85 413.89-42.354-27.744-42.146 28.017 15.675-45.529-42.069-28.114 52.047-.392 16.143-45.391 16.489 45.286 52.047.06-41.853 28.379z" fill="#d80000"/></g></g></svg>