<svg viewBox="0 0 640 480" xmlns="http://www.w3.org/2000/svg" xmlns:xlink="http://www.w3.org/1999/xlink"><clipPath id="a"><path d="m0 0h640v480h-640z"/></clipPath><g clip-path="url(#a)"><path d="m0 0h640v480h-640z" fill="#fff"/><g fill-rule="evenodd"><path d="m92.5 0h477.2v480h-477.3z" fill="#fff"/><path d="m323 3.6h358v221.7h-358z" fill="#db0000"/><path d="m3.2 225.3h319.9v254.7h-319.9zm211.6-47.6-42-29.4-41.7 29.6 15.5-48-41.6-29.9 51.6-.4 16-48 16.3 47.9h51.6l-41.5 30 15.9 48z" fill="#0000ab"/><path d="m516.9 413.9-42.4-27.7-42.1 28 15.6-45.6-42-28 52-.5 16.2-45.4 16.4 45.3h52l-41.8 28.5 16 45.4z" fill="#d80000"/></g></g></svg>