<svg height="480" viewBox="0 0 640 480" width="640" xmlns="http://www.w3.org/2000/svg" xmlns:xlink="http://www.w3.org/1999/xlink"><path d="m0 0h640v240h-640z" fill="#0038a8"/><path d="m0 240h640v240h-640z" fill="#ce1126"/><path d="m415.692 240-415.692 240v-480" fill="#fff"/><g fill="#fcd116" transform="matrix(5.33333 0 0 5.33333 149.333 240)"><circle r="9"/><g id="a"><g id="b"><g id="c"><path d="m-1 0 .062.062.938-.062-.938-.062z" transform="scale(19)"/><path id="d" d="m-.884.116.05.05.834-.166z" transform="scale(19.2381)"/><use height="100%" transform="scale(1 -1)" width="100%" xlink:href="#d"/></g><use height="100%" transform="matrix(.70710678 .70710678 -.70710678 .70710678 0 0)" width="100%" xlink:href="#c"/></g><use height="100%" transform="rotate(90)" width="100%" xlink:href="#b"/></g><use height="100%" transform="scale(-1)" width="100%" xlink:href="#a"/><g transform="translate(-2.02)"><g id="e" transform="translate(37.962)"><path id="f" d="m5 0-3.382 1.176-.073 3.58-2.163-2.854-3.427 1.037 2.045-2.939z"/><use height="100%" transform="scale(1 -1)" width="100%" xlink:href="#f"/></g><use height="100%" transform="matrix(-.5 .8660254 -.8660254 -.5 0 0)" width="100%" xlink:href="#e"/><use height="100%" transform="matrix(-.5 -.8660254 .8660254 -.5 0 0)" width="100%" xlink:href="#e"/></g></g></svg>