<svg viewBox="0 0 640 480" xmlns="http://www.w3.org/2000/svg" xmlns:xlink="http://www.w3.org/1999/xlink"><clipPath id="a"><path d="m-52.3 0h682.6v512h-682.6z"/></clipPath><g clip-path="url(#a)" fill-rule="evenodd" stroke-width="1pt" transform="matrix(.9375 0 0 .9375 49 0)"><path d="m-95 0h768v512h-768z" fill="#0c590b"/><g fill="#fff"><path d="m-95 0h192.5v512h-192.5z"/><g><path d="m403.7 225.4-31.2-6.6-16.4 27.3-3.4-31.6-31-7.2 29-13-2.7-31.7 21.4 23.6 29.3-12.4-15.9 27.6 21 24z"/><path d="m415.4 306a121.2 121.2 0 0 1 -161.3 59.4 122.1 122.1 0 0 1 -59.5-162.1 118.6 118.6 0 0 1 71.4-64.3 156.2 156.2 0 0 0 -11.8 10.9 112.3 112.3 0 0 0 161.3 156.1z"/></g></g></g></svg>