<svg viewBox="0 0 640 480" xmlns="http://www.w3.org/2000/svg" xmlns:xlink="http://www.w3.org/1999/xlink"><clipPath id="a"><path d="m0 0h682.7v512h-682.7z"/></clipPath><g clip-path="url(#a)" fill-rule="evenodd" stroke-width="1pt" transform="scale(.9375)"><path d="m0 507.2 987.4-507.2h-987.4z" fill="#0000d6"/><path d="m1024 0-996.8 512h996.8z" fill="#006000"/><path d="m1024 0h-54.9l-969.1 485.4v26.6h54.9l969.1-484.4z" fill="#fc0"/><path d="m71.4 9.1 11.8 34.5h38.5l-31.1 21.1 11.9 34.4-31.1-21.1-31.1 21.2 11.9-34.4-31.1-21.3h38.4zm191.1 0 11.9 34.5h38.5l-31.2 21.2 12 34.4-31.3-21.2-31 21.3 11.9-34.4-31.2-21.3h38.5zm0 144.5 11.9 34.5h38.5l-31.2 21.2 12 34.4-31.2-21.3-31 21.3 11.9-34.4-31.2-21.3h38.5zm-95-71.4 11.9 34.4h38.4l-31 21.3 11.8 34.4-31-21.3-31.2 21.3 12-34.4-31.2-21.3h38.5zm-96.1 71.4 11.8 34.5h38.5l-31.1 21.2 11.9 34.4-31.1-21.3-31.1 21.3 12-34.4-31.3-21.3h38.4z" fill="#fff"/></g></svg>