<svg height="480" viewBox="0 0 640 480" width="640" xmlns="http://www.w3.org/2000/svg" xmlns:xlink="http://www.w3.org/1999/xlink"><clipPath id="a"><path d="m0 0h682.67v512h-682.67z"/></clipPath><g clip-path="url(#a)" fill-rule="evenodd" stroke-width="1pt" transform="scale(.9375)"><path d="m0 507.17 987.43-507.17h-987.43z" fill="#0000d6"/><path d="m1024 0-996.83 512h996.83z" fill="#006000"/><path d="m1024 0h-54.858l-969.14 485.36v26.64h54.857l969.14-484.4v-27.596z" fill="#fc0"/><path d="m71.397 9.124 11.857 34.442 38.47-.026-31.143 21.254 11.916 34.426-31.105-21.305-31.106 21.3 11.922-34.421-31.138-21.264 38.47.036zm191.143 0 11.856 34.442 38.47-.026-31.143 21.254 11.916 34.426-31.105-21.305-31.106 21.3 11.922-34.421-31.138-21.264 38.47.036zm0 144.479 11.856 34.442 38.47-.026-31.143 21.254 11.916 34.426-31.105-21.305-31.106 21.3 11.922-34.421-31.138-21.264 38.47.036zm-95.013-71.397 11.857 34.442 38.47-.026-31.143 21.254 11.916 34.426-31.105-21.305-31.106 21.3 11.922-34.421-31.138-21.264 38.47.036zm-96.13 71.397 11.857 34.442 38.47-.026-31.143 21.254 11.916 34.426-31.105-21.305-31.106 21.3 11.922-34.421-31.138-21.264 38.47.036z" fill="#fff"/></g></svg>