<svg viewBox="0 0 640 480" xmlns="http://www.w3.org/2000/svg" xmlns:xlink="http://www.w3.org/1999/xlink"><clipPath id="a"><path d="m0 0h640v480h-640z"/></clipPath><g clip-path="url(#a)" fill-rule="evenodd"><path d="m-20 0h720v480h-720z" fill="#fff"/><path d="m-20 0h720v240h-720z" fill="#df0000"/><g fill="#fff"><path d="m146 40.2a84.4 84.4 0 0 0 .8 165.2 86 86 0 0 1 -106.6-59 86 86 0 0 1 59-106c16-4.6 30.8-4.7 46.9-.2z"/><path d="m133 110 4.9 15-13-9.2-12.8 9.4 4.7-15.2-12.8-9.3 15.9-.2 5-15 5 15h15.8zm17.5 52 5 15.1-13-9.2-12.9 9.3 4.8-15.1-12.8-9.4 15.9-.1 4.9-15.1 5 15h16zm58.5-.4 4.9 15.2-13-9.3-12.8 9.3 4.7-15.1-12.8-9.3 15.9-.2 5-15 5 15h15.8zm17.4-51.6 4.9 15.1-13-9.2-12.8 9.3 4.8-15.1-12.9-9.4 16-.1 4.8-15.1 5 15h16zm-46.3-34.3 5 15.2-13-9.3-12.9 9.4 4.8-15.2-12.8-9.4 15.8-.1 5-15.1 5 15h16z"/></g></g></svg>