<svg height="480" viewBox="0 0 640 480" width="640" xmlns="http://www.w3.org/2000/svg" xmlns:xlink="http://www.w3.org/1999/xlink"><clipPath id="a"><path d="m0 0h640v480h-640z"/></clipPath><g clip-path="url(#a)" fill-rule="evenodd"><path d="m-20 0h720v480h-720z" fill="#fff"/><path d="m-20 0h720v240h-720z" fill="#df0000"/><g fill="#fff"><path d="m146.05 40.227c-33.243 7.622-57.944 32.237-64.927 65.701-9.488 45.469 20.124 89.99 65.687 99.488-46.031 13.125-93.59-13.332-106.594-58.932-12.996-45.6 13.46-93.16 59.063-106.162 16.007-4.565 30.745-4.594 46.773-.095z"/><path d="m132.98 109.953 4.894 15.119-12.932-9.23-12.87 9.317 4.783-15.144-12.833-9.354 15.876-.137 4.932-15.106 5.031 15.069 15.889.025zm17.559 52.059 4.894 15.119-12.932-9.23-12.87 9.317 4.783-15.143-12.833-9.355 15.877-.137 4.931-15.106 5.032 15.07 15.888.024zm58.425-.375 4.894 15.119-12.932-9.23-12.87 9.317 4.783-15.143-12.833-9.355 15.877-.137 4.931-15.106 5.032 15.07 15.888.024zm17.428-51.637 4.894 15.118-12.932-9.23-12.87 9.317 4.783-15.143-12.833-9.354 15.877-.137 4.932-15.106 5.03 15.069 15.89.025zm-46.256-34.256 4.894 15.118-12.932-9.23-12.87 9.317 4.783-15.143-12.833-9.355 15.876-.136 4.932-15.106 5.032 15.068 15.888.025z"/></g></g></svg>