<svg viewBox="0 0 640 480" xmlns="http://www.w3.org/2000/svg" xmlns:xlink="http://www.w3.org/1999/xlink"><clipPath id="a"><path d="m-15 0h682.6v512h-682.7z"/></clipPath><g clip-path="url(#a)" fill-rule="evenodd" stroke-width="1pt" transform="matrix(.9375 0 0 .9375 14.1 0)"><path d="m-62 0h1024v512h-1024z" fill="#fff"/><path d="m-62 341.3h1024v170.7h-1024z" fill="#d50000"/><path d="m-62 170.7h1024v170.6h-1024z" fill="#0000bf"/><path d="m228.4 93c-4 61.6-6.4 95.4-15.7 111-10.2 16.8-20 29.1-59.7 44-39.6-14.9-49.4-27.2-59.6-44-9.4-15.6-11.7-49.4-15.7-111l5.8-2c11.8-3.6 20.6-6.5 27.1-7.8 9.3-2 17.3-4.2 42.3-4.7 25 .4 33 2.8 42.3 4.8 6.4 1.4 15.6 4 27.3 7.7z" fill="#d50000"/><path d="m222.6 91c-3.8 61.5-7 89.7-12 103.2-9.6 23.2-24.8 35.9-57.6 48-32.8-12.1-48-24.8-57.7-48-5-13.6-8-41.7-11.8-103.3 11.6-3.6 20.6-6.4 27.1-7.7 9.3-2 17.3-4.3 42.3-4.7 25 .4 33 2.7 42.3 4.7a284 284 0 0 1 27.4 7.7z" fill="#0000bf"/><path d="m153 109.8 1.5 3.7 7 1-4.5 2.7 4.3 2.9-6.3 1-2 3.4-2-3.5-6-.8 4-3-4.2-2.7 6.7-1z" fill="#ffdf00"/><path d="m208.3 179.6-3.9-3-2.7-4.6-5.4-4.7-2.9-4.7-5.4-4.9-2.6-4.7-3-2.3-1.8-1.9-5 4.3-2.6 4.7-3.3 3-3.7-2.9-2.7-4.8-10.3-18.3-10.3 18.3-2.7 4.8-3.7 2.9-3.3-3-2.7-4.7-4.9-4.3-1.9 1.8-2.9 2.4-2.6 4.7-5.4 4.9-2.9 4.7-5.4 4.7-2.7 4.6-3.9 3a65.8 65.8 0 0 0 18.6 36.3 107 107 0 0 0 36.6 20.5 104.1 104.1 0 0 0 36.8-20.5c5.8-6 16.6-19.3 18.6-36.3z" fill="#fff"/><path d="m169.4 83.9 1.6 3.7 7 1-4.6 2.7 4.4 2.9-6.3 1-2 3.4-2-3.5-6-.8 4-3-4.2-2.7 6.6-1 1.6-3.7zm-33 0 1.6 3.7 7 .9-4.5 2.7 4.3 2.9-6.3 1-2 3.4-2-3.4-6-.9 4-3-4.2-2.7 6.7-1 1.5-3.7z" fill="#ffdf00"/><path d="m199.7 203h-7.4l-7-.5-8.3-4h-9.4l-8.1 4-6.5.6-6.4-.6-8.1-4h-9.5l-8.4 4-6.9.6-7.6-.1-3.6-6.2.1-.2 11.2 1.9 6.9-.5 8.3-4.1h9.4l8.2 4 6.4.6 6.5-.6 8.1-4h9.4l8.4 4 6.9.6 10.8-2 .2.4-3.7 6.1zm-86.4 9.5 7.4-.5 8.3-4h9.4l8.2 4 6.4.5 6.4-.5 8.2-4h9.4l8.3 4 7.5.5 4.8-6h-.1l-5.2 1.4-6.9-.5-8.3-4h-9.4l-8.2 4-6.4.6-6.5-.6-8.1-4h-9.5l-8.4 4-6.9.6-5-1.3v.2l4.5 5.6z" fill="#0000bf"/></g></svg>