<svg viewBox="0 0 640 480" xmlns="http://www.w3.org/2000/svg" xmlns:xlink="http://www.w3.org/1999/xlink"><path d="m0 0h640v480h-640z" fill="#12ad2b"/><path d="m0 137.1h640v205.9h-640z" fill="#ffce00"/><path d="m0 0v480l240-240" fill="#d21034"/><g id="a" transform="matrix(.34286 0 0 .34286 351.6 240)"><g id="b"><path id="c" d="m0-200v200h100" transform="matrix(.95105652 .30901699 -.30901699 .95105652 -61.803399 -9.788697)"/><use height="100%" transform="scale(-1 1)" width="100%" xlink:href="#c"/></g><use height="100%" transform="matrix(.30901699 .95105652 -.95105652 .30901699 0 0)" width="100%" xlink:href="#b"/><use height="100%" transform="matrix(-.80901699 .58778525 -.58778525 -.80901699 0 0)" width="100%" xlink:href="#b"/><use height="100%" transform="matrix(-.80901699 -.58778525 .58778525 -.80901699 0 0)" width="100%" xlink:href="#b"/><use height="100%" transform="matrix(.30901699 -.95105652 .95105652 .30901699 0 0)" width="100%" xlink:href="#b"/></g><use height="100%" transform="translate(-523.2)" width="100%" x="700" xlink:href="#a"/></svg>