<svg height="480" viewBox="0 0 640 480" width="640" xmlns="http://www.w3.org/2000/svg" xmlns:xlink="http://www.w3.org/1999/xlink"><clipPath id="a"><path d="m0 0h682.67v512h-682.67z"/></clipPath><g clip-path="url(#a)" fill-rule="evenodd" transform="scale(.9375)"><path d="m0 0h767.63v512h-767.63z" fill="#ffe300"/><path d="m0 208.14h767.63v102.81h-767.63zm0-207.892h767.63v102.81h-767.63z" fill="#118600"/><path d="m0 .248h306.51v310.71h-306.51z" fill="#d80000"/><path d="m134.42 128.43c0-.856 18.836-53.083 18.836-53.083l17.124 52.227s57.365 1.713 57.365.856-45.378 34.248-45.378 34.248 21.404 59.933 20.549 58.221c-.856-1.712-49.659-35.96-49.659-35.96s-49.658 34.248-48.802 34.248 18.835-56.508 18.835-56.508l-44.522-33.392 55.652-.856z" fill="#fff"/><path d="m0 409.19h767.63v102.81h-767.63z" fill="#118600"/></g></svg>