<svg viewBox="0 0 640 480" xmlns="http://www.w3.org/2000/svg" xmlns:xlink="http://www.w3.org/1999/xlink"><path d="m0 0h640v480h-640z" fill="#060"/><path d="m0 0h640v342.9h-640z" fill="#fff"/><path d="m0 0h640v137.1h-640z" fill="#c00"/><path d="m300.8 233.6a8.6 8.6 0 0 1 16 4v34.4h6.4v-34.3a8.6 8.6 0 0 1 16-4 20.2 20.2 0 1 0 -38.4 0" fill="#f8c300"/><path d="m305.4 224.7a13.7 13.7 0 0 1 14.6 6.5 13.7 13.7 0 0 1 14.6-6.5 14.7 14.7 0 0 0 -29.2 0" fill="#fff"/><path id="a" d="m316.8 258.3a26 26 0 0 1 -43.8 16.6 27 27 0 0 1 -41 12c2.5 25 40 19.9 42.8-4.4 11.7 20.7 37.6 14.7 45.2-10.6z" fill="#f8c300"/><use fill="#f8c300" height="100%" transform="matrix(-1 0 0 1 640 0)" width="100%" xlink:href="#a"/><path id="b" d="m291.8 302.6c-5.3 11.3-15.7 13.2-24.8 4.1 0 0 3.6-2.6 7.6-3.3-.8-3.1.7-7.5 2.9-9.8a15 15 0 0 1 6.1 8.1c5.5-.7 8.2 1 8.2 1z" fill="#f8c300"/><use fill="#f8c300" height="100%" transform="matrix(.98657216 .16332596 -.16332596 .98657216 94.338511 -44.861541)" width="100%" xlink:href="#b"/><use fill="#f8c300" height="100%" transform="matrix(.94721028 .32061299 -.32061299 .94721028 193.646653 -73.493183)" width="100%" xlink:href="#b"/><path d="m253.5 327.8a233.1 233.1 0 0 1 133 0" fill="none" stroke="#f8c300" stroke-width="11"/><g fill="#f8c300" transform="matrix(.68571 0 0 .68571 320 164.6)"><path id="c" d="m301930 415571-790463-574305h977066l-790463 574305 301930-929245z" transform="scale(.00005)"/></g><g id="d" fill="#f8c300" transform="matrix(.68571 0 0 .68571 320 260.6)"><use height="100%" transform="translate(-70 -121.2)" width="100%" xlink:href="#c"/><use height="100%" transform="translate(-121.2 -70)" width="100%" xlink:href="#c"/><use height="100%" transform="translate(-140)" width="100%" xlink:href="#c"/></g><use fill="#f8c300" height="100%" transform="matrix(-1 0 0 1 640 0)" width="100%" xlink:href="#d"/></svg>