<svg height="480" viewBox="0 0 640 480" width="640" xmlns="http://www.w3.org/2000/svg"><g fill-rule="evenodd"><path d="m0 0h640v480h-640z" fill="#f31930"/><path d="m406.977 247.473c0 66.215-54.606 119.89-121.97 119.89s-121.967-53.677-121.967-119.891 54.606-119.89 121.968-119.89 121.97 53.677 121.97 119.89z" fill="#fff"/><path d="m413.077 247.467c0 52.97-43.686 95.91-97.575 95.91s-97.574-42.94-97.574-95.91 43.686-95.91 97.574-95.91 97.575 42.94 97.575 95.91z" fill="#f31830"/><path d="m430.726 191.465-.985 44.318-41.345 11.225 40.756 14.514-.984 40.642 26.58-31.738 40.164 13.934-23.233-34.06 28.352-33.868-43.513 11.998-25.793-36.964z" fill="#fff"/></g></svg>