<svg height="480" viewBox="0 0 640 480" width="640" xmlns="http://www.w3.org/2000/svg" xmlns:xlink="http://www.w3.org/1999/xlink"><clipPath id="a"><path d="m0 0h640v480h-640z"/></clipPath><g clip-path="url(#a)"><g fill="#009fca" fill-rule="evenodd" stroke-width="1pt" transform="matrix(.64508 0 0 .92059 0 23.331)"><path d="m505.97-19.81h486.16v515.87h-486.16z"/><path d="m0-25.343h523.49v521.41h-523.49z"/></g><path d="m.017 0h395.857v196.597h-395.857z" fill="#fff" fill-rule="evenodd"/><path d="m.016 0-.016 14.757 94.465 48.539 35.543 1.029-129.991-64.325z" fill="#c00"/><path d="m40.463 0 114.523 59.822v-59.822z" fill="#006"/><path d="m170.26 0v76.368h-170.242v43.639h170.242v76.367h52.385v-76.367h170.245v-43.639h-170.244v-76.367h-52.386z" fill="#c00"/><path d="m237.921 0v56.368l112.046-55.93z" fill="#006"/><path d="m241.462 62.513 31.514-.253 122.418-61.823-32.49.53z" fill="#c00"/><path d="m.016 132.736v41.82l78.576-41.39-78.576-.435z" fill="#006"/><path d="m302.588 134.462-32.755-.255 123.474 61.477-.813-14.065-89.904-47.157zm-271.884 62.25 115.774-60.777-30.407.2-116.051 60.495" fill="#c00"/><path d="m394.55 17.271-93.502 46.368 92.257.345v69.093h-78.575l77.848 42.181 1.143 21.458-41.581-.497-113.8-55.869v56.366h-82.94v-56.366l-106.75 56.215-48.213.152v196.37h785.75v-392.74l-390.82-.34m-394.95 22.164-.415 40.783 82.722 1.037z" fill="#006"/><g fill-rule="evenodd"><g fill="#009fca" transform="matrix(.79241 0 0 .79977 .006 0)"><path d="m496.06 0h496.06v496.06h-496.06z"/><path d="m-2.303 244.61h525.79v251.45h-525.79z"/></g><path d="m593.34 122.692 27.572-.018-22.32 15.232 8.54 24.674-22.293-15.27-22.293 15.266 8.544-24.67-22.316-15.24 27.571.026 8.498-24.684zm-69.2 196.78 27.571-.019-22.32 15.233 8.54 24.673-22.293-15.269-22.293 15.266 8.544-24.67-22.316-15.24 27.571.026 8.498-24.685zm69.2-44.545 27.572-.018-22.32 15.232 8.54 24.673-22.293-15.269-22.293 15.266 8.544-24.67-22.316-15.24 27.571.026 8.498-24.684zm-297.552 142.719 27.572-.019-22.32 15.233 8.54 24.673-22.293-15.269-22.293 15.266 8.544-24.67-22.317-15.24 27.572.026 8.498-24.684zm62.574-76.486-27.572.018 22.32-15.232-8.54-24.674 22.293 15.27 22.293-15.266-8.544 24.67 22.316 15.24-27.571-.026-8.498 24.684zm81.306-112.444-27.571.018 22.32-15.233-8.54-24.673 22.293 15.27 22.293-15.266-8.544 24.67 22.316 15.24-27.571-.026-8.498 24.684zm68.336-23.361-27.572.018 22.32-15.232-8.54-24.674 22.293 15.27 22.293-15.266-8.544 24.67 22.316 15.24-27.571-.026-8.498 24.684zm-68.336 194.617-27.571.018 22.32-15.233-8.54-24.673 22.293 15.27 22.293-15.266-8.544 24.67 22.316 15.24-27.571-.026-8.498 24.684zm-81.306 19.898-27.572.018 22.32-15.233-8.54-24.673 22.293 15.269 22.293-15.266-8.544 24.67 22.316 15.24-27.571-.026-8.498 24.684z" fill="#fff40d"/></g></g></svg>