<svg viewBox="0 0 640 480" xmlns="http://www.w3.org/2000/svg"><path d="m0 0h640v480h-640z" fill="#009fca" stroke-width="11.8"/><path d="m593.3 122.7h27.7l-22.3 15.2 8.5 24.7-22.3-15.3-22.2 15.3 8.5-24.7-22.3-15.2h27.5l8.5-24.7zm-69.2 196.8h27.6l-22.3 15.2 8.5 24.7-22.3-15.3-22.3 15.3 8.6-24.7-22.3-15.2h27.4l8.5-24.7zm69.2-44.6h27.7l-22.3 15.2 8.5 24.7-22.3-15.3-22.2 15.3 8.5-24.7-22.3-15.2h27.5l8.5-24.7zm-297.5 142.8h27.6l-22.4 15.1 8.6 24.6-22.3-15.2-22.3 15.2 8.6-24.6-22.4-15.3h27.6l8.5-24.6zm62.6-76.5h-27.6l22.3-15.3-8.5-24.6 22.3 15.2 22.3-15.2-8.6 24.6 22.3 15.3h-27.5l-8.5 24.6zm81.3-112.5h-27.7l22.3-15.2-8.5-24.7 22.3 15.3 22.3-15.3-8.6 24.7 22.3 15.2h-27.5l-8.5 24.7zm68.3-23.3h-27.6l22.4-15.3-8.6-24.6 22.3 15.2 22.3-15.2-8.6 24.6 22.4 15.3h-27.6l-8.5 24.6zm-68.3 194.6h-27.7l22.3-15.2-8.3-24.8 22.3 15.2 22.3-15.2-8.6 24.7 22.3 15.2h-27.5l-8.5 24.7zm-81.3 19.9h-27.6l22.3-15.2-8.5-24.7 22.3 15.2 22.3-15.2-8.6 24.6 22.4 15.4h-27.5l-8.5 24.7z" fill="#fff40d" fill-rule="evenodd" stroke-width="1pt"/><g transform="scale(.5)"><path d="m0 0h640v480h-640z" fill="#012169"/><path d="m75 0 244 181 243-181h78v62l-240 179 240 178v61h-80l-240-179-239 179h-81v-60l239-178-239-178v-64z" fill="#fff"/><path d="m424 281 216 159v40l-271-199zm-184 20 6 35-192 144h-54zm400-301v3l-249 188 2-44 197-147zm-640 0 239 176h-60l-179-134z" fill="#c8102e"/><path d="m241 0v480h160v-480zm-241 160v160h640v-160z" fill="#fff"/><path d="m0 193v96h640v-96zm273-193v480h96v-480z" fill="#c8102e"/></g></svg>