<svg xmlns="http://www.w3.org/2000/svg" height="480" width="640" viewBox="0 0 640 480">
  <g fill-rule="evenodd">
    <g stroke-width="1pt">
      <path d="M0 0h912.01v36.923H0zm0 73.847h912.01v36.923H0zm0 73.847h912.01v36.923H0zm0 73.847h912.01v36.923H0zm0 73.846h912.01v36.924H0zm0 73.847h912.01v36.924H0zm0 73.847h912.01v36.924H0z" fill="#bd3d44"/>
      <path d="M0 36.923h912.01v36.924H0zm0 73.847h912.01v36.924H0zm0 73.847h912.01v36.924H0zm0 73.847h912.01v36.924H0zm0 73.847h912.01v36.923H0zm0 73.847h912.01v36.923H0z" fill="#fff"/>
    </g>
    <path fill="#192f5d" d="M0 0h364.8v258.46H0z"/>
    <path d="M30.4 11.063l3.32 10.214h10.74l-8.69 6.315 3.32 10.215-8.69-6.314-8.69 6.314 3.32-10.215-8.69-6.315h10.74zm60.8 0l3.32 10.214h10.742l-8.691 6.315 3.32 10.215-8.691-6.314-8.689 6.314 3.319-10.215-8.69-6.315h10.741zm60.802 0l3.32 10.214h10.741l-8.69 6.315 3.32 10.215-8.69-6.314-8.69 6.314 3.319-10.215-8.69-6.315h10.742zm60.8 0l3.318 10.214h10.74l-8.689 6.315 3.319 10.215-8.689-6.314-8.69 6.314 3.32-10.215-8.691-6.315h10.742zm60.8 0l3.32 10.214h10.741l-8.69 6.315 3.32 10.215-8.691-6.314-8.689 6.314 3.319-10.215-8.69-6.315h10.741zm60.802 0l3.32 10.214h10.741l-8.69 6.315 3.32 10.215-8.69-6.314-8.691 6.314 3.32-10.215-8.69-6.315h10.742zM60.802 36.909l3.318 10.215h10.742l-8.69 6.313 3.32 10.216-8.69-6.313-8.69 6.313 3.319-10.216-8.69-6.313h10.742zm60.798 0l3.32 10.215h10.74l-8.69 6.313 3.32 10.216-8.69-6.313-8.69 6.313 3.32-10.216-8.691-6.313h10.742zm60.802 0l3.319 10.215h10.742l-8.691 6.313 3.32 10.216-8.691-6.313-8.689 6.313 3.319-10.216-8.69-6.313h10.741zm60.801 0l3.32 10.215h10.741l-8.69 6.313 3.32 10.216-8.69-6.313-8.691 6.313 3.321-10.216-8.69-6.313h10.742zm60.8 0l3.318 10.215h10.74l-8.689 6.313 3.319 10.216-8.689-6.313-8.69 6.313 3.32-10.216-8.691-6.313h10.741zM30.4 62.755l3.32 10.215h10.74l-8.69 6.314L39.09 89.5l-8.69-6.313-8.69 6.313 3.32-10.215-8.69-6.314h10.74zm60.8 0l3.32 10.215h10.742l-8.691 6.314L99.89 89.5l-8.69-6.314-8.689 6.314 3.319-10.215-8.69-6.314h10.741zm60.802 0l3.32 10.215h10.741l-8.69 6.314 3.32 10.215-8.69-6.313-8.69 6.313 3.319-10.215-8.69-6.314h10.742zm60.8 0l3.318 10.215h10.74l-8.689 6.314L221.49 89.5l-8.689-6.313-8.69 6.313 3.32-10.215-8.691-6.314h10.742zm60.8 0l3.32 10.215h10.741l-8.69 6.314 3.32 10.215-8.691-6.313-8.689 6.313 3.319-10.215-8.69-6.314h10.741zm60.802 0l3.32 10.215h10.741l-8.69 6.314 3.32 10.215-8.69-6.313-8.691 6.313 3.32-10.215-8.69-6.314h10.742zM60.802 88.601l3.318 10.216h10.742l-8.69 6.313 3.32 10.216-8.69-6.313-8.69 6.313 3.319-10.216-8.69-6.313h10.742zm60.798 0l3.32 10.216h10.74l-8.69 6.313 3.32 10.216-8.69-6.313-8.69 6.313 3.32-10.216-8.691-6.313h10.742zm60.802 0l3.319 10.216h10.742l-8.691 6.313 3.32 10.216-8.691-6.313-8.689 6.313 3.319-10.216-8.69-6.313h10.741zm60.801 0l3.32 10.216h10.741l-8.69 6.313 3.32 10.216-8.69-6.313-8.691 6.313 3.32-10.216-8.69-6.313h10.742zm60.8 0l3.318 10.216h10.74l-8.689 6.313 3.319 10.216-8.689-6.313-8.69 6.313 3.32-10.216-8.691-6.313h10.741zM30.4 114.448l3.32 10.215h10.74l-8.69 6.314 3.32 10.215-8.69-6.313-8.69 6.313 3.32-10.215-8.69-6.314h10.74zm60.8 0l3.32 10.215h10.742l-8.691 6.314 3.32 10.215-8.691-6.313-8.689 6.313 3.319-10.215-8.69-6.314h10.741zm60.802 0l3.32 10.215h10.741l-8.69 6.314 3.32 10.215-8.69-6.313-8.69 6.313 3.319-10.215-8.69-6.314h10.742zm60.8 0l3.318 10.215h10.74l-8.689 6.314 3.319 10.215-8.689-6.313-8.69 6.313 3.32-10.215-8.691-6.314h10.742zm60.8 0l3.32 10.215h10.741l-8.69 6.314 3.32 10.215-8.691-6.313-8.689 6.313 3.319-10.215-8.69-6.314h10.741zm60.802 0l3.32 10.215h10.741l-8.69 6.314 3.32 10.215-8.69-6.313-8.691 6.313 3.32-10.215-8.69-6.314h10.742zM60.802 140.294l3.318 10.216h10.742l-8.69 6.313 3.32 10.216-8.69-6.313-8.69 6.313 3.319-10.216-8.69-6.313h10.742zm60.798 0l3.32 10.216h10.74l-8.69 6.313 3.32 10.216-8.69-6.313-8.69 6.313 3.32-10.216-8.691-6.313h10.742zm60.802 0l3.319 10.216h10.742l-8.691 6.313 3.32 10.216-8.691-6.313-8.689 6.313 3.319-10.216-8.69-6.313h10.741zm60.801 0l3.32 10.216h10.741l-8.69 6.313 3.32 10.216-8.69-6.313-8.691 6.313 3.32-10.216-8.69-6.313h10.742zm60.8 0l3.318 10.216h10.74l-8.689 6.313 3.319 10.216-8.689-6.313-8.69 6.313 3.32-10.216-8.691-6.313h10.741zM30.4 166.14l3.32 10.216h10.74l-8.69 6.314 3.32 10.215-8.69-6.313-8.69 6.313 3.32-10.215-8.69-6.314h10.74zm60.8 0l3.32 10.216h10.742l-8.691 6.314 3.32 10.215-8.691-6.313-8.689 6.313 3.319-10.215-8.69-6.314h10.741zm60.802 0l3.32 10.216h10.741l-8.69 6.314 3.32 10.215-8.69-6.313-8.69 6.313 3.319-10.215-8.69-6.314h10.742zm60.8 0l3.318 10.216h10.74l-8.689 6.314 3.319 10.215-8.689-6.313-8.69 6.313 3.32-10.215-8.691-6.314h10.742zm60.8 0l3.32 10.216h10.741l-8.69 6.314 3.32 10.215-8.691-6.313-8.689 6.313 3.319-10.215-8.69-6.314h10.741zm60.802 0l3.32 10.216h10.741l-8.69 6.314 3.32 10.215-8.69-6.313-8.691 6.313 3.32-10.215-8.69-6.314h10.742zM60.802 191.988l3.318 10.216h10.742l-8.69 6.313 3.32 10.216-8.69-6.313-8.69 6.313 3.319-10.216-8.69-6.313h10.742zm60.798 0l3.32 10.216h10.74l-8.69 6.313 3.32 10.216-8.69-6.313-8.69 6.313 3.32-10.216-8.691-6.313h10.742zm60.802 0l3.319 10.216h10.742l-8.691 6.313 3.32 10.216-8.691-6.313-8.689 6.313 3.319-10.216-8.69-6.313h10.741zm60.801 0l3.32 10.216h10.741l-8.69 6.313 3.32 10.216-8.69-6.313-8.691 6.313 3.32-10.216-8.69-6.313h10.742zm60.8 0l3.318 10.216h10.74l-8.689 6.313 3.319 10.216-8.689-6.313-8.69 6.313 3.32-10.216-8.691-6.313h10.741zM30.4 217.834l3.32 10.215h10.74l-8.69 6.314 3.32 10.215-8.69-6.313-8.69 6.313 3.32-10.215-8.69-6.314h10.74zm60.8 0l3.32 10.215h10.742l-8.691 6.314 3.32 10.215-8.691-6.313-8.689 6.313 3.319-10.215-8.69-6.314h10.741zm60.802 0l3.32 10.215h10.741l-8.69 6.314 3.32 10.215-8.69-6.313-8.69 6.313 3.319-10.215-8.69-6.314h10.742zm60.8 0l3.318 10.215h10.74l-8.689 6.314 3.319 10.215-8.689-6.313-8.69 6.313 3.32-10.215-8.691-6.314h10.742zm60.8 0l3.32 10.215h10.741l-8.69 6.314 3.32 10.215-8.691-6.313-8.689 6.313 3.319-10.215-8.69-6.314h10.741zm60.802 0l3.32 10.215h10.741l-8.69 6.314 3.32 10.215-8.69-6.313-8.691 6.313 3.32-10.215-8.69-6.314h10.742z" fill="#fff"/>
  </g>
</svg>
