<svg viewBox="0 0 640 480" xmlns="http://www.w3.org/2000/svg"><g fill-rule="evenodd" transform="scale(.9375)"><g stroke-width="1pt"><path d="m0 0h972.8v39.4h-972.8zm0 78.8h972.8v39.4h-972.8zm0 78.7h972.8v39.5h-972.8zm0 78.8h972.8v39.4h-972.8zm0 78.8h972.8v39.4h-972.8zm0 78.7h972.8v39.4h-972.8zm0 78.8h972.8v39.4h-972.8z" fill="#bd3d44"/><path d="m0 39.4h972.8v39.4h-972.8zm0 78.8h972.8v39.3h-972.8zm0 78.7h972.8v39.4h-972.8zm0 78.8h972.8v39.4h-972.8zm0 78.8h972.8v39.4h-972.8zm0 78.7h972.8v39.4h-972.8z" fill="#fff"/></g><path d="m0 0h389.1v275.7h-389.1z" fill="#192f5d"/><path d="m32.4 11.8 3.6 10.9h11.4l-9.2 6.7 3.5 11-9.3-6.8-9.2 6.7 3.5-10.9-9.3-6.7h11.6zm64.9 0 3.5 10.9h11.5l-9.3 6.7 3.5 11-9.2-6.8-9.3 6.7 3.5-10.9-9.2-6.7h11.4zm64.8 0 3.6 10.9h11.3l-9.2 6.7 3.5 11-9.3-6.8-9.2 6.7 3.5-10.9-9.3-6.7h11.5zm64.9 0 3.5 10.9h11.5l-9.3 6.7 3.6 11-9.3-6.8-9.3 6.7 3.6-10.9-9.3-6.7h11.4zm64.8 0 3.6 10.9h11.4l-9.2 6.7 3.5 11-9.3-6.8-9.2 6.7 3.5-10.9-9.2-6.7h11.4zm64.9 0 3.5 10.9h11.5l-9.3 6.7 3.6 11-9.3-6.8-9.3 6.7 3.6-10.9-9.3-6.7h11.5zm-291.8 27.6 3.5 10.9h11.5l-9.3 6.7 3.4 10.9-9-6.7-9.3 6.7 3.3-10.9-9-6.7h11.4zm64.8 0 3.6 10.9h11.4l-9.3 6.7 3.6 10.9-9.3-6.7-9.3 6.7 3.6-10.9-9.3-6.7h11.5zm64.9 0 3.5 10.9h11.5l-9.3 6.7 3.5 10.9-9.2-6.7-9.3 6.7 3.5-10.9-9.2-6.7h11.4zm64.8 0 3.6 10.9h11.4l-9.3 6.7 3.6 10.9-9.3-6.7-9.2 6.7 3.5-10.9-9.3-6.7h11.6zm64.9 0 3.5 10.9h11.5l-9.3 6.7 3.5 10.9-9.2-6.7-9.3 6.7 3.5-10.9-9.2-6.7h11.4zm-291.9 27.5 3.6 11.1h11.4l-9.2 6.7 3.5 10.9-9.3-6.8-9.2 6.8 3.5-11-9.3-6.7h11.6zm64.9 0 3.5 11h11.5l-9.3 6.7 3.5 10.9-9.2-6.8-9.3 6.8 3.5-11-9.2-6.7h11.4zm64.8 0 3.6 11h11.3l-9.2 6.7 3.5 10.9-9.3-6.8-9.2 6.8 3.5-11-9.3-6.7h11.5zm64.9 0 3.5 11h11.5l-9.3 6.7 3.6 10.9-9.3-6.8-9.3 6.8 3.6-11-9.3-6.7h11.4zm64.8 0 3.6 11h11.4l-9.2 6.7 3.5 10.9-9.3-6.8-9.2 6.8 3.5-11-9.2-6.7h11.4zm64.9 0 3.5 11h11.5l-9.3 6.7 3.6 10.9-9.3-6.8-9.3 6.8 3.6-11-9.3-6.7h11.5zm-291.8 27.6 3.5 10.9h11.5l-9.3 6.7 3.5 11-9.2-6.8-9.3 6.7 3.5-10.9-9.2-6.7h11.4zm64.8 0 3.6 10.9h11.4l-9.3 6.7 3.6 11-9.3-6.8-9.3 6.7 3.6-10.9-9.3-6.7h11.5zm64.9 0 3.5 10.9h11.5l-9.3 6.7 3.5 11-9.2-6.8-9.3 6.7 3.5-10.9-9.2-6.7h11.4zm64.8 0 3.6 10.9h11.4l-9.2 6.7 3.5 11-9.3-6.8-9.2 6.7 3.5-10.9-9.3-6.7h11.6zm64.9 0 3.5 10.9h11.5l-9.3 6.7 3.5 11-9.2-6.8-9.3 6.7 3.5-10.9-9.2-6.7h11.4zm-291.9 27.6 3.6 10.9h11.4l-9.2 6.7 3.5 11-9.3-6.8-9.2 6.7 3.5-10.9-9.3-6.7h11.6zm64.9 0 3.5 10.9h11.5l-9.3 6.7 3.5 10.9-9.2-6.7-9.3 6.7 3.5-10.9-9.2-6.7h11.4zm64.8 0 3.6 10.9h11.3l-9.2 6.7 3.5 11-9.3-6.8-9.2 6.7 3.5-10.9-9.3-6.7h11.5zm64.9 0 3.5 10.9h11.5l-9.3 6.7 3.6 11-9.3-6.8-9.3 6.7 3.6-10.9-9.3-6.7h11.4zm64.8 0 3.6 10.9h11.4l-9.2 6.7 3.5 11-9.3-6.8-9.2 6.7 3.5-10.9-9.2-6.7h11.4zm64.9 0 3.5 10.9h11.5l-9.3 6.7 3.6 11-9.3-6.8-9.3 6.7 3.6-10.9-9.3-6.7h11.5zm-291.8 27.6 3.5 10.9h11.5l-9.3 6.7 3.5 10.9-9.2-6.8-9.3 6.8 3.5-11-9.2-6.7h11.4zm64.8 0 3.6 10.9h11.4l-9.3 6.7 3.6 10.9-9.3-6.8-9.3 6.8 3.6-11-9.3-6.7h11.5zm64.9 0 3.5 10.9h11.5l-9.3 6.7 3.5 10.9-9.2-6.8-9.3 6.8 3.5-11-9.2-6.7h11.4zm64.8 0 3.6 10.9h11.4l-9.2 6.7 3.5 10.9-9.3-6.8-9.2 6.8 3.5-11-9.3-6.7h11.6zm64.9 0 3.5 10.9h11.5l-9.3 6.7 3.5 10.9-9.2-6.8-9.3 6.8 3.5-11-9.2-6.7h11.4zm-291.9 27.5 3.6 11h11.4l-9.2 6.7 3.5 10.8-9.3-6.7-9.2 6.7 3.5-10.9-9.3-6.7h11.6zm64.9 0 3.5 11h11.5l-9.3 6.7 3.6 10.8-9.3-6.7-9.3 6.7 3.6-10.9-9.3-6.7h11.4zm64.8 0 3.6 11h11.3l-9.2 6.7 3.5 10.8-9.3-6.7-9.2 6.7 3.5-10.9-9.3-6.7h11.5zm64.9 0 3.5 11h11.5l-9.3 6.7 3.6 10.8-9.3-6.7-9.3 6.7 3.6-10.9-9.3-6.7h11.4zm64.8 0 3.6 11h11.4l-9.2 6.7 3.5 10.8-9.3-6.7-9.2 6.7 3.5-10.9-9.2-6.7h11.4zm64.9 0 3.5 11h11.5l-9.3 6.7 3.6 10.8-9.3-6.7-9.3 6.7 3.6-10.9-9.3-6.7h11.5zm-291.8 27.6 3.5 10.9h11.5l-9.3 6.7 3.5 11-9.2-6.8-9.3 6.7 3.5-10.9-9.2-6.7h11.4zm64.8 0 3.6 10.9h11.4l-9.3 6.7 3.6 11-9.3-6.8-9.3 6.7 3.6-10.9-9.3-6.7h11.5zm64.9 0 3.5 10.9h11.5l-9.3 6.7 3.5 11-9.2-6.8-9.3 6.7 3.5-10.9-9.2-6.7h11.4zm64.8 0 3.6 10.9h11.4l-9.2 6.7 3.5 11-9.3-6.8-9.2 6.7 3.5-10.9-9.3-6.7h11.6zm64.9 0 3.5 10.9h11.5l-9.3 6.7 3.5 11-9.2-6.8-9.3 6.7 3.5-10.9-9.2-6.7h11.4zm-291.9 27.6 3.6 10.9h11.4l-9.2 6.7 3.5 10.9-9.3-6.7-9.2 6.7 3.5-11-9.3-6.7h11.6zm64.9 0 3.5 10.9h11.5l-9.3 6.7 3.6 10.9-9.3-6.7-9.3 6.7 3.6-11-9.3-6.7h11.4zm64.8 0 3.6 10.9h11.3l-9 6.7 3.5 10.9-9.3-6.7-9.2 6.7 3.5-11-9.3-6.7h11.5zm64.9 0 3.5 10.9h11.5l-9.3 6.7 3.6 10.9-9.3-6.7-9.3 6.7 3.6-11-9.3-6.7h11.4zm64.8 0 3.6 10.9h11.4l-9.2 6.7 3.5 10.9-9.3-6.7-9.2 6.7 3.5-11-9.2-6.7h11.4zm64.9 0 3.5 10.9h11.5l-9.3 6.7 3.6 10.9-9.3-6.7-9.3 6.7 3.6-11-9.3-6.7h11.5z" fill="#fff"/></g></svg>