<svg height="480" viewBox="0 0 640 480" width="640" xmlns="http://www.w3.org/2000/svg" xmlns:xlink="http://www.w3.org/1999/xlink"><path d="m0 0h640v480h-640z" fill="#fff"/><path d="m266 53.333h374v53.333h-374zm0 106.667h374v53.333h-374zm-266 106.667h640v53.333h-640zm0 106.666h640v53.333h-640z" fill="#0038a8"/><g fill="#fcd116" stroke="#000" stroke-miterlimit="20" stroke-width=".6" transform="matrix(2.93333 0 0 2.93333 133.333 133.333)"><g id="a"><g id="b"><g id="c"><path d="m1.5 9 4.5 3c-8 13 1 15-6 21 3-7-3-5-3-17" stroke-linecap="square" transform="matrix(.92387953 .38268343 -.38268343 .92387953 0 0)"/><path d="m0 11c-2 13 4.5 17 0 22" fill="none" transform="matrix(.92387953 .38268343 -.38268343 .92387953 0 0)"/><path d="m0 0h6l-6 33-6-33h6v33"/></g><use height="100%" transform="matrix(.70710678 .70710678 -.70710678 .70710678 0 0)" width="100%" xlink:href="#c"/></g><use height="100%" transform="rotate(90)" width="100%" xlink:href="#b"/></g><use height="100%" transform="scale(-1)" width="100%" xlink:href="#a"/><circle r="11"/></g><g transform="matrix(.29333 0 0 .29333 133.333 133.333)"><g id="d"><path d="m81-44c-7 8-11-6-36-6s-29 15-33 12 21-21 29-22 31 7 40 16m-29 9c7 6 1 19-6 19s-20-12-14-20"/><path d="m19-26c1-12 11-14 27-14s23 12 29 15c-7 0-13-10-29-10s-16 0-27 10m3 2c4-6 9 6 20 6s17-3 24-8-10 12-21 12-26-6-23-10"/><path d="m56-17c13-7 5-17 0-19 2 2 10 12 0 19m-56 60c6 0 8-2 16-2s27 11 38 7c-23 9-14 3-54 3h-5m63 6c-4-7-3-5-11-16 8 6 10 9 11 16m-58 10c25 0 21-5 54-19-24 3-29 11-54 11h-5m5-29c7 0 9-5 17-5s19 3 24 7c1 1-3-8-11-9s-5-14-14-16c0 4 3 3 4 9 0 5-9 5-11 0 2 8-4 8-9 8"/></g><use height="100%" transform="scale(-1 1)" width="100%" xlink:href="#d"/><path d="m0 76c-5 0-18 3 0 3s5-3 0-3"/></g></svg>