<svg height="480" viewBox="0 0 640 480" width="640" xmlns="http://www.w3.org/2000/svg" xmlns:xlink="http://www.w3.org/1999/xlink"><path d="m0 320h640v160h-640z" fill="#1eb53a"/><path d="m0 0h640v160h-640z" fill="#0099b5"/><path d="m0 153.6h640v172.8h-640z" fill="#ce1126"/><path d="m0 163.2h640v153.6h-640z" fill="#fff"/><circle cx="134.4" cy="76.8" fill="#fff" r="57.6"/><circle cx="153.6" cy="76.8" fill="#0099b5" r="57.6"/><g fill="#fff" transform="matrix(1.92 0 0 1.92 261.12 122.88)"><g id="a"><g id="b"><g id="c"><g id="d"><path id="e" d="m0-6-1.854 5.706 2.854.927"/><use height="100%" transform="scale(-1 1)" width="100%" xlink:href="#e"/></g><use height="100%" transform="matrix(.30901699 .95105652 -.95105652 .30901699 0 0)" width="100%" xlink:href="#d"/></g><use height="100%" transform="matrix(.30901699 -.95105652 .95105652 .30901699 0 0)" width="100%" xlink:href="#d"/><use height="100%" transform="matrix(-.80901699 .58778525 -.58778525 -.80901699 0 0)" width="100%" xlink:href="#c"/></g><use height="100%" width="100%" xlink:href="#b" y="-24"/><use height="100%" width="100%" xlink:href="#b" y="-48"/></g><use height="100%" width="100%" x="24" xlink:href="#a"/><use height="100%" width="100%" x="48" xlink:href="#a"/><use height="100%" width="100%" x="-48" xlink:href="#b"/><use height="100%" width="100%" x="-24" xlink:href="#b"/><use height="100%" width="100%" x="-24" xlink:href="#b" y="-24"/></g></svg>