<svg viewBox="0 0 640 480" xmlns="http://www.w3.org/2000/svg" xmlns:xlink="http://www.w3.org/1999/xlink"><linearGradient id="a"><stop offset="0" stop-color="#f00"/><stop offset="1" stop-color="#ff0"/></linearGradient><linearGradient id="b" gradientTransform="matrix(.64274 0 0 1.4534 -94.7 29.2)" gradientUnits="userSpaceOnUse" x1="103.1" x2="92.5" xlink:href="#a" y1="111.3" y2="107.8"/><linearGradient id="c" gradientTransform="matrix(.64274 0 0 1.4534 -94.7 30.2)" gradientUnits="userSpaceOnUse" x1="103.1" x2="92.5" xlink:href="#a" y1="111.3" y2="107.8"/><linearGradient id="d" gradientTransform="matrix(.64274 0 0 1.4534 -98 31)" gradientUnits="userSpaceOnUse" x1="103.1" x2="92.5" xlink:href="#a" y1="111.3" y2="107.8"/><linearGradient id="e" gradientTransform="matrix(.64274 0 0 1.4534 -94.7 32)" gradientUnits="userSpaceOnUse" x1="103.1" x2="92.5" xlink:href="#a" y1="111.3" y2="107.8"/><linearGradient id="f" gradientTransform="matrix(.64274 0 0 1.4534 -94.8 32.8)" gradientUnits="userSpaceOnUse" x1="103.1" x2="92.5" xlink:href="#a" y1="111.3" y2="107.8"/><linearGradient id="g" gradientTransform="matrix(.64274 0 0 1.4534 -94.8 33.8)" gradientUnits="userSpaceOnUse" x1="103.1" x2="92.5" xlink:href="#a" y1="111.3" y2="107.8"/><linearGradient id="h" gradientTransform="matrix(.64274 0 0 1.4534 -98 33.7)" gradientUnits="userSpaceOnUse" x1="103.1" x2="92.5" xlink:href="#a" y1="111.3" y2="107.8"/><linearGradient id="i" gradientTransform="matrix(.64274 0 0 1.4534 -98 32.8)" gradientUnits="userSpaceOnUse" x1="103.1" x2="92.5" xlink:href="#a" y1="111.3" y2="107.8"/><linearGradient id="j" gradientTransform="matrix(.64274 0 0 1.4534 -98 32)" gradientUnits="userSpaceOnUse" x1="103.1" x2="92.5" xlink:href="#a" y1="111.3" y2="107.8"/><linearGradient id="k" gradientTransform="matrix(.8281 0 0 1.8726 602.8 148.2)" gradientUnits="userSpaceOnUse" x1="103.1" x2="92.5" xlink:href="#a" y1="111.3" y2="107.8"/><linearGradient id="l" gradientTransform="matrix(.64274 0 0 1.4534 -98 30.1)" gradientUnits="userSpaceOnUse" x1="103.1" x2="92.5" xlink:href="#a" y1="111.3" y2="107.8"/><linearGradient id="m" gradientTransform="matrix(.64274 0 0 1.4534 -95.3 31)" gradientUnits="userSpaceOnUse" x1="103.1" x2="92.5" xlink:href="#a" y1="111.3" y2="107.8"/><clipPath id="n"><path d="m0 0h640v480h-640z"/></clipPath><g clip-path="url(#n)"><path d="m0 0h960v480h-960z" fill="#006"/><path d="m0 0h350v175h-350z" fill="#006" fill-rule="evenodd"/><g stroke-width="1pt"><path d="m0 0v19.6l310.9 155.4h39.1v-19.6l-310.9-155.4zm350 0v19.6l-310.9 155.4h-39.1v-19.6l310.9-155.4z" fill="#fff"/><path d="m145.8 0v175h58.4v-175zm-145.8 58.3v58.4h350v-58.4z" fill="#fff"/><path d="m0 70v35h350v-35zm157.5-70v175h35v-175zm-157.5 175 116.7-58.3h26l-116.5 58.3zm0-175 116.7 58.3h-26.1l-90.6-45.3zm207.3 58.3 116.6-58.3h26.1l-116.7 58.3zm142.7 116.7-116.7-58.3h26.1l90.6 45.3z" fill="#c00"/></g><path d="m378.5 154.5 219.3-.9-.4 195.4s7.7 29.7-92 74.9c35.9-3.7 75-42 75-42s15.8-20.3 23.5-9a87 87 0 0 0 20.8 21.7c5.7 4.4 10.2 16.6 1.6 25.6-8.5 9-22 10.2-25.6-.8-5.7 2.8-40.7 45.2-112.3 47.2a159 159 0 0 1 -112.8-47.6s-9.7 15.4-23.6 3.2c-13.4-15.8-3.2-26-3.2-26s11.4-6.5 14.6-11c5.3-6.1 7-14.2 15.9-14.2 10.6.8 14.7 9.3 14.7 9.3s36.6 38.7 76 43.5c-89-42.7-92.3-69.1-92-75.6z" fill="#fff" fill-rule="evenodd"/><path d="m383.8 159.7 209.1-1.2v188c.4 24.4-40.7 49.3-105 81-66.3-34.2-104.5-55-105-81.4z" fill="#006129" fill-rule="evenodd" stroke="#000" stroke-width="1.7"/><path d="m409 366.9 12.3-18.1 12.4 18.1" fill="none" stroke="#f7c600" stroke-width="1.7"/><path d="m423.7 360.1a2.5 2.5 0 1 1 -4.9 0 2.5 2.5 0 0 1 5 0z" fill="#f7c600" fill-rule="evenodd" stroke="#000" stroke-width=".8"/><path d="m411.2 380.3h19.2s.3-2.4-2-4c10-1.3 7.4-10.2 15.8-10.7 1.6.3-4.4 3.8-4.4 3.8s-5 3.6-2.8 5.4c1.9 1.4 2.7-.9 3-2.7.2-1.7 8-2.8 7-7.9-2-4-13 2.8-13 2.8h-7.8c-.5-1-2.7-4.5-5-4.5-2.6.1-4.4 4.5-4.4 4.5h-17.8s-.6 4.6 8.4 5.5c2 2.6 3.6 3.4 5.3 4-1.1 1-1.5 2.2-1.5 3.8z" fill="#f7c600" fill-rule="evenodd" stroke="#000" stroke-width=".8"/><path d="m412.6 376.4h16m-23.3-9.4s1.3 7.5 7.2 9.2" fill="none" stroke="#000" stroke-width=".8"/><path d="m66.3 170.5c.5-2.1 1.3-2.5 2.2-5.2.1-2.7-2.2-2.4-1.5-4.1 1.2-1.9.6-3.6-1.6-5 .4 2.4-3 4.7-3 6.7s1.8 1.6 1.6 4.6c0 1.8-.5 1.3-.6 3h3z" fill="url(#b)" fill-rule="evenodd" stroke="#000" stroke-width=".6" transform="matrix(1.3225 0 0 1.3225 316.6 141.4)"/><path d="m423.5 349.2a2.3 2.3 0 1 1 -4.5 0 2.3 2.3 0 0 1 4.5 0z" fill="#f7c600" fill-rule="evenodd" stroke="#000" stroke-width=".8"/><path d="m408.2 329.6 12.4-18.2 12.4 18.2" fill="none" stroke="#f7c600" stroke-width="1.7"/><path d="m423 322.8a2.5 2.5 0 1 1 -4.9 0 2.5 2.5 0 0 1 5 0z" fill="#f7c600" fill-rule="evenodd" stroke="#000" stroke-width=".8"/><path d="m410.5 343h19.2s.3-2.4-2-4c10-1.3 7.4-10.2 15.8-10.7 1.6.3-4.4 3.8-4.4 3.8s-5 3.5-2.8 5.4c1.9 1.4 2.7-1 3-2.7.2-1.7 8-2.9 7-7.9-2-4.1-13 2.8-13 2.8h-7.8c-.5-1-2.7-4.5-5-4.5-2.6.1-4.4 4.5-4.4 4.5h-17.8s-.6 4.6 8.4 5.4c2 2.7 3.6 3.4 5.3 4.1-1.1 1-1.5 2.2-1.5 3.8z" fill="#f7c600" fill-rule="evenodd" stroke="#000" stroke-width=".8"/><path d="m412 339h15.9m-23.3-9.3s1.3 7.4 7.2 9.2" fill="none" stroke="#000" stroke-width=".8"/><path d="m66.3 170.5c.5-2.1 1.3-2.5 2.2-5.2.1-2.7-2.2-2.4-1.5-4.1 1.2-1.9.6-3.6-1.6-5 .4 2.4-3 4.7-3 6.7s1.8 1.6 1.6 4.6c0 1.8-.5 1.3-.6 3h3z" fill="url(#c)" fill-rule="evenodd" stroke="#000" stroke-width=".6" transform="matrix(1.3225 0 0 1.3225 316 104)"/><path d="m422.8 311.9a2.3 2.3 0 1 1 -4.5 0 2.3 2.3 0 0 1 4.5 0z" fill="#f7c600" fill-rule="evenodd" stroke="#000" stroke-width=".8"/><path d="m539.4 295.6 12.3-18 12.4 18" fill="none" stroke="#f7c600" stroke-width="1.7"/><path d="m554.2 288.9a2.5 2.5 0 1 1 -4.9 0 2.5 2.5 0 0 1 4.9 0z" fill="#f7c600" fill-rule="evenodd" stroke="#000" stroke-width=".8"/><path d="m541.7 309 19.1.1s.3-2.5-2-4c10-1.4 7.5-10.2 15.9-10.7 1.6.2-4.4 3.8-4.4 3.8s-5 3.5-2.8 5.3c1.9 1.5 2.7-.8 2.9-2.6.3-1.8 8.2-2.9 7-7.9-1.9-4.1-12.9 2.8-12.9 2.8h-7.9c-.4-1-2.6-4.5-4.9-4.5-2.6 0-4.5 4.5-4.5 4.5h-17.8s-.6 4.5 8.4 5.4c2 2.7 3.6 3.4 5.4 4-1.2 1-1.5 2.3-1.5 3.8z" fill="#f7c600" fill-rule="evenodd" stroke="#000" stroke-width=".8"/><path d="m543 305.2h16m-23.2-9.4s1.3 7.4 7.1 9.2" fill="none" stroke="#000" stroke-width=".8"/><path d="m66.3 170.5c.5-2.1 1.3-2.5 2.2-5.2.1-2.7-2.2-2.4-1.5-4.1 1.2-1.9.6-3.6-1.6-5 .4 2.4-3 4.7-3 6.7s1.8 1.6 1.6 4.6c0 1.8-.5 1.3-.6 3h3z" fill="url(#d)" fill-rule="evenodd" stroke="#000" stroke-width=".6" transform="matrix(1.3225 0 0 1.3225 447 70.1)"/><path d="m554 278a2.3 2.3 0 1 1 -4.5 0 2.3 2.3 0 0 1 4.5 0z" fill="#f7c600" fill-rule="evenodd" stroke="#000" stroke-width=".8"/><path d="m411.3 259.4 12.3-18.2 12.4 18.2" fill="none" stroke="#f7c600" stroke-width="1.7"/><path d="m426.1 252.6a2.5 2.5 0 1 1 -4.9 0 2.5 2.5 0 0 1 4.9 0z" fill="#f7c600" fill-rule="evenodd" stroke="#000" stroke-width=".8"/><path d="m413.6 272.8h19.1s.3-2.5-2-4c10-1.4 7.5-10.2 15.9-10.7 1.6.3-4.4 3.8-4.4 3.8s-5.1 3.5-2.8 5.4c1.8 1.4 2.6-1 2.9-2.7.2-1.7 8.1-2.9 7-7.9-1.9-4.1-12.9 2.8-12.9 2.8h-7.9c-.5-1-2.6-4.5-4.9-4.5-2.6.1-4.5 4.5-4.5 4.5h-17.8s-.6 4.6 8.4 5.4c2 2.7 3.6 3.4 5.4 4.1-1.2 1-1.5 2.2-1.5 3.8z" fill="#f7c600" fill-rule="evenodd" stroke="#000" stroke-width=".8"/><path d="m415 268.9h16m-23.3-9.4s1.3 7.4 7.1 9.2" fill="none" stroke="#000" stroke-width=".8"/><path d="m66.3 170.5c.5-2.1 1.3-2.5 2.2-5.2.1-2.7-2.2-2.4-1.5-4.1 1.2-1.9.6-3.6-1.6-5 .4 2.4-3 4.7-3 6.7s1.8 1.6 1.6 4.6c0 1.8-.5 1.3-.6 3h3z" fill="url(#e)" fill-rule="evenodd" stroke="#000" stroke-width=".6" transform="matrix(1.3225 0 0 1.3225 319 33.8)"/><path d="m425.9 241.7a2.3 2.3 0 1 1 -4.5 0 2.3 2.3 0 0 1 4.5 0z" fill="#f7c600" fill-rule="evenodd" stroke="#000" stroke-width=".8"/><path d="m411.6 223.7 12.3-18.1 12.4 18.2" fill="none" stroke="#f7c600" stroke-width="1.7"/><path d="m426.4 217a2.5 2.5 0 1 1 -5 0 2.5 2.5 0 0 1 5 0z" fill="#f7c600" fill-rule="evenodd" stroke="#000" stroke-width=".8"/><path d="m413.9 237.1h19.1s.3-2.4-2-4c10-1.3 7.4-10.1 15.8-10.6 1.7.2-4.4 3.7-4.4 3.7s-5 3.6-2.7 5.4c1.8 1.4 2.6-.9 2.9-2.6.2-1.8 8.1-3 7-8-1.9-4-13 2.8-13 2.8h-7.8c-.5-.9-2.7-4.4-4.9-4.5-2.6.1-4.5 4.5-4.5 4.5h-17.8s-.6 4.6 8.4 5.5c2 2.6 3.6 3.4 5.4 4-1.2 1-1.5 2.2-1.5 3.8z" fill="#f7c600" fill-rule="evenodd" stroke="#000" stroke-width=".8"/><path d="m415.3 233.2h15.9m-23.2-9.4s1.2 7.5 7.1 9.2" fill="none" stroke="#000" stroke-width=".8"/><path d="m66.3 170.5c.5-2.1 1.3-2.5 2.2-5.2.1-2.7-2.2-2.4-1.5-4.1 1.2-1.9.6-3.6-1.6-5 .4 2.4-3 4.7-3 6.7s1.8 1.6 1.6 4.6c0 1.8-.5 1.3-.6 3h3z" fill="url(#f)" fill-rule="evenodd" stroke="#000" stroke-width=".6" transform="matrix(1.3225 0 0 1.3225 319.3 -1.8)"/><path d="m426.2 206a2.3 2.3 0 1 1 -4.5 0 2.3 2.3 0 0 1 4.5 0z" fill="#f7c600" fill-rule="evenodd" stroke="#000" stroke-width=".8"/><path d="m412.2 187.5 12.4-18.1 12.4 18.2" fill="none" stroke="#f7c600" stroke-width="1.7"/><path d="m427 180.8a2.5 2.5 0 1 1 -4.8 0 2.5 2.5 0 0 1 4.9 0z" fill="#f7c600" fill-rule="evenodd" stroke="#000" stroke-width=".8"/><path d="m414.6 201h19s.4-2.5-2-4c10.1-1.4 7.5-10.2 16-10.7 1.5.2-4.5 3.7-4.5 3.7s-5 3.6-2.7 5.4c1.8 1.5 2.6-.9 2.9-2.6.2-1.8 8-2.9 7-8-2-4-13 2.8-13 2.8h-7.8c-.5-.9-2.7-4.4-5-4.4-2.6 0-4.4 4.5-4.4 4.5h-17.8s-.6 4.5 8.4 5.4a10.8 10.8 0 0 0 5.4 4c-1.2 1-1.5 2.2-1.5 3.8z" fill="#f7c600" fill-rule="evenodd" stroke="#000" stroke-width=".8"/><path d="m416 197h15.9m-23.3-9.4s1.3 7.5 7.2 9.3" fill="none" stroke="#000" stroke-width=".8"/><path d="m66.3 170.5c.5-2.1 1.3-2.5 2.2-5.2.1-2.7-2.2-2.4-1.5-4.1 1.2-1.9.6-3.6-1.6-5 .4 2.4-3 4.7-3 6.7s1.8 1.6 1.6 4.6c0 1.8-.5 1.3-.6 3h3z" fill="url(#g)" fill-rule="evenodd" stroke="#000" stroke-width=".6" transform="matrix(1.3225 0 0 1.3225 320 -38)"/><path d="m426.9 169.9a2.3 2.3 0 1 1 -4.5 0 2.3 2.3 0 0 1 4.5 0z" fill="#f7c600" fill-rule="evenodd" stroke="#000" stroke-width=".8"/><path d="m540.4 188.1 12.3-18.1 12.4 18.2" fill="none" stroke="#f7c600" stroke-width="1.7"/><path d="m555.2 181.3a2.5 2.5 0 1 1 -5 0 2.5 2.5 0 0 1 5 0z" fill="#f7c600" fill-rule="evenodd" stroke="#000" stroke-width=".8"/><path d="m542.7 201.5h19.1s.3-2.4-2-4c10-1.3 7.4-10.1 15.8-10.6 1.7.2-4.4 3.7-4.4 3.7s-5 3.6-2.7 5.4c1.8 1.4 2.6-.9 2.9-2.6.2-1.8 8.1-3 7-8-1.9-4-13 2.8-13 2.8h-7.8c-.5-.9-2.6-4.4-4.9-4.4-2.6 0-4.5 4.4-4.5 4.4h-17.8s-.6 4.6 8.4 5.5a10.8 10.8 0 0 0 5.4 4c-1.2 1-1.5 2.2-1.5 3.8z" fill="#f7c600" fill-rule="evenodd" stroke="#000" stroke-width=".8"/><path d="m544 197.6h16m-23.3-9.4s1.3 7.5 7.2 9.3" fill="none" stroke="#000" stroke-width=".8"/><path d="m66.3 170.5c.5-2.1 1.3-2.5 2.2-5.2.1-2.7-2.2-2.4-1.5-4.1 1.2-1.9.6-3.6-1.6-5 .4 2.4-3 4.7-3 6.7s1.8 1.6 1.6 4.6c0 1.8-.5 1.3-.6 3h3z" fill="url(#h)" fill-rule="evenodd" stroke="#000" stroke-width=".6" transform="matrix(1.3225 0 0 1.3225 448 -37.4)"/><path d="m555 170.4a2.3 2.3 0 1 1 -4.5 0 2.3 2.3 0 0 1 4.5 0z" fill="#f7c600" fill-rule="evenodd" stroke="#000" stroke-width=".8"/><path d="m539.2 223.6 12.3-18.1 12.4 18.2" fill="none" stroke="#f7c600" stroke-width="1.7"/><path d="m554 216.8a2.5 2.5 0 1 1 -4.9 0 2.5 2.5 0 0 1 5 0z" fill="#f7c600" fill-rule="evenodd" stroke="#000" stroke-width=".8"/><path d="m541.5 237h19.1s.3-2.4-2-4c10-1.3 7.5-10.1 15.9-10.6 1.6.2-4.4 3.7-4.4 3.7s-5 3.6-2.8 5.4c1.9 1.5 2.7-.9 2.9-2.6.3-1.8 8.2-2.9 7-8-1.9-4-12.9 2.9-12.9 2.9h-7.8c-.5-1-2.7-4.5-5-4.5-2.6 0-4.5 4.4-4.5 4.4h-17.8s-.6 4.6 8.4 5.5c2 2.7 3.6 3.4 5.4 4-1.2 1-1.5 2.2-1.5 3.8z" fill="#f7c600" fill-rule="evenodd" stroke="#000" stroke-width=".8"/><path d="m542.9 233.2 16-.1m-23.3-9.4s1.3 7.5 7.1 9.3" fill="none" stroke="#000" stroke-width=".8"/><path d="m66.3 170.5c.5-2.1 1.3-2.5 2.2-5.2.1-2.7-2.2-2.4-1.5-4.1 1.2-1.9.6-3.6-1.6-5 .4 2.4-3 4.7-3 6.7s1.8 1.6 1.6 4.6c0 1.8-.5 1.3-.6 3h3z" fill="url(#i)" fill-rule="evenodd" stroke="#000" stroke-width=".6" transform="matrix(1.3225 0 0 1.3225 446.9 -1.9)"/><path d="m553.8 206a2.3 2.3 0 1 1 -4.5 0 2.3 2.3 0 0 1 4.5 0z" fill="#f7c600" fill-rule="evenodd" stroke="#000" stroke-width=".8"/><path d="m537.6 260 12.4-18.2 12.4 18.2" fill="none" stroke="#f7c600" stroke-width="1.7"/><path d="m552.4 253.2a2.5 2.5 0 1 1 -4.9 0 2.5 2.5 0 0 1 5 0z" fill="#f7c600" fill-rule="evenodd" stroke="#000" stroke-width=".8"/><path d="m540 273.3h19s.4-2.4-2-4c10.1-1.3 7.5-10.1 15.9-10.6 1.6.2-4.4 3.7-4.4 3.7s-5 3.6-2.8 5.4c1.9 1.5 2.7-.9 3-2.6s8-2.9 7-8c-2-4-13 2.8-13 2.8h-7.7c-.5-.9-2.7-4.4-5-4.4-2.6 0-4.4 4.4-4.4 4.4h-17.8s-.6 4.6 8.4 5.5a10.8 10.8 0 0 0 5.3 4c-1.1 1-1.5 2.2-1.5 3.8z" fill="#f7c600" fill-rule="evenodd" stroke="#000" stroke-width=".8"/><path d="m541.3 269.4h16m-23.3-9.4s1.3 7.4 7.2 9.2" fill="none" stroke="#000" stroke-width=".8"/><path d="m66.3 170.5c.5-2.1 1.3-2.5 2.2-5.2.1-2.7-2.2-2.4-1.5-4.1 1.2-1.9.6-3.6-1.6-5 .4 2.4-3 4.7-3 6.7s1.8 1.6 1.6 4.6c0 1.8-.5 1.3-.6 3h3z" fill="url(#j)" fill-rule="evenodd" stroke="#000" stroke-width=".6" transform="matrix(1.3225 0 0 1.3225 445.3 34.4)"/><path d="m552.2 242.3a2.3 2.3 0 1 1 -4.5 0 2.3 2.3 0 0 1 4.5 0z" fill="#f7c600" fill-rule="evenodd" stroke="#000" stroke-width=".8"/><path d="m539.2 367.3 12.3-18.2 12.4 18.2" fill="none" stroke="#f7c600" stroke-width="1.3"/><path d="m554 360.5a2.5 2.5 0 1 1 -4.9 0 2.5 2.5 0 0 1 4.9 0z" fill="#f7c600" fill-rule="evenodd" stroke="#000" stroke-width=".8"/><path d="m541.5 380.7h19.1s.3-2.5-2-4c10-1.3 7.5-10.2 15.9-10.7 1.6.3-4.4 3.8-4.4 3.8s-5 3.5-2.8 5.4c1.9 1.4 2.7-1 2.9-2.7.3-1.7 8.2-2.9 7-7.9-1.9-4.1-12.9 2.8-12.9 2.8h-7.9c-.4-1-2.6-4.5-4.9-4.5-2.6.1-4.5 4.5-4.5 4.5h-17.8s-.6 4.6 8.4 5.4c2 2.7 3.6 3.4 5.4 4.1-1.2 1-1.5 2.2-1.5 3.8z" fill="#f7c600" fill-rule="evenodd" stroke="#000" stroke-width=".8"/><path d="m542.9 376.8h16m-23.3-9.4s1.3 7.4 7.1 9.2" fill="none" stroke="#000" stroke-width=".8"/><path d="m814.5 330.3c.6-2.8 1.6-3.3 2.8-6.8.2-3.5-2.8-3-2-5.3 1.6-2.4.8-4.7-2-6.5.5 3.2-3.8 6.1-3.8 8.7s2.2 2 2 6c.1 2.2-.6 1.7-.8 3.9z" fill="url(#k)" fill-rule="evenodd" stroke="#000" stroke-width=".8" transform="matrix(1.0265 0 0 1.0265 -301.5 28.3)"/><path d="m553.8 349.6a2.3 2.3 0 1 1 -4.5 0 2.3 2.3 0 0 1 4.5 0z" fill="#f7c600" fill-rule="evenodd" stroke="#000" stroke-width=".8"/><path d="m539 331.4 12.3-18.2 12.4 18.2" fill="none" stroke="#f7c600" stroke-width="1.7"/><path d="m553.8 324.6a2.5 2.5 0 1 1 -4.9 0 2.5 2.5 0 0 1 5 0z" fill="#f7c600" fill-rule="evenodd" stroke="#000" stroke-width=".8"/><path d="m541.3 344.8h19.1s.3-2.5-2-4c10-1.4 7.5-10.2 15.9-10.7 1.6.2-4.4 3.8-4.4 3.8s-5 3.5-2.8 5.3c1.9 1.5 2.7-.8 3-2.6.2-1.7 8-2.9 7-7.9-2-4.1-13 2.8-13 2.8h-7.9c-.4-1-2.6-4.5-4.9-4.5-2.6 0-4.5 4.5-4.5 4.5h-17.8s-.6 4.5 8.4 5.4c2 2.7 3.7 3.4 5.4 4.1-1.2 1-1.5 2.2-1.5 3.8z" fill="#f7c600" fill-rule="evenodd" stroke="#000" stroke-width=".8"/><path d="m542.7 340.9h16m-23.3-9.4s1.3 7.4 7.2 9.2" fill="none" stroke="#000" stroke-width=".8"/><path d="m66.3 170.5c.5-2.1 1.3-2.5 2.2-5.2.1-2.7-2.2-2.4-1.5-4.1 1.2-1.9.6-3.6-1.6-5 .4 2.4-3 4.7-3 6.7s1.8 1.6 1.6 4.6c0 1.8-.5 1.3-.6 3h3z" fill="url(#l)" fill-rule="evenodd" stroke="#000" stroke-width=".6" transform="matrix(1.3225 0 0 1.3225 446.7 105.8)"/><path d="m553.6 313.7a2.3 2.3 0 1 1 -4.5 0 2.3 2.3 0 0 1 4.5 0z" fill="#f7c600" fill-rule="evenodd" stroke="#000" stroke-width=".8"/><path d="m434.7 298 12.3-18.1 12.4 18.1" fill="none" stroke="#f7c600" stroke-width="1.7"/><g stroke="#000"><path d="m449.5 291.2a2.5 2.5 0 1 1 -4.9 0 2.5 2.5 0 0 1 4.9 0z" fill="#f7c600" fill-rule="evenodd" stroke-width=".8"/><path d="m437 311.4h19.1s.3-2.4-2-4c10-1.3 7.5-10.2 15.9-10.7 1.6.3-4.4 3.8-4.4 3.8s-5 3.6-2.8 5.4c1.8 1.4 2.6-1 2.9-2.7s8.1-2.8 7-7.9c-1.9-4-12.9 2.8-12.9 2.8h-7.8c-.5-1-2.6-4.5-4.9-4.5-2.6.1-4.5 4.5-4.5 4.5h-17.8s-.6 4.6 8.4 5.4a10.8 10.8 0 0 0 5.4 4.1c-1.2 1-1.5 2.2-1.5 3.8z" fill="#f7c600" fill-rule="evenodd" stroke-width=".8"/><path d="m438.4 307.5h16m-23.4-9.5s1.2 7.5 7.1 9.2" fill="none" stroke-width=".8"/><path d="m66.3 170.5c.5-2.1 1.3-2.5 2.2-5.2.1-2.7-2.2-2.4-1.5-4.1 1.2-1.9.6-3.6-1.6-5 .4 2.4-3 4.7-3 6.7s1.8 1.6 1.6 4.6c0 1.8-.5 1.3-.6 3h3z" fill="url(#m)" fill-rule="evenodd" stroke-width=".6" transform="matrix(1.3225 0 0 1.3225 342.4 72.5)"/><path d="m449.3 280.3a2.3 2.3 0 1 1 -4.5 0 2.3 2.3 0 0 1 4.5 0z" fill="#f7c600" fill-rule="evenodd" stroke-width=".8"/><g><g stroke-width=".8"><path d="m500.7 384.2s5 11.5 10.7 4.4 3.6-10.1 3.6-10.1l-12.7-7-3.8 8z" fill="#f7c600" fill-rule="evenodd"/><path d="m511.7 382.6s.8.2 1.5-1-1.5-1.9-2.5-3.3l-1 2.3zm-28.9-3-11.2 6.1s-5.6 1.1-6 0 .2-2 3-2.2c3-.2 10.9-7.4 10.9-7.4zm.2-199.7.4 4c.1 1.4-2.2 4.4-2.4 4.2s-1.2.2-1 1 1.7 1.1 1.7 1.1-.7 3 0 3c.7.2-1.8 3.8 0 4.8s4.9 2.2 6.3 2c1.4-.4 0 5.3 0 5.3l-4 8.3 21.5-2.2-4.5-7s-2-1.4-1.5-5.5c.6-4-.3-22.2-.3-22.2l-15.2-2zm-4 31.7s-6.9 3.2-6.6 11.8c-1.8 8.3-2.7 16.6-2.7 16.6s-8.2 9.3-10.7 12.6-6.3 10.2-7.7 12-6.8 7.7-6.6 10c.1 2.2-1.3 12 4.1 13.1 1.4.6 5.9-11.3 5.9-11.3s.2-5.2-1.3-6.1 3.3-4.3 3.3-4.3l11.4-8.5c2.1-1.7 7.8-8 7.8-8l3.2-38z" fill="#ffc6b5" fill-rule="evenodd"/><path d="m487 205s1.8 4.9 5.8 4c4-.8 8.8-4.5 8.8-4.5s3.7-.1 4.3.4c.5.6 10.1 9.9 9.8 12.8s-4.4 2-6 4-4 6.8-3.3 10.4 2.8 8.3 2.5 10.1-1.8 2.4-1.8 3.4 1.3 2.6 1.3 4.4-1.7 4.4-1.4 6.3c.3 1.7.4 7 .4 7l-.4 24.4s1.4.9 1.5 2.3 9.4 41.7 9.4 41.7-.4 1.3-1.4 1.1 3.8 6.3 4 8 4.8 16 4.7 18c-.2 2-.9 6.2-1.3 6.4-.4.1 3 8.9 2.5 10.2-.6 1.4-6.2 1.3-6.2 1.3l-1.6-.3s.2 1.8-1 2-9.2-.5-9.2-.5-2.4 3.6-3.8 3.5-3.2-2.6-3.6-2.2 1.3 2.8.8 3.5c-.4.7-7.5 2.2-8.8-1.2-1.4-3.3.8-2.5.4-3.2-.4-.6-3.6-2.4-4.6-1.9s2.5 1.4 2.4 2.8c-.2 1.4-3 3.5-4.2 3.5s-3.8-5.2-7.6-4.6c-4 .5-6.4 1.5-6.4 1.5s-4.6 2-6.5 1.5c-2-.4-2.8-2-2.8-2.8s1.4-4.4 1.2-5.5-1.2-2.2-1.2-3.9c0-1.6 3.2-7.3 3.2-7.3l-.2-25.6s-2.9 0-3-1.8 4.4-40.4 5.1-42.9 2.5-11.3 2.5-11.3-2 1-2.2 0 6.2-23 6.2-23 1.1-11 1.1-14c0-2.9-.5-6.9-.5-6.9s-5.7-2.4-5.8-6c-.6-6 5.4-9.2 6-11.2l2.8-7.8s3.1-5.2 8.1-6z" fill="#fff" fill-rule="evenodd"/><path d="m485 381.3s-13.5 7-15.5 7.6-3.2-2.4-1.2-3c2-.5 5-.8 5-.8s-4.6-3.6-4.5-3.7l6.4-2.4c.1 0 2 3.6 3.2 3.4s4.9-3 4.9-3l1.6 1.9z" fill="#f7c600" fill-rule="evenodd"/><path d="m503.9 385.1c1.3 1.7 1.8 4.5 4.7 2.9s-1.5-4.8-1.5-4.8l-3.2 2zm5.3-.2s1.4 1 2.6-.2-2.5-3.9-2.5-3.9l-1.8 2.1z" fill="#ffc6b5" fill-rule="evenodd"/><path d="m505 210.5s-12.3 7.9-12 10.6m14.8-9.3-2.8 3.2m6.7.3s-6.1 5-5.2 8.2m-23.7-13.6s-1.8 3.7-1.4 5c.4 1.2 3.5 6 3.9 8.8.4 3 0 5 0 5m-5.7-11.9s.6 4.4 1.4 5.3c.8.8 3 4.6 3.3 6m-5.8 7.2s3.6 1.8 7-5.2m5.3-4.8c-.1 0-2.6 6.8 1.8 9.3s7.8 2.2 9.8 1.5c1.9-.7 4-2 4-2m-17.5-.5s.3 9.2 13.8 18.2m-13.2-9.6s-.2 8 5.1 11.7m-8-21.1s-4 11.9-7.1 13.1m6-4.4s-.2 8.6-1.3 11.7m-1.1 2s2.8 3.5 5.8 3.2c3-.2 4.3-3.9 6.4-3.3 2 .6 4 2.2 8.9 1.8m-7 3.6s0 7 1.3 7.8.7 7.2.7 7.2m-19-18.5s-.1 6.6-1 9c-.8 2.4-2.5 6.4-2.2 9.8m-5.3 4c.7-.3 3-2.4 3-2.4m1.3 1.5s-6 25.5-4.3 40.8m5.7-39.5s-3 19.1-1.6 22.7m.1-23.3 11.7.8m1.6-1.5s3.2 1.7 7.6 1.4m-9 7.9s-.5 32.7-1.4 40m18.5-32.5s3.6 28.7 5.7 31.3m-12.6-27.6s2.2 25.4 3.4 27.6m-35 8.9s4.4-1.4 8.3-5.6c4.4 6 11.2.3 11.2.3s10.5 7.2 15.3-.8c7.2 4.7 10.8-.7 10.8-.7s2.6 4 4.6 3.6m-11.6 2.8s5.5 25.4 13.5 32.6m-41.3-35.3s.7 21.3 1.9 36.2m-3-12.2s-.6 14-1.4 14.9m-6.7 1.3s1.5 6 9.2.4 7.7 2 8 3c.3.7 1.5 6.7 4.4 1.7m6.1-8.2s-1.2 12.4 9.8 3.3c11-9 12.7 0 13 2.7" fill="none"/><path d="m482.6 179.1s3 .4 4.7-.6c1.6-1 3.6-1.4 5 .6s2.3 1.8 2.3 1.8-2 5.1 0 5.7c2.1.6 3 .6 3.2 1.2.2.7-1.8 2.3-1.2 3 .5.6 1.5 1.5 1.6 2 .2.6-1.2 3-.8 3.5.4.6 1.7 2.8 2.5 2.8s.3 3.5 2.8 2.6 2.3-3 2.3-3 2.7-.4 3.4-2.8 2.3-3 2.3-3 3.4-1.7-1-4.5c0-19.4-12.8-17.4-12.8-17.4s-1.6-3.4-4-3c-2.6.4-2.7 3.3-4.5 3-1.8-.2-2.2-1.5-2.4-1.3-.1.1-1.6 2.9-1.6 3.6s-4.9-1-4.5 2.6 2.8 3.5 2.7 3.2z" fill="#9c5100" fill-rule="evenodd"/><path d="m495.9 174.4s-1 6 5.5 5.5c-.8 3.4 1.7 4.5 1.7 4.5m4.8 3.7c.2 0 3 1.8 0 4m-9.4.9s1.4 1.6 3 1.2c1.5-.4 4 1.6 4 1.6s2 .7 2.3.2m-17.7 2.3s4.7 1.8 7.7-5.7m-16.5-2.3 2.8.2" fill="none"/><path d="m481.7 193.1h2.5l-2.2 1" fill="none" stroke-linejoin="round"/></g><path d="m485.2 185.3c.4 0 2-.5 2.2 0 .3.3-1.6.6-2.2 0z" fill="none" stroke-linejoin="round" stroke-width="1.4"/><path d="m515.2 218.3c.1 0 4.5 13.7 5.1 17.2a112 112 0 0 1 1.7 19.3c-.7 2-7.8 11.2-8.6 13.6-.9 2.4-5.9 11.4-5.9 11.4s-1.2 8.9-1.8 9.3c-.5.4 1.5 2.6 1.3 3.3-.3.8-4 4.7-5.7 4.3s-4.3-2.4-4.4-4.2 0-7.7 1.3-9.3 7.8-16.9 8.2-17.9 6-13 6.1-15c.2-2.2-1.7-7-3.7-8.7-4.3-12.9-2.6-20.6 6.4-23.3z" fill="#ffc6b5" fill-rule="evenodd" stroke-width=".8"/><path d="m450.5 277.8.2 6.1m-5.9-6.5s4 6.5 3.6 10" fill="none" stroke-width=".8"/><path d="m497 291s3-.3 2.9 4.6c1.9-6 5.7-6.2 5.7-6.2" fill="none" stroke-linejoin="round" stroke-width=".8"/></g><path d="m487.1 430c58.6-1.7 96.5-44 96-44.4-.4-.4 7.8-11.8 14.3-10.2s15.9 20.8 27.3 24.8c5.7 9-1.7 17.1-4.1 18.8-2.5 1.6-13.4 6-15-.4-1.7-6.6-5-5.3-5-5.3s-52 50.8-112.3 48.8c-62.2.4-113.5-48.8-113.5-48.8l-4.5 4.8s-4.9 5.3-7.3 5c-2.4-.5-13-7.4-13.8-14.3-.8-7 6.5-11.4 6.5-11.4s17.9-13.8 20-21.2c4-4 11.7 2.9 11.7 2.9s47.2 54.1 99.7 50.8z" fill="#f7c600" fill-rule="evenodd" stroke-width="1.7"/><path d="m354.5 398.5s4.8-1.3 6.6.7 14 14 14 14" fill="none" stroke-width="1.7"/><path d="m365.5 404.1-4.8 3.6s12.2 2.5 9.4 10.5m250.2-20.2s-2.4-1.3-6.2 1.5a158.5 158.5 0 0 0 -13.4 13.6" fill="none" stroke-width="1.7"/><path d="m609.4 403.8 5.3 4s-11 .8-8.6 11.2" fill="none" stroke-width="1.7"/></g><path d="m416.5 411.4-.4.5a3.6 3.6 0 0 0 -2.5-.2c-.7.2-2 .8-3.9 2l-16.1 9.3-.4-.3 4-18.8c.5-2.3.7-3.7.7-4.2s-.4-1-1-1.6l.3-.5 8.7 6.2-.3.5-.3-.2c-.8-.5-1.4-.8-1.8-.8a.8.8 0 0 0 -.8.3 2.4 2.4 0 0 0 -.3.7l-.5 2.3-2.6 11.7 9.3-5.4a26 26 0 0 0 2.2-1.4l.8-.8c.2-.2.3-.5.3-.8l-.3-1a5.2 5.2 0 0 0 -1.4-1.3l.4-.5zm5.8 28-.3.5-10.2-5.6.3-.5.6.4c.6.3 1.1.4 1.6.4.3 0 .6-.1 1-.4l1-1.7 7-12.8c.6-1 1-1.7 1-2a1.6 1.6 0 0 0 -.3-1 3 3 0 0 0 -1.2-1l-.6-.4.3-.5 10.2 5.6-.3.5-.7-.3a3 3 0 0 0 -1.5-.5c-.3 0-.6.1-1 .4a6.8 6.8 0 0 0 -1.1 1.7l-7 12.9a7.3 7.3 0 0 0 -1 2c0 .3.2.6.4 1 .2.3.6.7 1.1 1zm37.3-8.8-2.6 7.4-.6-.2a10 10 0 0 0 -1.5-5.7 7.8 7.8 0 0 0 -4-3.2 6.2 6.2 0 0 0 -4.3 0 7.5 7.5 0 0 0 -3.5 2.9 19.4 19.4 0 0 0 -2.4 4.6c-.7 2-1.1 3.8-1.2 5.5s.3 3.1 1.1 4.2a7 7 0 0 0 3.4 2.4 8.6 8.6 0 0 0 1.6.4l1.8.1 1.6-4.4.4-1.6c0-.3-.2-.6-.5-1a2.8 2.8 0 0 0 -1.2-.7l-.5-.2.2-.6 10.2 3.7-.2.6c-.8-.3-1.4-.4-1.8-.3-.3 0-.7.2-1 .5l-.6 1.4-1.6 4.4c-1.5.1-3 0-4.6-.2a22.8 22.8 0 0 1 -4.7-1 14.1 14.1 0 0 1 -4.7-2.7 13.6 13.6 0 0 1 -2.7-3.3 10.9 10.9 0 0 1 -1.3-3.9 11 11 0 0 1 .6-5.1 11.4 11.4 0 0 1 6.2-6.8 12 12 0 0 1 9.5-.3c1 .3 2 .8 2.8 1.2l2 1.5a10 10 0 0 0 1.5 1.2h1a3 3 0 0 0 1-1zm15.7 25.3v.6l-11.6-1.8.1-.6.8.1a3 3 0 0 0 1.6 0l.7-.7c.2-.3.3-1 .5-2l2.2-14.5c.2-1.2.2-1.9.1-2.2a1.6 1.6 0 0 0 -.6-.8c-.3-.3-.8-.5-1.4-.6h-.7v-.7l11.6 1.8-.1.6-.7-.1a3 3 0 0 0 -1.6 0l-.8.7a7 7 0 0 0 -.5 2l-2.2 14.5a7.3 7.3 0 0 0 -.1 2.2c0 .3.3.6.6.8.3.3.8.5 1.4.6h.7m30-7.2-.5 7.9-19.8 1v-.6h.7a3 3 0 0 0 1.6-.5c.3-.2.5-.4.6-.8v-2l-.7-14.7a7.3 7.3 0 0 0 -.3-2.1c-.1-.3-.4-.5-.7-.7-.4-.2-1-.3-1.5-.3h-.8v-.6l11.9-.6v.6l-1 .1a3 3 0 0 0 -1.5.4c-.3.2-.5.5-.6.8-.2.3-.2 1-.1 2.1l.7 14.2c0 1.1.2 1.8.3 2.2.2.3.4.5.8.6h3.9a6.3 6.3 0 0 0 2.9-.8 5.5 5.5 0 0 0 2-2c.4-1 1-2.4 1.4-4.1h.6m21.6-3.8-7.5 2.2-.3 2.4v1.8c.3.6.6 1 1.2 1.1.3.1 1 0 2.2-.2l.2.6-7.1 2-.2-.5a3.3 3.3 0 0 0 1.6-1.5c.4-.7.6-2 .9-3.8l2.5-19.3h.3l13 15.1c1.2 1.5 2 2.3 2.7 2.6.4.2 1 .3 1.7.1l.1.6-10.3 3.1-.2-.6.5-.1c.8-.3 1.4-.5 1.6-.9a.9.9 0 0 0 .1-.8 2 2 0 0 0 -.2-.6l-.8-1zm-.9-1-5.3-6.4-1.1 8.3 6.4-2m28.5-29 2.9 5.4-.6.3a9.3 9.3 0 0 0 -2.4-2.1 4.5 4.5 0 0 0 -2.2-.5 5 5 0 0 0 -2.1.8l-1.5.8 8.2 15.1 1.1 1.8c.3.2.6.3 1 .3.5 0 1-.1 1.5-.4l.7-.4.3.6-10.3 5.5-.3-.5.7-.4a3 3 0 0 0 1.2-1l.2-1c0-.3-.3-1-.8-2l-8.2-15-1.4.7c-1.3.7-2.1 1.5-2.4 2.4a6.3 6.3 0 0 0 .2 4.2l-.6.3-2.8-5.4 17.6-9.4m13.4-8 5.4 7.3.4-.3c1.1-.8 1.7-1.8 1.6-2.9s-.5-2.4-1.4-3.9l.5-.3 7 9.3-.4.4a8.6 8.6 0 0 0 -2.6-2 3.5 3.5 0 0 0 -2.1-.4c-.7 0-1.4.4-2.2 1l3.7 5a9.6 9.6 0 0 0 1.5 1.8l.9.2c.3 0 .7-.3 1.3-.6l1-.8a8 8 0 0 0 3.1-4.2 8 8 0 0 0 -.5-5.2l.5-.3 3.5 6.2-15.4 11.6-.3-.5.6-.4c.5-.4.8-.8 1-1.2v-1a6.8 6.8 0 0 0 -1-1.8l-8.9-11.7-1.2-1.4a1.6 1.6 0 0 0 -1-.4c-.5 0-1 .3-1.6.7l-.6.4-.4-.4 14.9-11.3 4 5.3-.6.4a7.8 7.8 0 0 0 -3.1-2 5 5 0 0 0 -2.9.2c-.6.2-1.6.9-3 1.9l-1.7 1.4"/><path d="m380.5 413c72.8 59.1 144.2 60.2 214 0" fill="none"/></g></svg>