<svg viewBox="0 0 640 480" xmlns="http://www.w3.org/2000/svg"><g fill-rule="evenodd" stroke-width="1pt"><path d="m0 0h640v480h-640z" fill="#ce1126"/><path d="m0 0h320v240h-320z" fill="#002b7f"/><path d="m180 229.3-20.7-14-19.9 14.1 6.5-24.9-19-15.2 24.5-1.5 8.1-23.6 8.8 24 24 .7-19 16.3zm-3.6-165.6-16.6-10.7-16 10.4 4.4-20-14.6-12.7 19.4-1.6 7.2-18.6 7.4 18.7 19.1 1.7-14.7 13.4zm-73 59.5-16-11-16.7 11 5.2-19.4-15.1-12.8 19.2-1 7-19 6.8 18.9 19.6 1.1-15 12.5zm146.6-13.2-15.4-10-15 10 4.4-18.3-14-11.8 18.3-1.5 6.3-17.2 7 17.4 17.7 1-13.7 12.3zm-43.1 43.4-10.3-6.4-10.3 6.6 2.7-12.3-9.2-8.3 12-1 4.6-11.6 4.9 11.6 11.9 1-9.1 8.3z" fill="#fff"/></g></svg>