<svg height="480" viewBox="0 0 640 480" width="640" xmlns="http://www.w3.org/2000/svg" xmlns:xlink="http://www.w3.org/1999/xlink"><clipPath id="a"><path d="m-71.873-.012h682.68v512.01h-682.68z"/></clipPath><g clip-path="url(#a)" transform="matrix(.93748 0 0 .93748 67.379 .011)"><g fill-rule="evenodd" stroke-width="1pt"><path d="m-71.878 407.837v-303.409l225.832 151.627-225.832 151.793z"/><path d="m82.217 512.121 253.538-170.644h360.372v170.644z" fill="#00c"/><path d="m65.917.062 630.19.013v170.672h-360.372s-266.44-172.373-269.818-170.685z" fill="#f00"/><path d="m-71.878 64.075v40.329l225.832 151.626-225.832 151.793v40.327l284.44-192.12z" fill="#fc0"/><path d="m-71.878 64.075v-64.013h94.891l301.313 203.88h371.778v104.261h-371.778l-301.313 203.85h-94.89v-63.903l284.439-192.12z" fill="#093"/><path d="m23.013.062h59.194l253.538 170.673h360.372v33.207h-371.778l-301.314-203.88zm0 512.059h59.194l253.538-170.644h360.372v-33.206h-371.778l-301.314 203.849z" fill="#fff"/></g></g></svg>