<?xml version="1.0" encoding="utf-8"?>
<!-- Generator: Adobe Illustrator 18.0.0, SVG Export Plug-In . SVG Version: 6.00 Build 0)  -->
<!DOCTYPE svg PUBLIC "-//W3C//DTD SVG 1.1//EN" "http://www.w3.org/Graphics/SVG/1.1/DTD/svg11.dtd">
<svg version="1.1" id="Layer_1" xmlns="http://www.w3.org/2000/svg" xmlns:xlink="http://www.w3.org/1999/xlink" x="0px" y="0px"
	 viewBox="984 984 32 32" enable-background="new 984 984 32 32" xml:space="preserve">
<rect x="-43.8" y="-437.5" fill="none" width="2743.8" height="2625"/>
<g>
	<path fill="#375273" d="M986.1,995l2.2-2.2c0.2-0.2,0.5-0.4,0.9-0.4c0.3,0,0.6,0.1,0.8,0.4l1.6,1.6l-3.9,3.9l-1.6-1.6
		c-0.2-0.2-0.3-0.5-0.3-0.8C985.8,995.5,985.9,995.2,986.1,995z M1000,1002.8v3.9h-3.9l-7.8-7.8l3.9-3.9L1000,1002.8z M991.7,996.9
		l5.1,5.1c0,0,0.1,0.1,0.2,0.1c0.1,0,0.2-0.1,0.2-0.2c0-0.1,0-0.1-0.1-0.2l-5.1-5.1c0,0-0.1-0.1-0.2-0.1c-0.1,0-0.2,0.1-0.2,0.2
		C991.7,996.8,991.7,996.9,991.7,996.9z M997.6,1005.5v-1.2h1.2v-1l-0.9-0.9l-2.2,2.2l0.9,0.9H997.6z"/>
</g>
<g>
	<path fill="#375273" d="M1013.2,994.1c-0.2-0.4-0.4-0.8-0.6-1l-4.2-4.2c-0.3-0.3-0.6-0.5-1-0.6c-0.4-0.2-0.8-0.3-1.2-0.3h-12
		c-0.4,0-0.7,0.1-0.9,0.4c-0.2,0.3-0.4,0.6-0.4,0.9v6.4l1.7,1.7v-7.7h10.3v5.6c0,0.4,0.1,0.7,0.4,0.9c0.3,0.3,0.6,0.4,0.9,0.4h5.6
		v13.7h-17.2v-5.1l-1.7-1.7v7.2c0,0.4,0.1,0.7,0.4,0.9c0.3,0.2,0.6,0.4,0.9,0.4h18c0.4,0,0.7-0.1,0.9-0.4c0.2-0.3,0.4-0.6,0.4-0.9
		v-15.4C1013.5,994.9,1013.4,994.5,1013.2,994.1z M1006.6,994.9v-5c0.3,0.1,0.4,0.2,0.5,0.3l4.2,4.2c0.1,0.1,0.2,0.3,0.3,0.5H1006.6
		z"/>
</g>
</svg>
