<?xml version="1.0" encoding="utf-8"?>
<!-- Generator: Adobe Illustrator 18.0.0, SVG Export Plug-In . SVG Version: 6.00 Build 0)  -->
<!DOCTYPE svg PUBLIC "-//W3C//DTD SVG 1.1//EN" "http://www.w3.org/Graphics/SVG/1.1/DTD/svg11.dtd">
<svg version="1.1" id="Layer_1" xmlns="http://www.w3.org/2000/svg" xmlns:xlink="http://www.w3.org/1999/xlink" x="0px" y="0px"
	 viewBox="0 0 32 32" enable-background="new 0 0 32 32" xml:space="preserve">
<g>
	<path fill="#375273" d="M28.5,21.3v4.8c0,0.4-0.1,0.7-0.4,1s-0.6,0.4-1,0.4H4.9c-0.4,0-0.7-0.1-1-0.4s-0.4-0.6-0.4-1v-4.8
		c0-0.4,0.1-0.7,0.4-1s0.6-0.4,1-0.4h7l2,2c0.6,0.6,1.3,0.8,2,0.8c0.8,0,1.5-0.3,2-0.8l2-2h7c0.4,0,0.7,0.1,1,0.4
		S28.5,20.9,28.5,21.3z M23.6,12.7c0.2,0.4,0.1,0.8-0.2,1.1l-6.8,6.8c-0.2,0.2-0.4,0.3-0.7,0.3c-0.3,0-0.5-0.1-0.7-0.3l-6.8-6.8
		c-0.3-0.3-0.4-0.6-0.2-1.1c0.2-0.4,0.5-0.6,0.9-0.6h3.9V5.4c0-0.3,0.1-0.5,0.3-0.7c0.2-0.2,0.4-0.3,0.7-0.3h3.9
		c0.3,0,0.5,0.1,0.7,0.3s0.3,0.4,0.3,0.7v6.8h3.9C23.2,12.1,23.5,12.3,23.6,12.7z M22.5,25.4c0.2-0.2,0.3-0.4,0.3-0.7
		c0-0.3-0.1-0.5-0.3-0.7c-0.2-0.2-0.4-0.3-0.7-0.3s-0.5,0.1-0.7,0.3c-0.2,0.2-0.3,0.4-0.3,0.7c0,0.3,0.1,0.5,0.3,0.7
		c0.2,0.2,0.4,0.3,0.7,0.3S22.3,25.5,22.5,25.4z M26.3,25.4c0.2-0.2,0.3-0.4,0.3-0.7c0-0.3-0.1-0.5-0.3-0.7s-0.4-0.3-0.7-0.3
		c-0.3,0-0.5,0.1-0.7,0.3s-0.3,0.4-0.3,0.7c0,0.3,0.1,0.5,0.3,0.7s0.4,0.3,0.7,0.3C25.9,25.6,26.1,25.5,26.3,25.4z"/>
</g>
</svg>
