<?xml version="1.0" encoding="utf-8"?>
<!-- Generator: Adobe Illustrator 18.0.0, SVG Export Plug-In . SVG Version: 6.00 Build 0)  -->
<!DOCTYPE svg PUBLIC "-//W3C//DTD SVG 1.1//EN" "http://www.w3.org/Graphics/SVG/1.1/DTD/svg11.dtd">
<svg version="1.1" id="Layer_1" xmlns="http://www.w3.org/2000/svg" xmlns:xlink="http://www.w3.org/1999/xlink" x="0px" y="0px"
	 viewBox="0 0 32 32" enable-background="new 0 0 32 32" xml:space="preserve">
<g>
	<path fill="#FFFFFF" d="M28.8,18.6C28.8,18.7,28.8,18.7,28.8,18.6c0,0.2-0.1,0.3-0.2,0.5C28.7,19,28.8,18.8,28.8,18.6"/>
</g>
<g>
	<path fill="#733737" d="M26.4,17L26.4,17C26.4,17,26.5,17,26.4,17C26.5,17,26.4,17,26.4,17z"/>
	<path fill="#FFFFFF" d="M26.5,17C26.5,17,26.4,17,26.5,17C26.4,17,26.5,17,26.5,17"/>
</g>
<g>
	<path fill="#375273" d="M21.1,16l7.1,5.6c0.3,0.2,0.4,0.4,0.3,0.8c0,0.3-0.2,0.6-0.5,0.7l-1.8,0.9C26.1,24,26,24,25.8,24
		c-0.2,0-0.3,0-0.4-0.1l-9.6-5.4l-1.5,0.9c-0.1,0-0.1,0.1-0.2,0.1c0.1,0.5,0.2,0.9,0.1,1.4c-0.1,0.7-0.3,1.4-0.8,2.1
		c-0.5,0.7-1.1,1.2-1.8,1.7c-1.2,0.8-2.5,1.2-3.9,1.2c-1.3,0-2.3-0.4-3.1-1.1C3.8,24,3.4,23,3.5,21.8c0.1-0.7,0.3-1.4,0.8-2.1
		c0.5-0.7,1.1-1.2,1.8-1.7c1.2-0.8,2.5-1.2,3.9-1.2c0.8,0,1.5,0.1,2.1,0.4c0.1-0.1,0.2-0.2,0.3-0.3l1.7-1l-1.7-1
		c-0.1-0.1-0.2-0.2-0.3-0.3c-0.6,0.3-1.3,0.4-2.1,0.4c-1.4,0-2.7-0.4-3.9-1.2c-0.8-0.5-1.4-1.1-1.8-1.7c-0.5-0.7-0.7-1.3-0.8-2.1
		c0-0.5,0-1.1,0.2-1.6c0.2-0.5,0.5-0.9,0.9-1.3c0.8-0.7,1.8-1.1,3.1-1.1c1.3,0,2.6,0.4,3.9,1.2c0.8,0.5,1.4,1.1,1.8,1.7
		c0.5,0.7,0.7,1.3,0.8,2.1c0,0.4,0,0.9-0.1,1.4c0,0,0.1,0,0.2,0.1l1.5,0.9l9.6-5.4C25.5,8,25.7,8,25.8,8c0.1,0,0.3,0,0.4,0.1L28,9
		c0.3,0.1,0.4,0.4,0.5,0.7c0,0.3-0.1,0.6-0.3,0.8L21.1,16z M11.6,12.4c0.4-0.4,0.5-0.9,0.3-1.5c-0.2-0.6-0.7-1.2-1.5-1.6
		C9.5,8.7,8.6,8.4,7.7,8.4C7,8.4,6.5,8.6,6.1,8.9c-0.4,0.4-0.5,0.9-0.3,1.5s0.7,1.2,1.5,1.6c0.9,0.5,1.7,0.8,2.7,0.8
		C10.7,12.9,11.2,12.7,11.6,12.4z M10.4,22.8c0.8-0.5,1.2-1,1.5-1.6s0.1-1.1-0.3-1.5c-0.4-0.3-0.9-0.5-1.6-0.5
		c-0.9,0-1.8,0.3-2.7,0.8c-0.8,0.5-1.2,1-1.5,1.6c-0.2,0.6-0.1,1.1,0.3,1.5c0.4,0.3,0.9,0.5,1.6,0.5C8.6,23.6,9.5,23.3,10.4,22.8z
		 M16,17.3l1.3,0.4l10.3-8l-1.8-0.9l-10.7,6v1.6l-2.2,1.3l0.1,0.1c0,0,0.1,0,0.1,0.1c0,0,0.1,0.1,0.2,0.2c0.1,0.1,0.1,0.1,0.2,0.2
		l0.4,0.4L16,17.3z M12.9,14.2l1.3,0.8v-0.2c0-0.3,0.2-0.6,0.5-0.8l0.2-0.1l-1.1-0.7l-0.4,0.4c0,0-0.1,0.1-0.1,0.2
		c-0.1,0.1-0.1,0.1-0.2,0.2c0,0,0,0-0.1,0c0,0,0,0,0,0L12.9,14.2z M16.3,15.4c0.2-0.2,0.4-0.3,0.6-0.3c0.2,0,0.5,0.1,0.6,0.3
		c0.2,0.2,0.3,0.4,0.3,0.6s-0.1,0.5-0.3,0.6s-0.4,0.3-0.6,0.3c-0.2,0-0.5-0.1-0.6-0.3C16.1,16.5,16,16.2,16,16S16.1,15.5,16.3,15.4z
		 M25.8,23.1l1.8-0.9l-7.3-5.7l-2.5,1.9c0,0-0.1,0.1-0.2,0.1L25.8,23.1z"/>
</g>
</svg>
