<?xml version="1.0" encoding="utf-8"?>
<!-- Generator: Adobe Illustrator 18.0.0, SVG Export Plug-In . SVG Version: 6.00 Build 0)  -->
<!DOCTYPE svg PUBLIC "-//W3C//DTD SVG 1.1//EN" "http://www.w3.org/Graphics/SVG/1.1/DTD/svg11.dtd">
<svg version="1.1" id="Layer_1" xmlns="http://www.w3.org/2000/svg" xmlns:xlink="http://www.w3.org/1999/xlink" x="0px" y="0px"
	 viewBox="0 0 32 32" enable-background="new 0 0 32 32" xml:space="preserve">
<g>
	<path fill="#FFFFFF" d="M28.8,18.6C28.8,18.7,28.8,18.7,28.8,18.6c0,0.2-0.1,0.3-0.2,0.5C28.7,19,28.8,18.8,28.8,18.6"/>
</g>
<g>
	<path fill="#733737" d="M26.4,17L26.4,17C26.4,17,26.5,17,26.4,17C26.5,17,26.4,17,26.4,17z"/>
	<path fill="#FFFFFF" d="M26.5,17C26.5,17,26.4,17,26.5,17C26.4,17,26.5,17,26.5,17"/>
</g>
<g>
	<g>
		<path fill="#375273" d="M27.1,29.5c-0.4,0-0.7-0.1-0.9-0.4l-2.6-2.6c-0.9,0.6-2,0.9-3.1,0.9c-0.8,0-1.6-0.2-2.3-0.5
			c-0.7-0.3-1.3-0.7-1.9-1.2c-0.5-0.5-0.9-1.1-1.2-1.9c-0.3-0.7-0.5-1.5-0.5-2.3s0.2-1.6,0.5-2.3c0.3-0.7,0.7-1.3,1.2-1.9
			c0.5-0.5,1.1-0.9,1.9-1.2c0.7-0.3,1.5-0.5,2.3-0.5c0.8,0,1.6,0.2,2.3,0.5c0.7,0.3,1.3,0.7,1.9,1.2c0.5,0.5,0.9,1.1,1.2,1.9
			c0.3,0.7,0.5,1.5,0.5,2.3c0,1.1-0.3,2.2-0.9,3.1l2.6,2.6c0.2,0.2,0.4,0.5,0.4,0.9c0,0.3-0.1,0.6-0.4,0.9
			C27.8,29.4,27.5,29.5,27.1,29.5z M20.5,18.3c-0.9,0-1.7,0.3-2.3,1s-1,1.4-1,2.3c0,0.9,0.3,1.7,1,2.3c0.7,0.7,1.4,1,2.3,1
			c0.9,0,1.7-0.3,2.3-1c0.7-0.7,1-1.4,1-2.3c0-0.9-0.3-1.7-1-2.3S21.4,18.3,20.5,18.3z"/>
		<path fill="#FFFFFF" d="M20.5,16.1c0.8,0,1.5,0.1,2.2,0.4c0.7,0.3,1.3,0.7,1.8,1.2c0.5,0.5,0.9,1.1,1.2,1.8
			c0.3,0.7,0.4,1.4,0.4,2.2c0,1.2-0.3,2.2-1,3.2l2.7,2.7c0.2,0.2,0.3,0.4,0.3,0.7c0,0.3-0.1,0.5-0.3,0.7c-0.2,0.2-0.4,0.3-0.7,0.3
			c-0.3,0-0.5-0.1-0.7-0.3l-2.7-2.7c-0.9,0.7-2,1-3.2,1c-0.8,0-1.5-0.1-2.2-0.4c-0.7-0.3-1.3-0.7-1.8-1.2c-0.5-0.5-0.9-1.1-1.2-1.8
			c-0.3-0.7-0.4-1.4-0.4-2.2c0-0.8,0.1-1.5,0.4-2.2c0.3-0.7,0.7-1.3,1.2-1.8c0.5-0.5,1.1-0.9,1.8-1.2C19,16.2,19.8,16.1,20.5,16.1
			 M20.5,25.2c1,0,1.8-0.3,2.5-1c0.7-0.7,1-1.5,1-2.5c0-1-0.3-1.8-1-2.5c-0.7-0.7-1.5-1-2.5-1c-1,0-1.8,0.3-2.5,1
			c-0.7,0.7-1,1.5-1,2.5c0,1,0.3,1.8,1,2.5C18.7,24.9,19.5,25.2,20.5,25.2 M20.5,15.6c-0.8,0-1.6,0.2-2.4,0.5
			c-0.7,0.3-1.4,0.8-1.9,1.3c-0.5,0.5-1,1.2-1.3,1.9c-0.3,0.8-0.5,1.5-0.5,2.4c0,0.8,0.2,1.6,0.5,2.4c0.3,0.7,0.8,1.4,1.3,1.9
			c0.5,0.5,1.2,1,1.9,1.3c0.8,0.3,1.5,0.5,2.4,0.5c1.1,0,2.2-0.3,3.1-0.8l2.4,2.4c0.3,0.3,0.6,0.4,1.1,0.4c0.4,0,0.8-0.2,1.1-0.4
			c0.3-0.3,0.4-0.7,0.4-1.1c0-0.4-0.2-0.8-0.4-1.1l-2.4-2.4c0.6-0.9,0.8-2,0.8-3.1c0-0.8-0.2-1.6-0.5-2.4c-0.3-0.7-0.8-1.4-1.3-1.9
			c-0.5-0.5-1.2-1-1.9-1.3C22.1,15.7,21.3,15.6,20.5,15.6L20.5,15.6z M20.5,24.7c-0.8,0-1.6-0.3-2.2-0.9c-0.6-0.6-0.9-1.3-0.9-2.2
			c0-0.8,0.3-1.6,0.9-2.2c0.6-0.6,1.3-0.9,2.2-0.9c0.8,0,1.6,0.3,2.2,0.9c0.6,0.6,0.9,1.3,0.9,2.2s-0.3,1.6-0.9,2.2
			C22.1,24.4,21.4,24.7,20.5,24.7L20.5,24.7z"/>
	</g>
</g>
<g>
	<path fill="#375273" d="M12.9,14.8c1.5,0,2.7-0.5,3.8-1.6c1-1,1.6-2.3,1.6-3.8c0-1.5-0.5-2.7-1.6-3.8c-1-1-2.3-1.6-3.8-1.6
		c-1.5,0-2.7,0.5-3.8,1.6S7.5,7.9,7.5,9.4c0,1.5,0.5,2.7,1.6,3.8S11.4,14.8,12.9,14.8z"/>
	<path fill="#375273" d="M14.9,24c-0.3-0.8-0.5-1.5-0.5-2.4c0-0.8,0.2-1.6,0.5-2.4c0.3-0.7,0.8-1.4,1.3-1.9c0.5-0.5,1.2-1,1.9-1.3
		c0.8-0.3,1.5-0.5,2.4-0.5c0.2,0,0.5,0,0.7,0c-0.2-0.3-0.4-0.5-0.6-0.7c-0.3-0.3-0.7-0.6-1.2-0.7c-0.5-0.2-1-0.3-1.6-0.3
		c-0.1,0-0.3,0.1-0.6,0.3c-0.3,0.2-0.7,0.4-1,0.7c-0.4,0.2-0.9,0.5-1.5,0.7c-0.6,0.2-1.2,0.3-1.9,0.3s-1.2-0.1-1.9-0.3
		s-1.1-0.4-1.5-0.7c-0.4-0.2-0.7-0.5-1-0.7C8.2,14,8,13.9,7.9,13.9c-0.6,0-1.1,0.1-1.6,0.3s-0.9,0.4-1.2,0.7S4.5,15.6,4.3,16
		c-0.3,0.4-0.5,0.9-0.6,1.4c-0.1,0.5-0.3,1-0.4,1.5c-0.1,0.5-0.2,1.1-0.2,1.5s0,1,0,1.4c0,1.1,0.3,2,1,2.6c0.7,0.6,1.6,1,2.7,1h9
		C15.5,25,15.1,24.6,14.9,24z"/>
</g>
</svg>
