<?xml version="1.0" encoding="utf-8"?>
<!-- Generator: Adobe Illustrator 18.0.0, SVG Export Plug-In . SVG Version: 6.00 Build 0)  -->
<!DOCTYPE svg PUBLIC "-//W3C//DTD SVG 1.1//EN" "http://www.w3.org/Graphics/SVG/1.1/DTD/svg11.dtd">
<svg version="1.1" id="Layer_1" xmlns="http://www.w3.org/2000/svg" xmlns:xlink="http://www.w3.org/1999/xlink" x="0px" y="0px"
	 viewBox="984 984 32 32" enable-background="new 984 984 32 32" xml:space="preserve">
<g>
	<g>
		<path fill="#375273" d="M998.8,999c0,0.3-0.2,0.5-0.5,0.5h-0.8c-0.3,0-0.5-0.2-0.5-0.5v-12.5c0-0.3,0.2-0.5,0.5-0.5h0.8
			c0.3,0,0.5,0.2,0.5,0.5V999z"/>
	</g>
	<g>
		<path fill="#375273" d="M999.5,1001.4c0.3,0,0.4-0.2,0.2-0.4l-0.5-0.7c-0.2-0.2-0.5-0.4-0.8-0.4h-1.2c-0.3,0-0.6,0.2-0.8,0.4
			l-0.3,0.7c-0.2,0.2-0.1,0.4,0.2,0.4H999.5z"/>
	</g>
	<g>
		<path fill="#733737" d="M1007.1,1010.5c0,0.2-0.1,0.3-0.2,0.5l-1,1c-0.1,0.1-0.3,0.2-0.5,0.2c-0.2,0-0.3-0.1-0.5-0.2l-2.1-2.2
			l-2.2,2.1c-0.1,0.1-0.3,0.2-0.5,0.2c-0.2,0-0.3-0.1-0.5-0.2l-1-1c-0.1-0.1-0.2-0.3-0.2-0.5c0-0.2,0.1-0.3,0.2-0.5l2.1-2.1
			l-2.1-2.1c-0.2-0.1-0.2-0.3-0.2-0.5c0-0.2,0.1-0.3,0.2-0.5l1-0.9c0.1-0.1,0.3-0.2,0.5-0.2c0.2,0,0.3,0.1,0.5,0.2l2.2,2.1l2.1-2.1
			c0.1-0.1,0.3-0.2,0.5-0.2c0.2,0,0.3,0.1,0.5,0.2l1,1c0.1,0.1,0.2,0.3,0.2,0.5c0,0.2-0.1,0.3-0.2,0.5l-2.2,2.1l2.1,2.1
			C1007,1010.1,1007.1,1010.3,1007.1,1010.5z"/>
	</g>
	<g>
		<path fill="none" d="M1006.9,1005.8L1006.9,1005.8c0.1-0.2,0.2-0.3,0.2-0.5c0,0,0,0,0,0C1007.1,1005.5,1007,1005.6,1006.9,1005.8
			L1006.9,1005.8z"/>
		<path fill="#733737" d="M1004.7,1003.7L1004.7,1003.7C1004.8,1003.6,1004.8,1003.6,1004.7,1003.7
			C1004.8,1003.6,1004.8,1003.6,1004.7,1003.7z"/>
		<path fill="#733737" d="M1004.7,1007.9l2.2-2.1l0,0c0.1-0.2,0.2-0.4,0.2-0.5c0-0.2-0.1-0.4-0.2-0.4l-1-1c-0.2-0.1-0.3-0.2-0.5-0.2
			c-0.2,0-0.4,0-0.5,0.2l-2.1,2.1l-2.2-2.1c-0.2-0.1-0.3-0.2-0.5-0.2c-0.2,0-0.4,0.1-0.5,0.2l-1,0.9c-0.1,0.2-0.2,0.3-0.2,0.5
			c0,0.2,0,0.4,0.2,0.5l2.1,2.1l-2.1,2.1c-0.1,0.2-0.2,0.3-0.2,0.5c0,0.2,0.1,0.4,0.2,0.5l1,1c0.2,0.1,0.3,0.2,0.5,0.2
			c0.2,0,0.4-0.1,0.5-0.2l2.2-2.1l2,2.2c0.2,0.1,0.3,0.2,0.5,0.2c0.2,0,0.4-0.1,0.5-0.2l1-1c0.1-0.2,0.2-0.3,0.2-0.5
			c0-0.2-0.1-0.4-0.2-0.5L1004.7,1007.9z"/>
	</g>
	<path fill="#375273" d="M1000.9,1012c-0.2,0.2-0.4,0.3-0.7,0.3s-0.5-0.1-0.7-0.3l-1-1c-0.2-0.2-0.3-0.4-0.3-0.7s0.1-0.5,0.3-0.7
		l1.9-1.9l-1.6-1.6h-3.7c-0.3,0-0.6,0.2-0.6,0.5l-1.6,6.8c-0.1,0.3,0.1,0.5,0.4,0.5h4.2c0.3,0,0.7,0,1,0h4.2c0.3,0,0.4-0.2,0.4-0.5
		l-0.7-3L1000.9,1012z"/>
	<path fill="#375273" d="M998.2,1005.2c0-0.3,0.1-0.5,0.3-0.7l1-0.9c0.2-0.2,0.4-0.3,0.7-0.3c0.2,0,0.3,0,0.5,0.1l-0.3-1.1
		c-0.1-0.3-0.3-0.5-0.6-0.5h-3.8c-0.3,0-0.6,0.2-0.6,0.5l-0.7,3c-0.1,0.3,0.1,0.5,0.4,0.5h3.3
		C998.3,1005.7,998.2,1005.5,998.2,1005.2z"/>
</g>
</svg>
