<?xml version="1.0" encoding="utf-8"?>
<!-- Generator: Adobe Illustrator 18.0.0, SVG Export Plug-In . SVG Version: 6.00 Build 0)  -->
<!DOCTYPE svg PUBLIC "-//W3C//DTD SVG 1.1//EN" "http://www.w3.org/Graphics/SVG/1.1/DTD/svg11.dtd">
<svg version="1.1" id="Layer_1" xmlns="http://www.w3.org/2000/svg" xmlns:xlink="http://www.w3.org/1999/xlink" x="0px" y="0px"
	 viewBox="0 0 32 32" enable-background="new 0 0 32 32" xml:space="preserve">
<g>
	<path fill="#FFFFFF" d="M28.8,18.6C28.8,18.7,28.8,18.7,28.8,18.6c0,0.2-0.1,0.3-0.2,0.5C28.7,19,28.8,18.8,28.8,18.6"/>
</g>
<g>
	<path fill="#733737" d="M26.4,17L26.4,17C26.4,17,26.5,17,26.4,17C26.5,17,26.4,17,26.4,17z"/>
	<path fill="#FFFFFF" d="M26.5,17C26.5,17,26.4,17,26.5,17C26.4,17,26.5,17,26.5,17"/>
</g>
<path fill="#375273" d="M5.6,9.1C5.4,9.3,5.3,9.5,5.3,9.8v1.8c0,0.2,0.1,0.5,0.3,0.6c0.2,0.2,0.4,0.3,0.6,0.3h9.5
	c-0.1,0-0.2,0.1-0.3,0.2l-9.9,9.9c-0.2,0.2-0.2,0.3-0.2,0.4c0.1,0.1,0.2,0.2,0.4,0.2h9.9h0.7h9.9c0.2,0,0.4-0.1,0.4-0.2
	c0.1-0.1,0-0.3-0.2-0.4l-9.9-9.9c-0.1-0.1-0.2-0.1-0.3-0.2h9.5c0.2,0,0.5-0.1,0.6-0.3c0.2-0.2,0.3-0.4,0.3-0.6V9.8
	c0-0.2-0.1-0.5-0.3-0.6s-0.4-0.3-0.6-0.3H6.2C5.9,8.9,5.7,8.9,5.6,9.1z"/>
</svg>
