<?xml version="1.0" encoding="utf-8"?>
<!-- Generator: Adobe Illustrator 18.0.0, SVG Export Plug-In . SVG Version: 6.00 Build 0)  -->
<!DOCTYPE svg PUBLIC "-//W3C//DTD SVG 1.1//EN" "http://www.w3.org/Graphics/SVG/1.1/DTD/svg11.dtd">
<svg version="1.1" id="Layer_1" xmlns="http://www.w3.org/2000/svg" xmlns:xlink="http://www.w3.org/1999/xlink" x="0px" y="0px"
	 viewBox="0 0 32 32" enable-background="new 0 0 32 32" xml:space="preserve">
<g>
	<path fill="#375273" d="M26.7,17.3V24c0,0.2-0.1,0.5-0.3,0.6c-0.2,0.2-0.4,0.3-0.6,0.3H6.2c-0.2,0-0.5-0.1-0.6-0.3
		c-0.2-0.2-0.3-0.4-0.3-0.6v-6.7c0-0.6,0.1-1.1,0.3-1.7L9,7.9C9,7.7,9.2,7.5,9.5,7.3c0.2-0.2,0.5-0.2,0.7-0.2h11.6
		c0.2,0,0.5,0.1,0.7,0.2C22.8,7.5,23,7.7,23,7.9l3.3,7.7C26.6,16.2,26.7,16.7,26.7,17.3z M19.6,16.9H24c0,0,0-0.1,0-0.1
		c0,0,0-0.1,0-0.1l-3-6.9h-9.9l-3,6.9c0,0,0,0.1,0,0.1c0,0.1,0,0.1,0,0.1h4.4l1.3,2.7h4.5L19.6,16.9z"/>
</g>
</svg>
