<?xml version="1.0" encoding="utf-8"?>
<!-- Generator: Adobe Illustrator 18.0.0, SVG Export Plug-In . SVG Version: 6.00 Build 0)  -->
<!DOCTYPE svg PUBLIC "-//W3C//DTD SVG 1.1//EN" "http://www.w3.org/Graphics/SVG/1.1/DTD/svg11.dtd">
<svg version="1.1" id="Layer_1" xmlns="http://www.w3.org/2000/svg" xmlns:xlink="http://www.w3.org/1999/xlink" x="0px" y="0px"
	 viewBox="0 0 32 32" enable-background="new 0 0 32 32" xml:space="preserve">
<path fill="#375273" d="M25.7,3.9H6.3C5,3.9,3.9,5,3.9,6.3v19.5c0,1.3,1,2.3,2.3,2.3h19.5c1.3,0,2.3-1,2.3-2.3V6.3
	C28.1,5,27,3.9,25.7,3.9z M23.4,21.4c0,0.6-0.5,1.2-1.2,1.2h-1.5v-3.3c0-0.3-0.3-0.6-0.6-0.6c-0.3,0-0.6,0.3-0.6,0.6v3.3H18v-3.3
	c0-0.3-0.3-0.6-0.6-0.6c-0.3,0-0.6,0.3-0.6,0.6v3.3h-1.6v-3.3c0-0.3-0.3-0.6-0.6-0.6S14,18.9,14,19.3v3.3h-1.6v-3.3
	c0-0.3-0.3-0.6-0.6-0.6s-0.6,0.3-0.6,0.6v3.3H9.7c-0.6,0-1.2-0.5-1.2-1.2v-7.9c0-0.6,0.5-1.2,1.2-1.2h3.5v-1.7
	c0-0.6,0.5-1.2,1.2-1.2h3.3c0.6,0,1.2,0.5,1.2,1.2v1.7h3.5c0.6,0,1.2,0.5,1.2,1.2V21.4z"/>
</svg>
