<?xml version="1.0" encoding="utf-8"?>
<!-- Generator: Adobe Illustrator 18.0.0, SVG Export Plug-In . SVG Version: 6.00 Build 0)  -->
<!DOCTYPE svg PUBLIC "-//W3C//DTD SVG 1.1//EN" "http://www.w3.org/Graphics/SVG/1.1/DTD/svg11.dtd">
<svg version="1.1" id="Layer_1" xmlns="http://www.w3.org/2000/svg" xmlns:xlink="http://www.w3.org/1999/xlink" x="0px" y="0px"
	 viewBox="0 0 32 32" enable-background="new 0 0 32 32" xml:space="preserve">
<g>
	<path fill="#375273" d="M29.7,24.6v1.7H2.3V5.7H4v18.9H29.7z M28,7.9v5.8c0,0.2-0.1,0.3-0.3,0.4s-0.3,0-0.5-0.1l-1.6-1.6l-8.5,8.5
		C17.1,20.9,17,21,16.9,21s-0.2,0-0.3-0.1l-3.1-3.1l-5.6,5.6l-2.6-2.6l7.8-7.8c0.1-0.1,0.2-0.1,0.3-0.1c0.1,0,0.2,0,0.3,0.1l3.1,3.1
		l6.2-6.2l-1.6-1.6c-0.1-0.1-0.2-0.3-0.1-0.5c0.1-0.2,0.2-0.3,0.4-0.3h5.8c0.1,0,0.2,0,0.3,0.1C28,7.6,28,7.7,28,7.9z"/>
</g>
</svg>
