<?xml version="1.0" encoding="utf-8"?>
<!-- Generator: Adobe Illustrator 18.0.0, SVG Export Plug-In . SVG Version: 6.00 Build 0)  -->
<!DOCTYPE svg PUBLIC "-//W3C//DTD SVG 1.1//EN" "http://www.w3.org/Graphics/SVG/1.1/DTD/svg11.dtd">
<svg version="1.1" id="Layer_1" xmlns="http://www.w3.org/2000/svg" xmlns:xlink="http://www.w3.org/1999/xlink" x="0px" y="0px"
	 viewBox="0 0 32 32" enable-background="new 0 0 32 32" xml:space="preserve">
<g>
	<path fill="#375273" d="M23.7,9.2v2.2c0,0.1,0,0.1-0.1,0.2c-0.1,0.1-0.1,0.1-0.2,0.1l-1.9,0.3c-0.1,0.4-0.3,0.6-0.4,0.9
		c0.2,0.4,0.6,0.8,1.1,1.4c0.1,0.1,0.1,0.1,0.1,0.2c0,0.1,0,0.1-0.1,0.2c-0.2,0.2-0.5,0.6-1,1.1c-0.5,0.5-0.8,0.7-0.9,0.7
		c-0.1,0-0.1,0-0.3-0.1l-1.4-1.1c-0.3,0.1-0.6,0.3-0.9,0.4c-0.1,0.9-0.2,1.5-0.3,1.9c-0.1,0.2-0.1,0.3-0.4,0.3h-2.2
		c-0.1,0-0.1,0-0.2-0.1c-0.1-0.1-0.1-0.1-0.1-0.2l-0.3-1.9c-0.4-0.1-0.6-0.2-0.9-0.4l-1.4,1.1c-0.1,0.1-0.1,0.1-0.2,0.1
		c-0.1,0-0.1-0.1-0.2-0.1c-0.9-0.8-1.4-1.3-1.7-1.7c-0.1-0.1-0.1-0.1-0.1-0.2c0-0.1,0-0.1,0.1-0.2c0.1-0.1,0.3-0.4,0.5-0.6
		s0.4-0.6,0.6-0.7c-0.2-0.4-0.3-0.6-0.4-1l-1.8-0.3c-0.1,0-0.1-0.1-0.2-0.1c-0.1-0.1-0.1-0.1-0.1-0.2V9.1c0-0.1,0-0.1,0.1-0.2
		c0.1-0.1,0.1-0.1,0.2-0.1l1.9-0.3c0.1-0.3,0.2-0.6,0.4-0.9c-0.3-0.4-0.6-0.9-1.1-1.4C9.6,6.1,9.6,6,9.6,5.9s0-0.1,0.1-0.2
		c0.1-0.3,0.5-0.6,1-1.1c0.5-0.5,0.8-0.7,0.9-0.7c0.1,0,0.1,0,0.3,0.1l1.4,1.1c0.3-0.1,0.6-0.3,0.9-0.4c0.1-0.9,0.2-1.5,0.3-1.9
		c0.1-0.2,0.1-0.3,0.4-0.3h2.2c0.1,0,0.1,0,0.2,0.1c0.1,0.1,0.1,0.1,0.1,0.2l0.3,1.9c0.4,0.1,0.6,0.2,0.9,0.4L20.2,4
		c0.1-0.1,0.1-0.1,0.2-0.1c0.1,0,0.1,0,0.2,0.1c0.9,0.8,1.4,1.4,1.7,1.7c0.1,0.1,0.1,0.1,0.1,0.2s0,0.1-0.1,0.2
		c-0.1,0.1-0.3,0.4-0.5,0.6c-0.2,0.3-0.4,0.6-0.6,0.7c0.1,0.4,0.3,0.6,0.4,1l1.9,0.3c0.1,0,0.1,0.1,0.2,0.1
		C23.7,9,23.7,9.1,23.7,9.2z M17.8,12.1c0.5-0.5,0.7-1.1,0.7-1.8c0-0.7-0.2-1.3-0.7-1.8C17.3,8,16.7,7.7,16,7.7S14.7,8,14.2,8.5
		c-0.5,0.5-0.7,1.1-0.7,1.8c0,0.7,0.2,1.3,0.7,1.8s1.1,0.7,1.8,0.7S17.3,12.6,17.8,12.1z"/>
</g>
<path fill="#375273" d="M28.2,6.5c-0.4-0.4-0.9-0.6-1.5-0.6h-3.9c0,0,0,0.1,0,0.1c0,0.1,0,0.3-0.2,0.5c-0.1,0.1-0.2,0.2-0.3,0.4
	c-0.1,0.1-0.2,0.2-0.2,0.3c-0.1,0.2-0.2,0.3-0.3,0.5h4.9c0.1,0,0.2,0,0.3,0.1c0.1,0.1,0.1,0.2,0.1,0.3v11.1c0,0.1,0,0.2-0.1,0.3
	s-0.2,0.1-0.3,0.1H5.3c-0.1,0-0.2,0-0.3-0.1s-0.1-0.2-0.1-0.3V8c0-0.1,0-0.2,0.1-0.3c0.1-0.1,0.2-0.1,0.3-0.1h4.9
	c0,0-0.1-0.1-0.1-0.1C9.9,7.1,9.6,6.8,9.4,6.5C9.1,6.3,9.1,6,9.1,5.9c0,0,0-0.1,0-0.1H5.3c-0.6,0-1.1,0.2-1.5,0.6
	C3.4,6.9,3.1,7.4,3.1,8v14.6c0,0.6,0.2,1.1,0.6,1.5c0.4,0.4,0.9,0.6,1.5,0.6h7.3c0,0.3-0.1,0.7-0.2,1c-0.1,0.4-0.3,0.7-0.4,0.9
	c-0.1,0.3-0.2,0.5-0.2,0.6c0,0.2,0.1,0.4,0.3,0.6c0.2,0.2,0.4,0.3,0.6,0.3h6.9c0.2,0,0.4-0.1,0.6-0.3c0.2-0.2,0.3-0.4,0.3-0.6
	c0-0.1-0.1-0.3-0.2-0.6c-0.1-0.3-0.3-0.6-0.4-1c-0.1-0.4-0.2-0.7-0.2-1h7.3c0.6,0,1.1-0.2,1.5-0.6c0.4-0.4,0.6-0.9,0.6-1.5V8
	C28.9,7.4,28.6,6.9,28.2,6.5z"/>
</svg>
