<?xml version="1.0" encoding="utf-8"?>
<!-- Generator: Adobe Illustrator 18.0.0, SVG Export Plug-In . SVG Version: 6.00 Build 0)  -->
<!DOCTYPE svg PUBLIC "-//W3C//DTD SVG 1.1//EN" "http://www.w3.org/Graphics/SVG/1.1/DTD/svg11.dtd">
<svg version="1.1" id="Layer_1" xmlns="http://www.w3.org/2000/svg" xmlns:xlink="http://www.w3.org/1999/xlink" x="0px" y="0px"
	 viewBox="0 0 32 32" enable-background="new 0 0 32 32" xml:space="preserve">
<g>
	<g>
		<path fill="#427337" d="M24.2,11.2c0,0.3-0.1,0.5-0.3,0.7l-7.6,7.6L14.8,21c-0.2,0.2-0.4,0.3-0.7,0.3c-0.3,0-0.5-0.1-0.7-0.3
			l-1.4-1.4l-3.8-3.8c-0.2-0.2-0.3-0.4-0.3-0.7c0-0.3,0.1-0.5,0.3-0.7l1.4-1.4c0.2-0.2,0.4-0.3,0.7-0.3c0.3,0,0.5,0.1,0.7,0.3
			l3.1,3.1L21,9c0.2-0.2,0.4-0.3,0.7-0.3c0.3,0,0.5,0.1,0.7,0.3l1.4,1.4C24.1,10.7,24.2,10.9,24.2,11.2z"/>
	</g>
</g>
<path fill="#427337" d="M26.2,3.8c-0.2-0.2-0.5-0.3-0.7-0.3H16H6.6c-0.3,0-0.5,0.1-0.7,0.3C5.6,4,5.5,4.2,5.5,4.5V17
	c0,0.9,0.2,1.9,0.5,2.8c0.4,0.9,0.8,1.7,1.4,2.5C8,23,8.6,23.7,9.4,24.4c0.7,0.7,1.4,1.2,2.1,1.7c0.6,0.4,1.3,0.9,2,1.3
	c0.7,0.4,1.2,0.7,1.5,0.8c0.3,0.1,0.5,0.3,0.7,0.3c0.1,0.1,0.3,0.1,0.4,0.1c0.2,0,0.3,0,0.4-0.1c0.2-0.1,0.4-0.2,0.7-0.3
	c0.3-0.1,0.8-0.4,1.5-0.8c0.7-0.4,1.3-0.8,2-1.3c0.6-0.4,1.3-1,2.1-1.7c0.7-0.7,1.4-1.4,1.9-2.1c0.5-0.7,1-1.5,1.4-2.5
	c0.4-0.9,0.5-1.9,0.5-2.8V4.5C26.5,4.2,26.4,4,26.2,3.8z M24.6,12.6l-7.6,7.6l-1.4,1.4c-0.4,0.4-0.9,0.6-1.4,0.6
	c-0.5,0-1-0.2-1.4-0.6l-1.4-1.4l-3.8-3.8C7,16,6.8,15.5,6.8,15c0-0.5,0.2-1,0.6-1.4l1.4-1.4c0.4-0.4,0.9-0.6,1.4-0.6
	c0.5,0,1,0.2,1.4,0.6l2.4,2.4l6.2-6.2c0.4-0.4,0.9-0.6,1.4-0.6c0.5,0,1,0.2,1.4,0.6l1.4,1.4c0.4,0.4,0.6,0.9,0.6,1.4
	C25.2,11.7,25,12.2,24.6,12.6z"/>
</svg>
