<?xml version="1.0" encoding="utf-8"?>
<!-- Generator: Adobe Illustrator 18.0.0, SVG Export Plug-In . SVG Version: 6.00 Build 0)  -->
<!DOCTYPE svg PUBLIC "-//W3C//DTD SVG 1.1//EN" "http://www.w3.org/Graphics/SVG/1.1/DTD/svg11.dtd">
<svg version="1.1" id="Layer_1" xmlns="http://www.w3.org/2000/svg" xmlns:xlink="http://www.w3.org/1999/xlink" x="0px" y="0px"
	 viewBox="0 0 32 32" enable-background="new 0 0 32 32" xml:space="preserve">
<g>
	<g>
		<path fill="#733737" d="M30.2,26.2c0,0.3-0.1,0.6-0.3,0.9L28,29c-0.2,0.2-0.5,0.3-0.9,0.3c-0.3,0-0.6-0.1-0.9-0.3l-3.9-4l-3.9,3.9
			c-0.2,0.2-0.5,0.3-0.9,0.3c-0.3,0-0.6-0.1-0.9-0.3l-1.8-1.8c-0.2-0.2-0.3-0.5-0.3-0.9s0.1-0.6,0.3-0.9l3.9-3.9l-3.8-3.8
			c-0.3-0.2-0.4-0.6-0.4-0.9s0.1-0.6,0.3-0.9l1.9-1.7c0.2-0.2,0.5-0.3,0.9-0.3c0.3,0,0.6,0.1,0.9,0.3l3.8,3.9l3.9-3.9
			c0.2-0.2,0.5-0.3,0.9-0.3c0.3,0,0.6,0.1,0.9,0.3l1.8,1.8c0.2,0.2,0.3,0.5,0.3,0.9c0,0.3-0.1,0.6-0.3,0.9l-3.9,3.9l3.9,3.9
			C30.1,25.6,30.2,25.9,30.2,26.2z"/>
	</g>
</g>
<path fill="#375273" d="M15.9,23.3l2-2l-3.5-3.5c-0.4-0.3-0.6-0.8-0.6-1.3c0-0.5,0.2-0.9,0.5-1.2l0,0l0,0l1.9-1.7
	c0.3-0.3,0.8-0.5,1.3-0.5c0.5,0,0.9,0.2,1.2,0.5l0,0l0,0l3.5,3.5l2.1-2.1V6.6c0-0.8-0.7-1.5-1.5-1.5H14c-0.8,0-1.5,0.7-1.5,1.5v3H2
	v12.2c0,0.8,0.7,1.5,1.5,1.5H14H15.9z"/>
</svg>
