<?xml version="1.0" encoding="utf-8"?>
<!-- Generator: Adobe Illustrator 18.0.0, SVG Export Plug-In . SVG Version: 6.00 Build 0)  -->
<!DOCTYPE svg PUBLIC "-//W3C//DTD SVG 1.1//EN" "http://www.w3.org/Graphics/SVG/1.1/DTD/svg11.dtd">
<svg version="1.1" id="Layer_1" xmlns="http://www.w3.org/2000/svg" xmlns:xlink="http://www.w3.org/1999/xlink" x="0px" y="0px"
	 viewBox="0 0 32 32" enable-background="new 0 0 32 32" xml:space="preserve">
<g>
	<path fill="#733737" d="M26.5,9.9c1.1,1.9,1.6,3.9,1.6,6.1s-0.5,4.2-1.6,6.1c-1.1,1.9-2.6,3.3-4.4,4.4c-1.9,1.1-3.9,1.6-6.1,1.6
		s-4.2-0.5-6.1-1.6c-1.9-1.1-3.3-2.6-4.4-4.4c-1.1-1.9-1.6-3.9-1.6-6.1s0.5-4.2,1.6-6.1c1.1-1.9,2.6-3.3,4.4-4.4
		c1.9-1.1,3.9-1.6,6.1-1.6s4.2,0.5,6.1,1.6C23.9,6.6,25.4,8.1,26.5,9.9z M22,19.6c0-0.3-0.1-0.5-0.3-0.7L18.9,16l2.9-2.9
		c0.2-0.2,0.3-0.4,0.3-0.7c0-0.3-0.1-0.5-0.3-0.7l-1.4-1.4c-0.2-0.2-0.4-0.3-0.7-0.3c-0.3,0-0.5,0.1-0.7,0.3L16,13.1l-2.9-2.9
		c-0.2-0.2-0.4-0.3-0.7-0.3c-0.3,0-0.5,0.1-0.7,0.3l-1.4,1.4c-0.2,0.2-0.3,0.4-0.3,0.7c0,0.3,0.1,0.5,0.3,0.7l2.9,2.9l-2.9,2.9
		c-0.2,0.2-0.3,0.4-0.3,0.7c0,0.3,0.1,0.5,0.3,0.7l1.4,1.4c0.2,0.2,0.4,0.3,0.7,0.3c0.3,0,0.5-0.1,0.7-0.3l2.9-2.9l2.9,2.9
		c0.2,0.2,0.4,0.3,0.7,0.3c0.3,0,0.5-0.1,0.7-0.3l1.4-1.4C21.9,20.1,22,19.8,22,19.6z"/>
</g>
</svg>
