<?xml version="1.0" encoding="utf-8"?>
<!-- Generator: Adobe Illustrator 18.0.0, SVG Export Plug-In . SVG Version: 6.00 Build 0)  -->
<!DOCTYPE svg PUBLIC "-//W3C//DTD SVG 1.1//EN" "http://www.w3.org/Graphics/SVG/1.1/DTD/svg11.dtd">
<svg version="1.1" id="Layer_1" xmlns="http://www.w3.org/2000/svg" xmlns:xlink="http://www.w3.org/1999/xlink" x="0px" y="0px"
	 viewBox="0 0 32 32" enable-background="new 0 0 32 32" xml:space="preserve">
<g>
	<g>
		<path fill="#733737" d="M30.1,26.7c0,0.4-0.1,0.6-0.4,0.9l-1.8,1.8c-0.2,0.2-0.5,0.4-0.9,0.4c-0.4,0-0.6-0.1-0.9-0.4l-3.9-4
			l-3.9,3.9c-0.2,0.2-0.5,0.4-0.9,0.4c-0.4,0-0.6-0.1-0.9-0.4l-1.8-1.8c-0.2-0.2-0.4-0.5-0.4-0.9s0.1-0.6,0.4-0.9l3.9-3.9L14.6,18
			c-0.3-0.2-0.4-0.6-0.4-0.9c0-0.4,0.1-0.6,0.4-0.9l1.9-1.8c0.2-0.2,0.5-0.4,0.9-0.4c0.4,0,0.6,0.1,0.9,0.4l3.9,3.9l3.9-3.9
			c0.2-0.2,0.5-0.4,0.9-0.4c0.4,0,0.6,0.1,0.9,0.4l1.8,1.8c0.2,0.2,0.4,0.5,0.4,0.9c0,0.4-0.1,0.6-0.4,0.9L25.8,22l3.9,3.9
			C30,26.1,30.1,26.4,30.1,26.7z"/>
	</g>
	<g>
		<path fill="#375273" d="M9.3,12c0.8,0.8,1.8,1.2,2.9,1.2c1.1,0,2.1-0.4,2.9-1.2c0.8-0.8,1.2-1.8,1.2-2.9c0-1.1-0.4-2.1-1.2-2.9
			s-1.8-1.2-2.9-1.2c-1.1,0-2.1,0.4-2.9,1.2C8.5,6.9,8.1,7.9,8.1,9C8.1,10.2,8.5,11.2,9.3,12z"/>
		<path fill="#375273" d="M18.4,7.7c0.8,0,1.4-0.3,1.9-0.8c0.5-0.5,0.8-1.2,0.8-1.9c0-0.8-0.3-1.4-0.8-1.9c-0.5-0.5-1.2-0.8-1.9-0.8
			c-0.8,0-1.4,0.3-1.9,0.8c-0.5,0.5-0.8,1.2-0.8,1.9c0,0.8,0.3,1.4,0.8,1.9C17,7.4,17.7,7.7,18.4,7.7z"/>
		<path fill="#375273" d="M19.7,8.4c-0.4,0.2-0.9,0.2-1.3,0.2c-0.5,0-1-0.1-1.4-0.2c0,0.3,0.1,0.5,0.1,0.7c0,1-0.3,1.9-0.9,2.8
			c1.2,0,2.1,0.5,2.8,1.4h1.4c0.6,0,1.1-0.1,1.5-0.4c0.4-0.3,0.6-0.7,0.6-1.3c0-2.5-0.4-3.8-1.3-3.8c0,0-0.2,0.1-0.5,0.2
			C20.5,8,20.1,8.2,19.7,8.4z"/>
		<path fill="#375273" d="M6.1,7.7c0.8,0,1.4-0.3,1.9-0.8c0.5-0.5,0.8-1.2,0.8-1.9C8.8,4.2,8.5,3.5,8,3C7.5,2.4,6.8,2.2,6.1,2.2
			C5.3,2.2,4.6,2.4,4.1,3C3.6,3.5,3.3,4.2,3.3,4.9c0,0.8,0.3,1.4,0.8,1.9C4.6,7.4,5.3,7.7,6.1,7.7z"/>
		<path fill="#375273" d="M17.6,21.4l-3.2-3.2c-0.3-0.2-0.5-0.6-0.5-1.1c0-0.4,0.1-0.7,0.4-1.1l1.9-1.8c0.3-0.3,0.6-0.4,1.1-0.4
			c0.4,0,0.7,0.1,1.1,0.4l0.8,0.8c-0.1-0.3-0.2-0.6-0.4-0.8c-0.2-0.3-0.4-0.6-0.7-0.9c-0.3-0.2-0.6-0.4-0.9-0.6
			c-0.4-0.1-0.8-0.2-1.2-0.2c-0.1,0-0.2,0.1-0.5,0.2c-0.2,0.2-0.5,0.3-0.8,0.5c-0.3,0.2-0.7,0.4-1.1,0.5c-0.5,0.2-1,0.2-1.5,0.2
			c-0.5,0-1-0.1-1.4-0.2c-0.5-0.2-0.9-0.3-1.1-0.5c-0.3-0.2-0.5-0.4-0.8-0.5c-0.2-0.2-0.4-0.2-0.5-0.2c-0.4,0-0.8,0.1-1.2,0.2
			c-0.4,0.1-0.7,0.3-0.9,0.6c-0.3,0.2-0.5,0.5-0.7,0.9c-0.2,0.3-0.3,0.7-0.5,1c-0.1,0.4-0.2,0.7-0.3,1.2c-0.1,0.4-0.1,0.8-0.2,1.2
			c0,0.4,0,0.7,0,1.1c0,0.9,0.3,1.5,0.8,2c0.5,0.5,1.2,0.7,2.1,0.7h9.4C17.2,21.4,17.4,21.4,17.6,21.4z"/>
		<path fill="#375273" d="M8.3,11.8C7.7,11,7.4,10,7.4,9c0-0.2,0-0.4,0.1-0.7C7,8.5,6.5,8.6,6.1,8.6c-0.4,0-0.8-0.1-1.3-0.2
			C4.3,8.2,4,8,3.7,7.9C3.5,7.7,3.3,7.7,3.3,7.7c-0.9,0-1.3,1.3-1.3,3.8c0,0.6,0.2,1,0.6,1.3C2.9,13,3.4,13.2,4,13.2h1.4
			C6.2,12.3,7.1,11.8,8.3,11.8z"/>
	</g>
</g>
</svg>
