<?xml version="1.0" encoding="utf-8"?>
<!-- Generator: Adobe Illustrator 18.0.0, SVG Export Plug-In . SVG Version: 6.00 Build 0)  -->
<!DOCTYPE svg PUBLIC "-//W3C//DTD SVG 1.1//EN" "http://www.w3.org/Graphics/SVG/1.1/DTD/svg11.dtd">
<svg version="1.1" id="Layer_1" xmlns="http://www.w3.org/2000/svg" xmlns:xlink="http://www.w3.org/1999/xlink" x="0px" y="0px"
	 viewBox="0 0 32 32" enable-background="new 0 0 32 32" xml:space="preserve">
<g>
	<path fill="#375273" d="M28,8.7v14.6c0,0.6-0.2,1.1-0.6,1.5c-0.4,0.4-0.9,0.6-1.5,0.6H6.1c-0.6,0-1.1-0.2-1.5-0.6
		C4.2,24.4,4,23.9,4,23.3V8.7c0-0.6,0.2-1.1,0.6-1.5C5,6.8,5.6,6.6,6.1,6.6h19.7c0.6,0,1.1,0.2,1.5,0.6C27.8,7.6,28,8.1,28,8.7z
		 M26.3,23.3V12.1c0-0.1,0-0.2-0.1-0.3c-0.1-0.1-0.2-0.1-0.3-0.1H6.1c-0.1,0-0.2,0-0.3,0.1S5.7,12,5.7,12.1v11.1
		c0,0.1,0,0.2,0.1,0.3s0.2,0.1,0.3,0.1h19.7c0.1,0,0.2,0,0.3-0.1C26.2,23.5,26.3,23.4,26.3,23.3z M9.1,13.9v0.9c0,0.1,0,0.2-0.1,0.3
		c-0.1,0.1-0.2,0.1-0.3,0.1H7.9c-0.1,0-0.2,0-0.3-0.1c-0.1-0.1-0.1-0.2-0.1-0.3v-0.9c0-0.1,0-0.2,0.1-0.3s0.2-0.1,0.3-0.1h0.9
		c0.1,0,0.2,0,0.3,0.1S9.1,13.7,9.1,13.9z M9.1,17.3v0.9c0,0.1,0,0.2-0.1,0.3s-0.2,0.1-0.3,0.1H7.9c-0.1,0-0.2,0-0.3-0.1
		s-0.1-0.2-0.1-0.3v-0.9c0-0.1,0-0.2,0.1-0.3c0.1-0.1,0.2-0.1,0.3-0.1h0.9c0.1,0,0.2,0,0.3,0.1C9.1,17.1,9.1,17.2,9.1,17.3z
		 M9.1,20.7v0.9c0,0.1,0,0.2-0.1,0.3S8.8,22,8.7,22H7.9c-0.1,0-0.2,0-0.3-0.1s-0.1-0.2-0.1-0.3v-0.9c0-0.1,0-0.2,0.1-0.3
		s0.2-0.1,0.3-0.1h0.9c0.1,0,0.2,0,0.3,0.1S9.1,20.6,9.1,20.7z M24.6,13.9v0.9c0,0.1,0,0.2-0.1,0.3c-0.1,0.1-0.2,0.1-0.3,0.1H11.3
		c-0.1,0-0.2,0-0.3-0.1c-0.1-0.1-0.1-0.2-0.1-0.3v-0.9c0-0.1,0-0.2,0.1-0.3s0.2-0.1,0.3-0.1h12.9c0.1,0,0.2,0,0.3,0.1
		C24.5,13.6,24.6,13.7,24.6,13.9z M24.6,17.3v0.9c0,0.1,0,0.2-0.1,0.3c-0.1,0.1-0.2,0.1-0.3,0.1H11.3c-0.1,0-0.2,0-0.3-0.1
		s-0.1-0.2-0.1-0.3v-0.9c0-0.1,0-0.2,0.1-0.3c0.1-0.1,0.2-0.1,0.3-0.1h12.9c0.1,0,0.2,0,0.3,0.1C24.5,17.1,24.6,17.2,24.6,17.3z
		 M24.6,20.7v0.9c0,0.1,0,0.2-0.1,0.3C24.4,22,24.3,22,24.1,22H11.3c-0.1,0-0.2,0-0.3-0.1s-0.1-0.2-0.1-0.3v-0.9
		c0-0.1,0-0.2,0.1-0.3s0.2-0.1,0.3-0.1h12.9c0.1,0,0.2,0,0.3,0.1C24.5,20.5,24.6,20.6,24.6,20.7z"/>
</g>
</svg>
