<?xml version="1.0" encoding="utf-8"?>
<!-- Generator: Adobe Illustrator 18.0.0, SVG Export Plug-In . SVG Version: 6.00 Build 0)  -->
<!DOCTYPE svg PUBLIC "-//W3C//DTD SVG 1.1//EN" "http://www.w3.org/Graphics/SVG/1.1/DTD/svg11.dtd">
<svg version="1.1" id="Layer_1" xmlns="http://www.w3.org/2000/svg" xmlns:xlink="http://www.w3.org/1999/xlink" x="0px" y="0px"
	 viewBox="0 0 32 32" enable-background="new 0 0 32 32" xml:space="preserve">
<g>
	<path fill="#427337" d="M26,18.1C26,18.2,25.9,18.2,26,18.1c-0.6,2.5-1.8,4.4-3.6,5.9c-1.8,1.5-4,2.2-6.4,2.2
		c-1.3,0-2.6-0.2-3.8-0.7s-2.3-1.2-3.3-2.1l-1.7,1.7c-0.2,0.2-0.4,0.3-0.6,0.3c-0.2,0-0.4-0.1-0.6-0.3s-0.3-0.4-0.3-0.6v-6
		c0-0.2,0.1-0.4,0.3-0.6s0.4-0.3,0.6-0.3h6c0.2,0,0.4,0.1,0.6,0.3c0.2,0.2,0.3,0.4,0.3,0.6c0,0.2-0.1,0.4-0.3,0.6L11.3,21
		c0.6,0.6,1.4,1,2.2,1.4c0.8,0.3,1.6,0.5,2.5,0.5c1.2,0,2.3-0.3,3.3-0.9c1-0.6,1.9-1.4,2.5-2.4c0.1-0.2,0.3-0.7,0.7-1.6
		c0.1-0.2,0.2-0.3,0.4-0.3h2.6c0.1,0,0.2,0,0.3,0.1C25.9,17.9,26,18,26,18.1z M26.3,7.4v6c0,0.2-0.1,0.4-0.3,0.6s-0.4,0.3-0.6,0.3
		h-6c-0.2,0-0.4-0.1-0.6-0.3c-0.2-0.2-0.3-0.4-0.3-0.6c0-0.2,0.1-0.4,0.3-0.6l1.8-1.8c-1.3-1.2-2.9-1.8-4.7-1.8
		c-1.2,0-2.3,0.3-3.3,0.9c-1,0.6-1.9,1.4-2.5,2.4c-0.1,0.2-0.3,0.7-0.7,1.6c-0.1,0.2-0.2,0.3-0.4,0.3H6.4c-0.1,0-0.2,0-0.3-0.1
		C6,14.1,6,14,6,13.9v-0.1c0.6-2.4,1.8-4.3,3.6-5.8c1.8-1.5,4-2.2,6.4-2.2c1.3,0,2.6,0.2,3.8,0.7C21,7,22.1,7.7,23.1,8.6l1.7-1.7
		c0.2-0.2,0.4-0.3,0.6-0.3c0.2,0,0.4,0.1,0.6,0.3C26.2,7,26.3,7.2,26.3,7.4z"/>
</g>
</svg>
