<?xml version="1.0" encoding="utf-8"?>
<!-- Generator: Adobe Illustrator 18.0.0, SVG Export Plug-In . SVG Version: 6.00 Build 0)  -->
<!DOCTYPE svg PUBLIC "-//W3C//DTD SVG 1.1//EN" "http://www.w3.org/Graphics/SVG/1.1/DTD/svg11.dtd">
<svg version="1.1" id="Layer_1" xmlns="http://www.w3.org/2000/svg" xmlns:xlink="http://www.w3.org/1999/xlink" x="0px" y="0px"
	 viewBox="0 0 32 32" enable-background="new 0 0 32 32" xml:space="preserve">
<g>
	<path fill="#375273" d="M27.7,4.9c0.2,0.5,0.1,0.8-0.2,1.2l-8.2,8.2v12.4c0,0.5-0.2,0.8-0.7,1c-0.1,0.1-0.3,0.1-0.4,0.1
		c-0.3,0-0.6-0.1-0.8-0.3l-4.3-4.3c-0.2-0.2-0.3-0.5-0.3-0.8v-8.1L4.6,6.1C4.2,5.7,4.1,5.3,4.3,4.9c0.2-0.4,0.5-0.7,1-0.7h21.4
		C27.2,4.2,27.5,4.5,27.7,4.9z"/>
</g>
</svg>
