<?xml version="1.0" encoding="utf-8"?>
<!-- Generator: Adobe Illustrator 18.0.0, SVG Export Plug-In . SVG Version: 6.00 Build 0)  -->
<!DOCTYPE svg PUBLIC "-//W3C//DTD SVG 1.1//EN" "http://www.w3.org/Graphics/SVG/1.1/DTD/svg11.dtd">
<svg version="1.1" id="Layer_1" xmlns="http://www.w3.org/2000/svg" xmlns:xlink="http://www.w3.org/1999/xlink" x="0px" y="0px"
	 viewBox="0 0 32 32" enable-background="new 0 0 32 32" xml:space="preserve">
<g>
	<path fill="#375273" d="M28.9,7.9v16.3c0,0.6-0.2,1.1-0.6,1.5c-0.4,0.4-0.9,0.6-1.5,0.6H5.3c-0.6,0-1.1-0.2-1.5-0.6
		c-0.4-0.4-0.6-0.9-0.6-1.5V7.9c0-0.6,0.2-1.1,0.6-1.5c0.4-0.4,0.9-0.6,1.5-0.6h21.4c0.6,0,1.1,0.2,1.5,0.6
		C28.6,6.8,28.9,7.3,28.9,7.9z M26.7,7.4H5.3c-0.1,0-0.2,0-0.3,0.1S4.9,7.7,4.9,7.9v16.3c0,0.1,0,0.2,0.1,0.3
		c0.1,0.1,0.2,0.1,0.3,0.1h21.4c0.1,0,0.2,0,0.3-0.1c0.1-0.1,0.1-0.2,0.1-0.3V7.9c0-0.1,0-0.2-0.1-0.3S26.8,7.4,26.7,7.4z M11,9.9
		c0.5,0.5,0.8,1.1,0.8,1.8S11.5,13,11,13.5s-1.1,0.8-1.8,0.8S7.8,14,7.3,13.5c-0.5-0.5-0.8-1.1-0.8-1.8s0.2-1.3,0.8-1.8
		c0.5-0.5,1.1-0.8,1.8-0.8S10.5,9.4,11,9.9z M25.4,16.9v6H6.6v-2.6l4.3-4.3l2.1,2.1l6.9-6.9L25.4,16.9z"/>
</g>
</svg>
