<svg viewBox="0 0 22 22" xmlns="http://www.w3.org/2000/svg"><path d="m563.48818 752.55349c-.0558-.073-.1285-.11648-.21876-.13028l-1.9062-.29164c-.10421-.33332-.24664-.67355-.42717-1.0208.12491-.17363.31235-.41835.56231-.73441s.42704-.54684.53124-.69272c.0556-.0765.0832-.15624.0832-.2396 0-.0972-.0242-.1735-.0729-.22912-.24996-.35429-.82288-.94447-1.71877-1.77093-.0831-.0694-.17005-.10407-.26019-.10407-.1042 0-.18756.0312-.25008.0936l-1.47904 1.11464c-.28486-.14588-.59734-.27438-.93756-.38548l-.29164-1.91656c-.007-.0903-.0469-.16493-.1198-.224-.073-.0591-.15791-.0885-.25533-.0885h-2.3124c-.20137 0-.32642.0972-.375.29164-.0903.34713-.19102.99293-.30213 1.9374-.32641.10433-.64234.23628-.94792.39597l-1.43748-1.11465c-.0903-.0694-.18053-.10407-.2708-.10407-.15279 0-.48087.24816-.98436.74476-.5035.49659-.84538.8698-1.02604 1.11976-.0625.0903-.0937.17017-.0937.2396 0 .0834.0346.16672.10407.24996.46527.56256.83682 1.04164 1.11465 1.43761-.17363.31938-.30903.63889-.4062.95828l-1.93753.29163c-.0763.0139-.1423.0591-.19792.13553-.0556.0763-.0834.15624-.0834.23948v2.31252c0 .0904.0277.17184.0834.24472.0556.073.1285.1166.21877.13041l1.90633.28129c.0972.34022.23947.6839.42703 1.03102-.12491.17363-.31248.41835-.56243.73441-.24996.31606-.42717.54684-.53124.69272-.0556.0766-.0834.15624-.0834.2396 0 .0903.0243.17005.0729.23948.2708.37512.84372.95853 1.71877 1.75009.0765.0765.16327.11455.26044.11455.1042 0 .19101-.0312.26044-.0936l1.46881-1.11477c.28486.14588.59734.27438.93756.38561l.29164 1.91656c.007.0903.0469.16493.1198.224.0729.0592.15803.0885.2552.0885h2.31253c.20163 0 .32655-.0972.37526-.29164.0901-.34726.19076-.99293.30187-1.9374.32641-.1042.64247-.23627.94792-.39597l1.43761 1.12513c.0972.0624.18756.0936.2708.0936.15266 0 .47907-.24637.97899-.73951.50017-.49302.84385-.86814 1.03116-1.12513.0625-.0694.0938-.14921.0938-.23948 0-.0903-.0347-.17733-.1042-.26044-.49992-.61115-.87147-1.09023-1.11465-1.43748.13885-.25699.27438-.57292.40633-.94793l1.92704-.29151c.0832-.0139.15292-.0592.20841-.13565.0555-.0765.0831-.15637.0831-.2396v-2.3124c.00013-.0903-.0275-.17171-.0832-.24472zm-6.03109 3.26557c-.52075.52088-1.14929.78132-1.88549.78132-.73619 0-1.3646-.26044-1.88549-.78132-.52075-.52076-.78119-1.14917-.78119-1.88537 0-.73619.26031-1.3646.78119-1.88549.52089-.52075 1.14943-.78119 1.88549-.78119.7362 0 1.36474.26044 1.88549.78119.52076.52089.7812 1.1493.7812 1.88549 0 .7362-.26044 1.36461-.7812 1.88537z" fill="#00deba" transform="translate(-544.57133 -742.93363)"/></svg>