<?xml version="1.0" encoding="UTF-8" standalone="no"?>
<svg
   xmlns:dc="http://purl.org/dc/elements/1.1/"
   xmlns:cc="http://creativecommons.org/ns#"
   xmlns:rdf="http://www.w3.org/1999/02/22-rdf-syntax-ns#"
   xmlns:svg="http://www.w3.org/2000/svg"
   xmlns="http://www.w3.org/2000/svg"
   xmlns:sodipodi="http://sodipodi.sourceforge.net/DTD/sodipodi-0.dtd"
   xmlns:inkscape="http://www.inkscape.org/namespaces/inkscape"
   viewBox="0 0 32 32"
   version="1.1"
   id="svg4"
   sodipodi:docname="checking.svg"
   inkscape:version="0.92.4 5da689c313, 2019-01-14"
   width="32"
   height="32">
  <metadata
     id="metadata10">
    <rdf:RDF>
      <cc:Work
         rdf:about="">
        <dc:format>image/svg+xml</dc:format>
        <dc:type
           rdf:resource="http://purl.org/dc/dcmitype/StillImage" />
        <dc:title />
      </cc:Work>
    </rdf:RDF>
  </metadata>
  <defs
     id="defs8" />
  <sodipodi:namedview
     pagecolor="#ffffff"
     bordercolor="#666666"
     borderopacity="1"
     objecttolerance="10"
     gridtolerance="10"
     guidetolerance="10"
     inkscape:pageopacity="0"
     inkscape:pageshadow="2"
     inkscape:window-width="1366"
     inkscape:window-height="703"
     id="namedview6"
     showgrid="false"
     inkscape:zoom="7.5853273"
     inkscape:cx="11"
     inkscape:cy="11"
     inkscape:window-x="0"
     inkscape:window-y="0"
     inkscape:window-maximized="1"
     inkscape:current-layer="svg4" />
  <path
     d="m 29.931669,13.771266 c -0.09765,-0.12775 -0.224875,-0.20384 -0.38283,-0.22799 l -3.335852,-0.510369 c -0.182368,-0.58331 -0.43162,-1.178712 -0.747548,-1.786399 0.218593,-0.303853 0.546613,-0.732112 0.984043,-1.2852167 0.43743,-0.5531046 0.74732,-0.9569694 0.929671,-1.2122592 0.0973,-0.1338749 0.1456,-0.2734198 0.1456,-0.4192997 0,-0.1700999 -0.04235,-0.3036248 -0.127575,-0.4009598 C 26.959747,7.3087655 25.957137,6.2759511 24.389328,4.829647 24.243903,4.7081971 24.091741,4.6475247 23.933996,4.6475247 c -0.182351,0 -0.328231,0.0546 -0.437641,0.1637999 L 20.908034,6.7619433 C 20.409528,6.5066535 19.862688,6.2817786 19.267303,6.0873538 L 18.756932,2.7333759 C 18.744682,2.575351 18.674862,2.4447485 18.547282,2.3413761 18.419532,2.2379512 18.27094,2.1865012 18.100455,2.1865012 h -4.046703 c -0.352398,0 -0.571235,0.1700999 -0.65625,0.5103697 -0.158025,0.6074771 -0.334285,1.7376264 -0.528728,3.3904479 -0.571218,0.1825773 -1.124096,0.4134897 -1.658861,0.692947 L 8.6943222,4.8296295 C 8.5362972,4.7081796 8.3783946,4.6475072 8.220422,4.6475072 c -0.2673827,0 -0.841523,0.4342797 -1.7226311,1.3033291 C 5.6166654,6.8198683 5.0183751,7.4729854 4.7022199,7.9104151 4.5928448,8.06844 4.5382448,8.2082124 4.5382448,8.3297149 c 0,0.1459499 0.06055,0.2917598 0.1821226,0.4374297 0.814223,0.9844794 1.4644359,1.8228684 1.9506386,2.5158154 -0.3038526,0.558915 -0.5408028,1.118057 -0.7108504,1.676989 l -3.3906795,0.510352 c -0.1335251,0.02432 -0.2490252,0.103425 -0.3463602,0.237178 -0.0973,0.133525 -0.1459501,0.27342 -0.1459501,0.41909 v 4.046907 c 0,0.1582 0.048475,0.30072 0.1459501,0.42826 0.0973,0.12775 0.2248751,0.20405 0.3828477,0.228217 l 3.3360795,0.492257 c 0.1701001,0.595385 0.4190728,1.196825 0.747303,1.804284 -0.2185927,0.303852 -0.5468404,0.732112 -0.9842531,1.285217 -0.4374303,0.553105 -0.747548,0.956969 -0.9296706,1.212259 -0.0973,0.13405 -0.1459501,0.27342 -0.1459501,0.4193 0,0.158025 0.042525,0.297587 0.1275751,0.41909 0.4739003,0.656459 1.4765109,1.677426 3.0078493,3.062655 0.1338751,0.133875 0.2857227,0.200463 0.4557703,0.200463 0.1823501,0 0.3342677,-0.0546 0.4557702,-0.1638 l 2.5704178,-1.950847 c 0.498506,0.25529 1.045346,0.480165 1.640731,0.674817 l 0.510371,3.353978 c 0.01225,0.158025 0.08207,0.288628 0.20965,0.392 0.127575,0.1036 0.276553,0.154875 0.4466,0.154875 h 4.04693 c 0.352853,0 0.571463,-0.1701 0.656705,-0.51037 0.157676,-0.607704 0.333831,-1.737626 0.528273,-3.390448 0.571218,-0.182349 1.124323,-0.413472 1.658861,-0.692947 l 2.515819,1.968977 c 0.1701,0.1092 0.32823,0.1638 0.473901,0.1638 0.267155,0 0.838373,-0.431148 1.713233,-1.294142 0.875298,-0.862785 1.476738,-1.519244 1.804531,-1.968976 0.109375,-0.12145 0.16415,-0.261118 0.16415,-0.41909 0,-0.158025 -0.06073,-0.310327 -0.18235,-0.45577 -0.87486,-1.069512 -1.525073,-1.907901 -1.950639,-2.515588 0.242988,-0.449733 0.480166,-1.00261 0.711078,-1.658877 l 3.372322,-0.510142 c 0.1456,-0.02433 0.267611,-0.1036 0.364718,-0.237387 0.09713,-0.133875 0.145425,-0.273648 0.145425,-0.4193 v -4.046698 c 2.28e-4,-0.158024 -0.04812,-0.300492 -0.1456,-0.428259 z M 19.377255,19.48601 c -0.911313,0.91154 -2.011258,1.367309 -3.299609,1.367309 -1.288333,0 -2.388052,-0.455769 -3.29961,-1.367309 -0.911313,-0.911329 -1.367083,-2.011046 -1.367083,-3.299395 0,-1.288332 0.455543,-2.388049 1.367083,-3.299606 0.911558,-0.911312 2.011504,-1.367081 3.29961,-1.367081 1.288351,0 2.388296,0.455769 3.299609,1.367081 0.911331,0.911557 1.367101,2.011274 1.367101,3.299606 0,1.288349 -0.45577,2.388066 -1.367101,3.299395 z"
     id="path2"
     style="fill:#1d99f3;fill-opacity:1;stroke-width:1.75"
     inkscape:connector-curvature="0" />
</svg>
