<svg xmlns="http://www.w3.org/2000/svg" viewBox="0 0 21.4 25.4" width="21.4" height="25.4">
  <path d="M10.7 9.2c-1 0-1.8.3-2.5 1s-1 1.5-1 2.5.3 1.8 1 2.5 1.5 1 2.5 1 1.8-.3 2.5-1 1-1.5 1-2.5-.3-1.8-1-2.5-1.5-1-2.5-1zm10.7 2v3.1c0 .1 0 .2-.1.3-.1.1-.2.2-.3.2l-2.6.4c-.2.5-.4.9-.5 1.3.3.5.8 1.1 1.5 1.9.1.1.1.2.1.3 0 .1 0 .2-.1.3-.3.3-.7.8-1.4 1.5s-1.1 1-1.3 1c-.1 0-.2 0-.4-.1l-1.9-1.5c-.4.2-.8.4-1.3.5-.1 1.3-.3 2.1-.4 2.6-.1.3-.2.4-.5.4H9.1c-.1 0-.2 0-.3-.1-.1-.1-.2-.2-.2-.3l-.4-2.6c-.5-.1-.9-.3-1.3-.5l-2 1.5c-.1.1-.2.1-.3.1-.1 0-.2-.1-.3-.2C3.1 20.2 2.4 19.5 2 19c-.1-.1-.1-.2-.1-.3 0-.1 0-.2.1-.3.1-.2.4-.5.7-.9.3-.4.6-.8.8-1-.3-.5-.4-.9-.6-1.4l-2.5-.4c-.1 0-.2-.1-.3-.2-.1-.1-.1-.2-.1-.3v-3.1c0-.1 0-.2.1-.3.1-.1.2-.2.3-.2l2.6-.4c.1-.4.3-.9.5-1.3C3.1 8.4 2.6 7.7 2 7c-.1-.1-.1-.2-.1-.3 0-.1 0-.2.1-.3.2-.4.7-.9 1.4-1.5.7-.7 1.1-1 1.3-1 .1 0 .2 0 .4.1L7 5.5c.4-.2.8-.4 1.3-.5.1-1.3.3-2.1.4-2.6.1-.3.2-.4.5-.4h3.1c.1 0 .2 0 .3.1.1.1.1.2.2.3l.4 2.6c.5.1.9.3 1.3.5l2-1.5c.1-.1.2-.1.3-.1.1 0 .2 0 .3.1 1.2 1.1 2 1.9 2.3 2.4.1.1.1.2.1.3 0 .1 0 .2-.1.3-.1.2-.4.5-.7.9-.3.4-.6.8-.8 1 .2.5.4.9.6 1.4l2.6.4c.1 0 .2.1.3.2z" fill="teal"/>
</svg>
