<?xml version="1.0" encoding="utf-8"?>
<!-- Generator: Adobe Illustrator 22.1.0, SVG Export Plug-In . SVG Version: 6.00 Build 0)  -->
<svg version="1.1" id="Layer_1" xmlns="http://www.w3.org/2000/svg" xmlns:xlink="http://www.w3.org/1999/xlink" x="0px" y="0px"
	 viewBox="0 0 15 31" style="enable-background:new 0 0 15 31;" xml:space="preserve">
<style type="text/css">
	.st0{fill:#375273;}
</style>
<path class="st0" d="M7.5,1C3.9,1,0.9,4,0.9,7.6c0,3.6,3,6.6,6.6,6.6s6.6-3,6.6-6.6C14.1,4,11.2,1,7.5,1z M7.5,10.2l-4-4.3h4h4
	L7.5,10.2z"/>
<path class="st0" d="M7.5,16.9c-3.6,0-6.6,3-6.6,6.6c0,3.6,3,6.6,6.6,6.6s6.6-3,6.6-6.6C14.1,19.9,11.1,16.9,7.5,16.9z M7.5,25.3h-4
	l4-4.3l4,4.3H7.5z"/>
</svg>
