<?xml version="1.0" encoding="utf-8"?>
<!-- Generator: Adobe Illustrator 22.1.0, SVG Export Plug-In . SVG Version: 6.00 Build 0)  -->
<svg version="1.1" id="Layer_1" xmlns="http://www.w3.org/2000/svg" xmlns:xlink="http://www.w3.org/1999/xlink" x="0px" y="0px"
	 viewBox="0 0 15 31" style="enable-background:new 0 0 15 31;" xml:space="preserve">
<style type="text/css">
	.st0{fill:#282A74;}
</style>
<image style="display:none;overflow:visible;" width="15" height="31" xlink:href="collapse-expand.gif" >
</image>
<path class="st0" d="M7.53125,1.04774c-3.6416,0-6.59375,2.95209-6.59375,6.59375c0,3.6416,2.95215,6.59375,6.59375,6.59375
	S14.125,11.28309,14.125,7.64149C14.125,3.99982,11.17285,1.04774,7.53125,1.04774z M7.5,10.23524l-4-4.3125h4h4L7.5,10.23524z"/>
<path class="st0" d="M7.5,16.92274c-3.6416,0-6.59375,2.95209-6.59375,6.59375c0,3.6416,2.95215,6.59375,6.59375,6.59375
	s6.59375-2.95215,6.59375-6.59375C14.09375,19.87482,11.1416,16.92274,7.5,16.92274z M7.5,25.29774h-4l4-4.3125l4,4.3125H7.5z"/>
</svg>
