<?xml version="1.0" encoding="utf-8"?>
<!-- Generator: Adobe Illustrator 22.1.0, SVG Export Plug-In . SVG Version: 6.00 Build 0)  -->
<svg version="1.1" id="Layer_1" xmlns="http://www.w3.org/2000/svg" xmlns:xlink="http://www.w3.org/1999/xlink" x="0px" y="0px"
	 viewBox="0 0 23.7 18.1" style="enable-background:new 0 0 23.7 18.1;" xml:space="preserve">
<style type="text/css">
	.st0{fill:#375273;}
</style>
<path class="st0" d="M23,4.6L12.2,15.4l-2,2c-0.2,0.2-0.7,0.4-1,0.4c-0.4,0-0.7-0.2-1-0.4l-2-2L0.8,10C0.5,9.7,0.3,9.3,0.3,8.9
	s0.2-0.7,0.4-1l2-2c0.2-0.2,0.7-0.4,1-0.4c0.4,0,0.7,0.2,1,0.4l4.4,4.4l9.8-9.7c0.2-0.2,0.7-0.4,1-0.4c0.4,0,0.7,0.2,1,0.4l2,2
	c0.4,0.2,0.6,0.6,0.6,1C23.4,4,23.3,4.3,23,4.6z"/>
</svg>
