<?xml version="1.0" encoding="UTF-8" standalone="no"?>
<svg
   xmlns:dc="http://purl.org/dc/elements/1.1/"
   xmlns:cc="http://creativecommons.org/ns#"
   xmlns:rdf="http://www.w3.org/1999/02/22-rdf-syntax-ns#"
   xmlns:svg="http://www.w3.org/2000/svg"
   xmlns="http://www.w3.org/2000/svg"
   xmlns:sodipodi="http://sodipodi.sourceforge.net/DTD/sodipodi-0.dtd"
   xmlns:inkscape="http://www.inkscape.org/namespaces/inkscape"
   viewBox="0 0 32 32"
   version="1.1"
   id="svg4"
   sodipodi:docname="completed.svg"
   width="32"
   height="32"
   inkscape:version="0.92.4 5da689c313, 2019-01-14">
  <metadata
     id="metadata10">
    <rdf:RDF>
      <cc:Work
         rdf:about="">
        <dc:format>image/svg+xml</dc:format>
        <dc:type
           rdf:resource="http://purl.org/dc/dcmitype/StillImage" />
        <dc:title></dc:title>
      </cc:Work>
    </rdf:RDF>
  </metadata>
  <defs
     id="defs8" />
  <sodipodi:namedview
     pagecolor="#ffffff"
     bordercolor="#666666"
     borderopacity="1"
     objecttolerance="10"
     gridtolerance="10"
     guidetolerance="10"
     inkscape:pageopacity="0"
     inkscape:pageshadow="2"
     inkscape:window-width="1366"
     inkscape:window-height="703"
     id="namedview6"
     showgrid="false"
     inkscape:zoom="10.727273"
     inkscape:cx="11"
     inkscape:cy="11"
     inkscape:window-x="0"
     inkscape:window-y="0"
     inkscape:window-maximized="1"
     inkscape:current-layer="svg4" />
  <path
     d="m 26.459409,4.4661017 c -0.516225,0 -0.957263,0.18055 -1.318369,0.5422058 L 12.444515,17.728285 6.7572648,12.016753 C 6.3959336,11.655269 5.9548773,11.474547 5.4388961,11.474547 c -0.516225,0 -0.9533625,0.180742 -1.3146937,0.542206 l -2.6330625,2.634132 c -0.3613313,0.361465 -0.54198746,0.79879 -0.54198746,1.315217 0,0.516197 0.18056246,0.953983 0.54198746,1.315217 l 7.0056186,7.012105 2.6330635,2.630472 c 0.361087,0.361483 0.798468,0.542206 1.314693,0.542206 0.515981,0 0.957019,-0.180933 1.31835,-0.542206 L 16.395928,24.293424 30.407165,10.272873 C 30.768253,9.9114092 30.949153,9.4740834 30.949153,8.9576567 30.949396,8.44146 30.768215,8.0002434 30.407165,7.6387792 L 27.774103,5.0083075 C 27.413015,4.6468242 26.97539,4.4661017 26.459409,4.4661017 Z"
     id="path2"
     inkscape:connector-curvature="0"
     style="fill:#3daee9;stroke-width:1.89571881" />
</svg>
