<svg viewBox="0 0 22 22" xmlns="http://www.w3.org/2000/svg"><path d="m20.042015 13.95843c-.19446-.19447-.43048-.29164-.70844-.29164h-.99982v-2.00016c0-.36106-.13208-.67366-.39584-.93743-.26389-.26402-.57663-.39596-.93769-.39596h-5.33333v-2.00003h.99982c.27796 0 .51411-.0972.70844-.29164.19447-.19434.29151-.43049.29151-.70832v-3.3333c0-.27783-.0972-.51397-.29151-.70831-.19446-.19447-.43048-.29164-.70844-.29164h-3.3333c-.27783 0-.51385.0972-.70831.29164-.19447.19434-.29164.43048-.29164.70831v3.3333c0 .27783.0972.51385.29164.70832.19433.19447.43048.29164.70831.29164h.99995v2.00003h-5.33333c-.36119 0-.67367.13207-.93756.39596-.26389.26377-.39584.57637-.39584.93743v2.00016h-1.00008c-.2777 0-.51385.0973-.70831.29164-.19447.19434-.29164.43049-.29164.70832v3.3333c0 .27783.0972.51397.29164.70831.19446.19447.43061.29164.70831.29164h3.33343c.2777 0 .51385-.0973.70832-.29164.19446-.19434.29163-.43048.29163-.70831v-3.3333c0-.27783-.0972-.51385-.29163-.70832-.19447-.19447-.43062-.29164-.70832-.29164h-1.00008v-2.00016h5.33333v2.00016h-.99995c-.27783 0-.51385.0973-.70831.29164-.19447.19434-.29164.43049-.29164.70832v3.3333c0 .27783.0972.51397.29164.70831.19434.19447.43048.29164.70831.29164h3.3333c.27796 0 .51398-.0973.70845-.29164.19434-.19446.29163-.43048.29163-.70831v-3.3333c0-.27783-.0972-.51385-.29163-.70832-.19447-.19447-.43049-.29164-.70845-.29164h-.99982v-2.00016h5.33346v2.00016h-1.00008c-.2777 0-.51398.0973-.70844.29164-.19434.19447-.29151.43049-.29151.70832v3.3333c0 .27783.0972.51397.29151.70831.19446.19447.43074.29164.70844.29164h3.33343c.2777 0 .51372-.0973.70819-.29164.19446-.19434.29163-.43048.29163-.70831v-3.3333c0-.27783-.0972-.51398-.29138-.70832z" fill="#da4453"/></svg>