<?xml version="1.0" encoding="utf-8"?>
<!-- Generator: Adobe Illustrator 22.1.0, SVG Export Plug-In . SVG Version: 6.00 Build 0)  -->
<svg version="1.1" id="Layer_1" xmlns="http://www.w3.org/2000/svg" xmlns:xlink="http://www.w3.org/1999/xlink" x="0px" y="0px"
	 viewBox="0 0 21.2 22.4" style="enable-background:new 0 0 21.2 22.4;" xml:space="preserve">
<style type="text/css">
	.st0{fill:#427337;}
</style>
<path class="st0" d="M20.5,12.7l-9,9c-0.3,0.3-0.5,0.4-0.9,0.4S9.9,22,9.7,21.7l-9-9c-0.4-0.4-0.5-0.8-0.3-1.5
	c0.3-0.5,0.7-0.8,1.2-0.8h5.2V1.6c0-0.4,0.1-0.7,0.4-0.9c0.3-0.3,0.5-0.4,0.9-0.4h5.2c0.4,0,0.7,0.1,0.9,0.4
	c0.2,0.2,0.4,0.5,0.4,0.9v9h5.2c0.5-0.1,0.9,0.1,1.1,0.7C21.1,11.8,20.9,12.3,20.5,12.7z"/>
</svg>
