<?xml version="1.0" encoding="UTF-8" standalone="no"?>
<svg
   xmlns:dc="http://purl.org/dc/elements/1.1/"
   xmlns:cc="http://creativecommons.org/ns#"
   xmlns:rdf="http://www.w3.org/1999/02/22-rdf-syntax-ns#"
   xmlns:svg="http://www.w3.org/2000/svg"
   xmlns="http://www.w3.org/2000/svg"
   xmlns:sodipodi="http://sodipodi.sourceforge.net/DTD/sodipodi-0.dtd"
   xmlns:inkscape="http://www.inkscape.org/namespaces/inkscape"
   viewBox="0 0 32 32"
   version="1.1"
   id="svg4"
   sodipodi:docname="downloading_LOCAL_7148.svg"
   inkscape:version="0.92.4 5da689c313, 2019-01-14"
   width="32"
   height="32">
  <metadata
     id="metadata10">
    <rdf:RDF>
      <cc:Work
         rdf:about="">
        <dc:format>image/svg+xml</dc:format>
        <dc:type
           rdf:resource="http://purl.org/dc/dcmitype/StillImage" />
        <dc:title></dc:title>
      </cc:Work>
    </rdf:RDF>
  </metadata>
  <defs
     id="defs8" />
  <sodipodi:namedview
     pagecolor="#ffffff"
     bordercolor="#666666"
     borderopacity="1"
     objecttolerance="10"
     gridtolerance="10"
     guidetolerance="10"
     inkscape:pageopacity="0"
     inkscape:pageshadow="2"
     inkscape:window-width="1366"
     inkscape:window-height="703"
     id="namedview6"
     showgrid="false"
     inkscape:zoom="10.727273"
     inkscape:cx="5.6398307"
     inkscape:cy="10.533898"
     inkscape:window-x="0"
     inkscape:window-y="0"
     inkscape:window-maximized="1"
     inkscape:current-layer="svg4" />
  <path
     inkscape:connector-curvature="0"
     d="M 14.619747,16.118254 2.7234502,6.5645423 c -0.8222334,-0.6603282 -0.8222334,-1.7280867 0,-2.3813922 L 4.7003605,2.5955379 c 0.8222334,-0.6603282 2.1518238,-0.6603282 2.965308,0 l 8.4323575,6.7718929 8.432382,-6.7718929 c 0.822234,-0.6603282 2.151822,-0.6603282 2.965306,0 l 1.994387,1.5805705 c 0.822232,0.6603472 0.822232,1.7281073 0,2.3814112 L 17.593803,16.11125 c -0.822234,0.667348 -2.1518,0.667348 -2.974056,0.0074 z m 2.974056,13.48762 11.896298,-9.553731 c 0.822232,-0.660326 0.822232,-1.728087 0,-2.381391 L 27.513213,16.08314 c -0.822256,-0.660326 -2.151824,-0.660326 -2.965332,0 l -8.441106,6.764886 -8.4323575,-6.771908 c -0.8222332,-0.660327 -2.1518236,-0.660327 -2.965331,0 l -1.9856363,1.587593 c -0.8222334,0.660345 -0.8222334,1.728106 0,2.381409 l 11.8962968,9.553714 c 0.822256,0.667368 2.151822,0.667368 2.974056,0.0074 z"
     id="path2-3"
     style="fill:#2ecc71;fill-opacity:1;stroke-width:0.07838862" />
</svg>
