<?xml version="1.0" encoding="UTF-8" standalone="no"?>
<svg
   xmlns:dc="http://purl.org/dc/elements/1.1/"
   xmlns:cc="http://creativecommons.org/ns#"
   xmlns:rdf="http://www.w3.org/1999/02/22-rdf-syntax-ns#"
   xmlns:svg="http://www.w3.org/2000/svg"
   xmlns="http://www.w3.org/2000/svg"
   xmlns:sodipodi="http://sodipodi.sourceforge.net/DTD/sodipodi-0.dtd"
   xmlns:inkscape="http://www.inkscape.org/namespaces/inkscape"
   viewBox="0 0 22 22"
   version="1.1"
   id="svg4"
   sodipodi:docname="downloading_LOCAL_7148.svg"
   inkscape:version="0.92.4 5da689c313, 2019-01-14">
  <metadata
     id="metadata10">
    <rdf:RDF>
      <cc:Work
         rdf:about="">
        <dc:format>image/svg+xml</dc:format>
        <dc:type
           rdf:resource="http://purl.org/dc/dcmitype/StillImage" />
      </cc:Work>
    </rdf:RDF>
  </metadata>
  <defs
     id="defs8" />
  <sodipodi:namedview
     pagecolor="#ffffff"
     bordercolor="#666666"
     borderopacity="1"
     objecttolerance="10"
     gridtolerance="10"
     guidetolerance="10"
     inkscape:pageopacity="0"
     inkscape:pageshadow="2"
     inkscape:window-width="1366"
     inkscape:window-height="703"
     id="namedview6"
     showgrid="false"
     inkscape:zoom="10.727273"
     inkscape:cx="5.6398306"
     inkscape:cy="10.533898"
     inkscape:window-x="0"
     inkscape:window-y="0"
     inkscape:window-maximized="1"
     inkscape:current-layer="svg4" />
  <path
     inkscape:connector-curvature="0"
     d="M 10.176266,11.151206 3.2134721,5.1001289 c -0.4812457,-0.4182344 -0.4812457,-1.0945263 0,-1.5083125 L 4.3705396,2.5862628 c 0.4812457,-0.4182344 1.2594428,-0.4182344 1.7355677,0 l 4.9353817,4.289144 4.935396,-4.289144 c 0.481246,-0.4182344 1.259442,-0.4182344 1.735567,0 l 1.167296,1.0010936 c 0.481245,0.4182462 0.481245,1.0945381 0,1.5083244 L 11.916954,11.14677 c -0.481246,0.422681 -1.259429,0.422681 -1.740688,0.0047 z m 1.740688,8.542714 6.962794,-6.051089 c 0.481245,-0.418234 0.481245,-1.094526 0,-1.508312 l -1.157054,-1.005553 c -0.481259,-0.418234 -1.259443,-0.418234 -1.735582,0 L 11.04661,15.413672 6.111228,11.124518 c -0.4812456,-0.418234 -1.2594427,-0.418234 -1.7355811,0 l -1.1621748,1.005541 c -0.4812457,0.418246 -0.4812457,1.094538 0,1.508324 l 6.9627939,6.051078 c 0.481259,0.422694 1.259442,0.422694 1.740688,0.0047 z"
     id="path2-3"
     style="fill:#2ecc71;fill-opacity:1;stroke-width:0.04772755" />
</svg>
