<?xml version="1.0" encoding="utf-8"?>
<!-- Generator: Adobe Illustrator 22.1.0, SVG Export Plug-In . SVG Version: 6.00 Build 0)  -->
<svg version="1.1" id="Layer_1" xmlns="http://www.w3.org/2000/svg" xmlns:xlink="http://www.w3.org/1999/xlink" x="0px" y="0px"
	 viewBox="0 0 20.7 25.8" style="enable-background:new 0 0 20.7 25.8;" xml:space="preserve">
<style type="text/css">
	.st0{fill:#427337;}
</style>
<path class="st0" d="M20.2,14.4l-9,9c-0.3,0.3-0.5,0.4-0.9,0.4s-0.7-0.1-0.9-0.4l-9-9C0,14-0.1,13.6,0.1,12.9
	c0.3-0.5,0.7-0.8,1.2-0.8h5.2V3.3c0-0.4,0.1-0.7,0.4-0.9C7.2,2.1,7.4,2,7.8,2H13c0.4,0,0.7,0.1,0.9,0.4c0.2,0.2,0.4,0.5,0.4,0.9v9
	h5.2c0.5-0.1,0.9,0.1,1.1,0.7C20.8,13.5,20.6,14,20.2,14.4z"/>
</svg>
