<svg viewBox="0 0 22 22" xmlns="http://www.w3.org/2000/svg"><path d="m10.996094 3c-.79451 0-1.4199221.683817-1.4199221 1.4882812v8.1855468c0 .804464.6244821 1.490234 1.4199221 1.490234.795439 0 1.421875-.68577 1.421875-1.490234v-8.1855468c0-.8044642-.627366-1.4882812-1.421875-1.4882812zm.003906 12.271484c-.498799 0-.968219.192862-1.3203125.544922-.351456.351457-.5449219.818273-.5449219 1.31836 0 .500104.192863.968219.5449219 1.320312.3521095.352109.8215465.544922 1.3203125.544922.498798 0 .96822-.192862 1.320312-.544922.35211-.352109.544922-.820241.544922-1.320312 0-.50012-.19353-.96692-.544922-1.31836-.352109-.352109-.821531-.544924-1.320312-.544922z" fill="#da4453"/></svg>