<?xml version="1.0" encoding="UTF-8" standalone="no"?>
<svg
   xmlns:dc="http://purl.org/dc/elements/1.1/"
   xmlns:cc="http://creativecommons.org/ns#"
   xmlns:rdf="http://www.w3.org/1999/02/22-rdf-syntax-ns#"
   xmlns:svg="http://www.w3.org/2000/svg"
   xmlns="http://www.w3.org/2000/svg"
   xmlns:sodipodi="http://sodipodi.sourceforge.net/DTD/sodipodi-0.dtd"
   xmlns:inkscape="http://www.inkscape.org/namespaces/inkscape"
   viewBox="0 0 32 32"
   version="1.1"
   id="svg4"
   sodipodi:docname="expand.svg"
   inkscape:version="0.92.4 5da689c313, 2019-01-14"
   width="32"
   height="32">
  <metadata
     id="metadata10">
    <rdf:RDF>
      <cc:Work
         rdf:about="">
        <dc:format>image/svg+xml</dc:format>
        <dc:type
           rdf:resource="http://purl.org/dc/dcmitype/StillImage" />
        <dc:title></dc:title>
      </cc:Work>
    </rdf:RDF>
  </metadata>
  <defs
     id="defs8" />
  <sodipodi:namedview
     pagecolor="#ffffff"
     bordercolor="#666666"
     borderopacity="1"
     objecttolerance="10"
     gridtolerance="10"
     guidetolerance="10"
     inkscape:pageopacity="0"
     inkscape:pageshadow="2"
     inkscape:window-width="1366"
     inkscape:window-height="703"
     id="namedview6"
     showgrid="false"
     inkscape:zoom="5.2149125"
     inkscape:cx="-12.46088"
     inkscape:cy="23.085976"
     inkscape:window-x="0"
     inkscape:window-y="0"
     inkscape:window-maximized="1"
     inkscape:current-layer="g26" />
  <g
     id="g26"
     style="fill:#1d99f3;fill-opacity:1"
     transform="matrix(0.05734205,0,0,-0.06013395,21.856886,14.807749)">
    <g
       id="g11"
       transform="translate(-361.16322,-277.42941)">
      <path
         d="m 256,493.15254 c 128.61072,0 232.81356,-104.20284 232.81356,-232.81356 C 488.81356,131.72826 384.61072,27.525423 256,27.525423 127.38928,27.525423 23.18644,131.72826 23.18644,260.33898 23.18644,388.9497 127.38928,493.15254 256,493.15254 Z m 0,-420.566428 c 103.73346,0 187.75287,84.019408 187.75287,187.752868 0,103.73346 -84.01941,187.75287 -187.75287,187.75287 -103.73346,0 -187.752871,-84.01941 -187.752871,-187.75287 C 68.247129,156.60552 152.26654,72.586112 256,72.586112 Z"
         id="path2"
         inkscape:connector-curvature="0"
         sodipodi:nodetypes="ssssssssss"
         style="fill:#1d99f3;fill-opacity:1;stroke-width:0.93876433" />
      <path
         style="fill:#1d99f3;fill-opacity:1"
         d="m 154.91509,218.70191 h 197.79999 c 10.7,0 16.1,13 8.5,20.5 l -98.9,98.3 c -4.7,4.7 -12.2,4.7 -16.9,0 l -98.89999,-98.3 c -7.7,-7.5 -2.3,-20.5 8.4,-20.5 z"
         id="path2-6"
         inkscape:connector-curvature="0"
         sodipodi:nodetypes="ssccccs" />
    </g>
  </g>
</svg>
