<?xml version="1.0" encoding="UTF-8" standalone="no"?>
<svg
   xmlns:dc="http://purl.org/dc/elements/1.1/"
   xmlns:cc="http://creativecommons.org/ns#"
   xmlns:rdf="http://www.w3.org/1999/02/22-rdf-syntax-ns#"
   xmlns:svg="http://www.w3.org/2000/svg"
   xmlns="http://www.w3.org/2000/svg"
   xmlns:sodipodi="http://sodipodi.sourceforge.net/DTD/sodipodi-0.dtd"
   xmlns:inkscape="http://www.inkscape.org/namespaces/inkscape"
   viewBox="0 0 32.000204 32"
   width="32"
   height="32"
   version="1.1"
   id="svg4"
   sodipodi:docname="filterstalled.svg"
   inkscape:version="0.92.4 5da689c313, 2019-01-14">
  <metadata
     id="metadata10">
    <rdf:RDF>
      <cc:Work
         rdf:about="">
        <dc:format>image/svg+xml</dc:format>
        <dc:type
           rdf:resource="http://purl.org/dc/dcmitype/StillImage" />
        <dc:title></dc:title>
      </cc:Work>
    </rdf:RDF>
  </metadata>
  <defs
     id="defs8" />
  <sodipodi:namedview
     pagecolor="#ffffff"
     bordercolor="#666666"
     borderopacity="1"
     objecttolerance="10"
     gridtolerance="10"
     guidetolerance="10"
     inkscape:pageopacity="0"
     inkscape:pageshadow="2"
     inkscape:window-width="1366"
     inkscape:window-height="703"
     id="namedview6"
     showgrid="false"
     inkscape:zoom="9.2187499"
     inkscape:cx="10.8905"
     inkscape:cy="12.8"
     inkscape:window-x="0"
     inkscape:window-y="0"
     inkscape:window-maximized="1"
     inkscape:current-layer="svg4" />
  <path
     d="M 29.591323,3.9866283 19.82134,13.708912 v 14.777872 c 0,0.648153 -0.257105,0.907414 -0.771315,1.166675 -0.128552,0.12963 -0.385657,0.12963 -0.514209,0.12963 -0.385658,0 -0.771315,-0.12963 -0.899867,-0.388891 L 12.493852,24.208979 C 12.236748,23.949718 12.108195,23.560827 12.108195,23.301566 V 13.579282 L 2.4667645,3.9866283 C 1.9525548,3.468107 1.8240024,2.9495851 2.0811073,2.5606938 2.3382121,2.0421719 2.7238693,1.782911 3.2380789,1.782911 H 28.562903 c 0.642763,0 0.899867,0.3888914 1.156972,0.7777828 0.385657,0.5185218 0.257105,0.9074132 -0.128552,1.4259345 z"
     id="path2"
     inkscape:connector-curvature="0"
     style="fill:#686868;stroke-width:1.29090309" />
</svg>
