<svg height="32" viewBox="0 0 32 32" width="32" xmlns="http://www.w3.org/2000/svg"><path d="m23.484819 14.912313c-.65103-.619991.709933 3.678701-1.92054 3.249956-2.531268-.414994.531675-4.524939.272813-9.028628-.113155-1.992473-.821538-3.817448-2.585521-4.981183 1.71748 1.216234 1.308261 3.626202.125556 2.99746-2.752929-1.46498-.770386-4.219944-6.16154-6.149918.620029.231247 1.853887.856239 2.365411 3.553703.375118 1.982473.0248 5.267429-2.010444 6.317415-2.238305 1.154984-1.984093-4.698687-2.438264-1.45873-.62933 4.491189-5.1307396 7.873643-5.1322896 12.266084 0 5.687423 3.602369 9.277375 9.5267446 9.321124 10.731154.07875 12.893505-11.376096 7.958074-16.087283z" fill="#f25022" stroke-width="1.391964"/><path d="m15.997029 14.249563c-.596341 0-1.065762.498954-1.065762 1.085939v5.972661c0 .586984.468723 1.087363 1.065762 1.087363s1.067229-.500379 1.067229-1.087363v-5.972661c0-.586985-.470887-1.085939-1.067229-1.085939zm.003 8.954003c-.374386 0-.726723.140724-.990997.397608-.263833.256443-.409044.597061-.409044.961953 0 .364907.144758.706471.409006.963378.264278.25692.616626.397608.99099.397608.374386 0 .726724-.140723.990998-.397608.26431-.256919.40903-.598497.40903-.963378 0-.364916-.14526-.705521-.409006-.961953-.264286-.256919-.616625-.397609-.990998-.397608z" fill="#fff" stroke-width=".740045"/></svg>