<svg viewBox="0 0 22 22" xmlns="http://www.w3.org/2000/svg"><path d="m10.958984 3c-.42403 0-.767578.3457275-.767578.7734375-.00015.28618.156036.5341288.384766.6679687h-.00586v.7949219h.730469v-.7714843c.25139-.12745.425781-.3882663.425781-.6914063 0-.42771-.343398-.7734375-.767578-.7734375zm.041016 2.6347656c-.56282.02039-1.2123581.1302975-1.9238281.3984375-2.39521.90312-2.5488281 3.8066407-2.5488281 3.8066407v1.5917972c-.63376.04203-1.1347657.573346-1.1347657 1.222656v3.291015c-.2573.124991-.4375.388013-.4375.695313 0 .42779.3438282.775321.7675781.775391.42422 0 .7675782-.347601.7675782-.775391 0-.30693-.1783469-.570322-.4355469-.695313v-2.201171c.1427.07398.3038163.119259.4726563.130859v.763672c-.0040001.06183-.0097657.1243-.0097657.1875 0 .06703.0047657.132919.0097657.199219v.017578c.10226 1.27429 1.0906299 2.294354 2.34375 2.433593l-.0019532.017579h2.1308594 2.130859l-.001953-.017579c1.25317-.13924 2.24149-1.159273 2.34375-2.433593h.001953v-.017578c.005-.06633.007813-.132219.007813-.199219 0-.06335-.003813-.1257-.007813-.1875v-.763672c.16821-.01145.328013-.057259.470703-.130859v2.201171c-.256739.124981-.435546.388013-.435546.695313 0 .42745.343618.773437.767578.773437s.767578-.346017.767578-.773437c0-.30712-.178277-.570332-.435547-.695313v-3.291015c0-.64912-.501446-1.180456-1.134766-1.222656v-1.5937504s-.155131-2.9015675-2.550781-3.8046875c-.71077-.26799-1.360598-.3780375-1.923828-.3984375zm-.041016 1.3007813h.019532.021484.019531.021485c.4391.00833 1.558264.1483319 2.302734.7949219.76752.66668.767578 1.7636718.767578 1.7636718 0 .9893504-.767578 1.0546874-.767578 1.0546874-.26735.0851-.831961.0429-1.087891 0-.2354-.04005-1.098798-.114953-1.236328-.126953-.0048.001-.012531.001623-.019531.001953-.007-.001-.014531-.001433-.019531-.001953-.13737.01224-1.0011884.086953-1.2363284.126953-.25548.0429-.8206906.0851-1.0878906 0 0 0-.7675781-.065527-.7675781-1.0546874 0 0-.0001719-1.0969918.7675781-1.7636718.74435-.6465901 1.864084-.7869219 2.302734-.7949219zm-1.9824215 1.8710937c-.31839 0-.5761719.2594281-.5761719.5800782 0 .32077.2577819.5820312.5761719.5820312.31764 0 .5761719-.2612612.5761719-.5820312 0-.3206501-.2585719-.5800782-.5761719-.5800782zm3.9667965 0c-.31839 0-.576171.2593182-.576171.5800782 0 .32051.257751.5818812.576171.5820312.31753 0 .576172-.2613713.576172-.5820312 0-.3207601-.258642-.5800782-.576172-.5800782zm-1.03125 3.4121094c.20419 0 .369141.167517.369141.373047 0 .2059-.164951.373047-.369141.373047-.20452 0-.36914-.167147-.36914-.373047 0-.20575.16462-.373047.36914-.373047zm.910157 0c.20419 0 .36914.167517.36914.373047 0 .2059-.16499.373047-.36914.373047-.20414 0-.371094-.167147-.371094-.373047 0-.20575.166914-.373047.371094-.373047zm.910156 0c.20419 0 .36914.167517.36914.373047 0 .2059-.16495.373047-.36914.373047-.20452 0-.371094-.167147-.371094-.373047 0-.20575.166574-.373047.371094-.373047zm-4.6562501 5.447266c.27978.77743 1.0159621 1.333984 1.8828121 1.333984.86659 0 1.603153-.556524 1.882813-1.333984z" fill="#fdbc4b"/></svg>