<?xml version="1.0" encoding="UTF-8" standalone="no"?>
<svg
   xmlns:dc="http://purl.org/dc/elements/1.1/"
   xmlns:cc="http://creativecommons.org/ns#"
   xmlns:rdf="http://www.w3.org/1999/02/22-rdf-syntax-ns#"
   xmlns:svg="http://www.w3.org/2000/svg"
   xmlns="http://www.w3.org/2000/svg"
   xmlns:sodipodi="http://sodipodi.sourceforge.net/DTD/sodipodi-0.dtd"
   xmlns:inkscape="http://www.inkscape.org/namespaces/inkscape"
   viewBox="0 0 22 22"
   version="1.1"
   id="svg4"
   sodipodi:docname="firewalled.svg"
   inkscape:version="0.92.4 5da689c313, 2019-01-14">
  <metadata
     id="metadata10">
    <rdf:RDF>
      <cc:Work
         rdf:about="">
        <dc:format>image/svg+xml</dc:format>
        <dc:type
           rdf:resource="http://purl.org/dc/dcmitype/StillImage" />
      </cc:Work>
    </rdf:RDF>
  </metadata>
  <defs
     id="defs8" />
  <sodipodi:namedview
     pagecolor="#ffffff"
     bordercolor="#666666"
     borderopacity="1"
     objecttolerance="10"
     gridtolerance="10"
     guidetolerance="10"
     inkscape:pageopacity="0"
     inkscape:pageshadow="2"
     inkscape:window-width="1366"
     inkscape:window-height="703"
     id="namedview6"
     showgrid="false"
     inkscape:zoom="10.727273"
     inkscape:cx="32.580508"
     inkscape:cy="11"
     inkscape:window-x="0"
     inkscape:window-y="0"
     inkscape:window-maximized="1"
     inkscape:current-layer="svg4" />
  <path
     d="m10.962926 13.731766c.42422 0 .76945.34503.76945.76944 0 .42427-.34523.76945-.76945.76945s-.76944-.34518-.76944-.76945c0-.42436.34527-.76944.76944-.76944zm.73051-5.7022497v4.2133397c0 .40338-.32708.73051-.73051.73051-.40337 0-.73051-.32713-.73051-.73051v-4.2133397c0-.40343.32714-.73051.73051-.73051.40343 0 .73051.32713.73051.73051zm6.73552-1.6599201c-.005-.37503-.2935-.68484-.66689-.7191-3.10298-.29024-5.63527-1.94853-6.47011-2.5551-.17447-.12719-.4109-.12719-.58537 0-.8332199.60657-3.3654999 2.26486-6.4684799 2.5551-.3734.0343-.66038.34407-.6669.7191-.0375 2.44749.35546 10.7568698 7.2413599 12.6059498.1223.0326.25111.0326.37341 0 6.8859-1.84743 7.27885-10.1584798 7.24298-12.6059498z"
     fill="#da4453"
     id="path2"
     style="fill:#f47750;fill-opacity:1" />
</svg>
