<?xml version="1.0" encoding="UTF-8" standalone="no"?>
<svg
   xmlns:dc="http://purl.org/dc/elements/1.1/"
   xmlns:cc="http://creativecommons.org/ns#"
   xmlns:rdf="http://www.w3.org/1999/02/22-rdf-syntax-ns#"
   xmlns:svg="http://www.w3.org/2000/svg"
   xmlns="http://www.w3.org/2000/svg"
   xmlns:sodipodi="http://sodipodi.sourceforge.net/DTD/sodipodi-0.dtd"
   xmlns:inkscape="http://www.inkscape.org/namespaces/inkscape"
   viewBox="0 0 32 32"
   version="1.1"
   id="svg8"
   sodipodi:docname="paused.svg"
   width="32"
   height="32"
   inkscape:version="0.92.4 5da689c313, 2019-01-14">
  <metadata
     id="metadata14">
    <rdf:RDF>
      <cc:Work
         rdf:about="">
        <dc:format>image/svg+xml</dc:format>
        <dc:type
           rdf:resource="http://purl.org/dc/dcmitype/StillImage" />
        <dc:title></dc:title>
      </cc:Work>
    </rdf:RDF>
  </metadata>
  <defs
     id="defs12" />
  <sodipodi:namedview
     pagecolor="#ffffff"
     bordercolor="#666666"
     borderopacity="1"
     objecttolerance="10"
     gridtolerance="10"
     guidetolerance="10"
     inkscape:pageopacity="0"
     inkscape:pageshadow="2"
     inkscape:window-width="1366"
     inkscape:window-height="703"
     id="namedview10"
     showgrid="false"
     inkscape:zoom="10.727273"
     inkscape:cx="11"
     inkscape:cy="11"
     inkscape:window-x="0"
     inkscape:window-y="0"
     inkscape:window-maximized="1"
     inkscape:current-layer="svg8" />
  <g
     id="g6"
     style="fill:#f47750"
     transform="matrix(2.3333333,0,0,2.3333333,-9.5564972,-9.7768365)">
    <path
       d="m 5.5,5 h 3 C 8.777,5 9,5.223 9,5.5 v 11 C 9,16.777 8.777,17 8.5,17 h -3 C 5.223,17 5,16.777 5,16.5 V 5.5 C 5,5.223 5.223,5 5.5,5 Z"
       id="path2"
       inkscape:connector-curvature="0" />
    <path
       d="m 13.5,5 h 3 C 16.777,5 17,5.223 17,5.5 v 11 c 0,0.277 -0.223,0.5 -0.5,0.5 h -3 C 13.223,17 13,16.777 13,16.5 V 5.5 C 13,5.223 13.223,5 13.5,5 Z"
       id="path4"
       inkscape:connector-curvature="0" />
  </g>
</svg>
