<svg xmlns="http://www.w3.org/2000/svg" width="32" height="32">
  <path d="M29.946 15.942c.354 9.205-9.874 16.514-18.469 13.197C2.972 26.57-.808 15.209 4.474 8.062c4.9-7.801 17.469-8.068 22.695-.48a13.97 13.97 0 0 1 2.777 8.36z" opacity=".95" fill="none" stroke="#f5f5f5" stroke-width="2.093"/>
  <g style="line-height:125%">
    <path d="M12.758 26.311v-5.725c-.282.433-.679.792-1.19 1.079a3.216 3.216 0 0 1-1.613.43c-1.27 0-2.366-.555-3.287-1.663-.914-1.109-1.371-2.628-1.371-4.559 0-1.174.185-2.227.555-3.16.376-.932.917-1.636 1.623-2.114a4.074 4.074 0 0 1 2.34-.726c1.323 0 2.365.609 3.125 1.827v-1.563h1.633v16.174h-1.815m-5.596-10.36c0 1.504.29 2.635.867 3.39.579.75 1.27 1.124 2.078 1.124.773 0 1.438-.356 1.996-1.068.558-.72.837-1.81.837-3.27 0-1.557-.296-2.727-.887-3.513-.585-.785-1.274-1.178-2.067-1.178-.787 0-1.456.367-2.007 1.101-.544.727-.817 1.865-.817 3.413M19.1 21.83h-1.683V5.689h1.815v5.758c.766-1.05 1.744-1.574 2.934-1.574.658 0 1.28.147 1.865.44a3.768 3.768 0 0 1 1.452 1.222c.383.521.682 1.153.897 1.894.215.741.323 1.534.323 2.378 0 2.004-.454 3.553-1.361 4.647-.908 1.093-1.997 1.64-3.267 1.64-1.264 0-2.255-.576-2.974-1.728v1.464m-.02-5.935c0 1.402.174 2.415.524 3.04.571 1.02 1.344 1.53 2.319 1.53.793 0 1.479-.375 2.057-1.123.578-.756.867-1.88.867-3.37 0-1.526-.28-2.653-.837-3.38-.551-.726-1.22-1.09-2.007-1.09-.793 0-1.478.378-2.057 1.134-.578.75-.867 1.835-.867 3.26" style="text-align:center;-inkscape-font-specification:Arial" font-size="21.579" font-weight="400" letter-spacing="0" word-spacing="0" fill="#fafafa" font-family="Arial" text-anchor="middle"/>
  </g>
</svg>
