<?xml version="1.0" encoding="UTF-8" standalone="no"?>
<svg
   xmlns:dc="http://purl.org/dc/elements/1.1/"
   xmlns:cc="http://creativecommons.org/ns#"
   xmlns:rdf="http://www.w3.org/1999/02/22-rdf-syntax-ns#"
   xmlns:svg="http://www.w3.org/2000/svg"
   xmlns="http://www.w3.org/2000/svg"
   xmlns:sodipodi="http://sodipodi.sourceforge.net/DTD/sodipodi-0.dtd"
   xmlns:inkscape="http://www.inkscape.org/namespaces/inkscape"
   height="24"
   viewBox="0 0 24 24"
   width="24"
   version="1.1"
   id="svg4"
   sodipodi:docname="queued.svg"
   inkscape:version="0.92.4 5da689c313, 2019-01-14">
  <metadata
     id="metadata10">
    <rdf:RDF>
      <cc:Work
         rdf:about="">
        <dc:format>image/svg+xml</dc:format>
        <dc:type
           rdf:resource="http://purl.org/dc/dcmitype/StillImage" />
      </cc:Work>
    </rdf:RDF>
  </metadata>
  <defs
     id="defs8" />
  <sodipodi:namedview
     pagecolor="#ffffff"
     bordercolor="#666666"
     borderopacity="1"
     objecttolerance="10"
     gridtolerance="10"
     guidetolerance="10"
     inkscape:pageopacity="0"
     inkscape:pageshadow="2"
     inkscape:window-width="1366"
     inkscape:window-height="703"
     id="namedview6"
     showgrid="false"
     inkscape:zoom="9.8333333"
     inkscape:cx="-11.542373"
     inkscape:cy="12"
     inkscape:window-x="0"
     inkscape:window-y="0"
     inkscape:window-maximized="1"
     inkscape:current-layer="svg4" />
  <path
     d="m 16.406123,14.996813 -4.19196,-3.046322 0.589744,-4.9964702 -1.435726,-0.1391788 -0.66009,5.849525 4.790814,3.481513 z M 11.898305,2.3898301 A 10.016949,9.6101695 0 0 0 1.8813559,12 c 0,5.285593 4.4775752,9.610169 10.0169491,9.610169 A 10.016949,9.6101695 0 0 0 21.915254,12 10.016949,9.6101695 0 0 0 11.898305,2.3898301 Z m 0,1.9220339 A 8.0135593,7.6881356 0 0 1 19.911864,12 8.0135593,7.6881356 0 0 1 11.898305,19.688135 8.0135593,7.6881356 0 0 1 3.8847458,12 8.0135593,7.6881356 0 0 1 11.898305,4.311864 Z"
     id="path2"
     style="fill:#f47750;fill-opacity:1;stroke-width:0.98112553"
     inkscape:connector-curvature="0" />
</svg>
