<svg height="25.5" viewBox="0 0 21.5 25.5" width="21.5" xmlns="http://www.w3.org/2000/svg"><path d="m14.5 6.2c-1.2-.7-2.5-1-3.8-1-1.4 0-2.7.3-3.8 1-1.2.7-2.1 1.6-2.8 2.8s-1 2.5-1 3.8c0 1.4.3 2.7 1 3.8.7 1.2 1.6 2.1 2.8 2.8s2.5 1 3.8 1c1.4 0 2.7-.3 3.8-1 1.2-.7 2.1-1.6 2.8-2.8s1-2.5 1-3.8c0-1.4-.3-2.7-1-3.8-.7-1.2-1.6-2.1-2.8-2.8zm-2 8c0 .1 0 .2-.1.3s-.2.1-.3.1h-4.5c-.1 0-.2 0-.3-.1s-.1-.2-.1-.3v-.9c0-.1 0-.2.1-.3s.2-.1.3-.1h3.1v-5c0-.1 0-.2.1-.3s.2-.1.3-.1h.9c.1 0 .2 0 .3.1s.1.2.1.3v6.3zm7.6 4c-1 1.7-2.3 3-3.9 3.9-1.7 1-3.5 1.4-5.4 1.4-2 0-3.8-.5-5.4-1.4-1.7-1-3-2.3-3.9-3.9-1-1.7-1.5-3.5-1.5-5.4 0-2 .5-3.8 1.5-5.4 1-1.7 2.3-3 3.9-3.9 1.7-1 3.5-1.5 5.4-1.5 2 0 3.8.5 5.4 1.5s3 2.3 3.9 3.9 1.4 3.5 1.4 5.4c0 2-.5 3.8-1.4 5.4z" fill="#008080"/></svg>