<?xml version="1.0" encoding="UTF-8" standalone="no"?>
<svg
   xmlns:dc="http://purl.org/dc/elements/1.1/"
   xmlns:cc="http://creativecommons.org/ns#"
   xmlns:rdf="http://www.w3.org/1999/02/22-rdf-syntax-ns#"
   xmlns:svg="http://www.w3.org/2000/svg"
   xmlns="http://www.w3.org/2000/svg"
   xmlns:sodipodi="http://sodipodi.sourceforge.net/DTD/sodipodi-0.dtd"
   xmlns:inkscape="http://www.inkscape.org/namespaces/inkscape"
   viewBox="0 0 22 22"
   version="1.1"
   id="svg6"
   sodipodi:docname="queued.svg"
   inkscape:version="0.92.4 5da689c313, 2019-01-14">
  <metadata
     id="metadata10">
    <rdf:RDF>
      <cc:Work
         rdf:about="">
        <dc:format>image/svg+xml</dc:format>
        <dc:type
           rdf:resource="http://purl.org/dc/dcmitype/StillImage" />
      </cc:Work>
    </rdf:RDF>
  </metadata>
  <sodipodi:namedview
     pagecolor="#ffffff"
     bordercolor="#666666"
     borderopacity="1"
     objecttolerance="10"
     gridtolerance="10"
     guidetolerance="10"
     inkscape:pageopacity="0"
     inkscape:pageshadow="2"
     inkscape:window-width="1366"
     inkscape:window-height="703"
     id="namedview8"
     showgrid="false"
     inkscape:zoom="10.727273"
     inkscape:cx="11"
     inkscape:cy="11"
     inkscape:window-x="0"
     inkscape:window-y="0"
     inkscape:window-maximized="1"
     inkscape:current-layer="svg6" />
  <defs
     id="defs3051">
    <style
       type="text/css"
       id="current-color-scheme">
     .ColorScheme-Text {
       color:#f2f2f2;
     }
     </style>
  </defs>
  <path
     style="color:#f2f2f2;fill:#f47750;fill-opacity:1;stroke:none;stroke-width:1.13651097"
     d="m 9.052354,2.3474576 c -0.3024399,0 -0.5504723,0.2201457 -0.5504723,0.4985352 V 3.257918 c 0,0.2779928 0.2480324,0.50276 0.5504723,0.50276 h 0.1912659 v 0.289404 c 3.031e-4,0.4175994 0.2924123,0.4524897 0.4385119,0.4436117 0.024827,-0.00333 0.049788,-0.00739 0.076973,-0.010562 h 0.00467 c 0.5186752,-0.064312 1.3774602,-0.1262271 2.3628322,-0.012675 0,0 0.631496,0.1053463 0.629778,-0.4203749 V 3.7585656 h 0.193598 c 0.302743,0 0.54814,-0.2222582 0.54814,-0.5006476 V 2.8459928 C 13.498085,2.5678474 13.250389,2.3474576 12.947645,2.3474576 Z m 6.258125,1.8399328 c -0.05096,0.00931 -0.09003,0.038501 -0.116626,0.065486 l -0.04432,0.057036 -0.375534,0.487973 c -0.0018,0.00186 -0.213581,0.3033087 0.123624,0.4626237 0.481553,0.2146268 1.364636,0.6678784 2.211219,1.3984333 v -0.00211 c 0,0 0.303906,0.2777561 0.517817,0.00211 L 18.03485,6.1287201 C 18.177177,5.9425271 17.99324,5.8140143 17.97421,5.8012923 L 15.501744,4.2359765 h -0.0023 C 15.42328,4.1880019 15.361435,4.1780776 15.310479,4.1873904 Z M 11,5.1189751 c -4.4311604,0 -8.0238347,3.2533384 -8.0238347,7.2667839 0,4.012438 3.5926407,7.266783 8.0238347,7.266783 4.431126,0 8.023835,-3.254375 8.023835,-7.266783 0,-4.0134455 -3.592709,-7.2667839 -8.023835,-7.2667839 z m 0.671763,1.4385696 c 0.01108,0.00143 0.02333,0.00304 0.03499,0.00422 0.03567,0.00555 0.06929,0.010844 0.09563,0.012675 1.627611,0.2070913 5.19846,1.1642935 5.644676,5.5113483 -0.01257,0.120966 -0.08788,0.29835 -0.422185,0.299967 -2.873046,-0.0072 -4.692593,-0.0048 -5.511721,-0.0021 C 11.04184,12.384196 11.002324,12.08681 11,12.001295 V 6.9779198 C 11.01375,6.803137 11.113034,6.4724262 11.671763,6.5575447 Z"
     class="ColorScheme-Text"
     id="path4"
     inkscape:connector-curvature="0" />
</svg>
