<?xml version="1.0" encoding="UTF-8" standalone="no"?>
<svg
   xmlns:dc="http://purl.org/dc/elements/1.1/"
   xmlns:cc="http://creativecommons.org/ns#"
   xmlns:rdf="http://www.w3.org/1999/02/22-rdf-syntax-ns#"
   xmlns:svg="http://www.w3.org/2000/svg"
   xmlns="http://www.w3.org/2000/svg"
   xmlns:sodipodi="http://sodipodi.sourceforge.net/DTD/sodipodi-0.dtd"
   xmlns:inkscape="http://www.inkscape.org/namespaces/inkscape"
   height="32"
   viewBox="0 0 32 32"
   width="32"
   version="1.1"
   id="svg4"
   sodipodi:docname="queued.svg"
   inkscape:version="0.92.4 5da689c313, 2019-01-14">
  <metadata
     id="metadata10">
    <rdf:RDF>
      <cc:Work
         rdf:about="">
        <dc:format>image/svg+xml</dc:format>
        <dc:type
           rdf:resource="http://purl.org/dc/dcmitype/StillImage" />
        <dc:title></dc:title>
      </cc:Work>
    </rdf:RDF>
  </metadata>
  <defs
     id="defs8" />
  <sodipodi:namedview
     pagecolor="#ffffff"
     bordercolor="#666666"
     borderopacity="1"
     objecttolerance="10"
     gridtolerance="10"
     guidetolerance="10"
     inkscape:pageopacity="0"
     inkscape:pageshadow="2"
     inkscape:window-width="1366"
     inkscape:window-height="703"
     id="namedview6"
     showgrid="false"
     inkscape:zoom="9.8333333"
     inkscape:cx="-11.542373"
     inkscape:cy="12"
     inkscape:window-x="0"
     inkscape:window-y="0"
     inkscape:window-maximized="1"
     inkscape:current-layer="svg4" />
  <path
     d="m 22.486708,20.484372 -5.858814,-4.437851 0.824245,-7.278809 -2.006616,-0.2027546 -0.922562,8.5215306 6.695791,5.071834 z M 16.186441,2.1186436 A 14,14 0 0 0 2.1864406,16.118645 c 0,7.699999 6.2579986,13.999999 14.0000004,13.999999 a 14,14 0 0 0 14,-13.999999 14,14 0 0 0 -14,-14.0000014 z m 0,2.8000001 a 11.2,11.2 0 0 1 11.2,11.2000013 11.2,11.2 0 0 1 -11.2,11.199999 A 11.2,11.2 0 0 1 4.9864407,16.118645 11.2,11.2 0 0 1 16.186441,4.9186437 Z"
     id="path2"
     style="fill:#f47750;fill-opacity:1;stroke-width:1.39997196"
     inkscape:connector-curvature="0" />
</svg>
