<svg viewBox="0 0 22 22" xmlns="http://www.w3.org/2000/svg"><path d="m11 3c-4.432 0-8 3.5679997-8 8 0 4.432 3.568 8 8 8s8-3.568 8-8c0-4.4320003-3.568-8-8-8zm-3.125 3a1.875 1.875 0 0 1 1.875 1.875 1.875 1.875 0 0 1 -1.875 1.875 1.875 1.875 0 0 1 -1.875-1.875 1.875 1.875 0 0 1 1.875-1.875zm7.244141 0 .880859.8808594-9.1191406 9.1191406-.8808594-.880859zm-.994141 6.25a1.875 1.875 0 0 1 1.875 1.875 1.875 1.875 0 0 1 -1.875 1.875 1.875 1.875 0 0 1 -1.875-1.875 1.875 1.875 0 0 1 1.875-1.875z" fill="#fdbc4b"/></svg>