<?xml version="1.0" encoding="UTF-8" standalone="no"?>
<svg
   xmlns:dc="http://purl.org/dc/elements/1.1/"
   xmlns:cc="http://creativecommons.org/ns#"
   xmlns:rdf="http://www.w3.org/1999/02/22-rdf-syntax-ns#"
   xmlns:svg="http://www.w3.org/2000/svg"
   xmlns="http://www.w3.org/2000/svg"
   xmlns:sodipodi="http://sodipodi.sourceforge.net/DTD/sodipodi-0.dtd"
   xmlns:inkscape="http://www.inkscape.org/namespaces/inkscape"
   viewBox="0 0 22 22"
   version="1.1"
   id="svg4"
   sodipodi:docname="stalledDL.svg"
   inkscape:version="0.92.4 5da689c313, 2019-01-14">
  <metadata
     id="metadata10">
    <rdf:RDF>
      <cc:Work
         rdf:about="">
        <dc:format>image/svg+xml</dc:format>
        <dc:type
           rdf:resource="http://purl.org/dc/dcmitype/StillImage" />
      </cc:Work>
    </rdf:RDF>
  </metadata>
  <defs
     id="defs8" />
  <sodipodi:namedview
     pagecolor="#ffffff"
     bordercolor="#666666"
     borderopacity="1"
     objecttolerance="10"
     gridtolerance="10"
     guidetolerance="10"
     inkscape:pageopacity="0"
     inkscape:pageshadow="2"
     inkscape:window-width="1366"
     inkscape:window-height="703"
     id="namedview6"
     showgrid="false"
     inkscape:zoom="10.727273"
     inkscape:cx="11"
     inkscape:cy="11"
     inkscape:window-x="0"
     inkscape:window-y="0"
     inkscape:window-maximized="1"
     inkscape:current-layer="svg4" />
  <path
     inkscape:connector-curvature="0"
     d="M 9.9432151,11.104597 2.9804221,5.0535196 c -0.481246,-0.418234 -0.481246,-1.094526 0,-1.508312 l 1.157067,-1.005554 c 0.481246,-0.418234 1.259443,-0.418234 1.735568,0 l 4.9353809,4.289144 4.935396,-4.289144 c 0.481246,-0.418234 1.259442,-0.418234 1.735567,0 l 1.167296,1.001094 c 0.481245,0.418246 0.481245,1.094538 0,1.508324 l -6.962794,6.0510894 c -0.481246,0.422681 -1.259429,0.422681 -1.7406879,0.0047 z m 1.7406879,8.542714 6.962794,-6.051089 c 0.481245,-0.418234 0.481245,-1.094526 0,-1.508312 l -1.157054,-1.005553 c -0.481259,-0.418234 -1.259443,-0.418234 -1.735582,0 l -4.940502,4.284706 -4.9353809,-4.289154 c -0.481246,-0.418234 -1.259443,-0.418234 -1.735582,0 l -1.162174,1.005541 c -0.481246,0.418246 -0.481246,1.094538 0,1.508324 l 6.962793,6.051078 c 0.4812589,0.422694 1.2594419,0.422694 1.7406879,0.0047 z"
     id="path2-3"
     style="fill:#1a1a1a;fill-opacity:1;stroke-width:0.04772755" />
</svg>
