<svg viewBox="0 0 22 22" xmlns="http://www.w3.org/2000/svg"><path d="m17.16357 11.41288c-.4486-.43813-1.17641-.43813-1.62554 0l-4.53782 4.8801-4.53784-4.8801c-.44912-.43813-1.1764-.43813-1.62552 0-.44913.43814-.44913 1.1478 0 1.58594l5.27861 5.67726c.24298.23674.56657.34113.88475.32162.31763.0195.64176-.085.88472-.32162l5.27864-5.67726c.44857-.43814.44857-1.1478 0-1.58594zm-6.17013-4.72223c1.04598 0 1.89391-.82618 1.89391-1.84532 0-1.01915-.84793-1.84533-1.89391-1.84533s-1.89392.82618-1.89392 1.84533c0 1.01914.84794 1.84532 1.89392 1.84532zm0 5.27236c1.04598 0 1.89391-.82618 1.89391-1.84533s-.84793-1.84532-1.89391-1.84532-1.89392.82617-1.89392 1.84532.84794 1.84533 1.89392 1.84533z"/></svg>