<?xml version="1.0" encoding="UTF-8" standalone="no"?>
<svg
   xmlns:dc="http://purl.org/dc/elements/1.1/"
   xmlns:cc="http://creativecommons.org/ns#"
   xmlns:rdf="http://www.w3.org/1999/02/22-rdf-syntax-ns#"
   xmlns:svg="http://www.w3.org/2000/svg"
   xmlns="http://www.w3.org/2000/svg"
   xmlns:sodipodi="http://sodipodi.sourceforge.net/DTD/sodipodi-0.dtd"
   xmlns:inkscape="http://www.inkscape.org/namespaces/inkscape"
   viewBox="0 0 32 32"
   version="1.1"
   id="svg4"
   sodipodi:docname="stalledUP.svg"
   inkscape:version="0.92.4 5da689c313, 2019-01-14"
   width="32"
   height="32">
  <metadata
     id="metadata10">
    <rdf:RDF>
      <cc:Work
         rdf:about="">
        <dc:format>image/svg+xml</dc:format>
        <dc:type
           rdf:resource="http://purl.org/dc/dcmitype/StillImage" />
        <dc:title></dc:title>
      </cc:Work>
    </rdf:RDF>
  </metadata>
  <defs
     id="defs8" />
  <sodipodi:namedview
     pagecolor="#ffffff"
     bordercolor="#666666"
     borderopacity="1"
     objecttolerance="10"
     gridtolerance="10"
     guidetolerance="10"
     inkscape:pageopacity="0"
     inkscape:pageshadow="2"
     inkscape:window-width="1366"
     inkscape:window-height="703"
     id="namedview6"
     showgrid="false"
     inkscape:zoom="10.727273"
     inkscape:cx="-10.580508"
     inkscape:cy="11"
     inkscape:window-x="0"
     inkscape:window-y="0"
     inkscape:window-maximized="1"
     inkscape:current-layer="svg4" />
  <path
     inkscape:connector-curvature="0"
     d="M 14.573137,15.9425 2.6768409,25.496213 c -0.822234,0.660327 -0.822234,1.728087 0,2.381391 l 1.9769094,1.587614 c 0.822234,0.660326 2.1518242,0.660326 2.9653086,0 l 8.4323571,-6.771893 8.432382,6.771893 c 0.822234,0.660326 2.151822,0.660326 2.965307,0 l 1.994386,-1.580573 c 0.822232,-0.660345 0.822232,-1.728105 0,-2.381409 L 17.547193,15.949504 c -0.822234,-0.667348 -2.1518,-0.667348 -2.974056,-0.0074 z M 17.547193,2.4548804 29.443491,12.008611 c 0.822232,0.660326 0.822232,1.728086 0,2.38139 l -1.976887,1.587612 c -0.822256,0.660327 -2.151825,0.660327 -2.965333,0 L 16.060165,9.2127278 7.6278084,15.984636 c -0.8222339,0.660327 -2.1518241,0.660327 -2.9653325,0 l -1.985635,-1.587593 c -0.822234,-0.660346 -0.822234,-1.728106 0,-2.38141 L 14.573137,2.4619204 c 0.822256,-0.6673682 2.151822,-0.6673682 2.974056,-0.00742 z"
     id="path2-3"
     style="fill:#fdbc4b;fill-opacity:1;stroke-width:0.07838862" />
</svg>
