<svg xmlns="http://www.w3.org/2000/svg" width="971.698" height="960.373" viewBox="0 0 971.698 960.373"><title>e</title><defs><linearGradient id="a" x1="23.194%" x2="68.845%" y1="2.524%" y2="83.377%"><stop offset="0%" stop-color="#72b3f4"/><stop offset="100%" stop-color="#346ebf"/></linearGradient></defs><path fill="url(#a)" fill-rule="nonzero" d="M971.698 299.1c0-11.402 0-22.804-.066-34.206-.058-9.605-.17-19.207-.434-28.807-.57-20.925-1.82-42.028-5.585-62.72-3.818-20.989-10.054-40.524-19.88-59.595a200.5 200.5 0 0 0-37.336-50.768 202.8 202.8 0 0 0-51.386-36.876C837.695 16.414 817.91 10.253 796.65 6.48 775.71 2.765 754.353 1.533 733.182.967c-9.72-.26-19.44-.37-29.164-.429-11.542-.07-23.084-.064-34.627-.064L535.373 0H435.138L303.492.474c-11.565 0-23.13-.005-34.694.064-9.743.06-19.481.17-29.22.43-21.221.565-42.628 1.798-63.615 5.518-21.288 3.772-41.104 9.93-60.446 19.637a203.2 203.2 0 0 0-51.495 36.881c-15.083 14.87-27.725 32.019-37.403 50.76-9.854 19.08-16.101 38.627-19.93 59.628-3.768 20.683-5.017 41.78-5.591 62.695-.262 9.6-.375 19.203-.434 28.807C.594 276.297 0 290.462 0 301.864V530.3l.6 131.036c0 11.417-.006 22.834.064 34.251.059 9.618.172 19.233.435 28.848.573 20.95 1.824 42.084 5.597 62.804 3.826 21.017 10.073 40.58 19.918 59.675 9.68 18.772 22.324 35.947 37.408 50.838a203.3 203.3 0 0 0 51.485 36.928c19.354 9.727 39.18 15.896 60.481 19.673 20.978 3.722 42.377 4.956 63.59 5.521 9.739.26 19.478.37 29.22.43 11.565.068 23.13.068 34.694.068h365.9c11.542 0 23.084 0 34.626-.069 9.723-.058 19.444-.169 29.164-.429 21.18-.566 42.545-1.802 63.491-5.525 21.248-3.778 41.025-9.944 60.33-19.666a202.8 202.8 0 0 0 51.394-36.93 200.8 200.8 0 0 0 37.332-50.83c9.832-19.105 16.068-38.678 19.889-59.709 3.762-20.71 5.01-41.837 5.581-62.78.263-9.615.375-19.23.433-28.847.066-11.417.066-22.834.066-34.251V299.099"/></svg>