<?xml version="1.0" encoding="UTF-8"?>
<svg width="1047.03317px" height="1035.03317px" viewBox="0 0 1047.03317 1035.03317" version="1.1" xmlns="http://www.w3.org/2000/svg" xmlns:xlink="http://www.w3.org/1999/xlink">
    <title>Icon-Shape</title>
    <g id="Page-1" stroke="none" stroke-width="1" fill="none" fill-rule="evenodd">
        <g id="border" transform="translate(37.5166, 37.5166)" stroke="#DAEFFF" stroke-width="75.0331738">
            <path d="M972,610.312479 C972,623.665289 972,637.015287 971.920187,650.368097 C971.854691,661.614346 971.723699,672.858719 971.415203,684.102154 C970.742207,708.601838 969.282308,733.315271 964.873188,757.54308 C960.399521,782.122451 953.09908,804.997447 941.589805,827.328694 C930.277967,849.278378 915.496735,869.363374 897.86405,886.778372 C880.230417,904.194306 859.894357,918.793054 837.670302,929.96524 C815.059915,941.332425 791.898982,948.542737 767.013318,952.961173 C742.481712,957.31586 717.46031,958.757735 692.653431,959.422422 C681.269453,959.72711 669.884525,959.856485 658.497699,959.921172 C644.977978,960 631.461105,960 617.941385,960 L354.058615,960 C340.538895,960 327.022022,960 313.502301,959.921172 C302.115475,959.856485 290.730547,959.72711 279.346569,959.422422 C254.540639,958.757735 229.518288,957.31586 204.987632,952.961173 C180.101018,948.542737 156.940085,941.332425 134.329698,929.96524 C112.106592,918.793054 91.7695835,904.194306 74.1368988,886.778372 C56.503265,869.363374 41.7229822,849.278378 30.410195,827.328694 C18.9018687,804.997447 11.6004793,782.122451 7.12776127,757.54308 C2.71769167,733.315271 1.25779347,708.601838 0.585746702,684.102154 C0.276301439,672.858719 0.145309273,661.614346 0.0798131899,650.368097 C0,637.015287 0,623.665289 0,610.312479 L0,349.687521 C0,336.334711 0,322.984713 0.0798131899,309.631903 C0.145309273,298.385654 0.276301439,287.141281 0.585746702,275.897846 C1.25779347,251.398162 2.71769167,226.684729 7.12776127,202.45692 C11.6004793,177.877549 18.9018687,155.002553 30.410195,132.671306 C41.7229822,110.72256 56.503265,90.6366257 74.1368988,73.2216285 C91.7695835,55.8056938 112.106592,41.2069462 134.329698,30.0347605 C156.940085,18.6685123 180.101018,11.4572635 204.987632,7.03976421 C229.518288,2.68413992 254.540639,1.24226515 279.346569,0.577577761 C290.730547,0.27289031 302.115475,0.143515331 313.502301,0.0788278419 C327.022022,0 340.538895,0 354.058615,0 L617.941385,0 C631.461105,0 644.977978,0 658.497699,0.0788278419 C669.884525,0.143515331 681.269453,0.27289031 692.653431,0.577577761 C717.46031,1.24226515 742.481712,2.68413992 767.013318,7.03976421 C791.898982,11.4572635 815.059915,18.6685123 837.670302,30.0347605 C859.894357,41.2069462 880.230417,55.8056938 897.86405,73.2216285 C915.496735,90.6366257 930.277967,110.72256 941.589805,132.671306 C953.09908,155.002553 960.399521,177.877549 964.873188,202.45692 C969.282308,226.684729 970.742207,251.398162 971.415203,275.897846 C971.723699,287.141281 971.854691,298.385654 971.920187,309.631903 C972,322.984713 972,336.334711 972,349.687521 L972,610.312479 Z" id="Icon-Shape"></path>
        </g>
    </g>
</svg>