<svg xmlns="http://www.w3.org/2000/svg" width="1047.033" height="1035.033" viewBox="0 0 1047.033 1035.033"><title>Icon-Shape</title><path fill="none" fill-rule="evenodd" stroke="#daefff" stroke-width="75.033" d="M1009.517 647.83c0 13.352 0 26.702-.08 40.055-.066 11.246-.197 22.49-.505 33.734-.673 24.5-2.133 49.213-6.542 73.44-4.474 24.58-11.774 47.455-23.284 69.786-11.311 21.95-26.093 42.035-43.725 59.45a237.5 237.5 0 0 1-60.194 43.187c-22.61 11.367-45.771 18.577-70.657 22.996-24.532 4.354-49.553 5.796-74.36 6.461-11.384.305-22.769.434-34.156.499-13.52.079-27.036.079-40.556.079H391.575c-13.52 0-27.036 0-40.556-.08-11.387-.064-22.772-.193-34.156-.498-24.806-.665-49.828-2.107-74.359-6.461-24.886-4.419-48.047-11.629-70.658-22.996a237.5 237.5 0 0 1-60.193-43.187c-17.633-17.415-32.413-37.5-43.726-59.45-11.509-22.331-18.81-45.206-23.283-69.785-4.41-24.228-5.87-48.942-6.542-73.441-.31-11.244-.44-22.488-.506-33.734-.08-13.353-.08-26.703-.08-40.056V387.204c0-13.353 0-26.703.08-40.055.066-11.247.197-22.491.506-33.735.672-24.5 2.132-49.213 6.542-73.44 4.473-24.58 11.774-47.455 23.283-69.786 11.313-21.949 26.093-42.035 43.726-59.45a237.5 237.5 0 0 1 60.193-43.187c22.61-11.366 45.772-18.577 70.658-22.995 24.53-4.355 49.553-5.797 74.36-6.462 11.383-.305 22.768-.434 34.155-.499 13.52-.078 27.036-.078 40.556-.078h263.883c13.52 0 27.037 0 40.556.078 11.387.065 22.772.194 34.156.5 24.807.664 49.828 2.106 74.36 6.461 24.886 4.418 48.047 11.63 70.657 22.995a237.5 237.5 0 0 1 60.194 43.187c17.632 17.415 32.414 37.501 43.725 59.45 11.51 22.331 18.81 45.206 23.284 69.786 4.409 24.227 5.869 48.94 6.542 73.44.308 11.244.44 22.488.505 33.735.08 13.352.08 26.702.08 40.055z"/></svg>