<?xml version="1.0" encoding="UTF-8"?>
<svg width="609px" height="557px" viewBox="0 0 609 557" version="1.1" xmlns="http://www.w3.org/2000/svg" xmlns:xlink="http://www.w3.org/1999/xlink">
    <title>Untitled</title>
    <defs>
        <path d="M971.698127,299.099128 C971.698127,287.698237 971.698127,276.296181 971.631973,264.894126 C971.574191,255.289267 971.462163,245.686738 971.198014,236.08654 C970.627264,215.162375 969.378451,194.058723 965.61315,173.367657 C961.794782,152.378225 955.558978,132.843332 945.7324,113.772307 C936.072094,95.0276208 923.453084,77.8750034 908.396591,63.0044291 C893.343637,48.1338546 875.984095,35.6700313 857.011358,26.1281086 C837.695463,16.4136922 817.909052,10.2528758 796.648596,6.48016253 C775.711251,2.76455854 754.352918,1.53262836 733.182084,0.967362393 C723.461637,0.707456592 713.74119,0.597899885 704.018384,0.53845955 C692.476016,0.468529741 680.933649,0.474357223 669.391281,0.474357223 L535.373404,-3.22844556e-14 L435.138295,-3.22844556e-14 L303.491862,0.474357223 C291.927089,0.474357223 280.362315,0.468529741 268.797543,0.53845955 C259.05469,0.597899885 249.316554,0.707456592 239.577239,0.967362393 C218.356877,1.53262836 196.950196,2.76572404 175.963323,6.48599001 C154.674565,10.2575378 134.858674,16.4160232 115.516835,26.1234466 C96.5040041,35.6665348 79.106727,48.1315236 64.0219326,63.0044291 C48.9394969,77.8738379 36.2969017,95.0229588 26.6189071,113.764148 C16.7652064,132.844497 10.517611,152.391045 6.68980907,173.392132 C2.92096899,194.07504 1.67215745,215.171699 1.09786925,236.08654 C0.836078727,245.687903 0.722872015,255.290432 0.663910186,264.894126 C0.593155999,276.297347 2.33042101e-14,290.461631 2.33042101e-14,301.863686 L2.33042101e-14,430.173235 L2.33042101e-14,530.301069 L0.599052178,661.336716 C0.599052178,672.753923 0.594335233,684.171131 0.663910186,695.588337 C0.722872015,705.206017 0.836078727,714.821367 1.09904848,724.43555 C1.67215745,745.386522 2.92332746,766.520477 6.69570525,787.239514 C10.5223279,808.256918 16.768744,827.819783 26.6141901,846.915283 C36.293364,865.686777 48.9383177,882.861538 64.0219326,897.753092 C79.1055477,912.644645 96.4981079,925.124785 115.507401,934.680693 C134.861031,944.407931 154.686357,950.576906 175.988086,954.354281 C196.965526,958.075712 218.365132,959.309973 239.577239,959.87524 C249.316554,960.135145 259.055869,960.245867 268.798722,960.304142 C280.363495,960.372906 291.927089,960.372906 303.491862,960.372906 L436.328144,960.372906 L536.812073,960.372906 L669.391281,960.372906 C680.933649,960.372906 692.476016,960.372906 704.018384,960.304142 C713.74119,960.245867 723.461637,960.135145 733.182084,959.87524 C754.361172,959.308807 775.726581,958.073381 796.673359,954.349619 C817.920844,950.572244 837.697821,944.4056 857.003103,934.68419 C875.979378,925.129447 893.342457,912.646976 908.396591,897.753092 C923.450726,882.863869 936.068556,865.691439 945.728863,846.923442 C955.561337,827.818618 961.79714,808.246429 965.617866,787.215039 C969.379631,766.50416 970.627264,745.378364 971.199193,724.43555 C971.462163,714.820201 971.574191,705.204852 971.631973,695.588337 C971.698127,684.171131 971.698127,672.753923 971.698127,661.336716 C971.698127,661.336716 971.698127,532.614581 971.698127,530.301069 L971.698127,430.068341 C971.698127,428.359722 971.698127,299.099128 971.698127,299.099128" id="path-1"></path>
    </defs>
    <g id="Page-1" stroke="none" stroke-width="1" fill="none" fill-rule="evenodd">
        <g id="qbittorrent_mac" transform="translate(-181.849, -202.014)">
            <g id="Clipped" transform="translate(0, 0)">
                <mask id="mask-2" fill="white">
                    <use xlink:href="#path-1"></use>
                </mask>
                <g id="a"></g>
                <g id="Group" mask="url(#mask-2)" fill-rule="nonzero">
                    <g transform="translate(182.5448, 201.5236)" id="Shape">
                        <path d="M476.174997,157.777895 C445.034926,157.777895 422.596518,166.649177 408.857992,184.390866 C395.119466,201.952159 388.250197,231.643369 388.250197,273.463623 C388.250197,315.283877 395.302885,345.247011 409.407355,363.351252 C423.511824,381.274223 446.133653,390.23526 477.272839,390.23526 C505.300151,390.23526 526.18218,380.187417 539.920706,360.09173 C553.658348,339.814762 560.527605,310.758913 560.527605,272.920663 C560.527605,234.176889 553.658348,205.30055 539.920706,186.29167 C526.18218,167.282778 504.933311,157.777895 476.174997,157.777895 M482.769137,120.031161 C522.335741,120.031161 553.018159,133.428293 574.81639,160.22166 C596.797145,186.835505 607.78619,224.582239 607.78619,273.463623 C607.78619,322.344996 596.704551,360.363653 574.540376,387.520458 C552.559621,414.495993 521.969798,427.98288 482.769137,427.98288 C463.169254,427.98288 445.217462,424.452321 428.915527,417.392077 C412.795244,410.15055 399.241022,399.106553 388.250197,384.260936 L384.953133,384.260936 L375.337048,422.551517 L342.637932,422.551517 L342.637932,0 L388.250197,0 L388.250197,102.652038 C388.250197,125.643806 387.517414,146.282453 386.051859,164.567977 L388.251093,164.567977 C409.499065,134.876766 441.005079,120.031161 482.769137,120.031161" fill="#FFFFFF"></path>
                        <path d="M123.644084,427.982705 C84.8111521,427.982705 54.4955703,414.495818 32.6973424,387.521169 C10.8991145,360.544761 8.37904182e-15,322.887781 8.37904182e-15,274.549369 C8.37904182e-15,225.850153 10.9908232,187.831495 32.9724686,160.493408 C54.9532248,133.156195 85.5430425,119.488026 124.743707,119.488026 C165.957505,119.488026 197.647835,134.875717 219.81201,165.652848 L222.285477,165.652848 L228.879616,124.918515 L264.874027,124.918515 L264.874027,556.160029 L219.262647,556.160029 L219.262647,428.797577 C219.262647,410.693336 220.269664,395.30477 222.285477,382.631892 L218.713284,382.631892 C197.647835,412.866063 165.958401,427.982705 123.644084,427.982705 L123.644084,427.982705 Z M130.513353,390.235971 C160.920641,390.235971 183.085701,382.179561 197.006762,366.066765 C210.927812,349.953957 218.346444,322.798026 219.262647,284.598086 L219.262647,274.549369 C219.262647,232.910385 212.119145,202.948138 197.831255,184.662614 C183.543354,166.377965 160.921538,157.23476 129.96399,157.23476 C103.219713,157.23476 82.7045177,167.554527 68.4166259,188.193173 C54.3112625,208.650538 47.25947,237.617506 47.25947,275.093204 C47.25947,312.569775 54.220443,341.174191 68.1423901,360.906439 C82.245974,380.459165 103.036294,390.235971 130.513353,390.235971 L130.513353,390.235971 Z" fill="#C8E8FF"></path>
                    </g>
                </g>
            </g>
        </g>
    </g>
</svg>