<svg xmlns="http://www.w3.org/2000/svg" xmlns:xlink="http://www.w3.org/1999/xlink" width="609" height="557" viewBox="0 0 609 557"><title>Untitled</title><defs><path id="a" d="M971.698 299.1c0-11.402 0-22.804-.066-34.206-.058-9.605-.17-19.207-.434-28.807-.57-20.925-1.82-42.028-5.585-62.72-3.818-20.989-10.054-40.524-19.88-59.595a200.5 200.5 0 0 0-37.336-50.768 202.8 202.8 0 0 0-51.386-36.876C837.695 16.414 817.91 10.253 796.65 6.48 775.71 2.765 754.353 1.533 733.182.967c-9.72-.26-19.44-.37-29.164-.429-11.542-.07-23.084-.064-34.627-.064L535.373 0H435.138L303.492.474c-11.565 0-23.13-.005-34.694.064-9.743.06-19.481.17-29.22.43-21.221.565-42.628 1.798-63.615 5.518-21.288 3.772-41.104 9.93-60.446 19.637a203.2 203.2 0 0 0-51.495 36.881c-15.083 14.87-27.725 32.019-37.403 50.76-9.854 19.08-16.101 38.627-19.93 59.628-3.768 20.683-5.017 41.78-5.591 62.695-.262 9.6-.375 19.203-.434 28.807C.594 276.297 0 290.462 0 301.864V530.3l.6 131.036c0 11.417-.006 22.834.064 34.251.059 9.618.172 19.233.435 28.848.573 20.95 1.824 42.084 5.597 62.804 3.826 21.017 10.073 40.58 19.918 59.675 9.68 18.772 22.324 35.947 37.408 50.838a203.3 203.3 0 0 0 51.485 36.928c19.354 9.727 39.18 15.896 60.481 19.673 20.978 3.722 42.377 4.956 63.59 5.521 9.739.26 19.478.37 29.22.43 11.565.068 23.13.068 34.694.068h365.9c11.542 0 23.084 0 34.626-.069 9.723-.058 19.444-.169 29.164-.429 21.18-.566 42.545-1.802 63.491-5.525 21.248-3.778 41.025-9.944 60.33-19.666a202.8 202.8 0 0 0 51.394-36.93 200.8 200.8 0 0 0 37.332-50.83c9.832-19.105 16.068-38.678 19.889-59.709 3.762-20.71 5.01-41.837 5.581-62.78.263-9.615.375-19.23.433-28.847.066-11.417.066-22.834.066-34.251V299.099"/></defs><g fill="none" fill-rule="evenodd" transform="translate(-181.849 -202.014)"><mask id="b" fill="#fff"><use xlink:href="#a"/></mask><g fill-rule="nonzero" mask="url(#b)"><path fill="#fff" d="M658.72 359.301q-46.71 0-67.317 26.613-20.608 26.343-20.608 89.073 0 62.731 21.157 89.888 21.157 26.884 67.866 26.884 42.04 0 62.648-30.144 20.606-30.414 20.606-87.17 0-58.116-20.606-86.63-20.609-28.514-63.746-28.514m6.594-37.746q59.35 0 92.047 40.19 32.97 39.92 32.97 113.242t-33.246 114.057q-32.97 40.463-91.771 40.462-29.4 0-53.854-10.59-24.18-10.863-40.665-33.131h-3.297l-9.616 38.29h-32.7V201.524h45.613v102.652q0 34.487-2.198 61.916h2.199q31.872-44.538 94.518-44.537"/><path fill="#c8e8ff" d="M306.189 629.506q-58.25 0-90.947-40.461-32.697-40.465-32.697-112.972 0-73.05 32.972-114.056 32.97-41.005 91.772-41.005 61.82 0 95.068 46.164h2.473l6.594-40.734h35.995v431.242h-45.612V630.32q0-27.156 3.023-46.166h-3.572q-31.598 45.352-95.07 45.351m6.87-37.746q45.61 0 66.493-24.17 20.881-24.168 22.255-81.468v-10.049q0-62.458-21.43-89.887-21.432-27.427-67.868-27.428-40.116 0-61.548 30.959-21.157 30.686-21.157 86.9t20.883 85.813q21.156 29.33 62.371 29.33"/></g></g></svg>